M48
; DRILL file {KiCad 5.1.5-52549c5~84~ubuntu18.04.1} date Wed 22 Apr 2020 05:59:49 PM PDT
; FORMAT={-:-/ absolute / inch / decimal}
; #@! TF.CreationDate,2020-04-22T17:59:49-07:00
; #@! TF.GenerationSoftware,Kicad,Pcbnew,5.1.5-52549c5~84~ubuntu18.04.1
FMAT,2
INCH
T1C0.0157
T2C0.0315
T3C0.0394
T4C0.1260
%
G90
G05
T1
X5.3426Y-2.4774
X5.4033Y-2.5167
X5.4639Y-2.5561
X5.52Y-2.6
X5.56Y-2.64
X5.6261Y-2.6939
X5.68Y-2.42
X5.6867Y-2.7333
X5.7Y-2.3222
X5.7474Y-2.7726
X5.78Y-2.36
X5.84Y-2.3
X5.9Y-2.26
X5.94Y-2.22
X5.9748Y-2.6348
X5.9886Y-2.8514
X6.0Y-2.2
X6.0Y-3.0
X6.06Y-2.16
X6.1Y-2.12
X6.16Y-2.08
X6.2351Y-2.6649
X6.264Y-2.416
X6.42Y-2.84
X6.5366Y-2.2966
X6.6055Y-2.6545
T2
X7.175Y-2.8
X7.2734Y-2.8
X7.55Y-2.7031
X7.55Y-2.9
T3
X5.337Y-1.85
X5.3915Y-1.7382
X5.4461Y-1.85
X5.5006Y-1.7382
X5.5551Y-1.85
X5.6096Y-1.7382
X5.6642Y-1.85
X5.7187Y-1.7382
X5.7732Y-1.85
X5.8278Y-1.7382
X5.8823Y-1.85
X5.9368Y-1.7382
X5.9913Y-1.85
X6.0459Y-1.7382
X6.1004Y-1.85
X6.1549Y-1.7382
X6.2094Y-1.85
X6.264Y-1.7382
X6.3185Y-1.85
X6.373Y-1.7382
X6.4276Y-1.85
X6.4821Y-1.7382
X6.5366Y-1.85
X6.5911Y-1.7382
X6.6457Y-1.85
X6.7002Y-1.7382
X6.7547Y-1.85
X6.8093Y-1.7382
X6.8638Y-1.85
X6.9183Y-1.7382
X6.9728Y-1.85
X7.0274Y-1.7382
X7.0819Y-1.85
X7.1364Y-1.7382
X7.1909Y-1.85
X7.2455Y-1.7382
X7.3Y-1.85
T4
X5.1Y-3.2
X7.55Y-3.2
X5.0685Y-1.7941
X7.5685Y-1.7941
T0
M30
