G04 #@! TF.GenerationSoftware,KiCad,Pcbnew,5.1.5-52549c5~84~ubuntu18.04.1*
G04 #@! TF.CreationDate,2020-04-22T17:53:27-07:00*
G04 #@! TF.ProjectId,register_16bit,72656769-7374-4657-925f-31366269742e,rev?*
G04 #@! TF.SameCoordinates,Original*
G04 #@! TF.FileFunction,Legend,Top*
G04 #@! TF.FilePolarity,Positive*
%FSLAX46Y46*%
G04 Gerber Fmt 4.6, Leading zero omitted, Abs format (unit mm)*
G04 Created by KiCad (PCBNEW 5.1.5-52549c5~84~ubuntu18.04.1) date 2020-04-22 17:53:27*
%MOMM*%
%LPD*%
G04 APERTURE LIST*
%ADD10C,0.200000*%
%ADD11C,0.150000*%
%ADD12C,0.100000*%
%ADD13C,0.300000*%
%ADD14C,0.010000*%
%ADD15C,0.120000*%
G04 APERTURE END LIST*
D10*
X150812857Y-127206428D02*
X151289047Y-128539761D01*
X151765238Y-127206428D01*
X153574761Y-128539761D02*
X152431904Y-128539761D01*
X153003333Y-128539761D02*
X153003333Y-126539761D01*
X152812857Y-126825476D01*
X152622380Y-127015952D01*
X152431904Y-127111190D01*
X154431904Y-128349285D02*
X154527142Y-128444523D01*
X154431904Y-128539761D01*
X154336666Y-128444523D01*
X154431904Y-128349285D01*
X154431904Y-128539761D01*
X155765238Y-126539761D02*
X155955714Y-126539761D01*
X156146190Y-126635000D01*
X156241428Y-126730238D01*
X156336666Y-126920714D01*
X156431904Y-127301666D01*
X156431904Y-127777857D01*
X156336666Y-128158809D01*
X156241428Y-128349285D01*
X156146190Y-128444523D01*
X155955714Y-128539761D01*
X155765238Y-128539761D01*
X155574761Y-128444523D01*
X155479523Y-128349285D01*
X155384285Y-128158809D01*
X155289047Y-127777857D01*
X155289047Y-127301666D01*
X155384285Y-126920714D01*
X155479523Y-126730238D01*
X155574761Y-126635000D01*
X155765238Y-126539761D01*
D11*
X83883809Y-85994761D02*
X83693333Y-85899523D01*
X83598095Y-85709047D01*
X83598095Y-83994761D01*
X84931428Y-85994761D02*
X84740952Y-85899523D01*
X84645714Y-85804285D01*
X84550476Y-85613809D01*
X84550476Y-85042380D01*
X84645714Y-84851904D01*
X84740952Y-84756666D01*
X84931428Y-84661428D01*
X85217142Y-84661428D01*
X85407619Y-84756666D01*
X85502857Y-84851904D01*
X85598095Y-85042380D01*
X85598095Y-85613809D01*
X85502857Y-85804285D01*
X85407619Y-85899523D01*
X85217142Y-85994761D01*
X84931428Y-85994761D01*
X87312380Y-85994761D02*
X87312380Y-84947142D01*
X87217142Y-84756666D01*
X87026666Y-84661428D01*
X86645714Y-84661428D01*
X86455238Y-84756666D01*
X87312380Y-85899523D02*
X87121904Y-85994761D01*
X86645714Y-85994761D01*
X86455238Y-85899523D01*
X86360000Y-85709047D01*
X86360000Y-85518571D01*
X86455238Y-85328095D01*
X86645714Y-85232857D01*
X87121904Y-85232857D01*
X87312380Y-85137619D01*
X89121904Y-85994761D02*
X89121904Y-83994761D01*
X89121904Y-85899523D02*
X88931428Y-85994761D01*
X88550476Y-85994761D01*
X88360000Y-85899523D01*
X88264761Y-85804285D01*
X88169523Y-85613809D01*
X88169523Y-85042380D01*
X88264761Y-84851904D01*
X88360000Y-84756666D01*
X88550476Y-84661428D01*
X88931428Y-84661428D01*
X89121904Y-84756666D01*
X214201428Y-84411428D02*
X214272857Y-84340000D01*
X214415714Y-84268571D01*
X214772857Y-84268571D01*
X214915714Y-84340000D01*
X214987142Y-84411428D01*
X215058571Y-84554285D01*
X215058571Y-84697142D01*
X214987142Y-84911428D01*
X214130000Y-85768571D01*
X215058571Y-85768571D01*
X223948571Y-85768571D02*
X223091428Y-85768571D01*
X223520000Y-85768571D02*
X223520000Y-84268571D01*
X223377142Y-84482857D01*
X223234285Y-84625714D01*
X223091428Y-84697142D01*
X179355714Y-84268571D02*
X179070000Y-84268571D01*
X178927142Y-84340000D01*
X178855714Y-84411428D01*
X178712857Y-84625714D01*
X178641428Y-84911428D01*
X178641428Y-85482857D01*
X178712857Y-85625714D01*
X178784285Y-85697142D01*
X178927142Y-85768571D01*
X179212857Y-85768571D01*
X179355714Y-85697142D01*
X179427142Y-85625714D01*
X179498571Y-85482857D01*
X179498571Y-85125714D01*
X179427142Y-84982857D01*
X179355714Y-84911428D01*
X179212857Y-84840000D01*
X178927142Y-84840000D01*
X178784285Y-84911428D01*
X178712857Y-84982857D01*
X178641428Y-85125714D01*
X188317142Y-84268571D02*
X187602857Y-84268571D01*
X187531428Y-84982857D01*
X187602857Y-84911428D01*
X187745714Y-84840000D01*
X188102857Y-84840000D01*
X188245714Y-84911428D01*
X188317142Y-84982857D01*
X188388571Y-85125714D01*
X188388571Y-85482857D01*
X188317142Y-85625714D01*
X188245714Y-85697142D01*
X188102857Y-85768571D01*
X187745714Y-85768571D01*
X187602857Y-85697142D01*
X187531428Y-85625714D01*
X143224285Y-85768571D02*
X142367142Y-85768571D01*
X142795714Y-85768571D02*
X142795714Y-84268571D01*
X142652857Y-84482857D01*
X142510000Y-84625714D01*
X142367142Y-84697142D01*
X144152857Y-84268571D02*
X144295714Y-84268571D01*
X144438571Y-84340000D01*
X144510000Y-84411428D01*
X144581428Y-84554285D01*
X144652857Y-84840000D01*
X144652857Y-85197142D01*
X144581428Y-85482857D01*
X144510000Y-85625714D01*
X144438571Y-85697142D01*
X144295714Y-85768571D01*
X144152857Y-85768571D01*
X144010000Y-85697142D01*
X143938571Y-85625714D01*
X143867142Y-85482857D01*
X143795714Y-85197142D01*
X143795714Y-84840000D01*
X143867142Y-84554285D01*
X143938571Y-84411428D01*
X144010000Y-84340000D01*
X144152857Y-84268571D01*
X152114285Y-85768571D02*
X152400000Y-85768571D01*
X152542857Y-85697142D01*
X152614285Y-85625714D01*
X152757142Y-85411428D01*
X152828571Y-85125714D01*
X152828571Y-84554285D01*
X152757142Y-84411428D01*
X152685714Y-84340000D01*
X152542857Y-84268571D01*
X152257142Y-84268571D01*
X152114285Y-84340000D01*
X152042857Y-84411428D01*
X151971428Y-84554285D01*
X151971428Y-84911428D01*
X152042857Y-85054285D01*
X152114285Y-85125714D01*
X152257142Y-85197142D01*
X152542857Y-85197142D01*
X152685714Y-85125714D01*
X152757142Y-85054285D01*
X152828571Y-84911428D01*
X107664285Y-85768571D02*
X106807142Y-85768571D01*
X107235714Y-85768571D02*
X107235714Y-84268571D01*
X107092857Y-84482857D01*
X106950000Y-84625714D01*
X106807142Y-84697142D01*
X108950000Y-84768571D02*
X108950000Y-85768571D01*
X108592857Y-84197142D02*
X108235714Y-85268571D01*
X109164285Y-85268571D01*
X116554285Y-85768571D02*
X115697142Y-85768571D01*
X116125714Y-85768571D02*
X116125714Y-84268571D01*
X115982857Y-84482857D01*
X115840000Y-84625714D01*
X115697142Y-84697142D01*
X117054285Y-84268571D02*
X117982857Y-84268571D01*
X117482857Y-84840000D01*
X117697142Y-84840000D01*
X117840000Y-84911428D01*
X117911428Y-84982857D01*
X117982857Y-85125714D01*
X117982857Y-85482857D01*
X117911428Y-85625714D01*
X117840000Y-85697142D01*
X117697142Y-85768571D01*
X117268571Y-85768571D01*
X117125714Y-85697142D01*
X117054285Y-85625714D01*
D12*
G36*
X184785000Y-130175000D02*
G01*
X165100000Y-130175000D01*
X165100000Y-121285000D01*
X184785000Y-121285000D01*
X184785000Y-130175000D01*
G37*
X184785000Y-130175000D02*
X165100000Y-130175000D01*
X165100000Y-121285000D01*
X184785000Y-121285000D01*
X184785000Y-130175000D01*
D13*
X93308571Y-128626904D02*
X90451428Y-128626904D01*
X91880000Y-128626904D02*
X91880000Y-123626904D01*
X91403809Y-124341190D01*
X90927619Y-124817380D01*
X90451428Y-125055476D01*
X97594285Y-123626904D02*
X96641904Y-123626904D01*
X96165714Y-123865000D01*
X95927619Y-124103095D01*
X95451428Y-124817380D01*
X95213333Y-125769761D01*
X95213333Y-127674523D01*
X95451428Y-128150714D01*
X95689523Y-128388809D01*
X96165714Y-128626904D01*
X97118095Y-128626904D01*
X97594285Y-128388809D01*
X97832380Y-128150714D01*
X98070476Y-127674523D01*
X98070476Y-126484047D01*
X97832380Y-126007857D01*
X97594285Y-125769761D01*
X97118095Y-125531666D01*
X96165714Y-125531666D01*
X95689523Y-125769761D01*
X95451428Y-126007857D01*
X95213333Y-126484047D01*
X100213333Y-126722142D02*
X104022857Y-126722142D01*
X106403809Y-128626904D02*
X106403809Y-123626904D01*
X106403809Y-125531666D02*
X106880000Y-125293571D01*
X107832380Y-125293571D01*
X108308571Y-125531666D01*
X108546666Y-125769761D01*
X108784761Y-126245952D01*
X108784761Y-127674523D01*
X108546666Y-128150714D01*
X108308571Y-128388809D01*
X107832380Y-128626904D01*
X106880000Y-128626904D01*
X106403809Y-128388809D01*
X110927619Y-128626904D02*
X110927619Y-125293571D01*
X110927619Y-123626904D02*
X110689523Y-123865000D01*
X110927619Y-124103095D01*
X111165714Y-123865000D01*
X110927619Y-123626904D01*
X110927619Y-124103095D01*
X112594285Y-125293571D02*
X114499047Y-125293571D01*
X113308571Y-123626904D02*
X113308571Y-127912619D01*
X113546666Y-128388809D01*
X114022857Y-128626904D01*
X114499047Y-128626904D01*
X122832380Y-128626904D02*
X121165714Y-126245952D01*
X119975238Y-128626904D02*
X119975238Y-123626904D01*
X121879999Y-123626904D01*
X122356190Y-123865000D01*
X122594285Y-124103095D01*
X122832380Y-124579285D01*
X122832380Y-125293571D01*
X122594285Y-125769761D01*
X122356190Y-126007857D01*
X121879999Y-126245952D01*
X119975238Y-126245952D01*
X126880000Y-128388809D02*
X126403809Y-128626904D01*
X125451428Y-128626904D01*
X124975238Y-128388809D01*
X124737142Y-127912619D01*
X124737142Y-126007857D01*
X124975238Y-125531666D01*
X125451428Y-125293571D01*
X126403809Y-125293571D01*
X126880000Y-125531666D01*
X127118095Y-126007857D01*
X127118095Y-126484047D01*
X124737142Y-126960238D01*
X131403809Y-125293571D02*
X131403809Y-129341190D01*
X131165714Y-129817380D01*
X130927619Y-130055476D01*
X130451428Y-130293571D01*
X129737142Y-130293571D01*
X129260952Y-130055476D01*
X131403809Y-128388809D02*
X130927619Y-128626904D01*
X129975238Y-128626904D01*
X129499047Y-128388809D01*
X129260952Y-128150714D01*
X129022857Y-127674523D01*
X129022857Y-126245952D01*
X129260952Y-125769761D01*
X129499047Y-125531666D01*
X129975238Y-125293571D01*
X130927619Y-125293571D01*
X131403809Y-125531666D01*
X133784761Y-128626904D02*
X133784761Y-125293571D01*
X133784761Y-123626904D02*
X133546666Y-123865000D01*
X133784761Y-124103095D01*
X134022857Y-123865000D01*
X133784761Y-123626904D01*
X133784761Y-124103095D01*
X135927619Y-128388809D02*
X136403809Y-128626904D01*
X137356190Y-128626904D01*
X137832380Y-128388809D01*
X138070476Y-127912619D01*
X138070476Y-127674523D01*
X137832380Y-127198333D01*
X137356190Y-126960238D01*
X136641904Y-126960238D01*
X136165714Y-126722142D01*
X135927619Y-126245952D01*
X135927619Y-126007857D01*
X136165714Y-125531666D01*
X136641904Y-125293571D01*
X137356190Y-125293571D01*
X137832380Y-125531666D01*
X139499047Y-125293571D02*
X141403809Y-125293571D01*
X140213333Y-123626904D02*
X140213333Y-127912619D01*
X140451428Y-128388809D01*
X140927619Y-128626904D01*
X141403809Y-128626904D01*
X144975238Y-128388809D02*
X144499047Y-128626904D01*
X143546666Y-128626904D01*
X143070476Y-128388809D01*
X142832380Y-127912619D01*
X142832380Y-126007857D01*
X143070476Y-125531666D01*
X143546666Y-125293571D01*
X144499047Y-125293571D01*
X144975238Y-125531666D01*
X145213333Y-126007857D01*
X145213333Y-126484047D01*
X142832380Y-126960238D01*
X147356190Y-128626904D02*
X147356190Y-125293571D01*
X147356190Y-126245952D02*
X147594285Y-125769761D01*
X147832380Y-125531666D01*
X148308571Y-125293571D01*
X148784761Y-125293571D01*
D11*
X205240000Y-84268571D02*
X206168571Y-84268571D01*
X205668571Y-84840000D01*
X205882857Y-84840000D01*
X206025714Y-84911428D01*
X206097142Y-84982857D01*
X206168571Y-85125714D01*
X206168571Y-85482857D01*
X206097142Y-85625714D01*
X206025714Y-85697142D01*
X205882857Y-85768571D01*
X205454285Y-85768571D01*
X205311428Y-85697142D01*
X205240000Y-85625714D01*
X169680000Y-84268571D02*
X170680000Y-84268571D01*
X170037142Y-85768571D01*
X134334285Y-85768571D02*
X133477142Y-85768571D01*
X133905714Y-85768571D02*
X133905714Y-84268571D01*
X133762857Y-84482857D01*
X133620000Y-84625714D01*
X133477142Y-84697142D01*
X135762857Y-85768571D02*
X134905714Y-85768571D01*
X135334285Y-85768571D02*
X135334285Y-84268571D01*
X135191428Y-84482857D01*
X135048571Y-84625714D01*
X134905714Y-84697142D01*
X98774285Y-85768571D02*
X97917142Y-85768571D01*
X98345714Y-85768571D02*
X98345714Y-84268571D01*
X98202857Y-84482857D01*
X98060000Y-84625714D01*
X97917142Y-84697142D01*
X100131428Y-84268571D02*
X99417142Y-84268571D01*
X99345714Y-84982857D01*
X99417142Y-84911428D01*
X99560000Y-84840000D01*
X99917142Y-84840000D01*
X100060000Y-84911428D01*
X100131428Y-84982857D01*
X100202857Y-85125714D01*
X100202857Y-85482857D01*
X100131428Y-85625714D01*
X100060000Y-85697142D01*
X99917142Y-85768571D01*
X99560000Y-85768571D01*
X99417142Y-85697142D01*
X99345714Y-85625714D01*
X125444285Y-85768571D02*
X124587142Y-85768571D01*
X125015714Y-85768571D02*
X125015714Y-84268571D01*
X124872857Y-84482857D01*
X124730000Y-84625714D01*
X124587142Y-84697142D01*
X126015714Y-84411428D02*
X126087142Y-84340000D01*
X126230000Y-84268571D01*
X126587142Y-84268571D01*
X126730000Y-84340000D01*
X126801428Y-84411428D01*
X126872857Y-84554285D01*
X126872857Y-84697142D01*
X126801428Y-84911428D01*
X125944285Y-85768571D01*
X126872857Y-85768571D01*
X161147142Y-84911428D02*
X161004285Y-84840000D01*
X160932857Y-84768571D01*
X160861428Y-84625714D01*
X160861428Y-84554285D01*
X160932857Y-84411428D01*
X161004285Y-84340000D01*
X161147142Y-84268571D01*
X161432857Y-84268571D01*
X161575714Y-84340000D01*
X161647142Y-84411428D01*
X161718571Y-84554285D01*
X161718571Y-84625714D01*
X161647142Y-84768571D01*
X161575714Y-84840000D01*
X161432857Y-84911428D01*
X161147142Y-84911428D01*
X161004285Y-84982857D01*
X160932857Y-85054285D01*
X160861428Y-85197142D01*
X160861428Y-85482857D01*
X160932857Y-85625714D01*
X161004285Y-85697142D01*
X161147142Y-85768571D01*
X161432857Y-85768571D01*
X161575714Y-85697142D01*
X161647142Y-85625714D01*
X161718571Y-85482857D01*
X161718571Y-85197142D01*
X161647142Y-85054285D01*
X161575714Y-84982857D01*
X161432857Y-84911428D01*
X197135714Y-84768571D02*
X197135714Y-85768571D01*
X196778571Y-84197142D02*
X196421428Y-85268571D01*
X197350000Y-85268571D01*
X232338571Y-84268571D02*
X232481428Y-84268571D01*
X232624285Y-84340000D01*
X232695714Y-84411428D01*
X232767142Y-84554285D01*
X232838571Y-84840000D01*
X232838571Y-85197142D01*
X232767142Y-85482857D01*
X232695714Y-85625714D01*
X232624285Y-85697142D01*
X232481428Y-85768571D01*
X232338571Y-85768571D01*
X232195714Y-85697142D01*
X232124285Y-85625714D01*
X232052857Y-85482857D01*
X231981428Y-85197142D01*
X231981428Y-84840000D01*
X232052857Y-84554285D01*
X232124285Y-84411428D01*
X232195714Y-84340000D01*
X232338571Y-84268571D01*
D14*
G36*
X217910065Y-123792919D02*
G01*
X217994383Y-123856224D01*
X218016004Y-124021401D01*
X218016667Y-124121333D01*
X218007696Y-124338169D01*
X217952304Y-124434533D01*
X217807774Y-124459243D01*
X217720334Y-124460000D01*
X217530602Y-124449747D01*
X217446284Y-124386442D01*
X217424663Y-124221266D01*
X217424000Y-124121333D01*
X217432971Y-123904497D01*
X217488363Y-123808134D01*
X217632893Y-123783424D01*
X217720334Y-123782667D01*
X217910065Y-123792919D01*
G37*
X217910065Y-123792919D02*
X217994383Y-123856224D01*
X218016004Y-124021401D01*
X218016667Y-124121333D01*
X218007696Y-124338169D01*
X217952304Y-124434533D01*
X217807774Y-124459243D01*
X217720334Y-124460000D01*
X217530602Y-124449747D01*
X217446284Y-124386442D01*
X217424663Y-124221266D01*
X217424000Y-124121333D01*
X217432971Y-123904497D01*
X217488363Y-123808134D01*
X217632893Y-123783424D01*
X217720334Y-123782667D01*
X217910065Y-123792919D01*
G36*
X222250000Y-128439333D02*
G01*
X221742000Y-128439333D01*
X221742000Y-123782667D01*
X222250000Y-123782667D01*
X222250000Y-128439333D01*
G37*
X222250000Y-128439333D02*
X221742000Y-128439333D01*
X221742000Y-123782667D01*
X222250000Y-123782667D01*
X222250000Y-128439333D01*
G36*
X220733559Y-124987145D02*
G01*
X220800458Y-125079644D01*
X220810667Y-125243167D01*
X220802872Y-125406283D01*
X220750276Y-125487443D01*
X220609060Y-125515260D01*
X220389258Y-125518333D01*
X220099299Y-125537678D01*
X219898952Y-125614092D01*
X219733091Y-125752861D01*
X219640558Y-125851351D01*
X219575024Y-125951719D01*
X219530497Y-126085088D01*
X219500986Y-126282580D01*
X219480499Y-126575316D01*
X219463045Y-126994418D01*
X219456000Y-127192195D01*
X219413667Y-128397000D01*
X219138500Y-128423531D01*
X218863334Y-128450062D01*
X218863334Y-125052667D01*
X219159667Y-125052667D01*
X219359456Y-125067802D01*
X219441342Y-125138951D01*
X219456000Y-125279092D01*
X219456000Y-125505517D01*
X219646500Y-125327065D01*
X220016867Y-125086839D01*
X220450861Y-124973187D01*
X220562179Y-124968000D01*
X220733559Y-124987145D01*
G37*
X220733559Y-124987145D02*
X220800458Y-125079644D01*
X220810667Y-125243167D01*
X220802872Y-125406283D01*
X220750276Y-125487443D01*
X220609060Y-125515260D01*
X220389258Y-125518333D01*
X220099299Y-125537678D01*
X219898952Y-125614092D01*
X219733091Y-125752861D01*
X219640558Y-125851351D01*
X219575024Y-125951719D01*
X219530497Y-126085088D01*
X219500986Y-126282580D01*
X219480499Y-126575316D01*
X219463045Y-126994418D01*
X219456000Y-127192195D01*
X219413667Y-128397000D01*
X219138500Y-128423531D01*
X218863334Y-128450062D01*
X218863334Y-125052667D01*
X219159667Y-125052667D01*
X219359456Y-125067802D01*
X219441342Y-125138951D01*
X219456000Y-125279092D01*
X219456000Y-125505517D01*
X219646500Y-125327065D01*
X220016867Y-125086839D01*
X220450861Y-124973187D01*
X220562179Y-124968000D01*
X220733559Y-124987145D01*
G36*
X218016667Y-128439333D02*
G01*
X217424000Y-128439333D01*
X217424000Y-125052667D01*
X218016667Y-125052667D01*
X218016667Y-128439333D01*
G37*
X218016667Y-128439333D02*
X217424000Y-128439333D01*
X217424000Y-125052667D01*
X218016667Y-125052667D01*
X218016667Y-128439333D01*
G36*
X212466997Y-125061191D02*
G01*
X212716462Y-125181741D01*
X212893874Y-125370813D01*
X213000167Y-125557440D01*
X213075231Y-125721224D01*
X213127663Y-125887492D01*
X213161442Y-126090394D01*
X213180547Y-126364080D01*
X213188956Y-126742700D01*
X213190667Y-127192638D01*
X213190667Y-128450062D01*
X212915500Y-128423531D01*
X212640334Y-128397000D01*
X212598000Y-127098099D01*
X212580518Y-126601183D01*
X212562554Y-126245333D01*
X212539427Y-126002333D01*
X212506460Y-125843967D01*
X212458972Y-125742019D01*
X212392284Y-125668274D01*
X212355787Y-125637599D01*
X212052951Y-125492280D01*
X211719064Y-125499454D01*
X211390266Y-125656183D01*
X211308169Y-125722762D01*
X211031667Y-125969524D01*
X210989334Y-127183262D01*
X210947000Y-128397000D01*
X210671834Y-128423531D01*
X210396667Y-128450062D01*
X210396667Y-125052667D01*
X210693000Y-125052667D01*
X210893061Y-125068118D01*
X210975019Y-125139234D01*
X210989334Y-125271859D01*
X210989334Y-125491052D01*
X211245826Y-125275228D01*
X211633836Y-125053345D01*
X212069510Y-124987018D01*
X212466997Y-125061191D01*
G37*
X212466997Y-125061191D02*
X212716462Y-125181741D01*
X212893874Y-125370813D01*
X213000167Y-125557440D01*
X213075231Y-125721224D01*
X213127663Y-125887492D01*
X213161442Y-126090394D01*
X213180547Y-126364080D01*
X213188956Y-126742700D01*
X213190667Y-127192638D01*
X213190667Y-128450062D01*
X212915500Y-128423531D01*
X212640334Y-128397000D01*
X212598000Y-127098099D01*
X212580518Y-126601183D01*
X212562554Y-126245333D01*
X212539427Y-126002333D01*
X212506460Y-125843967D01*
X212458972Y-125742019D01*
X212392284Y-125668274D01*
X212355787Y-125637599D01*
X212052951Y-125492280D01*
X211719064Y-125499454D01*
X211390266Y-125656183D01*
X211308169Y-125722762D01*
X211031667Y-125969524D01*
X210989334Y-127183262D01*
X210947000Y-128397000D01*
X210671834Y-128423531D01*
X210396667Y-128450062D01*
X210396667Y-125052667D01*
X210693000Y-125052667D01*
X210893061Y-125068118D01*
X210975019Y-125139234D01*
X210989334Y-125271859D01*
X210989334Y-125491052D01*
X211245826Y-125275228D01*
X211633836Y-125053345D01*
X212069510Y-124987018D01*
X212466997Y-125061191D01*
G36*
X216662000Y-128439333D02*
G01*
X216408000Y-128439333D01*
X216226715Y-128416796D01*
X216160302Y-128319874D01*
X216154000Y-128223358D01*
X216154000Y-128007382D01*
X215871139Y-128223131D01*
X215521605Y-128406312D01*
X215121606Y-128488847D01*
X214738405Y-128460990D01*
X214587667Y-128409060D01*
X214202914Y-128139688D01*
X213906472Y-127735703D01*
X213829708Y-127573064D01*
X213732337Y-127192761D01*
X213711404Y-126862587D01*
X214293178Y-126862587D01*
X214363954Y-127278921D01*
X214509705Y-127632825D01*
X214722223Y-127876287D01*
X214724562Y-127877935D01*
X215043609Y-128006332D01*
X215383499Y-127981623D01*
X215701878Y-127807799D01*
X215730026Y-127783167D01*
X215952339Y-127472939D01*
X216074814Y-127056560D01*
X216089150Y-126570338D01*
X216059098Y-126343833D01*
X215926072Y-125961470D01*
X215705357Y-125685486D01*
X215428251Y-125521746D01*
X215126051Y-125476114D01*
X214830054Y-125554457D01*
X214571558Y-125762639D01*
X214409390Y-126034679D01*
X214305586Y-126431835D01*
X214293178Y-126862587D01*
X213711404Y-126862587D01*
X213703240Y-126733826D01*
X213741177Y-126272036D01*
X213844911Y-125883167D01*
X213857812Y-125853497D01*
X214118228Y-125448020D01*
X214458898Y-125163632D01*
X214850226Y-125008650D01*
X215262619Y-124991390D01*
X215666480Y-125120170D01*
X215902028Y-125279032D01*
X216154000Y-125491052D01*
X216154000Y-123782667D01*
X216662000Y-123782667D01*
X216662000Y-128439333D01*
G37*
X216662000Y-128439333D02*
X216408000Y-128439333D01*
X216226715Y-128416796D01*
X216160302Y-128319874D01*
X216154000Y-128223358D01*
X216154000Y-128007382D01*
X215871139Y-128223131D01*
X215521605Y-128406312D01*
X215121606Y-128488847D01*
X214738405Y-128460990D01*
X214587667Y-128409060D01*
X214202914Y-128139688D01*
X213906472Y-127735703D01*
X213829708Y-127573064D01*
X213732337Y-127192761D01*
X213711404Y-126862587D01*
X214293178Y-126862587D01*
X214363954Y-127278921D01*
X214509705Y-127632825D01*
X214722223Y-127876287D01*
X214724562Y-127877935D01*
X215043609Y-128006332D01*
X215383499Y-127981623D01*
X215701878Y-127807799D01*
X215730026Y-127783167D01*
X215952339Y-127472939D01*
X216074814Y-127056560D01*
X216089150Y-126570338D01*
X216059098Y-126343833D01*
X215926072Y-125961470D01*
X215705357Y-125685486D01*
X215428251Y-125521746D01*
X215126051Y-125476114D01*
X214830054Y-125554457D01*
X214571558Y-125762639D01*
X214409390Y-126034679D01*
X214305586Y-126431835D01*
X214293178Y-126862587D01*
X213711404Y-126862587D01*
X213703240Y-126733826D01*
X213741177Y-126272036D01*
X213844911Y-125883167D01*
X213857812Y-125853497D01*
X214118228Y-125448020D01*
X214458898Y-125163632D01*
X214850226Y-125008650D01*
X215262619Y-124991390D01*
X215666480Y-125120170D01*
X215902028Y-125279032D01*
X216154000Y-125491052D01*
X216154000Y-123782667D01*
X216662000Y-123782667D01*
X216662000Y-128439333D01*
G36*
X208324957Y-125003670D02*
G01*
X208716084Y-125066323D01*
X209009583Y-125186164D01*
X209037019Y-125205237D01*
X209236478Y-125374839D01*
X209383457Y-125562423D01*
X209486549Y-125797187D01*
X209554347Y-126108330D01*
X209595443Y-126525049D01*
X209618431Y-127076541D01*
X209621266Y-127190500D01*
X209650198Y-128439333D01*
X209346099Y-128439333D01*
X209142950Y-128425119D01*
X209058292Y-128357615D01*
X209042000Y-128212908D01*
X209042000Y-127986483D01*
X208843891Y-128172597D01*
X208481064Y-128404221D01*
X208053148Y-128506248D01*
X207611891Y-128471649D01*
X207348667Y-128375702D01*
X207044113Y-128141031D01*
X206855738Y-127825281D01*
X206782624Y-127466904D01*
X206804918Y-127270847D01*
X207362217Y-127270847D01*
X207363912Y-127531186D01*
X207483551Y-127754764D01*
X207695537Y-127919141D01*
X207974274Y-128001878D01*
X208294163Y-127980536D01*
X208526788Y-127892729D01*
X208756348Y-127694758D01*
X208938071Y-127395134D01*
X209034954Y-127061194D01*
X209042000Y-126955159D01*
X209042000Y-126724243D01*
X208350731Y-126764260D01*
X207992376Y-126791483D01*
X207760940Y-126830425D01*
X207614011Y-126892702D01*
X207509175Y-126989935D01*
X207504064Y-126996185D01*
X207362217Y-127270847D01*
X206804918Y-127270847D01*
X206823851Y-127104352D01*
X206978501Y-126776078D01*
X207245654Y-126520533D01*
X207394866Y-126442595D01*
X207641042Y-126378916D01*
X207995576Y-126336490D01*
X208361947Y-126322667D01*
X208700667Y-126318974D01*
X208903972Y-126302432D01*
X209005715Y-126264848D01*
X209039751Y-126198025D01*
X209042000Y-126158054D01*
X208988930Y-125984328D01*
X208859662Y-125781935D01*
X208844679Y-125764043D01*
X208594466Y-125589384D01*
X208244932Y-125494723D01*
X207849183Y-125486305D01*
X207460327Y-125570376D01*
X207399328Y-125594064D01*
X207162421Y-125690312D01*
X207045874Y-125711084D01*
X207012295Y-125642443D01*
X207024286Y-125470448D01*
X207025802Y-125454833D01*
X207056722Y-125288012D01*
X207138447Y-125187087D01*
X207315927Y-125113567D01*
X207475667Y-125069555D01*
X207892665Y-125003112D01*
X208324957Y-125003670D01*
G37*
X208324957Y-125003670D02*
X208716084Y-125066323D01*
X209009583Y-125186164D01*
X209037019Y-125205237D01*
X209236478Y-125374839D01*
X209383457Y-125562423D01*
X209486549Y-125797187D01*
X209554347Y-126108330D01*
X209595443Y-126525049D01*
X209618431Y-127076541D01*
X209621266Y-127190500D01*
X209650198Y-128439333D01*
X209346099Y-128439333D01*
X209142950Y-128425119D01*
X209058292Y-128357615D01*
X209042000Y-128212908D01*
X209042000Y-127986483D01*
X208843891Y-128172597D01*
X208481064Y-128404221D01*
X208053148Y-128506248D01*
X207611891Y-128471649D01*
X207348667Y-128375702D01*
X207044113Y-128141031D01*
X206855738Y-127825281D01*
X206782624Y-127466904D01*
X206804918Y-127270847D01*
X207362217Y-127270847D01*
X207363912Y-127531186D01*
X207483551Y-127754764D01*
X207695537Y-127919141D01*
X207974274Y-128001878D01*
X208294163Y-127980536D01*
X208526788Y-127892729D01*
X208756348Y-127694758D01*
X208938071Y-127395134D01*
X209034954Y-127061194D01*
X209042000Y-126955159D01*
X209042000Y-126724243D01*
X208350731Y-126764260D01*
X207992376Y-126791483D01*
X207760940Y-126830425D01*
X207614011Y-126892702D01*
X207509175Y-126989935D01*
X207504064Y-126996185D01*
X207362217Y-127270847D01*
X206804918Y-127270847D01*
X206823851Y-127104352D01*
X206978501Y-126776078D01*
X207245654Y-126520533D01*
X207394866Y-126442595D01*
X207641042Y-126378916D01*
X207995576Y-126336490D01*
X208361947Y-126322667D01*
X208700667Y-126318974D01*
X208903972Y-126302432D01*
X209005715Y-126264848D01*
X209039751Y-126198025D01*
X209042000Y-126158054D01*
X208988930Y-125984328D01*
X208859662Y-125781935D01*
X208844679Y-125764043D01*
X208594466Y-125589384D01*
X208244932Y-125494723D01*
X207849183Y-125486305D01*
X207460327Y-125570376D01*
X207399328Y-125594064D01*
X207162421Y-125690312D01*
X207045874Y-125711084D01*
X207012295Y-125642443D01*
X207024286Y-125470448D01*
X207025802Y-125454833D01*
X207056722Y-125288012D01*
X207138447Y-125187087D01*
X207315927Y-125113567D01*
X207475667Y-125069555D01*
X207892665Y-125003112D01*
X208324957Y-125003670D01*
G36*
X204077446Y-121528745D02*
G01*
X204124996Y-121654942D01*
X204131334Y-121801364D01*
X204173695Y-122061069D01*
X204325520Y-122283866D01*
X204394231Y-122351645D01*
X204565858Y-122540332D01*
X204629969Y-122720943D01*
X204625223Y-122931803D01*
X204617038Y-123149913D01*
X204673851Y-123275535D01*
X204835761Y-123374937D01*
X204915636Y-123411724D01*
X205297664Y-123660836D01*
X205641884Y-124025339D01*
X205900058Y-124451611D01*
X205942223Y-124552829D01*
X205990358Y-124704176D01*
X206025535Y-124884940D01*
X206049117Y-125120531D01*
X206062470Y-125436354D01*
X206066958Y-125857820D01*
X206063947Y-126410336D01*
X206060026Y-126746000D01*
X206036334Y-128566333D01*
X205637785Y-128591991D01*
X205239237Y-128617649D01*
X205214452Y-129226991D01*
X205196721Y-129544463D01*
X205168216Y-129728129D01*
X205117619Y-129813515D01*
X205033612Y-129836147D01*
X205020334Y-129836333D01*
X204931673Y-129819115D01*
X204877603Y-129743855D01*
X204846921Y-129575139D01*
X204828424Y-129277559D01*
X204826124Y-129222500D01*
X204801248Y-128608667D01*
X203122752Y-128608667D01*
X203097876Y-129221602D01*
X203075475Y-129558566D01*
X203037114Y-129756850D01*
X202975349Y-129846894D01*
X202941872Y-129859529D01*
X202791322Y-129848846D01*
X202751372Y-129825149D01*
X202721491Y-129716128D01*
X202700166Y-129487295D01*
X202692000Y-129188127D01*
X202692000Y-128608667D01*
X201506667Y-128608667D01*
X201506667Y-128185333D01*
X202334451Y-128185333D01*
X204987684Y-128185333D01*
X204961675Y-126455610D01*
X204951699Y-125867000D01*
X204940189Y-125422925D01*
X204924587Y-125098594D01*
X204902337Y-124869210D01*
X204870881Y-124709980D01*
X204827663Y-124596111D01*
X204770126Y-124502808D01*
X204758664Y-124487110D01*
X204467338Y-124222670D01*
X204105577Y-124084889D01*
X203708566Y-124068067D01*
X203311487Y-124166505D01*
X202949523Y-124374504D01*
X202657858Y-124686363D01*
X202567164Y-124842117D01*
X202504686Y-124989552D01*
X202458034Y-125162569D01*
X202424081Y-125389952D01*
X202399700Y-125700483D01*
X202381763Y-126122945D01*
X202367223Y-126682500D01*
X202334451Y-128185333D01*
X201506667Y-128185333D01*
X201506667Y-123444000D01*
X201930000Y-123444000D01*
X202183917Y-123452915D01*
X202310555Y-123490756D01*
X202351522Y-123574167D01*
X202353334Y-123613333D01*
X202394098Y-123759933D01*
X202500271Y-123757329D01*
X202596479Y-123668745D01*
X202731547Y-123562215D01*
X202949013Y-123439760D01*
X203010855Y-123410600D01*
X203213516Y-123305850D01*
X203298376Y-123194980D01*
X203305680Y-123011069D01*
X203298778Y-122931803D01*
X203298529Y-122841758D01*
X203721759Y-122841758D01*
X203754596Y-123038974D01*
X203880793Y-123168815D01*
X203962000Y-123187407D01*
X204061812Y-123148060D01*
X204117575Y-123115628D01*
X204194940Y-122984554D01*
X204202241Y-122841758D01*
X204132513Y-122683001D01*
X203962000Y-122639667D01*
X203789338Y-122684809D01*
X203721759Y-122841758D01*
X203298529Y-122841758D01*
X203298111Y-122691106D01*
X203376147Y-122514700D01*
X203529769Y-122351645D01*
X203719704Y-122125123D01*
X203789567Y-121883896D01*
X203792667Y-121801364D01*
X203810494Y-121593631D01*
X203880627Y-121508070D01*
X203962000Y-121496667D01*
X204077446Y-121528745D01*
G37*
X204077446Y-121528745D02*
X204124996Y-121654942D01*
X204131334Y-121801364D01*
X204173695Y-122061069D01*
X204325520Y-122283866D01*
X204394231Y-122351645D01*
X204565858Y-122540332D01*
X204629969Y-122720943D01*
X204625223Y-122931803D01*
X204617038Y-123149913D01*
X204673851Y-123275535D01*
X204835761Y-123374937D01*
X204915636Y-123411724D01*
X205297664Y-123660836D01*
X205641884Y-124025339D01*
X205900058Y-124451611D01*
X205942223Y-124552829D01*
X205990358Y-124704176D01*
X206025535Y-124884940D01*
X206049117Y-125120531D01*
X206062470Y-125436354D01*
X206066958Y-125857820D01*
X206063947Y-126410336D01*
X206060026Y-126746000D01*
X206036334Y-128566333D01*
X205637785Y-128591991D01*
X205239237Y-128617649D01*
X205214452Y-129226991D01*
X205196721Y-129544463D01*
X205168216Y-129728129D01*
X205117619Y-129813515D01*
X205033612Y-129836147D01*
X205020334Y-129836333D01*
X204931673Y-129819115D01*
X204877603Y-129743855D01*
X204846921Y-129575139D01*
X204828424Y-129277559D01*
X204826124Y-129222500D01*
X204801248Y-128608667D01*
X203122752Y-128608667D01*
X203097876Y-129221602D01*
X203075475Y-129558566D01*
X203037114Y-129756850D01*
X202975349Y-129846894D01*
X202941872Y-129859529D01*
X202791322Y-129848846D01*
X202751372Y-129825149D01*
X202721491Y-129716128D01*
X202700166Y-129487295D01*
X202692000Y-129188127D01*
X202692000Y-128608667D01*
X201506667Y-128608667D01*
X201506667Y-128185333D01*
X202334451Y-128185333D01*
X204987684Y-128185333D01*
X204961675Y-126455610D01*
X204951699Y-125867000D01*
X204940189Y-125422925D01*
X204924587Y-125098594D01*
X204902337Y-124869210D01*
X204870881Y-124709980D01*
X204827663Y-124596111D01*
X204770126Y-124502808D01*
X204758664Y-124487110D01*
X204467338Y-124222670D01*
X204105577Y-124084889D01*
X203708566Y-124068067D01*
X203311487Y-124166505D01*
X202949523Y-124374504D01*
X202657858Y-124686363D01*
X202567164Y-124842117D01*
X202504686Y-124989552D01*
X202458034Y-125162569D01*
X202424081Y-125389952D01*
X202399700Y-125700483D01*
X202381763Y-126122945D01*
X202367223Y-126682500D01*
X202334451Y-128185333D01*
X201506667Y-128185333D01*
X201506667Y-123444000D01*
X201930000Y-123444000D01*
X202183917Y-123452915D01*
X202310555Y-123490756D01*
X202351522Y-123574167D01*
X202353334Y-123613333D01*
X202394098Y-123759933D01*
X202500271Y-123757329D01*
X202596479Y-123668745D01*
X202731547Y-123562215D01*
X202949013Y-123439760D01*
X203010855Y-123410600D01*
X203213516Y-123305850D01*
X203298376Y-123194980D01*
X203305680Y-123011069D01*
X203298778Y-122931803D01*
X203298529Y-122841758D01*
X203721759Y-122841758D01*
X203754596Y-123038974D01*
X203880793Y-123168815D01*
X203962000Y-123187407D01*
X204061812Y-123148060D01*
X204117575Y-123115628D01*
X204194940Y-122984554D01*
X204202241Y-122841758D01*
X204132513Y-122683001D01*
X203962000Y-122639667D01*
X203789338Y-122684809D01*
X203721759Y-122841758D01*
X203298529Y-122841758D01*
X203298111Y-122691106D01*
X203376147Y-122514700D01*
X203529769Y-122351645D01*
X203719704Y-122125123D01*
X203789567Y-121883896D01*
X203792667Y-121801364D01*
X203810494Y-121593631D01*
X203880627Y-121508070D01*
X203962000Y-121496667D01*
X204077446Y-121528745D01*
D15*
X75981325Y-72390000D02*
X76414338Y-72140000D01*
X76414338Y-72640000D02*
X75981325Y-72390000D01*
X76414338Y-72140000D02*
X76414338Y-72640000D01*
X75520000Y-132080000D02*
X63180000Y-132080000D01*
X75520000Y-62560000D02*
X75520000Y-132080000D01*
X63180000Y-62560000D02*
X75520000Y-62560000D01*
X82825000Y-81247064D02*
X82825000Y-80042936D01*
X81005000Y-81247064D02*
X81005000Y-80042936D01*
X87905000Y-77450000D02*
X84815000Y-77450000D01*
X88860000Y-80010000D02*
G75*
G03X88860000Y-80010000I-2500000J0D01*
G01*
X86360462Y-83000000D02*
G75*
G02X84815170Y-77450000I-462J2990000D01*
G01*
X86359538Y-83000000D02*
G75*
G03X87904830Y-77450000I462J2990000D01*
G01*
X82335000Y-95210000D02*
X82650000Y-95210000D01*
X79910000Y-95210000D02*
X80225000Y-95210000D01*
X82335000Y-100450000D02*
X82650000Y-100450000D01*
X79910000Y-100450000D02*
X80225000Y-100450000D01*
X82650000Y-100450000D02*
X82650000Y-95210000D01*
X79910000Y-100450000D02*
X79910000Y-95210000D01*
D11*
X185460000Y-114085000D02*
X185460000Y-115435000D01*
X190585000Y-114085000D02*
X190585000Y-109435000D01*
X185335000Y-114085000D02*
X185335000Y-109435000D01*
X190585000Y-114085000D02*
X190360000Y-114085000D01*
X190585000Y-109435000D02*
X190360000Y-109435000D01*
X185335000Y-109435000D02*
X185560000Y-109435000D01*
X185335000Y-114085000D02*
X185460000Y-114085000D01*
D15*
X225065000Y-77450000D02*
X221975000Y-77450000D01*
X226020000Y-80010000D02*
G75*
G03X226020000Y-80010000I-2500000J0D01*
G01*
X223520462Y-83000000D02*
G75*
G02X221975170Y-77450000I-462J2990000D01*
G01*
X223519538Y-83000000D02*
G75*
G03X225064830Y-77450000I462J2990000D01*
G01*
D11*
X229910000Y-93765000D02*
X229910000Y-95115000D01*
X235035000Y-93765000D02*
X235035000Y-89115000D01*
X229785000Y-93765000D02*
X229785000Y-89115000D01*
X235035000Y-93765000D02*
X234810000Y-93765000D01*
X235035000Y-89115000D02*
X234810000Y-89115000D01*
X229785000Y-89115000D02*
X230010000Y-89115000D01*
X229785000Y-93765000D02*
X229910000Y-93765000D01*
X229910000Y-103925000D02*
X229910000Y-105275000D01*
X235035000Y-103925000D02*
X235035000Y-99275000D01*
X229785000Y-103925000D02*
X229785000Y-99275000D01*
X235035000Y-103925000D02*
X234810000Y-103925000D01*
X235035000Y-99275000D02*
X234810000Y-99275000D01*
X229785000Y-99275000D02*
X230010000Y-99275000D01*
X229785000Y-103925000D02*
X229910000Y-103925000D01*
X229910000Y-114085000D02*
X229910000Y-115435000D01*
X235035000Y-114085000D02*
X235035000Y-109435000D01*
X229785000Y-114085000D02*
X229785000Y-109435000D01*
X235035000Y-114085000D02*
X234810000Y-114085000D01*
X235035000Y-109435000D02*
X234810000Y-109435000D01*
X229785000Y-109435000D02*
X230010000Y-109435000D01*
X229785000Y-114085000D02*
X229910000Y-114085000D01*
X96560000Y-93765000D02*
X96560000Y-95115000D01*
X101685000Y-93765000D02*
X101685000Y-89115000D01*
X96435000Y-93765000D02*
X96435000Y-89115000D01*
X101685000Y-93765000D02*
X101460000Y-93765000D01*
X101685000Y-89115000D02*
X101460000Y-89115000D01*
X96435000Y-89115000D02*
X96660000Y-89115000D01*
X96435000Y-93765000D02*
X96560000Y-93765000D01*
X96560000Y-103925000D02*
X96560000Y-105275000D01*
X101685000Y-103925000D02*
X101685000Y-99275000D01*
X96435000Y-103925000D02*
X96435000Y-99275000D01*
X101685000Y-103925000D02*
X101460000Y-103925000D01*
X101685000Y-99275000D02*
X101460000Y-99275000D01*
X96435000Y-99275000D02*
X96660000Y-99275000D01*
X96435000Y-103925000D02*
X96560000Y-103925000D01*
X96560000Y-114085000D02*
X96560000Y-115435000D01*
X101685000Y-114085000D02*
X101685000Y-109435000D01*
X96435000Y-114085000D02*
X96435000Y-109435000D01*
X101685000Y-114085000D02*
X101460000Y-114085000D01*
X101685000Y-109435000D02*
X101460000Y-109435000D01*
X96435000Y-109435000D02*
X96660000Y-109435000D01*
X96435000Y-114085000D02*
X96560000Y-114085000D01*
X105450000Y-93765000D02*
X105450000Y-95115000D01*
X110575000Y-93765000D02*
X110575000Y-89115000D01*
X105325000Y-93765000D02*
X105325000Y-89115000D01*
X110575000Y-93765000D02*
X110350000Y-93765000D01*
X110575000Y-89115000D02*
X110350000Y-89115000D01*
X105325000Y-89115000D02*
X105550000Y-89115000D01*
X105325000Y-93765000D02*
X105450000Y-93765000D01*
X105450000Y-103925000D02*
X105450000Y-105275000D01*
X110575000Y-103925000D02*
X110575000Y-99275000D01*
X105325000Y-103925000D02*
X105325000Y-99275000D01*
X110575000Y-103925000D02*
X110350000Y-103925000D01*
X110575000Y-99275000D02*
X110350000Y-99275000D01*
X105325000Y-99275000D02*
X105550000Y-99275000D01*
X105325000Y-103925000D02*
X105450000Y-103925000D01*
X105450000Y-114085000D02*
X105450000Y-115435000D01*
X110575000Y-114085000D02*
X110575000Y-109435000D01*
X105325000Y-114085000D02*
X105325000Y-109435000D01*
X110575000Y-114085000D02*
X110350000Y-114085000D01*
X110575000Y-109435000D02*
X110350000Y-109435000D01*
X105325000Y-109435000D02*
X105550000Y-109435000D01*
X105325000Y-114085000D02*
X105450000Y-114085000D01*
X114340000Y-93765000D02*
X114340000Y-95115000D01*
X119465000Y-93765000D02*
X119465000Y-89115000D01*
X114215000Y-93765000D02*
X114215000Y-89115000D01*
X119465000Y-93765000D02*
X119240000Y-93765000D01*
X119465000Y-89115000D02*
X119240000Y-89115000D01*
X114215000Y-89115000D02*
X114440000Y-89115000D01*
X114215000Y-93765000D02*
X114340000Y-93765000D01*
X114340000Y-103925000D02*
X114340000Y-105275000D01*
X119465000Y-103925000D02*
X119465000Y-99275000D01*
X114215000Y-103925000D02*
X114215000Y-99275000D01*
X119465000Y-103925000D02*
X119240000Y-103925000D01*
X119465000Y-99275000D02*
X119240000Y-99275000D01*
X114215000Y-99275000D02*
X114440000Y-99275000D01*
X114215000Y-103925000D02*
X114340000Y-103925000D01*
X114340000Y-114085000D02*
X114340000Y-115435000D01*
X119465000Y-114085000D02*
X119465000Y-109435000D01*
X114215000Y-114085000D02*
X114215000Y-109435000D01*
X119465000Y-114085000D02*
X119240000Y-114085000D01*
X119465000Y-109435000D02*
X119240000Y-109435000D01*
X114215000Y-109435000D02*
X114440000Y-109435000D01*
X114215000Y-114085000D02*
X114340000Y-114085000D01*
X123230000Y-93765000D02*
X123230000Y-95115000D01*
X128355000Y-93765000D02*
X128355000Y-89115000D01*
X123105000Y-93765000D02*
X123105000Y-89115000D01*
X128355000Y-93765000D02*
X128130000Y-93765000D01*
X128355000Y-89115000D02*
X128130000Y-89115000D01*
X123105000Y-89115000D02*
X123330000Y-89115000D01*
X123105000Y-93765000D02*
X123230000Y-93765000D01*
X123230000Y-103925000D02*
X123230000Y-105275000D01*
X128355000Y-103925000D02*
X128355000Y-99275000D01*
X123105000Y-103925000D02*
X123105000Y-99275000D01*
X128355000Y-103925000D02*
X128130000Y-103925000D01*
X128355000Y-99275000D02*
X128130000Y-99275000D01*
X123105000Y-99275000D02*
X123330000Y-99275000D01*
X123105000Y-103925000D02*
X123230000Y-103925000D01*
X123230000Y-114085000D02*
X123230000Y-115435000D01*
X128355000Y-114085000D02*
X128355000Y-109435000D01*
X123105000Y-114085000D02*
X123105000Y-109435000D01*
X128355000Y-114085000D02*
X128130000Y-114085000D01*
X128355000Y-109435000D02*
X128130000Y-109435000D01*
X123105000Y-109435000D02*
X123330000Y-109435000D01*
X123105000Y-114085000D02*
X123230000Y-114085000D01*
X132120000Y-93765000D02*
X132120000Y-95115000D01*
X137245000Y-93765000D02*
X137245000Y-89115000D01*
X131995000Y-93765000D02*
X131995000Y-89115000D01*
X137245000Y-93765000D02*
X137020000Y-93765000D01*
X137245000Y-89115000D02*
X137020000Y-89115000D01*
X131995000Y-89115000D02*
X132220000Y-89115000D01*
X131995000Y-93765000D02*
X132120000Y-93765000D01*
X132120000Y-103925000D02*
X132120000Y-105275000D01*
X137245000Y-103925000D02*
X137245000Y-99275000D01*
X131995000Y-103925000D02*
X131995000Y-99275000D01*
X137245000Y-103925000D02*
X137020000Y-103925000D01*
X137245000Y-99275000D02*
X137020000Y-99275000D01*
X131995000Y-99275000D02*
X132220000Y-99275000D01*
X131995000Y-103925000D02*
X132120000Y-103925000D01*
X132120000Y-114085000D02*
X132120000Y-115435000D01*
X137245000Y-114085000D02*
X137245000Y-109435000D01*
X131995000Y-114085000D02*
X131995000Y-109435000D01*
X137245000Y-114085000D02*
X137020000Y-114085000D01*
X137245000Y-109435000D02*
X137020000Y-109435000D01*
X131995000Y-109435000D02*
X132220000Y-109435000D01*
X131995000Y-114085000D02*
X132120000Y-114085000D01*
X141010000Y-93765000D02*
X141010000Y-95115000D01*
X146135000Y-93765000D02*
X146135000Y-89115000D01*
X140885000Y-93765000D02*
X140885000Y-89115000D01*
X146135000Y-93765000D02*
X145910000Y-93765000D01*
X146135000Y-89115000D02*
X145910000Y-89115000D01*
X140885000Y-89115000D02*
X141110000Y-89115000D01*
X140885000Y-93765000D02*
X141010000Y-93765000D01*
X141010000Y-103925000D02*
X141010000Y-105275000D01*
X146135000Y-103925000D02*
X146135000Y-99275000D01*
X140885000Y-103925000D02*
X140885000Y-99275000D01*
X146135000Y-103925000D02*
X145910000Y-103925000D01*
X146135000Y-99275000D02*
X145910000Y-99275000D01*
X140885000Y-99275000D02*
X141110000Y-99275000D01*
X140885000Y-103925000D02*
X141010000Y-103925000D01*
X141010000Y-114085000D02*
X141010000Y-115435000D01*
X146135000Y-114085000D02*
X146135000Y-109435000D01*
X140885000Y-114085000D02*
X140885000Y-109435000D01*
X146135000Y-114085000D02*
X145910000Y-114085000D01*
X146135000Y-109435000D02*
X145910000Y-109435000D01*
X140885000Y-109435000D02*
X141110000Y-109435000D01*
X140885000Y-114085000D02*
X141010000Y-114085000D01*
X149900000Y-93765000D02*
X149900000Y-95115000D01*
X155025000Y-93765000D02*
X155025000Y-89115000D01*
X149775000Y-93765000D02*
X149775000Y-89115000D01*
X155025000Y-93765000D02*
X154800000Y-93765000D01*
X155025000Y-89115000D02*
X154800000Y-89115000D01*
X149775000Y-89115000D02*
X150000000Y-89115000D01*
X149775000Y-93765000D02*
X149900000Y-93765000D01*
X149900000Y-103925000D02*
X149900000Y-105275000D01*
X155025000Y-103925000D02*
X155025000Y-99275000D01*
X149775000Y-103925000D02*
X149775000Y-99275000D01*
X155025000Y-103925000D02*
X154800000Y-103925000D01*
X155025000Y-99275000D02*
X154800000Y-99275000D01*
X149775000Y-99275000D02*
X150000000Y-99275000D01*
X149775000Y-103925000D02*
X149900000Y-103925000D01*
X149900000Y-114085000D02*
X149900000Y-115435000D01*
X155025000Y-114085000D02*
X155025000Y-109435000D01*
X149775000Y-114085000D02*
X149775000Y-109435000D01*
X155025000Y-114085000D02*
X154800000Y-114085000D01*
X155025000Y-109435000D02*
X154800000Y-109435000D01*
X149775000Y-109435000D02*
X150000000Y-109435000D01*
X149775000Y-114085000D02*
X149900000Y-114085000D01*
X158790000Y-93765000D02*
X158790000Y-95115000D01*
X163915000Y-93765000D02*
X163915000Y-89115000D01*
X158665000Y-93765000D02*
X158665000Y-89115000D01*
X163915000Y-93765000D02*
X163690000Y-93765000D01*
X163915000Y-89115000D02*
X163690000Y-89115000D01*
X158665000Y-89115000D02*
X158890000Y-89115000D01*
X158665000Y-93765000D02*
X158790000Y-93765000D01*
X158790000Y-103925000D02*
X158790000Y-105275000D01*
X163915000Y-103925000D02*
X163915000Y-99275000D01*
X158665000Y-103925000D02*
X158665000Y-99275000D01*
X163915000Y-103925000D02*
X163690000Y-103925000D01*
X163915000Y-99275000D02*
X163690000Y-99275000D01*
X158665000Y-99275000D02*
X158890000Y-99275000D01*
X158665000Y-103925000D02*
X158790000Y-103925000D01*
X158790000Y-114085000D02*
X158790000Y-115435000D01*
X163915000Y-114085000D02*
X163915000Y-109435000D01*
X158665000Y-114085000D02*
X158665000Y-109435000D01*
X163915000Y-114085000D02*
X163690000Y-114085000D01*
X163915000Y-109435000D02*
X163690000Y-109435000D01*
X158665000Y-109435000D02*
X158890000Y-109435000D01*
X158665000Y-114085000D02*
X158790000Y-114085000D01*
X167680000Y-93765000D02*
X167680000Y-95115000D01*
X172805000Y-93765000D02*
X172805000Y-89115000D01*
X167555000Y-93765000D02*
X167555000Y-89115000D01*
X172805000Y-93765000D02*
X172580000Y-93765000D01*
X172805000Y-89115000D02*
X172580000Y-89115000D01*
X167555000Y-89115000D02*
X167780000Y-89115000D01*
X167555000Y-93765000D02*
X167680000Y-93765000D01*
X167680000Y-103925000D02*
X167680000Y-105275000D01*
X172805000Y-103925000D02*
X172805000Y-99275000D01*
X167555000Y-103925000D02*
X167555000Y-99275000D01*
X172805000Y-103925000D02*
X172580000Y-103925000D01*
X172805000Y-99275000D02*
X172580000Y-99275000D01*
X167555000Y-99275000D02*
X167780000Y-99275000D01*
X167555000Y-103925000D02*
X167680000Y-103925000D01*
X167680000Y-114085000D02*
X167680000Y-115435000D01*
X172805000Y-114085000D02*
X172805000Y-109435000D01*
X167555000Y-114085000D02*
X167555000Y-109435000D01*
X172805000Y-114085000D02*
X172580000Y-114085000D01*
X172805000Y-109435000D02*
X172580000Y-109435000D01*
X167555000Y-109435000D02*
X167780000Y-109435000D01*
X167555000Y-114085000D02*
X167680000Y-114085000D01*
X176570000Y-93765000D02*
X176570000Y-95115000D01*
X181695000Y-93765000D02*
X181695000Y-89115000D01*
X176445000Y-93765000D02*
X176445000Y-89115000D01*
X181695000Y-93765000D02*
X181470000Y-93765000D01*
X181695000Y-89115000D02*
X181470000Y-89115000D01*
X176445000Y-89115000D02*
X176670000Y-89115000D01*
X176445000Y-93765000D02*
X176570000Y-93765000D01*
X176570000Y-103925000D02*
X176570000Y-105275000D01*
X181695000Y-103925000D02*
X181695000Y-99275000D01*
X176445000Y-103925000D02*
X176445000Y-99275000D01*
X181695000Y-103925000D02*
X181470000Y-103925000D01*
X181695000Y-99275000D02*
X181470000Y-99275000D01*
X176445000Y-99275000D02*
X176670000Y-99275000D01*
X176445000Y-103925000D02*
X176570000Y-103925000D01*
X176570000Y-114085000D02*
X176570000Y-115435000D01*
X181695000Y-114085000D02*
X181695000Y-109435000D01*
X176445000Y-114085000D02*
X176445000Y-109435000D01*
X181695000Y-114085000D02*
X181470000Y-114085000D01*
X181695000Y-109435000D02*
X181470000Y-109435000D01*
X176445000Y-109435000D02*
X176670000Y-109435000D01*
X176445000Y-114085000D02*
X176570000Y-114085000D01*
X185460000Y-93765000D02*
X185460000Y-95115000D01*
X190585000Y-93765000D02*
X190585000Y-89115000D01*
X185335000Y-93765000D02*
X185335000Y-89115000D01*
X190585000Y-93765000D02*
X190360000Y-93765000D01*
X190585000Y-89115000D02*
X190360000Y-89115000D01*
X185335000Y-89115000D02*
X185560000Y-89115000D01*
X185335000Y-93765000D02*
X185460000Y-93765000D01*
X185460000Y-103925000D02*
X185460000Y-105275000D01*
X190585000Y-103925000D02*
X190585000Y-99275000D01*
X185335000Y-103925000D02*
X185335000Y-99275000D01*
X190585000Y-103925000D02*
X190360000Y-103925000D01*
X190585000Y-99275000D02*
X190360000Y-99275000D01*
X185335000Y-99275000D02*
X185560000Y-99275000D01*
X185335000Y-103925000D02*
X185460000Y-103925000D01*
X194350000Y-93765000D02*
X194350000Y-95115000D01*
X199475000Y-93765000D02*
X199475000Y-89115000D01*
X194225000Y-93765000D02*
X194225000Y-89115000D01*
X199475000Y-93765000D02*
X199250000Y-93765000D01*
X199475000Y-89115000D02*
X199250000Y-89115000D01*
X194225000Y-89115000D02*
X194450000Y-89115000D01*
X194225000Y-93765000D02*
X194350000Y-93765000D01*
X194350000Y-103925000D02*
X194350000Y-105275000D01*
X199475000Y-103925000D02*
X199475000Y-99275000D01*
X194225000Y-103925000D02*
X194225000Y-99275000D01*
X199475000Y-103925000D02*
X199250000Y-103925000D01*
X199475000Y-99275000D02*
X199250000Y-99275000D01*
X194225000Y-99275000D02*
X194450000Y-99275000D01*
X194225000Y-103925000D02*
X194350000Y-103925000D01*
X194350000Y-114085000D02*
X194350000Y-115435000D01*
X199475000Y-114085000D02*
X199475000Y-109435000D01*
X194225000Y-114085000D02*
X194225000Y-109435000D01*
X199475000Y-114085000D02*
X199250000Y-114085000D01*
X199475000Y-109435000D02*
X199250000Y-109435000D01*
X194225000Y-109435000D02*
X194450000Y-109435000D01*
X194225000Y-114085000D02*
X194350000Y-114085000D01*
X203240000Y-93765000D02*
X203240000Y-95115000D01*
X208365000Y-93765000D02*
X208365000Y-89115000D01*
X203115000Y-93765000D02*
X203115000Y-89115000D01*
X208365000Y-93765000D02*
X208140000Y-93765000D01*
X208365000Y-89115000D02*
X208140000Y-89115000D01*
X203115000Y-89115000D02*
X203340000Y-89115000D01*
X203115000Y-93765000D02*
X203240000Y-93765000D01*
X203240000Y-103925000D02*
X203240000Y-105275000D01*
X208365000Y-103925000D02*
X208365000Y-99275000D01*
X203115000Y-103925000D02*
X203115000Y-99275000D01*
X208365000Y-103925000D02*
X208140000Y-103925000D01*
X208365000Y-99275000D02*
X208140000Y-99275000D01*
X203115000Y-99275000D02*
X203340000Y-99275000D01*
X203115000Y-103925000D02*
X203240000Y-103925000D01*
X203240000Y-114085000D02*
X203240000Y-115435000D01*
X208365000Y-114085000D02*
X208365000Y-109435000D01*
X203115000Y-114085000D02*
X203115000Y-109435000D01*
X208365000Y-114085000D02*
X208140000Y-114085000D01*
X208365000Y-109435000D02*
X208140000Y-109435000D01*
X203115000Y-109435000D02*
X203340000Y-109435000D01*
X203115000Y-114085000D02*
X203240000Y-114085000D01*
X212130000Y-93765000D02*
X212130000Y-95115000D01*
X217255000Y-93765000D02*
X217255000Y-89115000D01*
X212005000Y-93765000D02*
X212005000Y-89115000D01*
X217255000Y-93765000D02*
X217030000Y-93765000D01*
X217255000Y-89115000D02*
X217030000Y-89115000D01*
X212005000Y-89115000D02*
X212230000Y-89115000D01*
X212005000Y-93765000D02*
X212130000Y-93765000D01*
X212130000Y-103925000D02*
X212130000Y-105275000D01*
X217255000Y-103925000D02*
X217255000Y-99275000D01*
X212005000Y-103925000D02*
X212005000Y-99275000D01*
X217255000Y-103925000D02*
X217030000Y-103925000D01*
X217255000Y-99275000D02*
X217030000Y-99275000D01*
X212005000Y-99275000D02*
X212230000Y-99275000D01*
X212005000Y-103925000D02*
X212130000Y-103925000D01*
X212130000Y-114085000D02*
X212130000Y-115435000D01*
X217255000Y-114085000D02*
X217255000Y-109435000D01*
X212005000Y-114085000D02*
X212005000Y-109435000D01*
X217255000Y-114085000D02*
X217030000Y-114085000D01*
X217255000Y-109435000D02*
X217030000Y-109435000D01*
X212005000Y-109435000D02*
X212230000Y-109435000D01*
X212005000Y-114085000D02*
X212130000Y-114085000D01*
X221020000Y-93765000D02*
X221020000Y-95115000D01*
X226145000Y-93765000D02*
X226145000Y-89115000D01*
X220895000Y-93765000D02*
X220895000Y-89115000D01*
X226145000Y-93765000D02*
X225920000Y-93765000D01*
X226145000Y-89115000D02*
X225920000Y-89115000D01*
X220895000Y-89115000D02*
X221120000Y-89115000D01*
X220895000Y-93765000D02*
X221020000Y-93765000D01*
X221020000Y-103925000D02*
X221020000Y-105275000D01*
X226145000Y-103925000D02*
X226145000Y-99275000D01*
X220895000Y-103925000D02*
X220895000Y-99275000D01*
X226145000Y-103925000D02*
X225920000Y-103925000D01*
X226145000Y-99275000D02*
X225920000Y-99275000D01*
X220895000Y-99275000D02*
X221120000Y-99275000D01*
X220895000Y-103925000D02*
X221020000Y-103925000D01*
X221020000Y-114085000D02*
X221020000Y-115435000D01*
X226145000Y-114085000D02*
X226145000Y-109435000D01*
X220895000Y-114085000D02*
X220895000Y-109435000D01*
X226145000Y-114085000D02*
X225920000Y-114085000D01*
X226145000Y-109435000D02*
X225920000Y-109435000D01*
X220895000Y-109435000D02*
X221120000Y-109435000D01*
X220895000Y-114085000D02*
X221020000Y-114085000D01*
X87670000Y-114085000D02*
X87670000Y-115435000D01*
X92795000Y-114085000D02*
X92795000Y-109435000D01*
X87545000Y-114085000D02*
X87545000Y-109435000D01*
X92795000Y-114085000D02*
X92570000Y-114085000D01*
X92795000Y-109435000D02*
X92570000Y-109435000D01*
X87545000Y-109435000D02*
X87770000Y-109435000D01*
X87545000Y-114085000D02*
X87670000Y-114085000D01*
D15*
X98150000Y-71657936D02*
X98150000Y-72862064D01*
X99970000Y-71657936D02*
X99970000Y-72862064D01*
X107040000Y-71657936D02*
X107040000Y-72862064D01*
X108860000Y-71657936D02*
X108860000Y-72862064D01*
X115930000Y-71657936D02*
X115930000Y-72862064D01*
X117750000Y-71657936D02*
X117750000Y-72862064D01*
X124820000Y-71657936D02*
X124820000Y-72862064D01*
X126640000Y-71657936D02*
X126640000Y-72862064D01*
X133710000Y-71657936D02*
X133710000Y-72862064D01*
X135530000Y-71657936D02*
X135530000Y-72862064D01*
X142600000Y-71657936D02*
X142600000Y-72862064D01*
X144420000Y-71657936D02*
X144420000Y-72862064D01*
X151490000Y-71657936D02*
X151490000Y-72862064D01*
X153310000Y-71657936D02*
X153310000Y-72862064D01*
X160380000Y-71657936D02*
X160380000Y-72862064D01*
X162200000Y-71657936D02*
X162200000Y-72862064D01*
X169270000Y-71657936D02*
X169270000Y-72862064D01*
X171090000Y-71657936D02*
X171090000Y-72862064D01*
X178160000Y-71657936D02*
X178160000Y-72862064D01*
X179980000Y-71657936D02*
X179980000Y-72862064D01*
X187050000Y-71657936D02*
X187050000Y-72862064D01*
X188870000Y-71657936D02*
X188870000Y-72862064D01*
X195940000Y-71657936D02*
X195940000Y-72862064D01*
X197760000Y-71657936D02*
X197760000Y-72862064D01*
X204830000Y-71657936D02*
X204830000Y-72862064D01*
X206650000Y-71657936D02*
X206650000Y-72862064D01*
X213720000Y-71657936D02*
X213720000Y-72862064D01*
X215540000Y-71657936D02*
X215540000Y-72862064D01*
X222610000Y-71657936D02*
X222610000Y-72862064D01*
X224430000Y-71657936D02*
X224430000Y-72862064D01*
X231500000Y-71787936D02*
X231500000Y-72992064D01*
X233320000Y-71787936D02*
X233320000Y-72992064D01*
X100605000Y-77450000D02*
X97515000Y-77450000D01*
X101560000Y-80010000D02*
G75*
G03X101560000Y-80010000I-2500000J0D01*
G01*
X99060462Y-83000000D02*
G75*
G02X97515170Y-77450000I-462J2990000D01*
G01*
X99059538Y-83000000D02*
G75*
G03X100604830Y-77450000I462J2990000D01*
G01*
X109495000Y-77450000D02*
X106405000Y-77450000D01*
X110450000Y-80010000D02*
G75*
G03X110450000Y-80010000I-2500000J0D01*
G01*
X107950462Y-83000000D02*
G75*
G02X106405170Y-77450000I-462J2990000D01*
G01*
X107949538Y-83000000D02*
G75*
G03X109494830Y-77450000I462J2990000D01*
G01*
X118385000Y-77450000D02*
X115295000Y-77450000D01*
X119340000Y-80010000D02*
G75*
G03X119340000Y-80010000I-2500000J0D01*
G01*
X116840462Y-83000000D02*
G75*
G02X115295170Y-77450000I-462J2990000D01*
G01*
X116839538Y-83000000D02*
G75*
G03X118384830Y-77450000I462J2990000D01*
G01*
X127275000Y-77450000D02*
X124185000Y-77450000D01*
X128230000Y-80010000D02*
G75*
G03X128230000Y-80010000I-2500000J0D01*
G01*
X125730462Y-83000000D02*
G75*
G02X124185170Y-77450000I-462J2990000D01*
G01*
X125729538Y-83000000D02*
G75*
G03X127274830Y-77450000I462J2990000D01*
G01*
X136165000Y-77450000D02*
X133075000Y-77450000D01*
X137120000Y-80010000D02*
G75*
G03X137120000Y-80010000I-2500000J0D01*
G01*
X134620462Y-83000000D02*
G75*
G02X133075170Y-77450000I-462J2990000D01*
G01*
X134619538Y-83000000D02*
G75*
G03X136164830Y-77450000I462J2990000D01*
G01*
X145055000Y-77450000D02*
X141965000Y-77450000D01*
X146010000Y-80010000D02*
G75*
G03X146010000Y-80010000I-2500000J0D01*
G01*
X143510462Y-83000000D02*
G75*
G02X141965170Y-77450000I-462J2990000D01*
G01*
X143509538Y-83000000D02*
G75*
G03X145054830Y-77450000I462J2990000D01*
G01*
X153945000Y-77450000D02*
X150855000Y-77450000D01*
X154900000Y-80010000D02*
G75*
G03X154900000Y-80010000I-2500000J0D01*
G01*
X152400462Y-83000000D02*
G75*
G02X150855170Y-77450000I-462J2990000D01*
G01*
X152399538Y-83000000D02*
G75*
G03X153944830Y-77450000I462J2990000D01*
G01*
X162835000Y-77450000D02*
X159745000Y-77450000D01*
X163790000Y-80010000D02*
G75*
G03X163790000Y-80010000I-2500000J0D01*
G01*
X161290462Y-83000000D02*
G75*
G02X159745170Y-77450000I-462J2990000D01*
G01*
X161289538Y-83000000D02*
G75*
G03X162834830Y-77450000I462J2990000D01*
G01*
X171725000Y-77450000D02*
X168635000Y-77450000D01*
X172680000Y-80010000D02*
G75*
G03X172680000Y-80010000I-2500000J0D01*
G01*
X170180462Y-83000000D02*
G75*
G02X168635170Y-77450000I-462J2990000D01*
G01*
X170179538Y-83000000D02*
G75*
G03X171724830Y-77450000I462J2990000D01*
G01*
X180615000Y-77450000D02*
X177525000Y-77450000D01*
X181570000Y-80010000D02*
G75*
G03X181570000Y-80010000I-2500000J0D01*
G01*
X179070462Y-83000000D02*
G75*
G02X177525170Y-77450000I-462J2990000D01*
G01*
X179069538Y-83000000D02*
G75*
G03X180614830Y-77450000I462J2990000D01*
G01*
X189505000Y-77450000D02*
X186415000Y-77450000D01*
X190460000Y-80010000D02*
G75*
G03X190460000Y-80010000I-2500000J0D01*
G01*
X187960462Y-83000000D02*
G75*
G02X186415170Y-77450000I-462J2990000D01*
G01*
X187959538Y-83000000D02*
G75*
G03X189504830Y-77450000I462J2990000D01*
G01*
X198395000Y-77450000D02*
X195305000Y-77450000D01*
X199350000Y-80010000D02*
G75*
G03X199350000Y-80010000I-2500000J0D01*
G01*
X196850462Y-83000000D02*
G75*
G02X195305170Y-77450000I-462J2990000D01*
G01*
X196849538Y-83000000D02*
G75*
G03X198394830Y-77450000I462J2990000D01*
G01*
X207285000Y-77450000D02*
X204195000Y-77450000D01*
X208240000Y-80010000D02*
G75*
G03X208240000Y-80010000I-2500000J0D01*
G01*
X205740462Y-83000000D02*
G75*
G02X204195170Y-77450000I-462J2990000D01*
G01*
X205739538Y-83000000D02*
G75*
G03X207284830Y-77450000I462J2990000D01*
G01*
X216175000Y-77450000D02*
X213085000Y-77450000D01*
X217130000Y-80010000D02*
G75*
G03X217130000Y-80010000I-2500000J0D01*
G01*
X214630462Y-83000000D02*
G75*
G02X213085170Y-77450000I-462J2990000D01*
G01*
X214629538Y-83000000D02*
G75*
G03X216174830Y-77450000I462J2990000D01*
G01*
X233955000Y-77450000D02*
X230865000Y-77450000D01*
X234910000Y-80010000D02*
G75*
G03X234910000Y-80010000I-2500000J0D01*
G01*
X232410462Y-83000000D02*
G75*
G02X230865170Y-77450000I-462J2990000D01*
G01*
X232409538Y-83000000D02*
G75*
G03X233954830Y-77450000I462J2990000D01*
G01*
X85550000Y-101819698D02*
X86350000Y-101819698D01*
X85950000Y-102219698D02*
X85950000Y-101419698D01*
X87732000Y-93729000D02*
X88798000Y-93729000D01*
X87497000Y-93769000D02*
X89033000Y-93769000D01*
X87317000Y-93809000D02*
X89213000Y-93809000D01*
X87167000Y-93849000D02*
X89363000Y-93849000D01*
X87036000Y-93889000D02*
X89494000Y-93889000D01*
X86919000Y-93929000D02*
X89611000Y-93929000D01*
X86812000Y-93969000D02*
X89718000Y-93969000D01*
X86713000Y-94009000D02*
X89817000Y-94009000D01*
X86620000Y-94049000D02*
X89910000Y-94049000D01*
X86534000Y-94089000D02*
X89996000Y-94089000D01*
X86452000Y-94129000D02*
X90078000Y-94129000D01*
X86375000Y-94169000D02*
X90155000Y-94169000D01*
X86301000Y-94209000D02*
X90229000Y-94209000D01*
X86231000Y-94249000D02*
X90299000Y-94249000D01*
X86163000Y-94289000D02*
X90367000Y-94289000D01*
X86099000Y-94329000D02*
X90431000Y-94329000D01*
X86037000Y-94369000D02*
X90493000Y-94369000D01*
X85978000Y-94409000D02*
X90552000Y-94409000D01*
X85920000Y-94449000D02*
X90610000Y-94449000D01*
X85865000Y-94489000D02*
X90665000Y-94489000D01*
X85811000Y-94529000D02*
X90719000Y-94529000D01*
X85760000Y-94569000D02*
X90770000Y-94569000D01*
X85709000Y-94609000D02*
X90821000Y-94609000D01*
X85661000Y-94649000D02*
X90869000Y-94649000D01*
X85614000Y-94689000D02*
X90916000Y-94689000D01*
X85568000Y-94729000D02*
X90962000Y-94729000D01*
X85524000Y-94769000D02*
X91006000Y-94769000D01*
X85481000Y-94809000D02*
X91049000Y-94809000D01*
X85439000Y-94849000D02*
X91091000Y-94849000D01*
X85398000Y-94889000D02*
X91132000Y-94889000D01*
X85358000Y-94929000D02*
X91172000Y-94929000D01*
X85320000Y-94969000D02*
X91210000Y-94969000D01*
X85282000Y-95009000D02*
X91248000Y-95009000D01*
X85246000Y-95049000D02*
X91284000Y-95049000D01*
X85210000Y-95089000D02*
X91320000Y-95089000D01*
X85175000Y-95129000D02*
X91355000Y-95129000D01*
X85141000Y-95169000D02*
X91389000Y-95169000D01*
X85109000Y-95209000D02*
X91421000Y-95209000D01*
X85076000Y-95249000D02*
X91454000Y-95249000D01*
X85045000Y-95289000D02*
X91485000Y-95289000D01*
X85015000Y-95329000D02*
X91515000Y-95329000D01*
X84985000Y-95369000D02*
X91545000Y-95369000D01*
X84956000Y-95409000D02*
X91574000Y-95409000D01*
X84927000Y-95449000D02*
X91603000Y-95449000D01*
X84900000Y-95489000D02*
X91630000Y-95489000D01*
X89305000Y-95529000D02*
X91657000Y-95529000D01*
X84873000Y-95529000D02*
X87225000Y-95529000D01*
X89305000Y-95569000D02*
X91683000Y-95569000D01*
X84847000Y-95569000D02*
X87225000Y-95569000D01*
X89305000Y-95609000D02*
X91709000Y-95609000D01*
X84821000Y-95609000D02*
X87225000Y-95609000D01*
X89305000Y-95649000D02*
X91734000Y-95649000D01*
X84796000Y-95649000D02*
X87225000Y-95649000D01*
X89305000Y-95689000D02*
X91758000Y-95689000D01*
X84772000Y-95689000D02*
X87225000Y-95689000D01*
X89305000Y-95729000D02*
X91782000Y-95729000D01*
X84748000Y-95729000D02*
X87225000Y-95729000D01*
X89305000Y-95769000D02*
X91805000Y-95769000D01*
X84725000Y-95769000D02*
X87225000Y-95769000D01*
X89305000Y-95809000D02*
X91827000Y-95809000D01*
X84703000Y-95809000D02*
X87225000Y-95809000D01*
X89305000Y-95849000D02*
X91849000Y-95849000D01*
X84681000Y-95849000D02*
X87225000Y-95849000D01*
X89305000Y-95889000D02*
X91871000Y-95889000D01*
X84659000Y-95889000D02*
X87225000Y-95889000D01*
X89305000Y-95929000D02*
X91892000Y-95929000D01*
X84638000Y-95929000D02*
X87225000Y-95929000D01*
X89305000Y-95969000D02*
X91912000Y-95969000D01*
X84618000Y-95969000D02*
X87225000Y-95969000D01*
X89305000Y-96009000D02*
X91931000Y-96009000D01*
X84599000Y-96009000D02*
X87225000Y-96009000D01*
X89305000Y-96049000D02*
X91951000Y-96049000D01*
X84579000Y-96049000D02*
X87225000Y-96049000D01*
X89305000Y-96089000D02*
X91969000Y-96089000D01*
X84561000Y-96089000D02*
X87225000Y-96089000D01*
X89305000Y-96129000D02*
X91987000Y-96129000D01*
X84543000Y-96129000D02*
X87225000Y-96129000D01*
X89305000Y-96169000D02*
X92005000Y-96169000D01*
X84525000Y-96169000D02*
X87225000Y-96169000D01*
X89305000Y-96209000D02*
X92022000Y-96209000D01*
X84508000Y-96209000D02*
X87225000Y-96209000D01*
X89305000Y-96249000D02*
X92039000Y-96249000D01*
X84491000Y-96249000D02*
X87225000Y-96249000D01*
X89305000Y-96289000D02*
X92055000Y-96289000D01*
X84475000Y-96289000D02*
X87225000Y-96289000D01*
X89305000Y-96329000D02*
X92070000Y-96329000D01*
X84460000Y-96329000D02*
X87225000Y-96329000D01*
X89305000Y-96369000D02*
X92086000Y-96369000D01*
X84444000Y-96369000D02*
X87225000Y-96369000D01*
X89305000Y-96409000D02*
X92100000Y-96409000D01*
X84430000Y-96409000D02*
X87225000Y-96409000D01*
X89305000Y-96449000D02*
X92115000Y-96449000D01*
X84415000Y-96449000D02*
X87225000Y-96449000D01*
X89305000Y-96489000D02*
X92128000Y-96489000D01*
X84402000Y-96489000D02*
X87225000Y-96489000D01*
X89305000Y-96529000D02*
X92142000Y-96529000D01*
X84388000Y-96529000D02*
X87225000Y-96529000D01*
X89305000Y-96569000D02*
X92154000Y-96569000D01*
X84376000Y-96569000D02*
X87225000Y-96569000D01*
X89305000Y-96609000D02*
X92167000Y-96609000D01*
X84363000Y-96609000D02*
X87225000Y-96609000D01*
X89305000Y-96649000D02*
X92179000Y-96649000D01*
X84351000Y-96649000D02*
X87225000Y-96649000D01*
X89305000Y-96689000D02*
X92190000Y-96689000D01*
X84340000Y-96689000D02*
X87225000Y-96689000D01*
X89305000Y-96729000D02*
X92201000Y-96729000D01*
X84329000Y-96729000D02*
X87225000Y-96729000D01*
X89305000Y-96769000D02*
X92212000Y-96769000D01*
X84318000Y-96769000D02*
X87225000Y-96769000D01*
X89305000Y-96809000D02*
X92222000Y-96809000D01*
X84308000Y-96809000D02*
X87225000Y-96809000D01*
X89305000Y-96849000D02*
X92232000Y-96849000D01*
X84298000Y-96849000D02*
X87225000Y-96849000D01*
X89305000Y-96889000D02*
X92241000Y-96889000D01*
X84289000Y-96889000D02*
X87225000Y-96889000D01*
X89305000Y-96929000D02*
X92250000Y-96929000D01*
X84280000Y-96929000D02*
X87225000Y-96929000D01*
X89305000Y-96969000D02*
X92259000Y-96969000D01*
X84271000Y-96969000D02*
X87225000Y-96969000D01*
X89305000Y-97009000D02*
X92267000Y-97009000D01*
X84263000Y-97009000D02*
X87225000Y-97009000D01*
X89305000Y-97049000D02*
X92275000Y-97049000D01*
X84255000Y-97049000D02*
X87225000Y-97049000D01*
X89305000Y-97089000D02*
X92282000Y-97089000D01*
X84248000Y-97089000D02*
X87225000Y-97089000D01*
X89305000Y-97130000D02*
X92289000Y-97130000D01*
X84241000Y-97130000D02*
X87225000Y-97130000D01*
X89305000Y-97170000D02*
X92295000Y-97170000D01*
X84235000Y-97170000D02*
X87225000Y-97170000D01*
X89305000Y-97210000D02*
X92302000Y-97210000D01*
X84228000Y-97210000D02*
X87225000Y-97210000D01*
X89305000Y-97250000D02*
X92307000Y-97250000D01*
X84223000Y-97250000D02*
X87225000Y-97250000D01*
X89305000Y-97290000D02*
X92313000Y-97290000D01*
X84217000Y-97290000D02*
X87225000Y-97290000D01*
X89305000Y-97330000D02*
X92317000Y-97330000D01*
X84213000Y-97330000D02*
X87225000Y-97330000D01*
X89305000Y-97370000D02*
X92322000Y-97370000D01*
X84208000Y-97370000D02*
X87225000Y-97370000D01*
X89305000Y-97410000D02*
X92326000Y-97410000D01*
X84204000Y-97410000D02*
X87225000Y-97410000D01*
X89305000Y-97450000D02*
X92330000Y-97450000D01*
X84200000Y-97450000D02*
X87225000Y-97450000D01*
X89305000Y-97490000D02*
X92333000Y-97490000D01*
X84197000Y-97490000D02*
X87225000Y-97490000D01*
X89305000Y-97530000D02*
X92336000Y-97530000D01*
X84194000Y-97530000D02*
X87225000Y-97530000D01*
X89305000Y-97570000D02*
X92339000Y-97570000D01*
X84191000Y-97570000D02*
X87225000Y-97570000D01*
X84189000Y-97610000D02*
X92341000Y-97610000D01*
X84188000Y-97650000D02*
X92342000Y-97650000D01*
X84186000Y-97690000D02*
X92344000Y-97690000D01*
X84185000Y-97730000D02*
X92345000Y-97730000D01*
X84185000Y-97770000D02*
X92345000Y-97770000D01*
X84185000Y-97810000D02*
X92345000Y-97810000D01*
X92385000Y-97810000D02*
G75*
G03X92385000Y-97810000I-4120000J0D01*
G01*
D11*
X75912380Y-97653333D02*
X76626666Y-97653333D01*
X76769523Y-97700952D01*
X76864761Y-97796190D01*
X76912380Y-97939047D01*
X76912380Y-98034285D01*
X76912380Y-96653333D02*
X76912380Y-97224761D01*
X76912380Y-96939047D02*
X75912380Y-96939047D01*
X76055238Y-97034285D01*
X76150476Y-97129523D01*
X76198095Y-97224761D01*
X80547380Y-81287857D02*
X80071190Y-81621190D01*
X80547380Y-81859285D02*
X79547380Y-81859285D01*
X79547380Y-81478333D01*
X79595000Y-81383095D01*
X79642619Y-81335476D01*
X79737857Y-81287857D01*
X79880714Y-81287857D01*
X79975952Y-81335476D01*
X80023571Y-81383095D01*
X80071190Y-81478333D01*
X80071190Y-81859285D01*
X80547380Y-80335476D02*
X80547380Y-80906904D01*
X80547380Y-80621190D02*
X79547380Y-80621190D01*
X79690238Y-80716428D01*
X79785476Y-80811666D01*
X79833095Y-80906904D01*
X79547380Y-80002142D02*
X79547380Y-79335476D01*
X80547380Y-79764047D01*
X90772380Y-81224285D02*
X89772380Y-81224285D01*
X89772380Y-80986190D01*
X89820000Y-80843333D01*
X89915238Y-80748095D01*
X90010476Y-80700476D01*
X90200952Y-80652857D01*
X90343809Y-80652857D01*
X90534285Y-80700476D01*
X90629523Y-80748095D01*
X90724761Y-80843333D01*
X90772380Y-80986190D01*
X90772380Y-81224285D01*
X90772380Y-79700476D02*
X90772380Y-80271904D01*
X90772380Y-79986190D02*
X89772380Y-79986190D01*
X89915238Y-80081428D01*
X90010476Y-80176666D01*
X90058095Y-80271904D01*
X89772380Y-79367142D02*
X89772380Y-78700476D01*
X90772380Y-79129047D01*
X79137142Y-99246666D02*
X79184761Y-99294285D01*
X79232380Y-99437142D01*
X79232380Y-99532380D01*
X79184761Y-99675238D01*
X79089523Y-99770476D01*
X78994285Y-99818095D01*
X78803809Y-99865714D01*
X78660952Y-99865714D01*
X78470476Y-99818095D01*
X78375238Y-99770476D01*
X78280000Y-99675238D01*
X78232380Y-99532380D01*
X78232380Y-99437142D01*
X78280000Y-99294285D01*
X78327619Y-99246666D01*
X78327619Y-98865714D02*
X78280000Y-98818095D01*
X78232380Y-98722857D01*
X78232380Y-98484761D01*
X78280000Y-98389523D01*
X78327619Y-98341904D01*
X78422857Y-98294285D01*
X78518095Y-98294285D01*
X78660952Y-98341904D01*
X79232380Y-98913333D01*
X79232380Y-98294285D01*
X183862380Y-112998095D02*
X184671904Y-112998095D01*
X184767142Y-112950476D01*
X184814761Y-112902857D01*
X184862380Y-112807619D01*
X184862380Y-112617142D01*
X184814761Y-112521904D01*
X184767142Y-112474285D01*
X184671904Y-112426666D01*
X183862380Y-112426666D01*
X184862380Y-111426666D02*
X184862380Y-111998095D01*
X184862380Y-111712380D02*
X183862380Y-111712380D01*
X184005238Y-111807619D01*
X184100476Y-111902857D01*
X184148095Y-111998095D01*
X184195714Y-110569523D02*
X184862380Y-110569523D01*
X183814761Y-110807619D02*
X184529047Y-111045714D01*
X184529047Y-110426666D01*
X228312380Y-92678095D02*
X229121904Y-92678095D01*
X229217142Y-92630476D01*
X229264761Y-92582857D01*
X229312380Y-92487619D01*
X229312380Y-92297142D01*
X229264761Y-92201904D01*
X229217142Y-92154285D01*
X229121904Y-92106666D01*
X228312380Y-92106666D01*
X228645714Y-91201904D02*
X229312380Y-91201904D01*
X228264761Y-91440000D02*
X228979047Y-91678095D01*
X228979047Y-91059047D01*
X229312380Y-90630476D02*
X229312380Y-90440000D01*
X229264761Y-90344761D01*
X229217142Y-90297142D01*
X229074285Y-90201904D01*
X228883809Y-90154285D01*
X228502857Y-90154285D01*
X228407619Y-90201904D01*
X228360000Y-90249523D01*
X228312380Y-90344761D01*
X228312380Y-90535238D01*
X228360000Y-90630476D01*
X228407619Y-90678095D01*
X228502857Y-90725714D01*
X228740952Y-90725714D01*
X228836190Y-90678095D01*
X228883809Y-90630476D01*
X228931428Y-90535238D01*
X228931428Y-90344761D01*
X228883809Y-90249523D01*
X228836190Y-90201904D01*
X228740952Y-90154285D01*
X228312380Y-102838095D02*
X229121904Y-102838095D01*
X229217142Y-102790476D01*
X229264761Y-102742857D01*
X229312380Y-102647619D01*
X229312380Y-102457142D01*
X229264761Y-102361904D01*
X229217142Y-102314285D01*
X229121904Y-102266666D01*
X228312380Y-102266666D01*
X228645714Y-101361904D02*
X229312380Y-101361904D01*
X228264761Y-101600000D02*
X228979047Y-101838095D01*
X228979047Y-101219047D01*
X228740952Y-100695238D02*
X228693333Y-100790476D01*
X228645714Y-100838095D01*
X228550476Y-100885714D01*
X228502857Y-100885714D01*
X228407619Y-100838095D01*
X228360000Y-100790476D01*
X228312380Y-100695238D01*
X228312380Y-100504761D01*
X228360000Y-100409523D01*
X228407619Y-100361904D01*
X228502857Y-100314285D01*
X228550476Y-100314285D01*
X228645714Y-100361904D01*
X228693333Y-100409523D01*
X228740952Y-100504761D01*
X228740952Y-100695238D01*
X228788571Y-100790476D01*
X228836190Y-100838095D01*
X228931428Y-100885714D01*
X229121904Y-100885714D01*
X229217142Y-100838095D01*
X229264761Y-100790476D01*
X229312380Y-100695238D01*
X229312380Y-100504761D01*
X229264761Y-100409523D01*
X229217142Y-100361904D01*
X229121904Y-100314285D01*
X228931428Y-100314285D01*
X228836190Y-100361904D01*
X228788571Y-100409523D01*
X228740952Y-100504761D01*
X228312380Y-112998095D02*
X229121904Y-112998095D01*
X229217142Y-112950476D01*
X229264761Y-112902857D01*
X229312380Y-112807619D01*
X229312380Y-112617142D01*
X229264761Y-112521904D01*
X229217142Y-112474285D01*
X229121904Y-112426666D01*
X228312380Y-112426666D01*
X228645714Y-111521904D02*
X229312380Y-111521904D01*
X228264761Y-111760000D02*
X228979047Y-111998095D01*
X228979047Y-111379047D01*
X228312380Y-111093333D02*
X228312380Y-110426666D01*
X229312380Y-110855238D01*
X94962380Y-92678095D02*
X95771904Y-92678095D01*
X95867142Y-92630476D01*
X95914761Y-92582857D01*
X95962380Y-92487619D01*
X95962380Y-92297142D01*
X95914761Y-92201904D01*
X95867142Y-92154285D01*
X95771904Y-92106666D01*
X94962380Y-92106666D01*
X95295714Y-91201904D02*
X95962380Y-91201904D01*
X94914761Y-91440000D02*
X95629047Y-91678095D01*
X95629047Y-91059047D01*
X94962380Y-90249523D02*
X94962380Y-90440000D01*
X95010000Y-90535238D01*
X95057619Y-90582857D01*
X95200476Y-90678095D01*
X95390952Y-90725714D01*
X95771904Y-90725714D01*
X95867142Y-90678095D01*
X95914761Y-90630476D01*
X95962380Y-90535238D01*
X95962380Y-90344761D01*
X95914761Y-90249523D01*
X95867142Y-90201904D01*
X95771904Y-90154285D01*
X95533809Y-90154285D01*
X95438571Y-90201904D01*
X95390952Y-90249523D01*
X95343333Y-90344761D01*
X95343333Y-90535238D01*
X95390952Y-90630476D01*
X95438571Y-90678095D01*
X95533809Y-90725714D01*
X94962380Y-102838095D02*
X95771904Y-102838095D01*
X95867142Y-102790476D01*
X95914761Y-102742857D01*
X95962380Y-102647619D01*
X95962380Y-102457142D01*
X95914761Y-102361904D01*
X95867142Y-102314285D01*
X95771904Y-102266666D01*
X94962380Y-102266666D01*
X95295714Y-101361904D02*
X95962380Y-101361904D01*
X94914761Y-101600000D02*
X95629047Y-101838095D01*
X95629047Y-101219047D01*
X94962380Y-100361904D02*
X94962380Y-100838095D01*
X95438571Y-100885714D01*
X95390952Y-100838095D01*
X95343333Y-100742857D01*
X95343333Y-100504761D01*
X95390952Y-100409523D01*
X95438571Y-100361904D01*
X95533809Y-100314285D01*
X95771904Y-100314285D01*
X95867142Y-100361904D01*
X95914761Y-100409523D01*
X95962380Y-100504761D01*
X95962380Y-100742857D01*
X95914761Y-100838095D01*
X95867142Y-100885714D01*
X94962380Y-112998095D02*
X95771904Y-112998095D01*
X95867142Y-112950476D01*
X95914761Y-112902857D01*
X95962380Y-112807619D01*
X95962380Y-112617142D01*
X95914761Y-112521904D01*
X95867142Y-112474285D01*
X95771904Y-112426666D01*
X94962380Y-112426666D01*
X95295714Y-111521904D02*
X95962380Y-111521904D01*
X94914761Y-111760000D02*
X95629047Y-111998095D01*
X95629047Y-111379047D01*
X95295714Y-110569523D02*
X95962380Y-110569523D01*
X94914761Y-110807619D02*
X95629047Y-111045714D01*
X95629047Y-110426666D01*
X103852380Y-92678095D02*
X104661904Y-92678095D01*
X104757142Y-92630476D01*
X104804761Y-92582857D01*
X104852380Y-92487619D01*
X104852380Y-92297142D01*
X104804761Y-92201904D01*
X104757142Y-92154285D01*
X104661904Y-92106666D01*
X103852380Y-92106666D01*
X104185714Y-91201904D02*
X104852380Y-91201904D01*
X103804761Y-91440000D02*
X104519047Y-91678095D01*
X104519047Y-91059047D01*
X103852380Y-90773333D02*
X103852380Y-90154285D01*
X104233333Y-90487619D01*
X104233333Y-90344761D01*
X104280952Y-90249523D01*
X104328571Y-90201904D01*
X104423809Y-90154285D01*
X104661904Y-90154285D01*
X104757142Y-90201904D01*
X104804761Y-90249523D01*
X104852380Y-90344761D01*
X104852380Y-90630476D01*
X104804761Y-90725714D01*
X104757142Y-90773333D01*
X103852380Y-102838095D02*
X104661904Y-102838095D01*
X104757142Y-102790476D01*
X104804761Y-102742857D01*
X104852380Y-102647619D01*
X104852380Y-102457142D01*
X104804761Y-102361904D01*
X104757142Y-102314285D01*
X104661904Y-102266666D01*
X103852380Y-102266666D01*
X104185714Y-101361904D02*
X104852380Y-101361904D01*
X103804761Y-101600000D02*
X104519047Y-101838095D01*
X104519047Y-101219047D01*
X103947619Y-100885714D02*
X103900000Y-100838095D01*
X103852380Y-100742857D01*
X103852380Y-100504761D01*
X103900000Y-100409523D01*
X103947619Y-100361904D01*
X104042857Y-100314285D01*
X104138095Y-100314285D01*
X104280952Y-100361904D01*
X104852380Y-100933333D01*
X104852380Y-100314285D01*
X103852380Y-112998095D02*
X104661904Y-112998095D01*
X104757142Y-112950476D01*
X104804761Y-112902857D01*
X104852380Y-112807619D01*
X104852380Y-112617142D01*
X104804761Y-112521904D01*
X104757142Y-112474285D01*
X104661904Y-112426666D01*
X103852380Y-112426666D01*
X104185714Y-111521904D02*
X104852380Y-111521904D01*
X103804761Y-111760000D02*
X104519047Y-111998095D01*
X104519047Y-111379047D01*
X104852380Y-110474285D02*
X104852380Y-111045714D01*
X104852380Y-110760000D02*
X103852380Y-110760000D01*
X103995238Y-110855238D01*
X104090476Y-110950476D01*
X104138095Y-111045714D01*
X112742380Y-92678095D02*
X113551904Y-92678095D01*
X113647142Y-92630476D01*
X113694761Y-92582857D01*
X113742380Y-92487619D01*
X113742380Y-92297142D01*
X113694761Y-92201904D01*
X113647142Y-92154285D01*
X113551904Y-92106666D01*
X112742380Y-92106666D01*
X113075714Y-91201904D02*
X113742380Y-91201904D01*
X112694761Y-91440000D02*
X113409047Y-91678095D01*
X113409047Y-91059047D01*
X112742380Y-90487619D02*
X112742380Y-90392380D01*
X112790000Y-90297142D01*
X112837619Y-90249523D01*
X112932857Y-90201904D01*
X113123333Y-90154285D01*
X113361428Y-90154285D01*
X113551904Y-90201904D01*
X113647142Y-90249523D01*
X113694761Y-90297142D01*
X113742380Y-90392380D01*
X113742380Y-90487619D01*
X113694761Y-90582857D01*
X113647142Y-90630476D01*
X113551904Y-90678095D01*
X113361428Y-90725714D01*
X113123333Y-90725714D01*
X112932857Y-90678095D01*
X112837619Y-90630476D01*
X112790000Y-90582857D01*
X112742380Y-90487619D01*
X112742380Y-102838095D02*
X113551904Y-102838095D01*
X113647142Y-102790476D01*
X113694761Y-102742857D01*
X113742380Y-102647619D01*
X113742380Y-102457142D01*
X113694761Y-102361904D01*
X113647142Y-102314285D01*
X113551904Y-102266666D01*
X112742380Y-102266666D01*
X112742380Y-101885714D02*
X112742380Y-101266666D01*
X113123333Y-101600000D01*
X113123333Y-101457142D01*
X113170952Y-101361904D01*
X113218571Y-101314285D01*
X113313809Y-101266666D01*
X113551904Y-101266666D01*
X113647142Y-101314285D01*
X113694761Y-101361904D01*
X113742380Y-101457142D01*
X113742380Y-101742857D01*
X113694761Y-101838095D01*
X113647142Y-101885714D01*
X113742380Y-100790476D02*
X113742380Y-100600000D01*
X113694761Y-100504761D01*
X113647142Y-100457142D01*
X113504285Y-100361904D01*
X113313809Y-100314285D01*
X112932857Y-100314285D01*
X112837619Y-100361904D01*
X112790000Y-100409523D01*
X112742380Y-100504761D01*
X112742380Y-100695238D01*
X112790000Y-100790476D01*
X112837619Y-100838095D01*
X112932857Y-100885714D01*
X113170952Y-100885714D01*
X113266190Y-100838095D01*
X113313809Y-100790476D01*
X113361428Y-100695238D01*
X113361428Y-100504761D01*
X113313809Y-100409523D01*
X113266190Y-100361904D01*
X113170952Y-100314285D01*
X112742380Y-112998095D02*
X113551904Y-112998095D01*
X113647142Y-112950476D01*
X113694761Y-112902857D01*
X113742380Y-112807619D01*
X113742380Y-112617142D01*
X113694761Y-112521904D01*
X113647142Y-112474285D01*
X113551904Y-112426666D01*
X112742380Y-112426666D01*
X112742380Y-112045714D02*
X112742380Y-111426666D01*
X113123333Y-111760000D01*
X113123333Y-111617142D01*
X113170952Y-111521904D01*
X113218571Y-111474285D01*
X113313809Y-111426666D01*
X113551904Y-111426666D01*
X113647142Y-111474285D01*
X113694761Y-111521904D01*
X113742380Y-111617142D01*
X113742380Y-111902857D01*
X113694761Y-111998095D01*
X113647142Y-112045714D01*
X113170952Y-110855238D02*
X113123333Y-110950476D01*
X113075714Y-110998095D01*
X112980476Y-111045714D01*
X112932857Y-111045714D01*
X112837619Y-110998095D01*
X112790000Y-110950476D01*
X112742380Y-110855238D01*
X112742380Y-110664761D01*
X112790000Y-110569523D01*
X112837619Y-110521904D01*
X112932857Y-110474285D01*
X112980476Y-110474285D01*
X113075714Y-110521904D01*
X113123333Y-110569523D01*
X113170952Y-110664761D01*
X113170952Y-110855238D01*
X113218571Y-110950476D01*
X113266190Y-110998095D01*
X113361428Y-111045714D01*
X113551904Y-111045714D01*
X113647142Y-110998095D01*
X113694761Y-110950476D01*
X113742380Y-110855238D01*
X113742380Y-110664761D01*
X113694761Y-110569523D01*
X113647142Y-110521904D01*
X113551904Y-110474285D01*
X113361428Y-110474285D01*
X113266190Y-110521904D01*
X113218571Y-110569523D01*
X113170952Y-110664761D01*
X121632380Y-92678095D02*
X122441904Y-92678095D01*
X122537142Y-92630476D01*
X122584761Y-92582857D01*
X122632380Y-92487619D01*
X122632380Y-92297142D01*
X122584761Y-92201904D01*
X122537142Y-92154285D01*
X122441904Y-92106666D01*
X121632380Y-92106666D01*
X121632380Y-91725714D02*
X121632380Y-91106666D01*
X122013333Y-91440000D01*
X122013333Y-91297142D01*
X122060952Y-91201904D01*
X122108571Y-91154285D01*
X122203809Y-91106666D01*
X122441904Y-91106666D01*
X122537142Y-91154285D01*
X122584761Y-91201904D01*
X122632380Y-91297142D01*
X122632380Y-91582857D01*
X122584761Y-91678095D01*
X122537142Y-91725714D01*
X121632380Y-90773333D02*
X121632380Y-90106666D01*
X122632380Y-90535238D01*
X121632380Y-102838095D02*
X122441904Y-102838095D01*
X122537142Y-102790476D01*
X122584761Y-102742857D01*
X122632380Y-102647619D01*
X122632380Y-102457142D01*
X122584761Y-102361904D01*
X122537142Y-102314285D01*
X122441904Y-102266666D01*
X121632380Y-102266666D01*
X121632380Y-101885714D02*
X121632380Y-101266666D01*
X122013333Y-101600000D01*
X122013333Y-101457142D01*
X122060952Y-101361904D01*
X122108571Y-101314285D01*
X122203809Y-101266666D01*
X122441904Y-101266666D01*
X122537142Y-101314285D01*
X122584761Y-101361904D01*
X122632380Y-101457142D01*
X122632380Y-101742857D01*
X122584761Y-101838095D01*
X122537142Y-101885714D01*
X121632380Y-100409523D02*
X121632380Y-100600000D01*
X121680000Y-100695238D01*
X121727619Y-100742857D01*
X121870476Y-100838095D01*
X122060952Y-100885714D01*
X122441904Y-100885714D01*
X122537142Y-100838095D01*
X122584761Y-100790476D01*
X122632380Y-100695238D01*
X122632380Y-100504761D01*
X122584761Y-100409523D01*
X122537142Y-100361904D01*
X122441904Y-100314285D01*
X122203809Y-100314285D01*
X122108571Y-100361904D01*
X122060952Y-100409523D01*
X122013333Y-100504761D01*
X122013333Y-100695238D01*
X122060952Y-100790476D01*
X122108571Y-100838095D01*
X122203809Y-100885714D01*
X121632380Y-112998095D02*
X122441904Y-112998095D01*
X122537142Y-112950476D01*
X122584761Y-112902857D01*
X122632380Y-112807619D01*
X122632380Y-112617142D01*
X122584761Y-112521904D01*
X122537142Y-112474285D01*
X122441904Y-112426666D01*
X121632380Y-112426666D01*
X121632380Y-112045714D02*
X121632380Y-111426666D01*
X122013333Y-111760000D01*
X122013333Y-111617142D01*
X122060952Y-111521904D01*
X122108571Y-111474285D01*
X122203809Y-111426666D01*
X122441904Y-111426666D01*
X122537142Y-111474285D01*
X122584761Y-111521904D01*
X122632380Y-111617142D01*
X122632380Y-111902857D01*
X122584761Y-111998095D01*
X122537142Y-112045714D01*
X121632380Y-110521904D02*
X121632380Y-110998095D01*
X122108571Y-111045714D01*
X122060952Y-110998095D01*
X122013333Y-110902857D01*
X122013333Y-110664761D01*
X122060952Y-110569523D01*
X122108571Y-110521904D01*
X122203809Y-110474285D01*
X122441904Y-110474285D01*
X122537142Y-110521904D01*
X122584761Y-110569523D01*
X122632380Y-110664761D01*
X122632380Y-110902857D01*
X122584761Y-110998095D01*
X122537142Y-111045714D01*
X130522380Y-92678095D02*
X131331904Y-92678095D01*
X131427142Y-92630476D01*
X131474761Y-92582857D01*
X131522380Y-92487619D01*
X131522380Y-92297142D01*
X131474761Y-92201904D01*
X131427142Y-92154285D01*
X131331904Y-92106666D01*
X130522380Y-92106666D01*
X130522380Y-91725714D02*
X130522380Y-91106666D01*
X130903333Y-91440000D01*
X130903333Y-91297142D01*
X130950952Y-91201904D01*
X130998571Y-91154285D01*
X131093809Y-91106666D01*
X131331904Y-91106666D01*
X131427142Y-91154285D01*
X131474761Y-91201904D01*
X131522380Y-91297142D01*
X131522380Y-91582857D01*
X131474761Y-91678095D01*
X131427142Y-91725714D01*
X130855714Y-90249523D02*
X131522380Y-90249523D01*
X130474761Y-90487619D02*
X131189047Y-90725714D01*
X131189047Y-90106666D01*
X130522380Y-102838095D02*
X131331904Y-102838095D01*
X131427142Y-102790476D01*
X131474761Y-102742857D01*
X131522380Y-102647619D01*
X131522380Y-102457142D01*
X131474761Y-102361904D01*
X131427142Y-102314285D01*
X131331904Y-102266666D01*
X130522380Y-102266666D01*
X130522380Y-101885714D02*
X130522380Y-101266666D01*
X130903333Y-101600000D01*
X130903333Y-101457142D01*
X130950952Y-101361904D01*
X130998571Y-101314285D01*
X131093809Y-101266666D01*
X131331904Y-101266666D01*
X131427142Y-101314285D01*
X131474761Y-101361904D01*
X131522380Y-101457142D01*
X131522380Y-101742857D01*
X131474761Y-101838095D01*
X131427142Y-101885714D01*
X130522380Y-100933333D02*
X130522380Y-100314285D01*
X130903333Y-100647619D01*
X130903333Y-100504761D01*
X130950952Y-100409523D01*
X130998571Y-100361904D01*
X131093809Y-100314285D01*
X131331904Y-100314285D01*
X131427142Y-100361904D01*
X131474761Y-100409523D01*
X131522380Y-100504761D01*
X131522380Y-100790476D01*
X131474761Y-100885714D01*
X131427142Y-100933333D01*
X130522380Y-112998095D02*
X131331904Y-112998095D01*
X131427142Y-112950476D01*
X131474761Y-112902857D01*
X131522380Y-112807619D01*
X131522380Y-112617142D01*
X131474761Y-112521904D01*
X131427142Y-112474285D01*
X131331904Y-112426666D01*
X130522380Y-112426666D01*
X130522380Y-112045714D02*
X130522380Y-111426666D01*
X130903333Y-111760000D01*
X130903333Y-111617142D01*
X130950952Y-111521904D01*
X130998571Y-111474285D01*
X131093809Y-111426666D01*
X131331904Y-111426666D01*
X131427142Y-111474285D01*
X131474761Y-111521904D01*
X131522380Y-111617142D01*
X131522380Y-111902857D01*
X131474761Y-111998095D01*
X131427142Y-112045714D01*
X130617619Y-111045714D02*
X130570000Y-110998095D01*
X130522380Y-110902857D01*
X130522380Y-110664761D01*
X130570000Y-110569523D01*
X130617619Y-110521904D01*
X130712857Y-110474285D01*
X130808095Y-110474285D01*
X130950952Y-110521904D01*
X131522380Y-111093333D01*
X131522380Y-110474285D01*
X139412380Y-92678095D02*
X140221904Y-92678095D01*
X140317142Y-92630476D01*
X140364761Y-92582857D01*
X140412380Y-92487619D01*
X140412380Y-92297142D01*
X140364761Y-92201904D01*
X140317142Y-92154285D01*
X140221904Y-92106666D01*
X139412380Y-92106666D01*
X139412380Y-91725714D02*
X139412380Y-91106666D01*
X139793333Y-91440000D01*
X139793333Y-91297142D01*
X139840952Y-91201904D01*
X139888571Y-91154285D01*
X139983809Y-91106666D01*
X140221904Y-91106666D01*
X140317142Y-91154285D01*
X140364761Y-91201904D01*
X140412380Y-91297142D01*
X140412380Y-91582857D01*
X140364761Y-91678095D01*
X140317142Y-91725714D01*
X140412380Y-90154285D02*
X140412380Y-90725714D01*
X140412380Y-90440000D02*
X139412380Y-90440000D01*
X139555238Y-90535238D01*
X139650476Y-90630476D01*
X139698095Y-90725714D01*
X139412380Y-102838095D02*
X140221904Y-102838095D01*
X140317142Y-102790476D01*
X140364761Y-102742857D01*
X140412380Y-102647619D01*
X140412380Y-102457142D01*
X140364761Y-102361904D01*
X140317142Y-102314285D01*
X140221904Y-102266666D01*
X139412380Y-102266666D01*
X139412380Y-101885714D02*
X139412380Y-101266666D01*
X139793333Y-101600000D01*
X139793333Y-101457142D01*
X139840952Y-101361904D01*
X139888571Y-101314285D01*
X139983809Y-101266666D01*
X140221904Y-101266666D01*
X140317142Y-101314285D01*
X140364761Y-101361904D01*
X140412380Y-101457142D01*
X140412380Y-101742857D01*
X140364761Y-101838095D01*
X140317142Y-101885714D01*
X139412380Y-100647619D02*
X139412380Y-100552380D01*
X139460000Y-100457142D01*
X139507619Y-100409523D01*
X139602857Y-100361904D01*
X139793333Y-100314285D01*
X140031428Y-100314285D01*
X140221904Y-100361904D01*
X140317142Y-100409523D01*
X140364761Y-100457142D01*
X140412380Y-100552380D01*
X140412380Y-100647619D01*
X140364761Y-100742857D01*
X140317142Y-100790476D01*
X140221904Y-100838095D01*
X140031428Y-100885714D01*
X139793333Y-100885714D01*
X139602857Y-100838095D01*
X139507619Y-100790476D01*
X139460000Y-100742857D01*
X139412380Y-100647619D01*
X139412380Y-112998095D02*
X140221904Y-112998095D01*
X140317142Y-112950476D01*
X140364761Y-112902857D01*
X140412380Y-112807619D01*
X140412380Y-112617142D01*
X140364761Y-112521904D01*
X140317142Y-112474285D01*
X140221904Y-112426666D01*
X139412380Y-112426666D01*
X139507619Y-111998095D02*
X139460000Y-111950476D01*
X139412380Y-111855238D01*
X139412380Y-111617142D01*
X139460000Y-111521904D01*
X139507619Y-111474285D01*
X139602857Y-111426666D01*
X139698095Y-111426666D01*
X139840952Y-111474285D01*
X140412380Y-112045714D01*
X140412380Y-111426666D01*
X140412380Y-110950476D02*
X140412380Y-110760000D01*
X140364761Y-110664761D01*
X140317142Y-110617142D01*
X140174285Y-110521904D01*
X139983809Y-110474285D01*
X139602857Y-110474285D01*
X139507619Y-110521904D01*
X139460000Y-110569523D01*
X139412380Y-110664761D01*
X139412380Y-110855238D01*
X139460000Y-110950476D01*
X139507619Y-110998095D01*
X139602857Y-111045714D01*
X139840952Y-111045714D01*
X139936190Y-110998095D01*
X139983809Y-110950476D01*
X140031428Y-110855238D01*
X140031428Y-110664761D01*
X139983809Y-110569523D01*
X139936190Y-110521904D01*
X139840952Y-110474285D01*
X148302380Y-92678095D02*
X149111904Y-92678095D01*
X149207142Y-92630476D01*
X149254761Y-92582857D01*
X149302380Y-92487619D01*
X149302380Y-92297142D01*
X149254761Y-92201904D01*
X149207142Y-92154285D01*
X149111904Y-92106666D01*
X148302380Y-92106666D01*
X148397619Y-91678095D02*
X148350000Y-91630476D01*
X148302380Y-91535238D01*
X148302380Y-91297142D01*
X148350000Y-91201904D01*
X148397619Y-91154285D01*
X148492857Y-91106666D01*
X148588095Y-91106666D01*
X148730952Y-91154285D01*
X149302380Y-91725714D01*
X149302380Y-91106666D01*
X148730952Y-90535238D02*
X148683333Y-90630476D01*
X148635714Y-90678095D01*
X148540476Y-90725714D01*
X148492857Y-90725714D01*
X148397619Y-90678095D01*
X148350000Y-90630476D01*
X148302380Y-90535238D01*
X148302380Y-90344761D01*
X148350000Y-90249523D01*
X148397619Y-90201904D01*
X148492857Y-90154285D01*
X148540476Y-90154285D01*
X148635714Y-90201904D01*
X148683333Y-90249523D01*
X148730952Y-90344761D01*
X148730952Y-90535238D01*
X148778571Y-90630476D01*
X148826190Y-90678095D01*
X148921428Y-90725714D01*
X149111904Y-90725714D01*
X149207142Y-90678095D01*
X149254761Y-90630476D01*
X149302380Y-90535238D01*
X149302380Y-90344761D01*
X149254761Y-90249523D01*
X149207142Y-90201904D01*
X149111904Y-90154285D01*
X148921428Y-90154285D01*
X148826190Y-90201904D01*
X148778571Y-90249523D01*
X148730952Y-90344761D01*
X148302380Y-102838095D02*
X149111904Y-102838095D01*
X149207142Y-102790476D01*
X149254761Y-102742857D01*
X149302380Y-102647619D01*
X149302380Y-102457142D01*
X149254761Y-102361904D01*
X149207142Y-102314285D01*
X149111904Y-102266666D01*
X148302380Y-102266666D01*
X148397619Y-101838095D02*
X148350000Y-101790476D01*
X148302380Y-101695238D01*
X148302380Y-101457142D01*
X148350000Y-101361904D01*
X148397619Y-101314285D01*
X148492857Y-101266666D01*
X148588095Y-101266666D01*
X148730952Y-101314285D01*
X149302380Y-101885714D01*
X149302380Y-101266666D01*
X148302380Y-100933333D02*
X148302380Y-100266666D01*
X149302380Y-100695238D01*
X148302380Y-112998095D02*
X149111904Y-112998095D01*
X149207142Y-112950476D01*
X149254761Y-112902857D01*
X149302380Y-112807619D01*
X149302380Y-112617142D01*
X149254761Y-112521904D01*
X149207142Y-112474285D01*
X149111904Y-112426666D01*
X148302380Y-112426666D01*
X148397619Y-111998095D02*
X148350000Y-111950476D01*
X148302380Y-111855238D01*
X148302380Y-111617142D01*
X148350000Y-111521904D01*
X148397619Y-111474285D01*
X148492857Y-111426666D01*
X148588095Y-111426666D01*
X148730952Y-111474285D01*
X149302380Y-112045714D01*
X149302380Y-111426666D01*
X148302380Y-110569523D02*
X148302380Y-110760000D01*
X148350000Y-110855238D01*
X148397619Y-110902857D01*
X148540476Y-110998095D01*
X148730952Y-111045714D01*
X149111904Y-111045714D01*
X149207142Y-110998095D01*
X149254761Y-110950476D01*
X149302380Y-110855238D01*
X149302380Y-110664761D01*
X149254761Y-110569523D01*
X149207142Y-110521904D01*
X149111904Y-110474285D01*
X148873809Y-110474285D01*
X148778571Y-110521904D01*
X148730952Y-110569523D01*
X148683333Y-110664761D01*
X148683333Y-110855238D01*
X148730952Y-110950476D01*
X148778571Y-110998095D01*
X148873809Y-111045714D01*
X157192380Y-92678095D02*
X158001904Y-92678095D01*
X158097142Y-92630476D01*
X158144761Y-92582857D01*
X158192380Y-92487619D01*
X158192380Y-92297142D01*
X158144761Y-92201904D01*
X158097142Y-92154285D01*
X158001904Y-92106666D01*
X157192380Y-92106666D01*
X157287619Y-91678095D02*
X157240000Y-91630476D01*
X157192380Y-91535238D01*
X157192380Y-91297142D01*
X157240000Y-91201904D01*
X157287619Y-91154285D01*
X157382857Y-91106666D01*
X157478095Y-91106666D01*
X157620952Y-91154285D01*
X158192380Y-91725714D01*
X158192380Y-91106666D01*
X157192380Y-90201904D02*
X157192380Y-90678095D01*
X157668571Y-90725714D01*
X157620952Y-90678095D01*
X157573333Y-90582857D01*
X157573333Y-90344761D01*
X157620952Y-90249523D01*
X157668571Y-90201904D01*
X157763809Y-90154285D01*
X158001904Y-90154285D01*
X158097142Y-90201904D01*
X158144761Y-90249523D01*
X158192380Y-90344761D01*
X158192380Y-90582857D01*
X158144761Y-90678095D01*
X158097142Y-90725714D01*
X157192380Y-102838095D02*
X158001904Y-102838095D01*
X158097142Y-102790476D01*
X158144761Y-102742857D01*
X158192380Y-102647619D01*
X158192380Y-102457142D01*
X158144761Y-102361904D01*
X158097142Y-102314285D01*
X158001904Y-102266666D01*
X157192380Y-102266666D01*
X157287619Y-101838095D02*
X157240000Y-101790476D01*
X157192380Y-101695238D01*
X157192380Y-101457142D01*
X157240000Y-101361904D01*
X157287619Y-101314285D01*
X157382857Y-101266666D01*
X157478095Y-101266666D01*
X157620952Y-101314285D01*
X158192380Y-101885714D01*
X158192380Y-101266666D01*
X157525714Y-100409523D02*
X158192380Y-100409523D01*
X157144761Y-100647619D02*
X157859047Y-100885714D01*
X157859047Y-100266666D01*
X157192380Y-112998095D02*
X158001904Y-112998095D01*
X158097142Y-112950476D01*
X158144761Y-112902857D01*
X158192380Y-112807619D01*
X158192380Y-112617142D01*
X158144761Y-112521904D01*
X158097142Y-112474285D01*
X158001904Y-112426666D01*
X157192380Y-112426666D01*
X157287619Y-111998095D02*
X157240000Y-111950476D01*
X157192380Y-111855238D01*
X157192380Y-111617142D01*
X157240000Y-111521904D01*
X157287619Y-111474285D01*
X157382857Y-111426666D01*
X157478095Y-111426666D01*
X157620952Y-111474285D01*
X158192380Y-112045714D01*
X158192380Y-111426666D01*
X157192380Y-111093333D02*
X157192380Y-110474285D01*
X157573333Y-110807619D01*
X157573333Y-110664761D01*
X157620952Y-110569523D01*
X157668571Y-110521904D01*
X157763809Y-110474285D01*
X158001904Y-110474285D01*
X158097142Y-110521904D01*
X158144761Y-110569523D01*
X158192380Y-110664761D01*
X158192380Y-110950476D01*
X158144761Y-111045714D01*
X158097142Y-111093333D01*
X166082380Y-92678095D02*
X166891904Y-92678095D01*
X166987142Y-92630476D01*
X167034761Y-92582857D01*
X167082380Y-92487619D01*
X167082380Y-92297142D01*
X167034761Y-92201904D01*
X166987142Y-92154285D01*
X166891904Y-92106666D01*
X166082380Y-92106666D01*
X166177619Y-91678095D02*
X166130000Y-91630476D01*
X166082380Y-91535238D01*
X166082380Y-91297142D01*
X166130000Y-91201904D01*
X166177619Y-91154285D01*
X166272857Y-91106666D01*
X166368095Y-91106666D01*
X166510952Y-91154285D01*
X167082380Y-91725714D01*
X167082380Y-91106666D01*
X166177619Y-90725714D02*
X166130000Y-90678095D01*
X166082380Y-90582857D01*
X166082380Y-90344761D01*
X166130000Y-90249523D01*
X166177619Y-90201904D01*
X166272857Y-90154285D01*
X166368095Y-90154285D01*
X166510952Y-90201904D01*
X167082380Y-90773333D01*
X167082380Y-90154285D01*
X166082380Y-102838095D02*
X166891904Y-102838095D01*
X166987142Y-102790476D01*
X167034761Y-102742857D01*
X167082380Y-102647619D01*
X167082380Y-102457142D01*
X167034761Y-102361904D01*
X166987142Y-102314285D01*
X166891904Y-102266666D01*
X166082380Y-102266666D01*
X166177619Y-101838095D02*
X166130000Y-101790476D01*
X166082380Y-101695238D01*
X166082380Y-101457142D01*
X166130000Y-101361904D01*
X166177619Y-101314285D01*
X166272857Y-101266666D01*
X166368095Y-101266666D01*
X166510952Y-101314285D01*
X167082380Y-101885714D01*
X167082380Y-101266666D01*
X167082380Y-100314285D02*
X167082380Y-100885714D01*
X167082380Y-100600000D02*
X166082380Y-100600000D01*
X166225238Y-100695238D01*
X166320476Y-100790476D01*
X166368095Y-100885714D01*
X166082380Y-112998095D02*
X166891904Y-112998095D01*
X166987142Y-112950476D01*
X167034761Y-112902857D01*
X167082380Y-112807619D01*
X167082380Y-112617142D01*
X167034761Y-112521904D01*
X166987142Y-112474285D01*
X166891904Y-112426666D01*
X166082380Y-112426666D01*
X166177619Y-111998095D02*
X166130000Y-111950476D01*
X166082380Y-111855238D01*
X166082380Y-111617142D01*
X166130000Y-111521904D01*
X166177619Y-111474285D01*
X166272857Y-111426666D01*
X166368095Y-111426666D01*
X166510952Y-111474285D01*
X167082380Y-112045714D01*
X167082380Y-111426666D01*
X166082380Y-110807619D02*
X166082380Y-110712380D01*
X166130000Y-110617142D01*
X166177619Y-110569523D01*
X166272857Y-110521904D01*
X166463333Y-110474285D01*
X166701428Y-110474285D01*
X166891904Y-110521904D01*
X166987142Y-110569523D01*
X167034761Y-110617142D01*
X167082380Y-110712380D01*
X167082380Y-110807619D01*
X167034761Y-110902857D01*
X166987142Y-110950476D01*
X166891904Y-110998095D01*
X166701428Y-111045714D01*
X166463333Y-111045714D01*
X166272857Y-110998095D01*
X166177619Y-110950476D01*
X166130000Y-110902857D01*
X166082380Y-110807619D01*
X174972380Y-92678095D02*
X175781904Y-92678095D01*
X175877142Y-92630476D01*
X175924761Y-92582857D01*
X175972380Y-92487619D01*
X175972380Y-92297142D01*
X175924761Y-92201904D01*
X175877142Y-92154285D01*
X175781904Y-92106666D01*
X174972380Y-92106666D01*
X175972380Y-91106666D02*
X175972380Y-91678095D01*
X175972380Y-91392380D02*
X174972380Y-91392380D01*
X175115238Y-91487619D01*
X175210476Y-91582857D01*
X175258095Y-91678095D01*
X175972380Y-90630476D02*
X175972380Y-90440000D01*
X175924761Y-90344761D01*
X175877142Y-90297142D01*
X175734285Y-90201904D01*
X175543809Y-90154285D01*
X175162857Y-90154285D01*
X175067619Y-90201904D01*
X175020000Y-90249523D01*
X174972380Y-90344761D01*
X174972380Y-90535238D01*
X175020000Y-90630476D01*
X175067619Y-90678095D01*
X175162857Y-90725714D01*
X175400952Y-90725714D01*
X175496190Y-90678095D01*
X175543809Y-90630476D01*
X175591428Y-90535238D01*
X175591428Y-90344761D01*
X175543809Y-90249523D01*
X175496190Y-90201904D01*
X175400952Y-90154285D01*
X174972380Y-102838095D02*
X175781904Y-102838095D01*
X175877142Y-102790476D01*
X175924761Y-102742857D01*
X175972380Y-102647619D01*
X175972380Y-102457142D01*
X175924761Y-102361904D01*
X175877142Y-102314285D01*
X175781904Y-102266666D01*
X174972380Y-102266666D01*
X175972380Y-101266666D02*
X175972380Y-101838095D01*
X175972380Y-101552380D02*
X174972380Y-101552380D01*
X175115238Y-101647619D01*
X175210476Y-101742857D01*
X175258095Y-101838095D01*
X175400952Y-100695238D02*
X175353333Y-100790476D01*
X175305714Y-100838095D01*
X175210476Y-100885714D01*
X175162857Y-100885714D01*
X175067619Y-100838095D01*
X175020000Y-100790476D01*
X174972380Y-100695238D01*
X174972380Y-100504761D01*
X175020000Y-100409523D01*
X175067619Y-100361904D01*
X175162857Y-100314285D01*
X175210476Y-100314285D01*
X175305714Y-100361904D01*
X175353333Y-100409523D01*
X175400952Y-100504761D01*
X175400952Y-100695238D01*
X175448571Y-100790476D01*
X175496190Y-100838095D01*
X175591428Y-100885714D01*
X175781904Y-100885714D01*
X175877142Y-100838095D01*
X175924761Y-100790476D01*
X175972380Y-100695238D01*
X175972380Y-100504761D01*
X175924761Y-100409523D01*
X175877142Y-100361904D01*
X175781904Y-100314285D01*
X175591428Y-100314285D01*
X175496190Y-100361904D01*
X175448571Y-100409523D01*
X175400952Y-100504761D01*
X174972380Y-112998095D02*
X175781904Y-112998095D01*
X175877142Y-112950476D01*
X175924761Y-112902857D01*
X175972380Y-112807619D01*
X175972380Y-112617142D01*
X175924761Y-112521904D01*
X175877142Y-112474285D01*
X175781904Y-112426666D01*
X174972380Y-112426666D01*
X175972380Y-111426666D02*
X175972380Y-111998095D01*
X175972380Y-111712380D02*
X174972380Y-111712380D01*
X175115238Y-111807619D01*
X175210476Y-111902857D01*
X175258095Y-111998095D01*
X174972380Y-111093333D02*
X174972380Y-110426666D01*
X175972380Y-110855238D01*
X183862380Y-92678095D02*
X184671904Y-92678095D01*
X184767142Y-92630476D01*
X184814761Y-92582857D01*
X184862380Y-92487619D01*
X184862380Y-92297142D01*
X184814761Y-92201904D01*
X184767142Y-92154285D01*
X184671904Y-92106666D01*
X183862380Y-92106666D01*
X184862380Y-91106666D02*
X184862380Y-91678095D01*
X184862380Y-91392380D02*
X183862380Y-91392380D01*
X184005238Y-91487619D01*
X184100476Y-91582857D01*
X184148095Y-91678095D01*
X183862380Y-90249523D02*
X183862380Y-90440000D01*
X183910000Y-90535238D01*
X183957619Y-90582857D01*
X184100476Y-90678095D01*
X184290952Y-90725714D01*
X184671904Y-90725714D01*
X184767142Y-90678095D01*
X184814761Y-90630476D01*
X184862380Y-90535238D01*
X184862380Y-90344761D01*
X184814761Y-90249523D01*
X184767142Y-90201904D01*
X184671904Y-90154285D01*
X184433809Y-90154285D01*
X184338571Y-90201904D01*
X184290952Y-90249523D01*
X184243333Y-90344761D01*
X184243333Y-90535238D01*
X184290952Y-90630476D01*
X184338571Y-90678095D01*
X184433809Y-90725714D01*
X183862380Y-102838095D02*
X184671904Y-102838095D01*
X184767142Y-102790476D01*
X184814761Y-102742857D01*
X184862380Y-102647619D01*
X184862380Y-102457142D01*
X184814761Y-102361904D01*
X184767142Y-102314285D01*
X184671904Y-102266666D01*
X183862380Y-102266666D01*
X184862380Y-101266666D02*
X184862380Y-101838095D01*
X184862380Y-101552380D02*
X183862380Y-101552380D01*
X184005238Y-101647619D01*
X184100476Y-101742857D01*
X184148095Y-101838095D01*
X183862380Y-100361904D02*
X183862380Y-100838095D01*
X184338571Y-100885714D01*
X184290952Y-100838095D01*
X184243333Y-100742857D01*
X184243333Y-100504761D01*
X184290952Y-100409523D01*
X184338571Y-100361904D01*
X184433809Y-100314285D01*
X184671904Y-100314285D01*
X184767142Y-100361904D01*
X184814761Y-100409523D01*
X184862380Y-100504761D01*
X184862380Y-100742857D01*
X184814761Y-100838095D01*
X184767142Y-100885714D01*
X192752380Y-92678095D02*
X193561904Y-92678095D01*
X193657142Y-92630476D01*
X193704761Y-92582857D01*
X193752380Y-92487619D01*
X193752380Y-92297142D01*
X193704761Y-92201904D01*
X193657142Y-92154285D01*
X193561904Y-92106666D01*
X192752380Y-92106666D01*
X193752380Y-91106666D02*
X193752380Y-91678095D01*
X193752380Y-91392380D02*
X192752380Y-91392380D01*
X192895238Y-91487619D01*
X192990476Y-91582857D01*
X193038095Y-91678095D01*
X192752380Y-90773333D02*
X192752380Y-90154285D01*
X193133333Y-90487619D01*
X193133333Y-90344761D01*
X193180952Y-90249523D01*
X193228571Y-90201904D01*
X193323809Y-90154285D01*
X193561904Y-90154285D01*
X193657142Y-90201904D01*
X193704761Y-90249523D01*
X193752380Y-90344761D01*
X193752380Y-90630476D01*
X193704761Y-90725714D01*
X193657142Y-90773333D01*
X192752380Y-102838095D02*
X193561904Y-102838095D01*
X193657142Y-102790476D01*
X193704761Y-102742857D01*
X193752380Y-102647619D01*
X193752380Y-102457142D01*
X193704761Y-102361904D01*
X193657142Y-102314285D01*
X193561904Y-102266666D01*
X192752380Y-102266666D01*
X193752380Y-101266666D02*
X193752380Y-101838095D01*
X193752380Y-101552380D02*
X192752380Y-101552380D01*
X192895238Y-101647619D01*
X192990476Y-101742857D01*
X193038095Y-101838095D01*
X192847619Y-100885714D02*
X192800000Y-100838095D01*
X192752380Y-100742857D01*
X192752380Y-100504761D01*
X192800000Y-100409523D01*
X192847619Y-100361904D01*
X192942857Y-100314285D01*
X193038095Y-100314285D01*
X193180952Y-100361904D01*
X193752380Y-100933333D01*
X193752380Y-100314285D01*
X192752380Y-112998095D02*
X193561904Y-112998095D01*
X193657142Y-112950476D01*
X193704761Y-112902857D01*
X193752380Y-112807619D01*
X193752380Y-112617142D01*
X193704761Y-112521904D01*
X193657142Y-112474285D01*
X193561904Y-112426666D01*
X192752380Y-112426666D01*
X193752380Y-111426666D02*
X193752380Y-111998095D01*
X193752380Y-111712380D02*
X192752380Y-111712380D01*
X192895238Y-111807619D01*
X192990476Y-111902857D01*
X193038095Y-111998095D01*
X193752380Y-110474285D02*
X193752380Y-111045714D01*
X193752380Y-110760000D02*
X192752380Y-110760000D01*
X192895238Y-110855238D01*
X192990476Y-110950476D01*
X193038095Y-111045714D01*
X201642380Y-92678095D02*
X202451904Y-92678095D01*
X202547142Y-92630476D01*
X202594761Y-92582857D01*
X202642380Y-92487619D01*
X202642380Y-92297142D01*
X202594761Y-92201904D01*
X202547142Y-92154285D01*
X202451904Y-92106666D01*
X201642380Y-92106666D01*
X202642380Y-91106666D02*
X202642380Y-91678095D01*
X202642380Y-91392380D02*
X201642380Y-91392380D01*
X201785238Y-91487619D01*
X201880476Y-91582857D01*
X201928095Y-91678095D01*
X201642380Y-90487619D02*
X201642380Y-90392380D01*
X201690000Y-90297142D01*
X201737619Y-90249523D01*
X201832857Y-90201904D01*
X202023333Y-90154285D01*
X202261428Y-90154285D01*
X202451904Y-90201904D01*
X202547142Y-90249523D01*
X202594761Y-90297142D01*
X202642380Y-90392380D01*
X202642380Y-90487619D01*
X202594761Y-90582857D01*
X202547142Y-90630476D01*
X202451904Y-90678095D01*
X202261428Y-90725714D01*
X202023333Y-90725714D01*
X201832857Y-90678095D01*
X201737619Y-90630476D01*
X201690000Y-90582857D01*
X201642380Y-90487619D01*
X201642380Y-102361904D02*
X202451904Y-102361904D01*
X202547142Y-102314285D01*
X202594761Y-102266666D01*
X202642380Y-102171428D01*
X202642380Y-101980952D01*
X202594761Y-101885714D01*
X202547142Y-101838095D01*
X202451904Y-101790476D01*
X201642380Y-101790476D01*
X202642380Y-101266666D02*
X202642380Y-101076190D01*
X202594761Y-100980952D01*
X202547142Y-100933333D01*
X202404285Y-100838095D01*
X202213809Y-100790476D01*
X201832857Y-100790476D01*
X201737619Y-100838095D01*
X201690000Y-100885714D01*
X201642380Y-100980952D01*
X201642380Y-101171428D01*
X201690000Y-101266666D01*
X201737619Y-101314285D01*
X201832857Y-101361904D01*
X202070952Y-101361904D01*
X202166190Y-101314285D01*
X202213809Y-101266666D01*
X202261428Y-101171428D01*
X202261428Y-100980952D01*
X202213809Y-100885714D01*
X202166190Y-100838095D01*
X202070952Y-100790476D01*
X201642380Y-112521904D02*
X202451904Y-112521904D01*
X202547142Y-112474285D01*
X202594761Y-112426666D01*
X202642380Y-112331428D01*
X202642380Y-112140952D01*
X202594761Y-112045714D01*
X202547142Y-111998095D01*
X202451904Y-111950476D01*
X201642380Y-111950476D01*
X202070952Y-111331428D02*
X202023333Y-111426666D01*
X201975714Y-111474285D01*
X201880476Y-111521904D01*
X201832857Y-111521904D01*
X201737619Y-111474285D01*
X201690000Y-111426666D01*
X201642380Y-111331428D01*
X201642380Y-111140952D01*
X201690000Y-111045714D01*
X201737619Y-110998095D01*
X201832857Y-110950476D01*
X201880476Y-110950476D01*
X201975714Y-110998095D01*
X202023333Y-111045714D01*
X202070952Y-111140952D01*
X202070952Y-111331428D01*
X202118571Y-111426666D01*
X202166190Y-111474285D01*
X202261428Y-111521904D01*
X202451904Y-111521904D01*
X202547142Y-111474285D01*
X202594761Y-111426666D01*
X202642380Y-111331428D01*
X202642380Y-111140952D01*
X202594761Y-111045714D01*
X202547142Y-110998095D01*
X202451904Y-110950476D01*
X202261428Y-110950476D01*
X202166190Y-110998095D01*
X202118571Y-111045714D01*
X202070952Y-111140952D01*
X210532380Y-92201904D02*
X211341904Y-92201904D01*
X211437142Y-92154285D01*
X211484761Y-92106666D01*
X211532380Y-92011428D01*
X211532380Y-91820952D01*
X211484761Y-91725714D01*
X211437142Y-91678095D01*
X211341904Y-91630476D01*
X210532380Y-91630476D01*
X210532380Y-91249523D02*
X210532380Y-90582857D01*
X211532380Y-91011428D01*
X210532380Y-102361904D02*
X211341904Y-102361904D01*
X211437142Y-102314285D01*
X211484761Y-102266666D01*
X211532380Y-102171428D01*
X211532380Y-101980952D01*
X211484761Y-101885714D01*
X211437142Y-101838095D01*
X211341904Y-101790476D01*
X210532380Y-101790476D01*
X210532380Y-100885714D02*
X210532380Y-101076190D01*
X210580000Y-101171428D01*
X210627619Y-101219047D01*
X210770476Y-101314285D01*
X210960952Y-101361904D01*
X211341904Y-101361904D01*
X211437142Y-101314285D01*
X211484761Y-101266666D01*
X211532380Y-101171428D01*
X211532380Y-100980952D01*
X211484761Y-100885714D01*
X211437142Y-100838095D01*
X211341904Y-100790476D01*
X211103809Y-100790476D01*
X211008571Y-100838095D01*
X210960952Y-100885714D01*
X210913333Y-100980952D01*
X210913333Y-101171428D01*
X210960952Y-101266666D01*
X211008571Y-101314285D01*
X211103809Y-101361904D01*
X210532380Y-112521904D02*
X211341904Y-112521904D01*
X211437142Y-112474285D01*
X211484761Y-112426666D01*
X211532380Y-112331428D01*
X211532380Y-112140952D01*
X211484761Y-112045714D01*
X211437142Y-111998095D01*
X211341904Y-111950476D01*
X210532380Y-111950476D01*
X210532380Y-110998095D02*
X210532380Y-111474285D01*
X211008571Y-111521904D01*
X210960952Y-111474285D01*
X210913333Y-111379047D01*
X210913333Y-111140952D01*
X210960952Y-111045714D01*
X211008571Y-110998095D01*
X211103809Y-110950476D01*
X211341904Y-110950476D01*
X211437142Y-110998095D01*
X211484761Y-111045714D01*
X211532380Y-111140952D01*
X211532380Y-111379047D01*
X211484761Y-111474285D01*
X211437142Y-111521904D01*
X219422380Y-92201904D02*
X220231904Y-92201904D01*
X220327142Y-92154285D01*
X220374761Y-92106666D01*
X220422380Y-92011428D01*
X220422380Y-91820952D01*
X220374761Y-91725714D01*
X220327142Y-91678095D01*
X220231904Y-91630476D01*
X219422380Y-91630476D01*
X219755714Y-90725714D02*
X220422380Y-90725714D01*
X219374761Y-90963809D02*
X220089047Y-91201904D01*
X220089047Y-90582857D01*
X219422380Y-102361904D02*
X220231904Y-102361904D01*
X220327142Y-102314285D01*
X220374761Y-102266666D01*
X220422380Y-102171428D01*
X220422380Y-101980952D01*
X220374761Y-101885714D01*
X220327142Y-101838095D01*
X220231904Y-101790476D01*
X219422380Y-101790476D01*
X219422380Y-101409523D02*
X219422380Y-100790476D01*
X219803333Y-101123809D01*
X219803333Y-100980952D01*
X219850952Y-100885714D01*
X219898571Y-100838095D01*
X219993809Y-100790476D01*
X220231904Y-100790476D01*
X220327142Y-100838095D01*
X220374761Y-100885714D01*
X220422380Y-100980952D01*
X220422380Y-101266666D01*
X220374761Y-101361904D01*
X220327142Y-101409523D01*
X219422380Y-112521904D02*
X220231904Y-112521904D01*
X220327142Y-112474285D01*
X220374761Y-112426666D01*
X220422380Y-112331428D01*
X220422380Y-112140952D01*
X220374761Y-112045714D01*
X220327142Y-111998095D01*
X220231904Y-111950476D01*
X219422380Y-111950476D01*
X219517619Y-111521904D02*
X219470000Y-111474285D01*
X219422380Y-111379047D01*
X219422380Y-111140952D01*
X219470000Y-111045714D01*
X219517619Y-110998095D01*
X219612857Y-110950476D01*
X219708095Y-110950476D01*
X219850952Y-110998095D01*
X220422380Y-111569523D01*
X220422380Y-110950476D01*
X86072380Y-112521904D02*
X86881904Y-112521904D01*
X86977142Y-112474285D01*
X87024761Y-112426666D01*
X87072380Y-112331428D01*
X87072380Y-112140952D01*
X87024761Y-112045714D01*
X86977142Y-111998095D01*
X86881904Y-111950476D01*
X86072380Y-111950476D01*
X87072380Y-110950476D02*
X87072380Y-111521904D01*
X87072380Y-111236190D02*
X86072380Y-111236190D01*
X86215238Y-111331428D01*
X86310476Y-111426666D01*
X86358095Y-111521904D01*
X83372142Y-97976666D02*
X83419761Y-98024285D01*
X83467380Y-98167142D01*
X83467380Y-98262380D01*
X83419761Y-98405238D01*
X83324523Y-98500476D01*
X83229285Y-98548095D01*
X83038809Y-98595714D01*
X82895952Y-98595714D01*
X82705476Y-98548095D01*
X82610238Y-98500476D01*
X82515000Y-98405238D01*
X82467380Y-98262380D01*
X82467380Y-98167142D01*
X82515000Y-98024285D01*
X82562619Y-97976666D01*
X83467380Y-97024285D02*
X83467380Y-97595714D01*
X83467380Y-97310000D02*
X82467380Y-97310000D01*
X82610238Y-97405238D01*
X82705476Y-97500476D01*
X82753095Y-97595714D01*
M02*
