G04 #@! TF.GenerationSoftware,KiCad,Pcbnew,5.1.5-52549c5~84~ubuntu18.04.1*
G04 #@! TF.CreationDate,2020-04-22T17:53:27-07:00*
G04 #@! TF.ProjectId,register_16bit,72656769-7374-4657-925f-31366269742e,rev?*
G04 #@! TF.SameCoordinates,Original*
G04 #@! TF.FileFunction,Soldermask,Top*
G04 #@! TF.FilePolarity,Negative*
%FSLAX46Y46*%
G04 Gerber Fmt 4.6, Leading zero omitted, Abs format (unit mm)*
G04 Created by KiCad (PCBNEW 5.1.5-52549c5~84~ubuntu18.04.1) date 2020-04-22 17:53:27*
%MOMM*%
%LPD*%
G04 APERTURE LIST*
%ADD10C,0.100000*%
G04 APERTURE END LIST*
D10*
G36*
X72838254Y-127097818D02*
G01*
X73211511Y-127252426D01*
X73211513Y-127252427D01*
X73547436Y-127476884D01*
X73833116Y-127762564D01*
X74057574Y-128098489D01*
X74212182Y-128471746D01*
X74291000Y-128867993D01*
X74291000Y-129272007D01*
X74212182Y-129668254D01*
X74057574Y-130041511D01*
X74057573Y-130041513D01*
X73833116Y-130377436D01*
X73547436Y-130663116D01*
X73211513Y-130887573D01*
X73211512Y-130887574D01*
X73211511Y-130887574D01*
X72838254Y-131042182D01*
X72442007Y-131121000D01*
X72037993Y-131121000D01*
X71641746Y-131042182D01*
X71268489Y-130887574D01*
X71268488Y-130887574D01*
X71268487Y-130887573D01*
X70932564Y-130663116D01*
X70646884Y-130377436D01*
X70422427Y-130041513D01*
X70422426Y-130041511D01*
X70267818Y-129668254D01*
X70189000Y-129272007D01*
X70189000Y-128867993D01*
X70267818Y-128471746D01*
X70422426Y-128098489D01*
X70646884Y-127762564D01*
X70932564Y-127476884D01*
X71268487Y-127252427D01*
X71268489Y-127252426D01*
X71641746Y-127097818D01*
X72037993Y-127019000D01*
X72442007Y-127019000D01*
X72838254Y-127097818D01*
G37*
G36*
X73908228Y-121431703D02*
G01*
X74063100Y-121495853D01*
X74202481Y-121588985D01*
X74321015Y-121707519D01*
X74414147Y-121846900D01*
X74478297Y-122001772D01*
X74511000Y-122166184D01*
X74511000Y-122333816D01*
X74478297Y-122498228D01*
X74414147Y-122653100D01*
X74321015Y-122792481D01*
X74202481Y-122911015D01*
X74063100Y-123004147D01*
X73908228Y-123068297D01*
X73743816Y-123101000D01*
X73576184Y-123101000D01*
X73411772Y-123068297D01*
X73256900Y-123004147D01*
X73117519Y-122911015D01*
X72998985Y-122792481D01*
X72905853Y-122653100D01*
X72841703Y-122498228D01*
X72809000Y-122333816D01*
X72809000Y-122166184D01*
X72841703Y-122001772D01*
X72905853Y-121846900D01*
X72998985Y-121707519D01*
X73117519Y-121588985D01*
X73256900Y-121495853D01*
X73411772Y-121431703D01*
X73576184Y-121399000D01*
X73743816Y-121399000D01*
X73908228Y-121431703D01*
G37*
G36*
X71068228Y-120046703D02*
G01*
X71223100Y-120110853D01*
X71362481Y-120203985D01*
X71481015Y-120322519D01*
X71574147Y-120461900D01*
X71638297Y-120616772D01*
X71671000Y-120781184D01*
X71671000Y-120948816D01*
X71638297Y-121113228D01*
X71574147Y-121268100D01*
X71481015Y-121407481D01*
X71362481Y-121526015D01*
X71223100Y-121619147D01*
X71068228Y-121683297D01*
X70903816Y-121716000D01*
X70736184Y-121716000D01*
X70571772Y-121683297D01*
X70416900Y-121619147D01*
X70277519Y-121526015D01*
X70158985Y-121407481D01*
X70065853Y-121268100D01*
X70001703Y-121113228D01*
X69969000Y-120948816D01*
X69969000Y-120781184D01*
X70001703Y-120616772D01*
X70065853Y-120461900D01*
X70158985Y-120322519D01*
X70277519Y-120203985D01*
X70416900Y-120110853D01*
X70571772Y-120046703D01*
X70736184Y-120014000D01*
X70903816Y-120014000D01*
X71068228Y-120046703D01*
G37*
G36*
X73908228Y-118661703D02*
G01*
X74063100Y-118725853D01*
X74202481Y-118818985D01*
X74321015Y-118937519D01*
X74414147Y-119076900D01*
X74478297Y-119231772D01*
X74511000Y-119396184D01*
X74511000Y-119563816D01*
X74478297Y-119728228D01*
X74414147Y-119883100D01*
X74321015Y-120022481D01*
X74202481Y-120141015D01*
X74063100Y-120234147D01*
X73908228Y-120298297D01*
X73743816Y-120331000D01*
X73576184Y-120331000D01*
X73411772Y-120298297D01*
X73256900Y-120234147D01*
X73117519Y-120141015D01*
X72998985Y-120022481D01*
X72905853Y-119883100D01*
X72841703Y-119728228D01*
X72809000Y-119563816D01*
X72809000Y-119396184D01*
X72841703Y-119231772D01*
X72905853Y-119076900D01*
X72998985Y-118937519D01*
X73117519Y-118818985D01*
X73256900Y-118725853D01*
X73411772Y-118661703D01*
X73576184Y-118629000D01*
X73743816Y-118629000D01*
X73908228Y-118661703D01*
G37*
G36*
X71068228Y-117276703D02*
G01*
X71223100Y-117340853D01*
X71362481Y-117433985D01*
X71481015Y-117552519D01*
X71574147Y-117691900D01*
X71638297Y-117846772D01*
X71671000Y-118011184D01*
X71671000Y-118178816D01*
X71638297Y-118343228D01*
X71574147Y-118498100D01*
X71481015Y-118637481D01*
X71362481Y-118756015D01*
X71223100Y-118849147D01*
X71068228Y-118913297D01*
X70903816Y-118946000D01*
X70736184Y-118946000D01*
X70571772Y-118913297D01*
X70416900Y-118849147D01*
X70277519Y-118756015D01*
X70158985Y-118637481D01*
X70065853Y-118498100D01*
X70001703Y-118343228D01*
X69969000Y-118178816D01*
X69969000Y-118011184D01*
X70001703Y-117846772D01*
X70065853Y-117691900D01*
X70158985Y-117552519D01*
X70277519Y-117433985D01*
X70416900Y-117340853D01*
X70571772Y-117276703D01*
X70736184Y-117244000D01*
X70903816Y-117244000D01*
X71068228Y-117276703D01*
G37*
G36*
X73908228Y-115891703D02*
G01*
X74063100Y-115955853D01*
X74202481Y-116048985D01*
X74321015Y-116167519D01*
X74414147Y-116306900D01*
X74478297Y-116461772D01*
X74511000Y-116626184D01*
X74511000Y-116793816D01*
X74478297Y-116958228D01*
X74414147Y-117113100D01*
X74321015Y-117252481D01*
X74202481Y-117371015D01*
X74063100Y-117464147D01*
X73908228Y-117528297D01*
X73743816Y-117561000D01*
X73576184Y-117561000D01*
X73411772Y-117528297D01*
X73256900Y-117464147D01*
X73117519Y-117371015D01*
X72998985Y-117252481D01*
X72905853Y-117113100D01*
X72841703Y-116958228D01*
X72809000Y-116793816D01*
X72809000Y-116626184D01*
X72841703Y-116461772D01*
X72905853Y-116306900D01*
X72998985Y-116167519D01*
X73117519Y-116048985D01*
X73256900Y-115955853D01*
X73411772Y-115891703D01*
X73576184Y-115859000D01*
X73743816Y-115859000D01*
X73908228Y-115891703D01*
G37*
G36*
X71068228Y-114506703D02*
G01*
X71223100Y-114570853D01*
X71362481Y-114663985D01*
X71481015Y-114782519D01*
X71574147Y-114921900D01*
X71638297Y-115076772D01*
X71671000Y-115241184D01*
X71671000Y-115408816D01*
X71638297Y-115573228D01*
X71574147Y-115728100D01*
X71481015Y-115867481D01*
X71362481Y-115986015D01*
X71223100Y-116079147D01*
X71068228Y-116143297D01*
X70903816Y-116176000D01*
X70736184Y-116176000D01*
X70571772Y-116143297D01*
X70416900Y-116079147D01*
X70277519Y-115986015D01*
X70158985Y-115867481D01*
X70065853Y-115728100D01*
X70001703Y-115573228D01*
X69969000Y-115408816D01*
X69969000Y-115241184D01*
X70001703Y-115076772D01*
X70065853Y-114921900D01*
X70158985Y-114782519D01*
X70277519Y-114663985D01*
X70416900Y-114570853D01*
X70571772Y-114506703D01*
X70736184Y-114474000D01*
X70903816Y-114474000D01*
X71068228Y-114506703D01*
G37*
G36*
X101286000Y-115486000D02*
G01*
X96834000Y-115486000D01*
X96834000Y-113934000D01*
X101286000Y-113934000D01*
X101286000Y-115486000D01*
G37*
G36*
X216856000Y-115486000D02*
G01*
X212404000Y-115486000D01*
X212404000Y-113934000D01*
X216856000Y-113934000D01*
X216856000Y-115486000D01*
G37*
G36*
X225746000Y-115486000D02*
G01*
X221294000Y-115486000D01*
X221294000Y-113934000D01*
X225746000Y-113934000D01*
X225746000Y-115486000D01*
G37*
G36*
X92396000Y-115486000D02*
G01*
X87944000Y-115486000D01*
X87944000Y-113934000D01*
X92396000Y-113934000D01*
X92396000Y-115486000D01*
G37*
G36*
X234636000Y-115486000D02*
G01*
X230184000Y-115486000D01*
X230184000Y-113934000D01*
X234636000Y-113934000D01*
X234636000Y-115486000D01*
G37*
G36*
X136846000Y-115486000D02*
G01*
X132394000Y-115486000D01*
X132394000Y-113934000D01*
X136846000Y-113934000D01*
X136846000Y-115486000D01*
G37*
G36*
X127956000Y-115486000D02*
G01*
X123504000Y-115486000D01*
X123504000Y-113934000D01*
X127956000Y-113934000D01*
X127956000Y-115486000D01*
G37*
G36*
X119066000Y-115486000D02*
G01*
X114614000Y-115486000D01*
X114614000Y-113934000D01*
X119066000Y-113934000D01*
X119066000Y-115486000D01*
G37*
G36*
X199076000Y-115486000D02*
G01*
X194624000Y-115486000D01*
X194624000Y-113934000D01*
X199076000Y-113934000D01*
X199076000Y-115486000D01*
G37*
G36*
X110176000Y-115486000D02*
G01*
X105724000Y-115486000D01*
X105724000Y-113934000D01*
X110176000Y-113934000D01*
X110176000Y-115486000D01*
G37*
G36*
X154626000Y-115486000D02*
G01*
X150174000Y-115486000D01*
X150174000Y-113934000D01*
X154626000Y-113934000D01*
X154626000Y-115486000D01*
G37*
G36*
X181296000Y-115486000D02*
G01*
X176844000Y-115486000D01*
X176844000Y-113934000D01*
X181296000Y-113934000D01*
X181296000Y-115486000D01*
G37*
G36*
X207966000Y-115486000D02*
G01*
X203514000Y-115486000D01*
X203514000Y-113934000D01*
X207966000Y-113934000D01*
X207966000Y-115486000D01*
G37*
G36*
X145736000Y-115486000D02*
G01*
X141284000Y-115486000D01*
X141284000Y-113934000D01*
X145736000Y-113934000D01*
X145736000Y-115486000D01*
G37*
G36*
X190186000Y-115486000D02*
G01*
X185734000Y-115486000D01*
X185734000Y-113934000D01*
X190186000Y-113934000D01*
X190186000Y-115486000D01*
G37*
G36*
X163516000Y-115486000D02*
G01*
X159064000Y-115486000D01*
X159064000Y-113934000D01*
X163516000Y-113934000D01*
X163516000Y-115486000D01*
G37*
G36*
X172406000Y-115486000D02*
G01*
X167954000Y-115486000D01*
X167954000Y-113934000D01*
X172406000Y-113934000D01*
X172406000Y-115486000D01*
G37*
G36*
X73908228Y-113121703D02*
G01*
X74063100Y-113185853D01*
X74202481Y-113278985D01*
X74321015Y-113397519D01*
X74414147Y-113536900D01*
X74478297Y-113691772D01*
X74511000Y-113856184D01*
X74511000Y-114023816D01*
X74478297Y-114188228D01*
X74414147Y-114343100D01*
X74321015Y-114482481D01*
X74202481Y-114601015D01*
X74063100Y-114694147D01*
X73908228Y-114758297D01*
X73743816Y-114791000D01*
X73576184Y-114791000D01*
X73411772Y-114758297D01*
X73256900Y-114694147D01*
X73117519Y-114601015D01*
X72998985Y-114482481D01*
X72905853Y-114343100D01*
X72841703Y-114188228D01*
X72809000Y-114023816D01*
X72809000Y-113856184D01*
X72841703Y-113691772D01*
X72905853Y-113536900D01*
X72998985Y-113397519D01*
X73117519Y-113278985D01*
X73256900Y-113185853D01*
X73411772Y-113121703D01*
X73576184Y-113089000D01*
X73743816Y-113089000D01*
X73908228Y-113121703D01*
G37*
G36*
X71068228Y-111736703D02*
G01*
X71223100Y-111800853D01*
X71362481Y-111893985D01*
X71481015Y-112012519D01*
X71574147Y-112151900D01*
X71638297Y-112306772D01*
X71671000Y-112471184D01*
X71671000Y-112638816D01*
X71638297Y-112803228D01*
X71574147Y-112958100D01*
X71481015Y-113097481D01*
X71362481Y-113216015D01*
X71223100Y-113309147D01*
X71068228Y-113373297D01*
X70903816Y-113406000D01*
X70736184Y-113406000D01*
X70571772Y-113373297D01*
X70416900Y-113309147D01*
X70277519Y-113216015D01*
X70158985Y-113097481D01*
X70065853Y-112958100D01*
X70001703Y-112803228D01*
X69969000Y-112638816D01*
X69969000Y-112471184D01*
X70001703Y-112306772D01*
X70065853Y-112151900D01*
X70158985Y-112012519D01*
X70277519Y-111893985D01*
X70416900Y-111800853D01*
X70571772Y-111736703D01*
X70736184Y-111704000D01*
X70903816Y-111704000D01*
X71068228Y-111736703D01*
G37*
G36*
X73908228Y-110351703D02*
G01*
X74063100Y-110415853D01*
X74202481Y-110508985D01*
X74321015Y-110627519D01*
X74414147Y-110766900D01*
X74478297Y-110921772D01*
X74511000Y-111086184D01*
X74511000Y-111253816D01*
X74478297Y-111418228D01*
X74414147Y-111573100D01*
X74321015Y-111712481D01*
X74202481Y-111831015D01*
X74063100Y-111924147D01*
X73908228Y-111988297D01*
X73743816Y-112021000D01*
X73576184Y-112021000D01*
X73411772Y-111988297D01*
X73256900Y-111924147D01*
X73117519Y-111831015D01*
X72998985Y-111712481D01*
X72905853Y-111573100D01*
X72841703Y-111418228D01*
X72809000Y-111253816D01*
X72809000Y-111086184D01*
X72841703Y-110921772D01*
X72905853Y-110766900D01*
X72998985Y-110627519D01*
X73117519Y-110508985D01*
X73256900Y-110415853D01*
X73411772Y-110351703D01*
X73576184Y-110319000D01*
X73743816Y-110319000D01*
X73908228Y-110351703D01*
G37*
G36*
X71068228Y-108966703D02*
G01*
X71223100Y-109030853D01*
X71362481Y-109123985D01*
X71481015Y-109242519D01*
X71574147Y-109381900D01*
X71638297Y-109536772D01*
X71671000Y-109701184D01*
X71671000Y-109868816D01*
X71638297Y-110033228D01*
X71574147Y-110188100D01*
X71481015Y-110327481D01*
X71362481Y-110446015D01*
X71223100Y-110539147D01*
X71068228Y-110603297D01*
X70903816Y-110636000D01*
X70736184Y-110636000D01*
X70571772Y-110603297D01*
X70416900Y-110539147D01*
X70277519Y-110446015D01*
X70158985Y-110327481D01*
X70065853Y-110188100D01*
X70001703Y-110033228D01*
X69969000Y-109868816D01*
X69969000Y-109701184D01*
X70001703Y-109536772D01*
X70065853Y-109381900D01*
X70158985Y-109242519D01*
X70277519Y-109123985D01*
X70416900Y-109030853D01*
X70571772Y-108966703D01*
X70736184Y-108934000D01*
X70903816Y-108934000D01*
X71068228Y-108966703D01*
G37*
G36*
X190186000Y-109586000D02*
G01*
X185734000Y-109586000D01*
X185734000Y-108034000D01*
X190186000Y-108034000D01*
X190186000Y-109586000D01*
G37*
G36*
X101286000Y-109586000D02*
G01*
X96834000Y-109586000D01*
X96834000Y-108034000D01*
X101286000Y-108034000D01*
X101286000Y-109586000D01*
G37*
G36*
X199076000Y-109586000D02*
G01*
X194624000Y-109586000D01*
X194624000Y-108034000D01*
X199076000Y-108034000D01*
X199076000Y-109586000D01*
G37*
G36*
X207966000Y-109586000D02*
G01*
X203514000Y-109586000D01*
X203514000Y-108034000D01*
X207966000Y-108034000D01*
X207966000Y-109586000D01*
G37*
G36*
X216856000Y-109586000D02*
G01*
X212404000Y-109586000D01*
X212404000Y-108034000D01*
X216856000Y-108034000D01*
X216856000Y-109586000D01*
G37*
G36*
X172406000Y-109586000D02*
G01*
X167954000Y-109586000D01*
X167954000Y-108034000D01*
X172406000Y-108034000D01*
X172406000Y-109586000D01*
G37*
G36*
X163516000Y-109586000D02*
G01*
X159064000Y-109586000D01*
X159064000Y-108034000D01*
X163516000Y-108034000D01*
X163516000Y-109586000D01*
G37*
G36*
X145736000Y-109586000D02*
G01*
X141284000Y-109586000D01*
X141284000Y-108034000D01*
X145736000Y-108034000D01*
X145736000Y-109586000D01*
G37*
G36*
X119066000Y-109586000D02*
G01*
X114614000Y-109586000D01*
X114614000Y-108034000D01*
X119066000Y-108034000D01*
X119066000Y-109586000D01*
G37*
G36*
X136846000Y-109586000D02*
G01*
X132394000Y-109586000D01*
X132394000Y-108034000D01*
X136846000Y-108034000D01*
X136846000Y-109586000D01*
G37*
G36*
X234636000Y-109586000D02*
G01*
X230184000Y-109586000D01*
X230184000Y-108034000D01*
X234636000Y-108034000D01*
X234636000Y-109586000D01*
G37*
G36*
X92396000Y-109586000D02*
G01*
X87944000Y-109586000D01*
X87944000Y-108034000D01*
X92396000Y-108034000D01*
X92396000Y-109586000D01*
G37*
G36*
X127956000Y-109586000D02*
G01*
X123504000Y-109586000D01*
X123504000Y-108034000D01*
X127956000Y-108034000D01*
X127956000Y-109586000D01*
G37*
G36*
X225746000Y-109586000D02*
G01*
X221294000Y-109586000D01*
X221294000Y-108034000D01*
X225746000Y-108034000D01*
X225746000Y-109586000D01*
G37*
G36*
X181296000Y-109586000D02*
G01*
X176844000Y-109586000D01*
X176844000Y-108034000D01*
X181296000Y-108034000D01*
X181296000Y-109586000D01*
G37*
G36*
X154626000Y-109586000D02*
G01*
X150174000Y-109586000D01*
X150174000Y-108034000D01*
X154626000Y-108034000D01*
X154626000Y-109586000D01*
G37*
G36*
X110176000Y-109586000D02*
G01*
X105724000Y-109586000D01*
X105724000Y-108034000D01*
X110176000Y-108034000D01*
X110176000Y-109586000D01*
G37*
G36*
X73908228Y-107581703D02*
G01*
X74063100Y-107645853D01*
X74202481Y-107738985D01*
X74321015Y-107857519D01*
X74414147Y-107996900D01*
X74478297Y-108151772D01*
X74511000Y-108316184D01*
X74511000Y-108483816D01*
X74478297Y-108648228D01*
X74414147Y-108803100D01*
X74321015Y-108942481D01*
X74202481Y-109061015D01*
X74063100Y-109154147D01*
X73908228Y-109218297D01*
X73743816Y-109251000D01*
X73576184Y-109251000D01*
X73411772Y-109218297D01*
X73256900Y-109154147D01*
X73117519Y-109061015D01*
X72998985Y-108942481D01*
X72905853Y-108803100D01*
X72841703Y-108648228D01*
X72809000Y-108483816D01*
X72809000Y-108316184D01*
X72841703Y-108151772D01*
X72905853Y-107996900D01*
X72998985Y-107857519D01*
X73117519Y-107738985D01*
X73256900Y-107645853D01*
X73411772Y-107581703D01*
X73576184Y-107549000D01*
X73743816Y-107549000D01*
X73908228Y-107581703D01*
G37*
G36*
X71068228Y-106196703D02*
G01*
X71223100Y-106260853D01*
X71362481Y-106353985D01*
X71481015Y-106472519D01*
X71574147Y-106611900D01*
X71638297Y-106766772D01*
X71671000Y-106931184D01*
X71671000Y-107098816D01*
X71638297Y-107263228D01*
X71574147Y-107418100D01*
X71481015Y-107557481D01*
X71362481Y-107676015D01*
X71223100Y-107769147D01*
X71068228Y-107833297D01*
X70903816Y-107866000D01*
X70736184Y-107866000D01*
X70571772Y-107833297D01*
X70416900Y-107769147D01*
X70277519Y-107676015D01*
X70158985Y-107557481D01*
X70065853Y-107418100D01*
X70001703Y-107263228D01*
X69969000Y-107098816D01*
X69969000Y-106931184D01*
X70001703Y-106766772D01*
X70065853Y-106611900D01*
X70158985Y-106472519D01*
X70277519Y-106353985D01*
X70416900Y-106260853D01*
X70571772Y-106196703D01*
X70736184Y-106164000D01*
X70903816Y-106164000D01*
X71068228Y-106196703D01*
G37*
G36*
X73908228Y-104811703D02*
G01*
X74063100Y-104875853D01*
X74202481Y-104968985D01*
X74321015Y-105087519D01*
X74414147Y-105226900D01*
X74478297Y-105381772D01*
X74511000Y-105546184D01*
X74511000Y-105713816D01*
X74478297Y-105878228D01*
X74414147Y-106033100D01*
X74321015Y-106172481D01*
X74202481Y-106291015D01*
X74063100Y-106384147D01*
X73908228Y-106448297D01*
X73743816Y-106481000D01*
X73576184Y-106481000D01*
X73411772Y-106448297D01*
X73256900Y-106384147D01*
X73117519Y-106291015D01*
X72998985Y-106172481D01*
X72905853Y-106033100D01*
X72841703Y-105878228D01*
X72809000Y-105713816D01*
X72809000Y-105546184D01*
X72841703Y-105381772D01*
X72905853Y-105226900D01*
X72998985Y-105087519D01*
X73117519Y-104968985D01*
X73256900Y-104875853D01*
X73411772Y-104811703D01*
X73576184Y-104779000D01*
X73743816Y-104779000D01*
X73908228Y-104811703D01*
G37*
G36*
X119066000Y-105326000D02*
G01*
X114614000Y-105326000D01*
X114614000Y-103774000D01*
X119066000Y-103774000D01*
X119066000Y-105326000D01*
G37*
G36*
X101286000Y-105326000D02*
G01*
X96834000Y-105326000D01*
X96834000Y-103774000D01*
X101286000Y-103774000D01*
X101286000Y-105326000D01*
G37*
G36*
X110176000Y-105326000D02*
G01*
X105724000Y-105326000D01*
X105724000Y-103774000D01*
X110176000Y-103774000D01*
X110176000Y-105326000D01*
G37*
G36*
X234636000Y-105326000D02*
G01*
X230184000Y-105326000D01*
X230184000Y-103774000D01*
X234636000Y-103774000D01*
X234636000Y-105326000D01*
G37*
G36*
X225746000Y-105326000D02*
G01*
X221294000Y-105326000D01*
X221294000Y-103774000D01*
X225746000Y-103774000D01*
X225746000Y-105326000D01*
G37*
G36*
X154626000Y-105326000D02*
G01*
X150174000Y-105326000D01*
X150174000Y-103774000D01*
X154626000Y-103774000D01*
X154626000Y-105326000D01*
G37*
G36*
X163516000Y-105326000D02*
G01*
X159064000Y-105326000D01*
X159064000Y-103774000D01*
X163516000Y-103774000D01*
X163516000Y-105326000D01*
G37*
G36*
X145736000Y-105326000D02*
G01*
X141284000Y-105326000D01*
X141284000Y-103774000D01*
X145736000Y-103774000D01*
X145736000Y-105326000D01*
G37*
G36*
X172406000Y-105326000D02*
G01*
X167954000Y-105326000D01*
X167954000Y-103774000D01*
X172406000Y-103774000D01*
X172406000Y-105326000D01*
G37*
G36*
X207966000Y-105326000D02*
G01*
X203514000Y-105326000D01*
X203514000Y-103774000D01*
X207966000Y-103774000D01*
X207966000Y-105326000D01*
G37*
G36*
X136846000Y-105326000D02*
G01*
X132394000Y-105326000D01*
X132394000Y-103774000D01*
X136846000Y-103774000D01*
X136846000Y-105326000D01*
G37*
G36*
X127956000Y-105326000D02*
G01*
X123504000Y-105326000D01*
X123504000Y-103774000D01*
X127956000Y-103774000D01*
X127956000Y-105326000D01*
G37*
G36*
X216856000Y-105326000D02*
G01*
X212404000Y-105326000D01*
X212404000Y-103774000D01*
X216856000Y-103774000D01*
X216856000Y-105326000D01*
G37*
G36*
X190186000Y-105326000D02*
G01*
X185734000Y-105326000D01*
X185734000Y-103774000D01*
X190186000Y-103774000D01*
X190186000Y-105326000D01*
G37*
G36*
X181296000Y-105326000D02*
G01*
X176844000Y-105326000D01*
X176844000Y-103774000D01*
X181296000Y-103774000D01*
X181296000Y-105326000D01*
G37*
G36*
X199076000Y-105326000D02*
G01*
X194624000Y-105326000D01*
X194624000Y-103774000D01*
X199076000Y-103774000D01*
X199076000Y-105326000D01*
G37*
G36*
X71068228Y-103426703D02*
G01*
X71223100Y-103490853D01*
X71362481Y-103583985D01*
X71481015Y-103702519D01*
X71574147Y-103841900D01*
X71638297Y-103996772D01*
X71671000Y-104161184D01*
X71671000Y-104328816D01*
X71638297Y-104493228D01*
X71574147Y-104648100D01*
X71481015Y-104787481D01*
X71362481Y-104906015D01*
X71223100Y-104999147D01*
X71068228Y-105063297D01*
X70903816Y-105096000D01*
X70736184Y-105096000D01*
X70571772Y-105063297D01*
X70416900Y-104999147D01*
X70277519Y-104906015D01*
X70158985Y-104787481D01*
X70065853Y-104648100D01*
X70001703Y-104493228D01*
X69969000Y-104328816D01*
X69969000Y-104161184D01*
X70001703Y-103996772D01*
X70065853Y-103841900D01*
X70158985Y-103702519D01*
X70277519Y-103583985D01*
X70416900Y-103490853D01*
X70571772Y-103426703D01*
X70736184Y-103394000D01*
X70903816Y-103394000D01*
X71068228Y-103426703D01*
G37*
G36*
X73908228Y-102041703D02*
G01*
X74063100Y-102105853D01*
X74202481Y-102198985D01*
X74321015Y-102317519D01*
X74414147Y-102456900D01*
X74478297Y-102611772D01*
X74511000Y-102776184D01*
X74511000Y-102943816D01*
X74478297Y-103108228D01*
X74414147Y-103263100D01*
X74321015Y-103402481D01*
X74202481Y-103521015D01*
X74063100Y-103614147D01*
X73908228Y-103678297D01*
X73743816Y-103711000D01*
X73576184Y-103711000D01*
X73411772Y-103678297D01*
X73256900Y-103614147D01*
X73117519Y-103521015D01*
X72998985Y-103402481D01*
X72905853Y-103263100D01*
X72841703Y-103108228D01*
X72809000Y-102943816D01*
X72809000Y-102776184D01*
X72841703Y-102611772D01*
X72905853Y-102456900D01*
X72998985Y-102317519D01*
X73117519Y-102198985D01*
X73256900Y-102105853D01*
X73411772Y-102041703D01*
X73576184Y-102009000D01*
X73743816Y-102009000D01*
X73908228Y-102041703D01*
G37*
G36*
X71068228Y-100656703D02*
G01*
X71223100Y-100720853D01*
X71362481Y-100813985D01*
X71481015Y-100932519D01*
X71574147Y-101071900D01*
X71638297Y-101226772D01*
X71671000Y-101391184D01*
X71671000Y-101558816D01*
X71638297Y-101723228D01*
X71574147Y-101878100D01*
X71481015Y-102017481D01*
X71362481Y-102136015D01*
X71223100Y-102229147D01*
X71068228Y-102293297D01*
X70903816Y-102326000D01*
X70736184Y-102326000D01*
X70571772Y-102293297D01*
X70416900Y-102229147D01*
X70277519Y-102136015D01*
X70158985Y-102017481D01*
X70065853Y-101878100D01*
X70001703Y-101723228D01*
X69969000Y-101558816D01*
X69969000Y-101391184D01*
X70001703Y-101226772D01*
X70065853Y-101071900D01*
X70158985Y-100932519D01*
X70277519Y-100813985D01*
X70416900Y-100720853D01*
X70571772Y-100656703D01*
X70736184Y-100624000D01*
X70903816Y-100624000D01*
X71068228Y-100656703D01*
G37*
G36*
X81528228Y-99511703D02*
G01*
X81683100Y-99575853D01*
X81822481Y-99668985D01*
X81941015Y-99787519D01*
X82034147Y-99926900D01*
X82098297Y-100081772D01*
X82131000Y-100246184D01*
X82131000Y-100413816D01*
X82098297Y-100578228D01*
X82034147Y-100733100D01*
X81941015Y-100872481D01*
X81822481Y-100991015D01*
X81683100Y-101084147D01*
X81528228Y-101148297D01*
X81363816Y-101181000D01*
X81196184Y-101181000D01*
X81031772Y-101148297D01*
X80876900Y-101084147D01*
X80737519Y-100991015D01*
X80618985Y-100872481D01*
X80525853Y-100733100D01*
X80461703Y-100578228D01*
X80429000Y-100413816D01*
X80429000Y-100246184D01*
X80461703Y-100081772D01*
X80525853Y-99926900D01*
X80618985Y-99787519D01*
X80737519Y-99668985D01*
X80876900Y-99575853D01*
X81031772Y-99511703D01*
X81196184Y-99479000D01*
X81363816Y-99479000D01*
X81528228Y-99511703D01*
G37*
G36*
X73908228Y-99271703D02*
G01*
X74063100Y-99335853D01*
X74202481Y-99428985D01*
X74321015Y-99547519D01*
X74414147Y-99686900D01*
X74478297Y-99841772D01*
X74511000Y-100006184D01*
X74511000Y-100173816D01*
X74478297Y-100338228D01*
X74414147Y-100493100D01*
X74321015Y-100632481D01*
X74202481Y-100751015D01*
X74063100Y-100844147D01*
X73908228Y-100908297D01*
X73743816Y-100941000D01*
X73576184Y-100941000D01*
X73411772Y-100908297D01*
X73256900Y-100844147D01*
X73117519Y-100751015D01*
X72998985Y-100632481D01*
X72905853Y-100493100D01*
X72841703Y-100338228D01*
X72809000Y-100173816D01*
X72809000Y-100006184D01*
X72841703Y-99841772D01*
X72905853Y-99686900D01*
X72998985Y-99547519D01*
X73117519Y-99428985D01*
X73256900Y-99335853D01*
X73411772Y-99271703D01*
X73576184Y-99239000D01*
X73743816Y-99239000D01*
X73908228Y-99271703D01*
G37*
G36*
X89116000Y-99911000D02*
G01*
X87414000Y-99911000D01*
X87414000Y-98209000D01*
X89116000Y-98209000D01*
X89116000Y-99911000D01*
G37*
G36*
X71068228Y-97886703D02*
G01*
X71223100Y-97950853D01*
X71362481Y-98043985D01*
X71481015Y-98162519D01*
X71574147Y-98301900D01*
X71638297Y-98456772D01*
X71671000Y-98621184D01*
X71671000Y-98788816D01*
X71638297Y-98953228D01*
X71574147Y-99108100D01*
X71481015Y-99247481D01*
X71362481Y-99366015D01*
X71223100Y-99459147D01*
X71068228Y-99523297D01*
X70903816Y-99556000D01*
X70736184Y-99556000D01*
X70571772Y-99523297D01*
X70416900Y-99459147D01*
X70277519Y-99366015D01*
X70158985Y-99247481D01*
X70065853Y-99108100D01*
X70001703Y-98953228D01*
X69969000Y-98788816D01*
X69969000Y-98621184D01*
X70001703Y-98456772D01*
X70065853Y-98301900D01*
X70158985Y-98162519D01*
X70277519Y-98043985D01*
X70416900Y-97950853D01*
X70571772Y-97886703D01*
X70736184Y-97854000D01*
X70903816Y-97854000D01*
X71068228Y-97886703D01*
G37*
G36*
X101286000Y-99426000D02*
G01*
X96834000Y-99426000D01*
X96834000Y-97874000D01*
X101286000Y-97874000D01*
X101286000Y-99426000D01*
G37*
G36*
X119066000Y-99426000D02*
G01*
X114614000Y-99426000D01*
X114614000Y-97874000D01*
X119066000Y-97874000D01*
X119066000Y-99426000D01*
G37*
G36*
X127956000Y-99426000D02*
G01*
X123504000Y-99426000D01*
X123504000Y-97874000D01*
X127956000Y-97874000D01*
X127956000Y-99426000D01*
G37*
G36*
X110176000Y-99426000D02*
G01*
X105724000Y-99426000D01*
X105724000Y-97874000D01*
X110176000Y-97874000D01*
X110176000Y-99426000D01*
G37*
G36*
X163516000Y-99426000D02*
G01*
X159064000Y-99426000D01*
X159064000Y-97874000D01*
X163516000Y-97874000D01*
X163516000Y-99426000D01*
G37*
G36*
X190186000Y-99426000D02*
G01*
X185734000Y-99426000D01*
X185734000Y-97874000D01*
X190186000Y-97874000D01*
X190186000Y-99426000D01*
G37*
G36*
X199076000Y-99426000D02*
G01*
X194624000Y-99426000D01*
X194624000Y-97874000D01*
X199076000Y-97874000D01*
X199076000Y-99426000D01*
G37*
G36*
X216856000Y-99426000D02*
G01*
X212404000Y-99426000D01*
X212404000Y-97874000D01*
X216856000Y-97874000D01*
X216856000Y-99426000D01*
G37*
G36*
X181296000Y-99426000D02*
G01*
X176844000Y-99426000D01*
X176844000Y-97874000D01*
X181296000Y-97874000D01*
X181296000Y-99426000D01*
G37*
G36*
X225746000Y-99426000D02*
G01*
X221294000Y-99426000D01*
X221294000Y-97874000D01*
X225746000Y-97874000D01*
X225746000Y-99426000D01*
G37*
G36*
X136846000Y-99426000D02*
G01*
X132394000Y-99426000D01*
X132394000Y-97874000D01*
X136846000Y-97874000D01*
X136846000Y-99426000D01*
G37*
G36*
X154626000Y-99426000D02*
G01*
X150174000Y-99426000D01*
X150174000Y-97874000D01*
X154626000Y-97874000D01*
X154626000Y-99426000D01*
G37*
G36*
X234636000Y-99426000D02*
G01*
X230184000Y-99426000D01*
X230184000Y-97874000D01*
X234636000Y-97874000D01*
X234636000Y-99426000D01*
G37*
G36*
X145736000Y-99426000D02*
G01*
X141284000Y-99426000D01*
X141284000Y-97874000D01*
X145736000Y-97874000D01*
X145736000Y-99426000D01*
G37*
G36*
X172406000Y-99426000D02*
G01*
X167954000Y-99426000D01*
X167954000Y-97874000D01*
X172406000Y-97874000D01*
X172406000Y-99426000D01*
G37*
G36*
X207966000Y-99426000D02*
G01*
X203514000Y-99426000D01*
X203514000Y-97874000D01*
X207966000Y-97874000D01*
X207966000Y-99426000D01*
G37*
G36*
X73908228Y-96501703D02*
G01*
X74063100Y-96565853D01*
X74202481Y-96658985D01*
X74321015Y-96777519D01*
X74414147Y-96916900D01*
X74478297Y-97071772D01*
X74511000Y-97236184D01*
X74511000Y-97403816D01*
X74478297Y-97568228D01*
X74414147Y-97723100D01*
X74321015Y-97862481D01*
X74202481Y-97981015D01*
X74063100Y-98074147D01*
X73908228Y-98138297D01*
X73743816Y-98171000D01*
X73576184Y-98171000D01*
X73411772Y-98138297D01*
X73256900Y-98074147D01*
X73117519Y-97981015D01*
X72998985Y-97862481D01*
X72905853Y-97723100D01*
X72841703Y-97568228D01*
X72809000Y-97403816D01*
X72809000Y-97236184D01*
X72841703Y-97071772D01*
X72905853Y-96916900D01*
X72998985Y-96777519D01*
X73117519Y-96658985D01*
X73256900Y-96565853D01*
X73411772Y-96501703D01*
X73576184Y-96469000D01*
X73743816Y-96469000D01*
X73908228Y-96501703D01*
G37*
G36*
X88513228Y-95741703D02*
G01*
X88668100Y-95805853D01*
X88807481Y-95898985D01*
X88926015Y-96017519D01*
X89019147Y-96156900D01*
X89083297Y-96311772D01*
X89116000Y-96476184D01*
X89116000Y-96643816D01*
X89083297Y-96808228D01*
X89019147Y-96963100D01*
X88926015Y-97102481D01*
X88807481Y-97221015D01*
X88668100Y-97314147D01*
X88513228Y-97378297D01*
X88348816Y-97411000D01*
X88181184Y-97411000D01*
X88016772Y-97378297D01*
X87861900Y-97314147D01*
X87722519Y-97221015D01*
X87603985Y-97102481D01*
X87510853Y-96963100D01*
X87446703Y-96808228D01*
X87414000Y-96643816D01*
X87414000Y-96476184D01*
X87446703Y-96311772D01*
X87510853Y-96156900D01*
X87603985Y-96017519D01*
X87722519Y-95898985D01*
X87861900Y-95805853D01*
X88016772Y-95741703D01*
X88181184Y-95709000D01*
X88348816Y-95709000D01*
X88513228Y-95741703D01*
G37*
G36*
X71068228Y-95116703D02*
G01*
X71223100Y-95180853D01*
X71362481Y-95273985D01*
X71481015Y-95392519D01*
X71574147Y-95531900D01*
X71638297Y-95686772D01*
X71671000Y-95851184D01*
X71671000Y-96018816D01*
X71638297Y-96183228D01*
X71574147Y-96338100D01*
X71481015Y-96477481D01*
X71362481Y-96596015D01*
X71223100Y-96689147D01*
X71068228Y-96753297D01*
X70903816Y-96786000D01*
X70736184Y-96786000D01*
X70571772Y-96753297D01*
X70416900Y-96689147D01*
X70277519Y-96596015D01*
X70158985Y-96477481D01*
X70065853Y-96338100D01*
X70001703Y-96183228D01*
X69969000Y-96018816D01*
X69969000Y-95851184D01*
X70001703Y-95686772D01*
X70065853Y-95531900D01*
X70158985Y-95392519D01*
X70277519Y-95273985D01*
X70416900Y-95180853D01*
X70571772Y-95116703D01*
X70736184Y-95084000D01*
X70903816Y-95084000D01*
X71068228Y-95116703D01*
G37*
G36*
X81528228Y-94511703D02*
G01*
X81683100Y-94575853D01*
X81822481Y-94668985D01*
X81941015Y-94787519D01*
X82034147Y-94926900D01*
X82098297Y-95081772D01*
X82131000Y-95246184D01*
X82131000Y-95413816D01*
X82098297Y-95578228D01*
X82034147Y-95733100D01*
X81941015Y-95872481D01*
X81822481Y-95991015D01*
X81683100Y-96084147D01*
X81528228Y-96148297D01*
X81363816Y-96181000D01*
X81196184Y-96181000D01*
X81031772Y-96148297D01*
X80876900Y-96084147D01*
X80737519Y-95991015D01*
X80618985Y-95872481D01*
X80525853Y-95733100D01*
X80461703Y-95578228D01*
X80429000Y-95413816D01*
X80429000Y-95246184D01*
X80461703Y-95081772D01*
X80525853Y-94926900D01*
X80618985Y-94787519D01*
X80737519Y-94668985D01*
X80876900Y-94575853D01*
X81031772Y-94511703D01*
X81196184Y-94479000D01*
X81363816Y-94479000D01*
X81528228Y-94511703D01*
G37*
G36*
X73908228Y-93731703D02*
G01*
X74063100Y-93795853D01*
X74202481Y-93888985D01*
X74321015Y-94007519D01*
X74414147Y-94146900D01*
X74478297Y-94301772D01*
X74511000Y-94466184D01*
X74511000Y-94633816D01*
X74478297Y-94798228D01*
X74414147Y-94953100D01*
X74321015Y-95092481D01*
X74202481Y-95211015D01*
X74063100Y-95304147D01*
X73908228Y-95368297D01*
X73743816Y-95401000D01*
X73576184Y-95401000D01*
X73411772Y-95368297D01*
X73256900Y-95304147D01*
X73117519Y-95211015D01*
X72998985Y-95092481D01*
X72905853Y-94953100D01*
X72841703Y-94798228D01*
X72809000Y-94633816D01*
X72809000Y-94466184D01*
X72841703Y-94301772D01*
X72905853Y-94146900D01*
X72998985Y-94007519D01*
X73117519Y-93888985D01*
X73256900Y-93795853D01*
X73411772Y-93731703D01*
X73576184Y-93699000D01*
X73743816Y-93699000D01*
X73908228Y-93731703D01*
G37*
G36*
X234636000Y-95166000D02*
G01*
X230184000Y-95166000D01*
X230184000Y-93614000D01*
X234636000Y-93614000D01*
X234636000Y-95166000D01*
G37*
G36*
X225746000Y-95166000D02*
G01*
X221294000Y-95166000D01*
X221294000Y-93614000D01*
X225746000Y-93614000D01*
X225746000Y-95166000D01*
G37*
G36*
X199076000Y-95166000D02*
G01*
X194624000Y-95166000D01*
X194624000Y-93614000D01*
X199076000Y-93614000D01*
X199076000Y-95166000D01*
G37*
G36*
X127956000Y-95166000D02*
G01*
X123504000Y-95166000D01*
X123504000Y-93614000D01*
X127956000Y-93614000D01*
X127956000Y-95166000D01*
G37*
G36*
X119066000Y-95166000D02*
G01*
X114614000Y-95166000D01*
X114614000Y-93614000D01*
X119066000Y-93614000D01*
X119066000Y-95166000D01*
G37*
G36*
X110176000Y-95166000D02*
G01*
X105724000Y-95166000D01*
X105724000Y-93614000D01*
X110176000Y-93614000D01*
X110176000Y-95166000D01*
G37*
G36*
X101286000Y-95166000D02*
G01*
X96834000Y-95166000D01*
X96834000Y-93614000D01*
X101286000Y-93614000D01*
X101286000Y-95166000D01*
G37*
G36*
X190186000Y-95166000D02*
G01*
X185734000Y-95166000D01*
X185734000Y-93614000D01*
X190186000Y-93614000D01*
X190186000Y-95166000D01*
G37*
G36*
X207966000Y-95166000D02*
G01*
X203514000Y-95166000D01*
X203514000Y-93614000D01*
X207966000Y-93614000D01*
X207966000Y-95166000D01*
G37*
G36*
X181296000Y-95166000D02*
G01*
X176844000Y-95166000D01*
X176844000Y-93614000D01*
X181296000Y-93614000D01*
X181296000Y-95166000D01*
G37*
G36*
X216856000Y-95166000D02*
G01*
X212404000Y-95166000D01*
X212404000Y-93614000D01*
X216856000Y-93614000D01*
X216856000Y-95166000D01*
G37*
G36*
X145736000Y-95166000D02*
G01*
X141284000Y-95166000D01*
X141284000Y-93614000D01*
X145736000Y-93614000D01*
X145736000Y-95166000D01*
G37*
G36*
X154626000Y-95166000D02*
G01*
X150174000Y-95166000D01*
X150174000Y-93614000D01*
X154626000Y-93614000D01*
X154626000Y-95166000D01*
G37*
G36*
X172406000Y-95166000D02*
G01*
X167954000Y-95166000D01*
X167954000Y-93614000D01*
X172406000Y-93614000D01*
X172406000Y-95166000D01*
G37*
G36*
X136846000Y-95166000D02*
G01*
X132394000Y-95166000D01*
X132394000Y-93614000D01*
X136846000Y-93614000D01*
X136846000Y-95166000D01*
G37*
G36*
X163516000Y-95166000D02*
G01*
X159064000Y-95166000D01*
X159064000Y-93614000D01*
X163516000Y-93614000D01*
X163516000Y-95166000D01*
G37*
G36*
X71068228Y-92346703D02*
G01*
X71223100Y-92410853D01*
X71362481Y-92503985D01*
X71481015Y-92622519D01*
X71574147Y-92761900D01*
X71638297Y-92916772D01*
X71671000Y-93081184D01*
X71671000Y-93248816D01*
X71638297Y-93413228D01*
X71574147Y-93568100D01*
X71481015Y-93707481D01*
X71362481Y-93826015D01*
X71223100Y-93919147D01*
X71068228Y-93983297D01*
X70903816Y-94016000D01*
X70736184Y-94016000D01*
X70571772Y-93983297D01*
X70416900Y-93919147D01*
X70277519Y-93826015D01*
X70158985Y-93707481D01*
X70065853Y-93568100D01*
X70001703Y-93413228D01*
X69969000Y-93248816D01*
X69969000Y-93081184D01*
X70001703Y-92916772D01*
X70065853Y-92761900D01*
X70158985Y-92622519D01*
X70277519Y-92503985D01*
X70416900Y-92410853D01*
X70571772Y-92346703D01*
X70736184Y-92314000D01*
X70903816Y-92314000D01*
X71068228Y-92346703D01*
G37*
G36*
X73908228Y-90961703D02*
G01*
X74063100Y-91025853D01*
X74202481Y-91118985D01*
X74321015Y-91237519D01*
X74414147Y-91376900D01*
X74478297Y-91531772D01*
X74511000Y-91696184D01*
X74511000Y-91863816D01*
X74478297Y-92028228D01*
X74414147Y-92183100D01*
X74321015Y-92322481D01*
X74202481Y-92441015D01*
X74063100Y-92534147D01*
X73908228Y-92598297D01*
X73743816Y-92631000D01*
X73576184Y-92631000D01*
X73411772Y-92598297D01*
X73256900Y-92534147D01*
X73117519Y-92441015D01*
X72998985Y-92322481D01*
X72905853Y-92183100D01*
X72841703Y-92028228D01*
X72809000Y-91863816D01*
X72809000Y-91696184D01*
X72841703Y-91531772D01*
X72905853Y-91376900D01*
X72998985Y-91237519D01*
X73117519Y-91118985D01*
X73256900Y-91025853D01*
X73411772Y-90961703D01*
X73576184Y-90929000D01*
X73743816Y-90929000D01*
X73908228Y-90961703D01*
G37*
G36*
X71068228Y-89576703D02*
G01*
X71223100Y-89640853D01*
X71362481Y-89733985D01*
X71481015Y-89852519D01*
X71574147Y-89991900D01*
X71638297Y-90146772D01*
X71671000Y-90311184D01*
X71671000Y-90478816D01*
X71638297Y-90643228D01*
X71574147Y-90798100D01*
X71481015Y-90937481D01*
X71362481Y-91056015D01*
X71223100Y-91149147D01*
X71068228Y-91213297D01*
X70903816Y-91246000D01*
X70736184Y-91246000D01*
X70571772Y-91213297D01*
X70416900Y-91149147D01*
X70277519Y-91056015D01*
X70158985Y-90937481D01*
X70065853Y-90798100D01*
X70001703Y-90643228D01*
X69969000Y-90478816D01*
X69969000Y-90311184D01*
X70001703Y-90146772D01*
X70065853Y-89991900D01*
X70158985Y-89852519D01*
X70277519Y-89733985D01*
X70416900Y-89640853D01*
X70571772Y-89576703D01*
X70736184Y-89544000D01*
X70903816Y-89544000D01*
X71068228Y-89576703D01*
G37*
G36*
X73908228Y-88191703D02*
G01*
X74063100Y-88255853D01*
X74202481Y-88348985D01*
X74321015Y-88467519D01*
X74414147Y-88606900D01*
X74478297Y-88761772D01*
X74511000Y-88926184D01*
X74511000Y-89093816D01*
X74478297Y-89258228D01*
X74414147Y-89413100D01*
X74321015Y-89552481D01*
X74202481Y-89671015D01*
X74063100Y-89764147D01*
X73908228Y-89828297D01*
X73743816Y-89861000D01*
X73576184Y-89861000D01*
X73411772Y-89828297D01*
X73256900Y-89764147D01*
X73117519Y-89671015D01*
X72998985Y-89552481D01*
X72905853Y-89413100D01*
X72841703Y-89258228D01*
X72809000Y-89093816D01*
X72809000Y-88926184D01*
X72841703Y-88761772D01*
X72905853Y-88606900D01*
X72998985Y-88467519D01*
X73117519Y-88348985D01*
X73256900Y-88255853D01*
X73411772Y-88191703D01*
X73576184Y-88159000D01*
X73743816Y-88159000D01*
X73908228Y-88191703D01*
G37*
G36*
X225746000Y-89266000D02*
G01*
X221294000Y-89266000D01*
X221294000Y-87714000D01*
X225746000Y-87714000D01*
X225746000Y-89266000D01*
G37*
G36*
X234636000Y-89266000D02*
G01*
X230184000Y-89266000D01*
X230184000Y-87714000D01*
X234636000Y-87714000D01*
X234636000Y-89266000D01*
G37*
G36*
X190186000Y-89266000D02*
G01*
X185734000Y-89266000D01*
X185734000Y-87714000D01*
X190186000Y-87714000D01*
X190186000Y-89266000D01*
G37*
G36*
X172406000Y-89266000D02*
G01*
X167954000Y-89266000D01*
X167954000Y-87714000D01*
X172406000Y-87714000D01*
X172406000Y-89266000D01*
G37*
G36*
X163516000Y-89266000D02*
G01*
X159064000Y-89266000D01*
X159064000Y-87714000D01*
X163516000Y-87714000D01*
X163516000Y-89266000D01*
G37*
G36*
X154626000Y-89266000D02*
G01*
X150174000Y-89266000D01*
X150174000Y-87714000D01*
X154626000Y-87714000D01*
X154626000Y-89266000D01*
G37*
G36*
X145736000Y-89266000D02*
G01*
X141284000Y-89266000D01*
X141284000Y-87714000D01*
X145736000Y-87714000D01*
X145736000Y-89266000D01*
G37*
G36*
X136846000Y-89266000D02*
G01*
X132394000Y-89266000D01*
X132394000Y-87714000D01*
X136846000Y-87714000D01*
X136846000Y-89266000D01*
G37*
G36*
X181296000Y-89266000D02*
G01*
X176844000Y-89266000D01*
X176844000Y-87714000D01*
X181296000Y-87714000D01*
X181296000Y-89266000D01*
G37*
G36*
X216856000Y-89266000D02*
G01*
X212404000Y-89266000D01*
X212404000Y-87714000D01*
X216856000Y-87714000D01*
X216856000Y-89266000D01*
G37*
G36*
X127956000Y-89266000D02*
G01*
X123504000Y-89266000D01*
X123504000Y-87714000D01*
X127956000Y-87714000D01*
X127956000Y-89266000D01*
G37*
G36*
X101286000Y-89266000D02*
G01*
X96834000Y-89266000D01*
X96834000Y-87714000D01*
X101286000Y-87714000D01*
X101286000Y-89266000D01*
G37*
G36*
X110176000Y-89266000D02*
G01*
X105724000Y-89266000D01*
X105724000Y-87714000D01*
X110176000Y-87714000D01*
X110176000Y-89266000D01*
G37*
G36*
X119066000Y-89266000D02*
G01*
X114614000Y-89266000D01*
X114614000Y-87714000D01*
X119066000Y-87714000D01*
X119066000Y-89266000D01*
G37*
G36*
X199076000Y-89266000D02*
G01*
X194624000Y-89266000D01*
X194624000Y-87714000D01*
X199076000Y-87714000D01*
X199076000Y-89266000D01*
G37*
G36*
X207966000Y-89266000D02*
G01*
X203514000Y-89266000D01*
X203514000Y-87714000D01*
X207966000Y-87714000D01*
X207966000Y-89266000D01*
G37*
G36*
X71068228Y-86806703D02*
G01*
X71223100Y-86870853D01*
X71362481Y-86963985D01*
X71481015Y-87082519D01*
X71574147Y-87221900D01*
X71638297Y-87376772D01*
X71671000Y-87541184D01*
X71671000Y-87708816D01*
X71638297Y-87873228D01*
X71574147Y-88028100D01*
X71481015Y-88167481D01*
X71362481Y-88286015D01*
X71223100Y-88379147D01*
X71068228Y-88443297D01*
X70903816Y-88476000D01*
X70736184Y-88476000D01*
X70571772Y-88443297D01*
X70416900Y-88379147D01*
X70277519Y-88286015D01*
X70158985Y-88167481D01*
X70065853Y-88028100D01*
X70001703Y-87873228D01*
X69969000Y-87708816D01*
X69969000Y-87541184D01*
X70001703Y-87376772D01*
X70065853Y-87221900D01*
X70158985Y-87082519D01*
X70277519Y-86963985D01*
X70416900Y-86870853D01*
X70571772Y-86806703D01*
X70736184Y-86774000D01*
X70903816Y-86774000D01*
X71068228Y-86806703D01*
G37*
G36*
X73908228Y-85421703D02*
G01*
X74063100Y-85485853D01*
X74202481Y-85578985D01*
X74321015Y-85697519D01*
X74414147Y-85836900D01*
X74478297Y-85991772D01*
X74511000Y-86156184D01*
X74511000Y-86323816D01*
X74478297Y-86488228D01*
X74414147Y-86643100D01*
X74321015Y-86782481D01*
X74202481Y-86901015D01*
X74063100Y-86994147D01*
X73908228Y-87058297D01*
X73743816Y-87091000D01*
X73576184Y-87091000D01*
X73411772Y-87058297D01*
X73256900Y-86994147D01*
X73117519Y-86901015D01*
X72998985Y-86782481D01*
X72905853Y-86643100D01*
X72841703Y-86488228D01*
X72809000Y-86323816D01*
X72809000Y-86156184D01*
X72841703Y-85991772D01*
X72905853Y-85836900D01*
X72998985Y-85697519D01*
X73117519Y-85578985D01*
X73256900Y-85485853D01*
X73411772Y-85421703D01*
X73576184Y-85389000D01*
X73743816Y-85389000D01*
X73908228Y-85421703D01*
G37*
G36*
X71068228Y-84036703D02*
G01*
X71223100Y-84100853D01*
X71362481Y-84193985D01*
X71481015Y-84312519D01*
X71574147Y-84451900D01*
X71638297Y-84606772D01*
X71671000Y-84771184D01*
X71671000Y-84938816D01*
X71638297Y-85103228D01*
X71574147Y-85258100D01*
X71481015Y-85397481D01*
X71362481Y-85516015D01*
X71223100Y-85609147D01*
X71068228Y-85673297D01*
X70903816Y-85706000D01*
X70736184Y-85706000D01*
X70571772Y-85673297D01*
X70416900Y-85609147D01*
X70277519Y-85516015D01*
X70158985Y-85397481D01*
X70065853Y-85258100D01*
X70001703Y-85103228D01*
X69969000Y-84938816D01*
X69969000Y-84771184D01*
X70001703Y-84606772D01*
X70065853Y-84451900D01*
X70158985Y-84312519D01*
X70277519Y-84193985D01*
X70416900Y-84100853D01*
X70571772Y-84036703D01*
X70736184Y-84004000D01*
X70903816Y-84004000D01*
X71068228Y-84036703D01*
G37*
G36*
X73908228Y-82651703D02*
G01*
X74063100Y-82715853D01*
X74202481Y-82808985D01*
X74321015Y-82927519D01*
X74414147Y-83066900D01*
X74478297Y-83221772D01*
X74511000Y-83386184D01*
X74511000Y-83553816D01*
X74478297Y-83718228D01*
X74414147Y-83873100D01*
X74321015Y-84012481D01*
X74202481Y-84131015D01*
X74063100Y-84224147D01*
X73908228Y-84288297D01*
X73743816Y-84321000D01*
X73576184Y-84321000D01*
X73411772Y-84288297D01*
X73256900Y-84224147D01*
X73117519Y-84131015D01*
X72998985Y-84012481D01*
X72905853Y-83873100D01*
X72841703Y-83718228D01*
X72809000Y-83553816D01*
X72809000Y-83386184D01*
X72841703Y-83221772D01*
X72905853Y-83066900D01*
X72998985Y-82927519D01*
X73117519Y-82808985D01*
X73256900Y-82715853D01*
X73411772Y-82651703D01*
X73576184Y-82619000D01*
X73743816Y-82619000D01*
X73908228Y-82651703D01*
G37*
G36*
X71068228Y-81266703D02*
G01*
X71223100Y-81330853D01*
X71362481Y-81423985D01*
X71481015Y-81542519D01*
X71574147Y-81681900D01*
X71638297Y-81836772D01*
X71671000Y-82001184D01*
X71671000Y-82168816D01*
X71638297Y-82333228D01*
X71574147Y-82488100D01*
X71481015Y-82627481D01*
X71362481Y-82746015D01*
X71223100Y-82839147D01*
X71068228Y-82903297D01*
X70903816Y-82936000D01*
X70736184Y-82936000D01*
X70571772Y-82903297D01*
X70416900Y-82839147D01*
X70277519Y-82746015D01*
X70158985Y-82627481D01*
X70065853Y-82488100D01*
X70001703Y-82333228D01*
X69969000Y-82168816D01*
X69969000Y-82001184D01*
X70001703Y-81836772D01*
X70065853Y-81681900D01*
X70158985Y-81542519D01*
X70277519Y-81423985D01*
X70416900Y-81330853D01*
X70571772Y-81266703D01*
X70736184Y-81234000D01*
X70903816Y-81234000D01*
X71068228Y-81266703D01*
G37*
G36*
X82683604Y-81373347D02*
G01*
X82720144Y-81384432D01*
X82753821Y-81402433D01*
X82783341Y-81426659D01*
X82807567Y-81456179D01*
X82825568Y-81489856D01*
X82836653Y-81526396D01*
X82841000Y-81570538D01*
X82841000Y-82519462D01*
X82836653Y-82563604D01*
X82825568Y-82600144D01*
X82807567Y-82633821D01*
X82783341Y-82663341D01*
X82753821Y-82687567D01*
X82720144Y-82705568D01*
X82683604Y-82716653D01*
X82639462Y-82721000D01*
X81190538Y-82721000D01*
X81146396Y-82716653D01*
X81109856Y-82705568D01*
X81076179Y-82687567D01*
X81046659Y-82663341D01*
X81022433Y-82633821D01*
X81004432Y-82600144D01*
X80993347Y-82563604D01*
X80989000Y-82519462D01*
X80989000Y-81570538D01*
X80993347Y-81526396D01*
X81004432Y-81489856D01*
X81022433Y-81456179D01*
X81046659Y-81426659D01*
X81076179Y-81402433D01*
X81109856Y-81384432D01*
X81146396Y-81373347D01*
X81190538Y-81369000D01*
X82639462Y-81369000D01*
X82683604Y-81373347D01*
G37*
G36*
X108227395Y-80365546D02*
G01*
X108400466Y-80437234D01*
X108477818Y-80488919D01*
X108556227Y-80541310D01*
X108688690Y-80673773D01*
X108688691Y-80673775D01*
X108792766Y-80829534D01*
X108864454Y-81002605D01*
X108901000Y-81186333D01*
X108901000Y-81373667D01*
X108864454Y-81557395D01*
X108792766Y-81730466D01*
X108792765Y-81730467D01*
X108688690Y-81886227D01*
X108556227Y-82018690D01*
X108477818Y-82071081D01*
X108400466Y-82122766D01*
X108227395Y-82194454D01*
X108043667Y-82231000D01*
X107856333Y-82231000D01*
X107672605Y-82194454D01*
X107499534Y-82122766D01*
X107422182Y-82071081D01*
X107343773Y-82018690D01*
X107211310Y-81886227D01*
X107107235Y-81730467D01*
X107107234Y-81730466D01*
X107035546Y-81557395D01*
X106999000Y-81373667D01*
X106999000Y-81186333D01*
X107035546Y-81002605D01*
X107107234Y-80829534D01*
X107211309Y-80673775D01*
X107211310Y-80673773D01*
X107343773Y-80541310D01*
X107422182Y-80488919D01*
X107499534Y-80437234D01*
X107672605Y-80365546D01*
X107856333Y-80329000D01*
X108043667Y-80329000D01*
X108227395Y-80365546D01*
G37*
G36*
X152677395Y-80365546D02*
G01*
X152850466Y-80437234D01*
X152927818Y-80488919D01*
X153006227Y-80541310D01*
X153138690Y-80673773D01*
X153138691Y-80673775D01*
X153242766Y-80829534D01*
X153314454Y-81002605D01*
X153351000Y-81186333D01*
X153351000Y-81373667D01*
X153314454Y-81557395D01*
X153242766Y-81730466D01*
X153242765Y-81730467D01*
X153138690Y-81886227D01*
X153006227Y-82018690D01*
X152927818Y-82071081D01*
X152850466Y-82122766D01*
X152677395Y-82194454D01*
X152493667Y-82231000D01*
X152306333Y-82231000D01*
X152122605Y-82194454D01*
X151949534Y-82122766D01*
X151872182Y-82071081D01*
X151793773Y-82018690D01*
X151661310Y-81886227D01*
X151557235Y-81730467D01*
X151557234Y-81730466D01*
X151485546Y-81557395D01*
X151449000Y-81373667D01*
X151449000Y-81186333D01*
X151485546Y-81002605D01*
X151557234Y-80829534D01*
X151661309Y-80673775D01*
X151661310Y-80673773D01*
X151793773Y-80541310D01*
X151872182Y-80488919D01*
X151949534Y-80437234D01*
X152122605Y-80365546D01*
X152306333Y-80329000D01*
X152493667Y-80329000D01*
X152677395Y-80365546D01*
G37*
G36*
X143787395Y-80365546D02*
G01*
X143960466Y-80437234D01*
X144037818Y-80488919D01*
X144116227Y-80541310D01*
X144248690Y-80673773D01*
X144248691Y-80673775D01*
X144352766Y-80829534D01*
X144424454Y-81002605D01*
X144461000Y-81186333D01*
X144461000Y-81373667D01*
X144424454Y-81557395D01*
X144352766Y-81730466D01*
X144352765Y-81730467D01*
X144248690Y-81886227D01*
X144116227Y-82018690D01*
X144037818Y-82071081D01*
X143960466Y-82122766D01*
X143787395Y-82194454D01*
X143603667Y-82231000D01*
X143416333Y-82231000D01*
X143232605Y-82194454D01*
X143059534Y-82122766D01*
X142982182Y-82071081D01*
X142903773Y-82018690D01*
X142771310Y-81886227D01*
X142667235Y-81730467D01*
X142667234Y-81730466D01*
X142595546Y-81557395D01*
X142559000Y-81373667D01*
X142559000Y-81186333D01*
X142595546Y-81002605D01*
X142667234Y-80829534D01*
X142771309Y-80673775D01*
X142771310Y-80673773D01*
X142903773Y-80541310D01*
X142982182Y-80488919D01*
X143059534Y-80437234D01*
X143232605Y-80365546D01*
X143416333Y-80329000D01*
X143603667Y-80329000D01*
X143787395Y-80365546D01*
G37*
G36*
X134897395Y-80365546D02*
G01*
X135070466Y-80437234D01*
X135147818Y-80488919D01*
X135226227Y-80541310D01*
X135358690Y-80673773D01*
X135358691Y-80673775D01*
X135462766Y-80829534D01*
X135534454Y-81002605D01*
X135571000Y-81186333D01*
X135571000Y-81373667D01*
X135534454Y-81557395D01*
X135462766Y-81730466D01*
X135462765Y-81730467D01*
X135358690Y-81886227D01*
X135226227Y-82018690D01*
X135147818Y-82071081D01*
X135070466Y-82122766D01*
X134897395Y-82194454D01*
X134713667Y-82231000D01*
X134526333Y-82231000D01*
X134342605Y-82194454D01*
X134169534Y-82122766D01*
X134092182Y-82071081D01*
X134013773Y-82018690D01*
X133881310Y-81886227D01*
X133777235Y-81730467D01*
X133777234Y-81730466D01*
X133705546Y-81557395D01*
X133669000Y-81373667D01*
X133669000Y-81186333D01*
X133705546Y-81002605D01*
X133777234Y-80829534D01*
X133881309Y-80673775D01*
X133881310Y-80673773D01*
X134013773Y-80541310D01*
X134092182Y-80488919D01*
X134169534Y-80437234D01*
X134342605Y-80365546D01*
X134526333Y-80329000D01*
X134713667Y-80329000D01*
X134897395Y-80365546D01*
G37*
G36*
X126007395Y-80365546D02*
G01*
X126180466Y-80437234D01*
X126257818Y-80488919D01*
X126336227Y-80541310D01*
X126468690Y-80673773D01*
X126468691Y-80673775D01*
X126572766Y-80829534D01*
X126644454Y-81002605D01*
X126681000Y-81186333D01*
X126681000Y-81373667D01*
X126644454Y-81557395D01*
X126572766Y-81730466D01*
X126572765Y-81730467D01*
X126468690Y-81886227D01*
X126336227Y-82018690D01*
X126257818Y-82071081D01*
X126180466Y-82122766D01*
X126007395Y-82194454D01*
X125823667Y-82231000D01*
X125636333Y-82231000D01*
X125452605Y-82194454D01*
X125279534Y-82122766D01*
X125202182Y-82071081D01*
X125123773Y-82018690D01*
X124991310Y-81886227D01*
X124887235Y-81730467D01*
X124887234Y-81730466D01*
X124815546Y-81557395D01*
X124779000Y-81373667D01*
X124779000Y-81186333D01*
X124815546Y-81002605D01*
X124887234Y-80829534D01*
X124991309Y-80673775D01*
X124991310Y-80673773D01*
X125123773Y-80541310D01*
X125202182Y-80488919D01*
X125279534Y-80437234D01*
X125452605Y-80365546D01*
X125636333Y-80329000D01*
X125823667Y-80329000D01*
X126007395Y-80365546D01*
G37*
G36*
X117117395Y-80365546D02*
G01*
X117290466Y-80437234D01*
X117367818Y-80488919D01*
X117446227Y-80541310D01*
X117578690Y-80673773D01*
X117578691Y-80673775D01*
X117682766Y-80829534D01*
X117754454Y-81002605D01*
X117791000Y-81186333D01*
X117791000Y-81373667D01*
X117754454Y-81557395D01*
X117682766Y-81730466D01*
X117682765Y-81730467D01*
X117578690Y-81886227D01*
X117446227Y-82018690D01*
X117367818Y-82071081D01*
X117290466Y-82122766D01*
X117117395Y-82194454D01*
X116933667Y-82231000D01*
X116746333Y-82231000D01*
X116562605Y-82194454D01*
X116389534Y-82122766D01*
X116312182Y-82071081D01*
X116233773Y-82018690D01*
X116101310Y-81886227D01*
X115997235Y-81730467D01*
X115997234Y-81730466D01*
X115925546Y-81557395D01*
X115889000Y-81373667D01*
X115889000Y-81186333D01*
X115925546Y-81002605D01*
X115997234Y-80829534D01*
X116101309Y-80673775D01*
X116101310Y-80673773D01*
X116233773Y-80541310D01*
X116312182Y-80488919D01*
X116389534Y-80437234D01*
X116562605Y-80365546D01*
X116746333Y-80329000D01*
X116933667Y-80329000D01*
X117117395Y-80365546D01*
G37*
G36*
X99337395Y-80365546D02*
G01*
X99510466Y-80437234D01*
X99587818Y-80488919D01*
X99666227Y-80541310D01*
X99798690Y-80673773D01*
X99798691Y-80673775D01*
X99902766Y-80829534D01*
X99974454Y-81002605D01*
X100011000Y-81186333D01*
X100011000Y-81373667D01*
X99974454Y-81557395D01*
X99902766Y-81730466D01*
X99902765Y-81730467D01*
X99798690Y-81886227D01*
X99666227Y-82018690D01*
X99587818Y-82071081D01*
X99510466Y-82122766D01*
X99337395Y-82194454D01*
X99153667Y-82231000D01*
X98966333Y-82231000D01*
X98782605Y-82194454D01*
X98609534Y-82122766D01*
X98532182Y-82071081D01*
X98453773Y-82018690D01*
X98321310Y-81886227D01*
X98217235Y-81730467D01*
X98217234Y-81730466D01*
X98145546Y-81557395D01*
X98109000Y-81373667D01*
X98109000Y-81186333D01*
X98145546Y-81002605D01*
X98217234Y-80829534D01*
X98321309Y-80673775D01*
X98321310Y-80673773D01*
X98453773Y-80541310D01*
X98532182Y-80488919D01*
X98609534Y-80437234D01*
X98782605Y-80365546D01*
X98966333Y-80329000D01*
X99153667Y-80329000D01*
X99337395Y-80365546D01*
G37*
G36*
X170457395Y-80365546D02*
G01*
X170630466Y-80437234D01*
X170707818Y-80488919D01*
X170786227Y-80541310D01*
X170918690Y-80673773D01*
X170918691Y-80673775D01*
X171022766Y-80829534D01*
X171094454Y-81002605D01*
X171131000Y-81186333D01*
X171131000Y-81373667D01*
X171094454Y-81557395D01*
X171022766Y-81730466D01*
X171022765Y-81730467D01*
X170918690Y-81886227D01*
X170786227Y-82018690D01*
X170707818Y-82071081D01*
X170630466Y-82122766D01*
X170457395Y-82194454D01*
X170273667Y-82231000D01*
X170086333Y-82231000D01*
X169902605Y-82194454D01*
X169729534Y-82122766D01*
X169652182Y-82071081D01*
X169573773Y-82018690D01*
X169441310Y-81886227D01*
X169337235Y-81730467D01*
X169337234Y-81730466D01*
X169265546Y-81557395D01*
X169229000Y-81373667D01*
X169229000Y-81186333D01*
X169265546Y-81002605D01*
X169337234Y-80829534D01*
X169441309Y-80673775D01*
X169441310Y-80673773D01*
X169573773Y-80541310D01*
X169652182Y-80488919D01*
X169729534Y-80437234D01*
X169902605Y-80365546D01*
X170086333Y-80329000D01*
X170273667Y-80329000D01*
X170457395Y-80365546D01*
G37*
G36*
X188237395Y-80365546D02*
G01*
X188410466Y-80437234D01*
X188487818Y-80488919D01*
X188566227Y-80541310D01*
X188698690Y-80673773D01*
X188698691Y-80673775D01*
X188802766Y-80829534D01*
X188874454Y-81002605D01*
X188911000Y-81186333D01*
X188911000Y-81373667D01*
X188874454Y-81557395D01*
X188802766Y-81730466D01*
X188802765Y-81730467D01*
X188698690Y-81886227D01*
X188566227Y-82018690D01*
X188487818Y-82071081D01*
X188410466Y-82122766D01*
X188237395Y-82194454D01*
X188053667Y-82231000D01*
X187866333Y-82231000D01*
X187682605Y-82194454D01*
X187509534Y-82122766D01*
X187432182Y-82071081D01*
X187353773Y-82018690D01*
X187221310Y-81886227D01*
X187117235Y-81730467D01*
X187117234Y-81730466D01*
X187045546Y-81557395D01*
X187009000Y-81373667D01*
X187009000Y-81186333D01*
X187045546Y-81002605D01*
X187117234Y-80829534D01*
X187221309Y-80673775D01*
X187221310Y-80673773D01*
X187353773Y-80541310D01*
X187432182Y-80488919D01*
X187509534Y-80437234D01*
X187682605Y-80365546D01*
X187866333Y-80329000D01*
X188053667Y-80329000D01*
X188237395Y-80365546D01*
G37*
G36*
X197127395Y-80365546D02*
G01*
X197300466Y-80437234D01*
X197377818Y-80488919D01*
X197456227Y-80541310D01*
X197588690Y-80673773D01*
X197588691Y-80673775D01*
X197692766Y-80829534D01*
X197764454Y-81002605D01*
X197801000Y-81186333D01*
X197801000Y-81373667D01*
X197764454Y-81557395D01*
X197692766Y-81730466D01*
X197692765Y-81730467D01*
X197588690Y-81886227D01*
X197456227Y-82018690D01*
X197377818Y-82071081D01*
X197300466Y-82122766D01*
X197127395Y-82194454D01*
X196943667Y-82231000D01*
X196756333Y-82231000D01*
X196572605Y-82194454D01*
X196399534Y-82122766D01*
X196322182Y-82071081D01*
X196243773Y-82018690D01*
X196111310Y-81886227D01*
X196007235Y-81730467D01*
X196007234Y-81730466D01*
X195935546Y-81557395D01*
X195899000Y-81373667D01*
X195899000Y-81186333D01*
X195935546Y-81002605D01*
X196007234Y-80829534D01*
X196111309Y-80673775D01*
X196111310Y-80673773D01*
X196243773Y-80541310D01*
X196322182Y-80488919D01*
X196399534Y-80437234D01*
X196572605Y-80365546D01*
X196756333Y-80329000D01*
X196943667Y-80329000D01*
X197127395Y-80365546D01*
G37*
G36*
X206017395Y-80365546D02*
G01*
X206190466Y-80437234D01*
X206267818Y-80488919D01*
X206346227Y-80541310D01*
X206478690Y-80673773D01*
X206478691Y-80673775D01*
X206582766Y-80829534D01*
X206654454Y-81002605D01*
X206691000Y-81186333D01*
X206691000Y-81373667D01*
X206654454Y-81557395D01*
X206582766Y-81730466D01*
X206582765Y-81730467D01*
X206478690Y-81886227D01*
X206346227Y-82018690D01*
X206267818Y-82071081D01*
X206190466Y-82122766D01*
X206017395Y-82194454D01*
X205833667Y-82231000D01*
X205646333Y-82231000D01*
X205462605Y-82194454D01*
X205289534Y-82122766D01*
X205212182Y-82071081D01*
X205133773Y-82018690D01*
X205001310Y-81886227D01*
X204897235Y-81730467D01*
X204897234Y-81730466D01*
X204825546Y-81557395D01*
X204789000Y-81373667D01*
X204789000Y-81186333D01*
X204825546Y-81002605D01*
X204897234Y-80829534D01*
X205001309Y-80673775D01*
X205001310Y-80673773D01*
X205133773Y-80541310D01*
X205212182Y-80488919D01*
X205289534Y-80437234D01*
X205462605Y-80365546D01*
X205646333Y-80329000D01*
X205833667Y-80329000D01*
X206017395Y-80365546D01*
G37*
G36*
X214907395Y-80365546D02*
G01*
X215080466Y-80437234D01*
X215157818Y-80488919D01*
X215236227Y-80541310D01*
X215368690Y-80673773D01*
X215368691Y-80673775D01*
X215472766Y-80829534D01*
X215544454Y-81002605D01*
X215581000Y-81186333D01*
X215581000Y-81373667D01*
X215544454Y-81557395D01*
X215472766Y-81730466D01*
X215472765Y-81730467D01*
X215368690Y-81886227D01*
X215236227Y-82018690D01*
X215157818Y-82071081D01*
X215080466Y-82122766D01*
X214907395Y-82194454D01*
X214723667Y-82231000D01*
X214536333Y-82231000D01*
X214352605Y-82194454D01*
X214179534Y-82122766D01*
X214102182Y-82071081D01*
X214023773Y-82018690D01*
X213891310Y-81886227D01*
X213787235Y-81730467D01*
X213787234Y-81730466D01*
X213715546Y-81557395D01*
X213679000Y-81373667D01*
X213679000Y-81186333D01*
X213715546Y-81002605D01*
X213787234Y-80829534D01*
X213891309Y-80673775D01*
X213891310Y-80673773D01*
X214023773Y-80541310D01*
X214102182Y-80488919D01*
X214179534Y-80437234D01*
X214352605Y-80365546D01*
X214536333Y-80329000D01*
X214723667Y-80329000D01*
X214907395Y-80365546D01*
G37*
G36*
X161567395Y-80365546D02*
G01*
X161740466Y-80437234D01*
X161817818Y-80488919D01*
X161896227Y-80541310D01*
X162028690Y-80673773D01*
X162028691Y-80673775D01*
X162132766Y-80829534D01*
X162204454Y-81002605D01*
X162241000Y-81186333D01*
X162241000Y-81373667D01*
X162204454Y-81557395D01*
X162132766Y-81730466D01*
X162132765Y-81730467D01*
X162028690Y-81886227D01*
X161896227Y-82018690D01*
X161817818Y-82071081D01*
X161740466Y-82122766D01*
X161567395Y-82194454D01*
X161383667Y-82231000D01*
X161196333Y-82231000D01*
X161012605Y-82194454D01*
X160839534Y-82122766D01*
X160762182Y-82071081D01*
X160683773Y-82018690D01*
X160551310Y-81886227D01*
X160447235Y-81730467D01*
X160447234Y-81730466D01*
X160375546Y-81557395D01*
X160339000Y-81373667D01*
X160339000Y-81186333D01*
X160375546Y-81002605D01*
X160447234Y-80829534D01*
X160551309Y-80673775D01*
X160551310Y-80673773D01*
X160683773Y-80541310D01*
X160762182Y-80488919D01*
X160839534Y-80437234D01*
X161012605Y-80365546D01*
X161196333Y-80329000D01*
X161383667Y-80329000D01*
X161567395Y-80365546D01*
G37*
G36*
X86637395Y-80365546D02*
G01*
X86810466Y-80437234D01*
X86887818Y-80488919D01*
X86966227Y-80541310D01*
X87098690Y-80673773D01*
X87098691Y-80673775D01*
X87202766Y-80829534D01*
X87274454Y-81002605D01*
X87311000Y-81186333D01*
X87311000Y-81373667D01*
X87274454Y-81557395D01*
X87202766Y-81730466D01*
X87202765Y-81730467D01*
X87098690Y-81886227D01*
X86966227Y-82018690D01*
X86887818Y-82071081D01*
X86810466Y-82122766D01*
X86637395Y-82194454D01*
X86453667Y-82231000D01*
X86266333Y-82231000D01*
X86082605Y-82194454D01*
X85909534Y-82122766D01*
X85832182Y-82071081D01*
X85753773Y-82018690D01*
X85621310Y-81886227D01*
X85517235Y-81730467D01*
X85517234Y-81730466D01*
X85445546Y-81557395D01*
X85409000Y-81373667D01*
X85409000Y-81186333D01*
X85445546Y-81002605D01*
X85517234Y-80829534D01*
X85621309Y-80673775D01*
X85621310Y-80673773D01*
X85753773Y-80541310D01*
X85832182Y-80488919D01*
X85909534Y-80437234D01*
X86082605Y-80365546D01*
X86266333Y-80329000D01*
X86453667Y-80329000D01*
X86637395Y-80365546D01*
G37*
G36*
X223797395Y-80365546D02*
G01*
X223970466Y-80437234D01*
X224047818Y-80488919D01*
X224126227Y-80541310D01*
X224258690Y-80673773D01*
X224258691Y-80673775D01*
X224362766Y-80829534D01*
X224434454Y-81002605D01*
X224471000Y-81186333D01*
X224471000Y-81373667D01*
X224434454Y-81557395D01*
X224362766Y-81730466D01*
X224362765Y-81730467D01*
X224258690Y-81886227D01*
X224126227Y-82018690D01*
X224047818Y-82071081D01*
X223970466Y-82122766D01*
X223797395Y-82194454D01*
X223613667Y-82231000D01*
X223426333Y-82231000D01*
X223242605Y-82194454D01*
X223069534Y-82122766D01*
X222992182Y-82071081D01*
X222913773Y-82018690D01*
X222781310Y-81886227D01*
X222677235Y-81730467D01*
X222677234Y-81730466D01*
X222605546Y-81557395D01*
X222569000Y-81373667D01*
X222569000Y-81186333D01*
X222605546Y-81002605D01*
X222677234Y-80829534D01*
X222781309Y-80673775D01*
X222781310Y-80673773D01*
X222913773Y-80541310D01*
X222992182Y-80488919D01*
X223069534Y-80437234D01*
X223242605Y-80365546D01*
X223426333Y-80329000D01*
X223613667Y-80329000D01*
X223797395Y-80365546D01*
G37*
G36*
X232687395Y-80365546D02*
G01*
X232860466Y-80437234D01*
X232937818Y-80488919D01*
X233016227Y-80541310D01*
X233148690Y-80673773D01*
X233148691Y-80673775D01*
X233252766Y-80829534D01*
X233324454Y-81002605D01*
X233361000Y-81186333D01*
X233361000Y-81373667D01*
X233324454Y-81557395D01*
X233252766Y-81730466D01*
X233252765Y-81730467D01*
X233148690Y-81886227D01*
X233016227Y-82018690D01*
X232937818Y-82071081D01*
X232860466Y-82122766D01*
X232687395Y-82194454D01*
X232503667Y-82231000D01*
X232316333Y-82231000D01*
X232132605Y-82194454D01*
X231959534Y-82122766D01*
X231882182Y-82071081D01*
X231803773Y-82018690D01*
X231671310Y-81886227D01*
X231567235Y-81730467D01*
X231567234Y-81730466D01*
X231495546Y-81557395D01*
X231459000Y-81373667D01*
X231459000Y-81186333D01*
X231495546Y-81002605D01*
X231567234Y-80829534D01*
X231671309Y-80673775D01*
X231671310Y-80673773D01*
X231803773Y-80541310D01*
X231882182Y-80488919D01*
X231959534Y-80437234D01*
X232132605Y-80365546D01*
X232316333Y-80329000D01*
X232503667Y-80329000D01*
X232687395Y-80365546D01*
G37*
G36*
X179347395Y-80365546D02*
G01*
X179520466Y-80437234D01*
X179597818Y-80488919D01*
X179676227Y-80541310D01*
X179808690Y-80673773D01*
X179808691Y-80673775D01*
X179912766Y-80829534D01*
X179984454Y-81002605D01*
X180021000Y-81186333D01*
X180021000Y-81373667D01*
X179984454Y-81557395D01*
X179912766Y-81730466D01*
X179912765Y-81730467D01*
X179808690Y-81886227D01*
X179676227Y-82018690D01*
X179597818Y-82071081D01*
X179520466Y-82122766D01*
X179347395Y-82194454D01*
X179163667Y-82231000D01*
X178976333Y-82231000D01*
X178792605Y-82194454D01*
X178619534Y-82122766D01*
X178542182Y-82071081D01*
X178463773Y-82018690D01*
X178331310Y-81886227D01*
X178227235Y-81730467D01*
X178227234Y-81730466D01*
X178155546Y-81557395D01*
X178119000Y-81373667D01*
X178119000Y-81186333D01*
X178155546Y-81002605D01*
X178227234Y-80829534D01*
X178331309Y-80673775D01*
X178331310Y-80673773D01*
X178463773Y-80541310D01*
X178542182Y-80488919D01*
X178619534Y-80437234D01*
X178792605Y-80365546D01*
X178976333Y-80329000D01*
X179163667Y-80329000D01*
X179347395Y-80365546D01*
G37*
G36*
X73908228Y-79881703D02*
G01*
X74063100Y-79945853D01*
X74202481Y-80038985D01*
X74321015Y-80157519D01*
X74414147Y-80296900D01*
X74478297Y-80451772D01*
X74511000Y-80616184D01*
X74511000Y-80783816D01*
X74478297Y-80948228D01*
X74414147Y-81103100D01*
X74321015Y-81242481D01*
X74202481Y-81361015D01*
X74063100Y-81454147D01*
X73908228Y-81518297D01*
X73743816Y-81551000D01*
X73576184Y-81551000D01*
X73411772Y-81518297D01*
X73256900Y-81454147D01*
X73117519Y-81361015D01*
X72998985Y-81242481D01*
X72905853Y-81103100D01*
X72841703Y-80948228D01*
X72809000Y-80783816D01*
X72809000Y-80616184D01*
X72841703Y-80451772D01*
X72905853Y-80296900D01*
X72998985Y-80157519D01*
X73117519Y-80038985D01*
X73256900Y-79945853D01*
X73411772Y-79881703D01*
X73576184Y-79849000D01*
X73743816Y-79849000D01*
X73908228Y-79881703D01*
G37*
G36*
X71068228Y-78496703D02*
G01*
X71223100Y-78560853D01*
X71362481Y-78653985D01*
X71481015Y-78772519D01*
X71574147Y-78911900D01*
X71638297Y-79066772D01*
X71671000Y-79231184D01*
X71671000Y-79398816D01*
X71638297Y-79563228D01*
X71574147Y-79718100D01*
X71481015Y-79857481D01*
X71362481Y-79976015D01*
X71223100Y-80069147D01*
X71068228Y-80133297D01*
X70903816Y-80166000D01*
X70736184Y-80166000D01*
X70571772Y-80133297D01*
X70416900Y-80069147D01*
X70277519Y-79976015D01*
X70158985Y-79857481D01*
X70065853Y-79718100D01*
X70001703Y-79563228D01*
X69969000Y-79398816D01*
X69969000Y-79231184D01*
X70001703Y-79066772D01*
X70065853Y-78911900D01*
X70158985Y-78772519D01*
X70277519Y-78653985D01*
X70416900Y-78560853D01*
X70571772Y-78496703D01*
X70736184Y-78464000D01*
X70903816Y-78464000D01*
X71068228Y-78496703D01*
G37*
G36*
X82683604Y-78573347D02*
G01*
X82720144Y-78584432D01*
X82753821Y-78602433D01*
X82783341Y-78626659D01*
X82807567Y-78656179D01*
X82825568Y-78689856D01*
X82836653Y-78726396D01*
X82841000Y-78770538D01*
X82841000Y-79719462D01*
X82836653Y-79763604D01*
X82825568Y-79800144D01*
X82807567Y-79833821D01*
X82783341Y-79863341D01*
X82753821Y-79887567D01*
X82720144Y-79905568D01*
X82683604Y-79916653D01*
X82639462Y-79921000D01*
X81190538Y-79921000D01*
X81146396Y-79916653D01*
X81109856Y-79905568D01*
X81076179Y-79887567D01*
X81046659Y-79863341D01*
X81022433Y-79833821D01*
X81004432Y-79800144D01*
X80993347Y-79763604D01*
X80989000Y-79719462D01*
X80989000Y-78770538D01*
X80993347Y-78726396D01*
X81004432Y-78689856D01*
X81022433Y-78656179D01*
X81046659Y-78626659D01*
X81076179Y-78602433D01*
X81109856Y-78584432D01*
X81146396Y-78573347D01*
X81190538Y-78569000D01*
X82639462Y-78569000D01*
X82683604Y-78573347D01*
G37*
G36*
X117791000Y-79691000D02*
G01*
X115889000Y-79691000D01*
X115889000Y-77789000D01*
X117791000Y-77789000D01*
X117791000Y-79691000D01*
G37*
G36*
X224471000Y-79691000D02*
G01*
X222569000Y-79691000D01*
X222569000Y-77789000D01*
X224471000Y-77789000D01*
X224471000Y-79691000D01*
G37*
G36*
X171131000Y-79691000D02*
G01*
X169229000Y-79691000D01*
X169229000Y-77789000D01*
X171131000Y-77789000D01*
X171131000Y-79691000D01*
G37*
G36*
X162241000Y-79691000D02*
G01*
X160339000Y-79691000D01*
X160339000Y-77789000D01*
X162241000Y-77789000D01*
X162241000Y-79691000D01*
G37*
G36*
X180021000Y-79691000D02*
G01*
X178119000Y-79691000D01*
X178119000Y-77789000D01*
X180021000Y-77789000D01*
X180021000Y-79691000D01*
G37*
G36*
X153351000Y-79691000D02*
G01*
X151449000Y-79691000D01*
X151449000Y-77789000D01*
X153351000Y-77789000D01*
X153351000Y-79691000D01*
G37*
G36*
X188911000Y-79691000D02*
G01*
X187009000Y-79691000D01*
X187009000Y-77789000D01*
X188911000Y-77789000D01*
X188911000Y-79691000D01*
G37*
G36*
X144461000Y-79691000D02*
G01*
X142559000Y-79691000D01*
X142559000Y-77789000D01*
X144461000Y-77789000D01*
X144461000Y-79691000D01*
G37*
G36*
X197801000Y-79691000D02*
G01*
X195899000Y-79691000D01*
X195899000Y-77789000D01*
X197801000Y-77789000D01*
X197801000Y-79691000D01*
G37*
G36*
X206691000Y-79691000D02*
G01*
X204789000Y-79691000D01*
X204789000Y-77789000D01*
X206691000Y-77789000D01*
X206691000Y-79691000D01*
G37*
G36*
X126681000Y-79691000D02*
G01*
X124779000Y-79691000D01*
X124779000Y-77789000D01*
X126681000Y-77789000D01*
X126681000Y-79691000D01*
G37*
G36*
X215581000Y-79691000D02*
G01*
X213679000Y-79691000D01*
X213679000Y-77789000D01*
X215581000Y-77789000D01*
X215581000Y-79691000D01*
G37*
G36*
X233361000Y-79691000D02*
G01*
X231459000Y-79691000D01*
X231459000Y-77789000D01*
X233361000Y-77789000D01*
X233361000Y-79691000D01*
G37*
G36*
X87311000Y-79691000D02*
G01*
X85409000Y-79691000D01*
X85409000Y-77789000D01*
X87311000Y-77789000D01*
X87311000Y-79691000D01*
G37*
G36*
X108901000Y-79691000D02*
G01*
X106999000Y-79691000D01*
X106999000Y-77789000D01*
X108901000Y-77789000D01*
X108901000Y-79691000D01*
G37*
G36*
X100011000Y-79691000D02*
G01*
X98109000Y-79691000D01*
X98109000Y-77789000D01*
X100011000Y-77789000D01*
X100011000Y-79691000D01*
G37*
G36*
X135571000Y-79691000D02*
G01*
X133669000Y-79691000D01*
X133669000Y-77789000D01*
X135571000Y-77789000D01*
X135571000Y-79691000D01*
G37*
G36*
X73908228Y-77111703D02*
G01*
X74063100Y-77175853D01*
X74202481Y-77268985D01*
X74321015Y-77387519D01*
X74414147Y-77526900D01*
X74478297Y-77681772D01*
X74511000Y-77846184D01*
X74511000Y-78013816D01*
X74478297Y-78178228D01*
X74414147Y-78333100D01*
X74321015Y-78472481D01*
X74202481Y-78591015D01*
X74063100Y-78684147D01*
X73908228Y-78748297D01*
X73743816Y-78781000D01*
X73576184Y-78781000D01*
X73411772Y-78748297D01*
X73256900Y-78684147D01*
X73117519Y-78591015D01*
X72998985Y-78472481D01*
X72905853Y-78333100D01*
X72841703Y-78178228D01*
X72809000Y-78013816D01*
X72809000Y-77846184D01*
X72841703Y-77681772D01*
X72905853Y-77526900D01*
X72998985Y-77387519D01*
X73117519Y-77268985D01*
X73256900Y-77175853D01*
X73411772Y-77111703D01*
X73576184Y-77079000D01*
X73743816Y-77079000D01*
X73908228Y-77111703D01*
G37*
G36*
X71068228Y-75726703D02*
G01*
X71223100Y-75790853D01*
X71362481Y-75883985D01*
X71481015Y-76002519D01*
X71574147Y-76141900D01*
X71638297Y-76296772D01*
X71671000Y-76461184D01*
X71671000Y-76628816D01*
X71638297Y-76793228D01*
X71574147Y-76948100D01*
X71481015Y-77087481D01*
X71362481Y-77206015D01*
X71223100Y-77299147D01*
X71068228Y-77363297D01*
X70903816Y-77396000D01*
X70736184Y-77396000D01*
X70571772Y-77363297D01*
X70416900Y-77299147D01*
X70277519Y-77206015D01*
X70158985Y-77087481D01*
X70065853Y-76948100D01*
X70001703Y-76793228D01*
X69969000Y-76628816D01*
X69969000Y-76461184D01*
X70001703Y-76296772D01*
X70065853Y-76141900D01*
X70158985Y-76002519D01*
X70277519Y-75883985D01*
X70416900Y-75790853D01*
X70571772Y-75726703D01*
X70736184Y-75694000D01*
X70903816Y-75694000D01*
X71068228Y-75726703D01*
G37*
G36*
X73908228Y-74341703D02*
G01*
X74063100Y-74405853D01*
X74202481Y-74498985D01*
X74321015Y-74617519D01*
X74414147Y-74756900D01*
X74478297Y-74911772D01*
X74511000Y-75076184D01*
X74511000Y-75243816D01*
X74478297Y-75408228D01*
X74414147Y-75563100D01*
X74321015Y-75702481D01*
X74202481Y-75821015D01*
X74063100Y-75914147D01*
X73908228Y-75978297D01*
X73743816Y-76011000D01*
X73576184Y-76011000D01*
X73411772Y-75978297D01*
X73256900Y-75914147D01*
X73117519Y-75821015D01*
X72998985Y-75702481D01*
X72905853Y-75563100D01*
X72841703Y-75408228D01*
X72809000Y-75243816D01*
X72809000Y-75076184D01*
X72841703Y-74911772D01*
X72905853Y-74756900D01*
X72998985Y-74617519D01*
X73117519Y-74498985D01*
X73256900Y-74405853D01*
X73411772Y-74341703D01*
X73576184Y-74309000D01*
X73743816Y-74309000D01*
X73908228Y-74341703D01*
G37*
G36*
X71068228Y-72956703D02*
G01*
X71223100Y-73020853D01*
X71362481Y-73113985D01*
X71481015Y-73232519D01*
X71574147Y-73371900D01*
X71638297Y-73526772D01*
X71671000Y-73691184D01*
X71671000Y-73858816D01*
X71638297Y-74023228D01*
X71574147Y-74178100D01*
X71481015Y-74317481D01*
X71362481Y-74436015D01*
X71223100Y-74529147D01*
X71068228Y-74593297D01*
X70903816Y-74626000D01*
X70736184Y-74626000D01*
X70571772Y-74593297D01*
X70416900Y-74529147D01*
X70277519Y-74436015D01*
X70158985Y-74317481D01*
X70065853Y-74178100D01*
X70001703Y-74023228D01*
X69969000Y-73858816D01*
X69969000Y-73691184D01*
X70001703Y-73526772D01*
X70065853Y-73371900D01*
X70158985Y-73232519D01*
X70277519Y-73113985D01*
X70416900Y-73020853D01*
X70571772Y-72956703D01*
X70736184Y-72924000D01*
X70903816Y-72924000D01*
X71068228Y-72956703D01*
G37*
G36*
X233178604Y-73118347D02*
G01*
X233215144Y-73129432D01*
X233248821Y-73147433D01*
X233278341Y-73171659D01*
X233302567Y-73201179D01*
X233320568Y-73234856D01*
X233331653Y-73271396D01*
X233336000Y-73315538D01*
X233336000Y-74264462D01*
X233331653Y-74308604D01*
X233320568Y-74345144D01*
X233302567Y-74378821D01*
X233278341Y-74408341D01*
X233248821Y-74432567D01*
X233215144Y-74450568D01*
X233178604Y-74461653D01*
X233134462Y-74466000D01*
X231685538Y-74466000D01*
X231641396Y-74461653D01*
X231604856Y-74450568D01*
X231571179Y-74432567D01*
X231541659Y-74408341D01*
X231517433Y-74378821D01*
X231499432Y-74345144D01*
X231488347Y-74308604D01*
X231484000Y-74264462D01*
X231484000Y-73315538D01*
X231488347Y-73271396D01*
X231499432Y-73234856D01*
X231517433Y-73201179D01*
X231541659Y-73171659D01*
X231571179Y-73147433D01*
X231604856Y-73129432D01*
X231641396Y-73118347D01*
X231685538Y-73114000D01*
X233134462Y-73114000D01*
X233178604Y-73118347D01*
G37*
G36*
X179838604Y-72988347D02*
G01*
X179875144Y-72999432D01*
X179908821Y-73017433D01*
X179938341Y-73041659D01*
X179962567Y-73071179D01*
X179980568Y-73104856D01*
X179991653Y-73141396D01*
X179996000Y-73185538D01*
X179996000Y-74134462D01*
X179991653Y-74178604D01*
X179980568Y-74215144D01*
X179962567Y-74248821D01*
X179938341Y-74278341D01*
X179908821Y-74302567D01*
X179875144Y-74320568D01*
X179838604Y-74331653D01*
X179794462Y-74336000D01*
X178345538Y-74336000D01*
X178301396Y-74331653D01*
X178264856Y-74320568D01*
X178231179Y-74302567D01*
X178201659Y-74278341D01*
X178177433Y-74248821D01*
X178159432Y-74215144D01*
X178148347Y-74178604D01*
X178144000Y-74134462D01*
X178144000Y-73185538D01*
X178148347Y-73141396D01*
X178159432Y-73104856D01*
X178177433Y-73071179D01*
X178201659Y-73041659D01*
X178231179Y-73017433D01*
X178264856Y-72999432D01*
X178301396Y-72988347D01*
X178345538Y-72984000D01*
X179794462Y-72984000D01*
X179838604Y-72988347D01*
G37*
G36*
X162058604Y-72988347D02*
G01*
X162095144Y-72999432D01*
X162128821Y-73017433D01*
X162158341Y-73041659D01*
X162182567Y-73071179D01*
X162200568Y-73104856D01*
X162211653Y-73141396D01*
X162216000Y-73185538D01*
X162216000Y-74134462D01*
X162211653Y-74178604D01*
X162200568Y-74215144D01*
X162182567Y-74248821D01*
X162158341Y-74278341D01*
X162128821Y-74302567D01*
X162095144Y-74320568D01*
X162058604Y-74331653D01*
X162014462Y-74336000D01*
X160565538Y-74336000D01*
X160521396Y-74331653D01*
X160484856Y-74320568D01*
X160451179Y-74302567D01*
X160421659Y-74278341D01*
X160397433Y-74248821D01*
X160379432Y-74215144D01*
X160368347Y-74178604D01*
X160364000Y-74134462D01*
X160364000Y-73185538D01*
X160368347Y-73141396D01*
X160379432Y-73104856D01*
X160397433Y-73071179D01*
X160421659Y-73041659D01*
X160451179Y-73017433D01*
X160484856Y-72999432D01*
X160521396Y-72988347D01*
X160565538Y-72984000D01*
X162014462Y-72984000D01*
X162058604Y-72988347D01*
G37*
G36*
X153168604Y-72988347D02*
G01*
X153205144Y-72999432D01*
X153238821Y-73017433D01*
X153268341Y-73041659D01*
X153292567Y-73071179D01*
X153310568Y-73104856D01*
X153321653Y-73141396D01*
X153326000Y-73185538D01*
X153326000Y-74134462D01*
X153321653Y-74178604D01*
X153310568Y-74215144D01*
X153292567Y-74248821D01*
X153268341Y-74278341D01*
X153238821Y-74302567D01*
X153205144Y-74320568D01*
X153168604Y-74331653D01*
X153124462Y-74336000D01*
X151675538Y-74336000D01*
X151631396Y-74331653D01*
X151594856Y-74320568D01*
X151561179Y-74302567D01*
X151531659Y-74278341D01*
X151507433Y-74248821D01*
X151489432Y-74215144D01*
X151478347Y-74178604D01*
X151474000Y-74134462D01*
X151474000Y-73185538D01*
X151478347Y-73141396D01*
X151489432Y-73104856D01*
X151507433Y-73071179D01*
X151531659Y-73041659D01*
X151561179Y-73017433D01*
X151594856Y-72999432D01*
X151631396Y-72988347D01*
X151675538Y-72984000D01*
X153124462Y-72984000D01*
X153168604Y-72988347D01*
G37*
G36*
X144278604Y-72988347D02*
G01*
X144315144Y-72999432D01*
X144348821Y-73017433D01*
X144378341Y-73041659D01*
X144402567Y-73071179D01*
X144420568Y-73104856D01*
X144431653Y-73141396D01*
X144436000Y-73185538D01*
X144436000Y-74134462D01*
X144431653Y-74178604D01*
X144420568Y-74215144D01*
X144402567Y-74248821D01*
X144378341Y-74278341D01*
X144348821Y-74302567D01*
X144315144Y-74320568D01*
X144278604Y-74331653D01*
X144234462Y-74336000D01*
X142785538Y-74336000D01*
X142741396Y-74331653D01*
X142704856Y-74320568D01*
X142671179Y-74302567D01*
X142641659Y-74278341D01*
X142617433Y-74248821D01*
X142599432Y-74215144D01*
X142588347Y-74178604D01*
X142584000Y-74134462D01*
X142584000Y-73185538D01*
X142588347Y-73141396D01*
X142599432Y-73104856D01*
X142617433Y-73071179D01*
X142641659Y-73041659D01*
X142671179Y-73017433D01*
X142704856Y-72999432D01*
X142741396Y-72988347D01*
X142785538Y-72984000D01*
X144234462Y-72984000D01*
X144278604Y-72988347D01*
G37*
G36*
X135388604Y-72988347D02*
G01*
X135425144Y-72999432D01*
X135458821Y-73017433D01*
X135488341Y-73041659D01*
X135512567Y-73071179D01*
X135530568Y-73104856D01*
X135541653Y-73141396D01*
X135546000Y-73185538D01*
X135546000Y-74134462D01*
X135541653Y-74178604D01*
X135530568Y-74215144D01*
X135512567Y-74248821D01*
X135488341Y-74278341D01*
X135458821Y-74302567D01*
X135425144Y-74320568D01*
X135388604Y-74331653D01*
X135344462Y-74336000D01*
X133895538Y-74336000D01*
X133851396Y-74331653D01*
X133814856Y-74320568D01*
X133781179Y-74302567D01*
X133751659Y-74278341D01*
X133727433Y-74248821D01*
X133709432Y-74215144D01*
X133698347Y-74178604D01*
X133694000Y-74134462D01*
X133694000Y-73185538D01*
X133698347Y-73141396D01*
X133709432Y-73104856D01*
X133727433Y-73071179D01*
X133751659Y-73041659D01*
X133781179Y-73017433D01*
X133814856Y-72999432D01*
X133851396Y-72988347D01*
X133895538Y-72984000D01*
X135344462Y-72984000D01*
X135388604Y-72988347D01*
G37*
G36*
X117608604Y-72988347D02*
G01*
X117645144Y-72999432D01*
X117678821Y-73017433D01*
X117708341Y-73041659D01*
X117732567Y-73071179D01*
X117750568Y-73104856D01*
X117761653Y-73141396D01*
X117766000Y-73185538D01*
X117766000Y-74134462D01*
X117761653Y-74178604D01*
X117750568Y-74215144D01*
X117732567Y-74248821D01*
X117708341Y-74278341D01*
X117678821Y-74302567D01*
X117645144Y-74320568D01*
X117608604Y-74331653D01*
X117564462Y-74336000D01*
X116115538Y-74336000D01*
X116071396Y-74331653D01*
X116034856Y-74320568D01*
X116001179Y-74302567D01*
X115971659Y-74278341D01*
X115947433Y-74248821D01*
X115929432Y-74215144D01*
X115918347Y-74178604D01*
X115914000Y-74134462D01*
X115914000Y-73185538D01*
X115918347Y-73141396D01*
X115929432Y-73104856D01*
X115947433Y-73071179D01*
X115971659Y-73041659D01*
X116001179Y-73017433D01*
X116034856Y-72999432D01*
X116071396Y-72988347D01*
X116115538Y-72984000D01*
X117564462Y-72984000D01*
X117608604Y-72988347D01*
G37*
G36*
X108718604Y-72988347D02*
G01*
X108755144Y-72999432D01*
X108788821Y-73017433D01*
X108818341Y-73041659D01*
X108842567Y-73071179D01*
X108860568Y-73104856D01*
X108871653Y-73141396D01*
X108876000Y-73185538D01*
X108876000Y-74134462D01*
X108871653Y-74178604D01*
X108860568Y-74215144D01*
X108842567Y-74248821D01*
X108818341Y-74278341D01*
X108788821Y-74302567D01*
X108755144Y-74320568D01*
X108718604Y-74331653D01*
X108674462Y-74336000D01*
X107225538Y-74336000D01*
X107181396Y-74331653D01*
X107144856Y-74320568D01*
X107111179Y-74302567D01*
X107081659Y-74278341D01*
X107057433Y-74248821D01*
X107039432Y-74215144D01*
X107028347Y-74178604D01*
X107024000Y-74134462D01*
X107024000Y-73185538D01*
X107028347Y-73141396D01*
X107039432Y-73104856D01*
X107057433Y-73071179D01*
X107081659Y-73041659D01*
X107111179Y-73017433D01*
X107144856Y-72999432D01*
X107181396Y-72988347D01*
X107225538Y-72984000D01*
X108674462Y-72984000D01*
X108718604Y-72988347D01*
G37*
G36*
X99828604Y-72988347D02*
G01*
X99865144Y-72999432D01*
X99898821Y-73017433D01*
X99928341Y-73041659D01*
X99952567Y-73071179D01*
X99970568Y-73104856D01*
X99981653Y-73141396D01*
X99986000Y-73185538D01*
X99986000Y-74134462D01*
X99981653Y-74178604D01*
X99970568Y-74215144D01*
X99952567Y-74248821D01*
X99928341Y-74278341D01*
X99898821Y-74302567D01*
X99865144Y-74320568D01*
X99828604Y-74331653D01*
X99784462Y-74336000D01*
X98335538Y-74336000D01*
X98291396Y-74331653D01*
X98254856Y-74320568D01*
X98221179Y-74302567D01*
X98191659Y-74278341D01*
X98167433Y-74248821D01*
X98149432Y-74215144D01*
X98138347Y-74178604D01*
X98134000Y-74134462D01*
X98134000Y-73185538D01*
X98138347Y-73141396D01*
X98149432Y-73104856D01*
X98167433Y-73071179D01*
X98191659Y-73041659D01*
X98221179Y-73017433D01*
X98254856Y-72999432D01*
X98291396Y-72988347D01*
X98335538Y-72984000D01*
X99784462Y-72984000D01*
X99828604Y-72988347D01*
G37*
G36*
X224288604Y-72988347D02*
G01*
X224325144Y-72999432D01*
X224358821Y-73017433D01*
X224388341Y-73041659D01*
X224412567Y-73071179D01*
X224430568Y-73104856D01*
X224441653Y-73141396D01*
X224446000Y-73185538D01*
X224446000Y-74134462D01*
X224441653Y-74178604D01*
X224430568Y-74215144D01*
X224412567Y-74248821D01*
X224388341Y-74278341D01*
X224358821Y-74302567D01*
X224325144Y-74320568D01*
X224288604Y-74331653D01*
X224244462Y-74336000D01*
X222795538Y-74336000D01*
X222751396Y-74331653D01*
X222714856Y-74320568D01*
X222681179Y-74302567D01*
X222651659Y-74278341D01*
X222627433Y-74248821D01*
X222609432Y-74215144D01*
X222598347Y-74178604D01*
X222594000Y-74134462D01*
X222594000Y-73185538D01*
X222598347Y-73141396D01*
X222609432Y-73104856D01*
X222627433Y-73071179D01*
X222651659Y-73041659D01*
X222681179Y-73017433D01*
X222714856Y-72999432D01*
X222751396Y-72988347D01*
X222795538Y-72984000D01*
X224244462Y-72984000D01*
X224288604Y-72988347D01*
G37*
G36*
X215398604Y-72988347D02*
G01*
X215435144Y-72999432D01*
X215468821Y-73017433D01*
X215498341Y-73041659D01*
X215522567Y-73071179D01*
X215540568Y-73104856D01*
X215551653Y-73141396D01*
X215556000Y-73185538D01*
X215556000Y-74134462D01*
X215551653Y-74178604D01*
X215540568Y-74215144D01*
X215522567Y-74248821D01*
X215498341Y-74278341D01*
X215468821Y-74302567D01*
X215435144Y-74320568D01*
X215398604Y-74331653D01*
X215354462Y-74336000D01*
X213905538Y-74336000D01*
X213861396Y-74331653D01*
X213824856Y-74320568D01*
X213791179Y-74302567D01*
X213761659Y-74278341D01*
X213737433Y-74248821D01*
X213719432Y-74215144D01*
X213708347Y-74178604D01*
X213704000Y-74134462D01*
X213704000Y-73185538D01*
X213708347Y-73141396D01*
X213719432Y-73104856D01*
X213737433Y-73071179D01*
X213761659Y-73041659D01*
X213791179Y-73017433D01*
X213824856Y-72999432D01*
X213861396Y-72988347D01*
X213905538Y-72984000D01*
X215354462Y-72984000D01*
X215398604Y-72988347D01*
G37*
G36*
X206508604Y-72988347D02*
G01*
X206545144Y-72999432D01*
X206578821Y-73017433D01*
X206608341Y-73041659D01*
X206632567Y-73071179D01*
X206650568Y-73104856D01*
X206661653Y-73141396D01*
X206666000Y-73185538D01*
X206666000Y-74134462D01*
X206661653Y-74178604D01*
X206650568Y-74215144D01*
X206632567Y-74248821D01*
X206608341Y-74278341D01*
X206578821Y-74302567D01*
X206545144Y-74320568D01*
X206508604Y-74331653D01*
X206464462Y-74336000D01*
X205015538Y-74336000D01*
X204971396Y-74331653D01*
X204934856Y-74320568D01*
X204901179Y-74302567D01*
X204871659Y-74278341D01*
X204847433Y-74248821D01*
X204829432Y-74215144D01*
X204818347Y-74178604D01*
X204814000Y-74134462D01*
X204814000Y-73185538D01*
X204818347Y-73141396D01*
X204829432Y-73104856D01*
X204847433Y-73071179D01*
X204871659Y-73041659D01*
X204901179Y-73017433D01*
X204934856Y-72999432D01*
X204971396Y-72988347D01*
X205015538Y-72984000D01*
X206464462Y-72984000D01*
X206508604Y-72988347D01*
G37*
G36*
X197618604Y-72988347D02*
G01*
X197655144Y-72999432D01*
X197688821Y-73017433D01*
X197718341Y-73041659D01*
X197742567Y-73071179D01*
X197760568Y-73104856D01*
X197771653Y-73141396D01*
X197776000Y-73185538D01*
X197776000Y-74134462D01*
X197771653Y-74178604D01*
X197760568Y-74215144D01*
X197742567Y-74248821D01*
X197718341Y-74278341D01*
X197688821Y-74302567D01*
X197655144Y-74320568D01*
X197618604Y-74331653D01*
X197574462Y-74336000D01*
X196125538Y-74336000D01*
X196081396Y-74331653D01*
X196044856Y-74320568D01*
X196011179Y-74302567D01*
X195981659Y-74278341D01*
X195957433Y-74248821D01*
X195939432Y-74215144D01*
X195928347Y-74178604D01*
X195924000Y-74134462D01*
X195924000Y-73185538D01*
X195928347Y-73141396D01*
X195939432Y-73104856D01*
X195957433Y-73071179D01*
X195981659Y-73041659D01*
X196011179Y-73017433D01*
X196044856Y-72999432D01*
X196081396Y-72988347D01*
X196125538Y-72984000D01*
X197574462Y-72984000D01*
X197618604Y-72988347D01*
G37*
G36*
X170948604Y-72988347D02*
G01*
X170985144Y-72999432D01*
X171018821Y-73017433D01*
X171048341Y-73041659D01*
X171072567Y-73071179D01*
X171090568Y-73104856D01*
X171101653Y-73141396D01*
X171106000Y-73185538D01*
X171106000Y-74134462D01*
X171101653Y-74178604D01*
X171090568Y-74215144D01*
X171072567Y-74248821D01*
X171048341Y-74278341D01*
X171018821Y-74302567D01*
X170985144Y-74320568D01*
X170948604Y-74331653D01*
X170904462Y-74336000D01*
X169455538Y-74336000D01*
X169411396Y-74331653D01*
X169374856Y-74320568D01*
X169341179Y-74302567D01*
X169311659Y-74278341D01*
X169287433Y-74248821D01*
X169269432Y-74215144D01*
X169258347Y-74178604D01*
X169254000Y-74134462D01*
X169254000Y-73185538D01*
X169258347Y-73141396D01*
X169269432Y-73104856D01*
X169287433Y-73071179D01*
X169311659Y-73041659D01*
X169341179Y-73017433D01*
X169374856Y-72999432D01*
X169411396Y-72988347D01*
X169455538Y-72984000D01*
X170904462Y-72984000D01*
X170948604Y-72988347D01*
G37*
G36*
X188728604Y-72988347D02*
G01*
X188765144Y-72999432D01*
X188798821Y-73017433D01*
X188828341Y-73041659D01*
X188852567Y-73071179D01*
X188870568Y-73104856D01*
X188881653Y-73141396D01*
X188886000Y-73185538D01*
X188886000Y-74134462D01*
X188881653Y-74178604D01*
X188870568Y-74215144D01*
X188852567Y-74248821D01*
X188828341Y-74278341D01*
X188798821Y-74302567D01*
X188765144Y-74320568D01*
X188728604Y-74331653D01*
X188684462Y-74336000D01*
X187235538Y-74336000D01*
X187191396Y-74331653D01*
X187154856Y-74320568D01*
X187121179Y-74302567D01*
X187091659Y-74278341D01*
X187067433Y-74248821D01*
X187049432Y-74215144D01*
X187038347Y-74178604D01*
X187034000Y-74134462D01*
X187034000Y-73185538D01*
X187038347Y-73141396D01*
X187049432Y-73104856D01*
X187067433Y-73071179D01*
X187091659Y-73041659D01*
X187121179Y-73017433D01*
X187154856Y-72999432D01*
X187191396Y-72988347D01*
X187235538Y-72984000D01*
X188684462Y-72984000D01*
X188728604Y-72988347D01*
G37*
G36*
X126498604Y-72988347D02*
G01*
X126535144Y-72999432D01*
X126568821Y-73017433D01*
X126598341Y-73041659D01*
X126622567Y-73071179D01*
X126640568Y-73104856D01*
X126651653Y-73141396D01*
X126656000Y-73185538D01*
X126656000Y-74134462D01*
X126651653Y-74178604D01*
X126640568Y-74215144D01*
X126622567Y-74248821D01*
X126598341Y-74278341D01*
X126568821Y-74302567D01*
X126535144Y-74320568D01*
X126498604Y-74331653D01*
X126454462Y-74336000D01*
X125005538Y-74336000D01*
X124961396Y-74331653D01*
X124924856Y-74320568D01*
X124891179Y-74302567D01*
X124861659Y-74278341D01*
X124837433Y-74248821D01*
X124819432Y-74215144D01*
X124808347Y-74178604D01*
X124804000Y-74134462D01*
X124804000Y-73185538D01*
X124808347Y-73141396D01*
X124819432Y-73104856D01*
X124837433Y-73071179D01*
X124861659Y-73041659D01*
X124891179Y-73017433D01*
X124924856Y-72999432D01*
X124961396Y-72988347D01*
X125005538Y-72984000D01*
X126454462Y-72984000D01*
X126498604Y-72988347D01*
G37*
G36*
X74511000Y-73241000D02*
G01*
X72809000Y-73241000D01*
X72809000Y-71539000D01*
X74511000Y-71539000D01*
X74511000Y-73241000D01*
G37*
G36*
X233178604Y-70318347D02*
G01*
X233215144Y-70329432D01*
X233248821Y-70347433D01*
X233278341Y-70371659D01*
X233302567Y-70401179D01*
X233320568Y-70434856D01*
X233331653Y-70471396D01*
X233336000Y-70515538D01*
X233336000Y-71464462D01*
X233331653Y-71508604D01*
X233320568Y-71545144D01*
X233302567Y-71578821D01*
X233278341Y-71608341D01*
X233248821Y-71632567D01*
X233215144Y-71650568D01*
X233178604Y-71661653D01*
X233134462Y-71666000D01*
X231685538Y-71666000D01*
X231641396Y-71661653D01*
X231604856Y-71650568D01*
X231571179Y-71632567D01*
X231541659Y-71608341D01*
X231517433Y-71578821D01*
X231499432Y-71545144D01*
X231488347Y-71508604D01*
X231484000Y-71464462D01*
X231484000Y-70515538D01*
X231488347Y-70471396D01*
X231499432Y-70434856D01*
X231517433Y-70401179D01*
X231541659Y-70371659D01*
X231571179Y-70347433D01*
X231604856Y-70329432D01*
X231641396Y-70318347D01*
X231685538Y-70314000D01*
X233134462Y-70314000D01*
X233178604Y-70318347D01*
G37*
G36*
X224288604Y-70188347D02*
G01*
X224325144Y-70199432D01*
X224358821Y-70217433D01*
X224388341Y-70241659D01*
X224412567Y-70271179D01*
X224430568Y-70304856D01*
X224441653Y-70341396D01*
X224446000Y-70385538D01*
X224446000Y-71334462D01*
X224441653Y-71378604D01*
X224430568Y-71415144D01*
X224412567Y-71448821D01*
X224388341Y-71478341D01*
X224358821Y-71502567D01*
X224325144Y-71520568D01*
X224288604Y-71531653D01*
X224244462Y-71536000D01*
X222795538Y-71536000D01*
X222751396Y-71531653D01*
X222714856Y-71520568D01*
X222681179Y-71502567D01*
X222651659Y-71478341D01*
X222627433Y-71448821D01*
X222609432Y-71415144D01*
X222598347Y-71378604D01*
X222594000Y-71334462D01*
X222594000Y-70385538D01*
X222598347Y-70341396D01*
X222609432Y-70304856D01*
X222627433Y-70271179D01*
X222651659Y-70241659D01*
X222681179Y-70217433D01*
X222714856Y-70199432D01*
X222751396Y-70188347D01*
X222795538Y-70184000D01*
X224244462Y-70184000D01*
X224288604Y-70188347D01*
G37*
G36*
X206508604Y-70188347D02*
G01*
X206545144Y-70199432D01*
X206578821Y-70217433D01*
X206608341Y-70241659D01*
X206632567Y-70271179D01*
X206650568Y-70304856D01*
X206661653Y-70341396D01*
X206666000Y-70385538D01*
X206666000Y-71334462D01*
X206661653Y-71378604D01*
X206650568Y-71415144D01*
X206632567Y-71448821D01*
X206608341Y-71478341D01*
X206578821Y-71502567D01*
X206545144Y-71520568D01*
X206508604Y-71531653D01*
X206464462Y-71536000D01*
X205015538Y-71536000D01*
X204971396Y-71531653D01*
X204934856Y-71520568D01*
X204901179Y-71502567D01*
X204871659Y-71478341D01*
X204847433Y-71448821D01*
X204829432Y-71415144D01*
X204818347Y-71378604D01*
X204814000Y-71334462D01*
X204814000Y-70385538D01*
X204818347Y-70341396D01*
X204829432Y-70304856D01*
X204847433Y-70271179D01*
X204871659Y-70241659D01*
X204901179Y-70217433D01*
X204934856Y-70199432D01*
X204971396Y-70188347D01*
X205015538Y-70184000D01*
X206464462Y-70184000D01*
X206508604Y-70188347D01*
G37*
G36*
X197618604Y-70188347D02*
G01*
X197655144Y-70199432D01*
X197688821Y-70217433D01*
X197718341Y-70241659D01*
X197742567Y-70271179D01*
X197760568Y-70304856D01*
X197771653Y-70341396D01*
X197776000Y-70385538D01*
X197776000Y-71334462D01*
X197771653Y-71378604D01*
X197760568Y-71415144D01*
X197742567Y-71448821D01*
X197718341Y-71478341D01*
X197688821Y-71502567D01*
X197655144Y-71520568D01*
X197618604Y-71531653D01*
X197574462Y-71536000D01*
X196125538Y-71536000D01*
X196081396Y-71531653D01*
X196044856Y-71520568D01*
X196011179Y-71502567D01*
X195981659Y-71478341D01*
X195957433Y-71448821D01*
X195939432Y-71415144D01*
X195928347Y-71378604D01*
X195924000Y-71334462D01*
X195924000Y-70385538D01*
X195928347Y-70341396D01*
X195939432Y-70304856D01*
X195957433Y-70271179D01*
X195981659Y-70241659D01*
X196011179Y-70217433D01*
X196044856Y-70199432D01*
X196081396Y-70188347D01*
X196125538Y-70184000D01*
X197574462Y-70184000D01*
X197618604Y-70188347D01*
G37*
G36*
X108718604Y-70188347D02*
G01*
X108755144Y-70199432D01*
X108788821Y-70217433D01*
X108818341Y-70241659D01*
X108842567Y-70271179D01*
X108860568Y-70304856D01*
X108871653Y-70341396D01*
X108876000Y-70385538D01*
X108876000Y-71334462D01*
X108871653Y-71378604D01*
X108860568Y-71415144D01*
X108842567Y-71448821D01*
X108818341Y-71478341D01*
X108788821Y-71502567D01*
X108755144Y-71520568D01*
X108718604Y-71531653D01*
X108674462Y-71536000D01*
X107225538Y-71536000D01*
X107181396Y-71531653D01*
X107144856Y-71520568D01*
X107111179Y-71502567D01*
X107081659Y-71478341D01*
X107057433Y-71448821D01*
X107039432Y-71415144D01*
X107028347Y-71378604D01*
X107024000Y-71334462D01*
X107024000Y-70385538D01*
X107028347Y-70341396D01*
X107039432Y-70304856D01*
X107057433Y-70271179D01*
X107081659Y-70241659D01*
X107111179Y-70217433D01*
X107144856Y-70199432D01*
X107181396Y-70188347D01*
X107225538Y-70184000D01*
X108674462Y-70184000D01*
X108718604Y-70188347D01*
G37*
G36*
X188728604Y-70188347D02*
G01*
X188765144Y-70199432D01*
X188798821Y-70217433D01*
X188828341Y-70241659D01*
X188852567Y-70271179D01*
X188870568Y-70304856D01*
X188881653Y-70341396D01*
X188886000Y-70385538D01*
X188886000Y-71334462D01*
X188881653Y-71378604D01*
X188870568Y-71415144D01*
X188852567Y-71448821D01*
X188828341Y-71478341D01*
X188798821Y-71502567D01*
X188765144Y-71520568D01*
X188728604Y-71531653D01*
X188684462Y-71536000D01*
X187235538Y-71536000D01*
X187191396Y-71531653D01*
X187154856Y-71520568D01*
X187121179Y-71502567D01*
X187091659Y-71478341D01*
X187067433Y-71448821D01*
X187049432Y-71415144D01*
X187038347Y-71378604D01*
X187034000Y-71334462D01*
X187034000Y-70385538D01*
X187038347Y-70341396D01*
X187049432Y-70304856D01*
X187067433Y-70271179D01*
X187091659Y-70241659D01*
X187121179Y-70217433D01*
X187154856Y-70199432D01*
X187191396Y-70188347D01*
X187235538Y-70184000D01*
X188684462Y-70184000D01*
X188728604Y-70188347D01*
G37*
G36*
X179838604Y-70188347D02*
G01*
X179875144Y-70199432D01*
X179908821Y-70217433D01*
X179938341Y-70241659D01*
X179962567Y-70271179D01*
X179980568Y-70304856D01*
X179991653Y-70341396D01*
X179996000Y-70385538D01*
X179996000Y-71334462D01*
X179991653Y-71378604D01*
X179980568Y-71415144D01*
X179962567Y-71448821D01*
X179938341Y-71478341D01*
X179908821Y-71502567D01*
X179875144Y-71520568D01*
X179838604Y-71531653D01*
X179794462Y-71536000D01*
X178345538Y-71536000D01*
X178301396Y-71531653D01*
X178264856Y-71520568D01*
X178231179Y-71502567D01*
X178201659Y-71478341D01*
X178177433Y-71448821D01*
X178159432Y-71415144D01*
X178148347Y-71378604D01*
X178144000Y-71334462D01*
X178144000Y-70385538D01*
X178148347Y-70341396D01*
X178159432Y-70304856D01*
X178177433Y-70271179D01*
X178201659Y-70241659D01*
X178231179Y-70217433D01*
X178264856Y-70199432D01*
X178301396Y-70188347D01*
X178345538Y-70184000D01*
X179794462Y-70184000D01*
X179838604Y-70188347D01*
G37*
G36*
X170948604Y-70188347D02*
G01*
X170985144Y-70199432D01*
X171018821Y-70217433D01*
X171048341Y-70241659D01*
X171072567Y-70271179D01*
X171090568Y-70304856D01*
X171101653Y-70341396D01*
X171106000Y-70385538D01*
X171106000Y-71334462D01*
X171101653Y-71378604D01*
X171090568Y-71415144D01*
X171072567Y-71448821D01*
X171048341Y-71478341D01*
X171018821Y-71502567D01*
X170985144Y-71520568D01*
X170948604Y-71531653D01*
X170904462Y-71536000D01*
X169455538Y-71536000D01*
X169411396Y-71531653D01*
X169374856Y-71520568D01*
X169341179Y-71502567D01*
X169311659Y-71478341D01*
X169287433Y-71448821D01*
X169269432Y-71415144D01*
X169258347Y-71378604D01*
X169254000Y-71334462D01*
X169254000Y-70385538D01*
X169258347Y-70341396D01*
X169269432Y-70304856D01*
X169287433Y-70271179D01*
X169311659Y-70241659D01*
X169341179Y-70217433D01*
X169374856Y-70199432D01*
X169411396Y-70188347D01*
X169455538Y-70184000D01*
X170904462Y-70184000D01*
X170948604Y-70188347D01*
G37*
G36*
X153168604Y-70188347D02*
G01*
X153205144Y-70199432D01*
X153238821Y-70217433D01*
X153268341Y-70241659D01*
X153292567Y-70271179D01*
X153310568Y-70304856D01*
X153321653Y-70341396D01*
X153326000Y-70385538D01*
X153326000Y-71334462D01*
X153321653Y-71378604D01*
X153310568Y-71415144D01*
X153292567Y-71448821D01*
X153268341Y-71478341D01*
X153238821Y-71502567D01*
X153205144Y-71520568D01*
X153168604Y-71531653D01*
X153124462Y-71536000D01*
X151675538Y-71536000D01*
X151631396Y-71531653D01*
X151594856Y-71520568D01*
X151561179Y-71502567D01*
X151531659Y-71478341D01*
X151507433Y-71448821D01*
X151489432Y-71415144D01*
X151478347Y-71378604D01*
X151474000Y-71334462D01*
X151474000Y-70385538D01*
X151478347Y-70341396D01*
X151489432Y-70304856D01*
X151507433Y-70271179D01*
X151531659Y-70241659D01*
X151561179Y-70217433D01*
X151594856Y-70199432D01*
X151631396Y-70188347D01*
X151675538Y-70184000D01*
X153124462Y-70184000D01*
X153168604Y-70188347D01*
G37*
G36*
X144278604Y-70188347D02*
G01*
X144315144Y-70199432D01*
X144348821Y-70217433D01*
X144378341Y-70241659D01*
X144402567Y-70271179D01*
X144420568Y-70304856D01*
X144431653Y-70341396D01*
X144436000Y-70385538D01*
X144436000Y-71334462D01*
X144431653Y-71378604D01*
X144420568Y-71415144D01*
X144402567Y-71448821D01*
X144378341Y-71478341D01*
X144348821Y-71502567D01*
X144315144Y-71520568D01*
X144278604Y-71531653D01*
X144234462Y-71536000D01*
X142785538Y-71536000D01*
X142741396Y-71531653D01*
X142704856Y-71520568D01*
X142671179Y-71502567D01*
X142641659Y-71478341D01*
X142617433Y-71448821D01*
X142599432Y-71415144D01*
X142588347Y-71378604D01*
X142584000Y-71334462D01*
X142584000Y-70385538D01*
X142588347Y-70341396D01*
X142599432Y-70304856D01*
X142617433Y-70271179D01*
X142641659Y-70241659D01*
X142671179Y-70217433D01*
X142704856Y-70199432D01*
X142741396Y-70188347D01*
X142785538Y-70184000D01*
X144234462Y-70184000D01*
X144278604Y-70188347D01*
G37*
G36*
X135388604Y-70188347D02*
G01*
X135425144Y-70199432D01*
X135458821Y-70217433D01*
X135488341Y-70241659D01*
X135512567Y-70271179D01*
X135530568Y-70304856D01*
X135541653Y-70341396D01*
X135546000Y-70385538D01*
X135546000Y-71334462D01*
X135541653Y-71378604D01*
X135530568Y-71415144D01*
X135512567Y-71448821D01*
X135488341Y-71478341D01*
X135458821Y-71502567D01*
X135425144Y-71520568D01*
X135388604Y-71531653D01*
X135344462Y-71536000D01*
X133895538Y-71536000D01*
X133851396Y-71531653D01*
X133814856Y-71520568D01*
X133781179Y-71502567D01*
X133751659Y-71478341D01*
X133727433Y-71448821D01*
X133709432Y-71415144D01*
X133698347Y-71378604D01*
X133694000Y-71334462D01*
X133694000Y-70385538D01*
X133698347Y-70341396D01*
X133709432Y-70304856D01*
X133727433Y-70271179D01*
X133751659Y-70241659D01*
X133781179Y-70217433D01*
X133814856Y-70199432D01*
X133851396Y-70188347D01*
X133895538Y-70184000D01*
X135344462Y-70184000D01*
X135388604Y-70188347D01*
G37*
G36*
X126498604Y-70188347D02*
G01*
X126535144Y-70199432D01*
X126568821Y-70217433D01*
X126598341Y-70241659D01*
X126622567Y-70271179D01*
X126640568Y-70304856D01*
X126651653Y-70341396D01*
X126656000Y-70385538D01*
X126656000Y-71334462D01*
X126651653Y-71378604D01*
X126640568Y-71415144D01*
X126622567Y-71448821D01*
X126598341Y-71478341D01*
X126568821Y-71502567D01*
X126535144Y-71520568D01*
X126498604Y-71531653D01*
X126454462Y-71536000D01*
X125005538Y-71536000D01*
X124961396Y-71531653D01*
X124924856Y-71520568D01*
X124891179Y-71502567D01*
X124861659Y-71478341D01*
X124837433Y-71448821D01*
X124819432Y-71415144D01*
X124808347Y-71378604D01*
X124804000Y-71334462D01*
X124804000Y-70385538D01*
X124808347Y-70341396D01*
X124819432Y-70304856D01*
X124837433Y-70271179D01*
X124861659Y-70241659D01*
X124891179Y-70217433D01*
X124924856Y-70199432D01*
X124961396Y-70188347D01*
X125005538Y-70184000D01*
X126454462Y-70184000D01*
X126498604Y-70188347D01*
G37*
G36*
X117608604Y-70188347D02*
G01*
X117645144Y-70199432D01*
X117678821Y-70217433D01*
X117708341Y-70241659D01*
X117732567Y-70271179D01*
X117750568Y-70304856D01*
X117761653Y-70341396D01*
X117766000Y-70385538D01*
X117766000Y-71334462D01*
X117761653Y-71378604D01*
X117750568Y-71415144D01*
X117732567Y-71448821D01*
X117708341Y-71478341D01*
X117678821Y-71502567D01*
X117645144Y-71520568D01*
X117608604Y-71531653D01*
X117564462Y-71536000D01*
X116115538Y-71536000D01*
X116071396Y-71531653D01*
X116034856Y-71520568D01*
X116001179Y-71502567D01*
X115971659Y-71478341D01*
X115947433Y-71448821D01*
X115929432Y-71415144D01*
X115918347Y-71378604D01*
X115914000Y-71334462D01*
X115914000Y-70385538D01*
X115918347Y-70341396D01*
X115929432Y-70304856D01*
X115947433Y-70271179D01*
X115971659Y-70241659D01*
X116001179Y-70217433D01*
X116034856Y-70199432D01*
X116071396Y-70188347D01*
X116115538Y-70184000D01*
X117564462Y-70184000D01*
X117608604Y-70188347D01*
G37*
G36*
X99828604Y-70188347D02*
G01*
X99865144Y-70199432D01*
X99898821Y-70217433D01*
X99928341Y-70241659D01*
X99952567Y-70271179D01*
X99970568Y-70304856D01*
X99981653Y-70341396D01*
X99986000Y-70385538D01*
X99986000Y-71334462D01*
X99981653Y-71378604D01*
X99970568Y-71415144D01*
X99952567Y-71448821D01*
X99928341Y-71478341D01*
X99898821Y-71502567D01*
X99865144Y-71520568D01*
X99828604Y-71531653D01*
X99784462Y-71536000D01*
X98335538Y-71536000D01*
X98291396Y-71531653D01*
X98254856Y-71520568D01*
X98221179Y-71502567D01*
X98191659Y-71478341D01*
X98167433Y-71448821D01*
X98149432Y-71415144D01*
X98138347Y-71378604D01*
X98134000Y-71334462D01*
X98134000Y-70385538D01*
X98138347Y-70341396D01*
X98149432Y-70304856D01*
X98167433Y-70271179D01*
X98191659Y-70241659D01*
X98221179Y-70217433D01*
X98254856Y-70199432D01*
X98291396Y-70188347D01*
X98335538Y-70184000D01*
X99784462Y-70184000D01*
X99828604Y-70188347D01*
G37*
G36*
X162058604Y-70188347D02*
G01*
X162095144Y-70199432D01*
X162128821Y-70217433D01*
X162158341Y-70241659D01*
X162182567Y-70271179D01*
X162200568Y-70304856D01*
X162211653Y-70341396D01*
X162216000Y-70385538D01*
X162216000Y-71334462D01*
X162211653Y-71378604D01*
X162200568Y-71415144D01*
X162182567Y-71448821D01*
X162158341Y-71478341D01*
X162128821Y-71502567D01*
X162095144Y-71520568D01*
X162058604Y-71531653D01*
X162014462Y-71536000D01*
X160565538Y-71536000D01*
X160521396Y-71531653D01*
X160484856Y-71520568D01*
X160451179Y-71502567D01*
X160421659Y-71478341D01*
X160397433Y-71448821D01*
X160379432Y-71415144D01*
X160368347Y-71378604D01*
X160364000Y-71334462D01*
X160364000Y-70385538D01*
X160368347Y-70341396D01*
X160379432Y-70304856D01*
X160397433Y-70271179D01*
X160421659Y-70241659D01*
X160451179Y-70217433D01*
X160484856Y-70199432D01*
X160521396Y-70188347D01*
X160565538Y-70184000D01*
X162014462Y-70184000D01*
X162058604Y-70188347D01*
G37*
G36*
X215398604Y-70188347D02*
G01*
X215435144Y-70199432D01*
X215468821Y-70217433D01*
X215498341Y-70241659D01*
X215522567Y-70271179D01*
X215540568Y-70304856D01*
X215551653Y-70341396D01*
X215556000Y-70385538D01*
X215556000Y-71334462D01*
X215551653Y-71378604D01*
X215540568Y-71415144D01*
X215522567Y-71448821D01*
X215498341Y-71478341D01*
X215468821Y-71502567D01*
X215435144Y-71520568D01*
X215398604Y-71531653D01*
X215354462Y-71536000D01*
X213905538Y-71536000D01*
X213861396Y-71531653D01*
X213824856Y-71520568D01*
X213791179Y-71502567D01*
X213761659Y-71478341D01*
X213737433Y-71448821D01*
X213719432Y-71415144D01*
X213708347Y-71378604D01*
X213704000Y-71334462D01*
X213704000Y-70385538D01*
X213708347Y-70341396D01*
X213719432Y-70304856D01*
X213737433Y-70271179D01*
X213761659Y-70241659D01*
X213791179Y-70217433D01*
X213824856Y-70199432D01*
X213861396Y-70188347D01*
X213905538Y-70184000D01*
X215354462Y-70184000D01*
X215398604Y-70188347D01*
G37*
G36*
X72838254Y-63597818D02*
G01*
X73211511Y-63752426D01*
X73211513Y-63752427D01*
X73547436Y-63976884D01*
X73833116Y-64262564D01*
X74057574Y-64598489D01*
X74212182Y-64971746D01*
X74291000Y-65367993D01*
X74291000Y-65772007D01*
X74212182Y-66168254D01*
X74057574Y-66541511D01*
X74057573Y-66541513D01*
X73833116Y-66877436D01*
X73547436Y-67163116D01*
X73211513Y-67387573D01*
X73211512Y-67387574D01*
X73211511Y-67387574D01*
X72838254Y-67542182D01*
X72442007Y-67621000D01*
X72037993Y-67621000D01*
X71641746Y-67542182D01*
X71268489Y-67387574D01*
X71268488Y-67387574D01*
X71268487Y-67387573D01*
X70932564Y-67163116D01*
X70646884Y-66877436D01*
X70422427Y-66541513D01*
X70422426Y-66541511D01*
X70267818Y-66168254D01*
X70189000Y-65772007D01*
X70189000Y-65367993D01*
X70267818Y-64971746D01*
X70422426Y-64598489D01*
X70646884Y-64262564D01*
X70932564Y-63976884D01*
X71268487Y-63752427D01*
X71268489Y-63752426D01*
X71641746Y-63597818D01*
X72037993Y-63519000D01*
X72442007Y-63519000D01*
X72838254Y-63597818D01*
G37*
M02*
