G04 #@! TF.GenerationSoftware,KiCad,Pcbnew,5.1.5-52549c5~84~ubuntu18.04.1*
G04 #@! TF.CreationDate,2020-04-22T17:59:46-07:00*
G04 #@! TF.ProjectId,rom,726f6d2e-6b69-4636-9164-5f7063625858,rev?*
G04 #@! TF.SameCoordinates,Original*
G04 #@! TF.FileFunction,Soldermask,Bot*
G04 #@! TF.FilePolarity,Negative*
%FSLAX46Y46*%
G04 Gerber Fmt 4.6, Leading zero omitted, Abs format (unit mm)*
G04 Created by KiCad (PCBNEW 5.1.5-52549c5~84~ubuntu18.04.1) date 2020-04-22 17:59:46*
%MOMM*%
%LPD*%
G04 APERTURE LIST*
%ADD10C,0.100000*%
G04 APERTURE END LIST*
D10*
G36*
X192018228Y-72841703D02*
G01*
X192173100Y-72905853D01*
X192312481Y-72998985D01*
X192431015Y-73117519D01*
X192524147Y-73256900D01*
X192588297Y-73411772D01*
X192621000Y-73576184D01*
X192621000Y-73743816D01*
X192588297Y-73908228D01*
X192524147Y-74063100D01*
X192431015Y-74202481D01*
X192312481Y-74321015D01*
X192173100Y-74414147D01*
X192018228Y-74478297D01*
X191853816Y-74511000D01*
X191686184Y-74511000D01*
X191521772Y-74478297D01*
X191366900Y-74414147D01*
X191227519Y-74321015D01*
X191108985Y-74202481D01*
X191015853Y-74063100D01*
X190951703Y-73908228D01*
X190919000Y-73743816D01*
X190919000Y-73576184D01*
X190951703Y-73411772D01*
X191015853Y-73256900D01*
X191108985Y-73117519D01*
X191227519Y-72998985D01*
X191366900Y-72905853D01*
X191521772Y-72841703D01*
X191686184Y-72809000D01*
X191853816Y-72809000D01*
X192018228Y-72841703D01*
G37*
G36*
X184993228Y-70301703D02*
G01*
X185148100Y-70365853D01*
X185287481Y-70458985D01*
X185406015Y-70577519D01*
X185499147Y-70716900D01*
X185563297Y-70871772D01*
X185596000Y-71036184D01*
X185596000Y-71203816D01*
X185563297Y-71368228D01*
X185499147Y-71523100D01*
X185406015Y-71662481D01*
X185287481Y-71781015D01*
X185148100Y-71874147D01*
X184993228Y-71938297D01*
X184828816Y-71971000D01*
X184661184Y-71971000D01*
X184496772Y-71938297D01*
X184341900Y-71874147D01*
X184202519Y-71781015D01*
X184083985Y-71662481D01*
X183990853Y-71523100D01*
X183926703Y-71368228D01*
X183894000Y-71203816D01*
X183894000Y-71036184D01*
X183926703Y-70871772D01*
X183990853Y-70716900D01*
X184083985Y-70577519D01*
X184202519Y-70458985D01*
X184341900Y-70365853D01*
X184496772Y-70301703D01*
X184661184Y-70269000D01*
X184828816Y-70269000D01*
X184993228Y-70301703D01*
G37*
G36*
X183096000Y-71971000D02*
G01*
X181394000Y-71971000D01*
X181394000Y-70269000D01*
X183096000Y-70269000D01*
X183096000Y-71971000D01*
G37*
G36*
X192018228Y-67841703D02*
G01*
X192173100Y-67905853D01*
X192312481Y-67998985D01*
X192431015Y-68117519D01*
X192524147Y-68256900D01*
X192588297Y-68411772D01*
X192621000Y-68576184D01*
X192621000Y-68743816D01*
X192588297Y-68908228D01*
X192524147Y-69063100D01*
X192431015Y-69202481D01*
X192312481Y-69321015D01*
X192173100Y-69414147D01*
X192018228Y-69478297D01*
X191853816Y-69511000D01*
X191686184Y-69511000D01*
X191521772Y-69478297D01*
X191366900Y-69414147D01*
X191227519Y-69321015D01*
X191108985Y-69202481D01*
X191015853Y-69063100D01*
X190951703Y-68908228D01*
X190919000Y-68743816D01*
X190919000Y-68576184D01*
X190951703Y-68411772D01*
X191015853Y-68256900D01*
X191108985Y-68117519D01*
X191227519Y-67998985D01*
X191366900Y-67905853D01*
X191521772Y-67841703D01*
X191686184Y-67809000D01*
X191853816Y-67809000D01*
X192018228Y-67841703D01*
G37*
G36*
X182898228Y-46171703D02*
G01*
X183053100Y-46235853D01*
X183192481Y-46328985D01*
X183311015Y-46447519D01*
X183404147Y-46586900D01*
X183468297Y-46741772D01*
X183501000Y-46906184D01*
X183501000Y-47073816D01*
X183468297Y-47238228D01*
X183404147Y-47393100D01*
X183311015Y-47532481D01*
X183192481Y-47651015D01*
X183053100Y-47744147D01*
X182898228Y-47808297D01*
X182733816Y-47841000D01*
X182566184Y-47841000D01*
X182401772Y-47808297D01*
X182246900Y-47744147D01*
X182107519Y-47651015D01*
X181988985Y-47532481D01*
X181895853Y-47393100D01*
X181831703Y-47238228D01*
X181799000Y-47073816D01*
X181799000Y-46906184D01*
X181831703Y-46741772D01*
X181895853Y-46586900D01*
X181988985Y-46447519D01*
X182107519Y-46328985D01*
X182246900Y-46235853D01*
X182401772Y-46171703D01*
X182566184Y-46139000D01*
X182733816Y-46139000D01*
X182898228Y-46171703D01*
G37*
G36*
X186271000Y-47841000D02*
G01*
X184569000Y-47841000D01*
X184569000Y-46139000D01*
X186271000Y-46139000D01*
X186271000Y-47841000D01*
G37*
G36*
X177358228Y-46171703D02*
G01*
X177513100Y-46235853D01*
X177652481Y-46328985D01*
X177771015Y-46447519D01*
X177864147Y-46586900D01*
X177928297Y-46741772D01*
X177961000Y-46906184D01*
X177961000Y-47073816D01*
X177928297Y-47238228D01*
X177864147Y-47393100D01*
X177771015Y-47532481D01*
X177652481Y-47651015D01*
X177513100Y-47744147D01*
X177358228Y-47808297D01*
X177193816Y-47841000D01*
X177026184Y-47841000D01*
X176861772Y-47808297D01*
X176706900Y-47744147D01*
X176567519Y-47651015D01*
X176448985Y-47532481D01*
X176355853Y-47393100D01*
X176291703Y-47238228D01*
X176259000Y-47073816D01*
X176259000Y-46906184D01*
X176291703Y-46741772D01*
X176355853Y-46586900D01*
X176448985Y-46447519D01*
X176567519Y-46328985D01*
X176706900Y-46235853D01*
X176861772Y-46171703D01*
X177026184Y-46139000D01*
X177193816Y-46139000D01*
X177358228Y-46171703D01*
G37*
G36*
X174588228Y-46171703D02*
G01*
X174743100Y-46235853D01*
X174882481Y-46328985D01*
X175001015Y-46447519D01*
X175094147Y-46586900D01*
X175158297Y-46741772D01*
X175191000Y-46906184D01*
X175191000Y-47073816D01*
X175158297Y-47238228D01*
X175094147Y-47393100D01*
X175001015Y-47532481D01*
X174882481Y-47651015D01*
X174743100Y-47744147D01*
X174588228Y-47808297D01*
X174423816Y-47841000D01*
X174256184Y-47841000D01*
X174091772Y-47808297D01*
X173936900Y-47744147D01*
X173797519Y-47651015D01*
X173678985Y-47532481D01*
X173585853Y-47393100D01*
X173521703Y-47238228D01*
X173489000Y-47073816D01*
X173489000Y-46906184D01*
X173521703Y-46741772D01*
X173585853Y-46586900D01*
X173678985Y-46447519D01*
X173797519Y-46328985D01*
X173936900Y-46235853D01*
X174091772Y-46171703D01*
X174256184Y-46139000D01*
X174423816Y-46139000D01*
X174588228Y-46171703D01*
G37*
G36*
X171818228Y-46171703D02*
G01*
X171973100Y-46235853D01*
X172112481Y-46328985D01*
X172231015Y-46447519D01*
X172324147Y-46586900D01*
X172388297Y-46741772D01*
X172421000Y-46906184D01*
X172421000Y-47073816D01*
X172388297Y-47238228D01*
X172324147Y-47393100D01*
X172231015Y-47532481D01*
X172112481Y-47651015D01*
X171973100Y-47744147D01*
X171818228Y-47808297D01*
X171653816Y-47841000D01*
X171486184Y-47841000D01*
X171321772Y-47808297D01*
X171166900Y-47744147D01*
X171027519Y-47651015D01*
X170908985Y-47532481D01*
X170815853Y-47393100D01*
X170751703Y-47238228D01*
X170719000Y-47073816D01*
X170719000Y-46906184D01*
X170751703Y-46741772D01*
X170815853Y-46586900D01*
X170908985Y-46447519D01*
X171027519Y-46328985D01*
X171166900Y-46235853D01*
X171321772Y-46171703D01*
X171486184Y-46139000D01*
X171653816Y-46139000D01*
X171818228Y-46171703D01*
G37*
G36*
X169048228Y-46171703D02*
G01*
X169203100Y-46235853D01*
X169342481Y-46328985D01*
X169461015Y-46447519D01*
X169554147Y-46586900D01*
X169618297Y-46741772D01*
X169651000Y-46906184D01*
X169651000Y-47073816D01*
X169618297Y-47238228D01*
X169554147Y-47393100D01*
X169461015Y-47532481D01*
X169342481Y-47651015D01*
X169203100Y-47744147D01*
X169048228Y-47808297D01*
X168883816Y-47841000D01*
X168716184Y-47841000D01*
X168551772Y-47808297D01*
X168396900Y-47744147D01*
X168257519Y-47651015D01*
X168138985Y-47532481D01*
X168045853Y-47393100D01*
X167981703Y-47238228D01*
X167949000Y-47073816D01*
X167949000Y-46906184D01*
X167981703Y-46741772D01*
X168045853Y-46586900D01*
X168138985Y-46447519D01*
X168257519Y-46328985D01*
X168396900Y-46235853D01*
X168551772Y-46171703D01*
X168716184Y-46139000D01*
X168883816Y-46139000D01*
X169048228Y-46171703D01*
G37*
G36*
X166278228Y-46171703D02*
G01*
X166433100Y-46235853D01*
X166572481Y-46328985D01*
X166691015Y-46447519D01*
X166784147Y-46586900D01*
X166848297Y-46741772D01*
X166881000Y-46906184D01*
X166881000Y-47073816D01*
X166848297Y-47238228D01*
X166784147Y-47393100D01*
X166691015Y-47532481D01*
X166572481Y-47651015D01*
X166433100Y-47744147D01*
X166278228Y-47808297D01*
X166113816Y-47841000D01*
X165946184Y-47841000D01*
X165781772Y-47808297D01*
X165626900Y-47744147D01*
X165487519Y-47651015D01*
X165368985Y-47532481D01*
X165275853Y-47393100D01*
X165211703Y-47238228D01*
X165179000Y-47073816D01*
X165179000Y-46906184D01*
X165211703Y-46741772D01*
X165275853Y-46586900D01*
X165368985Y-46447519D01*
X165487519Y-46328985D01*
X165626900Y-46235853D01*
X165781772Y-46171703D01*
X165946184Y-46139000D01*
X166113816Y-46139000D01*
X166278228Y-46171703D01*
G37*
G36*
X163508228Y-46171703D02*
G01*
X163663100Y-46235853D01*
X163802481Y-46328985D01*
X163921015Y-46447519D01*
X164014147Y-46586900D01*
X164078297Y-46741772D01*
X164111000Y-46906184D01*
X164111000Y-47073816D01*
X164078297Y-47238228D01*
X164014147Y-47393100D01*
X163921015Y-47532481D01*
X163802481Y-47651015D01*
X163663100Y-47744147D01*
X163508228Y-47808297D01*
X163343816Y-47841000D01*
X163176184Y-47841000D01*
X163011772Y-47808297D01*
X162856900Y-47744147D01*
X162717519Y-47651015D01*
X162598985Y-47532481D01*
X162505853Y-47393100D01*
X162441703Y-47238228D01*
X162409000Y-47073816D01*
X162409000Y-46906184D01*
X162441703Y-46741772D01*
X162505853Y-46586900D01*
X162598985Y-46447519D01*
X162717519Y-46328985D01*
X162856900Y-46235853D01*
X163011772Y-46171703D01*
X163176184Y-46139000D01*
X163343816Y-46139000D01*
X163508228Y-46171703D01*
G37*
G36*
X160738228Y-46171703D02*
G01*
X160893100Y-46235853D01*
X161032481Y-46328985D01*
X161151015Y-46447519D01*
X161244147Y-46586900D01*
X161308297Y-46741772D01*
X161341000Y-46906184D01*
X161341000Y-47073816D01*
X161308297Y-47238228D01*
X161244147Y-47393100D01*
X161151015Y-47532481D01*
X161032481Y-47651015D01*
X160893100Y-47744147D01*
X160738228Y-47808297D01*
X160573816Y-47841000D01*
X160406184Y-47841000D01*
X160241772Y-47808297D01*
X160086900Y-47744147D01*
X159947519Y-47651015D01*
X159828985Y-47532481D01*
X159735853Y-47393100D01*
X159671703Y-47238228D01*
X159639000Y-47073816D01*
X159639000Y-46906184D01*
X159671703Y-46741772D01*
X159735853Y-46586900D01*
X159828985Y-46447519D01*
X159947519Y-46328985D01*
X160086900Y-46235853D01*
X160241772Y-46171703D01*
X160406184Y-46139000D01*
X160573816Y-46139000D01*
X160738228Y-46171703D01*
G37*
G36*
X155198228Y-46171703D02*
G01*
X155353100Y-46235853D01*
X155492481Y-46328985D01*
X155611015Y-46447519D01*
X155704147Y-46586900D01*
X155768297Y-46741772D01*
X155801000Y-46906184D01*
X155801000Y-47073816D01*
X155768297Y-47238228D01*
X155704147Y-47393100D01*
X155611015Y-47532481D01*
X155492481Y-47651015D01*
X155353100Y-47744147D01*
X155198228Y-47808297D01*
X155033816Y-47841000D01*
X154866184Y-47841000D01*
X154701772Y-47808297D01*
X154546900Y-47744147D01*
X154407519Y-47651015D01*
X154288985Y-47532481D01*
X154195853Y-47393100D01*
X154131703Y-47238228D01*
X154099000Y-47073816D01*
X154099000Y-46906184D01*
X154131703Y-46741772D01*
X154195853Y-46586900D01*
X154288985Y-46447519D01*
X154407519Y-46328985D01*
X154546900Y-46235853D01*
X154701772Y-46171703D01*
X154866184Y-46139000D01*
X155033816Y-46139000D01*
X155198228Y-46171703D01*
G37*
G36*
X152428228Y-46171703D02*
G01*
X152583100Y-46235853D01*
X152722481Y-46328985D01*
X152841015Y-46447519D01*
X152934147Y-46586900D01*
X152998297Y-46741772D01*
X153031000Y-46906184D01*
X153031000Y-47073816D01*
X152998297Y-47238228D01*
X152934147Y-47393100D01*
X152841015Y-47532481D01*
X152722481Y-47651015D01*
X152583100Y-47744147D01*
X152428228Y-47808297D01*
X152263816Y-47841000D01*
X152096184Y-47841000D01*
X151931772Y-47808297D01*
X151776900Y-47744147D01*
X151637519Y-47651015D01*
X151518985Y-47532481D01*
X151425853Y-47393100D01*
X151361703Y-47238228D01*
X151329000Y-47073816D01*
X151329000Y-46906184D01*
X151361703Y-46741772D01*
X151425853Y-46586900D01*
X151518985Y-46447519D01*
X151637519Y-46328985D01*
X151776900Y-46235853D01*
X151931772Y-46171703D01*
X152096184Y-46139000D01*
X152263816Y-46139000D01*
X152428228Y-46171703D01*
G37*
G36*
X149658228Y-46171703D02*
G01*
X149813100Y-46235853D01*
X149952481Y-46328985D01*
X150071015Y-46447519D01*
X150164147Y-46586900D01*
X150228297Y-46741772D01*
X150261000Y-46906184D01*
X150261000Y-47073816D01*
X150228297Y-47238228D01*
X150164147Y-47393100D01*
X150071015Y-47532481D01*
X149952481Y-47651015D01*
X149813100Y-47744147D01*
X149658228Y-47808297D01*
X149493816Y-47841000D01*
X149326184Y-47841000D01*
X149161772Y-47808297D01*
X149006900Y-47744147D01*
X148867519Y-47651015D01*
X148748985Y-47532481D01*
X148655853Y-47393100D01*
X148591703Y-47238228D01*
X148559000Y-47073816D01*
X148559000Y-46906184D01*
X148591703Y-46741772D01*
X148655853Y-46586900D01*
X148748985Y-46447519D01*
X148867519Y-46328985D01*
X149006900Y-46235853D01*
X149161772Y-46171703D01*
X149326184Y-46139000D01*
X149493816Y-46139000D01*
X149658228Y-46171703D01*
G37*
G36*
X146888228Y-46171703D02*
G01*
X147043100Y-46235853D01*
X147182481Y-46328985D01*
X147301015Y-46447519D01*
X147394147Y-46586900D01*
X147458297Y-46741772D01*
X147491000Y-46906184D01*
X147491000Y-47073816D01*
X147458297Y-47238228D01*
X147394147Y-47393100D01*
X147301015Y-47532481D01*
X147182481Y-47651015D01*
X147043100Y-47744147D01*
X146888228Y-47808297D01*
X146723816Y-47841000D01*
X146556184Y-47841000D01*
X146391772Y-47808297D01*
X146236900Y-47744147D01*
X146097519Y-47651015D01*
X145978985Y-47532481D01*
X145885853Y-47393100D01*
X145821703Y-47238228D01*
X145789000Y-47073816D01*
X145789000Y-46906184D01*
X145821703Y-46741772D01*
X145885853Y-46586900D01*
X145978985Y-46447519D01*
X146097519Y-46328985D01*
X146236900Y-46235853D01*
X146391772Y-46171703D01*
X146556184Y-46139000D01*
X146723816Y-46139000D01*
X146888228Y-46171703D01*
G37*
G36*
X144118228Y-46171703D02*
G01*
X144273100Y-46235853D01*
X144412481Y-46328985D01*
X144531015Y-46447519D01*
X144624147Y-46586900D01*
X144688297Y-46741772D01*
X144721000Y-46906184D01*
X144721000Y-47073816D01*
X144688297Y-47238228D01*
X144624147Y-47393100D01*
X144531015Y-47532481D01*
X144412481Y-47651015D01*
X144273100Y-47744147D01*
X144118228Y-47808297D01*
X143953816Y-47841000D01*
X143786184Y-47841000D01*
X143621772Y-47808297D01*
X143466900Y-47744147D01*
X143327519Y-47651015D01*
X143208985Y-47532481D01*
X143115853Y-47393100D01*
X143051703Y-47238228D01*
X143019000Y-47073816D01*
X143019000Y-46906184D01*
X143051703Y-46741772D01*
X143115853Y-46586900D01*
X143208985Y-46447519D01*
X143327519Y-46328985D01*
X143466900Y-46235853D01*
X143621772Y-46171703D01*
X143786184Y-46139000D01*
X143953816Y-46139000D01*
X144118228Y-46171703D01*
G37*
G36*
X141348228Y-46171703D02*
G01*
X141503100Y-46235853D01*
X141642481Y-46328985D01*
X141761015Y-46447519D01*
X141854147Y-46586900D01*
X141918297Y-46741772D01*
X141951000Y-46906184D01*
X141951000Y-47073816D01*
X141918297Y-47238228D01*
X141854147Y-47393100D01*
X141761015Y-47532481D01*
X141642481Y-47651015D01*
X141503100Y-47744147D01*
X141348228Y-47808297D01*
X141183816Y-47841000D01*
X141016184Y-47841000D01*
X140851772Y-47808297D01*
X140696900Y-47744147D01*
X140557519Y-47651015D01*
X140438985Y-47532481D01*
X140345853Y-47393100D01*
X140281703Y-47238228D01*
X140249000Y-47073816D01*
X140249000Y-46906184D01*
X140281703Y-46741772D01*
X140345853Y-46586900D01*
X140438985Y-46447519D01*
X140557519Y-46328985D01*
X140696900Y-46235853D01*
X140851772Y-46171703D01*
X141016184Y-46139000D01*
X141183816Y-46139000D01*
X141348228Y-46171703D01*
G37*
G36*
X138578228Y-46171703D02*
G01*
X138733100Y-46235853D01*
X138872481Y-46328985D01*
X138991015Y-46447519D01*
X139084147Y-46586900D01*
X139148297Y-46741772D01*
X139181000Y-46906184D01*
X139181000Y-47073816D01*
X139148297Y-47238228D01*
X139084147Y-47393100D01*
X138991015Y-47532481D01*
X138872481Y-47651015D01*
X138733100Y-47744147D01*
X138578228Y-47808297D01*
X138413816Y-47841000D01*
X138246184Y-47841000D01*
X138081772Y-47808297D01*
X137926900Y-47744147D01*
X137787519Y-47651015D01*
X137668985Y-47532481D01*
X137575853Y-47393100D01*
X137511703Y-47238228D01*
X137479000Y-47073816D01*
X137479000Y-46906184D01*
X137511703Y-46741772D01*
X137575853Y-46586900D01*
X137668985Y-46447519D01*
X137787519Y-46328985D01*
X137926900Y-46235853D01*
X138081772Y-46171703D01*
X138246184Y-46139000D01*
X138413816Y-46139000D01*
X138578228Y-46171703D01*
G37*
G36*
X180128228Y-46171703D02*
G01*
X180283100Y-46235853D01*
X180422481Y-46328985D01*
X180541015Y-46447519D01*
X180634147Y-46586900D01*
X180698297Y-46741772D01*
X180731000Y-46906184D01*
X180731000Y-47073816D01*
X180698297Y-47238228D01*
X180634147Y-47393100D01*
X180541015Y-47532481D01*
X180422481Y-47651015D01*
X180283100Y-47744147D01*
X180128228Y-47808297D01*
X179963816Y-47841000D01*
X179796184Y-47841000D01*
X179631772Y-47808297D01*
X179476900Y-47744147D01*
X179337519Y-47651015D01*
X179218985Y-47532481D01*
X179125853Y-47393100D01*
X179061703Y-47238228D01*
X179029000Y-47073816D01*
X179029000Y-46906184D01*
X179061703Y-46741772D01*
X179125853Y-46586900D01*
X179218985Y-46447519D01*
X179337519Y-46328985D01*
X179476900Y-46235853D01*
X179631772Y-46171703D01*
X179796184Y-46139000D01*
X179963816Y-46139000D01*
X180128228Y-46171703D01*
G37*
G36*
X135808228Y-46171703D02*
G01*
X135963100Y-46235853D01*
X136102481Y-46328985D01*
X136221015Y-46447519D01*
X136314147Y-46586900D01*
X136378297Y-46741772D01*
X136411000Y-46906184D01*
X136411000Y-47073816D01*
X136378297Y-47238228D01*
X136314147Y-47393100D01*
X136221015Y-47532481D01*
X136102481Y-47651015D01*
X135963100Y-47744147D01*
X135808228Y-47808297D01*
X135643816Y-47841000D01*
X135476184Y-47841000D01*
X135311772Y-47808297D01*
X135156900Y-47744147D01*
X135017519Y-47651015D01*
X134898985Y-47532481D01*
X134805853Y-47393100D01*
X134741703Y-47238228D01*
X134709000Y-47073816D01*
X134709000Y-46906184D01*
X134741703Y-46741772D01*
X134805853Y-46586900D01*
X134898985Y-46447519D01*
X135017519Y-46328985D01*
X135156900Y-46235853D01*
X135311772Y-46171703D01*
X135476184Y-46139000D01*
X135643816Y-46139000D01*
X135808228Y-46171703D01*
G37*
G36*
X157968228Y-46171703D02*
G01*
X158123100Y-46235853D01*
X158262481Y-46328985D01*
X158381015Y-46447519D01*
X158474147Y-46586900D01*
X158538297Y-46741772D01*
X158571000Y-46906184D01*
X158571000Y-47073816D01*
X158538297Y-47238228D01*
X158474147Y-47393100D01*
X158381015Y-47532481D01*
X158262481Y-47651015D01*
X158123100Y-47744147D01*
X157968228Y-47808297D01*
X157803816Y-47841000D01*
X157636184Y-47841000D01*
X157471772Y-47808297D01*
X157316900Y-47744147D01*
X157177519Y-47651015D01*
X157058985Y-47532481D01*
X156965853Y-47393100D01*
X156901703Y-47238228D01*
X156869000Y-47073816D01*
X156869000Y-46906184D01*
X156901703Y-46741772D01*
X156965853Y-46586900D01*
X157058985Y-46447519D01*
X157177519Y-46328985D01*
X157316900Y-46235853D01*
X157471772Y-46171703D01*
X157636184Y-46139000D01*
X157803816Y-46139000D01*
X157968228Y-46171703D01*
G37*
G36*
X192838254Y-43597818D02*
G01*
X193198170Y-43746900D01*
X193211513Y-43752427D01*
X193547436Y-43976884D01*
X193833116Y-44262564D01*
X193923765Y-44398229D01*
X194057574Y-44598489D01*
X194212182Y-44971746D01*
X194291000Y-45367993D01*
X194291000Y-45772007D01*
X194212182Y-46168254D01*
X194096506Y-46447520D01*
X194057573Y-46541513D01*
X193833116Y-46877436D01*
X193547436Y-47163116D01*
X193211513Y-47387573D01*
X193211512Y-47387574D01*
X193211511Y-47387574D01*
X192838254Y-47542182D01*
X192442007Y-47621000D01*
X192037993Y-47621000D01*
X191641746Y-47542182D01*
X191268489Y-47387574D01*
X191268488Y-47387574D01*
X191268487Y-47387573D01*
X190932564Y-47163116D01*
X190646884Y-46877436D01*
X190422427Y-46541513D01*
X190383494Y-46447520D01*
X190267818Y-46168254D01*
X190189000Y-45772007D01*
X190189000Y-45367993D01*
X190267818Y-44971746D01*
X190422426Y-44598489D01*
X190556236Y-44398229D01*
X190646884Y-44262564D01*
X190932564Y-43976884D01*
X191268487Y-43752427D01*
X191281830Y-43746900D01*
X191641746Y-43597818D01*
X192037993Y-43519000D01*
X192442007Y-43519000D01*
X192838254Y-43597818D01*
G37*
G36*
X129338254Y-43597818D02*
G01*
X129698170Y-43746900D01*
X129711513Y-43752427D01*
X130047436Y-43976884D01*
X130333116Y-44262564D01*
X130423765Y-44398229D01*
X130557574Y-44598489D01*
X130712182Y-44971746D01*
X130791000Y-45367993D01*
X130791000Y-45772007D01*
X130712182Y-46168254D01*
X130596506Y-46447520D01*
X130557573Y-46541513D01*
X130333116Y-46877436D01*
X130047436Y-47163116D01*
X129711513Y-47387573D01*
X129711512Y-47387574D01*
X129711511Y-47387574D01*
X129338254Y-47542182D01*
X128942007Y-47621000D01*
X128537993Y-47621000D01*
X128141746Y-47542182D01*
X127768489Y-47387574D01*
X127768488Y-47387574D01*
X127768487Y-47387573D01*
X127432564Y-47163116D01*
X127146884Y-46877436D01*
X126922427Y-46541513D01*
X126883494Y-46447520D01*
X126767818Y-46168254D01*
X126689000Y-45772007D01*
X126689000Y-45367993D01*
X126767818Y-44971746D01*
X126922426Y-44598489D01*
X127056236Y-44398229D01*
X127146884Y-44262564D01*
X127432564Y-43976884D01*
X127768487Y-43752427D01*
X127781830Y-43746900D01*
X128141746Y-43597818D01*
X128537993Y-43519000D01*
X128942007Y-43519000D01*
X129338254Y-43597818D01*
G37*
G36*
X173203228Y-43331703D02*
G01*
X173358100Y-43395853D01*
X173497481Y-43488985D01*
X173616015Y-43607519D01*
X173709147Y-43746900D01*
X173773297Y-43901772D01*
X173806000Y-44066184D01*
X173806000Y-44233816D01*
X173773297Y-44398228D01*
X173709147Y-44553100D01*
X173616015Y-44692481D01*
X173497481Y-44811015D01*
X173358100Y-44904147D01*
X173203228Y-44968297D01*
X173038816Y-45001000D01*
X172871184Y-45001000D01*
X172706772Y-44968297D01*
X172551900Y-44904147D01*
X172412519Y-44811015D01*
X172293985Y-44692481D01*
X172200853Y-44553100D01*
X172136703Y-44398228D01*
X172104000Y-44233816D01*
X172104000Y-44066184D01*
X172136703Y-43901772D01*
X172200853Y-43746900D01*
X172293985Y-43607519D01*
X172412519Y-43488985D01*
X172551900Y-43395853D01*
X172706772Y-43331703D01*
X172871184Y-43299000D01*
X173038816Y-43299000D01*
X173203228Y-43331703D01*
G37*
G36*
X139963228Y-43331703D02*
G01*
X140118100Y-43395853D01*
X140257481Y-43488985D01*
X140376015Y-43607519D01*
X140469147Y-43746900D01*
X140533297Y-43901772D01*
X140566000Y-44066184D01*
X140566000Y-44233816D01*
X140533297Y-44398228D01*
X140469147Y-44553100D01*
X140376015Y-44692481D01*
X140257481Y-44811015D01*
X140118100Y-44904147D01*
X139963228Y-44968297D01*
X139798816Y-45001000D01*
X139631184Y-45001000D01*
X139466772Y-44968297D01*
X139311900Y-44904147D01*
X139172519Y-44811015D01*
X139053985Y-44692481D01*
X138960853Y-44553100D01*
X138896703Y-44398228D01*
X138864000Y-44233816D01*
X138864000Y-44066184D01*
X138896703Y-43901772D01*
X138960853Y-43746900D01*
X139053985Y-43607519D01*
X139172519Y-43488985D01*
X139311900Y-43395853D01*
X139466772Y-43331703D01*
X139631184Y-43299000D01*
X139798816Y-43299000D01*
X139963228Y-43331703D01*
G37*
G36*
X142733228Y-43331703D02*
G01*
X142888100Y-43395853D01*
X143027481Y-43488985D01*
X143146015Y-43607519D01*
X143239147Y-43746900D01*
X143303297Y-43901772D01*
X143336000Y-44066184D01*
X143336000Y-44233816D01*
X143303297Y-44398228D01*
X143239147Y-44553100D01*
X143146015Y-44692481D01*
X143027481Y-44811015D01*
X142888100Y-44904147D01*
X142733228Y-44968297D01*
X142568816Y-45001000D01*
X142401184Y-45001000D01*
X142236772Y-44968297D01*
X142081900Y-44904147D01*
X141942519Y-44811015D01*
X141823985Y-44692481D01*
X141730853Y-44553100D01*
X141666703Y-44398228D01*
X141634000Y-44233816D01*
X141634000Y-44066184D01*
X141666703Y-43901772D01*
X141730853Y-43746900D01*
X141823985Y-43607519D01*
X141942519Y-43488985D01*
X142081900Y-43395853D01*
X142236772Y-43331703D01*
X142401184Y-43299000D01*
X142568816Y-43299000D01*
X142733228Y-43331703D01*
G37*
G36*
X145503228Y-43331703D02*
G01*
X145658100Y-43395853D01*
X145797481Y-43488985D01*
X145916015Y-43607519D01*
X146009147Y-43746900D01*
X146073297Y-43901772D01*
X146106000Y-44066184D01*
X146106000Y-44233816D01*
X146073297Y-44398228D01*
X146009147Y-44553100D01*
X145916015Y-44692481D01*
X145797481Y-44811015D01*
X145658100Y-44904147D01*
X145503228Y-44968297D01*
X145338816Y-45001000D01*
X145171184Y-45001000D01*
X145006772Y-44968297D01*
X144851900Y-44904147D01*
X144712519Y-44811015D01*
X144593985Y-44692481D01*
X144500853Y-44553100D01*
X144436703Y-44398228D01*
X144404000Y-44233816D01*
X144404000Y-44066184D01*
X144436703Y-43901772D01*
X144500853Y-43746900D01*
X144593985Y-43607519D01*
X144712519Y-43488985D01*
X144851900Y-43395853D01*
X145006772Y-43331703D01*
X145171184Y-43299000D01*
X145338816Y-43299000D01*
X145503228Y-43331703D01*
G37*
G36*
X148273228Y-43331703D02*
G01*
X148428100Y-43395853D01*
X148567481Y-43488985D01*
X148686015Y-43607519D01*
X148779147Y-43746900D01*
X148843297Y-43901772D01*
X148876000Y-44066184D01*
X148876000Y-44233816D01*
X148843297Y-44398228D01*
X148779147Y-44553100D01*
X148686015Y-44692481D01*
X148567481Y-44811015D01*
X148428100Y-44904147D01*
X148273228Y-44968297D01*
X148108816Y-45001000D01*
X147941184Y-45001000D01*
X147776772Y-44968297D01*
X147621900Y-44904147D01*
X147482519Y-44811015D01*
X147363985Y-44692481D01*
X147270853Y-44553100D01*
X147206703Y-44398228D01*
X147174000Y-44233816D01*
X147174000Y-44066184D01*
X147206703Y-43901772D01*
X147270853Y-43746900D01*
X147363985Y-43607519D01*
X147482519Y-43488985D01*
X147621900Y-43395853D01*
X147776772Y-43331703D01*
X147941184Y-43299000D01*
X148108816Y-43299000D01*
X148273228Y-43331703D01*
G37*
G36*
X151043228Y-43331703D02*
G01*
X151198100Y-43395853D01*
X151337481Y-43488985D01*
X151456015Y-43607519D01*
X151549147Y-43746900D01*
X151613297Y-43901772D01*
X151646000Y-44066184D01*
X151646000Y-44233816D01*
X151613297Y-44398228D01*
X151549147Y-44553100D01*
X151456015Y-44692481D01*
X151337481Y-44811015D01*
X151198100Y-44904147D01*
X151043228Y-44968297D01*
X150878816Y-45001000D01*
X150711184Y-45001000D01*
X150546772Y-44968297D01*
X150391900Y-44904147D01*
X150252519Y-44811015D01*
X150133985Y-44692481D01*
X150040853Y-44553100D01*
X149976703Y-44398228D01*
X149944000Y-44233816D01*
X149944000Y-44066184D01*
X149976703Y-43901772D01*
X150040853Y-43746900D01*
X150133985Y-43607519D01*
X150252519Y-43488985D01*
X150391900Y-43395853D01*
X150546772Y-43331703D01*
X150711184Y-43299000D01*
X150878816Y-43299000D01*
X151043228Y-43331703D01*
G37*
G36*
X153813228Y-43331703D02*
G01*
X153968100Y-43395853D01*
X154107481Y-43488985D01*
X154226015Y-43607519D01*
X154319147Y-43746900D01*
X154383297Y-43901772D01*
X154416000Y-44066184D01*
X154416000Y-44233816D01*
X154383297Y-44398228D01*
X154319147Y-44553100D01*
X154226015Y-44692481D01*
X154107481Y-44811015D01*
X153968100Y-44904147D01*
X153813228Y-44968297D01*
X153648816Y-45001000D01*
X153481184Y-45001000D01*
X153316772Y-44968297D01*
X153161900Y-44904147D01*
X153022519Y-44811015D01*
X152903985Y-44692481D01*
X152810853Y-44553100D01*
X152746703Y-44398228D01*
X152714000Y-44233816D01*
X152714000Y-44066184D01*
X152746703Y-43901772D01*
X152810853Y-43746900D01*
X152903985Y-43607519D01*
X153022519Y-43488985D01*
X153161900Y-43395853D01*
X153316772Y-43331703D01*
X153481184Y-43299000D01*
X153648816Y-43299000D01*
X153813228Y-43331703D01*
G37*
G36*
X156583228Y-43331703D02*
G01*
X156738100Y-43395853D01*
X156877481Y-43488985D01*
X156996015Y-43607519D01*
X157089147Y-43746900D01*
X157153297Y-43901772D01*
X157186000Y-44066184D01*
X157186000Y-44233816D01*
X157153297Y-44398228D01*
X157089147Y-44553100D01*
X156996015Y-44692481D01*
X156877481Y-44811015D01*
X156738100Y-44904147D01*
X156583228Y-44968297D01*
X156418816Y-45001000D01*
X156251184Y-45001000D01*
X156086772Y-44968297D01*
X155931900Y-44904147D01*
X155792519Y-44811015D01*
X155673985Y-44692481D01*
X155580853Y-44553100D01*
X155516703Y-44398228D01*
X155484000Y-44233816D01*
X155484000Y-44066184D01*
X155516703Y-43901772D01*
X155580853Y-43746900D01*
X155673985Y-43607519D01*
X155792519Y-43488985D01*
X155931900Y-43395853D01*
X156086772Y-43331703D01*
X156251184Y-43299000D01*
X156418816Y-43299000D01*
X156583228Y-43331703D01*
G37*
G36*
X159353228Y-43331703D02*
G01*
X159508100Y-43395853D01*
X159647481Y-43488985D01*
X159766015Y-43607519D01*
X159859147Y-43746900D01*
X159923297Y-43901772D01*
X159956000Y-44066184D01*
X159956000Y-44233816D01*
X159923297Y-44398228D01*
X159859147Y-44553100D01*
X159766015Y-44692481D01*
X159647481Y-44811015D01*
X159508100Y-44904147D01*
X159353228Y-44968297D01*
X159188816Y-45001000D01*
X159021184Y-45001000D01*
X158856772Y-44968297D01*
X158701900Y-44904147D01*
X158562519Y-44811015D01*
X158443985Y-44692481D01*
X158350853Y-44553100D01*
X158286703Y-44398228D01*
X158254000Y-44233816D01*
X158254000Y-44066184D01*
X158286703Y-43901772D01*
X158350853Y-43746900D01*
X158443985Y-43607519D01*
X158562519Y-43488985D01*
X158701900Y-43395853D01*
X158856772Y-43331703D01*
X159021184Y-43299000D01*
X159188816Y-43299000D01*
X159353228Y-43331703D01*
G37*
G36*
X162123228Y-43331703D02*
G01*
X162278100Y-43395853D01*
X162417481Y-43488985D01*
X162536015Y-43607519D01*
X162629147Y-43746900D01*
X162693297Y-43901772D01*
X162726000Y-44066184D01*
X162726000Y-44233816D01*
X162693297Y-44398228D01*
X162629147Y-44553100D01*
X162536015Y-44692481D01*
X162417481Y-44811015D01*
X162278100Y-44904147D01*
X162123228Y-44968297D01*
X161958816Y-45001000D01*
X161791184Y-45001000D01*
X161626772Y-44968297D01*
X161471900Y-44904147D01*
X161332519Y-44811015D01*
X161213985Y-44692481D01*
X161120853Y-44553100D01*
X161056703Y-44398228D01*
X161024000Y-44233816D01*
X161024000Y-44066184D01*
X161056703Y-43901772D01*
X161120853Y-43746900D01*
X161213985Y-43607519D01*
X161332519Y-43488985D01*
X161471900Y-43395853D01*
X161626772Y-43331703D01*
X161791184Y-43299000D01*
X161958816Y-43299000D01*
X162123228Y-43331703D01*
G37*
G36*
X164893228Y-43331703D02*
G01*
X165048100Y-43395853D01*
X165187481Y-43488985D01*
X165306015Y-43607519D01*
X165399147Y-43746900D01*
X165463297Y-43901772D01*
X165496000Y-44066184D01*
X165496000Y-44233816D01*
X165463297Y-44398228D01*
X165399147Y-44553100D01*
X165306015Y-44692481D01*
X165187481Y-44811015D01*
X165048100Y-44904147D01*
X164893228Y-44968297D01*
X164728816Y-45001000D01*
X164561184Y-45001000D01*
X164396772Y-44968297D01*
X164241900Y-44904147D01*
X164102519Y-44811015D01*
X163983985Y-44692481D01*
X163890853Y-44553100D01*
X163826703Y-44398228D01*
X163794000Y-44233816D01*
X163794000Y-44066184D01*
X163826703Y-43901772D01*
X163890853Y-43746900D01*
X163983985Y-43607519D01*
X164102519Y-43488985D01*
X164241900Y-43395853D01*
X164396772Y-43331703D01*
X164561184Y-43299000D01*
X164728816Y-43299000D01*
X164893228Y-43331703D01*
G37*
G36*
X167663228Y-43331703D02*
G01*
X167818100Y-43395853D01*
X167957481Y-43488985D01*
X168076015Y-43607519D01*
X168169147Y-43746900D01*
X168233297Y-43901772D01*
X168266000Y-44066184D01*
X168266000Y-44233816D01*
X168233297Y-44398228D01*
X168169147Y-44553100D01*
X168076015Y-44692481D01*
X167957481Y-44811015D01*
X167818100Y-44904147D01*
X167663228Y-44968297D01*
X167498816Y-45001000D01*
X167331184Y-45001000D01*
X167166772Y-44968297D01*
X167011900Y-44904147D01*
X166872519Y-44811015D01*
X166753985Y-44692481D01*
X166660853Y-44553100D01*
X166596703Y-44398228D01*
X166564000Y-44233816D01*
X166564000Y-44066184D01*
X166596703Y-43901772D01*
X166660853Y-43746900D01*
X166753985Y-43607519D01*
X166872519Y-43488985D01*
X167011900Y-43395853D01*
X167166772Y-43331703D01*
X167331184Y-43299000D01*
X167498816Y-43299000D01*
X167663228Y-43331703D01*
G37*
G36*
X137193228Y-43331703D02*
G01*
X137348100Y-43395853D01*
X137487481Y-43488985D01*
X137606015Y-43607519D01*
X137699147Y-43746900D01*
X137763297Y-43901772D01*
X137796000Y-44066184D01*
X137796000Y-44233816D01*
X137763297Y-44398228D01*
X137699147Y-44553100D01*
X137606015Y-44692481D01*
X137487481Y-44811015D01*
X137348100Y-44904147D01*
X137193228Y-44968297D01*
X137028816Y-45001000D01*
X136861184Y-45001000D01*
X136696772Y-44968297D01*
X136541900Y-44904147D01*
X136402519Y-44811015D01*
X136283985Y-44692481D01*
X136190853Y-44553100D01*
X136126703Y-44398228D01*
X136094000Y-44233816D01*
X136094000Y-44066184D01*
X136126703Y-43901772D01*
X136190853Y-43746900D01*
X136283985Y-43607519D01*
X136402519Y-43488985D01*
X136541900Y-43395853D01*
X136696772Y-43331703D01*
X136861184Y-43299000D01*
X137028816Y-43299000D01*
X137193228Y-43331703D01*
G37*
G36*
X175973228Y-43331703D02*
G01*
X176128100Y-43395853D01*
X176267481Y-43488985D01*
X176386015Y-43607519D01*
X176479147Y-43746900D01*
X176543297Y-43901772D01*
X176576000Y-44066184D01*
X176576000Y-44233816D01*
X176543297Y-44398228D01*
X176479147Y-44553100D01*
X176386015Y-44692481D01*
X176267481Y-44811015D01*
X176128100Y-44904147D01*
X175973228Y-44968297D01*
X175808816Y-45001000D01*
X175641184Y-45001000D01*
X175476772Y-44968297D01*
X175321900Y-44904147D01*
X175182519Y-44811015D01*
X175063985Y-44692481D01*
X174970853Y-44553100D01*
X174906703Y-44398228D01*
X174874000Y-44233816D01*
X174874000Y-44066184D01*
X174906703Y-43901772D01*
X174970853Y-43746900D01*
X175063985Y-43607519D01*
X175182519Y-43488985D01*
X175321900Y-43395853D01*
X175476772Y-43331703D01*
X175641184Y-43299000D01*
X175808816Y-43299000D01*
X175973228Y-43331703D01*
G37*
G36*
X178743228Y-43331703D02*
G01*
X178898100Y-43395853D01*
X179037481Y-43488985D01*
X179156015Y-43607519D01*
X179249147Y-43746900D01*
X179313297Y-43901772D01*
X179346000Y-44066184D01*
X179346000Y-44233816D01*
X179313297Y-44398228D01*
X179249147Y-44553100D01*
X179156015Y-44692481D01*
X179037481Y-44811015D01*
X178898100Y-44904147D01*
X178743228Y-44968297D01*
X178578816Y-45001000D01*
X178411184Y-45001000D01*
X178246772Y-44968297D01*
X178091900Y-44904147D01*
X177952519Y-44811015D01*
X177833985Y-44692481D01*
X177740853Y-44553100D01*
X177676703Y-44398228D01*
X177644000Y-44233816D01*
X177644000Y-44066184D01*
X177676703Y-43901772D01*
X177740853Y-43746900D01*
X177833985Y-43607519D01*
X177952519Y-43488985D01*
X178091900Y-43395853D01*
X178246772Y-43331703D01*
X178411184Y-43299000D01*
X178578816Y-43299000D01*
X178743228Y-43331703D01*
G37*
G36*
X181513228Y-43331703D02*
G01*
X181668100Y-43395853D01*
X181807481Y-43488985D01*
X181926015Y-43607519D01*
X182019147Y-43746900D01*
X182083297Y-43901772D01*
X182116000Y-44066184D01*
X182116000Y-44233816D01*
X182083297Y-44398228D01*
X182019147Y-44553100D01*
X181926015Y-44692481D01*
X181807481Y-44811015D01*
X181668100Y-44904147D01*
X181513228Y-44968297D01*
X181348816Y-45001000D01*
X181181184Y-45001000D01*
X181016772Y-44968297D01*
X180861900Y-44904147D01*
X180722519Y-44811015D01*
X180603985Y-44692481D01*
X180510853Y-44553100D01*
X180446703Y-44398228D01*
X180414000Y-44233816D01*
X180414000Y-44066184D01*
X180446703Y-43901772D01*
X180510853Y-43746900D01*
X180603985Y-43607519D01*
X180722519Y-43488985D01*
X180861900Y-43395853D01*
X181016772Y-43331703D01*
X181181184Y-43299000D01*
X181348816Y-43299000D01*
X181513228Y-43331703D01*
G37*
G36*
X184283228Y-43331703D02*
G01*
X184438100Y-43395853D01*
X184577481Y-43488985D01*
X184696015Y-43607519D01*
X184789147Y-43746900D01*
X184853297Y-43901772D01*
X184886000Y-44066184D01*
X184886000Y-44233816D01*
X184853297Y-44398228D01*
X184789147Y-44553100D01*
X184696015Y-44692481D01*
X184577481Y-44811015D01*
X184438100Y-44904147D01*
X184283228Y-44968297D01*
X184118816Y-45001000D01*
X183951184Y-45001000D01*
X183786772Y-44968297D01*
X183631900Y-44904147D01*
X183492519Y-44811015D01*
X183373985Y-44692481D01*
X183280853Y-44553100D01*
X183216703Y-44398228D01*
X183184000Y-44233816D01*
X183184000Y-44066184D01*
X183216703Y-43901772D01*
X183280853Y-43746900D01*
X183373985Y-43607519D01*
X183492519Y-43488985D01*
X183631900Y-43395853D01*
X183786772Y-43331703D01*
X183951184Y-43299000D01*
X184118816Y-43299000D01*
X184283228Y-43331703D01*
G37*
G36*
X170433228Y-43331703D02*
G01*
X170588100Y-43395853D01*
X170727481Y-43488985D01*
X170846015Y-43607519D01*
X170939147Y-43746900D01*
X171003297Y-43901772D01*
X171036000Y-44066184D01*
X171036000Y-44233816D01*
X171003297Y-44398228D01*
X170939147Y-44553100D01*
X170846015Y-44692481D01*
X170727481Y-44811015D01*
X170588100Y-44904147D01*
X170433228Y-44968297D01*
X170268816Y-45001000D01*
X170101184Y-45001000D01*
X169936772Y-44968297D01*
X169781900Y-44904147D01*
X169642519Y-44811015D01*
X169523985Y-44692481D01*
X169430853Y-44553100D01*
X169366703Y-44398228D01*
X169334000Y-44233816D01*
X169334000Y-44066184D01*
X169366703Y-43901772D01*
X169430853Y-43746900D01*
X169523985Y-43607519D01*
X169642519Y-43488985D01*
X169781900Y-43395853D01*
X169936772Y-43331703D01*
X170101184Y-43299000D01*
X170268816Y-43299000D01*
X170433228Y-43331703D01*
G37*
M02*
