G04 #@! TF.GenerationSoftware,KiCad,Pcbnew,5.1.5-52549c5~84~ubuntu18.04.1*
G04 #@! TF.CreationDate,2020-04-22T17:59:46-07:00*
G04 #@! TF.ProjectId,rom,726f6d2e-6b69-4636-9164-5f7063625858,rev?*
G04 #@! TF.SameCoordinates,Original*
G04 #@! TF.FileFunction,Copper,L1,Top*
G04 #@! TF.FilePolarity,Positive*
%FSLAX46Y46*%
G04 Gerber Fmt 4.6, Leading zero omitted, Abs format (unit mm)*
G04 Created by KiCad (PCBNEW 5.1.5-52549c5~84~ubuntu18.04.1) date 2020-04-22 17:59:46*
%MOMM*%
%LPD*%
G04 APERTURE LIST*
%ADD10C,4.000000*%
%ADD11C,1.600000*%
%ADD12R,1.600000X1.600000*%
%ADD13C,0.100000*%
%ADD14R,1.100000X0.250000*%
%ADD15C,6.000000*%
%ADD16C,0.800000*%
%ADD17C,0.250000*%
%ADD18C,0.254000*%
G04 APERTURE END LIST*
D10*
X128740000Y-45570000D03*
X192240000Y-45570000D03*
D11*
X136945000Y-44150000D03*
X139715000Y-44150000D03*
X142485000Y-44150000D03*
X145255000Y-44150000D03*
X148025000Y-44150000D03*
X150795000Y-44150000D03*
X153565000Y-44150000D03*
X156335000Y-44150000D03*
X159105000Y-44150000D03*
X161875000Y-44150000D03*
X164645000Y-44150000D03*
X167415000Y-44150000D03*
X170185000Y-44150000D03*
X172955000Y-44150000D03*
X175725000Y-44150000D03*
X178495000Y-44150000D03*
X181265000Y-44150000D03*
X184035000Y-44150000D03*
X135560000Y-46990000D03*
X138330000Y-46990000D03*
X141100000Y-46990000D03*
X143870000Y-46990000D03*
X146640000Y-46990000D03*
X149410000Y-46990000D03*
X152180000Y-46990000D03*
X154950000Y-46990000D03*
X157720000Y-46990000D03*
X160490000Y-46990000D03*
X163260000Y-46990000D03*
X166030000Y-46990000D03*
X168800000Y-46990000D03*
X171570000Y-46990000D03*
X174340000Y-46990000D03*
X177110000Y-46990000D03*
X179880000Y-46990000D03*
X182650000Y-46990000D03*
D12*
X185420000Y-46990000D03*
G04 #@! TA.AperFunction,SMDPad,CuDef*
D13*
G36*
X169947504Y-75834204D02*
G01*
X169971773Y-75837804D01*
X169995571Y-75843765D01*
X170018671Y-75852030D01*
X170040849Y-75862520D01*
X170061893Y-75875133D01*
X170081598Y-75889747D01*
X170099777Y-75906223D01*
X170116253Y-75924402D01*
X170130867Y-75944107D01*
X170143480Y-75965151D01*
X170153970Y-75987329D01*
X170162235Y-76010429D01*
X170168196Y-76034227D01*
X170171796Y-76058496D01*
X170173000Y-76083000D01*
X170173000Y-77333000D01*
X170171796Y-77357504D01*
X170168196Y-77381773D01*
X170162235Y-77405571D01*
X170153970Y-77428671D01*
X170143480Y-77450849D01*
X170130867Y-77471893D01*
X170116253Y-77491598D01*
X170099777Y-77509777D01*
X170081598Y-77526253D01*
X170061893Y-77540867D01*
X170040849Y-77553480D01*
X170018671Y-77563970D01*
X169995571Y-77572235D01*
X169971773Y-77578196D01*
X169947504Y-77581796D01*
X169923000Y-77583000D01*
X169173000Y-77583000D01*
X169148496Y-77581796D01*
X169124227Y-77578196D01*
X169100429Y-77572235D01*
X169077329Y-77563970D01*
X169055151Y-77553480D01*
X169034107Y-77540867D01*
X169014402Y-77526253D01*
X168996223Y-77509777D01*
X168979747Y-77491598D01*
X168965133Y-77471893D01*
X168952520Y-77450849D01*
X168942030Y-77428671D01*
X168933765Y-77405571D01*
X168927804Y-77381773D01*
X168924204Y-77357504D01*
X168923000Y-77333000D01*
X168923000Y-76083000D01*
X168924204Y-76058496D01*
X168927804Y-76034227D01*
X168933765Y-76010429D01*
X168942030Y-75987329D01*
X168952520Y-75965151D01*
X168965133Y-75944107D01*
X168979747Y-75924402D01*
X168996223Y-75906223D01*
X169014402Y-75889747D01*
X169034107Y-75875133D01*
X169055151Y-75862520D01*
X169077329Y-75852030D01*
X169100429Y-75843765D01*
X169124227Y-75837804D01*
X169148496Y-75834204D01*
X169173000Y-75833000D01*
X169923000Y-75833000D01*
X169947504Y-75834204D01*
G37*
G04 #@! TD.AperFunction*
G04 #@! TA.AperFunction,SMDPad,CuDef*
G36*
X167147504Y-75834204D02*
G01*
X167171773Y-75837804D01*
X167195571Y-75843765D01*
X167218671Y-75852030D01*
X167240849Y-75862520D01*
X167261893Y-75875133D01*
X167281598Y-75889747D01*
X167299777Y-75906223D01*
X167316253Y-75924402D01*
X167330867Y-75944107D01*
X167343480Y-75965151D01*
X167353970Y-75987329D01*
X167362235Y-76010429D01*
X167368196Y-76034227D01*
X167371796Y-76058496D01*
X167373000Y-76083000D01*
X167373000Y-77333000D01*
X167371796Y-77357504D01*
X167368196Y-77381773D01*
X167362235Y-77405571D01*
X167353970Y-77428671D01*
X167343480Y-77450849D01*
X167330867Y-77471893D01*
X167316253Y-77491598D01*
X167299777Y-77509777D01*
X167281598Y-77526253D01*
X167261893Y-77540867D01*
X167240849Y-77553480D01*
X167218671Y-77563970D01*
X167195571Y-77572235D01*
X167171773Y-77578196D01*
X167147504Y-77581796D01*
X167123000Y-77583000D01*
X166373000Y-77583000D01*
X166348496Y-77581796D01*
X166324227Y-77578196D01*
X166300429Y-77572235D01*
X166277329Y-77563970D01*
X166255151Y-77553480D01*
X166234107Y-77540867D01*
X166214402Y-77526253D01*
X166196223Y-77509777D01*
X166179747Y-77491598D01*
X166165133Y-77471893D01*
X166152520Y-77450849D01*
X166142030Y-77428671D01*
X166133765Y-77405571D01*
X166127804Y-77381773D01*
X166124204Y-77357504D01*
X166123000Y-77333000D01*
X166123000Y-76083000D01*
X166124204Y-76058496D01*
X166127804Y-76034227D01*
X166133765Y-76010429D01*
X166142030Y-75987329D01*
X166152520Y-75965151D01*
X166165133Y-75944107D01*
X166179747Y-75924402D01*
X166196223Y-75906223D01*
X166214402Y-75889747D01*
X166234107Y-75875133D01*
X166255151Y-75862520D01*
X166277329Y-75852030D01*
X166300429Y-75843765D01*
X166324227Y-75837804D01*
X166348496Y-75834204D01*
X166373000Y-75833000D01*
X167123000Y-75833000D01*
X167147504Y-75834204D01*
G37*
G04 #@! TD.AperFunction*
G04 #@! TA.AperFunction,SMDPad,CuDef*
G36*
X175659504Y-75834204D02*
G01*
X175683773Y-75837804D01*
X175707571Y-75843765D01*
X175730671Y-75852030D01*
X175752849Y-75862520D01*
X175773893Y-75875133D01*
X175793598Y-75889747D01*
X175811777Y-75906223D01*
X175828253Y-75924402D01*
X175842867Y-75944107D01*
X175855480Y-75965151D01*
X175865970Y-75987329D01*
X175874235Y-76010429D01*
X175880196Y-76034227D01*
X175883796Y-76058496D01*
X175885000Y-76083000D01*
X175885000Y-77333000D01*
X175883796Y-77357504D01*
X175880196Y-77381773D01*
X175874235Y-77405571D01*
X175865970Y-77428671D01*
X175855480Y-77450849D01*
X175842867Y-77471893D01*
X175828253Y-77491598D01*
X175811777Y-77509777D01*
X175793598Y-77526253D01*
X175773893Y-77540867D01*
X175752849Y-77553480D01*
X175730671Y-77563970D01*
X175707571Y-77572235D01*
X175683773Y-77578196D01*
X175659504Y-77581796D01*
X175635000Y-77583000D01*
X174885000Y-77583000D01*
X174860496Y-77581796D01*
X174836227Y-77578196D01*
X174812429Y-77572235D01*
X174789329Y-77563970D01*
X174767151Y-77553480D01*
X174746107Y-77540867D01*
X174726402Y-77526253D01*
X174708223Y-77509777D01*
X174691747Y-77491598D01*
X174677133Y-77471893D01*
X174664520Y-77450849D01*
X174654030Y-77428671D01*
X174645765Y-77405571D01*
X174639804Y-77381773D01*
X174636204Y-77357504D01*
X174635000Y-77333000D01*
X174635000Y-76083000D01*
X174636204Y-76058496D01*
X174639804Y-76034227D01*
X174645765Y-76010429D01*
X174654030Y-75987329D01*
X174664520Y-75965151D01*
X174677133Y-75944107D01*
X174691747Y-75924402D01*
X174708223Y-75906223D01*
X174726402Y-75889747D01*
X174746107Y-75875133D01*
X174767151Y-75862520D01*
X174789329Y-75852030D01*
X174812429Y-75843765D01*
X174836227Y-75837804D01*
X174860496Y-75834204D01*
X174885000Y-75833000D01*
X175635000Y-75833000D01*
X175659504Y-75834204D01*
G37*
G04 #@! TD.AperFunction*
G04 #@! TA.AperFunction,SMDPad,CuDef*
G36*
X172859504Y-75834204D02*
G01*
X172883773Y-75837804D01*
X172907571Y-75843765D01*
X172930671Y-75852030D01*
X172952849Y-75862520D01*
X172973893Y-75875133D01*
X172993598Y-75889747D01*
X173011777Y-75906223D01*
X173028253Y-75924402D01*
X173042867Y-75944107D01*
X173055480Y-75965151D01*
X173065970Y-75987329D01*
X173074235Y-76010429D01*
X173080196Y-76034227D01*
X173083796Y-76058496D01*
X173085000Y-76083000D01*
X173085000Y-77333000D01*
X173083796Y-77357504D01*
X173080196Y-77381773D01*
X173074235Y-77405571D01*
X173065970Y-77428671D01*
X173055480Y-77450849D01*
X173042867Y-77471893D01*
X173028253Y-77491598D01*
X173011777Y-77509777D01*
X172993598Y-77526253D01*
X172973893Y-77540867D01*
X172952849Y-77553480D01*
X172930671Y-77563970D01*
X172907571Y-77572235D01*
X172883773Y-77578196D01*
X172859504Y-77581796D01*
X172835000Y-77583000D01*
X172085000Y-77583000D01*
X172060496Y-77581796D01*
X172036227Y-77578196D01*
X172012429Y-77572235D01*
X171989329Y-77563970D01*
X171967151Y-77553480D01*
X171946107Y-77540867D01*
X171926402Y-77526253D01*
X171908223Y-77509777D01*
X171891747Y-77491598D01*
X171877133Y-77471893D01*
X171864520Y-77450849D01*
X171854030Y-77428671D01*
X171845765Y-77405571D01*
X171839804Y-77381773D01*
X171836204Y-77357504D01*
X171835000Y-77333000D01*
X171835000Y-76083000D01*
X171836204Y-76058496D01*
X171839804Y-76034227D01*
X171845765Y-76010429D01*
X171854030Y-75987329D01*
X171864520Y-75965151D01*
X171877133Y-75944107D01*
X171891747Y-75924402D01*
X171908223Y-75906223D01*
X171926402Y-75889747D01*
X171946107Y-75875133D01*
X171967151Y-75862520D01*
X171989329Y-75852030D01*
X172012429Y-75843765D01*
X172036227Y-75837804D01*
X172060496Y-75834204D01*
X172085000Y-75833000D01*
X172835000Y-75833000D01*
X172859504Y-75834204D01*
G37*
G04 #@! TD.AperFunction*
D14*
X150270000Y-72425000D03*
X150270000Y-71925000D03*
X150270000Y-71425000D03*
X150270000Y-70925000D03*
X150270000Y-70425000D03*
X150270000Y-69925000D03*
X150270000Y-69425000D03*
X150270000Y-68925000D03*
X150270000Y-68425000D03*
X150270000Y-67925000D03*
X150270000Y-67425000D03*
X150270000Y-66925000D03*
X150270000Y-66425000D03*
X150270000Y-65925000D03*
X150270000Y-65425000D03*
X150270000Y-64925000D03*
X150270000Y-64425000D03*
X150270000Y-63925000D03*
X150270000Y-63425000D03*
X150270000Y-62925000D03*
X150270000Y-62425000D03*
X150270000Y-61925000D03*
X150270000Y-61425000D03*
X169770000Y-60925000D03*
X169770000Y-61425000D03*
X169770000Y-61925000D03*
X169770000Y-62425000D03*
X169770000Y-62925000D03*
X169770000Y-63425000D03*
X169770000Y-63925000D03*
X169770000Y-64425000D03*
X169770000Y-64925000D03*
X169770000Y-65425000D03*
X169770000Y-65925000D03*
X169770000Y-66425000D03*
X169770000Y-66925000D03*
X169770000Y-67425000D03*
X169770000Y-67925000D03*
X169770000Y-68425000D03*
X169770000Y-68925000D03*
X169770000Y-69425000D03*
X169770000Y-69925000D03*
X169770000Y-70425000D03*
X169770000Y-70925000D03*
X169770000Y-71425000D03*
X169770000Y-71925000D03*
X150270000Y-60925000D03*
X169770000Y-72425000D03*
G04 #@! TA.AperFunction,SMDPad,CuDef*
D13*
G36*
X164359504Y-75834204D02*
G01*
X164383773Y-75837804D01*
X164407571Y-75843765D01*
X164430671Y-75852030D01*
X164452849Y-75862520D01*
X164473893Y-75875133D01*
X164493598Y-75889747D01*
X164511777Y-75906223D01*
X164528253Y-75924402D01*
X164542867Y-75944107D01*
X164555480Y-75965151D01*
X164565970Y-75987329D01*
X164574235Y-76010429D01*
X164580196Y-76034227D01*
X164583796Y-76058496D01*
X164585000Y-76083000D01*
X164585000Y-77333000D01*
X164583796Y-77357504D01*
X164580196Y-77381773D01*
X164574235Y-77405571D01*
X164565970Y-77428671D01*
X164555480Y-77450849D01*
X164542867Y-77471893D01*
X164528253Y-77491598D01*
X164511777Y-77509777D01*
X164493598Y-77526253D01*
X164473893Y-77540867D01*
X164452849Y-77553480D01*
X164430671Y-77563970D01*
X164407571Y-77572235D01*
X164383773Y-77578196D01*
X164359504Y-77581796D01*
X164335000Y-77583000D01*
X163585000Y-77583000D01*
X163560496Y-77581796D01*
X163536227Y-77578196D01*
X163512429Y-77572235D01*
X163489329Y-77563970D01*
X163467151Y-77553480D01*
X163446107Y-77540867D01*
X163426402Y-77526253D01*
X163408223Y-77509777D01*
X163391747Y-77491598D01*
X163377133Y-77471893D01*
X163364520Y-77450849D01*
X163354030Y-77428671D01*
X163345765Y-77405571D01*
X163339804Y-77381773D01*
X163336204Y-77357504D01*
X163335000Y-77333000D01*
X163335000Y-76083000D01*
X163336204Y-76058496D01*
X163339804Y-76034227D01*
X163345765Y-76010429D01*
X163354030Y-75987329D01*
X163364520Y-75965151D01*
X163377133Y-75944107D01*
X163391747Y-75924402D01*
X163408223Y-75906223D01*
X163426402Y-75889747D01*
X163446107Y-75875133D01*
X163467151Y-75862520D01*
X163489329Y-75852030D01*
X163512429Y-75843765D01*
X163536227Y-75837804D01*
X163560496Y-75834204D01*
X163585000Y-75833000D01*
X164335000Y-75833000D01*
X164359504Y-75834204D01*
G37*
G04 #@! TD.AperFunction*
G04 #@! TA.AperFunction,SMDPad,CuDef*
G36*
X161559504Y-75834204D02*
G01*
X161583773Y-75837804D01*
X161607571Y-75843765D01*
X161630671Y-75852030D01*
X161652849Y-75862520D01*
X161673893Y-75875133D01*
X161693598Y-75889747D01*
X161711777Y-75906223D01*
X161728253Y-75924402D01*
X161742867Y-75944107D01*
X161755480Y-75965151D01*
X161765970Y-75987329D01*
X161774235Y-76010429D01*
X161780196Y-76034227D01*
X161783796Y-76058496D01*
X161785000Y-76083000D01*
X161785000Y-77333000D01*
X161783796Y-77357504D01*
X161780196Y-77381773D01*
X161774235Y-77405571D01*
X161765970Y-77428671D01*
X161755480Y-77450849D01*
X161742867Y-77471893D01*
X161728253Y-77491598D01*
X161711777Y-77509777D01*
X161693598Y-77526253D01*
X161673893Y-77540867D01*
X161652849Y-77553480D01*
X161630671Y-77563970D01*
X161607571Y-77572235D01*
X161583773Y-77578196D01*
X161559504Y-77581796D01*
X161535000Y-77583000D01*
X160785000Y-77583000D01*
X160760496Y-77581796D01*
X160736227Y-77578196D01*
X160712429Y-77572235D01*
X160689329Y-77563970D01*
X160667151Y-77553480D01*
X160646107Y-77540867D01*
X160626402Y-77526253D01*
X160608223Y-77509777D01*
X160591747Y-77491598D01*
X160577133Y-77471893D01*
X160564520Y-77450849D01*
X160554030Y-77428671D01*
X160545765Y-77405571D01*
X160539804Y-77381773D01*
X160536204Y-77357504D01*
X160535000Y-77333000D01*
X160535000Y-76083000D01*
X160536204Y-76058496D01*
X160539804Y-76034227D01*
X160545765Y-76010429D01*
X160554030Y-75987329D01*
X160564520Y-75965151D01*
X160577133Y-75944107D01*
X160591747Y-75924402D01*
X160608223Y-75906223D01*
X160626402Y-75889747D01*
X160646107Y-75875133D01*
X160667151Y-75862520D01*
X160689329Y-75852030D01*
X160712429Y-75843765D01*
X160736227Y-75837804D01*
X160760496Y-75834204D01*
X160785000Y-75833000D01*
X161535000Y-75833000D01*
X161559504Y-75834204D01*
G37*
G04 #@! TD.AperFunction*
G04 #@! TA.AperFunction,SMDPad,CuDef*
G36*
X158771504Y-75834204D02*
G01*
X158795773Y-75837804D01*
X158819571Y-75843765D01*
X158842671Y-75852030D01*
X158864849Y-75862520D01*
X158885893Y-75875133D01*
X158905598Y-75889747D01*
X158923777Y-75906223D01*
X158940253Y-75924402D01*
X158954867Y-75944107D01*
X158967480Y-75965151D01*
X158977970Y-75987329D01*
X158986235Y-76010429D01*
X158992196Y-76034227D01*
X158995796Y-76058496D01*
X158997000Y-76083000D01*
X158997000Y-77333000D01*
X158995796Y-77357504D01*
X158992196Y-77381773D01*
X158986235Y-77405571D01*
X158977970Y-77428671D01*
X158967480Y-77450849D01*
X158954867Y-77471893D01*
X158940253Y-77491598D01*
X158923777Y-77509777D01*
X158905598Y-77526253D01*
X158885893Y-77540867D01*
X158864849Y-77553480D01*
X158842671Y-77563970D01*
X158819571Y-77572235D01*
X158795773Y-77578196D01*
X158771504Y-77581796D01*
X158747000Y-77583000D01*
X157997000Y-77583000D01*
X157972496Y-77581796D01*
X157948227Y-77578196D01*
X157924429Y-77572235D01*
X157901329Y-77563970D01*
X157879151Y-77553480D01*
X157858107Y-77540867D01*
X157838402Y-77526253D01*
X157820223Y-77509777D01*
X157803747Y-77491598D01*
X157789133Y-77471893D01*
X157776520Y-77450849D01*
X157766030Y-77428671D01*
X157757765Y-77405571D01*
X157751804Y-77381773D01*
X157748204Y-77357504D01*
X157747000Y-77333000D01*
X157747000Y-76083000D01*
X157748204Y-76058496D01*
X157751804Y-76034227D01*
X157757765Y-76010429D01*
X157766030Y-75987329D01*
X157776520Y-75965151D01*
X157789133Y-75944107D01*
X157803747Y-75924402D01*
X157820223Y-75906223D01*
X157838402Y-75889747D01*
X157858107Y-75875133D01*
X157879151Y-75862520D01*
X157901329Y-75852030D01*
X157924429Y-75843765D01*
X157948227Y-75837804D01*
X157972496Y-75834204D01*
X157997000Y-75833000D01*
X158747000Y-75833000D01*
X158771504Y-75834204D01*
G37*
G04 #@! TD.AperFunction*
G04 #@! TA.AperFunction,SMDPad,CuDef*
G36*
X155971504Y-75834204D02*
G01*
X155995773Y-75837804D01*
X156019571Y-75843765D01*
X156042671Y-75852030D01*
X156064849Y-75862520D01*
X156085893Y-75875133D01*
X156105598Y-75889747D01*
X156123777Y-75906223D01*
X156140253Y-75924402D01*
X156154867Y-75944107D01*
X156167480Y-75965151D01*
X156177970Y-75987329D01*
X156186235Y-76010429D01*
X156192196Y-76034227D01*
X156195796Y-76058496D01*
X156197000Y-76083000D01*
X156197000Y-77333000D01*
X156195796Y-77357504D01*
X156192196Y-77381773D01*
X156186235Y-77405571D01*
X156177970Y-77428671D01*
X156167480Y-77450849D01*
X156154867Y-77471893D01*
X156140253Y-77491598D01*
X156123777Y-77509777D01*
X156105598Y-77526253D01*
X156085893Y-77540867D01*
X156064849Y-77553480D01*
X156042671Y-77563970D01*
X156019571Y-77572235D01*
X155995773Y-77578196D01*
X155971504Y-77581796D01*
X155947000Y-77583000D01*
X155197000Y-77583000D01*
X155172496Y-77581796D01*
X155148227Y-77578196D01*
X155124429Y-77572235D01*
X155101329Y-77563970D01*
X155079151Y-77553480D01*
X155058107Y-77540867D01*
X155038402Y-77526253D01*
X155020223Y-77509777D01*
X155003747Y-77491598D01*
X154989133Y-77471893D01*
X154976520Y-77450849D01*
X154966030Y-77428671D01*
X154957765Y-77405571D01*
X154951804Y-77381773D01*
X154948204Y-77357504D01*
X154947000Y-77333000D01*
X154947000Y-76083000D01*
X154948204Y-76058496D01*
X154951804Y-76034227D01*
X154957765Y-76010429D01*
X154966030Y-75987329D01*
X154976520Y-75965151D01*
X154989133Y-75944107D01*
X155003747Y-75924402D01*
X155020223Y-75906223D01*
X155038402Y-75889747D01*
X155058107Y-75875133D01*
X155079151Y-75862520D01*
X155101329Y-75852030D01*
X155124429Y-75843765D01*
X155148227Y-75837804D01*
X155172496Y-75834204D01*
X155197000Y-75833000D01*
X155947000Y-75833000D01*
X155971504Y-75834204D01*
G37*
G04 #@! TD.AperFunction*
D11*
X191770000Y-68660000D03*
X191770000Y-73660000D03*
X184745000Y-71120000D03*
D12*
X182245000Y-71120000D03*
D15*
X191770000Y-81280000D03*
X129540000Y-81280000D03*
D16*
X151761000Y-66925000D03*
X152400000Y-76200000D03*
X137243000Y-63925000D03*
X140208000Y-66040000D03*
X142903000Y-68425000D03*
X145983000Y-70425000D03*
X148336000Y-58420000D03*
X150876000Y-56388000D03*
X153924000Y-54864000D03*
X156464000Y-52832000D03*
X144272000Y-61468000D03*
X159105000Y-61367000D03*
X135703000Y-62925000D03*
X138783000Y-64925000D03*
X141224000Y-67056000D03*
X144443000Y-69425000D03*
X146812000Y-59944000D03*
X149860000Y-57404000D03*
X152400000Y-55880000D03*
X154940000Y-53848000D03*
X167779000Y-67425000D03*
X158372000Y-67688000D03*
X163068000Y-72136000D03*
X152111000Y-72425000D03*
X144780000Y-58985002D03*
X166030000Y-58334000D03*
D17*
X150270000Y-71425000D02*
X148285000Y-71425000D01*
X150270000Y-61925000D02*
X150270000Y-61425000D01*
X145802002Y-61925000D02*
X144202002Y-60325000D01*
X150270000Y-61925000D02*
X145802002Y-61925000D01*
X144202002Y-60325000D02*
X143510000Y-60325000D01*
X150270000Y-61425000D02*
X145880000Y-61425000D01*
X145880000Y-61425000D02*
X144145000Y-59690000D01*
X150270000Y-71425000D02*
X152095000Y-71425000D01*
X152095000Y-71425000D02*
X152400000Y-71120000D01*
X150270000Y-66925000D02*
X151761000Y-66925000D01*
X151761000Y-66925000D02*
X151761000Y-66925000D01*
X154947000Y-76708000D02*
X154439000Y-76200000D01*
X155572000Y-76708000D02*
X154947000Y-76708000D01*
X154439000Y-76200000D02*
X152400000Y-76200000D01*
X152400000Y-76200000D02*
X152400000Y-76200000D01*
X150270000Y-63925000D02*
X137243000Y-63925000D01*
X137243000Y-63925000D02*
X137243000Y-63925000D01*
X149470000Y-65925000D02*
X149355000Y-66040000D01*
X150270000Y-65925000D02*
X149470000Y-65925000D01*
X149355000Y-66040000D02*
X140208000Y-66040000D01*
X140208000Y-66040000D02*
X140208000Y-66040000D01*
X150270000Y-68425000D02*
X142903000Y-68425000D01*
X142903000Y-68425000D02*
X142903000Y-68425000D01*
X150270000Y-70425000D02*
X145983000Y-70425000D01*
X145983000Y-70425000D02*
X145983000Y-70425000D01*
X151595010Y-60353598D02*
X149661412Y-58420000D01*
X151595011Y-63859991D02*
X151595010Y-60353598D01*
X150270000Y-64425000D02*
X151030002Y-64425000D01*
X151030002Y-64425000D02*
X151595011Y-63859991D01*
X149661412Y-58420000D02*
X148336000Y-58420000D01*
X148336000Y-58420000D02*
X148336000Y-58420000D01*
X152495029Y-64999971D02*
X152495029Y-58007029D01*
X150270000Y-66425000D02*
X151070000Y-66425000D01*
X151070000Y-66425000D02*
X152495029Y-64999971D01*
X152495029Y-58007029D02*
X150876000Y-56388000D01*
X150876000Y-56388000D02*
X150876000Y-56388000D01*
X151470412Y-68925000D02*
X153924000Y-66471412D01*
X150270000Y-68925000D02*
X151470412Y-68925000D01*
X153924000Y-66471412D02*
X153924000Y-54864000D01*
X153924000Y-54864000D02*
X153924000Y-54864000D01*
X151030002Y-70925000D02*
X156464000Y-65491002D01*
X150270000Y-70925000D02*
X151030002Y-70925000D01*
X156464000Y-65491002D02*
X156464000Y-52832000D01*
X156464000Y-52832000D02*
X156464000Y-52832000D01*
X159105000Y-45281370D02*
X159105000Y-44150000D01*
X159105000Y-75278000D02*
X159105000Y-62383000D01*
X160535000Y-76708000D02*
X159105000Y-75278000D01*
X161160000Y-76708000D02*
X160535000Y-76708000D01*
X159105000Y-62383000D02*
X159105000Y-61367000D01*
X159105000Y-61367000D02*
X159105000Y-45281370D01*
X145229000Y-62425000D02*
X144272000Y-61468000D01*
X150270000Y-62425000D02*
X145229000Y-62425000D01*
X164645000Y-45281370D02*
X164645000Y-44150000D01*
X168970000Y-72425000D02*
X164645000Y-68100000D01*
X164645000Y-68100000D02*
X164645000Y-45281370D01*
X169770000Y-72425000D02*
X168970000Y-72425000D01*
X170570000Y-72425000D02*
X169770000Y-72425000D01*
X172460000Y-74315000D02*
X170570000Y-72425000D01*
X172460000Y-76708000D02*
X172460000Y-74315000D01*
X167415000Y-45281370D02*
X167415000Y-44150000D01*
X167415000Y-58195000D02*
X167415000Y-45281370D01*
X169770000Y-60550000D02*
X167415000Y-58195000D01*
X169770000Y-60925000D02*
X169770000Y-60550000D01*
X171095010Y-61536400D02*
X171095010Y-58827010D01*
X169770000Y-61925000D02*
X170706410Y-61925000D01*
X170706410Y-61925000D02*
X171095010Y-61536400D01*
X170185000Y-57917000D02*
X170185000Y-44150000D01*
X171095010Y-58827010D02*
X170185000Y-57917000D01*
X172955000Y-60949230D02*
X172955000Y-45281370D01*
X172955000Y-45281370D02*
X172955000Y-44150000D01*
X170979230Y-62925000D02*
X172955000Y-60949230D01*
X169770000Y-62925000D02*
X170979230Y-62925000D01*
X175725000Y-45281370D02*
X175725000Y-44150000D01*
X175725000Y-59452050D02*
X175725000Y-45281370D01*
X171252050Y-63925000D02*
X175725000Y-59452050D01*
X169770000Y-63925000D02*
X171252050Y-63925000D01*
X178495000Y-45281370D02*
X178495000Y-44150000D01*
X178495000Y-61636410D02*
X178495000Y-45281370D01*
X170706410Y-69425000D02*
X178495000Y-61636410D01*
X169770000Y-69425000D02*
X170706410Y-69425000D01*
X181265000Y-45281370D02*
X181265000Y-44150000D01*
X170979230Y-70425000D02*
X181265000Y-60139230D01*
X181265000Y-60139230D02*
X181265000Y-45281370D01*
X169770000Y-70425000D02*
X170979230Y-70425000D01*
X184035000Y-45281370D02*
X184035000Y-44150000D01*
X184035000Y-58642050D02*
X184035000Y-45281370D01*
X171252050Y-71425000D02*
X184035000Y-58642050D01*
X169770000Y-71425000D02*
X171252050Y-71425000D01*
X150270000Y-62925000D02*
X135703000Y-62925000D01*
X135703000Y-62925000D02*
X135703000Y-62925000D01*
X150270000Y-64925000D02*
X138783000Y-64925000D01*
X138783000Y-64925000D02*
X138783000Y-64925000D01*
X149470000Y-67425000D02*
X149101000Y-67056000D01*
X150270000Y-67425000D02*
X149470000Y-67425000D01*
X149101000Y-67056000D02*
X141224000Y-67056000D01*
X141224000Y-67056000D02*
X141224000Y-67056000D01*
X150270000Y-69425000D02*
X144443000Y-69425000D01*
X144443000Y-69425000D02*
X144443000Y-69425000D01*
X151145001Y-60539999D02*
X150549002Y-59944000D01*
X151145001Y-63310001D02*
X151145001Y-60539999D01*
X150270000Y-63425000D02*
X151030002Y-63425000D01*
X151030002Y-63425000D02*
X151145001Y-63310001D01*
X150549002Y-59944000D02*
X146812000Y-59944000D01*
X146812000Y-59944000D02*
X146812000Y-59944000D01*
X152045019Y-64449981D02*
X152045019Y-59589019D01*
X150270000Y-65425000D02*
X151070000Y-65425000D01*
X151070000Y-65425000D02*
X152045019Y-64449981D01*
X152045019Y-59589019D02*
X149860000Y-57404000D01*
X149860000Y-57404000D02*
X149860000Y-57404000D01*
X152945039Y-66813963D02*
X152945039Y-56425039D01*
X150270000Y-67925000D02*
X151834002Y-67925000D01*
X151834002Y-67925000D02*
X152945039Y-66813963D01*
X152945039Y-56425039D02*
X152400000Y-55880000D01*
X152400000Y-55880000D02*
X152400000Y-55880000D01*
X151106822Y-69925000D02*
X154940000Y-66091822D01*
X150270000Y-69925000D02*
X151106822Y-69925000D01*
X154940000Y-66091822D02*
X154940000Y-53848000D01*
X154940000Y-53848000D02*
X154940000Y-53848000D01*
X158372000Y-47642000D02*
X157720000Y-46990000D01*
X158372000Y-76708000D02*
X158372000Y-67688000D01*
X169770000Y-67425000D02*
X167779000Y-67425000D01*
X167779000Y-67425000D02*
X167779000Y-67425000D01*
X158372000Y-67688000D02*
X158372000Y-47642000D01*
X163260000Y-48121370D02*
X163068000Y-48313370D01*
X163260000Y-46990000D02*
X163260000Y-48121370D01*
X163068000Y-48313370D02*
X163068000Y-72136000D01*
X163068000Y-72136000D02*
X163068000Y-72136000D01*
X150270000Y-72425000D02*
X152111000Y-72425000D01*
X152111000Y-72425000D02*
X152181000Y-72425000D01*
X166748000Y-75816000D02*
X163068000Y-72136000D01*
X166748000Y-76708000D02*
X166748000Y-75816000D01*
X146719998Y-60925000D02*
X144780000Y-58985002D01*
X150270000Y-60925000D02*
X146719998Y-60925000D01*
X144780000Y-58985002D02*
X144780000Y-58985002D01*
X166030000Y-46990000D02*
X166030000Y-58334000D01*
X166030000Y-58334000D02*
X166030000Y-58334000D01*
X170645001Y-61349999D02*
X170645001Y-60409001D01*
X169770000Y-61425000D02*
X170570000Y-61425000D01*
X170570000Y-61425000D02*
X170645001Y-61349999D01*
X168800000Y-58564000D02*
X168800000Y-46990000D01*
X170645001Y-60409001D02*
X168800000Y-58564000D01*
X171570000Y-48121370D02*
X171570000Y-46990000D01*
X171570000Y-61697820D02*
X171570000Y-48121370D01*
X170842820Y-62425000D02*
X171570000Y-61697820D01*
X169770000Y-62425000D02*
X170842820Y-62425000D01*
X174340000Y-48121370D02*
X174340000Y-46990000D01*
X171115640Y-63425000D02*
X174340000Y-60200640D01*
X174340000Y-60200640D02*
X174340000Y-48121370D01*
X169770000Y-63425000D02*
X171115640Y-63425000D01*
X177110000Y-48121370D02*
X177110000Y-46990000D01*
X170570000Y-68925000D02*
X177110000Y-62385000D01*
X177110000Y-62385000D02*
X177110000Y-48121370D01*
X169770000Y-68925000D02*
X170570000Y-68925000D01*
X179880000Y-48121370D02*
X179880000Y-46990000D01*
X170842820Y-69925000D02*
X179880000Y-60887820D01*
X179880000Y-60887820D02*
X179880000Y-48121370D01*
X169770000Y-69925000D02*
X170842820Y-69925000D01*
X182650000Y-48121370D02*
X182650000Y-46990000D01*
X182650000Y-59390640D02*
X182650000Y-48121370D01*
X171115640Y-70925000D02*
X182650000Y-59390640D01*
X169770000Y-70925000D02*
X171115640Y-70925000D01*
X185420000Y-48040000D02*
X185420000Y-46990000D01*
X185420000Y-57893460D02*
X185420000Y-48040000D01*
X171388460Y-71925000D02*
X185420000Y-57893460D01*
X169770000Y-71925000D02*
X171388460Y-71925000D01*
D18*
G36*
X195453000Y-84963000D02*
G01*
X125857000Y-84963000D01*
X125857000Y-80921984D01*
X125905000Y-80921984D01*
X125905000Y-81638016D01*
X126044691Y-82340290D01*
X126318705Y-83001818D01*
X126716511Y-83597177D01*
X127222823Y-84103489D01*
X127818182Y-84501295D01*
X128479710Y-84775309D01*
X129181984Y-84915000D01*
X129898016Y-84915000D01*
X130600290Y-84775309D01*
X131261818Y-84501295D01*
X131857177Y-84103489D01*
X132363489Y-83597177D01*
X132761295Y-83001818D01*
X133035309Y-82340290D01*
X133175000Y-81638016D01*
X133175000Y-80921984D01*
X188135000Y-80921984D01*
X188135000Y-81638016D01*
X188274691Y-82340290D01*
X188548705Y-83001818D01*
X188946511Y-83597177D01*
X189452823Y-84103489D01*
X190048182Y-84501295D01*
X190709710Y-84775309D01*
X191411984Y-84915000D01*
X192128016Y-84915000D01*
X192830290Y-84775309D01*
X193491818Y-84501295D01*
X194087177Y-84103489D01*
X194593489Y-83597177D01*
X194991295Y-83001818D01*
X195265309Y-82340290D01*
X195405000Y-81638016D01*
X195405000Y-80921984D01*
X195265309Y-80219710D01*
X194991295Y-79558182D01*
X194593489Y-78962823D01*
X194087177Y-78456511D01*
X193491818Y-78058705D01*
X192830290Y-77784691D01*
X192128016Y-77645000D01*
X191411984Y-77645000D01*
X190709710Y-77784691D01*
X190048182Y-78058705D01*
X189452823Y-78456511D01*
X188946511Y-78962823D01*
X188548705Y-79558182D01*
X188274691Y-80219710D01*
X188135000Y-80921984D01*
X133175000Y-80921984D01*
X133035309Y-80219710D01*
X132761295Y-79558182D01*
X132363489Y-78962823D01*
X131857177Y-78456511D01*
X131261818Y-78058705D01*
X130600290Y-77784691D01*
X129898016Y-77645000D01*
X129181984Y-77645000D01*
X128479710Y-77784691D01*
X127818182Y-78058705D01*
X127222823Y-78456511D01*
X126716511Y-78962823D01*
X126318705Y-79558182D01*
X126044691Y-80219710D01*
X125905000Y-80921984D01*
X125857000Y-80921984D01*
X125857000Y-76098061D01*
X151365000Y-76098061D01*
X151365000Y-76301939D01*
X151404774Y-76501898D01*
X151482795Y-76690256D01*
X151596063Y-76859774D01*
X151740226Y-77003937D01*
X151909744Y-77117205D01*
X152098102Y-77195226D01*
X152298061Y-77235000D01*
X152501939Y-77235000D01*
X152701898Y-77195226D01*
X152890256Y-77117205D01*
X153059774Y-77003937D01*
X153103711Y-76960000D01*
X154124199Y-76960000D01*
X154308928Y-77144730D01*
X154308928Y-77333000D01*
X154325992Y-77506254D01*
X154376528Y-77672850D01*
X154458595Y-77826386D01*
X154569038Y-77960962D01*
X154703614Y-78071405D01*
X154857150Y-78153472D01*
X155023746Y-78204008D01*
X155197000Y-78221072D01*
X155947000Y-78221072D01*
X156120254Y-78204008D01*
X156286850Y-78153472D01*
X156440386Y-78071405D01*
X156574962Y-77960962D01*
X156685405Y-77826386D01*
X156767472Y-77672850D01*
X156818008Y-77506254D01*
X156835072Y-77333000D01*
X156835072Y-76083000D01*
X156818008Y-75909746D01*
X156767472Y-75743150D01*
X156685405Y-75589614D01*
X156574962Y-75455038D01*
X156440386Y-75344595D01*
X156286850Y-75262528D01*
X156120254Y-75211992D01*
X155947000Y-75194928D01*
X155197000Y-75194928D01*
X155023746Y-75211992D01*
X154857150Y-75262528D01*
X154703614Y-75344595D01*
X154575465Y-75449764D01*
X154476333Y-75440000D01*
X154476322Y-75440000D01*
X154439000Y-75436324D01*
X154401678Y-75440000D01*
X153103711Y-75440000D01*
X153059774Y-75396063D01*
X152890256Y-75282795D01*
X152701898Y-75204774D01*
X152501939Y-75165000D01*
X152298061Y-75165000D01*
X152098102Y-75204774D01*
X151909744Y-75282795D01*
X151740226Y-75396063D01*
X151596063Y-75540226D01*
X151482795Y-75709744D01*
X151404774Y-75898102D01*
X151365000Y-76098061D01*
X125857000Y-76098061D01*
X125857000Y-62823061D01*
X134668000Y-62823061D01*
X134668000Y-63026939D01*
X134707774Y-63226898D01*
X134785795Y-63415256D01*
X134899063Y-63584774D01*
X135043226Y-63728937D01*
X135212744Y-63842205D01*
X135401102Y-63920226D01*
X135601061Y-63960000D01*
X135804939Y-63960000D01*
X136004898Y-63920226D01*
X136193256Y-63842205D01*
X136208000Y-63832353D01*
X136208000Y-64026939D01*
X136247774Y-64226898D01*
X136325795Y-64415256D01*
X136439063Y-64584774D01*
X136583226Y-64728937D01*
X136752744Y-64842205D01*
X136941102Y-64920226D01*
X137141061Y-64960000D01*
X137344939Y-64960000D01*
X137544898Y-64920226D01*
X137733256Y-64842205D01*
X137748000Y-64832353D01*
X137748000Y-65026939D01*
X137787774Y-65226898D01*
X137865795Y-65415256D01*
X137979063Y-65584774D01*
X138123226Y-65728937D01*
X138292744Y-65842205D01*
X138481102Y-65920226D01*
X138681061Y-65960000D01*
X138884939Y-65960000D01*
X139084898Y-65920226D01*
X139184777Y-65878855D01*
X139173000Y-65938061D01*
X139173000Y-66141939D01*
X139212774Y-66341898D01*
X139290795Y-66530256D01*
X139404063Y-66699774D01*
X139548226Y-66843937D01*
X139717744Y-66957205D01*
X139906102Y-67035226D01*
X140106061Y-67075000D01*
X140189000Y-67075000D01*
X140189000Y-67157939D01*
X140228774Y-67357898D01*
X140306795Y-67546256D01*
X140420063Y-67715774D01*
X140564226Y-67859937D01*
X140733744Y-67973205D01*
X140922102Y-68051226D01*
X141122061Y-68091000D01*
X141325939Y-68091000D01*
X141525898Y-68051226D01*
X141714256Y-67973205D01*
X141883774Y-67859937D01*
X141927711Y-67816000D01*
X142065137Y-67816000D01*
X141985795Y-67934744D01*
X141907774Y-68123102D01*
X141868000Y-68323061D01*
X141868000Y-68526939D01*
X141907774Y-68726898D01*
X141985795Y-68915256D01*
X142099063Y-69084774D01*
X142243226Y-69228937D01*
X142412744Y-69342205D01*
X142601102Y-69420226D01*
X142801061Y-69460000D01*
X143004939Y-69460000D01*
X143204898Y-69420226D01*
X143393256Y-69342205D01*
X143408000Y-69332353D01*
X143408000Y-69526939D01*
X143447774Y-69726898D01*
X143525795Y-69915256D01*
X143639063Y-70084774D01*
X143783226Y-70228937D01*
X143952744Y-70342205D01*
X144141102Y-70420226D01*
X144341061Y-70460000D01*
X144544939Y-70460000D01*
X144744898Y-70420226D01*
X144933256Y-70342205D01*
X144948000Y-70332353D01*
X144948000Y-70526939D01*
X144987774Y-70726898D01*
X145065795Y-70915256D01*
X145179063Y-71084774D01*
X145323226Y-71228937D01*
X145492744Y-71342205D01*
X145681102Y-71420226D01*
X145881061Y-71460000D01*
X146084939Y-71460000D01*
X146284898Y-71420226D01*
X146473256Y-71342205D01*
X146642774Y-71228937D01*
X146686711Y-71185000D01*
X149094262Y-71185000D01*
X149085000Y-71266250D01*
X149150672Y-71331922D01*
X149189463Y-71404494D01*
X149206292Y-71425000D01*
X149189463Y-71445506D01*
X149150672Y-71518078D01*
X149085000Y-71583750D01*
X149095114Y-71672467D01*
X149094188Y-71675518D01*
X149081928Y-71800000D01*
X149081928Y-72050000D01*
X149094188Y-72174482D01*
X149094345Y-72175000D01*
X149094188Y-72175518D01*
X149081928Y-72300000D01*
X149081928Y-72550000D01*
X149094188Y-72674482D01*
X149130498Y-72794180D01*
X149189463Y-72904494D01*
X149268815Y-73001185D01*
X149365506Y-73080537D01*
X149475820Y-73139502D01*
X149595518Y-73175812D01*
X149720000Y-73188072D01*
X150820000Y-73188072D01*
X150851192Y-73185000D01*
X151407289Y-73185000D01*
X151451226Y-73228937D01*
X151620744Y-73342205D01*
X151809102Y-73420226D01*
X152009061Y-73460000D01*
X152212939Y-73460000D01*
X152412898Y-73420226D01*
X152601256Y-73342205D01*
X152770774Y-73228937D01*
X152914937Y-73084774D01*
X153028205Y-72915256D01*
X153106226Y-72726898D01*
X153146000Y-72526939D01*
X153146000Y-72323061D01*
X153106226Y-72123102D01*
X153028205Y-71934744D01*
X152914937Y-71765226D01*
X152770774Y-71621063D01*
X152601256Y-71507795D01*
X152412898Y-71429774D01*
X152212939Y-71390000D01*
X152009061Y-71390000D01*
X151809102Y-71429774D01*
X151620744Y-71507795D01*
X151451226Y-71621063D01*
X151450685Y-71621604D01*
X151455000Y-71583750D01*
X151439254Y-71568004D01*
X151454278Y-71559974D01*
X151570003Y-71465001D01*
X151593806Y-71435997D01*
X156975004Y-66054800D01*
X157004001Y-66031003D01*
X157098974Y-65915278D01*
X157169546Y-65783249D01*
X157213003Y-65639988D01*
X157224000Y-65528335D01*
X157224000Y-65528327D01*
X157227676Y-65491002D01*
X157224000Y-65453677D01*
X157224000Y-53535711D01*
X157267937Y-53491774D01*
X157381205Y-53322256D01*
X157459226Y-53133898D01*
X157499000Y-52933939D01*
X157499000Y-52730061D01*
X157459226Y-52530102D01*
X157381205Y-52341744D01*
X157267937Y-52172226D01*
X157123774Y-52028063D01*
X156954256Y-51914795D01*
X156765898Y-51836774D01*
X156565939Y-51797000D01*
X156362061Y-51797000D01*
X156162102Y-51836774D01*
X155973744Y-51914795D01*
X155804226Y-52028063D01*
X155660063Y-52172226D01*
X155546795Y-52341744D01*
X155468774Y-52530102D01*
X155429000Y-52730061D01*
X155429000Y-52930275D01*
X155241898Y-52852774D01*
X155041939Y-52813000D01*
X154838061Y-52813000D01*
X154638102Y-52852774D01*
X154449744Y-52930795D01*
X154280226Y-53044063D01*
X154136063Y-53188226D01*
X154022795Y-53357744D01*
X153944774Y-53546102D01*
X153905000Y-53746061D01*
X153905000Y-53829000D01*
X153822061Y-53829000D01*
X153622102Y-53868774D01*
X153433744Y-53946795D01*
X153264226Y-54060063D01*
X153120063Y-54204226D01*
X153006795Y-54373744D01*
X152928774Y-54562102D01*
X152889000Y-54762061D01*
X152889000Y-54962275D01*
X152701898Y-54884774D01*
X152501939Y-54845000D01*
X152298061Y-54845000D01*
X152098102Y-54884774D01*
X151909744Y-54962795D01*
X151740226Y-55076063D01*
X151596063Y-55220226D01*
X151482795Y-55389744D01*
X151431237Y-55514214D01*
X151366256Y-55470795D01*
X151177898Y-55392774D01*
X150977939Y-55353000D01*
X150774061Y-55353000D01*
X150574102Y-55392774D01*
X150385744Y-55470795D01*
X150216226Y-55584063D01*
X150072063Y-55728226D01*
X149958795Y-55897744D01*
X149880774Y-56086102D01*
X149841000Y-56286061D01*
X149841000Y-56369000D01*
X149758061Y-56369000D01*
X149558102Y-56408774D01*
X149369744Y-56486795D01*
X149200226Y-56600063D01*
X149056063Y-56744226D01*
X148942795Y-56913744D01*
X148864774Y-57102102D01*
X148825000Y-57302061D01*
X148825000Y-57502275D01*
X148637898Y-57424774D01*
X148437939Y-57385000D01*
X148234061Y-57385000D01*
X148034102Y-57424774D01*
X147845744Y-57502795D01*
X147676226Y-57616063D01*
X147532063Y-57760226D01*
X147418795Y-57929744D01*
X147340774Y-58118102D01*
X147301000Y-58318061D01*
X147301000Y-58521939D01*
X147340774Y-58721898D01*
X147418795Y-58910256D01*
X147532063Y-59079774D01*
X147636289Y-59184000D01*
X147515711Y-59184000D01*
X147471774Y-59140063D01*
X147302256Y-59026795D01*
X147113898Y-58948774D01*
X146913939Y-58909000D01*
X146710061Y-58909000D01*
X146510102Y-58948774D01*
X146321744Y-59026795D01*
X146152226Y-59140063D01*
X146081044Y-59211245D01*
X145815000Y-58945200D01*
X145815000Y-58883063D01*
X145775226Y-58683104D01*
X145697205Y-58494746D01*
X145583937Y-58325228D01*
X145439774Y-58181065D01*
X145270256Y-58067797D01*
X145081898Y-57989776D01*
X144881939Y-57950002D01*
X144678061Y-57950002D01*
X144478102Y-57989776D01*
X144289744Y-58067797D01*
X144120226Y-58181065D01*
X143976063Y-58325228D01*
X143862795Y-58494746D01*
X143784774Y-58683104D01*
X143745000Y-58883063D01*
X143745000Y-59086941D01*
X143784774Y-59286900D01*
X143862795Y-59475258D01*
X143976063Y-59644776D01*
X144120226Y-59788939D01*
X144289744Y-59902207D01*
X144478102Y-59980228D01*
X144678061Y-60020002D01*
X144740198Y-60020002D01*
X146156203Y-61436008D01*
X146179997Y-61465001D01*
X146208990Y-61488795D01*
X146208994Y-61488799D01*
X146224087Y-61501185D01*
X146295722Y-61559974D01*
X146427751Y-61630546D01*
X146541333Y-61665000D01*
X145543803Y-61665000D01*
X145307000Y-61428198D01*
X145307000Y-61366061D01*
X145267226Y-61166102D01*
X145189205Y-60977744D01*
X145075937Y-60808226D01*
X144931774Y-60664063D01*
X144762256Y-60550795D01*
X144573898Y-60472774D01*
X144373939Y-60433000D01*
X144170061Y-60433000D01*
X143970102Y-60472774D01*
X143781744Y-60550795D01*
X143612226Y-60664063D01*
X143468063Y-60808226D01*
X143354795Y-60977744D01*
X143276774Y-61166102D01*
X143237000Y-61366061D01*
X143237000Y-61569939D01*
X143276774Y-61769898D01*
X143354795Y-61958256D01*
X143468063Y-62127774D01*
X143505289Y-62165000D01*
X136406711Y-62165000D01*
X136362774Y-62121063D01*
X136193256Y-62007795D01*
X136004898Y-61929774D01*
X135804939Y-61890000D01*
X135601061Y-61890000D01*
X135401102Y-61929774D01*
X135212744Y-62007795D01*
X135043226Y-62121063D01*
X134899063Y-62265226D01*
X134785795Y-62434744D01*
X134707774Y-62623102D01*
X134668000Y-62823061D01*
X125857000Y-62823061D01*
X125857000Y-45310475D01*
X126105000Y-45310475D01*
X126105000Y-45829525D01*
X126206261Y-46338601D01*
X126404893Y-46818141D01*
X126693262Y-47249715D01*
X127060285Y-47616738D01*
X127491859Y-47905107D01*
X127971399Y-48103739D01*
X128480475Y-48205000D01*
X128999525Y-48205000D01*
X129508601Y-48103739D01*
X129988141Y-47905107D01*
X130419715Y-47616738D01*
X130786738Y-47249715D01*
X131054711Y-46848665D01*
X134125000Y-46848665D01*
X134125000Y-47131335D01*
X134180147Y-47408574D01*
X134288320Y-47669727D01*
X134445363Y-47904759D01*
X134645241Y-48104637D01*
X134880273Y-48261680D01*
X135141426Y-48369853D01*
X135418665Y-48425000D01*
X135701335Y-48425000D01*
X135978574Y-48369853D01*
X136239727Y-48261680D01*
X136474759Y-48104637D01*
X136674637Y-47904759D01*
X136831680Y-47669727D01*
X136939853Y-47408574D01*
X136945000Y-47382699D01*
X136950147Y-47408574D01*
X137058320Y-47669727D01*
X137215363Y-47904759D01*
X137415241Y-48104637D01*
X137650273Y-48261680D01*
X137911426Y-48369853D01*
X138188665Y-48425000D01*
X138471335Y-48425000D01*
X138748574Y-48369853D01*
X139009727Y-48261680D01*
X139244759Y-48104637D01*
X139444637Y-47904759D01*
X139601680Y-47669727D01*
X139709853Y-47408574D01*
X139715000Y-47382699D01*
X139720147Y-47408574D01*
X139828320Y-47669727D01*
X139985363Y-47904759D01*
X140185241Y-48104637D01*
X140420273Y-48261680D01*
X140681426Y-48369853D01*
X140958665Y-48425000D01*
X141241335Y-48425000D01*
X141518574Y-48369853D01*
X141779727Y-48261680D01*
X142014759Y-48104637D01*
X142214637Y-47904759D01*
X142371680Y-47669727D01*
X142479853Y-47408574D01*
X142485000Y-47382699D01*
X142490147Y-47408574D01*
X142598320Y-47669727D01*
X142755363Y-47904759D01*
X142955241Y-48104637D01*
X143190273Y-48261680D01*
X143451426Y-48369853D01*
X143728665Y-48425000D01*
X144011335Y-48425000D01*
X144288574Y-48369853D01*
X144549727Y-48261680D01*
X144784759Y-48104637D01*
X144984637Y-47904759D01*
X145141680Y-47669727D01*
X145249853Y-47408574D01*
X145255000Y-47382699D01*
X145260147Y-47408574D01*
X145368320Y-47669727D01*
X145525363Y-47904759D01*
X145725241Y-48104637D01*
X145960273Y-48261680D01*
X146221426Y-48369853D01*
X146498665Y-48425000D01*
X146781335Y-48425000D01*
X147058574Y-48369853D01*
X147319727Y-48261680D01*
X147554759Y-48104637D01*
X147754637Y-47904759D01*
X147911680Y-47669727D01*
X148019853Y-47408574D01*
X148025000Y-47382699D01*
X148030147Y-47408574D01*
X148138320Y-47669727D01*
X148295363Y-47904759D01*
X148495241Y-48104637D01*
X148730273Y-48261680D01*
X148991426Y-48369853D01*
X149268665Y-48425000D01*
X149551335Y-48425000D01*
X149828574Y-48369853D01*
X150089727Y-48261680D01*
X150324759Y-48104637D01*
X150524637Y-47904759D01*
X150681680Y-47669727D01*
X150789853Y-47408574D01*
X150795000Y-47382699D01*
X150800147Y-47408574D01*
X150908320Y-47669727D01*
X151065363Y-47904759D01*
X151265241Y-48104637D01*
X151500273Y-48261680D01*
X151761426Y-48369853D01*
X152038665Y-48425000D01*
X152321335Y-48425000D01*
X152598574Y-48369853D01*
X152859727Y-48261680D01*
X153094759Y-48104637D01*
X153294637Y-47904759D01*
X153451680Y-47669727D01*
X153559853Y-47408574D01*
X153565000Y-47382699D01*
X153570147Y-47408574D01*
X153678320Y-47669727D01*
X153835363Y-47904759D01*
X154035241Y-48104637D01*
X154270273Y-48261680D01*
X154531426Y-48369853D01*
X154808665Y-48425000D01*
X155091335Y-48425000D01*
X155368574Y-48369853D01*
X155629727Y-48261680D01*
X155864759Y-48104637D01*
X156064637Y-47904759D01*
X156221680Y-47669727D01*
X156329853Y-47408574D01*
X156335000Y-47382699D01*
X156340147Y-47408574D01*
X156448320Y-47669727D01*
X156605363Y-47904759D01*
X156805241Y-48104637D01*
X157040273Y-48261680D01*
X157301426Y-48369853D01*
X157578665Y-48425000D01*
X157612001Y-48425000D01*
X157612000Y-66984289D01*
X157568063Y-67028226D01*
X157454795Y-67197744D01*
X157376774Y-67386102D01*
X157337000Y-67586061D01*
X157337000Y-67789939D01*
X157376774Y-67989898D01*
X157454795Y-68178256D01*
X157568063Y-68347774D01*
X157612001Y-68391712D01*
X157612000Y-75286661D01*
X157503614Y-75344595D01*
X157369038Y-75455038D01*
X157258595Y-75589614D01*
X157176528Y-75743150D01*
X157125992Y-75909746D01*
X157108928Y-76083000D01*
X157108928Y-77333000D01*
X157125992Y-77506254D01*
X157176528Y-77672850D01*
X157258595Y-77826386D01*
X157369038Y-77960962D01*
X157503614Y-78071405D01*
X157657150Y-78153472D01*
X157823746Y-78204008D01*
X157997000Y-78221072D01*
X158747000Y-78221072D01*
X158920254Y-78204008D01*
X159086850Y-78153472D01*
X159240386Y-78071405D01*
X159374962Y-77960962D01*
X159485405Y-77826386D01*
X159567472Y-77672850D01*
X159618008Y-77506254D01*
X159635072Y-77333000D01*
X159635072Y-76882874D01*
X159896928Y-77144731D01*
X159896928Y-77333000D01*
X159913992Y-77506254D01*
X159964528Y-77672850D01*
X160046595Y-77826386D01*
X160157038Y-77960962D01*
X160291614Y-78071405D01*
X160445150Y-78153472D01*
X160611746Y-78204008D01*
X160785000Y-78221072D01*
X161535000Y-78221072D01*
X161708254Y-78204008D01*
X161874850Y-78153472D01*
X162028386Y-78071405D01*
X162162962Y-77960962D01*
X162273405Y-77826386D01*
X162355472Y-77672850D01*
X162382727Y-77583000D01*
X162696928Y-77583000D01*
X162709188Y-77707482D01*
X162745498Y-77827180D01*
X162804463Y-77937494D01*
X162883815Y-78034185D01*
X162980506Y-78113537D01*
X163090820Y-78172502D01*
X163210518Y-78208812D01*
X163335000Y-78221072D01*
X163674250Y-78218000D01*
X163833000Y-78059250D01*
X163833000Y-76835000D01*
X164087000Y-76835000D01*
X164087000Y-78059250D01*
X164245750Y-78218000D01*
X164585000Y-78221072D01*
X164709482Y-78208812D01*
X164829180Y-78172502D01*
X164939494Y-78113537D01*
X165036185Y-78034185D01*
X165115537Y-77937494D01*
X165174502Y-77827180D01*
X165210812Y-77707482D01*
X165223072Y-77583000D01*
X165220000Y-76993750D01*
X165061250Y-76835000D01*
X164087000Y-76835000D01*
X163833000Y-76835000D01*
X162858750Y-76835000D01*
X162700000Y-76993750D01*
X162696928Y-77583000D01*
X162382727Y-77583000D01*
X162406008Y-77506254D01*
X162423072Y-77333000D01*
X162423072Y-76083000D01*
X162406008Y-75909746D01*
X162382728Y-75833000D01*
X162696928Y-75833000D01*
X162700000Y-76422250D01*
X162858750Y-76581000D01*
X163833000Y-76581000D01*
X163833000Y-75356750D01*
X164087000Y-75356750D01*
X164087000Y-76581000D01*
X165061250Y-76581000D01*
X165220000Y-76422250D01*
X165223072Y-75833000D01*
X165210812Y-75708518D01*
X165174502Y-75588820D01*
X165115537Y-75478506D01*
X165036185Y-75381815D01*
X164939494Y-75302463D01*
X164829180Y-75243498D01*
X164709482Y-75207188D01*
X164585000Y-75194928D01*
X164245750Y-75198000D01*
X164087000Y-75356750D01*
X163833000Y-75356750D01*
X163674250Y-75198000D01*
X163335000Y-75194928D01*
X163210518Y-75207188D01*
X163090820Y-75243498D01*
X162980506Y-75302463D01*
X162883815Y-75381815D01*
X162804463Y-75478506D01*
X162745498Y-75588820D01*
X162709188Y-75708518D01*
X162696928Y-75833000D01*
X162382728Y-75833000D01*
X162355472Y-75743150D01*
X162273405Y-75589614D01*
X162162962Y-75455038D01*
X162028386Y-75344595D01*
X161874850Y-75262528D01*
X161708254Y-75211992D01*
X161535000Y-75194928D01*
X160785000Y-75194928D01*
X160611746Y-75211992D01*
X160445150Y-75262528D01*
X160291614Y-75344595D01*
X160266779Y-75364977D01*
X159865000Y-74963199D01*
X159865000Y-62070711D01*
X159908937Y-62026774D01*
X160022205Y-61857256D01*
X160100226Y-61668898D01*
X160140000Y-61468939D01*
X160140000Y-61265061D01*
X160100226Y-61065102D01*
X160022205Y-60876744D01*
X159908937Y-60707226D01*
X159865000Y-60663289D01*
X159865000Y-48284349D01*
X160071426Y-48369853D01*
X160348665Y-48425000D01*
X160631335Y-48425000D01*
X160908574Y-48369853D01*
X161169727Y-48261680D01*
X161404759Y-48104637D01*
X161604637Y-47904759D01*
X161761680Y-47669727D01*
X161869853Y-47408574D01*
X161875000Y-47382699D01*
X161880147Y-47408574D01*
X161988320Y-47669727D01*
X162145363Y-47904759D01*
X162339011Y-48098407D01*
X162318997Y-48164385D01*
X162308000Y-48276038D01*
X162308000Y-48276048D01*
X162304324Y-48313370D01*
X162308000Y-48350692D01*
X162308001Y-71432288D01*
X162264063Y-71476226D01*
X162150795Y-71645744D01*
X162072774Y-71834102D01*
X162033000Y-72034061D01*
X162033000Y-72237939D01*
X162072774Y-72437898D01*
X162150795Y-72626256D01*
X162264063Y-72795774D01*
X162408226Y-72939937D01*
X162577744Y-73053205D01*
X162766102Y-73131226D01*
X162966061Y-73171000D01*
X163028199Y-73171000D01*
X165569185Y-75711987D01*
X165552528Y-75743150D01*
X165501992Y-75909746D01*
X165484928Y-76083000D01*
X165484928Y-77333000D01*
X165501992Y-77506254D01*
X165552528Y-77672850D01*
X165634595Y-77826386D01*
X165745038Y-77960962D01*
X165879614Y-78071405D01*
X166033150Y-78153472D01*
X166199746Y-78204008D01*
X166373000Y-78221072D01*
X167123000Y-78221072D01*
X167296254Y-78204008D01*
X167462850Y-78153472D01*
X167616386Y-78071405D01*
X167750962Y-77960962D01*
X167861405Y-77826386D01*
X167943472Y-77672850D01*
X167970727Y-77583000D01*
X168284928Y-77583000D01*
X168297188Y-77707482D01*
X168333498Y-77827180D01*
X168392463Y-77937494D01*
X168471815Y-78034185D01*
X168568506Y-78113537D01*
X168678820Y-78172502D01*
X168798518Y-78208812D01*
X168923000Y-78221072D01*
X169262250Y-78218000D01*
X169421000Y-78059250D01*
X169421000Y-76835000D01*
X169675000Y-76835000D01*
X169675000Y-78059250D01*
X169833750Y-78218000D01*
X170173000Y-78221072D01*
X170297482Y-78208812D01*
X170417180Y-78172502D01*
X170527494Y-78113537D01*
X170624185Y-78034185D01*
X170703537Y-77937494D01*
X170762502Y-77827180D01*
X170798812Y-77707482D01*
X170811072Y-77583000D01*
X170808000Y-76993750D01*
X170649250Y-76835000D01*
X169675000Y-76835000D01*
X169421000Y-76835000D01*
X168446750Y-76835000D01*
X168288000Y-76993750D01*
X168284928Y-77583000D01*
X167970727Y-77583000D01*
X167994008Y-77506254D01*
X168011072Y-77333000D01*
X168011072Y-76083000D01*
X167994008Y-75909746D01*
X167970728Y-75833000D01*
X168284928Y-75833000D01*
X168288000Y-76422250D01*
X168446750Y-76581000D01*
X169421000Y-76581000D01*
X169421000Y-75356750D01*
X169675000Y-75356750D01*
X169675000Y-76581000D01*
X170649250Y-76581000D01*
X170808000Y-76422250D01*
X170811072Y-75833000D01*
X170798812Y-75708518D01*
X170762502Y-75588820D01*
X170703537Y-75478506D01*
X170624185Y-75381815D01*
X170527494Y-75302463D01*
X170417180Y-75243498D01*
X170297482Y-75207188D01*
X170173000Y-75194928D01*
X169833750Y-75198000D01*
X169675000Y-75356750D01*
X169421000Y-75356750D01*
X169262250Y-75198000D01*
X168923000Y-75194928D01*
X168798518Y-75207188D01*
X168678820Y-75243498D01*
X168568506Y-75302463D01*
X168471815Y-75381815D01*
X168392463Y-75478506D01*
X168333498Y-75588820D01*
X168297188Y-75708518D01*
X168284928Y-75833000D01*
X167970728Y-75833000D01*
X167943472Y-75743150D01*
X167861405Y-75589614D01*
X167750962Y-75455038D01*
X167616386Y-75344595D01*
X167462850Y-75262528D01*
X167296254Y-75211992D01*
X167210331Y-75203529D01*
X164103000Y-72096199D01*
X164103000Y-72034061D01*
X164063226Y-71834102D01*
X163985205Y-71645744D01*
X163871937Y-71476226D01*
X163828000Y-71432289D01*
X163828000Y-48627254D01*
X163885001Y-48557798D01*
X163885000Y-68062678D01*
X163881324Y-68100000D01*
X163885000Y-68137322D01*
X163885000Y-68137332D01*
X163895997Y-68248985D01*
X163937256Y-68384999D01*
X163939454Y-68392246D01*
X164010026Y-68524276D01*
X164035914Y-68555820D01*
X164104999Y-68640001D01*
X164134003Y-68663804D01*
X168406200Y-72936002D01*
X168429999Y-72965001D01*
X168545724Y-73059974D01*
X168677753Y-73130546D01*
X168821014Y-73174003D01*
X168932667Y-73185000D01*
X168932675Y-73185000D01*
X168970000Y-73188676D01*
X169007325Y-73185000D01*
X169188808Y-73185000D01*
X169220000Y-73188072D01*
X170258271Y-73188072D01*
X171700001Y-74629803D01*
X171700001Y-75286661D01*
X171591614Y-75344595D01*
X171457038Y-75455038D01*
X171346595Y-75589614D01*
X171264528Y-75743150D01*
X171213992Y-75909746D01*
X171196928Y-76083000D01*
X171196928Y-77333000D01*
X171213992Y-77506254D01*
X171264528Y-77672850D01*
X171346595Y-77826386D01*
X171457038Y-77960962D01*
X171591614Y-78071405D01*
X171745150Y-78153472D01*
X171911746Y-78204008D01*
X172085000Y-78221072D01*
X172835000Y-78221072D01*
X173008254Y-78204008D01*
X173174850Y-78153472D01*
X173328386Y-78071405D01*
X173462962Y-77960962D01*
X173573405Y-77826386D01*
X173655472Y-77672850D01*
X173682727Y-77583000D01*
X173996928Y-77583000D01*
X174009188Y-77707482D01*
X174045498Y-77827180D01*
X174104463Y-77937494D01*
X174183815Y-78034185D01*
X174280506Y-78113537D01*
X174390820Y-78172502D01*
X174510518Y-78208812D01*
X174635000Y-78221072D01*
X174974250Y-78218000D01*
X175133000Y-78059250D01*
X175133000Y-76835000D01*
X175387000Y-76835000D01*
X175387000Y-78059250D01*
X175545750Y-78218000D01*
X175885000Y-78221072D01*
X176009482Y-78208812D01*
X176129180Y-78172502D01*
X176239494Y-78113537D01*
X176336185Y-78034185D01*
X176415537Y-77937494D01*
X176474502Y-77827180D01*
X176510812Y-77707482D01*
X176523072Y-77583000D01*
X176520000Y-76993750D01*
X176361250Y-76835000D01*
X175387000Y-76835000D01*
X175133000Y-76835000D01*
X174158750Y-76835000D01*
X174000000Y-76993750D01*
X173996928Y-77583000D01*
X173682727Y-77583000D01*
X173706008Y-77506254D01*
X173723072Y-77333000D01*
X173723072Y-76083000D01*
X173706008Y-75909746D01*
X173682728Y-75833000D01*
X173996928Y-75833000D01*
X174000000Y-76422250D01*
X174158750Y-76581000D01*
X175133000Y-76581000D01*
X175133000Y-75356750D01*
X175387000Y-75356750D01*
X175387000Y-76581000D01*
X176361250Y-76581000D01*
X176520000Y-76422250D01*
X176523072Y-75833000D01*
X176510812Y-75708518D01*
X176474502Y-75588820D01*
X176415537Y-75478506D01*
X176336185Y-75381815D01*
X176239494Y-75302463D01*
X176129180Y-75243498D01*
X176009482Y-75207188D01*
X175885000Y-75194928D01*
X175545750Y-75198000D01*
X175387000Y-75356750D01*
X175133000Y-75356750D01*
X174974250Y-75198000D01*
X174635000Y-75194928D01*
X174510518Y-75207188D01*
X174390820Y-75243498D01*
X174280506Y-75302463D01*
X174183815Y-75381815D01*
X174104463Y-75478506D01*
X174045498Y-75588820D01*
X174009188Y-75708518D01*
X173996928Y-75833000D01*
X173682728Y-75833000D01*
X173655472Y-75743150D01*
X173573405Y-75589614D01*
X173462962Y-75455038D01*
X173328386Y-75344595D01*
X173220000Y-75286661D01*
X173220000Y-74352325D01*
X173223676Y-74315000D01*
X173220000Y-74277675D01*
X173220000Y-74277667D01*
X173209003Y-74166014D01*
X173165546Y-74022753D01*
X173094974Y-73890724D01*
X173000001Y-73774999D01*
X172971003Y-73751201D01*
X172738467Y-73518665D01*
X190335000Y-73518665D01*
X190335000Y-73801335D01*
X190390147Y-74078574D01*
X190498320Y-74339727D01*
X190655363Y-74574759D01*
X190855241Y-74774637D01*
X191090273Y-74931680D01*
X191351426Y-75039853D01*
X191628665Y-75095000D01*
X191911335Y-75095000D01*
X192188574Y-75039853D01*
X192449727Y-74931680D01*
X192684759Y-74774637D01*
X192884637Y-74574759D01*
X193041680Y-74339727D01*
X193149853Y-74078574D01*
X193205000Y-73801335D01*
X193205000Y-73518665D01*
X193149853Y-73241426D01*
X193041680Y-72980273D01*
X192884637Y-72745241D01*
X192684759Y-72545363D01*
X192449727Y-72388320D01*
X192188574Y-72280147D01*
X191911335Y-72225000D01*
X191628665Y-72225000D01*
X191351426Y-72280147D01*
X191090273Y-72388320D01*
X190855241Y-72545363D01*
X190655363Y-72745241D01*
X190498320Y-72980273D01*
X190390147Y-73241426D01*
X190335000Y-73518665D01*
X172738467Y-73518665D01*
X171791257Y-72571455D01*
X171812736Y-72559974D01*
X171928461Y-72465001D01*
X171952264Y-72435997D01*
X174068261Y-70320000D01*
X180806928Y-70320000D01*
X180806928Y-71920000D01*
X180819188Y-72044482D01*
X180855498Y-72164180D01*
X180914463Y-72274494D01*
X180993815Y-72371185D01*
X181090506Y-72450537D01*
X181200820Y-72509502D01*
X181320518Y-72545812D01*
X181445000Y-72558072D01*
X183045000Y-72558072D01*
X183169482Y-72545812D01*
X183289180Y-72509502D01*
X183399494Y-72450537D01*
X183496185Y-72371185D01*
X183575537Y-72274494D01*
X183634502Y-72164180D01*
X183650117Y-72112702D01*
X183931903Y-72112702D01*
X184003486Y-72356671D01*
X184258996Y-72477571D01*
X184533184Y-72546300D01*
X184815512Y-72560217D01*
X185095130Y-72518787D01*
X185361292Y-72423603D01*
X185486514Y-72356671D01*
X185558097Y-72112702D01*
X184745000Y-71299605D01*
X183931903Y-72112702D01*
X183650117Y-72112702D01*
X183670812Y-72044482D01*
X183683072Y-71920000D01*
X183683072Y-71912785D01*
X183752298Y-71933097D01*
X184565395Y-71120000D01*
X184924605Y-71120000D01*
X185737702Y-71933097D01*
X185981671Y-71861514D01*
X186102571Y-71606004D01*
X186171300Y-71331816D01*
X186185217Y-71049488D01*
X186143787Y-70769870D01*
X186048603Y-70503708D01*
X185981671Y-70378486D01*
X185737702Y-70306903D01*
X184924605Y-71120000D01*
X184565395Y-71120000D01*
X183752298Y-70306903D01*
X183683072Y-70327215D01*
X183683072Y-70320000D01*
X183670812Y-70195518D01*
X183650118Y-70127298D01*
X183931903Y-70127298D01*
X184745000Y-70940395D01*
X185558097Y-70127298D01*
X185486514Y-69883329D01*
X185231004Y-69762429D01*
X184956816Y-69693700D01*
X184674488Y-69679783D01*
X184394870Y-69721213D01*
X184128708Y-69816397D01*
X184003486Y-69883329D01*
X183931903Y-70127298D01*
X183650118Y-70127298D01*
X183634502Y-70075820D01*
X183575537Y-69965506D01*
X183496185Y-69868815D01*
X183399494Y-69789463D01*
X183289180Y-69730498D01*
X183169482Y-69694188D01*
X183045000Y-69681928D01*
X181445000Y-69681928D01*
X181320518Y-69694188D01*
X181200820Y-69730498D01*
X181090506Y-69789463D01*
X180993815Y-69868815D01*
X180914463Y-69965506D01*
X180855498Y-70075820D01*
X180819188Y-70195518D01*
X180806928Y-70320000D01*
X174068261Y-70320000D01*
X174735559Y-69652702D01*
X190956903Y-69652702D01*
X191028486Y-69896671D01*
X191283996Y-70017571D01*
X191558184Y-70086300D01*
X191840512Y-70100217D01*
X192120130Y-70058787D01*
X192386292Y-69963603D01*
X192511514Y-69896671D01*
X192583097Y-69652702D01*
X191770000Y-68839605D01*
X190956903Y-69652702D01*
X174735559Y-69652702D01*
X175657749Y-68730512D01*
X190329783Y-68730512D01*
X190371213Y-69010130D01*
X190466397Y-69276292D01*
X190533329Y-69401514D01*
X190777298Y-69473097D01*
X191590395Y-68660000D01*
X191949605Y-68660000D01*
X192762702Y-69473097D01*
X193006671Y-69401514D01*
X193127571Y-69146004D01*
X193196300Y-68871816D01*
X193210217Y-68589488D01*
X193168787Y-68309870D01*
X193073603Y-68043708D01*
X193006671Y-67918486D01*
X192762702Y-67846903D01*
X191949605Y-68660000D01*
X191590395Y-68660000D01*
X190777298Y-67846903D01*
X190533329Y-67918486D01*
X190412429Y-68173996D01*
X190343700Y-68448184D01*
X190329783Y-68730512D01*
X175657749Y-68730512D01*
X176720963Y-67667298D01*
X190956903Y-67667298D01*
X191770000Y-68480395D01*
X192583097Y-67667298D01*
X192511514Y-67423329D01*
X192256004Y-67302429D01*
X191981816Y-67233700D01*
X191699488Y-67219783D01*
X191419870Y-67261213D01*
X191153708Y-67356397D01*
X191028486Y-67423329D01*
X190956903Y-67667298D01*
X176720963Y-67667298D01*
X185931004Y-58457258D01*
X185960001Y-58433461D01*
X186054974Y-58317736D01*
X186125546Y-58185707D01*
X186169003Y-58042446D01*
X186180000Y-57930793D01*
X186180000Y-57930784D01*
X186183676Y-57893461D01*
X186180000Y-57856138D01*
X186180000Y-48428072D01*
X186220000Y-48428072D01*
X186344482Y-48415812D01*
X186464180Y-48379502D01*
X186574494Y-48320537D01*
X186671185Y-48241185D01*
X186750537Y-48144494D01*
X186809502Y-48034180D01*
X186845812Y-47914482D01*
X186858072Y-47790000D01*
X186858072Y-46190000D01*
X186845812Y-46065518D01*
X186809502Y-45945820D01*
X186750537Y-45835506D01*
X186671185Y-45738815D01*
X186574494Y-45659463D01*
X186464180Y-45600498D01*
X186344482Y-45564188D01*
X186220000Y-45551928D01*
X184795000Y-45551928D01*
X184795000Y-45368043D01*
X184881157Y-45310475D01*
X189605000Y-45310475D01*
X189605000Y-45829525D01*
X189706261Y-46338601D01*
X189904893Y-46818141D01*
X190193262Y-47249715D01*
X190560285Y-47616738D01*
X190991859Y-47905107D01*
X191471399Y-48103739D01*
X191980475Y-48205000D01*
X192499525Y-48205000D01*
X193008601Y-48103739D01*
X193488141Y-47905107D01*
X193919715Y-47616738D01*
X194286738Y-47249715D01*
X194575107Y-46818141D01*
X194773739Y-46338601D01*
X194875000Y-45829525D01*
X194875000Y-45310475D01*
X194773739Y-44801399D01*
X194575107Y-44321859D01*
X194286738Y-43890285D01*
X193919715Y-43523262D01*
X193488141Y-43234893D01*
X193008601Y-43036261D01*
X192499525Y-42935000D01*
X191980475Y-42935000D01*
X191471399Y-43036261D01*
X190991859Y-43234893D01*
X190560285Y-43523262D01*
X190193262Y-43890285D01*
X189904893Y-44321859D01*
X189706261Y-44801399D01*
X189605000Y-45310475D01*
X184881157Y-45310475D01*
X184949759Y-45264637D01*
X185149637Y-45064759D01*
X185306680Y-44829727D01*
X185414853Y-44568574D01*
X185470000Y-44291335D01*
X185470000Y-44008665D01*
X185414853Y-43731426D01*
X185306680Y-43470273D01*
X185149637Y-43235241D01*
X184949759Y-43035363D01*
X184714727Y-42878320D01*
X184453574Y-42770147D01*
X184176335Y-42715000D01*
X183893665Y-42715000D01*
X183616426Y-42770147D01*
X183355273Y-42878320D01*
X183120241Y-43035363D01*
X182920363Y-43235241D01*
X182763320Y-43470273D01*
X182655147Y-43731426D01*
X182650000Y-43757301D01*
X182644853Y-43731426D01*
X182536680Y-43470273D01*
X182379637Y-43235241D01*
X182179759Y-43035363D01*
X181944727Y-42878320D01*
X181683574Y-42770147D01*
X181406335Y-42715000D01*
X181123665Y-42715000D01*
X180846426Y-42770147D01*
X180585273Y-42878320D01*
X180350241Y-43035363D01*
X180150363Y-43235241D01*
X179993320Y-43470273D01*
X179885147Y-43731426D01*
X179880000Y-43757301D01*
X179874853Y-43731426D01*
X179766680Y-43470273D01*
X179609637Y-43235241D01*
X179409759Y-43035363D01*
X179174727Y-42878320D01*
X178913574Y-42770147D01*
X178636335Y-42715000D01*
X178353665Y-42715000D01*
X178076426Y-42770147D01*
X177815273Y-42878320D01*
X177580241Y-43035363D01*
X177380363Y-43235241D01*
X177223320Y-43470273D01*
X177115147Y-43731426D01*
X177110000Y-43757301D01*
X177104853Y-43731426D01*
X176996680Y-43470273D01*
X176839637Y-43235241D01*
X176639759Y-43035363D01*
X176404727Y-42878320D01*
X176143574Y-42770147D01*
X175866335Y-42715000D01*
X175583665Y-42715000D01*
X175306426Y-42770147D01*
X175045273Y-42878320D01*
X174810241Y-43035363D01*
X174610363Y-43235241D01*
X174453320Y-43470273D01*
X174345147Y-43731426D01*
X174340000Y-43757301D01*
X174334853Y-43731426D01*
X174226680Y-43470273D01*
X174069637Y-43235241D01*
X173869759Y-43035363D01*
X173634727Y-42878320D01*
X173373574Y-42770147D01*
X173096335Y-42715000D01*
X172813665Y-42715000D01*
X172536426Y-42770147D01*
X172275273Y-42878320D01*
X172040241Y-43035363D01*
X171840363Y-43235241D01*
X171683320Y-43470273D01*
X171575147Y-43731426D01*
X171570000Y-43757301D01*
X171564853Y-43731426D01*
X171456680Y-43470273D01*
X171299637Y-43235241D01*
X171099759Y-43035363D01*
X170864727Y-42878320D01*
X170603574Y-42770147D01*
X170326335Y-42715000D01*
X170043665Y-42715000D01*
X169766426Y-42770147D01*
X169505273Y-42878320D01*
X169270241Y-43035363D01*
X169070363Y-43235241D01*
X168913320Y-43470273D01*
X168805147Y-43731426D01*
X168800000Y-43757301D01*
X168794853Y-43731426D01*
X168686680Y-43470273D01*
X168529637Y-43235241D01*
X168329759Y-43035363D01*
X168094727Y-42878320D01*
X167833574Y-42770147D01*
X167556335Y-42715000D01*
X167273665Y-42715000D01*
X166996426Y-42770147D01*
X166735273Y-42878320D01*
X166500241Y-43035363D01*
X166300363Y-43235241D01*
X166143320Y-43470273D01*
X166035147Y-43731426D01*
X166030000Y-43757301D01*
X166024853Y-43731426D01*
X165916680Y-43470273D01*
X165759637Y-43235241D01*
X165559759Y-43035363D01*
X165324727Y-42878320D01*
X165063574Y-42770147D01*
X164786335Y-42715000D01*
X164503665Y-42715000D01*
X164226426Y-42770147D01*
X163965273Y-42878320D01*
X163730241Y-43035363D01*
X163530363Y-43235241D01*
X163373320Y-43470273D01*
X163265147Y-43731426D01*
X163259487Y-43759882D01*
X163178603Y-43533708D01*
X163111671Y-43408486D01*
X162867702Y-43336903D01*
X162054605Y-44150000D01*
X162867702Y-44963097D01*
X163111671Y-44891514D01*
X163232571Y-44636004D01*
X163258212Y-44533711D01*
X163265147Y-44568574D01*
X163373320Y-44829727D01*
X163530363Y-45064759D01*
X163730241Y-45264637D01*
X163885001Y-45368044D01*
X163885001Y-45695652D01*
X163678574Y-45610147D01*
X163401335Y-45555000D01*
X163118665Y-45555000D01*
X162841426Y-45610147D01*
X162580273Y-45718320D01*
X162345241Y-45875363D01*
X162145363Y-46075241D01*
X161988320Y-46310273D01*
X161880147Y-46571426D01*
X161875000Y-46597301D01*
X161869853Y-46571426D01*
X161761680Y-46310273D01*
X161604637Y-46075241D01*
X161404759Y-45875363D01*
X161169727Y-45718320D01*
X160908574Y-45610147D01*
X160631335Y-45555000D01*
X160348665Y-45555000D01*
X160071426Y-45610147D01*
X159865000Y-45695651D01*
X159865000Y-45368043D01*
X160019759Y-45264637D01*
X160141694Y-45142702D01*
X161061903Y-45142702D01*
X161133486Y-45386671D01*
X161388996Y-45507571D01*
X161663184Y-45576300D01*
X161945512Y-45590217D01*
X162225130Y-45548787D01*
X162491292Y-45453603D01*
X162616514Y-45386671D01*
X162688097Y-45142702D01*
X161875000Y-44329605D01*
X161061903Y-45142702D01*
X160141694Y-45142702D01*
X160219637Y-45064759D01*
X160376680Y-44829727D01*
X160484853Y-44568574D01*
X160490513Y-44540118D01*
X160571397Y-44766292D01*
X160638329Y-44891514D01*
X160882298Y-44963097D01*
X161695395Y-44150000D01*
X160882298Y-43336903D01*
X160638329Y-43408486D01*
X160517429Y-43663996D01*
X160491788Y-43766289D01*
X160484853Y-43731426D01*
X160376680Y-43470273D01*
X160219637Y-43235241D01*
X160141694Y-43157298D01*
X161061903Y-43157298D01*
X161875000Y-43970395D01*
X162688097Y-43157298D01*
X162616514Y-42913329D01*
X162361004Y-42792429D01*
X162086816Y-42723700D01*
X161804488Y-42709783D01*
X161524870Y-42751213D01*
X161258708Y-42846397D01*
X161133486Y-42913329D01*
X161061903Y-43157298D01*
X160141694Y-43157298D01*
X160019759Y-43035363D01*
X159784727Y-42878320D01*
X159523574Y-42770147D01*
X159246335Y-42715000D01*
X158963665Y-42715000D01*
X158686426Y-42770147D01*
X158425273Y-42878320D01*
X158190241Y-43035363D01*
X157990363Y-43235241D01*
X157833320Y-43470273D01*
X157725147Y-43731426D01*
X157720000Y-43757301D01*
X157714853Y-43731426D01*
X157606680Y-43470273D01*
X157449637Y-43235241D01*
X157249759Y-43035363D01*
X157014727Y-42878320D01*
X156753574Y-42770147D01*
X156476335Y-42715000D01*
X156193665Y-42715000D01*
X155916426Y-42770147D01*
X155655273Y-42878320D01*
X155420241Y-43035363D01*
X155220363Y-43235241D01*
X155063320Y-43470273D01*
X154955147Y-43731426D01*
X154950000Y-43757301D01*
X154944853Y-43731426D01*
X154836680Y-43470273D01*
X154679637Y-43235241D01*
X154479759Y-43035363D01*
X154244727Y-42878320D01*
X153983574Y-42770147D01*
X153706335Y-42715000D01*
X153423665Y-42715000D01*
X153146426Y-42770147D01*
X152885273Y-42878320D01*
X152650241Y-43035363D01*
X152450363Y-43235241D01*
X152293320Y-43470273D01*
X152185147Y-43731426D01*
X152180000Y-43757301D01*
X152174853Y-43731426D01*
X152066680Y-43470273D01*
X151909637Y-43235241D01*
X151709759Y-43035363D01*
X151474727Y-42878320D01*
X151213574Y-42770147D01*
X150936335Y-42715000D01*
X150653665Y-42715000D01*
X150376426Y-42770147D01*
X150115273Y-42878320D01*
X149880241Y-43035363D01*
X149680363Y-43235241D01*
X149523320Y-43470273D01*
X149415147Y-43731426D01*
X149410000Y-43757301D01*
X149404853Y-43731426D01*
X149296680Y-43470273D01*
X149139637Y-43235241D01*
X148939759Y-43035363D01*
X148704727Y-42878320D01*
X148443574Y-42770147D01*
X148166335Y-42715000D01*
X147883665Y-42715000D01*
X147606426Y-42770147D01*
X147345273Y-42878320D01*
X147110241Y-43035363D01*
X146910363Y-43235241D01*
X146753320Y-43470273D01*
X146645147Y-43731426D01*
X146640000Y-43757301D01*
X146634853Y-43731426D01*
X146526680Y-43470273D01*
X146369637Y-43235241D01*
X146169759Y-43035363D01*
X145934727Y-42878320D01*
X145673574Y-42770147D01*
X145396335Y-42715000D01*
X145113665Y-42715000D01*
X144836426Y-42770147D01*
X144575273Y-42878320D01*
X144340241Y-43035363D01*
X144140363Y-43235241D01*
X143983320Y-43470273D01*
X143875147Y-43731426D01*
X143870000Y-43757301D01*
X143864853Y-43731426D01*
X143756680Y-43470273D01*
X143599637Y-43235241D01*
X143399759Y-43035363D01*
X143164727Y-42878320D01*
X142903574Y-42770147D01*
X142626335Y-42715000D01*
X142343665Y-42715000D01*
X142066426Y-42770147D01*
X141805273Y-42878320D01*
X141570241Y-43035363D01*
X141370363Y-43235241D01*
X141213320Y-43470273D01*
X141105147Y-43731426D01*
X141100000Y-43757301D01*
X141094853Y-43731426D01*
X140986680Y-43470273D01*
X140829637Y-43235241D01*
X140629759Y-43035363D01*
X140394727Y-42878320D01*
X140133574Y-42770147D01*
X139856335Y-42715000D01*
X139573665Y-42715000D01*
X139296426Y-42770147D01*
X139035273Y-42878320D01*
X138800241Y-43035363D01*
X138600363Y-43235241D01*
X138443320Y-43470273D01*
X138335147Y-43731426D01*
X138330000Y-43757301D01*
X138324853Y-43731426D01*
X138216680Y-43470273D01*
X138059637Y-43235241D01*
X137859759Y-43035363D01*
X137624727Y-42878320D01*
X137363574Y-42770147D01*
X137086335Y-42715000D01*
X136803665Y-42715000D01*
X136526426Y-42770147D01*
X136265273Y-42878320D01*
X136030241Y-43035363D01*
X135830363Y-43235241D01*
X135673320Y-43470273D01*
X135565147Y-43731426D01*
X135510000Y-44008665D01*
X135510000Y-44291335D01*
X135565147Y-44568574D01*
X135673320Y-44829727D01*
X135830363Y-45064759D01*
X136030241Y-45264637D01*
X136265273Y-45421680D01*
X136526426Y-45529853D01*
X136803665Y-45585000D01*
X137086335Y-45585000D01*
X137363574Y-45529853D01*
X137624727Y-45421680D01*
X137859759Y-45264637D01*
X138059637Y-45064759D01*
X138216680Y-44829727D01*
X138324853Y-44568574D01*
X138330000Y-44542699D01*
X138335147Y-44568574D01*
X138443320Y-44829727D01*
X138600363Y-45064759D01*
X138800241Y-45264637D01*
X139035273Y-45421680D01*
X139296426Y-45529853D01*
X139573665Y-45585000D01*
X139856335Y-45585000D01*
X140133574Y-45529853D01*
X140394727Y-45421680D01*
X140629759Y-45264637D01*
X140829637Y-45064759D01*
X140986680Y-44829727D01*
X141094853Y-44568574D01*
X141100000Y-44542699D01*
X141105147Y-44568574D01*
X141213320Y-44829727D01*
X141370363Y-45064759D01*
X141570241Y-45264637D01*
X141805273Y-45421680D01*
X142066426Y-45529853D01*
X142343665Y-45585000D01*
X142626335Y-45585000D01*
X142903574Y-45529853D01*
X143164727Y-45421680D01*
X143399759Y-45264637D01*
X143599637Y-45064759D01*
X143756680Y-44829727D01*
X143864853Y-44568574D01*
X143870000Y-44542699D01*
X143875147Y-44568574D01*
X143983320Y-44829727D01*
X144140363Y-45064759D01*
X144340241Y-45264637D01*
X144575273Y-45421680D01*
X144836426Y-45529853D01*
X145113665Y-45585000D01*
X145396335Y-45585000D01*
X145673574Y-45529853D01*
X145934727Y-45421680D01*
X146169759Y-45264637D01*
X146369637Y-45064759D01*
X146526680Y-44829727D01*
X146634853Y-44568574D01*
X146640000Y-44542699D01*
X146645147Y-44568574D01*
X146753320Y-44829727D01*
X146910363Y-45064759D01*
X147110241Y-45264637D01*
X147345273Y-45421680D01*
X147606426Y-45529853D01*
X147883665Y-45585000D01*
X148166335Y-45585000D01*
X148443574Y-45529853D01*
X148704727Y-45421680D01*
X148939759Y-45264637D01*
X149139637Y-45064759D01*
X149296680Y-44829727D01*
X149404853Y-44568574D01*
X149410000Y-44542699D01*
X149415147Y-44568574D01*
X149523320Y-44829727D01*
X149680363Y-45064759D01*
X149880241Y-45264637D01*
X150115273Y-45421680D01*
X150376426Y-45529853D01*
X150653665Y-45585000D01*
X150936335Y-45585000D01*
X151213574Y-45529853D01*
X151474727Y-45421680D01*
X151709759Y-45264637D01*
X151909637Y-45064759D01*
X152066680Y-44829727D01*
X152174853Y-44568574D01*
X152180000Y-44542699D01*
X152185147Y-44568574D01*
X152293320Y-44829727D01*
X152450363Y-45064759D01*
X152650241Y-45264637D01*
X152885273Y-45421680D01*
X153146426Y-45529853D01*
X153423665Y-45585000D01*
X153706335Y-45585000D01*
X153983574Y-45529853D01*
X154244727Y-45421680D01*
X154479759Y-45264637D01*
X154679637Y-45064759D01*
X154836680Y-44829727D01*
X154944853Y-44568574D01*
X154950000Y-44542699D01*
X154955147Y-44568574D01*
X155063320Y-44829727D01*
X155220363Y-45064759D01*
X155420241Y-45264637D01*
X155655273Y-45421680D01*
X155916426Y-45529853D01*
X156193665Y-45585000D01*
X156476335Y-45585000D01*
X156753574Y-45529853D01*
X157014727Y-45421680D01*
X157249759Y-45264637D01*
X157449637Y-45064759D01*
X157606680Y-44829727D01*
X157714853Y-44568574D01*
X157720000Y-44542699D01*
X157725147Y-44568574D01*
X157833320Y-44829727D01*
X157990363Y-45064759D01*
X158190241Y-45264637D01*
X158345001Y-45368044D01*
X158345001Y-45695652D01*
X158138574Y-45610147D01*
X157861335Y-45555000D01*
X157578665Y-45555000D01*
X157301426Y-45610147D01*
X157040273Y-45718320D01*
X156805241Y-45875363D01*
X156605363Y-46075241D01*
X156448320Y-46310273D01*
X156340147Y-46571426D01*
X156335000Y-46597301D01*
X156329853Y-46571426D01*
X156221680Y-46310273D01*
X156064637Y-46075241D01*
X155864759Y-45875363D01*
X155629727Y-45718320D01*
X155368574Y-45610147D01*
X155091335Y-45555000D01*
X154808665Y-45555000D01*
X154531426Y-45610147D01*
X154270273Y-45718320D01*
X154035241Y-45875363D01*
X153835363Y-46075241D01*
X153678320Y-46310273D01*
X153570147Y-46571426D01*
X153565000Y-46597301D01*
X153559853Y-46571426D01*
X153451680Y-46310273D01*
X153294637Y-46075241D01*
X153094759Y-45875363D01*
X152859727Y-45718320D01*
X152598574Y-45610147D01*
X152321335Y-45555000D01*
X152038665Y-45555000D01*
X151761426Y-45610147D01*
X151500273Y-45718320D01*
X151265241Y-45875363D01*
X151065363Y-46075241D01*
X150908320Y-46310273D01*
X150800147Y-46571426D01*
X150795000Y-46597301D01*
X150789853Y-46571426D01*
X150681680Y-46310273D01*
X150524637Y-46075241D01*
X150324759Y-45875363D01*
X150089727Y-45718320D01*
X149828574Y-45610147D01*
X149551335Y-45555000D01*
X149268665Y-45555000D01*
X148991426Y-45610147D01*
X148730273Y-45718320D01*
X148495241Y-45875363D01*
X148295363Y-46075241D01*
X148138320Y-46310273D01*
X148030147Y-46571426D01*
X148025000Y-46597301D01*
X148019853Y-46571426D01*
X147911680Y-46310273D01*
X147754637Y-46075241D01*
X147554759Y-45875363D01*
X147319727Y-45718320D01*
X147058574Y-45610147D01*
X146781335Y-45555000D01*
X146498665Y-45555000D01*
X146221426Y-45610147D01*
X145960273Y-45718320D01*
X145725241Y-45875363D01*
X145525363Y-46075241D01*
X145368320Y-46310273D01*
X145260147Y-46571426D01*
X145255000Y-46597301D01*
X145249853Y-46571426D01*
X145141680Y-46310273D01*
X144984637Y-46075241D01*
X144784759Y-45875363D01*
X144549727Y-45718320D01*
X144288574Y-45610147D01*
X144011335Y-45555000D01*
X143728665Y-45555000D01*
X143451426Y-45610147D01*
X143190273Y-45718320D01*
X142955241Y-45875363D01*
X142755363Y-46075241D01*
X142598320Y-46310273D01*
X142490147Y-46571426D01*
X142485000Y-46597301D01*
X142479853Y-46571426D01*
X142371680Y-46310273D01*
X142214637Y-46075241D01*
X142014759Y-45875363D01*
X141779727Y-45718320D01*
X141518574Y-45610147D01*
X141241335Y-45555000D01*
X140958665Y-45555000D01*
X140681426Y-45610147D01*
X140420273Y-45718320D01*
X140185241Y-45875363D01*
X139985363Y-46075241D01*
X139828320Y-46310273D01*
X139720147Y-46571426D01*
X139715000Y-46597301D01*
X139709853Y-46571426D01*
X139601680Y-46310273D01*
X139444637Y-46075241D01*
X139244759Y-45875363D01*
X139009727Y-45718320D01*
X138748574Y-45610147D01*
X138471335Y-45555000D01*
X138188665Y-45555000D01*
X137911426Y-45610147D01*
X137650273Y-45718320D01*
X137415241Y-45875363D01*
X137215363Y-46075241D01*
X137058320Y-46310273D01*
X136950147Y-46571426D01*
X136945000Y-46597301D01*
X136939853Y-46571426D01*
X136831680Y-46310273D01*
X136674637Y-46075241D01*
X136474759Y-45875363D01*
X136239727Y-45718320D01*
X135978574Y-45610147D01*
X135701335Y-45555000D01*
X135418665Y-45555000D01*
X135141426Y-45610147D01*
X134880273Y-45718320D01*
X134645241Y-45875363D01*
X134445363Y-46075241D01*
X134288320Y-46310273D01*
X134180147Y-46571426D01*
X134125000Y-46848665D01*
X131054711Y-46848665D01*
X131075107Y-46818141D01*
X131273739Y-46338601D01*
X131375000Y-45829525D01*
X131375000Y-45310475D01*
X131273739Y-44801399D01*
X131075107Y-44321859D01*
X130786738Y-43890285D01*
X130419715Y-43523262D01*
X129988141Y-43234893D01*
X129508601Y-43036261D01*
X128999525Y-42935000D01*
X128480475Y-42935000D01*
X127971399Y-43036261D01*
X127491859Y-43234893D01*
X127060285Y-43523262D01*
X126693262Y-43890285D01*
X126404893Y-44321859D01*
X126206261Y-44801399D01*
X126105000Y-45310475D01*
X125857000Y-45310475D01*
X125857000Y-40767000D01*
X195453000Y-40767000D01*
X195453000Y-84963000D01*
G37*
X195453000Y-84963000D02*
X125857000Y-84963000D01*
X125857000Y-80921984D01*
X125905000Y-80921984D01*
X125905000Y-81638016D01*
X126044691Y-82340290D01*
X126318705Y-83001818D01*
X126716511Y-83597177D01*
X127222823Y-84103489D01*
X127818182Y-84501295D01*
X128479710Y-84775309D01*
X129181984Y-84915000D01*
X129898016Y-84915000D01*
X130600290Y-84775309D01*
X131261818Y-84501295D01*
X131857177Y-84103489D01*
X132363489Y-83597177D01*
X132761295Y-83001818D01*
X133035309Y-82340290D01*
X133175000Y-81638016D01*
X133175000Y-80921984D01*
X188135000Y-80921984D01*
X188135000Y-81638016D01*
X188274691Y-82340290D01*
X188548705Y-83001818D01*
X188946511Y-83597177D01*
X189452823Y-84103489D01*
X190048182Y-84501295D01*
X190709710Y-84775309D01*
X191411984Y-84915000D01*
X192128016Y-84915000D01*
X192830290Y-84775309D01*
X193491818Y-84501295D01*
X194087177Y-84103489D01*
X194593489Y-83597177D01*
X194991295Y-83001818D01*
X195265309Y-82340290D01*
X195405000Y-81638016D01*
X195405000Y-80921984D01*
X195265309Y-80219710D01*
X194991295Y-79558182D01*
X194593489Y-78962823D01*
X194087177Y-78456511D01*
X193491818Y-78058705D01*
X192830290Y-77784691D01*
X192128016Y-77645000D01*
X191411984Y-77645000D01*
X190709710Y-77784691D01*
X190048182Y-78058705D01*
X189452823Y-78456511D01*
X188946511Y-78962823D01*
X188548705Y-79558182D01*
X188274691Y-80219710D01*
X188135000Y-80921984D01*
X133175000Y-80921984D01*
X133035309Y-80219710D01*
X132761295Y-79558182D01*
X132363489Y-78962823D01*
X131857177Y-78456511D01*
X131261818Y-78058705D01*
X130600290Y-77784691D01*
X129898016Y-77645000D01*
X129181984Y-77645000D01*
X128479710Y-77784691D01*
X127818182Y-78058705D01*
X127222823Y-78456511D01*
X126716511Y-78962823D01*
X126318705Y-79558182D01*
X126044691Y-80219710D01*
X125905000Y-80921984D01*
X125857000Y-80921984D01*
X125857000Y-76098061D01*
X151365000Y-76098061D01*
X151365000Y-76301939D01*
X151404774Y-76501898D01*
X151482795Y-76690256D01*
X151596063Y-76859774D01*
X151740226Y-77003937D01*
X151909744Y-77117205D01*
X152098102Y-77195226D01*
X152298061Y-77235000D01*
X152501939Y-77235000D01*
X152701898Y-77195226D01*
X152890256Y-77117205D01*
X153059774Y-77003937D01*
X153103711Y-76960000D01*
X154124199Y-76960000D01*
X154308928Y-77144730D01*
X154308928Y-77333000D01*
X154325992Y-77506254D01*
X154376528Y-77672850D01*
X154458595Y-77826386D01*
X154569038Y-77960962D01*
X154703614Y-78071405D01*
X154857150Y-78153472D01*
X155023746Y-78204008D01*
X155197000Y-78221072D01*
X155947000Y-78221072D01*
X156120254Y-78204008D01*
X156286850Y-78153472D01*
X156440386Y-78071405D01*
X156574962Y-77960962D01*
X156685405Y-77826386D01*
X156767472Y-77672850D01*
X156818008Y-77506254D01*
X156835072Y-77333000D01*
X156835072Y-76083000D01*
X156818008Y-75909746D01*
X156767472Y-75743150D01*
X156685405Y-75589614D01*
X156574962Y-75455038D01*
X156440386Y-75344595D01*
X156286850Y-75262528D01*
X156120254Y-75211992D01*
X155947000Y-75194928D01*
X155197000Y-75194928D01*
X155023746Y-75211992D01*
X154857150Y-75262528D01*
X154703614Y-75344595D01*
X154575465Y-75449764D01*
X154476333Y-75440000D01*
X154476322Y-75440000D01*
X154439000Y-75436324D01*
X154401678Y-75440000D01*
X153103711Y-75440000D01*
X153059774Y-75396063D01*
X152890256Y-75282795D01*
X152701898Y-75204774D01*
X152501939Y-75165000D01*
X152298061Y-75165000D01*
X152098102Y-75204774D01*
X151909744Y-75282795D01*
X151740226Y-75396063D01*
X151596063Y-75540226D01*
X151482795Y-75709744D01*
X151404774Y-75898102D01*
X151365000Y-76098061D01*
X125857000Y-76098061D01*
X125857000Y-62823061D01*
X134668000Y-62823061D01*
X134668000Y-63026939D01*
X134707774Y-63226898D01*
X134785795Y-63415256D01*
X134899063Y-63584774D01*
X135043226Y-63728937D01*
X135212744Y-63842205D01*
X135401102Y-63920226D01*
X135601061Y-63960000D01*
X135804939Y-63960000D01*
X136004898Y-63920226D01*
X136193256Y-63842205D01*
X136208000Y-63832353D01*
X136208000Y-64026939D01*
X136247774Y-64226898D01*
X136325795Y-64415256D01*
X136439063Y-64584774D01*
X136583226Y-64728937D01*
X136752744Y-64842205D01*
X136941102Y-64920226D01*
X137141061Y-64960000D01*
X137344939Y-64960000D01*
X137544898Y-64920226D01*
X137733256Y-64842205D01*
X137748000Y-64832353D01*
X137748000Y-65026939D01*
X137787774Y-65226898D01*
X137865795Y-65415256D01*
X137979063Y-65584774D01*
X138123226Y-65728937D01*
X138292744Y-65842205D01*
X138481102Y-65920226D01*
X138681061Y-65960000D01*
X138884939Y-65960000D01*
X139084898Y-65920226D01*
X139184777Y-65878855D01*
X139173000Y-65938061D01*
X139173000Y-66141939D01*
X139212774Y-66341898D01*
X139290795Y-66530256D01*
X139404063Y-66699774D01*
X139548226Y-66843937D01*
X139717744Y-66957205D01*
X139906102Y-67035226D01*
X140106061Y-67075000D01*
X140189000Y-67075000D01*
X140189000Y-67157939D01*
X140228774Y-67357898D01*
X140306795Y-67546256D01*
X140420063Y-67715774D01*
X140564226Y-67859937D01*
X140733744Y-67973205D01*
X140922102Y-68051226D01*
X141122061Y-68091000D01*
X141325939Y-68091000D01*
X141525898Y-68051226D01*
X141714256Y-67973205D01*
X141883774Y-67859937D01*
X141927711Y-67816000D01*
X142065137Y-67816000D01*
X141985795Y-67934744D01*
X141907774Y-68123102D01*
X141868000Y-68323061D01*
X141868000Y-68526939D01*
X141907774Y-68726898D01*
X141985795Y-68915256D01*
X142099063Y-69084774D01*
X142243226Y-69228937D01*
X142412744Y-69342205D01*
X142601102Y-69420226D01*
X142801061Y-69460000D01*
X143004939Y-69460000D01*
X143204898Y-69420226D01*
X143393256Y-69342205D01*
X143408000Y-69332353D01*
X143408000Y-69526939D01*
X143447774Y-69726898D01*
X143525795Y-69915256D01*
X143639063Y-70084774D01*
X143783226Y-70228937D01*
X143952744Y-70342205D01*
X144141102Y-70420226D01*
X144341061Y-70460000D01*
X144544939Y-70460000D01*
X144744898Y-70420226D01*
X144933256Y-70342205D01*
X144948000Y-70332353D01*
X144948000Y-70526939D01*
X144987774Y-70726898D01*
X145065795Y-70915256D01*
X145179063Y-71084774D01*
X145323226Y-71228937D01*
X145492744Y-71342205D01*
X145681102Y-71420226D01*
X145881061Y-71460000D01*
X146084939Y-71460000D01*
X146284898Y-71420226D01*
X146473256Y-71342205D01*
X146642774Y-71228937D01*
X146686711Y-71185000D01*
X149094262Y-71185000D01*
X149085000Y-71266250D01*
X149150672Y-71331922D01*
X149189463Y-71404494D01*
X149206292Y-71425000D01*
X149189463Y-71445506D01*
X149150672Y-71518078D01*
X149085000Y-71583750D01*
X149095114Y-71672467D01*
X149094188Y-71675518D01*
X149081928Y-71800000D01*
X149081928Y-72050000D01*
X149094188Y-72174482D01*
X149094345Y-72175000D01*
X149094188Y-72175518D01*
X149081928Y-72300000D01*
X149081928Y-72550000D01*
X149094188Y-72674482D01*
X149130498Y-72794180D01*
X149189463Y-72904494D01*
X149268815Y-73001185D01*
X149365506Y-73080537D01*
X149475820Y-73139502D01*
X149595518Y-73175812D01*
X149720000Y-73188072D01*
X150820000Y-73188072D01*
X150851192Y-73185000D01*
X151407289Y-73185000D01*
X151451226Y-73228937D01*
X151620744Y-73342205D01*
X151809102Y-73420226D01*
X152009061Y-73460000D01*
X152212939Y-73460000D01*
X152412898Y-73420226D01*
X152601256Y-73342205D01*
X152770774Y-73228937D01*
X152914937Y-73084774D01*
X153028205Y-72915256D01*
X153106226Y-72726898D01*
X153146000Y-72526939D01*
X153146000Y-72323061D01*
X153106226Y-72123102D01*
X153028205Y-71934744D01*
X152914937Y-71765226D01*
X152770774Y-71621063D01*
X152601256Y-71507795D01*
X152412898Y-71429774D01*
X152212939Y-71390000D01*
X152009061Y-71390000D01*
X151809102Y-71429774D01*
X151620744Y-71507795D01*
X151451226Y-71621063D01*
X151450685Y-71621604D01*
X151455000Y-71583750D01*
X151439254Y-71568004D01*
X151454278Y-71559974D01*
X151570003Y-71465001D01*
X151593806Y-71435997D01*
X156975004Y-66054800D01*
X157004001Y-66031003D01*
X157098974Y-65915278D01*
X157169546Y-65783249D01*
X157213003Y-65639988D01*
X157224000Y-65528335D01*
X157224000Y-65528327D01*
X157227676Y-65491002D01*
X157224000Y-65453677D01*
X157224000Y-53535711D01*
X157267937Y-53491774D01*
X157381205Y-53322256D01*
X157459226Y-53133898D01*
X157499000Y-52933939D01*
X157499000Y-52730061D01*
X157459226Y-52530102D01*
X157381205Y-52341744D01*
X157267937Y-52172226D01*
X157123774Y-52028063D01*
X156954256Y-51914795D01*
X156765898Y-51836774D01*
X156565939Y-51797000D01*
X156362061Y-51797000D01*
X156162102Y-51836774D01*
X155973744Y-51914795D01*
X155804226Y-52028063D01*
X155660063Y-52172226D01*
X155546795Y-52341744D01*
X155468774Y-52530102D01*
X155429000Y-52730061D01*
X155429000Y-52930275D01*
X155241898Y-52852774D01*
X155041939Y-52813000D01*
X154838061Y-52813000D01*
X154638102Y-52852774D01*
X154449744Y-52930795D01*
X154280226Y-53044063D01*
X154136063Y-53188226D01*
X154022795Y-53357744D01*
X153944774Y-53546102D01*
X153905000Y-53746061D01*
X153905000Y-53829000D01*
X153822061Y-53829000D01*
X153622102Y-53868774D01*
X153433744Y-53946795D01*
X153264226Y-54060063D01*
X153120063Y-54204226D01*
X153006795Y-54373744D01*
X152928774Y-54562102D01*
X152889000Y-54762061D01*
X152889000Y-54962275D01*
X152701898Y-54884774D01*
X152501939Y-54845000D01*
X152298061Y-54845000D01*
X152098102Y-54884774D01*
X151909744Y-54962795D01*
X151740226Y-55076063D01*
X151596063Y-55220226D01*
X151482795Y-55389744D01*
X151431237Y-55514214D01*
X151366256Y-55470795D01*
X151177898Y-55392774D01*
X150977939Y-55353000D01*
X150774061Y-55353000D01*
X150574102Y-55392774D01*
X150385744Y-55470795D01*
X150216226Y-55584063D01*
X150072063Y-55728226D01*
X149958795Y-55897744D01*
X149880774Y-56086102D01*
X149841000Y-56286061D01*
X149841000Y-56369000D01*
X149758061Y-56369000D01*
X149558102Y-56408774D01*
X149369744Y-56486795D01*
X149200226Y-56600063D01*
X149056063Y-56744226D01*
X148942795Y-56913744D01*
X148864774Y-57102102D01*
X148825000Y-57302061D01*
X148825000Y-57502275D01*
X148637898Y-57424774D01*
X148437939Y-57385000D01*
X148234061Y-57385000D01*
X148034102Y-57424774D01*
X147845744Y-57502795D01*
X147676226Y-57616063D01*
X147532063Y-57760226D01*
X147418795Y-57929744D01*
X147340774Y-58118102D01*
X147301000Y-58318061D01*
X147301000Y-58521939D01*
X147340774Y-58721898D01*
X147418795Y-58910256D01*
X147532063Y-59079774D01*
X147636289Y-59184000D01*
X147515711Y-59184000D01*
X147471774Y-59140063D01*
X147302256Y-59026795D01*
X147113898Y-58948774D01*
X146913939Y-58909000D01*
X146710061Y-58909000D01*
X146510102Y-58948774D01*
X146321744Y-59026795D01*
X146152226Y-59140063D01*
X146081044Y-59211245D01*
X145815000Y-58945200D01*
X145815000Y-58883063D01*
X145775226Y-58683104D01*
X145697205Y-58494746D01*
X145583937Y-58325228D01*
X145439774Y-58181065D01*
X145270256Y-58067797D01*
X145081898Y-57989776D01*
X144881939Y-57950002D01*
X144678061Y-57950002D01*
X144478102Y-57989776D01*
X144289744Y-58067797D01*
X144120226Y-58181065D01*
X143976063Y-58325228D01*
X143862795Y-58494746D01*
X143784774Y-58683104D01*
X143745000Y-58883063D01*
X143745000Y-59086941D01*
X143784774Y-59286900D01*
X143862795Y-59475258D01*
X143976063Y-59644776D01*
X144120226Y-59788939D01*
X144289744Y-59902207D01*
X144478102Y-59980228D01*
X144678061Y-60020002D01*
X144740198Y-60020002D01*
X146156203Y-61436008D01*
X146179997Y-61465001D01*
X146208990Y-61488795D01*
X146208994Y-61488799D01*
X146224087Y-61501185D01*
X146295722Y-61559974D01*
X146427751Y-61630546D01*
X146541333Y-61665000D01*
X145543803Y-61665000D01*
X145307000Y-61428198D01*
X145307000Y-61366061D01*
X145267226Y-61166102D01*
X145189205Y-60977744D01*
X145075937Y-60808226D01*
X144931774Y-60664063D01*
X144762256Y-60550795D01*
X144573898Y-60472774D01*
X144373939Y-60433000D01*
X144170061Y-60433000D01*
X143970102Y-60472774D01*
X143781744Y-60550795D01*
X143612226Y-60664063D01*
X143468063Y-60808226D01*
X143354795Y-60977744D01*
X143276774Y-61166102D01*
X143237000Y-61366061D01*
X143237000Y-61569939D01*
X143276774Y-61769898D01*
X143354795Y-61958256D01*
X143468063Y-62127774D01*
X143505289Y-62165000D01*
X136406711Y-62165000D01*
X136362774Y-62121063D01*
X136193256Y-62007795D01*
X136004898Y-61929774D01*
X135804939Y-61890000D01*
X135601061Y-61890000D01*
X135401102Y-61929774D01*
X135212744Y-62007795D01*
X135043226Y-62121063D01*
X134899063Y-62265226D01*
X134785795Y-62434744D01*
X134707774Y-62623102D01*
X134668000Y-62823061D01*
X125857000Y-62823061D01*
X125857000Y-45310475D01*
X126105000Y-45310475D01*
X126105000Y-45829525D01*
X126206261Y-46338601D01*
X126404893Y-46818141D01*
X126693262Y-47249715D01*
X127060285Y-47616738D01*
X127491859Y-47905107D01*
X127971399Y-48103739D01*
X128480475Y-48205000D01*
X128999525Y-48205000D01*
X129508601Y-48103739D01*
X129988141Y-47905107D01*
X130419715Y-47616738D01*
X130786738Y-47249715D01*
X131054711Y-46848665D01*
X134125000Y-46848665D01*
X134125000Y-47131335D01*
X134180147Y-47408574D01*
X134288320Y-47669727D01*
X134445363Y-47904759D01*
X134645241Y-48104637D01*
X134880273Y-48261680D01*
X135141426Y-48369853D01*
X135418665Y-48425000D01*
X135701335Y-48425000D01*
X135978574Y-48369853D01*
X136239727Y-48261680D01*
X136474759Y-48104637D01*
X136674637Y-47904759D01*
X136831680Y-47669727D01*
X136939853Y-47408574D01*
X136945000Y-47382699D01*
X136950147Y-47408574D01*
X137058320Y-47669727D01*
X137215363Y-47904759D01*
X137415241Y-48104637D01*
X137650273Y-48261680D01*
X137911426Y-48369853D01*
X138188665Y-48425000D01*
X138471335Y-48425000D01*
X138748574Y-48369853D01*
X139009727Y-48261680D01*
X139244759Y-48104637D01*
X139444637Y-47904759D01*
X139601680Y-47669727D01*
X139709853Y-47408574D01*
X139715000Y-47382699D01*
X139720147Y-47408574D01*
X139828320Y-47669727D01*
X139985363Y-47904759D01*
X140185241Y-48104637D01*
X140420273Y-48261680D01*
X140681426Y-48369853D01*
X140958665Y-48425000D01*
X141241335Y-48425000D01*
X141518574Y-48369853D01*
X141779727Y-48261680D01*
X142014759Y-48104637D01*
X142214637Y-47904759D01*
X142371680Y-47669727D01*
X142479853Y-47408574D01*
X142485000Y-47382699D01*
X142490147Y-47408574D01*
X142598320Y-47669727D01*
X142755363Y-47904759D01*
X142955241Y-48104637D01*
X143190273Y-48261680D01*
X143451426Y-48369853D01*
X143728665Y-48425000D01*
X144011335Y-48425000D01*
X144288574Y-48369853D01*
X144549727Y-48261680D01*
X144784759Y-48104637D01*
X144984637Y-47904759D01*
X145141680Y-47669727D01*
X145249853Y-47408574D01*
X145255000Y-47382699D01*
X145260147Y-47408574D01*
X145368320Y-47669727D01*
X145525363Y-47904759D01*
X145725241Y-48104637D01*
X145960273Y-48261680D01*
X146221426Y-48369853D01*
X146498665Y-48425000D01*
X146781335Y-48425000D01*
X147058574Y-48369853D01*
X147319727Y-48261680D01*
X147554759Y-48104637D01*
X147754637Y-47904759D01*
X147911680Y-47669727D01*
X148019853Y-47408574D01*
X148025000Y-47382699D01*
X148030147Y-47408574D01*
X148138320Y-47669727D01*
X148295363Y-47904759D01*
X148495241Y-48104637D01*
X148730273Y-48261680D01*
X148991426Y-48369853D01*
X149268665Y-48425000D01*
X149551335Y-48425000D01*
X149828574Y-48369853D01*
X150089727Y-48261680D01*
X150324759Y-48104637D01*
X150524637Y-47904759D01*
X150681680Y-47669727D01*
X150789853Y-47408574D01*
X150795000Y-47382699D01*
X150800147Y-47408574D01*
X150908320Y-47669727D01*
X151065363Y-47904759D01*
X151265241Y-48104637D01*
X151500273Y-48261680D01*
X151761426Y-48369853D01*
X152038665Y-48425000D01*
X152321335Y-48425000D01*
X152598574Y-48369853D01*
X152859727Y-48261680D01*
X153094759Y-48104637D01*
X153294637Y-47904759D01*
X153451680Y-47669727D01*
X153559853Y-47408574D01*
X153565000Y-47382699D01*
X153570147Y-47408574D01*
X153678320Y-47669727D01*
X153835363Y-47904759D01*
X154035241Y-48104637D01*
X154270273Y-48261680D01*
X154531426Y-48369853D01*
X154808665Y-48425000D01*
X155091335Y-48425000D01*
X155368574Y-48369853D01*
X155629727Y-48261680D01*
X155864759Y-48104637D01*
X156064637Y-47904759D01*
X156221680Y-47669727D01*
X156329853Y-47408574D01*
X156335000Y-47382699D01*
X156340147Y-47408574D01*
X156448320Y-47669727D01*
X156605363Y-47904759D01*
X156805241Y-48104637D01*
X157040273Y-48261680D01*
X157301426Y-48369853D01*
X157578665Y-48425000D01*
X157612001Y-48425000D01*
X157612000Y-66984289D01*
X157568063Y-67028226D01*
X157454795Y-67197744D01*
X157376774Y-67386102D01*
X157337000Y-67586061D01*
X157337000Y-67789939D01*
X157376774Y-67989898D01*
X157454795Y-68178256D01*
X157568063Y-68347774D01*
X157612001Y-68391712D01*
X157612000Y-75286661D01*
X157503614Y-75344595D01*
X157369038Y-75455038D01*
X157258595Y-75589614D01*
X157176528Y-75743150D01*
X157125992Y-75909746D01*
X157108928Y-76083000D01*
X157108928Y-77333000D01*
X157125992Y-77506254D01*
X157176528Y-77672850D01*
X157258595Y-77826386D01*
X157369038Y-77960962D01*
X157503614Y-78071405D01*
X157657150Y-78153472D01*
X157823746Y-78204008D01*
X157997000Y-78221072D01*
X158747000Y-78221072D01*
X158920254Y-78204008D01*
X159086850Y-78153472D01*
X159240386Y-78071405D01*
X159374962Y-77960962D01*
X159485405Y-77826386D01*
X159567472Y-77672850D01*
X159618008Y-77506254D01*
X159635072Y-77333000D01*
X159635072Y-76882874D01*
X159896928Y-77144731D01*
X159896928Y-77333000D01*
X159913992Y-77506254D01*
X159964528Y-77672850D01*
X160046595Y-77826386D01*
X160157038Y-77960962D01*
X160291614Y-78071405D01*
X160445150Y-78153472D01*
X160611746Y-78204008D01*
X160785000Y-78221072D01*
X161535000Y-78221072D01*
X161708254Y-78204008D01*
X161874850Y-78153472D01*
X162028386Y-78071405D01*
X162162962Y-77960962D01*
X162273405Y-77826386D01*
X162355472Y-77672850D01*
X162382727Y-77583000D01*
X162696928Y-77583000D01*
X162709188Y-77707482D01*
X162745498Y-77827180D01*
X162804463Y-77937494D01*
X162883815Y-78034185D01*
X162980506Y-78113537D01*
X163090820Y-78172502D01*
X163210518Y-78208812D01*
X163335000Y-78221072D01*
X163674250Y-78218000D01*
X163833000Y-78059250D01*
X163833000Y-76835000D01*
X164087000Y-76835000D01*
X164087000Y-78059250D01*
X164245750Y-78218000D01*
X164585000Y-78221072D01*
X164709482Y-78208812D01*
X164829180Y-78172502D01*
X164939494Y-78113537D01*
X165036185Y-78034185D01*
X165115537Y-77937494D01*
X165174502Y-77827180D01*
X165210812Y-77707482D01*
X165223072Y-77583000D01*
X165220000Y-76993750D01*
X165061250Y-76835000D01*
X164087000Y-76835000D01*
X163833000Y-76835000D01*
X162858750Y-76835000D01*
X162700000Y-76993750D01*
X162696928Y-77583000D01*
X162382727Y-77583000D01*
X162406008Y-77506254D01*
X162423072Y-77333000D01*
X162423072Y-76083000D01*
X162406008Y-75909746D01*
X162382728Y-75833000D01*
X162696928Y-75833000D01*
X162700000Y-76422250D01*
X162858750Y-76581000D01*
X163833000Y-76581000D01*
X163833000Y-75356750D01*
X164087000Y-75356750D01*
X164087000Y-76581000D01*
X165061250Y-76581000D01*
X165220000Y-76422250D01*
X165223072Y-75833000D01*
X165210812Y-75708518D01*
X165174502Y-75588820D01*
X165115537Y-75478506D01*
X165036185Y-75381815D01*
X164939494Y-75302463D01*
X164829180Y-75243498D01*
X164709482Y-75207188D01*
X164585000Y-75194928D01*
X164245750Y-75198000D01*
X164087000Y-75356750D01*
X163833000Y-75356750D01*
X163674250Y-75198000D01*
X163335000Y-75194928D01*
X163210518Y-75207188D01*
X163090820Y-75243498D01*
X162980506Y-75302463D01*
X162883815Y-75381815D01*
X162804463Y-75478506D01*
X162745498Y-75588820D01*
X162709188Y-75708518D01*
X162696928Y-75833000D01*
X162382728Y-75833000D01*
X162355472Y-75743150D01*
X162273405Y-75589614D01*
X162162962Y-75455038D01*
X162028386Y-75344595D01*
X161874850Y-75262528D01*
X161708254Y-75211992D01*
X161535000Y-75194928D01*
X160785000Y-75194928D01*
X160611746Y-75211992D01*
X160445150Y-75262528D01*
X160291614Y-75344595D01*
X160266779Y-75364977D01*
X159865000Y-74963199D01*
X159865000Y-62070711D01*
X159908937Y-62026774D01*
X160022205Y-61857256D01*
X160100226Y-61668898D01*
X160140000Y-61468939D01*
X160140000Y-61265061D01*
X160100226Y-61065102D01*
X160022205Y-60876744D01*
X159908937Y-60707226D01*
X159865000Y-60663289D01*
X159865000Y-48284349D01*
X160071426Y-48369853D01*
X160348665Y-48425000D01*
X160631335Y-48425000D01*
X160908574Y-48369853D01*
X161169727Y-48261680D01*
X161404759Y-48104637D01*
X161604637Y-47904759D01*
X161761680Y-47669727D01*
X161869853Y-47408574D01*
X161875000Y-47382699D01*
X161880147Y-47408574D01*
X161988320Y-47669727D01*
X162145363Y-47904759D01*
X162339011Y-48098407D01*
X162318997Y-48164385D01*
X162308000Y-48276038D01*
X162308000Y-48276048D01*
X162304324Y-48313370D01*
X162308000Y-48350692D01*
X162308001Y-71432288D01*
X162264063Y-71476226D01*
X162150795Y-71645744D01*
X162072774Y-71834102D01*
X162033000Y-72034061D01*
X162033000Y-72237939D01*
X162072774Y-72437898D01*
X162150795Y-72626256D01*
X162264063Y-72795774D01*
X162408226Y-72939937D01*
X162577744Y-73053205D01*
X162766102Y-73131226D01*
X162966061Y-73171000D01*
X163028199Y-73171000D01*
X165569185Y-75711987D01*
X165552528Y-75743150D01*
X165501992Y-75909746D01*
X165484928Y-76083000D01*
X165484928Y-77333000D01*
X165501992Y-77506254D01*
X165552528Y-77672850D01*
X165634595Y-77826386D01*
X165745038Y-77960962D01*
X165879614Y-78071405D01*
X166033150Y-78153472D01*
X166199746Y-78204008D01*
X166373000Y-78221072D01*
X167123000Y-78221072D01*
X167296254Y-78204008D01*
X167462850Y-78153472D01*
X167616386Y-78071405D01*
X167750962Y-77960962D01*
X167861405Y-77826386D01*
X167943472Y-77672850D01*
X167970727Y-77583000D01*
X168284928Y-77583000D01*
X168297188Y-77707482D01*
X168333498Y-77827180D01*
X168392463Y-77937494D01*
X168471815Y-78034185D01*
X168568506Y-78113537D01*
X168678820Y-78172502D01*
X168798518Y-78208812D01*
X168923000Y-78221072D01*
X169262250Y-78218000D01*
X169421000Y-78059250D01*
X169421000Y-76835000D01*
X169675000Y-76835000D01*
X169675000Y-78059250D01*
X169833750Y-78218000D01*
X170173000Y-78221072D01*
X170297482Y-78208812D01*
X170417180Y-78172502D01*
X170527494Y-78113537D01*
X170624185Y-78034185D01*
X170703537Y-77937494D01*
X170762502Y-77827180D01*
X170798812Y-77707482D01*
X170811072Y-77583000D01*
X170808000Y-76993750D01*
X170649250Y-76835000D01*
X169675000Y-76835000D01*
X169421000Y-76835000D01*
X168446750Y-76835000D01*
X168288000Y-76993750D01*
X168284928Y-77583000D01*
X167970727Y-77583000D01*
X167994008Y-77506254D01*
X168011072Y-77333000D01*
X168011072Y-76083000D01*
X167994008Y-75909746D01*
X167970728Y-75833000D01*
X168284928Y-75833000D01*
X168288000Y-76422250D01*
X168446750Y-76581000D01*
X169421000Y-76581000D01*
X169421000Y-75356750D01*
X169675000Y-75356750D01*
X169675000Y-76581000D01*
X170649250Y-76581000D01*
X170808000Y-76422250D01*
X170811072Y-75833000D01*
X170798812Y-75708518D01*
X170762502Y-75588820D01*
X170703537Y-75478506D01*
X170624185Y-75381815D01*
X170527494Y-75302463D01*
X170417180Y-75243498D01*
X170297482Y-75207188D01*
X170173000Y-75194928D01*
X169833750Y-75198000D01*
X169675000Y-75356750D01*
X169421000Y-75356750D01*
X169262250Y-75198000D01*
X168923000Y-75194928D01*
X168798518Y-75207188D01*
X168678820Y-75243498D01*
X168568506Y-75302463D01*
X168471815Y-75381815D01*
X168392463Y-75478506D01*
X168333498Y-75588820D01*
X168297188Y-75708518D01*
X168284928Y-75833000D01*
X167970728Y-75833000D01*
X167943472Y-75743150D01*
X167861405Y-75589614D01*
X167750962Y-75455038D01*
X167616386Y-75344595D01*
X167462850Y-75262528D01*
X167296254Y-75211992D01*
X167210331Y-75203529D01*
X164103000Y-72096199D01*
X164103000Y-72034061D01*
X164063226Y-71834102D01*
X163985205Y-71645744D01*
X163871937Y-71476226D01*
X163828000Y-71432289D01*
X163828000Y-48627254D01*
X163885001Y-48557798D01*
X163885000Y-68062678D01*
X163881324Y-68100000D01*
X163885000Y-68137322D01*
X163885000Y-68137332D01*
X163895997Y-68248985D01*
X163937256Y-68384999D01*
X163939454Y-68392246D01*
X164010026Y-68524276D01*
X164035914Y-68555820D01*
X164104999Y-68640001D01*
X164134003Y-68663804D01*
X168406200Y-72936002D01*
X168429999Y-72965001D01*
X168545724Y-73059974D01*
X168677753Y-73130546D01*
X168821014Y-73174003D01*
X168932667Y-73185000D01*
X168932675Y-73185000D01*
X168970000Y-73188676D01*
X169007325Y-73185000D01*
X169188808Y-73185000D01*
X169220000Y-73188072D01*
X170258271Y-73188072D01*
X171700001Y-74629803D01*
X171700001Y-75286661D01*
X171591614Y-75344595D01*
X171457038Y-75455038D01*
X171346595Y-75589614D01*
X171264528Y-75743150D01*
X171213992Y-75909746D01*
X171196928Y-76083000D01*
X171196928Y-77333000D01*
X171213992Y-77506254D01*
X171264528Y-77672850D01*
X171346595Y-77826386D01*
X171457038Y-77960962D01*
X171591614Y-78071405D01*
X171745150Y-78153472D01*
X171911746Y-78204008D01*
X172085000Y-78221072D01*
X172835000Y-78221072D01*
X173008254Y-78204008D01*
X173174850Y-78153472D01*
X173328386Y-78071405D01*
X173462962Y-77960962D01*
X173573405Y-77826386D01*
X173655472Y-77672850D01*
X173682727Y-77583000D01*
X173996928Y-77583000D01*
X174009188Y-77707482D01*
X174045498Y-77827180D01*
X174104463Y-77937494D01*
X174183815Y-78034185D01*
X174280506Y-78113537D01*
X174390820Y-78172502D01*
X174510518Y-78208812D01*
X174635000Y-78221072D01*
X174974250Y-78218000D01*
X175133000Y-78059250D01*
X175133000Y-76835000D01*
X175387000Y-76835000D01*
X175387000Y-78059250D01*
X175545750Y-78218000D01*
X175885000Y-78221072D01*
X176009482Y-78208812D01*
X176129180Y-78172502D01*
X176239494Y-78113537D01*
X176336185Y-78034185D01*
X176415537Y-77937494D01*
X176474502Y-77827180D01*
X176510812Y-77707482D01*
X176523072Y-77583000D01*
X176520000Y-76993750D01*
X176361250Y-76835000D01*
X175387000Y-76835000D01*
X175133000Y-76835000D01*
X174158750Y-76835000D01*
X174000000Y-76993750D01*
X173996928Y-77583000D01*
X173682727Y-77583000D01*
X173706008Y-77506254D01*
X173723072Y-77333000D01*
X173723072Y-76083000D01*
X173706008Y-75909746D01*
X173682728Y-75833000D01*
X173996928Y-75833000D01*
X174000000Y-76422250D01*
X174158750Y-76581000D01*
X175133000Y-76581000D01*
X175133000Y-75356750D01*
X175387000Y-75356750D01*
X175387000Y-76581000D01*
X176361250Y-76581000D01*
X176520000Y-76422250D01*
X176523072Y-75833000D01*
X176510812Y-75708518D01*
X176474502Y-75588820D01*
X176415537Y-75478506D01*
X176336185Y-75381815D01*
X176239494Y-75302463D01*
X176129180Y-75243498D01*
X176009482Y-75207188D01*
X175885000Y-75194928D01*
X175545750Y-75198000D01*
X175387000Y-75356750D01*
X175133000Y-75356750D01*
X174974250Y-75198000D01*
X174635000Y-75194928D01*
X174510518Y-75207188D01*
X174390820Y-75243498D01*
X174280506Y-75302463D01*
X174183815Y-75381815D01*
X174104463Y-75478506D01*
X174045498Y-75588820D01*
X174009188Y-75708518D01*
X173996928Y-75833000D01*
X173682728Y-75833000D01*
X173655472Y-75743150D01*
X173573405Y-75589614D01*
X173462962Y-75455038D01*
X173328386Y-75344595D01*
X173220000Y-75286661D01*
X173220000Y-74352325D01*
X173223676Y-74315000D01*
X173220000Y-74277675D01*
X173220000Y-74277667D01*
X173209003Y-74166014D01*
X173165546Y-74022753D01*
X173094974Y-73890724D01*
X173000001Y-73774999D01*
X172971003Y-73751201D01*
X172738467Y-73518665D01*
X190335000Y-73518665D01*
X190335000Y-73801335D01*
X190390147Y-74078574D01*
X190498320Y-74339727D01*
X190655363Y-74574759D01*
X190855241Y-74774637D01*
X191090273Y-74931680D01*
X191351426Y-75039853D01*
X191628665Y-75095000D01*
X191911335Y-75095000D01*
X192188574Y-75039853D01*
X192449727Y-74931680D01*
X192684759Y-74774637D01*
X192884637Y-74574759D01*
X193041680Y-74339727D01*
X193149853Y-74078574D01*
X193205000Y-73801335D01*
X193205000Y-73518665D01*
X193149853Y-73241426D01*
X193041680Y-72980273D01*
X192884637Y-72745241D01*
X192684759Y-72545363D01*
X192449727Y-72388320D01*
X192188574Y-72280147D01*
X191911335Y-72225000D01*
X191628665Y-72225000D01*
X191351426Y-72280147D01*
X191090273Y-72388320D01*
X190855241Y-72545363D01*
X190655363Y-72745241D01*
X190498320Y-72980273D01*
X190390147Y-73241426D01*
X190335000Y-73518665D01*
X172738467Y-73518665D01*
X171791257Y-72571455D01*
X171812736Y-72559974D01*
X171928461Y-72465001D01*
X171952264Y-72435997D01*
X174068261Y-70320000D01*
X180806928Y-70320000D01*
X180806928Y-71920000D01*
X180819188Y-72044482D01*
X180855498Y-72164180D01*
X180914463Y-72274494D01*
X180993815Y-72371185D01*
X181090506Y-72450537D01*
X181200820Y-72509502D01*
X181320518Y-72545812D01*
X181445000Y-72558072D01*
X183045000Y-72558072D01*
X183169482Y-72545812D01*
X183289180Y-72509502D01*
X183399494Y-72450537D01*
X183496185Y-72371185D01*
X183575537Y-72274494D01*
X183634502Y-72164180D01*
X183650117Y-72112702D01*
X183931903Y-72112702D01*
X184003486Y-72356671D01*
X184258996Y-72477571D01*
X184533184Y-72546300D01*
X184815512Y-72560217D01*
X185095130Y-72518787D01*
X185361292Y-72423603D01*
X185486514Y-72356671D01*
X185558097Y-72112702D01*
X184745000Y-71299605D01*
X183931903Y-72112702D01*
X183650117Y-72112702D01*
X183670812Y-72044482D01*
X183683072Y-71920000D01*
X183683072Y-71912785D01*
X183752298Y-71933097D01*
X184565395Y-71120000D01*
X184924605Y-71120000D01*
X185737702Y-71933097D01*
X185981671Y-71861514D01*
X186102571Y-71606004D01*
X186171300Y-71331816D01*
X186185217Y-71049488D01*
X186143787Y-70769870D01*
X186048603Y-70503708D01*
X185981671Y-70378486D01*
X185737702Y-70306903D01*
X184924605Y-71120000D01*
X184565395Y-71120000D01*
X183752298Y-70306903D01*
X183683072Y-70327215D01*
X183683072Y-70320000D01*
X183670812Y-70195518D01*
X183650118Y-70127298D01*
X183931903Y-70127298D01*
X184745000Y-70940395D01*
X185558097Y-70127298D01*
X185486514Y-69883329D01*
X185231004Y-69762429D01*
X184956816Y-69693700D01*
X184674488Y-69679783D01*
X184394870Y-69721213D01*
X184128708Y-69816397D01*
X184003486Y-69883329D01*
X183931903Y-70127298D01*
X183650118Y-70127298D01*
X183634502Y-70075820D01*
X183575537Y-69965506D01*
X183496185Y-69868815D01*
X183399494Y-69789463D01*
X183289180Y-69730498D01*
X183169482Y-69694188D01*
X183045000Y-69681928D01*
X181445000Y-69681928D01*
X181320518Y-69694188D01*
X181200820Y-69730498D01*
X181090506Y-69789463D01*
X180993815Y-69868815D01*
X180914463Y-69965506D01*
X180855498Y-70075820D01*
X180819188Y-70195518D01*
X180806928Y-70320000D01*
X174068261Y-70320000D01*
X174735559Y-69652702D01*
X190956903Y-69652702D01*
X191028486Y-69896671D01*
X191283996Y-70017571D01*
X191558184Y-70086300D01*
X191840512Y-70100217D01*
X192120130Y-70058787D01*
X192386292Y-69963603D01*
X192511514Y-69896671D01*
X192583097Y-69652702D01*
X191770000Y-68839605D01*
X190956903Y-69652702D01*
X174735559Y-69652702D01*
X175657749Y-68730512D01*
X190329783Y-68730512D01*
X190371213Y-69010130D01*
X190466397Y-69276292D01*
X190533329Y-69401514D01*
X190777298Y-69473097D01*
X191590395Y-68660000D01*
X191949605Y-68660000D01*
X192762702Y-69473097D01*
X193006671Y-69401514D01*
X193127571Y-69146004D01*
X193196300Y-68871816D01*
X193210217Y-68589488D01*
X193168787Y-68309870D01*
X193073603Y-68043708D01*
X193006671Y-67918486D01*
X192762702Y-67846903D01*
X191949605Y-68660000D01*
X191590395Y-68660000D01*
X190777298Y-67846903D01*
X190533329Y-67918486D01*
X190412429Y-68173996D01*
X190343700Y-68448184D01*
X190329783Y-68730512D01*
X175657749Y-68730512D01*
X176720963Y-67667298D01*
X190956903Y-67667298D01*
X191770000Y-68480395D01*
X192583097Y-67667298D01*
X192511514Y-67423329D01*
X192256004Y-67302429D01*
X191981816Y-67233700D01*
X191699488Y-67219783D01*
X191419870Y-67261213D01*
X191153708Y-67356397D01*
X191028486Y-67423329D01*
X190956903Y-67667298D01*
X176720963Y-67667298D01*
X185931004Y-58457258D01*
X185960001Y-58433461D01*
X186054974Y-58317736D01*
X186125546Y-58185707D01*
X186169003Y-58042446D01*
X186180000Y-57930793D01*
X186180000Y-57930784D01*
X186183676Y-57893461D01*
X186180000Y-57856138D01*
X186180000Y-48428072D01*
X186220000Y-48428072D01*
X186344482Y-48415812D01*
X186464180Y-48379502D01*
X186574494Y-48320537D01*
X186671185Y-48241185D01*
X186750537Y-48144494D01*
X186809502Y-48034180D01*
X186845812Y-47914482D01*
X186858072Y-47790000D01*
X186858072Y-46190000D01*
X186845812Y-46065518D01*
X186809502Y-45945820D01*
X186750537Y-45835506D01*
X186671185Y-45738815D01*
X186574494Y-45659463D01*
X186464180Y-45600498D01*
X186344482Y-45564188D01*
X186220000Y-45551928D01*
X184795000Y-45551928D01*
X184795000Y-45368043D01*
X184881157Y-45310475D01*
X189605000Y-45310475D01*
X189605000Y-45829525D01*
X189706261Y-46338601D01*
X189904893Y-46818141D01*
X190193262Y-47249715D01*
X190560285Y-47616738D01*
X190991859Y-47905107D01*
X191471399Y-48103739D01*
X191980475Y-48205000D01*
X192499525Y-48205000D01*
X193008601Y-48103739D01*
X193488141Y-47905107D01*
X193919715Y-47616738D01*
X194286738Y-47249715D01*
X194575107Y-46818141D01*
X194773739Y-46338601D01*
X194875000Y-45829525D01*
X194875000Y-45310475D01*
X194773739Y-44801399D01*
X194575107Y-44321859D01*
X194286738Y-43890285D01*
X193919715Y-43523262D01*
X193488141Y-43234893D01*
X193008601Y-43036261D01*
X192499525Y-42935000D01*
X191980475Y-42935000D01*
X191471399Y-43036261D01*
X190991859Y-43234893D01*
X190560285Y-43523262D01*
X190193262Y-43890285D01*
X189904893Y-44321859D01*
X189706261Y-44801399D01*
X189605000Y-45310475D01*
X184881157Y-45310475D01*
X184949759Y-45264637D01*
X185149637Y-45064759D01*
X185306680Y-44829727D01*
X185414853Y-44568574D01*
X185470000Y-44291335D01*
X185470000Y-44008665D01*
X185414853Y-43731426D01*
X185306680Y-43470273D01*
X185149637Y-43235241D01*
X184949759Y-43035363D01*
X184714727Y-42878320D01*
X184453574Y-42770147D01*
X184176335Y-42715000D01*
X183893665Y-42715000D01*
X183616426Y-42770147D01*
X183355273Y-42878320D01*
X183120241Y-43035363D01*
X182920363Y-43235241D01*
X182763320Y-43470273D01*
X182655147Y-43731426D01*
X182650000Y-43757301D01*
X182644853Y-43731426D01*
X182536680Y-43470273D01*
X182379637Y-43235241D01*
X182179759Y-43035363D01*
X181944727Y-42878320D01*
X181683574Y-42770147D01*
X181406335Y-42715000D01*
X181123665Y-42715000D01*
X180846426Y-42770147D01*
X180585273Y-42878320D01*
X180350241Y-43035363D01*
X180150363Y-43235241D01*
X179993320Y-43470273D01*
X179885147Y-43731426D01*
X179880000Y-43757301D01*
X179874853Y-43731426D01*
X179766680Y-43470273D01*
X179609637Y-43235241D01*
X179409759Y-43035363D01*
X179174727Y-42878320D01*
X178913574Y-42770147D01*
X178636335Y-42715000D01*
X178353665Y-42715000D01*
X178076426Y-42770147D01*
X177815273Y-42878320D01*
X177580241Y-43035363D01*
X177380363Y-43235241D01*
X177223320Y-43470273D01*
X177115147Y-43731426D01*
X177110000Y-43757301D01*
X177104853Y-43731426D01*
X176996680Y-43470273D01*
X176839637Y-43235241D01*
X176639759Y-43035363D01*
X176404727Y-42878320D01*
X176143574Y-42770147D01*
X175866335Y-42715000D01*
X175583665Y-42715000D01*
X175306426Y-42770147D01*
X175045273Y-42878320D01*
X174810241Y-43035363D01*
X174610363Y-43235241D01*
X174453320Y-43470273D01*
X174345147Y-43731426D01*
X174340000Y-43757301D01*
X174334853Y-43731426D01*
X174226680Y-43470273D01*
X174069637Y-43235241D01*
X173869759Y-43035363D01*
X173634727Y-42878320D01*
X173373574Y-42770147D01*
X173096335Y-42715000D01*
X172813665Y-42715000D01*
X172536426Y-42770147D01*
X172275273Y-42878320D01*
X172040241Y-43035363D01*
X171840363Y-43235241D01*
X171683320Y-43470273D01*
X171575147Y-43731426D01*
X171570000Y-43757301D01*
X171564853Y-43731426D01*
X171456680Y-43470273D01*
X171299637Y-43235241D01*
X171099759Y-43035363D01*
X170864727Y-42878320D01*
X170603574Y-42770147D01*
X170326335Y-42715000D01*
X170043665Y-42715000D01*
X169766426Y-42770147D01*
X169505273Y-42878320D01*
X169270241Y-43035363D01*
X169070363Y-43235241D01*
X168913320Y-43470273D01*
X168805147Y-43731426D01*
X168800000Y-43757301D01*
X168794853Y-43731426D01*
X168686680Y-43470273D01*
X168529637Y-43235241D01*
X168329759Y-43035363D01*
X168094727Y-42878320D01*
X167833574Y-42770147D01*
X167556335Y-42715000D01*
X167273665Y-42715000D01*
X166996426Y-42770147D01*
X166735273Y-42878320D01*
X166500241Y-43035363D01*
X166300363Y-43235241D01*
X166143320Y-43470273D01*
X166035147Y-43731426D01*
X166030000Y-43757301D01*
X166024853Y-43731426D01*
X165916680Y-43470273D01*
X165759637Y-43235241D01*
X165559759Y-43035363D01*
X165324727Y-42878320D01*
X165063574Y-42770147D01*
X164786335Y-42715000D01*
X164503665Y-42715000D01*
X164226426Y-42770147D01*
X163965273Y-42878320D01*
X163730241Y-43035363D01*
X163530363Y-43235241D01*
X163373320Y-43470273D01*
X163265147Y-43731426D01*
X163259487Y-43759882D01*
X163178603Y-43533708D01*
X163111671Y-43408486D01*
X162867702Y-43336903D01*
X162054605Y-44150000D01*
X162867702Y-44963097D01*
X163111671Y-44891514D01*
X163232571Y-44636004D01*
X163258212Y-44533711D01*
X163265147Y-44568574D01*
X163373320Y-44829727D01*
X163530363Y-45064759D01*
X163730241Y-45264637D01*
X163885001Y-45368044D01*
X163885001Y-45695652D01*
X163678574Y-45610147D01*
X163401335Y-45555000D01*
X163118665Y-45555000D01*
X162841426Y-45610147D01*
X162580273Y-45718320D01*
X162345241Y-45875363D01*
X162145363Y-46075241D01*
X161988320Y-46310273D01*
X161880147Y-46571426D01*
X161875000Y-46597301D01*
X161869853Y-46571426D01*
X161761680Y-46310273D01*
X161604637Y-46075241D01*
X161404759Y-45875363D01*
X161169727Y-45718320D01*
X160908574Y-45610147D01*
X160631335Y-45555000D01*
X160348665Y-45555000D01*
X160071426Y-45610147D01*
X159865000Y-45695651D01*
X159865000Y-45368043D01*
X160019759Y-45264637D01*
X160141694Y-45142702D01*
X161061903Y-45142702D01*
X161133486Y-45386671D01*
X161388996Y-45507571D01*
X161663184Y-45576300D01*
X161945512Y-45590217D01*
X162225130Y-45548787D01*
X162491292Y-45453603D01*
X162616514Y-45386671D01*
X162688097Y-45142702D01*
X161875000Y-44329605D01*
X161061903Y-45142702D01*
X160141694Y-45142702D01*
X160219637Y-45064759D01*
X160376680Y-44829727D01*
X160484853Y-44568574D01*
X160490513Y-44540118D01*
X160571397Y-44766292D01*
X160638329Y-44891514D01*
X160882298Y-44963097D01*
X161695395Y-44150000D01*
X160882298Y-43336903D01*
X160638329Y-43408486D01*
X160517429Y-43663996D01*
X160491788Y-43766289D01*
X160484853Y-43731426D01*
X160376680Y-43470273D01*
X160219637Y-43235241D01*
X160141694Y-43157298D01*
X161061903Y-43157298D01*
X161875000Y-43970395D01*
X162688097Y-43157298D01*
X162616514Y-42913329D01*
X162361004Y-42792429D01*
X162086816Y-42723700D01*
X161804488Y-42709783D01*
X161524870Y-42751213D01*
X161258708Y-42846397D01*
X161133486Y-42913329D01*
X161061903Y-43157298D01*
X160141694Y-43157298D01*
X160019759Y-43035363D01*
X159784727Y-42878320D01*
X159523574Y-42770147D01*
X159246335Y-42715000D01*
X158963665Y-42715000D01*
X158686426Y-42770147D01*
X158425273Y-42878320D01*
X158190241Y-43035363D01*
X157990363Y-43235241D01*
X157833320Y-43470273D01*
X157725147Y-43731426D01*
X157720000Y-43757301D01*
X157714853Y-43731426D01*
X157606680Y-43470273D01*
X157449637Y-43235241D01*
X157249759Y-43035363D01*
X157014727Y-42878320D01*
X156753574Y-42770147D01*
X156476335Y-42715000D01*
X156193665Y-42715000D01*
X155916426Y-42770147D01*
X155655273Y-42878320D01*
X155420241Y-43035363D01*
X155220363Y-43235241D01*
X155063320Y-43470273D01*
X154955147Y-43731426D01*
X154950000Y-43757301D01*
X154944853Y-43731426D01*
X154836680Y-43470273D01*
X154679637Y-43235241D01*
X154479759Y-43035363D01*
X154244727Y-42878320D01*
X153983574Y-42770147D01*
X153706335Y-42715000D01*
X153423665Y-42715000D01*
X153146426Y-42770147D01*
X152885273Y-42878320D01*
X152650241Y-43035363D01*
X152450363Y-43235241D01*
X152293320Y-43470273D01*
X152185147Y-43731426D01*
X152180000Y-43757301D01*
X152174853Y-43731426D01*
X152066680Y-43470273D01*
X151909637Y-43235241D01*
X151709759Y-43035363D01*
X151474727Y-42878320D01*
X151213574Y-42770147D01*
X150936335Y-42715000D01*
X150653665Y-42715000D01*
X150376426Y-42770147D01*
X150115273Y-42878320D01*
X149880241Y-43035363D01*
X149680363Y-43235241D01*
X149523320Y-43470273D01*
X149415147Y-43731426D01*
X149410000Y-43757301D01*
X149404853Y-43731426D01*
X149296680Y-43470273D01*
X149139637Y-43235241D01*
X148939759Y-43035363D01*
X148704727Y-42878320D01*
X148443574Y-42770147D01*
X148166335Y-42715000D01*
X147883665Y-42715000D01*
X147606426Y-42770147D01*
X147345273Y-42878320D01*
X147110241Y-43035363D01*
X146910363Y-43235241D01*
X146753320Y-43470273D01*
X146645147Y-43731426D01*
X146640000Y-43757301D01*
X146634853Y-43731426D01*
X146526680Y-43470273D01*
X146369637Y-43235241D01*
X146169759Y-43035363D01*
X145934727Y-42878320D01*
X145673574Y-42770147D01*
X145396335Y-42715000D01*
X145113665Y-42715000D01*
X144836426Y-42770147D01*
X144575273Y-42878320D01*
X144340241Y-43035363D01*
X144140363Y-43235241D01*
X143983320Y-43470273D01*
X143875147Y-43731426D01*
X143870000Y-43757301D01*
X143864853Y-43731426D01*
X143756680Y-43470273D01*
X143599637Y-43235241D01*
X143399759Y-43035363D01*
X143164727Y-42878320D01*
X142903574Y-42770147D01*
X142626335Y-42715000D01*
X142343665Y-42715000D01*
X142066426Y-42770147D01*
X141805273Y-42878320D01*
X141570241Y-43035363D01*
X141370363Y-43235241D01*
X141213320Y-43470273D01*
X141105147Y-43731426D01*
X141100000Y-43757301D01*
X141094853Y-43731426D01*
X140986680Y-43470273D01*
X140829637Y-43235241D01*
X140629759Y-43035363D01*
X140394727Y-42878320D01*
X140133574Y-42770147D01*
X139856335Y-42715000D01*
X139573665Y-42715000D01*
X139296426Y-42770147D01*
X139035273Y-42878320D01*
X138800241Y-43035363D01*
X138600363Y-43235241D01*
X138443320Y-43470273D01*
X138335147Y-43731426D01*
X138330000Y-43757301D01*
X138324853Y-43731426D01*
X138216680Y-43470273D01*
X138059637Y-43235241D01*
X137859759Y-43035363D01*
X137624727Y-42878320D01*
X137363574Y-42770147D01*
X137086335Y-42715000D01*
X136803665Y-42715000D01*
X136526426Y-42770147D01*
X136265273Y-42878320D01*
X136030241Y-43035363D01*
X135830363Y-43235241D01*
X135673320Y-43470273D01*
X135565147Y-43731426D01*
X135510000Y-44008665D01*
X135510000Y-44291335D01*
X135565147Y-44568574D01*
X135673320Y-44829727D01*
X135830363Y-45064759D01*
X136030241Y-45264637D01*
X136265273Y-45421680D01*
X136526426Y-45529853D01*
X136803665Y-45585000D01*
X137086335Y-45585000D01*
X137363574Y-45529853D01*
X137624727Y-45421680D01*
X137859759Y-45264637D01*
X138059637Y-45064759D01*
X138216680Y-44829727D01*
X138324853Y-44568574D01*
X138330000Y-44542699D01*
X138335147Y-44568574D01*
X138443320Y-44829727D01*
X138600363Y-45064759D01*
X138800241Y-45264637D01*
X139035273Y-45421680D01*
X139296426Y-45529853D01*
X139573665Y-45585000D01*
X139856335Y-45585000D01*
X140133574Y-45529853D01*
X140394727Y-45421680D01*
X140629759Y-45264637D01*
X140829637Y-45064759D01*
X140986680Y-44829727D01*
X141094853Y-44568574D01*
X141100000Y-44542699D01*
X141105147Y-44568574D01*
X141213320Y-44829727D01*
X141370363Y-45064759D01*
X141570241Y-45264637D01*
X141805273Y-45421680D01*
X142066426Y-45529853D01*
X142343665Y-45585000D01*
X142626335Y-45585000D01*
X142903574Y-45529853D01*
X143164727Y-45421680D01*
X143399759Y-45264637D01*
X143599637Y-45064759D01*
X143756680Y-44829727D01*
X143864853Y-44568574D01*
X143870000Y-44542699D01*
X143875147Y-44568574D01*
X143983320Y-44829727D01*
X144140363Y-45064759D01*
X144340241Y-45264637D01*
X144575273Y-45421680D01*
X144836426Y-45529853D01*
X145113665Y-45585000D01*
X145396335Y-45585000D01*
X145673574Y-45529853D01*
X145934727Y-45421680D01*
X146169759Y-45264637D01*
X146369637Y-45064759D01*
X146526680Y-44829727D01*
X146634853Y-44568574D01*
X146640000Y-44542699D01*
X146645147Y-44568574D01*
X146753320Y-44829727D01*
X146910363Y-45064759D01*
X147110241Y-45264637D01*
X147345273Y-45421680D01*
X147606426Y-45529853D01*
X147883665Y-45585000D01*
X148166335Y-45585000D01*
X148443574Y-45529853D01*
X148704727Y-45421680D01*
X148939759Y-45264637D01*
X149139637Y-45064759D01*
X149296680Y-44829727D01*
X149404853Y-44568574D01*
X149410000Y-44542699D01*
X149415147Y-44568574D01*
X149523320Y-44829727D01*
X149680363Y-45064759D01*
X149880241Y-45264637D01*
X150115273Y-45421680D01*
X150376426Y-45529853D01*
X150653665Y-45585000D01*
X150936335Y-45585000D01*
X151213574Y-45529853D01*
X151474727Y-45421680D01*
X151709759Y-45264637D01*
X151909637Y-45064759D01*
X152066680Y-44829727D01*
X152174853Y-44568574D01*
X152180000Y-44542699D01*
X152185147Y-44568574D01*
X152293320Y-44829727D01*
X152450363Y-45064759D01*
X152650241Y-45264637D01*
X152885273Y-45421680D01*
X153146426Y-45529853D01*
X153423665Y-45585000D01*
X153706335Y-45585000D01*
X153983574Y-45529853D01*
X154244727Y-45421680D01*
X154479759Y-45264637D01*
X154679637Y-45064759D01*
X154836680Y-44829727D01*
X154944853Y-44568574D01*
X154950000Y-44542699D01*
X154955147Y-44568574D01*
X155063320Y-44829727D01*
X155220363Y-45064759D01*
X155420241Y-45264637D01*
X155655273Y-45421680D01*
X155916426Y-45529853D01*
X156193665Y-45585000D01*
X156476335Y-45585000D01*
X156753574Y-45529853D01*
X157014727Y-45421680D01*
X157249759Y-45264637D01*
X157449637Y-45064759D01*
X157606680Y-44829727D01*
X157714853Y-44568574D01*
X157720000Y-44542699D01*
X157725147Y-44568574D01*
X157833320Y-44829727D01*
X157990363Y-45064759D01*
X158190241Y-45264637D01*
X158345001Y-45368044D01*
X158345001Y-45695652D01*
X158138574Y-45610147D01*
X157861335Y-45555000D01*
X157578665Y-45555000D01*
X157301426Y-45610147D01*
X157040273Y-45718320D01*
X156805241Y-45875363D01*
X156605363Y-46075241D01*
X156448320Y-46310273D01*
X156340147Y-46571426D01*
X156335000Y-46597301D01*
X156329853Y-46571426D01*
X156221680Y-46310273D01*
X156064637Y-46075241D01*
X155864759Y-45875363D01*
X155629727Y-45718320D01*
X155368574Y-45610147D01*
X155091335Y-45555000D01*
X154808665Y-45555000D01*
X154531426Y-45610147D01*
X154270273Y-45718320D01*
X154035241Y-45875363D01*
X153835363Y-46075241D01*
X153678320Y-46310273D01*
X153570147Y-46571426D01*
X153565000Y-46597301D01*
X153559853Y-46571426D01*
X153451680Y-46310273D01*
X153294637Y-46075241D01*
X153094759Y-45875363D01*
X152859727Y-45718320D01*
X152598574Y-45610147D01*
X152321335Y-45555000D01*
X152038665Y-45555000D01*
X151761426Y-45610147D01*
X151500273Y-45718320D01*
X151265241Y-45875363D01*
X151065363Y-46075241D01*
X150908320Y-46310273D01*
X150800147Y-46571426D01*
X150795000Y-46597301D01*
X150789853Y-46571426D01*
X150681680Y-46310273D01*
X150524637Y-46075241D01*
X150324759Y-45875363D01*
X150089727Y-45718320D01*
X149828574Y-45610147D01*
X149551335Y-45555000D01*
X149268665Y-45555000D01*
X148991426Y-45610147D01*
X148730273Y-45718320D01*
X148495241Y-45875363D01*
X148295363Y-46075241D01*
X148138320Y-46310273D01*
X148030147Y-46571426D01*
X148025000Y-46597301D01*
X148019853Y-46571426D01*
X147911680Y-46310273D01*
X147754637Y-46075241D01*
X147554759Y-45875363D01*
X147319727Y-45718320D01*
X147058574Y-45610147D01*
X146781335Y-45555000D01*
X146498665Y-45555000D01*
X146221426Y-45610147D01*
X145960273Y-45718320D01*
X145725241Y-45875363D01*
X145525363Y-46075241D01*
X145368320Y-46310273D01*
X145260147Y-46571426D01*
X145255000Y-46597301D01*
X145249853Y-46571426D01*
X145141680Y-46310273D01*
X144984637Y-46075241D01*
X144784759Y-45875363D01*
X144549727Y-45718320D01*
X144288574Y-45610147D01*
X144011335Y-45555000D01*
X143728665Y-45555000D01*
X143451426Y-45610147D01*
X143190273Y-45718320D01*
X142955241Y-45875363D01*
X142755363Y-46075241D01*
X142598320Y-46310273D01*
X142490147Y-46571426D01*
X142485000Y-46597301D01*
X142479853Y-46571426D01*
X142371680Y-46310273D01*
X142214637Y-46075241D01*
X142014759Y-45875363D01*
X141779727Y-45718320D01*
X141518574Y-45610147D01*
X141241335Y-45555000D01*
X140958665Y-45555000D01*
X140681426Y-45610147D01*
X140420273Y-45718320D01*
X140185241Y-45875363D01*
X139985363Y-46075241D01*
X139828320Y-46310273D01*
X139720147Y-46571426D01*
X139715000Y-46597301D01*
X139709853Y-46571426D01*
X139601680Y-46310273D01*
X139444637Y-46075241D01*
X139244759Y-45875363D01*
X139009727Y-45718320D01*
X138748574Y-45610147D01*
X138471335Y-45555000D01*
X138188665Y-45555000D01*
X137911426Y-45610147D01*
X137650273Y-45718320D01*
X137415241Y-45875363D01*
X137215363Y-46075241D01*
X137058320Y-46310273D01*
X136950147Y-46571426D01*
X136945000Y-46597301D01*
X136939853Y-46571426D01*
X136831680Y-46310273D01*
X136674637Y-46075241D01*
X136474759Y-45875363D01*
X136239727Y-45718320D01*
X135978574Y-45610147D01*
X135701335Y-45555000D01*
X135418665Y-45555000D01*
X135141426Y-45610147D01*
X134880273Y-45718320D01*
X134645241Y-45875363D01*
X134445363Y-46075241D01*
X134288320Y-46310273D01*
X134180147Y-46571426D01*
X134125000Y-46848665D01*
X131054711Y-46848665D01*
X131075107Y-46818141D01*
X131273739Y-46338601D01*
X131375000Y-45829525D01*
X131375000Y-45310475D01*
X131273739Y-44801399D01*
X131075107Y-44321859D01*
X130786738Y-43890285D01*
X130419715Y-43523262D01*
X129988141Y-43234893D01*
X129508601Y-43036261D01*
X128999525Y-42935000D01*
X128480475Y-42935000D01*
X127971399Y-43036261D01*
X127491859Y-43234893D01*
X127060285Y-43523262D01*
X126693262Y-43890285D01*
X126404893Y-44321859D01*
X126206261Y-44801399D01*
X126105000Y-45310475D01*
X125857000Y-45310475D01*
X125857000Y-40767000D01*
X195453000Y-40767000D01*
X195453000Y-84963000D01*
M02*
