M48
; DRILL file {KiCad 5.1.5-52549c5~84~ubuntu18.04.1} date Wed 22 Apr 2020 05:40:37 PM PDT
; FORMAT={-:-/ absolute / inch / decimal}
; #@! TF.CreationDate,2020-04-22T17:40:37-07:00
; #@! TF.GenerationSoftware,Kicad,Pcbnew,5.1.5-52549c5~84~ubuntu18.04.1
FMAT,2
INCH
T1C0.0157
T2C0.0315
T3C0.0394
T4C0.1260
T5C0.0787
%
G90
G05
T1
X4.3512Y-3.8988
X4.375Y-3.625
X4.425Y-2.975
X4.4511Y-3.7989
X4.4988Y-4.0012
X4.5Y-3.5578
X4.5Y-3.6
X4.5026Y-2.7724
X4.5026Y-3.0724
X4.6Y-3.9
X4.6012Y-3.6512
X4.7232Y-3.5232
X4.7232Y-3.9
X4.7244Y-3.6256
X4.775Y-3.3
X4.8Y-2.95
X4.8Y-3.475
X4.8712Y-2.7788
X4.8762Y-4.0012
X4.9994Y-3.6256
X5.025Y-3.675
X5.075Y-3.575
X5.075Y-3.625
X5.0974Y-2.8276
X5.1236Y-3.7986
X5.175Y-2.925
X5.2232Y-3.5232
X5.2232Y-3.8732
X5.25Y-3.675
T2
X5.15Y-3.25
X5.15Y-3.3484
X4.65Y-4.25
X4.65Y-4.4469
X5.45Y-3.2
X5.45Y-3.3969
X4.1Y-3.2
X4.1Y-3.3969
X4.1Y-4.45
X4.5Y-4.45
X4.4Y-3.25
X4.4Y-3.3484
X4.1Y-4.25
X4.5Y-4.25
T3
X4.9Y-4.3531
X4.9Y-4.4516
X4.9Y-4.55
X5.45Y-3.9
X5.45Y-4.0
X4.5638Y-2.6
X4.6183Y-2.4882
X4.6728Y-2.6
X4.7274Y-2.4882
X4.7819Y-2.6
X4.8364Y-2.4882
X4.8909Y-2.6
X4.9455Y-2.4882
X5.0Y-2.6
X4.1Y-2.875
X4.1Y-2.975
X5.45Y-2.875
X5.45Y-2.975
X4.1Y-3.9
X4.1Y-4.0
T4
X4.1Y-4.9
X5.45Y-4.9
X4.2898Y-2.5441
X5.274Y-2.5441
T5
X5.1756Y-4.2783
X5.1756Y-4.6248
T0
M30
