G04 #@! TF.GenerationSoftware,KiCad,Pcbnew,5.1.5-52549c5~84~ubuntu18.04.1*
G04 #@! TF.CreationDate,2020-04-22T17:40:04-07:00*
G04 #@! TF.ProjectId,clock_generator,636c6f63-6b5f-4676-956e-657261746f72,rev?*
G04 #@! TF.SameCoordinates,Original*
G04 #@! TF.FileFunction,Soldermask,Top*
G04 #@! TF.FilePolarity,Negative*
%FSLAX46Y46*%
G04 Gerber Fmt 4.6, Leading zero omitted, Abs format (unit mm)*
G04 Created by KiCad (PCBNEW 5.1.5-52549c5~84~ubuntu18.04.1) date 2020-04-22 17:40:04*
%MOMM*%
%LPD*%
G04 APERTURE LIST*
%ADD10C,0.100000*%
G04 APERTURE END LIST*
D10*
G36*
X132058254Y-115497818D02*
G01*
X132431511Y-115652426D01*
X132431513Y-115652427D01*
X132767436Y-115876884D01*
X133053116Y-116162564D01*
X133268196Y-116484453D01*
X133277574Y-116498489D01*
X133432182Y-116871746D01*
X133511000Y-117267993D01*
X133511000Y-117672007D01*
X133432182Y-118068254D01*
X133277574Y-118441511D01*
X133277573Y-118441513D01*
X133053116Y-118777436D01*
X132767436Y-119063116D01*
X132431513Y-119287573D01*
X132431512Y-119287574D01*
X132431511Y-119287574D01*
X132058254Y-119442182D01*
X131662007Y-119521000D01*
X131257993Y-119521000D01*
X130861746Y-119442182D01*
X130488489Y-119287574D01*
X130488488Y-119287574D01*
X130488487Y-119287573D01*
X130152564Y-119063116D01*
X129866884Y-118777436D01*
X129642427Y-118441513D01*
X129642426Y-118441511D01*
X129487818Y-118068254D01*
X129409000Y-117672007D01*
X129409000Y-117267993D01*
X129487818Y-116871746D01*
X129642426Y-116498489D01*
X129651805Y-116484453D01*
X129866884Y-116162564D01*
X130152564Y-115876884D01*
X130488487Y-115652427D01*
X130488489Y-115652426D01*
X130861746Y-115497818D01*
X131257993Y-115419000D01*
X131662007Y-115419000D01*
X132058254Y-115497818D01*
G37*
G36*
X124737395Y-114655546D02*
G01*
X124910466Y-114727234D01*
X124910467Y-114727235D01*
X125066227Y-114831310D01*
X125198690Y-114963773D01*
X125198691Y-114963775D01*
X125302766Y-115119534D01*
X125374454Y-115292605D01*
X125411000Y-115476333D01*
X125411000Y-115663667D01*
X125374454Y-115847395D01*
X125302766Y-116020466D01*
X125302765Y-116020467D01*
X125198690Y-116176227D01*
X125066227Y-116308690D01*
X124987818Y-116361081D01*
X124910466Y-116412766D01*
X124737395Y-116484454D01*
X124553667Y-116521000D01*
X124366333Y-116521000D01*
X124182605Y-116484454D01*
X124009534Y-116412766D01*
X123932182Y-116361081D01*
X123853773Y-116308690D01*
X123721310Y-116176227D01*
X123617235Y-116020467D01*
X123617234Y-116020466D01*
X123545546Y-115847395D01*
X123509000Y-115663667D01*
X123509000Y-115476333D01*
X123545546Y-115292605D01*
X123617234Y-115119534D01*
X123721309Y-114963775D01*
X123721310Y-114963773D01*
X123853773Y-114831310D01*
X124009533Y-114727235D01*
X124009534Y-114727234D01*
X124182605Y-114655546D01*
X124366333Y-114619000D01*
X124553667Y-114619000D01*
X124737395Y-114655546D01*
G37*
G36*
X124737395Y-112155546D02*
G01*
X124910466Y-112227234D01*
X124910467Y-112227235D01*
X125066227Y-112331310D01*
X125198690Y-112463773D01*
X125198691Y-112463775D01*
X125302766Y-112619534D01*
X125374454Y-112792605D01*
X125411000Y-112976333D01*
X125411000Y-113163667D01*
X125374454Y-113347395D01*
X125302766Y-113520466D01*
X125302765Y-113520467D01*
X125198690Y-113676227D01*
X125066227Y-113808690D01*
X125006954Y-113848295D01*
X124910466Y-113912766D01*
X124737395Y-113984454D01*
X124553667Y-114021000D01*
X124366333Y-114021000D01*
X124182605Y-113984454D01*
X124009534Y-113912766D01*
X123913046Y-113848295D01*
X123853773Y-113808690D01*
X123721310Y-113676227D01*
X123617235Y-113520467D01*
X123617234Y-113520466D01*
X123545546Y-113347395D01*
X123509000Y-113163667D01*
X123509000Y-112976333D01*
X123545546Y-112792605D01*
X123617234Y-112619534D01*
X123721309Y-112463775D01*
X123721310Y-112463773D01*
X123853773Y-112331310D01*
X124009533Y-112227235D01*
X124009534Y-112227234D01*
X124182605Y-112155546D01*
X124366333Y-112119000D01*
X124553667Y-112119000D01*
X124737395Y-112155546D01*
G37*
G36*
X114548228Y-112211703D02*
G01*
X114703100Y-112275853D01*
X114842481Y-112368985D01*
X114961015Y-112487519D01*
X115054147Y-112626900D01*
X115118297Y-112781772D01*
X115151000Y-112946184D01*
X115151000Y-113113816D01*
X115118297Y-113278228D01*
X115054147Y-113433100D01*
X114961015Y-113572481D01*
X114842481Y-113691015D01*
X114703100Y-113784147D01*
X114548228Y-113848297D01*
X114383816Y-113881000D01*
X114216184Y-113881000D01*
X114051772Y-113848297D01*
X113896900Y-113784147D01*
X113757519Y-113691015D01*
X113638985Y-113572481D01*
X113545853Y-113433100D01*
X113481703Y-113278228D01*
X113449000Y-113113816D01*
X113449000Y-112946184D01*
X113481703Y-112781772D01*
X113545853Y-112626900D01*
X113638985Y-112487519D01*
X113757519Y-112368985D01*
X113896900Y-112275853D01*
X114051772Y-112211703D01*
X114216184Y-112179000D01*
X114383816Y-112179000D01*
X114548228Y-112211703D01*
G37*
G36*
X104388228Y-112211703D02*
G01*
X104543100Y-112275853D01*
X104682481Y-112368985D01*
X104801015Y-112487519D01*
X104894147Y-112626900D01*
X104958297Y-112781772D01*
X104991000Y-112946184D01*
X104991000Y-113113816D01*
X104958297Y-113278228D01*
X104894147Y-113433100D01*
X104801015Y-113572481D01*
X104682481Y-113691015D01*
X104543100Y-113784147D01*
X104388228Y-113848297D01*
X104223816Y-113881000D01*
X104056184Y-113881000D01*
X103891772Y-113848297D01*
X103736900Y-113784147D01*
X103597519Y-113691015D01*
X103478985Y-113572481D01*
X103385853Y-113433100D01*
X103321703Y-113278228D01*
X103289000Y-113113816D01*
X103289000Y-112946184D01*
X103321703Y-112781772D01*
X103385853Y-112626900D01*
X103478985Y-112487519D01*
X103597519Y-112368985D01*
X103736900Y-112275853D01*
X103891772Y-112211703D01*
X104056184Y-112179000D01*
X104223816Y-112179000D01*
X104388228Y-112211703D01*
G37*
G36*
X118358228Y-112131703D02*
G01*
X118513100Y-112195853D01*
X118652481Y-112288985D01*
X118771015Y-112407519D01*
X118864147Y-112546900D01*
X118928297Y-112701772D01*
X118961000Y-112866184D01*
X118961000Y-113033816D01*
X118928297Y-113198228D01*
X118864147Y-113353100D01*
X118771015Y-113492481D01*
X118652481Y-113611015D01*
X118513100Y-113704147D01*
X118358228Y-113768297D01*
X118193816Y-113801000D01*
X118026184Y-113801000D01*
X117861772Y-113768297D01*
X117706900Y-113704147D01*
X117567519Y-113611015D01*
X117448985Y-113492481D01*
X117355853Y-113353100D01*
X117291703Y-113198228D01*
X117259000Y-113033816D01*
X117259000Y-112866184D01*
X117291703Y-112701772D01*
X117355853Y-112546900D01*
X117448985Y-112407519D01*
X117567519Y-112288985D01*
X117706900Y-112195853D01*
X117861772Y-112131703D01*
X118026184Y-112099000D01*
X118193816Y-112099000D01*
X118358228Y-112131703D01*
G37*
G36*
X124737395Y-109655546D02*
G01*
X124910466Y-109727234D01*
X124910467Y-109727235D01*
X125066227Y-109831310D01*
X125198690Y-109963773D01*
X125198691Y-109963775D01*
X125302766Y-110119534D01*
X125374454Y-110292605D01*
X125411000Y-110476333D01*
X125411000Y-110663667D01*
X125374454Y-110847395D01*
X125302766Y-111020466D01*
X125302765Y-111020467D01*
X125198690Y-111176227D01*
X125066227Y-111308690D01*
X124987818Y-111361081D01*
X124910466Y-111412766D01*
X124737395Y-111484454D01*
X124553667Y-111521000D01*
X124366333Y-111521000D01*
X124182605Y-111484454D01*
X124009534Y-111412766D01*
X123932182Y-111361081D01*
X123853773Y-111308690D01*
X123721310Y-111176227D01*
X123617235Y-111020467D01*
X123617234Y-111020466D01*
X123545546Y-110847395D01*
X123509000Y-110663667D01*
X123509000Y-110476333D01*
X123545546Y-110292605D01*
X123617234Y-110119534D01*
X123721309Y-109963775D01*
X123721310Y-109963773D01*
X123853773Y-109831310D01*
X124009533Y-109727235D01*
X124009534Y-109727234D01*
X124182605Y-109655546D01*
X124366333Y-109619000D01*
X124553667Y-109619000D01*
X124737395Y-109655546D01*
G37*
G36*
X132058254Y-106697818D02*
G01*
X132431511Y-106852426D01*
X132431513Y-106852427D01*
X132767436Y-107076884D01*
X133053116Y-107362564D01*
X133176288Y-107546903D01*
X133277574Y-107698489D01*
X133432182Y-108071746D01*
X133511000Y-108467993D01*
X133511000Y-108872007D01*
X133432182Y-109268254D01*
X133286898Y-109619000D01*
X133277573Y-109641513D01*
X133053116Y-109977436D01*
X132767436Y-110263116D01*
X132431513Y-110487573D01*
X132431512Y-110487574D01*
X132431511Y-110487574D01*
X132058254Y-110642182D01*
X131662007Y-110721000D01*
X131257993Y-110721000D01*
X130861746Y-110642182D01*
X130488489Y-110487574D01*
X130488488Y-110487574D01*
X130488487Y-110487573D01*
X130152564Y-110263116D01*
X129866884Y-109977436D01*
X129642427Y-109641513D01*
X129633102Y-109619000D01*
X129487818Y-109268254D01*
X129409000Y-108872007D01*
X129409000Y-108467993D01*
X129487818Y-108071746D01*
X129642426Y-107698489D01*
X129743713Y-107546903D01*
X129866884Y-107362564D01*
X130152564Y-107076884D01*
X130488487Y-106852427D01*
X130488489Y-106852426D01*
X130861746Y-106697818D01*
X131257993Y-106619000D01*
X131662007Y-106619000D01*
X132058254Y-106697818D01*
G37*
G36*
X118358228Y-107131703D02*
G01*
X118513100Y-107195853D01*
X118652481Y-107288985D01*
X118771015Y-107407519D01*
X118864147Y-107546900D01*
X118928297Y-107701772D01*
X118961000Y-107866184D01*
X118961000Y-108033816D01*
X118928297Y-108198228D01*
X118864147Y-108353100D01*
X118771015Y-108492481D01*
X118652481Y-108611015D01*
X118513100Y-108704147D01*
X118358228Y-108768297D01*
X118193816Y-108801000D01*
X118026184Y-108801000D01*
X117861772Y-108768297D01*
X117706900Y-108704147D01*
X117567519Y-108611015D01*
X117448985Y-108492481D01*
X117355853Y-108353100D01*
X117291703Y-108198228D01*
X117259000Y-108033816D01*
X117259000Y-107866184D01*
X117291703Y-107701772D01*
X117355853Y-107546900D01*
X117448985Y-107407519D01*
X117567519Y-107288985D01*
X117706900Y-107195853D01*
X117861772Y-107131703D01*
X118026184Y-107099000D01*
X118193816Y-107099000D01*
X118358228Y-107131703D01*
G37*
G36*
X114548228Y-107131703D02*
G01*
X114703100Y-107195853D01*
X114842481Y-107288985D01*
X114961015Y-107407519D01*
X115054147Y-107546900D01*
X115118297Y-107701772D01*
X115151000Y-107866184D01*
X115151000Y-108033816D01*
X115118297Y-108198228D01*
X115054147Y-108353100D01*
X114961015Y-108492481D01*
X114842481Y-108611015D01*
X114703100Y-108704147D01*
X114548228Y-108768297D01*
X114383816Y-108801000D01*
X114216184Y-108801000D01*
X114051772Y-108768297D01*
X113896900Y-108704147D01*
X113757519Y-108611015D01*
X113638985Y-108492481D01*
X113545853Y-108353100D01*
X113481703Y-108198228D01*
X113449000Y-108033816D01*
X113449000Y-107866184D01*
X113481703Y-107701772D01*
X113545853Y-107546900D01*
X113638985Y-107407519D01*
X113757519Y-107288985D01*
X113896900Y-107195853D01*
X114051772Y-107131703D01*
X114216184Y-107099000D01*
X114383816Y-107099000D01*
X114548228Y-107131703D01*
G37*
G36*
X104388228Y-107131703D02*
G01*
X104543100Y-107195853D01*
X104682481Y-107288985D01*
X104801015Y-107407519D01*
X104894147Y-107546900D01*
X104958297Y-107701772D01*
X104991000Y-107866184D01*
X104991000Y-108033816D01*
X104958297Y-108198228D01*
X104894147Y-108353100D01*
X104801015Y-108492481D01*
X104682481Y-108611015D01*
X104543100Y-108704147D01*
X104388228Y-108768297D01*
X104223816Y-108801000D01*
X104056184Y-108801000D01*
X103891772Y-108768297D01*
X103736900Y-108704147D01*
X103597519Y-108611015D01*
X103478985Y-108492481D01*
X103385853Y-108353100D01*
X103321703Y-108198228D01*
X103289000Y-108033816D01*
X103289000Y-107866184D01*
X103321703Y-107701772D01*
X103385853Y-107546900D01*
X103478985Y-107407519D01*
X103597519Y-107288985D01*
X103736900Y-107195853D01*
X103891772Y-107131703D01*
X104056184Y-107099000D01*
X104223816Y-107099000D01*
X104388228Y-107131703D01*
G37*
G36*
X104446564Y-100589389D02*
G01*
X104637833Y-100668615D01*
X104637835Y-100668616D01*
X104690791Y-100704000D01*
X104809973Y-100783635D01*
X104956365Y-100930027D01*
X105071385Y-101102167D01*
X105150611Y-101293436D01*
X105191000Y-101496484D01*
X105191000Y-101703516D01*
X105150611Y-101906564D01*
X105071385Y-102097833D01*
X105071384Y-102097835D01*
X104956365Y-102269973D01*
X104809973Y-102416365D01*
X104637835Y-102531384D01*
X104637834Y-102531385D01*
X104637833Y-102531385D01*
X104446564Y-102610611D01*
X104243516Y-102651000D01*
X104036484Y-102651000D01*
X103833436Y-102610611D01*
X103642167Y-102531385D01*
X103642166Y-102531385D01*
X103642165Y-102531384D01*
X103470027Y-102416365D01*
X103323635Y-102269973D01*
X103208616Y-102097835D01*
X103208615Y-102097833D01*
X103129389Y-101906564D01*
X103089000Y-101703516D01*
X103089000Y-101496484D01*
X103129389Y-101293436D01*
X103208615Y-101102167D01*
X103323635Y-100930027D01*
X103470027Y-100783635D01*
X103589209Y-100704000D01*
X103642165Y-100668616D01*
X103642167Y-100668615D01*
X103833436Y-100589389D01*
X104036484Y-100549000D01*
X104243516Y-100549000D01*
X104446564Y-100589389D01*
G37*
G36*
X138736564Y-100589389D02*
G01*
X138927833Y-100668615D01*
X138927835Y-100668616D01*
X138980791Y-100704000D01*
X139099973Y-100783635D01*
X139246365Y-100930027D01*
X139361385Y-101102167D01*
X139440611Y-101293436D01*
X139481000Y-101496484D01*
X139481000Y-101703516D01*
X139440611Y-101906564D01*
X139361385Y-102097833D01*
X139361384Y-102097835D01*
X139246365Y-102269973D01*
X139099973Y-102416365D01*
X138927835Y-102531384D01*
X138927834Y-102531385D01*
X138927833Y-102531385D01*
X138736564Y-102610611D01*
X138533516Y-102651000D01*
X138326484Y-102651000D01*
X138123436Y-102610611D01*
X137932167Y-102531385D01*
X137932166Y-102531385D01*
X137932165Y-102531384D01*
X137760027Y-102416365D01*
X137613635Y-102269973D01*
X137498616Y-102097835D01*
X137498615Y-102097833D01*
X137419389Y-101906564D01*
X137379000Y-101703516D01*
X137379000Y-101496484D01*
X137419389Y-101293436D01*
X137498615Y-101102167D01*
X137613635Y-100930027D01*
X137760027Y-100783635D01*
X137879209Y-100704000D01*
X137932165Y-100668616D01*
X137932167Y-100668615D01*
X138123436Y-100589389D01*
X138326484Y-100549000D01*
X138533516Y-100549000D01*
X138736564Y-100589389D01*
G37*
G36*
X113396000Y-102556000D02*
G01*
X111844000Y-102556000D01*
X111844000Y-98104000D01*
X113396000Y-98104000D01*
X113396000Y-102556000D01*
G37*
G36*
X119296000Y-102556000D02*
G01*
X117744000Y-102556000D01*
X117744000Y-98104000D01*
X119296000Y-98104000D01*
X119296000Y-102556000D01*
G37*
G36*
X126096000Y-102556000D02*
G01*
X124544000Y-102556000D01*
X124544000Y-98104000D01*
X126096000Y-98104000D01*
X126096000Y-102556000D01*
G37*
G36*
X131996000Y-102556000D02*
G01*
X130444000Y-102556000D01*
X130444000Y-98104000D01*
X131996000Y-98104000D01*
X131996000Y-102556000D01*
G37*
G36*
X138736564Y-98049389D02*
G01*
X138927833Y-98128615D01*
X138927835Y-98128616D01*
X139099973Y-98243635D01*
X139246365Y-98390027D01*
X139361385Y-98562167D01*
X139440611Y-98753436D01*
X139481000Y-98956484D01*
X139481000Y-99163516D01*
X139440611Y-99366564D01*
X139361385Y-99557833D01*
X139361384Y-99557835D01*
X139246365Y-99729973D01*
X139099973Y-99876365D01*
X138927835Y-99991384D01*
X138927834Y-99991385D01*
X138927833Y-99991385D01*
X138736564Y-100070611D01*
X138533516Y-100111000D01*
X138326484Y-100111000D01*
X138123436Y-100070611D01*
X137932167Y-99991385D01*
X137932166Y-99991385D01*
X137932165Y-99991384D01*
X137760027Y-99876365D01*
X137613635Y-99729973D01*
X137498616Y-99557835D01*
X137498615Y-99557833D01*
X137419389Y-99366564D01*
X137379000Y-99163516D01*
X137379000Y-98956484D01*
X137419389Y-98753436D01*
X137498615Y-98562167D01*
X137613635Y-98390027D01*
X137760027Y-98243635D01*
X137932165Y-98128616D01*
X137932167Y-98128615D01*
X138123436Y-98049389D01*
X138326484Y-98009000D01*
X138533516Y-98009000D01*
X138736564Y-98049389D01*
G37*
G36*
X104446564Y-98049389D02*
G01*
X104637833Y-98128615D01*
X104637835Y-98128616D01*
X104809973Y-98243635D01*
X104956365Y-98390027D01*
X105071385Y-98562167D01*
X105150611Y-98753436D01*
X105191000Y-98956484D01*
X105191000Y-99163516D01*
X105150611Y-99366564D01*
X105071385Y-99557833D01*
X105071384Y-99557835D01*
X104956365Y-99729973D01*
X104809973Y-99876365D01*
X104637835Y-99991384D01*
X104637834Y-99991385D01*
X104637833Y-99991385D01*
X104446564Y-100070611D01*
X104243516Y-100111000D01*
X104036484Y-100111000D01*
X103833436Y-100070611D01*
X103642167Y-99991385D01*
X103642166Y-99991385D01*
X103642165Y-99991384D01*
X103470027Y-99876365D01*
X103323635Y-99729973D01*
X103208616Y-99557835D01*
X103208615Y-99557833D01*
X103129389Y-99366564D01*
X103089000Y-99163516D01*
X103089000Y-98956484D01*
X103129389Y-98753436D01*
X103208615Y-98562167D01*
X103323635Y-98390027D01*
X103470027Y-98243635D01*
X103642165Y-98128616D01*
X103642167Y-98128615D01*
X103833436Y-98049389D01*
X104036484Y-98009000D01*
X104243516Y-98009000D01*
X104446564Y-98049389D01*
G37*
G36*
X119296000Y-93666000D02*
G01*
X117744000Y-93666000D01*
X117744000Y-89214000D01*
X119296000Y-89214000D01*
X119296000Y-93666000D01*
G37*
G36*
X131996000Y-93666000D02*
G01*
X130444000Y-93666000D01*
X130444000Y-89214000D01*
X131996000Y-89214000D01*
X131996000Y-93666000D01*
G37*
G36*
X126096000Y-93666000D02*
G01*
X124544000Y-93666000D01*
X124544000Y-89214000D01*
X126096000Y-89214000D01*
X126096000Y-93666000D01*
G37*
G36*
X113396000Y-93666000D02*
G01*
X111844000Y-93666000D01*
X111844000Y-89214000D01*
X113396000Y-89214000D01*
X113396000Y-93666000D01*
G37*
G36*
X104388228Y-85461703D02*
G01*
X104543100Y-85525853D01*
X104682481Y-85618985D01*
X104801015Y-85737519D01*
X104894147Y-85876900D01*
X104958297Y-86031772D01*
X104991000Y-86196184D01*
X104991000Y-86363816D01*
X104958297Y-86528228D01*
X104894147Y-86683100D01*
X104801015Y-86822481D01*
X104682481Y-86941015D01*
X104543100Y-87034147D01*
X104388228Y-87098297D01*
X104223816Y-87131000D01*
X104056184Y-87131000D01*
X103891772Y-87098297D01*
X103736900Y-87034147D01*
X103597519Y-86941015D01*
X103478985Y-86822481D01*
X103385853Y-86683100D01*
X103321703Y-86528228D01*
X103289000Y-86363816D01*
X103289000Y-86196184D01*
X103321703Y-86031772D01*
X103385853Y-85876900D01*
X103478985Y-85737519D01*
X103597519Y-85618985D01*
X103736900Y-85525853D01*
X103891772Y-85461703D01*
X104056184Y-85429000D01*
X104223816Y-85429000D01*
X104388228Y-85461703D01*
G37*
G36*
X138678228Y-85461703D02*
G01*
X138833100Y-85525853D01*
X138972481Y-85618985D01*
X139091015Y-85737519D01*
X139184147Y-85876900D01*
X139248297Y-86031772D01*
X139281000Y-86196184D01*
X139281000Y-86363816D01*
X139248297Y-86528228D01*
X139184147Y-86683100D01*
X139091015Y-86822481D01*
X138972481Y-86941015D01*
X138833100Y-87034147D01*
X138678228Y-87098297D01*
X138513816Y-87131000D01*
X138346184Y-87131000D01*
X138181772Y-87098297D01*
X138026900Y-87034147D01*
X137887519Y-86941015D01*
X137768985Y-86822481D01*
X137675853Y-86683100D01*
X137611703Y-86528228D01*
X137579000Y-86363816D01*
X137579000Y-86196184D01*
X137611703Y-86031772D01*
X137675853Y-85876900D01*
X137768985Y-85737519D01*
X137887519Y-85618985D01*
X138026900Y-85525853D01*
X138181772Y-85461703D01*
X138346184Y-85429000D01*
X138513816Y-85429000D01*
X138678228Y-85461703D01*
G37*
G36*
X112008228Y-84231703D02*
G01*
X112163100Y-84295853D01*
X112302481Y-84388985D01*
X112421015Y-84507519D01*
X112514147Y-84646900D01*
X112578297Y-84801772D01*
X112611000Y-84966184D01*
X112611000Y-85133816D01*
X112578297Y-85298228D01*
X112514147Y-85453100D01*
X112421015Y-85592481D01*
X112302481Y-85711015D01*
X112163100Y-85804147D01*
X112008228Y-85868297D01*
X111843816Y-85901000D01*
X111676184Y-85901000D01*
X111511772Y-85868297D01*
X111356900Y-85804147D01*
X111217519Y-85711015D01*
X111098985Y-85592481D01*
X111005853Y-85453100D01*
X110941703Y-85298228D01*
X110909000Y-85133816D01*
X110909000Y-84966184D01*
X110941703Y-84801772D01*
X111005853Y-84646900D01*
X111098985Y-84507519D01*
X111217519Y-84388985D01*
X111356900Y-84295853D01*
X111511772Y-84231703D01*
X111676184Y-84199000D01*
X111843816Y-84199000D01*
X112008228Y-84231703D01*
G37*
G36*
X131058228Y-84231703D02*
G01*
X131213100Y-84295853D01*
X131352481Y-84388985D01*
X131471015Y-84507519D01*
X131564147Y-84646900D01*
X131628297Y-84801772D01*
X131661000Y-84966184D01*
X131661000Y-85133816D01*
X131628297Y-85298228D01*
X131564147Y-85453100D01*
X131471015Y-85592481D01*
X131352481Y-85711015D01*
X131213100Y-85804147D01*
X131058228Y-85868297D01*
X130893816Y-85901000D01*
X130726184Y-85901000D01*
X130561772Y-85868297D01*
X130406900Y-85804147D01*
X130267519Y-85711015D01*
X130148985Y-85592481D01*
X130055853Y-85453100D01*
X129991703Y-85298228D01*
X129959000Y-85133816D01*
X129959000Y-84966184D01*
X129991703Y-84801772D01*
X130055853Y-84646900D01*
X130148985Y-84507519D01*
X130267519Y-84388985D01*
X130406900Y-84295853D01*
X130561772Y-84231703D01*
X130726184Y-84199000D01*
X130893816Y-84199000D01*
X131058228Y-84231703D01*
G37*
G36*
X118878604Y-84548347D02*
G01*
X118915144Y-84559432D01*
X118948821Y-84577433D01*
X118978341Y-84601659D01*
X119002567Y-84631179D01*
X119020568Y-84664856D01*
X119031653Y-84701396D01*
X119036000Y-84745538D01*
X119036000Y-85694462D01*
X119031653Y-85738604D01*
X119020568Y-85775144D01*
X119002567Y-85808821D01*
X118978341Y-85838341D01*
X118948821Y-85862567D01*
X118915144Y-85880568D01*
X118878604Y-85891653D01*
X118834462Y-85896000D01*
X117385538Y-85896000D01*
X117341396Y-85891653D01*
X117304856Y-85880568D01*
X117271179Y-85862567D01*
X117241659Y-85838341D01*
X117217433Y-85808821D01*
X117199432Y-85775144D01*
X117188347Y-85738604D01*
X117184000Y-85694462D01*
X117184000Y-84745538D01*
X117188347Y-84701396D01*
X117199432Y-84664856D01*
X117217433Y-84631179D01*
X117241659Y-84601659D01*
X117271179Y-84577433D01*
X117304856Y-84559432D01*
X117341396Y-84548347D01*
X117385538Y-84544000D01*
X118834462Y-84544000D01*
X118878604Y-84548347D01*
G37*
G36*
X122053604Y-84548347D02*
G01*
X122090144Y-84559432D01*
X122123821Y-84577433D01*
X122153341Y-84601659D01*
X122177567Y-84631179D01*
X122195568Y-84664856D01*
X122206653Y-84701396D01*
X122211000Y-84745538D01*
X122211000Y-85694462D01*
X122206653Y-85738604D01*
X122195568Y-85775144D01*
X122177567Y-85808821D01*
X122153341Y-85838341D01*
X122123821Y-85862567D01*
X122090144Y-85880568D01*
X122053604Y-85891653D01*
X122009462Y-85896000D01*
X120560538Y-85896000D01*
X120516396Y-85891653D01*
X120479856Y-85880568D01*
X120446179Y-85862567D01*
X120416659Y-85838341D01*
X120392433Y-85808821D01*
X120374432Y-85775144D01*
X120363347Y-85738604D01*
X120359000Y-85694462D01*
X120359000Y-84745538D01*
X120363347Y-84701396D01*
X120374432Y-84664856D01*
X120392433Y-84631179D01*
X120416659Y-84601659D01*
X120446179Y-84577433D01*
X120479856Y-84559432D01*
X120516396Y-84548347D01*
X120560538Y-84544000D01*
X122009462Y-84544000D01*
X122053604Y-84548347D01*
G37*
G36*
X125228604Y-84548347D02*
G01*
X125265144Y-84559432D01*
X125298821Y-84577433D01*
X125328341Y-84601659D01*
X125352567Y-84631179D01*
X125370568Y-84664856D01*
X125381653Y-84701396D01*
X125386000Y-84745538D01*
X125386000Y-85694462D01*
X125381653Y-85738604D01*
X125370568Y-85775144D01*
X125352567Y-85808821D01*
X125328341Y-85838341D01*
X125298821Y-85862567D01*
X125265144Y-85880568D01*
X125228604Y-85891653D01*
X125184462Y-85896000D01*
X123735538Y-85896000D01*
X123691396Y-85891653D01*
X123654856Y-85880568D01*
X123621179Y-85862567D01*
X123591659Y-85838341D01*
X123567433Y-85808821D01*
X123549432Y-85775144D01*
X123538347Y-85738604D01*
X123534000Y-85694462D01*
X123534000Y-84745538D01*
X123538347Y-84701396D01*
X123549432Y-84664856D01*
X123567433Y-84631179D01*
X123591659Y-84601659D01*
X123621179Y-84577433D01*
X123654856Y-84559432D01*
X123691396Y-84548347D01*
X123735538Y-84544000D01*
X125184462Y-84544000D01*
X125228604Y-84548347D01*
G37*
G36*
X131661000Y-83401000D02*
G01*
X129959000Y-83401000D01*
X129959000Y-81699000D01*
X131661000Y-81699000D01*
X131661000Y-83401000D01*
G37*
G36*
X112611000Y-83401000D02*
G01*
X110909000Y-83401000D01*
X110909000Y-81699000D01*
X112611000Y-81699000D01*
X112611000Y-83401000D01*
G37*
G36*
X125228604Y-81748347D02*
G01*
X125265144Y-81759432D01*
X125298821Y-81777433D01*
X125328341Y-81801659D01*
X125352567Y-81831179D01*
X125370568Y-81864856D01*
X125381653Y-81901396D01*
X125386000Y-81945538D01*
X125386000Y-82894462D01*
X125381653Y-82938604D01*
X125370568Y-82975144D01*
X125352567Y-83008821D01*
X125328341Y-83038341D01*
X125298821Y-83062567D01*
X125265144Y-83080568D01*
X125228604Y-83091653D01*
X125184462Y-83096000D01*
X123735538Y-83096000D01*
X123691396Y-83091653D01*
X123654856Y-83080568D01*
X123621179Y-83062567D01*
X123591659Y-83038341D01*
X123567433Y-83008821D01*
X123549432Y-82975144D01*
X123538347Y-82938604D01*
X123534000Y-82894462D01*
X123534000Y-81945538D01*
X123538347Y-81901396D01*
X123549432Y-81864856D01*
X123567433Y-81831179D01*
X123591659Y-81801659D01*
X123621179Y-81777433D01*
X123654856Y-81759432D01*
X123691396Y-81748347D01*
X123735538Y-81744000D01*
X125184462Y-81744000D01*
X125228604Y-81748347D01*
G37*
G36*
X118878604Y-81748347D02*
G01*
X118915144Y-81759432D01*
X118948821Y-81777433D01*
X118978341Y-81801659D01*
X119002567Y-81831179D01*
X119020568Y-81864856D01*
X119031653Y-81901396D01*
X119036000Y-81945538D01*
X119036000Y-82894462D01*
X119031653Y-82938604D01*
X119020568Y-82975144D01*
X119002567Y-83008821D01*
X118978341Y-83038341D01*
X118948821Y-83062567D01*
X118915144Y-83080568D01*
X118878604Y-83091653D01*
X118834462Y-83096000D01*
X117385538Y-83096000D01*
X117341396Y-83091653D01*
X117304856Y-83080568D01*
X117271179Y-83062567D01*
X117241659Y-83038341D01*
X117217433Y-83008821D01*
X117199432Y-82975144D01*
X117188347Y-82938604D01*
X117184000Y-82894462D01*
X117184000Y-81945538D01*
X117188347Y-81901396D01*
X117199432Y-81864856D01*
X117217433Y-81831179D01*
X117241659Y-81801659D01*
X117271179Y-81777433D01*
X117304856Y-81759432D01*
X117341396Y-81748347D01*
X117385538Y-81744000D01*
X118834462Y-81744000D01*
X118878604Y-81748347D01*
G37*
G36*
X122053604Y-81748347D02*
G01*
X122090144Y-81759432D01*
X122123821Y-81777433D01*
X122153341Y-81801659D01*
X122177567Y-81831179D01*
X122195568Y-81864856D01*
X122206653Y-81901396D01*
X122211000Y-81945538D01*
X122211000Y-82894462D01*
X122206653Y-82938604D01*
X122195568Y-82975144D01*
X122177567Y-83008821D01*
X122153341Y-83038341D01*
X122123821Y-83062567D01*
X122090144Y-83080568D01*
X122053604Y-83091653D01*
X122009462Y-83096000D01*
X120560538Y-83096000D01*
X120516396Y-83091653D01*
X120479856Y-83080568D01*
X120446179Y-83062567D01*
X120416659Y-83038341D01*
X120392433Y-83008821D01*
X120374432Y-82975144D01*
X120363347Y-82938604D01*
X120359000Y-82894462D01*
X120359000Y-81945538D01*
X120363347Y-81901396D01*
X120374432Y-81864856D01*
X120392433Y-81831179D01*
X120416659Y-81801659D01*
X120446179Y-81777433D01*
X120479856Y-81759432D01*
X120516396Y-81748347D01*
X120560538Y-81744000D01*
X122009462Y-81744000D01*
X122053604Y-81748347D01*
G37*
G36*
X104388228Y-80461703D02*
G01*
X104543100Y-80525853D01*
X104682481Y-80618985D01*
X104801015Y-80737519D01*
X104894147Y-80876900D01*
X104958297Y-81031772D01*
X104991000Y-81196184D01*
X104991000Y-81363816D01*
X104958297Y-81528228D01*
X104894147Y-81683100D01*
X104801015Y-81822481D01*
X104682481Y-81941015D01*
X104543100Y-82034147D01*
X104388228Y-82098297D01*
X104223816Y-82131000D01*
X104056184Y-82131000D01*
X103891772Y-82098297D01*
X103736900Y-82034147D01*
X103597519Y-81941015D01*
X103478985Y-81822481D01*
X103385853Y-81683100D01*
X103321703Y-81528228D01*
X103289000Y-81363816D01*
X103289000Y-81196184D01*
X103321703Y-81031772D01*
X103385853Y-80876900D01*
X103478985Y-80737519D01*
X103597519Y-80618985D01*
X103736900Y-80525853D01*
X103891772Y-80461703D01*
X104056184Y-80429000D01*
X104223816Y-80429000D01*
X104388228Y-80461703D01*
G37*
G36*
X138678228Y-80461703D02*
G01*
X138833100Y-80525853D01*
X138972481Y-80618985D01*
X139091015Y-80737519D01*
X139184147Y-80876900D01*
X139248297Y-81031772D01*
X139281000Y-81196184D01*
X139281000Y-81363816D01*
X139248297Y-81528228D01*
X139184147Y-81683100D01*
X139091015Y-81822481D01*
X138972481Y-81941015D01*
X138833100Y-82034147D01*
X138678228Y-82098297D01*
X138513816Y-82131000D01*
X138346184Y-82131000D01*
X138181772Y-82098297D01*
X138026900Y-82034147D01*
X137887519Y-81941015D01*
X137768985Y-81822481D01*
X137675853Y-81683100D01*
X137611703Y-81528228D01*
X137579000Y-81363816D01*
X137579000Y-81196184D01*
X137611703Y-81031772D01*
X137675853Y-80876900D01*
X137768985Y-80737519D01*
X137887519Y-80618985D01*
X138026900Y-80525853D01*
X138181772Y-80461703D01*
X138346184Y-80429000D01*
X138513816Y-80429000D01*
X138678228Y-80461703D01*
G37*
G36*
X120249928Y-76486764D02*
G01*
X120271009Y-76493160D01*
X120290445Y-76503548D01*
X120307476Y-76517524D01*
X120321452Y-76534555D01*
X120331840Y-76553991D01*
X120338236Y-76575072D01*
X120341000Y-76603140D01*
X120341000Y-77066860D01*
X120338236Y-77094928D01*
X120331840Y-77116009D01*
X120321452Y-77135445D01*
X120307476Y-77152476D01*
X120290445Y-77166452D01*
X120271009Y-77176840D01*
X120249928Y-77183236D01*
X120221860Y-77186000D01*
X118408140Y-77186000D01*
X118380072Y-77183236D01*
X118358991Y-77176840D01*
X118339555Y-77166452D01*
X118322524Y-77152476D01*
X118308548Y-77135445D01*
X118298160Y-77116009D01*
X118291764Y-77094928D01*
X118289000Y-77066860D01*
X118289000Y-76603140D01*
X118291764Y-76575072D01*
X118298160Y-76553991D01*
X118308548Y-76534555D01*
X118322524Y-76517524D01*
X118339555Y-76503548D01*
X118358991Y-76493160D01*
X118380072Y-76486764D01*
X118408140Y-76484000D01*
X120221860Y-76484000D01*
X120249928Y-76486764D01*
G37*
G36*
X115299928Y-76486764D02*
G01*
X115321009Y-76493160D01*
X115340445Y-76503548D01*
X115357476Y-76517524D01*
X115371452Y-76534555D01*
X115381840Y-76553991D01*
X115388236Y-76575072D01*
X115391000Y-76603140D01*
X115391000Y-77066860D01*
X115388236Y-77094928D01*
X115381840Y-77116009D01*
X115371452Y-77135445D01*
X115357476Y-77152476D01*
X115340445Y-77166452D01*
X115321009Y-77176840D01*
X115299928Y-77183236D01*
X115271860Y-77186000D01*
X113458140Y-77186000D01*
X113430072Y-77183236D01*
X113408991Y-77176840D01*
X113389555Y-77166452D01*
X113372524Y-77152476D01*
X113358548Y-77135445D01*
X113348160Y-77116009D01*
X113341764Y-77094928D01*
X113339000Y-77066860D01*
X113339000Y-76603140D01*
X113341764Y-76575072D01*
X113348160Y-76553991D01*
X113358548Y-76534555D01*
X113372524Y-76517524D01*
X113389555Y-76503548D01*
X113408991Y-76493160D01*
X113430072Y-76486764D01*
X113458140Y-76484000D01*
X115271860Y-76484000D01*
X115299928Y-76486764D01*
G37*
G36*
X130409928Y-76486764D02*
G01*
X130431009Y-76493160D01*
X130450445Y-76503548D01*
X130467476Y-76517524D01*
X130481452Y-76534555D01*
X130491840Y-76553991D01*
X130498236Y-76575072D01*
X130501000Y-76603140D01*
X130501000Y-77066860D01*
X130498236Y-77094928D01*
X130491840Y-77116009D01*
X130481452Y-77135445D01*
X130467476Y-77152476D01*
X130450445Y-77166452D01*
X130431009Y-77176840D01*
X130409928Y-77183236D01*
X130381860Y-77186000D01*
X128568140Y-77186000D01*
X128540072Y-77183236D01*
X128518991Y-77176840D01*
X128499555Y-77166452D01*
X128482524Y-77152476D01*
X128468548Y-77135445D01*
X128458160Y-77116009D01*
X128451764Y-77094928D01*
X128449000Y-77066860D01*
X128449000Y-76603140D01*
X128451764Y-76575072D01*
X128458160Y-76553991D01*
X128468548Y-76534555D01*
X128482524Y-76517524D01*
X128499555Y-76503548D01*
X128518991Y-76493160D01*
X128540072Y-76486764D01*
X128568140Y-76484000D01*
X130381860Y-76484000D01*
X130409928Y-76486764D01*
G37*
G36*
X125459928Y-76486764D02*
G01*
X125481009Y-76493160D01*
X125500445Y-76503548D01*
X125517476Y-76517524D01*
X125531452Y-76534555D01*
X125541840Y-76553991D01*
X125548236Y-76575072D01*
X125551000Y-76603140D01*
X125551000Y-77066860D01*
X125548236Y-77094928D01*
X125541840Y-77116009D01*
X125531452Y-77135445D01*
X125517476Y-77152476D01*
X125500445Y-77166452D01*
X125481009Y-77176840D01*
X125459928Y-77183236D01*
X125431860Y-77186000D01*
X123618140Y-77186000D01*
X123590072Y-77183236D01*
X123568991Y-77176840D01*
X123549555Y-77166452D01*
X123532524Y-77152476D01*
X123518548Y-77135445D01*
X123508160Y-77116009D01*
X123501764Y-77094928D01*
X123499000Y-77066860D01*
X123499000Y-76603140D01*
X123501764Y-76575072D01*
X123508160Y-76553991D01*
X123518548Y-76534555D01*
X123532524Y-76517524D01*
X123549555Y-76503548D01*
X123568991Y-76493160D01*
X123590072Y-76486764D01*
X123618140Y-76484000D01*
X125431860Y-76484000D01*
X125459928Y-76486764D01*
G37*
G36*
X111258604Y-75658347D02*
G01*
X111295144Y-75669432D01*
X111328821Y-75687433D01*
X111358341Y-75711659D01*
X111382567Y-75741179D01*
X111400568Y-75774856D01*
X111411653Y-75811396D01*
X111416000Y-75855538D01*
X111416000Y-76804462D01*
X111411653Y-76848604D01*
X111400568Y-76885144D01*
X111382567Y-76918821D01*
X111358341Y-76948341D01*
X111328821Y-76972567D01*
X111295144Y-76990568D01*
X111258604Y-77001653D01*
X111214462Y-77006000D01*
X109765538Y-77006000D01*
X109721396Y-77001653D01*
X109684856Y-76990568D01*
X109651179Y-76972567D01*
X109621659Y-76948341D01*
X109597433Y-76918821D01*
X109579432Y-76885144D01*
X109568347Y-76848604D01*
X109564000Y-76804462D01*
X109564000Y-75855538D01*
X109568347Y-75811396D01*
X109579432Y-75774856D01*
X109597433Y-75741179D01*
X109621659Y-75711659D01*
X109651179Y-75687433D01*
X109684856Y-75669432D01*
X109721396Y-75658347D01*
X109765538Y-75654000D01*
X111214462Y-75654000D01*
X111258604Y-75658347D01*
G37*
G36*
X134118604Y-75658347D02*
G01*
X134155144Y-75669432D01*
X134188821Y-75687433D01*
X134218341Y-75711659D01*
X134242567Y-75741179D01*
X134260568Y-75774856D01*
X134271653Y-75811396D01*
X134276000Y-75855538D01*
X134276000Y-76804462D01*
X134271653Y-76848604D01*
X134260568Y-76885144D01*
X134242567Y-76918821D01*
X134218341Y-76948341D01*
X134188821Y-76972567D01*
X134155144Y-76990568D01*
X134118604Y-77001653D01*
X134074462Y-77006000D01*
X132625538Y-77006000D01*
X132581396Y-77001653D01*
X132544856Y-76990568D01*
X132511179Y-76972567D01*
X132481659Y-76948341D01*
X132457433Y-76918821D01*
X132439432Y-76885144D01*
X132428347Y-76848604D01*
X132424000Y-76804462D01*
X132424000Y-75855538D01*
X132428347Y-75811396D01*
X132439432Y-75774856D01*
X132457433Y-75741179D01*
X132481659Y-75711659D01*
X132511179Y-75687433D01*
X132544856Y-75669432D01*
X132581396Y-75658347D01*
X132625538Y-75654000D01*
X134074462Y-75654000D01*
X134118604Y-75658347D01*
G37*
G36*
X104446564Y-74554389D02*
G01*
X104637833Y-74633615D01*
X104637835Y-74633616D01*
X104642660Y-74636840D01*
X104809973Y-74748635D01*
X104956365Y-74895027D01*
X105071385Y-75067167D01*
X105150611Y-75258436D01*
X105191000Y-75461484D01*
X105191000Y-75668516D01*
X105150611Y-75871564D01*
X105071385Y-76062833D01*
X105071384Y-76062835D01*
X104956365Y-76234973D01*
X104809973Y-76381365D01*
X104637835Y-76496384D01*
X104637834Y-76496385D01*
X104637833Y-76496385D01*
X104446564Y-76575611D01*
X104243516Y-76616000D01*
X104036484Y-76616000D01*
X103833436Y-76575611D01*
X103642167Y-76496385D01*
X103642166Y-76496385D01*
X103642165Y-76496384D01*
X103470027Y-76381365D01*
X103323635Y-76234973D01*
X103208616Y-76062835D01*
X103208615Y-76062833D01*
X103129389Y-75871564D01*
X103089000Y-75668516D01*
X103089000Y-75461484D01*
X103129389Y-75258436D01*
X103208615Y-75067167D01*
X103323635Y-74895027D01*
X103470027Y-74748635D01*
X103637340Y-74636840D01*
X103642165Y-74633616D01*
X103642167Y-74633615D01*
X103833436Y-74554389D01*
X104036484Y-74514000D01*
X104243516Y-74514000D01*
X104446564Y-74554389D01*
G37*
G36*
X138736564Y-74554389D02*
G01*
X138927833Y-74633615D01*
X138927835Y-74633616D01*
X138932660Y-74636840D01*
X139099973Y-74748635D01*
X139246365Y-74895027D01*
X139361385Y-75067167D01*
X139440611Y-75258436D01*
X139481000Y-75461484D01*
X139481000Y-75668516D01*
X139440611Y-75871564D01*
X139361385Y-76062833D01*
X139361384Y-76062835D01*
X139246365Y-76234973D01*
X139099973Y-76381365D01*
X138927835Y-76496384D01*
X138927834Y-76496385D01*
X138927833Y-76496385D01*
X138736564Y-76575611D01*
X138533516Y-76616000D01*
X138326484Y-76616000D01*
X138123436Y-76575611D01*
X137932167Y-76496385D01*
X137932166Y-76496385D01*
X137932165Y-76496384D01*
X137760027Y-76381365D01*
X137613635Y-76234973D01*
X137498616Y-76062835D01*
X137498615Y-76062833D01*
X137419389Y-75871564D01*
X137379000Y-75668516D01*
X137379000Y-75461484D01*
X137419389Y-75258436D01*
X137498615Y-75067167D01*
X137613635Y-74895027D01*
X137760027Y-74748635D01*
X137927340Y-74636840D01*
X137932165Y-74633616D01*
X137932167Y-74633615D01*
X138123436Y-74554389D01*
X138326484Y-74514000D01*
X138533516Y-74514000D01*
X138736564Y-74554389D01*
G37*
G36*
X130409928Y-75216764D02*
G01*
X130431009Y-75223160D01*
X130450445Y-75233548D01*
X130467476Y-75247524D01*
X130481452Y-75264555D01*
X130491840Y-75283991D01*
X130498236Y-75305072D01*
X130501000Y-75333140D01*
X130501000Y-75796860D01*
X130498236Y-75824928D01*
X130491840Y-75846009D01*
X130481452Y-75865445D01*
X130467476Y-75882476D01*
X130450445Y-75896452D01*
X130431009Y-75906840D01*
X130409928Y-75913236D01*
X130381860Y-75916000D01*
X128568140Y-75916000D01*
X128540072Y-75913236D01*
X128518991Y-75906840D01*
X128499555Y-75896452D01*
X128482524Y-75882476D01*
X128468548Y-75865445D01*
X128458160Y-75846009D01*
X128451764Y-75824928D01*
X128449000Y-75796860D01*
X128449000Y-75333140D01*
X128451764Y-75305072D01*
X128458160Y-75283991D01*
X128468548Y-75264555D01*
X128482524Y-75247524D01*
X128499555Y-75233548D01*
X128518991Y-75223160D01*
X128540072Y-75216764D01*
X128568140Y-75214000D01*
X130381860Y-75214000D01*
X130409928Y-75216764D01*
G37*
G36*
X115299928Y-75216764D02*
G01*
X115321009Y-75223160D01*
X115340445Y-75233548D01*
X115357476Y-75247524D01*
X115371452Y-75264555D01*
X115381840Y-75283991D01*
X115388236Y-75305072D01*
X115391000Y-75333140D01*
X115391000Y-75796860D01*
X115388236Y-75824928D01*
X115381840Y-75846009D01*
X115371452Y-75865445D01*
X115357476Y-75882476D01*
X115340445Y-75896452D01*
X115321009Y-75906840D01*
X115299928Y-75913236D01*
X115271860Y-75916000D01*
X113458140Y-75916000D01*
X113430072Y-75913236D01*
X113408991Y-75906840D01*
X113389555Y-75896452D01*
X113372524Y-75882476D01*
X113358548Y-75865445D01*
X113348160Y-75846009D01*
X113341764Y-75824928D01*
X113339000Y-75796860D01*
X113339000Y-75333140D01*
X113341764Y-75305072D01*
X113348160Y-75283991D01*
X113358548Y-75264555D01*
X113372524Y-75247524D01*
X113389555Y-75233548D01*
X113408991Y-75223160D01*
X113430072Y-75216764D01*
X113458140Y-75214000D01*
X115271860Y-75214000D01*
X115299928Y-75216764D01*
G37*
G36*
X120249928Y-75216764D02*
G01*
X120271009Y-75223160D01*
X120290445Y-75233548D01*
X120307476Y-75247524D01*
X120321452Y-75264555D01*
X120331840Y-75283991D01*
X120338236Y-75305072D01*
X120341000Y-75333140D01*
X120341000Y-75796860D01*
X120338236Y-75824928D01*
X120331840Y-75846009D01*
X120321452Y-75865445D01*
X120307476Y-75882476D01*
X120290445Y-75896452D01*
X120271009Y-75906840D01*
X120249928Y-75913236D01*
X120221860Y-75916000D01*
X118408140Y-75916000D01*
X118380072Y-75913236D01*
X118358991Y-75906840D01*
X118339555Y-75896452D01*
X118322524Y-75882476D01*
X118308548Y-75865445D01*
X118298160Y-75846009D01*
X118291764Y-75824928D01*
X118289000Y-75796860D01*
X118289000Y-75333140D01*
X118291764Y-75305072D01*
X118298160Y-75283991D01*
X118308548Y-75264555D01*
X118322524Y-75247524D01*
X118339555Y-75233548D01*
X118358991Y-75223160D01*
X118380072Y-75216764D01*
X118408140Y-75214000D01*
X120221860Y-75214000D01*
X120249928Y-75216764D01*
G37*
G36*
X125459928Y-75216764D02*
G01*
X125481009Y-75223160D01*
X125500445Y-75233548D01*
X125517476Y-75247524D01*
X125531452Y-75264555D01*
X125541840Y-75283991D01*
X125548236Y-75305072D01*
X125551000Y-75333140D01*
X125551000Y-75796860D01*
X125548236Y-75824928D01*
X125541840Y-75846009D01*
X125531452Y-75865445D01*
X125517476Y-75882476D01*
X125500445Y-75896452D01*
X125481009Y-75906840D01*
X125459928Y-75913236D01*
X125431860Y-75916000D01*
X123618140Y-75916000D01*
X123590072Y-75913236D01*
X123568991Y-75906840D01*
X123549555Y-75896452D01*
X123532524Y-75882476D01*
X123518548Y-75865445D01*
X123508160Y-75846009D01*
X123501764Y-75824928D01*
X123499000Y-75796860D01*
X123499000Y-75333140D01*
X123501764Y-75305072D01*
X123508160Y-75283991D01*
X123518548Y-75264555D01*
X123532524Y-75247524D01*
X123549555Y-75233548D01*
X123568991Y-75223160D01*
X123590072Y-75216764D01*
X123618140Y-75214000D01*
X125431860Y-75214000D01*
X125459928Y-75216764D01*
G37*
G36*
X120249928Y-73946764D02*
G01*
X120271009Y-73953160D01*
X120290445Y-73963548D01*
X120307476Y-73977524D01*
X120321452Y-73994555D01*
X120331840Y-74013991D01*
X120338236Y-74035072D01*
X120341000Y-74063140D01*
X120341000Y-74526860D01*
X120338236Y-74554928D01*
X120331840Y-74576009D01*
X120321452Y-74595445D01*
X120307476Y-74612476D01*
X120290445Y-74626452D01*
X120271009Y-74636840D01*
X120249928Y-74643236D01*
X120221860Y-74646000D01*
X118408140Y-74646000D01*
X118380072Y-74643236D01*
X118358991Y-74636840D01*
X118339555Y-74626452D01*
X118322524Y-74612476D01*
X118308548Y-74595445D01*
X118298160Y-74576009D01*
X118291764Y-74554928D01*
X118289000Y-74526860D01*
X118289000Y-74063140D01*
X118291764Y-74035072D01*
X118298160Y-74013991D01*
X118308548Y-73994555D01*
X118322524Y-73977524D01*
X118339555Y-73963548D01*
X118358991Y-73953160D01*
X118380072Y-73946764D01*
X118408140Y-73944000D01*
X120221860Y-73944000D01*
X120249928Y-73946764D01*
G37*
G36*
X115299928Y-73946764D02*
G01*
X115321009Y-73953160D01*
X115340445Y-73963548D01*
X115357476Y-73977524D01*
X115371452Y-73994555D01*
X115381840Y-74013991D01*
X115388236Y-74035072D01*
X115391000Y-74063140D01*
X115391000Y-74526860D01*
X115388236Y-74554928D01*
X115381840Y-74576009D01*
X115371452Y-74595445D01*
X115357476Y-74612476D01*
X115340445Y-74626452D01*
X115321009Y-74636840D01*
X115299928Y-74643236D01*
X115271860Y-74646000D01*
X113458140Y-74646000D01*
X113430072Y-74643236D01*
X113408991Y-74636840D01*
X113389555Y-74626452D01*
X113372524Y-74612476D01*
X113358548Y-74595445D01*
X113348160Y-74576009D01*
X113341764Y-74554928D01*
X113339000Y-74526860D01*
X113339000Y-74063140D01*
X113341764Y-74035072D01*
X113348160Y-74013991D01*
X113358548Y-73994555D01*
X113372524Y-73977524D01*
X113389555Y-73963548D01*
X113408991Y-73953160D01*
X113430072Y-73946764D01*
X113458140Y-73944000D01*
X115271860Y-73944000D01*
X115299928Y-73946764D01*
G37*
G36*
X125459928Y-73946764D02*
G01*
X125481009Y-73953160D01*
X125500445Y-73963548D01*
X125517476Y-73977524D01*
X125531452Y-73994555D01*
X125541840Y-74013991D01*
X125548236Y-74035072D01*
X125551000Y-74063140D01*
X125551000Y-74526860D01*
X125548236Y-74554928D01*
X125541840Y-74576009D01*
X125531452Y-74595445D01*
X125517476Y-74612476D01*
X125500445Y-74626452D01*
X125481009Y-74636840D01*
X125459928Y-74643236D01*
X125431860Y-74646000D01*
X123618140Y-74646000D01*
X123590072Y-74643236D01*
X123568991Y-74636840D01*
X123549555Y-74626452D01*
X123532524Y-74612476D01*
X123518548Y-74595445D01*
X123508160Y-74576009D01*
X123501764Y-74554928D01*
X123499000Y-74526860D01*
X123499000Y-74063140D01*
X123501764Y-74035072D01*
X123508160Y-74013991D01*
X123518548Y-73994555D01*
X123532524Y-73977524D01*
X123549555Y-73963548D01*
X123568991Y-73953160D01*
X123590072Y-73946764D01*
X123618140Y-73944000D01*
X125431860Y-73944000D01*
X125459928Y-73946764D01*
G37*
G36*
X130409928Y-73946764D02*
G01*
X130431009Y-73953160D01*
X130450445Y-73963548D01*
X130467476Y-73977524D01*
X130481452Y-73994555D01*
X130491840Y-74013991D01*
X130498236Y-74035072D01*
X130501000Y-74063140D01*
X130501000Y-74526860D01*
X130498236Y-74554928D01*
X130491840Y-74576009D01*
X130481452Y-74595445D01*
X130467476Y-74612476D01*
X130450445Y-74626452D01*
X130431009Y-74636840D01*
X130409928Y-74643236D01*
X130381860Y-74646000D01*
X128568140Y-74646000D01*
X128540072Y-74643236D01*
X128518991Y-74636840D01*
X128499555Y-74626452D01*
X128482524Y-74612476D01*
X128468548Y-74595445D01*
X128458160Y-74576009D01*
X128451764Y-74554928D01*
X128449000Y-74526860D01*
X128449000Y-74063140D01*
X128451764Y-74035072D01*
X128458160Y-74013991D01*
X128468548Y-73994555D01*
X128482524Y-73977524D01*
X128499555Y-73963548D01*
X128518991Y-73953160D01*
X128540072Y-73946764D01*
X128568140Y-73944000D01*
X130381860Y-73944000D01*
X130409928Y-73946764D01*
G37*
G36*
X134118604Y-72858347D02*
G01*
X134155144Y-72869432D01*
X134188821Y-72887433D01*
X134218341Y-72911659D01*
X134242567Y-72941179D01*
X134260568Y-72974856D01*
X134271653Y-73011396D01*
X134276000Y-73055538D01*
X134276000Y-74004462D01*
X134271653Y-74048604D01*
X134260568Y-74085144D01*
X134242567Y-74118821D01*
X134218341Y-74148341D01*
X134188821Y-74172567D01*
X134155144Y-74190568D01*
X134118604Y-74201653D01*
X134074462Y-74206000D01*
X132625538Y-74206000D01*
X132581396Y-74201653D01*
X132544856Y-74190568D01*
X132511179Y-74172567D01*
X132481659Y-74148341D01*
X132457433Y-74118821D01*
X132439432Y-74085144D01*
X132428347Y-74048604D01*
X132424000Y-74004462D01*
X132424000Y-73055538D01*
X132428347Y-73011396D01*
X132439432Y-72974856D01*
X132457433Y-72941179D01*
X132481659Y-72911659D01*
X132511179Y-72887433D01*
X132544856Y-72869432D01*
X132581396Y-72858347D01*
X132625538Y-72854000D01*
X134074462Y-72854000D01*
X134118604Y-72858347D01*
G37*
G36*
X111258604Y-72858347D02*
G01*
X111295144Y-72869432D01*
X111328821Y-72887433D01*
X111358341Y-72911659D01*
X111382567Y-72941179D01*
X111400568Y-72974856D01*
X111411653Y-73011396D01*
X111416000Y-73055538D01*
X111416000Y-74004462D01*
X111411653Y-74048604D01*
X111400568Y-74085144D01*
X111382567Y-74118821D01*
X111358341Y-74148341D01*
X111328821Y-74172567D01*
X111295144Y-74190568D01*
X111258604Y-74201653D01*
X111214462Y-74206000D01*
X109765538Y-74206000D01*
X109721396Y-74201653D01*
X109684856Y-74190568D01*
X109651179Y-74172567D01*
X109621659Y-74148341D01*
X109597433Y-74118821D01*
X109579432Y-74085144D01*
X109568347Y-74048604D01*
X109564000Y-74004462D01*
X109564000Y-73055538D01*
X109568347Y-73011396D01*
X109579432Y-72974856D01*
X109597433Y-72941179D01*
X109621659Y-72911659D01*
X109651179Y-72887433D01*
X109684856Y-72869432D01*
X109721396Y-72858347D01*
X109765538Y-72854000D01*
X111214462Y-72854000D01*
X111258604Y-72858347D01*
G37*
G36*
X104446564Y-72014389D02*
G01*
X104637833Y-72093615D01*
X104637835Y-72093616D01*
X104809973Y-72208635D01*
X104956365Y-72355027D01*
X105071385Y-72527167D01*
X105150611Y-72718436D01*
X105191000Y-72921484D01*
X105191000Y-73128516D01*
X105150611Y-73331564D01*
X105132205Y-73376000D01*
X105071384Y-73522835D01*
X104956365Y-73694973D01*
X104809973Y-73841365D01*
X104637835Y-73956384D01*
X104637834Y-73956385D01*
X104637833Y-73956385D01*
X104446564Y-74035611D01*
X104243516Y-74076000D01*
X104036484Y-74076000D01*
X103833436Y-74035611D01*
X103642167Y-73956385D01*
X103642166Y-73956385D01*
X103642165Y-73956384D01*
X103470027Y-73841365D01*
X103323635Y-73694973D01*
X103208616Y-73522835D01*
X103147795Y-73376000D01*
X103129389Y-73331564D01*
X103089000Y-73128516D01*
X103089000Y-72921484D01*
X103129389Y-72718436D01*
X103208615Y-72527167D01*
X103323635Y-72355027D01*
X103470027Y-72208635D01*
X103642165Y-72093616D01*
X103642167Y-72093615D01*
X103833436Y-72014389D01*
X104036484Y-71974000D01*
X104243516Y-71974000D01*
X104446564Y-72014389D01*
G37*
G36*
X138736564Y-72014389D02*
G01*
X138927833Y-72093615D01*
X138927835Y-72093616D01*
X139099973Y-72208635D01*
X139246365Y-72355027D01*
X139361385Y-72527167D01*
X139440611Y-72718436D01*
X139481000Y-72921484D01*
X139481000Y-73128516D01*
X139440611Y-73331564D01*
X139422205Y-73376000D01*
X139361384Y-73522835D01*
X139246365Y-73694973D01*
X139099973Y-73841365D01*
X138927835Y-73956384D01*
X138927834Y-73956385D01*
X138927833Y-73956385D01*
X138736564Y-74035611D01*
X138533516Y-74076000D01*
X138326484Y-74076000D01*
X138123436Y-74035611D01*
X137932167Y-73956385D01*
X137932166Y-73956385D01*
X137932165Y-73956384D01*
X137760027Y-73841365D01*
X137613635Y-73694973D01*
X137498616Y-73522835D01*
X137437795Y-73376000D01*
X137419389Y-73331564D01*
X137379000Y-73128516D01*
X137379000Y-72921484D01*
X137419389Y-72718436D01*
X137498615Y-72527167D01*
X137613635Y-72355027D01*
X137760027Y-72208635D01*
X137932165Y-72093616D01*
X137932167Y-72093615D01*
X138123436Y-72014389D01*
X138326484Y-71974000D01*
X138533516Y-71974000D01*
X138736564Y-72014389D01*
G37*
G36*
X130409928Y-72676764D02*
G01*
X130431009Y-72683160D01*
X130450445Y-72693548D01*
X130467476Y-72707524D01*
X130481452Y-72724555D01*
X130491840Y-72743991D01*
X130498236Y-72765072D01*
X130501000Y-72793140D01*
X130501000Y-73256860D01*
X130498236Y-73284928D01*
X130491840Y-73306009D01*
X130481452Y-73325445D01*
X130467476Y-73342476D01*
X130450445Y-73356452D01*
X130431009Y-73366840D01*
X130409928Y-73373236D01*
X130381860Y-73376000D01*
X128568140Y-73376000D01*
X128540072Y-73373236D01*
X128518991Y-73366840D01*
X128499555Y-73356452D01*
X128482524Y-73342476D01*
X128468548Y-73325445D01*
X128458160Y-73306009D01*
X128451764Y-73284928D01*
X128449000Y-73256860D01*
X128449000Y-72793140D01*
X128451764Y-72765072D01*
X128458160Y-72743991D01*
X128468548Y-72724555D01*
X128482524Y-72707524D01*
X128499555Y-72693548D01*
X128518991Y-72683160D01*
X128540072Y-72676764D01*
X128568140Y-72674000D01*
X130381860Y-72674000D01*
X130409928Y-72676764D01*
G37*
G36*
X125459928Y-72676764D02*
G01*
X125481009Y-72683160D01*
X125500445Y-72693548D01*
X125517476Y-72707524D01*
X125531452Y-72724555D01*
X125541840Y-72743991D01*
X125548236Y-72765072D01*
X125551000Y-72793140D01*
X125551000Y-73256860D01*
X125548236Y-73284928D01*
X125541840Y-73306009D01*
X125531452Y-73325445D01*
X125517476Y-73342476D01*
X125500445Y-73356452D01*
X125481009Y-73366840D01*
X125459928Y-73373236D01*
X125431860Y-73376000D01*
X123618140Y-73376000D01*
X123590072Y-73373236D01*
X123568991Y-73366840D01*
X123549555Y-73356452D01*
X123532524Y-73342476D01*
X123518548Y-73325445D01*
X123508160Y-73306009D01*
X123501764Y-73284928D01*
X123499000Y-73256860D01*
X123499000Y-72793140D01*
X123501764Y-72765072D01*
X123508160Y-72743991D01*
X123518548Y-72724555D01*
X123532524Y-72707524D01*
X123549555Y-72693548D01*
X123568991Y-72683160D01*
X123590072Y-72676764D01*
X123618140Y-72674000D01*
X125431860Y-72674000D01*
X125459928Y-72676764D01*
G37*
G36*
X120249928Y-72676764D02*
G01*
X120271009Y-72683160D01*
X120290445Y-72693548D01*
X120307476Y-72707524D01*
X120321452Y-72724555D01*
X120331840Y-72743991D01*
X120338236Y-72765072D01*
X120341000Y-72793140D01*
X120341000Y-73256860D01*
X120338236Y-73284928D01*
X120331840Y-73306009D01*
X120321452Y-73325445D01*
X120307476Y-73342476D01*
X120290445Y-73356452D01*
X120271009Y-73366840D01*
X120249928Y-73373236D01*
X120221860Y-73376000D01*
X118408140Y-73376000D01*
X118380072Y-73373236D01*
X118358991Y-73366840D01*
X118339555Y-73356452D01*
X118322524Y-73342476D01*
X118308548Y-73325445D01*
X118298160Y-73306009D01*
X118291764Y-73284928D01*
X118289000Y-73256860D01*
X118289000Y-72793140D01*
X118291764Y-72765072D01*
X118298160Y-72743991D01*
X118308548Y-72724555D01*
X118322524Y-72707524D01*
X118339555Y-72693548D01*
X118358991Y-72683160D01*
X118380072Y-72676764D01*
X118408140Y-72674000D01*
X120221860Y-72674000D01*
X120249928Y-72676764D01*
G37*
G36*
X115299928Y-72676764D02*
G01*
X115321009Y-72683160D01*
X115340445Y-72693548D01*
X115357476Y-72707524D01*
X115371452Y-72724555D01*
X115381840Y-72743991D01*
X115388236Y-72765072D01*
X115391000Y-72793140D01*
X115391000Y-73256860D01*
X115388236Y-73284928D01*
X115381840Y-73306009D01*
X115371452Y-73325445D01*
X115357476Y-73342476D01*
X115340445Y-73356452D01*
X115321009Y-73366840D01*
X115299928Y-73373236D01*
X115271860Y-73376000D01*
X113458140Y-73376000D01*
X113430072Y-73373236D01*
X113408991Y-73366840D01*
X113389555Y-73356452D01*
X113372524Y-73342476D01*
X113358548Y-73325445D01*
X113348160Y-73306009D01*
X113341764Y-73284928D01*
X113339000Y-73256860D01*
X113339000Y-72793140D01*
X113341764Y-72765072D01*
X113348160Y-72743991D01*
X113358548Y-72724555D01*
X113372524Y-72707524D01*
X113389555Y-72693548D01*
X113408991Y-72683160D01*
X113430072Y-72676764D01*
X113458140Y-72674000D01*
X115271860Y-72674000D01*
X115299928Y-72676764D01*
G37*
G36*
X121708228Y-65221703D02*
G01*
X121863100Y-65285853D01*
X122002481Y-65378985D01*
X122121015Y-65497519D01*
X122214147Y-65636900D01*
X122278297Y-65791772D01*
X122311000Y-65956184D01*
X122311000Y-66123816D01*
X122278297Y-66288228D01*
X122214147Y-66443100D01*
X122121015Y-66582481D01*
X122002481Y-66701015D01*
X121863100Y-66794147D01*
X121708228Y-66858297D01*
X121543816Y-66891000D01*
X121376184Y-66891000D01*
X121211772Y-66858297D01*
X121056900Y-66794147D01*
X120917519Y-66701015D01*
X120798985Y-66582481D01*
X120705853Y-66443100D01*
X120641703Y-66288228D01*
X120609000Y-66123816D01*
X120609000Y-65956184D01*
X120641703Y-65791772D01*
X120705853Y-65636900D01*
X120798985Y-65497519D01*
X120917519Y-65378985D01*
X121056900Y-65285853D01*
X121211772Y-65221703D01*
X121376184Y-65189000D01*
X121543816Y-65189000D01*
X121708228Y-65221703D01*
G37*
G36*
X116168228Y-65221703D02*
G01*
X116323100Y-65285853D01*
X116462481Y-65378985D01*
X116581015Y-65497519D01*
X116674147Y-65636900D01*
X116738297Y-65791772D01*
X116771000Y-65956184D01*
X116771000Y-66123816D01*
X116738297Y-66288228D01*
X116674147Y-66443100D01*
X116581015Y-66582481D01*
X116462481Y-66701015D01*
X116323100Y-66794147D01*
X116168228Y-66858297D01*
X116003816Y-66891000D01*
X115836184Y-66891000D01*
X115671772Y-66858297D01*
X115516900Y-66794147D01*
X115377519Y-66701015D01*
X115258985Y-66582481D01*
X115165853Y-66443100D01*
X115101703Y-66288228D01*
X115069000Y-66123816D01*
X115069000Y-65956184D01*
X115101703Y-65791772D01*
X115165853Y-65636900D01*
X115258985Y-65497519D01*
X115377519Y-65378985D01*
X115516900Y-65285853D01*
X115671772Y-65221703D01*
X115836184Y-65189000D01*
X116003816Y-65189000D01*
X116168228Y-65221703D01*
G37*
G36*
X118938228Y-65221703D02*
G01*
X119093100Y-65285853D01*
X119232481Y-65378985D01*
X119351015Y-65497519D01*
X119444147Y-65636900D01*
X119508297Y-65791772D01*
X119541000Y-65956184D01*
X119541000Y-66123816D01*
X119508297Y-66288228D01*
X119444147Y-66443100D01*
X119351015Y-66582481D01*
X119232481Y-66701015D01*
X119093100Y-66794147D01*
X118938228Y-66858297D01*
X118773816Y-66891000D01*
X118606184Y-66891000D01*
X118441772Y-66858297D01*
X118286900Y-66794147D01*
X118147519Y-66701015D01*
X118028985Y-66582481D01*
X117935853Y-66443100D01*
X117871703Y-66288228D01*
X117839000Y-66123816D01*
X117839000Y-65956184D01*
X117871703Y-65791772D01*
X117935853Y-65636900D01*
X118028985Y-65497519D01*
X118147519Y-65378985D01*
X118286900Y-65285853D01*
X118441772Y-65221703D01*
X118606184Y-65189000D01*
X118773816Y-65189000D01*
X118938228Y-65221703D01*
G37*
G36*
X124478228Y-65221703D02*
G01*
X124633100Y-65285853D01*
X124772481Y-65378985D01*
X124891015Y-65497519D01*
X124984147Y-65636900D01*
X125048297Y-65791772D01*
X125081000Y-65956184D01*
X125081000Y-66123816D01*
X125048297Y-66288228D01*
X124984147Y-66443100D01*
X124891015Y-66582481D01*
X124772481Y-66701015D01*
X124633100Y-66794147D01*
X124478228Y-66858297D01*
X124313816Y-66891000D01*
X124146184Y-66891000D01*
X123981772Y-66858297D01*
X123826900Y-66794147D01*
X123687519Y-66701015D01*
X123568985Y-66582481D01*
X123475853Y-66443100D01*
X123411703Y-66288228D01*
X123379000Y-66123816D01*
X123379000Y-65956184D01*
X123411703Y-65791772D01*
X123475853Y-65636900D01*
X123568985Y-65497519D01*
X123687519Y-65378985D01*
X123826900Y-65285853D01*
X123981772Y-65221703D01*
X124146184Y-65189000D01*
X124313816Y-65189000D01*
X124478228Y-65221703D01*
G37*
G36*
X127851000Y-66891000D02*
G01*
X126149000Y-66891000D01*
X126149000Y-65189000D01*
X127851000Y-65189000D01*
X127851000Y-66891000D01*
G37*
G36*
X134558254Y-62647818D02*
G01*
X134918170Y-62796900D01*
X134931513Y-62802427D01*
X135267436Y-63026884D01*
X135553116Y-63312564D01*
X135643765Y-63448229D01*
X135777574Y-63648489D01*
X135932182Y-64021746D01*
X136011000Y-64417993D01*
X136011000Y-64822007D01*
X135932182Y-65218254D01*
X135816506Y-65497520D01*
X135777573Y-65591513D01*
X135553116Y-65927436D01*
X135267436Y-66213116D01*
X134931513Y-66437573D01*
X134931512Y-66437574D01*
X134931511Y-66437574D01*
X134558254Y-66592182D01*
X134162007Y-66671000D01*
X133757993Y-66671000D01*
X133361746Y-66592182D01*
X132988489Y-66437574D01*
X132988488Y-66437574D01*
X132988487Y-66437573D01*
X132652564Y-66213116D01*
X132366884Y-65927436D01*
X132142427Y-65591513D01*
X132103494Y-65497520D01*
X131987818Y-65218254D01*
X131909000Y-64822007D01*
X131909000Y-64417993D01*
X131987818Y-64021746D01*
X132142426Y-63648489D01*
X132276236Y-63448229D01*
X132366884Y-63312564D01*
X132652564Y-63026884D01*
X132988487Y-62802427D01*
X133001830Y-62796900D01*
X133361746Y-62647818D01*
X133757993Y-62569000D01*
X134162007Y-62569000D01*
X134558254Y-62647818D01*
G37*
G36*
X109558254Y-62647818D02*
G01*
X109918170Y-62796900D01*
X109931513Y-62802427D01*
X110267436Y-63026884D01*
X110553116Y-63312564D01*
X110643765Y-63448229D01*
X110777574Y-63648489D01*
X110932182Y-64021746D01*
X111011000Y-64417993D01*
X111011000Y-64822007D01*
X110932182Y-65218254D01*
X110816506Y-65497520D01*
X110777573Y-65591513D01*
X110553116Y-65927436D01*
X110267436Y-66213116D01*
X109931513Y-66437573D01*
X109931512Y-66437574D01*
X109931511Y-66437574D01*
X109558254Y-66592182D01*
X109162007Y-66671000D01*
X108757993Y-66671000D01*
X108361746Y-66592182D01*
X107988489Y-66437574D01*
X107988488Y-66437574D01*
X107988487Y-66437573D01*
X107652564Y-66213116D01*
X107366884Y-65927436D01*
X107142427Y-65591513D01*
X107103494Y-65497520D01*
X106987818Y-65218254D01*
X106909000Y-64822007D01*
X106909000Y-64417993D01*
X106987818Y-64021746D01*
X107142426Y-63648489D01*
X107276236Y-63448229D01*
X107366884Y-63312564D01*
X107652564Y-63026884D01*
X107988487Y-62802427D01*
X108001830Y-62796900D01*
X108361746Y-62647818D01*
X108757993Y-62569000D01*
X109162007Y-62569000D01*
X109558254Y-62647818D01*
G37*
G36*
X117553228Y-62381703D02*
G01*
X117708100Y-62445853D01*
X117847481Y-62538985D01*
X117966015Y-62657519D01*
X118059147Y-62796900D01*
X118123297Y-62951772D01*
X118156000Y-63116184D01*
X118156000Y-63283816D01*
X118123297Y-63448228D01*
X118059147Y-63603100D01*
X117966015Y-63742481D01*
X117847481Y-63861015D01*
X117708100Y-63954147D01*
X117553228Y-64018297D01*
X117388816Y-64051000D01*
X117221184Y-64051000D01*
X117056772Y-64018297D01*
X116901900Y-63954147D01*
X116762519Y-63861015D01*
X116643985Y-63742481D01*
X116550853Y-63603100D01*
X116486703Y-63448228D01*
X116454000Y-63283816D01*
X116454000Y-63116184D01*
X116486703Y-62951772D01*
X116550853Y-62796900D01*
X116643985Y-62657519D01*
X116762519Y-62538985D01*
X116901900Y-62445853D01*
X117056772Y-62381703D01*
X117221184Y-62349000D01*
X117388816Y-62349000D01*
X117553228Y-62381703D01*
G37*
G36*
X120323228Y-62381703D02*
G01*
X120478100Y-62445853D01*
X120617481Y-62538985D01*
X120736015Y-62657519D01*
X120829147Y-62796900D01*
X120893297Y-62951772D01*
X120926000Y-63116184D01*
X120926000Y-63283816D01*
X120893297Y-63448228D01*
X120829147Y-63603100D01*
X120736015Y-63742481D01*
X120617481Y-63861015D01*
X120478100Y-63954147D01*
X120323228Y-64018297D01*
X120158816Y-64051000D01*
X119991184Y-64051000D01*
X119826772Y-64018297D01*
X119671900Y-63954147D01*
X119532519Y-63861015D01*
X119413985Y-63742481D01*
X119320853Y-63603100D01*
X119256703Y-63448228D01*
X119224000Y-63283816D01*
X119224000Y-63116184D01*
X119256703Y-62951772D01*
X119320853Y-62796900D01*
X119413985Y-62657519D01*
X119532519Y-62538985D01*
X119671900Y-62445853D01*
X119826772Y-62381703D01*
X119991184Y-62349000D01*
X120158816Y-62349000D01*
X120323228Y-62381703D01*
G37*
G36*
X123093228Y-62381703D02*
G01*
X123248100Y-62445853D01*
X123387481Y-62538985D01*
X123506015Y-62657519D01*
X123599147Y-62796900D01*
X123663297Y-62951772D01*
X123696000Y-63116184D01*
X123696000Y-63283816D01*
X123663297Y-63448228D01*
X123599147Y-63603100D01*
X123506015Y-63742481D01*
X123387481Y-63861015D01*
X123248100Y-63954147D01*
X123093228Y-64018297D01*
X122928816Y-64051000D01*
X122761184Y-64051000D01*
X122596772Y-64018297D01*
X122441900Y-63954147D01*
X122302519Y-63861015D01*
X122183985Y-63742481D01*
X122090853Y-63603100D01*
X122026703Y-63448228D01*
X121994000Y-63283816D01*
X121994000Y-63116184D01*
X122026703Y-62951772D01*
X122090853Y-62796900D01*
X122183985Y-62657519D01*
X122302519Y-62538985D01*
X122441900Y-62445853D01*
X122596772Y-62381703D01*
X122761184Y-62349000D01*
X122928816Y-62349000D01*
X123093228Y-62381703D01*
G37*
G36*
X125863228Y-62381703D02*
G01*
X126018100Y-62445853D01*
X126157481Y-62538985D01*
X126276015Y-62657519D01*
X126369147Y-62796900D01*
X126433297Y-62951772D01*
X126466000Y-63116184D01*
X126466000Y-63283816D01*
X126433297Y-63448228D01*
X126369147Y-63603100D01*
X126276015Y-63742481D01*
X126157481Y-63861015D01*
X126018100Y-63954147D01*
X125863228Y-64018297D01*
X125698816Y-64051000D01*
X125531184Y-64051000D01*
X125366772Y-64018297D01*
X125211900Y-63954147D01*
X125072519Y-63861015D01*
X124953985Y-63742481D01*
X124860853Y-63603100D01*
X124796703Y-63448228D01*
X124764000Y-63283816D01*
X124764000Y-63116184D01*
X124796703Y-62951772D01*
X124860853Y-62796900D01*
X124953985Y-62657519D01*
X125072519Y-62538985D01*
X125211900Y-62445853D01*
X125366772Y-62381703D01*
X125531184Y-62349000D01*
X125698816Y-62349000D01*
X125863228Y-62381703D01*
G37*
M02*
