G04 #@! TF.GenerationSoftware,KiCad,Pcbnew,5.1.5-52549c5~84~ubuntu18.04.1*
G04 #@! TF.CreationDate,2020-04-22T17:40:04-07:00*
G04 #@! TF.ProjectId,clock_generator,636c6f63-6b5f-4676-956e-657261746f72,rev?*
G04 #@! TF.SameCoordinates,Original*
G04 #@! TF.FileFunction,Copper,L2,Bot*
G04 #@! TF.FilePolarity,Positive*
%FSLAX46Y46*%
G04 Gerber Fmt 4.6, Leading zero omitted, Abs format (unit mm)*
G04 Created by KiCad (PCBNEW 5.1.5-52549c5~84~ubuntu18.04.1) date 2020-04-22 17:40:04*
%MOMM*%
%LPD*%
G04 APERTURE LIST*
%ADD10C,4.000000*%
%ADD11C,1.600000*%
%ADD12R,1.600000X1.600000*%
%ADD13C,2.000000*%
%ADD14C,1.800000*%
%ADD15O,1.600000X1.600000*%
%ADD16C,6.000000*%
%ADD17C,0.800000*%
%ADD18C,0.250000*%
%ADD19C,0.254000*%
G04 APERTURE END LIST*
D10*
X108960000Y-64620000D03*
X133960000Y-64620000D03*
D11*
X117305000Y-63200000D03*
X120075000Y-63200000D03*
X122845000Y-63200000D03*
X125615000Y-63200000D03*
X115920000Y-66040000D03*
X118690000Y-66040000D03*
X121460000Y-66040000D03*
X124230000Y-66040000D03*
D12*
X127000000Y-66040000D03*
D13*
X138430000Y-99060000D03*
X138430000Y-101600000D03*
X104140000Y-101600000D03*
X104140000Y-99060000D03*
X138430000Y-73025000D03*
X138430000Y-75565000D03*
X104140000Y-75565000D03*
X104140000Y-73025000D03*
D10*
X131460000Y-117470000D03*
X131460000Y-108670000D03*
D14*
X124460000Y-115570000D03*
X124460000Y-113070000D03*
X124460000Y-110570000D03*
D15*
X104140000Y-107950000D03*
D11*
X114300000Y-107950000D03*
D15*
X114300000Y-113030000D03*
D11*
X104140000Y-113030000D03*
X118110000Y-112950000D03*
X118110000Y-107950000D03*
X138430000Y-86280000D03*
X138430000Y-81280000D03*
X104140000Y-86280000D03*
X104140000Y-81280000D03*
X130810000Y-85050000D03*
D12*
X130810000Y-82550000D03*
D11*
X111760000Y-85050000D03*
D12*
X111760000Y-82550000D03*
D16*
X104140000Y-124460000D03*
X138430000Y-124460000D03*
D17*
X116840000Y-99060000D03*
X114270000Y-101630000D03*
X119970000Y-99060000D03*
X132670000Y-89490000D03*
X132670000Y-98380000D03*
X119970000Y-89490000D03*
X112395000Y-75565000D03*
X131445000Y-74295000D03*
X121285000Y-83820000D03*
X113057500Y-96492500D03*
X111125000Y-92075000D03*
X110520000Y-99030000D03*
X126985000Y-92090000D03*
X120000000Y-92090000D03*
X114300000Y-90366998D03*
X116870000Y-92740000D03*
X127635000Y-93345000D03*
X133350000Y-93345000D03*
X114300000Y-91440000D03*
X123855000Y-101630000D03*
X121920000Y-88265000D03*
X128905000Y-90805000D03*
X128905000Y-92075000D03*
X130140000Y-96485000D03*
X114365000Y-70420000D03*
X123728384Y-70581616D03*
X121920000Y-74930000D03*
X129475000Y-71820000D03*
X114365000Y-78040000D03*
D18*
X114270000Y-101630000D02*
X116840000Y-99060000D01*
X118110000Y-105470000D02*
X114270000Y-101630000D01*
X118110000Y-107950000D02*
X118110000Y-105470000D01*
X111125000Y-94560000D02*
X111125000Y-92075000D01*
X113057500Y-96492500D02*
X111125000Y-94560000D01*
X110520000Y-101570000D02*
X104140000Y-107950000D01*
X110520000Y-99030000D02*
X110520000Y-101570000D01*
X120000000Y-92090000D02*
X126985000Y-92090000D01*
X114496998Y-90366998D02*
X114300000Y-90366998D01*
X116870000Y-92740000D02*
X114496998Y-90366998D01*
X127635000Y-93345000D02*
X130810000Y-93345000D01*
X130810000Y-93345000D02*
X133350000Y-93345000D01*
X123855000Y-100995000D02*
X114300000Y-91440000D01*
X123855000Y-101630000D02*
X123855000Y-100995000D01*
X126365000Y-88265000D02*
X121920000Y-88265000D01*
X126365000Y-88265000D02*
X128905000Y-90805000D01*
X129525000Y-92075000D02*
X128905000Y-92075000D01*
X131283002Y-96485000D02*
X134075001Y-93693001D01*
X130140000Y-96485000D02*
X131283002Y-96485000D01*
X134075001Y-93693001D02*
X134075001Y-92996999D01*
X134075001Y-92996999D02*
X133168002Y-92090000D01*
X133168002Y-92090000D02*
X129540000Y-92090000D01*
X129540000Y-92090000D02*
X129525000Y-92075000D01*
X104140000Y-75565000D02*
X104140000Y-73025000D01*
X106745000Y-70420000D02*
X104140000Y-73025000D01*
X114365000Y-70420000D02*
X106745000Y-70420000D01*
X138430000Y-73025000D02*
X138430000Y-75565000D01*
X135986616Y-70581616D02*
X138430000Y-73025000D01*
X123728384Y-70581616D02*
X135986616Y-70581616D01*
X125030000Y-71820000D02*
X121920000Y-74930000D01*
X129475000Y-71820000D02*
X125030000Y-71820000D01*
X114930685Y-78040000D02*
X114995685Y-78105000D01*
X114365000Y-78040000D02*
X114930685Y-78040000D01*
X118745000Y-78105000D02*
X121920000Y-74930000D01*
X114995685Y-78105000D02*
X118745000Y-78105000D01*
D19*
G36*
X142113000Y-128143000D02*
G01*
X100457000Y-128143000D01*
X100457000Y-124101984D01*
X100505000Y-124101984D01*
X100505000Y-124818016D01*
X100644691Y-125520290D01*
X100918705Y-126181818D01*
X101316511Y-126777177D01*
X101822823Y-127283489D01*
X102418182Y-127681295D01*
X103079710Y-127955309D01*
X103781984Y-128095000D01*
X104498016Y-128095000D01*
X105200290Y-127955309D01*
X105861818Y-127681295D01*
X106457177Y-127283489D01*
X106963489Y-126777177D01*
X107361295Y-126181818D01*
X107635309Y-125520290D01*
X107775000Y-124818016D01*
X107775000Y-124101984D01*
X134795000Y-124101984D01*
X134795000Y-124818016D01*
X134934691Y-125520290D01*
X135208705Y-126181818D01*
X135606511Y-126777177D01*
X136112823Y-127283489D01*
X136708182Y-127681295D01*
X137369710Y-127955309D01*
X138071984Y-128095000D01*
X138788016Y-128095000D01*
X139490290Y-127955309D01*
X140151818Y-127681295D01*
X140747177Y-127283489D01*
X141253489Y-126777177D01*
X141651295Y-126181818D01*
X141925309Y-125520290D01*
X142065000Y-124818016D01*
X142065000Y-124101984D01*
X141925309Y-123399710D01*
X141651295Y-122738182D01*
X141253489Y-122142823D01*
X140747177Y-121636511D01*
X140151818Y-121238705D01*
X139490290Y-120964691D01*
X138788016Y-120825000D01*
X138071984Y-120825000D01*
X137369710Y-120964691D01*
X136708182Y-121238705D01*
X136112823Y-121636511D01*
X135606511Y-122142823D01*
X135208705Y-122738182D01*
X134934691Y-123399710D01*
X134795000Y-124101984D01*
X107775000Y-124101984D01*
X107635309Y-123399710D01*
X107361295Y-122738182D01*
X106963489Y-122142823D01*
X106457177Y-121636511D01*
X105861818Y-121238705D01*
X105200290Y-120964691D01*
X104498016Y-120825000D01*
X103781984Y-120825000D01*
X103079710Y-120964691D01*
X102418182Y-121238705D01*
X101822823Y-121636511D01*
X101316511Y-122142823D01*
X100918705Y-122738182D01*
X100644691Y-123399710D01*
X100505000Y-124101984D01*
X100457000Y-124101984D01*
X100457000Y-117210475D01*
X128825000Y-117210475D01*
X128825000Y-117729525D01*
X128926261Y-118238601D01*
X129124893Y-118718141D01*
X129413262Y-119149715D01*
X129780285Y-119516738D01*
X130211859Y-119805107D01*
X130691399Y-120003739D01*
X131200475Y-120105000D01*
X131719525Y-120105000D01*
X132228601Y-120003739D01*
X132708141Y-119805107D01*
X133139715Y-119516738D01*
X133506738Y-119149715D01*
X133795107Y-118718141D01*
X133993739Y-118238601D01*
X134095000Y-117729525D01*
X134095000Y-117210475D01*
X133993739Y-116701399D01*
X133795107Y-116221859D01*
X133506738Y-115790285D01*
X133139715Y-115423262D01*
X132708141Y-115134893D01*
X132228601Y-114936261D01*
X131719525Y-114835000D01*
X131200475Y-114835000D01*
X130691399Y-114936261D01*
X130211859Y-115134893D01*
X129780285Y-115423262D01*
X129413262Y-115790285D01*
X129124893Y-116221859D01*
X128926261Y-116701399D01*
X128825000Y-117210475D01*
X100457000Y-117210475D01*
X100457000Y-112888665D01*
X102705000Y-112888665D01*
X102705000Y-113171335D01*
X102760147Y-113448574D01*
X102868320Y-113709727D01*
X103025363Y-113944759D01*
X103225241Y-114144637D01*
X103460273Y-114301680D01*
X103721426Y-114409853D01*
X103998665Y-114465000D01*
X104281335Y-114465000D01*
X104558574Y-114409853D01*
X104819727Y-114301680D01*
X105054759Y-114144637D01*
X105254637Y-113944759D01*
X105411680Y-113709727D01*
X105519853Y-113448574D01*
X105575000Y-113171335D01*
X105575000Y-112888665D01*
X112865000Y-112888665D01*
X112865000Y-113171335D01*
X112920147Y-113448574D01*
X113028320Y-113709727D01*
X113185363Y-113944759D01*
X113385241Y-114144637D01*
X113620273Y-114301680D01*
X113881426Y-114409853D01*
X114158665Y-114465000D01*
X114441335Y-114465000D01*
X114718574Y-114409853D01*
X114979727Y-114301680D01*
X115214759Y-114144637D01*
X115414637Y-113944759D01*
X115571680Y-113709727D01*
X115679853Y-113448574D01*
X115735000Y-113171335D01*
X115735000Y-112888665D01*
X115719087Y-112808665D01*
X116675000Y-112808665D01*
X116675000Y-113091335D01*
X116730147Y-113368574D01*
X116838320Y-113629727D01*
X116995363Y-113864759D01*
X117195241Y-114064637D01*
X117430273Y-114221680D01*
X117691426Y-114329853D01*
X117968665Y-114385000D01*
X118251335Y-114385000D01*
X118528574Y-114329853D01*
X118789727Y-114221680D01*
X119024759Y-114064637D01*
X119224637Y-113864759D01*
X119381680Y-113629727D01*
X119489853Y-113368574D01*
X119545000Y-113091335D01*
X119545000Y-112808665D01*
X119489853Y-112531426D01*
X119381680Y-112270273D01*
X119224637Y-112035241D01*
X119024759Y-111835363D01*
X118789727Y-111678320D01*
X118528574Y-111570147D01*
X118251335Y-111515000D01*
X117968665Y-111515000D01*
X117691426Y-111570147D01*
X117430273Y-111678320D01*
X117195241Y-111835363D01*
X116995363Y-112035241D01*
X116838320Y-112270273D01*
X116730147Y-112531426D01*
X116675000Y-112808665D01*
X115719087Y-112808665D01*
X115679853Y-112611426D01*
X115571680Y-112350273D01*
X115414637Y-112115241D01*
X115214759Y-111915363D01*
X114979727Y-111758320D01*
X114718574Y-111650147D01*
X114441335Y-111595000D01*
X114158665Y-111595000D01*
X113881426Y-111650147D01*
X113620273Y-111758320D01*
X113385241Y-111915363D01*
X113185363Y-112115241D01*
X113028320Y-112350273D01*
X112920147Y-112611426D01*
X112865000Y-112888665D01*
X105575000Y-112888665D01*
X105519853Y-112611426D01*
X105411680Y-112350273D01*
X105254637Y-112115241D01*
X105054759Y-111915363D01*
X104819727Y-111758320D01*
X104558574Y-111650147D01*
X104281335Y-111595000D01*
X103998665Y-111595000D01*
X103721426Y-111650147D01*
X103460273Y-111758320D01*
X103225241Y-111915363D01*
X103025363Y-112115241D01*
X102868320Y-112350273D01*
X102760147Y-112611426D01*
X102705000Y-112888665D01*
X100457000Y-112888665D01*
X100457000Y-110418816D01*
X122925000Y-110418816D01*
X122925000Y-110721184D01*
X122983989Y-111017743D01*
X123099701Y-111297095D01*
X123267688Y-111548505D01*
X123481495Y-111762312D01*
X123567831Y-111820000D01*
X123481495Y-111877688D01*
X123267688Y-112091495D01*
X123099701Y-112342905D01*
X122983989Y-112622257D01*
X122925000Y-112918816D01*
X122925000Y-113221184D01*
X122983989Y-113517743D01*
X123099701Y-113797095D01*
X123267688Y-114048505D01*
X123481495Y-114262312D01*
X123567831Y-114320000D01*
X123481495Y-114377688D01*
X123267688Y-114591495D01*
X123099701Y-114842905D01*
X122983989Y-115122257D01*
X122925000Y-115418816D01*
X122925000Y-115721184D01*
X122983989Y-116017743D01*
X123099701Y-116297095D01*
X123267688Y-116548505D01*
X123481495Y-116762312D01*
X123732905Y-116930299D01*
X124012257Y-117046011D01*
X124308816Y-117105000D01*
X124611184Y-117105000D01*
X124907743Y-117046011D01*
X125187095Y-116930299D01*
X125438505Y-116762312D01*
X125652312Y-116548505D01*
X125820299Y-116297095D01*
X125936011Y-116017743D01*
X125995000Y-115721184D01*
X125995000Y-115418816D01*
X125936011Y-115122257D01*
X125820299Y-114842905D01*
X125652312Y-114591495D01*
X125438505Y-114377688D01*
X125352169Y-114320000D01*
X125438505Y-114262312D01*
X125652312Y-114048505D01*
X125820299Y-113797095D01*
X125936011Y-113517743D01*
X125995000Y-113221184D01*
X125995000Y-112918816D01*
X125936011Y-112622257D01*
X125820299Y-112342905D01*
X125652312Y-112091495D01*
X125438505Y-111877688D01*
X125352169Y-111820000D01*
X125438505Y-111762312D01*
X125652312Y-111548505D01*
X125820299Y-111297095D01*
X125936011Y-111017743D01*
X125995000Y-110721184D01*
X125995000Y-110418816D01*
X125936011Y-110122257D01*
X125820299Y-109842905D01*
X125652312Y-109591495D01*
X125438505Y-109377688D01*
X125187095Y-109209701D01*
X124907743Y-109093989D01*
X124611184Y-109035000D01*
X124308816Y-109035000D01*
X124012257Y-109093989D01*
X123732905Y-109209701D01*
X123481495Y-109377688D01*
X123267688Y-109591495D01*
X123099701Y-109842905D01*
X122983989Y-110122257D01*
X122925000Y-110418816D01*
X100457000Y-110418816D01*
X100457000Y-107808665D01*
X102705000Y-107808665D01*
X102705000Y-108091335D01*
X102760147Y-108368574D01*
X102868320Y-108629727D01*
X103025363Y-108864759D01*
X103225241Y-109064637D01*
X103460273Y-109221680D01*
X103721426Y-109329853D01*
X103998665Y-109385000D01*
X104281335Y-109385000D01*
X104558574Y-109329853D01*
X104819727Y-109221680D01*
X105054759Y-109064637D01*
X105254637Y-108864759D01*
X105411680Y-108629727D01*
X105519853Y-108368574D01*
X105575000Y-108091335D01*
X105575000Y-107808665D01*
X112865000Y-107808665D01*
X112865000Y-108091335D01*
X112920147Y-108368574D01*
X113028320Y-108629727D01*
X113185363Y-108864759D01*
X113385241Y-109064637D01*
X113620273Y-109221680D01*
X113881426Y-109329853D01*
X114158665Y-109385000D01*
X114441335Y-109385000D01*
X114718574Y-109329853D01*
X114979727Y-109221680D01*
X115214759Y-109064637D01*
X115414637Y-108864759D01*
X115571680Y-108629727D01*
X115679853Y-108368574D01*
X115735000Y-108091335D01*
X115735000Y-107808665D01*
X115679853Y-107531426D01*
X115571680Y-107270273D01*
X115414637Y-107035241D01*
X115214759Y-106835363D01*
X114979727Y-106678320D01*
X114718574Y-106570147D01*
X114441335Y-106515000D01*
X114158665Y-106515000D01*
X113881426Y-106570147D01*
X113620273Y-106678320D01*
X113385241Y-106835363D01*
X113185363Y-107035241D01*
X113028320Y-107270273D01*
X112920147Y-107531426D01*
X112865000Y-107808665D01*
X105575000Y-107808665D01*
X105538688Y-107626113D01*
X111031003Y-102133799D01*
X111060001Y-102110001D01*
X111154974Y-101994276D01*
X111225546Y-101862247D01*
X111269003Y-101718986D01*
X111280000Y-101607333D01*
X111283677Y-101570000D01*
X111280000Y-101532667D01*
X111280000Y-101528061D01*
X113235000Y-101528061D01*
X113235000Y-101731939D01*
X113274774Y-101931898D01*
X113352795Y-102120256D01*
X113466063Y-102289774D01*
X113610226Y-102433937D01*
X113779744Y-102547205D01*
X113968102Y-102625226D01*
X114168061Y-102665000D01*
X114230199Y-102665000D01*
X117350001Y-105784803D01*
X117350000Y-106731956D01*
X117195241Y-106835363D01*
X116995363Y-107035241D01*
X116838320Y-107270273D01*
X116730147Y-107531426D01*
X116675000Y-107808665D01*
X116675000Y-108091335D01*
X116730147Y-108368574D01*
X116838320Y-108629727D01*
X116995363Y-108864759D01*
X117195241Y-109064637D01*
X117430273Y-109221680D01*
X117691426Y-109329853D01*
X117968665Y-109385000D01*
X118251335Y-109385000D01*
X118528574Y-109329853D01*
X118789727Y-109221680D01*
X119024759Y-109064637D01*
X119224637Y-108864759D01*
X119381680Y-108629727D01*
X119472497Y-108410475D01*
X128825000Y-108410475D01*
X128825000Y-108929525D01*
X128926261Y-109438601D01*
X129124893Y-109918141D01*
X129413262Y-110349715D01*
X129780285Y-110716738D01*
X130211859Y-111005107D01*
X130691399Y-111203739D01*
X131200475Y-111305000D01*
X131719525Y-111305000D01*
X132228601Y-111203739D01*
X132708141Y-111005107D01*
X133139715Y-110716738D01*
X133506738Y-110349715D01*
X133795107Y-109918141D01*
X133993739Y-109438601D01*
X134095000Y-108929525D01*
X134095000Y-108410475D01*
X133993739Y-107901399D01*
X133795107Y-107421859D01*
X133506738Y-106990285D01*
X133139715Y-106623262D01*
X132708141Y-106334893D01*
X132228601Y-106136261D01*
X131719525Y-106035000D01*
X131200475Y-106035000D01*
X130691399Y-106136261D01*
X130211859Y-106334893D01*
X129780285Y-106623262D01*
X129413262Y-106990285D01*
X129124893Y-107421859D01*
X128926261Y-107901399D01*
X128825000Y-108410475D01*
X119472497Y-108410475D01*
X119489853Y-108368574D01*
X119545000Y-108091335D01*
X119545000Y-107808665D01*
X119489853Y-107531426D01*
X119381680Y-107270273D01*
X119224637Y-107035241D01*
X119024759Y-106835363D01*
X118870000Y-106731957D01*
X118870000Y-105507322D01*
X118873676Y-105469999D01*
X118870000Y-105432676D01*
X118870000Y-105432667D01*
X118859003Y-105321014D01*
X118815546Y-105177753D01*
X118744974Y-105045723D01*
X118673799Y-104958997D01*
X118650001Y-104929999D01*
X118621003Y-104906201D01*
X115344801Y-101630000D01*
X116879802Y-100095000D01*
X116941939Y-100095000D01*
X117141898Y-100055226D01*
X117330256Y-99977205D01*
X117499774Y-99863937D01*
X117643937Y-99719774D01*
X117757205Y-99550256D01*
X117835226Y-99361898D01*
X117875000Y-99161939D01*
X117875000Y-98958061D01*
X117835226Y-98758102D01*
X117757205Y-98569744D01*
X117643937Y-98400226D01*
X117499774Y-98256063D01*
X117330256Y-98142795D01*
X117141898Y-98064774D01*
X116941939Y-98025000D01*
X116738061Y-98025000D01*
X116538102Y-98064774D01*
X116349744Y-98142795D01*
X116180226Y-98256063D01*
X116036063Y-98400226D01*
X115922795Y-98569744D01*
X115844774Y-98758102D01*
X115805000Y-98958061D01*
X115805000Y-99020198D01*
X114230199Y-100595000D01*
X114168061Y-100595000D01*
X113968102Y-100634774D01*
X113779744Y-100712795D01*
X113610226Y-100826063D01*
X113466063Y-100970226D01*
X113352795Y-101139744D01*
X113274774Y-101328102D01*
X113235000Y-101528061D01*
X111280000Y-101528061D01*
X111280000Y-99733711D01*
X111323937Y-99689774D01*
X111437205Y-99520256D01*
X111515226Y-99331898D01*
X111555000Y-99131939D01*
X111555000Y-98928061D01*
X111515226Y-98728102D01*
X111437205Y-98539744D01*
X111323937Y-98370226D01*
X111179774Y-98226063D01*
X111010256Y-98112795D01*
X110821898Y-98034774D01*
X110621939Y-97995000D01*
X110418061Y-97995000D01*
X110218102Y-98034774D01*
X110029744Y-98112795D01*
X109860226Y-98226063D01*
X109716063Y-98370226D01*
X109602795Y-98539744D01*
X109524774Y-98728102D01*
X109485000Y-98928061D01*
X109485000Y-99131939D01*
X109524774Y-99331898D01*
X109602795Y-99520256D01*
X109716063Y-99689774D01*
X109760000Y-99733711D01*
X109760001Y-101255197D01*
X104463887Y-106551312D01*
X104281335Y-106515000D01*
X103998665Y-106515000D01*
X103721426Y-106570147D01*
X103460273Y-106678320D01*
X103225241Y-106835363D01*
X103025363Y-107035241D01*
X102868320Y-107270273D01*
X102760147Y-107531426D01*
X102705000Y-107808665D01*
X100457000Y-107808665D01*
X100457000Y-98898967D01*
X102505000Y-98898967D01*
X102505000Y-99221033D01*
X102567832Y-99536912D01*
X102691082Y-99834463D01*
X102870013Y-100102252D01*
X103097748Y-100329987D01*
X103097767Y-100330000D01*
X103097748Y-100330013D01*
X102870013Y-100557748D01*
X102691082Y-100825537D01*
X102567832Y-101123088D01*
X102505000Y-101438967D01*
X102505000Y-101761033D01*
X102567832Y-102076912D01*
X102691082Y-102374463D01*
X102870013Y-102642252D01*
X103097748Y-102869987D01*
X103365537Y-103048918D01*
X103663088Y-103172168D01*
X103978967Y-103235000D01*
X104301033Y-103235000D01*
X104616912Y-103172168D01*
X104914463Y-103048918D01*
X105182252Y-102869987D01*
X105409987Y-102642252D01*
X105588918Y-102374463D01*
X105712168Y-102076912D01*
X105775000Y-101761033D01*
X105775000Y-101438967D01*
X105712168Y-101123088D01*
X105588918Y-100825537D01*
X105409987Y-100557748D01*
X105182252Y-100330013D01*
X105182233Y-100330000D01*
X105182252Y-100329987D01*
X105409987Y-100102252D01*
X105588918Y-99834463D01*
X105712168Y-99536912D01*
X105775000Y-99221033D01*
X105775000Y-98898967D01*
X105712168Y-98583088D01*
X105588918Y-98285537D01*
X105409987Y-98017748D01*
X105182252Y-97790013D01*
X104914463Y-97611082D01*
X104616912Y-97487832D01*
X104301033Y-97425000D01*
X103978967Y-97425000D01*
X103663088Y-97487832D01*
X103365537Y-97611082D01*
X103097748Y-97790013D01*
X102870013Y-98017748D01*
X102691082Y-98285537D01*
X102567832Y-98583088D01*
X102505000Y-98898967D01*
X100457000Y-98898967D01*
X100457000Y-91973061D01*
X110090000Y-91973061D01*
X110090000Y-92176939D01*
X110129774Y-92376898D01*
X110207795Y-92565256D01*
X110321063Y-92734774D01*
X110365001Y-92778712D01*
X110365000Y-94522677D01*
X110361324Y-94560000D01*
X110365000Y-94597322D01*
X110365000Y-94597332D01*
X110375997Y-94708985D01*
X110419454Y-94852246D01*
X110490026Y-94984276D01*
X110529871Y-95032826D01*
X110584999Y-95100001D01*
X110614003Y-95123804D01*
X112022500Y-96532302D01*
X112022500Y-96594439D01*
X112062274Y-96794398D01*
X112140295Y-96982756D01*
X112253563Y-97152274D01*
X112397726Y-97296437D01*
X112567244Y-97409705D01*
X112755602Y-97487726D01*
X112955561Y-97527500D01*
X113159439Y-97527500D01*
X113359398Y-97487726D01*
X113547756Y-97409705D01*
X113717274Y-97296437D01*
X113861437Y-97152274D01*
X113974705Y-96982756D01*
X114052726Y-96794398D01*
X114092500Y-96594439D01*
X114092500Y-96390561D01*
X114052726Y-96190602D01*
X113974705Y-96002244D01*
X113861437Y-95832726D01*
X113717274Y-95688563D01*
X113547756Y-95575295D01*
X113359398Y-95497274D01*
X113159439Y-95457500D01*
X113097302Y-95457500D01*
X111885000Y-94245199D01*
X111885000Y-92778711D01*
X111928937Y-92734774D01*
X112042205Y-92565256D01*
X112120226Y-92376898D01*
X112160000Y-92176939D01*
X112160000Y-91973061D01*
X112120226Y-91773102D01*
X112042205Y-91584744D01*
X111928937Y-91415226D01*
X111784774Y-91271063D01*
X111615256Y-91157795D01*
X111426898Y-91079774D01*
X111226939Y-91040000D01*
X111023061Y-91040000D01*
X110823102Y-91079774D01*
X110634744Y-91157795D01*
X110465226Y-91271063D01*
X110321063Y-91415226D01*
X110207795Y-91584744D01*
X110129774Y-91773102D01*
X110090000Y-91973061D01*
X100457000Y-91973061D01*
X100457000Y-90265059D01*
X113265000Y-90265059D01*
X113265000Y-90468937D01*
X113304774Y-90668896D01*
X113382795Y-90857254D01*
X113413695Y-90903499D01*
X113382795Y-90949744D01*
X113304774Y-91138102D01*
X113265000Y-91338061D01*
X113265000Y-91541939D01*
X113304774Y-91741898D01*
X113382795Y-91930256D01*
X113496063Y-92099774D01*
X113640226Y-92243937D01*
X113809744Y-92357205D01*
X113998102Y-92435226D01*
X114198061Y-92475000D01*
X114260199Y-92475000D01*
X122934030Y-101148832D01*
X122859774Y-101328102D01*
X122820000Y-101528061D01*
X122820000Y-101731939D01*
X122859774Y-101931898D01*
X122937795Y-102120256D01*
X123051063Y-102289774D01*
X123195226Y-102433937D01*
X123364744Y-102547205D01*
X123553102Y-102625226D01*
X123753061Y-102665000D01*
X123956939Y-102665000D01*
X124156898Y-102625226D01*
X124345256Y-102547205D01*
X124514774Y-102433937D01*
X124658937Y-102289774D01*
X124772205Y-102120256D01*
X124850226Y-101931898D01*
X124890000Y-101731939D01*
X124890000Y-101528061D01*
X124850226Y-101328102D01*
X124772205Y-101139744D01*
X124658937Y-100970226D01*
X124611572Y-100922861D01*
X124604003Y-100846014D01*
X124560546Y-100702753D01*
X124489974Y-100570724D01*
X124418799Y-100483997D01*
X124395001Y-100454999D01*
X124366003Y-100431201D01*
X122833769Y-98898967D01*
X136795000Y-98898967D01*
X136795000Y-99221033D01*
X136857832Y-99536912D01*
X136981082Y-99834463D01*
X137160013Y-100102252D01*
X137387748Y-100329987D01*
X137387767Y-100330000D01*
X137387748Y-100330013D01*
X137160013Y-100557748D01*
X136981082Y-100825537D01*
X136857832Y-101123088D01*
X136795000Y-101438967D01*
X136795000Y-101761033D01*
X136857832Y-102076912D01*
X136981082Y-102374463D01*
X137160013Y-102642252D01*
X137387748Y-102869987D01*
X137655537Y-103048918D01*
X137953088Y-103172168D01*
X138268967Y-103235000D01*
X138591033Y-103235000D01*
X138906912Y-103172168D01*
X139204463Y-103048918D01*
X139472252Y-102869987D01*
X139699987Y-102642252D01*
X139878918Y-102374463D01*
X140002168Y-102076912D01*
X140065000Y-101761033D01*
X140065000Y-101438967D01*
X140002168Y-101123088D01*
X139878918Y-100825537D01*
X139699987Y-100557748D01*
X139472252Y-100330013D01*
X139472233Y-100330000D01*
X139472252Y-100329987D01*
X139699987Y-100102252D01*
X139878918Y-99834463D01*
X140002168Y-99536912D01*
X140065000Y-99221033D01*
X140065000Y-98898967D01*
X140002168Y-98583088D01*
X139878918Y-98285537D01*
X139699987Y-98017748D01*
X139472252Y-97790013D01*
X139204463Y-97611082D01*
X138906912Y-97487832D01*
X138591033Y-97425000D01*
X138268967Y-97425000D01*
X137953088Y-97487832D01*
X137655537Y-97611082D01*
X137387748Y-97790013D01*
X137160013Y-98017748D01*
X136981082Y-98285537D01*
X136857832Y-98583088D01*
X136795000Y-98898967D01*
X122833769Y-98898967D01*
X117499180Y-93564379D01*
X117529774Y-93543937D01*
X117673937Y-93399774D01*
X117787205Y-93230256D01*
X117865226Y-93041898D01*
X117905000Y-92841939D01*
X117905000Y-92638061D01*
X117865226Y-92438102D01*
X117787205Y-92249744D01*
X117673937Y-92080226D01*
X117581772Y-91988061D01*
X118965000Y-91988061D01*
X118965000Y-92191939D01*
X119004774Y-92391898D01*
X119082795Y-92580256D01*
X119196063Y-92749774D01*
X119340226Y-92893937D01*
X119509744Y-93007205D01*
X119698102Y-93085226D01*
X119898061Y-93125000D01*
X120101939Y-93125000D01*
X120301898Y-93085226D01*
X120490256Y-93007205D01*
X120659774Y-92893937D01*
X120703711Y-92850000D01*
X126281289Y-92850000D01*
X126325226Y-92893937D01*
X126494744Y-93007205D01*
X126635331Y-93065438D01*
X126600000Y-93243061D01*
X126600000Y-93446939D01*
X126639774Y-93646898D01*
X126717795Y-93835256D01*
X126831063Y-94004774D01*
X126975226Y-94148937D01*
X127144744Y-94262205D01*
X127333102Y-94340226D01*
X127533061Y-94380000D01*
X127736939Y-94380000D01*
X127936898Y-94340226D01*
X128125256Y-94262205D01*
X128294774Y-94148937D01*
X128338711Y-94105000D01*
X132588200Y-94105000D01*
X130968201Y-95725000D01*
X130843711Y-95725000D01*
X130799774Y-95681063D01*
X130630256Y-95567795D01*
X130441898Y-95489774D01*
X130241939Y-95450000D01*
X130038061Y-95450000D01*
X129838102Y-95489774D01*
X129649744Y-95567795D01*
X129480226Y-95681063D01*
X129336063Y-95825226D01*
X129222795Y-95994744D01*
X129144774Y-96183102D01*
X129105000Y-96383061D01*
X129105000Y-96586939D01*
X129144774Y-96786898D01*
X129222795Y-96975256D01*
X129336063Y-97144774D01*
X129480226Y-97288937D01*
X129649744Y-97402205D01*
X129838102Y-97480226D01*
X130038061Y-97520000D01*
X130241939Y-97520000D01*
X130441898Y-97480226D01*
X130630256Y-97402205D01*
X130799774Y-97288937D01*
X130843711Y-97245000D01*
X131245680Y-97245000D01*
X131283002Y-97248676D01*
X131320324Y-97245000D01*
X131320335Y-97245000D01*
X131431988Y-97234003D01*
X131575249Y-97190546D01*
X131707278Y-97119974D01*
X131823003Y-97025001D01*
X131846806Y-96995997D01*
X134586005Y-94256799D01*
X134615002Y-94233002D01*
X134709975Y-94117277D01*
X134780547Y-93985248D01*
X134824004Y-93841987D01*
X134835001Y-93730334D01*
X134835001Y-93730324D01*
X134838677Y-93693001D01*
X134835001Y-93655678D01*
X134835001Y-93034321D01*
X134838677Y-92996998D01*
X134835001Y-92959675D01*
X134835001Y-92959666D01*
X134824004Y-92848013D01*
X134780547Y-92704752D01*
X134709975Y-92572723D01*
X134615002Y-92456998D01*
X134586004Y-92433200D01*
X133731805Y-91579002D01*
X133708003Y-91549999D01*
X133592278Y-91455026D01*
X133460249Y-91384454D01*
X133316988Y-91340997D01*
X133205335Y-91330000D01*
X133205324Y-91330000D01*
X133168002Y-91326324D01*
X133130680Y-91330000D01*
X129798990Y-91330000D01*
X129822205Y-91295256D01*
X129900226Y-91106898D01*
X129940000Y-90906939D01*
X129940000Y-90703061D01*
X129900226Y-90503102D01*
X129822205Y-90314744D01*
X129708937Y-90145226D01*
X129564774Y-90001063D01*
X129395256Y-89887795D01*
X129206898Y-89809774D01*
X129006939Y-89770000D01*
X128944803Y-89770000D01*
X126928804Y-87754003D01*
X126905001Y-87724999D01*
X126789276Y-87630026D01*
X126657247Y-87559454D01*
X126513986Y-87515997D01*
X126402333Y-87505000D01*
X126402322Y-87505000D01*
X126365000Y-87501324D01*
X126327678Y-87505000D01*
X122623711Y-87505000D01*
X122579774Y-87461063D01*
X122410256Y-87347795D01*
X122221898Y-87269774D01*
X122021939Y-87230000D01*
X121818061Y-87230000D01*
X121618102Y-87269774D01*
X121429744Y-87347795D01*
X121260226Y-87461063D01*
X121116063Y-87605226D01*
X121002795Y-87774744D01*
X120924774Y-87963102D01*
X120885000Y-88163061D01*
X120885000Y-88366939D01*
X120924774Y-88566898D01*
X121002795Y-88755256D01*
X121116063Y-88924774D01*
X121260226Y-89068937D01*
X121429744Y-89182205D01*
X121618102Y-89260226D01*
X121818061Y-89300000D01*
X122021939Y-89300000D01*
X122221898Y-89260226D01*
X122410256Y-89182205D01*
X122579774Y-89068937D01*
X122623711Y-89025000D01*
X126050199Y-89025000D01*
X127870000Y-90844803D01*
X127870000Y-90906939D01*
X127909774Y-91106898D01*
X127987795Y-91295256D01*
X128084510Y-91440000D01*
X127987795Y-91584744D01*
X127941893Y-91695560D01*
X127902205Y-91599744D01*
X127788937Y-91430226D01*
X127644774Y-91286063D01*
X127475256Y-91172795D01*
X127286898Y-91094774D01*
X127086939Y-91055000D01*
X126883061Y-91055000D01*
X126683102Y-91094774D01*
X126494744Y-91172795D01*
X126325226Y-91286063D01*
X126281289Y-91330000D01*
X120703711Y-91330000D01*
X120659774Y-91286063D01*
X120490256Y-91172795D01*
X120301898Y-91094774D01*
X120101939Y-91055000D01*
X119898061Y-91055000D01*
X119698102Y-91094774D01*
X119509744Y-91172795D01*
X119340226Y-91286063D01*
X119196063Y-91430226D01*
X119082795Y-91599744D01*
X119004774Y-91788102D01*
X118965000Y-91988061D01*
X117581772Y-91988061D01*
X117529774Y-91936063D01*
X117360256Y-91822795D01*
X117171898Y-91744774D01*
X116971939Y-91705000D01*
X116909802Y-91705000D01*
X115301514Y-90096713D01*
X115295226Y-90065100D01*
X115217205Y-89876742D01*
X115103937Y-89707224D01*
X114959774Y-89563061D01*
X114790256Y-89449793D01*
X114601898Y-89371772D01*
X114401939Y-89331998D01*
X114198061Y-89331998D01*
X113998102Y-89371772D01*
X113809744Y-89449793D01*
X113640226Y-89563061D01*
X113496063Y-89707224D01*
X113382795Y-89876742D01*
X113304774Y-90065100D01*
X113265000Y-90265059D01*
X100457000Y-90265059D01*
X100457000Y-86138665D01*
X102705000Y-86138665D01*
X102705000Y-86421335D01*
X102760147Y-86698574D01*
X102868320Y-86959727D01*
X103025363Y-87194759D01*
X103225241Y-87394637D01*
X103460273Y-87551680D01*
X103721426Y-87659853D01*
X103998665Y-87715000D01*
X104281335Y-87715000D01*
X104558574Y-87659853D01*
X104819727Y-87551680D01*
X105054759Y-87394637D01*
X105254637Y-87194759D01*
X105411680Y-86959727D01*
X105519853Y-86698574D01*
X105575000Y-86421335D01*
X105575000Y-86138665D01*
X105519853Y-85861426D01*
X105411680Y-85600273D01*
X105254637Y-85365241D01*
X105054759Y-85165363D01*
X104819727Y-85008320D01*
X104558574Y-84900147D01*
X104281335Y-84845000D01*
X103998665Y-84845000D01*
X103721426Y-84900147D01*
X103460273Y-85008320D01*
X103225241Y-85165363D01*
X103025363Y-85365241D01*
X102868320Y-85600273D01*
X102760147Y-85861426D01*
X102705000Y-86138665D01*
X100457000Y-86138665D01*
X100457000Y-83350000D01*
X110321928Y-83350000D01*
X110334188Y-83474482D01*
X110370498Y-83594180D01*
X110429463Y-83704494D01*
X110508815Y-83801185D01*
X110605506Y-83880537D01*
X110715820Y-83939502D01*
X110811943Y-83968661D01*
X110645363Y-84135241D01*
X110488320Y-84370273D01*
X110380147Y-84631426D01*
X110325000Y-84908665D01*
X110325000Y-85191335D01*
X110380147Y-85468574D01*
X110488320Y-85729727D01*
X110645363Y-85964759D01*
X110845241Y-86164637D01*
X111080273Y-86321680D01*
X111341426Y-86429853D01*
X111618665Y-86485000D01*
X111901335Y-86485000D01*
X112178574Y-86429853D01*
X112439727Y-86321680D01*
X112674759Y-86164637D01*
X112874637Y-85964759D01*
X113031680Y-85729727D01*
X113139853Y-85468574D01*
X113195000Y-85191335D01*
X113195000Y-84908665D01*
X113139853Y-84631426D01*
X113031680Y-84370273D01*
X112874637Y-84135241D01*
X112708057Y-83968661D01*
X112804180Y-83939502D01*
X112914494Y-83880537D01*
X113011185Y-83801185D01*
X113090537Y-83704494D01*
X113149502Y-83594180D01*
X113185812Y-83474482D01*
X113198072Y-83350000D01*
X129371928Y-83350000D01*
X129384188Y-83474482D01*
X129420498Y-83594180D01*
X129479463Y-83704494D01*
X129558815Y-83801185D01*
X129655506Y-83880537D01*
X129765820Y-83939502D01*
X129861943Y-83968661D01*
X129695363Y-84135241D01*
X129538320Y-84370273D01*
X129430147Y-84631426D01*
X129375000Y-84908665D01*
X129375000Y-85191335D01*
X129430147Y-85468574D01*
X129538320Y-85729727D01*
X129695363Y-85964759D01*
X129895241Y-86164637D01*
X130130273Y-86321680D01*
X130391426Y-86429853D01*
X130668665Y-86485000D01*
X130951335Y-86485000D01*
X131228574Y-86429853D01*
X131489727Y-86321680D01*
X131724759Y-86164637D01*
X131750731Y-86138665D01*
X136995000Y-86138665D01*
X136995000Y-86421335D01*
X137050147Y-86698574D01*
X137158320Y-86959727D01*
X137315363Y-87194759D01*
X137515241Y-87394637D01*
X137750273Y-87551680D01*
X138011426Y-87659853D01*
X138288665Y-87715000D01*
X138571335Y-87715000D01*
X138848574Y-87659853D01*
X139109727Y-87551680D01*
X139344759Y-87394637D01*
X139544637Y-87194759D01*
X139701680Y-86959727D01*
X139809853Y-86698574D01*
X139865000Y-86421335D01*
X139865000Y-86138665D01*
X139809853Y-85861426D01*
X139701680Y-85600273D01*
X139544637Y-85365241D01*
X139344759Y-85165363D01*
X139109727Y-85008320D01*
X138848574Y-84900147D01*
X138571335Y-84845000D01*
X138288665Y-84845000D01*
X138011426Y-84900147D01*
X137750273Y-85008320D01*
X137515241Y-85165363D01*
X137315363Y-85365241D01*
X137158320Y-85600273D01*
X137050147Y-85861426D01*
X136995000Y-86138665D01*
X131750731Y-86138665D01*
X131924637Y-85964759D01*
X132081680Y-85729727D01*
X132189853Y-85468574D01*
X132245000Y-85191335D01*
X132245000Y-84908665D01*
X132189853Y-84631426D01*
X132081680Y-84370273D01*
X131924637Y-84135241D01*
X131758057Y-83968661D01*
X131854180Y-83939502D01*
X131964494Y-83880537D01*
X132061185Y-83801185D01*
X132140537Y-83704494D01*
X132199502Y-83594180D01*
X132235812Y-83474482D01*
X132248072Y-83350000D01*
X132245000Y-82835750D01*
X132086250Y-82677000D01*
X130937000Y-82677000D01*
X130937000Y-82697000D01*
X130683000Y-82697000D01*
X130683000Y-82677000D01*
X129533750Y-82677000D01*
X129375000Y-82835750D01*
X129371928Y-83350000D01*
X113198072Y-83350000D01*
X113195000Y-82835750D01*
X113036250Y-82677000D01*
X111887000Y-82677000D01*
X111887000Y-82697000D01*
X111633000Y-82697000D01*
X111633000Y-82677000D01*
X110483750Y-82677000D01*
X110325000Y-82835750D01*
X110321928Y-83350000D01*
X100457000Y-83350000D01*
X100457000Y-82272702D01*
X103326903Y-82272702D01*
X103398486Y-82516671D01*
X103653996Y-82637571D01*
X103928184Y-82706300D01*
X104210512Y-82720217D01*
X104490130Y-82678787D01*
X104756292Y-82583603D01*
X104881514Y-82516671D01*
X104953097Y-82272702D01*
X104140000Y-81459605D01*
X103326903Y-82272702D01*
X100457000Y-82272702D01*
X100457000Y-81350512D01*
X102699783Y-81350512D01*
X102741213Y-81630130D01*
X102836397Y-81896292D01*
X102903329Y-82021514D01*
X103147298Y-82093097D01*
X103960395Y-81280000D01*
X104319605Y-81280000D01*
X105132702Y-82093097D01*
X105376671Y-82021514D01*
X105497571Y-81766004D01*
X105501582Y-81750000D01*
X110321928Y-81750000D01*
X110325000Y-82264250D01*
X110483750Y-82423000D01*
X111633000Y-82423000D01*
X111633000Y-81273750D01*
X111887000Y-81273750D01*
X111887000Y-82423000D01*
X113036250Y-82423000D01*
X113195000Y-82264250D01*
X113198072Y-81750000D01*
X129371928Y-81750000D01*
X129375000Y-82264250D01*
X129533750Y-82423000D01*
X130683000Y-82423000D01*
X130683000Y-81273750D01*
X130937000Y-81273750D01*
X130937000Y-82423000D01*
X132086250Y-82423000D01*
X132236548Y-82272702D01*
X137616903Y-82272702D01*
X137688486Y-82516671D01*
X137943996Y-82637571D01*
X138218184Y-82706300D01*
X138500512Y-82720217D01*
X138780130Y-82678787D01*
X139046292Y-82583603D01*
X139171514Y-82516671D01*
X139243097Y-82272702D01*
X138430000Y-81459605D01*
X137616903Y-82272702D01*
X132236548Y-82272702D01*
X132245000Y-82264250D01*
X132248072Y-81750000D01*
X132235812Y-81625518D01*
X132199502Y-81505820D01*
X132140537Y-81395506D01*
X132103612Y-81350512D01*
X136989783Y-81350512D01*
X137031213Y-81630130D01*
X137126397Y-81896292D01*
X137193329Y-82021514D01*
X137437298Y-82093097D01*
X138250395Y-81280000D01*
X138609605Y-81280000D01*
X139422702Y-82093097D01*
X139666671Y-82021514D01*
X139787571Y-81766004D01*
X139856300Y-81491816D01*
X139870217Y-81209488D01*
X139828787Y-80929870D01*
X139733603Y-80663708D01*
X139666671Y-80538486D01*
X139422702Y-80466903D01*
X138609605Y-81280000D01*
X138250395Y-81280000D01*
X137437298Y-80466903D01*
X137193329Y-80538486D01*
X137072429Y-80793996D01*
X137003700Y-81068184D01*
X136989783Y-81350512D01*
X132103612Y-81350512D01*
X132061185Y-81298815D01*
X131964494Y-81219463D01*
X131854180Y-81160498D01*
X131734482Y-81124188D01*
X131610000Y-81111928D01*
X131095750Y-81115000D01*
X130937000Y-81273750D01*
X130683000Y-81273750D01*
X130524250Y-81115000D01*
X130010000Y-81111928D01*
X129885518Y-81124188D01*
X129765820Y-81160498D01*
X129655506Y-81219463D01*
X129558815Y-81298815D01*
X129479463Y-81395506D01*
X129420498Y-81505820D01*
X129384188Y-81625518D01*
X129371928Y-81750000D01*
X113198072Y-81750000D01*
X113185812Y-81625518D01*
X113149502Y-81505820D01*
X113090537Y-81395506D01*
X113011185Y-81298815D01*
X112914494Y-81219463D01*
X112804180Y-81160498D01*
X112684482Y-81124188D01*
X112560000Y-81111928D01*
X112045750Y-81115000D01*
X111887000Y-81273750D01*
X111633000Y-81273750D01*
X111474250Y-81115000D01*
X110960000Y-81111928D01*
X110835518Y-81124188D01*
X110715820Y-81160498D01*
X110605506Y-81219463D01*
X110508815Y-81298815D01*
X110429463Y-81395506D01*
X110370498Y-81505820D01*
X110334188Y-81625518D01*
X110321928Y-81750000D01*
X105501582Y-81750000D01*
X105566300Y-81491816D01*
X105580217Y-81209488D01*
X105538787Y-80929870D01*
X105443603Y-80663708D01*
X105376671Y-80538486D01*
X105132702Y-80466903D01*
X104319605Y-81280000D01*
X103960395Y-81280000D01*
X103147298Y-80466903D01*
X102903329Y-80538486D01*
X102782429Y-80793996D01*
X102713700Y-81068184D01*
X102699783Y-81350512D01*
X100457000Y-81350512D01*
X100457000Y-80287298D01*
X103326903Y-80287298D01*
X104140000Y-81100395D01*
X104953097Y-80287298D01*
X137616903Y-80287298D01*
X138430000Y-81100395D01*
X139243097Y-80287298D01*
X139171514Y-80043329D01*
X138916004Y-79922429D01*
X138641816Y-79853700D01*
X138359488Y-79839783D01*
X138079870Y-79881213D01*
X137813708Y-79976397D01*
X137688486Y-80043329D01*
X137616903Y-80287298D01*
X104953097Y-80287298D01*
X104881514Y-80043329D01*
X104626004Y-79922429D01*
X104351816Y-79853700D01*
X104069488Y-79839783D01*
X103789870Y-79881213D01*
X103523708Y-79976397D01*
X103398486Y-80043329D01*
X103326903Y-80287298D01*
X100457000Y-80287298D01*
X100457000Y-77938061D01*
X113330000Y-77938061D01*
X113330000Y-78141939D01*
X113369774Y-78341898D01*
X113447795Y-78530256D01*
X113561063Y-78699774D01*
X113705226Y-78843937D01*
X113874744Y-78957205D01*
X114063102Y-79035226D01*
X114263061Y-79075000D01*
X114466939Y-79075000D01*
X114666898Y-79035226D01*
X114855256Y-78957205D01*
X114988769Y-78867995D01*
X114995685Y-78868676D01*
X115033008Y-78865000D01*
X118707678Y-78865000D01*
X118745000Y-78868676D01*
X118782322Y-78865000D01*
X118782333Y-78865000D01*
X118893986Y-78854003D01*
X119037247Y-78810546D01*
X119169276Y-78739974D01*
X119285001Y-78645001D01*
X119308804Y-78615997D01*
X121959802Y-75965000D01*
X122021939Y-75965000D01*
X122221898Y-75925226D01*
X122410256Y-75847205D01*
X122579774Y-75733937D01*
X122723937Y-75589774D01*
X122837205Y-75420256D01*
X122915226Y-75231898D01*
X122955000Y-75031939D01*
X122955000Y-74969801D01*
X125344802Y-72580000D01*
X128771289Y-72580000D01*
X128815226Y-72623937D01*
X128984744Y-72737205D01*
X129173102Y-72815226D01*
X129373061Y-72855000D01*
X129576939Y-72855000D01*
X129776898Y-72815226D01*
X129965256Y-72737205D01*
X130134774Y-72623937D01*
X130278937Y-72479774D01*
X130392205Y-72310256D01*
X130470226Y-72121898D01*
X130510000Y-71921939D01*
X130510000Y-71718061D01*
X130470226Y-71518102D01*
X130397123Y-71341616D01*
X135671815Y-71341616D01*
X136863823Y-72533625D01*
X136857832Y-72548088D01*
X136795000Y-72863967D01*
X136795000Y-73186033D01*
X136857832Y-73501912D01*
X136981082Y-73799463D01*
X137160013Y-74067252D01*
X137387748Y-74294987D01*
X137387767Y-74295000D01*
X137387748Y-74295013D01*
X137160013Y-74522748D01*
X136981082Y-74790537D01*
X136857832Y-75088088D01*
X136795000Y-75403967D01*
X136795000Y-75726033D01*
X136857832Y-76041912D01*
X136981082Y-76339463D01*
X137160013Y-76607252D01*
X137387748Y-76834987D01*
X137655537Y-77013918D01*
X137953088Y-77137168D01*
X138268967Y-77200000D01*
X138591033Y-77200000D01*
X138906912Y-77137168D01*
X139204463Y-77013918D01*
X139472252Y-76834987D01*
X139699987Y-76607252D01*
X139878918Y-76339463D01*
X140002168Y-76041912D01*
X140065000Y-75726033D01*
X140065000Y-75403967D01*
X140002168Y-75088088D01*
X139878918Y-74790537D01*
X139699987Y-74522748D01*
X139472252Y-74295013D01*
X139472233Y-74295000D01*
X139472252Y-74294987D01*
X139699987Y-74067252D01*
X139878918Y-73799463D01*
X140002168Y-73501912D01*
X140065000Y-73186033D01*
X140065000Y-72863967D01*
X140002168Y-72548088D01*
X139878918Y-72250537D01*
X139699987Y-71982748D01*
X139472252Y-71755013D01*
X139204463Y-71576082D01*
X138906912Y-71452832D01*
X138591033Y-71390000D01*
X138268967Y-71390000D01*
X137953088Y-71452832D01*
X137938625Y-71458823D01*
X136550420Y-70070619D01*
X136526617Y-70041615D01*
X136410892Y-69946642D01*
X136278863Y-69876070D01*
X136135602Y-69832613D01*
X136023949Y-69821616D01*
X136023938Y-69821616D01*
X135986616Y-69817940D01*
X135949294Y-69821616D01*
X124432095Y-69821616D01*
X124388158Y-69777679D01*
X124218640Y-69664411D01*
X124030282Y-69586390D01*
X123830323Y-69546616D01*
X123626445Y-69546616D01*
X123426486Y-69586390D01*
X123238128Y-69664411D01*
X123068610Y-69777679D01*
X122924447Y-69921842D01*
X122811179Y-70091360D01*
X122733158Y-70279718D01*
X122693384Y-70479677D01*
X122693384Y-70683555D01*
X122733158Y-70883514D01*
X122811179Y-71071872D01*
X122924447Y-71241390D01*
X123068610Y-71385553D01*
X123238128Y-71498821D01*
X123426486Y-71576842D01*
X123626445Y-71616616D01*
X123830323Y-71616616D01*
X124030282Y-71576842D01*
X124218640Y-71498821D01*
X124388158Y-71385553D01*
X124432095Y-71341616D01*
X124433582Y-71341616D01*
X121880199Y-73895000D01*
X121818061Y-73895000D01*
X121618102Y-73934774D01*
X121429744Y-74012795D01*
X121260226Y-74126063D01*
X121116063Y-74270226D01*
X121002795Y-74439744D01*
X120924774Y-74628102D01*
X120885000Y-74828061D01*
X120885000Y-74890198D01*
X118430199Y-77345000D01*
X115242662Y-77345000D01*
X115222932Y-77334454D01*
X115079724Y-77291013D01*
X115024774Y-77236063D01*
X114855256Y-77122795D01*
X114666898Y-77044774D01*
X114466939Y-77005000D01*
X114263061Y-77005000D01*
X114063102Y-77044774D01*
X113874744Y-77122795D01*
X113705226Y-77236063D01*
X113561063Y-77380226D01*
X113447795Y-77549744D01*
X113369774Y-77738102D01*
X113330000Y-77938061D01*
X100457000Y-77938061D01*
X100457000Y-72863967D01*
X102505000Y-72863967D01*
X102505000Y-73186033D01*
X102567832Y-73501912D01*
X102691082Y-73799463D01*
X102870013Y-74067252D01*
X103097748Y-74294987D01*
X103097767Y-74295000D01*
X103097748Y-74295013D01*
X102870013Y-74522748D01*
X102691082Y-74790537D01*
X102567832Y-75088088D01*
X102505000Y-75403967D01*
X102505000Y-75726033D01*
X102567832Y-76041912D01*
X102691082Y-76339463D01*
X102870013Y-76607252D01*
X103097748Y-76834987D01*
X103365537Y-77013918D01*
X103663088Y-77137168D01*
X103978967Y-77200000D01*
X104301033Y-77200000D01*
X104616912Y-77137168D01*
X104914463Y-77013918D01*
X105182252Y-76834987D01*
X105409987Y-76607252D01*
X105588918Y-76339463D01*
X105712168Y-76041912D01*
X105775000Y-75726033D01*
X105775000Y-75403967D01*
X105712168Y-75088088D01*
X105588918Y-74790537D01*
X105409987Y-74522748D01*
X105182252Y-74295013D01*
X105182233Y-74295000D01*
X105182252Y-74294987D01*
X105409987Y-74067252D01*
X105588918Y-73799463D01*
X105712168Y-73501912D01*
X105775000Y-73186033D01*
X105775000Y-72863967D01*
X105712168Y-72548088D01*
X105706177Y-72533624D01*
X107059802Y-71180000D01*
X113661289Y-71180000D01*
X113705226Y-71223937D01*
X113874744Y-71337205D01*
X114063102Y-71415226D01*
X114263061Y-71455000D01*
X114466939Y-71455000D01*
X114666898Y-71415226D01*
X114855256Y-71337205D01*
X115024774Y-71223937D01*
X115168937Y-71079774D01*
X115282205Y-70910256D01*
X115360226Y-70721898D01*
X115400000Y-70521939D01*
X115400000Y-70318061D01*
X115360226Y-70118102D01*
X115282205Y-69929744D01*
X115168937Y-69760226D01*
X115024774Y-69616063D01*
X114855256Y-69502795D01*
X114666898Y-69424774D01*
X114466939Y-69385000D01*
X114263061Y-69385000D01*
X114063102Y-69424774D01*
X113874744Y-69502795D01*
X113705226Y-69616063D01*
X113661289Y-69660000D01*
X106782322Y-69660000D01*
X106744999Y-69656324D01*
X106707676Y-69660000D01*
X106707667Y-69660000D01*
X106596014Y-69670997D01*
X106452753Y-69714454D01*
X106320724Y-69785026D01*
X106204999Y-69879999D01*
X106181201Y-69908997D01*
X104631376Y-71458823D01*
X104616912Y-71452832D01*
X104301033Y-71390000D01*
X103978967Y-71390000D01*
X103663088Y-71452832D01*
X103365537Y-71576082D01*
X103097748Y-71755013D01*
X102870013Y-71982748D01*
X102691082Y-72250537D01*
X102567832Y-72548088D01*
X102505000Y-72863967D01*
X100457000Y-72863967D01*
X100457000Y-64360475D01*
X106325000Y-64360475D01*
X106325000Y-64879525D01*
X106426261Y-65388601D01*
X106624893Y-65868141D01*
X106913262Y-66299715D01*
X107280285Y-66666738D01*
X107711859Y-66955107D01*
X108191399Y-67153739D01*
X108700475Y-67255000D01*
X109219525Y-67255000D01*
X109728601Y-67153739D01*
X110208141Y-66955107D01*
X110639715Y-66666738D01*
X111006738Y-66299715D01*
X111274711Y-65898665D01*
X114485000Y-65898665D01*
X114485000Y-66181335D01*
X114540147Y-66458574D01*
X114648320Y-66719727D01*
X114805363Y-66954759D01*
X115005241Y-67154637D01*
X115240273Y-67311680D01*
X115501426Y-67419853D01*
X115778665Y-67475000D01*
X116061335Y-67475000D01*
X116338574Y-67419853D01*
X116599727Y-67311680D01*
X116834759Y-67154637D01*
X117034637Y-66954759D01*
X117191680Y-66719727D01*
X117299853Y-66458574D01*
X117305000Y-66432699D01*
X117310147Y-66458574D01*
X117418320Y-66719727D01*
X117575363Y-66954759D01*
X117775241Y-67154637D01*
X118010273Y-67311680D01*
X118271426Y-67419853D01*
X118548665Y-67475000D01*
X118831335Y-67475000D01*
X119108574Y-67419853D01*
X119369727Y-67311680D01*
X119604759Y-67154637D01*
X119804637Y-66954759D01*
X119961680Y-66719727D01*
X120069853Y-66458574D01*
X120075000Y-66432699D01*
X120080147Y-66458574D01*
X120188320Y-66719727D01*
X120345363Y-66954759D01*
X120545241Y-67154637D01*
X120780273Y-67311680D01*
X121041426Y-67419853D01*
X121318665Y-67475000D01*
X121601335Y-67475000D01*
X121878574Y-67419853D01*
X122139727Y-67311680D01*
X122374759Y-67154637D01*
X122496694Y-67032702D01*
X123416903Y-67032702D01*
X123488486Y-67276671D01*
X123743996Y-67397571D01*
X124018184Y-67466300D01*
X124300512Y-67480217D01*
X124580130Y-67438787D01*
X124846292Y-67343603D01*
X124971514Y-67276671D01*
X125043097Y-67032702D01*
X124230000Y-66219605D01*
X123416903Y-67032702D01*
X122496694Y-67032702D01*
X122574637Y-66954759D01*
X122731680Y-66719727D01*
X122839853Y-66458574D01*
X122845513Y-66430118D01*
X122926397Y-66656292D01*
X122993329Y-66781514D01*
X123237298Y-66853097D01*
X124050395Y-66040000D01*
X124409605Y-66040000D01*
X125222702Y-66853097D01*
X125466671Y-66781514D01*
X125561928Y-66580198D01*
X125561928Y-66840000D01*
X125574188Y-66964482D01*
X125610498Y-67084180D01*
X125669463Y-67194494D01*
X125748815Y-67291185D01*
X125845506Y-67370537D01*
X125955820Y-67429502D01*
X126075518Y-67465812D01*
X126200000Y-67478072D01*
X127800000Y-67478072D01*
X127924482Y-67465812D01*
X128044180Y-67429502D01*
X128154494Y-67370537D01*
X128251185Y-67291185D01*
X128330537Y-67194494D01*
X128389502Y-67084180D01*
X128425812Y-66964482D01*
X128438072Y-66840000D01*
X128438072Y-65240000D01*
X128425812Y-65115518D01*
X128389502Y-64995820D01*
X128330537Y-64885506D01*
X128251185Y-64788815D01*
X128154494Y-64709463D01*
X128044180Y-64650498D01*
X127924482Y-64614188D01*
X127800000Y-64601928D01*
X126200000Y-64601928D01*
X126075518Y-64614188D01*
X125955820Y-64650498D01*
X125845506Y-64709463D01*
X125748815Y-64788815D01*
X125669463Y-64885506D01*
X125610498Y-64995820D01*
X125574188Y-65115518D01*
X125561928Y-65240000D01*
X125561928Y-65502913D01*
X125533603Y-65423708D01*
X125466671Y-65298486D01*
X125222702Y-65226903D01*
X124409605Y-66040000D01*
X124050395Y-66040000D01*
X123237298Y-65226903D01*
X122993329Y-65298486D01*
X122872429Y-65553996D01*
X122846788Y-65656289D01*
X122839853Y-65621426D01*
X122731680Y-65360273D01*
X122574637Y-65125241D01*
X122496694Y-65047298D01*
X123416903Y-65047298D01*
X124230000Y-65860395D01*
X125043097Y-65047298D01*
X124971514Y-64803329D01*
X124716004Y-64682429D01*
X124441816Y-64613700D01*
X124159488Y-64599783D01*
X123879870Y-64641213D01*
X123613708Y-64736397D01*
X123488486Y-64803329D01*
X123416903Y-65047298D01*
X122496694Y-65047298D01*
X122374759Y-64925363D01*
X122139727Y-64768320D01*
X121878574Y-64660147D01*
X121601335Y-64605000D01*
X121318665Y-64605000D01*
X121041426Y-64660147D01*
X120780273Y-64768320D01*
X120545241Y-64925363D01*
X120345363Y-65125241D01*
X120188320Y-65360273D01*
X120080147Y-65621426D01*
X120075000Y-65647301D01*
X120069853Y-65621426D01*
X119961680Y-65360273D01*
X119804637Y-65125241D01*
X119604759Y-64925363D01*
X119369727Y-64768320D01*
X119108574Y-64660147D01*
X118831335Y-64605000D01*
X118548665Y-64605000D01*
X118271426Y-64660147D01*
X118010273Y-64768320D01*
X117775241Y-64925363D01*
X117575363Y-65125241D01*
X117418320Y-65360273D01*
X117310147Y-65621426D01*
X117305000Y-65647301D01*
X117299853Y-65621426D01*
X117191680Y-65360273D01*
X117034637Y-65125241D01*
X116834759Y-64925363D01*
X116599727Y-64768320D01*
X116338574Y-64660147D01*
X116061335Y-64605000D01*
X115778665Y-64605000D01*
X115501426Y-64660147D01*
X115240273Y-64768320D01*
X115005241Y-64925363D01*
X114805363Y-65125241D01*
X114648320Y-65360273D01*
X114540147Y-65621426D01*
X114485000Y-65898665D01*
X111274711Y-65898665D01*
X111295107Y-65868141D01*
X111493739Y-65388601D01*
X111595000Y-64879525D01*
X111595000Y-64360475D01*
X111493739Y-63851399D01*
X111295107Y-63371859D01*
X111085838Y-63058665D01*
X115870000Y-63058665D01*
X115870000Y-63341335D01*
X115925147Y-63618574D01*
X116033320Y-63879727D01*
X116190363Y-64114759D01*
X116390241Y-64314637D01*
X116625273Y-64471680D01*
X116886426Y-64579853D01*
X117163665Y-64635000D01*
X117446335Y-64635000D01*
X117723574Y-64579853D01*
X117984727Y-64471680D01*
X118219759Y-64314637D01*
X118419637Y-64114759D01*
X118576680Y-63879727D01*
X118684853Y-63618574D01*
X118690000Y-63592699D01*
X118695147Y-63618574D01*
X118803320Y-63879727D01*
X118960363Y-64114759D01*
X119160241Y-64314637D01*
X119395273Y-64471680D01*
X119656426Y-64579853D01*
X119933665Y-64635000D01*
X120216335Y-64635000D01*
X120493574Y-64579853D01*
X120754727Y-64471680D01*
X120989759Y-64314637D01*
X121111694Y-64192702D01*
X122031903Y-64192702D01*
X122103486Y-64436671D01*
X122358996Y-64557571D01*
X122633184Y-64626300D01*
X122915512Y-64640217D01*
X123195130Y-64598787D01*
X123461292Y-64503603D01*
X123586514Y-64436671D01*
X123658097Y-64192702D01*
X122845000Y-63379605D01*
X122031903Y-64192702D01*
X121111694Y-64192702D01*
X121189637Y-64114759D01*
X121346680Y-63879727D01*
X121454853Y-63618574D01*
X121460513Y-63590118D01*
X121541397Y-63816292D01*
X121608329Y-63941514D01*
X121852298Y-64013097D01*
X122665395Y-63200000D01*
X123024605Y-63200000D01*
X123837702Y-64013097D01*
X124081671Y-63941514D01*
X124202571Y-63686004D01*
X124228212Y-63583711D01*
X124235147Y-63618574D01*
X124343320Y-63879727D01*
X124500363Y-64114759D01*
X124700241Y-64314637D01*
X124935273Y-64471680D01*
X125196426Y-64579853D01*
X125473665Y-64635000D01*
X125756335Y-64635000D01*
X126033574Y-64579853D01*
X126294727Y-64471680D01*
X126461157Y-64360475D01*
X131325000Y-64360475D01*
X131325000Y-64879525D01*
X131426261Y-65388601D01*
X131624893Y-65868141D01*
X131913262Y-66299715D01*
X132280285Y-66666738D01*
X132711859Y-66955107D01*
X133191399Y-67153739D01*
X133700475Y-67255000D01*
X134219525Y-67255000D01*
X134728601Y-67153739D01*
X135208141Y-66955107D01*
X135639715Y-66666738D01*
X136006738Y-66299715D01*
X136295107Y-65868141D01*
X136493739Y-65388601D01*
X136595000Y-64879525D01*
X136595000Y-64360475D01*
X136493739Y-63851399D01*
X136295107Y-63371859D01*
X136006738Y-62940285D01*
X135639715Y-62573262D01*
X135208141Y-62284893D01*
X134728601Y-62086261D01*
X134219525Y-61985000D01*
X133700475Y-61985000D01*
X133191399Y-62086261D01*
X132711859Y-62284893D01*
X132280285Y-62573262D01*
X131913262Y-62940285D01*
X131624893Y-63371859D01*
X131426261Y-63851399D01*
X131325000Y-64360475D01*
X126461157Y-64360475D01*
X126529759Y-64314637D01*
X126729637Y-64114759D01*
X126886680Y-63879727D01*
X126994853Y-63618574D01*
X127050000Y-63341335D01*
X127050000Y-63058665D01*
X126994853Y-62781426D01*
X126886680Y-62520273D01*
X126729637Y-62285241D01*
X126529759Y-62085363D01*
X126294727Y-61928320D01*
X126033574Y-61820147D01*
X125756335Y-61765000D01*
X125473665Y-61765000D01*
X125196426Y-61820147D01*
X124935273Y-61928320D01*
X124700241Y-62085363D01*
X124500363Y-62285241D01*
X124343320Y-62520273D01*
X124235147Y-62781426D01*
X124229487Y-62809882D01*
X124148603Y-62583708D01*
X124081671Y-62458486D01*
X123837702Y-62386903D01*
X123024605Y-63200000D01*
X122665395Y-63200000D01*
X121852298Y-62386903D01*
X121608329Y-62458486D01*
X121487429Y-62713996D01*
X121461788Y-62816289D01*
X121454853Y-62781426D01*
X121346680Y-62520273D01*
X121189637Y-62285241D01*
X121111694Y-62207298D01*
X122031903Y-62207298D01*
X122845000Y-63020395D01*
X123658097Y-62207298D01*
X123586514Y-61963329D01*
X123331004Y-61842429D01*
X123056816Y-61773700D01*
X122774488Y-61759783D01*
X122494870Y-61801213D01*
X122228708Y-61896397D01*
X122103486Y-61963329D01*
X122031903Y-62207298D01*
X121111694Y-62207298D01*
X120989759Y-62085363D01*
X120754727Y-61928320D01*
X120493574Y-61820147D01*
X120216335Y-61765000D01*
X119933665Y-61765000D01*
X119656426Y-61820147D01*
X119395273Y-61928320D01*
X119160241Y-62085363D01*
X118960363Y-62285241D01*
X118803320Y-62520273D01*
X118695147Y-62781426D01*
X118690000Y-62807301D01*
X118684853Y-62781426D01*
X118576680Y-62520273D01*
X118419637Y-62285241D01*
X118219759Y-62085363D01*
X117984727Y-61928320D01*
X117723574Y-61820147D01*
X117446335Y-61765000D01*
X117163665Y-61765000D01*
X116886426Y-61820147D01*
X116625273Y-61928320D01*
X116390241Y-62085363D01*
X116190363Y-62285241D01*
X116033320Y-62520273D01*
X115925147Y-62781426D01*
X115870000Y-63058665D01*
X111085838Y-63058665D01*
X111006738Y-62940285D01*
X110639715Y-62573262D01*
X110208141Y-62284893D01*
X109728601Y-62086261D01*
X109219525Y-61985000D01*
X108700475Y-61985000D01*
X108191399Y-62086261D01*
X107711859Y-62284893D01*
X107280285Y-62573262D01*
X106913262Y-62940285D01*
X106624893Y-63371859D01*
X106426261Y-63851399D01*
X106325000Y-64360475D01*
X100457000Y-64360475D01*
X100457000Y-61087000D01*
X142113000Y-61087000D01*
X142113000Y-128143000D01*
G37*
X142113000Y-128143000D02*
X100457000Y-128143000D01*
X100457000Y-124101984D01*
X100505000Y-124101984D01*
X100505000Y-124818016D01*
X100644691Y-125520290D01*
X100918705Y-126181818D01*
X101316511Y-126777177D01*
X101822823Y-127283489D01*
X102418182Y-127681295D01*
X103079710Y-127955309D01*
X103781984Y-128095000D01*
X104498016Y-128095000D01*
X105200290Y-127955309D01*
X105861818Y-127681295D01*
X106457177Y-127283489D01*
X106963489Y-126777177D01*
X107361295Y-126181818D01*
X107635309Y-125520290D01*
X107775000Y-124818016D01*
X107775000Y-124101984D01*
X134795000Y-124101984D01*
X134795000Y-124818016D01*
X134934691Y-125520290D01*
X135208705Y-126181818D01*
X135606511Y-126777177D01*
X136112823Y-127283489D01*
X136708182Y-127681295D01*
X137369710Y-127955309D01*
X138071984Y-128095000D01*
X138788016Y-128095000D01*
X139490290Y-127955309D01*
X140151818Y-127681295D01*
X140747177Y-127283489D01*
X141253489Y-126777177D01*
X141651295Y-126181818D01*
X141925309Y-125520290D01*
X142065000Y-124818016D01*
X142065000Y-124101984D01*
X141925309Y-123399710D01*
X141651295Y-122738182D01*
X141253489Y-122142823D01*
X140747177Y-121636511D01*
X140151818Y-121238705D01*
X139490290Y-120964691D01*
X138788016Y-120825000D01*
X138071984Y-120825000D01*
X137369710Y-120964691D01*
X136708182Y-121238705D01*
X136112823Y-121636511D01*
X135606511Y-122142823D01*
X135208705Y-122738182D01*
X134934691Y-123399710D01*
X134795000Y-124101984D01*
X107775000Y-124101984D01*
X107635309Y-123399710D01*
X107361295Y-122738182D01*
X106963489Y-122142823D01*
X106457177Y-121636511D01*
X105861818Y-121238705D01*
X105200290Y-120964691D01*
X104498016Y-120825000D01*
X103781984Y-120825000D01*
X103079710Y-120964691D01*
X102418182Y-121238705D01*
X101822823Y-121636511D01*
X101316511Y-122142823D01*
X100918705Y-122738182D01*
X100644691Y-123399710D01*
X100505000Y-124101984D01*
X100457000Y-124101984D01*
X100457000Y-117210475D01*
X128825000Y-117210475D01*
X128825000Y-117729525D01*
X128926261Y-118238601D01*
X129124893Y-118718141D01*
X129413262Y-119149715D01*
X129780285Y-119516738D01*
X130211859Y-119805107D01*
X130691399Y-120003739D01*
X131200475Y-120105000D01*
X131719525Y-120105000D01*
X132228601Y-120003739D01*
X132708141Y-119805107D01*
X133139715Y-119516738D01*
X133506738Y-119149715D01*
X133795107Y-118718141D01*
X133993739Y-118238601D01*
X134095000Y-117729525D01*
X134095000Y-117210475D01*
X133993739Y-116701399D01*
X133795107Y-116221859D01*
X133506738Y-115790285D01*
X133139715Y-115423262D01*
X132708141Y-115134893D01*
X132228601Y-114936261D01*
X131719525Y-114835000D01*
X131200475Y-114835000D01*
X130691399Y-114936261D01*
X130211859Y-115134893D01*
X129780285Y-115423262D01*
X129413262Y-115790285D01*
X129124893Y-116221859D01*
X128926261Y-116701399D01*
X128825000Y-117210475D01*
X100457000Y-117210475D01*
X100457000Y-112888665D01*
X102705000Y-112888665D01*
X102705000Y-113171335D01*
X102760147Y-113448574D01*
X102868320Y-113709727D01*
X103025363Y-113944759D01*
X103225241Y-114144637D01*
X103460273Y-114301680D01*
X103721426Y-114409853D01*
X103998665Y-114465000D01*
X104281335Y-114465000D01*
X104558574Y-114409853D01*
X104819727Y-114301680D01*
X105054759Y-114144637D01*
X105254637Y-113944759D01*
X105411680Y-113709727D01*
X105519853Y-113448574D01*
X105575000Y-113171335D01*
X105575000Y-112888665D01*
X112865000Y-112888665D01*
X112865000Y-113171335D01*
X112920147Y-113448574D01*
X113028320Y-113709727D01*
X113185363Y-113944759D01*
X113385241Y-114144637D01*
X113620273Y-114301680D01*
X113881426Y-114409853D01*
X114158665Y-114465000D01*
X114441335Y-114465000D01*
X114718574Y-114409853D01*
X114979727Y-114301680D01*
X115214759Y-114144637D01*
X115414637Y-113944759D01*
X115571680Y-113709727D01*
X115679853Y-113448574D01*
X115735000Y-113171335D01*
X115735000Y-112888665D01*
X115719087Y-112808665D01*
X116675000Y-112808665D01*
X116675000Y-113091335D01*
X116730147Y-113368574D01*
X116838320Y-113629727D01*
X116995363Y-113864759D01*
X117195241Y-114064637D01*
X117430273Y-114221680D01*
X117691426Y-114329853D01*
X117968665Y-114385000D01*
X118251335Y-114385000D01*
X118528574Y-114329853D01*
X118789727Y-114221680D01*
X119024759Y-114064637D01*
X119224637Y-113864759D01*
X119381680Y-113629727D01*
X119489853Y-113368574D01*
X119545000Y-113091335D01*
X119545000Y-112808665D01*
X119489853Y-112531426D01*
X119381680Y-112270273D01*
X119224637Y-112035241D01*
X119024759Y-111835363D01*
X118789727Y-111678320D01*
X118528574Y-111570147D01*
X118251335Y-111515000D01*
X117968665Y-111515000D01*
X117691426Y-111570147D01*
X117430273Y-111678320D01*
X117195241Y-111835363D01*
X116995363Y-112035241D01*
X116838320Y-112270273D01*
X116730147Y-112531426D01*
X116675000Y-112808665D01*
X115719087Y-112808665D01*
X115679853Y-112611426D01*
X115571680Y-112350273D01*
X115414637Y-112115241D01*
X115214759Y-111915363D01*
X114979727Y-111758320D01*
X114718574Y-111650147D01*
X114441335Y-111595000D01*
X114158665Y-111595000D01*
X113881426Y-111650147D01*
X113620273Y-111758320D01*
X113385241Y-111915363D01*
X113185363Y-112115241D01*
X113028320Y-112350273D01*
X112920147Y-112611426D01*
X112865000Y-112888665D01*
X105575000Y-112888665D01*
X105519853Y-112611426D01*
X105411680Y-112350273D01*
X105254637Y-112115241D01*
X105054759Y-111915363D01*
X104819727Y-111758320D01*
X104558574Y-111650147D01*
X104281335Y-111595000D01*
X103998665Y-111595000D01*
X103721426Y-111650147D01*
X103460273Y-111758320D01*
X103225241Y-111915363D01*
X103025363Y-112115241D01*
X102868320Y-112350273D01*
X102760147Y-112611426D01*
X102705000Y-112888665D01*
X100457000Y-112888665D01*
X100457000Y-110418816D01*
X122925000Y-110418816D01*
X122925000Y-110721184D01*
X122983989Y-111017743D01*
X123099701Y-111297095D01*
X123267688Y-111548505D01*
X123481495Y-111762312D01*
X123567831Y-111820000D01*
X123481495Y-111877688D01*
X123267688Y-112091495D01*
X123099701Y-112342905D01*
X122983989Y-112622257D01*
X122925000Y-112918816D01*
X122925000Y-113221184D01*
X122983989Y-113517743D01*
X123099701Y-113797095D01*
X123267688Y-114048505D01*
X123481495Y-114262312D01*
X123567831Y-114320000D01*
X123481495Y-114377688D01*
X123267688Y-114591495D01*
X123099701Y-114842905D01*
X122983989Y-115122257D01*
X122925000Y-115418816D01*
X122925000Y-115721184D01*
X122983989Y-116017743D01*
X123099701Y-116297095D01*
X123267688Y-116548505D01*
X123481495Y-116762312D01*
X123732905Y-116930299D01*
X124012257Y-117046011D01*
X124308816Y-117105000D01*
X124611184Y-117105000D01*
X124907743Y-117046011D01*
X125187095Y-116930299D01*
X125438505Y-116762312D01*
X125652312Y-116548505D01*
X125820299Y-116297095D01*
X125936011Y-116017743D01*
X125995000Y-115721184D01*
X125995000Y-115418816D01*
X125936011Y-115122257D01*
X125820299Y-114842905D01*
X125652312Y-114591495D01*
X125438505Y-114377688D01*
X125352169Y-114320000D01*
X125438505Y-114262312D01*
X125652312Y-114048505D01*
X125820299Y-113797095D01*
X125936011Y-113517743D01*
X125995000Y-113221184D01*
X125995000Y-112918816D01*
X125936011Y-112622257D01*
X125820299Y-112342905D01*
X125652312Y-112091495D01*
X125438505Y-111877688D01*
X125352169Y-111820000D01*
X125438505Y-111762312D01*
X125652312Y-111548505D01*
X125820299Y-111297095D01*
X125936011Y-111017743D01*
X125995000Y-110721184D01*
X125995000Y-110418816D01*
X125936011Y-110122257D01*
X125820299Y-109842905D01*
X125652312Y-109591495D01*
X125438505Y-109377688D01*
X125187095Y-109209701D01*
X124907743Y-109093989D01*
X124611184Y-109035000D01*
X124308816Y-109035000D01*
X124012257Y-109093989D01*
X123732905Y-109209701D01*
X123481495Y-109377688D01*
X123267688Y-109591495D01*
X123099701Y-109842905D01*
X122983989Y-110122257D01*
X122925000Y-110418816D01*
X100457000Y-110418816D01*
X100457000Y-107808665D01*
X102705000Y-107808665D01*
X102705000Y-108091335D01*
X102760147Y-108368574D01*
X102868320Y-108629727D01*
X103025363Y-108864759D01*
X103225241Y-109064637D01*
X103460273Y-109221680D01*
X103721426Y-109329853D01*
X103998665Y-109385000D01*
X104281335Y-109385000D01*
X104558574Y-109329853D01*
X104819727Y-109221680D01*
X105054759Y-109064637D01*
X105254637Y-108864759D01*
X105411680Y-108629727D01*
X105519853Y-108368574D01*
X105575000Y-108091335D01*
X105575000Y-107808665D01*
X112865000Y-107808665D01*
X112865000Y-108091335D01*
X112920147Y-108368574D01*
X113028320Y-108629727D01*
X113185363Y-108864759D01*
X113385241Y-109064637D01*
X113620273Y-109221680D01*
X113881426Y-109329853D01*
X114158665Y-109385000D01*
X114441335Y-109385000D01*
X114718574Y-109329853D01*
X114979727Y-109221680D01*
X115214759Y-109064637D01*
X115414637Y-108864759D01*
X115571680Y-108629727D01*
X115679853Y-108368574D01*
X115735000Y-108091335D01*
X115735000Y-107808665D01*
X115679853Y-107531426D01*
X115571680Y-107270273D01*
X115414637Y-107035241D01*
X115214759Y-106835363D01*
X114979727Y-106678320D01*
X114718574Y-106570147D01*
X114441335Y-106515000D01*
X114158665Y-106515000D01*
X113881426Y-106570147D01*
X113620273Y-106678320D01*
X113385241Y-106835363D01*
X113185363Y-107035241D01*
X113028320Y-107270273D01*
X112920147Y-107531426D01*
X112865000Y-107808665D01*
X105575000Y-107808665D01*
X105538688Y-107626113D01*
X111031003Y-102133799D01*
X111060001Y-102110001D01*
X111154974Y-101994276D01*
X111225546Y-101862247D01*
X111269003Y-101718986D01*
X111280000Y-101607333D01*
X111283677Y-101570000D01*
X111280000Y-101532667D01*
X111280000Y-101528061D01*
X113235000Y-101528061D01*
X113235000Y-101731939D01*
X113274774Y-101931898D01*
X113352795Y-102120256D01*
X113466063Y-102289774D01*
X113610226Y-102433937D01*
X113779744Y-102547205D01*
X113968102Y-102625226D01*
X114168061Y-102665000D01*
X114230199Y-102665000D01*
X117350001Y-105784803D01*
X117350000Y-106731956D01*
X117195241Y-106835363D01*
X116995363Y-107035241D01*
X116838320Y-107270273D01*
X116730147Y-107531426D01*
X116675000Y-107808665D01*
X116675000Y-108091335D01*
X116730147Y-108368574D01*
X116838320Y-108629727D01*
X116995363Y-108864759D01*
X117195241Y-109064637D01*
X117430273Y-109221680D01*
X117691426Y-109329853D01*
X117968665Y-109385000D01*
X118251335Y-109385000D01*
X118528574Y-109329853D01*
X118789727Y-109221680D01*
X119024759Y-109064637D01*
X119224637Y-108864759D01*
X119381680Y-108629727D01*
X119472497Y-108410475D01*
X128825000Y-108410475D01*
X128825000Y-108929525D01*
X128926261Y-109438601D01*
X129124893Y-109918141D01*
X129413262Y-110349715D01*
X129780285Y-110716738D01*
X130211859Y-111005107D01*
X130691399Y-111203739D01*
X131200475Y-111305000D01*
X131719525Y-111305000D01*
X132228601Y-111203739D01*
X132708141Y-111005107D01*
X133139715Y-110716738D01*
X133506738Y-110349715D01*
X133795107Y-109918141D01*
X133993739Y-109438601D01*
X134095000Y-108929525D01*
X134095000Y-108410475D01*
X133993739Y-107901399D01*
X133795107Y-107421859D01*
X133506738Y-106990285D01*
X133139715Y-106623262D01*
X132708141Y-106334893D01*
X132228601Y-106136261D01*
X131719525Y-106035000D01*
X131200475Y-106035000D01*
X130691399Y-106136261D01*
X130211859Y-106334893D01*
X129780285Y-106623262D01*
X129413262Y-106990285D01*
X129124893Y-107421859D01*
X128926261Y-107901399D01*
X128825000Y-108410475D01*
X119472497Y-108410475D01*
X119489853Y-108368574D01*
X119545000Y-108091335D01*
X119545000Y-107808665D01*
X119489853Y-107531426D01*
X119381680Y-107270273D01*
X119224637Y-107035241D01*
X119024759Y-106835363D01*
X118870000Y-106731957D01*
X118870000Y-105507322D01*
X118873676Y-105469999D01*
X118870000Y-105432676D01*
X118870000Y-105432667D01*
X118859003Y-105321014D01*
X118815546Y-105177753D01*
X118744974Y-105045723D01*
X118673799Y-104958997D01*
X118650001Y-104929999D01*
X118621003Y-104906201D01*
X115344801Y-101630000D01*
X116879802Y-100095000D01*
X116941939Y-100095000D01*
X117141898Y-100055226D01*
X117330256Y-99977205D01*
X117499774Y-99863937D01*
X117643937Y-99719774D01*
X117757205Y-99550256D01*
X117835226Y-99361898D01*
X117875000Y-99161939D01*
X117875000Y-98958061D01*
X117835226Y-98758102D01*
X117757205Y-98569744D01*
X117643937Y-98400226D01*
X117499774Y-98256063D01*
X117330256Y-98142795D01*
X117141898Y-98064774D01*
X116941939Y-98025000D01*
X116738061Y-98025000D01*
X116538102Y-98064774D01*
X116349744Y-98142795D01*
X116180226Y-98256063D01*
X116036063Y-98400226D01*
X115922795Y-98569744D01*
X115844774Y-98758102D01*
X115805000Y-98958061D01*
X115805000Y-99020198D01*
X114230199Y-100595000D01*
X114168061Y-100595000D01*
X113968102Y-100634774D01*
X113779744Y-100712795D01*
X113610226Y-100826063D01*
X113466063Y-100970226D01*
X113352795Y-101139744D01*
X113274774Y-101328102D01*
X113235000Y-101528061D01*
X111280000Y-101528061D01*
X111280000Y-99733711D01*
X111323937Y-99689774D01*
X111437205Y-99520256D01*
X111515226Y-99331898D01*
X111555000Y-99131939D01*
X111555000Y-98928061D01*
X111515226Y-98728102D01*
X111437205Y-98539744D01*
X111323937Y-98370226D01*
X111179774Y-98226063D01*
X111010256Y-98112795D01*
X110821898Y-98034774D01*
X110621939Y-97995000D01*
X110418061Y-97995000D01*
X110218102Y-98034774D01*
X110029744Y-98112795D01*
X109860226Y-98226063D01*
X109716063Y-98370226D01*
X109602795Y-98539744D01*
X109524774Y-98728102D01*
X109485000Y-98928061D01*
X109485000Y-99131939D01*
X109524774Y-99331898D01*
X109602795Y-99520256D01*
X109716063Y-99689774D01*
X109760000Y-99733711D01*
X109760001Y-101255197D01*
X104463887Y-106551312D01*
X104281335Y-106515000D01*
X103998665Y-106515000D01*
X103721426Y-106570147D01*
X103460273Y-106678320D01*
X103225241Y-106835363D01*
X103025363Y-107035241D01*
X102868320Y-107270273D01*
X102760147Y-107531426D01*
X102705000Y-107808665D01*
X100457000Y-107808665D01*
X100457000Y-98898967D01*
X102505000Y-98898967D01*
X102505000Y-99221033D01*
X102567832Y-99536912D01*
X102691082Y-99834463D01*
X102870013Y-100102252D01*
X103097748Y-100329987D01*
X103097767Y-100330000D01*
X103097748Y-100330013D01*
X102870013Y-100557748D01*
X102691082Y-100825537D01*
X102567832Y-101123088D01*
X102505000Y-101438967D01*
X102505000Y-101761033D01*
X102567832Y-102076912D01*
X102691082Y-102374463D01*
X102870013Y-102642252D01*
X103097748Y-102869987D01*
X103365537Y-103048918D01*
X103663088Y-103172168D01*
X103978967Y-103235000D01*
X104301033Y-103235000D01*
X104616912Y-103172168D01*
X104914463Y-103048918D01*
X105182252Y-102869987D01*
X105409987Y-102642252D01*
X105588918Y-102374463D01*
X105712168Y-102076912D01*
X105775000Y-101761033D01*
X105775000Y-101438967D01*
X105712168Y-101123088D01*
X105588918Y-100825537D01*
X105409987Y-100557748D01*
X105182252Y-100330013D01*
X105182233Y-100330000D01*
X105182252Y-100329987D01*
X105409987Y-100102252D01*
X105588918Y-99834463D01*
X105712168Y-99536912D01*
X105775000Y-99221033D01*
X105775000Y-98898967D01*
X105712168Y-98583088D01*
X105588918Y-98285537D01*
X105409987Y-98017748D01*
X105182252Y-97790013D01*
X104914463Y-97611082D01*
X104616912Y-97487832D01*
X104301033Y-97425000D01*
X103978967Y-97425000D01*
X103663088Y-97487832D01*
X103365537Y-97611082D01*
X103097748Y-97790013D01*
X102870013Y-98017748D01*
X102691082Y-98285537D01*
X102567832Y-98583088D01*
X102505000Y-98898967D01*
X100457000Y-98898967D01*
X100457000Y-91973061D01*
X110090000Y-91973061D01*
X110090000Y-92176939D01*
X110129774Y-92376898D01*
X110207795Y-92565256D01*
X110321063Y-92734774D01*
X110365001Y-92778712D01*
X110365000Y-94522677D01*
X110361324Y-94560000D01*
X110365000Y-94597322D01*
X110365000Y-94597332D01*
X110375997Y-94708985D01*
X110419454Y-94852246D01*
X110490026Y-94984276D01*
X110529871Y-95032826D01*
X110584999Y-95100001D01*
X110614003Y-95123804D01*
X112022500Y-96532302D01*
X112022500Y-96594439D01*
X112062274Y-96794398D01*
X112140295Y-96982756D01*
X112253563Y-97152274D01*
X112397726Y-97296437D01*
X112567244Y-97409705D01*
X112755602Y-97487726D01*
X112955561Y-97527500D01*
X113159439Y-97527500D01*
X113359398Y-97487726D01*
X113547756Y-97409705D01*
X113717274Y-97296437D01*
X113861437Y-97152274D01*
X113974705Y-96982756D01*
X114052726Y-96794398D01*
X114092500Y-96594439D01*
X114092500Y-96390561D01*
X114052726Y-96190602D01*
X113974705Y-96002244D01*
X113861437Y-95832726D01*
X113717274Y-95688563D01*
X113547756Y-95575295D01*
X113359398Y-95497274D01*
X113159439Y-95457500D01*
X113097302Y-95457500D01*
X111885000Y-94245199D01*
X111885000Y-92778711D01*
X111928937Y-92734774D01*
X112042205Y-92565256D01*
X112120226Y-92376898D01*
X112160000Y-92176939D01*
X112160000Y-91973061D01*
X112120226Y-91773102D01*
X112042205Y-91584744D01*
X111928937Y-91415226D01*
X111784774Y-91271063D01*
X111615256Y-91157795D01*
X111426898Y-91079774D01*
X111226939Y-91040000D01*
X111023061Y-91040000D01*
X110823102Y-91079774D01*
X110634744Y-91157795D01*
X110465226Y-91271063D01*
X110321063Y-91415226D01*
X110207795Y-91584744D01*
X110129774Y-91773102D01*
X110090000Y-91973061D01*
X100457000Y-91973061D01*
X100457000Y-90265059D01*
X113265000Y-90265059D01*
X113265000Y-90468937D01*
X113304774Y-90668896D01*
X113382795Y-90857254D01*
X113413695Y-90903499D01*
X113382795Y-90949744D01*
X113304774Y-91138102D01*
X113265000Y-91338061D01*
X113265000Y-91541939D01*
X113304774Y-91741898D01*
X113382795Y-91930256D01*
X113496063Y-92099774D01*
X113640226Y-92243937D01*
X113809744Y-92357205D01*
X113998102Y-92435226D01*
X114198061Y-92475000D01*
X114260199Y-92475000D01*
X122934030Y-101148832D01*
X122859774Y-101328102D01*
X122820000Y-101528061D01*
X122820000Y-101731939D01*
X122859774Y-101931898D01*
X122937795Y-102120256D01*
X123051063Y-102289774D01*
X123195226Y-102433937D01*
X123364744Y-102547205D01*
X123553102Y-102625226D01*
X123753061Y-102665000D01*
X123956939Y-102665000D01*
X124156898Y-102625226D01*
X124345256Y-102547205D01*
X124514774Y-102433937D01*
X124658937Y-102289774D01*
X124772205Y-102120256D01*
X124850226Y-101931898D01*
X124890000Y-101731939D01*
X124890000Y-101528061D01*
X124850226Y-101328102D01*
X124772205Y-101139744D01*
X124658937Y-100970226D01*
X124611572Y-100922861D01*
X124604003Y-100846014D01*
X124560546Y-100702753D01*
X124489974Y-100570724D01*
X124418799Y-100483997D01*
X124395001Y-100454999D01*
X124366003Y-100431201D01*
X122833769Y-98898967D01*
X136795000Y-98898967D01*
X136795000Y-99221033D01*
X136857832Y-99536912D01*
X136981082Y-99834463D01*
X137160013Y-100102252D01*
X137387748Y-100329987D01*
X137387767Y-100330000D01*
X137387748Y-100330013D01*
X137160013Y-100557748D01*
X136981082Y-100825537D01*
X136857832Y-101123088D01*
X136795000Y-101438967D01*
X136795000Y-101761033D01*
X136857832Y-102076912D01*
X136981082Y-102374463D01*
X137160013Y-102642252D01*
X137387748Y-102869987D01*
X137655537Y-103048918D01*
X137953088Y-103172168D01*
X138268967Y-103235000D01*
X138591033Y-103235000D01*
X138906912Y-103172168D01*
X139204463Y-103048918D01*
X139472252Y-102869987D01*
X139699987Y-102642252D01*
X139878918Y-102374463D01*
X140002168Y-102076912D01*
X140065000Y-101761033D01*
X140065000Y-101438967D01*
X140002168Y-101123088D01*
X139878918Y-100825537D01*
X139699987Y-100557748D01*
X139472252Y-100330013D01*
X139472233Y-100330000D01*
X139472252Y-100329987D01*
X139699987Y-100102252D01*
X139878918Y-99834463D01*
X140002168Y-99536912D01*
X140065000Y-99221033D01*
X140065000Y-98898967D01*
X140002168Y-98583088D01*
X139878918Y-98285537D01*
X139699987Y-98017748D01*
X139472252Y-97790013D01*
X139204463Y-97611082D01*
X138906912Y-97487832D01*
X138591033Y-97425000D01*
X138268967Y-97425000D01*
X137953088Y-97487832D01*
X137655537Y-97611082D01*
X137387748Y-97790013D01*
X137160013Y-98017748D01*
X136981082Y-98285537D01*
X136857832Y-98583088D01*
X136795000Y-98898967D01*
X122833769Y-98898967D01*
X117499180Y-93564379D01*
X117529774Y-93543937D01*
X117673937Y-93399774D01*
X117787205Y-93230256D01*
X117865226Y-93041898D01*
X117905000Y-92841939D01*
X117905000Y-92638061D01*
X117865226Y-92438102D01*
X117787205Y-92249744D01*
X117673937Y-92080226D01*
X117581772Y-91988061D01*
X118965000Y-91988061D01*
X118965000Y-92191939D01*
X119004774Y-92391898D01*
X119082795Y-92580256D01*
X119196063Y-92749774D01*
X119340226Y-92893937D01*
X119509744Y-93007205D01*
X119698102Y-93085226D01*
X119898061Y-93125000D01*
X120101939Y-93125000D01*
X120301898Y-93085226D01*
X120490256Y-93007205D01*
X120659774Y-92893937D01*
X120703711Y-92850000D01*
X126281289Y-92850000D01*
X126325226Y-92893937D01*
X126494744Y-93007205D01*
X126635331Y-93065438D01*
X126600000Y-93243061D01*
X126600000Y-93446939D01*
X126639774Y-93646898D01*
X126717795Y-93835256D01*
X126831063Y-94004774D01*
X126975226Y-94148937D01*
X127144744Y-94262205D01*
X127333102Y-94340226D01*
X127533061Y-94380000D01*
X127736939Y-94380000D01*
X127936898Y-94340226D01*
X128125256Y-94262205D01*
X128294774Y-94148937D01*
X128338711Y-94105000D01*
X132588200Y-94105000D01*
X130968201Y-95725000D01*
X130843711Y-95725000D01*
X130799774Y-95681063D01*
X130630256Y-95567795D01*
X130441898Y-95489774D01*
X130241939Y-95450000D01*
X130038061Y-95450000D01*
X129838102Y-95489774D01*
X129649744Y-95567795D01*
X129480226Y-95681063D01*
X129336063Y-95825226D01*
X129222795Y-95994744D01*
X129144774Y-96183102D01*
X129105000Y-96383061D01*
X129105000Y-96586939D01*
X129144774Y-96786898D01*
X129222795Y-96975256D01*
X129336063Y-97144774D01*
X129480226Y-97288937D01*
X129649744Y-97402205D01*
X129838102Y-97480226D01*
X130038061Y-97520000D01*
X130241939Y-97520000D01*
X130441898Y-97480226D01*
X130630256Y-97402205D01*
X130799774Y-97288937D01*
X130843711Y-97245000D01*
X131245680Y-97245000D01*
X131283002Y-97248676D01*
X131320324Y-97245000D01*
X131320335Y-97245000D01*
X131431988Y-97234003D01*
X131575249Y-97190546D01*
X131707278Y-97119974D01*
X131823003Y-97025001D01*
X131846806Y-96995997D01*
X134586005Y-94256799D01*
X134615002Y-94233002D01*
X134709975Y-94117277D01*
X134780547Y-93985248D01*
X134824004Y-93841987D01*
X134835001Y-93730334D01*
X134835001Y-93730324D01*
X134838677Y-93693001D01*
X134835001Y-93655678D01*
X134835001Y-93034321D01*
X134838677Y-92996998D01*
X134835001Y-92959675D01*
X134835001Y-92959666D01*
X134824004Y-92848013D01*
X134780547Y-92704752D01*
X134709975Y-92572723D01*
X134615002Y-92456998D01*
X134586004Y-92433200D01*
X133731805Y-91579002D01*
X133708003Y-91549999D01*
X133592278Y-91455026D01*
X133460249Y-91384454D01*
X133316988Y-91340997D01*
X133205335Y-91330000D01*
X133205324Y-91330000D01*
X133168002Y-91326324D01*
X133130680Y-91330000D01*
X129798990Y-91330000D01*
X129822205Y-91295256D01*
X129900226Y-91106898D01*
X129940000Y-90906939D01*
X129940000Y-90703061D01*
X129900226Y-90503102D01*
X129822205Y-90314744D01*
X129708937Y-90145226D01*
X129564774Y-90001063D01*
X129395256Y-89887795D01*
X129206898Y-89809774D01*
X129006939Y-89770000D01*
X128944803Y-89770000D01*
X126928804Y-87754003D01*
X126905001Y-87724999D01*
X126789276Y-87630026D01*
X126657247Y-87559454D01*
X126513986Y-87515997D01*
X126402333Y-87505000D01*
X126402322Y-87505000D01*
X126365000Y-87501324D01*
X126327678Y-87505000D01*
X122623711Y-87505000D01*
X122579774Y-87461063D01*
X122410256Y-87347795D01*
X122221898Y-87269774D01*
X122021939Y-87230000D01*
X121818061Y-87230000D01*
X121618102Y-87269774D01*
X121429744Y-87347795D01*
X121260226Y-87461063D01*
X121116063Y-87605226D01*
X121002795Y-87774744D01*
X120924774Y-87963102D01*
X120885000Y-88163061D01*
X120885000Y-88366939D01*
X120924774Y-88566898D01*
X121002795Y-88755256D01*
X121116063Y-88924774D01*
X121260226Y-89068937D01*
X121429744Y-89182205D01*
X121618102Y-89260226D01*
X121818061Y-89300000D01*
X122021939Y-89300000D01*
X122221898Y-89260226D01*
X122410256Y-89182205D01*
X122579774Y-89068937D01*
X122623711Y-89025000D01*
X126050199Y-89025000D01*
X127870000Y-90844803D01*
X127870000Y-90906939D01*
X127909774Y-91106898D01*
X127987795Y-91295256D01*
X128084510Y-91440000D01*
X127987795Y-91584744D01*
X127941893Y-91695560D01*
X127902205Y-91599744D01*
X127788937Y-91430226D01*
X127644774Y-91286063D01*
X127475256Y-91172795D01*
X127286898Y-91094774D01*
X127086939Y-91055000D01*
X126883061Y-91055000D01*
X126683102Y-91094774D01*
X126494744Y-91172795D01*
X126325226Y-91286063D01*
X126281289Y-91330000D01*
X120703711Y-91330000D01*
X120659774Y-91286063D01*
X120490256Y-91172795D01*
X120301898Y-91094774D01*
X120101939Y-91055000D01*
X119898061Y-91055000D01*
X119698102Y-91094774D01*
X119509744Y-91172795D01*
X119340226Y-91286063D01*
X119196063Y-91430226D01*
X119082795Y-91599744D01*
X119004774Y-91788102D01*
X118965000Y-91988061D01*
X117581772Y-91988061D01*
X117529774Y-91936063D01*
X117360256Y-91822795D01*
X117171898Y-91744774D01*
X116971939Y-91705000D01*
X116909802Y-91705000D01*
X115301514Y-90096713D01*
X115295226Y-90065100D01*
X115217205Y-89876742D01*
X115103937Y-89707224D01*
X114959774Y-89563061D01*
X114790256Y-89449793D01*
X114601898Y-89371772D01*
X114401939Y-89331998D01*
X114198061Y-89331998D01*
X113998102Y-89371772D01*
X113809744Y-89449793D01*
X113640226Y-89563061D01*
X113496063Y-89707224D01*
X113382795Y-89876742D01*
X113304774Y-90065100D01*
X113265000Y-90265059D01*
X100457000Y-90265059D01*
X100457000Y-86138665D01*
X102705000Y-86138665D01*
X102705000Y-86421335D01*
X102760147Y-86698574D01*
X102868320Y-86959727D01*
X103025363Y-87194759D01*
X103225241Y-87394637D01*
X103460273Y-87551680D01*
X103721426Y-87659853D01*
X103998665Y-87715000D01*
X104281335Y-87715000D01*
X104558574Y-87659853D01*
X104819727Y-87551680D01*
X105054759Y-87394637D01*
X105254637Y-87194759D01*
X105411680Y-86959727D01*
X105519853Y-86698574D01*
X105575000Y-86421335D01*
X105575000Y-86138665D01*
X105519853Y-85861426D01*
X105411680Y-85600273D01*
X105254637Y-85365241D01*
X105054759Y-85165363D01*
X104819727Y-85008320D01*
X104558574Y-84900147D01*
X104281335Y-84845000D01*
X103998665Y-84845000D01*
X103721426Y-84900147D01*
X103460273Y-85008320D01*
X103225241Y-85165363D01*
X103025363Y-85365241D01*
X102868320Y-85600273D01*
X102760147Y-85861426D01*
X102705000Y-86138665D01*
X100457000Y-86138665D01*
X100457000Y-83350000D01*
X110321928Y-83350000D01*
X110334188Y-83474482D01*
X110370498Y-83594180D01*
X110429463Y-83704494D01*
X110508815Y-83801185D01*
X110605506Y-83880537D01*
X110715820Y-83939502D01*
X110811943Y-83968661D01*
X110645363Y-84135241D01*
X110488320Y-84370273D01*
X110380147Y-84631426D01*
X110325000Y-84908665D01*
X110325000Y-85191335D01*
X110380147Y-85468574D01*
X110488320Y-85729727D01*
X110645363Y-85964759D01*
X110845241Y-86164637D01*
X111080273Y-86321680D01*
X111341426Y-86429853D01*
X111618665Y-86485000D01*
X111901335Y-86485000D01*
X112178574Y-86429853D01*
X112439727Y-86321680D01*
X112674759Y-86164637D01*
X112874637Y-85964759D01*
X113031680Y-85729727D01*
X113139853Y-85468574D01*
X113195000Y-85191335D01*
X113195000Y-84908665D01*
X113139853Y-84631426D01*
X113031680Y-84370273D01*
X112874637Y-84135241D01*
X112708057Y-83968661D01*
X112804180Y-83939502D01*
X112914494Y-83880537D01*
X113011185Y-83801185D01*
X113090537Y-83704494D01*
X113149502Y-83594180D01*
X113185812Y-83474482D01*
X113198072Y-83350000D01*
X129371928Y-83350000D01*
X129384188Y-83474482D01*
X129420498Y-83594180D01*
X129479463Y-83704494D01*
X129558815Y-83801185D01*
X129655506Y-83880537D01*
X129765820Y-83939502D01*
X129861943Y-83968661D01*
X129695363Y-84135241D01*
X129538320Y-84370273D01*
X129430147Y-84631426D01*
X129375000Y-84908665D01*
X129375000Y-85191335D01*
X129430147Y-85468574D01*
X129538320Y-85729727D01*
X129695363Y-85964759D01*
X129895241Y-86164637D01*
X130130273Y-86321680D01*
X130391426Y-86429853D01*
X130668665Y-86485000D01*
X130951335Y-86485000D01*
X131228574Y-86429853D01*
X131489727Y-86321680D01*
X131724759Y-86164637D01*
X131750731Y-86138665D01*
X136995000Y-86138665D01*
X136995000Y-86421335D01*
X137050147Y-86698574D01*
X137158320Y-86959727D01*
X137315363Y-87194759D01*
X137515241Y-87394637D01*
X137750273Y-87551680D01*
X138011426Y-87659853D01*
X138288665Y-87715000D01*
X138571335Y-87715000D01*
X138848574Y-87659853D01*
X139109727Y-87551680D01*
X139344759Y-87394637D01*
X139544637Y-87194759D01*
X139701680Y-86959727D01*
X139809853Y-86698574D01*
X139865000Y-86421335D01*
X139865000Y-86138665D01*
X139809853Y-85861426D01*
X139701680Y-85600273D01*
X139544637Y-85365241D01*
X139344759Y-85165363D01*
X139109727Y-85008320D01*
X138848574Y-84900147D01*
X138571335Y-84845000D01*
X138288665Y-84845000D01*
X138011426Y-84900147D01*
X137750273Y-85008320D01*
X137515241Y-85165363D01*
X137315363Y-85365241D01*
X137158320Y-85600273D01*
X137050147Y-85861426D01*
X136995000Y-86138665D01*
X131750731Y-86138665D01*
X131924637Y-85964759D01*
X132081680Y-85729727D01*
X132189853Y-85468574D01*
X132245000Y-85191335D01*
X132245000Y-84908665D01*
X132189853Y-84631426D01*
X132081680Y-84370273D01*
X131924637Y-84135241D01*
X131758057Y-83968661D01*
X131854180Y-83939502D01*
X131964494Y-83880537D01*
X132061185Y-83801185D01*
X132140537Y-83704494D01*
X132199502Y-83594180D01*
X132235812Y-83474482D01*
X132248072Y-83350000D01*
X132245000Y-82835750D01*
X132086250Y-82677000D01*
X130937000Y-82677000D01*
X130937000Y-82697000D01*
X130683000Y-82697000D01*
X130683000Y-82677000D01*
X129533750Y-82677000D01*
X129375000Y-82835750D01*
X129371928Y-83350000D01*
X113198072Y-83350000D01*
X113195000Y-82835750D01*
X113036250Y-82677000D01*
X111887000Y-82677000D01*
X111887000Y-82697000D01*
X111633000Y-82697000D01*
X111633000Y-82677000D01*
X110483750Y-82677000D01*
X110325000Y-82835750D01*
X110321928Y-83350000D01*
X100457000Y-83350000D01*
X100457000Y-82272702D01*
X103326903Y-82272702D01*
X103398486Y-82516671D01*
X103653996Y-82637571D01*
X103928184Y-82706300D01*
X104210512Y-82720217D01*
X104490130Y-82678787D01*
X104756292Y-82583603D01*
X104881514Y-82516671D01*
X104953097Y-82272702D01*
X104140000Y-81459605D01*
X103326903Y-82272702D01*
X100457000Y-82272702D01*
X100457000Y-81350512D01*
X102699783Y-81350512D01*
X102741213Y-81630130D01*
X102836397Y-81896292D01*
X102903329Y-82021514D01*
X103147298Y-82093097D01*
X103960395Y-81280000D01*
X104319605Y-81280000D01*
X105132702Y-82093097D01*
X105376671Y-82021514D01*
X105497571Y-81766004D01*
X105501582Y-81750000D01*
X110321928Y-81750000D01*
X110325000Y-82264250D01*
X110483750Y-82423000D01*
X111633000Y-82423000D01*
X111633000Y-81273750D01*
X111887000Y-81273750D01*
X111887000Y-82423000D01*
X113036250Y-82423000D01*
X113195000Y-82264250D01*
X113198072Y-81750000D01*
X129371928Y-81750000D01*
X129375000Y-82264250D01*
X129533750Y-82423000D01*
X130683000Y-82423000D01*
X130683000Y-81273750D01*
X130937000Y-81273750D01*
X130937000Y-82423000D01*
X132086250Y-82423000D01*
X132236548Y-82272702D01*
X137616903Y-82272702D01*
X137688486Y-82516671D01*
X137943996Y-82637571D01*
X138218184Y-82706300D01*
X138500512Y-82720217D01*
X138780130Y-82678787D01*
X139046292Y-82583603D01*
X139171514Y-82516671D01*
X139243097Y-82272702D01*
X138430000Y-81459605D01*
X137616903Y-82272702D01*
X132236548Y-82272702D01*
X132245000Y-82264250D01*
X132248072Y-81750000D01*
X132235812Y-81625518D01*
X132199502Y-81505820D01*
X132140537Y-81395506D01*
X132103612Y-81350512D01*
X136989783Y-81350512D01*
X137031213Y-81630130D01*
X137126397Y-81896292D01*
X137193329Y-82021514D01*
X137437298Y-82093097D01*
X138250395Y-81280000D01*
X138609605Y-81280000D01*
X139422702Y-82093097D01*
X139666671Y-82021514D01*
X139787571Y-81766004D01*
X139856300Y-81491816D01*
X139870217Y-81209488D01*
X139828787Y-80929870D01*
X139733603Y-80663708D01*
X139666671Y-80538486D01*
X139422702Y-80466903D01*
X138609605Y-81280000D01*
X138250395Y-81280000D01*
X137437298Y-80466903D01*
X137193329Y-80538486D01*
X137072429Y-80793996D01*
X137003700Y-81068184D01*
X136989783Y-81350512D01*
X132103612Y-81350512D01*
X132061185Y-81298815D01*
X131964494Y-81219463D01*
X131854180Y-81160498D01*
X131734482Y-81124188D01*
X131610000Y-81111928D01*
X131095750Y-81115000D01*
X130937000Y-81273750D01*
X130683000Y-81273750D01*
X130524250Y-81115000D01*
X130010000Y-81111928D01*
X129885518Y-81124188D01*
X129765820Y-81160498D01*
X129655506Y-81219463D01*
X129558815Y-81298815D01*
X129479463Y-81395506D01*
X129420498Y-81505820D01*
X129384188Y-81625518D01*
X129371928Y-81750000D01*
X113198072Y-81750000D01*
X113185812Y-81625518D01*
X113149502Y-81505820D01*
X113090537Y-81395506D01*
X113011185Y-81298815D01*
X112914494Y-81219463D01*
X112804180Y-81160498D01*
X112684482Y-81124188D01*
X112560000Y-81111928D01*
X112045750Y-81115000D01*
X111887000Y-81273750D01*
X111633000Y-81273750D01*
X111474250Y-81115000D01*
X110960000Y-81111928D01*
X110835518Y-81124188D01*
X110715820Y-81160498D01*
X110605506Y-81219463D01*
X110508815Y-81298815D01*
X110429463Y-81395506D01*
X110370498Y-81505820D01*
X110334188Y-81625518D01*
X110321928Y-81750000D01*
X105501582Y-81750000D01*
X105566300Y-81491816D01*
X105580217Y-81209488D01*
X105538787Y-80929870D01*
X105443603Y-80663708D01*
X105376671Y-80538486D01*
X105132702Y-80466903D01*
X104319605Y-81280000D01*
X103960395Y-81280000D01*
X103147298Y-80466903D01*
X102903329Y-80538486D01*
X102782429Y-80793996D01*
X102713700Y-81068184D01*
X102699783Y-81350512D01*
X100457000Y-81350512D01*
X100457000Y-80287298D01*
X103326903Y-80287298D01*
X104140000Y-81100395D01*
X104953097Y-80287298D01*
X137616903Y-80287298D01*
X138430000Y-81100395D01*
X139243097Y-80287298D01*
X139171514Y-80043329D01*
X138916004Y-79922429D01*
X138641816Y-79853700D01*
X138359488Y-79839783D01*
X138079870Y-79881213D01*
X137813708Y-79976397D01*
X137688486Y-80043329D01*
X137616903Y-80287298D01*
X104953097Y-80287298D01*
X104881514Y-80043329D01*
X104626004Y-79922429D01*
X104351816Y-79853700D01*
X104069488Y-79839783D01*
X103789870Y-79881213D01*
X103523708Y-79976397D01*
X103398486Y-80043329D01*
X103326903Y-80287298D01*
X100457000Y-80287298D01*
X100457000Y-77938061D01*
X113330000Y-77938061D01*
X113330000Y-78141939D01*
X113369774Y-78341898D01*
X113447795Y-78530256D01*
X113561063Y-78699774D01*
X113705226Y-78843937D01*
X113874744Y-78957205D01*
X114063102Y-79035226D01*
X114263061Y-79075000D01*
X114466939Y-79075000D01*
X114666898Y-79035226D01*
X114855256Y-78957205D01*
X114988769Y-78867995D01*
X114995685Y-78868676D01*
X115033008Y-78865000D01*
X118707678Y-78865000D01*
X118745000Y-78868676D01*
X118782322Y-78865000D01*
X118782333Y-78865000D01*
X118893986Y-78854003D01*
X119037247Y-78810546D01*
X119169276Y-78739974D01*
X119285001Y-78645001D01*
X119308804Y-78615997D01*
X121959802Y-75965000D01*
X122021939Y-75965000D01*
X122221898Y-75925226D01*
X122410256Y-75847205D01*
X122579774Y-75733937D01*
X122723937Y-75589774D01*
X122837205Y-75420256D01*
X122915226Y-75231898D01*
X122955000Y-75031939D01*
X122955000Y-74969801D01*
X125344802Y-72580000D01*
X128771289Y-72580000D01*
X128815226Y-72623937D01*
X128984744Y-72737205D01*
X129173102Y-72815226D01*
X129373061Y-72855000D01*
X129576939Y-72855000D01*
X129776898Y-72815226D01*
X129965256Y-72737205D01*
X130134774Y-72623937D01*
X130278937Y-72479774D01*
X130392205Y-72310256D01*
X130470226Y-72121898D01*
X130510000Y-71921939D01*
X130510000Y-71718061D01*
X130470226Y-71518102D01*
X130397123Y-71341616D01*
X135671815Y-71341616D01*
X136863823Y-72533625D01*
X136857832Y-72548088D01*
X136795000Y-72863967D01*
X136795000Y-73186033D01*
X136857832Y-73501912D01*
X136981082Y-73799463D01*
X137160013Y-74067252D01*
X137387748Y-74294987D01*
X137387767Y-74295000D01*
X137387748Y-74295013D01*
X137160013Y-74522748D01*
X136981082Y-74790537D01*
X136857832Y-75088088D01*
X136795000Y-75403967D01*
X136795000Y-75726033D01*
X136857832Y-76041912D01*
X136981082Y-76339463D01*
X137160013Y-76607252D01*
X137387748Y-76834987D01*
X137655537Y-77013918D01*
X137953088Y-77137168D01*
X138268967Y-77200000D01*
X138591033Y-77200000D01*
X138906912Y-77137168D01*
X139204463Y-77013918D01*
X139472252Y-76834987D01*
X139699987Y-76607252D01*
X139878918Y-76339463D01*
X140002168Y-76041912D01*
X140065000Y-75726033D01*
X140065000Y-75403967D01*
X140002168Y-75088088D01*
X139878918Y-74790537D01*
X139699987Y-74522748D01*
X139472252Y-74295013D01*
X139472233Y-74295000D01*
X139472252Y-74294987D01*
X139699987Y-74067252D01*
X139878918Y-73799463D01*
X140002168Y-73501912D01*
X140065000Y-73186033D01*
X140065000Y-72863967D01*
X140002168Y-72548088D01*
X139878918Y-72250537D01*
X139699987Y-71982748D01*
X139472252Y-71755013D01*
X139204463Y-71576082D01*
X138906912Y-71452832D01*
X138591033Y-71390000D01*
X138268967Y-71390000D01*
X137953088Y-71452832D01*
X137938625Y-71458823D01*
X136550420Y-70070619D01*
X136526617Y-70041615D01*
X136410892Y-69946642D01*
X136278863Y-69876070D01*
X136135602Y-69832613D01*
X136023949Y-69821616D01*
X136023938Y-69821616D01*
X135986616Y-69817940D01*
X135949294Y-69821616D01*
X124432095Y-69821616D01*
X124388158Y-69777679D01*
X124218640Y-69664411D01*
X124030282Y-69586390D01*
X123830323Y-69546616D01*
X123626445Y-69546616D01*
X123426486Y-69586390D01*
X123238128Y-69664411D01*
X123068610Y-69777679D01*
X122924447Y-69921842D01*
X122811179Y-70091360D01*
X122733158Y-70279718D01*
X122693384Y-70479677D01*
X122693384Y-70683555D01*
X122733158Y-70883514D01*
X122811179Y-71071872D01*
X122924447Y-71241390D01*
X123068610Y-71385553D01*
X123238128Y-71498821D01*
X123426486Y-71576842D01*
X123626445Y-71616616D01*
X123830323Y-71616616D01*
X124030282Y-71576842D01*
X124218640Y-71498821D01*
X124388158Y-71385553D01*
X124432095Y-71341616D01*
X124433582Y-71341616D01*
X121880199Y-73895000D01*
X121818061Y-73895000D01*
X121618102Y-73934774D01*
X121429744Y-74012795D01*
X121260226Y-74126063D01*
X121116063Y-74270226D01*
X121002795Y-74439744D01*
X120924774Y-74628102D01*
X120885000Y-74828061D01*
X120885000Y-74890198D01*
X118430199Y-77345000D01*
X115242662Y-77345000D01*
X115222932Y-77334454D01*
X115079724Y-77291013D01*
X115024774Y-77236063D01*
X114855256Y-77122795D01*
X114666898Y-77044774D01*
X114466939Y-77005000D01*
X114263061Y-77005000D01*
X114063102Y-77044774D01*
X113874744Y-77122795D01*
X113705226Y-77236063D01*
X113561063Y-77380226D01*
X113447795Y-77549744D01*
X113369774Y-77738102D01*
X113330000Y-77938061D01*
X100457000Y-77938061D01*
X100457000Y-72863967D01*
X102505000Y-72863967D01*
X102505000Y-73186033D01*
X102567832Y-73501912D01*
X102691082Y-73799463D01*
X102870013Y-74067252D01*
X103097748Y-74294987D01*
X103097767Y-74295000D01*
X103097748Y-74295013D01*
X102870013Y-74522748D01*
X102691082Y-74790537D01*
X102567832Y-75088088D01*
X102505000Y-75403967D01*
X102505000Y-75726033D01*
X102567832Y-76041912D01*
X102691082Y-76339463D01*
X102870013Y-76607252D01*
X103097748Y-76834987D01*
X103365537Y-77013918D01*
X103663088Y-77137168D01*
X103978967Y-77200000D01*
X104301033Y-77200000D01*
X104616912Y-77137168D01*
X104914463Y-77013918D01*
X105182252Y-76834987D01*
X105409987Y-76607252D01*
X105588918Y-76339463D01*
X105712168Y-76041912D01*
X105775000Y-75726033D01*
X105775000Y-75403967D01*
X105712168Y-75088088D01*
X105588918Y-74790537D01*
X105409987Y-74522748D01*
X105182252Y-74295013D01*
X105182233Y-74295000D01*
X105182252Y-74294987D01*
X105409987Y-74067252D01*
X105588918Y-73799463D01*
X105712168Y-73501912D01*
X105775000Y-73186033D01*
X105775000Y-72863967D01*
X105712168Y-72548088D01*
X105706177Y-72533624D01*
X107059802Y-71180000D01*
X113661289Y-71180000D01*
X113705226Y-71223937D01*
X113874744Y-71337205D01*
X114063102Y-71415226D01*
X114263061Y-71455000D01*
X114466939Y-71455000D01*
X114666898Y-71415226D01*
X114855256Y-71337205D01*
X115024774Y-71223937D01*
X115168937Y-71079774D01*
X115282205Y-70910256D01*
X115360226Y-70721898D01*
X115400000Y-70521939D01*
X115400000Y-70318061D01*
X115360226Y-70118102D01*
X115282205Y-69929744D01*
X115168937Y-69760226D01*
X115024774Y-69616063D01*
X114855256Y-69502795D01*
X114666898Y-69424774D01*
X114466939Y-69385000D01*
X114263061Y-69385000D01*
X114063102Y-69424774D01*
X113874744Y-69502795D01*
X113705226Y-69616063D01*
X113661289Y-69660000D01*
X106782322Y-69660000D01*
X106744999Y-69656324D01*
X106707676Y-69660000D01*
X106707667Y-69660000D01*
X106596014Y-69670997D01*
X106452753Y-69714454D01*
X106320724Y-69785026D01*
X106204999Y-69879999D01*
X106181201Y-69908997D01*
X104631376Y-71458823D01*
X104616912Y-71452832D01*
X104301033Y-71390000D01*
X103978967Y-71390000D01*
X103663088Y-71452832D01*
X103365537Y-71576082D01*
X103097748Y-71755013D01*
X102870013Y-71982748D01*
X102691082Y-72250537D01*
X102567832Y-72548088D01*
X102505000Y-72863967D01*
X100457000Y-72863967D01*
X100457000Y-64360475D01*
X106325000Y-64360475D01*
X106325000Y-64879525D01*
X106426261Y-65388601D01*
X106624893Y-65868141D01*
X106913262Y-66299715D01*
X107280285Y-66666738D01*
X107711859Y-66955107D01*
X108191399Y-67153739D01*
X108700475Y-67255000D01*
X109219525Y-67255000D01*
X109728601Y-67153739D01*
X110208141Y-66955107D01*
X110639715Y-66666738D01*
X111006738Y-66299715D01*
X111274711Y-65898665D01*
X114485000Y-65898665D01*
X114485000Y-66181335D01*
X114540147Y-66458574D01*
X114648320Y-66719727D01*
X114805363Y-66954759D01*
X115005241Y-67154637D01*
X115240273Y-67311680D01*
X115501426Y-67419853D01*
X115778665Y-67475000D01*
X116061335Y-67475000D01*
X116338574Y-67419853D01*
X116599727Y-67311680D01*
X116834759Y-67154637D01*
X117034637Y-66954759D01*
X117191680Y-66719727D01*
X117299853Y-66458574D01*
X117305000Y-66432699D01*
X117310147Y-66458574D01*
X117418320Y-66719727D01*
X117575363Y-66954759D01*
X117775241Y-67154637D01*
X118010273Y-67311680D01*
X118271426Y-67419853D01*
X118548665Y-67475000D01*
X118831335Y-67475000D01*
X119108574Y-67419853D01*
X119369727Y-67311680D01*
X119604759Y-67154637D01*
X119804637Y-66954759D01*
X119961680Y-66719727D01*
X120069853Y-66458574D01*
X120075000Y-66432699D01*
X120080147Y-66458574D01*
X120188320Y-66719727D01*
X120345363Y-66954759D01*
X120545241Y-67154637D01*
X120780273Y-67311680D01*
X121041426Y-67419853D01*
X121318665Y-67475000D01*
X121601335Y-67475000D01*
X121878574Y-67419853D01*
X122139727Y-67311680D01*
X122374759Y-67154637D01*
X122496694Y-67032702D01*
X123416903Y-67032702D01*
X123488486Y-67276671D01*
X123743996Y-67397571D01*
X124018184Y-67466300D01*
X124300512Y-67480217D01*
X124580130Y-67438787D01*
X124846292Y-67343603D01*
X124971514Y-67276671D01*
X125043097Y-67032702D01*
X124230000Y-66219605D01*
X123416903Y-67032702D01*
X122496694Y-67032702D01*
X122574637Y-66954759D01*
X122731680Y-66719727D01*
X122839853Y-66458574D01*
X122845513Y-66430118D01*
X122926397Y-66656292D01*
X122993329Y-66781514D01*
X123237298Y-66853097D01*
X124050395Y-66040000D01*
X124409605Y-66040000D01*
X125222702Y-66853097D01*
X125466671Y-66781514D01*
X125561928Y-66580198D01*
X125561928Y-66840000D01*
X125574188Y-66964482D01*
X125610498Y-67084180D01*
X125669463Y-67194494D01*
X125748815Y-67291185D01*
X125845506Y-67370537D01*
X125955820Y-67429502D01*
X126075518Y-67465812D01*
X126200000Y-67478072D01*
X127800000Y-67478072D01*
X127924482Y-67465812D01*
X128044180Y-67429502D01*
X128154494Y-67370537D01*
X128251185Y-67291185D01*
X128330537Y-67194494D01*
X128389502Y-67084180D01*
X128425812Y-66964482D01*
X128438072Y-66840000D01*
X128438072Y-65240000D01*
X128425812Y-65115518D01*
X128389502Y-64995820D01*
X128330537Y-64885506D01*
X128251185Y-64788815D01*
X128154494Y-64709463D01*
X128044180Y-64650498D01*
X127924482Y-64614188D01*
X127800000Y-64601928D01*
X126200000Y-64601928D01*
X126075518Y-64614188D01*
X125955820Y-64650498D01*
X125845506Y-64709463D01*
X125748815Y-64788815D01*
X125669463Y-64885506D01*
X125610498Y-64995820D01*
X125574188Y-65115518D01*
X125561928Y-65240000D01*
X125561928Y-65502913D01*
X125533603Y-65423708D01*
X125466671Y-65298486D01*
X125222702Y-65226903D01*
X124409605Y-66040000D01*
X124050395Y-66040000D01*
X123237298Y-65226903D01*
X122993329Y-65298486D01*
X122872429Y-65553996D01*
X122846788Y-65656289D01*
X122839853Y-65621426D01*
X122731680Y-65360273D01*
X122574637Y-65125241D01*
X122496694Y-65047298D01*
X123416903Y-65047298D01*
X124230000Y-65860395D01*
X125043097Y-65047298D01*
X124971514Y-64803329D01*
X124716004Y-64682429D01*
X124441816Y-64613700D01*
X124159488Y-64599783D01*
X123879870Y-64641213D01*
X123613708Y-64736397D01*
X123488486Y-64803329D01*
X123416903Y-65047298D01*
X122496694Y-65047298D01*
X122374759Y-64925363D01*
X122139727Y-64768320D01*
X121878574Y-64660147D01*
X121601335Y-64605000D01*
X121318665Y-64605000D01*
X121041426Y-64660147D01*
X120780273Y-64768320D01*
X120545241Y-64925363D01*
X120345363Y-65125241D01*
X120188320Y-65360273D01*
X120080147Y-65621426D01*
X120075000Y-65647301D01*
X120069853Y-65621426D01*
X119961680Y-65360273D01*
X119804637Y-65125241D01*
X119604759Y-64925363D01*
X119369727Y-64768320D01*
X119108574Y-64660147D01*
X118831335Y-64605000D01*
X118548665Y-64605000D01*
X118271426Y-64660147D01*
X118010273Y-64768320D01*
X117775241Y-64925363D01*
X117575363Y-65125241D01*
X117418320Y-65360273D01*
X117310147Y-65621426D01*
X117305000Y-65647301D01*
X117299853Y-65621426D01*
X117191680Y-65360273D01*
X117034637Y-65125241D01*
X116834759Y-64925363D01*
X116599727Y-64768320D01*
X116338574Y-64660147D01*
X116061335Y-64605000D01*
X115778665Y-64605000D01*
X115501426Y-64660147D01*
X115240273Y-64768320D01*
X115005241Y-64925363D01*
X114805363Y-65125241D01*
X114648320Y-65360273D01*
X114540147Y-65621426D01*
X114485000Y-65898665D01*
X111274711Y-65898665D01*
X111295107Y-65868141D01*
X111493739Y-65388601D01*
X111595000Y-64879525D01*
X111595000Y-64360475D01*
X111493739Y-63851399D01*
X111295107Y-63371859D01*
X111085838Y-63058665D01*
X115870000Y-63058665D01*
X115870000Y-63341335D01*
X115925147Y-63618574D01*
X116033320Y-63879727D01*
X116190363Y-64114759D01*
X116390241Y-64314637D01*
X116625273Y-64471680D01*
X116886426Y-64579853D01*
X117163665Y-64635000D01*
X117446335Y-64635000D01*
X117723574Y-64579853D01*
X117984727Y-64471680D01*
X118219759Y-64314637D01*
X118419637Y-64114759D01*
X118576680Y-63879727D01*
X118684853Y-63618574D01*
X118690000Y-63592699D01*
X118695147Y-63618574D01*
X118803320Y-63879727D01*
X118960363Y-64114759D01*
X119160241Y-64314637D01*
X119395273Y-64471680D01*
X119656426Y-64579853D01*
X119933665Y-64635000D01*
X120216335Y-64635000D01*
X120493574Y-64579853D01*
X120754727Y-64471680D01*
X120989759Y-64314637D01*
X121111694Y-64192702D01*
X122031903Y-64192702D01*
X122103486Y-64436671D01*
X122358996Y-64557571D01*
X122633184Y-64626300D01*
X122915512Y-64640217D01*
X123195130Y-64598787D01*
X123461292Y-64503603D01*
X123586514Y-64436671D01*
X123658097Y-64192702D01*
X122845000Y-63379605D01*
X122031903Y-64192702D01*
X121111694Y-64192702D01*
X121189637Y-64114759D01*
X121346680Y-63879727D01*
X121454853Y-63618574D01*
X121460513Y-63590118D01*
X121541397Y-63816292D01*
X121608329Y-63941514D01*
X121852298Y-64013097D01*
X122665395Y-63200000D01*
X123024605Y-63200000D01*
X123837702Y-64013097D01*
X124081671Y-63941514D01*
X124202571Y-63686004D01*
X124228212Y-63583711D01*
X124235147Y-63618574D01*
X124343320Y-63879727D01*
X124500363Y-64114759D01*
X124700241Y-64314637D01*
X124935273Y-64471680D01*
X125196426Y-64579853D01*
X125473665Y-64635000D01*
X125756335Y-64635000D01*
X126033574Y-64579853D01*
X126294727Y-64471680D01*
X126461157Y-64360475D01*
X131325000Y-64360475D01*
X131325000Y-64879525D01*
X131426261Y-65388601D01*
X131624893Y-65868141D01*
X131913262Y-66299715D01*
X132280285Y-66666738D01*
X132711859Y-66955107D01*
X133191399Y-67153739D01*
X133700475Y-67255000D01*
X134219525Y-67255000D01*
X134728601Y-67153739D01*
X135208141Y-66955107D01*
X135639715Y-66666738D01*
X136006738Y-66299715D01*
X136295107Y-65868141D01*
X136493739Y-65388601D01*
X136595000Y-64879525D01*
X136595000Y-64360475D01*
X136493739Y-63851399D01*
X136295107Y-63371859D01*
X136006738Y-62940285D01*
X135639715Y-62573262D01*
X135208141Y-62284893D01*
X134728601Y-62086261D01*
X134219525Y-61985000D01*
X133700475Y-61985000D01*
X133191399Y-62086261D01*
X132711859Y-62284893D01*
X132280285Y-62573262D01*
X131913262Y-62940285D01*
X131624893Y-63371859D01*
X131426261Y-63851399D01*
X131325000Y-64360475D01*
X126461157Y-64360475D01*
X126529759Y-64314637D01*
X126729637Y-64114759D01*
X126886680Y-63879727D01*
X126994853Y-63618574D01*
X127050000Y-63341335D01*
X127050000Y-63058665D01*
X126994853Y-62781426D01*
X126886680Y-62520273D01*
X126729637Y-62285241D01*
X126529759Y-62085363D01*
X126294727Y-61928320D01*
X126033574Y-61820147D01*
X125756335Y-61765000D01*
X125473665Y-61765000D01*
X125196426Y-61820147D01*
X124935273Y-61928320D01*
X124700241Y-62085363D01*
X124500363Y-62285241D01*
X124343320Y-62520273D01*
X124235147Y-62781426D01*
X124229487Y-62809882D01*
X124148603Y-62583708D01*
X124081671Y-62458486D01*
X123837702Y-62386903D01*
X123024605Y-63200000D01*
X122665395Y-63200000D01*
X121852298Y-62386903D01*
X121608329Y-62458486D01*
X121487429Y-62713996D01*
X121461788Y-62816289D01*
X121454853Y-62781426D01*
X121346680Y-62520273D01*
X121189637Y-62285241D01*
X121111694Y-62207298D01*
X122031903Y-62207298D01*
X122845000Y-63020395D01*
X123658097Y-62207298D01*
X123586514Y-61963329D01*
X123331004Y-61842429D01*
X123056816Y-61773700D01*
X122774488Y-61759783D01*
X122494870Y-61801213D01*
X122228708Y-61896397D01*
X122103486Y-61963329D01*
X122031903Y-62207298D01*
X121111694Y-62207298D01*
X120989759Y-62085363D01*
X120754727Y-61928320D01*
X120493574Y-61820147D01*
X120216335Y-61765000D01*
X119933665Y-61765000D01*
X119656426Y-61820147D01*
X119395273Y-61928320D01*
X119160241Y-62085363D01*
X118960363Y-62285241D01*
X118803320Y-62520273D01*
X118695147Y-62781426D01*
X118690000Y-62807301D01*
X118684853Y-62781426D01*
X118576680Y-62520273D01*
X118419637Y-62285241D01*
X118219759Y-62085363D01*
X117984727Y-61928320D01*
X117723574Y-61820147D01*
X117446335Y-61765000D01*
X117163665Y-61765000D01*
X116886426Y-61820147D01*
X116625273Y-61928320D01*
X116390241Y-62085363D01*
X116190363Y-62285241D01*
X116033320Y-62520273D01*
X115925147Y-62781426D01*
X115870000Y-63058665D01*
X111085838Y-63058665D01*
X111006738Y-62940285D01*
X110639715Y-62573262D01*
X110208141Y-62284893D01*
X109728601Y-62086261D01*
X109219525Y-61985000D01*
X108700475Y-61985000D01*
X108191399Y-62086261D01*
X107711859Y-62284893D01*
X107280285Y-62573262D01*
X106913262Y-62940285D01*
X106624893Y-63371859D01*
X106426261Y-63851399D01*
X106325000Y-64360475D01*
X100457000Y-64360475D01*
X100457000Y-61087000D01*
X142113000Y-61087000D01*
X142113000Y-128143000D01*
M02*
