G04 #@! TF.GenerationSoftware,KiCad,Pcbnew,5.1.5-52549c5~84~ubuntu18.04.1*
G04 #@! TF.CreationDate,2020-05-17T15:57:07-07:00*
G04 #@! TF.ProjectId,alu,616c752e-6b69-4636-9164-5f7063625858,rev?*
G04 #@! TF.SameCoordinates,Original*
G04 #@! TF.FileFunction,Copper,L3,Inr*
G04 #@! TF.FilePolarity,Positive*
%FSLAX46Y46*%
G04 Gerber Fmt 4.6, Leading zero omitted, Abs format (unit mm)*
G04 Created by KiCad (PCBNEW 5.1.5-52549c5~84~ubuntu18.04.1) date 2020-05-17 15:57:07*
%MOMM*%
%LPD*%
G04 APERTURE LIST*
%ADD10C,4.000000*%
%ADD11C,1.600000*%
%ADD12R,1.600000X1.600000*%
%ADD13C,1.800000*%
%ADD14R,1.800000X1.800000*%
%ADD15C,6.000000*%
%ADD16C,0.800000*%
%ADD17C,0.250000*%
G04 APERTURE END LIST*
D10*
X247800000Y-29680000D03*
X247800000Y-93180000D03*
D11*
X249220000Y-37885000D03*
X249220000Y-40655000D03*
X249220000Y-43425000D03*
X249220000Y-46195000D03*
X249220000Y-48965000D03*
X249220000Y-51735000D03*
X249220000Y-54505000D03*
X249220000Y-57275000D03*
X249220000Y-60045000D03*
X249220000Y-62815000D03*
X249220000Y-65585000D03*
X249220000Y-68355000D03*
X249220000Y-71125000D03*
X249220000Y-73895000D03*
X249220000Y-76665000D03*
X249220000Y-79435000D03*
X249220000Y-82205000D03*
X249220000Y-84975000D03*
X246380000Y-36500000D03*
X246380000Y-39270000D03*
X246380000Y-42040000D03*
X246380000Y-44810000D03*
X246380000Y-47580000D03*
X246380000Y-50350000D03*
X246380000Y-53120000D03*
X246380000Y-55890000D03*
X246380000Y-58660000D03*
X246380000Y-61430000D03*
X246380000Y-64200000D03*
X246380000Y-66970000D03*
X246380000Y-69740000D03*
X246380000Y-72510000D03*
X246380000Y-75280000D03*
X246380000Y-78050000D03*
X246380000Y-80820000D03*
X246380000Y-83590000D03*
D12*
X246380000Y-86360000D03*
D10*
X247800000Y-103340000D03*
X247800000Y-150440000D03*
D11*
X249220000Y-111655000D03*
X249220000Y-114425000D03*
X249220000Y-117195000D03*
X249220000Y-119965000D03*
X249220000Y-122735000D03*
X249220000Y-125505000D03*
X249220000Y-128275000D03*
X249220000Y-131045000D03*
X249220000Y-133815000D03*
X249220000Y-136585000D03*
X249220000Y-139355000D03*
X249220000Y-142125000D03*
X246380000Y-110270000D03*
X246380000Y-113040000D03*
X246380000Y-115810000D03*
X246380000Y-118580000D03*
X246380000Y-121350000D03*
X246380000Y-124120000D03*
X246380000Y-126890000D03*
X246380000Y-129660000D03*
X246380000Y-132430000D03*
X246380000Y-135200000D03*
X246380000Y-137970000D03*
X246380000Y-140740000D03*
D12*
X246380000Y-143510000D03*
D11*
X239950000Y-82550000D03*
X234950000Y-82550000D03*
X238720000Y-88900000D03*
D12*
X236220000Y-88900000D03*
D13*
X225933000Y-145669000D03*
D14*
X225933000Y-148209000D03*
D13*
X217678000Y-145669000D03*
D14*
X217678000Y-148209000D03*
D13*
X92583000Y-148209000D03*
D14*
X92583000Y-145669000D03*
D13*
X100203000Y-148209000D03*
D14*
X100203000Y-145669000D03*
D13*
X107823000Y-148209000D03*
D14*
X107823000Y-145669000D03*
D13*
X115443000Y-148209000D03*
D14*
X115443000Y-145669000D03*
D13*
X122428000Y-148209000D03*
D14*
X122428000Y-145669000D03*
D13*
X129413000Y-148209000D03*
D14*
X129413000Y-145669000D03*
D13*
X137033000Y-148209000D03*
D14*
X137033000Y-145669000D03*
D13*
X144653000Y-148209000D03*
D14*
X144653000Y-145669000D03*
D13*
X152273000Y-148209000D03*
D14*
X152273000Y-145669000D03*
D13*
X159893000Y-148209000D03*
D14*
X159893000Y-145669000D03*
D13*
X167513000Y-148209000D03*
D14*
X167513000Y-145669000D03*
D13*
X175133000Y-148209000D03*
D14*
X175133000Y-145669000D03*
D13*
X182753000Y-148209000D03*
D14*
X182753000Y-145669000D03*
D13*
X190373000Y-148209000D03*
D14*
X190373000Y-145669000D03*
D13*
X197993000Y-148209000D03*
D14*
X197993000Y-145669000D03*
D13*
X205613000Y-148209000D03*
D14*
X205613000Y-145669000D03*
D13*
X77978000Y-145669000D03*
D14*
X77978000Y-148209000D03*
D13*
X69723000Y-145669000D03*
D14*
X69723000Y-148209000D03*
D13*
X61468000Y-145669000D03*
D14*
X61468000Y-148209000D03*
D13*
X76835000Y-46355000D03*
D14*
X76835000Y-48895000D03*
D13*
X68580000Y-46355000D03*
D14*
X68580000Y-48895000D03*
D13*
X91440000Y-48895000D03*
D14*
X91440000Y-46355000D03*
D13*
X99060000Y-48895000D03*
D14*
X99060000Y-46355000D03*
D13*
X106680000Y-48895000D03*
D14*
X106680000Y-46355000D03*
D13*
X114300000Y-48895000D03*
D14*
X114300000Y-46355000D03*
D13*
X121920000Y-48895000D03*
D14*
X121920000Y-46355000D03*
D13*
X129540000Y-48895000D03*
D14*
X129540000Y-46355000D03*
D13*
X137160000Y-48895000D03*
D14*
X137160000Y-46355000D03*
D13*
X144780000Y-48895000D03*
D14*
X144780000Y-46355000D03*
D13*
X152400000Y-48895000D03*
D14*
X152400000Y-46355000D03*
D13*
X160020000Y-48895000D03*
D14*
X160020000Y-46355000D03*
D13*
X167640000Y-48895000D03*
D14*
X167640000Y-46355000D03*
D13*
X175260000Y-48895000D03*
D14*
X175260000Y-46355000D03*
D13*
X182880000Y-48895000D03*
D14*
X182880000Y-46355000D03*
D13*
X190500000Y-48895000D03*
D14*
X190500000Y-46355000D03*
D13*
X198120000Y-48895000D03*
D14*
X198120000Y-46355000D03*
D13*
X205740000Y-48895000D03*
D14*
X205740000Y-46355000D03*
D13*
X76835000Y-34290000D03*
D14*
X76835000Y-36830000D03*
D13*
X68580000Y-34290000D03*
D14*
X68580000Y-36830000D03*
D13*
X91440000Y-36830000D03*
D14*
X91440000Y-34290000D03*
D13*
X99060000Y-36830000D03*
D14*
X99060000Y-34290000D03*
D13*
X106680000Y-36830000D03*
D14*
X106680000Y-34290000D03*
D13*
X114300000Y-36830000D03*
D14*
X114300000Y-34290000D03*
D13*
X121920000Y-36830000D03*
D14*
X121920000Y-34290000D03*
D13*
X129540000Y-36830000D03*
D14*
X129540000Y-34290000D03*
D13*
X137160000Y-36830000D03*
D14*
X137160000Y-34290000D03*
D13*
X144780000Y-36830000D03*
D14*
X144780000Y-34290000D03*
D13*
X152400000Y-36830000D03*
D14*
X152400000Y-34290000D03*
D13*
X160020000Y-36830000D03*
D14*
X160020000Y-34290000D03*
D13*
X167640000Y-36830000D03*
D14*
X167640000Y-34290000D03*
D13*
X175260000Y-36830000D03*
D14*
X175260000Y-34290000D03*
D13*
X182880000Y-36830000D03*
D14*
X182880000Y-34290000D03*
D13*
X190500000Y-36830000D03*
D14*
X190500000Y-34290000D03*
D13*
X198120000Y-36830000D03*
D14*
X198120000Y-34290000D03*
D13*
X205740000Y-36830000D03*
D14*
X205740000Y-34290000D03*
D11*
X64690000Y-81915000D03*
X59690000Y-81915000D03*
X64690000Y-78105000D03*
X59690000Y-78105000D03*
X63460000Y-89535000D03*
D12*
X60960000Y-89535000D03*
D11*
X63460000Y-100965000D03*
D12*
X60960000Y-100965000D03*
D15*
X50800000Y-29210000D03*
X50800000Y-151130000D03*
D16*
X213330000Y-93315000D03*
X215900000Y-96520000D03*
X64770000Y-114640000D03*
X64770000Y-107020000D03*
X64770000Y-122260000D03*
X64770000Y-129880000D03*
X74930000Y-129880000D03*
X85090000Y-129880000D03*
X95250000Y-129880000D03*
X105410000Y-129880000D03*
X105410000Y-122260000D03*
X95250000Y-122260000D03*
X85090000Y-122260000D03*
X74930000Y-122260000D03*
X74930000Y-114640000D03*
X85090000Y-114640000D03*
X95250000Y-114640000D03*
X105410000Y-114640000D03*
X74930000Y-107020000D03*
X85090000Y-107020000D03*
X95250000Y-107020000D03*
X105410000Y-107020000D03*
X105410000Y-99400000D03*
X95250000Y-99400000D03*
X85090000Y-99400000D03*
X74930000Y-99400000D03*
X105410000Y-91780000D03*
X95250000Y-91780000D03*
X85090000Y-91780000D03*
X74930000Y-91780000D03*
X74930000Y-84160000D03*
X85090000Y-84160000D03*
X95250000Y-84160000D03*
X105410000Y-84160000D03*
X105410000Y-76540000D03*
X95250000Y-76540000D03*
X85090000Y-76540000D03*
X74930000Y-76540000D03*
X105410000Y-68920000D03*
X95250000Y-68920000D03*
X85090000Y-68920000D03*
X74930000Y-68920000D03*
X64770000Y-68920000D03*
X105410000Y-61300000D03*
X95250000Y-61300000D03*
X85090000Y-61300000D03*
X74930000Y-61300000D03*
X64770000Y-61300000D03*
X115570000Y-129880000D03*
X125730000Y-129880000D03*
X135890000Y-129880000D03*
X146050000Y-129880000D03*
X146050000Y-122260000D03*
X135890000Y-122260000D03*
X125730000Y-122260000D03*
X115570000Y-122260000D03*
X115570000Y-114640000D03*
X125730000Y-114640000D03*
X135890000Y-114640000D03*
X146050000Y-114640000D03*
X146050000Y-107020000D03*
X135890000Y-107020000D03*
X125730000Y-107020000D03*
X115570000Y-107020000D03*
X115570000Y-99400000D03*
X125730000Y-99400000D03*
X135890000Y-99400000D03*
X146050000Y-99400000D03*
X146050000Y-91780000D03*
X135890000Y-91780000D03*
X125730000Y-91780000D03*
X115570000Y-91780000D03*
X115570000Y-84160000D03*
X125730000Y-84160000D03*
X135890000Y-84160000D03*
X146050000Y-84160000D03*
X115570000Y-76540000D03*
X125730000Y-76540000D03*
X135890000Y-76540000D03*
X146050000Y-76540000D03*
X146050000Y-68920000D03*
X135890000Y-68920000D03*
X125730000Y-68920000D03*
X115570000Y-68920000D03*
X115570000Y-61300000D03*
X125730000Y-61300000D03*
X135890000Y-61300000D03*
X146050000Y-61300000D03*
X186690000Y-129880000D03*
X176530000Y-129880000D03*
X166370000Y-129880000D03*
X156210000Y-129880000D03*
X186690000Y-122260000D03*
X176530000Y-122260000D03*
X166370000Y-122260000D03*
X156210000Y-122260000D03*
X186690000Y-114640000D03*
X176530000Y-114640000D03*
X166370000Y-114640000D03*
X156210000Y-114640000D03*
X186690000Y-107020000D03*
X176530000Y-107020000D03*
X166370000Y-107020000D03*
X156210000Y-107020000D03*
X186690000Y-99400000D03*
X176530000Y-99400000D03*
X166370000Y-99400000D03*
X156210000Y-99400000D03*
X156210000Y-91780000D03*
X166370000Y-91780000D03*
X176530000Y-91780000D03*
X186690000Y-91780000D03*
X186690000Y-84160000D03*
X176530000Y-84160000D03*
X166370000Y-84160000D03*
X156210000Y-84160000D03*
X186690000Y-76540000D03*
X176530000Y-76540000D03*
X166370000Y-76540000D03*
X156210000Y-76540000D03*
X156210000Y-68920000D03*
X166370000Y-68920000D03*
X176530000Y-68920000D03*
X186690000Y-68920000D03*
X186690000Y-61300000D03*
X176530000Y-61300000D03*
X166370000Y-61300000D03*
X156210000Y-61300000D03*
X227330000Y-129880000D03*
X217170000Y-129880000D03*
X207010000Y-129880000D03*
X196850000Y-129880000D03*
X227330000Y-122260000D03*
X217170000Y-122260000D03*
X207010000Y-122260000D03*
X196850000Y-122260000D03*
X227330000Y-114640000D03*
X217170000Y-114640000D03*
X207010000Y-114640000D03*
X196850000Y-114640000D03*
X196850000Y-107020000D03*
X207010000Y-107020000D03*
X217170000Y-107020000D03*
X227330000Y-107020000D03*
X227330000Y-99400000D03*
X217170000Y-99400000D03*
X207010000Y-99400000D03*
X196850000Y-99400000D03*
X227330000Y-91780000D03*
X217170000Y-91780000D03*
X207010000Y-91780000D03*
X196850000Y-91780000D03*
X227330000Y-84160000D03*
X217170000Y-84160000D03*
X207010000Y-84160000D03*
X196850000Y-84160000D03*
X227330000Y-76540000D03*
X217170000Y-76540000D03*
X207010000Y-76540000D03*
X196850000Y-76540000D03*
X207010000Y-68920000D03*
X196850000Y-68920000D03*
X196850000Y-61300000D03*
X207010000Y-61300000D03*
X227330000Y-68920000D03*
X217170000Y-68920000D03*
X217170000Y-61300000D03*
X227330000Y-61300000D03*
X226090000Y-73055000D03*
X224100000Y-72390000D03*
X226090000Y-80675000D03*
X224100000Y-80010000D03*
X205770000Y-73055000D03*
X203780000Y-72390000D03*
X205770000Y-80675000D03*
X203780000Y-80010000D03*
X185450000Y-73055000D03*
X183460000Y-72390000D03*
X185450000Y-80675000D03*
X183460000Y-80010000D03*
X165130000Y-73055000D03*
X163140000Y-72390000D03*
X165130000Y-80675000D03*
X163140000Y-80010000D03*
X144810000Y-73055000D03*
X142820000Y-72390000D03*
X144810000Y-80675000D03*
X142820000Y-80010000D03*
X124490000Y-73055000D03*
X122500000Y-72390000D03*
X124490000Y-80675000D03*
X122500000Y-80010000D03*
X104170000Y-73055000D03*
X102180000Y-72390000D03*
X104170000Y-80675000D03*
X102180000Y-80010000D03*
X83850000Y-73055000D03*
X81860000Y-72390000D03*
X83850000Y-80675000D03*
X81860000Y-80010000D03*
X215930000Y-73055000D03*
X213940000Y-72390000D03*
X215930000Y-80675000D03*
X213940000Y-80010000D03*
X195610000Y-73055000D03*
X193620000Y-72390000D03*
X195610000Y-80675000D03*
X193620000Y-80010000D03*
X175290000Y-73055000D03*
X173300000Y-72390000D03*
X175290000Y-80675000D03*
X173300000Y-80010000D03*
X154970000Y-73055000D03*
X152980000Y-72390000D03*
X154970000Y-80675000D03*
X152980000Y-80010000D03*
X134650000Y-73055000D03*
X132660000Y-72390000D03*
X134650000Y-80675000D03*
X132660000Y-80010000D03*
X114330000Y-73055000D03*
X112340000Y-72390000D03*
X114330000Y-80675000D03*
X112340000Y-80010000D03*
X94010000Y-73055000D03*
X92020000Y-72390000D03*
X94010000Y-80675000D03*
X92020000Y-80010000D03*
X73690000Y-73055000D03*
X71700000Y-72390000D03*
X73690000Y-80675000D03*
X71700000Y-80010000D03*
X83890000Y-132080000D03*
X71120000Y-132715000D03*
X71120000Y-132715000D03*
X94080000Y-134620000D03*
X104210000Y-132080000D03*
X106045000Y-137795000D03*
X134650000Y-131415000D03*
X124530000Y-132080000D03*
X130810000Y-129880000D03*
X144850000Y-132080000D03*
X133350000Y-130175000D03*
X165170000Y-132080000D03*
X149210000Y-133365000D03*
X185490000Y-132080000D03*
X195680000Y-134620000D03*
X205810000Y-132080000D03*
X215930000Y-131415000D03*
X226130000Y-132080000D03*
X212090000Y-129880000D03*
X60930000Y-134015000D03*
X53340000Y-140335000D03*
X83835000Y-133365000D03*
X104155000Y-133365000D03*
X124475000Y-133365000D03*
X144795000Y-133365000D03*
X165115000Y-133365000D03*
X185435000Y-133365000D03*
X205755000Y-133365000D03*
X195565000Y-125745000D03*
X73645000Y-125745000D03*
X114285000Y-125745000D03*
X134605000Y-125745000D03*
X154925000Y-125745000D03*
X175245000Y-125745000D03*
X215885000Y-125745000D03*
X168910000Y-125095000D03*
X72934999Y-122010001D03*
X93594999Y-121534999D03*
X226075000Y-133365000D03*
X219075000Y-128905000D03*
X189230000Y-130810000D03*
X185420000Y-127733002D03*
X174625000Y-122555000D03*
X107950000Y-128270000D03*
X93965000Y-125745000D03*
X55789999Y-125820001D03*
X66675000Y-68580000D03*
X76820000Y-80025000D03*
X76820000Y-72405000D03*
X97140000Y-80025000D03*
X97140000Y-72405000D03*
X117460000Y-80025000D03*
X117460000Y-72405000D03*
X137780000Y-80025000D03*
X137780000Y-72405000D03*
X158100000Y-80025000D03*
X158100000Y-72405000D03*
X178420000Y-80025000D03*
X178420000Y-72405000D03*
X198740000Y-80025000D03*
X198740000Y-72405000D03*
X219060000Y-72405000D03*
X219060000Y-80025000D03*
X60945000Y-72405000D03*
X241645000Y-139355000D03*
X241645000Y-111415000D03*
X86980000Y-80025000D03*
X86980000Y-72405000D03*
X107300000Y-80025000D03*
X107300000Y-72405000D03*
X127620000Y-72405000D03*
X127620000Y-80025000D03*
X147940000Y-72405000D03*
X147940000Y-80025000D03*
X168260000Y-80025000D03*
X168260000Y-72405000D03*
X188580000Y-72405000D03*
X188580000Y-80025000D03*
X208900000Y-72405000D03*
X208900000Y-80025000D03*
X229220000Y-80025000D03*
X229220000Y-72405000D03*
X60915000Y-69805000D03*
X240145000Y-142125000D03*
X240145000Y-112510000D03*
X73660000Y-124686998D03*
X73690000Y-131415000D03*
X73660000Y-139065000D03*
X94080000Y-130810000D03*
X93980000Y-124686998D03*
X90170000Y-129880000D03*
X114300000Y-124686998D03*
X117475000Y-129540000D03*
X117792500Y-131762500D03*
X121285000Y-138430000D03*
X132065000Y-133365000D03*
X134620000Y-124686998D03*
X154940000Y-124686998D03*
X158085000Y-131415000D03*
X175260000Y-124686998D03*
X195680000Y-130810000D03*
X179070000Y-128270000D03*
X179070000Y-130175000D03*
X195580000Y-124686998D03*
X191770000Y-129880000D03*
X215900000Y-124686998D03*
X213345000Y-133365000D03*
X83502500Y-125412500D03*
X124142500Y-125412500D03*
X164782500Y-125412500D03*
X98455000Y-123795000D03*
X139095000Y-123795000D03*
X179735000Y-123795000D03*
X98425000Y-118645000D03*
X139065000Y-118645000D03*
X179705000Y-118645000D03*
X220345000Y-118645000D03*
X220375000Y-123795000D03*
X205422500Y-125412500D03*
X163830000Y-128270000D03*
X83102501Y-128822501D03*
X229870000Y-122640000D03*
X238300000Y-137970000D03*
X53249999Y-73750001D03*
X61595000Y-74733002D03*
X57785000Y-64135000D03*
X235585000Y-102870000D03*
X236220000Y-118110000D03*
X236855000Y-139065000D03*
X60915000Y-62185000D03*
X233680000Y-102870000D03*
X233680000Y-119380000D03*
X234950000Y-140970000D03*
X224125000Y-65435000D03*
X203805000Y-65435000D03*
X183485000Y-65435000D03*
X163165000Y-65435000D03*
X142845000Y-65435000D03*
X122525000Y-65435000D03*
X102205000Y-65435000D03*
X81885000Y-65435000D03*
X213965000Y-65435000D03*
X193645000Y-65435000D03*
X173325000Y-65435000D03*
X153005000Y-65435000D03*
X132685000Y-65435000D03*
X112365000Y-65435000D03*
X92045000Y-65435000D03*
X71725000Y-65435000D03*
X226015000Y-62185000D03*
X205695000Y-62185000D03*
X185375000Y-62185000D03*
X165055000Y-62185000D03*
X144735000Y-62185000D03*
X124415000Y-62185000D03*
X104095000Y-62185000D03*
X83775000Y-62185000D03*
X215855000Y-62185000D03*
X195535000Y-62185000D03*
X175215000Y-62185000D03*
X154895000Y-62185000D03*
X134575000Y-62185000D03*
X114255000Y-62185000D03*
X93935000Y-62185000D03*
X73615000Y-62185000D03*
X78105000Y-133885000D03*
X98425000Y-133885000D03*
X118745000Y-133885000D03*
X139065000Y-133885000D03*
X159385000Y-133885000D03*
X200025000Y-133885000D03*
X210185000Y-126265000D03*
X189865000Y-126265000D03*
X169545000Y-126265000D03*
X149225000Y-126265000D03*
X128905000Y-126265000D03*
X108585000Y-126265000D03*
X88265000Y-126265000D03*
X67945000Y-126265000D03*
X128270000Y-128270000D03*
X87630000Y-129540000D03*
X220345000Y-133885000D03*
X210185000Y-128905000D03*
X179070000Y-131445000D03*
X174080001Y-130084999D03*
X183914999Y-131045001D03*
X148484999Y-130280001D03*
X139065000Y-128270000D03*
X106680000Y-128270000D03*
X66675000Y-74930000D03*
X78105000Y-126265000D03*
X118745000Y-126265000D03*
X159385000Y-126265000D03*
X104041501Y-126266501D03*
X144681501Y-126266501D03*
X185321501Y-126266501D03*
X102824999Y-116250001D03*
X143464999Y-116250001D03*
X184104999Y-116250001D03*
X224744999Y-116250001D03*
X225961501Y-126266501D03*
X200025000Y-126265000D03*
X77349999Y-130689999D03*
X53975000Y-75565000D03*
X64600000Y-74760000D03*
X67960000Y-80025000D03*
X67960000Y-72405000D03*
X88280000Y-80025000D03*
X88280000Y-72405000D03*
X108600000Y-80025000D03*
X108600000Y-72405000D03*
X128920000Y-80025000D03*
X128920000Y-72405000D03*
X149240000Y-80025000D03*
X149240000Y-72405000D03*
X169560000Y-80025000D03*
X169560000Y-72405000D03*
X189880000Y-80025000D03*
X189880000Y-72405000D03*
X210200000Y-72405000D03*
X210200000Y-80025000D03*
X62865000Y-72390000D03*
X78120000Y-80025000D03*
X78120000Y-72405000D03*
X98440000Y-80025000D03*
X98440000Y-72405000D03*
X118760000Y-80025000D03*
X118760000Y-72405000D03*
X139080000Y-80025000D03*
X139080000Y-72405000D03*
X159400000Y-80025000D03*
X159400000Y-72405000D03*
X179720000Y-80025000D03*
X179720000Y-72405000D03*
X200040000Y-80025000D03*
X200040000Y-72405000D03*
X220360000Y-80025000D03*
X220360000Y-72405000D03*
X60945000Y-71105000D03*
X70801001Y-63310999D03*
X91121001Y-63310999D03*
X111441001Y-63310999D03*
X131761001Y-63310999D03*
X152081001Y-63310999D03*
X172401001Y-63310999D03*
X192721001Y-63310999D03*
X213041001Y-63310999D03*
X60930000Y-65435000D03*
X80961001Y-63310999D03*
X101281001Y-63310999D03*
X121601001Y-63310999D03*
X141921001Y-63310999D03*
X162241001Y-63310999D03*
X182561001Y-63310999D03*
X202881001Y-63310999D03*
X223201001Y-63310999D03*
X60945000Y-63485000D03*
X226060000Y-63500000D03*
X221352500Y-76462500D03*
X201032500Y-76462500D03*
X205740000Y-63500000D03*
X180712500Y-76462500D03*
X185420000Y-63500000D03*
X160392500Y-76462500D03*
X165100000Y-63500000D03*
X140072500Y-76462500D03*
X144780000Y-63500000D03*
X119752500Y-76462500D03*
X124460000Y-63500000D03*
X99432500Y-76462500D03*
X104140000Y-63500000D03*
X79112500Y-76462500D03*
X83820000Y-63500000D03*
X211192500Y-76462500D03*
X215900000Y-63500000D03*
X190872500Y-76462500D03*
X195580000Y-63500000D03*
X170552500Y-76462500D03*
X175260000Y-63500000D03*
X150232500Y-76462500D03*
X154940000Y-63500000D03*
X129912500Y-76462500D03*
X134620000Y-63500000D03*
X109592500Y-76462500D03*
X114300000Y-63500000D03*
X89272500Y-76462500D03*
X93980000Y-63500000D03*
X73660000Y-63500000D03*
X68952500Y-76462500D03*
X226060000Y-71755000D03*
X220390000Y-85045000D03*
X220345000Y-94615000D03*
X220390000Y-107905000D03*
X226060000Y-79375000D03*
X229205000Y-88295000D03*
X213315000Y-100285000D03*
X215900000Y-104140000D03*
X213360000Y-109855000D03*
X200025000Y-94615000D03*
X200070000Y-85045000D03*
X205740000Y-71755000D03*
X193040000Y-109855000D03*
X195580000Y-104140000D03*
X192995000Y-100285000D03*
X208885000Y-88295000D03*
X205740000Y-79375000D03*
X179750000Y-107905000D03*
X179705000Y-94615000D03*
X179750000Y-85045000D03*
X185420000Y-71755000D03*
X182245000Y-83185000D03*
X172720000Y-109855000D03*
X175260000Y-104140000D03*
X172675000Y-100285000D03*
X188565000Y-88295000D03*
X185420000Y-79375000D03*
X159385000Y-94615000D03*
X159430000Y-85045000D03*
X165100000Y-71755000D03*
X161925000Y-83185000D03*
X152400000Y-109855000D03*
X154940000Y-104140000D03*
X152355000Y-100285000D03*
X168245000Y-88295000D03*
X165100000Y-79375000D03*
X139110000Y-107905000D03*
X139065000Y-94615000D03*
X139110000Y-85045000D03*
X144780000Y-71755000D03*
X142240000Y-83820000D03*
X132080000Y-109855000D03*
X134620000Y-104140000D03*
X132035000Y-100285000D03*
X147925000Y-88295000D03*
X144780000Y-79375000D03*
X118745000Y-94615000D03*
X118790000Y-85045000D03*
X124460000Y-71755000D03*
X121285000Y-83820000D03*
X111760000Y-109855000D03*
X114300000Y-104140000D03*
X111715000Y-100285000D03*
X127605000Y-88295000D03*
X124460000Y-79375000D03*
X98470000Y-107905000D03*
X98425000Y-94615000D03*
X98470000Y-85045000D03*
X104140000Y-71755000D03*
X100965000Y-83820000D03*
X91440000Y-109855000D03*
X93980000Y-104140000D03*
X91395000Y-100285000D03*
X107285000Y-88295000D03*
X104140000Y-79375000D03*
X78105000Y-94615000D03*
X78150000Y-85045000D03*
X83820000Y-71755000D03*
X80575685Y-83185000D03*
X71120000Y-109855000D03*
X73660000Y-104140000D03*
X71075000Y-100285000D03*
X86965000Y-88295000D03*
X83820000Y-79375000D03*
X215900000Y-71755000D03*
X223490000Y-85695000D03*
X210185000Y-86360000D03*
X226075000Y-95265000D03*
X223490000Y-108555000D03*
X215900000Y-79375000D03*
X226075000Y-87645000D03*
X210629999Y-99250001D03*
X215930000Y-111155000D03*
X205755000Y-95265000D03*
X189865000Y-86360000D03*
X203170000Y-85695000D03*
X195580000Y-71755000D03*
X195610000Y-111155000D03*
X190309999Y-99250001D03*
X205755000Y-87645000D03*
X195580000Y-79375000D03*
X182850000Y-108555000D03*
X185435000Y-95265000D03*
X169545000Y-86360000D03*
X182850000Y-85695000D03*
X175260000Y-71755000D03*
X175290000Y-111155000D03*
X169989999Y-99250001D03*
X185435000Y-87645000D03*
X175260000Y-79375000D03*
X165115000Y-95265000D03*
X149225000Y-86360000D03*
X162530000Y-85695000D03*
X154940000Y-71755000D03*
X154970000Y-111155000D03*
X149669999Y-99250001D03*
X165115000Y-87645000D03*
X154940000Y-79375000D03*
X142210000Y-108555000D03*
X144795000Y-95265000D03*
X128905000Y-86360000D03*
X142210000Y-85695000D03*
X134620000Y-71755000D03*
X134650000Y-111155000D03*
X129349999Y-99250001D03*
X144795000Y-87645000D03*
X134620000Y-79375000D03*
X124475000Y-95265000D03*
X108585000Y-86360000D03*
X121890000Y-85695000D03*
X114300000Y-71755000D03*
X114330000Y-111155000D03*
X109029999Y-99250001D03*
X124475000Y-87645000D03*
X114300000Y-79375000D03*
X101570000Y-108555000D03*
X104155000Y-95265000D03*
X88265000Y-86360000D03*
X101570000Y-85695000D03*
X93980000Y-71755000D03*
X94010000Y-111155000D03*
X104155000Y-87645000D03*
X93980000Y-79375000D03*
X90176997Y-99250001D03*
X83835000Y-95265000D03*
X67945000Y-86360000D03*
X81250000Y-85695000D03*
X73660000Y-71755000D03*
X73690000Y-111155000D03*
X68389999Y-99250001D03*
X83835000Y-87645000D03*
X73660000Y-79375000D03*
X229235000Y-86995000D03*
X229220000Y-116825000D03*
X223490000Y-88295000D03*
X223475000Y-115525000D03*
X208915000Y-86995000D03*
X203200000Y-125095000D03*
X205105000Y-121285000D03*
X203170000Y-88295000D03*
X229235000Y-125875000D03*
X188580000Y-116825000D03*
X188595000Y-86995000D03*
X182835000Y-115525000D03*
X182850000Y-88295000D03*
X183832500Y-96837500D03*
X162560000Y-125095000D03*
X168275000Y-86995000D03*
X188595000Y-125875000D03*
X162530000Y-88295000D03*
X189547500Y-83502500D03*
X147940000Y-116825000D03*
X147955000Y-86995000D03*
X142195000Y-115525000D03*
X142210000Y-88295000D03*
X147320000Y-90805000D03*
X121920000Y-125095000D03*
X127635000Y-86995000D03*
X127000000Y-98425000D03*
X128587500Y-103822500D03*
X121920000Y-121285000D03*
X147955000Y-125875000D03*
X121890000Y-88295000D03*
X127000000Y-106045000D03*
X107300000Y-116825000D03*
X107315000Y-86995000D03*
X101555000Y-115525000D03*
X101570000Y-88295000D03*
X101600000Y-90805000D03*
X81280000Y-125095000D03*
X86995000Y-86995000D03*
X107315000Y-125875000D03*
X81250000Y-88295000D03*
X107950000Y-83185000D03*
X226060000Y-117475000D03*
X223505000Y-125745000D03*
X226175000Y-120015000D03*
X222250000Y-129880000D03*
X219075000Y-94095000D03*
X220345000Y-117475000D03*
X219075000Y-106045000D03*
X198755000Y-94095000D03*
X222885000Y-106483002D03*
X231140000Y-106045000D03*
X229855000Y-124445000D03*
X226060000Y-125095000D03*
X203100000Y-123190000D03*
X227330000Y-127930000D03*
X200025000Y-123665000D03*
X220375000Y-126395000D03*
X213315000Y-123145000D03*
X226060000Y-102235000D03*
X222420000Y-122090000D03*
X192995000Y-123145000D03*
X205810000Y-124460000D03*
X205740000Y-102235000D03*
X205770000Y-126395000D03*
X201930000Y-129880000D03*
X200025000Y-124965000D03*
X182865000Y-125745000D03*
X185420000Y-117475000D03*
X181610000Y-129880000D03*
X185535000Y-120015000D03*
X183832500Y-126047500D03*
X179705000Y-117475000D03*
X178435000Y-94095000D03*
X178435000Y-99695000D03*
X158115000Y-94095000D03*
X189230000Y-119380000D03*
X185964999Y-97880001D03*
X178435000Y-90170000D03*
X170180000Y-90805000D03*
X162460000Y-123190000D03*
X185420000Y-125095000D03*
X159385000Y-123665000D03*
X186690000Y-127930000D03*
X159385000Y-121285000D03*
X189230000Y-122555000D03*
X172675000Y-123145000D03*
X179735000Y-126395000D03*
X181780000Y-122090000D03*
X185420000Y-102235000D03*
X165170000Y-124460000D03*
X152355000Y-123145000D03*
X165130000Y-126395000D03*
X165100000Y-102235000D03*
X165100000Y-106045000D03*
X161290000Y-129880000D03*
X159385000Y-124965000D03*
X142225000Y-125745000D03*
X144780000Y-117475000D03*
X140970000Y-129880000D03*
X144895000Y-120015000D03*
X140017500Y-120967500D03*
X139065000Y-117475000D03*
X137795000Y-94095000D03*
X137795000Y-106045000D03*
X117475000Y-94095000D03*
X147955000Y-123925000D03*
X148590000Y-83185000D03*
X121820000Y-123190000D03*
X144780000Y-125095000D03*
X118745000Y-123665000D03*
X146050000Y-127930000D03*
X123190000Y-129540000D03*
X132035000Y-123145000D03*
X139095000Y-126395000D03*
X141140000Y-122090000D03*
X144780000Y-102235000D03*
X124530000Y-124460000D03*
X111715000Y-123145000D03*
X124490000Y-126395000D03*
X124460000Y-102235000D03*
X120650000Y-129880000D03*
X118745000Y-124965000D03*
X104140000Y-117475000D03*
X101585000Y-125745000D03*
X101585000Y-122570000D03*
X100330000Y-129880000D03*
X104255000Y-120015000D03*
X98425000Y-117475000D03*
X97155000Y-94095000D03*
X98182501Y-95642501D03*
X76835000Y-94095000D03*
X106870001Y-122110001D03*
X81975001Y-106740001D03*
X82550000Y-97155000D03*
X81180000Y-123190000D03*
X104140000Y-125095000D03*
X78105000Y-123665000D03*
X105410000Y-127930000D03*
X91395000Y-123145000D03*
X98455000Y-126395000D03*
X100500000Y-122090000D03*
X104140000Y-102235000D03*
X83890000Y-124460000D03*
X71075000Y-123145000D03*
X83850000Y-126395000D03*
X83820000Y-102235000D03*
X80004990Y-121290010D03*
X80010000Y-129880000D03*
X78105000Y-124965000D03*
X224790000Y-132346998D03*
X223490000Y-134015000D03*
X203170000Y-134015000D03*
X204470000Y-132346998D03*
X182850000Y-134015000D03*
X184150000Y-132346998D03*
X162530000Y-134015000D03*
X163830000Y-132346998D03*
X142210000Y-134015000D03*
X143510000Y-132346998D03*
X121890000Y-134015000D03*
X123190000Y-132346998D03*
X101570000Y-134015000D03*
X102870000Y-132346998D03*
X81250000Y-134015000D03*
X82550000Y-132346998D03*
X216187500Y-132427500D03*
X193025000Y-133365000D03*
X219030000Y-134665000D03*
X171450000Y-129880000D03*
X174307500Y-134937500D03*
X195580000Y-132080000D03*
X152360000Y-132080000D03*
X198710000Y-134665000D03*
X151130000Y-129880000D03*
X189865000Y-133495000D03*
X169560000Y-133365000D03*
X158070000Y-134665000D03*
X110490000Y-129880000D03*
X175360000Y-130810000D03*
X149240000Y-132065000D03*
X91425000Y-133365000D03*
X134907500Y-132427500D03*
X137750000Y-134665000D03*
X117475000Y-133985000D03*
X93980000Y-132080000D03*
X71090000Y-131415000D03*
X97110000Y-134665000D03*
X69850000Y-129880000D03*
X93027500Y-133667500D03*
X88265000Y-133495000D03*
X114330000Y-131415000D03*
X76790000Y-134665000D03*
X66645000Y-116175000D03*
X67310000Y-134620000D03*
X67960000Y-132065000D03*
X60960000Y-117475000D03*
X175260000Y-132080000D03*
X111745000Y-133365000D03*
X178390000Y-134665000D03*
X57830000Y-107905000D03*
X114300000Y-132715000D03*
X60930000Y-116175000D03*
X112395000Y-138430000D03*
X51435000Y-116205000D03*
X114345000Y-134665000D03*
X59690000Y-114640000D03*
X114300000Y-138430000D03*
X50165000Y-114935000D03*
X108615000Y-134015000D03*
X60960000Y-109855000D03*
X57800000Y-116825000D03*
X63500000Y-107950000D03*
X60905000Y-125095000D03*
X63500000Y-109855000D03*
X66675000Y-123275000D03*
X66630000Y-111805000D03*
X214600000Y-88295000D03*
X214660000Y-85695000D03*
X219030000Y-88945000D03*
X219060000Y-86345000D03*
X212090000Y-91780000D03*
X215900000Y-86995000D03*
X220375000Y-93315000D03*
X215942500Y-88222500D03*
X216000000Y-92710000D03*
X213330000Y-95915000D03*
X219030000Y-96565000D03*
X215915000Y-93965000D03*
X219195001Y-92589999D03*
X219060000Y-95265000D03*
X215930000Y-100935000D03*
X213330000Y-103535000D03*
X219060000Y-101585000D03*
X219030000Y-104185000D03*
X213360000Y-102235000D03*
X210215000Y-108555000D03*
X224064999Y-102960001D03*
X212090000Y-107020000D03*
X223505000Y-93965000D03*
X223490000Y-100935000D03*
X226060000Y-104140000D03*
X194340000Y-85695000D03*
X194280000Y-88295000D03*
X198710000Y-88945000D03*
X198740000Y-86345000D03*
X191770000Y-91780000D03*
X195580000Y-86995000D03*
X195622500Y-88222500D03*
X200055000Y-93315000D03*
X195680000Y-92710000D03*
X193010000Y-95915000D03*
X198710000Y-96565000D03*
X195595000Y-93965000D03*
X198875001Y-92589999D03*
X198740000Y-95265000D03*
X193010000Y-93315000D03*
X195580000Y-96520000D03*
X210185000Y-109658002D03*
X229235000Y-94615000D03*
X229205000Y-111155000D03*
X205740000Y-111125000D03*
X226060000Y-111125000D03*
X215900000Y-109855000D03*
X200070000Y-107905000D03*
X208915000Y-94615000D03*
X205740000Y-104140000D03*
X203170000Y-100935000D03*
X203185000Y-93965000D03*
X195610000Y-100935000D03*
X193010000Y-103535000D03*
X198740000Y-101585000D03*
X198710000Y-104185000D03*
X189895000Y-108555000D03*
X193040000Y-102235000D03*
X191770000Y-107020000D03*
X203744999Y-102960001D03*
X195580000Y-109855000D03*
X203170000Y-108555000D03*
X189865000Y-109658002D03*
X203835000Y-116205000D03*
X226060000Y-109220000D03*
X215930000Y-118775000D03*
X208885000Y-111155000D03*
X220375000Y-111155000D03*
X205740000Y-109220000D03*
X210930000Y-114300000D03*
X200055000Y-111155000D03*
X213340000Y-116860000D03*
X215970000Y-116840000D03*
X201930000Y-114640000D03*
X210215000Y-118775000D03*
X192995000Y-115525000D03*
X205740000Y-116840000D03*
X193040000Y-117475000D03*
X172690000Y-93315000D03*
X175260000Y-96520000D03*
X159385000Y-118745000D03*
X195580000Y-120015000D03*
X180975000Y-98425000D03*
X174020000Y-85695000D03*
X173960000Y-88295000D03*
X178390000Y-88945000D03*
X178420000Y-86345000D03*
X171450000Y-91780000D03*
X175260000Y-86995000D03*
X175302500Y-88222500D03*
X179735000Y-93315000D03*
X175360000Y-92710000D03*
X172690000Y-95915000D03*
X178390000Y-96565000D03*
X175275000Y-93965000D03*
X178555001Y-92589999D03*
X178420000Y-95265000D03*
X175290000Y-100935000D03*
X172690000Y-103535000D03*
X178420000Y-101585000D03*
X178390000Y-104185000D03*
X169575000Y-108555000D03*
X172720000Y-102235000D03*
X171450000Y-107020000D03*
X183424999Y-102960001D03*
X185420000Y-104140000D03*
X182850000Y-100935000D03*
X182865000Y-93965000D03*
X153700000Y-85695000D03*
X153640000Y-88295000D03*
X158070000Y-88945000D03*
X158100000Y-86345000D03*
X151130000Y-91780000D03*
X154940000Y-86995000D03*
X154982500Y-88222500D03*
X161930001Y-91445001D03*
X155040000Y-92710000D03*
X152370000Y-95915000D03*
X158070000Y-96565000D03*
X154955000Y-93965000D03*
X158235001Y-92589999D03*
X158100000Y-95265000D03*
X169545000Y-109658002D03*
X152370000Y-93315000D03*
X154940000Y-96520000D03*
X188565000Y-111155000D03*
X188595000Y-94615000D03*
X175260000Y-109855000D03*
X165100000Y-111125000D03*
X185420000Y-111125000D03*
X159430000Y-107905000D03*
X168275000Y-94615000D03*
X165100000Y-104140000D03*
X162530000Y-100935000D03*
X162545000Y-93965000D03*
X154970000Y-100935000D03*
X152370000Y-103535000D03*
X158100000Y-101585000D03*
X158070000Y-104185000D03*
X149255000Y-108555000D03*
X152400000Y-102235000D03*
X151130000Y-107020000D03*
X163104999Y-102960001D03*
X154940000Y-109855000D03*
X162530000Y-108555000D03*
X163195000Y-116205000D03*
X149225000Y-109658002D03*
X175290000Y-118775000D03*
X185420000Y-109220000D03*
X168245000Y-111155000D03*
X179735000Y-111155000D03*
X170290000Y-114300000D03*
X165100000Y-109220000D03*
X159415000Y-111155000D03*
X172700000Y-116860000D03*
X161290000Y-114640000D03*
X175330000Y-116840000D03*
X152355000Y-115525000D03*
X169575000Y-118775000D03*
X152400000Y-117475000D03*
X165100000Y-116840000D03*
X154940000Y-120015000D03*
X132050000Y-93315000D03*
X134620000Y-96520000D03*
X118745000Y-118645000D03*
X133380000Y-85695000D03*
X133320000Y-88295000D03*
X137750000Y-88945000D03*
X137780000Y-86345000D03*
X130810000Y-91780000D03*
X134620000Y-86995000D03*
X134662500Y-88222500D03*
X139095000Y-93315000D03*
X134720000Y-92710000D03*
X132050000Y-95915000D03*
X137750000Y-96565000D03*
X134635000Y-93965000D03*
X137915001Y-92589999D03*
X137780000Y-95265000D03*
X134650000Y-100935000D03*
X132050000Y-103535000D03*
X137780000Y-101585000D03*
X137750000Y-104185000D03*
X128935000Y-108555000D03*
X132080000Y-102235000D03*
X130810000Y-107020000D03*
X142784999Y-102960001D03*
X144780000Y-104140000D03*
X142210000Y-100935000D03*
X142225000Y-93965000D03*
X113060000Y-85695000D03*
X113000000Y-88295000D03*
X117430000Y-88945000D03*
X117460000Y-86345000D03*
X110490000Y-91780000D03*
X114300000Y-86995000D03*
X114342500Y-88222500D03*
X121290001Y-90810001D03*
X114400000Y-92710000D03*
X111730000Y-95915000D03*
X117430000Y-96565000D03*
X114315000Y-93965000D03*
X117595001Y-92589999D03*
X117460000Y-95265000D03*
X128905000Y-109658002D03*
X111730000Y-93315000D03*
X114300000Y-96520000D03*
X147925000Y-111155000D03*
X147955000Y-94615000D03*
X134620000Y-109855000D03*
X124460000Y-111125000D03*
X144780000Y-111125000D03*
X118790000Y-107905000D03*
X127635000Y-94615000D03*
X124460000Y-104140000D03*
X121890000Y-100935000D03*
X121905000Y-93965000D03*
X114330000Y-100935000D03*
X111730000Y-103535000D03*
X117460000Y-101585000D03*
X117430000Y-104185000D03*
X108615000Y-108555000D03*
X111760000Y-102235000D03*
X110490000Y-107020000D03*
X122464999Y-102960001D03*
X114300000Y-109855000D03*
X121890000Y-108555000D03*
X122555000Y-116205000D03*
X108585000Y-109658002D03*
X134650000Y-118775000D03*
X144780000Y-109220000D03*
X142240000Y-113030000D03*
X127605000Y-111155000D03*
X139095000Y-111155000D03*
X129650000Y-114300000D03*
X124460000Y-109220000D03*
X118775000Y-111155000D03*
X132060000Y-116860000D03*
X120650000Y-114640000D03*
X134690000Y-116840000D03*
X111715000Y-115525000D03*
X128935000Y-118775000D03*
X111760000Y-117475000D03*
X124460000Y-116840000D03*
X114300000Y-120015000D03*
X91410000Y-93315000D03*
X93980000Y-96520000D03*
X78105000Y-118645000D03*
X87539999Y-97880001D03*
X92740000Y-85695000D03*
X92680000Y-88295000D03*
X97110000Y-88945000D03*
X97140000Y-86345000D03*
X90170000Y-91780000D03*
X93980000Y-86995000D03*
X94022500Y-88222500D03*
X98455000Y-93315000D03*
X94080000Y-92710000D03*
X91410000Y-95915000D03*
X97110000Y-96565000D03*
X93995000Y-93965000D03*
X97275001Y-92589999D03*
X97140000Y-95265000D03*
X94010000Y-100935000D03*
X91410000Y-103535000D03*
X97140000Y-101585000D03*
X97110000Y-104185000D03*
X88295000Y-108555000D03*
X91440000Y-102235000D03*
X90170000Y-107020000D03*
X102144999Y-102960001D03*
X104140000Y-104140000D03*
X101570000Y-100935000D03*
X101585000Y-93965000D03*
X72420000Y-85695000D03*
X72360000Y-88295000D03*
X76790000Y-88945000D03*
X76820000Y-86345000D03*
X69850000Y-91780000D03*
X73660000Y-86995000D03*
X73702500Y-88222500D03*
X80650001Y-91445001D03*
X73760000Y-92710000D03*
X71090000Y-95915000D03*
X76790000Y-96565000D03*
X73675000Y-93965000D03*
X76955001Y-92589999D03*
X76820000Y-95265000D03*
X88265000Y-109658002D03*
X71090000Y-93315000D03*
X73660000Y-96520000D03*
X107285000Y-111155000D03*
X107315000Y-94615000D03*
X93980000Y-109855000D03*
X83820000Y-111125000D03*
X104140000Y-111125000D03*
X78150000Y-107905000D03*
X86995000Y-94615000D03*
X83820000Y-104140000D03*
X81250000Y-100935000D03*
X81265000Y-93965000D03*
X73690000Y-100935000D03*
X71090000Y-103535000D03*
X76820000Y-101585000D03*
X76790000Y-104185000D03*
X67975000Y-108555000D03*
X71120000Y-102235000D03*
X69850000Y-107020000D03*
X81824999Y-102960001D03*
X73660000Y-109855000D03*
X81250000Y-108555000D03*
X81915000Y-116205000D03*
X67945000Y-109658002D03*
X94010000Y-118775000D03*
X104140000Y-109220000D03*
X86965000Y-111155000D03*
X98455000Y-111155000D03*
X89010000Y-114300000D03*
X83820000Y-109220000D03*
X78135000Y-111155000D03*
X91420000Y-116860000D03*
X80010000Y-114640000D03*
X94050000Y-116840000D03*
X71075000Y-115525000D03*
X88295000Y-118775000D03*
X71120000Y-117475000D03*
X83820000Y-116840000D03*
X73660000Y-120015000D03*
X243205000Y-109855000D03*
X228600000Y-46990000D03*
X241300000Y-147320000D03*
D17*
X84074000Y-132080000D02*
X83890000Y-132080000D01*
X100203000Y-148209000D02*
X84074000Y-132080000D01*
X71519999Y-133114999D02*
X71120000Y-132715000D01*
X82855001Y-133114999D02*
X71519999Y-133114999D01*
X83890000Y-132080000D02*
X82855001Y-133114999D01*
X114217999Y-146983999D02*
X114217999Y-145967999D01*
X115443000Y-148209000D02*
X114217999Y-146983999D01*
X114217999Y-145967999D02*
X106045000Y-137795000D01*
X106045000Y-137795000D02*
X106045000Y-137795000D01*
X125195000Y-131415000D02*
X124530000Y-132080000D01*
X134650000Y-131415000D02*
X125195000Y-131415000D01*
X130638001Y-140601003D02*
X130638001Y-146983999D01*
X130312999Y-147309001D02*
X129413000Y-148209000D01*
X130638001Y-146983999D02*
X130312999Y-147309001D01*
X123749999Y-133713001D02*
X130638001Y-140601003D01*
X123749999Y-132860001D02*
X123749999Y-133713001D01*
X124530000Y-132080000D02*
X123749999Y-132860001D01*
X145249999Y-132479999D02*
X144850000Y-132080000D01*
X145878001Y-133108001D02*
X145249999Y-132479999D01*
X145878001Y-146983999D02*
X145878001Y-133108001D01*
X144653000Y-148209000D02*
X145878001Y-146983999D01*
X160792999Y-147309001D02*
X159893000Y-148209000D01*
X164389999Y-143712001D02*
X160792999Y-147309001D01*
X164389999Y-132860001D02*
X164389999Y-143712001D01*
X165170000Y-132080000D02*
X164389999Y-132860001D01*
X149609999Y-132965001D02*
X149210000Y-133365000D01*
X151885001Y-130689999D02*
X149609999Y-132965001D01*
X163779999Y-130689999D02*
X151885001Y-130689999D01*
X165170000Y-132080000D02*
X163779999Y-130689999D01*
X184709999Y-138632001D02*
X176032999Y-147309001D01*
X176032999Y-147309001D02*
X175133000Y-148209000D01*
X184709999Y-132860001D02*
X184709999Y-138632001D01*
X185490000Y-132080000D02*
X184709999Y-132860001D01*
X205029999Y-132860001D02*
X205029999Y-133552001D01*
X191272999Y-147309001D02*
X190373000Y-148209000D01*
X205029999Y-133552001D02*
X191272999Y-147309001D01*
X205810000Y-132080000D02*
X205029999Y-132860001D01*
X225730001Y-131680001D02*
X226130000Y-132080000D01*
X222229999Y-128179999D02*
X225730001Y-131680001D01*
X212655685Y-129880000D02*
X214355686Y-128179999D01*
X214355686Y-128179999D02*
X222229999Y-128179999D01*
X212090000Y-129880000D02*
X212655685Y-129880000D01*
X227165000Y-131045000D02*
X249220000Y-131045000D01*
X226130000Y-132080000D02*
X227165000Y-131045000D01*
X217678000Y-145669000D02*
X211582000Y-151765000D01*
X62002588Y-151765000D02*
X53340000Y-143102412D01*
X211582000Y-151765000D02*
X62002588Y-151765000D01*
X53340000Y-143102412D02*
X53340000Y-140335000D01*
X155324999Y-126144999D02*
X154925000Y-125745000D01*
X156300001Y-127120001D02*
X155324999Y-126144999D01*
X166884999Y-127120001D02*
X156300001Y-127120001D01*
X168910000Y-125095000D02*
X166884999Y-127120001D01*
X72934999Y-125034999D02*
X72934999Y-122010001D01*
X73645000Y-125745000D02*
X72934999Y-125034999D01*
X72934999Y-122010001D02*
X72934999Y-122010001D01*
X225434314Y-133289999D02*
X223459999Y-133289999D01*
X226075000Y-133365000D02*
X225509315Y-133365000D01*
X225509315Y-133365000D02*
X225434314Y-133289999D01*
X223459999Y-133289999D02*
X219075000Y-128905000D01*
X219075000Y-128905000D02*
X219075000Y-128905000D01*
X218509315Y-128905000D02*
X219075000Y-128905000D01*
X216731998Y-128905000D02*
X218509315Y-128905000D01*
X212271998Y-133365000D02*
X216731998Y-128905000D01*
X205755000Y-133365000D02*
X212271998Y-133365000D01*
X186675000Y-133365000D02*
X189230000Y-130810000D01*
X185435000Y-133365000D02*
X186675000Y-133365000D01*
X179998003Y-122985001D02*
X175055001Y-122985001D01*
X180460001Y-123446999D02*
X179998003Y-122985001D01*
X180460001Y-124413003D02*
X180460001Y-123446999D01*
X185420000Y-127733002D02*
X183780000Y-127733002D01*
X183780000Y-127733002D02*
X180460001Y-124413003D01*
X175055001Y-122985001D02*
X174625000Y-122555000D01*
X174625000Y-122555000D02*
X174625000Y-122555000D01*
X186215001Y-131731999D02*
X186215001Y-132584999D01*
X183566998Y-130320000D02*
X184803002Y-130320000D01*
X183281997Y-130605001D02*
X183566998Y-130320000D01*
X181261999Y-130605001D02*
X183281997Y-130605001D01*
X185834999Y-132965001D02*
X185435000Y-133365000D01*
X180106997Y-129449999D02*
X181261999Y-130605001D01*
X178721999Y-129449999D02*
X180106997Y-129449999D01*
X186215001Y-132584999D02*
X185834999Y-132965001D01*
X184803002Y-130320000D02*
X186215001Y-131731999D01*
X178344999Y-129826999D02*
X178721999Y-129449999D01*
X178344999Y-130263591D02*
X178344999Y-129826999D01*
X174518589Y-134090001D02*
X178344999Y-130263591D01*
X165840001Y-134090001D02*
X174518589Y-134090001D01*
X165115000Y-133365000D02*
X165840001Y-134090001D01*
X154359315Y-125745000D02*
X154925000Y-125745000D01*
X150949316Y-129154999D02*
X154359315Y-125745000D01*
X142784999Y-131998997D02*
X145628997Y-129154999D01*
X145628997Y-129154999D02*
X150949316Y-129154999D01*
X142784999Y-132694999D02*
X142784999Y-131998997D01*
X143455000Y-133365000D02*
X142784999Y-132694999D01*
X144795000Y-133365000D02*
X143455000Y-133365000D01*
X124874999Y-132965001D02*
X124475000Y-133365000D01*
X125200001Y-132639999D02*
X124874999Y-132965001D01*
X132413001Y-132639999D02*
X125200001Y-132639999D01*
X135163003Y-135390001D02*
X132413001Y-132639999D01*
X142204314Y-135390001D02*
X135163003Y-135390001D01*
X144229315Y-133365000D02*
X142204314Y-135390001D01*
X144795000Y-133365000D02*
X144229315Y-133365000D01*
X104155000Y-133365000D02*
X107950000Y-129570000D01*
X107950000Y-129570000D02*
X107950000Y-128270000D01*
X229295000Y-136585000D02*
X249220000Y-136585000D01*
X226075000Y-133365000D02*
X229295000Y-136585000D01*
X83835000Y-139812000D02*
X77978000Y-145669000D01*
X83835000Y-133365000D02*
X83835000Y-139812000D01*
X61253001Y-125820001D02*
X55789999Y-125820001D01*
X61728001Y-125345001D02*
X61253001Y-125820001D01*
X73645000Y-125745000D02*
X73245001Y-125345001D01*
X73245001Y-125345001D02*
X61728001Y-125345001D01*
X219060000Y-72405000D02*
X219060000Y-80025000D01*
X198740000Y-72405000D02*
X198740000Y-80025000D01*
X178420000Y-72405000D02*
X178420000Y-80025000D01*
X158100000Y-72405000D02*
X158100000Y-80025000D01*
X137780000Y-72405000D02*
X137780000Y-80025000D01*
X117460000Y-72405000D02*
X117460000Y-80025000D01*
X97140000Y-72405000D02*
X97140000Y-80025000D01*
X76820000Y-72405000D02*
X76820000Y-80025000D01*
X249220000Y-139355000D02*
X241645000Y-139355000D01*
X241645000Y-139355000D02*
X241645000Y-139355000D01*
X78060001Y-47580001D02*
X76835000Y-46355000D01*
X61670001Y-71679999D02*
X61670001Y-70946997D01*
X61670001Y-70946997D02*
X64421999Y-68194999D01*
X60945000Y-72405000D02*
X61670001Y-71679999D01*
X64421999Y-68194999D02*
X64520001Y-68194999D01*
X78060001Y-54654999D02*
X78060001Y-47580001D01*
X64520001Y-68194999D02*
X78060001Y-54654999D01*
X229220000Y-72405000D02*
X229220000Y-80025000D01*
X208900000Y-72405000D02*
X208900000Y-80025000D01*
X188580000Y-72405000D02*
X188580000Y-80025000D01*
X168260000Y-72405000D02*
X168260000Y-80025000D01*
X147940000Y-72405000D02*
X147940000Y-80025000D01*
X127620000Y-72405000D02*
X127620000Y-80025000D01*
X107300000Y-72405000D02*
X107300000Y-80025000D01*
X86980000Y-72405000D02*
X86980000Y-80025000D01*
X61314999Y-69405001D02*
X60915000Y-69805000D01*
X75609999Y-55110001D02*
X61314999Y-69405001D01*
X75609999Y-35515001D02*
X75609999Y-55110001D01*
X76835000Y-34290000D02*
X75609999Y-35515001D01*
X249220000Y-142125000D02*
X240145000Y-142125000D01*
X240145000Y-142125000D02*
X240145000Y-142125000D01*
X240145000Y-112510000D02*
X231140000Y-103505000D01*
X231140000Y-81945000D02*
X229220000Y-80025000D01*
X231140000Y-103505000D02*
X231140000Y-81945000D01*
X225933000Y-145669000D02*
X248031000Y-145669000D01*
X247511370Y-135200000D02*
X246380000Y-135200000D01*
X250345001Y-135525001D02*
X250020000Y-135200000D01*
X250345001Y-143354999D02*
X250345001Y-135525001D01*
X250020000Y-135200000D02*
X247511370Y-135200000D01*
X248031000Y-145669000D02*
X250345001Y-143354999D01*
X247511370Y-110270000D02*
X246380000Y-110270000D01*
X249500002Y-110270000D02*
X247511370Y-110270000D01*
X250345001Y-111114999D02*
X249500002Y-110270000D01*
X250345001Y-134464999D02*
X250345001Y-111114999D01*
X249610000Y-135200000D02*
X250345001Y-134464999D01*
X246380000Y-135200000D02*
X249610000Y-135200000D01*
X93514315Y-130810000D02*
X94080000Y-130810000D01*
X92906998Y-130810000D02*
X93514315Y-130810000D01*
X90699999Y-133713001D02*
X90699999Y-133016999D01*
X90699999Y-133016999D02*
X92906998Y-130810000D01*
X105195998Y-148209000D02*
X90699999Y-133713001D01*
X107823000Y-148209000D02*
X105195998Y-148209000D01*
X117475000Y-129540000D02*
X117475000Y-131445000D01*
X117475000Y-131445000D02*
X117792500Y-131762500D01*
X132065000Y-143241000D02*
X132065000Y-133365000D01*
X137033000Y-148209000D02*
X132065000Y-143241000D01*
X153498001Y-146983999D02*
X153172999Y-147309001D01*
X153172999Y-147309001D02*
X152273000Y-148209000D01*
X153498001Y-136001999D02*
X153498001Y-146983999D01*
X158085000Y-131415000D02*
X153498001Y-136001999D01*
X175486998Y-124686998D02*
X175260000Y-124686998D01*
X179070000Y-128270000D02*
X175486998Y-124686998D01*
X168412999Y-147309001D02*
X167513000Y-148209000D01*
X177664999Y-138057001D02*
X168412999Y-147309001D01*
X177664999Y-131580001D02*
X177664999Y-138057001D01*
X179070000Y-130175000D02*
X177664999Y-131580001D01*
X191770000Y-139192000D02*
X182753000Y-148209000D01*
X191770000Y-129880000D02*
X191770000Y-139192000D01*
X198501000Y-148209000D02*
X197993000Y-148209000D01*
X213345000Y-133365000D02*
X198501000Y-148209000D01*
X165348185Y-125412500D02*
X164782500Y-125412500D01*
X166890684Y-123870001D02*
X165348185Y-125412500D01*
X179094314Y-123870001D02*
X166890684Y-123870001D01*
X179169315Y-123795000D02*
X179094314Y-123870001D01*
X179735000Y-123795000D02*
X179169315Y-123795000D01*
X246380000Y-137970000D02*
X238300000Y-137970000D01*
X238300000Y-137970000D02*
X238300000Y-137970000D01*
X61468000Y-145669000D02*
X61468000Y-136652000D01*
X69297499Y-128822501D02*
X83102501Y-128822501D01*
X61468000Y-136652000D02*
X69297499Y-128822501D01*
X60611999Y-73750001D02*
X61595000Y-74733002D01*
X53249999Y-73750001D02*
X60611999Y-73750001D01*
X57785000Y-57785000D02*
X57785000Y-64135000D01*
X67354999Y-33701999D02*
X68442009Y-32614989D01*
X218672810Y-32614990D02*
X233045000Y-46987180D01*
X68442009Y-32614989D02*
X218672810Y-32614990D01*
X233045000Y-46987180D02*
X233045000Y-100330000D01*
X233045000Y-100330000D02*
X235585000Y-102870000D01*
X235585000Y-102870000D02*
X235585000Y-102870000D01*
X67354999Y-45129999D02*
X68580000Y-46355000D01*
X67354999Y-33701999D02*
X67354999Y-45129999D01*
X57785000Y-57150000D02*
X57785000Y-57785000D01*
X68580000Y-46355000D02*
X57785000Y-57150000D01*
X246380000Y-140740000D02*
X238530000Y-140740000D01*
X238530000Y-140740000D02*
X236855000Y-139065000D01*
X236855000Y-139065000D02*
X236855000Y-139065000D01*
X68580000Y-34290000D02*
X71120000Y-36830000D01*
X71120000Y-51980000D02*
X60915000Y-62185000D01*
X71120000Y-36830000D02*
X71120000Y-51980000D01*
X218486409Y-33064999D02*
X232410000Y-46988590D01*
X68580000Y-34290000D02*
X69805001Y-33064999D01*
X69805001Y-33064999D02*
X218486409Y-33064999D01*
X232410000Y-46988590D02*
X232410000Y-101600000D01*
X232410000Y-101600000D02*
X233680000Y-102870000D01*
X233680000Y-102870000D02*
X233680000Y-102870000D01*
X246380000Y-143510000D02*
X237490000Y-143510000D01*
X237490000Y-143510000D02*
X234950000Y-140970000D01*
X234950000Y-140970000D02*
X234950000Y-140970000D01*
X222250000Y-38735000D02*
X224125000Y-40610000D01*
X224125000Y-40610000D02*
X224125000Y-65435000D01*
X198120000Y-36830000D02*
X200025000Y-38735000D01*
X200025000Y-38735000D02*
X222250000Y-38735000D01*
X203805000Y-57274998D02*
X203805000Y-64869315D01*
X184260001Y-37729999D02*
X203805000Y-57274998D01*
X183779999Y-37729999D02*
X184260001Y-37729999D01*
X203805000Y-64869315D02*
X203805000Y-65435000D01*
X182880000Y-36830000D02*
X183779999Y-37729999D01*
X167640000Y-36830000D02*
X174625000Y-43815000D01*
X174625000Y-43815000D02*
X175895000Y-43815000D01*
X175895000Y-43815000D02*
X179705000Y-47625000D01*
X179705000Y-61655000D02*
X183485000Y-65435000D01*
X179705000Y-47625000D02*
X179705000Y-61655000D01*
X153299999Y-37729999D02*
X155839999Y-37729999D01*
X152400000Y-36830000D02*
X153299999Y-37729999D01*
X157480000Y-39370000D02*
X158750000Y-39370000D01*
X155839999Y-37729999D02*
X157480000Y-39370000D01*
X163165000Y-43785000D02*
X163165000Y-65435000D01*
X158750000Y-39370000D02*
X163165000Y-43785000D01*
X138059999Y-37729999D02*
X139329999Y-37729999D01*
X137160000Y-36830000D02*
X138059999Y-37729999D01*
X139329999Y-37729999D02*
X148590000Y-46990000D01*
X148590000Y-46990000D02*
X148590000Y-57785000D01*
X148590000Y-57785000D02*
X147320000Y-59055000D01*
X142845000Y-64869315D02*
X142845000Y-65435000D01*
X146791998Y-59055000D02*
X142845000Y-63001998D01*
X142845000Y-63001998D02*
X142845000Y-64869315D01*
X147320000Y-59055000D02*
X146791998Y-59055000D01*
X122819999Y-37729999D02*
X126629999Y-37729999D01*
X121920000Y-36830000D02*
X122819999Y-37729999D01*
X126629999Y-37729999D02*
X133350000Y-44450000D01*
X122525000Y-64869315D02*
X122525000Y-65435000D01*
X122525000Y-63001998D02*
X122525000Y-64869315D01*
X133350000Y-52176998D02*
X122525000Y-63001998D01*
X133350000Y-44450000D02*
X133350000Y-52176998D01*
X106680000Y-36830000D02*
X111760000Y-36830000D01*
X111760000Y-36830000D02*
X117475000Y-42545000D01*
X102205000Y-64869315D02*
X102205000Y-65435000D01*
X102205000Y-63001998D02*
X102205000Y-64869315D01*
X117475000Y-47731998D02*
X102205000Y-63001998D01*
X117475000Y-42545000D02*
X117475000Y-47731998D01*
X92339999Y-37729999D02*
X97419999Y-37729999D01*
X91440000Y-36830000D02*
X92339999Y-37729999D01*
X97419999Y-37729999D02*
X102870000Y-43180000D01*
X81885000Y-64869315D02*
X81885000Y-65435000D01*
X81885000Y-63001998D02*
X81885000Y-64869315D01*
X84311999Y-60574999D02*
X81885000Y-63001998D01*
X89193003Y-60574999D02*
X84311999Y-60574999D01*
X102870000Y-46898002D02*
X89193003Y-60574999D01*
X102870000Y-43180000D02*
X102870000Y-46898002D01*
X198120000Y-48895000D02*
X199390000Y-50165000D01*
X199390000Y-50165000D02*
X210820000Y-50165000D01*
X213965000Y-53310000D02*
X213965000Y-65435000D01*
X210820000Y-50165000D02*
X213965000Y-53310000D01*
X193645000Y-59660000D02*
X193645000Y-65435000D01*
X182880000Y-48895000D02*
X193645000Y-59660000D01*
X173325000Y-54580000D02*
X173325000Y-65435000D01*
X167640000Y-48895000D02*
X173325000Y-54580000D01*
X153005000Y-49500000D02*
X152400000Y-48895000D01*
X153005000Y-65435000D02*
X153005000Y-49500000D01*
X137160000Y-48895000D02*
X137160000Y-57150000D01*
X132685000Y-61625000D02*
X132685000Y-65435000D01*
X137160000Y-57150000D02*
X132685000Y-61625000D01*
X112365000Y-58450000D02*
X112365000Y-65435000D01*
X121920000Y-48895000D02*
X112365000Y-58450000D01*
X92045000Y-64869315D02*
X92045000Y-65435000D01*
X92045000Y-62257208D02*
X92045000Y-64869315D01*
X105407208Y-48895000D02*
X92045000Y-62257208D01*
X106680000Y-48895000D02*
X105407208Y-48895000D01*
X71725000Y-64869315D02*
X71725000Y-65435000D01*
X71725000Y-63001998D02*
X71725000Y-64869315D01*
X81915000Y-58420000D02*
X76306998Y-58420000D01*
X76306998Y-58420000D02*
X71725000Y-63001998D01*
X91440000Y-48895000D02*
X81915000Y-58420000D01*
X226015000Y-41230000D02*
X226015000Y-62185000D01*
X205740000Y-36830000D02*
X221615000Y-36830000D01*
X221615000Y-36830000D02*
X226015000Y-41230000D01*
X190500000Y-36830000D02*
X194945000Y-41275000D01*
X194945000Y-47533002D02*
X200751998Y-53340000D01*
X194945000Y-41275000D02*
X194945000Y-47533002D01*
X200751998Y-53340000D02*
X204470000Y-53340000D01*
X205695000Y-54565000D02*
X205695000Y-62185000D01*
X204470000Y-53340000D02*
X205695000Y-54565000D01*
X175260000Y-36830000D02*
X180975000Y-42545000D01*
X180975000Y-57785000D02*
X185375000Y-62185000D01*
X180975000Y-42545000D02*
X180975000Y-57785000D01*
X165055000Y-41865000D02*
X165055000Y-62185000D01*
X160020000Y-36830000D02*
X165055000Y-41865000D01*
X144780000Y-36830000D02*
X145679999Y-37729999D01*
X149860000Y-58563002D02*
X146238002Y-62185000D01*
X145300685Y-62185000D02*
X144735000Y-62185000D01*
X146238002Y-62185000D02*
X145300685Y-62185000D01*
X145679999Y-37729999D02*
X145679999Y-38999999D01*
X145679999Y-38999999D02*
X149860000Y-43180000D01*
X149860000Y-43180000D02*
X149860000Y-58563002D01*
X129540000Y-36830000D02*
X134620000Y-41910000D01*
X124980685Y-62185000D02*
X124415000Y-62185000D01*
X125918002Y-62185000D02*
X124980685Y-62185000D01*
X134620000Y-53483002D02*
X125918002Y-62185000D01*
X134620000Y-41910000D02*
X134620000Y-53483002D01*
X107993590Y-62185000D02*
X104095000Y-62185000D01*
X119380000Y-50798590D02*
X107993590Y-62185000D01*
X114300000Y-36830000D02*
X119380000Y-41910000D01*
X119380000Y-41910000D02*
X119380000Y-50798590D01*
X99060000Y-36830000D02*
X104140000Y-41910000D01*
X104140000Y-41910000D02*
X104140000Y-48895000D01*
X90850000Y-62185000D02*
X83775000Y-62185000D01*
X104140000Y-48895000D02*
X90850000Y-62185000D01*
X215855000Y-52660000D02*
X215855000Y-62185000D01*
X205740000Y-48895000D02*
X212090000Y-48895000D01*
X212090000Y-48895000D02*
X215855000Y-52660000D01*
X195535000Y-53930000D02*
X195535000Y-62185000D01*
X190500000Y-48895000D02*
X195535000Y-53930000D01*
X175260000Y-62140000D02*
X175215000Y-62185000D01*
X175260000Y-48895000D02*
X175260000Y-62140000D01*
X154895000Y-54020000D02*
X154895000Y-62185000D01*
X160020000Y-48895000D02*
X154895000Y-54020000D01*
X135140685Y-62185000D02*
X134575000Y-62185000D01*
X136078002Y-62185000D02*
X135140685Y-62185000D01*
X143880001Y-54383001D02*
X136078002Y-62185000D01*
X143880001Y-49794999D02*
X143880001Y-54383001D01*
X144780000Y-48895000D02*
X143880001Y-49794999D01*
X116250000Y-62185000D02*
X114255000Y-62185000D01*
X129540000Y-48895000D02*
X116250000Y-62185000D01*
X101010000Y-62185000D02*
X93935000Y-62185000D01*
X114300000Y-48895000D02*
X101010000Y-62185000D01*
X79963002Y-62185000D02*
X74180685Y-62185000D01*
X92353003Y-49794999D02*
X79963002Y-62185000D01*
X98160001Y-49794999D02*
X92353003Y-49794999D01*
X74180685Y-62185000D02*
X73615000Y-62185000D01*
X99060000Y-48895000D02*
X98160001Y-49794999D01*
X149225000Y-126265000D02*
X148369999Y-127120001D01*
X70343185Y-128097500D02*
X86187500Y-128097500D01*
X67945000Y-126265000D02*
X68510685Y-126265000D01*
X68510685Y-126265000D02*
X70343185Y-128097500D01*
X86187500Y-128097500D02*
X87630000Y-129540000D01*
X87630000Y-129540000D02*
X87630000Y-129540000D01*
X190430685Y-126265000D02*
X189865000Y-126265000D01*
X194308002Y-126265000D02*
X190430685Y-126265000D01*
X200025000Y-131981998D02*
X194308002Y-126265000D01*
X200025000Y-133885000D02*
X200025000Y-131981998D01*
X137915001Y-127120001D02*
X139065000Y-128270000D01*
X128905000Y-126265000D02*
X129760001Y-127120001D01*
X129760001Y-127120001D02*
X137915001Y-127120001D01*
X143751004Y-128270000D02*
X144901003Y-127120001D01*
X144901003Y-127120001D02*
X148369999Y-127120001D01*
X139065000Y-128270000D02*
X143751004Y-128270000D01*
X127704315Y-128270000D02*
X128270000Y-128270000D01*
X123386998Y-128270000D02*
X127704315Y-128270000D01*
X118745000Y-132911998D02*
X123386998Y-128270000D01*
X118745000Y-133885000D02*
X118745000Y-132911998D01*
X104220684Y-128655001D02*
X106294999Y-128655001D01*
X98425000Y-133885000D02*
X98990685Y-133885000D01*
X98990685Y-133885000D02*
X104220684Y-128655001D01*
X106294999Y-128655001D02*
X106680000Y-128270000D01*
X106680000Y-128270000D02*
X106680000Y-128270000D01*
X200424999Y-126664999D02*
X200025000Y-126265000D01*
X215583001Y-127120001D02*
X200880001Y-127120001D01*
X217033003Y-125669999D02*
X215583001Y-127120001D01*
X200880001Y-127120001D02*
X200424999Y-126664999D01*
X220723001Y-125669999D02*
X217033003Y-125669999D01*
X221719502Y-126666500D02*
X220723001Y-125669999D01*
X225561502Y-126666500D02*
X221719502Y-126666500D01*
X225961501Y-126266501D02*
X225561502Y-126666500D01*
X119600001Y-127120001D02*
X119144999Y-126664999D01*
X124838001Y-127120001D02*
X119600001Y-127120001D01*
X130183003Y-126470001D02*
X129253001Y-125539999D01*
X134953001Y-126470001D02*
X130183003Y-126470001D01*
X135753003Y-125669999D02*
X134953001Y-126470001D01*
X119144999Y-126664999D02*
X118745000Y-126265000D01*
X139443001Y-125669999D02*
X135753003Y-125669999D01*
X140439502Y-126666500D02*
X139443001Y-125669999D01*
X126418003Y-125539999D02*
X124838001Y-127120001D01*
X144281502Y-126666500D02*
X140439502Y-126666500D01*
X129253001Y-125539999D02*
X126418003Y-125539999D01*
X144681501Y-126266501D02*
X144281502Y-126666500D01*
X104441500Y-126666500D02*
X104041501Y-126266501D01*
X104765001Y-126990001D02*
X104441500Y-126666500D01*
X118019999Y-126990001D02*
X104765001Y-126990001D01*
X118745000Y-126265000D02*
X118019999Y-126990001D01*
X78504999Y-126664999D02*
X78105000Y-126265000D01*
X78960001Y-127120001D02*
X78504999Y-126664999D01*
X103188001Y-127120001D02*
X78960001Y-127120001D01*
X104041501Y-126266501D02*
X103188001Y-127120001D01*
X70741999Y-130689999D02*
X77349999Y-130689999D01*
X68641997Y-132790001D02*
X70741999Y-130689999D01*
X67869999Y-132790001D02*
X68641997Y-132790001D01*
X66584999Y-134075001D02*
X67869999Y-132790001D01*
X69723000Y-145669000D02*
X66584999Y-142530999D01*
X66584999Y-142530999D02*
X66584999Y-134075001D01*
X77349999Y-130689999D02*
X77349999Y-130689999D01*
X63795000Y-75565000D02*
X64600000Y-74760000D01*
X53975000Y-75565000D02*
X63795000Y-75565000D01*
X210200000Y-72405000D02*
X210200000Y-80025000D01*
X189880000Y-72405000D02*
X189880000Y-80025000D01*
X169560000Y-72405000D02*
X169560000Y-80025000D01*
X149240000Y-72405000D02*
X149240000Y-80025000D01*
X128920000Y-72405000D02*
X128920000Y-80025000D01*
X108600000Y-79798002D02*
X108600000Y-80025000D01*
X108600000Y-72405000D02*
X108600000Y-79798002D01*
X88280000Y-72405000D02*
X88280000Y-80025000D01*
X67960000Y-72405000D02*
X67960000Y-80025000D01*
X220360000Y-72405000D02*
X220360000Y-80025000D01*
X200040000Y-72405000D02*
X200040000Y-80025000D01*
X179720000Y-72405000D02*
X179720000Y-80025000D01*
X159400000Y-72405000D02*
X159400000Y-80025000D01*
X139080000Y-72405000D02*
X139080000Y-80025000D01*
X118760000Y-72405000D02*
X118760000Y-80025000D01*
X98440000Y-72405000D02*
X98440000Y-80025000D01*
X78120000Y-72405000D02*
X78120000Y-80025000D01*
X221352500Y-76462500D02*
X221352500Y-73287500D01*
X226060000Y-68580000D02*
X226060000Y-63500000D01*
X221352500Y-73287500D02*
X226060000Y-68580000D01*
X201032500Y-76462500D02*
X201032500Y-73287500D01*
X205740000Y-68580000D02*
X205740000Y-63500000D01*
X201032500Y-73287500D02*
X205740000Y-68580000D01*
X180712500Y-76462500D02*
X180712500Y-70747500D01*
X185420000Y-66040000D02*
X185420000Y-63500000D01*
X180712500Y-70747500D02*
X185420000Y-66040000D01*
X160392500Y-76462500D02*
X160392500Y-71382500D01*
X165100000Y-66675000D02*
X165100000Y-63500000D01*
X160392500Y-71382500D02*
X165100000Y-66675000D01*
X140072500Y-76462500D02*
X140072500Y-70112500D01*
X144780000Y-65405000D02*
X144780000Y-63500000D01*
X140072500Y-70112500D02*
X144780000Y-65405000D01*
X119752500Y-76462500D02*
X119752500Y-70747500D01*
X124460000Y-66040000D02*
X124460000Y-63500000D01*
X119752500Y-70747500D02*
X124460000Y-66040000D01*
X99432500Y-76462500D02*
X99432500Y-72017500D01*
X104140000Y-67310000D02*
X104140000Y-63500000D01*
X99432500Y-72017500D02*
X104140000Y-67310000D01*
X79112500Y-76462500D02*
X79112500Y-71382500D01*
X83820000Y-66675000D02*
X83820000Y-63500000D01*
X79112500Y-71382500D02*
X83820000Y-66675000D01*
X211192500Y-76462500D02*
X211192500Y-72017500D01*
X215900000Y-67310000D02*
X215900000Y-63500000D01*
X211192500Y-72017500D02*
X215900000Y-67310000D01*
X190872500Y-76462500D02*
X190872500Y-72017500D01*
X195580000Y-67310000D02*
X195580000Y-63500000D01*
X190872500Y-72017500D02*
X195580000Y-67310000D01*
X170552500Y-76462500D02*
X170552500Y-70747500D01*
X175260000Y-66040000D02*
X175260000Y-63500000D01*
X170552500Y-70747500D02*
X175260000Y-66040000D01*
X150232500Y-76462500D02*
X150232500Y-70747500D01*
X154940000Y-66040000D02*
X154940000Y-63500000D01*
X150232500Y-70747500D02*
X154940000Y-66040000D01*
X129912500Y-76462500D02*
X129912500Y-72652500D01*
X134620000Y-67945000D02*
X134620000Y-63500000D01*
X129912500Y-72652500D02*
X134620000Y-67945000D01*
X109592500Y-76462500D02*
X109592500Y-72017500D01*
X114300000Y-67310000D02*
X114300000Y-63500000D01*
X109592500Y-72017500D02*
X114300000Y-67310000D01*
X89272500Y-76462500D02*
X89272500Y-71382500D01*
X93980000Y-66675000D02*
X93980000Y-63500000D01*
X89272500Y-71382500D02*
X93980000Y-66675000D01*
X68952500Y-76462500D02*
X68952500Y-71382500D01*
X73660000Y-66675000D02*
X73660000Y-63500000D01*
X68952500Y-71382500D02*
X73660000Y-66675000D01*
X223374999Y-82060001D02*
X220789999Y-84645001D01*
X220789999Y-84645001D02*
X220390000Y-85045000D01*
X223374999Y-74440001D02*
X223374999Y-82060001D01*
X226060000Y-71755000D02*
X223374999Y-74440001D01*
X226815001Y-81023001D02*
X226815001Y-80130001D01*
X226604999Y-81233003D02*
X226815001Y-81023001D01*
X226815001Y-80130001D02*
X226459999Y-79774999D01*
X226604999Y-85694999D02*
X226604999Y-81233003D01*
X226459999Y-79774999D02*
X226060000Y-79375000D01*
X229205000Y-88295000D02*
X226604999Y-85694999D01*
X215900000Y-102870000D02*
X213315000Y-100285000D01*
X215900000Y-104140000D02*
X215900000Y-102870000D01*
X228805001Y-88694999D02*
X229205000Y-88295000D01*
X226604999Y-90895001D02*
X228805001Y-88694999D01*
X226604999Y-91938003D02*
X226604999Y-90895001D01*
X218418001Y-100125001D02*
X226604999Y-91938003D01*
X214040684Y-100125001D02*
X218418001Y-100125001D01*
X213880685Y-100285000D02*
X214040684Y-100125001D01*
X213315000Y-100285000D02*
X213880685Y-100285000D01*
X203054999Y-82060001D02*
X200469999Y-84645001D01*
X203054999Y-74440001D02*
X203054999Y-82060001D01*
X200469999Y-84645001D02*
X200070000Y-85045000D01*
X205740000Y-71755000D02*
X203054999Y-74440001D01*
X195580000Y-102870000D02*
X192995000Y-100285000D01*
X195580000Y-104140000D02*
X195580000Y-102870000D01*
X206139999Y-79774999D02*
X205740000Y-79375000D01*
X207735001Y-81370001D02*
X206139999Y-79774999D01*
X207735001Y-87145001D02*
X207735001Y-81370001D01*
X208885000Y-88295000D02*
X207735001Y-87145001D01*
X208485001Y-88694999D02*
X208885000Y-88295000D01*
X206284999Y-90895001D02*
X208485001Y-88694999D01*
X206284999Y-91938003D02*
X206284999Y-90895001D01*
X197575001Y-100648001D02*
X206284999Y-91938003D01*
X197575001Y-102144999D02*
X197575001Y-100648001D01*
X195580000Y-104140000D02*
X197575001Y-102144999D01*
X182245000Y-74930000D02*
X185420000Y-71755000D01*
X182245000Y-83185000D02*
X182245000Y-74930000D01*
X175260000Y-102870000D02*
X172675000Y-100285000D01*
X175260000Y-104140000D02*
X175260000Y-102870000D01*
X187415001Y-81370001D02*
X185819999Y-79774999D01*
X185819999Y-79774999D02*
X185420000Y-79375000D01*
X187415001Y-87145001D02*
X187415001Y-81370001D01*
X188565000Y-88295000D02*
X187415001Y-87145001D01*
X187999315Y-88295000D02*
X188565000Y-88295000D01*
X180416997Y-95340001D02*
X187461998Y-88295000D01*
X187461998Y-88295000D02*
X187999315Y-88295000D01*
X180416997Y-95611005D02*
X180416997Y-95340001D01*
X178738001Y-97290001D02*
X180416997Y-95611005D01*
X175669999Y-97290001D02*
X178738001Y-97290001D01*
X172675000Y-100285000D02*
X175669999Y-97290001D01*
X161925000Y-74930000D02*
X165100000Y-71755000D01*
X161925000Y-83185000D02*
X161925000Y-74930000D01*
X154940000Y-102870000D02*
X152355000Y-100285000D01*
X154940000Y-104140000D02*
X154940000Y-102870000D01*
X167534999Y-87584999D02*
X167534999Y-81809999D01*
X165499999Y-79774999D02*
X165100000Y-79375000D01*
X167534999Y-81809999D02*
X165499999Y-79774999D01*
X168245000Y-88295000D02*
X167534999Y-87584999D01*
X167679315Y-88295000D02*
X168245000Y-88295000D01*
X161819999Y-93616999D02*
X167141998Y-88295000D01*
X167141998Y-88295000D02*
X167679315Y-88295000D01*
X161819999Y-94085001D02*
X161819999Y-93616999D01*
X156935001Y-98969999D02*
X161819999Y-94085001D01*
X156935001Y-102144999D02*
X156935001Y-98969999D01*
X154940000Y-104140000D02*
X156935001Y-102144999D01*
X144380001Y-72154999D02*
X144780000Y-71755000D01*
X141840001Y-74694999D02*
X144380001Y-72154999D01*
X141840001Y-83420001D02*
X141840001Y-74694999D01*
X142240000Y-83820000D02*
X141840001Y-83420001D01*
X134620000Y-102870000D02*
X132035000Y-100285000D01*
X134620000Y-104140000D02*
X134620000Y-102870000D01*
X145179999Y-79774999D02*
X144780000Y-79375000D01*
X147229999Y-81824999D02*
X145179999Y-79774999D01*
X147229999Y-87599999D02*
X147229999Y-81824999D01*
X147925000Y-88295000D02*
X147229999Y-87599999D01*
X146821998Y-88295000D02*
X147359315Y-88295000D01*
X147359315Y-88295000D02*
X147925000Y-88295000D01*
X139776997Y-95340001D02*
X146821998Y-88295000D01*
X139776997Y-95611005D02*
X139776997Y-95340001D01*
X138098001Y-97290001D02*
X139776997Y-95611005D01*
X135029999Y-97290001D02*
X138098001Y-97290001D01*
X132035000Y-100285000D02*
X135029999Y-97290001D01*
X121285000Y-74930000D02*
X124460000Y-71755000D01*
X121285000Y-83820000D02*
X121285000Y-74930000D01*
X114300000Y-102870000D02*
X111715000Y-100285000D01*
X114300000Y-104140000D02*
X114300000Y-102870000D01*
X124859999Y-79774999D02*
X124460000Y-79375000D01*
X126894999Y-81809999D02*
X124859999Y-79774999D01*
X126894999Y-87584999D02*
X126894999Y-81809999D01*
X127605000Y-88295000D02*
X126894999Y-87584999D01*
X126501998Y-88295000D02*
X127039315Y-88295000D01*
X119456997Y-95340001D02*
X126501998Y-88295000D01*
X127039315Y-88295000D02*
X127605000Y-88295000D01*
X111715000Y-100285000D02*
X112280685Y-100285000D01*
X119456997Y-96586005D02*
X119456997Y-95340001D01*
X115833003Y-100209999D02*
X119456997Y-96586005D01*
X112355686Y-100209999D02*
X115833003Y-100209999D01*
X112280685Y-100285000D02*
X112355686Y-100209999D01*
X100965000Y-74930000D02*
X104140000Y-71755000D01*
X100965000Y-83820000D02*
X100965000Y-74930000D01*
X98425000Y-107860000D02*
X98470000Y-107905000D01*
X98869999Y-107505001D02*
X98470000Y-107905000D01*
X98907502Y-107467498D02*
X98869999Y-107505001D01*
X98907502Y-95097502D02*
X98907502Y-107467498D01*
X98425000Y-94615000D02*
X98907502Y-95097502D01*
X93980000Y-102870000D02*
X91395000Y-100285000D01*
X93980000Y-104140000D02*
X93980000Y-102870000D01*
X104539999Y-79774999D02*
X104140000Y-79375000D01*
X106574999Y-87584999D02*
X106574999Y-81809999D01*
X106574999Y-81809999D02*
X104539999Y-79774999D01*
X107285000Y-88295000D02*
X106574999Y-87584999D01*
X106719315Y-88295000D02*
X107285000Y-88295000D01*
X106181998Y-88295000D02*
X106719315Y-88295000D01*
X106885001Y-88694999D02*
X107285000Y-88295000D01*
X99269401Y-89470011D02*
X106109989Y-89470011D01*
X95700010Y-93039402D02*
X99269401Y-89470011D01*
X106109989Y-89470011D02*
X106885001Y-88694999D01*
X95700010Y-95979990D02*
X95700010Y-93039402D01*
X91395000Y-100285000D02*
X95700010Y-95979990D01*
X80575685Y-74999315D02*
X83820000Y-71755000D01*
X80575685Y-83185000D02*
X80575685Y-74999315D01*
X73660000Y-102870000D02*
X71075000Y-100285000D01*
X73660000Y-104140000D02*
X73660000Y-102870000D01*
X84219999Y-79774999D02*
X83820000Y-79375000D01*
X86269999Y-81824999D02*
X84219999Y-79774999D01*
X86269999Y-87599999D02*
X86269999Y-81824999D01*
X86965000Y-88295000D02*
X86269999Y-87599999D01*
X86399315Y-88295000D02*
X86965000Y-88295000D01*
X85861998Y-88295000D02*
X86399315Y-88295000D01*
X80539999Y-93616999D02*
X85861998Y-88295000D01*
X80539999Y-93888003D02*
X80539999Y-93616999D01*
X77138001Y-97290001D02*
X80539999Y-93888003D01*
X74069999Y-97290001D02*
X77138001Y-97290001D01*
X71075000Y-100285000D02*
X74069999Y-97290001D01*
X214665001Y-81879999D02*
X210584999Y-85960001D01*
X210584999Y-85960001D02*
X210185000Y-86360000D01*
X214665001Y-72989999D02*
X214665001Y-81879999D01*
X215900000Y-71755000D02*
X214665001Y-72989999D01*
X225675001Y-95664999D02*
X226075000Y-95265000D01*
X224790000Y-96550000D02*
X225675001Y-95664999D01*
X224790000Y-107255000D02*
X224790000Y-96550000D01*
X223490000Y-108555000D02*
X224790000Y-107255000D01*
X216655001Y-80130001D02*
X216299999Y-79774999D01*
X216299999Y-79774999D02*
X215900000Y-79375000D01*
X216655001Y-82383003D02*
X216655001Y-80130001D01*
X220041999Y-85770001D02*
X216655001Y-82383003D01*
X222491999Y-85770001D02*
X220041999Y-85770001D01*
X224366998Y-87645000D02*
X222491999Y-85770001D01*
X226075000Y-87645000D02*
X224366998Y-87645000D01*
X222779999Y-90940001D02*
X225675001Y-88044999D01*
X222779999Y-94313001D02*
X222779999Y-90940001D01*
X218418001Y-98674999D02*
X222779999Y-94313001D01*
X225675001Y-88044999D02*
X226075000Y-87645000D01*
X211205001Y-98674999D02*
X218418001Y-98674999D01*
X210629999Y-99250001D02*
X211205001Y-98674999D01*
X210629999Y-99815686D02*
X210629999Y-99250001D01*
X210629999Y-106633001D02*
X210629999Y-99815686D01*
X211741999Y-107745001D02*
X210629999Y-106633001D01*
X212520001Y-107745001D02*
X211741999Y-107745001D01*
X215930000Y-111155000D02*
X212520001Y-107745001D01*
X195979999Y-72154999D02*
X195580000Y-71755000D01*
X197575001Y-83623003D02*
X197575001Y-73750001D01*
X200046997Y-86094999D02*
X197575001Y-83623003D01*
X202770001Y-86094999D02*
X200046997Y-86094999D01*
X197575001Y-73750001D02*
X195979999Y-72154999D01*
X203170000Y-85695000D02*
X202770001Y-86094999D01*
X195180001Y-79774999D02*
X195580000Y-79375000D01*
X194884999Y-83563001D02*
X194884999Y-80070001D01*
X194884999Y-80070001D02*
X195180001Y-79774999D01*
X198566999Y-87245001D02*
X194884999Y-83563001D01*
X205355001Y-87245001D02*
X198566999Y-87245001D01*
X205755000Y-87645000D02*
X205355001Y-87245001D01*
X205355001Y-88044999D02*
X205755000Y-87645000D01*
X204379999Y-89020001D02*
X205355001Y-88044999D01*
X191776997Y-99250001D02*
X197575001Y-93451997D01*
X197575001Y-93451997D02*
X197575001Y-92816997D01*
X197575001Y-92816997D02*
X201371997Y-89020001D01*
X190309999Y-99250001D02*
X191776997Y-99250001D01*
X201371997Y-89020001D02*
X204379999Y-89020001D01*
X175659999Y-72154999D02*
X175260000Y-71755000D01*
X177694999Y-74189999D02*
X175659999Y-72154999D01*
X177694999Y-80539999D02*
X177694999Y-74189999D01*
X182850000Y-85695000D02*
X177694999Y-80539999D01*
X184694999Y-96005001D02*
X185035001Y-95664999D01*
X185035001Y-95664999D02*
X185435000Y-95265000D01*
X184694999Y-103791999D02*
X184694999Y-96005001D01*
X182850000Y-105636998D02*
X184694999Y-103791999D01*
X182850000Y-108555000D02*
X182850000Y-105636998D01*
X183530000Y-87645000D02*
X175260000Y-79375000D01*
X185435000Y-87645000D02*
X183530000Y-87645000D01*
X169989999Y-99815686D02*
X169989999Y-99250001D01*
X169989999Y-101908001D02*
X169989999Y-99815686D01*
X172175001Y-104093003D02*
X169989999Y-101908001D01*
X172175001Y-108040001D02*
X172175001Y-104093003D01*
X175290000Y-111155000D02*
X172175001Y-108040001D01*
X184059999Y-89020001D02*
X185035001Y-88044999D01*
X169989999Y-99250001D02*
X171456997Y-99250001D01*
X181051997Y-89020001D02*
X184059999Y-89020001D01*
X171456997Y-99250001D02*
X171456997Y-99051593D01*
X171456997Y-99051593D02*
X177830000Y-92678590D01*
X185035001Y-88044999D02*
X185435000Y-87645000D01*
X177830000Y-92678590D02*
X177830000Y-92241998D01*
X177830000Y-92241998D02*
X181051997Y-89020001D01*
X155339999Y-72154999D02*
X154940000Y-71755000D01*
X157374999Y-74189999D02*
X155339999Y-72154999D01*
X157374999Y-80539999D02*
X157374999Y-74189999D01*
X162530000Y-85695000D02*
X157374999Y-80539999D01*
X163210000Y-87645000D02*
X154940000Y-79375000D01*
X165115000Y-87645000D02*
X163210000Y-87645000D01*
X149669999Y-99815686D02*
X149669999Y-99250001D01*
X149669999Y-101908001D02*
X149669999Y-99815686D01*
X151855001Y-104093003D02*
X149669999Y-101908001D01*
X151855001Y-108040001D02*
X151855001Y-104093003D01*
X154970000Y-111155000D02*
X151855001Y-108040001D01*
X164715001Y-88044999D02*
X165115000Y-87645000D01*
X160731997Y-89020001D02*
X163739999Y-89020001D01*
X163739999Y-89020001D02*
X164715001Y-88044999D01*
X150743001Y-99250001D02*
X156935001Y-93058001D01*
X149669999Y-99250001D02*
X150743001Y-99250001D01*
X156935001Y-93058001D02*
X156935001Y-92816997D01*
X156935001Y-92816997D02*
X160731997Y-89020001D01*
X135375001Y-72510001D02*
X135019999Y-72154999D01*
X135019999Y-72154999D02*
X134620000Y-71755000D01*
X135375001Y-73994997D02*
X135375001Y-72510001D01*
X135164999Y-74204999D02*
X135375001Y-73994997D01*
X135164999Y-78649999D02*
X135164999Y-74204999D01*
X142210000Y-85695000D02*
X135164999Y-78649999D01*
X142890000Y-87645000D02*
X134620000Y-79375000D01*
X144795000Y-87645000D02*
X142890000Y-87645000D01*
X129749998Y-99650000D02*
X129349999Y-99250001D01*
X129749998Y-108598000D02*
X129749998Y-99650000D01*
X132306998Y-111155000D02*
X129749998Y-108598000D01*
X134650000Y-111155000D02*
X132306998Y-111155000D01*
X144395001Y-88044999D02*
X144795000Y-87645000D01*
X129349999Y-99250001D02*
X130816997Y-99250001D01*
X143419999Y-89020001D02*
X144395001Y-88044999D01*
X140411997Y-89020001D02*
X143419999Y-89020001D01*
X130816997Y-99250001D02*
X136615001Y-93451997D01*
X136615001Y-93451997D02*
X136615001Y-92816997D01*
X136615001Y-92816997D02*
X140411997Y-89020001D01*
X114699999Y-72154999D02*
X114300000Y-71755000D01*
X116734999Y-74189999D02*
X114699999Y-72154999D01*
X116734999Y-80539999D02*
X116734999Y-74189999D01*
X121890000Y-85695000D02*
X116734999Y-80539999D01*
X114699999Y-79774999D02*
X114300000Y-79375000D01*
X122170001Y-87245001D02*
X114699999Y-79774999D01*
X124075001Y-87245001D02*
X122170001Y-87245001D01*
X124475000Y-87645000D02*
X124075001Y-87245001D01*
X109429998Y-99650000D02*
X109029999Y-99250001D01*
X109764999Y-99985001D02*
X109429998Y-99650000D01*
X109764999Y-108933001D02*
X109764999Y-99985001D01*
X111986998Y-111155000D02*
X109764999Y-108933001D01*
X114330000Y-111155000D02*
X111986998Y-111155000D01*
X124075001Y-88044999D02*
X124475000Y-87645000D01*
X123099999Y-89020001D02*
X124075001Y-88044999D01*
X109029999Y-99250001D02*
X110496997Y-99250001D01*
X116870000Y-92241998D02*
X120091997Y-89020001D01*
X110496997Y-99250001D02*
X110496997Y-99051593D01*
X110496997Y-99051593D02*
X116870000Y-92678590D01*
X116870000Y-92678590D02*
X116870000Y-92241998D01*
X120091997Y-89020001D02*
X123099999Y-89020001D01*
X94379999Y-72154999D02*
X93980000Y-71755000D01*
X96414999Y-74189999D02*
X94379999Y-72154999D01*
X96414999Y-80539999D02*
X96414999Y-74189999D01*
X101570000Y-85695000D02*
X96414999Y-80539999D01*
X104155000Y-95830685D02*
X104155000Y-95265000D01*
X104155000Y-99423002D02*
X104155000Y-95830685D01*
X101170001Y-102408001D02*
X104155000Y-99423002D01*
X101170001Y-108155001D02*
X101170001Y-102408001D01*
X101570000Y-108555000D02*
X101170001Y-108155001D01*
X94379999Y-79774999D02*
X93980000Y-79375000D01*
X101850001Y-87245001D02*
X94379999Y-79774999D01*
X103755001Y-87245001D02*
X101850001Y-87245001D01*
X104155000Y-87645000D02*
X103755001Y-87245001D01*
X88709999Y-99815686D02*
X88709999Y-99250001D01*
X88709999Y-101908001D02*
X88709999Y-99815686D01*
X93254999Y-106453001D02*
X88709999Y-101908001D01*
X93254999Y-110399999D02*
X93254999Y-106453001D01*
X94010000Y-111155000D02*
X93254999Y-110399999D01*
X103755001Y-88044999D02*
X104155000Y-87645000D01*
X102779999Y-89020001D02*
X103755001Y-88044999D01*
X98386999Y-89020001D02*
X102779999Y-89020001D01*
X95975001Y-91431999D02*
X98386999Y-89020001D01*
X90176997Y-99250001D02*
X95250000Y-94176998D01*
X95975001Y-92128001D02*
X95975001Y-91431999D01*
X95250000Y-94176998D02*
X95250000Y-92710000D01*
X95250000Y-92710000D02*
X95393002Y-92710000D01*
X88709999Y-99250001D02*
X90176997Y-99250001D01*
X95393002Y-92710000D02*
X95975001Y-92128001D01*
X90176997Y-99250001D02*
X90176997Y-99250001D01*
X75655001Y-73750001D02*
X74059999Y-72154999D01*
X74059999Y-72154999D02*
X73660000Y-71755000D01*
X75655001Y-80100001D02*
X75655001Y-73750001D01*
X81250000Y-85695000D02*
X75655001Y-80100001D01*
X74059999Y-79774999D02*
X73660000Y-79375000D01*
X81530001Y-87245001D02*
X74059999Y-79774999D01*
X83435001Y-87245001D02*
X81530001Y-87245001D01*
X83835000Y-87645000D02*
X83435001Y-87245001D01*
X68389999Y-99815686D02*
X68389999Y-99250001D01*
X72934999Y-110399999D02*
X72934999Y-106453001D01*
X68389999Y-101908001D02*
X68389999Y-99815686D01*
X72934999Y-106453001D02*
X68389999Y-101908001D01*
X73690000Y-111155000D02*
X72934999Y-110399999D01*
X69856997Y-99250001D02*
X74400001Y-94706997D01*
X83435001Y-88044999D02*
X83835000Y-87645000D01*
X74400001Y-94071997D02*
X79451997Y-89020001D01*
X74400001Y-94706997D02*
X74400001Y-94071997D01*
X79451997Y-89020001D02*
X82459999Y-89020001D01*
X68389999Y-99250001D02*
X69856997Y-99250001D01*
X82459999Y-89020001D02*
X83435001Y-88044999D01*
X229634999Y-87394999D02*
X229235000Y-86995000D01*
X229960001Y-87720001D02*
X229634999Y-87394999D01*
X229960001Y-116084999D02*
X229960001Y-87720001D01*
X229220000Y-116825000D02*
X229960001Y-116084999D01*
X209640001Y-87720001D02*
X209314999Y-87394999D01*
X209640001Y-94963001D02*
X209640001Y-87720001D01*
X208280000Y-96323002D02*
X209640001Y-94963001D01*
X209314999Y-87394999D02*
X208915000Y-86995000D01*
X208280000Y-109999412D02*
X208280000Y-96323002D01*
X204705001Y-113574411D02*
X208280000Y-109999412D01*
X204705001Y-120885001D02*
X204705001Y-113574411D01*
X205105000Y-121285000D02*
X204705001Y-120885001D01*
X189290001Y-87690001D02*
X188994999Y-87394999D01*
X189290001Y-88643001D02*
X189290001Y-87690001D01*
X187839999Y-90093003D02*
X189290001Y-88643001D01*
X187839999Y-116084999D02*
X187839999Y-90093003D01*
X188994999Y-87394999D02*
X188595000Y-86995000D01*
X188580000Y-116825000D02*
X187839999Y-116084999D01*
X182124999Y-114814999D02*
X182124999Y-98545001D01*
X182835000Y-115525000D02*
X182124999Y-114814999D01*
X182124999Y-98545001D02*
X183832500Y-96837500D01*
X168674999Y-87394999D02*
X168275000Y-86995000D01*
X169000001Y-87720001D02*
X168674999Y-87394999D01*
X169000001Y-99408001D02*
X169000001Y-87720001D01*
X165448001Y-102960001D02*
X169000001Y-99408001D01*
X163920001Y-104246997D02*
X165206997Y-102960001D01*
X163920001Y-123734999D02*
X163920001Y-104246997D01*
X165206997Y-102960001D02*
X165448001Y-102960001D01*
X162560000Y-125095000D02*
X163920001Y-123734999D01*
X190590001Y-93693001D02*
X190590001Y-84545001D01*
X189015010Y-109881014D02*
X189015010Y-95267992D01*
X189955001Y-110821005D02*
X189015010Y-109881014D01*
X188595000Y-125875000D02*
X189955001Y-124514999D01*
X189015010Y-95267992D02*
X190590001Y-93693001D01*
X189955001Y-124514999D02*
X189955001Y-110821005D01*
X190590001Y-84545001D02*
X189547500Y-83502500D01*
X148650001Y-87690001D02*
X148354999Y-87394999D01*
X148650001Y-90548001D02*
X148650001Y-87690001D01*
X147199999Y-91998003D02*
X148650001Y-90548001D01*
X148354999Y-87394999D02*
X147955000Y-86995000D01*
X147199999Y-116084999D02*
X147199999Y-91998003D01*
X147940000Y-116825000D02*
X147199999Y-116084999D01*
X144054999Y-92701999D02*
X145951998Y-90805000D01*
X144054999Y-113099316D02*
X144054999Y-92701999D01*
X142195000Y-115525000D02*
X142195000Y-114959315D01*
X142195000Y-114959315D02*
X144054999Y-113099316D01*
X145951998Y-90805000D02*
X147320000Y-90805000D01*
X147320000Y-90805000D02*
X147320000Y-90805000D01*
X128360001Y-96368589D02*
X127000000Y-97728590D01*
X127635000Y-86995000D02*
X128360001Y-87720001D01*
X128360001Y-87720001D02*
X128360001Y-96368589D01*
X127000000Y-97728590D02*
X127000000Y-98425000D01*
X127000000Y-98425000D02*
X127000000Y-98425000D01*
X123734999Y-110776999D02*
X123734999Y-119470001D01*
X124111999Y-110399999D02*
X123734999Y-110776999D01*
X127854498Y-103822500D02*
X125004999Y-106671999D01*
X124353003Y-110399999D02*
X124111999Y-110399999D01*
X128587500Y-103822500D02*
X127854498Y-103822500D01*
X125004999Y-106671999D02*
X125004999Y-108691997D01*
X125004999Y-108691997D02*
X125185001Y-108871999D01*
X125185001Y-109568001D02*
X124353003Y-110399999D01*
X125185001Y-108871999D02*
X125185001Y-109568001D01*
X123734999Y-119470001D02*
X121920000Y-121285000D01*
X121920000Y-121285000D02*
X121920000Y-121285000D01*
X129630001Y-111456005D02*
X127000000Y-108826004D01*
X145149999Y-123069999D02*
X140018001Y-123069999D01*
X147955000Y-125875000D02*
X145149999Y-123069999D01*
X140018001Y-123069999D02*
X134513003Y-117565001D01*
X134513003Y-117565001D02*
X134341999Y-117565001D01*
X134341999Y-117565001D02*
X129630001Y-112853003D01*
X129630001Y-112853003D02*
X129630001Y-111456005D01*
X127000000Y-108826004D02*
X127000000Y-106045000D01*
X127000000Y-106045000D02*
X127000000Y-106045000D01*
X107714999Y-87394999D02*
X107315000Y-86995000D01*
X108010001Y-89234997D02*
X108010001Y-87690001D01*
X106559999Y-90684999D02*
X108010001Y-89234997D01*
X108010001Y-87690001D02*
X107714999Y-87394999D01*
X106559999Y-116084999D02*
X106559999Y-90684999D01*
X107300000Y-116825000D02*
X106559999Y-116084999D01*
X100719991Y-109081989D02*
X100719991Y-91685009D01*
X101555000Y-115525000D02*
X101555000Y-109916998D01*
X101555000Y-109916998D02*
X100719991Y-109081989D01*
X100719991Y-91685009D02*
X101600000Y-90805000D01*
X101600000Y-90805000D02*
X101600000Y-90805000D01*
X87394999Y-87394999D02*
X86995000Y-86995000D01*
X88265000Y-88265000D02*
X87394999Y-87394999D01*
X88265000Y-98228002D02*
X88265000Y-88265000D01*
X88259989Y-106182991D02*
X88259989Y-98233013D01*
X89735001Y-107658003D02*
X88259989Y-106182991D01*
X89735001Y-114648001D02*
X89735001Y-107658003D01*
X89358001Y-115025001D02*
X89735001Y-114648001D01*
X88271997Y-115025001D02*
X89358001Y-115025001D01*
X80454999Y-124269999D02*
X80454999Y-122841999D01*
X88259989Y-98233013D02*
X88265000Y-98228002D01*
X80454999Y-122841999D02*
X88271997Y-115025001D01*
X81280000Y-125095000D02*
X80454999Y-124269999D01*
X107735010Y-110532008D02*
X107735010Y-95267992D01*
X108025001Y-110821999D02*
X107735010Y-110532008D01*
X109310001Y-93693001D02*
X109310001Y-84545001D01*
X107735010Y-95267992D02*
X109310001Y-93693001D01*
X107315000Y-125875000D02*
X108025001Y-125164999D01*
X108025001Y-125164999D02*
X108025001Y-110821999D01*
X109310001Y-84545001D02*
X107950000Y-83185000D01*
X107950000Y-83185000D02*
X107950000Y-83185000D01*
X219649999Y-116779999D02*
X219649999Y-106619999D01*
X220345000Y-117475000D02*
X219649999Y-116779999D01*
X219649999Y-106619999D02*
X219075000Y-106045000D01*
X219075000Y-106045000D02*
X219075000Y-106045000D01*
X205613002Y-123190000D02*
X203665685Y-123190000D01*
X216248001Y-123961997D02*
X206384999Y-123961997D01*
X206384999Y-123961997D02*
X205613002Y-123190000D01*
X216981005Y-124695001D02*
X216248001Y-123961997D01*
X203665685Y-123190000D02*
X203100000Y-123190000D01*
X225660001Y-124695001D02*
X216981005Y-124695001D01*
X226060000Y-125095000D02*
X225660001Y-124695001D01*
X226459999Y-102634999D02*
X226060000Y-102235000D01*
X228055001Y-110203001D02*
X228055001Y-104230001D01*
X228055001Y-104230001D02*
X226459999Y-102634999D01*
X226604999Y-111653003D02*
X228055001Y-110203001D01*
X226604999Y-115856999D02*
X226604999Y-111653003D01*
X222420000Y-120041998D02*
X226604999Y-115856999D01*
X222420000Y-122090000D02*
X222420000Y-120041998D01*
X206465001Y-102960001D02*
X206139999Y-102634999D01*
X205014999Y-105938003D02*
X206465001Y-104488001D01*
X206465001Y-104488001D02*
X206465001Y-102960001D01*
X205014999Y-112628003D02*
X205014999Y-105938003D01*
X202374999Y-115268003D02*
X205014999Y-112628003D01*
X206139999Y-102634999D02*
X205740000Y-102235000D01*
X202374999Y-123538001D02*
X202374999Y-115268003D01*
X202751999Y-123915001D02*
X202374999Y-123538001D01*
X203290001Y-123915001D02*
X202751999Y-123915001D01*
X203925001Y-124550001D02*
X203290001Y-123915001D01*
X203925001Y-125115686D02*
X203925001Y-124550001D01*
X205204315Y-126395000D02*
X203925001Y-125115686D01*
X205770000Y-126395000D02*
X205204315Y-126395000D01*
X182865000Y-120030000D02*
X185420000Y-117475000D01*
X182865000Y-125745000D02*
X182865000Y-120030000D01*
X183832500Y-121717500D02*
X185535000Y-120015000D01*
X183832500Y-126047500D02*
X183832500Y-121717500D01*
X179145001Y-104503001D02*
X179145001Y-100405001D01*
X179009999Y-104638003D02*
X179145001Y-104503001D01*
X179705000Y-117475000D02*
X179009999Y-116779999D01*
X179009999Y-116779999D02*
X179009999Y-104638003D01*
X179145001Y-100405001D02*
X178435000Y-99695000D01*
X178435000Y-99695000D02*
X178435000Y-99695000D01*
X185964999Y-99748001D02*
X185964999Y-97880001D01*
X186595011Y-100378013D02*
X185964999Y-99748001D01*
X186595011Y-104674401D02*
X186595011Y-100378013D01*
X185145009Y-106124403D02*
X186595011Y-104674401D01*
X185956501Y-116106501D02*
X185956501Y-111661501D01*
X189230000Y-119380000D02*
X185956501Y-116106501D01*
X185956501Y-111661501D02*
X186145001Y-111473001D01*
X186145001Y-111473001D02*
X186145001Y-108871999D01*
X186145001Y-108871999D02*
X185145009Y-107872007D01*
X185145009Y-107872007D02*
X185145009Y-106124403D01*
X185964999Y-97880001D02*
X185964999Y-97880001D01*
X178435000Y-90170000D02*
X170815000Y-90170000D01*
X170815000Y-90170000D02*
X170180000Y-90805000D01*
X170180000Y-90805000D02*
X170180000Y-90805000D01*
X186690000Y-127364315D02*
X186690000Y-127930000D01*
X186690000Y-125971004D02*
X186690000Y-127364315D01*
X189230000Y-123431004D02*
X186690000Y-125971004D01*
X189230000Y-122555000D02*
X189230000Y-123431004D01*
X185819999Y-102634999D02*
X185420000Y-102235000D01*
X186145001Y-102960001D02*
X185819999Y-102634999D01*
X184694999Y-105938003D02*
X186145001Y-104488001D01*
X184694999Y-111473001D02*
X184694999Y-105938003D01*
X184830000Y-111608002D02*
X184694999Y-111473001D01*
X184830000Y-116598002D02*
X184830000Y-111608002D01*
X181780000Y-119648002D02*
X184830000Y-116598002D01*
X186145001Y-104488001D02*
X186145001Y-102960001D01*
X181780000Y-122090000D02*
X181780000Y-119648002D01*
X167095001Y-110203001D02*
X167095001Y-106671999D01*
X165644999Y-114988001D02*
X165644999Y-111653003D01*
X165644999Y-111653003D02*
X167095001Y-110203001D01*
X165825001Y-115168003D02*
X165644999Y-114988001D01*
X165825001Y-117384999D02*
X165825001Y-115168003D01*
X164057499Y-125888184D02*
X164057499Y-124499499D01*
X164057499Y-124499499D02*
X165100000Y-123456998D01*
X167095001Y-106671999D02*
X166468002Y-106045000D01*
X164564315Y-126395000D02*
X164057499Y-125888184D01*
X165130000Y-126395000D02*
X164564315Y-126395000D01*
X165100000Y-123456998D02*
X165100000Y-118110000D01*
X165100000Y-118110000D02*
X165825001Y-117384999D01*
X166468002Y-106045000D02*
X165100000Y-106045000D01*
X165100000Y-106045000D02*
X165100000Y-106045000D01*
X138369999Y-116779999D02*
X138369999Y-106619999D01*
X139065000Y-117475000D02*
X138369999Y-116779999D01*
X138369999Y-106619999D02*
X137795000Y-106045000D01*
X137795000Y-106045000D02*
X137795000Y-106045000D01*
X149950001Y-93693001D02*
X149950001Y-84545001D01*
X148303001Y-110459999D02*
X148303001Y-95340001D01*
X148303001Y-95340001D02*
X149950001Y-93693001D01*
X147955000Y-123925000D02*
X148665001Y-123214999D01*
X148665001Y-110821999D02*
X148303001Y-110459999D01*
X148665001Y-123214999D02*
X148665001Y-110821999D01*
X149950001Y-84545001D02*
X148590000Y-83185000D01*
X148590000Y-83185000D02*
X148590000Y-83185000D01*
X122385685Y-123190000D02*
X121820000Y-123190000D01*
X124333002Y-123190000D02*
X122385685Y-123190000D01*
X125013003Y-123870001D02*
X124333002Y-123190000D01*
X134876005Y-123870001D02*
X125013003Y-123870001D01*
X135701005Y-124695001D02*
X134876005Y-123870001D01*
X144380001Y-124695001D02*
X135701005Y-124695001D01*
X144780000Y-125095000D02*
X144380001Y-124695001D01*
X145650001Y-128329999D02*
X146050000Y-127930000D01*
X144839999Y-129140001D02*
X145650001Y-128329999D01*
X123589999Y-129140001D02*
X144839999Y-129140001D01*
X123190000Y-129540000D02*
X123589999Y-129140001D01*
X145505001Y-104488001D02*
X145505001Y-102960001D01*
X145324999Y-107368001D02*
X145324999Y-104668003D01*
X145701999Y-107745001D02*
X145324999Y-107368001D01*
X145701999Y-111276003D02*
X145701999Y-107745001D01*
X145324999Y-111653003D02*
X145701999Y-111276003D01*
X145324999Y-115463003D02*
X145324999Y-111653003D01*
X141140000Y-119648002D02*
X145324999Y-115463003D01*
X145179999Y-102634999D02*
X144780000Y-102235000D01*
X145505001Y-102960001D02*
X145179999Y-102634999D01*
X145324999Y-104668003D02*
X145505001Y-104488001D01*
X141140000Y-122090000D02*
X141140000Y-119648002D01*
X124060001Y-102634999D02*
X124460000Y-102235000D01*
X123734999Y-102960001D02*
X124060001Y-102634999D01*
X123734999Y-104230001D02*
X123734999Y-102960001D01*
X118019999Y-109945001D02*
X123734999Y-104230001D01*
X118019999Y-120463001D02*
X118019999Y-109945001D01*
X121471999Y-123915001D02*
X118019999Y-120463001D01*
X121813003Y-123915001D02*
X121471999Y-123915001D01*
X122645001Y-124746999D02*
X121813003Y-123915001D01*
X122645001Y-125115686D02*
X122645001Y-124746999D01*
X123924315Y-126395000D02*
X122645001Y-125115686D01*
X124490000Y-126395000D02*
X123924315Y-126395000D01*
X101585000Y-120030000D02*
X104140000Y-117475000D01*
X101585000Y-122570000D02*
X101585000Y-120030000D01*
X97865001Y-107436997D02*
X97865001Y-95960001D01*
X97729999Y-107571999D02*
X97865001Y-107436997D01*
X98425000Y-117475000D02*
X97729999Y-116779999D01*
X97729999Y-116779999D02*
X97729999Y-107571999D01*
X97865001Y-95960001D02*
X98182501Y-95642501D01*
X77424999Y-107556999D02*
X77545001Y-107436997D01*
X77424999Y-108253001D02*
X77424999Y-107556999D01*
X77801999Y-108630001D02*
X77424999Y-108253001D01*
X77545001Y-107436997D02*
X77545001Y-102159999D01*
X81975001Y-106740001D02*
X80085001Y-108630001D01*
X80085001Y-108630001D02*
X77801999Y-108630001D01*
X77545001Y-102159999D02*
X82550000Y-97155000D01*
X82550000Y-97155000D02*
X82550000Y-97155000D01*
X84373003Y-123870001D02*
X83693002Y-123190000D01*
X81745685Y-123190000D02*
X81180000Y-123190000D01*
X94236005Y-123870001D02*
X84373003Y-123870001D01*
X94886005Y-124520001D02*
X94236005Y-123870001D01*
X83693002Y-123190000D02*
X81745685Y-123190000D01*
X103565001Y-124520001D02*
X94886005Y-124520001D01*
X104140000Y-125095000D02*
X103565001Y-124520001D01*
X103740001Y-102634999D02*
X104140000Y-102235000D01*
X103414999Y-102960001D02*
X103740001Y-102634999D01*
X103414999Y-111473001D02*
X103414999Y-102960001D01*
X103550000Y-116598002D02*
X103550000Y-111608002D01*
X100500000Y-119648002D02*
X103550000Y-116598002D01*
X103550000Y-111608002D02*
X103414999Y-111473001D01*
X100500000Y-122090000D02*
X100500000Y-119648002D01*
X80004990Y-124892992D02*
X80004990Y-121290010D01*
X81249499Y-126137501D02*
X80004990Y-124892992D01*
X83850501Y-126137501D02*
X81249499Y-126137501D01*
X84249999Y-125738003D02*
X83850501Y-126137501D01*
X83850000Y-126395000D02*
X84249999Y-125995001D01*
X84249999Y-125995001D02*
X84249999Y-125738003D01*
X80004990Y-121290010D02*
X80004990Y-121290010D01*
X151529999Y-129480001D02*
X151130000Y-129880000D01*
X191958003Y-128995001D02*
X152014999Y-128995001D01*
X192495001Y-129531999D02*
X191958003Y-128995001D01*
X152014999Y-128995001D02*
X151529999Y-129480001D01*
X192495001Y-130068003D02*
X192495001Y-129531999D01*
X197091998Y-134665000D02*
X192495001Y-130068003D01*
X198710000Y-134665000D02*
X197091998Y-134665000D01*
X91824999Y-133764999D02*
X91425000Y-133365000D01*
X93450001Y-135390001D02*
X91824999Y-133764999D01*
X118313001Y-135390001D02*
X93450001Y-135390001D01*
X122803001Y-130900001D02*
X118313001Y-135390001D01*
X133698001Y-130900001D02*
X122803001Y-130900001D01*
X133908003Y-130689999D02*
X133698001Y-130900001D01*
X134998001Y-130689999D02*
X133908003Y-130689999D01*
X135375001Y-131066999D02*
X134998001Y-130689999D01*
X135375001Y-131959999D02*
X135375001Y-131066999D01*
X134907500Y-132427500D02*
X135375001Y-131959999D01*
X71996998Y-134665000D02*
X71951998Y-134620000D01*
X76790000Y-134665000D02*
X71996998Y-134665000D01*
X71951998Y-134620000D02*
X67310000Y-134620000D01*
X67310000Y-134620000D02*
X67310000Y-134620000D01*
X168982997Y-149434001D02*
X178390000Y-140026998D01*
X60307999Y-149434001D02*
X168982997Y-149434001D01*
X178390000Y-140026998D02*
X178390000Y-134665000D01*
X55064998Y-144191000D02*
X60307999Y-149434001D01*
X57830000Y-107905000D02*
X55064998Y-110670002D01*
X55064998Y-110670002D02*
X55064998Y-144191000D01*
X63500000Y-122500000D02*
X63500000Y-109855000D01*
X60905000Y-125095000D02*
X63500000Y-122500000D01*
X67074999Y-122875001D02*
X66675000Y-123275000D01*
X67370001Y-113110686D02*
X67370001Y-122579999D01*
X67370001Y-122579999D02*
X67074999Y-122875001D01*
X66630000Y-112370685D02*
X67370001Y-113110686D01*
X66630000Y-111805000D02*
X66630000Y-112370685D01*
X215969315Y-92710000D02*
X216000000Y-92710000D01*
X213330000Y-95349315D02*
X215969315Y-92710000D01*
X213330000Y-95915000D02*
X213330000Y-95349315D01*
X218349999Y-93435001D02*
X218795002Y-92989998D01*
X218349999Y-94554999D02*
X218349999Y-93435001D01*
X218795002Y-92989998D02*
X219195001Y-92589999D01*
X219060000Y-95265000D02*
X218349999Y-94554999D01*
X218758001Y-102960001D02*
X223499314Y-102960001D01*
X214698002Y-107020000D02*
X218758001Y-102960001D01*
X223499314Y-102960001D02*
X224064999Y-102960001D01*
X212090000Y-107020000D02*
X214698002Y-107020000D01*
X193010000Y-95349315D02*
X195649315Y-92710000D01*
X193010000Y-95915000D02*
X193010000Y-95349315D01*
X198475002Y-92989998D02*
X198875001Y-92589999D01*
X198740000Y-95265000D02*
X198029999Y-94554999D01*
X198029999Y-94554999D02*
X198029999Y-93435001D01*
X198029999Y-93435001D02*
X198475002Y-92989998D01*
X229235000Y-111125000D02*
X229205000Y-111155000D01*
X229235000Y-94615000D02*
X229235000Y-111125000D01*
X205014999Y-98515001D02*
X208515001Y-95014999D01*
X200635685Y-107905000D02*
X205014999Y-103525686D01*
X208515001Y-95014999D02*
X208915000Y-94615000D01*
X205014999Y-103525686D02*
X205014999Y-98515001D01*
X200070000Y-107905000D02*
X200635685Y-107905000D01*
X189895000Y-107821998D02*
X191770000Y-105946998D01*
X189895000Y-108555000D02*
X189895000Y-107821998D01*
X191770000Y-103505000D02*
X193040000Y-102235000D01*
X191770000Y-105946998D02*
X191770000Y-103505000D01*
X203345000Y-103360000D02*
X203744999Y-102960001D01*
X198959999Y-107745001D02*
X203345000Y-103360000D01*
X192495001Y-107745001D02*
X198959999Y-107745001D01*
X191770000Y-107020000D02*
X192495001Y-107745001D01*
X222749999Y-112530001D02*
X225660001Y-109619999D01*
X225660001Y-109619999D02*
X226060000Y-109220000D01*
X220693001Y-119370001D02*
X222749999Y-117313003D01*
X222749999Y-117313003D02*
X222749999Y-112530001D01*
X216525001Y-119370001D02*
X220693001Y-119370001D01*
X215930000Y-118775000D02*
X216525001Y-119370001D01*
X172690000Y-95349315D02*
X175329315Y-92710000D01*
X172690000Y-95915000D02*
X172690000Y-95349315D01*
X178155002Y-92989998D02*
X178555001Y-92589999D01*
X178420000Y-95265000D02*
X177709999Y-94554999D01*
X177709999Y-94554999D02*
X177709999Y-93435001D01*
X177709999Y-93435001D02*
X178155002Y-92989998D01*
X152370000Y-95349315D02*
X155009315Y-92710000D01*
X152370000Y-95915000D02*
X152370000Y-95349315D01*
X157835002Y-92989998D02*
X158235001Y-92589999D01*
X158100000Y-95265000D02*
X157389999Y-94554999D01*
X157389999Y-94554999D02*
X157389999Y-93435001D01*
X157389999Y-93435001D02*
X157835002Y-92989998D01*
X188565000Y-94645000D02*
X188595000Y-94615000D01*
X188565000Y-111155000D02*
X188565000Y-94645000D01*
X167875001Y-95014999D02*
X168275000Y-94615000D01*
X163830000Y-99060000D02*
X167875001Y-95014999D01*
X163830000Y-103505000D02*
X163830000Y-99060000D01*
X159430000Y-107905000D02*
X163830000Y-103505000D01*
X131650001Y-93714999D02*
X132050000Y-93315000D01*
X122615001Y-107058001D02*
X128624998Y-101048004D01*
X128624998Y-96740002D02*
X131650001Y-93714999D01*
X122615001Y-114774999D02*
X122615001Y-107058001D01*
X128624998Y-101048004D02*
X128624998Y-96740002D01*
X118745000Y-118645000D02*
X122615001Y-114774999D01*
X132050000Y-95349315D02*
X134689315Y-92710000D01*
X132050000Y-95915000D02*
X132050000Y-95349315D01*
X137515002Y-92989998D02*
X137915001Y-92589999D01*
X137780000Y-95265000D02*
X137069999Y-94554999D01*
X137069999Y-94554999D02*
X137069999Y-93435001D01*
X137069999Y-93435001D02*
X137515002Y-92989998D01*
X142219314Y-102960001D02*
X142784999Y-102960001D01*
X132813002Y-107020000D02*
X136873001Y-102960001D01*
X136873001Y-102960001D02*
X142219314Y-102960001D01*
X130810000Y-107020000D02*
X132813002Y-107020000D01*
X111730000Y-95349315D02*
X114369315Y-92710000D01*
X111730000Y-95915000D02*
X111730000Y-95349315D01*
X117195002Y-92989998D02*
X117595001Y-92589999D01*
X117460000Y-95265000D02*
X116749999Y-94554999D01*
X116749999Y-94554999D02*
X116749999Y-93435001D01*
X116749999Y-93435001D02*
X117195002Y-92989998D01*
X127235001Y-95014999D02*
X127635000Y-94615000D01*
X123190000Y-99060000D02*
X127235001Y-95014999D01*
X123190000Y-103505000D02*
X123190000Y-99060000D01*
X118790000Y-107905000D02*
X123190000Y-103505000D01*
X121899314Y-102960001D02*
X122464999Y-102960001D01*
X116553001Y-102960001D02*
X121899314Y-102960001D01*
X112493002Y-107020000D02*
X116553001Y-102960001D01*
X110490000Y-107020000D02*
X112493002Y-107020000D01*
X87539999Y-110006003D02*
X87539999Y-97880001D01*
X87690001Y-110156005D02*
X87539999Y-110006003D01*
X87690001Y-114043001D02*
X87690001Y-110156005D01*
X78105000Y-118645000D02*
X83088002Y-118645000D01*
X83088002Y-118645000D02*
X87690001Y-114043001D01*
X87539999Y-97880001D02*
X87539999Y-97880001D01*
X91410000Y-95349315D02*
X94049315Y-92710000D01*
X91410000Y-95915000D02*
X91410000Y-95349315D01*
X96875002Y-92989998D02*
X97275001Y-92589999D01*
X97140000Y-95265000D02*
X96429999Y-94554999D01*
X96429999Y-94554999D02*
X96429999Y-93435001D01*
X96429999Y-93435001D02*
X96875002Y-92989998D01*
X71090000Y-95349315D02*
X73729315Y-92710000D01*
X71090000Y-95915000D02*
X71090000Y-95349315D01*
X76555002Y-92989998D02*
X76955001Y-92589999D01*
X76820000Y-95265000D02*
X76109999Y-94554999D01*
X76109999Y-94554999D02*
X76109999Y-93435001D01*
X76109999Y-93435001D02*
X76555002Y-92989998D01*
X107285000Y-94645000D02*
X107315000Y-94615000D01*
X107285000Y-111155000D02*
X107285000Y-94645000D01*
X86995000Y-95180685D02*
X86995000Y-94615000D01*
X86995000Y-96421998D02*
X86995000Y-95180685D01*
X78150000Y-105266998D02*
X86995000Y-96421998D01*
X78150000Y-107905000D02*
X78150000Y-105266998D01*
X68866999Y-110580001D02*
X68344999Y-110058001D01*
X71943003Y-110580001D02*
X68866999Y-110580001D01*
X77568002Y-116205000D02*
X71943003Y-110580001D01*
X68344999Y-110058001D02*
X67945000Y-109658002D01*
X81915000Y-116205000D02*
X77568002Y-116205000D01*
X83185000Y-117475000D02*
X71120000Y-117475000D01*
X83820000Y-116840000D02*
X83185000Y-117475000D01*
X243205000Y-109855000D02*
X238126410Y-109855000D01*
X238126410Y-109855000D02*
X231775000Y-103503590D01*
X231775000Y-103503590D02*
X231775000Y-50165000D01*
X231775000Y-50165000D02*
X228600000Y-46990000D01*
X228600000Y-46990000D02*
X228600000Y-46990000D01*
M02*
