G04 #@! TF.GenerationSoftware,KiCad,Pcbnew,5.1.5-52549c5~84~ubuntu18.04.1*
G04 #@! TF.CreationDate,2020-05-17T15:57:07-07:00*
G04 #@! TF.ProjectId,alu,616c752e-6b69-4636-9164-5f7063625858,rev?*
G04 #@! TF.SameCoordinates,Original*
G04 #@! TF.FileFunction,Copper,L2,Inr*
G04 #@! TF.FilePolarity,Positive*
%FSLAX46Y46*%
G04 Gerber Fmt 4.6, Leading zero omitted, Abs format (unit mm)*
G04 Created by KiCad (PCBNEW 5.1.5-52549c5~84~ubuntu18.04.1) date 2020-05-17 15:57:07*
%MOMM*%
%LPD*%
G04 APERTURE LIST*
%ADD10C,4.000000*%
%ADD11C,1.600000*%
%ADD12R,1.600000X1.600000*%
%ADD13C,1.800000*%
%ADD14R,1.800000X1.800000*%
%ADD15C,6.000000*%
%ADD16C,0.800000*%
%ADD17C,0.250000*%
G04 APERTURE END LIST*
D10*
X247800000Y-29680000D03*
X247800000Y-93180000D03*
D11*
X249220000Y-37885000D03*
X249220000Y-40655000D03*
X249220000Y-43425000D03*
X249220000Y-46195000D03*
X249220000Y-48965000D03*
X249220000Y-51735000D03*
X249220000Y-54505000D03*
X249220000Y-57275000D03*
X249220000Y-60045000D03*
X249220000Y-62815000D03*
X249220000Y-65585000D03*
X249220000Y-68355000D03*
X249220000Y-71125000D03*
X249220000Y-73895000D03*
X249220000Y-76665000D03*
X249220000Y-79435000D03*
X249220000Y-82205000D03*
X249220000Y-84975000D03*
X246380000Y-36500000D03*
X246380000Y-39270000D03*
X246380000Y-42040000D03*
X246380000Y-44810000D03*
X246380000Y-47580000D03*
X246380000Y-50350000D03*
X246380000Y-53120000D03*
X246380000Y-55890000D03*
X246380000Y-58660000D03*
X246380000Y-61430000D03*
X246380000Y-64200000D03*
X246380000Y-66970000D03*
X246380000Y-69740000D03*
X246380000Y-72510000D03*
X246380000Y-75280000D03*
X246380000Y-78050000D03*
X246380000Y-80820000D03*
X246380000Y-83590000D03*
D12*
X246380000Y-86360000D03*
D10*
X247800000Y-103340000D03*
X247800000Y-150440000D03*
D11*
X249220000Y-111655000D03*
X249220000Y-114425000D03*
X249220000Y-117195000D03*
X249220000Y-119965000D03*
X249220000Y-122735000D03*
X249220000Y-125505000D03*
X249220000Y-128275000D03*
X249220000Y-131045000D03*
X249220000Y-133815000D03*
X249220000Y-136585000D03*
X249220000Y-139355000D03*
X249220000Y-142125000D03*
X246380000Y-110270000D03*
X246380000Y-113040000D03*
X246380000Y-115810000D03*
X246380000Y-118580000D03*
X246380000Y-121350000D03*
X246380000Y-124120000D03*
X246380000Y-126890000D03*
X246380000Y-129660000D03*
X246380000Y-132430000D03*
X246380000Y-135200000D03*
X246380000Y-137970000D03*
X246380000Y-140740000D03*
D12*
X246380000Y-143510000D03*
D11*
X239950000Y-82550000D03*
X234950000Y-82550000D03*
X238720000Y-88900000D03*
D12*
X236220000Y-88900000D03*
D13*
X225933000Y-145669000D03*
D14*
X225933000Y-148209000D03*
D13*
X217678000Y-145669000D03*
D14*
X217678000Y-148209000D03*
D13*
X92583000Y-148209000D03*
D14*
X92583000Y-145669000D03*
D13*
X100203000Y-148209000D03*
D14*
X100203000Y-145669000D03*
D13*
X107823000Y-148209000D03*
D14*
X107823000Y-145669000D03*
D13*
X115443000Y-148209000D03*
D14*
X115443000Y-145669000D03*
D13*
X122428000Y-148209000D03*
D14*
X122428000Y-145669000D03*
D13*
X129413000Y-148209000D03*
D14*
X129413000Y-145669000D03*
D13*
X137033000Y-148209000D03*
D14*
X137033000Y-145669000D03*
D13*
X144653000Y-148209000D03*
D14*
X144653000Y-145669000D03*
D13*
X152273000Y-148209000D03*
D14*
X152273000Y-145669000D03*
D13*
X159893000Y-148209000D03*
D14*
X159893000Y-145669000D03*
D13*
X167513000Y-148209000D03*
D14*
X167513000Y-145669000D03*
D13*
X175133000Y-148209000D03*
D14*
X175133000Y-145669000D03*
D13*
X182753000Y-148209000D03*
D14*
X182753000Y-145669000D03*
D13*
X190373000Y-148209000D03*
D14*
X190373000Y-145669000D03*
D13*
X197993000Y-148209000D03*
D14*
X197993000Y-145669000D03*
D13*
X205613000Y-148209000D03*
D14*
X205613000Y-145669000D03*
D13*
X77978000Y-145669000D03*
D14*
X77978000Y-148209000D03*
D13*
X69723000Y-145669000D03*
D14*
X69723000Y-148209000D03*
D13*
X61468000Y-145669000D03*
D14*
X61468000Y-148209000D03*
D13*
X76835000Y-46355000D03*
D14*
X76835000Y-48895000D03*
D13*
X68580000Y-46355000D03*
D14*
X68580000Y-48895000D03*
D13*
X91440000Y-48895000D03*
D14*
X91440000Y-46355000D03*
D13*
X99060000Y-48895000D03*
D14*
X99060000Y-46355000D03*
D13*
X106680000Y-48895000D03*
D14*
X106680000Y-46355000D03*
D13*
X114300000Y-48895000D03*
D14*
X114300000Y-46355000D03*
D13*
X121920000Y-48895000D03*
D14*
X121920000Y-46355000D03*
D13*
X129540000Y-48895000D03*
D14*
X129540000Y-46355000D03*
D13*
X137160000Y-48895000D03*
D14*
X137160000Y-46355000D03*
D13*
X144780000Y-48895000D03*
D14*
X144780000Y-46355000D03*
D13*
X152400000Y-48895000D03*
D14*
X152400000Y-46355000D03*
D13*
X160020000Y-48895000D03*
D14*
X160020000Y-46355000D03*
D13*
X167640000Y-48895000D03*
D14*
X167640000Y-46355000D03*
D13*
X175260000Y-48895000D03*
D14*
X175260000Y-46355000D03*
D13*
X182880000Y-48895000D03*
D14*
X182880000Y-46355000D03*
D13*
X190500000Y-48895000D03*
D14*
X190500000Y-46355000D03*
D13*
X198120000Y-48895000D03*
D14*
X198120000Y-46355000D03*
D13*
X205740000Y-48895000D03*
D14*
X205740000Y-46355000D03*
D13*
X76835000Y-34290000D03*
D14*
X76835000Y-36830000D03*
D13*
X68580000Y-34290000D03*
D14*
X68580000Y-36830000D03*
D13*
X91440000Y-36830000D03*
D14*
X91440000Y-34290000D03*
D13*
X99060000Y-36830000D03*
D14*
X99060000Y-34290000D03*
D13*
X106680000Y-36830000D03*
D14*
X106680000Y-34290000D03*
D13*
X114300000Y-36830000D03*
D14*
X114300000Y-34290000D03*
D13*
X121920000Y-36830000D03*
D14*
X121920000Y-34290000D03*
D13*
X129540000Y-36830000D03*
D14*
X129540000Y-34290000D03*
D13*
X137160000Y-36830000D03*
D14*
X137160000Y-34290000D03*
D13*
X144780000Y-36830000D03*
D14*
X144780000Y-34290000D03*
D13*
X152400000Y-36830000D03*
D14*
X152400000Y-34290000D03*
D13*
X160020000Y-36830000D03*
D14*
X160020000Y-34290000D03*
D13*
X167640000Y-36830000D03*
D14*
X167640000Y-34290000D03*
D13*
X175260000Y-36830000D03*
D14*
X175260000Y-34290000D03*
D13*
X182880000Y-36830000D03*
D14*
X182880000Y-34290000D03*
D13*
X190500000Y-36830000D03*
D14*
X190500000Y-34290000D03*
D13*
X198120000Y-36830000D03*
D14*
X198120000Y-34290000D03*
D13*
X205740000Y-36830000D03*
D14*
X205740000Y-34290000D03*
D11*
X64690000Y-81915000D03*
X59690000Y-81915000D03*
X64690000Y-78105000D03*
X59690000Y-78105000D03*
X63460000Y-89535000D03*
D12*
X60960000Y-89535000D03*
D11*
X63460000Y-100965000D03*
D12*
X60960000Y-100965000D03*
D15*
X50800000Y-29210000D03*
X50800000Y-151130000D03*
D16*
X213330000Y-93315000D03*
X215900000Y-96520000D03*
X64770000Y-114640000D03*
X64770000Y-107020000D03*
X64770000Y-122260000D03*
X64770000Y-129880000D03*
X74930000Y-129880000D03*
X85090000Y-129880000D03*
X95250000Y-129880000D03*
X105410000Y-129880000D03*
X105410000Y-122260000D03*
X95250000Y-122260000D03*
X85090000Y-122260000D03*
X74930000Y-122260000D03*
X74930000Y-114640000D03*
X85090000Y-114640000D03*
X95250000Y-114640000D03*
X105410000Y-114640000D03*
X74930000Y-107020000D03*
X85090000Y-107020000D03*
X95250000Y-107020000D03*
X105410000Y-107020000D03*
X105410000Y-99400000D03*
X95250000Y-99400000D03*
X85090000Y-99400000D03*
X74930000Y-99400000D03*
X105410000Y-91780000D03*
X95250000Y-91780000D03*
X85090000Y-91780000D03*
X74930000Y-91780000D03*
X74930000Y-84160000D03*
X85090000Y-84160000D03*
X95250000Y-84160000D03*
X105410000Y-84160000D03*
X105410000Y-76540000D03*
X95250000Y-76540000D03*
X85090000Y-76540000D03*
X74930000Y-76540000D03*
X105410000Y-68920000D03*
X95250000Y-68920000D03*
X85090000Y-68920000D03*
X74930000Y-68920000D03*
X64770000Y-68920000D03*
X105410000Y-61300000D03*
X95250000Y-61300000D03*
X85090000Y-61300000D03*
X74930000Y-61300000D03*
X64770000Y-61300000D03*
X115570000Y-129880000D03*
X125730000Y-129880000D03*
X135890000Y-129880000D03*
X146050000Y-129880000D03*
X146050000Y-122260000D03*
X135890000Y-122260000D03*
X125730000Y-122260000D03*
X115570000Y-122260000D03*
X115570000Y-114640000D03*
X125730000Y-114640000D03*
X135890000Y-114640000D03*
X146050000Y-114640000D03*
X146050000Y-107020000D03*
X135890000Y-107020000D03*
X125730000Y-107020000D03*
X115570000Y-107020000D03*
X115570000Y-99400000D03*
X125730000Y-99400000D03*
X135890000Y-99400000D03*
X146050000Y-99400000D03*
X146050000Y-91780000D03*
X135890000Y-91780000D03*
X125730000Y-91780000D03*
X115570000Y-91780000D03*
X115570000Y-84160000D03*
X125730000Y-84160000D03*
X135890000Y-84160000D03*
X146050000Y-84160000D03*
X115570000Y-76540000D03*
X125730000Y-76540000D03*
X135890000Y-76540000D03*
X146050000Y-76540000D03*
X146050000Y-68920000D03*
X135890000Y-68920000D03*
X125730000Y-68920000D03*
X115570000Y-68920000D03*
X115570000Y-61300000D03*
X125730000Y-61300000D03*
X135890000Y-61300000D03*
X146050000Y-61300000D03*
X186690000Y-129880000D03*
X176530000Y-129880000D03*
X166370000Y-129880000D03*
X156210000Y-129880000D03*
X186690000Y-122260000D03*
X176530000Y-122260000D03*
X166370000Y-122260000D03*
X156210000Y-122260000D03*
X186690000Y-114640000D03*
X176530000Y-114640000D03*
X166370000Y-114640000D03*
X156210000Y-114640000D03*
X186690000Y-107020000D03*
X176530000Y-107020000D03*
X166370000Y-107020000D03*
X156210000Y-107020000D03*
X186690000Y-99400000D03*
X176530000Y-99400000D03*
X166370000Y-99400000D03*
X156210000Y-99400000D03*
X156210000Y-91780000D03*
X166370000Y-91780000D03*
X176530000Y-91780000D03*
X186690000Y-91780000D03*
X186690000Y-84160000D03*
X176530000Y-84160000D03*
X166370000Y-84160000D03*
X156210000Y-84160000D03*
X186690000Y-76540000D03*
X176530000Y-76540000D03*
X166370000Y-76540000D03*
X156210000Y-76540000D03*
X156210000Y-68920000D03*
X166370000Y-68920000D03*
X176530000Y-68920000D03*
X186690000Y-68920000D03*
X186690000Y-61300000D03*
X176530000Y-61300000D03*
X166370000Y-61300000D03*
X156210000Y-61300000D03*
X227330000Y-129880000D03*
X217170000Y-129880000D03*
X207010000Y-129880000D03*
X196850000Y-129880000D03*
X227330000Y-122260000D03*
X217170000Y-122260000D03*
X207010000Y-122260000D03*
X196850000Y-122260000D03*
X227330000Y-114640000D03*
X217170000Y-114640000D03*
X207010000Y-114640000D03*
X196850000Y-114640000D03*
X196850000Y-107020000D03*
X207010000Y-107020000D03*
X217170000Y-107020000D03*
X227330000Y-107020000D03*
X227330000Y-99400000D03*
X217170000Y-99400000D03*
X207010000Y-99400000D03*
X196850000Y-99400000D03*
X227330000Y-91780000D03*
X217170000Y-91780000D03*
X207010000Y-91780000D03*
X196850000Y-91780000D03*
X227330000Y-84160000D03*
X217170000Y-84160000D03*
X207010000Y-84160000D03*
X196850000Y-84160000D03*
X227330000Y-76540000D03*
X217170000Y-76540000D03*
X207010000Y-76540000D03*
X196850000Y-76540000D03*
X207010000Y-68920000D03*
X196850000Y-68920000D03*
X196850000Y-61300000D03*
X207010000Y-61300000D03*
X227330000Y-68920000D03*
X217170000Y-68920000D03*
X217170000Y-61300000D03*
X227330000Y-61300000D03*
X226090000Y-73055000D03*
X224100000Y-72390000D03*
X226090000Y-80675000D03*
X224100000Y-80010000D03*
X205770000Y-73055000D03*
X203780000Y-72390000D03*
X205770000Y-80675000D03*
X203780000Y-80010000D03*
X185450000Y-73055000D03*
X183460000Y-72390000D03*
X185450000Y-80675000D03*
X183460000Y-80010000D03*
X165130000Y-73055000D03*
X163140000Y-72390000D03*
X165130000Y-80675000D03*
X163140000Y-80010000D03*
X144810000Y-73055000D03*
X142820000Y-72390000D03*
X144810000Y-80675000D03*
X142820000Y-80010000D03*
X124490000Y-73055000D03*
X122500000Y-72390000D03*
X124490000Y-80675000D03*
X122500000Y-80010000D03*
X104170000Y-73055000D03*
X102180000Y-72390000D03*
X104170000Y-80675000D03*
X102180000Y-80010000D03*
X83850000Y-73055000D03*
X81860000Y-72390000D03*
X83850000Y-80675000D03*
X81860000Y-80010000D03*
X215930000Y-73055000D03*
X213940000Y-72390000D03*
X215930000Y-80675000D03*
X213940000Y-80010000D03*
X195610000Y-73055000D03*
X193620000Y-72390000D03*
X195610000Y-80675000D03*
X193620000Y-80010000D03*
X175290000Y-73055000D03*
X173300000Y-72390000D03*
X175290000Y-80675000D03*
X173300000Y-80010000D03*
X154970000Y-73055000D03*
X152980000Y-72390000D03*
X154970000Y-80675000D03*
X152980000Y-80010000D03*
X134650000Y-73055000D03*
X132660000Y-72390000D03*
X134650000Y-80675000D03*
X132660000Y-80010000D03*
X114330000Y-73055000D03*
X112340000Y-72390000D03*
X114330000Y-80675000D03*
X112340000Y-80010000D03*
X94010000Y-73055000D03*
X92020000Y-72390000D03*
X94010000Y-80675000D03*
X92020000Y-80010000D03*
X73690000Y-73055000D03*
X71700000Y-72390000D03*
X73690000Y-80675000D03*
X71700000Y-80010000D03*
X83890000Y-132080000D03*
X71120000Y-132715000D03*
X71120000Y-132715000D03*
X94080000Y-134620000D03*
X104210000Y-132080000D03*
X106045000Y-137795000D03*
X134650000Y-131415000D03*
X124530000Y-132080000D03*
X130810000Y-129880000D03*
X144850000Y-132080000D03*
X133350000Y-130175000D03*
X165170000Y-132080000D03*
X149210000Y-133365000D03*
X185490000Y-132080000D03*
X195680000Y-134620000D03*
X205810000Y-132080000D03*
X215930000Y-131415000D03*
X226130000Y-132080000D03*
X212090000Y-129880000D03*
X60930000Y-134015000D03*
X53340000Y-140335000D03*
X83835000Y-133365000D03*
X104155000Y-133365000D03*
X124475000Y-133365000D03*
X144795000Y-133365000D03*
X165115000Y-133365000D03*
X185435000Y-133365000D03*
X205755000Y-133365000D03*
X195565000Y-125745000D03*
X73645000Y-125745000D03*
X114285000Y-125745000D03*
X134605000Y-125745000D03*
X154925000Y-125745000D03*
X175245000Y-125745000D03*
X215885000Y-125745000D03*
X168910000Y-125095000D03*
X72934999Y-122010001D03*
X93594999Y-121534999D03*
X226075000Y-133365000D03*
X219075000Y-128905000D03*
X189230000Y-130810000D03*
X185420000Y-127733002D03*
X174625000Y-122555000D03*
X107950000Y-128270000D03*
X93965000Y-125745000D03*
X55789999Y-125820001D03*
X66675000Y-68580000D03*
X76820000Y-80025000D03*
X76820000Y-72405000D03*
X97140000Y-80025000D03*
X97140000Y-72405000D03*
X117460000Y-80025000D03*
X117460000Y-72405000D03*
X137780000Y-80025000D03*
X137780000Y-72405000D03*
X158100000Y-80025000D03*
X158100000Y-72405000D03*
X178420000Y-80025000D03*
X178420000Y-72405000D03*
X198740000Y-80025000D03*
X198740000Y-72405000D03*
X219060000Y-72405000D03*
X219060000Y-80025000D03*
X60945000Y-72405000D03*
X241645000Y-139355000D03*
X241645000Y-111415000D03*
X86980000Y-80025000D03*
X86980000Y-72405000D03*
X107300000Y-80025000D03*
X107300000Y-72405000D03*
X127620000Y-72405000D03*
X127620000Y-80025000D03*
X147940000Y-72405000D03*
X147940000Y-80025000D03*
X168260000Y-80025000D03*
X168260000Y-72405000D03*
X188580000Y-72405000D03*
X188580000Y-80025000D03*
X208900000Y-72405000D03*
X208900000Y-80025000D03*
X229220000Y-80025000D03*
X229220000Y-72405000D03*
X60915000Y-69805000D03*
X240145000Y-142125000D03*
X240145000Y-112510000D03*
X73660000Y-124686998D03*
X73690000Y-131415000D03*
X73660000Y-139065000D03*
X94080000Y-130810000D03*
X93980000Y-124686998D03*
X90170000Y-129880000D03*
X114300000Y-124686998D03*
X117475000Y-129540000D03*
X117792500Y-131762500D03*
X121285000Y-138430000D03*
X132065000Y-133365000D03*
X134620000Y-124686998D03*
X154940000Y-124686998D03*
X158085000Y-131415000D03*
X175260000Y-124686998D03*
X195680000Y-130810000D03*
X179070000Y-128270000D03*
X179070000Y-130175000D03*
X195580000Y-124686998D03*
X191770000Y-129880000D03*
X215900000Y-124686998D03*
X213345000Y-133365000D03*
X83502500Y-125412500D03*
X124142500Y-125412500D03*
X164782500Y-125412500D03*
X98455000Y-123795000D03*
X139095000Y-123795000D03*
X179735000Y-123795000D03*
X98425000Y-118645000D03*
X139065000Y-118645000D03*
X179705000Y-118645000D03*
X220345000Y-118645000D03*
X220375000Y-123795000D03*
X205422500Y-125412500D03*
X163830000Y-128270000D03*
X83102501Y-128822501D03*
X229870000Y-122640000D03*
X238300000Y-137970000D03*
X53249999Y-73750001D03*
X61595000Y-74733002D03*
X57785000Y-64135000D03*
X235585000Y-102870000D03*
X236220000Y-118110000D03*
X236855000Y-139065000D03*
X60915000Y-62185000D03*
X233680000Y-102870000D03*
X233680000Y-119380000D03*
X234950000Y-140970000D03*
X224125000Y-65435000D03*
X203805000Y-65435000D03*
X183485000Y-65435000D03*
X163165000Y-65435000D03*
X142845000Y-65435000D03*
X122525000Y-65435000D03*
X102205000Y-65435000D03*
X81885000Y-65435000D03*
X213965000Y-65435000D03*
X193645000Y-65435000D03*
X173325000Y-65435000D03*
X153005000Y-65435000D03*
X132685000Y-65435000D03*
X112365000Y-65435000D03*
X92045000Y-65435000D03*
X71725000Y-65435000D03*
X226015000Y-62185000D03*
X205695000Y-62185000D03*
X185375000Y-62185000D03*
X165055000Y-62185000D03*
X144735000Y-62185000D03*
X124415000Y-62185000D03*
X104095000Y-62185000D03*
X83775000Y-62185000D03*
X215855000Y-62185000D03*
X195535000Y-62185000D03*
X175215000Y-62185000D03*
X154895000Y-62185000D03*
X134575000Y-62185000D03*
X114255000Y-62185000D03*
X93935000Y-62185000D03*
X73615000Y-62185000D03*
X78105000Y-133885000D03*
X98425000Y-133885000D03*
X118745000Y-133885000D03*
X139065000Y-133885000D03*
X159385000Y-133885000D03*
X200025000Y-133885000D03*
X210185000Y-126265000D03*
X189865000Y-126265000D03*
X169545000Y-126265000D03*
X149225000Y-126265000D03*
X128905000Y-126265000D03*
X108585000Y-126265000D03*
X88265000Y-126265000D03*
X67945000Y-126265000D03*
X128270000Y-128270000D03*
X87630000Y-129540000D03*
X220345000Y-133885000D03*
X210185000Y-128905000D03*
X179070000Y-131445000D03*
X174080001Y-130084999D03*
X183914999Y-131045001D03*
X148484999Y-130280001D03*
X139065000Y-128270000D03*
X106680000Y-128270000D03*
X66675000Y-74930000D03*
X78105000Y-126265000D03*
X118745000Y-126265000D03*
X159385000Y-126265000D03*
X104041501Y-126266501D03*
X144681501Y-126266501D03*
X185321501Y-126266501D03*
X102824999Y-116250001D03*
X143464999Y-116250001D03*
X184104999Y-116250001D03*
X224744999Y-116250001D03*
X225961501Y-126266501D03*
X200025000Y-126265000D03*
X77349999Y-130689999D03*
X53975000Y-75565000D03*
X64600000Y-74760000D03*
X67960000Y-80025000D03*
X67960000Y-72405000D03*
X88280000Y-80025000D03*
X88280000Y-72405000D03*
X108600000Y-80025000D03*
X108600000Y-72405000D03*
X128920000Y-80025000D03*
X128920000Y-72405000D03*
X149240000Y-80025000D03*
X149240000Y-72405000D03*
X169560000Y-80025000D03*
X169560000Y-72405000D03*
X189880000Y-80025000D03*
X189880000Y-72405000D03*
X210200000Y-72405000D03*
X210200000Y-80025000D03*
X62865000Y-72390000D03*
X78120000Y-80025000D03*
X78120000Y-72405000D03*
X98440000Y-80025000D03*
X98440000Y-72405000D03*
X118760000Y-80025000D03*
X118760000Y-72405000D03*
X139080000Y-80025000D03*
X139080000Y-72405000D03*
X159400000Y-80025000D03*
X159400000Y-72405000D03*
X179720000Y-80025000D03*
X179720000Y-72405000D03*
X200040000Y-80025000D03*
X200040000Y-72405000D03*
X220360000Y-80025000D03*
X220360000Y-72405000D03*
X60945000Y-71105000D03*
X70801001Y-63310999D03*
X91121001Y-63310999D03*
X111441001Y-63310999D03*
X131761001Y-63310999D03*
X152081001Y-63310999D03*
X172401001Y-63310999D03*
X192721001Y-63310999D03*
X213041001Y-63310999D03*
X60930000Y-65435000D03*
X80961001Y-63310999D03*
X101281001Y-63310999D03*
X121601001Y-63310999D03*
X141921001Y-63310999D03*
X162241001Y-63310999D03*
X182561001Y-63310999D03*
X202881001Y-63310999D03*
X223201001Y-63310999D03*
X60945000Y-63485000D03*
X226060000Y-63500000D03*
X221352500Y-76462500D03*
X201032500Y-76462500D03*
X205740000Y-63500000D03*
X180712500Y-76462500D03*
X185420000Y-63500000D03*
X160392500Y-76462500D03*
X165100000Y-63500000D03*
X140072500Y-76462500D03*
X144780000Y-63500000D03*
X119752500Y-76462500D03*
X124460000Y-63500000D03*
X99432500Y-76462500D03*
X104140000Y-63500000D03*
X79112500Y-76462500D03*
X83820000Y-63500000D03*
X211192500Y-76462500D03*
X215900000Y-63500000D03*
X190872500Y-76462500D03*
X195580000Y-63500000D03*
X170552500Y-76462500D03*
X175260000Y-63500000D03*
X150232500Y-76462500D03*
X154940000Y-63500000D03*
X129912500Y-76462500D03*
X134620000Y-63500000D03*
X109592500Y-76462500D03*
X114300000Y-63500000D03*
X89272500Y-76462500D03*
X93980000Y-63500000D03*
X73660000Y-63500000D03*
X68952500Y-76462500D03*
X226060000Y-71755000D03*
X220390000Y-85045000D03*
X220345000Y-94615000D03*
X220390000Y-107905000D03*
X226060000Y-79375000D03*
X229205000Y-88295000D03*
X213315000Y-100285000D03*
X215900000Y-104140000D03*
X213360000Y-109855000D03*
X200025000Y-94615000D03*
X200070000Y-85045000D03*
X205740000Y-71755000D03*
X193040000Y-109855000D03*
X195580000Y-104140000D03*
X192995000Y-100285000D03*
X208885000Y-88295000D03*
X205740000Y-79375000D03*
X179750000Y-107905000D03*
X179705000Y-94615000D03*
X179750000Y-85045000D03*
X185420000Y-71755000D03*
X182245000Y-83185000D03*
X172720000Y-109855000D03*
X175260000Y-104140000D03*
X172675000Y-100285000D03*
X188565000Y-88295000D03*
X185420000Y-79375000D03*
X159385000Y-94615000D03*
X159430000Y-85045000D03*
X165100000Y-71755000D03*
X161925000Y-83185000D03*
X152400000Y-109855000D03*
X154940000Y-104140000D03*
X152355000Y-100285000D03*
X168245000Y-88295000D03*
X165100000Y-79375000D03*
X139110000Y-107905000D03*
X139065000Y-94615000D03*
X139110000Y-85045000D03*
X144780000Y-71755000D03*
X142240000Y-83820000D03*
X132080000Y-109855000D03*
X134620000Y-104140000D03*
X132035000Y-100285000D03*
X147925000Y-88295000D03*
X144780000Y-79375000D03*
X118745000Y-94615000D03*
X118790000Y-85045000D03*
X124460000Y-71755000D03*
X121285000Y-83820000D03*
X111760000Y-109855000D03*
X114300000Y-104140000D03*
X111715000Y-100285000D03*
X127605000Y-88295000D03*
X124460000Y-79375000D03*
X98470000Y-107905000D03*
X98425000Y-94615000D03*
X98470000Y-85045000D03*
X104140000Y-71755000D03*
X100965000Y-83820000D03*
X91440000Y-109855000D03*
X93980000Y-104140000D03*
X91395000Y-100285000D03*
X107285000Y-88295000D03*
X104140000Y-79375000D03*
X78105000Y-94615000D03*
X78150000Y-85045000D03*
X83820000Y-71755000D03*
X80575685Y-83185000D03*
X71120000Y-109855000D03*
X73660000Y-104140000D03*
X71075000Y-100285000D03*
X86965000Y-88295000D03*
X83820000Y-79375000D03*
X215900000Y-71755000D03*
X223490000Y-85695000D03*
X210185000Y-86360000D03*
X226075000Y-95265000D03*
X223490000Y-108555000D03*
X215900000Y-79375000D03*
X226075000Y-87645000D03*
X210629999Y-99250001D03*
X215930000Y-111155000D03*
X205755000Y-95265000D03*
X189865000Y-86360000D03*
X203170000Y-85695000D03*
X195580000Y-71755000D03*
X195610000Y-111155000D03*
X190309999Y-99250001D03*
X205755000Y-87645000D03*
X195580000Y-79375000D03*
X182850000Y-108555000D03*
X185435000Y-95265000D03*
X169545000Y-86360000D03*
X182850000Y-85695000D03*
X175260000Y-71755000D03*
X175290000Y-111155000D03*
X169989999Y-99250001D03*
X185435000Y-87645000D03*
X175260000Y-79375000D03*
X165115000Y-95265000D03*
X149225000Y-86360000D03*
X162530000Y-85695000D03*
X154940000Y-71755000D03*
X154970000Y-111155000D03*
X149669999Y-99250001D03*
X165115000Y-87645000D03*
X154940000Y-79375000D03*
X142210000Y-108555000D03*
X144795000Y-95265000D03*
X128905000Y-86360000D03*
X142210000Y-85695000D03*
X134620000Y-71755000D03*
X134650000Y-111155000D03*
X129349999Y-99250001D03*
X144795000Y-87645000D03*
X134620000Y-79375000D03*
X124475000Y-95265000D03*
X108585000Y-86360000D03*
X121890000Y-85695000D03*
X114300000Y-71755000D03*
X114330000Y-111155000D03*
X109029999Y-99250001D03*
X124475000Y-87645000D03*
X114300000Y-79375000D03*
X101570000Y-108555000D03*
X104155000Y-95265000D03*
X88265000Y-86360000D03*
X101570000Y-85695000D03*
X93980000Y-71755000D03*
X94010000Y-111155000D03*
X104155000Y-87645000D03*
X93980000Y-79375000D03*
X90176997Y-99250001D03*
X83835000Y-95265000D03*
X67945000Y-86360000D03*
X81250000Y-85695000D03*
X73660000Y-71755000D03*
X73690000Y-111155000D03*
X68389999Y-99250001D03*
X83835000Y-87645000D03*
X73660000Y-79375000D03*
X229235000Y-86995000D03*
X229220000Y-116825000D03*
X223490000Y-88295000D03*
X223475000Y-115525000D03*
X208915000Y-86995000D03*
X203200000Y-125095000D03*
X205105000Y-121285000D03*
X203170000Y-88295000D03*
X229235000Y-125875000D03*
X188580000Y-116825000D03*
X188595000Y-86995000D03*
X182835000Y-115525000D03*
X182850000Y-88295000D03*
X183832500Y-96837500D03*
X162560000Y-125095000D03*
X168275000Y-86995000D03*
X188595000Y-125875000D03*
X162530000Y-88295000D03*
X189547500Y-83502500D03*
X147940000Y-116825000D03*
X147955000Y-86995000D03*
X142195000Y-115525000D03*
X142210000Y-88295000D03*
X147320000Y-90805000D03*
X121920000Y-125095000D03*
X127635000Y-86995000D03*
X127000000Y-98425000D03*
X128587500Y-103822500D03*
X121920000Y-121285000D03*
X147955000Y-125875000D03*
X121890000Y-88295000D03*
X127000000Y-106045000D03*
X107300000Y-116825000D03*
X107315000Y-86995000D03*
X101555000Y-115525000D03*
X101570000Y-88295000D03*
X101600000Y-90805000D03*
X81280000Y-125095000D03*
X86995000Y-86995000D03*
X107315000Y-125875000D03*
X81250000Y-88295000D03*
X107950000Y-83185000D03*
X226060000Y-117475000D03*
X223505000Y-125745000D03*
X226175000Y-120015000D03*
X222250000Y-129880000D03*
X219075000Y-94095000D03*
X220345000Y-117475000D03*
X219075000Y-106045000D03*
X198755000Y-94095000D03*
X222885000Y-106483002D03*
X231140000Y-106045000D03*
X229855000Y-124445000D03*
X226060000Y-125095000D03*
X203100000Y-123190000D03*
X227330000Y-127930000D03*
X200025000Y-123665000D03*
X220375000Y-126395000D03*
X213315000Y-123145000D03*
X226060000Y-102235000D03*
X222420000Y-122090000D03*
X192995000Y-123145000D03*
X205810000Y-124460000D03*
X205740000Y-102235000D03*
X205770000Y-126395000D03*
X201930000Y-129880000D03*
X200025000Y-124965000D03*
X182865000Y-125745000D03*
X185420000Y-117475000D03*
X181610000Y-129880000D03*
X185535000Y-120015000D03*
X183832500Y-126047500D03*
X179705000Y-117475000D03*
X178435000Y-94095000D03*
X178435000Y-99695000D03*
X158115000Y-94095000D03*
X189230000Y-119380000D03*
X185964999Y-97880001D03*
X178435000Y-90170000D03*
X170180000Y-90805000D03*
X162460000Y-123190000D03*
X185420000Y-125095000D03*
X159385000Y-123665000D03*
X186690000Y-127930000D03*
X159385000Y-121285000D03*
X189230000Y-122555000D03*
X172675000Y-123145000D03*
X179735000Y-126395000D03*
X181780000Y-122090000D03*
X185420000Y-102235000D03*
X165170000Y-124460000D03*
X152355000Y-123145000D03*
X165130000Y-126395000D03*
X165100000Y-102235000D03*
X165100000Y-106045000D03*
X161290000Y-129880000D03*
X159385000Y-124965000D03*
X142225000Y-125745000D03*
X144780000Y-117475000D03*
X140970000Y-129880000D03*
X144895000Y-120015000D03*
X140017500Y-120967500D03*
X139065000Y-117475000D03*
X137795000Y-94095000D03*
X137795000Y-106045000D03*
X117475000Y-94095000D03*
X147955000Y-123925000D03*
X148590000Y-83185000D03*
X121820000Y-123190000D03*
X144780000Y-125095000D03*
X118745000Y-123665000D03*
X146050000Y-127930000D03*
X123190000Y-129540000D03*
X132035000Y-123145000D03*
X139095000Y-126395000D03*
X141140000Y-122090000D03*
X144780000Y-102235000D03*
X124530000Y-124460000D03*
X111715000Y-123145000D03*
X124490000Y-126395000D03*
X124460000Y-102235000D03*
X120650000Y-129880000D03*
X118745000Y-124965000D03*
X104140000Y-117475000D03*
X101585000Y-125745000D03*
X101585000Y-122570000D03*
X100330000Y-129880000D03*
X104255000Y-120015000D03*
X98425000Y-117475000D03*
X97155000Y-94095000D03*
X98182501Y-95642501D03*
X76835000Y-94095000D03*
X106870001Y-122110001D03*
X81975001Y-106740001D03*
X82550000Y-97155000D03*
X81180000Y-123190000D03*
X104140000Y-125095000D03*
X78105000Y-123665000D03*
X105410000Y-127930000D03*
X91395000Y-123145000D03*
X98455000Y-126395000D03*
X100500000Y-122090000D03*
X104140000Y-102235000D03*
X83890000Y-124460000D03*
X71075000Y-123145000D03*
X83850000Y-126395000D03*
X83820000Y-102235000D03*
X80004990Y-121290010D03*
X80010000Y-129880000D03*
X78105000Y-124965000D03*
X224790000Y-132346998D03*
X223490000Y-134015000D03*
X203170000Y-134015000D03*
X204470000Y-132346998D03*
X182850000Y-134015000D03*
X184150000Y-132346998D03*
X162530000Y-134015000D03*
X163830000Y-132346998D03*
X142210000Y-134015000D03*
X143510000Y-132346998D03*
X121890000Y-134015000D03*
X123190000Y-132346998D03*
X101570000Y-134015000D03*
X102870000Y-132346998D03*
X81250000Y-134015000D03*
X82550000Y-132346998D03*
X216187500Y-132427500D03*
X193025000Y-133365000D03*
X219030000Y-134665000D03*
X171450000Y-129880000D03*
X174307500Y-134937500D03*
X195580000Y-132080000D03*
X152360000Y-132080000D03*
X198710000Y-134665000D03*
X151130000Y-129880000D03*
X189865000Y-133495000D03*
X169560000Y-133365000D03*
X158070000Y-134665000D03*
X110490000Y-129880000D03*
X175360000Y-130810000D03*
X149240000Y-132065000D03*
X91425000Y-133365000D03*
X134907500Y-132427500D03*
X137750000Y-134665000D03*
X117475000Y-133985000D03*
X93980000Y-132080000D03*
X71090000Y-131415000D03*
X97110000Y-134665000D03*
X69850000Y-129880000D03*
X93027500Y-133667500D03*
X88265000Y-133495000D03*
X114330000Y-131415000D03*
X76790000Y-134665000D03*
X66645000Y-116175000D03*
X67310000Y-134620000D03*
X67960000Y-132065000D03*
X60960000Y-117475000D03*
X175260000Y-132080000D03*
X111745000Y-133365000D03*
X178390000Y-134665000D03*
X57830000Y-107905000D03*
X114300000Y-132715000D03*
X60930000Y-116175000D03*
X112395000Y-138430000D03*
X51435000Y-116205000D03*
X114345000Y-134665000D03*
X59690000Y-114640000D03*
X114300000Y-138430000D03*
X50165000Y-114935000D03*
X108615000Y-134015000D03*
X60960000Y-109855000D03*
X57800000Y-116825000D03*
X63500000Y-107950000D03*
X60905000Y-125095000D03*
X63500000Y-109855000D03*
X66675000Y-123275000D03*
X66630000Y-111805000D03*
X214600000Y-88295000D03*
X214660000Y-85695000D03*
X219030000Y-88945000D03*
X219060000Y-86345000D03*
X212090000Y-91780000D03*
X215900000Y-86995000D03*
X220375000Y-93315000D03*
X215942500Y-88222500D03*
X216000000Y-92710000D03*
X213330000Y-95915000D03*
X219030000Y-96565000D03*
X215915000Y-93965000D03*
X219195001Y-92589999D03*
X219060000Y-95265000D03*
X215930000Y-100935000D03*
X213330000Y-103535000D03*
X219060000Y-101585000D03*
X219030000Y-104185000D03*
X213360000Y-102235000D03*
X210215000Y-108555000D03*
X224064999Y-102960001D03*
X212090000Y-107020000D03*
X223505000Y-93965000D03*
X223490000Y-100935000D03*
X226060000Y-104140000D03*
X194340000Y-85695000D03*
X194280000Y-88295000D03*
X198710000Y-88945000D03*
X198740000Y-86345000D03*
X191770000Y-91780000D03*
X195580000Y-86995000D03*
X195622500Y-88222500D03*
X200055000Y-93315000D03*
X195680000Y-92710000D03*
X193010000Y-95915000D03*
X198710000Y-96565000D03*
X195595000Y-93965000D03*
X198875001Y-92589999D03*
X198740000Y-95265000D03*
X193010000Y-93315000D03*
X195580000Y-96520000D03*
X210185000Y-109658002D03*
X229235000Y-94615000D03*
X229205000Y-111155000D03*
X205740000Y-111125000D03*
X226060000Y-111125000D03*
X215900000Y-109855000D03*
X200070000Y-107905000D03*
X208915000Y-94615000D03*
X205740000Y-104140000D03*
X203170000Y-100935000D03*
X203185000Y-93965000D03*
X195610000Y-100935000D03*
X193010000Y-103535000D03*
X198740000Y-101585000D03*
X198710000Y-104185000D03*
X189895000Y-108555000D03*
X193040000Y-102235000D03*
X191770000Y-107020000D03*
X203744999Y-102960001D03*
X195580000Y-109855000D03*
X203170000Y-108555000D03*
X189865000Y-109658002D03*
X203835000Y-116205000D03*
X226060000Y-109220000D03*
X215930000Y-118775000D03*
X208885000Y-111155000D03*
X220375000Y-111155000D03*
X205740000Y-109220000D03*
X210930000Y-114300000D03*
X200055000Y-111155000D03*
X213340000Y-116860000D03*
X215970000Y-116840000D03*
X201930000Y-114640000D03*
X210215000Y-118775000D03*
X192995000Y-115525000D03*
X205740000Y-116840000D03*
X193040000Y-117475000D03*
X172690000Y-93315000D03*
X175260000Y-96520000D03*
X159385000Y-118745000D03*
X195580000Y-120015000D03*
X180975000Y-98425000D03*
X174020000Y-85695000D03*
X173960000Y-88295000D03*
X178390000Y-88945000D03*
X178420000Y-86345000D03*
X171450000Y-91780000D03*
X175260000Y-86995000D03*
X175302500Y-88222500D03*
X179735000Y-93315000D03*
X175360000Y-92710000D03*
X172690000Y-95915000D03*
X178390000Y-96565000D03*
X175275000Y-93965000D03*
X178555001Y-92589999D03*
X178420000Y-95265000D03*
X175290000Y-100935000D03*
X172690000Y-103535000D03*
X178420000Y-101585000D03*
X178390000Y-104185000D03*
X169575000Y-108555000D03*
X172720000Y-102235000D03*
X171450000Y-107020000D03*
X183424999Y-102960001D03*
X185420000Y-104140000D03*
X182850000Y-100935000D03*
X182865000Y-93965000D03*
X153700000Y-85695000D03*
X153640000Y-88295000D03*
X158070000Y-88945000D03*
X158100000Y-86345000D03*
X151130000Y-91780000D03*
X154940000Y-86995000D03*
X154982500Y-88222500D03*
X161930001Y-91445001D03*
X155040000Y-92710000D03*
X152370000Y-95915000D03*
X158070000Y-96565000D03*
X154955000Y-93965000D03*
X158235001Y-92589999D03*
X158100000Y-95265000D03*
X169545000Y-109658002D03*
X152370000Y-93315000D03*
X154940000Y-96520000D03*
X188565000Y-111155000D03*
X188595000Y-94615000D03*
X175260000Y-109855000D03*
X165100000Y-111125000D03*
X185420000Y-111125000D03*
X159430000Y-107905000D03*
X168275000Y-94615000D03*
X165100000Y-104140000D03*
X162530000Y-100935000D03*
X162545000Y-93965000D03*
X154970000Y-100935000D03*
X152370000Y-103535000D03*
X158100000Y-101585000D03*
X158070000Y-104185000D03*
X149255000Y-108555000D03*
X152400000Y-102235000D03*
X151130000Y-107020000D03*
X163104999Y-102960001D03*
X154940000Y-109855000D03*
X162530000Y-108555000D03*
X163195000Y-116205000D03*
X149225000Y-109658002D03*
X175290000Y-118775000D03*
X185420000Y-109220000D03*
X168245000Y-111155000D03*
X179735000Y-111155000D03*
X170290000Y-114300000D03*
X165100000Y-109220000D03*
X159415000Y-111155000D03*
X172700000Y-116860000D03*
X161290000Y-114640000D03*
X175330000Y-116840000D03*
X152355000Y-115525000D03*
X169575000Y-118775000D03*
X152400000Y-117475000D03*
X165100000Y-116840000D03*
X154940000Y-120015000D03*
X132050000Y-93315000D03*
X134620000Y-96520000D03*
X118745000Y-118645000D03*
X133380000Y-85695000D03*
X133320000Y-88295000D03*
X137750000Y-88945000D03*
X137780000Y-86345000D03*
X130810000Y-91780000D03*
X134620000Y-86995000D03*
X134662500Y-88222500D03*
X139095000Y-93315000D03*
X134720000Y-92710000D03*
X132050000Y-95915000D03*
X137750000Y-96565000D03*
X134635000Y-93965000D03*
X137915001Y-92589999D03*
X137780000Y-95265000D03*
X134650000Y-100935000D03*
X132050000Y-103535000D03*
X137780000Y-101585000D03*
X137750000Y-104185000D03*
X128935000Y-108555000D03*
X132080000Y-102235000D03*
X130810000Y-107020000D03*
X142784999Y-102960001D03*
X144780000Y-104140000D03*
X142210000Y-100935000D03*
X142225000Y-93965000D03*
X113060000Y-85695000D03*
X113000000Y-88295000D03*
X117430000Y-88945000D03*
X117460000Y-86345000D03*
X110490000Y-91780000D03*
X114300000Y-86995000D03*
X114342500Y-88222500D03*
X121290001Y-90810001D03*
X114400000Y-92710000D03*
X111730000Y-95915000D03*
X117430000Y-96565000D03*
X114315000Y-93965000D03*
X117595001Y-92589999D03*
X117460000Y-95265000D03*
X128905000Y-109658002D03*
X111730000Y-93315000D03*
X114300000Y-96520000D03*
X147925000Y-111155000D03*
X147955000Y-94615000D03*
X134620000Y-109855000D03*
X124460000Y-111125000D03*
X144780000Y-111125000D03*
X118790000Y-107905000D03*
X127635000Y-94615000D03*
X124460000Y-104140000D03*
X121890000Y-100935000D03*
X121905000Y-93965000D03*
X114330000Y-100935000D03*
X111730000Y-103535000D03*
X117460000Y-101585000D03*
X117430000Y-104185000D03*
X108615000Y-108555000D03*
X111760000Y-102235000D03*
X110490000Y-107020000D03*
X122464999Y-102960001D03*
X114300000Y-109855000D03*
X121890000Y-108555000D03*
X122555000Y-116205000D03*
X108585000Y-109658002D03*
X134650000Y-118775000D03*
X144780000Y-109220000D03*
X142240000Y-113030000D03*
X127605000Y-111155000D03*
X139095000Y-111155000D03*
X129650000Y-114300000D03*
X124460000Y-109220000D03*
X118775000Y-111155000D03*
X132060000Y-116860000D03*
X120650000Y-114640000D03*
X134690000Y-116840000D03*
X111715000Y-115525000D03*
X128935000Y-118775000D03*
X111760000Y-117475000D03*
X124460000Y-116840000D03*
X114300000Y-120015000D03*
X91410000Y-93315000D03*
X93980000Y-96520000D03*
X78105000Y-118645000D03*
X87539999Y-97880001D03*
X92740000Y-85695000D03*
X92680000Y-88295000D03*
X97110000Y-88945000D03*
X97140000Y-86345000D03*
X90170000Y-91780000D03*
X93980000Y-86995000D03*
X94022500Y-88222500D03*
X98455000Y-93315000D03*
X94080000Y-92710000D03*
X91410000Y-95915000D03*
X97110000Y-96565000D03*
X93995000Y-93965000D03*
X97275001Y-92589999D03*
X97140000Y-95265000D03*
X94010000Y-100935000D03*
X91410000Y-103535000D03*
X97140000Y-101585000D03*
X97110000Y-104185000D03*
X88295000Y-108555000D03*
X91440000Y-102235000D03*
X90170000Y-107020000D03*
X102144999Y-102960001D03*
X104140000Y-104140000D03*
X101570000Y-100935000D03*
X101585000Y-93965000D03*
X72420000Y-85695000D03*
X72360000Y-88295000D03*
X76790000Y-88945000D03*
X76820000Y-86345000D03*
X69850000Y-91780000D03*
X73660000Y-86995000D03*
X73702500Y-88222500D03*
X80650001Y-91445001D03*
X73760000Y-92710000D03*
X71090000Y-95915000D03*
X76790000Y-96565000D03*
X73675000Y-93965000D03*
X76955001Y-92589999D03*
X76820000Y-95265000D03*
X88265000Y-109658002D03*
X71090000Y-93315000D03*
X73660000Y-96520000D03*
X107285000Y-111155000D03*
X107315000Y-94615000D03*
X93980000Y-109855000D03*
X83820000Y-111125000D03*
X104140000Y-111125000D03*
X78150000Y-107905000D03*
X86995000Y-94615000D03*
X83820000Y-104140000D03*
X81250000Y-100935000D03*
X81265000Y-93965000D03*
X73690000Y-100935000D03*
X71090000Y-103535000D03*
X76820000Y-101585000D03*
X76790000Y-104185000D03*
X67975000Y-108555000D03*
X71120000Y-102235000D03*
X69850000Y-107020000D03*
X81824999Y-102960001D03*
X73660000Y-109855000D03*
X81250000Y-108555000D03*
X81915000Y-116205000D03*
X67945000Y-109658002D03*
X94010000Y-118775000D03*
X104140000Y-109220000D03*
X86965000Y-111155000D03*
X98455000Y-111155000D03*
X89010000Y-114300000D03*
X83820000Y-109220000D03*
X78135000Y-111155000D03*
X91420000Y-116860000D03*
X80010000Y-114640000D03*
X94050000Y-116840000D03*
X71075000Y-115525000D03*
X88295000Y-118775000D03*
X71120000Y-117475000D03*
X83820000Y-116840000D03*
X73660000Y-120015000D03*
X243205000Y-109855000D03*
X228600000Y-46990000D03*
X241300000Y-147320000D03*
D17*
X230320010Y-127434988D02*
X230320009Y-134806401D01*
X230320009Y-134806401D02*
X228786400Y-136340010D01*
X246099998Y-111655000D02*
X230320010Y-127434988D01*
X249220000Y-111655000D02*
X246099998Y-111655000D01*
X228786400Y-136340010D02*
X103689990Y-136340010D01*
X103689990Y-136340010D02*
X102870000Y-137160000D01*
X102870000Y-145542000D02*
X100203000Y-148209000D01*
X102870000Y-137160000D02*
X102870000Y-145542000D01*
X118110000Y-145542000D02*
X115443000Y-148209000D01*
X118110000Y-138430000D02*
X118110000Y-145542000D01*
X246099998Y-114425000D02*
X231220028Y-129304970D01*
X119299970Y-137240030D02*
X118110000Y-138430000D01*
X249220000Y-114425000D02*
X246099998Y-114425000D01*
X231220028Y-129304970D02*
X231220027Y-135179203D01*
X229159200Y-137240030D02*
X119299970Y-137240030D01*
X231220027Y-135179203D02*
X229159200Y-137240030D01*
X94479999Y-134220001D02*
X94080000Y-134620000D01*
X97078003Y-131621997D02*
X94479999Y-134220001D01*
X103751997Y-131621997D02*
X97078003Y-131621997D01*
X104210000Y-132080000D02*
X103751997Y-131621997D01*
X132715000Y-139330020D02*
X132715000Y-144907000D01*
X246099998Y-117195000D02*
X232120046Y-131174952D01*
X249220000Y-117195000D02*
X246099998Y-117195000D01*
X232120046Y-131174952D02*
X232120045Y-135552005D01*
X132715000Y-144907000D02*
X129413000Y-148209000D01*
X229427040Y-138245010D02*
X133800010Y-138245010D01*
X232120045Y-135552005D02*
X229427040Y-138245010D01*
X133800010Y-138245010D02*
X132715000Y-139330020D01*
X147320000Y-145542000D02*
X144653000Y-148209000D01*
X147320000Y-140335000D02*
X147320000Y-145542000D01*
X245795000Y-119965000D02*
X233045000Y-132715000D01*
X233045000Y-135899870D02*
X229799840Y-139145030D01*
X249220000Y-119965000D02*
X245795000Y-119965000D01*
X229799840Y-139145030D02*
X148509970Y-139145030D01*
X233045000Y-132715000D02*
X233045000Y-135899870D01*
X148509970Y-139145030D02*
X147320000Y-140335000D01*
X143459999Y-130689999D02*
X133864999Y-130689999D01*
X144850000Y-132080000D02*
X143459999Y-130689999D01*
X133864999Y-130689999D02*
X133350000Y-130175000D01*
X133350000Y-130175000D02*
X133350000Y-130175000D01*
X162560000Y-145542000D02*
X159893000Y-148209000D01*
X162560000Y-140970000D02*
X162560000Y-145542000D01*
X246099998Y-122735000D02*
X233945018Y-134889979D01*
X230067680Y-140150010D02*
X163379990Y-140150010D01*
X249220000Y-122735000D02*
X246099998Y-122735000D01*
X233945018Y-134889979D02*
X233945019Y-136272671D01*
X233945019Y-136272671D02*
X230067680Y-140150010D01*
X163379990Y-140150010D02*
X162560000Y-140970000D01*
X179624970Y-141050030D02*
X177800000Y-142875000D01*
X230440480Y-141050030D02*
X179624970Y-141050030D01*
X177800000Y-142875000D02*
X177800000Y-145542000D01*
X249220000Y-125505000D02*
X245985510Y-125505000D01*
X177800000Y-145542000D02*
X175133000Y-148209000D01*
X245985510Y-125505000D02*
X230440480Y-141050030D01*
X193206998Y-134620000D02*
X190666998Y-132080000D01*
X195680000Y-134620000D02*
X193206998Y-134620000D01*
X190666998Y-132080000D02*
X185490000Y-132080000D01*
X192405000Y-146177000D02*
X190373000Y-148209000D01*
X192405000Y-143510000D02*
X192405000Y-146177000D01*
X193859990Y-142055010D02*
X192405000Y-143510000D01*
X230720030Y-142055010D02*
X193859990Y-142055010D01*
X249220000Y-128275000D02*
X244500040Y-128275000D01*
X244500040Y-128275000D02*
X230720030Y-142055010D01*
X206475000Y-131415000D02*
X205810000Y-132080000D01*
X215930000Y-131415000D02*
X206475000Y-131415000D01*
X208280000Y-144145000D02*
X208280000Y-145542000D01*
X209469970Y-142955030D02*
X208280000Y-144145000D01*
X208280000Y-145542000D02*
X205613000Y-148209000D01*
X231092830Y-142955030D02*
X209469970Y-142955030D01*
X249220000Y-131045000D02*
X243002860Y-131045000D01*
X243002860Y-131045000D02*
X231092830Y-142955030D01*
X250019999Y-134614999D02*
X249220000Y-133815000D01*
X250345001Y-142665001D02*
X250345001Y-134940001D01*
X243576001Y-149434001D02*
X250345001Y-142665001D01*
X222715793Y-149434001D02*
X243576001Y-149434001D01*
X250345001Y-134940001D02*
X250019999Y-134614999D01*
X218950792Y-145669000D02*
X222715793Y-149434001D01*
X217678000Y-145669000D02*
X218950792Y-145669000D01*
X174845001Y-125345001D02*
X169160001Y-125345001D01*
X175245000Y-125745000D02*
X174845001Y-125345001D01*
X169160001Y-125345001D02*
X168910000Y-125095000D01*
X168910000Y-125095000D02*
X168910000Y-125095000D01*
X114684999Y-126144999D02*
X114285000Y-125745000D01*
X115660001Y-127120001D02*
X114684999Y-126144999D01*
X133229999Y-127120001D02*
X115660001Y-127120001D01*
X134605000Y-125745000D02*
X133229999Y-127120001D01*
X94530685Y-125745000D02*
X93965000Y-125745000D01*
X97578002Y-125745000D02*
X94530685Y-125745000D01*
X98953003Y-124369999D02*
X97578002Y-125745000D01*
X112909999Y-124369999D02*
X98953003Y-124369999D01*
X114285000Y-125745000D02*
X112909999Y-124369999D01*
X84741999Y-121534999D02*
X93594999Y-121534999D01*
X75758013Y-122015011D02*
X84261987Y-122015011D01*
X75278001Y-121534999D02*
X75758013Y-122015011D01*
X84261987Y-122015011D02*
X84741999Y-121534999D01*
X72934999Y-122010001D02*
X73410001Y-121534999D01*
X73410001Y-121534999D02*
X75278001Y-121534999D01*
X93594999Y-121534999D02*
X93594999Y-121534999D01*
X134205001Y-126144999D02*
X134605000Y-125745000D01*
X131614991Y-128735009D02*
X134205001Y-126144999D01*
X131614991Y-130148011D02*
X131614991Y-128735009D01*
X128398002Y-133365000D02*
X131614991Y-130148011D01*
X124475000Y-133365000D02*
X128398002Y-133365000D01*
X83269315Y-133365000D02*
X83835000Y-133365000D01*
X81830685Y-133365000D02*
X83269315Y-133365000D01*
X74210685Y-125745000D02*
X81830685Y-133365000D01*
X73645000Y-125745000D02*
X74210685Y-125745000D01*
X93965000Y-125745000D02*
X93965000Y-125745000D01*
X61451999Y-68194999D02*
X66289999Y-68194999D01*
X55789999Y-125820001D02*
X55789999Y-73856999D01*
X55789999Y-73856999D02*
X61451999Y-68194999D01*
X66289999Y-68194999D02*
X66675000Y-68580000D01*
X199139999Y-79625001D02*
X198740000Y-80025000D01*
X200115001Y-78649999D02*
X199139999Y-79625001D01*
X217684999Y-78649999D02*
X200115001Y-78649999D01*
X219060000Y-80025000D02*
X217684999Y-78649999D01*
X178819999Y-79625001D02*
X178420000Y-80025000D01*
X179795001Y-78649999D02*
X178819999Y-79625001D01*
X197364999Y-78649999D02*
X179795001Y-78649999D01*
X198740000Y-80025000D02*
X197364999Y-78649999D01*
X158499999Y-79625001D02*
X158100000Y-80025000D01*
X159475001Y-78649999D02*
X158499999Y-79625001D01*
X177044999Y-78649999D02*
X159475001Y-78649999D01*
X178420000Y-80025000D02*
X177044999Y-78649999D01*
X138179999Y-79625001D02*
X137780000Y-80025000D01*
X156724999Y-78649999D02*
X139155001Y-78649999D01*
X139155001Y-78649999D02*
X138179999Y-79625001D01*
X158100000Y-80025000D02*
X156724999Y-78649999D01*
X117859999Y-79625001D02*
X117460000Y-80025000D01*
X118835001Y-78649999D02*
X117859999Y-79625001D01*
X136404999Y-78649999D02*
X118835001Y-78649999D01*
X137780000Y-80025000D02*
X136404999Y-78649999D01*
X97539999Y-79625001D02*
X97140000Y-80025000D01*
X98515001Y-78649999D02*
X97539999Y-79625001D01*
X116084999Y-78649999D02*
X98515001Y-78649999D01*
X117460000Y-80025000D02*
X116084999Y-78649999D01*
X77219999Y-79625001D02*
X76820000Y-80025000D01*
X78195001Y-78649999D02*
X77219999Y-79625001D01*
X95764999Y-78649999D02*
X78195001Y-78649999D01*
X97140000Y-80025000D02*
X95764999Y-78649999D01*
X75444999Y-73780001D02*
X76420001Y-72804999D01*
X76420001Y-72804999D02*
X76820000Y-72405000D01*
X63105003Y-73780001D02*
X75444999Y-73780001D01*
X61730002Y-72405000D02*
X63105003Y-73780001D01*
X60945000Y-72405000D02*
X61730002Y-72405000D01*
X241645000Y-111415000D02*
X241645000Y-79720000D01*
X219459999Y-79625001D02*
X219060000Y-80025000D01*
X220435001Y-78649999D02*
X219459999Y-79625001D01*
X240574999Y-78649999D02*
X220435001Y-78649999D01*
X241645000Y-79720000D02*
X240574999Y-78649999D01*
X209299999Y-72005001D02*
X208900000Y-72405000D01*
X210275001Y-71029999D02*
X209299999Y-72005001D01*
X227844999Y-71029999D02*
X210275001Y-71029999D01*
X229220000Y-72405000D02*
X227844999Y-71029999D01*
X188979999Y-72005001D02*
X188580000Y-72405000D01*
X189955001Y-71029999D02*
X188979999Y-72005001D01*
X207524999Y-71029999D02*
X189955001Y-71029999D01*
X208900000Y-72405000D02*
X207524999Y-71029999D01*
X168659999Y-72005001D02*
X168260000Y-72405000D01*
X169635001Y-71029999D02*
X168659999Y-72005001D01*
X187204999Y-71029999D02*
X169635001Y-71029999D01*
X188580000Y-72405000D02*
X187204999Y-71029999D01*
X149315001Y-71029999D02*
X148339999Y-72005001D01*
X166884999Y-71029999D02*
X149315001Y-71029999D01*
X148339999Y-72005001D02*
X147940000Y-72405000D01*
X168260000Y-72405000D02*
X166884999Y-71029999D01*
X128019999Y-72005001D02*
X127620000Y-72405000D01*
X128995001Y-71029999D02*
X128019999Y-72005001D01*
X146564999Y-71029999D02*
X128995001Y-71029999D01*
X147940000Y-72405000D02*
X146564999Y-71029999D01*
X107699999Y-72005001D02*
X107300000Y-72405000D01*
X108675001Y-71029999D02*
X107699999Y-72005001D01*
X126244999Y-71029999D02*
X108675001Y-71029999D01*
X127620000Y-72405000D02*
X126244999Y-71029999D01*
X87379999Y-72005001D02*
X86980000Y-72405000D01*
X105924999Y-71029999D02*
X88355001Y-71029999D01*
X88355001Y-71029999D02*
X87379999Y-72005001D01*
X107300000Y-72405000D02*
X105924999Y-71029999D01*
X84380000Y-69805000D02*
X86980000Y-72405000D01*
X60915000Y-69805000D02*
X84380000Y-69805000D01*
X246380000Y-110270000D02*
X229870000Y-126780000D01*
X229870000Y-126780000D02*
X229870000Y-134620000D01*
X229870000Y-134620000D02*
X228600000Y-135890000D01*
X228600000Y-135890000D02*
X95885000Y-135890000D01*
X95885000Y-135890000D02*
X95250000Y-136525000D01*
X95250000Y-145542000D02*
X92583000Y-148209000D01*
X95250000Y-136525000D02*
X95250000Y-145542000D01*
X92583000Y-148209000D02*
X83439000Y-139065000D01*
X83439000Y-139065000D02*
X73660000Y-139065000D01*
X73660000Y-139065000D02*
X73660000Y-139065000D01*
X73260001Y-125086997D02*
X73660000Y-124686998D01*
X72919999Y-125426999D02*
X73260001Y-125086997D01*
X72919999Y-130644999D02*
X72919999Y-125426999D01*
X73690000Y-131415000D02*
X72919999Y-130644999D01*
X109855000Y-146177000D02*
X107823000Y-148209000D01*
X230770019Y-128649981D02*
X230770018Y-134992802D01*
X110859980Y-136790020D02*
X109855000Y-137795000D01*
X246380000Y-113040000D02*
X230770019Y-128649981D01*
X230770018Y-134992802D02*
X228972800Y-136790020D01*
X228972800Y-136790020D02*
X110859980Y-136790020D01*
X109855000Y-137795000D02*
X109855000Y-146177000D01*
X246380000Y-115810000D02*
X231670036Y-130519964D01*
X231670036Y-130519964D02*
X231670036Y-135365604D01*
X229240640Y-137795000D02*
X127000000Y-137795000D01*
X127000000Y-137795000D02*
X125730000Y-139065000D01*
X231670036Y-135365604D02*
X229240640Y-137795000D01*
X90569999Y-129480001D02*
X90170000Y-129880000D01*
X90909999Y-129140001D02*
X90569999Y-129480001D01*
X117075001Y-129140001D02*
X90909999Y-129140001D01*
X117475000Y-129540000D02*
X117075001Y-129140001D01*
X125095000Y-138430000D02*
X125730000Y-139065000D01*
X121285000Y-138430000D02*
X125095000Y-138430000D01*
X123952000Y-146685000D02*
X122428000Y-148209000D01*
X125730000Y-139065000D02*
X125730000Y-146050000D01*
X125095000Y-146685000D02*
X123952000Y-146685000D01*
X125730000Y-146050000D02*
X125095000Y-146685000D01*
X139700000Y-145542000D02*
X137033000Y-148209000D01*
X246380000Y-118580000D02*
X232570054Y-132389946D01*
X232570054Y-132389946D02*
X232570054Y-135738406D01*
X232570054Y-135738406D02*
X229613440Y-138695020D01*
X229613440Y-138695020D02*
X140704980Y-138695020D01*
X140704980Y-138695020D02*
X139700000Y-139700000D01*
X139700000Y-139700000D02*
X139700000Y-145542000D01*
X135330001Y-125396999D02*
X135019999Y-125086997D01*
X135019999Y-125086997D02*
X134620000Y-124686998D01*
X135330001Y-126093001D02*
X135330001Y-125396999D01*
X132065000Y-129358002D02*
X135330001Y-126093001D01*
X132065000Y-133365000D02*
X132065000Y-129358002D01*
X233495009Y-134234991D02*
X233495010Y-136086270D01*
X233495010Y-136086270D02*
X229881280Y-139700000D01*
X246380000Y-121350000D02*
X233495009Y-134234991D01*
X229881280Y-139700000D02*
X156210000Y-139700000D01*
X154305000Y-146177000D02*
X152273000Y-148209000D01*
X156210000Y-139700000D02*
X154305000Y-141605000D01*
X154305000Y-141605000D02*
X154305000Y-146177000D01*
X171819980Y-140600020D02*
X170180000Y-142240000D01*
X230254080Y-140600020D02*
X171819980Y-140600020D01*
X170180000Y-145542000D02*
X167513000Y-148209000D01*
X242570000Y-128284100D02*
X230254080Y-140600020D01*
X170180000Y-142240000D02*
X170180000Y-145542000D01*
X245580001Y-124919999D02*
X244650001Y-124919999D01*
X244650001Y-124919999D02*
X243840000Y-125730000D01*
X243741408Y-125730000D02*
X242570000Y-126901408D01*
X246380000Y-124120000D02*
X245580001Y-124919999D01*
X243840000Y-125730000D02*
X243741408Y-125730000D01*
X242570000Y-126901408D02*
X242570000Y-128284100D01*
X194090686Y-128655001D02*
X179455001Y-128655001D01*
X195680000Y-130810000D02*
X195680000Y-130244315D01*
X195680000Y-130244315D02*
X194090686Y-128655001D01*
X179455001Y-128655001D02*
X179070000Y-128270000D01*
X179070000Y-128270000D02*
X179070000Y-128270000D01*
X184785000Y-142875000D02*
X184785000Y-146177000D01*
X186055000Y-141605000D02*
X184785000Y-142875000D01*
X184785000Y-146177000D02*
X182753000Y-148209000D01*
X230533630Y-141605000D02*
X186055000Y-141605000D01*
X246380000Y-126890000D02*
X245248630Y-126890000D01*
X245248630Y-126890000D02*
X230533630Y-141605000D01*
X202299980Y-142505020D02*
X201295000Y-143510000D01*
X201295000Y-144907000D02*
X197993000Y-148209000D01*
X230906430Y-142505020D02*
X202299980Y-142505020D01*
X246380000Y-129660000D02*
X243751450Y-129660000D01*
X201295000Y-143510000D02*
X201295000Y-144907000D01*
X243751450Y-129660000D02*
X230906430Y-142505020D01*
X220375000Y-118675000D02*
X220345000Y-118645000D01*
X220375000Y-123795000D02*
X220375000Y-118675000D01*
X205988185Y-125412500D02*
X205422500Y-125412500D01*
X207599999Y-123870001D02*
X206057500Y-125412500D01*
X219734314Y-123870001D02*
X207599999Y-123870001D01*
X219809315Y-123795000D02*
X219734314Y-123870001D01*
X206057500Y-125412500D02*
X205988185Y-125412500D01*
X220375000Y-123795000D02*
X219809315Y-123795000D01*
X180300685Y-123795000D02*
X179735000Y-123795000D01*
X180467682Y-123961997D02*
X180300685Y-123795000D01*
X196221005Y-123961997D02*
X180467682Y-123961997D01*
X197243003Y-122939999D02*
X196221005Y-123961997D01*
X200373001Y-122939999D02*
X197243003Y-122939999D01*
X200750001Y-123316999D02*
X200373001Y-122939999D01*
X200750001Y-123753591D02*
X200750001Y-123316999D01*
X202816411Y-125820001D02*
X200750001Y-123753591D01*
X205014999Y-125820001D02*
X202816411Y-125820001D01*
X205422500Y-125412500D02*
X205014999Y-125820001D01*
X143955001Y-128655001D02*
X139494999Y-124194999D01*
X139494999Y-124194999D02*
X139095000Y-123795000D01*
X156361997Y-128655001D02*
X143955001Y-128655001D01*
X156746998Y-128270000D02*
X156361997Y-128655001D01*
X163830000Y-128270000D02*
X156746998Y-128270000D01*
X124708185Y-125412500D02*
X124142500Y-125412500D01*
X126250684Y-123870001D02*
X124708185Y-125412500D01*
X138454314Y-123870001D02*
X126250684Y-123870001D01*
X138529315Y-123795000D02*
X138454314Y-123870001D01*
X139095000Y-123795000D02*
X138529315Y-123795000D01*
X98824999Y-119044999D02*
X98425000Y-118645000D01*
X100520001Y-120740001D02*
X98824999Y-119044999D01*
X115088609Y-120740001D02*
X100520001Y-120740001D01*
X116008600Y-119820010D02*
X115088609Y-120740001D01*
X137889990Y-119820010D02*
X116008600Y-119820010D01*
X139065000Y-118645000D02*
X137889990Y-119820010D01*
X84137500Y-125412500D02*
X84068185Y-125412500D01*
X84068185Y-125412500D02*
X83502500Y-125412500D01*
X97889315Y-123795000D02*
X97814314Y-123870001D01*
X85679999Y-123870001D02*
X84137500Y-125412500D01*
X97814314Y-123870001D02*
X85679999Y-123870001D01*
X98455000Y-123795000D02*
X97889315Y-123795000D01*
X53249999Y-136178207D02*
X53249999Y-73750001D01*
X61468000Y-145669000D02*
X61468000Y-144396208D01*
X61468000Y-144396208D02*
X53249999Y-136178207D01*
X53249999Y-73750001D02*
X53249999Y-73750001D01*
X236220000Y-103505000D02*
X235585000Y-102870000D01*
X236220000Y-118110000D02*
X236220000Y-103505000D01*
X233680000Y-119380000D02*
X233680000Y-102870000D01*
X249220000Y-36753630D02*
X249220000Y-37885000D01*
X247841369Y-35374999D02*
X249220000Y-36753630D01*
X245839999Y-35374999D02*
X247841369Y-35374999D01*
X245609999Y-35604999D02*
X245839999Y-35374999D01*
X199345001Y-35604999D02*
X245609999Y-35604999D01*
X198120000Y-36830000D02*
X199345001Y-35604999D01*
X182880000Y-36830000D02*
X187325000Y-32385000D01*
X250019999Y-39855001D02*
X249220000Y-40655000D01*
X250795011Y-39079989D02*
X250019999Y-39855001D01*
X250795011Y-37055821D02*
X250795011Y-39079989D01*
X246124190Y-32385000D02*
X250795011Y-37055821D01*
X187325000Y-32385000D02*
X246124190Y-32385000D01*
X248088630Y-43425000D02*
X249220000Y-43425000D01*
X246099998Y-43425000D02*
X248088630Y-43425000D01*
X168275000Y-38735000D02*
X241409998Y-38735000D01*
X167640000Y-38100000D02*
X168275000Y-38735000D01*
X241409998Y-38735000D02*
X246099998Y-43425000D01*
X167640000Y-36830000D02*
X167640000Y-38100000D01*
X248088630Y-46195000D02*
X249220000Y-46195000D01*
X153035000Y-39739980D02*
X239644978Y-39739980D01*
X239644978Y-39739980D02*
X246099998Y-46195000D01*
X152400000Y-39104980D02*
X153035000Y-39739980D01*
X246099998Y-46195000D02*
X248088630Y-46195000D01*
X152400000Y-36830000D02*
X152400000Y-39104980D01*
X248088630Y-48965000D02*
X249220000Y-48965000D01*
X237774998Y-40640000D02*
X246099998Y-48965000D01*
X137795000Y-40640000D02*
X237774998Y-40640000D01*
X246099998Y-48965000D02*
X248088630Y-48965000D01*
X137160000Y-40005000D02*
X137795000Y-40640000D01*
X137160000Y-36830000D02*
X137160000Y-40005000D01*
X248088630Y-51735000D02*
X249220000Y-51735000D01*
X236009978Y-41644980D02*
X246099998Y-51735000D01*
X122555000Y-41644980D02*
X236009978Y-41644980D01*
X246099998Y-51735000D02*
X248088630Y-51735000D01*
X121920000Y-41009980D02*
X122555000Y-41644980D01*
X121920000Y-36830000D02*
X121920000Y-41009980D01*
X246099998Y-54505000D02*
X248088630Y-54505000D01*
X234139998Y-42545000D02*
X246099998Y-54505000D01*
X107130010Y-42545000D02*
X234139998Y-42545000D01*
X248088630Y-54505000D02*
X249220000Y-54505000D01*
X106680000Y-42094990D02*
X107130010Y-42545000D01*
X106680000Y-36830000D02*
X106680000Y-42094990D01*
X245870000Y-57275000D02*
X248088630Y-57275000D01*
X248088630Y-57275000D02*
X249220000Y-57275000D01*
X92579999Y-43684999D02*
X232279999Y-43684999D01*
X91440000Y-42545000D02*
X92579999Y-43684999D01*
X232279999Y-43684999D02*
X245870000Y-57275000D01*
X91440000Y-36830000D02*
X91440000Y-42545000D01*
X248088630Y-60045000D02*
X249220000Y-60045000D01*
X236174999Y-50120001D02*
X246099998Y-60045000D01*
X246099998Y-60045000D02*
X248088630Y-60045000D01*
X198120000Y-48895000D02*
X199345001Y-50120001D01*
X199345001Y-50120001D02*
X236174999Y-50120001D01*
X248088630Y-62815000D02*
X249220000Y-62815000D01*
X246099998Y-62815000D02*
X248088630Y-62815000D01*
X182880000Y-48895000D02*
X185420000Y-51435000D01*
X234719998Y-51435000D02*
X246099998Y-62815000D01*
X185420000Y-51435000D02*
X234719998Y-51435000D01*
X246099998Y-65585000D02*
X248088630Y-65585000D01*
X248088630Y-65585000D02*
X249220000Y-65585000D01*
X167640000Y-48895000D02*
X171450000Y-52705000D01*
X233219998Y-52705000D02*
X246099998Y-65585000D01*
X171450000Y-52705000D02*
X233219998Y-52705000D01*
X248088630Y-68355000D02*
X249220000Y-68355000D01*
X152400000Y-48895000D02*
X157480000Y-53975000D01*
X246099998Y-68355000D02*
X248088630Y-68355000D01*
X231719998Y-53975000D02*
X246099998Y-68355000D01*
X157480000Y-53975000D02*
X231719998Y-53975000D01*
X248088630Y-71125000D02*
X249220000Y-71125000D01*
X137160000Y-48895000D02*
X143510000Y-55245000D01*
X143510000Y-55245000D02*
X230505000Y-55245000D01*
X246099998Y-71125000D02*
X248088630Y-71125000D01*
X230505000Y-55245000D02*
X241300000Y-66040000D01*
X241300000Y-66040000D02*
X241300000Y-66325002D01*
X241300000Y-66325002D02*
X246099998Y-71125000D01*
X248088630Y-73895000D02*
X249220000Y-73895000D01*
X121920000Y-48895000D02*
X129540000Y-56515000D01*
X245254999Y-73050001D02*
X246099998Y-73895000D01*
X129540000Y-56515000D02*
X229235000Y-56515000D01*
X246099998Y-73895000D02*
X248088630Y-73895000D01*
X229235000Y-56515000D02*
X245254999Y-72534999D01*
X245254999Y-72534999D02*
X245254999Y-73050001D01*
X248088630Y-76665000D02*
X249220000Y-76665000D01*
X246099998Y-76665000D02*
X248088630Y-76665000D01*
X227219998Y-57785000D02*
X246099998Y-76665000D01*
X106680000Y-48895000D02*
X115570000Y-57785000D01*
X115570000Y-57785000D02*
X227219998Y-57785000D01*
X248088630Y-79435000D02*
X249220000Y-79435000D01*
X245254999Y-78590001D02*
X246099998Y-79435000D01*
X226695000Y-59055000D02*
X245254999Y-77614999D01*
X246099998Y-79435000D02*
X248088630Y-79435000D01*
X91440000Y-48895000D02*
X101600000Y-59055000D01*
X101600000Y-59055000D02*
X226695000Y-59055000D01*
X245254999Y-77614999D02*
X245254999Y-78590001D01*
X246050000Y-36830000D02*
X246380000Y-36500000D01*
X205740000Y-36830000D02*
X246050000Y-36830000D01*
X249500002Y-39270000D02*
X247511370Y-39270000D01*
X247511370Y-39270000D02*
X246380000Y-39270000D01*
X250345001Y-38425001D02*
X249500002Y-39270000D01*
X250345001Y-37242221D02*
X250345001Y-38425001D01*
X246167779Y-33064999D02*
X250345001Y-37242221D01*
X194265001Y-33064999D02*
X246167779Y-33064999D01*
X190500000Y-36830000D02*
X194265001Y-33064999D01*
X242624990Y-38284990D02*
X246380000Y-42040000D01*
X175260000Y-36830000D02*
X176714990Y-38284990D01*
X176714990Y-38284990D02*
X242624990Y-38284990D01*
X160020000Y-36830000D02*
X160020000Y-38654970D01*
X240859970Y-39289970D02*
X246380000Y-44810000D01*
X160655000Y-39289970D02*
X240859970Y-39289970D01*
X160020000Y-38654970D02*
X160655000Y-39289970D01*
X145599990Y-40189990D02*
X238989990Y-40189990D01*
X238989990Y-40189990D02*
X246380000Y-47580000D01*
X144780000Y-36830000D02*
X144780000Y-39370000D01*
X144780000Y-39370000D02*
X145599990Y-40189990D01*
X245580001Y-49468551D02*
X245580001Y-49550001D01*
X237306420Y-41194970D02*
X245580001Y-49468551D01*
X130175000Y-41194970D02*
X237306420Y-41194970D01*
X129540000Y-40559970D02*
X130175000Y-41194970D01*
X245580001Y-49550001D02*
X246380000Y-50350000D01*
X129540000Y-36830000D02*
X129540000Y-40559970D01*
X114935000Y-42094990D02*
X235354990Y-42094990D01*
X114300000Y-36830000D02*
X114300000Y-41459990D01*
X235354990Y-42094990D02*
X246380000Y-53120000D01*
X114300000Y-41459990D02*
X114935000Y-42094990D01*
X100330000Y-43180000D02*
X233670000Y-43180000D01*
X233670000Y-43180000D02*
X246380000Y-55890000D01*
X99060000Y-36830000D02*
X99060000Y-41910000D01*
X99060000Y-41910000D02*
X100330000Y-43180000D01*
X236615000Y-48895000D02*
X246380000Y-58660000D01*
X205740000Y-48895000D02*
X236615000Y-48895000D01*
X235750000Y-50800000D02*
X246380000Y-61430000D01*
X190500000Y-48895000D02*
X192405000Y-50800000D01*
X192405000Y-50800000D02*
X235750000Y-50800000D01*
X175260000Y-48895000D02*
X178435000Y-52070000D01*
X234315000Y-52135000D02*
X246380000Y-64200000D01*
X234250000Y-52070000D02*
X234315000Y-52135000D01*
X178435000Y-52070000D02*
X234250000Y-52070000D01*
X160020000Y-48895000D02*
X164465000Y-53340000D01*
X233229990Y-53819990D02*
X246380000Y-66970000D01*
X232750000Y-53340000D02*
X233229990Y-53819990D01*
X164465000Y-53340000D02*
X232750000Y-53340000D01*
X144780000Y-48895000D02*
X150495000Y-54610000D01*
X231250000Y-54610000D02*
X246380000Y-69740000D01*
X150495000Y-54610000D02*
X231250000Y-54610000D01*
X229870000Y-56000000D02*
X246380000Y-72510000D01*
X129540000Y-48895000D02*
X136525000Y-55880000D01*
X229750000Y-55880000D02*
X229870000Y-56000000D01*
X136525000Y-55880000D02*
X229750000Y-55880000D01*
X228600000Y-57500000D02*
X246380000Y-75280000D01*
X114300000Y-48895000D02*
X122555000Y-57150000D01*
X228250000Y-57150000D02*
X228600000Y-57500000D01*
X122555000Y-57150000D02*
X228250000Y-57150000D01*
X226750000Y-58420000D02*
X246380000Y-78050000D01*
X99060000Y-48895000D02*
X108585000Y-58420000D01*
X108585000Y-58420000D02*
X226750000Y-58420000D01*
X110590000Y-128270000D02*
X108585000Y-126265000D01*
X128270000Y-128270000D02*
X110590000Y-128270000D01*
X88664999Y-126664999D02*
X88265000Y-126265000D01*
X108019315Y-126265000D02*
X107079316Y-127204999D01*
X89204999Y-127204999D02*
X88664999Y-126664999D01*
X107079316Y-127204999D02*
X89204999Y-127204999D01*
X108585000Y-126265000D02*
X108019315Y-126265000D01*
X220345000Y-131981998D02*
X217268002Y-128905000D01*
X220345000Y-133885000D02*
X220345000Y-131981998D01*
X217268002Y-128905000D02*
X210185000Y-128905000D01*
X210185000Y-128905000D02*
X210185000Y-128905000D01*
X205005000Y-128905000D02*
X200025000Y-133885000D01*
X210185000Y-128905000D02*
X205005000Y-128905000D01*
X175708001Y-130084999D02*
X174080001Y-130084999D01*
X179070000Y-131445000D02*
X177068002Y-131445000D01*
X177068002Y-131445000D02*
X175708001Y-130084999D01*
X174080001Y-130084999D02*
X174080001Y-130084999D01*
X183515000Y-131445000D02*
X183914999Y-131045001D01*
X179070000Y-131445000D02*
X183515000Y-131445000D01*
X148484999Y-133713001D02*
X148484999Y-130280001D01*
X148861999Y-134090001D02*
X148484999Y-133713001D01*
X149558001Y-134090001D02*
X148861999Y-134090001D01*
X159385000Y-133885000D02*
X149763002Y-133885000D01*
X149763002Y-133885000D02*
X149558001Y-134090001D01*
X148484999Y-130280001D02*
X148484999Y-130280001D01*
X78960001Y-134740001D02*
X84969999Y-134740001D01*
X78105000Y-133885000D02*
X78960001Y-134740001D01*
X87630000Y-132080000D02*
X87630000Y-129540000D01*
X84969999Y-134740001D02*
X87630000Y-132080000D01*
X65815001Y-121341999D02*
X65815001Y-75789999D01*
X67945000Y-126265000D02*
X67945000Y-123471998D01*
X67945000Y-123471998D02*
X65815001Y-121341999D01*
X65815001Y-75789999D02*
X66675000Y-74930000D01*
X66675000Y-74930000D02*
X66675000Y-74930000D01*
X224744999Y-125049999D02*
X224744999Y-116250001D01*
X225961501Y-126266501D02*
X224744999Y-125049999D01*
X185721500Y-126666500D02*
X185321501Y-126266501D01*
X186045001Y-126990001D02*
X185721500Y-126666500D01*
X198734314Y-126990001D02*
X186045001Y-126990001D01*
X199459315Y-126265000D02*
X198734314Y-126990001D01*
X200025000Y-126265000D02*
X199459315Y-126265000D01*
X159784999Y-126664999D02*
X159385000Y-126265000D01*
X160240001Y-127120001D02*
X159784999Y-126664999D01*
X184468001Y-127120001D02*
X160240001Y-127120001D01*
X185321501Y-126266501D02*
X184468001Y-127120001D01*
X145081500Y-126666500D02*
X144681501Y-126266501D01*
X145405001Y-126990001D02*
X145081500Y-126666500D01*
X158094314Y-126990001D02*
X145405001Y-126990001D01*
X158819315Y-126265000D02*
X158094314Y-126990001D01*
X159385000Y-126265000D02*
X158819315Y-126265000D01*
X65702589Y-144443999D02*
X53975000Y-132716410D01*
X69723000Y-145669000D02*
X68497999Y-144443999D01*
X68497999Y-144443999D02*
X65702589Y-144443999D01*
X53975000Y-132716410D02*
X53975000Y-75565000D01*
X53975000Y-75565000D02*
X53975000Y-75565000D01*
X190279999Y-80424999D02*
X189880000Y-80025000D01*
X191255001Y-81400001D02*
X190279999Y-80424999D01*
X208824999Y-81400001D02*
X191255001Y-81400001D01*
X210200000Y-80025000D02*
X208824999Y-81400001D01*
X169959999Y-80424999D02*
X169560000Y-80025000D01*
X188504999Y-81400001D02*
X170935001Y-81400001D01*
X170935001Y-81400001D02*
X169959999Y-80424999D01*
X189880000Y-80025000D02*
X188504999Y-81400001D01*
X149639999Y-80424999D02*
X149240000Y-80025000D01*
X150615001Y-81400001D02*
X149639999Y-80424999D01*
X168184999Y-81400001D02*
X150615001Y-81400001D01*
X169560000Y-80025000D02*
X168184999Y-81400001D01*
X129319999Y-80424999D02*
X128920000Y-80025000D01*
X130295001Y-81400001D02*
X129319999Y-80424999D01*
X147864999Y-81400001D02*
X130295001Y-81400001D01*
X149240000Y-80025000D02*
X147864999Y-81400001D01*
X108999999Y-80424999D02*
X108600000Y-80025000D01*
X109975001Y-81400001D02*
X108999999Y-80424999D01*
X127544999Y-81400001D02*
X109975001Y-81400001D01*
X128920000Y-80025000D02*
X127544999Y-81400001D01*
X88679999Y-80424999D02*
X88280000Y-80025000D01*
X107224999Y-81400001D02*
X89655001Y-81400001D01*
X89655001Y-81400001D02*
X88679999Y-80424999D01*
X108600000Y-80025000D02*
X107224999Y-81400001D01*
X68359999Y-80424999D02*
X67960000Y-80025000D01*
X69335001Y-81400001D02*
X68359999Y-80424999D01*
X86904999Y-81400001D02*
X69335001Y-81400001D01*
X88280000Y-80025000D02*
X86904999Y-81400001D01*
X67945000Y-72390000D02*
X67960000Y-72405000D01*
X62865000Y-72390000D02*
X67945000Y-72390000D01*
X200439999Y-72804999D02*
X200040000Y-72405000D01*
X218984999Y-73780001D02*
X201415001Y-73780001D01*
X201415001Y-73780001D02*
X200439999Y-72804999D01*
X220360000Y-72405000D02*
X218984999Y-73780001D01*
X180119999Y-72804999D02*
X179720000Y-72405000D01*
X198664999Y-73780001D02*
X181095001Y-73780001D01*
X181095001Y-73780001D02*
X180119999Y-72804999D01*
X200040000Y-72405000D02*
X198664999Y-73780001D01*
X160775001Y-73780001D02*
X159799999Y-72804999D01*
X159799999Y-72804999D02*
X159400000Y-72405000D01*
X178344999Y-73780001D02*
X160775001Y-73780001D01*
X179720000Y-72405000D02*
X178344999Y-73780001D01*
X139479999Y-72804999D02*
X139080000Y-72405000D01*
X140455001Y-73780001D02*
X139479999Y-72804999D01*
X158024999Y-73780001D02*
X140455001Y-73780001D01*
X159400000Y-72405000D02*
X158024999Y-73780001D01*
X120135001Y-73780001D02*
X119159999Y-72804999D01*
X119159999Y-72804999D02*
X118760000Y-72405000D01*
X137704999Y-73780001D02*
X120135001Y-73780001D01*
X139080000Y-72405000D02*
X137704999Y-73780001D01*
X98839999Y-72804999D02*
X98440000Y-72405000D01*
X99815001Y-73780001D02*
X98839999Y-72804999D01*
X117384999Y-73780001D02*
X99815001Y-73780001D01*
X118760000Y-72405000D02*
X117384999Y-73780001D01*
X78519999Y-72804999D02*
X78120000Y-72405000D01*
X79495001Y-73780001D02*
X78519999Y-72804999D01*
X97064999Y-73780001D02*
X79495001Y-73780001D01*
X98440000Y-72405000D02*
X97064999Y-73780001D01*
X76420001Y-70705001D02*
X77720001Y-72005001D01*
X61344999Y-70705001D02*
X76420001Y-70705001D01*
X77720001Y-72005001D02*
X78120000Y-72405000D01*
X60945000Y-71105000D02*
X61344999Y-70705001D01*
X193121000Y-63710998D02*
X192721001Y-63310999D01*
X193635003Y-64225001D02*
X193121000Y-63710998D01*
X212126999Y-64225001D02*
X193635003Y-64225001D01*
X213041001Y-63310999D02*
X212126999Y-64225001D01*
X172801000Y-63710998D02*
X172401001Y-63310999D01*
X173315003Y-64225001D02*
X172801000Y-63710998D01*
X191806999Y-64225001D02*
X173315003Y-64225001D01*
X192721001Y-63310999D02*
X191806999Y-64225001D01*
X152481000Y-63710998D02*
X152081001Y-63310999D01*
X152995003Y-64225001D02*
X152481000Y-63710998D01*
X171486999Y-64225001D02*
X152995003Y-64225001D01*
X172401001Y-63310999D02*
X171486999Y-64225001D01*
X132161000Y-63710998D02*
X131761001Y-63310999D01*
X132675003Y-64225001D02*
X132161000Y-63710998D01*
X151166999Y-64225001D02*
X132675003Y-64225001D01*
X152081001Y-63310999D02*
X151166999Y-64225001D01*
X111841000Y-63710998D02*
X111441001Y-63310999D01*
X112840001Y-64709999D02*
X111841000Y-63710998D01*
X130362001Y-64709999D02*
X112840001Y-64709999D01*
X131761001Y-63310999D02*
X130362001Y-64709999D01*
X92520001Y-64709999D02*
X91521000Y-63710998D01*
X110042001Y-64709999D02*
X92520001Y-64709999D01*
X91521000Y-63710998D02*
X91121001Y-63310999D01*
X111441001Y-63310999D02*
X110042001Y-64709999D01*
X71201000Y-63710998D02*
X70801001Y-63310999D01*
X71715003Y-64225001D02*
X71201000Y-63710998D01*
X90206999Y-64225001D02*
X71715003Y-64225001D01*
X91121001Y-63310999D02*
X90206999Y-64225001D01*
X63054001Y-63310999D02*
X60930000Y-65435000D01*
X70801001Y-63310999D02*
X63054001Y-63310999D01*
X203281000Y-62911000D02*
X202881001Y-63310999D01*
X205617001Y-60574999D02*
X203281000Y-62911000D01*
X220465001Y-60574999D02*
X205617001Y-60574999D01*
X223201001Y-63310999D02*
X220465001Y-60574999D01*
X202881001Y-63310999D02*
X200470999Y-63310999D01*
X182961000Y-62911000D02*
X182561001Y-63310999D01*
X185297001Y-60574999D02*
X182961000Y-62911000D01*
X197734999Y-60574999D02*
X185297001Y-60574999D01*
X200470999Y-63310999D02*
X197734999Y-60574999D01*
X182561001Y-63310999D02*
X181420999Y-63310999D01*
X162641000Y-62911000D02*
X162241001Y-63310999D01*
X164977001Y-60574999D02*
X162641000Y-62911000D01*
X178684999Y-60574999D02*
X164977001Y-60574999D01*
X181420999Y-63310999D02*
X178684999Y-60574999D01*
X162241001Y-63310999D02*
X159255002Y-60325000D01*
X144907000Y-60325000D02*
X141921001Y-63310999D01*
X159255002Y-60325000D02*
X144907000Y-60325000D01*
X141921001Y-63310999D02*
X138935002Y-60325000D01*
X124587000Y-60325000D02*
X121601001Y-63310999D01*
X138935002Y-60325000D02*
X124587000Y-60325000D01*
X121601001Y-63310999D02*
X118745000Y-60454998D01*
X104137002Y-60454998D02*
X101281001Y-63310999D01*
X118745000Y-60454998D02*
X104137002Y-60454998D01*
X83697001Y-60574999D02*
X81361000Y-62911000D01*
X81361000Y-62911000D02*
X80961001Y-63310999D01*
X98545001Y-60574999D02*
X83697001Y-60574999D01*
X101281001Y-63310999D02*
X98545001Y-60574999D01*
X80961001Y-63310999D02*
X78105000Y-60454998D01*
X63975002Y-60454998D02*
X60945000Y-63485000D01*
X78105000Y-60454998D02*
X63975002Y-60454998D01*
X220390000Y-94660000D02*
X220345000Y-94615000D01*
X220390000Y-107905000D02*
X220390000Y-94660000D01*
X213360000Y-109855000D02*
X213360000Y-106680000D01*
X213360000Y-106680000D02*
X215900000Y-104140000D01*
X193040000Y-106680000D02*
X195580000Y-104140000D01*
X193040000Y-109855000D02*
X193040000Y-106680000D01*
X179750000Y-94660000D02*
X179705000Y-94615000D01*
X179750000Y-107905000D02*
X179750000Y-94660000D01*
X139110000Y-94660000D02*
X139065000Y-94615000D01*
X139110000Y-107905000D02*
X139110000Y-94660000D01*
X98470000Y-94660000D02*
X98425000Y-94615000D01*
X223090001Y-86094999D02*
X223490000Y-85695000D01*
X220366997Y-86094999D02*
X223090001Y-86094999D01*
X219891997Y-85619999D02*
X220366997Y-86094999D01*
X215061999Y-86759999D02*
X216201999Y-85619999D01*
X216201999Y-85619999D02*
X219891997Y-85619999D01*
X210584999Y-86759999D02*
X215061999Y-86759999D01*
X210185000Y-86360000D02*
X210584999Y-86759999D01*
X202770001Y-86094999D02*
X203170000Y-85695000D01*
X200046997Y-86094999D02*
X202770001Y-86094999D01*
X199571997Y-85619999D02*
X200046997Y-86094999D01*
X195881999Y-85619999D02*
X199571997Y-85619999D01*
X194741999Y-86759999D02*
X195881999Y-85619999D01*
X190264999Y-86759999D02*
X194741999Y-86759999D01*
X189865000Y-86360000D02*
X190264999Y-86759999D01*
X190709998Y-99650000D02*
X190309999Y-99250001D01*
X191044999Y-99985001D02*
X190709998Y-99650000D01*
X191044999Y-108933001D02*
X191044999Y-99985001D01*
X193266998Y-111155000D02*
X191044999Y-108933001D01*
X195610000Y-111155000D02*
X193266998Y-111155000D01*
X182450001Y-86094999D02*
X182850000Y-85695000D01*
X179726997Y-86094999D02*
X182450001Y-86094999D01*
X179251997Y-85619999D02*
X179726997Y-86094999D01*
X175561999Y-85619999D02*
X179251997Y-85619999D01*
X174421999Y-86759999D02*
X175561999Y-85619999D01*
X169944999Y-86759999D02*
X174421999Y-86759999D01*
X169545000Y-86360000D02*
X169944999Y-86759999D01*
X162130001Y-86094999D02*
X162530000Y-85695000D01*
X158931997Y-85619999D02*
X159406997Y-86094999D01*
X159406997Y-86094999D02*
X162130001Y-86094999D01*
X155241999Y-85619999D02*
X158931997Y-85619999D01*
X154101999Y-86759999D02*
X155241999Y-85619999D01*
X149624999Y-86759999D02*
X154101999Y-86759999D01*
X149225000Y-86360000D02*
X149624999Y-86759999D01*
X141810001Y-86094999D02*
X142210000Y-85695000D01*
X139086997Y-86094999D02*
X141810001Y-86094999D01*
X138611997Y-85619999D02*
X139086997Y-86094999D01*
X134921999Y-85619999D02*
X138611997Y-85619999D01*
X133781999Y-86759999D02*
X134921999Y-85619999D01*
X129304999Y-86759999D02*
X133781999Y-86759999D01*
X128905000Y-86360000D02*
X129304999Y-86759999D01*
X143510000Y-96550000D02*
X144395001Y-95664999D01*
X143510000Y-107255000D02*
X143510000Y-96550000D01*
X144395001Y-95664999D02*
X144795000Y-95265000D01*
X142210000Y-108555000D02*
X143510000Y-107255000D01*
X121490001Y-86094999D02*
X121890000Y-85695000D01*
X118766997Y-86094999D02*
X121490001Y-86094999D01*
X118291997Y-85619999D02*
X118766997Y-86094999D01*
X114601999Y-85619999D02*
X118291997Y-85619999D01*
X113461999Y-86759999D02*
X114601999Y-85619999D01*
X108984999Y-86759999D02*
X113461999Y-86759999D01*
X108585000Y-86360000D02*
X108984999Y-86759999D01*
X101170001Y-86094999D02*
X101570000Y-85695000D01*
X98446997Y-86094999D02*
X101170001Y-86094999D01*
X97971997Y-85619999D02*
X98446997Y-86094999D01*
X94281999Y-85619999D02*
X97971997Y-85619999D01*
X93141999Y-86759999D02*
X94281999Y-85619999D01*
X88664999Y-86759999D02*
X93141999Y-86759999D01*
X88265000Y-86360000D02*
X88664999Y-86759999D01*
X80850001Y-86094999D02*
X81250000Y-85695000D01*
X78126997Y-86094999D02*
X80850001Y-86094999D01*
X77651997Y-85619999D02*
X78126997Y-86094999D01*
X73961999Y-85619999D02*
X77651997Y-85619999D01*
X72821999Y-86759999D02*
X73961999Y-85619999D01*
X68344999Y-86759999D02*
X72821999Y-86759999D01*
X67945000Y-86360000D02*
X68344999Y-86759999D01*
X223889999Y-88694999D02*
X223490000Y-88295000D01*
X226785001Y-99928003D02*
X224230001Y-97373003D01*
X226785001Y-104488001D02*
X226785001Y-99928003D01*
X226604999Y-104668003D02*
X226785001Y-104488001D01*
X226604999Y-107368001D02*
X226604999Y-104668003D01*
X224230001Y-89035001D02*
X223889999Y-88694999D01*
X224230001Y-97373003D02*
X224230001Y-89035001D01*
X226785001Y-111649314D02*
X226785001Y-107548003D01*
X223475000Y-114959315D02*
X226785001Y-111649314D01*
X226785001Y-107548003D02*
X226604999Y-107368001D01*
X223475000Y-115525000D02*
X223475000Y-114959315D01*
X203735685Y-88295000D02*
X203170000Y-88295000D01*
X203948002Y-88295000D02*
X203735685Y-88295000D01*
X208808003Y-83434999D02*
X203948002Y-88295000D01*
X222938001Y-83434999D02*
X208808003Y-83434999D01*
X228479999Y-88976997D02*
X222938001Y-83434999D01*
X228479999Y-125119999D02*
X228479999Y-88976997D01*
X229235000Y-125875000D02*
X228479999Y-125119999D01*
X183832500Y-89277500D02*
X182850000Y-88295000D01*
X183832500Y-96837500D02*
X183832500Y-89277500D01*
X163095685Y-88295000D02*
X162530000Y-88295000D01*
X163391998Y-88295000D02*
X163095685Y-88295000D01*
X188504999Y-82459999D02*
X169226999Y-82459999D01*
X169226999Y-82459999D02*
X163391998Y-88295000D01*
X189547500Y-83502500D02*
X188504999Y-82459999D01*
X144720000Y-90805000D02*
X142210000Y-88295000D01*
X147320000Y-90805000D02*
X144720000Y-90805000D01*
X127725001Y-99150001D02*
X127725001Y-102960001D01*
X127000000Y-98425000D02*
X127725001Y-99150001D01*
X127725001Y-102960001D02*
X128587500Y-103822500D01*
X122630001Y-89035001D02*
X122289999Y-88694999D01*
X122630001Y-97373003D02*
X122630001Y-89035001D01*
X122289999Y-88694999D02*
X121890000Y-88295000D01*
X127000000Y-101743002D02*
X122630001Y-97373003D01*
X127000000Y-106045000D02*
X127000000Y-101743002D01*
X82028002Y-88295000D02*
X81815685Y-88295000D01*
X81815685Y-88295000D02*
X81250000Y-88295000D01*
X87538001Y-82785001D02*
X82028002Y-88295000D01*
X107550001Y-82785001D02*
X87538001Y-82785001D01*
X107950000Y-83185000D02*
X107550001Y-82785001D01*
X226175000Y-120580685D02*
X226175000Y-120015000D01*
X226175000Y-123451410D02*
X226175000Y-120580685D01*
X228055001Y-125331411D02*
X226175000Y-123451410D01*
X228055001Y-128278001D02*
X228055001Y-125331411D01*
X227678001Y-128655001D02*
X228055001Y-128278001D01*
X224040684Y-128655001D02*
X227678001Y-128655001D01*
X222815685Y-129880000D02*
X224040684Y-128655001D01*
X222250000Y-129880000D02*
X222815685Y-129880000D01*
X218304999Y-94865001D02*
X218675001Y-94494999D01*
X219785001Y-98393003D02*
X218304999Y-96913001D01*
X219785001Y-105334999D02*
X219785001Y-98393003D01*
X218675001Y-94494999D02*
X219075000Y-94095000D01*
X218304999Y-96913001D02*
X218304999Y-94865001D01*
X219075000Y-106045000D02*
X219785001Y-105334999D01*
X220738001Y-108630001D02*
X222885000Y-106483002D01*
X220041999Y-108630001D02*
X220738001Y-108630001D01*
X212966999Y-101010001D02*
X214040001Y-101010001D01*
X212589999Y-100633001D02*
X212966999Y-101010001D01*
X197984999Y-94865001D02*
X197984999Y-96913001D01*
X214040001Y-101010001D02*
X218349999Y-105319999D01*
X212589999Y-99936999D02*
X212589999Y-100633001D01*
X218349999Y-106938001D02*
X220041999Y-108630001D01*
X218349999Y-105319999D02*
X218349999Y-106938001D01*
X198755000Y-94095000D02*
X197984999Y-94865001D01*
X197984999Y-96913001D02*
X198361999Y-97290001D01*
X198361999Y-97290001D02*
X209943001Y-97290001D01*
X209943001Y-97290001D02*
X212589999Y-99936999D01*
X222885000Y-106483002D02*
X222885000Y-106483002D01*
X231140000Y-123160000D02*
X231140000Y-106045000D01*
X229855000Y-124445000D02*
X231140000Y-123160000D01*
X204290000Y-127930000D02*
X200025000Y-123665000D01*
X227330000Y-127930000D02*
X204290000Y-127930000D01*
X193394999Y-122745001D02*
X192995000Y-123145000D01*
X202884999Y-121534999D02*
X194605001Y-121534999D01*
X194605001Y-121534999D02*
X193394999Y-122745001D01*
X205810000Y-124460000D02*
X202884999Y-121534999D01*
X177664999Y-94865001D02*
X178035001Y-94494999D01*
X178035001Y-94494999D02*
X178435000Y-94095000D01*
X177664999Y-98924999D02*
X177664999Y-94865001D01*
X178435000Y-99695000D02*
X177664999Y-98924999D01*
X180460001Y-94538003D02*
X180460001Y-92195001D01*
X185964999Y-97880001D02*
X183801999Y-97880001D01*
X183801999Y-97880001D02*
X180460001Y-94538003D01*
X180460001Y-92195001D02*
X178435000Y-90170000D01*
X178435000Y-90170000D02*
X178435000Y-90170000D01*
X169614315Y-90805000D02*
X170180000Y-90805000D01*
X166271998Y-90805000D02*
X169614315Y-90805000D01*
X160605683Y-92170002D02*
X164906996Y-92170002D01*
X158680685Y-94095000D02*
X160605683Y-92170002D01*
X164906996Y-92170002D02*
X166271998Y-90805000D01*
X158115000Y-94095000D02*
X158680685Y-94095000D01*
X163025685Y-123190000D02*
X162460000Y-123190000D01*
X164973002Y-123190000D02*
X163025685Y-123190000D01*
X165744999Y-123961997D02*
X164973002Y-123190000D01*
X175608001Y-123961997D02*
X165744999Y-123961997D01*
X176341005Y-124695001D02*
X175608001Y-123961997D01*
X185020001Y-124695001D02*
X176341005Y-124695001D01*
X185420000Y-125095000D02*
X185020001Y-124695001D01*
X159385000Y-121285000D02*
X187960000Y-121285000D01*
X187960000Y-121285000D02*
X189230000Y-122555000D01*
X189230000Y-122555000D02*
X189230000Y-122555000D01*
X152920685Y-123145000D02*
X152355000Y-123145000D01*
X156398002Y-123145000D02*
X152920685Y-123145000D01*
X159733001Y-122939999D02*
X156603003Y-122939999D01*
X160853003Y-124060001D02*
X159733001Y-122939999D01*
X156603003Y-122939999D02*
X156398002Y-123145000D01*
X164770001Y-124060001D02*
X160853003Y-124060001D01*
X165170000Y-124460000D02*
X164770001Y-124060001D01*
X165499999Y-102634999D02*
X165100000Y-102235000D01*
X165825001Y-102960001D02*
X165499999Y-102634999D01*
X165825001Y-105319999D02*
X165825001Y-102960001D01*
X165100000Y-106045000D02*
X165825001Y-105319999D01*
X142225000Y-120030000D02*
X144780000Y-117475000D01*
X142225000Y-125745000D02*
X142225000Y-120030000D01*
X137395001Y-94494999D02*
X137795000Y-94095000D01*
X137024999Y-94865001D02*
X137395001Y-94494999D01*
X137024999Y-105274999D02*
X137024999Y-94865001D01*
X137795000Y-106045000D02*
X137024999Y-105274999D01*
X119478003Y-93695001D02*
X117874999Y-93695001D01*
X122015002Y-90462000D02*
X122015002Y-91158002D01*
X121164999Y-89611997D02*
X122015002Y-90462000D01*
X121164999Y-87946999D02*
X121164999Y-89611997D01*
X117874999Y-93695001D02*
X117475000Y-94095000D01*
X121541999Y-87569999D02*
X121164999Y-87946999D01*
X122015002Y-91158002D02*
X119478003Y-93695001D01*
X123428593Y-87569999D02*
X121541999Y-87569999D01*
X142588001Y-83094999D02*
X127903593Y-83094999D01*
X127903593Y-83094999D02*
X123428593Y-87569999D01*
X142678002Y-83185000D02*
X142588001Y-83094999D01*
X148590000Y-83185000D02*
X142678002Y-83185000D01*
X112280685Y-123145000D02*
X111715000Y-123145000D01*
X115758002Y-123145000D02*
X112280685Y-123145000D01*
X115963003Y-122939999D02*
X115758002Y-123145000D01*
X119093001Y-122939999D02*
X115963003Y-122939999D01*
X120213003Y-124060001D02*
X119093001Y-122939999D01*
X124130001Y-124060001D02*
X120213003Y-124060001D01*
X124530000Y-124460000D02*
X124130001Y-124060001D01*
X96755001Y-94494999D02*
X97155000Y-94095000D01*
X96384999Y-94865001D02*
X96755001Y-94494999D01*
X96384999Y-96913001D02*
X96384999Y-94865001D01*
X96761999Y-97290001D02*
X96384999Y-96913001D01*
X97458001Y-97290001D02*
X96761999Y-97290001D01*
X98173688Y-96574314D02*
X97458001Y-97290001D01*
X98173688Y-96216999D02*
X98173688Y-96574314D01*
X98182501Y-96208186D02*
X98173688Y-96216999D01*
X98182501Y-95642501D02*
X98182501Y-96208186D01*
X81975001Y-108903001D02*
X81975001Y-106740001D01*
X80448003Y-110429999D02*
X81975001Y-108903001D01*
X77409999Y-110806999D02*
X77786999Y-110429999D01*
X106870001Y-122110001D02*
X106124999Y-121364999D01*
X95111407Y-121364999D02*
X91761419Y-118015011D01*
X77786999Y-110429999D02*
X80448003Y-110429999D01*
X91761419Y-118015011D02*
X81675599Y-118015011D01*
X106124999Y-121364999D02*
X95111407Y-121364999D01*
X77409999Y-113749411D02*
X77409999Y-110806999D01*
X81675599Y-118015011D02*
X77409999Y-113749411D01*
X81975001Y-106740001D02*
X81975001Y-106740001D01*
X82150001Y-96755001D02*
X82550000Y-97155000D01*
X79284999Y-93889999D02*
X82150001Y-96755001D01*
X77605686Y-93889999D02*
X79284999Y-93889999D01*
X77400685Y-94095000D02*
X77605686Y-93889999D01*
X76835000Y-94095000D02*
X77400685Y-94095000D01*
X82370000Y-127930000D02*
X78105000Y-123665000D01*
X105410000Y-127930000D02*
X82370000Y-127930000D01*
X71640685Y-123145000D02*
X71075000Y-123145000D01*
X75323003Y-122939999D02*
X75118002Y-123145000D01*
X78453001Y-122939999D02*
X75323003Y-122939999D01*
X79573003Y-124060001D02*
X78453001Y-122939999D01*
X75118002Y-123145000D02*
X71640685Y-123145000D01*
X83490001Y-124060001D02*
X79573003Y-124060001D01*
X83890000Y-124460000D02*
X83490001Y-124060001D01*
X83420001Y-102634999D02*
X83820000Y-102235000D01*
X77236997Y-107745001D02*
X79621987Y-105360011D01*
X80694989Y-105360011D02*
X83420001Y-102634999D01*
X74696997Y-107745001D02*
X77236997Y-107745001D01*
X70349999Y-115873001D02*
X70349999Y-112091999D01*
X71181997Y-116704999D02*
X70349999Y-115873001D01*
X71423001Y-116704999D02*
X71181997Y-116704999D01*
X70349999Y-112091999D02*
X74696997Y-107745001D01*
X76008012Y-121290010D02*
X71423001Y-116704999D01*
X79621987Y-105360011D02*
X80694989Y-105360011D01*
X80004990Y-121290010D02*
X76008012Y-121290010D01*
X77705001Y-125364999D02*
X78105000Y-124965000D01*
X77379999Y-125690001D02*
X77705001Y-125364999D01*
X77379999Y-127815684D02*
X77379999Y-125690001D01*
X79444315Y-129880000D02*
X77379999Y-127815684D01*
X80010000Y-129880000D02*
X79444315Y-129880000D01*
X203170000Y-133646998D02*
X204470000Y-132346998D01*
X203170000Y-134015000D02*
X203170000Y-133646998D01*
X193590685Y-133365000D02*
X193025000Y-133365000D01*
X198483002Y-133365000D02*
X193590685Y-133365000D01*
X199435001Y-134316999D02*
X198483002Y-133365000D01*
X199510001Y-134740001D02*
X199435001Y-134665001D01*
X205619999Y-134740001D02*
X199510001Y-134740001D01*
X207932500Y-132427500D02*
X205619999Y-134740001D01*
X199435001Y-134665001D02*
X199435001Y-134316999D01*
X216187500Y-132427500D02*
X207932500Y-132427500D01*
X209996997Y-135390001D02*
X176960001Y-135390001D01*
X210721998Y-134665000D02*
X209996997Y-135390001D01*
X219030000Y-134665000D02*
X210721998Y-134665000D01*
X176960001Y-135390001D02*
X174760001Y-135390001D01*
X174760001Y-135390001D02*
X174307500Y-134937500D01*
X152759999Y-131680001D02*
X152360000Y-132080000D01*
X155285001Y-129154999D02*
X152759999Y-131680001D01*
X192654999Y-129154999D02*
X155285001Y-129154999D01*
X195580000Y-132080000D02*
X192654999Y-129154999D01*
X179858003Y-132965001D02*
X169959999Y-132965001D01*
X188054314Y-134740001D02*
X181633003Y-134740001D01*
X169959999Y-132965001D02*
X169560000Y-133365000D01*
X181633003Y-134740001D02*
X179858003Y-132965001D01*
X189299315Y-133495000D02*
X188054314Y-134740001D01*
X189865000Y-133495000D02*
X189299315Y-133495000D01*
X110889999Y-130279999D02*
X110490000Y-129880000D01*
X111299999Y-130689999D02*
X110889999Y-130279999D01*
X119894999Y-130689999D02*
X111299999Y-130689999D01*
X123295001Y-134090001D02*
X119894999Y-130689999D01*
X132413001Y-134090001D02*
X123295001Y-134090001D01*
X133350501Y-133152501D02*
X132413001Y-134090001D01*
X139405503Y-133152501D02*
X133350501Y-133152501D01*
X140993003Y-134740001D02*
X139405503Y-133152501D01*
X142558001Y-134740001D02*
X140993003Y-134740001D01*
X142633002Y-134665000D02*
X142558001Y-134740001D01*
X158070000Y-134665000D02*
X142633002Y-134665000D01*
X149639999Y-132464999D02*
X149240000Y-132065000D01*
X149980001Y-132805001D02*
X149639999Y-132464999D01*
X159151997Y-132805001D02*
X149980001Y-132805001D01*
X161146998Y-130810000D02*
X159151997Y-132805001D01*
X175360000Y-130810000D02*
X161146998Y-130810000D01*
X117874999Y-134384999D02*
X117475000Y-133985000D01*
X118230001Y-134740001D02*
X117874999Y-134384999D01*
X122238001Y-134740001D02*
X118230001Y-134740001D01*
X122313002Y-134665000D02*
X122238001Y-134740001D01*
X137750000Y-134665000D02*
X122313002Y-134665000D01*
X85156400Y-135190010D02*
X88266410Y-132080000D01*
X78337008Y-135190010D02*
X85156400Y-135190010D01*
X93414315Y-132080000D02*
X93980000Y-132080000D01*
X77379999Y-134233001D02*
X78337008Y-135190010D01*
X77379999Y-133536999D02*
X77379999Y-134233001D01*
X75983001Y-132140001D02*
X77379999Y-133536999D01*
X88266410Y-132080000D02*
X93414315Y-132080000D01*
X71815001Y-132140001D02*
X75983001Y-132140001D01*
X71090000Y-131415000D02*
X71815001Y-132140001D01*
X72972017Y-135640019D02*
X91054981Y-135640019D01*
X69850000Y-129880000D02*
X69850000Y-132518002D01*
X69850000Y-132518002D02*
X72972017Y-135640019D01*
X91054981Y-135640019D02*
X93027500Y-133667500D01*
X89120001Y-132639999D02*
X88664999Y-133095001D01*
X91773001Y-132639999D02*
X89120001Y-132639999D01*
X91938003Y-132805001D02*
X91773001Y-132639999D01*
X88664999Y-133095001D02*
X88265000Y-133495000D01*
X94328001Y-132805001D02*
X91938003Y-132805001D01*
X95961015Y-131171987D02*
X94328001Y-132805001D01*
X113764315Y-131415000D02*
X113521302Y-131171987D01*
X113521302Y-131171987D02*
X95961015Y-131171987D01*
X114330000Y-131415000D02*
X113764315Y-131415000D01*
X67044999Y-116574999D02*
X66645000Y-116175000D01*
X68685001Y-118215001D02*
X67044999Y-116574999D01*
X68685001Y-133244999D02*
X68685001Y-118215001D01*
X67310000Y-134620000D02*
X68685001Y-133244999D01*
X60960000Y-119523002D02*
X60960000Y-118040685D01*
X67219999Y-125783001D02*
X60960000Y-119523002D01*
X67219999Y-131324999D02*
X67219999Y-125783001D01*
X60960000Y-118040685D02*
X60960000Y-117475000D01*
X67960000Y-132065000D02*
X67219999Y-131324999D01*
X112144999Y-133764999D02*
X111745000Y-133365000D01*
X113770001Y-135390001D02*
X112144999Y-133764999D01*
X164163001Y-135390001D02*
X113770001Y-135390001D01*
X167473002Y-132080000D02*
X164163001Y-135390001D01*
X175260000Y-132080000D02*
X167473002Y-132080000D01*
X60307999Y-149434001D02*
X51435000Y-140561002D01*
X108411001Y-149434001D02*
X60307999Y-149434001D01*
X112395000Y-138430000D02*
X112395000Y-145450002D01*
X112395000Y-145450002D02*
X108411001Y-149434001D01*
X51435000Y-140561002D02*
X51435000Y-116205000D01*
X51435000Y-116205000D02*
X51435000Y-116205000D01*
X114300000Y-138430000D02*
X114300000Y-139700000D01*
X114300000Y-139700000D02*
X112845010Y-141154990D01*
X112845009Y-145636403D02*
X108597401Y-149884011D01*
X112845010Y-141154990D02*
X112845009Y-145636403D01*
X60121598Y-149884010D02*
X50165000Y-139927412D01*
X108597401Y-149884011D02*
X60121598Y-149884010D01*
X50165000Y-139927412D02*
X50165000Y-114935000D01*
X50165000Y-114935000D02*
X50165000Y-114935000D01*
X107239999Y-135390001D02*
X92574999Y-135390001D01*
X57074999Y-113740001D02*
X60960000Y-109855000D01*
X57074999Y-135179999D02*
X57074999Y-113740001D01*
X108615000Y-134015000D02*
X107239999Y-135390001D01*
X92574999Y-135390001D02*
X90170000Y-137795000D01*
X90170000Y-137795000D02*
X59690000Y-137795000D01*
X59690000Y-137795000D02*
X57074999Y-135179999D01*
X63100001Y-108349999D02*
X63500000Y-107950000D01*
X63100001Y-108788001D02*
X63100001Y-108349999D01*
X57800000Y-114088002D02*
X63100001Y-108788001D01*
X57800000Y-116825000D02*
X57800000Y-114088002D01*
X215500001Y-87394999D02*
X215900000Y-86995000D01*
X215325001Y-87569999D02*
X215500001Y-87394999D01*
X214251999Y-87569999D02*
X215325001Y-87569999D01*
X212090000Y-89731998D02*
X214251999Y-87569999D01*
X212090000Y-91780000D02*
X212090000Y-89731998D01*
X220375000Y-92655000D02*
X215942500Y-88222500D01*
X220375000Y-93315000D02*
X220375000Y-92655000D01*
X210215000Y-105380000D02*
X213360000Y-102235000D01*
X210215000Y-108555000D02*
X210215000Y-105380000D01*
X195180001Y-87394999D02*
X195580000Y-86995000D01*
X195005001Y-87569999D02*
X195180001Y-87394999D01*
X193931999Y-87569999D02*
X195005001Y-87569999D01*
X191770000Y-89731998D02*
X193931999Y-87569999D01*
X191770000Y-91780000D02*
X191770000Y-89731998D01*
X200055000Y-92655000D02*
X195622500Y-88222500D01*
X200055000Y-93315000D02*
X200055000Y-92655000D01*
X195580000Y-97085685D02*
X195580000Y-96520000D01*
X208152317Y-109658002D02*
X195580000Y-97085685D01*
X210185000Y-109658002D02*
X208152317Y-109658002D01*
X224790000Y-109855000D02*
X215900000Y-109855000D01*
X226060000Y-111125000D02*
X224790000Y-109855000D01*
X206139999Y-110725001D02*
X205740000Y-111125000D01*
X206435001Y-110429999D02*
X206139999Y-110725001D01*
X209233001Y-110429999D02*
X206435001Y-110429999D01*
X209421501Y-110618499D02*
X209233001Y-110429999D01*
X215136501Y-110618499D02*
X209421501Y-110618499D01*
X215900000Y-109855000D02*
X215136501Y-110618499D01*
X201870000Y-109855000D02*
X195580000Y-109855000D01*
X203170000Y-108555000D02*
X201870000Y-109855000D01*
X196411998Y-116205000D02*
X189865000Y-109658002D01*
X203835000Y-116205000D02*
X196411998Y-116205000D01*
X209284999Y-111554999D02*
X208885000Y-111155000D01*
X209610001Y-111880001D02*
X209284999Y-111554999D01*
X219649999Y-111880001D02*
X209610001Y-111880001D01*
X220375000Y-111155000D02*
X219649999Y-111880001D01*
X213340000Y-115636998D02*
X210733002Y-113030000D01*
X213340000Y-116860000D02*
X213340000Y-115636998D01*
X201930000Y-113030000D02*
X200055000Y-111155000D01*
X210733002Y-113030000D02*
X201930000Y-113030000D01*
X215570001Y-117239999D02*
X215970000Y-116840000D01*
X212991999Y-117585001D02*
X215224999Y-117585001D01*
X215224999Y-117585001D02*
X215570001Y-117239999D01*
X210771999Y-115365001D02*
X212991999Y-117585001D01*
X203220686Y-115365001D02*
X210771999Y-115365001D01*
X202495685Y-114640000D02*
X203220686Y-115365001D01*
X201930000Y-114640000D02*
X202495685Y-114640000D01*
X210215000Y-118775000D02*
X192435000Y-118775000D01*
X192595001Y-115924999D02*
X192995000Y-115525000D01*
X192314999Y-118654999D02*
X192314999Y-116205001D01*
X192314999Y-116205001D02*
X192595001Y-115924999D01*
X192435000Y-118775000D02*
X192314999Y-118654999D01*
X205105000Y-117475000D02*
X193040000Y-117475000D01*
X205740000Y-116840000D02*
X205105000Y-117475000D01*
X187415001Y-103156999D02*
X182683002Y-98425000D01*
X187415001Y-114391411D02*
X187415001Y-103156999D01*
X195580000Y-120015000D02*
X193038590Y-120015000D01*
X193038590Y-120015000D02*
X187415001Y-114391411D01*
X182683002Y-98425000D02*
X180975000Y-98425000D01*
X180975000Y-98425000D02*
X180975000Y-98425000D01*
X159784999Y-119144999D02*
X159385000Y-118745000D01*
X161380001Y-120740001D02*
X159784999Y-119144999D01*
X194854999Y-120740001D02*
X161380001Y-120740001D01*
X195580000Y-120015000D02*
X194854999Y-120740001D01*
X173611999Y-87569999D02*
X174685001Y-87569999D01*
X174860001Y-87394999D02*
X175260000Y-86995000D01*
X174685001Y-87569999D02*
X174860001Y-87394999D01*
X171450000Y-89731998D02*
X173611999Y-87569999D01*
X171450000Y-91780000D02*
X171450000Y-89731998D01*
X179735000Y-92655000D02*
X175302500Y-88222500D01*
X179735000Y-93315000D02*
X179735000Y-92655000D01*
X169575000Y-105380000D02*
X172720000Y-102235000D01*
X169575000Y-108555000D02*
X169575000Y-105380000D01*
X171450000Y-107020000D02*
X174920000Y-107020000D01*
X183424999Y-103525686D02*
X183424999Y-102960001D01*
X183424999Y-105303003D02*
X183424999Y-103525686D01*
X180098001Y-108630001D02*
X183424999Y-105303003D01*
X176530001Y-108630001D02*
X180098001Y-108630001D01*
X174920000Y-107020000D02*
X176530001Y-108630001D01*
X154540001Y-87394999D02*
X154940000Y-86995000D01*
X154437501Y-87497499D02*
X154540001Y-87394999D01*
X153364499Y-87497499D02*
X154437501Y-87497499D01*
X151130000Y-89731998D02*
X153364499Y-87497499D01*
X151130000Y-91780000D02*
X151130000Y-89731998D01*
X158205001Y-91445001D02*
X154982500Y-88222500D01*
X161930001Y-91445001D02*
X158205001Y-91445001D01*
X155339999Y-96919999D02*
X154940000Y-96520000D01*
X155710001Y-97290001D02*
X155339999Y-96919999D01*
X161228003Y-97290001D02*
X155710001Y-97290001D01*
X168849999Y-104911997D02*
X161228003Y-97290001D01*
X168849999Y-108963001D02*
X168849999Y-104911997D01*
X169545000Y-109658002D02*
X168849999Y-108963001D01*
X184150000Y-109855000D02*
X175260000Y-109855000D01*
X185420000Y-111125000D02*
X184150000Y-109855000D01*
X165499999Y-110725001D02*
X165100000Y-111125000D01*
X165795001Y-110429999D02*
X165499999Y-110725001D01*
X168593001Y-110429999D02*
X165795001Y-110429999D01*
X168743003Y-110580001D02*
X168593001Y-110429999D01*
X174534999Y-110580001D02*
X168743003Y-110580001D01*
X175260000Y-109855000D02*
X174534999Y-110580001D01*
X149255000Y-105380000D02*
X152400000Y-102235000D01*
X149255000Y-108555000D02*
X149255000Y-105380000D01*
X162705000Y-103360000D02*
X163104999Y-102960001D01*
X161154999Y-104910001D02*
X162705000Y-103360000D01*
X153805684Y-104910001D02*
X161154999Y-104910001D01*
X151695685Y-107020000D02*
X153805684Y-104910001D01*
X151130000Y-107020000D02*
X151695685Y-107020000D01*
X161230000Y-109855000D02*
X154940000Y-109855000D01*
X162530000Y-108555000D02*
X161230000Y-109855000D01*
X149624999Y-110058001D02*
X149225000Y-109658002D01*
X153223003Y-110580001D02*
X150146999Y-110580001D01*
X150146999Y-110580001D02*
X149624999Y-110058001D01*
X158848002Y-116205000D02*
X153223003Y-110580001D01*
X163195000Y-116205000D02*
X158848002Y-116205000D01*
X186145001Y-109945001D02*
X185819999Y-109619999D01*
X185964999Y-111653003D02*
X186145001Y-111473001D01*
X185964999Y-114988001D02*
X185964999Y-111653003D01*
X186341999Y-115365001D02*
X185964999Y-114988001D01*
X185819999Y-109619999D02*
X185420000Y-109220000D01*
X186341999Y-117989999D02*
X186341999Y-115365001D01*
X186145001Y-111473001D02*
X186145001Y-109945001D01*
X184961997Y-119370001D02*
X186341999Y-117989999D01*
X175885001Y-119370001D02*
X184961997Y-119370001D01*
X175290000Y-118775000D02*
X175885001Y-119370001D01*
X168644999Y-111554999D02*
X168245000Y-111155000D01*
X168970001Y-111880001D02*
X168644999Y-111554999D01*
X179009999Y-111880001D02*
X168970001Y-111880001D01*
X179735000Y-111155000D02*
X179009999Y-111880001D01*
X164700001Y-109619999D02*
X165100000Y-109220000D01*
X164374999Y-109945001D02*
X164700001Y-109619999D01*
X164374999Y-111473001D02*
X164374999Y-109945001D01*
X166801999Y-113900001D02*
X164374999Y-111473001D01*
X169890001Y-113900001D02*
X166801999Y-113900001D01*
X170290000Y-114300000D02*
X169890001Y-113900001D01*
X166771997Y-116114999D02*
X165100000Y-114443002D01*
X172700000Y-116860000D02*
X171954999Y-116114999D01*
X171954999Y-116114999D02*
X166771997Y-116114999D01*
X165100000Y-114443002D02*
X165100000Y-113665000D01*
X162590000Y-111155000D02*
X159415000Y-111155000D01*
X165100000Y-113665000D02*
X162590000Y-111155000D01*
X161855685Y-114640000D02*
X161290000Y-114640000D01*
X164170000Y-114640000D02*
X161855685Y-114640000D01*
X167115001Y-117585001D02*
X164170000Y-114640000D01*
X174584999Y-117585001D02*
X167115001Y-117585001D01*
X175330000Y-116840000D02*
X174584999Y-117585001D01*
X169575000Y-118775000D02*
X160488002Y-118775000D01*
X152754999Y-115924999D02*
X152355000Y-115525000D01*
X154849999Y-118019999D02*
X152754999Y-115924999D01*
X159733001Y-118019999D02*
X154849999Y-118019999D01*
X160488002Y-118775000D02*
X159733001Y-118019999D01*
X164700001Y-117239999D02*
X156609999Y-117239999D01*
X165100000Y-116840000D02*
X164700001Y-117239999D01*
X151629999Y-115176999D02*
X151629999Y-116704999D01*
X152006999Y-114799999D02*
X151629999Y-115176999D01*
X151629999Y-116704999D02*
X152000001Y-117075001D01*
X154169999Y-114799999D02*
X152006999Y-114799999D01*
X152000001Y-117075001D02*
X152400000Y-117475000D01*
X156609999Y-117239999D02*
X154169999Y-114799999D01*
X134620000Y-97085685D02*
X134620000Y-96520000D01*
X134620000Y-99203002D02*
X134620000Y-97085685D01*
X135375001Y-99958003D02*
X134620000Y-99203002D01*
X135375001Y-105243003D02*
X135375001Y-99958003D01*
X139411999Y-109280001D02*
X135375001Y-105243003D01*
X143343003Y-108494999D02*
X142558001Y-109280001D01*
X142558001Y-109280001D02*
X139411999Y-109280001D01*
X145128001Y-108494999D02*
X143343003Y-108494999D01*
X145505001Y-108871999D02*
X145128001Y-108494999D01*
X145505001Y-111653003D02*
X145505001Y-108871999D01*
X153866998Y-120015000D02*
X145505001Y-111653003D01*
X154940000Y-120015000D02*
X153866998Y-120015000D01*
X134220001Y-87394999D02*
X134620000Y-86995000D01*
X134117501Y-87497499D02*
X134220001Y-87394999D01*
X130810000Y-89731998D02*
X133044499Y-87497499D01*
X133044499Y-87497499D02*
X134117501Y-87497499D01*
X130810000Y-91780000D02*
X130810000Y-89731998D01*
X139095000Y-92655000D02*
X134662500Y-88222500D01*
X139095000Y-93315000D02*
X139095000Y-92655000D01*
X128935000Y-105380000D02*
X132080000Y-102235000D01*
X128935000Y-108555000D02*
X128935000Y-105380000D01*
X112651999Y-87569999D02*
X113725001Y-87569999D01*
X113900001Y-87394999D02*
X114300000Y-86995000D01*
X113725001Y-87569999D02*
X113900001Y-87394999D01*
X110490000Y-89731998D02*
X112651999Y-87569999D01*
X110490000Y-91780000D02*
X110490000Y-89731998D01*
X116930001Y-90810001D02*
X114342500Y-88222500D01*
X121290001Y-90810001D02*
X116930001Y-90810001D01*
X114300000Y-97085685D02*
X114300000Y-96520000D01*
X126872317Y-109658002D02*
X114300000Y-97085685D01*
X128905000Y-109658002D02*
X126872317Y-109658002D01*
X147925000Y-94645000D02*
X147955000Y-94615000D01*
X147925000Y-111155000D02*
X147925000Y-94645000D01*
X135185685Y-109855000D02*
X134620000Y-109855000D01*
X138868002Y-109855000D02*
X135185685Y-109855000D01*
X140138002Y-111125000D02*
X138868002Y-109855000D01*
X144780000Y-111125000D02*
X140138002Y-111125000D01*
X124859999Y-110725001D02*
X124460000Y-111125000D01*
X125155001Y-110429999D02*
X124859999Y-110725001D01*
X128664997Y-110429999D02*
X125155001Y-110429999D01*
X128814999Y-110580001D02*
X128664997Y-110429999D01*
X133894999Y-110580001D02*
X128814999Y-110580001D01*
X134620000Y-109855000D02*
X133894999Y-110580001D01*
X108615000Y-105380000D02*
X111760000Y-102235000D01*
X108615000Y-108555000D02*
X108615000Y-105380000D01*
X114865685Y-109855000D02*
X114300000Y-109855000D01*
X119213002Y-108555000D02*
X117913002Y-109855000D01*
X117913002Y-109855000D02*
X114865685Y-109855000D01*
X121890000Y-108555000D02*
X119213002Y-108555000D01*
X112583003Y-110580001D02*
X109506999Y-110580001D01*
X118208002Y-116205000D02*
X112583003Y-110580001D01*
X108984999Y-110058001D02*
X108585000Y-109658002D01*
X109506999Y-110580001D02*
X108984999Y-110058001D01*
X122555000Y-116205000D02*
X118208002Y-116205000D01*
X134650000Y-118775000D02*
X136495000Y-118775000D01*
X136495000Y-118775000D02*
X142240000Y-113030000D01*
X142240000Y-113030000D02*
X142240000Y-113030000D01*
X128004999Y-111554999D02*
X127605000Y-111155000D01*
X128330001Y-111880001D02*
X128004999Y-111554999D01*
X138369999Y-111880001D02*
X128330001Y-111880001D01*
X139095000Y-111155000D02*
X138369999Y-111880001D01*
X124060001Y-109619999D02*
X124460000Y-109220000D01*
X123734999Y-109945001D02*
X124060001Y-109619999D01*
X123734999Y-111473001D02*
X123734999Y-109945001D01*
X126561998Y-114300000D02*
X123734999Y-111473001D01*
X129650000Y-114300000D02*
X126561998Y-114300000D01*
X126876998Y-116860000D02*
X123190000Y-113173002D01*
X132060000Y-116860000D02*
X126876998Y-116860000D01*
X120793002Y-113173002D02*
X118775000Y-111155000D01*
X123190000Y-113173002D02*
X120793002Y-113173002D01*
X121215685Y-114640000D02*
X120650000Y-114640000D01*
X126278003Y-117585001D02*
X123333002Y-114640000D01*
X123333002Y-114640000D02*
X121215685Y-114640000D01*
X133944999Y-117585001D02*
X126278003Y-117585001D01*
X134690000Y-116840000D02*
X133944999Y-117585001D01*
X111315001Y-115924999D02*
X111715000Y-115525000D01*
X111034999Y-116205001D02*
X111315001Y-115924999D01*
X111034999Y-117823001D02*
X111034999Y-116205001D01*
X111411999Y-118200001D02*
X111034999Y-117823001D01*
X115025001Y-118200001D02*
X111411999Y-118200001D01*
X116195001Y-119370001D02*
X115025001Y-118200001D01*
X128339999Y-119370001D02*
X116195001Y-119370001D01*
X128935000Y-118775000D02*
X128339999Y-119370001D01*
X123825000Y-117475000D02*
X111760000Y-117475000D01*
X124460000Y-116840000D02*
X123825000Y-117475000D01*
X112590588Y-120015000D02*
X106135001Y-113559413D01*
X94379999Y-96919999D02*
X93980000Y-96520000D01*
X106135001Y-103156999D02*
X100718013Y-97740011D01*
X114300000Y-120015000D02*
X112590588Y-120015000D01*
X95200011Y-97740011D02*
X94379999Y-96919999D01*
X106135001Y-113559413D02*
X106135001Y-103156999D01*
X100718013Y-97740011D02*
X95200011Y-97740011D01*
X87539999Y-97185001D02*
X91410000Y-93315000D01*
X87539999Y-97880001D02*
X87539999Y-97185001D01*
X93477501Y-87497499D02*
X93580001Y-87394999D01*
X92404499Y-87497499D02*
X93477501Y-87497499D01*
X90170000Y-89731998D02*
X92404499Y-87497499D01*
X93580001Y-87394999D02*
X93980000Y-86995000D01*
X90170000Y-91780000D02*
X90170000Y-89731998D01*
X98455000Y-92655000D02*
X94022500Y-88222500D01*
X98455000Y-93315000D02*
X98455000Y-92655000D01*
X88295000Y-105380000D02*
X91440000Y-102235000D01*
X88295000Y-108555000D02*
X88295000Y-105380000D01*
X92845684Y-104910001D02*
X100194999Y-104910001D01*
X100194999Y-104910001D02*
X101745000Y-103360000D01*
X90735685Y-107020000D02*
X92845684Y-104910001D01*
X101745000Y-103360000D02*
X102144999Y-102960001D01*
X90170000Y-107020000D02*
X90735685Y-107020000D01*
X73260001Y-87394999D02*
X73660000Y-86995000D01*
X73085001Y-87569999D02*
X73260001Y-87394999D01*
X72011999Y-87569999D02*
X73085001Y-87569999D01*
X69850000Y-89731998D02*
X72011999Y-87569999D01*
X69850000Y-91780000D02*
X69850000Y-89731998D01*
X76925001Y-91445001D02*
X73702500Y-88222500D01*
X80650001Y-91445001D02*
X76925001Y-91445001D01*
X88265000Y-109658002D02*
X86232317Y-109658002D01*
X74059999Y-96919999D02*
X73660000Y-96520000D01*
X79948003Y-97290001D02*
X74430001Y-97290001D01*
X86232317Y-103574315D02*
X79948003Y-97290001D01*
X74430001Y-97290001D02*
X74059999Y-96919999D01*
X86232317Y-109658002D02*
X86232317Y-103574315D01*
X102870000Y-109855000D02*
X93980000Y-109855000D01*
X104140000Y-111125000D02*
X102870000Y-109855000D01*
X84515001Y-110429999D02*
X84219999Y-110725001D01*
X87313001Y-110429999D02*
X84515001Y-110429999D01*
X87501501Y-110618499D02*
X87313001Y-110429999D01*
X93216501Y-110618499D02*
X87501501Y-110618499D01*
X84219999Y-110725001D02*
X83820000Y-111125000D01*
X93980000Y-109855000D02*
X93216501Y-110618499D01*
X67975000Y-105380000D02*
X71120000Y-102235000D01*
X67975000Y-108555000D02*
X67975000Y-105380000D01*
X81425000Y-103360000D02*
X81824999Y-102960001D01*
X79874999Y-104910001D02*
X81425000Y-103360000D01*
X70415685Y-107020000D02*
X72525684Y-104910001D01*
X72525684Y-104910001D02*
X79874999Y-104910001D01*
X69850000Y-107020000D02*
X70415685Y-107020000D01*
X79950000Y-109855000D02*
X73660000Y-109855000D01*
X81250000Y-108555000D02*
X79950000Y-109855000D01*
X104865001Y-109945001D02*
X104539999Y-109619999D01*
X104865001Y-111473001D02*
X104865001Y-109945001D01*
X104488001Y-111850001D02*
X104865001Y-111473001D01*
X104539999Y-109619999D02*
X104140000Y-109220000D01*
X100934999Y-111850001D02*
X104488001Y-111850001D01*
X94010000Y-118775000D02*
X100934999Y-111850001D01*
X87690001Y-111880001D02*
X87364999Y-111554999D01*
X87364999Y-111554999D02*
X86965000Y-111155000D01*
X97729999Y-111880001D02*
X87690001Y-111880001D01*
X98455000Y-111155000D02*
X97729999Y-111880001D01*
X83420001Y-109619999D02*
X83820000Y-109220000D01*
X83094999Y-109945001D02*
X83420001Y-109619999D01*
X83094999Y-111473001D02*
X83094999Y-109945001D01*
X85921998Y-114300000D02*
X83094999Y-111473001D01*
X89010000Y-114300000D02*
X85921998Y-114300000D01*
X78135000Y-111720685D02*
X78135000Y-111155000D01*
X81861999Y-117565001D02*
X78135000Y-113838002D01*
X78135000Y-113838002D02*
X78135000Y-111720685D01*
X90714999Y-117565001D02*
X81861999Y-117565001D01*
X91420000Y-116860000D02*
X90714999Y-117565001D01*
X92689999Y-115479999D02*
X80849999Y-115479999D01*
X80409999Y-115039999D02*
X80010000Y-114640000D01*
X80849999Y-115479999D02*
X80409999Y-115039999D01*
X94050000Y-116840000D02*
X92689999Y-115479999D01*
X71640685Y-115525000D02*
X71075000Y-115525000D01*
X79308002Y-118775000D02*
X76058002Y-115525000D01*
X76058002Y-115525000D02*
X71640685Y-115525000D01*
X88295000Y-118775000D02*
X79308002Y-118775000D01*
X245580001Y-133229999D02*
X246380000Y-132430000D01*
X240900001Y-146920001D02*
X240900001Y-137909999D01*
X240900001Y-137909999D02*
X245580001Y-133229999D01*
X241300000Y-147320000D02*
X240900001Y-146920001D01*
M02*
