G04 #@! TF.GenerationSoftware,KiCad,Pcbnew,5.1.5-52549c5~84~ubuntu18.04.1*
G04 #@! TF.CreationDate,2020-05-17T15:57:07-07:00*
G04 #@! TF.ProjectId,alu,616c752e-6b69-4636-9164-5f7063625858,rev?*
G04 #@! TF.SameCoordinates,Original*
G04 #@! TF.FileFunction,Soldermask,Bot*
G04 #@! TF.FilePolarity,Negative*
%FSLAX46Y46*%
G04 Gerber Fmt 4.6, Leading zero omitted, Abs format (unit mm)*
G04 Created by KiCad (PCBNEW 5.1.5-52549c5~84~ubuntu18.04.1) date 2020-05-17 15:57:07*
%MOMM*%
%LPD*%
G04 APERTURE LIST*
%ADD10C,0.100000*%
G04 APERTURE END LIST*
D10*
G36*
X248398254Y-148467818D02*
G01*
X248771511Y-148622426D01*
X248771513Y-148622427D01*
X248826947Y-148659467D01*
X249107436Y-148846884D01*
X249393116Y-149132564D01*
X249617574Y-149468489D01*
X249772182Y-149841746D01*
X249851000Y-150237993D01*
X249851000Y-150642007D01*
X249772182Y-151038254D01*
X249617574Y-151411511D01*
X249617573Y-151411513D01*
X249393116Y-151747436D01*
X249107436Y-152033116D01*
X248771513Y-152257573D01*
X248771512Y-152257574D01*
X248771511Y-152257574D01*
X248398254Y-152412182D01*
X248002007Y-152491000D01*
X247597993Y-152491000D01*
X247201746Y-152412182D01*
X246828489Y-152257574D01*
X246828488Y-152257574D01*
X246828487Y-152257573D01*
X246492564Y-152033116D01*
X246206884Y-151747436D01*
X245982427Y-151411513D01*
X245982426Y-151411511D01*
X245827818Y-151038254D01*
X245749000Y-150642007D01*
X245749000Y-150237993D01*
X245827818Y-149841746D01*
X245982426Y-149468489D01*
X246206884Y-149132564D01*
X246492564Y-148846884D01*
X246773053Y-148659467D01*
X246828487Y-148622427D01*
X246828489Y-148622426D01*
X247201746Y-148467818D01*
X247597993Y-148389000D01*
X248002007Y-148389000D01*
X248398254Y-148467818D01*
G37*
G36*
X160170395Y-147294546D02*
G01*
X160343466Y-147366234D01*
X160343467Y-147366235D01*
X160499227Y-147470310D01*
X160631690Y-147602773D01*
X160631691Y-147602775D01*
X160735766Y-147758534D01*
X160807454Y-147931605D01*
X160844000Y-148115333D01*
X160844000Y-148302667D01*
X160807454Y-148486395D01*
X160735766Y-148659466D01*
X160735765Y-148659467D01*
X160631690Y-148815227D01*
X160499227Y-148947690D01*
X160420818Y-149000081D01*
X160343466Y-149051766D01*
X160170395Y-149123454D01*
X159986667Y-149160000D01*
X159799333Y-149160000D01*
X159615605Y-149123454D01*
X159442534Y-149051766D01*
X159365182Y-149000081D01*
X159286773Y-148947690D01*
X159154310Y-148815227D01*
X159050235Y-148659467D01*
X159050234Y-148659466D01*
X158978546Y-148486395D01*
X158942000Y-148302667D01*
X158942000Y-148115333D01*
X158978546Y-147931605D01*
X159050234Y-147758534D01*
X159154309Y-147602775D01*
X159154310Y-147602773D01*
X159286773Y-147470310D01*
X159442533Y-147366235D01*
X159442534Y-147366234D01*
X159615605Y-147294546D01*
X159799333Y-147258000D01*
X159986667Y-147258000D01*
X160170395Y-147294546D01*
G37*
G36*
X218629000Y-149160000D02*
G01*
X216727000Y-149160000D01*
X216727000Y-147258000D01*
X218629000Y-147258000D01*
X218629000Y-149160000D01*
G37*
G36*
X92860395Y-147294546D02*
G01*
X93033466Y-147366234D01*
X93033467Y-147366235D01*
X93189227Y-147470310D01*
X93321690Y-147602773D01*
X93321691Y-147602775D01*
X93425766Y-147758534D01*
X93497454Y-147931605D01*
X93534000Y-148115333D01*
X93534000Y-148302667D01*
X93497454Y-148486395D01*
X93425766Y-148659466D01*
X93425765Y-148659467D01*
X93321690Y-148815227D01*
X93189227Y-148947690D01*
X93110818Y-149000081D01*
X93033466Y-149051766D01*
X92860395Y-149123454D01*
X92676667Y-149160000D01*
X92489333Y-149160000D01*
X92305605Y-149123454D01*
X92132534Y-149051766D01*
X92055182Y-149000081D01*
X91976773Y-148947690D01*
X91844310Y-148815227D01*
X91740235Y-148659467D01*
X91740234Y-148659466D01*
X91668546Y-148486395D01*
X91632000Y-148302667D01*
X91632000Y-148115333D01*
X91668546Y-147931605D01*
X91740234Y-147758534D01*
X91844309Y-147602775D01*
X91844310Y-147602773D01*
X91976773Y-147470310D01*
X92132533Y-147366235D01*
X92132534Y-147366234D01*
X92305605Y-147294546D01*
X92489333Y-147258000D01*
X92676667Y-147258000D01*
X92860395Y-147294546D01*
G37*
G36*
X100480395Y-147294546D02*
G01*
X100653466Y-147366234D01*
X100653467Y-147366235D01*
X100809227Y-147470310D01*
X100941690Y-147602773D01*
X100941691Y-147602775D01*
X101045766Y-147758534D01*
X101117454Y-147931605D01*
X101154000Y-148115333D01*
X101154000Y-148302667D01*
X101117454Y-148486395D01*
X101045766Y-148659466D01*
X101045765Y-148659467D01*
X100941690Y-148815227D01*
X100809227Y-148947690D01*
X100730818Y-149000081D01*
X100653466Y-149051766D01*
X100480395Y-149123454D01*
X100296667Y-149160000D01*
X100109333Y-149160000D01*
X99925605Y-149123454D01*
X99752534Y-149051766D01*
X99675182Y-149000081D01*
X99596773Y-148947690D01*
X99464310Y-148815227D01*
X99360235Y-148659467D01*
X99360234Y-148659466D01*
X99288546Y-148486395D01*
X99252000Y-148302667D01*
X99252000Y-148115333D01*
X99288546Y-147931605D01*
X99360234Y-147758534D01*
X99464309Y-147602775D01*
X99464310Y-147602773D01*
X99596773Y-147470310D01*
X99752533Y-147366235D01*
X99752534Y-147366234D01*
X99925605Y-147294546D01*
X100109333Y-147258000D01*
X100296667Y-147258000D01*
X100480395Y-147294546D01*
G37*
G36*
X108100395Y-147294546D02*
G01*
X108273466Y-147366234D01*
X108273467Y-147366235D01*
X108429227Y-147470310D01*
X108561690Y-147602773D01*
X108561691Y-147602775D01*
X108665766Y-147758534D01*
X108737454Y-147931605D01*
X108774000Y-148115333D01*
X108774000Y-148302667D01*
X108737454Y-148486395D01*
X108665766Y-148659466D01*
X108665765Y-148659467D01*
X108561690Y-148815227D01*
X108429227Y-148947690D01*
X108350818Y-149000081D01*
X108273466Y-149051766D01*
X108100395Y-149123454D01*
X107916667Y-149160000D01*
X107729333Y-149160000D01*
X107545605Y-149123454D01*
X107372534Y-149051766D01*
X107295182Y-149000081D01*
X107216773Y-148947690D01*
X107084310Y-148815227D01*
X106980235Y-148659467D01*
X106980234Y-148659466D01*
X106908546Y-148486395D01*
X106872000Y-148302667D01*
X106872000Y-148115333D01*
X106908546Y-147931605D01*
X106980234Y-147758534D01*
X107084309Y-147602775D01*
X107084310Y-147602773D01*
X107216773Y-147470310D01*
X107372533Y-147366235D01*
X107372534Y-147366234D01*
X107545605Y-147294546D01*
X107729333Y-147258000D01*
X107916667Y-147258000D01*
X108100395Y-147294546D01*
G37*
G36*
X115720395Y-147294546D02*
G01*
X115893466Y-147366234D01*
X115893467Y-147366235D01*
X116049227Y-147470310D01*
X116181690Y-147602773D01*
X116181691Y-147602775D01*
X116285766Y-147758534D01*
X116357454Y-147931605D01*
X116394000Y-148115333D01*
X116394000Y-148302667D01*
X116357454Y-148486395D01*
X116285766Y-148659466D01*
X116285765Y-148659467D01*
X116181690Y-148815227D01*
X116049227Y-148947690D01*
X115970818Y-149000081D01*
X115893466Y-149051766D01*
X115720395Y-149123454D01*
X115536667Y-149160000D01*
X115349333Y-149160000D01*
X115165605Y-149123454D01*
X114992534Y-149051766D01*
X114915182Y-149000081D01*
X114836773Y-148947690D01*
X114704310Y-148815227D01*
X114600235Y-148659467D01*
X114600234Y-148659466D01*
X114528546Y-148486395D01*
X114492000Y-148302667D01*
X114492000Y-148115333D01*
X114528546Y-147931605D01*
X114600234Y-147758534D01*
X114704309Y-147602775D01*
X114704310Y-147602773D01*
X114836773Y-147470310D01*
X114992533Y-147366235D01*
X114992534Y-147366234D01*
X115165605Y-147294546D01*
X115349333Y-147258000D01*
X115536667Y-147258000D01*
X115720395Y-147294546D01*
G37*
G36*
X122705395Y-147294546D02*
G01*
X122878466Y-147366234D01*
X122878467Y-147366235D01*
X123034227Y-147470310D01*
X123166690Y-147602773D01*
X123166691Y-147602775D01*
X123270766Y-147758534D01*
X123342454Y-147931605D01*
X123379000Y-148115333D01*
X123379000Y-148302667D01*
X123342454Y-148486395D01*
X123270766Y-148659466D01*
X123270765Y-148659467D01*
X123166690Y-148815227D01*
X123034227Y-148947690D01*
X122955818Y-149000081D01*
X122878466Y-149051766D01*
X122705395Y-149123454D01*
X122521667Y-149160000D01*
X122334333Y-149160000D01*
X122150605Y-149123454D01*
X121977534Y-149051766D01*
X121900182Y-149000081D01*
X121821773Y-148947690D01*
X121689310Y-148815227D01*
X121585235Y-148659467D01*
X121585234Y-148659466D01*
X121513546Y-148486395D01*
X121477000Y-148302667D01*
X121477000Y-148115333D01*
X121513546Y-147931605D01*
X121585234Y-147758534D01*
X121689309Y-147602775D01*
X121689310Y-147602773D01*
X121821773Y-147470310D01*
X121977533Y-147366235D01*
X121977534Y-147366234D01*
X122150605Y-147294546D01*
X122334333Y-147258000D01*
X122521667Y-147258000D01*
X122705395Y-147294546D01*
G37*
G36*
X129690395Y-147294546D02*
G01*
X129863466Y-147366234D01*
X129863467Y-147366235D01*
X130019227Y-147470310D01*
X130151690Y-147602773D01*
X130151691Y-147602775D01*
X130255766Y-147758534D01*
X130327454Y-147931605D01*
X130364000Y-148115333D01*
X130364000Y-148302667D01*
X130327454Y-148486395D01*
X130255766Y-148659466D01*
X130255765Y-148659467D01*
X130151690Y-148815227D01*
X130019227Y-148947690D01*
X129940818Y-149000081D01*
X129863466Y-149051766D01*
X129690395Y-149123454D01*
X129506667Y-149160000D01*
X129319333Y-149160000D01*
X129135605Y-149123454D01*
X128962534Y-149051766D01*
X128885182Y-149000081D01*
X128806773Y-148947690D01*
X128674310Y-148815227D01*
X128570235Y-148659467D01*
X128570234Y-148659466D01*
X128498546Y-148486395D01*
X128462000Y-148302667D01*
X128462000Y-148115333D01*
X128498546Y-147931605D01*
X128570234Y-147758534D01*
X128674309Y-147602775D01*
X128674310Y-147602773D01*
X128806773Y-147470310D01*
X128962533Y-147366235D01*
X128962534Y-147366234D01*
X129135605Y-147294546D01*
X129319333Y-147258000D01*
X129506667Y-147258000D01*
X129690395Y-147294546D01*
G37*
G36*
X137310395Y-147294546D02*
G01*
X137483466Y-147366234D01*
X137483467Y-147366235D01*
X137639227Y-147470310D01*
X137771690Y-147602773D01*
X137771691Y-147602775D01*
X137875766Y-147758534D01*
X137947454Y-147931605D01*
X137984000Y-148115333D01*
X137984000Y-148302667D01*
X137947454Y-148486395D01*
X137875766Y-148659466D01*
X137875765Y-148659467D01*
X137771690Y-148815227D01*
X137639227Y-148947690D01*
X137560818Y-149000081D01*
X137483466Y-149051766D01*
X137310395Y-149123454D01*
X137126667Y-149160000D01*
X136939333Y-149160000D01*
X136755605Y-149123454D01*
X136582534Y-149051766D01*
X136505182Y-149000081D01*
X136426773Y-148947690D01*
X136294310Y-148815227D01*
X136190235Y-148659467D01*
X136190234Y-148659466D01*
X136118546Y-148486395D01*
X136082000Y-148302667D01*
X136082000Y-148115333D01*
X136118546Y-147931605D01*
X136190234Y-147758534D01*
X136294309Y-147602775D01*
X136294310Y-147602773D01*
X136426773Y-147470310D01*
X136582533Y-147366235D01*
X136582534Y-147366234D01*
X136755605Y-147294546D01*
X136939333Y-147258000D01*
X137126667Y-147258000D01*
X137310395Y-147294546D01*
G37*
G36*
X144930395Y-147294546D02*
G01*
X145103466Y-147366234D01*
X145103467Y-147366235D01*
X145259227Y-147470310D01*
X145391690Y-147602773D01*
X145391691Y-147602775D01*
X145495766Y-147758534D01*
X145567454Y-147931605D01*
X145604000Y-148115333D01*
X145604000Y-148302667D01*
X145567454Y-148486395D01*
X145495766Y-148659466D01*
X145495765Y-148659467D01*
X145391690Y-148815227D01*
X145259227Y-148947690D01*
X145180818Y-149000081D01*
X145103466Y-149051766D01*
X144930395Y-149123454D01*
X144746667Y-149160000D01*
X144559333Y-149160000D01*
X144375605Y-149123454D01*
X144202534Y-149051766D01*
X144125182Y-149000081D01*
X144046773Y-148947690D01*
X143914310Y-148815227D01*
X143810235Y-148659467D01*
X143810234Y-148659466D01*
X143738546Y-148486395D01*
X143702000Y-148302667D01*
X143702000Y-148115333D01*
X143738546Y-147931605D01*
X143810234Y-147758534D01*
X143914309Y-147602775D01*
X143914310Y-147602773D01*
X144046773Y-147470310D01*
X144202533Y-147366235D01*
X144202534Y-147366234D01*
X144375605Y-147294546D01*
X144559333Y-147258000D01*
X144746667Y-147258000D01*
X144930395Y-147294546D01*
G37*
G36*
X152550395Y-147294546D02*
G01*
X152723466Y-147366234D01*
X152723467Y-147366235D01*
X152879227Y-147470310D01*
X153011690Y-147602773D01*
X153011691Y-147602775D01*
X153115766Y-147758534D01*
X153187454Y-147931605D01*
X153224000Y-148115333D01*
X153224000Y-148302667D01*
X153187454Y-148486395D01*
X153115766Y-148659466D01*
X153115765Y-148659467D01*
X153011690Y-148815227D01*
X152879227Y-148947690D01*
X152800818Y-149000081D01*
X152723466Y-149051766D01*
X152550395Y-149123454D01*
X152366667Y-149160000D01*
X152179333Y-149160000D01*
X151995605Y-149123454D01*
X151822534Y-149051766D01*
X151745182Y-149000081D01*
X151666773Y-148947690D01*
X151534310Y-148815227D01*
X151430235Y-148659467D01*
X151430234Y-148659466D01*
X151358546Y-148486395D01*
X151322000Y-148302667D01*
X151322000Y-148115333D01*
X151358546Y-147931605D01*
X151430234Y-147758534D01*
X151534309Y-147602775D01*
X151534310Y-147602773D01*
X151666773Y-147470310D01*
X151822533Y-147366235D01*
X151822534Y-147366234D01*
X151995605Y-147294546D01*
X152179333Y-147258000D01*
X152366667Y-147258000D01*
X152550395Y-147294546D01*
G37*
G36*
X167790395Y-147294546D02*
G01*
X167963466Y-147366234D01*
X167963467Y-147366235D01*
X168119227Y-147470310D01*
X168251690Y-147602773D01*
X168251691Y-147602775D01*
X168355766Y-147758534D01*
X168427454Y-147931605D01*
X168464000Y-148115333D01*
X168464000Y-148302667D01*
X168427454Y-148486395D01*
X168355766Y-148659466D01*
X168355765Y-148659467D01*
X168251690Y-148815227D01*
X168119227Y-148947690D01*
X168040818Y-149000081D01*
X167963466Y-149051766D01*
X167790395Y-149123454D01*
X167606667Y-149160000D01*
X167419333Y-149160000D01*
X167235605Y-149123454D01*
X167062534Y-149051766D01*
X166985182Y-149000081D01*
X166906773Y-148947690D01*
X166774310Y-148815227D01*
X166670235Y-148659467D01*
X166670234Y-148659466D01*
X166598546Y-148486395D01*
X166562000Y-148302667D01*
X166562000Y-148115333D01*
X166598546Y-147931605D01*
X166670234Y-147758534D01*
X166774309Y-147602775D01*
X166774310Y-147602773D01*
X166906773Y-147470310D01*
X167062533Y-147366235D01*
X167062534Y-147366234D01*
X167235605Y-147294546D01*
X167419333Y-147258000D01*
X167606667Y-147258000D01*
X167790395Y-147294546D01*
G37*
G36*
X226884000Y-149160000D02*
G01*
X224982000Y-149160000D01*
X224982000Y-147258000D01*
X226884000Y-147258000D01*
X226884000Y-149160000D01*
G37*
G36*
X62419000Y-149160000D02*
G01*
X60517000Y-149160000D01*
X60517000Y-147258000D01*
X62419000Y-147258000D01*
X62419000Y-149160000D01*
G37*
G36*
X70674000Y-149160000D02*
G01*
X68772000Y-149160000D01*
X68772000Y-147258000D01*
X70674000Y-147258000D01*
X70674000Y-149160000D01*
G37*
G36*
X78929000Y-149160000D02*
G01*
X77027000Y-149160000D01*
X77027000Y-147258000D01*
X78929000Y-147258000D01*
X78929000Y-149160000D01*
G37*
G36*
X205890395Y-147294546D02*
G01*
X206063466Y-147366234D01*
X206063467Y-147366235D01*
X206219227Y-147470310D01*
X206351690Y-147602773D01*
X206351691Y-147602775D01*
X206455766Y-147758534D01*
X206527454Y-147931605D01*
X206564000Y-148115333D01*
X206564000Y-148302667D01*
X206527454Y-148486395D01*
X206455766Y-148659466D01*
X206455765Y-148659467D01*
X206351690Y-148815227D01*
X206219227Y-148947690D01*
X206140818Y-149000081D01*
X206063466Y-149051766D01*
X205890395Y-149123454D01*
X205706667Y-149160000D01*
X205519333Y-149160000D01*
X205335605Y-149123454D01*
X205162534Y-149051766D01*
X205085182Y-149000081D01*
X205006773Y-148947690D01*
X204874310Y-148815227D01*
X204770235Y-148659467D01*
X204770234Y-148659466D01*
X204698546Y-148486395D01*
X204662000Y-148302667D01*
X204662000Y-148115333D01*
X204698546Y-147931605D01*
X204770234Y-147758534D01*
X204874309Y-147602775D01*
X204874310Y-147602773D01*
X205006773Y-147470310D01*
X205162533Y-147366235D01*
X205162534Y-147366234D01*
X205335605Y-147294546D01*
X205519333Y-147258000D01*
X205706667Y-147258000D01*
X205890395Y-147294546D01*
G37*
G36*
X190650395Y-147294546D02*
G01*
X190823466Y-147366234D01*
X190823467Y-147366235D01*
X190979227Y-147470310D01*
X191111690Y-147602773D01*
X191111691Y-147602775D01*
X191215766Y-147758534D01*
X191287454Y-147931605D01*
X191324000Y-148115333D01*
X191324000Y-148302667D01*
X191287454Y-148486395D01*
X191215766Y-148659466D01*
X191215765Y-148659467D01*
X191111690Y-148815227D01*
X190979227Y-148947690D01*
X190900818Y-149000081D01*
X190823466Y-149051766D01*
X190650395Y-149123454D01*
X190466667Y-149160000D01*
X190279333Y-149160000D01*
X190095605Y-149123454D01*
X189922534Y-149051766D01*
X189845182Y-149000081D01*
X189766773Y-148947690D01*
X189634310Y-148815227D01*
X189530235Y-148659467D01*
X189530234Y-148659466D01*
X189458546Y-148486395D01*
X189422000Y-148302667D01*
X189422000Y-148115333D01*
X189458546Y-147931605D01*
X189530234Y-147758534D01*
X189634309Y-147602775D01*
X189634310Y-147602773D01*
X189766773Y-147470310D01*
X189922533Y-147366235D01*
X189922534Y-147366234D01*
X190095605Y-147294546D01*
X190279333Y-147258000D01*
X190466667Y-147258000D01*
X190650395Y-147294546D01*
G37*
G36*
X183030395Y-147294546D02*
G01*
X183203466Y-147366234D01*
X183203467Y-147366235D01*
X183359227Y-147470310D01*
X183491690Y-147602773D01*
X183491691Y-147602775D01*
X183595766Y-147758534D01*
X183667454Y-147931605D01*
X183704000Y-148115333D01*
X183704000Y-148302667D01*
X183667454Y-148486395D01*
X183595766Y-148659466D01*
X183595765Y-148659467D01*
X183491690Y-148815227D01*
X183359227Y-148947690D01*
X183280818Y-149000081D01*
X183203466Y-149051766D01*
X183030395Y-149123454D01*
X182846667Y-149160000D01*
X182659333Y-149160000D01*
X182475605Y-149123454D01*
X182302534Y-149051766D01*
X182225182Y-149000081D01*
X182146773Y-148947690D01*
X182014310Y-148815227D01*
X181910235Y-148659467D01*
X181910234Y-148659466D01*
X181838546Y-148486395D01*
X181802000Y-148302667D01*
X181802000Y-148115333D01*
X181838546Y-147931605D01*
X181910234Y-147758534D01*
X182014309Y-147602775D01*
X182014310Y-147602773D01*
X182146773Y-147470310D01*
X182302533Y-147366235D01*
X182302534Y-147366234D01*
X182475605Y-147294546D01*
X182659333Y-147258000D01*
X182846667Y-147258000D01*
X183030395Y-147294546D01*
G37*
G36*
X175410395Y-147294546D02*
G01*
X175583466Y-147366234D01*
X175583467Y-147366235D01*
X175739227Y-147470310D01*
X175871690Y-147602773D01*
X175871691Y-147602775D01*
X175975766Y-147758534D01*
X176047454Y-147931605D01*
X176084000Y-148115333D01*
X176084000Y-148302667D01*
X176047454Y-148486395D01*
X175975766Y-148659466D01*
X175975765Y-148659467D01*
X175871690Y-148815227D01*
X175739227Y-148947690D01*
X175660818Y-149000081D01*
X175583466Y-149051766D01*
X175410395Y-149123454D01*
X175226667Y-149160000D01*
X175039333Y-149160000D01*
X174855605Y-149123454D01*
X174682534Y-149051766D01*
X174605182Y-149000081D01*
X174526773Y-148947690D01*
X174394310Y-148815227D01*
X174290235Y-148659467D01*
X174290234Y-148659466D01*
X174218546Y-148486395D01*
X174182000Y-148302667D01*
X174182000Y-148115333D01*
X174218546Y-147931605D01*
X174290234Y-147758534D01*
X174394309Y-147602775D01*
X174394310Y-147602773D01*
X174526773Y-147470310D01*
X174682533Y-147366235D01*
X174682534Y-147366234D01*
X174855605Y-147294546D01*
X175039333Y-147258000D01*
X175226667Y-147258000D01*
X175410395Y-147294546D01*
G37*
G36*
X198270395Y-147294546D02*
G01*
X198443466Y-147366234D01*
X198443467Y-147366235D01*
X198599227Y-147470310D01*
X198731690Y-147602773D01*
X198731691Y-147602775D01*
X198835766Y-147758534D01*
X198907454Y-147931605D01*
X198944000Y-148115333D01*
X198944000Y-148302667D01*
X198907454Y-148486395D01*
X198835766Y-148659466D01*
X198835765Y-148659467D01*
X198731690Y-148815227D01*
X198599227Y-148947690D01*
X198520818Y-149000081D01*
X198443466Y-149051766D01*
X198270395Y-149123454D01*
X198086667Y-149160000D01*
X197899333Y-149160000D01*
X197715605Y-149123454D01*
X197542534Y-149051766D01*
X197465182Y-149000081D01*
X197386773Y-148947690D01*
X197254310Y-148815227D01*
X197150235Y-148659467D01*
X197150234Y-148659466D01*
X197078546Y-148486395D01*
X197042000Y-148302667D01*
X197042000Y-148115333D01*
X197078546Y-147931605D01*
X197150234Y-147758534D01*
X197254309Y-147602775D01*
X197254310Y-147602773D01*
X197386773Y-147470310D01*
X197542533Y-147366235D01*
X197542534Y-147366234D01*
X197715605Y-147294546D01*
X197899333Y-147258000D01*
X198086667Y-147258000D01*
X198270395Y-147294546D01*
G37*
G36*
X137984000Y-146620000D02*
G01*
X136082000Y-146620000D01*
X136082000Y-144718000D01*
X137984000Y-144718000D01*
X137984000Y-146620000D01*
G37*
G36*
X93534000Y-146620000D02*
G01*
X91632000Y-146620000D01*
X91632000Y-144718000D01*
X93534000Y-144718000D01*
X93534000Y-146620000D01*
G37*
G36*
X101154000Y-146620000D02*
G01*
X99252000Y-146620000D01*
X99252000Y-144718000D01*
X101154000Y-144718000D01*
X101154000Y-146620000D01*
G37*
G36*
X108774000Y-146620000D02*
G01*
X106872000Y-146620000D01*
X106872000Y-144718000D01*
X108774000Y-144718000D01*
X108774000Y-146620000D01*
G37*
G36*
X116394000Y-146620000D02*
G01*
X114492000Y-146620000D01*
X114492000Y-144718000D01*
X116394000Y-144718000D01*
X116394000Y-146620000D01*
G37*
G36*
X123379000Y-146620000D02*
G01*
X121477000Y-146620000D01*
X121477000Y-144718000D01*
X123379000Y-144718000D01*
X123379000Y-146620000D01*
G37*
G36*
X130364000Y-146620000D02*
G01*
X128462000Y-146620000D01*
X128462000Y-144718000D01*
X130364000Y-144718000D01*
X130364000Y-146620000D01*
G37*
G36*
X145604000Y-146620000D02*
G01*
X143702000Y-146620000D01*
X143702000Y-144718000D01*
X145604000Y-144718000D01*
X145604000Y-146620000D01*
G37*
G36*
X153224000Y-146620000D02*
G01*
X151322000Y-146620000D01*
X151322000Y-144718000D01*
X153224000Y-144718000D01*
X153224000Y-146620000D01*
G37*
G36*
X160844000Y-146620000D02*
G01*
X158942000Y-146620000D01*
X158942000Y-144718000D01*
X160844000Y-144718000D01*
X160844000Y-146620000D01*
G37*
G36*
X176084000Y-146620000D02*
G01*
X174182000Y-146620000D01*
X174182000Y-144718000D01*
X176084000Y-144718000D01*
X176084000Y-146620000D01*
G37*
G36*
X183704000Y-146620000D02*
G01*
X181802000Y-146620000D01*
X181802000Y-144718000D01*
X183704000Y-144718000D01*
X183704000Y-146620000D01*
G37*
G36*
X70000395Y-144754546D02*
G01*
X70173466Y-144826234D01*
X70173467Y-144826235D01*
X70329227Y-144930310D01*
X70461690Y-145062773D01*
X70461691Y-145062775D01*
X70565766Y-145218534D01*
X70637454Y-145391605D01*
X70674000Y-145575333D01*
X70674000Y-145762667D01*
X70637454Y-145946395D01*
X70565766Y-146119466D01*
X70565765Y-146119467D01*
X70461690Y-146275227D01*
X70329227Y-146407690D01*
X70250818Y-146460081D01*
X70173466Y-146511766D01*
X70000395Y-146583454D01*
X69816667Y-146620000D01*
X69629333Y-146620000D01*
X69445605Y-146583454D01*
X69272534Y-146511766D01*
X69195182Y-146460081D01*
X69116773Y-146407690D01*
X68984310Y-146275227D01*
X68880235Y-146119467D01*
X68880234Y-146119466D01*
X68808546Y-145946395D01*
X68772000Y-145762667D01*
X68772000Y-145575333D01*
X68808546Y-145391605D01*
X68880234Y-145218534D01*
X68984309Y-145062775D01*
X68984310Y-145062773D01*
X69116773Y-144930310D01*
X69272533Y-144826235D01*
X69272534Y-144826234D01*
X69445605Y-144754546D01*
X69629333Y-144718000D01*
X69816667Y-144718000D01*
X70000395Y-144754546D01*
G37*
G36*
X217955395Y-144754546D02*
G01*
X218128466Y-144826234D01*
X218128467Y-144826235D01*
X218284227Y-144930310D01*
X218416690Y-145062773D01*
X218416691Y-145062775D01*
X218520766Y-145218534D01*
X218592454Y-145391605D01*
X218629000Y-145575333D01*
X218629000Y-145762667D01*
X218592454Y-145946395D01*
X218520766Y-146119466D01*
X218520765Y-146119467D01*
X218416690Y-146275227D01*
X218284227Y-146407690D01*
X218205818Y-146460081D01*
X218128466Y-146511766D01*
X217955395Y-146583454D01*
X217771667Y-146620000D01*
X217584333Y-146620000D01*
X217400605Y-146583454D01*
X217227534Y-146511766D01*
X217150182Y-146460081D01*
X217071773Y-146407690D01*
X216939310Y-146275227D01*
X216835235Y-146119467D01*
X216835234Y-146119466D01*
X216763546Y-145946395D01*
X216727000Y-145762667D01*
X216727000Y-145575333D01*
X216763546Y-145391605D01*
X216835234Y-145218534D01*
X216939309Y-145062775D01*
X216939310Y-145062773D01*
X217071773Y-144930310D01*
X217227533Y-144826235D01*
X217227534Y-144826234D01*
X217400605Y-144754546D01*
X217584333Y-144718000D01*
X217771667Y-144718000D01*
X217955395Y-144754546D01*
G37*
G36*
X78255395Y-144754546D02*
G01*
X78428466Y-144826234D01*
X78428467Y-144826235D01*
X78584227Y-144930310D01*
X78716690Y-145062773D01*
X78716691Y-145062775D01*
X78820766Y-145218534D01*
X78892454Y-145391605D01*
X78929000Y-145575333D01*
X78929000Y-145762667D01*
X78892454Y-145946395D01*
X78820766Y-146119466D01*
X78820765Y-146119467D01*
X78716690Y-146275227D01*
X78584227Y-146407690D01*
X78505818Y-146460081D01*
X78428466Y-146511766D01*
X78255395Y-146583454D01*
X78071667Y-146620000D01*
X77884333Y-146620000D01*
X77700605Y-146583454D01*
X77527534Y-146511766D01*
X77450182Y-146460081D01*
X77371773Y-146407690D01*
X77239310Y-146275227D01*
X77135235Y-146119467D01*
X77135234Y-146119466D01*
X77063546Y-145946395D01*
X77027000Y-145762667D01*
X77027000Y-145575333D01*
X77063546Y-145391605D01*
X77135234Y-145218534D01*
X77239309Y-145062775D01*
X77239310Y-145062773D01*
X77371773Y-144930310D01*
X77527533Y-144826235D01*
X77527534Y-144826234D01*
X77700605Y-144754546D01*
X77884333Y-144718000D01*
X78071667Y-144718000D01*
X78255395Y-144754546D01*
G37*
G36*
X206564000Y-146620000D02*
G01*
X204662000Y-146620000D01*
X204662000Y-144718000D01*
X206564000Y-144718000D01*
X206564000Y-146620000D01*
G37*
G36*
X191324000Y-146620000D02*
G01*
X189422000Y-146620000D01*
X189422000Y-144718000D01*
X191324000Y-144718000D01*
X191324000Y-146620000D01*
G37*
G36*
X226210395Y-144754546D02*
G01*
X226383466Y-144826234D01*
X226383467Y-144826235D01*
X226539227Y-144930310D01*
X226671690Y-145062773D01*
X226671691Y-145062775D01*
X226775766Y-145218534D01*
X226847454Y-145391605D01*
X226884000Y-145575333D01*
X226884000Y-145762667D01*
X226847454Y-145946395D01*
X226775766Y-146119466D01*
X226775765Y-146119467D01*
X226671690Y-146275227D01*
X226539227Y-146407690D01*
X226460818Y-146460081D01*
X226383466Y-146511766D01*
X226210395Y-146583454D01*
X226026667Y-146620000D01*
X225839333Y-146620000D01*
X225655605Y-146583454D01*
X225482534Y-146511766D01*
X225405182Y-146460081D01*
X225326773Y-146407690D01*
X225194310Y-146275227D01*
X225090235Y-146119467D01*
X225090234Y-146119466D01*
X225018546Y-145946395D01*
X224982000Y-145762667D01*
X224982000Y-145575333D01*
X225018546Y-145391605D01*
X225090234Y-145218534D01*
X225194309Y-145062775D01*
X225194310Y-145062773D01*
X225326773Y-144930310D01*
X225482533Y-144826235D01*
X225482534Y-144826234D01*
X225655605Y-144754546D01*
X225839333Y-144718000D01*
X226026667Y-144718000D01*
X226210395Y-144754546D01*
G37*
G36*
X198944000Y-146620000D02*
G01*
X197042000Y-146620000D01*
X197042000Y-144718000D01*
X198944000Y-144718000D01*
X198944000Y-146620000D01*
G37*
G36*
X61745395Y-144754546D02*
G01*
X61918466Y-144826234D01*
X61918467Y-144826235D01*
X62074227Y-144930310D01*
X62206690Y-145062773D01*
X62206691Y-145062775D01*
X62310766Y-145218534D01*
X62382454Y-145391605D01*
X62419000Y-145575333D01*
X62419000Y-145762667D01*
X62382454Y-145946395D01*
X62310766Y-146119466D01*
X62310765Y-146119467D01*
X62206690Y-146275227D01*
X62074227Y-146407690D01*
X61995818Y-146460081D01*
X61918466Y-146511766D01*
X61745395Y-146583454D01*
X61561667Y-146620000D01*
X61374333Y-146620000D01*
X61190605Y-146583454D01*
X61017534Y-146511766D01*
X60940182Y-146460081D01*
X60861773Y-146407690D01*
X60729310Y-146275227D01*
X60625235Y-146119467D01*
X60625234Y-146119466D01*
X60553546Y-145946395D01*
X60517000Y-145762667D01*
X60517000Y-145575333D01*
X60553546Y-145391605D01*
X60625234Y-145218534D01*
X60729309Y-145062775D01*
X60729310Y-145062773D01*
X60861773Y-144930310D01*
X61017533Y-144826235D01*
X61017534Y-144826234D01*
X61190605Y-144754546D01*
X61374333Y-144718000D01*
X61561667Y-144718000D01*
X61745395Y-144754546D01*
G37*
G36*
X168464000Y-146620000D02*
G01*
X166562000Y-146620000D01*
X166562000Y-144718000D01*
X168464000Y-144718000D01*
X168464000Y-146620000D01*
G37*
G36*
X247231000Y-144361000D02*
G01*
X245529000Y-144361000D01*
X245529000Y-142659000D01*
X247231000Y-142659000D01*
X247231000Y-144361000D01*
G37*
G36*
X249468228Y-141306703D02*
G01*
X249623100Y-141370853D01*
X249762481Y-141463985D01*
X249881015Y-141582519D01*
X249974147Y-141721900D01*
X250038297Y-141876772D01*
X250071000Y-142041184D01*
X250071000Y-142208816D01*
X250038297Y-142373228D01*
X249974147Y-142528100D01*
X249881015Y-142667481D01*
X249762481Y-142786015D01*
X249623100Y-142879147D01*
X249468228Y-142943297D01*
X249303816Y-142976000D01*
X249136184Y-142976000D01*
X248971772Y-142943297D01*
X248816900Y-142879147D01*
X248677519Y-142786015D01*
X248558985Y-142667481D01*
X248465853Y-142528100D01*
X248401703Y-142373228D01*
X248369000Y-142208816D01*
X248369000Y-142041184D01*
X248401703Y-141876772D01*
X248465853Y-141721900D01*
X248558985Y-141582519D01*
X248677519Y-141463985D01*
X248816900Y-141370853D01*
X248971772Y-141306703D01*
X249136184Y-141274000D01*
X249303816Y-141274000D01*
X249468228Y-141306703D01*
G37*
G36*
X246628228Y-139921703D02*
G01*
X246783100Y-139985853D01*
X246922481Y-140078985D01*
X247041015Y-140197519D01*
X247134147Y-140336900D01*
X247198297Y-140491772D01*
X247231000Y-140656184D01*
X247231000Y-140823816D01*
X247198297Y-140988228D01*
X247134147Y-141143100D01*
X247041015Y-141282481D01*
X246922481Y-141401015D01*
X246783100Y-141494147D01*
X246628228Y-141558297D01*
X246463816Y-141591000D01*
X246296184Y-141591000D01*
X246131772Y-141558297D01*
X245976900Y-141494147D01*
X245837519Y-141401015D01*
X245718985Y-141282481D01*
X245625853Y-141143100D01*
X245561703Y-140988228D01*
X245529000Y-140823816D01*
X245529000Y-140656184D01*
X245561703Y-140491772D01*
X245625853Y-140336900D01*
X245718985Y-140197519D01*
X245837519Y-140078985D01*
X245976900Y-139985853D01*
X246131772Y-139921703D01*
X246296184Y-139889000D01*
X246463816Y-139889000D01*
X246628228Y-139921703D01*
G37*
G36*
X249468228Y-138536703D02*
G01*
X249623100Y-138600853D01*
X249762481Y-138693985D01*
X249881015Y-138812519D01*
X249974147Y-138951900D01*
X250038297Y-139106772D01*
X250071000Y-139271184D01*
X250071000Y-139438816D01*
X250038297Y-139603228D01*
X249974147Y-139758100D01*
X249881015Y-139897481D01*
X249762481Y-140016015D01*
X249623100Y-140109147D01*
X249468228Y-140173297D01*
X249303816Y-140206000D01*
X249136184Y-140206000D01*
X248971772Y-140173297D01*
X248816900Y-140109147D01*
X248677519Y-140016015D01*
X248558985Y-139897481D01*
X248465853Y-139758100D01*
X248401703Y-139603228D01*
X248369000Y-139438816D01*
X248369000Y-139271184D01*
X248401703Y-139106772D01*
X248465853Y-138951900D01*
X248558985Y-138812519D01*
X248677519Y-138693985D01*
X248816900Y-138600853D01*
X248971772Y-138536703D01*
X249136184Y-138504000D01*
X249303816Y-138504000D01*
X249468228Y-138536703D01*
G37*
G36*
X246628228Y-137151703D02*
G01*
X246783100Y-137215853D01*
X246922481Y-137308985D01*
X247041015Y-137427519D01*
X247134147Y-137566900D01*
X247198297Y-137721772D01*
X247231000Y-137886184D01*
X247231000Y-138053816D01*
X247198297Y-138218228D01*
X247134147Y-138373100D01*
X247041015Y-138512481D01*
X246922481Y-138631015D01*
X246783100Y-138724147D01*
X246628228Y-138788297D01*
X246463816Y-138821000D01*
X246296184Y-138821000D01*
X246131772Y-138788297D01*
X245976900Y-138724147D01*
X245837519Y-138631015D01*
X245718985Y-138512481D01*
X245625853Y-138373100D01*
X245561703Y-138218228D01*
X245529000Y-138053816D01*
X245529000Y-137886184D01*
X245561703Y-137721772D01*
X245625853Y-137566900D01*
X245718985Y-137427519D01*
X245837519Y-137308985D01*
X245976900Y-137215853D01*
X246131772Y-137151703D01*
X246296184Y-137119000D01*
X246463816Y-137119000D01*
X246628228Y-137151703D01*
G37*
G36*
X249468228Y-135766703D02*
G01*
X249623100Y-135830853D01*
X249762481Y-135923985D01*
X249881015Y-136042519D01*
X249974147Y-136181900D01*
X250038297Y-136336772D01*
X250071000Y-136501184D01*
X250071000Y-136668816D01*
X250038297Y-136833228D01*
X249974147Y-136988100D01*
X249881015Y-137127481D01*
X249762481Y-137246015D01*
X249623100Y-137339147D01*
X249468228Y-137403297D01*
X249303816Y-137436000D01*
X249136184Y-137436000D01*
X248971772Y-137403297D01*
X248816900Y-137339147D01*
X248677519Y-137246015D01*
X248558985Y-137127481D01*
X248465853Y-136988100D01*
X248401703Y-136833228D01*
X248369000Y-136668816D01*
X248369000Y-136501184D01*
X248401703Y-136336772D01*
X248465853Y-136181900D01*
X248558985Y-136042519D01*
X248677519Y-135923985D01*
X248816900Y-135830853D01*
X248971772Y-135766703D01*
X249136184Y-135734000D01*
X249303816Y-135734000D01*
X249468228Y-135766703D01*
G37*
G36*
X246628228Y-134381703D02*
G01*
X246783100Y-134445853D01*
X246922481Y-134538985D01*
X247041015Y-134657519D01*
X247134147Y-134796900D01*
X247198297Y-134951772D01*
X247231000Y-135116184D01*
X247231000Y-135283816D01*
X247198297Y-135448228D01*
X247134147Y-135603100D01*
X247041015Y-135742481D01*
X246922481Y-135861015D01*
X246783100Y-135954147D01*
X246628228Y-136018297D01*
X246463816Y-136051000D01*
X246296184Y-136051000D01*
X246131772Y-136018297D01*
X245976900Y-135954147D01*
X245837519Y-135861015D01*
X245718985Y-135742481D01*
X245625853Y-135603100D01*
X245561703Y-135448228D01*
X245529000Y-135283816D01*
X245529000Y-135116184D01*
X245561703Y-134951772D01*
X245625853Y-134796900D01*
X245718985Y-134657519D01*
X245837519Y-134538985D01*
X245976900Y-134445853D01*
X246131772Y-134381703D01*
X246296184Y-134349000D01*
X246463816Y-134349000D01*
X246628228Y-134381703D01*
G37*
G36*
X249468228Y-132996703D02*
G01*
X249623100Y-133060853D01*
X249762481Y-133153985D01*
X249881015Y-133272519D01*
X249974147Y-133411900D01*
X250038297Y-133566772D01*
X250071000Y-133731184D01*
X250071000Y-133898816D01*
X250038297Y-134063228D01*
X249974147Y-134218100D01*
X249881015Y-134357481D01*
X249762481Y-134476015D01*
X249623100Y-134569147D01*
X249468228Y-134633297D01*
X249303816Y-134666000D01*
X249136184Y-134666000D01*
X248971772Y-134633297D01*
X248816900Y-134569147D01*
X248677519Y-134476015D01*
X248558985Y-134357481D01*
X248465853Y-134218100D01*
X248401703Y-134063228D01*
X248369000Y-133898816D01*
X248369000Y-133731184D01*
X248401703Y-133566772D01*
X248465853Y-133411900D01*
X248558985Y-133272519D01*
X248677519Y-133153985D01*
X248816900Y-133060853D01*
X248971772Y-132996703D01*
X249136184Y-132964000D01*
X249303816Y-132964000D01*
X249468228Y-132996703D01*
G37*
G36*
X246628228Y-131611703D02*
G01*
X246783100Y-131675853D01*
X246922481Y-131768985D01*
X247041015Y-131887519D01*
X247134147Y-132026900D01*
X247198297Y-132181772D01*
X247231000Y-132346184D01*
X247231000Y-132513816D01*
X247198297Y-132678228D01*
X247134147Y-132833100D01*
X247041015Y-132972481D01*
X246922481Y-133091015D01*
X246783100Y-133184147D01*
X246628228Y-133248297D01*
X246463816Y-133281000D01*
X246296184Y-133281000D01*
X246131772Y-133248297D01*
X245976900Y-133184147D01*
X245837519Y-133091015D01*
X245718985Y-132972481D01*
X245625853Y-132833100D01*
X245561703Y-132678228D01*
X245529000Y-132513816D01*
X245529000Y-132346184D01*
X245561703Y-132181772D01*
X245625853Y-132026900D01*
X245718985Y-131887519D01*
X245837519Y-131768985D01*
X245976900Y-131675853D01*
X246131772Y-131611703D01*
X246296184Y-131579000D01*
X246463816Y-131579000D01*
X246628228Y-131611703D01*
G37*
G36*
X249468228Y-130226703D02*
G01*
X249623100Y-130290853D01*
X249762481Y-130383985D01*
X249881015Y-130502519D01*
X249974147Y-130641900D01*
X250038297Y-130796772D01*
X250071000Y-130961184D01*
X250071000Y-131128816D01*
X250038297Y-131293228D01*
X249974147Y-131448100D01*
X249881015Y-131587481D01*
X249762481Y-131706015D01*
X249623100Y-131799147D01*
X249468228Y-131863297D01*
X249303816Y-131896000D01*
X249136184Y-131896000D01*
X248971772Y-131863297D01*
X248816900Y-131799147D01*
X248677519Y-131706015D01*
X248558985Y-131587481D01*
X248465853Y-131448100D01*
X248401703Y-131293228D01*
X248369000Y-131128816D01*
X248369000Y-130961184D01*
X248401703Y-130796772D01*
X248465853Y-130641900D01*
X248558985Y-130502519D01*
X248677519Y-130383985D01*
X248816900Y-130290853D01*
X248971772Y-130226703D01*
X249136184Y-130194000D01*
X249303816Y-130194000D01*
X249468228Y-130226703D01*
G37*
G36*
X246628228Y-128841703D02*
G01*
X246783100Y-128905853D01*
X246922481Y-128998985D01*
X247041015Y-129117519D01*
X247134147Y-129256900D01*
X247198297Y-129411772D01*
X247231000Y-129576184D01*
X247231000Y-129743816D01*
X247198297Y-129908228D01*
X247134147Y-130063100D01*
X247041015Y-130202481D01*
X246922481Y-130321015D01*
X246783100Y-130414147D01*
X246628228Y-130478297D01*
X246463816Y-130511000D01*
X246296184Y-130511000D01*
X246131772Y-130478297D01*
X245976900Y-130414147D01*
X245837519Y-130321015D01*
X245718985Y-130202481D01*
X245625853Y-130063100D01*
X245561703Y-129908228D01*
X245529000Y-129743816D01*
X245529000Y-129576184D01*
X245561703Y-129411772D01*
X245625853Y-129256900D01*
X245718985Y-129117519D01*
X245837519Y-128998985D01*
X245976900Y-128905853D01*
X246131772Y-128841703D01*
X246296184Y-128809000D01*
X246463816Y-128809000D01*
X246628228Y-128841703D01*
G37*
G36*
X249468228Y-127456703D02*
G01*
X249623100Y-127520853D01*
X249762481Y-127613985D01*
X249881015Y-127732519D01*
X249974147Y-127871900D01*
X250038297Y-128026772D01*
X250071000Y-128191184D01*
X250071000Y-128358816D01*
X250038297Y-128523228D01*
X249974147Y-128678100D01*
X249881015Y-128817481D01*
X249762481Y-128936015D01*
X249623100Y-129029147D01*
X249468228Y-129093297D01*
X249303816Y-129126000D01*
X249136184Y-129126000D01*
X248971772Y-129093297D01*
X248816900Y-129029147D01*
X248677519Y-128936015D01*
X248558985Y-128817481D01*
X248465853Y-128678100D01*
X248401703Y-128523228D01*
X248369000Y-128358816D01*
X248369000Y-128191184D01*
X248401703Y-128026772D01*
X248465853Y-127871900D01*
X248558985Y-127732519D01*
X248677519Y-127613985D01*
X248816900Y-127520853D01*
X248971772Y-127456703D01*
X249136184Y-127424000D01*
X249303816Y-127424000D01*
X249468228Y-127456703D01*
G37*
G36*
X246628228Y-126071703D02*
G01*
X246783100Y-126135853D01*
X246922481Y-126228985D01*
X247041015Y-126347519D01*
X247134147Y-126486900D01*
X247198297Y-126641772D01*
X247231000Y-126806184D01*
X247231000Y-126973816D01*
X247198297Y-127138228D01*
X247134147Y-127293100D01*
X247041015Y-127432481D01*
X246922481Y-127551015D01*
X246783100Y-127644147D01*
X246628228Y-127708297D01*
X246463816Y-127741000D01*
X246296184Y-127741000D01*
X246131772Y-127708297D01*
X245976900Y-127644147D01*
X245837519Y-127551015D01*
X245718985Y-127432481D01*
X245625853Y-127293100D01*
X245561703Y-127138228D01*
X245529000Y-126973816D01*
X245529000Y-126806184D01*
X245561703Y-126641772D01*
X245625853Y-126486900D01*
X245718985Y-126347519D01*
X245837519Y-126228985D01*
X245976900Y-126135853D01*
X246131772Y-126071703D01*
X246296184Y-126039000D01*
X246463816Y-126039000D01*
X246628228Y-126071703D01*
G37*
G36*
X249468228Y-124686703D02*
G01*
X249623100Y-124750853D01*
X249762481Y-124843985D01*
X249881015Y-124962519D01*
X249974147Y-125101900D01*
X250038297Y-125256772D01*
X250071000Y-125421184D01*
X250071000Y-125588816D01*
X250038297Y-125753228D01*
X249974147Y-125908100D01*
X249881015Y-126047481D01*
X249762481Y-126166015D01*
X249623100Y-126259147D01*
X249468228Y-126323297D01*
X249303816Y-126356000D01*
X249136184Y-126356000D01*
X248971772Y-126323297D01*
X248816900Y-126259147D01*
X248677519Y-126166015D01*
X248558985Y-126047481D01*
X248465853Y-125908100D01*
X248401703Y-125753228D01*
X248369000Y-125588816D01*
X248369000Y-125421184D01*
X248401703Y-125256772D01*
X248465853Y-125101900D01*
X248558985Y-124962519D01*
X248677519Y-124843985D01*
X248816900Y-124750853D01*
X248971772Y-124686703D01*
X249136184Y-124654000D01*
X249303816Y-124654000D01*
X249468228Y-124686703D01*
G37*
G36*
X246628228Y-123301703D02*
G01*
X246783100Y-123365853D01*
X246922481Y-123458985D01*
X247041015Y-123577519D01*
X247134147Y-123716900D01*
X247198297Y-123871772D01*
X247231000Y-124036184D01*
X247231000Y-124203816D01*
X247198297Y-124368228D01*
X247134147Y-124523100D01*
X247041015Y-124662481D01*
X246922481Y-124781015D01*
X246783100Y-124874147D01*
X246628228Y-124938297D01*
X246463816Y-124971000D01*
X246296184Y-124971000D01*
X246131772Y-124938297D01*
X245976900Y-124874147D01*
X245837519Y-124781015D01*
X245718985Y-124662481D01*
X245625853Y-124523100D01*
X245561703Y-124368228D01*
X245529000Y-124203816D01*
X245529000Y-124036184D01*
X245561703Y-123871772D01*
X245625853Y-123716900D01*
X245718985Y-123577519D01*
X245837519Y-123458985D01*
X245976900Y-123365853D01*
X246131772Y-123301703D01*
X246296184Y-123269000D01*
X246463816Y-123269000D01*
X246628228Y-123301703D01*
G37*
G36*
X249468228Y-121916703D02*
G01*
X249623100Y-121980853D01*
X249762481Y-122073985D01*
X249881015Y-122192519D01*
X249974147Y-122331900D01*
X250038297Y-122486772D01*
X250071000Y-122651184D01*
X250071000Y-122818816D01*
X250038297Y-122983228D01*
X249974147Y-123138100D01*
X249881015Y-123277481D01*
X249762481Y-123396015D01*
X249623100Y-123489147D01*
X249468228Y-123553297D01*
X249303816Y-123586000D01*
X249136184Y-123586000D01*
X248971772Y-123553297D01*
X248816900Y-123489147D01*
X248677519Y-123396015D01*
X248558985Y-123277481D01*
X248465853Y-123138100D01*
X248401703Y-122983228D01*
X248369000Y-122818816D01*
X248369000Y-122651184D01*
X248401703Y-122486772D01*
X248465853Y-122331900D01*
X248558985Y-122192519D01*
X248677519Y-122073985D01*
X248816900Y-121980853D01*
X248971772Y-121916703D01*
X249136184Y-121884000D01*
X249303816Y-121884000D01*
X249468228Y-121916703D01*
G37*
G36*
X246628228Y-120531703D02*
G01*
X246783100Y-120595853D01*
X246922481Y-120688985D01*
X247041015Y-120807519D01*
X247134147Y-120946900D01*
X247198297Y-121101772D01*
X247231000Y-121266184D01*
X247231000Y-121433816D01*
X247198297Y-121598228D01*
X247134147Y-121753100D01*
X247041015Y-121892481D01*
X246922481Y-122011015D01*
X246783100Y-122104147D01*
X246628228Y-122168297D01*
X246463816Y-122201000D01*
X246296184Y-122201000D01*
X246131772Y-122168297D01*
X245976900Y-122104147D01*
X245837519Y-122011015D01*
X245718985Y-121892481D01*
X245625853Y-121753100D01*
X245561703Y-121598228D01*
X245529000Y-121433816D01*
X245529000Y-121266184D01*
X245561703Y-121101772D01*
X245625853Y-120946900D01*
X245718985Y-120807519D01*
X245837519Y-120688985D01*
X245976900Y-120595853D01*
X246131772Y-120531703D01*
X246296184Y-120499000D01*
X246463816Y-120499000D01*
X246628228Y-120531703D01*
G37*
G36*
X249468228Y-119146703D02*
G01*
X249623100Y-119210853D01*
X249762481Y-119303985D01*
X249881015Y-119422519D01*
X249974147Y-119561900D01*
X250038297Y-119716772D01*
X250071000Y-119881184D01*
X250071000Y-120048816D01*
X250038297Y-120213228D01*
X249974147Y-120368100D01*
X249881015Y-120507481D01*
X249762481Y-120626015D01*
X249623100Y-120719147D01*
X249468228Y-120783297D01*
X249303816Y-120816000D01*
X249136184Y-120816000D01*
X248971772Y-120783297D01*
X248816900Y-120719147D01*
X248677519Y-120626015D01*
X248558985Y-120507481D01*
X248465853Y-120368100D01*
X248401703Y-120213228D01*
X248369000Y-120048816D01*
X248369000Y-119881184D01*
X248401703Y-119716772D01*
X248465853Y-119561900D01*
X248558985Y-119422519D01*
X248677519Y-119303985D01*
X248816900Y-119210853D01*
X248971772Y-119146703D01*
X249136184Y-119114000D01*
X249303816Y-119114000D01*
X249468228Y-119146703D01*
G37*
G36*
X246628228Y-117761703D02*
G01*
X246783100Y-117825853D01*
X246922481Y-117918985D01*
X247041015Y-118037519D01*
X247134147Y-118176900D01*
X247198297Y-118331772D01*
X247231000Y-118496184D01*
X247231000Y-118663816D01*
X247198297Y-118828228D01*
X247134147Y-118983100D01*
X247041015Y-119122481D01*
X246922481Y-119241015D01*
X246783100Y-119334147D01*
X246628228Y-119398297D01*
X246463816Y-119431000D01*
X246296184Y-119431000D01*
X246131772Y-119398297D01*
X245976900Y-119334147D01*
X245837519Y-119241015D01*
X245718985Y-119122481D01*
X245625853Y-118983100D01*
X245561703Y-118828228D01*
X245529000Y-118663816D01*
X245529000Y-118496184D01*
X245561703Y-118331772D01*
X245625853Y-118176900D01*
X245718985Y-118037519D01*
X245837519Y-117918985D01*
X245976900Y-117825853D01*
X246131772Y-117761703D01*
X246296184Y-117729000D01*
X246463816Y-117729000D01*
X246628228Y-117761703D01*
G37*
G36*
X249468228Y-116376703D02*
G01*
X249623100Y-116440853D01*
X249762481Y-116533985D01*
X249881015Y-116652519D01*
X249974147Y-116791900D01*
X250038297Y-116946772D01*
X250071000Y-117111184D01*
X250071000Y-117278816D01*
X250038297Y-117443228D01*
X249974147Y-117598100D01*
X249881015Y-117737481D01*
X249762481Y-117856015D01*
X249623100Y-117949147D01*
X249468228Y-118013297D01*
X249303816Y-118046000D01*
X249136184Y-118046000D01*
X248971772Y-118013297D01*
X248816900Y-117949147D01*
X248677519Y-117856015D01*
X248558985Y-117737481D01*
X248465853Y-117598100D01*
X248401703Y-117443228D01*
X248369000Y-117278816D01*
X248369000Y-117111184D01*
X248401703Y-116946772D01*
X248465853Y-116791900D01*
X248558985Y-116652519D01*
X248677519Y-116533985D01*
X248816900Y-116440853D01*
X248971772Y-116376703D01*
X249136184Y-116344000D01*
X249303816Y-116344000D01*
X249468228Y-116376703D01*
G37*
G36*
X246628228Y-114991703D02*
G01*
X246783100Y-115055853D01*
X246922481Y-115148985D01*
X247041015Y-115267519D01*
X247134147Y-115406900D01*
X247198297Y-115561772D01*
X247231000Y-115726184D01*
X247231000Y-115893816D01*
X247198297Y-116058228D01*
X247134147Y-116213100D01*
X247041015Y-116352481D01*
X246922481Y-116471015D01*
X246783100Y-116564147D01*
X246628228Y-116628297D01*
X246463816Y-116661000D01*
X246296184Y-116661000D01*
X246131772Y-116628297D01*
X245976900Y-116564147D01*
X245837519Y-116471015D01*
X245718985Y-116352481D01*
X245625853Y-116213100D01*
X245561703Y-116058228D01*
X245529000Y-115893816D01*
X245529000Y-115726184D01*
X245561703Y-115561772D01*
X245625853Y-115406900D01*
X245718985Y-115267519D01*
X245837519Y-115148985D01*
X245976900Y-115055853D01*
X246131772Y-114991703D01*
X246296184Y-114959000D01*
X246463816Y-114959000D01*
X246628228Y-114991703D01*
G37*
G36*
X249468228Y-113606703D02*
G01*
X249623100Y-113670853D01*
X249762481Y-113763985D01*
X249881015Y-113882519D01*
X249974147Y-114021900D01*
X250038297Y-114176772D01*
X250071000Y-114341184D01*
X250071000Y-114508816D01*
X250038297Y-114673228D01*
X249974147Y-114828100D01*
X249881015Y-114967481D01*
X249762481Y-115086015D01*
X249623100Y-115179147D01*
X249468228Y-115243297D01*
X249303816Y-115276000D01*
X249136184Y-115276000D01*
X248971772Y-115243297D01*
X248816900Y-115179147D01*
X248677519Y-115086015D01*
X248558985Y-114967481D01*
X248465853Y-114828100D01*
X248401703Y-114673228D01*
X248369000Y-114508816D01*
X248369000Y-114341184D01*
X248401703Y-114176772D01*
X248465853Y-114021900D01*
X248558985Y-113882519D01*
X248677519Y-113763985D01*
X248816900Y-113670853D01*
X248971772Y-113606703D01*
X249136184Y-113574000D01*
X249303816Y-113574000D01*
X249468228Y-113606703D01*
G37*
G36*
X246628228Y-112221703D02*
G01*
X246783100Y-112285853D01*
X246922481Y-112378985D01*
X247041015Y-112497519D01*
X247134147Y-112636900D01*
X247198297Y-112791772D01*
X247231000Y-112956184D01*
X247231000Y-113123816D01*
X247198297Y-113288228D01*
X247134147Y-113443100D01*
X247041015Y-113582481D01*
X246922481Y-113701015D01*
X246783100Y-113794147D01*
X246628228Y-113858297D01*
X246463816Y-113891000D01*
X246296184Y-113891000D01*
X246131772Y-113858297D01*
X245976900Y-113794147D01*
X245837519Y-113701015D01*
X245718985Y-113582481D01*
X245625853Y-113443100D01*
X245561703Y-113288228D01*
X245529000Y-113123816D01*
X245529000Y-112956184D01*
X245561703Y-112791772D01*
X245625853Y-112636900D01*
X245718985Y-112497519D01*
X245837519Y-112378985D01*
X245976900Y-112285853D01*
X246131772Y-112221703D01*
X246296184Y-112189000D01*
X246463816Y-112189000D01*
X246628228Y-112221703D01*
G37*
G36*
X249468228Y-110836703D02*
G01*
X249623100Y-110900853D01*
X249762481Y-110993985D01*
X249881015Y-111112519D01*
X249974147Y-111251900D01*
X250038297Y-111406772D01*
X250071000Y-111571184D01*
X250071000Y-111738816D01*
X250038297Y-111903228D01*
X249974147Y-112058100D01*
X249881015Y-112197481D01*
X249762481Y-112316015D01*
X249623100Y-112409147D01*
X249468228Y-112473297D01*
X249303816Y-112506000D01*
X249136184Y-112506000D01*
X248971772Y-112473297D01*
X248816900Y-112409147D01*
X248677519Y-112316015D01*
X248558985Y-112197481D01*
X248465853Y-112058100D01*
X248401703Y-111903228D01*
X248369000Y-111738816D01*
X248369000Y-111571184D01*
X248401703Y-111406772D01*
X248465853Y-111251900D01*
X248558985Y-111112519D01*
X248677519Y-110993985D01*
X248816900Y-110900853D01*
X248971772Y-110836703D01*
X249136184Y-110804000D01*
X249303816Y-110804000D01*
X249468228Y-110836703D01*
G37*
G36*
X246628228Y-109451703D02*
G01*
X246783100Y-109515853D01*
X246922481Y-109608985D01*
X247041015Y-109727519D01*
X247134147Y-109866900D01*
X247198297Y-110021772D01*
X247231000Y-110186184D01*
X247231000Y-110353816D01*
X247198297Y-110518228D01*
X247134147Y-110673100D01*
X247041015Y-110812481D01*
X246922481Y-110931015D01*
X246783100Y-111024147D01*
X246628228Y-111088297D01*
X246463816Y-111121000D01*
X246296184Y-111121000D01*
X246131772Y-111088297D01*
X245976900Y-111024147D01*
X245837519Y-110931015D01*
X245718985Y-110812481D01*
X245625853Y-110673100D01*
X245561703Y-110518228D01*
X245529000Y-110353816D01*
X245529000Y-110186184D01*
X245561703Y-110021772D01*
X245625853Y-109866900D01*
X245718985Y-109727519D01*
X245837519Y-109608985D01*
X245976900Y-109515853D01*
X246131772Y-109451703D01*
X246296184Y-109419000D01*
X246463816Y-109419000D01*
X246628228Y-109451703D01*
G37*
G36*
X248398254Y-101367818D02*
G01*
X248771511Y-101522426D01*
X248771513Y-101522427D01*
X248926543Y-101626015D01*
X249107436Y-101746884D01*
X249393116Y-102032564D01*
X249617574Y-102368489D01*
X249772182Y-102741746D01*
X249851000Y-103137993D01*
X249851000Y-103542007D01*
X249772182Y-103938254D01*
X249617574Y-104311511D01*
X249617573Y-104311513D01*
X249393116Y-104647436D01*
X249107436Y-104933116D01*
X248771513Y-105157573D01*
X248771512Y-105157574D01*
X248771511Y-105157574D01*
X248398254Y-105312182D01*
X248002007Y-105391000D01*
X247597993Y-105391000D01*
X247201746Y-105312182D01*
X246828489Y-105157574D01*
X246828488Y-105157574D01*
X246828487Y-105157573D01*
X246492564Y-104933116D01*
X246206884Y-104647436D01*
X245982427Y-104311513D01*
X245982426Y-104311511D01*
X245827818Y-103938254D01*
X245749000Y-103542007D01*
X245749000Y-103137993D01*
X245827818Y-102741746D01*
X245982426Y-102368489D01*
X246206884Y-102032564D01*
X246492564Y-101746884D01*
X246673457Y-101626015D01*
X246828487Y-101522427D01*
X246828489Y-101522426D01*
X247201746Y-101367818D01*
X247597993Y-101289000D01*
X248002007Y-101289000D01*
X248398254Y-101367818D01*
G37*
G36*
X63708228Y-100146703D02*
G01*
X63863100Y-100210853D01*
X64002481Y-100303985D01*
X64121015Y-100422519D01*
X64214147Y-100561900D01*
X64278297Y-100716772D01*
X64311000Y-100881184D01*
X64311000Y-101048816D01*
X64278297Y-101213228D01*
X64214147Y-101368100D01*
X64121015Y-101507481D01*
X64002481Y-101626015D01*
X63863100Y-101719147D01*
X63708228Y-101783297D01*
X63543816Y-101816000D01*
X63376184Y-101816000D01*
X63211772Y-101783297D01*
X63056900Y-101719147D01*
X62917519Y-101626015D01*
X62798985Y-101507481D01*
X62705853Y-101368100D01*
X62641703Y-101213228D01*
X62609000Y-101048816D01*
X62609000Y-100881184D01*
X62641703Y-100716772D01*
X62705853Y-100561900D01*
X62798985Y-100422519D01*
X62917519Y-100303985D01*
X63056900Y-100210853D01*
X63211772Y-100146703D01*
X63376184Y-100114000D01*
X63543816Y-100114000D01*
X63708228Y-100146703D01*
G37*
G36*
X61811000Y-101816000D02*
G01*
X60109000Y-101816000D01*
X60109000Y-100114000D01*
X61811000Y-100114000D01*
X61811000Y-101816000D01*
G37*
G36*
X248398254Y-91207818D02*
G01*
X248771511Y-91362426D01*
X248771513Y-91362427D01*
X249107436Y-91586884D01*
X249393116Y-91872564D01*
X249617574Y-92208489D01*
X249772182Y-92581746D01*
X249851000Y-92977993D01*
X249851000Y-93382007D01*
X249772182Y-93778254D01*
X249617574Y-94151511D01*
X249617573Y-94151513D01*
X249393116Y-94487436D01*
X249107436Y-94773116D01*
X248771513Y-94997573D01*
X248771512Y-94997574D01*
X248771511Y-94997574D01*
X248398254Y-95152182D01*
X248002007Y-95231000D01*
X247597993Y-95231000D01*
X247201746Y-95152182D01*
X246828489Y-94997574D01*
X246828488Y-94997574D01*
X246828487Y-94997573D01*
X246492564Y-94773116D01*
X246206884Y-94487436D01*
X245982427Y-94151513D01*
X245982426Y-94151511D01*
X245827818Y-93778254D01*
X245749000Y-93382007D01*
X245749000Y-92977993D01*
X245827818Y-92581746D01*
X245982426Y-92208489D01*
X246206884Y-91872564D01*
X246492564Y-91586884D01*
X246828487Y-91362427D01*
X246828489Y-91362426D01*
X247201746Y-91207818D01*
X247597993Y-91129000D01*
X248002007Y-91129000D01*
X248398254Y-91207818D01*
G37*
G36*
X63708228Y-88716703D02*
G01*
X63863100Y-88780853D01*
X64002481Y-88873985D01*
X64121015Y-88992519D01*
X64214147Y-89131900D01*
X64278297Y-89286772D01*
X64311000Y-89451184D01*
X64311000Y-89618816D01*
X64278297Y-89783228D01*
X64214147Y-89938100D01*
X64121015Y-90077481D01*
X64002481Y-90196015D01*
X63863100Y-90289147D01*
X63708228Y-90353297D01*
X63543816Y-90386000D01*
X63376184Y-90386000D01*
X63211772Y-90353297D01*
X63056900Y-90289147D01*
X62917519Y-90196015D01*
X62798985Y-90077481D01*
X62705853Y-89938100D01*
X62641703Y-89783228D01*
X62609000Y-89618816D01*
X62609000Y-89451184D01*
X62641703Y-89286772D01*
X62705853Y-89131900D01*
X62798985Y-88992519D01*
X62917519Y-88873985D01*
X63056900Y-88780853D01*
X63211772Y-88716703D01*
X63376184Y-88684000D01*
X63543816Y-88684000D01*
X63708228Y-88716703D01*
G37*
G36*
X61811000Y-90386000D02*
G01*
X60109000Y-90386000D01*
X60109000Y-88684000D01*
X61811000Y-88684000D01*
X61811000Y-90386000D01*
G37*
G36*
X238968228Y-88081703D02*
G01*
X239123100Y-88145853D01*
X239262481Y-88238985D01*
X239381015Y-88357519D01*
X239474147Y-88496900D01*
X239538297Y-88651772D01*
X239571000Y-88816184D01*
X239571000Y-88983816D01*
X239538297Y-89148228D01*
X239474147Y-89303100D01*
X239381015Y-89442481D01*
X239262481Y-89561015D01*
X239123100Y-89654147D01*
X238968228Y-89718297D01*
X238803816Y-89751000D01*
X238636184Y-89751000D01*
X238471772Y-89718297D01*
X238316900Y-89654147D01*
X238177519Y-89561015D01*
X238058985Y-89442481D01*
X237965853Y-89303100D01*
X237901703Y-89148228D01*
X237869000Y-88983816D01*
X237869000Y-88816184D01*
X237901703Y-88651772D01*
X237965853Y-88496900D01*
X238058985Y-88357519D01*
X238177519Y-88238985D01*
X238316900Y-88145853D01*
X238471772Y-88081703D01*
X238636184Y-88049000D01*
X238803816Y-88049000D01*
X238968228Y-88081703D01*
G37*
G36*
X237071000Y-89751000D02*
G01*
X235369000Y-89751000D01*
X235369000Y-88049000D01*
X237071000Y-88049000D01*
X237071000Y-89751000D01*
G37*
G36*
X247231000Y-87211000D02*
G01*
X245529000Y-87211000D01*
X245529000Y-85509000D01*
X247231000Y-85509000D01*
X247231000Y-87211000D01*
G37*
G36*
X249468228Y-84156703D02*
G01*
X249623100Y-84220853D01*
X249762481Y-84313985D01*
X249881015Y-84432519D01*
X249974147Y-84571900D01*
X250038297Y-84726772D01*
X250071000Y-84891184D01*
X250071000Y-85058816D01*
X250038297Y-85223228D01*
X249974147Y-85378100D01*
X249881015Y-85517481D01*
X249762481Y-85636015D01*
X249623100Y-85729147D01*
X249468228Y-85793297D01*
X249303816Y-85826000D01*
X249136184Y-85826000D01*
X248971772Y-85793297D01*
X248816900Y-85729147D01*
X248677519Y-85636015D01*
X248558985Y-85517481D01*
X248465853Y-85378100D01*
X248401703Y-85223228D01*
X248369000Y-85058816D01*
X248369000Y-84891184D01*
X248401703Y-84726772D01*
X248465853Y-84571900D01*
X248558985Y-84432519D01*
X248677519Y-84313985D01*
X248816900Y-84220853D01*
X248971772Y-84156703D01*
X249136184Y-84124000D01*
X249303816Y-84124000D01*
X249468228Y-84156703D01*
G37*
G36*
X246628228Y-82771703D02*
G01*
X246783100Y-82835853D01*
X246922481Y-82928985D01*
X247041015Y-83047519D01*
X247134147Y-83186900D01*
X247198297Y-83341772D01*
X247231000Y-83506184D01*
X247231000Y-83673816D01*
X247198297Y-83838228D01*
X247134147Y-83993100D01*
X247041015Y-84132481D01*
X246922481Y-84251015D01*
X246783100Y-84344147D01*
X246628228Y-84408297D01*
X246463816Y-84441000D01*
X246296184Y-84441000D01*
X246131772Y-84408297D01*
X245976900Y-84344147D01*
X245837519Y-84251015D01*
X245718985Y-84132481D01*
X245625853Y-83993100D01*
X245561703Y-83838228D01*
X245529000Y-83673816D01*
X245529000Y-83506184D01*
X245561703Y-83341772D01*
X245625853Y-83186900D01*
X245718985Y-83047519D01*
X245837519Y-82928985D01*
X245976900Y-82835853D01*
X246131772Y-82771703D01*
X246296184Y-82739000D01*
X246463816Y-82739000D01*
X246628228Y-82771703D01*
G37*
G36*
X240198228Y-81731703D02*
G01*
X240353100Y-81795853D01*
X240492481Y-81888985D01*
X240611015Y-82007519D01*
X240704147Y-82146900D01*
X240768297Y-82301772D01*
X240801000Y-82466184D01*
X240801000Y-82633816D01*
X240768297Y-82798228D01*
X240704147Y-82953100D01*
X240611015Y-83092481D01*
X240492481Y-83211015D01*
X240353100Y-83304147D01*
X240198228Y-83368297D01*
X240033816Y-83401000D01*
X239866184Y-83401000D01*
X239701772Y-83368297D01*
X239546900Y-83304147D01*
X239407519Y-83211015D01*
X239288985Y-83092481D01*
X239195853Y-82953100D01*
X239131703Y-82798228D01*
X239099000Y-82633816D01*
X239099000Y-82466184D01*
X239131703Y-82301772D01*
X239195853Y-82146900D01*
X239288985Y-82007519D01*
X239407519Y-81888985D01*
X239546900Y-81795853D01*
X239701772Y-81731703D01*
X239866184Y-81699000D01*
X240033816Y-81699000D01*
X240198228Y-81731703D01*
G37*
G36*
X235198228Y-81731703D02*
G01*
X235353100Y-81795853D01*
X235492481Y-81888985D01*
X235611015Y-82007519D01*
X235704147Y-82146900D01*
X235768297Y-82301772D01*
X235801000Y-82466184D01*
X235801000Y-82633816D01*
X235768297Y-82798228D01*
X235704147Y-82953100D01*
X235611015Y-83092481D01*
X235492481Y-83211015D01*
X235353100Y-83304147D01*
X235198228Y-83368297D01*
X235033816Y-83401000D01*
X234866184Y-83401000D01*
X234701772Y-83368297D01*
X234546900Y-83304147D01*
X234407519Y-83211015D01*
X234288985Y-83092481D01*
X234195853Y-82953100D01*
X234131703Y-82798228D01*
X234099000Y-82633816D01*
X234099000Y-82466184D01*
X234131703Y-82301772D01*
X234195853Y-82146900D01*
X234288985Y-82007519D01*
X234407519Y-81888985D01*
X234546900Y-81795853D01*
X234701772Y-81731703D01*
X234866184Y-81699000D01*
X235033816Y-81699000D01*
X235198228Y-81731703D01*
G37*
G36*
X249468228Y-81386703D02*
G01*
X249623100Y-81450853D01*
X249762481Y-81543985D01*
X249881015Y-81662519D01*
X249974147Y-81801900D01*
X250038297Y-81956772D01*
X250071000Y-82121184D01*
X250071000Y-82288816D01*
X250038297Y-82453228D01*
X249974147Y-82608100D01*
X249881015Y-82747481D01*
X249762481Y-82866015D01*
X249623100Y-82959147D01*
X249468228Y-83023297D01*
X249303816Y-83056000D01*
X249136184Y-83056000D01*
X248971772Y-83023297D01*
X248816900Y-82959147D01*
X248677519Y-82866015D01*
X248558985Y-82747481D01*
X248465853Y-82608100D01*
X248401703Y-82453228D01*
X248369000Y-82288816D01*
X248369000Y-82121184D01*
X248401703Y-81956772D01*
X248465853Y-81801900D01*
X248558985Y-81662519D01*
X248677519Y-81543985D01*
X248816900Y-81450853D01*
X248971772Y-81386703D01*
X249136184Y-81354000D01*
X249303816Y-81354000D01*
X249468228Y-81386703D01*
G37*
G36*
X64938228Y-81096703D02*
G01*
X65093100Y-81160853D01*
X65232481Y-81253985D01*
X65351015Y-81372519D01*
X65444147Y-81511900D01*
X65508297Y-81666772D01*
X65541000Y-81831184D01*
X65541000Y-81998816D01*
X65508297Y-82163228D01*
X65444147Y-82318100D01*
X65351015Y-82457481D01*
X65232481Y-82576015D01*
X65093100Y-82669147D01*
X64938228Y-82733297D01*
X64773816Y-82766000D01*
X64606184Y-82766000D01*
X64441772Y-82733297D01*
X64286900Y-82669147D01*
X64147519Y-82576015D01*
X64028985Y-82457481D01*
X63935853Y-82318100D01*
X63871703Y-82163228D01*
X63839000Y-81998816D01*
X63839000Y-81831184D01*
X63871703Y-81666772D01*
X63935853Y-81511900D01*
X64028985Y-81372519D01*
X64147519Y-81253985D01*
X64286900Y-81160853D01*
X64441772Y-81096703D01*
X64606184Y-81064000D01*
X64773816Y-81064000D01*
X64938228Y-81096703D01*
G37*
G36*
X59938228Y-81096703D02*
G01*
X60093100Y-81160853D01*
X60232481Y-81253985D01*
X60351015Y-81372519D01*
X60444147Y-81511900D01*
X60508297Y-81666772D01*
X60541000Y-81831184D01*
X60541000Y-81998816D01*
X60508297Y-82163228D01*
X60444147Y-82318100D01*
X60351015Y-82457481D01*
X60232481Y-82576015D01*
X60093100Y-82669147D01*
X59938228Y-82733297D01*
X59773816Y-82766000D01*
X59606184Y-82766000D01*
X59441772Y-82733297D01*
X59286900Y-82669147D01*
X59147519Y-82576015D01*
X59028985Y-82457481D01*
X58935853Y-82318100D01*
X58871703Y-82163228D01*
X58839000Y-81998816D01*
X58839000Y-81831184D01*
X58871703Y-81666772D01*
X58935853Y-81511900D01*
X59028985Y-81372519D01*
X59147519Y-81253985D01*
X59286900Y-81160853D01*
X59441772Y-81096703D01*
X59606184Y-81064000D01*
X59773816Y-81064000D01*
X59938228Y-81096703D01*
G37*
G36*
X246628228Y-80001703D02*
G01*
X246783100Y-80065853D01*
X246922481Y-80158985D01*
X247041015Y-80277519D01*
X247134147Y-80416900D01*
X247198297Y-80571772D01*
X247231000Y-80736184D01*
X247231000Y-80903816D01*
X247198297Y-81068228D01*
X247134147Y-81223100D01*
X247041015Y-81362481D01*
X246922481Y-81481015D01*
X246783100Y-81574147D01*
X246628228Y-81638297D01*
X246463816Y-81671000D01*
X246296184Y-81671000D01*
X246131772Y-81638297D01*
X245976900Y-81574147D01*
X245837519Y-81481015D01*
X245718985Y-81362481D01*
X245625853Y-81223100D01*
X245561703Y-81068228D01*
X245529000Y-80903816D01*
X245529000Y-80736184D01*
X245561703Y-80571772D01*
X245625853Y-80416900D01*
X245718985Y-80277519D01*
X245837519Y-80158985D01*
X245976900Y-80065853D01*
X246131772Y-80001703D01*
X246296184Y-79969000D01*
X246463816Y-79969000D01*
X246628228Y-80001703D01*
G37*
G36*
X249468228Y-78616703D02*
G01*
X249623100Y-78680853D01*
X249762481Y-78773985D01*
X249881015Y-78892519D01*
X249974147Y-79031900D01*
X250038297Y-79186772D01*
X250071000Y-79351184D01*
X250071000Y-79518816D01*
X250038297Y-79683228D01*
X249974147Y-79838100D01*
X249881015Y-79977481D01*
X249762481Y-80096015D01*
X249623100Y-80189147D01*
X249468228Y-80253297D01*
X249303816Y-80286000D01*
X249136184Y-80286000D01*
X248971772Y-80253297D01*
X248816900Y-80189147D01*
X248677519Y-80096015D01*
X248558985Y-79977481D01*
X248465853Y-79838100D01*
X248401703Y-79683228D01*
X248369000Y-79518816D01*
X248369000Y-79351184D01*
X248401703Y-79186772D01*
X248465853Y-79031900D01*
X248558985Y-78892519D01*
X248677519Y-78773985D01*
X248816900Y-78680853D01*
X248971772Y-78616703D01*
X249136184Y-78584000D01*
X249303816Y-78584000D01*
X249468228Y-78616703D01*
G37*
G36*
X64938228Y-77286703D02*
G01*
X65093100Y-77350853D01*
X65232481Y-77443985D01*
X65351015Y-77562519D01*
X65444147Y-77701900D01*
X65508297Y-77856772D01*
X65541000Y-78021184D01*
X65541000Y-78188816D01*
X65508297Y-78353228D01*
X65444147Y-78508100D01*
X65351015Y-78647481D01*
X65232481Y-78766015D01*
X65093100Y-78859147D01*
X64938228Y-78923297D01*
X64773816Y-78956000D01*
X64606184Y-78956000D01*
X64441772Y-78923297D01*
X64286900Y-78859147D01*
X64147519Y-78766015D01*
X64028985Y-78647481D01*
X63935853Y-78508100D01*
X63871703Y-78353228D01*
X63839000Y-78188816D01*
X63839000Y-78021184D01*
X63871703Y-77856772D01*
X63935853Y-77701900D01*
X64028985Y-77562519D01*
X64147519Y-77443985D01*
X64286900Y-77350853D01*
X64441772Y-77286703D01*
X64606184Y-77254000D01*
X64773816Y-77254000D01*
X64938228Y-77286703D01*
G37*
G36*
X59938228Y-77286703D02*
G01*
X60093100Y-77350853D01*
X60232481Y-77443985D01*
X60351015Y-77562519D01*
X60444147Y-77701900D01*
X60508297Y-77856772D01*
X60541000Y-78021184D01*
X60541000Y-78188816D01*
X60508297Y-78353228D01*
X60444147Y-78508100D01*
X60351015Y-78647481D01*
X60232481Y-78766015D01*
X60093100Y-78859147D01*
X59938228Y-78923297D01*
X59773816Y-78956000D01*
X59606184Y-78956000D01*
X59441772Y-78923297D01*
X59286900Y-78859147D01*
X59147519Y-78766015D01*
X59028985Y-78647481D01*
X58935853Y-78508100D01*
X58871703Y-78353228D01*
X58839000Y-78188816D01*
X58839000Y-78021184D01*
X58871703Y-77856772D01*
X58935853Y-77701900D01*
X59028985Y-77562519D01*
X59147519Y-77443985D01*
X59286900Y-77350853D01*
X59441772Y-77286703D01*
X59606184Y-77254000D01*
X59773816Y-77254000D01*
X59938228Y-77286703D01*
G37*
G36*
X246628228Y-77231703D02*
G01*
X246783100Y-77295853D01*
X246922481Y-77388985D01*
X247041015Y-77507519D01*
X247134147Y-77646900D01*
X247198297Y-77801772D01*
X247231000Y-77966184D01*
X247231000Y-78133816D01*
X247198297Y-78298228D01*
X247134147Y-78453100D01*
X247041015Y-78592481D01*
X246922481Y-78711015D01*
X246783100Y-78804147D01*
X246628228Y-78868297D01*
X246463816Y-78901000D01*
X246296184Y-78901000D01*
X246131772Y-78868297D01*
X245976900Y-78804147D01*
X245837519Y-78711015D01*
X245718985Y-78592481D01*
X245625853Y-78453100D01*
X245561703Y-78298228D01*
X245529000Y-78133816D01*
X245529000Y-77966184D01*
X245561703Y-77801772D01*
X245625853Y-77646900D01*
X245718985Y-77507519D01*
X245837519Y-77388985D01*
X245976900Y-77295853D01*
X246131772Y-77231703D01*
X246296184Y-77199000D01*
X246463816Y-77199000D01*
X246628228Y-77231703D01*
G37*
G36*
X249468228Y-75846703D02*
G01*
X249623100Y-75910853D01*
X249762481Y-76003985D01*
X249881015Y-76122519D01*
X249974147Y-76261900D01*
X250038297Y-76416772D01*
X250071000Y-76581184D01*
X250071000Y-76748816D01*
X250038297Y-76913228D01*
X249974147Y-77068100D01*
X249881015Y-77207481D01*
X249762481Y-77326015D01*
X249623100Y-77419147D01*
X249468228Y-77483297D01*
X249303816Y-77516000D01*
X249136184Y-77516000D01*
X248971772Y-77483297D01*
X248816900Y-77419147D01*
X248677519Y-77326015D01*
X248558985Y-77207481D01*
X248465853Y-77068100D01*
X248401703Y-76913228D01*
X248369000Y-76748816D01*
X248369000Y-76581184D01*
X248401703Y-76416772D01*
X248465853Y-76261900D01*
X248558985Y-76122519D01*
X248677519Y-76003985D01*
X248816900Y-75910853D01*
X248971772Y-75846703D01*
X249136184Y-75814000D01*
X249303816Y-75814000D01*
X249468228Y-75846703D01*
G37*
G36*
X246628228Y-74461703D02*
G01*
X246783100Y-74525853D01*
X246922481Y-74618985D01*
X247041015Y-74737519D01*
X247134147Y-74876900D01*
X247198297Y-75031772D01*
X247231000Y-75196184D01*
X247231000Y-75363816D01*
X247198297Y-75528228D01*
X247134147Y-75683100D01*
X247041015Y-75822481D01*
X246922481Y-75941015D01*
X246783100Y-76034147D01*
X246628228Y-76098297D01*
X246463816Y-76131000D01*
X246296184Y-76131000D01*
X246131772Y-76098297D01*
X245976900Y-76034147D01*
X245837519Y-75941015D01*
X245718985Y-75822481D01*
X245625853Y-75683100D01*
X245561703Y-75528228D01*
X245529000Y-75363816D01*
X245529000Y-75196184D01*
X245561703Y-75031772D01*
X245625853Y-74876900D01*
X245718985Y-74737519D01*
X245837519Y-74618985D01*
X245976900Y-74525853D01*
X246131772Y-74461703D01*
X246296184Y-74429000D01*
X246463816Y-74429000D01*
X246628228Y-74461703D01*
G37*
G36*
X249468228Y-73076703D02*
G01*
X249623100Y-73140853D01*
X249762481Y-73233985D01*
X249881015Y-73352519D01*
X249974147Y-73491900D01*
X250038297Y-73646772D01*
X250071000Y-73811184D01*
X250071000Y-73978816D01*
X250038297Y-74143228D01*
X249974147Y-74298100D01*
X249881015Y-74437481D01*
X249762481Y-74556015D01*
X249623100Y-74649147D01*
X249468228Y-74713297D01*
X249303816Y-74746000D01*
X249136184Y-74746000D01*
X248971772Y-74713297D01*
X248816900Y-74649147D01*
X248677519Y-74556015D01*
X248558985Y-74437481D01*
X248465853Y-74298100D01*
X248401703Y-74143228D01*
X248369000Y-73978816D01*
X248369000Y-73811184D01*
X248401703Y-73646772D01*
X248465853Y-73491900D01*
X248558985Y-73352519D01*
X248677519Y-73233985D01*
X248816900Y-73140853D01*
X248971772Y-73076703D01*
X249136184Y-73044000D01*
X249303816Y-73044000D01*
X249468228Y-73076703D01*
G37*
G36*
X246628228Y-71691703D02*
G01*
X246783100Y-71755853D01*
X246922481Y-71848985D01*
X247041015Y-71967519D01*
X247134147Y-72106900D01*
X247198297Y-72261772D01*
X247231000Y-72426184D01*
X247231000Y-72593816D01*
X247198297Y-72758228D01*
X247134147Y-72913100D01*
X247041015Y-73052481D01*
X246922481Y-73171015D01*
X246783100Y-73264147D01*
X246628228Y-73328297D01*
X246463816Y-73361000D01*
X246296184Y-73361000D01*
X246131772Y-73328297D01*
X245976900Y-73264147D01*
X245837519Y-73171015D01*
X245718985Y-73052481D01*
X245625853Y-72913100D01*
X245561703Y-72758228D01*
X245529000Y-72593816D01*
X245529000Y-72426184D01*
X245561703Y-72261772D01*
X245625853Y-72106900D01*
X245718985Y-71967519D01*
X245837519Y-71848985D01*
X245976900Y-71755853D01*
X246131772Y-71691703D01*
X246296184Y-71659000D01*
X246463816Y-71659000D01*
X246628228Y-71691703D01*
G37*
G36*
X249468228Y-70306703D02*
G01*
X249623100Y-70370853D01*
X249762481Y-70463985D01*
X249881015Y-70582519D01*
X249974147Y-70721900D01*
X250038297Y-70876772D01*
X250071000Y-71041184D01*
X250071000Y-71208816D01*
X250038297Y-71373228D01*
X249974147Y-71528100D01*
X249881015Y-71667481D01*
X249762481Y-71786015D01*
X249623100Y-71879147D01*
X249468228Y-71943297D01*
X249303816Y-71976000D01*
X249136184Y-71976000D01*
X248971772Y-71943297D01*
X248816900Y-71879147D01*
X248677519Y-71786015D01*
X248558985Y-71667481D01*
X248465853Y-71528100D01*
X248401703Y-71373228D01*
X248369000Y-71208816D01*
X248369000Y-71041184D01*
X248401703Y-70876772D01*
X248465853Y-70721900D01*
X248558985Y-70582519D01*
X248677519Y-70463985D01*
X248816900Y-70370853D01*
X248971772Y-70306703D01*
X249136184Y-70274000D01*
X249303816Y-70274000D01*
X249468228Y-70306703D01*
G37*
G36*
X246628228Y-68921703D02*
G01*
X246783100Y-68985853D01*
X246922481Y-69078985D01*
X247041015Y-69197519D01*
X247134147Y-69336900D01*
X247198297Y-69491772D01*
X247231000Y-69656184D01*
X247231000Y-69823816D01*
X247198297Y-69988228D01*
X247134147Y-70143100D01*
X247041015Y-70282481D01*
X246922481Y-70401015D01*
X246783100Y-70494147D01*
X246628228Y-70558297D01*
X246463816Y-70591000D01*
X246296184Y-70591000D01*
X246131772Y-70558297D01*
X245976900Y-70494147D01*
X245837519Y-70401015D01*
X245718985Y-70282481D01*
X245625853Y-70143100D01*
X245561703Y-69988228D01*
X245529000Y-69823816D01*
X245529000Y-69656184D01*
X245561703Y-69491772D01*
X245625853Y-69336900D01*
X245718985Y-69197519D01*
X245837519Y-69078985D01*
X245976900Y-68985853D01*
X246131772Y-68921703D01*
X246296184Y-68889000D01*
X246463816Y-68889000D01*
X246628228Y-68921703D01*
G37*
G36*
X249468228Y-67536703D02*
G01*
X249623100Y-67600853D01*
X249762481Y-67693985D01*
X249881015Y-67812519D01*
X249974147Y-67951900D01*
X250038297Y-68106772D01*
X250071000Y-68271184D01*
X250071000Y-68438816D01*
X250038297Y-68603228D01*
X249974147Y-68758100D01*
X249881015Y-68897481D01*
X249762481Y-69016015D01*
X249623100Y-69109147D01*
X249468228Y-69173297D01*
X249303816Y-69206000D01*
X249136184Y-69206000D01*
X248971772Y-69173297D01*
X248816900Y-69109147D01*
X248677519Y-69016015D01*
X248558985Y-68897481D01*
X248465853Y-68758100D01*
X248401703Y-68603228D01*
X248369000Y-68438816D01*
X248369000Y-68271184D01*
X248401703Y-68106772D01*
X248465853Y-67951900D01*
X248558985Y-67812519D01*
X248677519Y-67693985D01*
X248816900Y-67600853D01*
X248971772Y-67536703D01*
X249136184Y-67504000D01*
X249303816Y-67504000D01*
X249468228Y-67536703D01*
G37*
G36*
X246628228Y-66151703D02*
G01*
X246783100Y-66215853D01*
X246922481Y-66308985D01*
X247041015Y-66427519D01*
X247134147Y-66566900D01*
X247198297Y-66721772D01*
X247231000Y-66886184D01*
X247231000Y-67053816D01*
X247198297Y-67218228D01*
X247134147Y-67373100D01*
X247041015Y-67512481D01*
X246922481Y-67631015D01*
X246783100Y-67724147D01*
X246628228Y-67788297D01*
X246463816Y-67821000D01*
X246296184Y-67821000D01*
X246131772Y-67788297D01*
X245976900Y-67724147D01*
X245837519Y-67631015D01*
X245718985Y-67512481D01*
X245625853Y-67373100D01*
X245561703Y-67218228D01*
X245529000Y-67053816D01*
X245529000Y-66886184D01*
X245561703Y-66721772D01*
X245625853Y-66566900D01*
X245718985Y-66427519D01*
X245837519Y-66308985D01*
X245976900Y-66215853D01*
X246131772Y-66151703D01*
X246296184Y-66119000D01*
X246463816Y-66119000D01*
X246628228Y-66151703D01*
G37*
G36*
X249468228Y-64766703D02*
G01*
X249623100Y-64830853D01*
X249762481Y-64923985D01*
X249881015Y-65042519D01*
X249974147Y-65181900D01*
X250038297Y-65336772D01*
X250071000Y-65501184D01*
X250071000Y-65668816D01*
X250038297Y-65833228D01*
X249974147Y-65988100D01*
X249881015Y-66127481D01*
X249762481Y-66246015D01*
X249623100Y-66339147D01*
X249468228Y-66403297D01*
X249303816Y-66436000D01*
X249136184Y-66436000D01*
X248971772Y-66403297D01*
X248816900Y-66339147D01*
X248677519Y-66246015D01*
X248558985Y-66127481D01*
X248465853Y-65988100D01*
X248401703Y-65833228D01*
X248369000Y-65668816D01*
X248369000Y-65501184D01*
X248401703Y-65336772D01*
X248465853Y-65181900D01*
X248558985Y-65042519D01*
X248677519Y-64923985D01*
X248816900Y-64830853D01*
X248971772Y-64766703D01*
X249136184Y-64734000D01*
X249303816Y-64734000D01*
X249468228Y-64766703D01*
G37*
G36*
X246628228Y-63381703D02*
G01*
X246783100Y-63445853D01*
X246922481Y-63538985D01*
X247041015Y-63657519D01*
X247134147Y-63796900D01*
X247198297Y-63951772D01*
X247231000Y-64116184D01*
X247231000Y-64283816D01*
X247198297Y-64448228D01*
X247134147Y-64603100D01*
X247041015Y-64742481D01*
X246922481Y-64861015D01*
X246783100Y-64954147D01*
X246628228Y-65018297D01*
X246463816Y-65051000D01*
X246296184Y-65051000D01*
X246131772Y-65018297D01*
X245976900Y-64954147D01*
X245837519Y-64861015D01*
X245718985Y-64742481D01*
X245625853Y-64603100D01*
X245561703Y-64448228D01*
X245529000Y-64283816D01*
X245529000Y-64116184D01*
X245561703Y-63951772D01*
X245625853Y-63796900D01*
X245718985Y-63657519D01*
X245837519Y-63538985D01*
X245976900Y-63445853D01*
X246131772Y-63381703D01*
X246296184Y-63349000D01*
X246463816Y-63349000D01*
X246628228Y-63381703D01*
G37*
G36*
X249468228Y-61996703D02*
G01*
X249623100Y-62060853D01*
X249762481Y-62153985D01*
X249881015Y-62272519D01*
X249974147Y-62411900D01*
X250038297Y-62566772D01*
X250071000Y-62731184D01*
X250071000Y-62898816D01*
X250038297Y-63063228D01*
X249974147Y-63218100D01*
X249881015Y-63357481D01*
X249762481Y-63476015D01*
X249623100Y-63569147D01*
X249468228Y-63633297D01*
X249303816Y-63666000D01*
X249136184Y-63666000D01*
X248971772Y-63633297D01*
X248816900Y-63569147D01*
X248677519Y-63476015D01*
X248558985Y-63357481D01*
X248465853Y-63218100D01*
X248401703Y-63063228D01*
X248369000Y-62898816D01*
X248369000Y-62731184D01*
X248401703Y-62566772D01*
X248465853Y-62411900D01*
X248558985Y-62272519D01*
X248677519Y-62153985D01*
X248816900Y-62060853D01*
X248971772Y-61996703D01*
X249136184Y-61964000D01*
X249303816Y-61964000D01*
X249468228Y-61996703D01*
G37*
G36*
X246628228Y-60611703D02*
G01*
X246783100Y-60675853D01*
X246922481Y-60768985D01*
X247041015Y-60887519D01*
X247134147Y-61026900D01*
X247198297Y-61181772D01*
X247231000Y-61346184D01*
X247231000Y-61513816D01*
X247198297Y-61678228D01*
X247134147Y-61833100D01*
X247041015Y-61972481D01*
X246922481Y-62091015D01*
X246783100Y-62184147D01*
X246628228Y-62248297D01*
X246463816Y-62281000D01*
X246296184Y-62281000D01*
X246131772Y-62248297D01*
X245976900Y-62184147D01*
X245837519Y-62091015D01*
X245718985Y-61972481D01*
X245625853Y-61833100D01*
X245561703Y-61678228D01*
X245529000Y-61513816D01*
X245529000Y-61346184D01*
X245561703Y-61181772D01*
X245625853Y-61026900D01*
X245718985Y-60887519D01*
X245837519Y-60768985D01*
X245976900Y-60675853D01*
X246131772Y-60611703D01*
X246296184Y-60579000D01*
X246463816Y-60579000D01*
X246628228Y-60611703D01*
G37*
G36*
X249468228Y-59226703D02*
G01*
X249623100Y-59290853D01*
X249762481Y-59383985D01*
X249881015Y-59502519D01*
X249974147Y-59641900D01*
X250038297Y-59796772D01*
X250071000Y-59961184D01*
X250071000Y-60128816D01*
X250038297Y-60293228D01*
X249974147Y-60448100D01*
X249881015Y-60587481D01*
X249762481Y-60706015D01*
X249623100Y-60799147D01*
X249468228Y-60863297D01*
X249303816Y-60896000D01*
X249136184Y-60896000D01*
X248971772Y-60863297D01*
X248816900Y-60799147D01*
X248677519Y-60706015D01*
X248558985Y-60587481D01*
X248465853Y-60448100D01*
X248401703Y-60293228D01*
X248369000Y-60128816D01*
X248369000Y-59961184D01*
X248401703Y-59796772D01*
X248465853Y-59641900D01*
X248558985Y-59502519D01*
X248677519Y-59383985D01*
X248816900Y-59290853D01*
X248971772Y-59226703D01*
X249136184Y-59194000D01*
X249303816Y-59194000D01*
X249468228Y-59226703D01*
G37*
G36*
X246628228Y-57841703D02*
G01*
X246783100Y-57905853D01*
X246922481Y-57998985D01*
X247041015Y-58117519D01*
X247134147Y-58256900D01*
X247198297Y-58411772D01*
X247231000Y-58576184D01*
X247231000Y-58743816D01*
X247198297Y-58908228D01*
X247134147Y-59063100D01*
X247041015Y-59202481D01*
X246922481Y-59321015D01*
X246783100Y-59414147D01*
X246628228Y-59478297D01*
X246463816Y-59511000D01*
X246296184Y-59511000D01*
X246131772Y-59478297D01*
X245976900Y-59414147D01*
X245837519Y-59321015D01*
X245718985Y-59202481D01*
X245625853Y-59063100D01*
X245561703Y-58908228D01*
X245529000Y-58743816D01*
X245529000Y-58576184D01*
X245561703Y-58411772D01*
X245625853Y-58256900D01*
X245718985Y-58117519D01*
X245837519Y-57998985D01*
X245976900Y-57905853D01*
X246131772Y-57841703D01*
X246296184Y-57809000D01*
X246463816Y-57809000D01*
X246628228Y-57841703D01*
G37*
G36*
X249468228Y-56456703D02*
G01*
X249623100Y-56520853D01*
X249762481Y-56613985D01*
X249881015Y-56732519D01*
X249974147Y-56871900D01*
X250038297Y-57026772D01*
X250071000Y-57191184D01*
X250071000Y-57358816D01*
X250038297Y-57523228D01*
X249974147Y-57678100D01*
X249881015Y-57817481D01*
X249762481Y-57936015D01*
X249623100Y-58029147D01*
X249468228Y-58093297D01*
X249303816Y-58126000D01*
X249136184Y-58126000D01*
X248971772Y-58093297D01*
X248816900Y-58029147D01*
X248677519Y-57936015D01*
X248558985Y-57817481D01*
X248465853Y-57678100D01*
X248401703Y-57523228D01*
X248369000Y-57358816D01*
X248369000Y-57191184D01*
X248401703Y-57026772D01*
X248465853Y-56871900D01*
X248558985Y-56732519D01*
X248677519Y-56613985D01*
X248816900Y-56520853D01*
X248971772Y-56456703D01*
X249136184Y-56424000D01*
X249303816Y-56424000D01*
X249468228Y-56456703D01*
G37*
G36*
X246628228Y-55071703D02*
G01*
X246783100Y-55135853D01*
X246922481Y-55228985D01*
X247041015Y-55347519D01*
X247134147Y-55486900D01*
X247198297Y-55641772D01*
X247231000Y-55806184D01*
X247231000Y-55973816D01*
X247198297Y-56138228D01*
X247134147Y-56293100D01*
X247041015Y-56432481D01*
X246922481Y-56551015D01*
X246783100Y-56644147D01*
X246628228Y-56708297D01*
X246463816Y-56741000D01*
X246296184Y-56741000D01*
X246131772Y-56708297D01*
X245976900Y-56644147D01*
X245837519Y-56551015D01*
X245718985Y-56432481D01*
X245625853Y-56293100D01*
X245561703Y-56138228D01*
X245529000Y-55973816D01*
X245529000Y-55806184D01*
X245561703Y-55641772D01*
X245625853Y-55486900D01*
X245718985Y-55347519D01*
X245837519Y-55228985D01*
X245976900Y-55135853D01*
X246131772Y-55071703D01*
X246296184Y-55039000D01*
X246463816Y-55039000D01*
X246628228Y-55071703D01*
G37*
G36*
X249468228Y-53686703D02*
G01*
X249623100Y-53750853D01*
X249762481Y-53843985D01*
X249881015Y-53962519D01*
X249974147Y-54101900D01*
X250038297Y-54256772D01*
X250071000Y-54421184D01*
X250071000Y-54588816D01*
X250038297Y-54753228D01*
X249974147Y-54908100D01*
X249881015Y-55047481D01*
X249762481Y-55166015D01*
X249623100Y-55259147D01*
X249468228Y-55323297D01*
X249303816Y-55356000D01*
X249136184Y-55356000D01*
X248971772Y-55323297D01*
X248816900Y-55259147D01*
X248677519Y-55166015D01*
X248558985Y-55047481D01*
X248465853Y-54908100D01*
X248401703Y-54753228D01*
X248369000Y-54588816D01*
X248369000Y-54421184D01*
X248401703Y-54256772D01*
X248465853Y-54101900D01*
X248558985Y-53962519D01*
X248677519Y-53843985D01*
X248816900Y-53750853D01*
X248971772Y-53686703D01*
X249136184Y-53654000D01*
X249303816Y-53654000D01*
X249468228Y-53686703D01*
G37*
G36*
X246628228Y-52301703D02*
G01*
X246783100Y-52365853D01*
X246922481Y-52458985D01*
X247041015Y-52577519D01*
X247134147Y-52716900D01*
X247198297Y-52871772D01*
X247231000Y-53036184D01*
X247231000Y-53203816D01*
X247198297Y-53368228D01*
X247134147Y-53523100D01*
X247041015Y-53662481D01*
X246922481Y-53781015D01*
X246783100Y-53874147D01*
X246628228Y-53938297D01*
X246463816Y-53971000D01*
X246296184Y-53971000D01*
X246131772Y-53938297D01*
X245976900Y-53874147D01*
X245837519Y-53781015D01*
X245718985Y-53662481D01*
X245625853Y-53523100D01*
X245561703Y-53368228D01*
X245529000Y-53203816D01*
X245529000Y-53036184D01*
X245561703Y-52871772D01*
X245625853Y-52716900D01*
X245718985Y-52577519D01*
X245837519Y-52458985D01*
X245976900Y-52365853D01*
X246131772Y-52301703D01*
X246296184Y-52269000D01*
X246463816Y-52269000D01*
X246628228Y-52301703D01*
G37*
G36*
X249468228Y-50916703D02*
G01*
X249623100Y-50980853D01*
X249762481Y-51073985D01*
X249881015Y-51192519D01*
X249974147Y-51331900D01*
X250038297Y-51486772D01*
X250071000Y-51651184D01*
X250071000Y-51818816D01*
X250038297Y-51983228D01*
X249974147Y-52138100D01*
X249881015Y-52277481D01*
X249762481Y-52396015D01*
X249623100Y-52489147D01*
X249468228Y-52553297D01*
X249303816Y-52586000D01*
X249136184Y-52586000D01*
X248971772Y-52553297D01*
X248816900Y-52489147D01*
X248677519Y-52396015D01*
X248558985Y-52277481D01*
X248465853Y-52138100D01*
X248401703Y-51983228D01*
X248369000Y-51818816D01*
X248369000Y-51651184D01*
X248401703Y-51486772D01*
X248465853Y-51331900D01*
X248558985Y-51192519D01*
X248677519Y-51073985D01*
X248816900Y-50980853D01*
X248971772Y-50916703D01*
X249136184Y-50884000D01*
X249303816Y-50884000D01*
X249468228Y-50916703D01*
G37*
G36*
X246628228Y-49531703D02*
G01*
X246783100Y-49595853D01*
X246922481Y-49688985D01*
X247041015Y-49807519D01*
X247134147Y-49946900D01*
X247198297Y-50101772D01*
X247231000Y-50266184D01*
X247231000Y-50433816D01*
X247198297Y-50598228D01*
X247134147Y-50753100D01*
X247041015Y-50892481D01*
X246922481Y-51011015D01*
X246783100Y-51104147D01*
X246628228Y-51168297D01*
X246463816Y-51201000D01*
X246296184Y-51201000D01*
X246131772Y-51168297D01*
X245976900Y-51104147D01*
X245837519Y-51011015D01*
X245718985Y-50892481D01*
X245625853Y-50753100D01*
X245561703Y-50598228D01*
X245529000Y-50433816D01*
X245529000Y-50266184D01*
X245561703Y-50101772D01*
X245625853Y-49946900D01*
X245718985Y-49807519D01*
X245837519Y-49688985D01*
X245976900Y-49595853D01*
X246131772Y-49531703D01*
X246296184Y-49499000D01*
X246463816Y-49499000D01*
X246628228Y-49531703D01*
G37*
G36*
X198397395Y-47980546D02*
G01*
X198570466Y-48052234D01*
X198570467Y-48052235D01*
X198726227Y-48156310D01*
X198858690Y-48288773D01*
X198858691Y-48288775D01*
X198962766Y-48444534D01*
X199034454Y-48617605D01*
X199071000Y-48801333D01*
X199071000Y-48988667D01*
X199034454Y-49172395D01*
X198962766Y-49345466D01*
X198962765Y-49345467D01*
X198858690Y-49501227D01*
X198726227Y-49633690D01*
X198647818Y-49686081D01*
X198570466Y-49737766D01*
X198397395Y-49809454D01*
X198213667Y-49846000D01*
X198026333Y-49846000D01*
X197842605Y-49809454D01*
X197669534Y-49737766D01*
X197592182Y-49686081D01*
X197513773Y-49633690D01*
X197381310Y-49501227D01*
X197277235Y-49345467D01*
X197277234Y-49345466D01*
X197205546Y-49172395D01*
X197169000Y-48988667D01*
X197169000Y-48801333D01*
X197205546Y-48617605D01*
X197277234Y-48444534D01*
X197381309Y-48288775D01*
X197381310Y-48288773D01*
X197513773Y-48156310D01*
X197669533Y-48052235D01*
X197669534Y-48052234D01*
X197842605Y-47980546D01*
X198026333Y-47944000D01*
X198213667Y-47944000D01*
X198397395Y-47980546D01*
G37*
G36*
X77786000Y-49846000D02*
G01*
X75884000Y-49846000D01*
X75884000Y-47944000D01*
X77786000Y-47944000D01*
X77786000Y-49846000D01*
G37*
G36*
X69531000Y-49846000D02*
G01*
X67629000Y-49846000D01*
X67629000Y-47944000D01*
X69531000Y-47944000D01*
X69531000Y-49846000D01*
G37*
G36*
X91717395Y-47980546D02*
G01*
X91890466Y-48052234D01*
X91890467Y-48052235D01*
X92046227Y-48156310D01*
X92178690Y-48288773D01*
X92178691Y-48288775D01*
X92282766Y-48444534D01*
X92354454Y-48617605D01*
X92391000Y-48801333D01*
X92391000Y-48988667D01*
X92354454Y-49172395D01*
X92282766Y-49345466D01*
X92282765Y-49345467D01*
X92178690Y-49501227D01*
X92046227Y-49633690D01*
X91967818Y-49686081D01*
X91890466Y-49737766D01*
X91717395Y-49809454D01*
X91533667Y-49846000D01*
X91346333Y-49846000D01*
X91162605Y-49809454D01*
X90989534Y-49737766D01*
X90912182Y-49686081D01*
X90833773Y-49633690D01*
X90701310Y-49501227D01*
X90597235Y-49345467D01*
X90597234Y-49345466D01*
X90525546Y-49172395D01*
X90489000Y-48988667D01*
X90489000Y-48801333D01*
X90525546Y-48617605D01*
X90597234Y-48444534D01*
X90701309Y-48288775D01*
X90701310Y-48288773D01*
X90833773Y-48156310D01*
X90989533Y-48052235D01*
X90989534Y-48052234D01*
X91162605Y-47980546D01*
X91346333Y-47944000D01*
X91533667Y-47944000D01*
X91717395Y-47980546D01*
G37*
G36*
X99337395Y-47980546D02*
G01*
X99510466Y-48052234D01*
X99510467Y-48052235D01*
X99666227Y-48156310D01*
X99798690Y-48288773D01*
X99798691Y-48288775D01*
X99902766Y-48444534D01*
X99974454Y-48617605D01*
X100011000Y-48801333D01*
X100011000Y-48988667D01*
X99974454Y-49172395D01*
X99902766Y-49345466D01*
X99902765Y-49345467D01*
X99798690Y-49501227D01*
X99666227Y-49633690D01*
X99587818Y-49686081D01*
X99510466Y-49737766D01*
X99337395Y-49809454D01*
X99153667Y-49846000D01*
X98966333Y-49846000D01*
X98782605Y-49809454D01*
X98609534Y-49737766D01*
X98532182Y-49686081D01*
X98453773Y-49633690D01*
X98321310Y-49501227D01*
X98217235Y-49345467D01*
X98217234Y-49345466D01*
X98145546Y-49172395D01*
X98109000Y-48988667D01*
X98109000Y-48801333D01*
X98145546Y-48617605D01*
X98217234Y-48444534D01*
X98321309Y-48288775D01*
X98321310Y-48288773D01*
X98453773Y-48156310D01*
X98609533Y-48052235D01*
X98609534Y-48052234D01*
X98782605Y-47980546D01*
X98966333Y-47944000D01*
X99153667Y-47944000D01*
X99337395Y-47980546D01*
G37*
G36*
X106957395Y-47980546D02*
G01*
X107130466Y-48052234D01*
X107130467Y-48052235D01*
X107286227Y-48156310D01*
X107418690Y-48288773D01*
X107418691Y-48288775D01*
X107522766Y-48444534D01*
X107594454Y-48617605D01*
X107631000Y-48801333D01*
X107631000Y-48988667D01*
X107594454Y-49172395D01*
X107522766Y-49345466D01*
X107522765Y-49345467D01*
X107418690Y-49501227D01*
X107286227Y-49633690D01*
X107207818Y-49686081D01*
X107130466Y-49737766D01*
X106957395Y-49809454D01*
X106773667Y-49846000D01*
X106586333Y-49846000D01*
X106402605Y-49809454D01*
X106229534Y-49737766D01*
X106152182Y-49686081D01*
X106073773Y-49633690D01*
X105941310Y-49501227D01*
X105837235Y-49345467D01*
X105837234Y-49345466D01*
X105765546Y-49172395D01*
X105729000Y-48988667D01*
X105729000Y-48801333D01*
X105765546Y-48617605D01*
X105837234Y-48444534D01*
X105941309Y-48288775D01*
X105941310Y-48288773D01*
X106073773Y-48156310D01*
X106229533Y-48052235D01*
X106229534Y-48052234D01*
X106402605Y-47980546D01*
X106586333Y-47944000D01*
X106773667Y-47944000D01*
X106957395Y-47980546D01*
G37*
G36*
X114577395Y-47980546D02*
G01*
X114750466Y-48052234D01*
X114750467Y-48052235D01*
X114906227Y-48156310D01*
X115038690Y-48288773D01*
X115038691Y-48288775D01*
X115142766Y-48444534D01*
X115214454Y-48617605D01*
X115251000Y-48801333D01*
X115251000Y-48988667D01*
X115214454Y-49172395D01*
X115142766Y-49345466D01*
X115142765Y-49345467D01*
X115038690Y-49501227D01*
X114906227Y-49633690D01*
X114827818Y-49686081D01*
X114750466Y-49737766D01*
X114577395Y-49809454D01*
X114393667Y-49846000D01*
X114206333Y-49846000D01*
X114022605Y-49809454D01*
X113849534Y-49737766D01*
X113772182Y-49686081D01*
X113693773Y-49633690D01*
X113561310Y-49501227D01*
X113457235Y-49345467D01*
X113457234Y-49345466D01*
X113385546Y-49172395D01*
X113349000Y-48988667D01*
X113349000Y-48801333D01*
X113385546Y-48617605D01*
X113457234Y-48444534D01*
X113561309Y-48288775D01*
X113561310Y-48288773D01*
X113693773Y-48156310D01*
X113849533Y-48052235D01*
X113849534Y-48052234D01*
X114022605Y-47980546D01*
X114206333Y-47944000D01*
X114393667Y-47944000D01*
X114577395Y-47980546D01*
G37*
G36*
X122197395Y-47980546D02*
G01*
X122370466Y-48052234D01*
X122370467Y-48052235D01*
X122526227Y-48156310D01*
X122658690Y-48288773D01*
X122658691Y-48288775D01*
X122762766Y-48444534D01*
X122834454Y-48617605D01*
X122871000Y-48801333D01*
X122871000Y-48988667D01*
X122834454Y-49172395D01*
X122762766Y-49345466D01*
X122762765Y-49345467D01*
X122658690Y-49501227D01*
X122526227Y-49633690D01*
X122447818Y-49686081D01*
X122370466Y-49737766D01*
X122197395Y-49809454D01*
X122013667Y-49846000D01*
X121826333Y-49846000D01*
X121642605Y-49809454D01*
X121469534Y-49737766D01*
X121392182Y-49686081D01*
X121313773Y-49633690D01*
X121181310Y-49501227D01*
X121077235Y-49345467D01*
X121077234Y-49345466D01*
X121005546Y-49172395D01*
X120969000Y-48988667D01*
X120969000Y-48801333D01*
X121005546Y-48617605D01*
X121077234Y-48444534D01*
X121181309Y-48288775D01*
X121181310Y-48288773D01*
X121313773Y-48156310D01*
X121469533Y-48052235D01*
X121469534Y-48052234D01*
X121642605Y-47980546D01*
X121826333Y-47944000D01*
X122013667Y-47944000D01*
X122197395Y-47980546D01*
G37*
G36*
X183157395Y-47980546D02*
G01*
X183330466Y-48052234D01*
X183330467Y-48052235D01*
X183486227Y-48156310D01*
X183618690Y-48288773D01*
X183618691Y-48288775D01*
X183722766Y-48444534D01*
X183794454Y-48617605D01*
X183831000Y-48801333D01*
X183831000Y-48988667D01*
X183794454Y-49172395D01*
X183722766Y-49345466D01*
X183722765Y-49345467D01*
X183618690Y-49501227D01*
X183486227Y-49633690D01*
X183407818Y-49686081D01*
X183330466Y-49737766D01*
X183157395Y-49809454D01*
X182973667Y-49846000D01*
X182786333Y-49846000D01*
X182602605Y-49809454D01*
X182429534Y-49737766D01*
X182352182Y-49686081D01*
X182273773Y-49633690D01*
X182141310Y-49501227D01*
X182037235Y-49345467D01*
X182037234Y-49345466D01*
X181965546Y-49172395D01*
X181929000Y-48988667D01*
X181929000Y-48801333D01*
X181965546Y-48617605D01*
X182037234Y-48444534D01*
X182141309Y-48288775D01*
X182141310Y-48288773D01*
X182273773Y-48156310D01*
X182429533Y-48052235D01*
X182429534Y-48052234D01*
X182602605Y-47980546D01*
X182786333Y-47944000D01*
X182973667Y-47944000D01*
X183157395Y-47980546D01*
G37*
G36*
X190777395Y-47980546D02*
G01*
X190950466Y-48052234D01*
X190950467Y-48052235D01*
X191106227Y-48156310D01*
X191238690Y-48288773D01*
X191238691Y-48288775D01*
X191342766Y-48444534D01*
X191414454Y-48617605D01*
X191451000Y-48801333D01*
X191451000Y-48988667D01*
X191414454Y-49172395D01*
X191342766Y-49345466D01*
X191342765Y-49345467D01*
X191238690Y-49501227D01*
X191106227Y-49633690D01*
X191027818Y-49686081D01*
X190950466Y-49737766D01*
X190777395Y-49809454D01*
X190593667Y-49846000D01*
X190406333Y-49846000D01*
X190222605Y-49809454D01*
X190049534Y-49737766D01*
X189972182Y-49686081D01*
X189893773Y-49633690D01*
X189761310Y-49501227D01*
X189657235Y-49345467D01*
X189657234Y-49345466D01*
X189585546Y-49172395D01*
X189549000Y-48988667D01*
X189549000Y-48801333D01*
X189585546Y-48617605D01*
X189657234Y-48444534D01*
X189761309Y-48288775D01*
X189761310Y-48288773D01*
X189893773Y-48156310D01*
X190049533Y-48052235D01*
X190049534Y-48052234D01*
X190222605Y-47980546D01*
X190406333Y-47944000D01*
X190593667Y-47944000D01*
X190777395Y-47980546D01*
G37*
G36*
X206017395Y-47980546D02*
G01*
X206190466Y-48052234D01*
X206190467Y-48052235D01*
X206346227Y-48156310D01*
X206478690Y-48288773D01*
X206478691Y-48288775D01*
X206582766Y-48444534D01*
X206654454Y-48617605D01*
X206691000Y-48801333D01*
X206691000Y-48988667D01*
X206654454Y-49172395D01*
X206582766Y-49345466D01*
X206582765Y-49345467D01*
X206478690Y-49501227D01*
X206346227Y-49633690D01*
X206267818Y-49686081D01*
X206190466Y-49737766D01*
X206017395Y-49809454D01*
X205833667Y-49846000D01*
X205646333Y-49846000D01*
X205462605Y-49809454D01*
X205289534Y-49737766D01*
X205212182Y-49686081D01*
X205133773Y-49633690D01*
X205001310Y-49501227D01*
X204897235Y-49345467D01*
X204897234Y-49345466D01*
X204825546Y-49172395D01*
X204789000Y-48988667D01*
X204789000Y-48801333D01*
X204825546Y-48617605D01*
X204897234Y-48444534D01*
X205001309Y-48288775D01*
X205001310Y-48288773D01*
X205133773Y-48156310D01*
X205289533Y-48052235D01*
X205289534Y-48052234D01*
X205462605Y-47980546D01*
X205646333Y-47944000D01*
X205833667Y-47944000D01*
X206017395Y-47980546D01*
G37*
G36*
X175537395Y-47980546D02*
G01*
X175710466Y-48052234D01*
X175710467Y-48052235D01*
X175866227Y-48156310D01*
X175998690Y-48288773D01*
X175998691Y-48288775D01*
X176102766Y-48444534D01*
X176174454Y-48617605D01*
X176211000Y-48801333D01*
X176211000Y-48988667D01*
X176174454Y-49172395D01*
X176102766Y-49345466D01*
X176102765Y-49345467D01*
X175998690Y-49501227D01*
X175866227Y-49633690D01*
X175787818Y-49686081D01*
X175710466Y-49737766D01*
X175537395Y-49809454D01*
X175353667Y-49846000D01*
X175166333Y-49846000D01*
X174982605Y-49809454D01*
X174809534Y-49737766D01*
X174732182Y-49686081D01*
X174653773Y-49633690D01*
X174521310Y-49501227D01*
X174417235Y-49345467D01*
X174417234Y-49345466D01*
X174345546Y-49172395D01*
X174309000Y-48988667D01*
X174309000Y-48801333D01*
X174345546Y-48617605D01*
X174417234Y-48444534D01*
X174521309Y-48288775D01*
X174521310Y-48288773D01*
X174653773Y-48156310D01*
X174809533Y-48052235D01*
X174809534Y-48052234D01*
X174982605Y-47980546D01*
X175166333Y-47944000D01*
X175353667Y-47944000D01*
X175537395Y-47980546D01*
G37*
G36*
X167917395Y-47980546D02*
G01*
X168090466Y-48052234D01*
X168090467Y-48052235D01*
X168246227Y-48156310D01*
X168378690Y-48288773D01*
X168378691Y-48288775D01*
X168482766Y-48444534D01*
X168554454Y-48617605D01*
X168591000Y-48801333D01*
X168591000Y-48988667D01*
X168554454Y-49172395D01*
X168482766Y-49345466D01*
X168482765Y-49345467D01*
X168378690Y-49501227D01*
X168246227Y-49633690D01*
X168167818Y-49686081D01*
X168090466Y-49737766D01*
X167917395Y-49809454D01*
X167733667Y-49846000D01*
X167546333Y-49846000D01*
X167362605Y-49809454D01*
X167189534Y-49737766D01*
X167112182Y-49686081D01*
X167033773Y-49633690D01*
X166901310Y-49501227D01*
X166797235Y-49345467D01*
X166797234Y-49345466D01*
X166725546Y-49172395D01*
X166689000Y-48988667D01*
X166689000Y-48801333D01*
X166725546Y-48617605D01*
X166797234Y-48444534D01*
X166901309Y-48288775D01*
X166901310Y-48288773D01*
X167033773Y-48156310D01*
X167189533Y-48052235D01*
X167189534Y-48052234D01*
X167362605Y-47980546D01*
X167546333Y-47944000D01*
X167733667Y-47944000D01*
X167917395Y-47980546D01*
G37*
G36*
X129817395Y-47980546D02*
G01*
X129990466Y-48052234D01*
X129990467Y-48052235D01*
X130146227Y-48156310D01*
X130278690Y-48288773D01*
X130278691Y-48288775D01*
X130382766Y-48444534D01*
X130454454Y-48617605D01*
X130491000Y-48801333D01*
X130491000Y-48988667D01*
X130454454Y-49172395D01*
X130382766Y-49345466D01*
X130382765Y-49345467D01*
X130278690Y-49501227D01*
X130146227Y-49633690D01*
X130067818Y-49686081D01*
X129990466Y-49737766D01*
X129817395Y-49809454D01*
X129633667Y-49846000D01*
X129446333Y-49846000D01*
X129262605Y-49809454D01*
X129089534Y-49737766D01*
X129012182Y-49686081D01*
X128933773Y-49633690D01*
X128801310Y-49501227D01*
X128697235Y-49345467D01*
X128697234Y-49345466D01*
X128625546Y-49172395D01*
X128589000Y-48988667D01*
X128589000Y-48801333D01*
X128625546Y-48617605D01*
X128697234Y-48444534D01*
X128801309Y-48288775D01*
X128801310Y-48288773D01*
X128933773Y-48156310D01*
X129089533Y-48052235D01*
X129089534Y-48052234D01*
X129262605Y-47980546D01*
X129446333Y-47944000D01*
X129633667Y-47944000D01*
X129817395Y-47980546D01*
G37*
G36*
X137437395Y-47980546D02*
G01*
X137610466Y-48052234D01*
X137610467Y-48052235D01*
X137766227Y-48156310D01*
X137898690Y-48288773D01*
X137898691Y-48288775D01*
X138002766Y-48444534D01*
X138074454Y-48617605D01*
X138111000Y-48801333D01*
X138111000Y-48988667D01*
X138074454Y-49172395D01*
X138002766Y-49345466D01*
X138002765Y-49345467D01*
X137898690Y-49501227D01*
X137766227Y-49633690D01*
X137687818Y-49686081D01*
X137610466Y-49737766D01*
X137437395Y-49809454D01*
X137253667Y-49846000D01*
X137066333Y-49846000D01*
X136882605Y-49809454D01*
X136709534Y-49737766D01*
X136632182Y-49686081D01*
X136553773Y-49633690D01*
X136421310Y-49501227D01*
X136317235Y-49345467D01*
X136317234Y-49345466D01*
X136245546Y-49172395D01*
X136209000Y-48988667D01*
X136209000Y-48801333D01*
X136245546Y-48617605D01*
X136317234Y-48444534D01*
X136421309Y-48288775D01*
X136421310Y-48288773D01*
X136553773Y-48156310D01*
X136709533Y-48052235D01*
X136709534Y-48052234D01*
X136882605Y-47980546D01*
X137066333Y-47944000D01*
X137253667Y-47944000D01*
X137437395Y-47980546D01*
G37*
G36*
X145057395Y-47980546D02*
G01*
X145230466Y-48052234D01*
X145230467Y-48052235D01*
X145386227Y-48156310D01*
X145518690Y-48288773D01*
X145518691Y-48288775D01*
X145622766Y-48444534D01*
X145694454Y-48617605D01*
X145731000Y-48801333D01*
X145731000Y-48988667D01*
X145694454Y-49172395D01*
X145622766Y-49345466D01*
X145622765Y-49345467D01*
X145518690Y-49501227D01*
X145386227Y-49633690D01*
X145307818Y-49686081D01*
X145230466Y-49737766D01*
X145057395Y-49809454D01*
X144873667Y-49846000D01*
X144686333Y-49846000D01*
X144502605Y-49809454D01*
X144329534Y-49737766D01*
X144252182Y-49686081D01*
X144173773Y-49633690D01*
X144041310Y-49501227D01*
X143937235Y-49345467D01*
X143937234Y-49345466D01*
X143865546Y-49172395D01*
X143829000Y-48988667D01*
X143829000Y-48801333D01*
X143865546Y-48617605D01*
X143937234Y-48444534D01*
X144041309Y-48288775D01*
X144041310Y-48288773D01*
X144173773Y-48156310D01*
X144329533Y-48052235D01*
X144329534Y-48052234D01*
X144502605Y-47980546D01*
X144686333Y-47944000D01*
X144873667Y-47944000D01*
X145057395Y-47980546D01*
G37*
G36*
X152677395Y-47980546D02*
G01*
X152850466Y-48052234D01*
X152850467Y-48052235D01*
X153006227Y-48156310D01*
X153138690Y-48288773D01*
X153138691Y-48288775D01*
X153242766Y-48444534D01*
X153314454Y-48617605D01*
X153351000Y-48801333D01*
X153351000Y-48988667D01*
X153314454Y-49172395D01*
X153242766Y-49345466D01*
X153242765Y-49345467D01*
X153138690Y-49501227D01*
X153006227Y-49633690D01*
X152927818Y-49686081D01*
X152850466Y-49737766D01*
X152677395Y-49809454D01*
X152493667Y-49846000D01*
X152306333Y-49846000D01*
X152122605Y-49809454D01*
X151949534Y-49737766D01*
X151872182Y-49686081D01*
X151793773Y-49633690D01*
X151661310Y-49501227D01*
X151557235Y-49345467D01*
X151557234Y-49345466D01*
X151485546Y-49172395D01*
X151449000Y-48988667D01*
X151449000Y-48801333D01*
X151485546Y-48617605D01*
X151557234Y-48444534D01*
X151661309Y-48288775D01*
X151661310Y-48288773D01*
X151793773Y-48156310D01*
X151949533Y-48052235D01*
X151949534Y-48052234D01*
X152122605Y-47980546D01*
X152306333Y-47944000D01*
X152493667Y-47944000D01*
X152677395Y-47980546D01*
G37*
G36*
X160297395Y-47980546D02*
G01*
X160470466Y-48052234D01*
X160470467Y-48052235D01*
X160626227Y-48156310D01*
X160758690Y-48288773D01*
X160758691Y-48288775D01*
X160862766Y-48444534D01*
X160934454Y-48617605D01*
X160971000Y-48801333D01*
X160971000Y-48988667D01*
X160934454Y-49172395D01*
X160862766Y-49345466D01*
X160862765Y-49345467D01*
X160758690Y-49501227D01*
X160626227Y-49633690D01*
X160547818Y-49686081D01*
X160470466Y-49737766D01*
X160297395Y-49809454D01*
X160113667Y-49846000D01*
X159926333Y-49846000D01*
X159742605Y-49809454D01*
X159569534Y-49737766D01*
X159492182Y-49686081D01*
X159413773Y-49633690D01*
X159281310Y-49501227D01*
X159177235Y-49345467D01*
X159177234Y-49345466D01*
X159105546Y-49172395D01*
X159069000Y-48988667D01*
X159069000Y-48801333D01*
X159105546Y-48617605D01*
X159177234Y-48444534D01*
X159281309Y-48288775D01*
X159281310Y-48288773D01*
X159413773Y-48156310D01*
X159569533Y-48052235D01*
X159569534Y-48052234D01*
X159742605Y-47980546D01*
X159926333Y-47944000D01*
X160113667Y-47944000D01*
X160297395Y-47980546D01*
G37*
G36*
X249468228Y-48146703D02*
G01*
X249623100Y-48210853D01*
X249762481Y-48303985D01*
X249881015Y-48422519D01*
X249974147Y-48561900D01*
X250038297Y-48716772D01*
X250071000Y-48881184D01*
X250071000Y-49048816D01*
X250038297Y-49213228D01*
X249974147Y-49368100D01*
X249881015Y-49507481D01*
X249762481Y-49626015D01*
X249623100Y-49719147D01*
X249468228Y-49783297D01*
X249303816Y-49816000D01*
X249136184Y-49816000D01*
X248971772Y-49783297D01*
X248816900Y-49719147D01*
X248677519Y-49626015D01*
X248558985Y-49507481D01*
X248465853Y-49368100D01*
X248401703Y-49213228D01*
X248369000Y-49048816D01*
X248369000Y-48881184D01*
X248401703Y-48716772D01*
X248465853Y-48561900D01*
X248558985Y-48422519D01*
X248677519Y-48303985D01*
X248816900Y-48210853D01*
X248971772Y-48146703D01*
X249136184Y-48114000D01*
X249303816Y-48114000D01*
X249468228Y-48146703D01*
G37*
G36*
X246628228Y-46761703D02*
G01*
X246783100Y-46825853D01*
X246922481Y-46918985D01*
X247041015Y-47037519D01*
X247134147Y-47176900D01*
X247198297Y-47331772D01*
X247231000Y-47496184D01*
X247231000Y-47663816D01*
X247198297Y-47828228D01*
X247134147Y-47983100D01*
X247041015Y-48122481D01*
X246922481Y-48241015D01*
X246783100Y-48334147D01*
X246628228Y-48398297D01*
X246463816Y-48431000D01*
X246296184Y-48431000D01*
X246131772Y-48398297D01*
X245976900Y-48334147D01*
X245837519Y-48241015D01*
X245718985Y-48122481D01*
X245625853Y-47983100D01*
X245561703Y-47828228D01*
X245529000Y-47663816D01*
X245529000Y-47496184D01*
X245561703Y-47331772D01*
X245625853Y-47176900D01*
X245718985Y-47037519D01*
X245837519Y-46918985D01*
X245976900Y-46825853D01*
X246131772Y-46761703D01*
X246296184Y-46729000D01*
X246463816Y-46729000D01*
X246628228Y-46761703D01*
G37*
G36*
X92391000Y-47306000D02*
G01*
X90489000Y-47306000D01*
X90489000Y-45404000D01*
X92391000Y-45404000D01*
X92391000Y-47306000D01*
G37*
G36*
X68857395Y-45440546D02*
G01*
X69030466Y-45512234D01*
X69107818Y-45563919D01*
X69186227Y-45616310D01*
X69318690Y-45748773D01*
X69318691Y-45748775D01*
X69422766Y-45904534D01*
X69494454Y-46077605D01*
X69531000Y-46261333D01*
X69531000Y-46448667D01*
X69494454Y-46632395D01*
X69422766Y-46805466D01*
X69422765Y-46805467D01*
X69318690Y-46961227D01*
X69186227Y-47093690D01*
X69107818Y-47146081D01*
X69030466Y-47197766D01*
X68857395Y-47269454D01*
X68673667Y-47306000D01*
X68486333Y-47306000D01*
X68302605Y-47269454D01*
X68129534Y-47197766D01*
X68052182Y-47146081D01*
X67973773Y-47093690D01*
X67841310Y-46961227D01*
X67737235Y-46805467D01*
X67737234Y-46805466D01*
X67665546Y-46632395D01*
X67629000Y-46448667D01*
X67629000Y-46261333D01*
X67665546Y-46077605D01*
X67737234Y-45904534D01*
X67841309Y-45748775D01*
X67841310Y-45748773D01*
X67973773Y-45616310D01*
X68052182Y-45563919D01*
X68129534Y-45512234D01*
X68302605Y-45440546D01*
X68486333Y-45404000D01*
X68673667Y-45404000D01*
X68857395Y-45440546D01*
G37*
G36*
X160971000Y-47306000D02*
G01*
X159069000Y-47306000D01*
X159069000Y-45404000D01*
X160971000Y-45404000D01*
X160971000Y-47306000D01*
G37*
G36*
X168591000Y-47306000D02*
G01*
X166689000Y-47306000D01*
X166689000Y-45404000D01*
X168591000Y-45404000D01*
X168591000Y-47306000D01*
G37*
G36*
X176211000Y-47306000D02*
G01*
X174309000Y-47306000D01*
X174309000Y-45404000D01*
X176211000Y-45404000D01*
X176211000Y-47306000D01*
G37*
G36*
X183831000Y-47306000D02*
G01*
X181929000Y-47306000D01*
X181929000Y-45404000D01*
X183831000Y-45404000D01*
X183831000Y-47306000D01*
G37*
G36*
X199071000Y-47306000D02*
G01*
X197169000Y-47306000D01*
X197169000Y-45404000D01*
X199071000Y-45404000D01*
X199071000Y-47306000D01*
G37*
G36*
X206691000Y-47306000D02*
G01*
X204789000Y-47306000D01*
X204789000Y-45404000D01*
X206691000Y-45404000D01*
X206691000Y-47306000D01*
G37*
G36*
X191451000Y-47306000D02*
G01*
X189549000Y-47306000D01*
X189549000Y-45404000D01*
X191451000Y-45404000D01*
X191451000Y-47306000D01*
G37*
G36*
X107631000Y-47306000D02*
G01*
X105729000Y-47306000D01*
X105729000Y-45404000D01*
X107631000Y-45404000D01*
X107631000Y-47306000D01*
G37*
G36*
X115251000Y-47306000D02*
G01*
X113349000Y-47306000D01*
X113349000Y-45404000D01*
X115251000Y-45404000D01*
X115251000Y-47306000D01*
G37*
G36*
X122871000Y-47306000D02*
G01*
X120969000Y-47306000D01*
X120969000Y-45404000D01*
X122871000Y-45404000D01*
X122871000Y-47306000D01*
G37*
G36*
X130491000Y-47306000D02*
G01*
X128589000Y-47306000D01*
X128589000Y-45404000D01*
X130491000Y-45404000D01*
X130491000Y-47306000D01*
G37*
G36*
X138111000Y-47306000D02*
G01*
X136209000Y-47306000D01*
X136209000Y-45404000D01*
X138111000Y-45404000D01*
X138111000Y-47306000D01*
G37*
G36*
X145731000Y-47306000D02*
G01*
X143829000Y-47306000D01*
X143829000Y-45404000D01*
X145731000Y-45404000D01*
X145731000Y-47306000D01*
G37*
G36*
X77112395Y-45440546D02*
G01*
X77285466Y-45512234D01*
X77362818Y-45563919D01*
X77441227Y-45616310D01*
X77573690Y-45748773D01*
X77573691Y-45748775D01*
X77677766Y-45904534D01*
X77749454Y-46077605D01*
X77786000Y-46261333D01*
X77786000Y-46448667D01*
X77749454Y-46632395D01*
X77677766Y-46805466D01*
X77677765Y-46805467D01*
X77573690Y-46961227D01*
X77441227Y-47093690D01*
X77362818Y-47146081D01*
X77285466Y-47197766D01*
X77112395Y-47269454D01*
X76928667Y-47306000D01*
X76741333Y-47306000D01*
X76557605Y-47269454D01*
X76384534Y-47197766D01*
X76307182Y-47146081D01*
X76228773Y-47093690D01*
X76096310Y-46961227D01*
X75992235Y-46805467D01*
X75992234Y-46805466D01*
X75920546Y-46632395D01*
X75884000Y-46448667D01*
X75884000Y-46261333D01*
X75920546Y-46077605D01*
X75992234Y-45904534D01*
X76096309Y-45748775D01*
X76096310Y-45748773D01*
X76228773Y-45616310D01*
X76307182Y-45563919D01*
X76384534Y-45512234D01*
X76557605Y-45440546D01*
X76741333Y-45404000D01*
X76928667Y-45404000D01*
X77112395Y-45440546D01*
G37*
G36*
X153351000Y-47306000D02*
G01*
X151449000Y-47306000D01*
X151449000Y-45404000D01*
X153351000Y-45404000D01*
X153351000Y-47306000D01*
G37*
G36*
X100011000Y-47306000D02*
G01*
X98109000Y-47306000D01*
X98109000Y-45404000D01*
X100011000Y-45404000D01*
X100011000Y-47306000D01*
G37*
G36*
X249468228Y-45376703D02*
G01*
X249623100Y-45440853D01*
X249762481Y-45533985D01*
X249881015Y-45652519D01*
X249974147Y-45791900D01*
X250038297Y-45946772D01*
X250071000Y-46111184D01*
X250071000Y-46278816D01*
X250038297Y-46443228D01*
X249974147Y-46598100D01*
X249881015Y-46737481D01*
X249762481Y-46856015D01*
X249623100Y-46949147D01*
X249468228Y-47013297D01*
X249303816Y-47046000D01*
X249136184Y-47046000D01*
X248971772Y-47013297D01*
X248816900Y-46949147D01*
X248677519Y-46856015D01*
X248558985Y-46737481D01*
X248465853Y-46598100D01*
X248401703Y-46443228D01*
X248369000Y-46278816D01*
X248369000Y-46111184D01*
X248401703Y-45946772D01*
X248465853Y-45791900D01*
X248558985Y-45652519D01*
X248677519Y-45533985D01*
X248816900Y-45440853D01*
X248971772Y-45376703D01*
X249136184Y-45344000D01*
X249303816Y-45344000D01*
X249468228Y-45376703D01*
G37*
G36*
X246628228Y-43991703D02*
G01*
X246783100Y-44055853D01*
X246922481Y-44148985D01*
X247041015Y-44267519D01*
X247134147Y-44406900D01*
X247198297Y-44561772D01*
X247231000Y-44726184D01*
X247231000Y-44893816D01*
X247198297Y-45058228D01*
X247134147Y-45213100D01*
X247041015Y-45352481D01*
X246922481Y-45471015D01*
X246783100Y-45564147D01*
X246628228Y-45628297D01*
X246463816Y-45661000D01*
X246296184Y-45661000D01*
X246131772Y-45628297D01*
X245976900Y-45564147D01*
X245837519Y-45471015D01*
X245718985Y-45352481D01*
X245625853Y-45213100D01*
X245561703Y-45058228D01*
X245529000Y-44893816D01*
X245529000Y-44726184D01*
X245561703Y-44561772D01*
X245625853Y-44406900D01*
X245718985Y-44267519D01*
X245837519Y-44148985D01*
X245976900Y-44055853D01*
X246131772Y-43991703D01*
X246296184Y-43959000D01*
X246463816Y-43959000D01*
X246628228Y-43991703D01*
G37*
G36*
X249468228Y-42606703D02*
G01*
X249623100Y-42670853D01*
X249762481Y-42763985D01*
X249881015Y-42882519D01*
X249974147Y-43021900D01*
X250038297Y-43176772D01*
X250071000Y-43341184D01*
X250071000Y-43508816D01*
X250038297Y-43673228D01*
X249974147Y-43828100D01*
X249881015Y-43967481D01*
X249762481Y-44086015D01*
X249623100Y-44179147D01*
X249468228Y-44243297D01*
X249303816Y-44276000D01*
X249136184Y-44276000D01*
X248971772Y-44243297D01*
X248816900Y-44179147D01*
X248677519Y-44086015D01*
X248558985Y-43967481D01*
X248465853Y-43828100D01*
X248401703Y-43673228D01*
X248369000Y-43508816D01*
X248369000Y-43341184D01*
X248401703Y-43176772D01*
X248465853Y-43021900D01*
X248558985Y-42882519D01*
X248677519Y-42763985D01*
X248816900Y-42670853D01*
X248971772Y-42606703D01*
X249136184Y-42574000D01*
X249303816Y-42574000D01*
X249468228Y-42606703D01*
G37*
G36*
X246628228Y-41221703D02*
G01*
X246783100Y-41285853D01*
X246922481Y-41378985D01*
X247041015Y-41497519D01*
X247134147Y-41636900D01*
X247198297Y-41791772D01*
X247231000Y-41956184D01*
X247231000Y-42123816D01*
X247198297Y-42288228D01*
X247134147Y-42443100D01*
X247041015Y-42582481D01*
X246922481Y-42701015D01*
X246783100Y-42794147D01*
X246628228Y-42858297D01*
X246463816Y-42891000D01*
X246296184Y-42891000D01*
X246131772Y-42858297D01*
X245976900Y-42794147D01*
X245837519Y-42701015D01*
X245718985Y-42582481D01*
X245625853Y-42443100D01*
X245561703Y-42288228D01*
X245529000Y-42123816D01*
X245529000Y-41956184D01*
X245561703Y-41791772D01*
X245625853Y-41636900D01*
X245718985Y-41497519D01*
X245837519Y-41378985D01*
X245976900Y-41285853D01*
X246131772Y-41221703D01*
X246296184Y-41189000D01*
X246463816Y-41189000D01*
X246628228Y-41221703D01*
G37*
G36*
X249468228Y-39836703D02*
G01*
X249623100Y-39900853D01*
X249762481Y-39993985D01*
X249881015Y-40112519D01*
X249974147Y-40251900D01*
X250038297Y-40406772D01*
X250071000Y-40571184D01*
X250071000Y-40738816D01*
X250038297Y-40903228D01*
X249974147Y-41058100D01*
X249881015Y-41197481D01*
X249762481Y-41316015D01*
X249623100Y-41409147D01*
X249468228Y-41473297D01*
X249303816Y-41506000D01*
X249136184Y-41506000D01*
X248971772Y-41473297D01*
X248816900Y-41409147D01*
X248677519Y-41316015D01*
X248558985Y-41197481D01*
X248465853Y-41058100D01*
X248401703Y-40903228D01*
X248369000Y-40738816D01*
X248369000Y-40571184D01*
X248401703Y-40406772D01*
X248465853Y-40251900D01*
X248558985Y-40112519D01*
X248677519Y-39993985D01*
X248816900Y-39900853D01*
X248971772Y-39836703D01*
X249136184Y-39804000D01*
X249303816Y-39804000D01*
X249468228Y-39836703D01*
G37*
G36*
X246628228Y-38451703D02*
G01*
X246783100Y-38515853D01*
X246922481Y-38608985D01*
X247041015Y-38727519D01*
X247134147Y-38866900D01*
X247198297Y-39021772D01*
X247231000Y-39186184D01*
X247231000Y-39353816D01*
X247198297Y-39518228D01*
X247134147Y-39673100D01*
X247041015Y-39812481D01*
X246922481Y-39931015D01*
X246783100Y-40024147D01*
X246628228Y-40088297D01*
X246463816Y-40121000D01*
X246296184Y-40121000D01*
X246131772Y-40088297D01*
X245976900Y-40024147D01*
X245837519Y-39931015D01*
X245718985Y-39812481D01*
X245625853Y-39673100D01*
X245561703Y-39518228D01*
X245529000Y-39353816D01*
X245529000Y-39186184D01*
X245561703Y-39021772D01*
X245625853Y-38866900D01*
X245718985Y-38727519D01*
X245837519Y-38608985D01*
X245976900Y-38515853D01*
X246131772Y-38451703D01*
X246296184Y-38419000D01*
X246463816Y-38419000D01*
X246628228Y-38451703D01*
G37*
G36*
X249468228Y-37066703D02*
G01*
X249623100Y-37130853D01*
X249762481Y-37223985D01*
X249881015Y-37342519D01*
X249974147Y-37481900D01*
X250038297Y-37636772D01*
X250071000Y-37801184D01*
X250071000Y-37968816D01*
X250038297Y-38133228D01*
X249974147Y-38288100D01*
X249881015Y-38427481D01*
X249762481Y-38546015D01*
X249623100Y-38639147D01*
X249468228Y-38703297D01*
X249303816Y-38736000D01*
X249136184Y-38736000D01*
X248971772Y-38703297D01*
X248816900Y-38639147D01*
X248677519Y-38546015D01*
X248558985Y-38427481D01*
X248465853Y-38288100D01*
X248401703Y-38133228D01*
X248369000Y-37968816D01*
X248369000Y-37801184D01*
X248401703Y-37636772D01*
X248465853Y-37481900D01*
X248558985Y-37342519D01*
X248677519Y-37223985D01*
X248816900Y-37130853D01*
X248971772Y-37066703D01*
X249136184Y-37034000D01*
X249303816Y-37034000D01*
X249468228Y-37066703D01*
G37*
G36*
X114577395Y-35915546D02*
G01*
X114750466Y-35987234D01*
X114750467Y-35987235D01*
X114906227Y-36091310D01*
X115038690Y-36223773D01*
X115057398Y-36251772D01*
X115142766Y-36379534D01*
X115214454Y-36552605D01*
X115251000Y-36736333D01*
X115251000Y-36923667D01*
X115214454Y-37107395D01*
X115142766Y-37280466D01*
X115142765Y-37280467D01*
X115038690Y-37436227D01*
X114906227Y-37568690D01*
X114827818Y-37621081D01*
X114750466Y-37672766D01*
X114577395Y-37744454D01*
X114393667Y-37781000D01*
X114206333Y-37781000D01*
X114022605Y-37744454D01*
X113849534Y-37672766D01*
X113772182Y-37621081D01*
X113693773Y-37568690D01*
X113561310Y-37436227D01*
X113457235Y-37280467D01*
X113457234Y-37280466D01*
X113385546Y-37107395D01*
X113349000Y-36923667D01*
X113349000Y-36736333D01*
X113385546Y-36552605D01*
X113457234Y-36379534D01*
X113542602Y-36251772D01*
X113561310Y-36223773D01*
X113693773Y-36091310D01*
X113849533Y-35987235D01*
X113849534Y-35987234D01*
X114022605Y-35915546D01*
X114206333Y-35879000D01*
X114393667Y-35879000D01*
X114577395Y-35915546D01*
G37*
G36*
X175537395Y-35915546D02*
G01*
X175710466Y-35987234D01*
X175710467Y-35987235D01*
X175866227Y-36091310D01*
X175998690Y-36223773D01*
X176017398Y-36251772D01*
X176102766Y-36379534D01*
X176174454Y-36552605D01*
X176211000Y-36736333D01*
X176211000Y-36923667D01*
X176174454Y-37107395D01*
X176102766Y-37280466D01*
X176102765Y-37280467D01*
X175998690Y-37436227D01*
X175866227Y-37568690D01*
X175787818Y-37621081D01*
X175710466Y-37672766D01*
X175537395Y-37744454D01*
X175353667Y-37781000D01*
X175166333Y-37781000D01*
X174982605Y-37744454D01*
X174809534Y-37672766D01*
X174732182Y-37621081D01*
X174653773Y-37568690D01*
X174521310Y-37436227D01*
X174417235Y-37280467D01*
X174417234Y-37280466D01*
X174345546Y-37107395D01*
X174309000Y-36923667D01*
X174309000Y-36736333D01*
X174345546Y-36552605D01*
X174417234Y-36379534D01*
X174502602Y-36251772D01*
X174521310Y-36223773D01*
X174653773Y-36091310D01*
X174809533Y-35987235D01*
X174809534Y-35987234D01*
X174982605Y-35915546D01*
X175166333Y-35879000D01*
X175353667Y-35879000D01*
X175537395Y-35915546D01*
G37*
G36*
X106957395Y-35915546D02*
G01*
X107130466Y-35987234D01*
X107130467Y-35987235D01*
X107286227Y-36091310D01*
X107418690Y-36223773D01*
X107437398Y-36251772D01*
X107522766Y-36379534D01*
X107594454Y-36552605D01*
X107631000Y-36736333D01*
X107631000Y-36923667D01*
X107594454Y-37107395D01*
X107522766Y-37280466D01*
X107522765Y-37280467D01*
X107418690Y-37436227D01*
X107286227Y-37568690D01*
X107207818Y-37621081D01*
X107130466Y-37672766D01*
X106957395Y-37744454D01*
X106773667Y-37781000D01*
X106586333Y-37781000D01*
X106402605Y-37744454D01*
X106229534Y-37672766D01*
X106152182Y-37621081D01*
X106073773Y-37568690D01*
X105941310Y-37436227D01*
X105837235Y-37280467D01*
X105837234Y-37280466D01*
X105765546Y-37107395D01*
X105729000Y-36923667D01*
X105729000Y-36736333D01*
X105765546Y-36552605D01*
X105837234Y-36379534D01*
X105922602Y-36251772D01*
X105941310Y-36223773D01*
X106073773Y-36091310D01*
X106229533Y-35987235D01*
X106229534Y-35987234D01*
X106402605Y-35915546D01*
X106586333Y-35879000D01*
X106773667Y-35879000D01*
X106957395Y-35915546D01*
G37*
G36*
X99337395Y-35915546D02*
G01*
X99510466Y-35987234D01*
X99510467Y-35987235D01*
X99666227Y-36091310D01*
X99798690Y-36223773D01*
X99817398Y-36251772D01*
X99902766Y-36379534D01*
X99974454Y-36552605D01*
X100011000Y-36736333D01*
X100011000Y-36923667D01*
X99974454Y-37107395D01*
X99902766Y-37280466D01*
X99902765Y-37280467D01*
X99798690Y-37436227D01*
X99666227Y-37568690D01*
X99587818Y-37621081D01*
X99510466Y-37672766D01*
X99337395Y-37744454D01*
X99153667Y-37781000D01*
X98966333Y-37781000D01*
X98782605Y-37744454D01*
X98609534Y-37672766D01*
X98532182Y-37621081D01*
X98453773Y-37568690D01*
X98321310Y-37436227D01*
X98217235Y-37280467D01*
X98217234Y-37280466D01*
X98145546Y-37107395D01*
X98109000Y-36923667D01*
X98109000Y-36736333D01*
X98145546Y-36552605D01*
X98217234Y-36379534D01*
X98302602Y-36251772D01*
X98321310Y-36223773D01*
X98453773Y-36091310D01*
X98609533Y-35987235D01*
X98609534Y-35987234D01*
X98782605Y-35915546D01*
X98966333Y-35879000D01*
X99153667Y-35879000D01*
X99337395Y-35915546D01*
G37*
G36*
X183157395Y-35915546D02*
G01*
X183330466Y-35987234D01*
X183330467Y-35987235D01*
X183486227Y-36091310D01*
X183618690Y-36223773D01*
X183637398Y-36251772D01*
X183722766Y-36379534D01*
X183794454Y-36552605D01*
X183831000Y-36736333D01*
X183831000Y-36923667D01*
X183794454Y-37107395D01*
X183722766Y-37280466D01*
X183722765Y-37280467D01*
X183618690Y-37436227D01*
X183486227Y-37568690D01*
X183407818Y-37621081D01*
X183330466Y-37672766D01*
X183157395Y-37744454D01*
X182973667Y-37781000D01*
X182786333Y-37781000D01*
X182602605Y-37744454D01*
X182429534Y-37672766D01*
X182352182Y-37621081D01*
X182273773Y-37568690D01*
X182141310Y-37436227D01*
X182037235Y-37280467D01*
X182037234Y-37280466D01*
X181965546Y-37107395D01*
X181929000Y-36923667D01*
X181929000Y-36736333D01*
X181965546Y-36552605D01*
X182037234Y-36379534D01*
X182122602Y-36251772D01*
X182141310Y-36223773D01*
X182273773Y-36091310D01*
X182429533Y-35987235D01*
X182429534Y-35987234D01*
X182602605Y-35915546D01*
X182786333Y-35879000D01*
X182973667Y-35879000D01*
X183157395Y-35915546D01*
G37*
G36*
X91717395Y-35915546D02*
G01*
X91890466Y-35987234D01*
X91890467Y-35987235D01*
X92046227Y-36091310D01*
X92178690Y-36223773D01*
X92197398Y-36251772D01*
X92282766Y-36379534D01*
X92354454Y-36552605D01*
X92391000Y-36736333D01*
X92391000Y-36923667D01*
X92354454Y-37107395D01*
X92282766Y-37280466D01*
X92282765Y-37280467D01*
X92178690Y-37436227D01*
X92046227Y-37568690D01*
X91967818Y-37621081D01*
X91890466Y-37672766D01*
X91717395Y-37744454D01*
X91533667Y-37781000D01*
X91346333Y-37781000D01*
X91162605Y-37744454D01*
X90989534Y-37672766D01*
X90912182Y-37621081D01*
X90833773Y-37568690D01*
X90701310Y-37436227D01*
X90597235Y-37280467D01*
X90597234Y-37280466D01*
X90525546Y-37107395D01*
X90489000Y-36923667D01*
X90489000Y-36736333D01*
X90525546Y-36552605D01*
X90597234Y-36379534D01*
X90682602Y-36251772D01*
X90701310Y-36223773D01*
X90833773Y-36091310D01*
X90989533Y-35987235D01*
X90989534Y-35987234D01*
X91162605Y-35915546D01*
X91346333Y-35879000D01*
X91533667Y-35879000D01*
X91717395Y-35915546D01*
G37*
G36*
X69531000Y-37781000D02*
G01*
X67629000Y-37781000D01*
X67629000Y-35879000D01*
X69531000Y-35879000D01*
X69531000Y-37781000D01*
G37*
G36*
X77786000Y-37781000D02*
G01*
X75884000Y-37781000D01*
X75884000Y-35879000D01*
X77786000Y-35879000D01*
X77786000Y-37781000D01*
G37*
G36*
X190777395Y-35915546D02*
G01*
X190950466Y-35987234D01*
X190950467Y-35987235D01*
X191106227Y-36091310D01*
X191238690Y-36223773D01*
X191257398Y-36251772D01*
X191342766Y-36379534D01*
X191414454Y-36552605D01*
X191451000Y-36736333D01*
X191451000Y-36923667D01*
X191414454Y-37107395D01*
X191342766Y-37280466D01*
X191342765Y-37280467D01*
X191238690Y-37436227D01*
X191106227Y-37568690D01*
X191027818Y-37621081D01*
X190950466Y-37672766D01*
X190777395Y-37744454D01*
X190593667Y-37781000D01*
X190406333Y-37781000D01*
X190222605Y-37744454D01*
X190049534Y-37672766D01*
X189972182Y-37621081D01*
X189893773Y-37568690D01*
X189761310Y-37436227D01*
X189657235Y-37280467D01*
X189657234Y-37280466D01*
X189585546Y-37107395D01*
X189549000Y-36923667D01*
X189549000Y-36736333D01*
X189585546Y-36552605D01*
X189657234Y-36379534D01*
X189742602Y-36251772D01*
X189761310Y-36223773D01*
X189893773Y-36091310D01*
X190049533Y-35987235D01*
X190049534Y-35987234D01*
X190222605Y-35915546D01*
X190406333Y-35879000D01*
X190593667Y-35879000D01*
X190777395Y-35915546D01*
G37*
G36*
X167917395Y-35915546D02*
G01*
X168090466Y-35987234D01*
X168090467Y-35987235D01*
X168246227Y-36091310D01*
X168378690Y-36223773D01*
X168397398Y-36251772D01*
X168482766Y-36379534D01*
X168554454Y-36552605D01*
X168591000Y-36736333D01*
X168591000Y-36923667D01*
X168554454Y-37107395D01*
X168482766Y-37280466D01*
X168482765Y-37280467D01*
X168378690Y-37436227D01*
X168246227Y-37568690D01*
X168167818Y-37621081D01*
X168090466Y-37672766D01*
X167917395Y-37744454D01*
X167733667Y-37781000D01*
X167546333Y-37781000D01*
X167362605Y-37744454D01*
X167189534Y-37672766D01*
X167112182Y-37621081D01*
X167033773Y-37568690D01*
X166901310Y-37436227D01*
X166797235Y-37280467D01*
X166797234Y-37280466D01*
X166725546Y-37107395D01*
X166689000Y-36923667D01*
X166689000Y-36736333D01*
X166725546Y-36552605D01*
X166797234Y-36379534D01*
X166882602Y-36251772D01*
X166901310Y-36223773D01*
X167033773Y-36091310D01*
X167189533Y-35987235D01*
X167189534Y-35987234D01*
X167362605Y-35915546D01*
X167546333Y-35879000D01*
X167733667Y-35879000D01*
X167917395Y-35915546D01*
G37*
G36*
X198397395Y-35915546D02*
G01*
X198570466Y-35987234D01*
X198570467Y-35987235D01*
X198726227Y-36091310D01*
X198858690Y-36223773D01*
X198877398Y-36251772D01*
X198962766Y-36379534D01*
X199034454Y-36552605D01*
X199071000Y-36736333D01*
X199071000Y-36923667D01*
X199034454Y-37107395D01*
X198962766Y-37280466D01*
X198962765Y-37280467D01*
X198858690Y-37436227D01*
X198726227Y-37568690D01*
X198647818Y-37621081D01*
X198570466Y-37672766D01*
X198397395Y-37744454D01*
X198213667Y-37781000D01*
X198026333Y-37781000D01*
X197842605Y-37744454D01*
X197669534Y-37672766D01*
X197592182Y-37621081D01*
X197513773Y-37568690D01*
X197381310Y-37436227D01*
X197277235Y-37280467D01*
X197277234Y-37280466D01*
X197205546Y-37107395D01*
X197169000Y-36923667D01*
X197169000Y-36736333D01*
X197205546Y-36552605D01*
X197277234Y-36379534D01*
X197362602Y-36251772D01*
X197381310Y-36223773D01*
X197513773Y-36091310D01*
X197669533Y-35987235D01*
X197669534Y-35987234D01*
X197842605Y-35915546D01*
X198026333Y-35879000D01*
X198213667Y-35879000D01*
X198397395Y-35915546D01*
G37*
G36*
X129817395Y-35915546D02*
G01*
X129990466Y-35987234D01*
X129990467Y-35987235D01*
X130146227Y-36091310D01*
X130278690Y-36223773D01*
X130297398Y-36251772D01*
X130382766Y-36379534D01*
X130454454Y-36552605D01*
X130491000Y-36736333D01*
X130491000Y-36923667D01*
X130454454Y-37107395D01*
X130382766Y-37280466D01*
X130382765Y-37280467D01*
X130278690Y-37436227D01*
X130146227Y-37568690D01*
X130067818Y-37621081D01*
X129990466Y-37672766D01*
X129817395Y-37744454D01*
X129633667Y-37781000D01*
X129446333Y-37781000D01*
X129262605Y-37744454D01*
X129089534Y-37672766D01*
X129012182Y-37621081D01*
X128933773Y-37568690D01*
X128801310Y-37436227D01*
X128697235Y-37280467D01*
X128697234Y-37280466D01*
X128625546Y-37107395D01*
X128589000Y-36923667D01*
X128589000Y-36736333D01*
X128625546Y-36552605D01*
X128697234Y-36379534D01*
X128782602Y-36251772D01*
X128801310Y-36223773D01*
X128933773Y-36091310D01*
X129089533Y-35987235D01*
X129089534Y-35987234D01*
X129262605Y-35915546D01*
X129446333Y-35879000D01*
X129633667Y-35879000D01*
X129817395Y-35915546D01*
G37*
G36*
X137437395Y-35915546D02*
G01*
X137610466Y-35987234D01*
X137610467Y-35987235D01*
X137766227Y-36091310D01*
X137898690Y-36223773D01*
X137917398Y-36251772D01*
X138002766Y-36379534D01*
X138074454Y-36552605D01*
X138111000Y-36736333D01*
X138111000Y-36923667D01*
X138074454Y-37107395D01*
X138002766Y-37280466D01*
X138002765Y-37280467D01*
X137898690Y-37436227D01*
X137766227Y-37568690D01*
X137687818Y-37621081D01*
X137610466Y-37672766D01*
X137437395Y-37744454D01*
X137253667Y-37781000D01*
X137066333Y-37781000D01*
X136882605Y-37744454D01*
X136709534Y-37672766D01*
X136632182Y-37621081D01*
X136553773Y-37568690D01*
X136421310Y-37436227D01*
X136317235Y-37280467D01*
X136317234Y-37280466D01*
X136245546Y-37107395D01*
X136209000Y-36923667D01*
X136209000Y-36736333D01*
X136245546Y-36552605D01*
X136317234Y-36379534D01*
X136402602Y-36251772D01*
X136421310Y-36223773D01*
X136553773Y-36091310D01*
X136709533Y-35987235D01*
X136709534Y-35987234D01*
X136882605Y-35915546D01*
X137066333Y-35879000D01*
X137253667Y-35879000D01*
X137437395Y-35915546D01*
G37*
G36*
X160297395Y-35915546D02*
G01*
X160470466Y-35987234D01*
X160470467Y-35987235D01*
X160626227Y-36091310D01*
X160758690Y-36223773D01*
X160777398Y-36251772D01*
X160862766Y-36379534D01*
X160934454Y-36552605D01*
X160971000Y-36736333D01*
X160971000Y-36923667D01*
X160934454Y-37107395D01*
X160862766Y-37280466D01*
X160862765Y-37280467D01*
X160758690Y-37436227D01*
X160626227Y-37568690D01*
X160547818Y-37621081D01*
X160470466Y-37672766D01*
X160297395Y-37744454D01*
X160113667Y-37781000D01*
X159926333Y-37781000D01*
X159742605Y-37744454D01*
X159569534Y-37672766D01*
X159492182Y-37621081D01*
X159413773Y-37568690D01*
X159281310Y-37436227D01*
X159177235Y-37280467D01*
X159177234Y-37280466D01*
X159105546Y-37107395D01*
X159069000Y-36923667D01*
X159069000Y-36736333D01*
X159105546Y-36552605D01*
X159177234Y-36379534D01*
X159262602Y-36251772D01*
X159281310Y-36223773D01*
X159413773Y-36091310D01*
X159569533Y-35987235D01*
X159569534Y-35987234D01*
X159742605Y-35915546D01*
X159926333Y-35879000D01*
X160113667Y-35879000D01*
X160297395Y-35915546D01*
G37*
G36*
X206017395Y-35915546D02*
G01*
X206190466Y-35987234D01*
X206190467Y-35987235D01*
X206346227Y-36091310D01*
X206478690Y-36223773D01*
X206497398Y-36251772D01*
X206582766Y-36379534D01*
X206654454Y-36552605D01*
X206691000Y-36736333D01*
X206691000Y-36923667D01*
X206654454Y-37107395D01*
X206582766Y-37280466D01*
X206582765Y-37280467D01*
X206478690Y-37436227D01*
X206346227Y-37568690D01*
X206267818Y-37621081D01*
X206190466Y-37672766D01*
X206017395Y-37744454D01*
X205833667Y-37781000D01*
X205646333Y-37781000D01*
X205462605Y-37744454D01*
X205289534Y-37672766D01*
X205212182Y-37621081D01*
X205133773Y-37568690D01*
X205001310Y-37436227D01*
X204897235Y-37280467D01*
X204897234Y-37280466D01*
X204825546Y-37107395D01*
X204789000Y-36923667D01*
X204789000Y-36736333D01*
X204825546Y-36552605D01*
X204897234Y-36379534D01*
X204982602Y-36251772D01*
X205001310Y-36223773D01*
X205133773Y-36091310D01*
X205289533Y-35987235D01*
X205289534Y-35987234D01*
X205462605Y-35915546D01*
X205646333Y-35879000D01*
X205833667Y-35879000D01*
X206017395Y-35915546D01*
G37*
G36*
X122197395Y-35915546D02*
G01*
X122370466Y-35987234D01*
X122370467Y-35987235D01*
X122526227Y-36091310D01*
X122658690Y-36223773D01*
X122677398Y-36251772D01*
X122762766Y-36379534D01*
X122834454Y-36552605D01*
X122871000Y-36736333D01*
X122871000Y-36923667D01*
X122834454Y-37107395D01*
X122762766Y-37280466D01*
X122762765Y-37280467D01*
X122658690Y-37436227D01*
X122526227Y-37568690D01*
X122447818Y-37621081D01*
X122370466Y-37672766D01*
X122197395Y-37744454D01*
X122013667Y-37781000D01*
X121826333Y-37781000D01*
X121642605Y-37744454D01*
X121469534Y-37672766D01*
X121392182Y-37621081D01*
X121313773Y-37568690D01*
X121181310Y-37436227D01*
X121077235Y-37280467D01*
X121077234Y-37280466D01*
X121005546Y-37107395D01*
X120969000Y-36923667D01*
X120969000Y-36736333D01*
X121005546Y-36552605D01*
X121077234Y-36379534D01*
X121162602Y-36251772D01*
X121181310Y-36223773D01*
X121313773Y-36091310D01*
X121469533Y-35987235D01*
X121469534Y-35987234D01*
X121642605Y-35915546D01*
X121826333Y-35879000D01*
X122013667Y-35879000D01*
X122197395Y-35915546D01*
G37*
G36*
X145057395Y-35915546D02*
G01*
X145230466Y-35987234D01*
X145230467Y-35987235D01*
X145386227Y-36091310D01*
X145518690Y-36223773D01*
X145537398Y-36251772D01*
X145622766Y-36379534D01*
X145694454Y-36552605D01*
X145731000Y-36736333D01*
X145731000Y-36923667D01*
X145694454Y-37107395D01*
X145622766Y-37280466D01*
X145622765Y-37280467D01*
X145518690Y-37436227D01*
X145386227Y-37568690D01*
X145307818Y-37621081D01*
X145230466Y-37672766D01*
X145057395Y-37744454D01*
X144873667Y-37781000D01*
X144686333Y-37781000D01*
X144502605Y-37744454D01*
X144329534Y-37672766D01*
X144252182Y-37621081D01*
X144173773Y-37568690D01*
X144041310Y-37436227D01*
X143937235Y-37280467D01*
X143937234Y-37280466D01*
X143865546Y-37107395D01*
X143829000Y-36923667D01*
X143829000Y-36736333D01*
X143865546Y-36552605D01*
X143937234Y-36379534D01*
X144022602Y-36251772D01*
X144041310Y-36223773D01*
X144173773Y-36091310D01*
X144329533Y-35987235D01*
X144329534Y-35987234D01*
X144502605Y-35915546D01*
X144686333Y-35879000D01*
X144873667Y-35879000D01*
X145057395Y-35915546D01*
G37*
G36*
X152677395Y-35915546D02*
G01*
X152850466Y-35987234D01*
X152850467Y-35987235D01*
X153006227Y-36091310D01*
X153138690Y-36223773D01*
X153157398Y-36251772D01*
X153242766Y-36379534D01*
X153314454Y-36552605D01*
X153351000Y-36736333D01*
X153351000Y-36923667D01*
X153314454Y-37107395D01*
X153242766Y-37280466D01*
X153242765Y-37280467D01*
X153138690Y-37436227D01*
X153006227Y-37568690D01*
X152927818Y-37621081D01*
X152850466Y-37672766D01*
X152677395Y-37744454D01*
X152493667Y-37781000D01*
X152306333Y-37781000D01*
X152122605Y-37744454D01*
X151949534Y-37672766D01*
X151872182Y-37621081D01*
X151793773Y-37568690D01*
X151661310Y-37436227D01*
X151557235Y-37280467D01*
X151557234Y-37280466D01*
X151485546Y-37107395D01*
X151449000Y-36923667D01*
X151449000Y-36736333D01*
X151485546Y-36552605D01*
X151557234Y-36379534D01*
X151642602Y-36251772D01*
X151661310Y-36223773D01*
X151793773Y-36091310D01*
X151949533Y-35987235D01*
X151949534Y-35987234D01*
X152122605Y-35915546D01*
X152306333Y-35879000D01*
X152493667Y-35879000D01*
X152677395Y-35915546D01*
G37*
G36*
X246628228Y-35681703D02*
G01*
X246783100Y-35745853D01*
X246922481Y-35838985D01*
X247041015Y-35957519D01*
X247134147Y-36096900D01*
X247198297Y-36251772D01*
X247231000Y-36416184D01*
X247231000Y-36583816D01*
X247198297Y-36748228D01*
X247134147Y-36903100D01*
X247041015Y-37042481D01*
X246922481Y-37161015D01*
X246783100Y-37254147D01*
X246628228Y-37318297D01*
X246463816Y-37351000D01*
X246296184Y-37351000D01*
X246131772Y-37318297D01*
X245976900Y-37254147D01*
X245837519Y-37161015D01*
X245718985Y-37042481D01*
X245625853Y-36903100D01*
X245561703Y-36748228D01*
X245529000Y-36583816D01*
X245529000Y-36416184D01*
X245561703Y-36251772D01*
X245625853Y-36096900D01*
X245718985Y-35957519D01*
X245837519Y-35838985D01*
X245976900Y-35745853D01*
X246131772Y-35681703D01*
X246296184Y-35649000D01*
X246463816Y-35649000D01*
X246628228Y-35681703D01*
G37*
G36*
X92391000Y-35241000D02*
G01*
X90489000Y-35241000D01*
X90489000Y-33339000D01*
X92391000Y-33339000D01*
X92391000Y-35241000D01*
G37*
G36*
X68857395Y-33375546D02*
G01*
X69030466Y-33447234D01*
X69030467Y-33447235D01*
X69186227Y-33551310D01*
X69318690Y-33683773D01*
X69318691Y-33683775D01*
X69422766Y-33839534D01*
X69494454Y-34012605D01*
X69531000Y-34196333D01*
X69531000Y-34383667D01*
X69494454Y-34567395D01*
X69422766Y-34740466D01*
X69422765Y-34740467D01*
X69318690Y-34896227D01*
X69186227Y-35028690D01*
X69107818Y-35081081D01*
X69030466Y-35132766D01*
X68857395Y-35204454D01*
X68673667Y-35241000D01*
X68486333Y-35241000D01*
X68302605Y-35204454D01*
X68129534Y-35132766D01*
X68052182Y-35081081D01*
X67973773Y-35028690D01*
X67841310Y-34896227D01*
X67737235Y-34740467D01*
X67737234Y-34740466D01*
X67665546Y-34567395D01*
X67629000Y-34383667D01*
X67629000Y-34196333D01*
X67665546Y-34012605D01*
X67737234Y-33839534D01*
X67841309Y-33683775D01*
X67841310Y-33683773D01*
X67973773Y-33551310D01*
X68129533Y-33447235D01*
X68129534Y-33447234D01*
X68302605Y-33375546D01*
X68486333Y-33339000D01*
X68673667Y-33339000D01*
X68857395Y-33375546D01*
G37*
G36*
X77112395Y-33375546D02*
G01*
X77285466Y-33447234D01*
X77285467Y-33447235D01*
X77441227Y-33551310D01*
X77573690Y-33683773D01*
X77573691Y-33683775D01*
X77677766Y-33839534D01*
X77749454Y-34012605D01*
X77786000Y-34196333D01*
X77786000Y-34383667D01*
X77749454Y-34567395D01*
X77677766Y-34740466D01*
X77677765Y-34740467D01*
X77573690Y-34896227D01*
X77441227Y-35028690D01*
X77362818Y-35081081D01*
X77285466Y-35132766D01*
X77112395Y-35204454D01*
X76928667Y-35241000D01*
X76741333Y-35241000D01*
X76557605Y-35204454D01*
X76384534Y-35132766D01*
X76307182Y-35081081D01*
X76228773Y-35028690D01*
X76096310Y-34896227D01*
X75992235Y-34740467D01*
X75992234Y-34740466D01*
X75920546Y-34567395D01*
X75884000Y-34383667D01*
X75884000Y-34196333D01*
X75920546Y-34012605D01*
X75992234Y-33839534D01*
X76096309Y-33683775D01*
X76096310Y-33683773D01*
X76228773Y-33551310D01*
X76384533Y-33447235D01*
X76384534Y-33447234D01*
X76557605Y-33375546D01*
X76741333Y-33339000D01*
X76928667Y-33339000D01*
X77112395Y-33375546D01*
G37*
G36*
X206691000Y-35241000D02*
G01*
X204789000Y-35241000D01*
X204789000Y-33339000D01*
X206691000Y-33339000D01*
X206691000Y-35241000D01*
G37*
G36*
X160971000Y-35241000D02*
G01*
X159069000Y-35241000D01*
X159069000Y-33339000D01*
X160971000Y-33339000D01*
X160971000Y-35241000D01*
G37*
G36*
X199071000Y-35241000D02*
G01*
X197169000Y-35241000D01*
X197169000Y-33339000D01*
X199071000Y-33339000D01*
X199071000Y-35241000D01*
G37*
G36*
X191451000Y-35241000D02*
G01*
X189549000Y-35241000D01*
X189549000Y-33339000D01*
X191451000Y-33339000D01*
X191451000Y-35241000D01*
G37*
G36*
X138111000Y-35241000D02*
G01*
X136209000Y-35241000D01*
X136209000Y-33339000D01*
X138111000Y-33339000D01*
X138111000Y-35241000D01*
G37*
G36*
X183831000Y-35241000D02*
G01*
X181929000Y-35241000D01*
X181929000Y-33339000D01*
X183831000Y-33339000D01*
X183831000Y-35241000D01*
G37*
G36*
X130491000Y-35241000D02*
G01*
X128589000Y-35241000D01*
X128589000Y-33339000D01*
X130491000Y-33339000D01*
X130491000Y-35241000D01*
G37*
G36*
X122871000Y-35241000D02*
G01*
X120969000Y-35241000D01*
X120969000Y-33339000D01*
X122871000Y-33339000D01*
X122871000Y-35241000D01*
G37*
G36*
X176211000Y-35241000D02*
G01*
X174309000Y-35241000D01*
X174309000Y-33339000D01*
X176211000Y-33339000D01*
X176211000Y-35241000D01*
G37*
G36*
X168591000Y-35241000D02*
G01*
X166689000Y-35241000D01*
X166689000Y-33339000D01*
X168591000Y-33339000D01*
X168591000Y-35241000D01*
G37*
G36*
X145731000Y-35241000D02*
G01*
X143829000Y-35241000D01*
X143829000Y-33339000D01*
X145731000Y-33339000D01*
X145731000Y-35241000D01*
G37*
G36*
X115251000Y-35241000D02*
G01*
X113349000Y-35241000D01*
X113349000Y-33339000D01*
X115251000Y-33339000D01*
X115251000Y-35241000D01*
G37*
G36*
X153351000Y-35241000D02*
G01*
X151449000Y-35241000D01*
X151449000Y-33339000D01*
X153351000Y-33339000D01*
X153351000Y-35241000D01*
G37*
G36*
X107631000Y-35241000D02*
G01*
X105729000Y-35241000D01*
X105729000Y-33339000D01*
X107631000Y-33339000D01*
X107631000Y-35241000D01*
G37*
G36*
X100011000Y-35241000D02*
G01*
X98109000Y-35241000D01*
X98109000Y-33339000D01*
X100011000Y-33339000D01*
X100011000Y-35241000D01*
G37*
G36*
X248398254Y-27707818D02*
G01*
X248771511Y-27862426D01*
X248771513Y-27862427D01*
X249107436Y-28086884D01*
X249393116Y-28372564D01*
X249617574Y-28708489D01*
X249772182Y-29081746D01*
X249851000Y-29477993D01*
X249851000Y-29882007D01*
X249772182Y-30278254D01*
X249617574Y-30651511D01*
X249617573Y-30651513D01*
X249393116Y-30987436D01*
X249107436Y-31273116D01*
X248771513Y-31497573D01*
X248771512Y-31497574D01*
X248771511Y-31497574D01*
X248398254Y-31652182D01*
X248002007Y-31731000D01*
X247597993Y-31731000D01*
X247201746Y-31652182D01*
X246828489Y-31497574D01*
X246828488Y-31497574D01*
X246828487Y-31497573D01*
X246492564Y-31273116D01*
X246206884Y-30987436D01*
X245982427Y-30651513D01*
X245982426Y-30651511D01*
X245827818Y-30278254D01*
X245749000Y-29882007D01*
X245749000Y-29477993D01*
X245827818Y-29081746D01*
X245982426Y-28708489D01*
X246206884Y-28372564D01*
X246492564Y-28086884D01*
X246828487Y-27862427D01*
X246828489Y-27862426D01*
X247201746Y-27707818D01*
X247597993Y-27629000D01*
X248002007Y-27629000D01*
X248398254Y-27707818D01*
G37*
M02*
