M48
; DRILL file {KiCad 5.1.5-52549c5~84~ubuntu18.04.1} date Sun 17 May 2020 03:57:09 PM PDT
; FORMAT={-:-/ absolute / inch / decimal}
; #@! TF.CreationDate,2020-05-17T15:57:09-07:00
; #@! TF.GenerationSoftware,Kicad,Pcbnew,5.1.5-52549c5~84~ubuntu18.04.1
FMAT,2
INCH
T1C0.0157
T2C0.0315
T3C0.0354
T4C0.0394
T5C0.1260
%
G90
G05
T1
X1.975Y-4.525
X2.025Y-4.575
X2.0965Y-2.9035
X2.1Y-5.525
X2.125Y-2.975
X2.1965Y-4.9535
X2.275Y-2.525
X2.2756Y-4.5994
X2.2768Y-4.2482
X2.35Y-4.5134
X2.3978Y-4.925
X2.3982Y-2.4482
X2.3982Y-2.7482
X2.3988Y-2.5762
X2.3988Y-4.5738
X2.3988Y-5.2762
X2.3994Y-2.4994
X2.3994Y-2.7994
X2.3994Y-2.8506
X2.4Y-4.325
X2.4Y-4.625
X2.425Y-2.9422
X2.475Y-2.85
X2.5Y-4.25
X2.5Y-4.325
X2.5433Y-2.9433
X2.55Y-2.4134
X2.55Y-2.7134
X2.55Y-4.2134
X2.55Y-4.5134
X2.55Y-4.8134
X2.55Y-5.1134
X2.6232Y-4.4018
X2.6238Y-4.5738
X2.625Y-2.7
X2.625Y-2.95
X2.625Y-4.8533
X2.65Y-5.3
X2.675Y-3.4
X2.675Y-4.3172
X2.675Y-4.9711
X2.6756Y-2.8506
X2.6756Y-3.1506
X2.6756Y-5.1994
X2.6762Y-4.2738
X2.6925Y-3.9075
X2.7147Y-3.0103
X2.75Y-3.6134
X2.75Y-4.2134
X2.75Y-5.1134
X2.7874Y-2.4926
X2.7982Y-3.9482
X2.7982Y-4.5482
X2.7982Y-4.8482
X2.7988Y-3.6738
X2.7988Y-3.7762
X2.7988Y-4.0762
X2.7988Y-5.1738
X2.8Y-4.025
X2.8Y-4.325
X2.8Y-4.625
X2.8Y-5.225
X2.8Y-5.225
X2.8228Y-2.85
X2.8228Y-3.15
X2.8238Y-2.5762
X2.8488Y-3.4762
X2.8512Y-3.3738
X2.8715Y-4.8035
X2.8982Y-2.4482
X2.8994Y-4.9506
X2.9Y-2.5
X2.9Y-2.825
X2.9Y-3.125
X2.9Y-3.425
X2.9Y-3.8
X2.9Y-4.1
X2.9Y-4.325
X2.9Y-4.725
X2.9Y-4.9089
X2.9Y-5.475
X2.9006Y-3.6994
X2.9012Y-2.8762
X2.9012Y-3.1762
X2.9012Y-3.9738
X2.9012Y-4.3762
X2.9012Y-5.1738
X2.9017Y-3.4733
X2.9039Y-3.65
X2.95Y-2.4134
X2.95Y-2.7134
X2.95Y-3.0134
X2.95Y-3.3134
X2.95Y-3.6134
X2.95Y-3.9134
X2.95Y-4.2134
X2.95Y-4.5134
X2.95Y-4.8134
X2.95Y-5.1134
X3.0232Y-3.5018
X3.0232Y-3.8018
X3.0232Y-4.1018
X3.0232Y-5.3018
X3.0244Y-2.8506
X3.0244Y-3.1506
X3.0244Y-3.3994
X3.0244Y-3.7506
X3.0244Y-3.9994
X3.025Y-3.7045
X3.0297Y-3.6453
X3.0453Y-5.1453
X3.075Y-3.725
X3.075Y-4.6711
X3.075Y-4.8687
X3.075Y-4.9199
X3.075Y-4.9711
X3.075Y-5.2711
X3.0756Y-2.8506
X3.0756Y-3.1506
X3.0762Y-4.3762
X3.0768Y-3.3482
X3.0768Y-4.2482
X3.1147Y-3.0103
X3.1498Y-4.7752
X3.15Y-4.5134
X3.15Y-5.1134
X3.1723Y-3.275
X3.1752Y-3.6002
X3.1874Y-2.4926
X3.1961Y-4.85
X3.1988Y-3.3738
X3.1988Y-3.4762
X3.1988Y-3.9738
X3.1988Y-4.2738
X3.1988Y-5.2762
X3.1994Y-3.6994
X3.2Y-4.925
X3.2215Y-4.0535
X3.2228Y-2.85
X3.2228Y-3.15
X3.2238Y-2.5762
X3.225Y-4.575
X3.2274Y-4.2024
X3.25Y-3.825
X3.25Y-5.2105
X3.2718Y-5.0718
X3.2875Y-4.9375
X3.2982Y-2.4482
X3.3Y-2.5
X3.3Y-2.825
X3.3Y-3.125
X3.3Y-4.025
X3.3Y-4.1
X3.3Y-4.3
X3.3Y-4.375
X3.3Y-4.6
X3.3006Y-3.4506
X3.3006Y-3.7506
X3.3006Y-5.2506
X3.3012Y-2.8762
X3.3012Y-3.1762
X3.3012Y-4.9762
X3.3028Y-4.9
X3.3028Y-5.2
X3.35Y-2.4134
X3.35Y-2.7134
X3.35Y-3.0134
X3.35Y-3.3134
X3.35Y-3.6134
X3.35Y-3.9134
X3.35Y-4.2134
X3.35Y-4.5134
X3.35Y-4.8134
X3.35Y-5.1134
X3.4238Y-3.4762
X3.4238Y-4.3762
X3.4244Y-2.8506
X3.4244Y-3.1506
X3.425Y-3.425
X3.425Y-3.725
X3.4465Y-3.8535
X3.45Y-5.1
X3.475Y-3.4
X3.475Y-4.3172
X3.475Y-4.9711
X3.475Y-5.2557
X3.4756Y-2.8506
X3.4756Y-3.1506
X3.4762Y-4.2738
X3.4762Y-4.6762
X3.5043Y-4.5
X3.5147Y-3.0103
X3.55Y-3.6134
X3.55Y-4.2134
X3.55Y-5.1134
X3.5503Y-3.9075
X3.5874Y-2.4926
X3.5982Y-3.9482
X3.5982Y-4.8482
X3.5988Y-3.6738
X3.5988Y-3.7762
X3.5988Y-4.0762
X3.5992Y-4.6008
X3.5994Y-5.2506
X3.6Y-4.025
X3.6Y-4.325
X3.6228Y-2.85
X3.6228Y-3.15
X3.6238Y-2.5762
X3.6488Y-3.4762
X3.6512Y-3.3738
X3.6625Y-5.2625
X3.6848Y-4.7848
X3.6982Y-2.4482
X3.6994Y-4.9506
X3.7Y-2.5
X3.7Y-2.825
X3.7Y-3.125
X3.7Y-3.425
X3.7Y-3.8
X3.7Y-4.1
X3.7Y-4.325
X3.7Y-4.9089
X3.7Y-5.2
X3.7006Y-3.6994
X3.7012Y-2.8762
X3.7012Y-3.1762
X3.7012Y-3.9738
X3.7012Y-4.3762
X3.7012Y-4.6762
X3.7017Y-3.4733
X3.7028Y-4.6
X3.7039Y-3.65
X3.7039Y-5.15
X3.7039Y-5.3
X3.75Y-2.4134
X3.75Y-2.7134
X3.75Y-3.0134
X3.75Y-3.3134
X3.75Y-3.6134
X3.75Y-3.9134
X3.75Y-4.2134
X3.75Y-4.5134
X3.75Y-4.8134
X3.75Y-5.1134
X3.8232Y-3.5018
X3.8232Y-3.8018
X3.8232Y-4.1018
X3.8232Y-5.3018
X3.8244Y-2.8506
X3.8244Y-3.1506
X3.8244Y-3.3994
X3.8244Y-3.7506
X3.8244Y-3.9994
X3.825Y-3.7045
X3.8297Y-3.6453
X3.8655Y-3.7655
X3.875Y-3.725
X3.875Y-4.625
X3.875Y-4.6711
X3.875Y-5.2711
X3.8756Y-2.8506
X3.8756Y-3.1506
X3.8762Y-3.6738
X3.8762Y-4.3762
X3.8762Y-4.8738
X3.8762Y-4.9762
X3.8768Y-3.3482
X3.8768Y-4.2482
X3.9147Y-3.0103
X3.95Y-5.1134
X3.9567Y-4.8067
X3.975Y-3.3
X3.9874Y-2.4926
X3.9982Y-4.5482
X3.9988Y-3.3738
X3.9988Y-3.4762
X3.9988Y-3.9738
X3.9988Y-4.2738
X3.9988Y-5.2762
X3.9994Y-3.6994
X3.9994Y-4.8256
X3.9994Y-4.9506
X4.0Y-3.575
X4.0215Y-4.0535
X4.0228Y-2.85
X4.0228Y-3.15
X4.0238Y-2.5762
X4.0482Y-4.5768
X4.05Y-5.2105
X4.0961Y-4.9711
X4.0982Y-2.4482
X4.1Y-2.5
X4.1Y-2.825
X4.1Y-3.125
X4.1Y-4.025
X4.1Y-4.1
X4.1Y-4.3
X4.1Y-4.375
X4.1Y-4.625
X4.1Y-4.925
X4.1006Y-3.4506
X4.1006Y-3.7506
X4.1006Y-5.2506
X4.1012Y-2.8762
X4.1012Y-3.1762
X4.1028Y-5.2
X4.1045Y-4.725
X4.15Y-2.4134
X4.15Y-2.7134
X4.15Y-3.0134
X4.15Y-3.3134
X4.15Y-3.6134
X4.15Y-3.9134
X4.15Y-4.2134
X4.15Y-4.5134
X4.15Y-4.8134
X4.15Y-5.0366
X4.15Y-5.1134
X4.175Y-5.425
X4.2Y-5.05
X4.2075Y-4.8075
X4.2238Y-3.4762
X4.2238Y-4.3762
X4.2244Y-2.8506
X4.2244Y-3.1506
X4.2244Y-4.5994
X4.225Y-3.425
X4.225Y-3.725
X4.225Y-4.9557
X4.25Y-3.275
X4.25Y-5.05
X4.275Y-3.4
X4.275Y-4.3172
X4.275Y-4.9711
X4.2756Y-2.8506
X4.2756Y-3.1506
X4.2762Y-4.2738
X4.2762Y-5.2762
X4.2925Y-3.9075
X4.3147Y-3.0103
X4.35Y-3.6134
X4.35Y-4.2134
X4.35Y-5.1134
X4.3874Y-2.4926
X4.3982Y-3.9482
X4.3982Y-4.5482
X4.3982Y-4.8482
X4.3988Y-3.6738
X4.3988Y-3.7762
X4.3988Y-4.0762
X4.3994Y-5.2506
X4.4Y-4.025
X4.4Y-4.325
X4.4Y-4.625
X4.4228Y-2.85
X4.4228Y-3.15
X4.4238Y-2.5762
X4.425Y-5.45
X4.4488Y-3.4762
X4.4512Y-3.3738
X4.4982Y-2.4482
X4.4994Y-4.9506
X4.5Y-2.5
X4.5Y-2.825
X4.5Y-3.125
X4.5Y-3.425
X4.5Y-3.8
X4.5Y-4.1
X4.5Y-4.325
X4.5Y-4.725
X4.5Y-4.9089
X4.5Y-5.225
X4.5Y-5.45
X4.5006Y-3.6994
X4.5012Y-2.8762
X4.5012Y-3.1762
X4.5012Y-3.9738
X4.5012Y-4.3762
X4.5012Y-5.1738
X4.5017Y-3.4733
X4.5018Y-5.3018
X4.5039Y-3.65
X4.55Y-2.4134
X4.55Y-2.7134
X4.55Y-3.0134
X4.55Y-3.3134
X4.55Y-3.6134
X4.55Y-3.9134
X4.55Y-4.2134
X4.55Y-4.5134
X4.55Y-4.8134
X4.55Y-5.1134
X4.6232Y-3.5018
X4.6232Y-3.8018
X4.6232Y-4.1018
X4.6244Y-2.8506
X4.6244Y-3.1506
X4.6244Y-3.3994
X4.6244Y-3.7506
X4.6244Y-3.9994
X4.625Y-3.7045
X4.625Y-5.1
X4.625Y-5.275
X4.6297Y-3.6453
X4.6375Y-5.1875
X4.675Y-3.725
X4.675Y-4.6711
X4.675Y-4.8687
X4.675Y-4.9199
X4.675Y-4.9711
X4.675Y-5.2711
X4.6756Y-2.8506
X4.6756Y-3.1506
X4.6762Y-4.3762
X4.6768Y-3.3482
X4.6768Y-4.2482
X4.7147Y-3.0103
X4.75Y-4.5134
X4.75Y-5.1134
X4.775Y-3.3
X4.775Y-5.45
X4.7752Y-3.5752
X4.7874Y-2.4926
X4.7961Y-4.85
X4.7988Y-3.3738
X4.7988Y-3.4762
X4.7988Y-3.9738
X4.7988Y-4.2738
X4.7988Y-5.2762
X4.7994Y-3.6994
X4.8Y-4.775
X4.8Y-4.925
X4.8215Y-4.0535
X4.8228Y-2.85
X4.8228Y-3.15
X4.8238Y-2.5762
X4.825Y-4.575
X4.85Y-5.1
X4.85Y-5.2105
X4.8875Y-4.9375
X4.8982Y-2.4482
X4.9Y-2.5
X4.9Y-2.825
X4.9Y-3.125
X4.9Y-4.025
X4.9Y-4.1
X4.9Y-4.3
X4.9Y-4.375
X4.9Y-4.6
X4.9006Y-3.4506
X4.9006Y-3.7506
X4.9006Y-5.2506
X4.9012Y-2.8762
X4.9012Y-3.1762
X4.9012Y-4.9762
X4.9028Y-4.9
X4.9028Y-5.2
X4.95Y-2.4134
X4.95Y-2.7134
X4.95Y-3.0134
X4.95Y-3.3134
X4.95Y-3.6134
X4.95Y-3.9134
X4.95Y-4.2134
X4.95Y-4.5134
X4.95Y-4.8134
X4.95Y-5.1134
X5.0Y-3.875
X5.0Y-4.175
X5.0238Y-3.4762
X5.0238Y-4.3762
X5.0244Y-2.8506
X5.0244Y-3.1506
X5.025Y-3.425
X5.025Y-3.725
X5.05Y-5.05
X5.0625Y-4.0875
X5.075Y-3.4
X5.075Y-4.3172
X5.075Y-4.9711
X5.0756Y-2.8506
X5.0756Y-3.1506
X5.0762Y-4.2738
X5.0762Y-4.6762
X5.0925Y-3.9075
X5.1043Y-4.5
X5.1147Y-3.0103
X5.15Y-3.6134
X5.15Y-4.2134
X5.15Y-5.1134
X5.1874Y-2.4926
X5.1982Y-3.9482
X5.1982Y-4.8482
X5.1988Y-3.6738
X5.1988Y-3.7762
X5.1988Y-4.0762
X5.1992Y-4.6008
X5.1994Y-5.2506
X5.2Y-4.025
X5.2Y-4.325
X5.2228Y-2.85
X5.2228Y-3.15
X5.2238Y-2.5762
X5.2488Y-3.4762
X5.25Y-5.125
X5.2512Y-3.3738
X5.2982Y-2.4482
X5.2994Y-4.9506
X5.3Y-2.5
X5.3Y-2.825
X5.3Y-3.125
X5.3Y-3.425
X5.3Y-3.8
X5.3Y-4.1
X5.3Y-4.325
X5.3Y-4.9089
X5.3006Y-3.6994
X5.3012Y-2.8762
X5.3012Y-3.1762
X5.3012Y-3.9738
X5.3012Y-4.3762
X5.3012Y-4.6762
X5.3012Y-5.1738
X5.3017Y-3.4733
X5.3028Y-4.6
X5.3039Y-3.65
X5.3113Y-5.2137
X5.35Y-2.4134
X5.35Y-2.7134
X5.35Y-3.0134
X5.35Y-3.3134
X5.35Y-3.6134
X5.35Y-3.9134
X5.35Y-4.2134
X5.35Y-4.5134
X5.35Y-4.8134
X5.35Y-5.1134
X5.4232Y-3.5018
X5.4232Y-3.8018
X5.4232Y-4.1018
X5.4232Y-5.3018
X5.4244Y-2.8506
X5.4244Y-3.1506
X5.4244Y-3.3994
X5.4244Y-3.7506
X5.4244Y-3.9994
X5.425Y-3.7045
X5.425Y-4.175
X5.4297Y-3.6453
X5.475Y-3.725
X5.475Y-4.625
X5.475Y-4.6711
X5.475Y-5.05
X5.475Y-5.2711
X5.4756Y-2.8506
X5.4756Y-3.1506
X5.4762Y-3.6738
X5.4762Y-4.3762
X5.4762Y-4.8738
X5.4762Y-4.9762
X5.4768Y-3.3482
X5.4768Y-4.2482
X5.5125Y-4.7625
X5.5147Y-3.0103
X5.55Y-5.1134
X5.5567Y-4.8067
X5.5874Y-2.4926
X5.5982Y-4.5482
X5.5988Y-3.3738
X5.5988Y-3.4762
X5.5988Y-3.9738
X5.5988Y-4.2738
X5.5988Y-5.2762
X5.5994Y-3.6994
X5.5994Y-4.9506
X5.6Y-3.3
X5.6Y-4.45
X5.6215Y-4.0535
X5.6228Y-2.85
X5.6228Y-3.15
X5.6238Y-2.5762
X5.6482Y-4.5768
X5.65Y-5.2105
X5.6961Y-4.9711
X5.6982Y-2.4482
X5.7Y-2.5
X5.7Y-2.825
X5.7Y-3.125
X5.7Y-4.025
X5.7Y-4.1
X5.7Y-4.3
X5.7Y-4.375
X5.7Y-4.625
X5.7Y-4.925
X5.7006Y-3.4506
X5.7006Y-3.7506
X5.7006Y-5.2506
X5.7012Y-2.8762
X5.7012Y-3.1762
X5.7028Y-5.2
X5.7045Y-4.725
X5.75Y-2.4134
X5.75Y-2.7134
X5.75Y-3.0134
X5.75Y-3.3134
X5.75Y-3.6134
X5.75Y-3.9134
X5.75Y-4.2134
X5.75Y-4.5134
X5.75Y-4.8134
X5.75Y-5.0366
X5.75Y-5.1134
X5.8Y-3.575
X5.8238Y-3.4762
X5.8238Y-4.3762
X5.8244Y-2.8506
X5.8244Y-3.1506
X5.8244Y-4.5994
X5.825Y-3.425
X5.825Y-3.725
X5.825Y-4.8789
X5.825Y-4.9557
X5.8459Y-5.1291
X5.85Y-3.275
X5.8744Y-5.2506
X5.875Y-3.4
X5.875Y-4.3172
X5.875Y-4.9711
X5.8756Y-2.8506
X5.8756Y-3.1506
X5.8756Y-5.1994
X5.8762Y-4.2738
X5.8925Y-3.9075
X5.9147Y-3.0103
X5.95Y-3.6134
X5.95Y-4.2134
X5.95Y-5.1134
X5.9874Y-2.4926
X5.9982Y-3.9482
X5.9982Y-4.5482
X5.9982Y-4.8482
X5.9984Y-5.2
X5.9988Y-3.6738
X5.9988Y-3.7762
X5.9988Y-4.0762
X6.0Y-4.025
X6.0Y-4.325
X6.0Y-4.625
X6.0228Y-2.85
X6.0228Y-3.15
X6.0238Y-2.5762
X6.0488Y-3.4762
X6.0512Y-3.3738
X6.0982Y-2.4482
X6.0994Y-4.9506
X6.1Y-2.5
X6.1Y-2.825
X6.1Y-3.125
X6.1Y-3.425
X6.1Y-3.8
X6.1Y-4.1
X6.1Y-4.325
X6.1Y-4.725
X6.1Y-4.9089
X6.1006Y-3.6994
X6.1012Y-2.8762
X6.1012Y-3.1762
X6.1012Y-3.9738
X6.1012Y-4.3762
X6.1017Y-3.4733
X6.1039Y-3.65
X6.15Y-2.4134
X6.15Y-2.7134
X6.15Y-3.0134
X6.15Y-3.3134
X6.15Y-3.6134
X6.15Y-3.9134
X6.15Y-4.2134
X6.15Y-4.5134
X6.15Y-4.8134
X6.15Y-5.1134
X6.2232Y-3.5018
X6.2232Y-3.8018
X6.2232Y-4.1018
X6.2232Y-5.3018
X6.2238Y-5.1738
X6.2244Y-2.8506
X6.2244Y-3.1506
X6.2244Y-3.3994
X6.2244Y-3.7506
X6.2244Y-3.9994
X6.225Y-3.7045
X6.2297Y-3.6453
X6.275Y-3.725
X6.275Y-4.675
X6.275Y-4.775
X6.275Y-4.8687
X6.275Y-4.9199
X6.275Y-4.9711
X6.275Y-5.2711
X6.2756Y-2.8506
X6.2756Y-3.1506
X6.2762Y-4.3762
X6.2768Y-3.3482
X6.2768Y-4.2482
X6.3147Y-3.0103
X6.35Y-4.5134
X6.35Y-5.1134
X6.375Y-3.275
X6.3752Y-3.6002
X6.3874Y-2.4926
X6.3961Y-4.85
X6.3988Y-3.3738
X6.3988Y-3.4762
X6.3988Y-3.9738
X6.3988Y-4.2738
X6.3988Y-5.2762
X6.3994Y-3.6994
X6.4Y-4.925
X6.4215Y-4.0535
X6.4228Y-2.85
X6.4228Y-3.15
X6.4238Y-2.5762
X6.425Y-4.575
X6.45Y-5.05
X6.45Y-5.2105
X6.4875Y-4.9375
X6.4982Y-2.4482
X6.5Y-2.5
X6.5Y-2.825
X6.5Y-3.125
X6.5Y-4.025
X6.5Y-4.1
X6.5Y-4.175
X6.5Y-4.3
X6.5Y-4.375
X6.5Y-4.6
X6.5006Y-3.4506
X6.5006Y-3.7506
X6.5006Y-5.2506
X6.5012Y-2.8762
X6.5012Y-3.1762
X6.5012Y-4.9762
X6.5028Y-4.9
X6.5028Y-5.2
X6.55Y-2.4134
X6.55Y-2.7134
X6.55Y-3.0134
X6.55Y-3.3134
X6.55Y-3.6134
X6.55Y-3.9134
X6.55Y-4.2134
X6.55Y-4.5134
X6.55Y-4.8134
X6.55Y-5.1134
X6.6238Y-3.4762
X6.6238Y-4.3762
X6.6244Y-2.8506
X6.6244Y-3.1506
X6.625Y-3.425
X6.625Y-3.725
X6.65Y-4.925
X6.675Y-3.4
X6.675Y-4.3172
X6.675Y-4.9711
X6.6756Y-2.8506
X6.6756Y-3.1506
X6.6756Y-5.2506
X6.6762Y-4.2738
X6.6762Y-4.6762
X6.6925Y-3.9075
X6.7Y-3.575
X6.7043Y-4.5
X6.7147Y-3.0103
X6.75Y-3.6134
X6.75Y-4.2134
X6.75Y-5.1134
X6.7874Y-2.4926
X6.7982Y-3.9482
X6.7982Y-4.8482
X6.7988Y-3.6738
X6.7988Y-3.7762
X6.7988Y-4.0762
X6.7992Y-4.6008
X6.8Y-4.025
X6.8Y-4.325
X6.8228Y-2.85
X6.8228Y-3.15
X6.8238Y-2.5762
X6.8488Y-3.4762
X6.8512Y-3.3738
X6.8535Y-5.1215
X6.8625Y-5.3125
X6.875Y-4.825
X6.8982Y-2.4482
X6.8994Y-4.9506
X6.9Y-2.5
X6.9Y-2.825
X6.9Y-3.125
X6.9Y-3.425
X6.9Y-3.8
X6.9Y-4.1
X6.9Y-4.325
X6.9Y-4.9089
X6.9Y-5.2
X6.9006Y-3.6994
X6.9012Y-2.8762
X6.9012Y-3.1762
X6.9012Y-3.9738
X6.9012Y-4.3762
X6.9012Y-4.6762
X6.9017Y-3.4733
X6.9028Y-4.6
X6.9039Y-3.65
X6.9039Y-5.15
X6.95Y-2.4134
X6.95Y-2.7134
X6.95Y-3.0134
X6.95Y-3.3134
X6.95Y-3.6134
X6.95Y-3.9134
X6.95Y-4.2134
X6.95Y-4.5134
X6.95Y-4.8134
X6.95Y-5.1134
X7.0232Y-3.5018
X7.0232Y-3.8018
X7.0232Y-4.1018
X7.0232Y-5.3018
X7.0244Y-2.8506
X7.0244Y-3.1506
X7.0244Y-3.3994
X7.0244Y-3.7506
X7.0244Y-3.9994
X7.025Y-3.55
X7.025Y-3.7045
X7.025Y-3.925
X7.0297Y-3.6453
X7.05Y-5.05
X7.05Y-5.125
X7.05Y-5.175
X7.075Y-3.725
X7.075Y-4.625
X7.075Y-4.6711
X7.0756Y-2.8506
X7.0756Y-3.1506
X7.0762Y-3.6738
X7.0762Y-4.3762
X7.0762Y-4.8738
X7.0762Y-4.9762
X7.0768Y-3.3482
X7.0768Y-4.2482
X7.1147Y-3.0103
X7.125Y-3.875
X7.15Y-5.1134
X7.1567Y-4.8067
X7.175Y-3.275
X7.1874Y-2.4926
X7.1982Y-4.5482
X7.1988Y-3.3738
X7.1988Y-3.4762
X7.1988Y-3.9738
X7.1988Y-4.2738
X7.1988Y-5.2762
X7.1994Y-3.6994
X7.1994Y-4.9506
X7.2215Y-4.0535
X7.2228Y-2.85
X7.2228Y-3.15
X7.2238Y-2.5762
X7.2375Y-3.8125
X7.2375Y-4.9625
X7.2407Y-5.1593
X7.2482Y-4.5768
X7.25Y-5.2105
X7.2961Y-4.9711
X7.2982Y-2.4482
X7.3Y-2.5
X7.3Y-2.825
X7.3Y-3.125
X7.3Y-4.025
X7.3Y-4.1
X7.3Y-4.3
X7.3Y-4.375
X7.3Y-4.625
X7.3Y-4.925
X7.3Y-5.0289
X7.3006Y-3.4506
X7.3006Y-3.7506
X7.3006Y-5.2506
X7.3012Y-2.8762
X7.3012Y-3.1762
X7.3028Y-5.2
X7.3045Y-4.725
X7.3215Y-3.8535
X7.35Y-2.4134
X7.35Y-2.7134
X7.35Y-3.0134
X7.35Y-3.3134
X7.35Y-3.6134
X7.35Y-3.9134
X7.35Y-4.2134
X7.35Y-4.5134
X7.35Y-4.8134
X7.35Y-5.0366
X7.35Y-5.1134
X7.4238Y-3.4762
X7.4238Y-4.3762
X7.4244Y-2.8506
X7.4244Y-3.1506
X7.4244Y-4.5994
X7.425Y-3.425
X7.425Y-3.725
X7.425Y-4.9557
X7.45Y-4.7
X7.45Y-4.825
X7.45Y-5.15
X7.4625Y-3.2875
X7.475Y-3.4
X7.475Y-4.3172
X7.475Y-4.9711
X7.475Y-5.2557
X7.4756Y-2.8506
X7.4756Y-3.1506
X7.4762Y-4.2738
X7.4925Y-3.9075
X7.5147Y-3.0103
X7.55Y-3.6134
X7.55Y-4.2134
X7.55Y-5.1134
X7.5874Y-2.4926
X7.5982Y-3.9482
X7.5982Y-4.5482
X7.5982Y-4.8482
X7.5988Y-3.6738
X7.5988Y-3.7762
X7.5988Y-4.0762
X7.5994Y-5.2506
X7.6Y-4.025
X7.6Y-4.325
X7.6Y-4.625
X7.6228Y-2.85
X7.6228Y-3.15
X7.6238Y-2.5762
X7.6488Y-3.4762
X7.6512Y-3.3738
X7.6982Y-2.4482
X7.6994Y-4.9506
X7.7Y-2.5
X7.7Y-2.825
X7.7Y-3.125
X7.7Y-3.425
X7.7Y-3.8
X7.7Y-4.1
X7.7Y-4.325
X7.7Y-4.725
X7.7Y-4.9089
X7.7Y-5.2
X7.7006Y-3.6994
X7.7012Y-2.8762
X7.7012Y-3.1762
X7.7012Y-3.9738
X7.7012Y-4.3762
X7.7017Y-3.4733
X7.7039Y-3.65
X7.7039Y-5.15
X7.7039Y-5.3
X7.75Y-2.4134
X7.75Y-2.7134
X7.75Y-3.0134
X7.75Y-3.3134
X7.75Y-3.6134
X7.75Y-3.9134
X7.75Y-4.2134
X7.75Y-4.5134
X7.75Y-4.8134
X7.75Y-5.1134
X7.8232Y-3.5018
X7.8232Y-3.8018
X7.8232Y-4.1018
X7.8232Y-5.3018
X7.8244Y-2.8506
X7.8244Y-3.1506
X7.8244Y-3.3994
X7.8244Y-3.7506
X7.8244Y-3.9994
X7.825Y-3.7045
X7.8297Y-3.6453
X7.875Y-3.725
X7.875Y-4.8687
X7.875Y-4.9199
X7.875Y-4.9711
X7.875Y-5.2711
X7.8756Y-2.8506
X7.8756Y-3.1506
X7.8762Y-3.6738
X7.8762Y-4.3762
X7.8768Y-3.3482
X7.8768Y-4.2482
X7.9147Y-3.0103
X7.95Y-4.5134
X7.95Y-5.1134
X7.9874Y-2.4926
X7.9961Y-4.85
X7.9988Y-3.3738
X7.9988Y-3.4762
X7.9988Y-3.9738
X7.9988Y-4.2738
X7.9988Y-5.2762
X7.9994Y-3.6994
X8.0Y-4.925
X8.0215Y-4.0535
X8.0228Y-2.85
X8.0228Y-3.15
X8.0238Y-2.5762
X8.025Y-4.575
X8.05Y-5.2105
X8.075Y-4.775
X8.0875Y-4.9375
X8.0982Y-2.4482
X8.1Y-2.5
X8.1Y-2.825
X8.1Y-3.125
X8.1Y-4.025
X8.1Y-4.1
X8.1Y-4.3
X8.1Y-4.375
X8.1Y-4.6
X8.1006Y-3.4506
X8.1006Y-3.7506
X8.1006Y-5.2506
X8.1012Y-2.8762
X8.1012Y-3.1762
X8.1012Y-4.9762
X8.1028Y-4.9
X8.1028Y-5.2
X8.15Y-2.4134
X8.15Y-2.7134
X8.15Y-3.0134
X8.15Y-3.3134
X8.15Y-3.6134
X8.15Y-3.9134
X8.15Y-4.2134
X8.15Y-4.5134
X8.15Y-4.8134
X8.15Y-5.1134
X8.2238Y-3.4762
X8.2238Y-4.3762
X8.2244Y-2.8506
X8.2244Y-3.1506
X8.225Y-3.425
X8.225Y-3.725
X8.275Y-3.4
X8.275Y-4.3172
X8.275Y-4.9711
X8.275Y-5.075
X8.2756Y-2.8506
X8.2756Y-3.1506
X8.2762Y-4.2738
X8.2762Y-4.6762
X8.2925Y-3.9075
X8.3043Y-4.5
X8.3147Y-3.0103
X8.35Y-3.6134
X8.35Y-4.2134
X8.35Y-5.1134
X8.3874Y-2.4926
X8.3982Y-3.9482
X8.3982Y-4.8482
X8.3988Y-3.6738
X8.3988Y-3.7762
X8.3988Y-4.0762
X8.3992Y-4.6008
X8.3994Y-5.2506
X8.4Y-4.025
X8.4Y-4.325
X8.4228Y-2.85
X8.4228Y-3.15
X8.4238Y-2.5762
X8.4488Y-3.4762
X8.4512Y-3.3738
X8.4982Y-2.4482
X8.4994Y-4.9506
X8.5Y-2.5
X8.5Y-2.825
X8.5Y-3.125
X8.5Y-3.425
X8.5Y-3.8
X8.5Y-4.1
X8.5Y-4.325
X8.5Y-4.9089
X8.5006Y-3.6994
X8.5012Y-2.8762
X8.5012Y-3.1762
X8.5012Y-3.9738
X8.5012Y-4.3762
X8.5012Y-4.6762
X8.5012Y-5.1738
X8.5017Y-3.4733
X8.5028Y-4.6
X8.5039Y-3.65
X8.5113Y-5.2137
X8.55Y-2.4134
X8.55Y-2.7134
X8.55Y-3.0134
X8.55Y-3.3134
X8.55Y-3.6134
X8.55Y-3.9134
X8.55Y-4.2134
X8.55Y-4.5134
X8.55Y-4.8134
X8.55Y-5.1134
X8.6232Y-3.5018
X8.6232Y-3.8018
X8.6232Y-4.1018
X8.6232Y-5.3018
X8.6244Y-2.8506
X8.6244Y-3.1506
X8.6244Y-3.3994
X8.6244Y-3.7506
X8.6244Y-3.9994
X8.625Y-3.7045
X8.625Y-4.175
X8.625Y-5.075
X8.6297Y-3.6453
X8.675Y-3.725
X8.675Y-4.625
X8.675Y-4.6711
X8.675Y-5.2711
X8.6756Y-2.8506
X8.6756Y-3.1506
X8.6762Y-3.6738
X8.6762Y-4.3762
X8.6762Y-4.8738
X8.6762Y-4.9762
X8.6768Y-3.3482
X8.6768Y-4.2482
X8.7147Y-3.0103
X8.75Y-5.1134
X8.7567Y-4.8067
X8.775Y-4.1922
X8.7874Y-2.4926
X8.7982Y-4.5482
X8.7988Y-3.3738
X8.7988Y-3.4762
X8.7988Y-3.9738
X8.7988Y-4.2738
X8.7988Y-5.2762
X8.7994Y-3.6994
X8.7994Y-4.9506
X8.8215Y-4.0535
X8.8228Y-2.85
X8.8228Y-3.15
X8.8238Y-2.5762
X8.8482Y-4.5768
X8.85Y-5.2105
X8.8961Y-4.9711
X8.8982Y-2.4482
X8.9Y-2.5
X8.9Y-2.825
X8.9Y-3.125
X8.9Y-4.025
X8.9Y-4.1
X8.9Y-4.3
X8.9Y-4.375
X8.9Y-4.625
X8.9Y-4.925
X8.9006Y-3.4506
X8.9006Y-3.7506
X8.9006Y-5.2506
X8.9012Y-2.8762
X8.9012Y-3.1762
X8.9028Y-5.2
X8.9045Y-4.725
X8.95Y-2.4134
X8.95Y-2.7134
X8.95Y-3.0134
X8.95Y-3.3134
X8.95Y-3.6134
X8.95Y-3.9134
X8.95Y-4.2134
X8.95Y-4.5134
X8.95Y-4.8134
X8.95Y-5.0366
X8.95Y-5.1134
X9.0Y-1.85
X9.0238Y-3.4762
X9.0238Y-4.3762
X9.0244Y-2.8506
X9.0244Y-3.1506
X9.0244Y-4.5994
X9.025Y-3.425
X9.025Y-3.725
X9.025Y-4.9557
X9.0494Y-4.8994
X9.05Y-4.8283
X9.1Y-4.175
X9.2Y-4.05
X9.2Y-4.7
X9.25Y-5.55
X9.275Y-4.05
X9.3Y-4.65
X9.325Y-5.475
X9.3819Y-5.4319
X9.4545Y-4.4295
X9.4545Y-5.5955
X9.5Y-5.8
X9.5136Y-4.3864
X9.5136Y-5.4864
X9.575Y-4.325
T2
X2.35Y-3.075
X2.5469Y-3.075
X9.25Y-3.25
X9.4469Y-3.25
X2.4Y-3.975
X2.4984Y-3.975
X2.35Y-3.225
X2.5469Y-3.225
X9.3Y-3.5
X9.3984Y-3.5
X2.4Y-3.525
X2.4984Y-3.525
T3
X4.545Y-5.735
X4.545Y-5.835
X5.995Y-5.735
X5.995Y-5.835
X6.0Y-1.825
X6.0Y-1.925
X8.095Y-5.735
X8.095Y-5.835
X7.2Y-1.825
X7.2Y-1.925
X7.195Y-5.735
X7.195Y-5.835
X2.7Y-1.35
X2.7Y-1.45
X4.2Y-1.825
X4.2Y-1.925
X7.2Y-1.35
X7.2Y-1.45
X8.57Y-5.735
X8.57Y-5.835
X6.3Y-1.35
X6.3Y-1.45
X6.895Y-5.735
X6.895Y-5.835
X3.6Y-1.35
X3.6Y-1.45
X3.9Y-1.35
X3.9Y-1.45
X3.07Y-5.735
X3.07Y-5.835
X6.595Y-5.735
X6.595Y-5.835
X5.1Y-1.35
X5.1Y-1.45
X5.7Y-1.35
X5.7Y-1.45
X4.8Y-1.35
X4.8Y-1.45
X5.095Y-5.735
X5.095Y-5.835
X6.6Y-1.825
X6.6Y-1.925
X5.4Y-1.35
X5.4Y-1.45
X4.2Y-1.35
X4.2Y-1.45
X3.945Y-5.735
X3.945Y-5.835
X2.745Y-5.735
X2.745Y-5.835
X5.395Y-5.735
X5.395Y-5.835
X6.9Y-1.825
X6.9Y-1.925
X4.82Y-5.735
X4.82Y-5.835
X5.4Y-1.825
X5.4Y-1.925
X4.5Y-1.35
X4.5Y-1.45
X8.1Y-1.35
X8.1Y-1.45
X3.645Y-5.735
X3.645Y-5.835
X7.5Y-1.825
X7.5Y-1.925
X5.695Y-5.735
X5.695Y-5.835
X6.0Y-1.35
X6.0Y-1.45
X8.1Y-1.825
X8.1Y-1.925
X3.9Y-1.825
X3.9Y-1.925
X5.7Y-1.825
X5.7Y-1.925
X3.6Y-1.825
X3.6Y-1.925
X7.495Y-5.735
X7.495Y-5.835
X3.025Y-1.35
X3.025Y-1.45
X6.3Y-1.825
X6.3Y-1.925
X8.895Y-5.735
X8.895Y-5.835
X4.8Y-1.825
X4.8Y-1.925
X4.245Y-5.735
X4.245Y-5.835
X6.9Y-1.35
X6.9Y-1.45
X7.795Y-5.735
X7.795Y-5.835
X4.5Y-1.825
X4.5Y-1.925
X7.8Y-1.35
X7.8Y-1.45
X6.295Y-5.735
X6.295Y-5.835
X7.8Y-1.825
X7.8Y-1.925
X2.7Y-1.825
X2.7Y-1.925
X5.1Y-1.825
X5.1Y-1.925
X6.6Y-1.35
X6.6Y-1.45
X7.5Y-1.35
X7.5Y-1.45
X2.42Y-5.735
X2.42Y-5.835
X3.025Y-1.825
X3.025Y-1.925
T4
X9.7Y-4.3413
X9.7Y-4.4504
X9.7Y-4.5594
X9.7Y-4.6685
X9.7Y-4.7776
X9.7Y-4.8866
X9.7Y-4.9957
X9.7Y-5.1047
X9.7Y-5.2138
X9.7Y-5.3228
X9.7Y-5.4319
X9.7Y-5.5409
X9.7Y-5.65
X9.8118Y-4.3959
X9.8118Y-4.5049
X9.8118Y-4.614
X9.8118Y-4.723
X9.8118Y-4.8321
X9.8118Y-4.9411
X9.8118Y-5.0502
X9.8118Y-5.1593
X9.8118Y-5.2683
X9.8118Y-5.3774
X9.8118Y-5.4864
X9.8118Y-5.5955
X9.7Y-1.437
X9.7Y-1.5461
X9.7Y-1.6551
X9.7Y-1.7642
X9.7Y-1.8732
X9.7Y-1.9823
X9.7Y-2.0913
X9.7Y-2.2004
X9.7Y-2.3094
X9.7Y-2.4185
X9.7Y-2.5276
X9.7Y-2.6366
X9.7Y-2.7457
X9.7Y-2.8547
X9.7Y-2.9638
X9.7Y-3.0728
X9.7Y-3.1819
X9.7Y-3.2909
X9.7Y-3.4
X9.8118Y-1.4915
X9.8118Y-1.6006
X9.8118Y-1.7096
X9.8118Y-1.8187
X9.8118Y-1.9278
X9.8118Y-2.0368
X9.8118Y-2.1459
X9.8118Y-2.2549
X9.8118Y-2.364
X9.8118Y-2.473
X9.8118Y-2.5821
X9.8118Y-2.6911
X9.8118Y-2.8002
X9.8118Y-2.9093
X9.8118Y-3.0183
X9.8118Y-3.1274
X9.8118Y-3.2364
X9.8118Y-3.3455
T5
X2.0Y-1.15
X2.0Y-5.95
X9.7559Y-4.0685
X9.7559Y-5.9228
X9.7559Y-1.1685
X9.7559Y-3.6685
T0
M30
