G04 #@! TF.GenerationSoftware,KiCad,Pcbnew,5.1.5-52549c5~84~ubuntu18.04.1*
G04 #@! TF.CreationDate,2020-06-07T21:28:07-07:00*
G04 #@! TF.ProjectId,motherboard,6d6f7468-6572-4626-9f61-72642e6b6963,rev?*
G04 #@! TF.SameCoordinates,Original*
G04 #@! TF.FileFunction,Copper,L2,Inr*
G04 #@! TF.FilePolarity,Positive*
%FSLAX46Y46*%
G04 Gerber Fmt 4.6, Leading zero omitted, Abs format (unit mm)*
G04 Created by KiCad (PCBNEW 5.1.5-52549c5~84~ubuntu18.04.1) date 2020-06-07 21:28:07*
%MOMM*%
%LPD*%
G04 APERTURE LIST*
%ADD10C,1.524000*%
%ADD11C,4.000000*%
%ADD12C,1.600000*%
%ADD13R,1.600000X1.600000*%
%ADD14O,1.700000X1.700000*%
%ADD15R,1.700000X1.700000*%
%ADD16O,2.000000X3.500000*%
%ADD17O,3.300000X2.000000*%
%ADD18R,4.000000X2.000000*%
%ADD19C,2.000000*%
%ADD20R,2.000000X2.000000*%
%ADD21C,6.000000*%
%ADD22C,0.800000*%
%ADD23C,0.250000*%
G04 APERTURE END LIST*
D10*
X375920000Y-261620000D03*
X378460000Y-261620000D03*
X375920000Y-266700000D03*
X378460000Y-266700000D03*
D11*
X328460000Y-43030000D03*
X391960000Y-43030000D03*
D12*
X383755000Y-41610000D03*
X380985000Y-41610000D03*
X378215000Y-41610000D03*
X375445000Y-41610000D03*
X372675000Y-41610000D03*
X369905000Y-41610000D03*
X367135000Y-41610000D03*
X364365000Y-41610000D03*
X361595000Y-41610000D03*
X358825000Y-41610000D03*
X356055000Y-41610000D03*
X353285000Y-41610000D03*
X350515000Y-41610000D03*
X347745000Y-41610000D03*
X344975000Y-41610000D03*
X342205000Y-41610000D03*
X339435000Y-41610000D03*
X336665000Y-41610000D03*
X385140000Y-44450000D03*
X382370000Y-44450000D03*
X379600000Y-44450000D03*
X376830000Y-44450000D03*
X374060000Y-44450000D03*
X371290000Y-44450000D03*
X368520000Y-44450000D03*
X365750000Y-44450000D03*
X362980000Y-44450000D03*
X360210000Y-44450000D03*
X357440000Y-44450000D03*
X354670000Y-44450000D03*
X351900000Y-44450000D03*
X349130000Y-44450000D03*
X346360000Y-44450000D03*
X343590000Y-44450000D03*
X340820000Y-44450000D03*
X338050000Y-44450000D03*
D13*
X335280000Y-44450000D03*
D11*
X404660000Y-43030000D03*
X468160000Y-43030000D03*
D12*
X459955000Y-41610000D03*
X457185000Y-41610000D03*
X454415000Y-41610000D03*
X451645000Y-41610000D03*
X448875000Y-41610000D03*
X446105000Y-41610000D03*
X443335000Y-41610000D03*
X440565000Y-41610000D03*
X437795000Y-41610000D03*
X435025000Y-41610000D03*
X432255000Y-41610000D03*
X429485000Y-41610000D03*
X426715000Y-41610000D03*
X423945000Y-41610000D03*
X421175000Y-41610000D03*
X418405000Y-41610000D03*
X415635000Y-41610000D03*
X412865000Y-41610000D03*
X461340000Y-44450000D03*
X458570000Y-44450000D03*
X455800000Y-44450000D03*
X453030000Y-44450000D03*
X450260000Y-44450000D03*
X447490000Y-44450000D03*
X444720000Y-44450000D03*
X441950000Y-44450000D03*
X439180000Y-44450000D03*
X436410000Y-44450000D03*
X433640000Y-44450000D03*
X430870000Y-44450000D03*
X428100000Y-44450000D03*
X425330000Y-44450000D03*
X422560000Y-44450000D03*
X419790000Y-44450000D03*
X417020000Y-44450000D03*
X414250000Y-44450000D03*
D13*
X411480000Y-44450000D03*
D11*
X356210000Y-311300000D03*
X331210000Y-311300000D03*
D12*
X339555000Y-312720000D03*
X342325000Y-312720000D03*
X345095000Y-312720000D03*
X347865000Y-312720000D03*
X338170000Y-309880000D03*
X340940000Y-309880000D03*
X343710000Y-309880000D03*
X346480000Y-309880000D03*
D13*
X349250000Y-309880000D03*
D11*
X313540000Y-313000000D03*
X313540000Y-265900000D03*
D12*
X312120000Y-274215000D03*
X312120000Y-276985000D03*
X312120000Y-279755000D03*
X312120000Y-282525000D03*
X312120000Y-285295000D03*
X312120000Y-288065000D03*
X312120000Y-290835000D03*
X312120000Y-293605000D03*
X312120000Y-296375000D03*
X312120000Y-299145000D03*
X312120000Y-301915000D03*
X312120000Y-304685000D03*
X314960000Y-272830000D03*
X314960000Y-275600000D03*
X314960000Y-278370000D03*
X314960000Y-281140000D03*
X314960000Y-283910000D03*
X314960000Y-286680000D03*
X314960000Y-289450000D03*
X314960000Y-292220000D03*
X314960000Y-294990000D03*
X314960000Y-297760000D03*
X314960000Y-300530000D03*
X314960000Y-303300000D03*
D13*
X314960000Y-306070000D03*
D11*
X313540000Y-254470000D03*
X313540000Y-190970000D03*
D12*
X312120000Y-199175000D03*
X312120000Y-201945000D03*
X312120000Y-204715000D03*
X312120000Y-207485000D03*
X312120000Y-210255000D03*
X312120000Y-213025000D03*
X312120000Y-215795000D03*
X312120000Y-218565000D03*
X312120000Y-221335000D03*
X312120000Y-224105000D03*
X312120000Y-226875000D03*
X312120000Y-229645000D03*
X312120000Y-232415000D03*
X312120000Y-235185000D03*
X312120000Y-237955000D03*
X312120000Y-240725000D03*
X312120000Y-243495000D03*
X312120000Y-246265000D03*
X314960000Y-197790000D03*
X314960000Y-200560000D03*
X314960000Y-203330000D03*
X314960000Y-206100000D03*
X314960000Y-208870000D03*
X314960000Y-211640000D03*
X314960000Y-214410000D03*
X314960000Y-217180000D03*
X314960000Y-219950000D03*
X314960000Y-222720000D03*
X314960000Y-225490000D03*
X314960000Y-228260000D03*
X314960000Y-231030000D03*
X314960000Y-233800000D03*
X314960000Y-236570000D03*
X314960000Y-239340000D03*
X314960000Y-242110000D03*
X314960000Y-244880000D03*
D13*
X314960000Y-247650000D03*
D11*
X313540000Y-175840000D03*
X313540000Y-128740000D03*
D12*
X312120000Y-137055000D03*
X312120000Y-139825000D03*
X312120000Y-142595000D03*
X312120000Y-145365000D03*
X312120000Y-148135000D03*
X312120000Y-150905000D03*
X312120000Y-153675000D03*
X312120000Y-156445000D03*
X312120000Y-159215000D03*
X312120000Y-161985000D03*
X312120000Y-164755000D03*
X312120000Y-167525000D03*
X314960000Y-135670000D03*
X314960000Y-138440000D03*
X314960000Y-141210000D03*
X314960000Y-143980000D03*
X314960000Y-146750000D03*
X314960000Y-149520000D03*
X314960000Y-152290000D03*
X314960000Y-155060000D03*
X314960000Y-157830000D03*
X314960000Y-160600000D03*
X314960000Y-163370000D03*
X314960000Y-166140000D03*
D13*
X314960000Y-168910000D03*
D11*
X313540000Y-118580000D03*
X313540000Y-55080000D03*
D12*
X312120000Y-63285000D03*
X312120000Y-66055000D03*
X312120000Y-68825000D03*
X312120000Y-71595000D03*
X312120000Y-74365000D03*
X312120000Y-77135000D03*
X312120000Y-79905000D03*
X312120000Y-82675000D03*
X312120000Y-85445000D03*
X312120000Y-88215000D03*
X312120000Y-90985000D03*
X312120000Y-93755000D03*
X312120000Y-96525000D03*
X312120000Y-99295000D03*
X312120000Y-102065000D03*
X312120000Y-104835000D03*
X312120000Y-107605000D03*
X312120000Y-110375000D03*
X314960000Y-61900000D03*
X314960000Y-64670000D03*
X314960000Y-67440000D03*
X314960000Y-70210000D03*
X314960000Y-72980000D03*
X314960000Y-75750000D03*
X314960000Y-78520000D03*
X314960000Y-81290000D03*
X314960000Y-84060000D03*
X314960000Y-86830000D03*
X314960000Y-89600000D03*
X314960000Y-92370000D03*
X314960000Y-95140000D03*
X314960000Y-97910000D03*
X314960000Y-100680000D03*
X314960000Y-103450000D03*
X314960000Y-106220000D03*
X314960000Y-108990000D03*
D13*
X314960000Y-111760000D03*
D11*
X465290000Y-311300000D03*
X401790000Y-311300000D03*
D12*
X409995000Y-312720000D03*
X412765000Y-312720000D03*
X415535000Y-312720000D03*
X418305000Y-312720000D03*
X421075000Y-312720000D03*
X423845000Y-312720000D03*
X426615000Y-312720000D03*
X429385000Y-312720000D03*
X432155000Y-312720000D03*
X434925000Y-312720000D03*
X437695000Y-312720000D03*
X440465000Y-312720000D03*
X443235000Y-312720000D03*
X446005000Y-312720000D03*
X448775000Y-312720000D03*
X451545000Y-312720000D03*
X454315000Y-312720000D03*
X457085000Y-312720000D03*
X408610000Y-309880000D03*
X411380000Y-309880000D03*
X414150000Y-309880000D03*
X416920000Y-309880000D03*
X419690000Y-309880000D03*
X422460000Y-309880000D03*
X425230000Y-309880000D03*
X428000000Y-309880000D03*
X430770000Y-309880000D03*
X433540000Y-309880000D03*
X436310000Y-309880000D03*
X439080000Y-309880000D03*
X441850000Y-309880000D03*
X444620000Y-309880000D03*
X447390000Y-309880000D03*
X450160000Y-309880000D03*
X452930000Y-309880000D03*
X455700000Y-309880000D03*
D13*
X458470000Y-309880000D03*
D11*
X480210000Y-223050000D03*
X480210000Y-286550000D03*
D12*
X481630000Y-278345000D03*
X481630000Y-275575000D03*
X481630000Y-272805000D03*
X481630000Y-270035000D03*
X481630000Y-267265000D03*
X481630000Y-264495000D03*
X481630000Y-261725000D03*
X481630000Y-258955000D03*
X481630000Y-256185000D03*
X481630000Y-253415000D03*
X481630000Y-250645000D03*
X481630000Y-247875000D03*
X481630000Y-245105000D03*
X481630000Y-242335000D03*
X481630000Y-239565000D03*
X481630000Y-236795000D03*
X481630000Y-234025000D03*
X481630000Y-231255000D03*
X478790000Y-279730000D03*
X478790000Y-276960000D03*
X478790000Y-274190000D03*
X478790000Y-271420000D03*
X478790000Y-268650000D03*
X478790000Y-265880000D03*
X478790000Y-263110000D03*
X478790000Y-260340000D03*
X478790000Y-257570000D03*
X478790000Y-254800000D03*
X478790000Y-252030000D03*
X478790000Y-249260000D03*
X478790000Y-246490000D03*
X478790000Y-243720000D03*
X478790000Y-240950000D03*
X478790000Y-238180000D03*
X478790000Y-235410000D03*
X478790000Y-232640000D03*
D13*
X478790000Y-229870000D03*
D11*
X480210000Y-55410000D03*
X480210000Y-118910000D03*
D12*
X481630000Y-110705000D03*
X481630000Y-107935000D03*
X481630000Y-105165000D03*
X481630000Y-102395000D03*
X481630000Y-99625000D03*
X481630000Y-96855000D03*
X481630000Y-94085000D03*
X481630000Y-91315000D03*
X481630000Y-88545000D03*
X481630000Y-85775000D03*
X481630000Y-83005000D03*
X481630000Y-80235000D03*
X481630000Y-77465000D03*
X481630000Y-74695000D03*
X481630000Y-71925000D03*
X481630000Y-69155000D03*
X481630000Y-66385000D03*
X481630000Y-63615000D03*
X478790000Y-112090000D03*
X478790000Y-109320000D03*
X478790000Y-106550000D03*
X478790000Y-103780000D03*
X478790000Y-101010000D03*
X478790000Y-98240000D03*
X478790000Y-95470000D03*
X478790000Y-92700000D03*
X478790000Y-89930000D03*
X478790000Y-87160000D03*
X478790000Y-84390000D03*
X478790000Y-81620000D03*
X478790000Y-78850000D03*
X478790000Y-76080000D03*
X478790000Y-73310000D03*
X478790000Y-70540000D03*
X478790000Y-67770000D03*
X478790000Y-65000000D03*
D13*
X478790000Y-62230000D03*
D11*
X480210000Y-139230000D03*
X480210000Y-202730000D03*
D12*
X481630000Y-194525000D03*
X481630000Y-191755000D03*
X481630000Y-188985000D03*
X481630000Y-186215000D03*
X481630000Y-183445000D03*
X481630000Y-180675000D03*
X481630000Y-177905000D03*
X481630000Y-175135000D03*
X481630000Y-172365000D03*
X481630000Y-169595000D03*
X481630000Y-166825000D03*
X481630000Y-164055000D03*
X481630000Y-161285000D03*
X481630000Y-158515000D03*
X481630000Y-155745000D03*
X481630000Y-152975000D03*
X481630000Y-150205000D03*
X481630000Y-147435000D03*
X478790000Y-195910000D03*
X478790000Y-193140000D03*
X478790000Y-190370000D03*
X478790000Y-187600000D03*
X478790000Y-184830000D03*
X478790000Y-182060000D03*
X478790000Y-179290000D03*
X478790000Y-176520000D03*
X478790000Y-173750000D03*
X478790000Y-170980000D03*
X478790000Y-168210000D03*
X478790000Y-165440000D03*
X478790000Y-162670000D03*
X478790000Y-159900000D03*
X478790000Y-157130000D03*
X478790000Y-154360000D03*
X478790000Y-151590000D03*
X478790000Y-148820000D03*
D13*
X478790000Y-146050000D03*
D14*
X381000000Y-285750000D03*
X378460000Y-285750000D03*
D15*
X375920000Y-285750000D03*
D16*
X382960000Y-311800000D03*
X373960000Y-311800000D03*
D17*
X378460000Y-310800000D03*
D18*
X378460000Y-304800000D03*
D12*
X392350000Y-285750000D03*
X387350000Y-285750000D03*
X369490000Y-285750000D03*
X364490000Y-285750000D03*
X391120000Y-295910000D03*
D13*
X388620000Y-295910000D03*
D12*
X368260000Y-295910000D03*
D13*
X365760000Y-295910000D03*
D19*
X380920000Y-295910000D03*
D20*
X375920000Y-295910000D03*
D21*
X482600000Y-40640000D03*
X312420000Y-40640000D03*
X482600000Y-312420000D03*
X322580000Y-312420000D03*
X394970000Y-139065000D03*
X394970000Y-218440000D03*
D22*
X452755000Y-282575000D03*
X404495000Y-86995000D03*
X404495000Y-224155000D03*
X404495000Y-290195000D03*
X462915000Y-193675000D03*
X449610000Y-177195000D03*
X462915000Y-172720000D03*
X449610000Y-156240000D03*
X460375000Y-151765000D03*
X449610000Y-135285000D03*
X460375000Y-130810000D03*
X449610000Y-114330000D03*
X335945000Y-184120000D03*
X434340000Y-204470000D03*
X387350000Y-204470000D03*
X350520000Y-185420000D03*
X433832000Y-213360000D03*
X350475000Y-195625000D03*
X335945000Y-208885000D03*
X344170000Y-221615000D03*
X335945000Y-233650000D03*
X351110000Y-245155000D03*
X336550000Y-258445000D03*
X352380000Y-269920000D03*
X460375000Y-211455000D03*
X462915000Y-198755000D03*
X449610000Y-186085000D03*
X462915000Y-177800000D03*
X449610000Y-165130000D03*
X462915000Y-156845000D03*
X449610000Y-144175000D03*
X462915000Y-135890000D03*
X449610000Y-123220000D03*
X460330000Y-112985000D03*
X460330000Y-119970000D03*
X460330000Y-126955000D03*
X460330000Y-133940000D03*
X460330000Y-140925000D03*
X460330000Y-147910000D03*
X460330000Y-154895000D03*
X460330000Y-161880000D03*
X460330000Y-168865000D03*
X460330000Y-175850000D03*
X460330000Y-182835000D03*
X460330000Y-189820000D03*
X339770000Y-179115000D03*
X339770000Y-278175000D03*
X339770000Y-269920000D03*
X339770000Y-261665000D03*
X339770000Y-253410000D03*
X339770000Y-245155000D03*
X339770000Y-236900000D03*
X339770000Y-228645000D03*
X339770000Y-220390000D03*
X339770000Y-212135000D03*
X339770000Y-203880000D03*
X339770000Y-195625000D03*
X339770000Y-187370000D03*
X460330000Y-196805000D03*
X397256000Y-259588000D03*
X464315000Y-259210000D03*
X386080000Y-272415000D03*
X395605000Y-270510000D03*
X367665000Y-273050000D03*
X347345000Y-147955000D03*
X460330000Y-207600000D03*
X375920000Y-272796000D03*
X336550000Y-194945000D03*
X351155000Y-200660000D03*
X336550000Y-219710000D03*
X351155000Y-224790000D03*
X335915000Y-245110000D03*
X351790000Y-249555000D03*
X337185000Y-269240000D03*
X352410000Y-275575000D03*
X452225000Y-79905000D03*
X448950000Y-77465000D03*
X445700000Y-74365000D03*
X442755000Y-71595000D03*
X439550001Y-69084999D03*
X436605001Y-66314999D03*
X434555000Y-63285000D03*
X460375000Y-209550000D03*
X473710000Y-136398000D03*
X453685000Y-81620000D03*
X450740000Y-78850000D03*
X447160000Y-76080000D03*
X444215000Y-73310000D03*
X441270000Y-70540000D03*
X438325000Y-67770000D03*
X435380000Y-65000000D03*
X433705000Y-62230000D03*
X399415000Y-281305000D03*
X469770000Y-256410000D03*
X440690000Y-86360000D03*
X339815001Y-87720001D03*
X460880000Y-256540000D03*
X438150000Y-86360000D03*
X341230001Y-85960001D03*
X395731000Y-266193000D03*
X456565000Y-127635000D03*
X383755000Y-128055000D03*
X383755000Y-111545000D03*
X380985000Y-186690000D03*
X349855000Y-186720000D03*
X345504999Y-276795001D03*
X349250000Y-267335000D03*
X349220000Y-261015000D03*
X337820000Y-261620000D03*
X339090000Y-249555000D03*
X425230000Y-282575000D03*
X349250000Y-242570000D03*
X349250000Y-236220000D03*
X337820000Y-237490000D03*
X339725000Y-224875000D03*
X349235000Y-217790000D03*
X342860000Y-210820000D03*
X349220000Y-211485000D03*
X339090000Y-200025000D03*
X349235000Y-193025000D03*
X380985000Y-135905000D03*
X447735001Y-134559999D03*
X380985000Y-111775000D03*
X456565000Y-148590000D03*
X378215000Y-149470000D03*
X378215000Y-166615000D03*
X378215000Y-110100000D03*
X455295000Y-156210000D03*
X375445000Y-156050000D03*
X375445000Y-164940000D03*
X375445000Y-114140000D03*
X455945000Y-170165000D03*
X372675000Y-168980000D03*
X372675000Y-161995000D03*
X372675000Y-115005000D03*
X455295000Y-177165000D03*
X369905000Y-177465000D03*
X449670001Y-210275001D03*
X369905000Y-210485000D03*
X369905000Y-116505000D03*
X462265000Y-191120000D03*
X367135000Y-191665000D03*
X373380000Y-273050000D03*
X411380000Y-273150000D03*
X367135000Y-118005000D03*
X449595000Y-199405000D03*
X364365000Y-199515000D03*
X359440000Y-275560000D03*
X408610000Y-275285000D03*
X364365000Y-119505000D03*
X457200000Y-199390000D03*
X454195000Y-195115000D03*
X385140000Y-201600000D03*
X457200000Y-120015000D03*
X385140000Y-120320000D03*
X451485000Y-190500000D03*
X450245000Y-183485000D03*
X456565000Y-182880000D03*
X450850000Y-172085000D03*
X450850000Y-172085000D03*
X461055001Y-180300001D03*
X447040000Y-164903002D03*
X461645000Y-158750000D03*
X450215000Y-151130000D03*
X449580000Y-142240000D03*
X461010000Y-138430000D03*
X450850000Y-130175000D03*
X389255000Y-273050000D03*
X429385000Y-276735000D03*
X451485000Y-209550000D03*
X385140000Y-139370000D03*
X385140000Y-112700000D03*
X450895000Y-126955000D03*
X382370000Y-126900000D03*
X382370000Y-111660000D03*
X457230000Y-144175000D03*
X379600000Y-144275000D03*
X379600000Y-170945000D03*
X379600000Y-111255000D03*
X450850000Y-147955000D03*
X376830000Y-147680000D03*
X376830000Y-165460000D03*
X376830000Y-114025000D03*
X455930000Y-163830000D03*
X374060000Y-163785000D03*
X374060000Y-114255000D03*
X450895000Y-168865000D03*
X371290000Y-167825000D03*
X450260000Y-207600000D03*
X371290000Y-207830000D03*
X371290000Y-115755000D03*
X455930000Y-184785000D03*
X368520000Y-184565000D03*
X390510000Y-277510000D03*
X412765000Y-277480000D03*
X368520000Y-117255000D03*
X451485000Y-189230000D03*
X365750000Y-189875000D03*
X359425000Y-277510000D03*
X409995000Y-279615000D03*
X365750000Y-118755000D03*
X448945000Y-192405000D03*
X462900000Y-184135000D03*
X448945000Y-170815000D03*
X460375000Y-163180000D03*
X448945000Y-149860000D03*
X462900000Y-142225000D03*
X448945000Y-128905000D03*
X456580000Y-121270000D03*
X464094999Y-199480001D03*
X448945000Y-182880000D03*
X464094999Y-178525001D03*
X448945000Y-161925000D03*
X465364999Y-157570001D03*
X448945000Y-140970000D03*
X461010000Y-137160000D03*
X448990000Y-119970000D03*
X343535000Y-266065000D03*
X351140000Y-252110000D03*
X343535000Y-241300000D03*
X351140000Y-227345000D03*
X343535000Y-216535000D03*
X351140000Y-202580000D03*
X343535000Y-191770000D03*
X351140000Y-177815000D03*
X343535000Y-276225000D03*
X351140000Y-258460000D03*
X343535000Y-250190000D03*
X351140000Y-233695000D03*
X342900000Y-226695000D03*
X351140000Y-208930000D03*
X343535000Y-200660000D03*
X351140000Y-184165000D03*
X361950000Y-226695000D03*
X339090000Y-151130000D03*
X361950000Y-269240000D03*
X346710000Y-160020000D03*
X360362500Y-172402500D03*
X363855000Y-226695000D03*
X339090000Y-149225000D03*
X357505000Y-276225000D03*
X348014657Y-158715343D03*
X361667158Y-172367842D03*
X398145000Y-276225000D03*
X337835000Y-186070000D03*
X344185000Y-193690000D03*
X337835000Y-210835000D03*
X344185000Y-218455000D03*
X337835000Y-235600000D03*
X344185000Y-243220000D03*
X337835000Y-260365000D03*
X344185000Y-267350000D03*
X344215000Y-187370000D03*
X337835000Y-201310000D03*
X344185000Y-212105000D03*
X337835000Y-226075000D03*
X344185000Y-236870000D03*
X337835000Y-250840000D03*
X344185000Y-261635000D03*
X337835000Y-275605000D03*
X406400000Y-86995000D03*
X406400000Y-224155000D03*
X406400000Y-290195000D03*
X345470000Y-274925000D03*
X342870000Y-277525000D03*
X339135000Y-274275000D03*
X339105000Y-276875000D03*
X350520000Y-268605000D03*
X349250000Y-276860000D03*
X342900000Y-258445000D03*
X345455000Y-250810000D03*
X342900000Y-269875000D03*
X344805000Y-244475000D03*
X342885000Y-234300000D03*
X349250000Y-225425000D03*
X351790000Y-218440000D03*
X339105000Y-209535000D03*
X351790000Y-194310000D03*
X349250000Y-200660000D03*
X337820000Y-196215000D03*
X342885000Y-184770000D03*
X342830000Y-268605000D03*
X344820000Y-259065000D03*
X339090000Y-266165000D03*
X345440000Y-266065000D03*
X349250000Y-253365000D03*
X340995000Y-256540000D03*
X339120000Y-241905000D03*
X349870000Y-243855000D03*
X339755000Y-217140000D03*
X351041501Y-217056501D03*
X349205000Y-203880000D03*
X340995000Y-207010000D03*
X348745000Y-185420000D03*
X337185000Y-192405000D03*
X339120000Y-192375000D03*
X351155000Y-193040000D03*
X463535000Y-192420000D03*
X450215000Y-193675000D03*
X457200000Y-184785000D03*
X450807500Y-175302500D03*
X454660000Y-179705000D03*
X456565000Y-175895000D03*
X461645000Y-170180000D03*
X455930000Y-168275000D03*
X462280000Y-163830000D03*
X449580000Y-154305000D03*
X455295000Y-162560000D03*
X450850000Y-154305000D03*
X462280000Y-151130000D03*
X454660000Y-144780000D03*
X455265000Y-134590000D03*
X455930000Y-137795000D03*
X455930000Y-144780000D03*
X450895000Y-133940000D03*
X456635000Y-130175000D03*
X454660000Y-122555000D03*
X460375000Y-124460000D03*
X447085000Y-112985000D03*
X366410000Y-276210000D03*
X363825000Y-278160000D03*
X369570000Y-273685000D03*
X375300000Y-276210000D03*
X365760000Y-226695000D03*
X348615000Y-151130000D03*
X364490000Y-273685000D03*
X350202500Y-155257500D03*
X363639999Y-172300001D03*
X375330000Y-278810000D03*
X384205000Y-278160000D03*
X381635000Y-276225000D03*
X373350000Y-278160000D03*
X391795000Y-276225000D03*
X384175000Y-276860000D03*
X393080000Y-276210000D03*
X391160000Y-278765000D03*
X345495000Y-151130000D03*
X343535000Y-153035000D03*
X454840000Y-83005000D03*
X401320000Y-55880000D03*
X344170000Y-281940000D03*
X450865000Y-198105000D03*
X455960000Y-190470000D03*
X464185000Y-184785000D03*
X455280000Y-178450000D03*
X447055000Y-178450000D03*
X447040000Y-171450000D03*
X450865000Y-157495000D03*
X457227500Y-163802500D03*
X447040000Y-150495000D03*
X450865000Y-136540000D03*
X461055001Y-144734999D03*
X447040000Y-129540000D03*
X361315000Y-120015000D03*
D23*
X361124999Y-286925001D02*
X448404999Y-286925001D01*
X338170000Y-309880000D02*
X361124999Y-286925001D01*
X448404999Y-286925001D02*
X452755000Y-282575000D01*
X452755000Y-282575000D02*
X452755000Y-282575000D01*
X463314999Y-193275001D02*
X462915000Y-193675000D01*
X463753001Y-193275001D02*
X463314999Y-193275001D01*
X465273002Y-191755000D02*
X463753001Y-193275001D01*
X481630000Y-191755000D02*
X465273002Y-191755000D01*
X465455000Y-181610000D02*
X451485000Y-181610000D01*
X449610000Y-179735000D02*
X449610000Y-177195000D01*
X451485000Y-181610000D02*
X449610000Y-179735000D01*
X472830000Y-188985000D02*
X465455000Y-181610000D01*
X481630000Y-188985000D02*
X472830000Y-188985000D01*
X476410000Y-186215000D02*
X462915000Y-172720000D01*
X481630000Y-186215000D02*
X476410000Y-186215000D01*
X449610000Y-159415000D02*
X449610000Y-156240000D01*
X450215000Y-160020000D02*
X449610000Y-159415000D01*
X463005001Y-167940003D02*
X463005001Y-160745001D01*
X481630000Y-183445000D02*
X478509998Y-183445000D01*
X478509998Y-183445000D02*
X463005001Y-167940003D01*
X463005001Y-160745001D02*
X462280000Y-160020000D01*
X462280000Y-160020000D02*
X450215000Y-160020000D01*
X462970000Y-154360000D02*
X460375000Y-151765000D01*
X463905020Y-155295020D02*
X462970000Y-154360000D01*
X478509998Y-180675000D02*
X463905020Y-166070022D01*
X463905020Y-166070022D02*
X463905020Y-155295020D01*
X481630000Y-180675000D02*
X478509998Y-180675000D01*
X449610000Y-138460000D02*
X449610000Y-135285000D01*
X481630000Y-177905000D02*
X478407220Y-177905000D01*
X472948000Y-146812000D02*
X466335999Y-140199999D01*
X478407220Y-177905000D02*
X472948000Y-172445780D01*
X472948000Y-172445780D02*
X472948000Y-146812000D01*
X466335999Y-140199999D02*
X451349999Y-140199999D01*
X451349999Y-140199999D02*
X449610000Y-138460000D01*
X478509998Y-175135000D02*
X481630000Y-175135000D01*
X462510000Y-132945000D02*
X462915000Y-132945000D01*
X474021990Y-144051990D02*
X474021990Y-170745990D01*
X460375000Y-130810000D02*
X462510000Y-132945000D01*
X474021990Y-170745990D02*
X474120988Y-170745990D01*
X462915000Y-132945000D02*
X474021990Y-144051990D01*
X474120988Y-170745990D02*
X478509998Y-175135000D01*
X449610000Y-116870000D02*
X449610000Y-114330000D01*
X464820000Y-133130000D02*
X464820000Y-119380000D01*
X463550000Y-118110000D02*
X450850000Y-118110000D01*
X464820000Y-119380000D02*
X463550000Y-118110000D01*
X450850000Y-118110000D02*
X449610000Y-116870000D01*
X478249999Y-169335001D02*
X474980000Y-166065002D01*
X479731371Y-169335001D02*
X478249999Y-169335001D01*
X481630000Y-172365000D02*
X481630000Y-171233630D01*
X481630000Y-171233630D02*
X479731371Y-169335001D01*
X474980000Y-143290000D02*
X464820000Y-133130000D01*
X474980000Y-166065002D02*
X474980000Y-143290000D01*
X316085001Y-218824999D02*
X322830001Y-218824999D01*
X314960000Y-219950000D02*
X316085001Y-218824999D01*
X322830001Y-218824999D02*
X326390000Y-215265000D01*
X326390000Y-193675000D02*
X335945000Y-184120000D01*
X326390000Y-215265000D02*
X326390000Y-193675000D01*
X434340000Y-204470000D02*
X387350000Y-204470000D01*
X387350000Y-204470000D02*
X387350000Y-204470000D01*
X482755001Y-195065001D02*
X464460002Y-213360000D01*
X481630000Y-166825000D02*
X482755001Y-167950001D01*
X482755001Y-167950001D02*
X482755001Y-195065001D01*
X464460002Y-213360000D02*
X433832000Y-213360000D01*
X433832000Y-213360000D02*
X433832000Y-213360000D01*
X327660000Y-215267820D02*
X327660000Y-204471410D01*
X314960000Y-222720000D02*
X320207820Y-222720000D01*
X320207820Y-222720000D02*
X327660000Y-215267820D01*
X328186592Y-204471410D02*
X335173002Y-197485000D01*
X327660000Y-204471410D02*
X328186592Y-204471410D01*
X348615000Y-197485000D02*
X350475000Y-195625000D01*
X335173002Y-197485000D02*
X348615000Y-197485000D01*
X361428590Y-231255000D02*
X358959990Y-228786400D01*
X481630000Y-231255000D02*
X361428590Y-231255000D01*
X358959990Y-204109990D02*
X350475000Y-195625000D01*
X358959990Y-228786400D02*
X358959990Y-204109990D01*
X319340000Y-225490000D02*
X335945000Y-208885000D01*
X314960000Y-225490000D02*
X319340000Y-225490000D01*
X362925770Y-234025000D02*
X357689990Y-228789220D01*
X481630000Y-234025000D02*
X362925770Y-234025000D01*
X357689990Y-228789220D02*
X357689990Y-210369990D01*
X357689990Y-210369990D02*
X353060000Y-205740000D01*
X339090000Y-205740000D02*
X335945000Y-208885000D01*
X353060000Y-205740000D02*
X339090000Y-205740000D01*
X324487820Y-221615000D02*
X344170000Y-221615000D01*
X314960000Y-228260000D02*
X317842820Y-228260000D01*
X317842820Y-228260000D02*
X324487820Y-221615000D01*
X364422950Y-236795000D02*
X356419990Y-228792040D01*
X481630000Y-236795000D02*
X364422950Y-236795000D01*
X356419990Y-228792040D02*
X356419990Y-223069990D01*
X344735685Y-221615000D02*
X344170000Y-221615000D01*
X348616410Y-221615000D02*
X344735685Y-221615000D01*
X349251410Y-222250000D02*
X348616410Y-221615000D01*
X355600000Y-222250000D02*
X349251410Y-222250000D01*
X356419990Y-223069990D02*
X355600000Y-222250000D01*
X333325000Y-231030000D02*
X335945000Y-233650000D01*
X314960000Y-231030000D02*
X333325000Y-231030000D01*
X356868590Y-231140000D02*
X338455000Y-231140000D01*
X338455000Y-231140000D02*
X335945000Y-233650000D01*
X365553589Y-239824999D02*
X356868590Y-231140000D01*
X481630000Y-239565000D02*
X481370001Y-239824999D01*
X481370001Y-239824999D02*
X365553589Y-239824999D01*
X314960000Y-233800000D02*
X328175000Y-247015000D01*
X349250000Y-247015000D02*
X351110000Y-245155000D01*
X328175000Y-247015000D02*
X349250000Y-247015000D01*
X353930000Y-242335000D02*
X351110000Y-245155000D01*
X481630000Y-242335000D02*
X353930000Y-242335000D01*
X336550000Y-258160000D02*
X336550000Y-258445000D01*
X314960000Y-236570000D02*
X336550000Y-258160000D01*
X339725000Y-255270000D02*
X336550000Y-258445000D01*
X350520000Y-255270000D02*
X339725000Y-255270000D01*
X478504998Y-245110000D02*
X360680000Y-245110000D01*
X481630000Y-245105000D02*
X478509998Y-245105000D01*
X360680000Y-245110000D02*
X350520000Y-255270000D01*
X478509998Y-245105000D02*
X478504998Y-245110000D01*
X329114991Y-262242993D02*
X338651998Y-271780000D01*
X314960000Y-239340000D02*
X329114991Y-253494991D01*
X329114991Y-253494991D02*
X329114991Y-262242993D01*
X350520000Y-271780000D02*
X352380000Y-269920000D01*
X338651998Y-271780000D02*
X350520000Y-271780000D01*
X481630000Y-247875000D02*
X368075000Y-247875000D01*
X352380000Y-263570000D02*
X352380000Y-269920000D01*
X368075000Y-247875000D02*
X352380000Y-263570000D01*
X481630000Y-147435000D02*
X481370001Y-147694999D01*
X463200000Y-211500000D02*
X478790000Y-195910000D01*
X463155000Y-211455000D02*
X463200000Y-211500000D01*
X460375000Y-211455000D02*
X463155000Y-211455000D01*
X468530000Y-193140000D02*
X462915000Y-198755000D01*
X478790000Y-193140000D02*
X468530000Y-193140000D01*
X467965000Y-186085000D02*
X449610000Y-186085000D01*
X472250000Y-190370000D02*
X467965000Y-186085000D01*
X478790000Y-190370000D02*
X472250000Y-190370000D01*
X462915000Y-178365685D02*
X462915000Y-177800000D01*
X472096996Y-187600000D02*
X462915000Y-178418004D01*
X462915000Y-178418004D02*
X462915000Y-178365685D01*
X478790000Y-187600000D02*
X472096996Y-187600000D01*
X478790000Y-184830000D02*
X462280000Y-168320000D01*
X462280000Y-168320000D02*
X462280000Y-165668000D01*
X462280000Y-165668000D02*
X461742000Y-165130000D01*
X461742000Y-165130000D02*
X449610000Y-165130000D01*
X463314999Y-157244999D02*
X462915000Y-156845000D01*
X463455010Y-157385010D02*
X463314999Y-157244999D01*
X463455010Y-166725010D02*
X463455010Y-157385010D01*
X478790000Y-182060000D02*
X463455010Y-166725010D01*
X452120000Y-146685000D02*
X449610000Y-144175000D01*
X478790000Y-179290000D02*
X472440000Y-172940000D01*
X472440000Y-172940000D02*
X472440000Y-149860000D01*
X469265000Y-146685000D02*
X452120000Y-146685000D01*
X472440000Y-149860000D02*
X469265000Y-146685000D01*
X477658630Y-176520000D02*
X473456000Y-172317370D01*
X478790000Y-176520000D02*
X477658630Y-176520000D01*
X473456000Y-172317370D02*
X473456000Y-144122410D01*
X465223590Y-135890000D02*
X462915000Y-135890000D01*
X473456000Y-144122410D02*
X465223590Y-135890000D01*
X463640001Y-133033591D02*
X463640001Y-128360001D01*
X463640001Y-128360001D02*
X461010000Y-125730000D01*
X461010000Y-125730000D02*
X450215000Y-125730000D01*
X449610000Y-125125000D02*
X449610000Y-123220000D01*
X450215000Y-125730000D02*
X449610000Y-125125000D01*
X478790000Y-173750000D02*
X474472000Y-169432000D01*
X474472000Y-143418410D02*
X465165590Y-134112000D01*
X474472000Y-169432000D02*
X474472000Y-143418410D01*
X464718410Y-134112000D02*
X463640001Y-133033591D01*
X465165590Y-134112000D02*
X464718410Y-134112000D01*
X320956410Y-221335000D02*
X327025000Y-215266410D01*
X312120000Y-221335000D02*
X320956410Y-221335000D01*
X327025000Y-204470000D02*
X336550000Y-194945000D01*
X327025000Y-215266410D02*
X327025000Y-204470000D01*
X478790000Y-229870000D02*
X360680000Y-229870000D01*
X360680000Y-229870000D02*
X359410000Y-228600000D01*
X336949999Y-194545001D02*
X336550000Y-194945000D01*
X337079999Y-194415001D02*
X336949999Y-194545001D01*
X350338003Y-194415001D02*
X337079999Y-194415001D01*
X359410000Y-203486998D02*
X350338003Y-194415001D01*
X359410000Y-228600000D02*
X359410000Y-203486998D01*
X319459230Y-224105000D02*
X328295000Y-215269230D01*
X312120000Y-224105000D02*
X319459230Y-224105000D01*
X328295000Y-215269230D02*
X328295000Y-205740000D01*
X328295000Y-205740000D02*
X335915000Y-198120000D01*
X348615000Y-198120000D02*
X351155000Y-200660000D01*
X335915000Y-198120000D02*
X348615000Y-198120000D01*
X362177180Y-232640000D02*
X358140000Y-228602820D01*
X478790000Y-232640000D02*
X362177180Y-232640000D01*
X358140000Y-207645000D02*
X351155000Y-200660000D01*
X358140000Y-228602820D02*
X358140000Y-207645000D01*
X312120000Y-226875000D02*
X318591410Y-226875000D01*
X325756410Y-219710000D02*
X336550000Y-219710000D01*
X318591410Y-226875000D02*
X325756410Y-219710000D01*
X336949999Y-219310001D02*
X336550000Y-219710000D01*
X355200001Y-219310001D02*
X336949999Y-219310001D01*
X356870000Y-220980000D02*
X355200001Y-219310001D01*
X363674360Y-235410000D02*
X356870000Y-228605640D01*
X356870000Y-228605640D02*
X356870000Y-220980000D01*
X478790000Y-235410000D02*
X363674360Y-235410000D01*
X343731998Y-222250000D02*
X343821999Y-222340001D01*
X343821999Y-222340001D02*
X348705001Y-222340001D01*
X324489230Y-222250000D02*
X343731998Y-222250000D01*
X312120000Y-229645000D02*
X317094230Y-229645000D01*
X348705001Y-222340001D02*
X351155000Y-224790000D01*
X317094230Y-229645000D02*
X324489230Y-222250000D01*
X364545000Y-238180000D02*
X351155000Y-224790000D01*
X478790000Y-238180000D02*
X364545000Y-238180000D01*
X312120000Y-232415000D02*
X323855000Y-232415000D01*
X335915000Y-244475000D02*
X335915000Y-245110000D01*
X323855000Y-232415000D02*
X335915000Y-244475000D01*
X335915000Y-241935000D02*
X335915000Y-245110000D01*
X339090000Y-238760000D02*
X335915000Y-241935000D01*
X363220000Y-238760000D02*
X339090000Y-238760000D01*
X478790000Y-240950000D02*
X365410000Y-240950000D01*
X365410000Y-240950000D02*
X363220000Y-238760000D01*
X315240002Y-235185000D02*
X327705002Y-247650000D01*
X312120000Y-235185000D02*
X315240002Y-235185000D01*
X349885000Y-247650000D02*
X351790000Y-249555000D01*
X327705002Y-247650000D02*
X349885000Y-247650000D01*
X357625000Y-243720000D02*
X351790000Y-249555000D01*
X478790000Y-243720000D02*
X357625000Y-243720000D01*
X315425000Y-237955000D02*
X329565000Y-252095000D01*
X312120000Y-237955000D02*
X315425000Y-237955000D01*
X329565000Y-261620000D02*
X337185000Y-269240000D01*
X329565000Y-252095000D02*
X329565000Y-261620000D01*
X337185000Y-266065000D02*
X337185000Y-269240000D01*
X339090000Y-264160000D02*
X337185000Y-266065000D01*
X478790000Y-246490000D02*
X365870000Y-246490000D01*
X348200000Y-264160000D02*
X339090000Y-264160000D01*
X365870000Y-246490000D02*
X348200000Y-264160000D01*
X328664982Y-262429394D02*
X338650588Y-272415000D01*
X328664981Y-254149979D02*
X328664982Y-262429394D01*
X315500001Y-240984999D02*
X328664981Y-254149979D01*
X312120000Y-240725000D02*
X312379999Y-240984999D01*
X312379999Y-240984999D02*
X315500001Y-240984999D01*
X349250000Y-272415000D02*
X352410000Y-275575000D01*
X338650588Y-272415000D02*
X349250000Y-272415000D01*
X378725000Y-249260000D02*
X352410000Y-275575000D01*
X478790000Y-249260000D02*
X378725000Y-249260000D01*
X478179998Y-79905000D02*
X452225000Y-79905000D01*
X313251370Y-79905000D02*
X312120000Y-79905000D01*
X478509998Y-80235000D02*
X478179998Y-79905000D01*
X481630000Y-80235000D02*
X478509998Y-80235000D01*
X452225000Y-79905000D02*
X313251370Y-79905000D01*
X313251370Y-77135000D02*
X312120000Y-77135000D01*
X315240002Y-77135000D02*
X313251370Y-77135000D01*
X315570002Y-77465000D02*
X315240002Y-77135000D01*
X481630000Y-77465000D02*
X448950000Y-77465000D01*
X448950000Y-77465000D02*
X315570002Y-77465000D01*
X480498630Y-74695000D02*
X481630000Y-74695000D01*
X478509998Y-74695000D02*
X480498630Y-74695000D01*
X478179998Y-74365000D02*
X478509998Y-74695000D01*
X312120000Y-74365000D02*
X445700000Y-74365000D01*
X445700000Y-74365000D02*
X478179998Y-74365000D01*
X313251370Y-71595000D02*
X312120000Y-71595000D01*
X478179998Y-71595000D02*
X442755000Y-71595000D01*
X478509998Y-71925000D02*
X478179998Y-71595000D01*
X481630000Y-71925000D02*
X478509998Y-71925000D01*
X442755000Y-71595000D02*
X313251370Y-71595000D01*
X313251370Y-68825000D02*
X312120000Y-68825000D01*
X480428629Y-69084999D02*
X439550001Y-69084999D01*
X480498630Y-69155000D02*
X480428629Y-69084999D01*
X313511369Y-69084999D02*
X313251370Y-68825000D01*
X481630000Y-69155000D02*
X480498630Y-69155000D01*
X439550001Y-69084999D02*
X313511369Y-69084999D01*
X313251370Y-66055000D02*
X312120000Y-66055000D01*
X313511369Y-66314999D02*
X313251370Y-66055000D01*
X480428629Y-66314999D02*
X436605001Y-66314999D01*
X480498630Y-66385000D02*
X480428629Y-66314999D01*
X481630000Y-66385000D02*
X480498630Y-66385000D01*
X436605001Y-66314999D02*
X313511369Y-66314999D01*
X477664999Y-63285000D02*
X434555000Y-63285000D01*
X313251370Y-63285000D02*
X312120000Y-63285000D01*
X477994999Y-63615000D02*
X477664999Y-63285000D01*
X481630000Y-63615000D02*
X477994999Y-63615000D01*
X434555000Y-63285000D02*
X313251370Y-63285000D01*
X315290000Y-81620000D02*
X314960000Y-81290000D01*
X478790000Y-81620000D02*
X453685000Y-81620000D01*
X453685000Y-81620000D02*
X315290000Y-81620000D01*
X315290000Y-78850000D02*
X314960000Y-78520000D01*
X478790000Y-78850000D02*
X450740000Y-78850000D01*
X450740000Y-78850000D02*
X315290000Y-78850000D01*
X315290000Y-76080000D02*
X314960000Y-75750000D01*
X478790000Y-76080000D02*
X447160000Y-76080000D01*
X447160000Y-76080000D02*
X315290000Y-76080000D01*
X315290000Y-73310000D02*
X314960000Y-72980000D01*
X478790000Y-73310000D02*
X444215000Y-73310000D01*
X444215000Y-73310000D02*
X315290000Y-73310000D01*
X315290000Y-70540000D02*
X314960000Y-70210000D01*
X478790000Y-70540000D02*
X441270000Y-70540000D01*
X441270000Y-70540000D02*
X315290000Y-70540000D01*
X315290000Y-67770000D02*
X314960000Y-67440000D01*
X478790000Y-67770000D02*
X438325000Y-67770000D01*
X438325000Y-67770000D02*
X315290000Y-67770000D01*
X315290000Y-65000000D02*
X314960000Y-64670000D01*
X478790000Y-65000000D02*
X435380000Y-65000000D01*
X435380000Y-65000000D02*
X315290000Y-65000000D01*
X315290000Y-62230000D02*
X314960000Y-61900000D01*
X478790000Y-62230000D02*
X433705000Y-62230000D01*
X433705000Y-62230000D02*
X315290000Y-62230000D01*
X457085000Y-299769998D02*
X457085000Y-311588630D01*
X457085000Y-311588630D02*
X457085000Y-312720000D01*
X478509998Y-278345000D02*
X457085000Y-299769998D01*
X481630000Y-278345000D02*
X478509998Y-278345000D01*
X454315000Y-311588630D02*
X454315000Y-312720000D01*
X454315000Y-299769998D02*
X454315000Y-311588630D01*
X478509998Y-275575000D02*
X454315000Y-299769998D01*
X481630000Y-275575000D02*
X478509998Y-275575000D01*
X451545000Y-311588630D02*
X451545000Y-312720000D01*
X451545000Y-299769998D02*
X451545000Y-311588630D01*
X478509998Y-272805000D02*
X451545000Y-299769998D01*
X481630000Y-272805000D02*
X478509998Y-272805000D01*
X448775000Y-311588630D02*
X448775000Y-312720000D01*
X448775000Y-299769998D02*
X448775000Y-311588630D01*
X478509998Y-270035000D02*
X448775000Y-299769998D01*
X481630000Y-270035000D02*
X478509998Y-270035000D01*
X478407220Y-267265000D02*
X478337220Y-267335000D01*
X481630000Y-267265000D02*
X478407220Y-267265000D01*
X478337220Y-267335000D02*
X477520000Y-267335000D01*
X446005000Y-298850000D02*
X446005000Y-312720000D01*
X477520000Y-267335000D02*
X446005000Y-298850000D01*
X478407220Y-264495000D02*
X478107220Y-264795000D01*
X481630000Y-264495000D02*
X478407220Y-264495000D01*
X478107220Y-264795000D02*
X476885000Y-264795000D01*
X443235000Y-298445000D02*
X443235000Y-312720000D01*
X476885000Y-264795000D02*
X443235000Y-298445000D01*
X478048590Y-261725000D02*
X477943590Y-261620000D01*
X481630000Y-261725000D02*
X478048590Y-261725000D01*
X477943590Y-261620000D02*
X477520000Y-261620000D01*
X440465000Y-298675000D02*
X440465000Y-312720000D01*
X477520000Y-261620000D02*
X440465000Y-298675000D01*
X480498630Y-258955000D02*
X481630000Y-258955000D01*
X478407220Y-258955000D02*
X480498630Y-258955000D01*
X456057220Y-281305000D02*
X478407220Y-258955000D01*
X399415000Y-281305000D02*
X456057220Y-281305000D01*
X481405000Y-256410000D02*
X481630000Y-256185000D01*
X469770000Y-256410000D02*
X481405000Y-256410000D01*
X439329999Y-87720001D02*
X339815001Y-87720001D01*
X440690000Y-86360000D02*
X439329999Y-87720001D01*
X339815001Y-87720001D02*
X339815001Y-87720001D01*
X464105000Y-250645000D02*
X481630000Y-250645000D01*
X460880000Y-256540000D02*
X460880000Y-253870000D01*
X460880000Y-253870000D02*
X464105000Y-250645000D01*
X437750001Y-85960001D02*
X341230001Y-85960001D01*
X438150000Y-86360000D02*
X437750001Y-85960001D01*
X341230001Y-85960001D02*
X341230001Y-85960001D01*
X451227000Y-266193000D02*
X460880000Y-256540000D01*
X395731000Y-266193000D02*
X451227000Y-266193000D01*
X458470000Y-300050000D02*
X458470000Y-309880000D01*
X478790000Y-279730000D02*
X458470000Y-300050000D01*
X455700000Y-300050000D02*
X455700000Y-309880000D01*
X478790000Y-276960000D02*
X455700000Y-300050000D01*
X452930000Y-300050000D02*
X452930000Y-309880000D01*
X478790000Y-274190000D02*
X452930000Y-300050000D01*
X450160000Y-300050000D02*
X450160000Y-309880000D01*
X478790000Y-271420000D02*
X450160000Y-300050000D01*
X447390000Y-308748630D02*
X447390000Y-309880000D01*
X447390000Y-298918630D02*
X447390000Y-308748630D01*
X477658630Y-268650000D02*
X447390000Y-298918630D01*
X478790000Y-268650000D02*
X477658630Y-268650000D01*
X444620000Y-308748630D02*
X444620000Y-309880000D01*
X444620000Y-298918630D02*
X444620000Y-308748630D01*
X477658630Y-265880000D02*
X444620000Y-298918630D01*
X478790000Y-265880000D02*
X477658630Y-265880000D01*
X441850000Y-298560000D02*
X441850000Y-309880000D01*
X477438630Y-262971370D02*
X441850000Y-298560000D01*
X477577260Y-263110000D02*
X478790000Y-263110000D01*
X477438630Y-262971370D02*
X477577260Y-263110000D01*
X439080000Y-298918630D02*
X439080000Y-308748630D01*
X477658630Y-260340000D02*
X439080000Y-298918630D01*
X439080000Y-308748630D02*
X439080000Y-309880000D01*
X478790000Y-260340000D02*
X477658630Y-260340000D01*
X456145000Y-128055000D02*
X456565000Y-127635000D01*
X383755000Y-128055000D02*
X456145000Y-128055000D01*
X338219999Y-237090001D02*
X337820000Y-237490000D01*
X339489999Y-235820001D02*
X338219999Y-237090001D01*
X348850001Y-235820001D02*
X339489999Y-235820001D01*
X349250000Y-236220000D02*
X348850001Y-235820001D01*
X349235000Y-187340000D02*
X349855000Y-186720000D01*
X349235000Y-193025000D02*
X349235000Y-187340000D01*
X382330001Y-134559999D02*
X447735001Y-134559999D01*
X380985000Y-135905000D02*
X382330001Y-134559999D01*
X345504999Y-276795001D02*
X345504999Y-280099999D01*
X347980000Y-282575000D02*
X425230000Y-282575000D01*
X345504999Y-280099999D02*
X347980000Y-282575000D01*
X456165001Y-148989999D02*
X456565000Y-148590000D01*
X378614999Y-149070001D02*
X456084999Y-149070001D01*
X456084999Y-149070001D02*
X456165001Y-148989999D01*
X378215000Y-149470000D02*
X378614999Y-149070001D01*
X377649315Y-166615000D02*
X378215000Y-166615000D01*
X371426998Y-166615000D02*
X377649315Y-166615000D01*
X370516998Y-167525000D02*
X371426998Y-166615000D01*
X312120000Y-167525000D02*
X370516998Y-167525000D01*
X454599999Y-155514999D02*
X454895001Y-155810001D01*
X375980001Y-155514999D02*
X454599999Y-155514999D01*
X454895001Y-155810001D02*
X455295000Y-156210000D01*
X375445000Y-156050000D02*
X375980001Y-155514999D01*
X375260000Y-164755000D02*
X375445000Y-164940000D01*
X312120000Y-164755000D02*
X375260000Y-164755000D01*
X455545001Y-169765001D02*
X455945000Y-170165000D01*
X455370001Y-169590001D02*
X455545001Y-169765001D01*
X373285001Y-169590001D02*
X455370001Y-169590001D01*
X372675000Y-168980000D02*
X373285001Y-169590001D01*
X372665000Y-161985000D02*
X372675000Y-161995000D01*
X312120000Y-161985000D02*
X372665000Y-161985000D01*
X454895001Y-176765001D02*
X455295000Y-177165000D01*
X370900001Y-176469999D02*
X454599999Y-176469999D01*
X454599999Y-176469999D02*
X454895001Y-176765001D01*
X369905000Y-177465000D02*
X370900001Y-176469999D01*
X449460002Y-210485000D02*
X449670001Y-210275001D01*
X369905000Y-210485000D02*
X449460002Y-210485000D01*
X461720000Y-191665000D02*
X462265000Y-191120000D01*
X367135000Y-191665000D02*
X461720000Y-191665000D01*
X373779999Y-273449999D02*
X373380000Y-273050000D01*
X410754999Y-273775001D02*
X374105001Y-273775001D01*
X374105001Y-273775001D02*
X373779999Y-273449999D01*
X411380000Y-273150000D02*
X410754999Y-273775001D01*
X364475000Y-199405000D02*
X364365000Y-199515000D01*
X449595000Y-199405000D02*
X364475000Y-199405000D01*
X359715000Y-275285000D02*
X359440000Y-275560000D01*
X408610000Y-275285000D02*
X359715000Y-275285000D01*
X454990000Y-201600000D02*
X457200000Y-199390000D01*
X385140000Y-201600000D02*
X454990000Y-201600000D01*
X449313003Y-120719999D02*
X385539999Y-120719999D01*
X457200000Y-120015000D02*
X450018002Y-120015000D01*
X385539999Y-120719999D02*
X385140000Y-120320000D01*
X450018002Y-120015000D02*
X449313003Y-120719999D01*
X455960000Y-183485000D02*
X456565000Y-182880000D01*
X450245000Y-183485000D02*
X455960000Y-183485000D01*
X459630686Y-180300001D02*
X460489316Y-180300001D01*
X460489316Y-180300001D02*
X461055001Y-180300001D01*
X451415685Y-172085000D02*
X459630686Y-180300001D01*
X450850000Y-172085000D02*
X451415685Y-172085000D01*
X452755000Y-130175000D02*
X461010000Y-138430000D01*
X450850000Y-130175000D02*
X452755000Y-130175000D01*
X389654999Y-272650001D02*
X389255000Y-273050000D01*
X389880001Y-272424999D02*
X389654999Y-272650001D01*
X425074999Y-272424999D02*
X389880001Y-272424999D01*
X429385000Y-276735000D02*
X425074999Y-272424999D01*
X384574315Y-139370000D02*
X385140000Y-139370000D01*
X347871998Y-139370000D02*
X384574315Y-139370000D01*
X329411998Y-157830000D02*
X347871998Y-139370000D01*
X314960000Y-157830000D02*
X329411998Y-157830000D01*
X450840000Y-126900000D02*
X450895000Y-126955000D01*
X382370000Y-126900000D02*
X450840000Y-126900000D01*
X456830001Y-143775001D02*
X457230000Y-144175000D01*
X456504999Y-143449999D02*
X456830001Y-143775001D01*
X380425001Y-143449999D02*
X456504999Y-143449999D01*
X379600000Y-144275000D02*
X380425001Y-143449999D01*
X379034315Y-170945000D02*
X379600000Y-170945000D01*
X318045000Y-170945000D02*
X379034315Y-170945000D01*
X316010000Y-168910000D02*
X318045000Y-170945000D01*
X314960000Y-168910000D02*
X316010000Y-168910000D01*
X450575000Y-147680000D02*
X450850000Y-147955000D01*
X376830000Y-147680000D02*
X450575000Y-147680000D01*
X376150000Y-166140000D02*
X376830000Y-165460000D01*
X314960000Y-166140000D02*
X376150000Y-166140000D01*
X455885000Y-163785000D02*
X455930000Y-163830000D01*
X374060000Y-163785000D02*
X455885000Y-163785000D01*
X373645000Y-163370000D02*
X374060000Y-163785000D01*
X314960000Y-163370000D02*
X373645000Y-163370000D01*
X449855000Y-167825000D02*
X450895000Y-168865000D01*
X371290000Y-167825000D02*
X449855000Y-167825000D01*
X371520000Y-207600000D02*
X371290000Y-207830000D01*
X450260000Y-207600000D02*
X371520000Y-207600000D01*
X455710000Y-184565000D02*
X455930000Y-184785000D01*
X368520000Y-184565000D02*
X455710000Y-184565000D01*
X390540000Y-277480000D02*
X390510000Y-277510000D01*
X412765000Y-277480000D02*
X390540000Y-277480000D01*
X450169999Y-190545001D02*
X450495001Y-190219999D01*
X366420001Y-190545001D02*
X450169999Y-190545001D01*
X365750000Y-189875000D02*
X366420001Y-190545001D01*
X450495001Y-190219999D02*
X451485000Y-189230000D01*
X361530000Y-279615000D02*
X359425000Y-277510000D01*
X409995000Y-279615000D02*
X361530000Y-279615000D01*
X314960000Y-155060000D02*
X321825000Y-155060000D01*
X368950000Y-107935000D02*
X481630000Y-107935000D01*
X321825000Y-155060000D02*
X368950000Y-107935000D01*
X314960000Y-152290000D02*
X320150000Y-152290000D01*
X367275000Y-105165000D02*
X481630000Y-105165000D01*
X320150000Y-152290000D02*
X367275000Y-105165000D01*
X315759999Y-150319999D02*
X318310001Y-150319999D01*
X314960000Y-149520000D02*
X315759999Y-150319999D01*
X366235000Y-102395000D02*
X481630000Y-102395000D01*
X318310001Y-150319999D02*
X366235000Y-102395000D01*
X314960000Y-146750000D02*
X317435000Y-146750000D01*
X364560000Y-99625000D02*
X481630000Y-99625000D01*
X317435000Y-146750000D02*
X364560000Y-99625000D01*
X315759999Y-143180001D02*
X317194999Y-143180001D01*
X314960000Y-143980000D02*
X315759999Y-143180001D01*
X363520000Y-96855000D02*
X481630000Y-96855000D01*
X317194999Y-143180001D02*
X363520000Y-96855000D01*
X362085000Y-94085000D02*
X314960000Y-141210000D01*
X481630000Y-94085000D02*
X362085000Y-94085000D01*
X314960000Y-138440000D02*
X362595000Y-90805000D01*
X480498630Y-91315000D02*
X481630000Y-91315000D01*
X478509998Y-91315000D02*
X480498630Y-91315000D01*
X477999998Y-90805000D02*
X478509998Y-91315000D01*
X362595000Y-90805000D02*
X477999998Y-90805000D01*
X314960000Y-135670000D02*
X362085000Y-88545000D01*
X480415000Y-88545000D02*
X481630000Y-88545000D01*
X362085000Y-88545000D02*
X480415000Y-88545000D01*
X312120000Y-156445000D02*
X322980000Y-156445000D01*
X370105000Y-109320000D02*
X478790000Y-109320000D01*
X322980000Y-156445000D02*
X370105000Y-109320000D01*
X312120000Y-153675000D02*
X320670000Y-153675000D01*
X367795000Y-106550000D02*
X478790000Y-106550000D01*
X320670000Y-153675000D02*
X367795000Y-106550000D01*
X312120000Y-150905000D02*
X319630000Y-150905000D01*
X366755000Y-103780000D02*
X478790000Y-103780000D01*
X319630000Y-150905000D02*
X366755000Y-103780000D01*
X312120000Y-148135000D02*
X317955000Y-148135000D01*
X365080000Y-101010000D02*
X478790000Y-101010000D01*
X317955000Y-148135000D02*
X365080000Y-101010000D01*
X312120000Y-145365000D02*
X316915000Y-145365000D01*
X364040000Y-98240000D02*
X478790000Y-98240000D01*
X316915000Y-145365000D02*
X364040000Y-98240000D01*
X312120000Y-142595000D02*
X315875000Y-142595000D01*
X363000000Y-95470000D02*
X478790000Y-95470000D01*
X315875000Y-142595000D02*
X363000000Y-95470000D01*
X362365002Y-92700000D02*
X478790000Y-92700000D01*
X312120000Y-139825000D02*
X315240002Y-139825000D01*
X315240002Y-139825000D02*
X362365002Y-92700000D01*
X477658630Y-89930000D02*
X477263630Y-89535000D01*
X478790000Y-89930000D02*
X477658630Y-89930000D01*
X477263630Y-89535000D02*
X362585000Y-89535000D01*
X315240002Y-137055000D02*
X313251370Y-137055000D01*
X316085001Y-136210001D02*
X315240002Y-137055000D01*
X313251370Y-137055000D02*
X312120000Y-137055000D01*
X316085001Y-136034999D02*
X316085001Y-136210001D01*
X362585000Y-89535000D02*
X316085001Y-136034999D01*
X314960000Y-160600000D02*
X329620000Y-160600000D01*
X329620000Y-160600000D02*
X339090000Y-151130000D01*
X339090000Y-151130000D02*
X339090000Y-151130000D01*
X361950000Y-173990000D02*
X361950000Y-226695000D01*
X360362500Y-172402500D02*
X361950000Y-173990000D01*
X339090000Y-152400000D02*
X346710000Y-160020000D01*
X339090000Y-151130000D02*
X339090000Y-152400000D01*
X312120000Y-159215000D02*
X328465000Y-159215000D01*
X328465000Y-159215000D02*
X329100000Y-159215000D01*
X329100000Y-159215000D02*
X339090000Y-149225000D01*
X339090000Y-149225000D02*
X339090000Y-149225000D01*
X339090000Y-149790685D02*
X348014657Y-158715343D01*
X339090000Y-149225000D02*
X339090000Y-149790685D01*
X362400010Y-225240010D02*
X363855000Y-226695000D01*
X362400010Y-173100695D02*
X362400010Y-225240010D01*
X361667158Y-172367842D02*
X362400010Y-173100695D01*
X351790000Y-216731998D02*
X351790000Y-217874315D01*
X351790000Y-217874315D02*
X351790000Y-218440000D01*
X344593002Y-209535000D02*
X351790000Y-216731998D01*
X339105000Y-209535000D02*
X344593002Y-209535000D01*
X339489999Y-265765001D02*
X339090000Y-266165000D01*
X339915001Y-265339999D02*
X339489999Y-265765001D01*
X344714999Y-265339999D02*
X339915001Y-265339999D01*
X345440000Y-266065000D02*
X344714999Y-265339999D01*
X342415001Y-245200001D02*
X339519999Y-242304999D01*
X339519999Y-242304999D02*
X339120000Y-241905000D01*
X348524999Y-245200001D02*
X342415001Y-245200001D01*
X349870000Y-243855000D02*
X348524999Y-245200001D01*
X343603003Y-217539999D02*
X340154999Y-217539999D01*
X340154999Y-217539999D02*
X339755000Y-217140000D01*
X351041501Y-217056501D02*
X344086501Y-217056501D01*
X344086501Y-217056501D02*
X343603003Y-217539999D01*
X337584999Y-192005001D02*
X337185000Y-192405000D01*
X341494999Y-188095001D02*
X337584999Y-192005001D01*
X346069999Y-188095001D02*
X341494999Y-188095001D01*
X348745000Y-185420000D02*
X346069999Y-188095001D01*
X451470000Y-192420000D02*
X450215000Y-193675000D01*
X463535000Y-192420000D02*
X451470000Y-192420000D01*
X364460000Y-278160000D02*
X366410000Y-276210000D01*
X363825000Y-278160000D02*
X364460000Y-278160000D01*
X348615000Y-151130000D02*
X348615000Y-153670000D01*
X365360001Y-226295001D02*
X365760000Y-226695000D01*
X363639999Y-224574999D02*
X365360001Y-226295001D01*
X348615000Y-153670000D02*
X350202500Y-155257500D01*
X363639999Y-172300001D02*
X363639999Y-224574999D01*
X313251370Y-82675000D02*
X312120000Y-82675000D01*
X315240002Y-82675000D02*
X313251370Y-82675000D01*
X315570002Y-83005000D02*
X315240002Y-82675000D01*
X481630000Y-83005000D02*
X454840000Y-83005000D01*
X454840000Y-83005000D02*
X315570002Y-83005000D01*
X338050000Y-45581370D02*
X348348630Y-55880000D01*
X338050000Y-44450000D02*
X338050000Y-45581370D01*
X348348630Y-55880000D02*
X401320000Y-55880000D01*
X401320000Y-55880000D02*
X401320000Y-55880000D01*
X342910001Y-310679999D02*
X343710000Y-309880000D01*
X342584999Y-311005001D02*
X342910001Y-310679999D01*
X337629999Y-311005001D02*
X342584999Y-311005001D01*
X337044999Y-310420001D02*
X337629999Y-311005001D01*
X337044999Y-289065001D02*
X337044999Y-310420001D01*
X344170000Y-281940000D02*
X337044999Y-289065001D01*
X370840000Y-129540000D02*
X447040000Y-129540000D01*
X361315000Y-120015000D02*
X370840000Y-129540000D01*
M02*
