M48
; DRILL file {KiCad 5.1.5-52549c5~84~ubuntu18.04.1} date Sun 07 Jun 2020 09:28:09 PM PDT
; FORMAT={-:-/ absolute / inch / decimal}
; #@! TF.CreationDate,2020-06-07T21:28:09-07:00
; #@! TF.GenerationSoftware,Kicad,Pcbnew,5.1.5-52549c5~84~ubuntu18.04.1
FMAT,2
INCH
T1C0.0157
T2C0.0300
T3C0.0315
T4C0.0394
T5C0.1260
T6C0.0630
%
G90
G05
T1
X13.225Y-9.65
X13.2262Y-7.2488
X13.2262Y-8.2238
X13.2262Y-9.1988
X13.25Y-7.675
X13.25Y-8.65
X13.25Y-10.175
X13.275Y-7.575
X13.275Y-10.6
X13.3Y-7.725
X13.3Y-9.35
X13.3Y-10.3
X13.3006Y-7.3256
X13.3006Y-7.9256
X13.3006Y-8.3006
X13.3006Y-8.9006
X13.3006Y-9.2756
X13.3006Y-9.8756
X13.3006Y-10.2506
X13.3006Y-10.8506
X13.35Y-5.875
X13.35Y-5.95
X13.35Y-7.875
X13.35Y-9.825
X13.35Y-10.4789
X13.3506Y-8.2494
X13.3506Y-10.9006
X13.3512Y-7.5738
X13.3512Y-9.5238
X13.3518Y-10.7982
X13.375Y-8.8533
X13.3762Y-8.5488
X13.3768Y-7.0518
X13.3768Y-7.3768
X13.3768Y-7.7018
X13.3768Y-8.0268
X13.3768Y-8.3518
X13.3768Y-8.6768
X13.3768Y-9.0018
X13.3768Y-9.3268
X13.3768Y-9.6518
X13.3768Y-9.9768
X13.3768Y-10.3018
X13.3768Y-10.6268
X13.3768Y-10.9518
X13.3785Y-3.4535
X13.425Y-8.15
X13.425Y-10.1
X13.4343Y-3.3843
X13.4972Y-10.575
X13.4984Y-8.3
X13.4988Y-10.9262
X13.4994Y-7.2744
X13.4994Y-9.2244
X13.5Y-8.925
X13.5Y-10.175
X13.5Y-10.625
X13.525Y-6.025
X13.525Y-7.55
X13.525Y-7.9
X13.525Y-8.525
X13.525Y-9.5
X13.525Y-9.85
X13.525Y-10.475
X13.525Y-10.875
X13.55Y-8.725
X13.55Y-11.1
X13.5506Y-7.6256
X13.5506Y-8.3506
X13.5506Y-8.6006
X13.5506Y-9.3256
X13.5506Y-9.5756
X13.5506Y-10.3006
X13.5506Y-10.5256
X13.5518Y-7.3768
X13.575Y-9.625
X13.5756Y-10.1994
X13.6Y-10.475
X13.6006Y-9.8744
X13.6012Y-10.8238
X13.6022Y-5.95
X13.6026Y-10.8974
X13.65Y-6.3
X13.675Y-5.825
X13.7014Y-6.2486
X13.725Y-5.95
X13.7301Y-7.3
X13.7482Y-8.0268
X13.7488Y-8.3262
X13.7488Y-10.2762
X13.7494Y-7.5994
X13.7494Y-8.5744
X13.75Y-7.9
X13.75Y-8.875
X13.75Y-9.3
X13.75Y-9.55
X13.75Y-9.975
X13.75Y-10.525
X13.75Y-10.9
X13.7738Y-7.3512
X13.7744Y-9.6006
X13.7875Y-6.1125
X13.7982Y-7.7018
X13.8Y-7.3
X13.8Y-10.575
X13.8205Y-8.5455
X13.8232Y-9.6518
X13.8244Y-7.0006
X13.8244Y-7.2506
X13.8244Y-7.9756
X13.8244Y-8.2256
X13.8244Y-8.9506
X13.8244Y-9.2006
X13.8244Y-9.9256
X13.8244Y-10.1756
X13.825Y-7.6
X13.825Y-7.9
X13.825Y-8.85
X13.85Y-7.65
X13.85Y-8.6
X13.85Y-9.825
X13.8732Y-10.6268
X13.8744Y-10.8494
X14.075Y-10.875
X14.1506Y-10.9256
X14.1512Y-10.8488
X14.1875Y-6.7875
X14.225Y-4.725
X14.2389Y-6.7861
X14.25Y-8.925
X14.25Y-10.6
X14.3165Y-6.7835
X14.3238Y-10.9512
X14.325Y-8.925
X14.3451Y-4.7049
X14.3451Y-7.8549
X14.35Y-10.775
X14.3996Y-4.6754
X14.3996Y-7.4754
X14.4Y-8.925
X14.4256Y-10.8744
X14.4541Y-4.6459
X14.4541Y-7.5459
X14.475Y-10.75
X14.5087Y-4.6163
X14.5087Y-7.2663
X14.55Y-10.775
X14.5632Y-4.5868
X14.5632Y-6.9868
X14.5632Y-8.2868
X14.6177Y-4.5573
X14.6177Y-6.6073
X14.6177Y-8.1823
X14.6722Y-4.5278
X14.6722Y-6.3778
X14.6722Y-6.6528
X14.6988Y-10.9512
X14.7Y-10.75
X14.7268Y-4.4982
X14.7268Y-6.4482
X14.7756Y-10.8744
X14.7768Y-10.9768
X14.7813Y-4.4937
X14.7813Y-6.1437
X14.7813Y-6.4937
X14.8Y-10.74
X14.8358Y-4.4892
X14.8358Y-5.8142
X14.8358Y-6.5142
X14.8904Y-4.3346
X14.8904Y-5.8846
X14.8904Y-6.5596
X14.9449Y-4.3801
X14.9449Y-5.6801
X14.9449Y-6.7301
X14.9994Y-4.4006
X14.9994Y-5.3506
X14.9994Y-7.35
X15.025Y-10.875
X15.0539Y-4.3961
X15.0539Y-4.9961
X15.1085Y-4.3915
X15.1085Y-5.0415
X15.125Y-10.9
X15.1262Y-10.9512
X15.163Y-4.437
X15.163Y-4.737
X15.163Y-5.487
X15.163Y-7.937
X15.2Y-10.725
X15.25Y-8.05
X15.325Y-10.75
X15.3744Y-10.9256
X15.4Y-10.975
X15.425Y-10.875
X15.4756Y-10.8744
X15.575Y-10.65
X15.58Y-10.48
X15.64Y-10.22
X15.675Y-10.875
X15.725Y-11.075
X15.8Y-2.2
X15.925Y-3.425
X15.925Y-8.825
X15.925Y-11.425
X16.0Y-3.425
X16.0Y-8.825
X16.0Y-11.425
X16.087Y-10.838
X16.1415Y-11.0085
X16.1961Y-10.7539
X16.2506Y-10.9244
X16.7413Y-11.125
X16.9049Y-10.8951
X17.075Y-2.45
X17.08Y-8.4
X17.1Y-8.05
X17.1085Y-2.4915
X17.1409Y-2.5591
X17.1892Y-2.6108
X17.25Y-3.4
X17.2569Y-2.6681
X17.3051Y-2.7199
X17.35Y-3.4
X17.3728Y-2.7772
X17.4313Y-2.8187
X17.4888Y-2.8862
X17.5472Y-2.9278
X17.6Y-5.1
X17.6Y-5.925
X17.6Y-6.4922
X17.6Y-6.75
X17.6006Y-7.0256
X17.6018Y-4.4482
X17.6047Y-2.9953
X17.6274Y-5.2976
X17.675Y-5.075
X17.675Y-5.55
X17.675Y-5.9
X17.675Y-6.375
X17.675Y-6.725
X17.675Y-7.2
X17.675Y-7.575
X17.6752Y-3.0498
X17.6768Y-4.7232
X17.7Y-5.6
X17.7Y-6.075
X17.7006Y-7.8506
X17.7012Y-4.5012
X17.7012Y-4.8512
X17.7012Y-5.3262
X17.7012Y-5.6762
X17.7012Y-6.1512
X17.7012Y-6.5012
X17.7012Y-6.9762
X17.7012Y-7.3262
X17.7035Y-8.2785
X17.725Y-5.95
X17.725Y-7.625
X17.7262Y-7.2238
X17.7268Y-8.1732
X17.7457Y-3.1043
X17.7483Y-6.9017
X17.75Y-5.125
X17.75Y-5.825
X17.75Y-6.075
X17.75Y-6.775
X17.75Y-6.775
X17.7506Y-5.3756
X17.7506Y-6.2006
X17.7506Y-7.7994
X17.7518Y-4.9982
X17.7518Y-5.2732
X17.7518Y-6.6482
X17.775Y-7.45
X17.775Y-7.5
X17.775Y-8.25
X17.8041Y-3.1459
X17.825Y-11.125
X17.8616Y-3.2134
X17.8817Y-7.6817
X17.9Y-4.825
X17.9Y-5.7
X17.9Y-7.075
X17.9071Y-3.2679
X17.9238Y-5.2988
X17.9244Y-7.0256
X17.925Y-6.15
X17.925Y-6.4
X17.925Y-6.975
X17.95Y-5.425
X17.95Y-5.7
X17.95Y-6.45
X17.95Y-6.625
X17.95Y-7.275
X17.9506Y-6.6994
X17.9512Y-7.4988
X17.975Y-5.025
X17.975Y-5.85
X17.975Y-6.925
X17.975Y-7.2
X17.9756Y-4.7744
X17.9778Y-5.125
X18.0Y-4.725
X18.0Y-7.275
X18.0Y-7.85
X18.0011Y-6.4489
X18.0012Y-5.6762
X18.1232Y-4.4482
X18.1232Y-4.7232
X18.1232Y-4.9982
X18.1232Y-5.2732
X18.1232Y-5.5482
X18.1232Y-5.8232
X18.1232Y-6.0982
X18.1232Y-6.3732
X18.1232Y-6.6482
X18.1232Y-6.9232
X18.1232Y-7.1982
X18.1232Y-7.4732
X18.1232Y-7.7482
X18.1232Y-8.1732
X18.125Y-4.9
X18.125Y-5.15
X18.125Y-5.975
X18.125Y-6.4244
X18.125Y-8.25
X18.125Y-8.325
X18.1449Y-10.1
X18.15Y-5.4
X18.15Y-5.45
X18.1518Y-5.6982
X18.1518Y-7.0984
X18.175Y-6.25
X18.175Y-6.7
X18.1994Y-7.5244
X18.2Y-5.95
X18.2Y-6.45
X18.2244Y-5.5994
X18.2244Y-7.2494
X18.225Y-5.35
X18.225Y-6.175
X18.225Y-6.8
X18.225Y-7.0
X18.225Y-7.625
X18.225Y-7.825
X18.2494Y-7.5756
X18.2715Y-7.0285
X18.2715Y-7.8535
X18.275Y-7.275
X18.2801Y-10.2051
X18.3215Y-6.2035
X18.4949Y-10.0949
X18.65Y-5.37
T2
X14.8Y-10.3
X14.8Y-10.5
X14.9Y-10.3
X14.9Y-10.5
T3
X15.3Y-11.65
X15.3984Y-11.65
X14.35Y-11.25
X14.5469Y-11.25
X14.4Y-11.65
X14.4984Y-11.65
X15.25Y-11.25
X15.4469Y-11.25
T4
X12.2882Y-2.4915
X12.2882Y-2.6006
X12.2882Y-2.7096
X12.2882Y-2.8187
X12.2882Y-2.9278
X12.2882Y-3.0368
X12.2882Y-3.1459
X12.2882Y-3.2549
X12.2882Y-3.364
X12.2882Y-3.473
X12.2882Y-3.5821
X12.2882Y-3.6911
X12.2882Y-3.8002
X12.2882Y-3.9093
X12.2882Y-4.0183
X12.2882Y-4.1274
X12.2882Y-4.2364
X12.2882Y-4.3455
X12.4Y-2.437
X12.4Y-2.5461
X12.4Y-2.6551
X12.4Y-2.7642
X12.4Y-2.8732
X12.4Y-2.9823
X12.4Y-3.0913
X12.4Y-3.2004
X12.4Y-3.3094
X12.4Y-3.4185
X12.4Y-3.5276
X12.4Y-3.6366
X12.4Y-3.7457
X12.4Y-3.8547
X12.4Y-3.9638
X12.4Y-4.0728
X12.4Y-4.1819
X12.4Y-4.2909
X12.4Y-4.4
X12.2882Y-5.3959
X12.2882Y-5.5049
X12.2882Y-5.614
X12.2882Y-5.723
X12.2882Y-5.8321
X12.2882Y-5.9411
X12.2882Y-6.0502
X12.2882Y-6.1593
X12.2882Y-6.2683
X12.2882Y-6.3774
X12.2882Y-6.4864
X12.2882Y-6.5955
X12.4Y-5.3413
X12.4Y-5.4504
X12.4Y-5.5594
X12.4Y-5.6685
X12.4Y-5.7776
X12.4Y-5.8866
X12.4Y-5.9957
X12.4Y-6.1047
X12.4Y-6.2138
X12.4Y-6.3228
X12.4Y-6.4319
X12.4Y-6.5409
X12.4Y-6.65
X13.3138Y-12.2
X13.3683Y-12.3118
X13.4228Y-12.2
X13.4774Y-12.3118
X13.5319Y-12.2
X13.5864Y-12.3118
X13.6409Y-12.2
X13.6955Y-12.3118
X13.75Y-12.2
X18.85Y-2.45
X18.85Y-2.5591
X18.85Y-2.6681
X18.85Y-2.7772
X18.85Y-2.8862
X18.85Y-2.9953
X18.85Y-3.1043
X18.85Y-3.2134
X18.85Y-3.3224
X18.85Y-3.4315
X18.85Y-3.5406
X18.85Y-3.6496
X18.85Y-3.7587
X18.85Y-3.8677
X18.85Y-3.9768
X18.85Y-4.0858
X18.85Y-4.1949
X18.85Y-4.3039
X18.85Y-4.413
X18.9618Y-2.5045
X18.9618Y-2.6136
X18.9618Y-2.7226
X18.9618Y-2.8317
X18.9618Y-2.9407
X18.9618Y-3.0498
X18.9618Y-3.1589
X18.9618Y-3.2679
X18.9618Y-3.377
X18.9618Y-3.486
X18.9618Y-3.5951
X18.9618Y-3.7041
X18.9618Y-3.8132
X18.9618Y-3.9222
X18.9618Y-4.0313
X18.9618Y-4.1404
X18.9618Y-4.2494
X18.9618Y-4.3585
X13.2Y-1.75
X13.2545Y-1.6382
X13.3091Y-1.75
X13.3636Y-1.6382
X13.4181Y-1.75
X13.4726Y-1.6382
X13.5272Y-1.75
X13.5817Y-1.6382
X13.6362Y-1.75
X13.6907Y-1.6382
X13.7453Y-1.75
X13.7998Y-1.6382
X13.8543Y-1.75
X13.9089Y-1.6382
X13.9634Y-1.75
X14.0179Y-1.6382
X14.0724Y-1.75
X14.127Y-1.6382
X14.1815Y-1.75
X14.236Y-1.6382
X14.2906Y-1.75
X14.3451Y-1.6382
X14.3996Y-1.75
X14.4541Y-1.6382
X14.5087Y-1.75
X14.5632Y-1.6382
X14.6177Y-1.75
X14.6722Y-1.6382
X14.7268Y-1.75
X14.7813Y-1.6382
X14.8358Y-1.75
X14.8904Y-1.6382
X14.9449Y-1.75
X14.9994Y-1.6382
X15.0539Y-1.75
X15.1085Y-1.6382
X15.163Y-1.75
X16.2Y-1.75
X16.2545Y-1.6382
X16.3091Y-1.75
X16.3636Y-1.6382
X16.4181Y-1.75
X16.4726Y-1.6382
X16.5272Y-1.75
X16.5817Y-1.6382
X16.6362Y-1.75
X16.6907Y-1.6382
X16.7453Y-1.75
X16.7998Y-1.6382
X16.8543Y-1.75
X16.9089Y-1.6382
X16.9634Y-1.75
X17.0179Y-1.6382
X17.0724Y-1.75
X17.127Y-1.6382
X17.1815Y-1.75
X17.236Y-1.6382
X17.2906Y-1.75
X17.3451Y-1.6382
X17.3996Y-1.75
X17.4541Y-1.6382
X17.5087Y-1.75
X17.5632Y-1.6382
X17.6177Y-1.75
X17.6722Y-1.6382
X17.7268Y-1.75
X17.7813Y-1.6382
X17.8358Y-1.75
X17.8904Y-1.6382
X17.9449Y-1.75
X17.9994Y-1.6382
X18.0539Y-1.75
X18.1085Y-1.6382
X18.163Y-1.75
X14.8Y-11.65
X14.9969Y-11.65
X12.2882Y-10.7959
X12.2882Y-10.9049
X12.2882Y-11.014
X12.2882Y-11.123
X12.2882Y-11.2321
X12.2882Y-11.3411
X12.2882Y-11.4502
X12.2882Y-11.5593
X12.2882Y-11.6683
X12.2882Y-11.7774
X12.2882Y-11.8864
X12.2882Y-11.9955
X12.4Y-10.7413
X12.4Y-10.8504
X12.4Y-10.9594
X12.4Y-11.0685
X12.4Y-11.1776
X12.4Y-11.2866
X12.4Y-11.3957
X12.4Y-11.5047
X12.4Y-11.6138
X12.4Y-11.7228
X12.4Y-11.8319
X12.4Y-11.9409
X12.4Y-12.05
X18.85Y-9.05
X18.85Y-9.1591
X18.85Y-9.2681
X18.85Y-9.3772
X18.85Y-9.4862
X18.85Y-9.5953
X18.85Y-9.7043
X18.85Y-9.8134
X18.85Y-9.9224
X18.85Y-10.0315
X18.85Y-10.1406
X18.85Y-10.2496
X18.85Y-10.3587
X18.85Y-10.4677
X18.85Y-10.5768
X18.85Y-10.6858
X18.85Y-10.7949
X18.85Y-10.9039
X18.85Y-11.013
X18.9618Y-9.1045
X18.9618Y-9.2136
X18.9618Y-9.3226
X18.9618Y-9.4317
X18.9618Y-9.5407
X18.9618Y-9.6498
X18.9618Y-9.7589
X18.9618Y-9.8679
X18.9618Y-9.977
X18.9618Y-10.086
X18.9618Y-10.1951
X18.9618Y-10.3041
X18.9618Y-10.4132
X18.9618Y-10.5222
X18.9618Y-10.6313
X18.9618Y-10.7404
X18.9618Y-10.8494
X18.9618Y-10.9585
X16.087Y-12.2
X16.1415Y-12.3118
X16.1961Y-12.2
X16.2506Y-12.3118
X16.3051Y-12.2
X16.3596Y-12.3118
X16.4142Y-12.2
X16.4687Y-12.3118
X16.5232Y-12.2
X16.5778Y-12.3118
X16.6323Y-12.2
X16.6868Y-12.3118
X16.7413Y-12.2
X16.7959Y-12.3118
X16.8504Y-12.2
X16.9049Y-12.3118
X16.9594Y-12.2
X17.014Y-12.3118
X17.0685Y-12.2
X17.123Y-12.3118
X17.1776Y-12.2
X17.2321Y-12.3118
X17.2866Y-12.2
X17.3411Y-12.3118
X17.3957Y-12.2
X17.4502Y-12.3118
X17.5047Y-12.2
X17.5593Y-12.3118
X17.6138Y-12.2
X17.6683Y-12.3118
X17.7228Y-12.2
X17.7774Y-12.3118
X17.8319Y-12.2
X17.8864Y-12.3118
X17.9409Y-12.2
X17.9955Y-12.3118
X18.05Y-12.2
X18.85Y-5.75
X18.85Y-5.8591
X18.85Y-5.9681
X18.85Y-6.0772
X18.85Y-6.1862
X18.85Y-6.2953
X18.85Y-6.4043
X18.85Y-6.5134
X18.85Y-6.6224
X18.85Y-6.7315
X18.85Y-6.8406
X18.85Y-6.9496
X18.85Y-7.0587
X18.85Y-7.1677
X18.85Y-7.2768
X18.85Y-7.3858
X18.85Y-7.4949
X18.85Y-7.6039
X18.85Y-7.713
X18.9618Y-5.8045
X18.9618Y-5.9136
X18.9618Y-6.0226
X18.9618Y-6.1317
X18.9618Y-6.2407
X18.9618Y-6.3498
X18.9618Y-6.4589
X18.9618Y-6.5679
X18.9618Y-6.677
X18.9618Y-6.786
X18.9618Y-6.8951
X18.9618Y-7.0041
X18.9618Y-7.1132
X18.9618Y-7.2222
X18.9618Y-7.3313
X18.9618Y-7.4404
X18.9618Y-7.5494
X18.9618Y-7.6585
X12.2882Y-7.8415
X12.2882Y-7.9506
X12.2882Y-8.0596
X12.2882Y-8.1687
X12.2882Y-8.2778
X12.2882Y-8.3868
X12.2882Y-8.4959
X12.2882Y-8.6049
X12.2882Y-8.714
X12.2882Y-8.823
X12.2882Y-8.9321
X12.2882Y-9.0411
X12.2882Y-9.1502
X12.2882Y-9.2593
X12.2882Y-9.3683
X12.2882Y-9.4774
X12.2882Y-9.5864
X12.2882Y-9.6955
X12.4Y-7.787
X12.4Y-7.8961
X12.4Y-8.0051
X12.4Y-8.1142
X12.4Y-8.2232
X12.4Y-8.3323
X12.4Y-8.4413
X12.4Y-8.5504
X12.4Y-8.6594
X12.4Y-8.7685
X12.4Y-8.8776
X12.4Y-8.9866
X12.4Y-9.0957
X12.4Y-9.2047
X12.4Y-9.3138
X12.4Y-9.4228
X12.4Y-9.5319
X12.4Y-9.6409
X12.4Y-9.75
X14.8Y-11.25
X14.9Y-11.25
X15.0Y-11.25
T5
X12.3Y-1.6
X12.7Y-12.3
X15.55Y-5.475
X15.55Y-8.6
X19.0Y-1.6
X19.0Y-12.3
X18.9059Y-2.1815
X18.9059Y-4.6815
X12.9315Y-1.6941
X15.4315Y-1.6941
X15.9315Y-1.6941
X18.4315Y-1.6941
X12.3441Y-10.4685
X12.3441Y-12.3228
X18.9059Y-8.7815
X18.9059Y-11.2815
X15.8185Y-12.2559
X18.3185Y-12.2559
X18.9059Y-5.4815
X18.9059Y-7.9815
X12.3441Y-7.5185
X12.3441Y-10.0185
X12.3441Y-2.1685
X12.3441Y-4.6685
X12.3441Y-5.0685
X12.3441Y-6.9228
X13.0398Y-12.2559
X14.024Y-12.2559
T6
X14.9Y-12.3543
T4
G00X14.7228Y-12.2461
M15
G01X14.7228Y-12.3051
M16
G05
G00X14.8606Y-12.0
M15
G01X14.9394Y-12.0
M16
G05
G00X14.8744Y-12.2362
M15
G01X14.9256Y-12.2362
M16
G05
G00X15.0772Y-12.2461
M15
G01X15.0772Y-12.3051
M16
G05
T0
M30
