G04 #@! TF.GenerationSoftware,KiCad,Pcbnew,5.1.5-52549c5~84~ubuntu18.04.1*
G04 #@! TF.CreationDate,2020-06-06T14:23:53-07:00*
G04 #@! TF.ProjectId,motherboard,6d6f7468-6572-4626-9f61-72642e6b6963,rev?*
G04 #@! TF.SameCoordinates,Original*
G04 #@! TF.FileFunction,Copper,L3,Inr*
G04 #@! TF.FilePolarity,Positive*
%FSLAX46Y46*%
G04 Gerber Fmt 4.6, Leading zero omitted, Abs format (unit mm)*
G04 Created by KiCad (PCBNEW 5.1.5-52549c5~84~ubuntu18.04.1) date 2020-06-06 14:23:53*
%MOMM*%
%LPD*%
G04 APERTURE LIST*
%ADD10C,1.524000*%
%ADD11C,4.000000*%
%ADD12C,1.600000*%
%ADD13R,1.600000X1.600000*%
%ADD14O,1.700000X1.700000*%
%ADD15R,1.700000X1.700000*%
%ADD16O,2.000000X3.500000*%
%ADD17O,3.300000X2.000000*%
%ADD18R,4.000000X2.000000*%
%ADD19C,2.000000*%
%ADD20R,2.000000X2.000000*%
%ADD21C,6.000000*%
%ADD22C,0.800000*%
%ADD23C,0.250000*%
G04 APERTURE END LIST*
D10*
X375920000Y-261620000D03*
X378460000Y-261620000D03*
X375920000Y-266700000D03*
X378460000Y-266700000D03*
D11*
X328460000Y-43030000D03*
X391960000Y-43030000D03*
D12*
X383755000Y-41610000D03*
X380985000Y-41610000D03*
X378215000Y-41610000D03*
X375445000Y-41610000D03*
X372675000Y-41610000D03*
X369905000Y-41610000D03*
X367135000Y-41610000D03*
X364365000Y-41610000D03*
X361595000Y-41610000D03*
X358825000Y-41610000D03*
X356055000Y-41610000D03*
X353285000Y-41610000D03*
X350515000Y-41610000D03*
X347745000Y-41610000D03*
X344975000Y-41610000D03*
X342205000Y-41610000D03*
X339435000Y-41610000D03*
X336665000Y-41610000D03*
X385140000Y-44450000D03*
X382370000Y-44450000D03*
X379600000Y-44450000D03*
X376830000Y-44450000D03*
X374060000Y-44450000D03*
X371290000Y-44450000D03*
X368520000Y-44450000D03*
X365750000Y-44450000D03*
X362980000Y-44450000D03*
X360210000Y-44450000D03*
X357440000Y-44450000D03*
X354670000Y-44450000D03*
X351900000Y-44450000D03*
X349130000Y-44450000D03*
X346360000Y-44450000D03*
X343590000Y-44450000D03*
X340820000Y-44450000D03*
X338050000Y-44450000D03*
D13*
X335280000Y-44450000D03*
D11*
X404660000Y-43030000D03*
X468160000Y-43030000D03*
D12*
X459955000Y-41610000D03*
X457185000Y-41610000D03*
X454415000Y-41610000D03*
X451645000Y-41610000D03*
X448875000Y-41610000D03*
X446105000Y-41610000D03*
X443335000Y-41610000D03*
X440565000Y-41610000D03*
X437795000Y-41610000D03*
X435025000Y-41610000D03*
X432255000Y-41610000D03*
X429485000Y-41610000D03*
X426715000Y-41610000D03*
X423945000Y-41610000D03*
X421175000Y-41610000D03*
X418405000Y-41610000D03*
X415635000Y-41610000D03*
X412865000Y-41610000D03*
X461340000Y-44450000D03*
X458570000Y-44450000D03*
X455800000Y-44450000D03*
X453030000Y-44450000D03*
X450260000Y-44450000D03*
X447490000Y-44450000D03*
X444720000Y-44450000D03*
X441950000Y-44450000D03*
X439180000Y-44450000D03*
X436410000Y-44450000D03*
X433640000Y-44450000D03*
X430870000Y-44450000D03*
X428100000Y-44450000D03*
X425330000Y-44450000D03*
X422560000Y-44450000D03*
X419790000Y-44450000D03*
X417020000Y-44450000D03*
X414250000Y-44450000D03*
D13*
X411480000Y-44450000D03*
D11*
X356210000Y-311300000D03*
X331210000Y-311300000D03*
D12*
X339555000Y-312720000D03*
X342325000Y-312720000D03*
X345095000Y-312720000D03*
X347865000Y-312720000D03*
X338170000Y-309880000D03*
X340940000Y-309880000D03*
X343710000Y-309880000D03*
X346480000Y-309880000D03*
D13*
X349250000Y-309880000D03*
D11*
X313540000Y-313000000D03*
X313540000Y-265900000D03*
D12*
X312120000Y-274215000D03*
X312120000Y-276985000D03*
X312120000Y-279755000D03*
X312120000Y-282525000D03*
X312120000Y-285295000D03*
X312120000Y-288065000D03*
X312120000Y-290835000D03*
X312120000Y-293605000D03*
X312120000Y-296375000D03*
X312120000Y-299145000D03*
X312120000Y-301915000D03*
X312120000Y-304685000D03*
X314960000Y-272830000D03*
X314960000Y-275600000D03*
X314960000Y-278370000D03*
X314960000Y-281140000D03*
X314960000Y-283910000D03*
X314960000Y-286680000D03*
X314960000Y-289450000D03*
X314960000Y-292220000D03*
X314960000Y-294990000D03*
X314960000Y-297760000D03*
X314960000Y-300530000D03*
X314960000Y-303300000D03*
D13*
X314960000Y-306070000D03*
D11*
X313540000Y-254470000D03*
X313540000Y-190970000D03*
D12*
X312120000Y-199175000D03*
X312120000Y-201945000D03*
X312120000Y-204715000D03*
X312120000Y-207485000D03*
X312120000Y-210255000D03*
X312120000Y-213025000D03*
X312120000Y-215795000D03*
X312120000Y-218565000D03*
X312120000Y-221335000D03*
X312120000Y-224105000D03*
X312120000Y-226875000D03*
X312120000Y-229645000D03*
X312120000Y-232415000D03*
X312120000Y-235185000D03*
X312120000Y-237955000D03*
X312120000Y-240725000D03*
X312120000Y-243495000D03*
X312120000Y-246265000D03*
X314960000Y-197790000D03*
X314960000Y-200560000D03*
X314960000Y-203330000D03*
X314960000Y-206100000D03*
X314960000Y-208870000D03*
X314960000Y-211640000D03*
X314960000Y-214410000D03*
X314960000Y-217180000D03*
X314960000Y-219950000D03*
X314960000Y-222720000D03*
X314960000Y-225490000D03*
X314960000Y-228260000D03*
X314960000Y-231030000D03*
X314960000Y-233800000D03*
X314960000Y-236570000D03*
X314960000Y-239340000D03*
X314960000Y-242110000D03*
X314960000Y-244880000D03*
D13*
X314960000Y-247650000D03*
D11*
X313540000Y-175840000D03*
X313540000Y-128740000D03*
D12*
X312120000Y-137055000D03*
X312120000Y-139825000D03*
X312120000Y-142595000D03*
X312120000Y-145365000D03*
X312120000Y-148135000D03*
X312120000Y-150905000D03*
X312120000Y-153675000D03*
X312120000Y-156445000D03*
X312120000Y-159215000D03*
X312120000Y-161985000D03*
X312120000Y-164755000D03*
X312120000Y-167525000D03*
X314960000Y-135670000D03*
X314960000Y-138440000D03*
X314960000Y-141210000D03*
X314960000Y-143980000D03*
X314960000Y-146750000D03*
X314960000Y-149520000D03*
X314960000Y-152290000D03*
X314960000Y-155060000D03*
X314960000Y-157830000D03*
X314960000Y-160600000D03*
X314960000Y-163370000D03*
X314960000Y-166140000D03*
D13*
X314960000Y-168910000D03*
D11*
X313540000Y-118580000D03*
X313540000Y-55080000D03*
D12*
X312120000Y-63285000D03*
X312120000Y-66055000D03*
X312120000Y-68825000D03*
X312120000Y-71595000D03*
X312120000Y-74365000D03*
X312120000Y-77135000D03*
X312120000Y-79905000D03*
X312120000Y-82675000D03*
X312120000Y-85445000D03*
X312120000Y-88215000D03*
X312120000Y-90985000D03*
X312120000Y-93755000D03*
X312120000Y-96525000D03*
X312120000Y-99295000D03*
X312120000Y-102065000D03*
X312120000Y-104835000D03*
X312120000Y-107605000D03*
X312120000Y-110375000D03*
X314960000Y-61900000D03*
X314960000Y-64670000D03*
X314960000Y-67440000D03*
X314960000Y-70210000D03*
X314960000Y-72980000D03*
X314960000Y-75750000D03*
X314960000Y-78520000D03*
X314960000Y-81290000D03*
X314960000Y-84060000D03*
X314960000Y-86830000D03*
X314960000Y-89600000D03*
X314960000Y-92370000D03*
X314960000Y-95140000D03*
X314960000Y-97910000D03*
X314960000Y-100680000D03*
X314960000Y-103450000D03*
X314960000Y-106220000D03*
X314960000Y-108990000D03*
D13*
X314960000Y-111760000D03*
D11*
X465290000Y-311300000D03*
X401790000Y-311300000D03*
D12*
X409995000Y-312720000D03*
X412765000Y-312720000D03*
X415535000Y-312720000D03*
X418305000Y-312720000D03*
X421075000Y-312720000D03*
X423845000Y-312720000D03*
X426615000Y-312720000D03*
X429385000Y-312720000D03*
X432155000Y-312720000D03*
X434925000Y-312720000D03*
X437695000Y-312720000D03*
X440465000Y-312720000D03*
X443235000Y-312720000D03*
X446005000Y-312720000D03*
X448775000Y-312720000D03*
X451545000Y-312720000D03*
X454315000Y-312720000D03*
X457085000Y-312720000D03*
X408610000Y-309880000D03*
X411380000Y-309880000D03*
X414150000Y-309880000D03*
X416920000Y-309880000D03*
X419690000Y-309880000D03*
X422460000Y-309880000D03*
X425230000Y-309880000D03*
X428000000Y-309880000D03*
X430770000Y-309880000D03*
X433540000Y-309880000D03*
X436310000Y-309880000D03*
X439080000Y-309880000D03*
X441850000Y-309880000D03*
X444620000Y-309880000D03*
X447390000Y-309880000D03*
X450160000Y-309880000D03*
X452930000Y-309880000D03*
X455700000Y-309880000D03*
D13*
X458470000Y-309880000D03*
D11*
X480210000Y-223050000D03*
X480210000Y-286550000D03*
D12*
X481630000Y-278345000D03*
X481630000Y-275575000D03*
X481630000Y-272805000D03*
X481630000Y-270035000D03*
X481630000Y-267265000D03*
X481630000Y-264495000D03*
X481630000Y-261725000D03*
X481630000Y-258955000D03*
X481630000Y-256185000D03*
X481630000Y-253415000D03*
X481630000Y-250645000D03*
X481630000Y-247875000D03*
X481630000Y-245105000D03*
X481630000Y-242335000D03*
X481630000Y-239565000D03*
X481630000Y-236795000D03*
X481630000Y-234025000D03*
X481630000Y-231255000D03*
X478790000Y-279730000D03*
X478790000Y-276960000D03*
X478790000Y-274190000D03*
X478790000Y-271420000D03*
X478790000Y-268650000D03*
X478790000Y-265880000D03*
X478790000Y-263110000D03*
X478790000Y-260340000D03*
X478790000Y-257570000D03*
X478790000Y-254800000D03*
X478790000Y-252030000D03*
X478790000Y-249260000D03*
X478790000Y-246490000D03*
X478790000Y-243720000D03*
X478790000Y-240950000D03*
X478790000Y-238180000D03*
X478790000Y-235410000D03*
X478790000Y-232640000D03*
D13*
X478790000Y-229870000D03*
D11*
X480210000Y-55410000D03*
X480210000Y-118910000D03*
D12*
X481630000Y-110705000D03*
X481630000Y-107935000D03*
X481630000Y-105165000D03*
X481630000Y-102395000D03*
X481630000Y-99625000D03*
X481630000Y-96855000D03*
X481630000Y-94085000D03*
X481630000Y-91315000D03*
X481630000Y-88545000D03*
X481630000Y-85775000D03*
X481630000Y-83005000D03*
X481630000Y-80235000D03*
X481630000Y-77465000D03*
X481630000Y-74695000D03*
X481630000Y-71925000D03*
X481630000Y-69155000D03*
X481630000Y-66385000D03*
X481630000Y-63615000D03*
X478790000Y-112090000D03*
X478790000Y-109320000D03*
X478790000Y-106550000D03*
X478790000Y-103780000D03*
X478790000Y-101010000D03*
X478790000Y-98240000D03*
X478790000Y-95470000D03*
X478790000Y-92700000D03*
X478790000Y-89930000D03*
X478790000Y-87160000D03*
X478790000Y-84390000D03*
X478790000Y-81620000D03*
X478790000Y-78850000D03*
X478790000Y-76080000D03*
X478790000Y-73310000D03*
X478790000Y-70540000D03*
X478790000Y-67770000D03*
X478790000Y-65000000D03*
D13*
X478790000Y-62230000D03*
D11*
X480210000Y-139230000D03*
X480210000Y-202730000D03*
D12*
X481630000Y-194525000D03*
X481630000Y-191755000D03*
X481630000Y-188985000D03*
X481630000Y-186215000D03*
X481630000Y-183445000D03*
X481630000Y-180675000D03*
X481630000Y-177905000D03*
X481630000Y-175135000D03*
X481630000Y-172365000D03*
X481630000Y-169595000D03*
X481630000Y-166825000D03*
X481630000Y-164055000D03*
X481630000Y-161285000D03*
X481630000Y-158515000D03*
X481630000Y-155745000D03*
X481630000Y-152975000D03*
X481630000Y-150205000D03*
X481630000Y-147435000D03*
X478790000Y-195910000D03*
X478790000Y-193140000D03*
X478790000Y-190370000D03*
X478790000Y-187600000D03*
X478790000Y-184830000D03*
X478790000Y-182060000D03*
X478790000Y-179290000D03*
X478790000Y-176520000D03*
X478790000Y-173750000D03*
X478790000Y-170980000D03*
X478790000Y-168210000D03*
X478790000Y-165440000D03*
X478790000Y-162670000D03*
X478790000Y-159900000D03*
X478790000Y-157130000D03*
X478790000Y-154360000D03*
X478790000Y-151590000D03*
X478790000Y-148820000D03*
D13*
X478790000Y-146050000D03*
D14*
X381000000Y-285750000D03*
X378460000Y-285750000D03*
D15*
X375920000Y-285750000D03*
D16*
X382960000Y-311800000D03*
X373960000Y-311800000D03*
D17*
X378460000Y-310800000D03*
D18*
X378460000Y-304800000D03*
D12*
X392350000Y-285750000D03*
X387350000Y-285750000D03*
X369490000Y-285750000D03*
X364490000Y-285750000D03*
X391120000Y-295910000D03*
D13*
X388620000Y-295910000D03*
D12*
X368260000Y-295910000D03*
D13*
X365760000Y-295910000D03*
D19*
X380920000Y-295910000D03*
D20*
X375920000Y-295910000D03*
D21*
X482600000Y-40640000D03*
X312420000Y-40640000D03*
X482600000Y-312420000D03*
X322580000Y-312420000D03*
X394970000Y-139065000D03*
X394970000Y-218440000D03*
D22*
X452755000Y-282575000D03*
X404495000Y-86995000D03*
X404495000Y-224155000D03*
X404495000Y-290195000D03*
X462915000Y-193675000D03*
X449610000Y-177195000D03*
X462915000Y-172720000D03*
X449610000Y-156240000D03*
X460375000Y-151765000D03*
X449610000Y-135285000D03*
X460375000Y-130810000D03*
X449610000Y-114330000D03*
X335945000Y-184120000D03*
X434340000Y-204470000D03*
X387350000Y-204470000D03*
X350520000Y-185420000D03*
X433832000Y-213360000D03*
X350475000Y-195625000D03*
X335945000Y-208885000D03*
X344170000Y-221615000D03*
X335945000Y-233650000D03*
X351110000Y-245155000D03*
X336550000Y-258445000D03*
X352380000Y-269920000D03*
X460375000Y-211455000D03*
X462915000Y-198755000D03*
X449610000Y-186085000D03*
X462915000Y-177800000D03*
X449610000Y-165130000D03*
X462915000Y-156845000D03*
X449610000Y-144175000D03*
X462915000Y-135890000D03*
X449610000Y-123220000D03*
X460330000Y-112985000D03*
X460330000Y-119970000D03*
X460330000Y-126955000D03*
X460330000Y-133940000D03*
X460330000Y-140925000D03*
X460330000Y-147910000D03*
X460330000Y-154895000D03*
X460330000Y-161880000D03*
X460330000Y-168865000D03*
X460330000Y-175850000D03*
X460330000Y-182835000D03*
X460330000Y-189820000D03*
X339770000Y-179115000D03*
X339770000Y-278175000D03*
X339770000Y-269920000D03*
X339770000Y-261665000D03*
X339770000Y-253410000D03*
X339770000Y-245155000D03*
X339770000Y-236900000D03*
X339770000Y-228645000D03*
X339770000Y-220390000D03*
X339770000Y-212135000D03*
X339770000Y-203880000D03*
X339770000Y-195625000D03*
X339770000Y-187370000D03*
X460330000Y-196805000D03*
X397256000Y-259588000D03*
X464315000Y-259210000D03*
X386080000Y-272415000D03*
X395605000Y-270510000D03*
X367665000Y-273050000D03*
X347345000Y-147955000D03*
X460330000Y-207600000D03*
X375920000Y-272796000D03*
X336550000Y-194945000D03*
X351155000Y-200660000D03*
X336550000Y-219710000D03*
X351155000Y-224790000D03*
X335915000Y-245110000D03*
X351790000Y-249555000D03*
X337185000Y-269240000D03*
X352410000Y-275575000D03*
X452225000Y-79905000D03*
X448950000Y-77465000D03*
X445700000Y-74365000D03*
X442755000Y-71595000D03*
X439550001Y-69084999D03*
X436605001Y-66314999D03*
X434555000Y-63285000D03*
X460375000Y-209550000D03*
X473710000Y-136398000D03*
X453685000Y-81620000D03*
X450740000Y-78850000D03*
X447160000Y-76080000D03*
X444215000Y-73310000D03*
X441270000Y-70540000D03*
X438325000Y-67770000D03*
X435380000Y-65000000D03*
X433705000Y-62230000D03*
X399415000Y-281305000D03*
X469770000Y-256410000D03*
X440690000Y-86360000D03*
X339815001Y-87720001D03*
X460880000Y-256540000D03*
X438150000Y-86360000D03*
X341230001Y-85960001D03*
X395731000Y-266193000D03*
X456565000Y-127635000D03*
X383755000Y-128055000D03*
X383755000Y-111545000D03*
X380985000Y-186690000D03*
X349855000Y-186720000D03*
X345504999Y-276795001D03*
X349250000Y-267335000D03*
X349220000Y-261015000D03*
X337820000Y-261620000D03*
X339090000Y-249555000D03*
X425230000Y-282575000D03*
X349250000Y-242570000D03*
X349250000Y-236220000D03*
X337820000Y-237490000D03*
X339725000Y-224875000D03*
X349235000Y-217790000D03*
X342860000Y-210820000D03*
X349220000Y-211485000D03*
X339090000Y-200025000D03*
X349235000Y-193025000D03*
X380985000Y-135905000D03*
X447735001Y-134559999D03*
X380985000Y-111775000D03*
X456565000Y-148590000D03*
X378215000Y-149470000D03*
X378215000Y-166615000D03*
X378215000Y-110100000D03*
X455295000Y-156210000D03*
X375445000Y-156050000D03*
X375445000Y-164940000D03*
X375445000Y-114140000D03*
X455945000Y-170165000D03*
X372675000Y-168980000D03*
X372675000Y-161995000D03*
X372675000Y-115005000D03*
X455295000Y-177165000D03*
X369905000Y-177465000D03*
X449670001Y-210275001D03*
X369905000Y-210485000D03*
X369905000Y-116505000D03*
X462265000Y-191120000D03*
X367135000Y-191665000D03*
X373380000Y-273050000D03*
X411380000Y-273150000D03*
X367135000Y-118005000D03*
X449595000Y-199405000D03*
X364365000Y-199515000D03*
X359440000Y-275560000D03*
X408610000Y-275285000D03*
X364365000Y-119505000D03*
X457200000Y-199390000D03*
X454195000Y-195115000D03*
X385140000Y-201600000D03*
X457200000Y-120015000D03*
X385140000Y-120320000D03*
X451485000Y-190500000D03*
X450245000Y-183485000D03*
X456565000Y-182880000D03*
X450850000Y-172085000D03*
X450850000Y-172085000D03*
X461055001Y-180300001D03*
X447040000Y-164903002D03*
X461645000Y-158750000D03*
X450215000Y-151130000D03*
X449580000Y-142240000D03*
X461010000Y-138430000D03*
X450850000Y-130175000D03*
X389255000Y-273050000D03*
X429385000Y-276735000D03*
X451485000Y-209550000D03*
X385140000Y-139370000D03*
X385140000Y-112700000D03*
X450895000Y-126955000D03*
X382370000Y-126900000D03*
X382370000Y-111660000D03*
X457230000Y-144175000D03*
X379600000Y-144275000D03*
X379600000Y-170945000D03*
X379600000Y-111255000D03*
X450850000Y-147955000D03*
X376830000Y-147680000D03*
X376830000Y-165460000D03*
X376830000Y-114025000D03*
X455930000Y-163830000D03*
X374060000Y-163785000D03*
X374060000Y-114255000D03*
X450895000Y-168865000D03*
X371290000Y-167825000D03*
X450260000Y-207600000D03*
X371290000Y-207830000D03*
X371290000Y-115755000D03*
X455930000Y-184785000D03*
X368520000Y-184565000D03*
X390510000Y-277510000D03*
X412765000Y-277480000D03*
X368520000Y-117255000D03*
X451485000Y-189230000D03*
X365750000Y-189875000D03*
X359425000Y-277510000D03*
X409995000Y-279615000D03*
X365750000Y-118755000D03*
X448945000Y-192405000D03*
X462900000Y-184135000D03*
X448945000Y-170815000D03*
X460375000Y-163180000D03*
X448945000Y-149860000D03*
X462900000Y-142225000D03*
X448945000Y-128905000D03*
X456580000Y-121270000D03*
X464094999Y-199480001D03*
X448945000Y-182880000D03*
X464094999Y-178525001D03*
X448945000Y-161925000D03*
X465364999Y-157570001D03*
X448945000Y-140970000D03*
X461010000Y-137160000D03*
X448990000Y-119970000D03*
X343535000Y-266065000D03*
X351140000Y-252110000D03*
X343535000Y-241300000D03*
X351140000Y-227345000D03*
X343535000Y-216535000D03*
X351140000Y-202580000D03*
X343535000Y-191770000D03*
X351140000Y-177815000D03*
X343535000Y-276225000D03*
X351140000Y-258460000D03*
X343535000Y-250190000D03*
X351140000Y-233695000D03*
X342900000Y-226695000D03*
X351140000Y-208930000D03*
X343535000Y-200660000D03*
X351140000Y-184165000D03*
X361950000Y-226695000D03*
X339090000Y-151130000D03*
X361950000Y-269240000D03*
X346710000Y-160020000D03*
X360362500Y-172402500D03*
X363855000Y-226695000D03*
X339090000Y-149225000D03*
X357505000Y-276225000D03*
X348014657Y-158715343D03*
X361667158Y-172367842D03*
X398145000Y-276225000D03*
X337835000Y-186070000D03*
X344185000Y-193690000D03*
X337835000Y-210835000D03*
X344185000Y-218455000D03*
X337835000Y-235600000D03*
X344185000Y-243220000D03*
X337835000Y-260365000D03*
X344185000Y-267350000D03*
X344215000Y-187370000D03*
X337835000Y-201310000D03*
X344185000Y-212105000D03*
X337835000Y-226075000D03*
X344185000Y-236870000D03*
X337835000Y-250840000D03*
X344185000Y-261635000D03*
X337835000Y-275605000D03*
X406400000Y-86995000D03*
X406400000Y-224155000D03*
X406400000Y-290195000D03*
X345470000Y-274925000D03*
X342870000Y-277525000D03*
X339135000Y-274275000D03*
X339105000Y-276875000D03*
X350520000Y-268605000D03*
X349250000Y-276860000D03*
X342900000Y-258445000D03*
X345455000Y-250810000D03*
X342900000Y-269875000D03*
X344805000Y-244475000D03*
X342885000Y-234300000D03*
X349250000Y-225425000D03*
X351790000Y-218440000D03*
X339105000Y-209535000D03*
X351790000Y-194310000D03*
X349250000Y-200660000D03*
X337820000Y-196215000D03*
X342885000Y-184770000D03*
X342830000Y-268605000D03*
X344820000Y-259065000D03*
X339090000Y-266165000D03*
X345440000Y-266065000D03*
X349250000Y-253365000D03*
X340995000Y-256540000D03*
X339120000Y-241905000D03*
X349870000Y-243855000D03*
X339755000Y-217140000D03*
X351041501Y-217056501D03*
X349205000Y-203880000D03*
X340995000Y-207010000D03*
X348745000Y-185420000D03*
X337185000Y-192405000D03*
X339120000Y-192375000D03*
X351155000Y-193040000D03*
X463535000Y-192420000D03*
X450215000Y-193675000D03*
X457200000Y-184785000D03*
X450807500Y-175302500D03*
X454660000Y-179705000D03*
X456565000Y-175895000D03*
X461645000Y-170180000D03*
X455930000Y-168275000D03*
X462280000Y-163830000D03*
X449580000Y-154305000D03*
X455295000Y-162560000D03*
X450850000Y-154305000D03*
X462280000Y-151130000D03*
X454660000Y-144780000D03*
X455265000Y-134590000D03*
X455930000Y-137795000D03*
X455930000Y-144780000D03*
X450895000Y-133940000D03*
X456635000Y-130175000D03*
X454660000Y-122555000D03*
X460375000Y-124460000D03*
X447085000Y-112985000D03*
X366410000Y-276210000D03*
X363825000Y-278160000D03*
X369570000Y-273685000D03*
X375300000Y-276210000D03*
X365760000Y-226695000D03*
X348615000Y-151130000D03*
X364490000Y-273685000D03*
X350202500Y-155257500D03*
X363639999Y-172300001D03*
X375330000Y-278810000D03*
X384205000Y-278160000D03*
X381635000Y-276225000D03*
X373350000Y-278160000D03*
X391795000Y-276225000D03*
X384175000Y-276860000D03*
X393080000Y-276210000D03*
X391160000Y-278765000D03*
X345495000Y-151130000D03*
X343535000Y-153035000D03*
X454840000Y-83005000D03*
X401320000Y-55880000D03*
X410210000Y-53340000D03*
X407670000Y-55880000D03*
X344170000Y-281940000D03*
X450865000Y-198105000D03*
X455960000Y-190470000D03*
X464185000Y-184785000D03*
X455280000Y-178450000D03*
X447055000Y-178450000D03*
X447040000Y-171450000D03*
X450865000Y-157495000D03*
X457227500Y-163802500D03*
X447040000Y-150495000D03*
X450865000Y-136540000D03*
X461055001Y-144734999D03*
X447040000Y-129540000D03*
X361315000Y-120015000D03*
D23*
X477760000Y-257570000D02*
X478790000Y-257570000D01*
X452755000Y-282575000D02*
X477760000Y-257570000D01*
X404495000Y-100330000D02*
X404495000Y-224155000D01*
X404495000Y-224155000D02*
X404495000Y-224155000D01*
X357855000Y-290195000D02*
X338170000Y-309880000D01*
X404495000Y-290195000D02*
X357855000Y-290195000D01*
X404495000Y-86995000D02*
X404495000Y-100330000D01*
X336344999Y-183720001D02*
X348820001Y-183720001D01*
X335945000Y-184120000D02*
X336344999Y-183720001D01*
X348820001Y-183720001D02*
X350520000Y-185420000D01*
X350520000Y-185420000D02*
X350520000Y-185420000D01*
X433832000Y-204978000D02*
X434340000Y-204470000D01*
X433832000Y-213360000D02*
X433832000Y-204978000D01*
X480498630Y-164055000D02*
X481630000Y-164055000D01*
X478509998Y-164055000D02*
X480498630Y-164055000D01*
X476314990Y-166250008D02*
X478509998Y-164055000D01*
X477989998Y-231255000D02*
X476314990Y-229579992D01*
X476314990Y-229579992D02*
X476314990Y-166250008D01*
X481630000Y-231255000D02*
X477989998Y-231255000D01*
X480498630Y-161285000D02*
X481630000Y-161285000D01*
X478509998Y-161285000D02*
X480498630Y-161285000D01*
X475414971Y-164380027D02*
X478509998Y-161285000D01*
X475414971Y-231032751D02*
X475414971Y-164380027D01*
X478407220Y-234025000D02*
X475414971Y-231032751D01*
X481630000Y-234025000D02*
X478407220Y-234025000D01*
X478509998Y-158515000D02*
X481630000Y-158515000D01*
X474514952Y-162510046D02*
X478509998Y-158515000D01*
X474514952Y-232799954D02*
X474514952Y-162510046D01*
X478509998Y-236795000D02*
X474514952Y-232799954D01*
X481630000Y-236795000D02*
X478509998Y-236795000D01*
X480498630Y-155745000D02*
X481630000Y-155745000D01*
X473614933Y-160640065D02*
X478509998Y-155745000D01*
X478509998Y-155745000D02*
X480498630Y-155745000D01*
X473614933Y-234772713D02*
X473614933Y-160640065D01*
X478407220Y-239565000D02*
X473614933Y-234772713D01*
X481630000Y-239565000D02*
X478407220Y-239565000D01*
X472714914Y-158770084D02*
X478509998Y-152975000D01*
X472714914Y-236642694D02*
X472714914Y-158770084D01*
X480498630Y-152975000D02*
X481630000Y-152975000D01*
X478509998Y-152975000D02*
X480498630Y-152975000D01*
X478407220Y-242335000D02*
X472714914Y-236642694D01*
X481630000Y-242335000D02*
X478407220Y-242335000D01*
X471814895Y-156900103D02*
X478509998Y-150205000D01*
X480498630Y-150205000D02*
X481630000Y-150205000D01*
X471814895Y-238409897D02*
X471814895Y-156900103D01*
X478509998Y-150205000D02*
X480498630Y-150205000D01*
X478509998Y-245105000D02*
X471814895Y-238409897D01*
X481630000Y-245105000D02*
X478509998Y-245105000D01*
X480498630Y-147435000D02*
X481630000Y-147435000D01*
X470914876Y-240279878D02*
X470914876Y-151740122D01*
X475219998Y-147435000D02*
X480498630Y-147435000D01*
X478509998Y-247875000D02*
X470914876Y-240279878D01*
X470914876Y-151740122D02*
X475219998Y-147435000D01*
X481630000Y-247875000D02*
X478509998Y-247875000D01*
X476764999Y-167465001D02*
X478790000Y-165440000D01*
X476764999Y-228894999D02*
X476764999Y-167465001D01*
X478790000Y-229870000D02*
X477740000Y-229870000D01*
X477740000Y-229870000D02*
X476764999Y-228894999D01*
X475864981Y-165595019D02*
X478790000Y-162670000D01*
X475864981Y-230846351D02*
X475864981Y-165595019D01*
X478790000Y-232640000D02*
X477658630Y-232640000D01*
X477658630Y-232640000D02*
X475864981Y-230846351D01*
X474964961Y-163725039D02*
X478790000Y-159900000D01*
X478790000Y-235410000D02*
X474964961Y-231584961D01*
X474964961Y-231584961D02*
X474964961Y-163725039D01*
X478790000Y-238180000D02*
X477658630Y-238180000D01*
X474064943Y-161855057D02*
X478790000Y-157130000D01*
X474064943Y-234586313D02*
X474064943Y-161855057D01*
X477658630Y-238180000D02*
X474064943Y-234586313D01*
X473164924Y-159985076D02*
X478790000Y-154360000D01*
X473164924Y-236456294D02*
X473164924Y-159985076D01*
X478790000Y-240950000D02*
X477658630Y-240950000D01*
X477658630Y-240950000D02*
X473164924Y-236456294D01*
X478790000Y-243720000D02*
X472264904Y-237194904D01*
X472264904Y-158115096D02*
X478790000Y-151590000D01*
X472264904Y-237194904D02*
X472264904Y-158115096D01*
X471364886Y-156245114D02*
X478790000Y-148820000D01*
X478790000Y-246490000D02*
X471364886Y-239064886D01*
X471364886Y-239064886D02*
X471364886Y-156245114D01*
X477740000Y-146050000D02*
X478790000Y-146050000D01*
X475968588Y-146050000D02*
X477740000Y-146050000D01*
X470464867Y-240934867D02*
X470464867Y-151553721D01*
X470464867Y-151553721D02*
X475968588Y-146050000D01*
X478790000Y-249260000D02*
X470464867Y-240934867D01*
X451645000Y-79325000D02*
X451645000Y-41610000D01*
X452225000Y-79905000D02*
X451645000Y-79325000D01*
X448950000Y-41685000D02*
X448875000Y-41610000D01*
X448950000Y-77465000D02*
X448950000Y-41685000D01*
X446105000Y-73960000D02*
X446105000Y-41610000D01*
X445700000Y-74365000D02*
X446105000Y-73960000D01*
X442755000Y-71595000D02*
X442755000Y-68420000D01*
X443335000Y-67840000D02*
X443335000Y-41610000D01*
X442755000Y-68420000D02*
X443335000Y-67840000D01*
X439550001Y-69084999D02*
X439550001Y-66544999D01*
X440565000Y-65530000D02*
X440565000Y-41610000D01*
X439550001Y-66544999D02*
X440565000Y-65530000D01*
X437795000Y-65125000D02*
X437795000Y-41610000D01*
X436605001Y-66314999D02*
X437795000Y-65125000D01*
X435025000Y-62815000D02*
X435025000Y-41610000D01*
X434555000Y-63285000D02*
X435025000Y-62815000D01*
X478790000Y-112090000D02*
X477190000Y-112090000D01*
X477190000Y-112090000D02*
X473710000Y-115570000D01*
X473710000Y-136398000D02*
X473710000Y-115570000D01*
X453030000Y-80965000D02*
X453030000Y-44450000D01*
X453685000Y-81620000D02*
X453030000Y-80965000D01*
X450260000Y-78370000D02*
X450260000Y-44450000D01*
X450740000Y-78850000D02*
X450260000Y-78370000D01*
X447160000Y-44780000D02*
X447490000Y-44450000D01*
X447160000Y-76080000D02*
X447160000Y-44780000D01*
X444215000Y-73310000D02*
X444215000Y-67595000D01*
X444720000Y-67090000D02*
X444720000Y-44450000D01*
X444215000Y-67595000D02*
X444720000Y-67090000D01*
X441270000Y-70540000D02*
X441270000Y-66730000D01*
X441950000Y-66050000D02*
X441950000Y-44450000D01*
X441270000Y-66730000D02*
X441950000Y-66050000D01*
X438325000Y-67770000D02*
X438325000Y-65865000D01*
X439180000Y-65010000D02*
X439180000Y-44450000D01*
X438325000Y-65865000D02*
X439180000Y-65010000D01*
X436410000Y-63970000D02*
X436410000Y-44450000D01*
X435380000Y-65000000D02*
X436410000Y-63970000D01*
X433705000Y-44515000D02*
X433640000Y-44450000D01*
X433705000Y-62230000D02*
X433705000Y-44515000D01*
X457085000Y-312720000D02*
X457085000Y-290061670D01*
X430870000Y-263846670D02*
X430870000Y-44450000D01*
X457085000Y-290061670D02*
X430870000Y-263846670D01*
X454315000Y-312720000D02*
X454315000Y-288564490D01*
X428100000Y-262349490D02*
X428100000Y-44450000D01*
X454315000Y-288564490D02*
X428100000Y-262349490D01*
X451545000Y-312720000D02*
X451545000Y-287067310D01*
X425330000Y-260852310D02*
X425330000Y-44450000D01*
X451545000Y-287067310D02*
X425330000Y-260852310D01*
X448775000Y-312720000D02*
X448775000Y-285570130D01*
X422560000Y-259355130D02*
X422560000Y-44450000D01*
X448775000Y-285570130D02*
X422560000Y-259355130D01*
X446005000Y-312720000D02*
X446005000Y-284072950D01*
X419790000Y-257857950D02*
X419790000Y-44450000D01*
X446005000Y-284072950D02*
X419790000Y-257857950D01*
X417020000Y-256360770D02*
X417020000Y-44450000D01*
X443235000Y-312720000D02*
X443235000Y-282575770D01*
X443235000Y-282575770D02*
X417020000Y-256360770D01*
X440465000Y-312720000D02*
X440465000Y-281078590D01*
X414250000Y-254863590D02*
X414250000Y-44450000D01*
X440465000Y-281078590D02*
X414250000Y-254863590D01*
X440690000Y-228600000D02*
X440690000Y-87826998D01*
X440690000Y-87826998D02*
X440690000Y-86360000D01*
X440690000Y-86360000D02*
X440690000Y-86360000D01*
X469770000Y-256410000D02*
X468500000Y-256410000D01*
X468500000Y-256410000D02*
X440690000Y-228600000D01*
X339415002Y-41629998D02*
X339435000Y-41610000D01*
X339415002Y-87320002D02*
X339415002Y-41629998D01*
X339815001Y-87720001D02*
X339415002Y-87320002D01*
X438150000Y-86360000D02*
X438150000Y-86360000D01*
X435065001Y-89444999D02*
X438150000Y-86360000D01*
X460880000Y-256540000D02*
X435065001Y-230725001D01*
X435065001Y-230725001D02*
X435065001Y-89444999D01*
X340820000Y-85550000D02*
X340820000Y-44450000D01*
X341230001Y-85960001D02*
X340820000Y-85550000D01*
X458470000Y-309880000D02*
X458470000Y-290810260D01*
X432255000Y-264595260D02*
X432255000Y-41610000D01*
X458470000Y-290810260D02*
X432255000Y-264595260D01*
X455700000Y-309880000D02*
X455700000Y-289313080D01*
X429485000Y-263098080D02*
X429485000Y-41610000D01*
X455700000Y-289313080D02*
X429485000Y-263098080D01*
X452930000Y-309880000D02*
X452930000Y-287815900D01*
X426715000Y-261600900D02*
X426715000Y-41610000D01*
X452930000Y-287815900D02*
X426715000Y-261600900D01*
X450160000Y-309880000D02*
X450160000Y-286318720D01*
X423945000Y-260103720D02*
X423945000Y-41610000D01*
X450160000Y-286318720D02*
X423945000Y-260103720D01*
X447390000Y-309880000D02*
X447390000Y-284821540D01*
X421175000Y-258606540D02*
X421175000Y-41610000D01*
X447390000Y-284821540D02*
X421175000Y-258606540D01*
X444620000Y-309880000D02*
X444620000Y-283324360D01*
X418405000Y-257109360D02*
X418405000Y-41610000D01*
X444620000Y-283324360D02*
X418405000Y-257109360D01*
X441850000Y-309880000D02*
X441850000Y-281827180D01*
X415635000Y-255612180D02*
X415635000Y-41610000D01*
X441850000Y-281827180D02*
X415635000Y-255612180D01*
X439879999Y-309080001D02*
X439879999Y-281129999D01*
X439080000Y-309880000D02*
X439879999Y-309080001D01*
X412865000Y-254115000D02*
X412865000Y-41610000D01*
X439879999Y-281129999D02*
X412865000Y-254115000D01*
X428000000Y-309880000D02*
X428000000Y-274966410D01*
X383755000Y-230721410D02*
X383755000Y-128055000D01*
X428000000Y-274966410D02*
X383755000Y-230721410D01*
X383755000Y-128055000D02*
X383755000Y-111545000D01*
X383755000Y-111545000D02*
X383755000Y-41610000D01*
X425230000Y-309880000D02*
X425230000Y-276445000D01*
X380985000Y-229224230D02*
X380985000Y-184800000D01*
X425230000Y-273469230D02*
X380985000Y-229224230D01*
X380985000Y-184800000D02*
X380985000Y-135905000D01*
X339044999Y-260395001D02*
X338219999Y-261220001D01*
X339044999Y-253061999D02*
X339044999Y-260395001D01*
X339090000Y-253016998D02*
X339044999Y-253061999D01*
X338219999Y-261220001D02*
X337820000Y-261620000D01*
X339090000Y-249555000D02*
X339090000Y-253016998D01*
X425230000Y-276445000D02*
X425230000Y-273469230D01*
X348850001Y-242969999D02*
X349250000Y-242570000D01*
X344620009Y-247199991D02*
X348850001Y-242969999D01*
X341445009Y-247199991D02*
X344620009Y-247199991D01*
X339090000Y-249555000D02*
X341445009Y-247199991D01*
X338219999Y-237090001D02*
X337820000Y-237490000D01*
X339044999Y-236265001D02*
X338219999Y-237090001D01*
X339044999Y-225555001D02*
X339044999Y-236265001D01*
X339725000Y-224875000D02*
X339044999Y-225555001D01*
X346810000Y-217790000D02*
X339725000Y-224875000D01*
X349235000Y-217790000D02*
X346810000Y-217790000D01*
X348555000Y-210820000D02*
X342860000Y-210820000D01*
X349220000Y-211485000D02*
X348555000Y-210820000D01*
X342860000Y-210254315D02*
X342860000Y-210820000D01*
X342860000Y-207801998D02*
X342860000Y-210254315D01*
X341343001Y-206284999D02*
X342860000Y-207801998D01*
X341101997Y-206284999D02*
X341343001Y-206284999D01*
X338690001Y-203873003D02*
X341101997Y-206284999D01*
X338690001Y-200424999D02*
X338690001Y-203873003D01*
X339090000Y-200025000D02*
X338690001Y-200424999D01*
X349235000Y-193025000D02*
X346090000Y-193025000D01*
X346090000Y-193025000D02*
X339090000Y-200025000D01*
X380985000Y-135905000D02*
X380985000Y-111775000D01*
X380985000Y-111775000D02*
X380985000Y-41610000D01*
X422460000Y-309880000D02*
X422460000Y-271972050D01*
X378215000Y-227727050D02*
X378215000Y-166615000D01*
X422460000Y-271972050D02*
X378215000Y-227727050D01*
X378215000Y-149470000D02*
X378215000Y-110100000D01*
X378215000Y-166615000D02*
X378215000Y-149470000D01*
X378215000Y-110100000D02*
X378215000Y-41610000D01*
X419690000Y-309880000D02*
X419690000Y-270474870D01*
X375445000Y-226229870D02*
X375445000Y-164940000D01*
X419690000Y-270474870D02*
X375445000Y-226229870D01*
X375445000Y-156050000D02*
X375445000Y-114140000D01*
X375445000Y-164940000D02*
X375445000Y-156050000D01*
X375445000Y-114140000D02*
X375445000Y-41610000D01*
X416920000Y-309880000D02*
X416920000Y-268977690D01*
X372675000Y-224732690D02*
X372675000Y-168980000D01*
X416920000Y-268977690D02*
X372675000Y-224732690D01*
X372675000Y-168980000D02*
X372675000Y-161995000D01*
X372675000Y-161995000D02*
X372675000Y-115005000D01*
X372675000Y-115005000D02*
X372675000Y-41610000D01*
X414150000Y-309880000D02*
X414150000Y-267480510D01*
X369905000Y-223235510D02*
X369905000Y-210485000D01*
X414150000Y-267480510D02*
X369905000Y-223235510D01*
X369905000Y-177465000D02*
X369905000Y-116505000D01*
X369905000Y-210485000D02*
X369905000Y-177465000D01*
X369905000Y-116505000D02*
X369905000Y-41610000D01*
X411380000Y-309880000D02*
X411380000Y-273150000D01*
X367135000Y-221738330D02*
X367135000Y-191665000D01*
X411380000Y-265983330D02*
X367135000Y-221738330D01*
X367135000Y-191665000D02*
X367135000Y-118005000D01*
X411380000Y-273150000D02*
X411380000Y-265983330D01*
X367135000Y-118005000D02*
X367135000Y-41610000D01*
X408610000Y-309880000D02*
X408610000Y-275285000D01*
X364365000Y-220241150D02*
X364365000Y-199515000D01*
X408610000Y-264486150D02*
X364365000Y-220241150D01*
X364365000Y-199515000D02*
X364365000Y-119505000D01*
X408610000Y-275285000D02*
X408610000Y-264486150D01*
X364365000Y-119505000D02*
X364365000Y-41610000D01*
X429385000Y-312720000D02*
X429385000Y-276735000D01*
X385140000Y-231470000D02*
X385140000Y-201600000D01*
X429385000Y-275715000D02*
X385140000Y-231470000D01*
X385140000Y-201600000D02*
X385140000Y-139370000D01*
X385140000Y-120320000D02*
X385140000Y-112700000D01*
X450450001Y-171685001D02*
X450850000Y-172085000D01*
X449670001Y-170905001D02*
X450450001Y-171685001D01*
X449670001Y-167533003D02*
X449670001Y-170905001D01*
X447040000Y-164903002D02*
X449670001Y-167533003D01*
X454025000Y-151130000D02*
X450215000Y-151130000D01*
X461645000Y-158750000D02*
X454025000Y-151130000D01*
X461409999Y-138829999D02*
X461010000Y-138430000D01*
X461409999Y-140918003D02*
X461409999Y-138829999D01*
X460088002Y-142240000D02*
X461409999Y-140918003D01*
X449580000Y-142240000D02*
X460088002Y-142240000D01*
X429385000Y-276735000D02*
X429385000Y-275715000D01*
X451485000Y-205105000D02*
X457200000Y-199390000D01*
X451485000Y-209550000D02*
X451485000Y-205105000D01*
X385140000Y-139370000D02*
X385140000Y-120320000D01*
X385140000Y-112700000D02*
X385140000Y-44450000D01*
X382370000Y-45581370D02*
X382370000Y-44450000D01*
X382370000Y-229972820D02*
X382370000Y-126900000D01*
X426615000Y-274217820D02*
X382370000Y-229972820D01*
X426615000Y-312720000D02*
X426615000Y-274217820D01*
X382370000Y-126900000D02*
X382370000Y-111660000D01*
X382370000Y-111660000D02*
X382370000Y-45581370D01*
X423845000Y-312720000D02*
X423845000Y-272720640D01*
X379600000Y-228475640D02*
X379600000Y-170945000D01*
X423845000Y-272720640D02*
X379600000Y-228475640D01*
X379600000Y-144275000D02*
X379600000Y-111255000D01*
X379600000Y-170945000D02*
X379600000Y-144275000D01*
X379600000Y-111255000D02*
X379600000Y-44450000D01*
X421075000Y-312720000D02*
X421075000Y-271223460D01*
X376830000Y-226978460D02*
X376830000Y-165460000D01*
X421075000Y-271223460D02*
X376830000Y-226978460D01*
X376830000Y-147680000D02*
X376830000Y-114025000D01*
X376830000Y-165460000D02*
X376830000Y-147680000D01*
X376830000Y-114025000D02*
X376830000Y-44450000D01*
X418305000Y-312720000D02*
X418305000Y-269726280D01*
X374060000Y-225481280D02*
X374060000Y-163785000D01*
X418305000Y-269726280D02*
X374060000Y-225481280D01*
X374060000Y-163785000D02*
X374060000Y-114255000D01*
X374060000Y-114255000D02*
X374060000Y-44450000D01*
X415535000Y-312720000D02*
X415535000Y-268229100D01*
X371290000Y-223984100D02*
X371290000Y-207830000D01*
X415535000Y-268229100D02*
X371290000Y-223984100D01*
X371290000Y-167825000D02*
X371290000Y-115755000D01*
X371290000Y-207830000D02*
X371290000Y-167825000D01*
X371290000Y-115755000D02*
X371290000Y-44450000D01*
X412765000Y-312720000D02*
X412765000Y-277480000D01*
X368520000Y-222486920D02*
X368520000Y-184565000D01*
X412765000Y-266731920D02*
X368520000Y-222486920D01*
X368520000Y-184565000D02*
X368520000Y-117255000D01*
X412765000Y-277480000D02*
X412765000Y-266731920D01*
X368520000Y-117255000D02*
X368520000Y-44450000D01*
X409995000Y-312720000D02*
X409995000Y-279615000D01*
X365750000Y-220989740D02*
X365750000Y-189875000D01*
X409995000Y-265234740D02*
X365750000Y-220989740D01*
X365750000Y-189875000D02*
X365750000Y-118755000D01*
X409995000Y-279615000D02*
X409995000Y-265234740D01*
X365750000Y-118755000D02*
X365750000Y-44450000D01*
X315759999Y-155859999D02*
X314960000Y-155060000D01*
X317435011Y-197082769D02*
X317435011Y-157535011D01*
X317435011Y-157535011D02*
X315759999Y-155859999D01*
X315342780Y-199175000D02*
X317435011Y-197082769D01*
X312120000Y-199175000D02*
X315342780Y-199175000D01*
X478509998Y-107935000D02*
X469265000Y-117179998D01*
X481630000Y-107935000D02*
X478509998Y-107935000D01*
X469265000Y-117179998D02*
X469265000Y-186055000D01*
X469265000Y-186055000D02*
X467360000Y-187960000D01*
X467360000Y-187960000D02*
X450850000Y-187960000D01*
X448945000Y-189865000D02*
X448945000Y-192405000D01*
X450850000Y-187960000D02*
X448945000Y-189865000D01*
X315759999Y-153089999D02*
X314960000Y-152290000D01*
X318335030Y-155665030D02*
X315759999Y-153089999D01*
X318335030Y-198849972D02*
X318335030Y-155665030D01*
X315240002Y-201945000D02*
X318335030Y-198849972D01*
X312120000Y-201945000D02*
X315240002Y-201945000D01*
X478407220Y-105165000D02*
X467995000Y-115577220D01*
X481630000Y-105165000D02*
X478407220Y-105165000D01*
X467995000Y-179040000D02*
X462900000Y-184135000D01*
X467995000Y-115577220D02*
X467995000Y-179040000D01*
X319235048Y-153795048D02*
X315759999Y-150319999D01*
X315759999Y-150319999D02*
X314960000Y-149520000D01*
X315240002Y-204715000D02*
X319235048Y-200719954D01*
X319235048Y-200719954D02*
X319235048Y-153795048D01*
X312120000Y-204715000D02*
X315240002Y-204715000D01*
X448945000Y-172720000D02*
X448945000Y-170815000D01*
X478509998Y-102395000D02*
X467094980Y-113810018D01*
X481630000Y-102395000D02*
X478509998Y-102395000D01*
X464185000Y-173990000D02*
X450215000Y-173990000D01*
X467094980Y-113810018D02*
X467094980Y-171080020D01*
X467094980Y-171080020D02*
X464185000Y-173990000D01*
X450215000Y-173990000D02*
X448945000Y-172720000D01*
X320135067Y-151925067D02*
X315759999Y-147549999D01*
X320135067Y-202692713D02*
X320135067Y-151925067D01*
X315342780Y-207485000D02*
X320135067Y-202692713D01*
X315759999Y-147549999D02*
X314960000Y-146750000D01*
X312120000Y-207485000D02*
X315342780Y-207485000D01*
X478249999Y-99884999D02*
X466090000Y-112044998D01*
X481630000Y-99625000D02*
X481889999Y-99884999D01*
X481889999Y-99884999D02*
X478249999Y-99884999D01*
X466090000Y-112044998D02*
X466090000Y-160625000D01*
X462930000Y-160625000D02*
X460375000Y-163180000D01*
X466090000Y-160625000D02*
X462930000Y-160625000D01*
X315759999Y-144779999D02*
X314960000Y-143980000D01*
X321035086Y-150055086D02*
X315759999Y-144779999D01*
X321035086Y-204459916D02*
X321035086Y-150055086D01*
X315240002Y-210255000D02*
X321035086Y-204459916D01*
X312120000Y-210255000D02*
X315240002Y-210255000D01*
X464185000Y-149860000D02*
X448945000Y-149860000D01*
X464820000Y-149225000D02*
X464185000Y-149860000D01*
X464820000Y-110442220D02*
X464820000Y-149225000D01*
X481630000Y-96855000D02*
X478407220Y-96855000D01*
X478407220Y-96855000D02*
X464820000Y-110442220D01*
X315759999Y-142009999D02*
X314960000Y-141210000D01*
X321935105Y-148185105D02*
X315759999Y-142009999D01*
X321935105Y-206432673D02*
X321935105Y-148185105D01*
X315342780Y-213025000D02*
X321935105Y-206432673D01*
X312120000Y-213025000D02*
X315342780Y-213025000D01*
X462500001Y-141825001D02*
X462900000Y-142225000D01*
X462189999Y-141514999D02*
X462500001Y-141825001D01*
X462189999Y-110404999D02*
X462189999Y-141514999D01*
X478509998Y-94085000D02*
X462189999Y-110404999D01*
X481630000Y-94085000D02*
X478509998Y-94085000D01*
X322835125Y-146315125D02*
X315759999Y-139239999D01*
X322835125Y-208199877D02*
X322835125Y-146315125D01*
X315240002Y-215795000D02*
X322835125Y-208199877D01*
X315759999Y-139239999D02*
X314960000Y-138440000D01*
X312120000Y-215795000D02*
X315240002Y-215795000D01*
X461289979Y-108535019D02*
X461289979Y-128625021D01*
X481630000Y-91315000D02*
X478509998Y-91315000D01*
X478509998Y-91315000D02*
X461289979Y-108535019D01*
X461010000Y-128905000D02*
X448945000Y-128905000D01*
X461289979Y-128625021D02*
X461010000Y-128905000D01*
X315759999Y-136469999D02*
X314960000Y-135670000D01*
X323735143Y-144445143D02*
X315759999Y-136469999D01*
X323735143Y-210069859D02*
X323735143Y-144445143D01*
X315240002Y-218565000D02*
X323735143Y-210069859D01*
X312120000Y-218565000D02*
X315240002Y-218565000D01*
X474321998Y-88545000D02*
X478435000Y-88545000D01*
X448264999Y-114601999D02*
X474321998Y-88545000D01*
X448264999Y-120318001D02*
X448264999Y-114601999D01*
X478435000Y-88545000D02*
X481630000Y-88545000D01*
X456580000Y-121270000D02*
X449216998Y-121270000D01*
X449216998Y-121270000D02*
X448264999Y-120318001D01*
X313251370Y-156445000D02*
X312120000Y-156445000D01*
X315240002Y-156445000D02*
X313251370Y-156445000D01*
X316091370Y-197790000D02*
X316985001Y-196896369D01*
X316985001Y-158189999D02*
X315240002Y-156445000D01*
X316985001Y-196896369D02*
X316985001Y-158189999D01*
X314960000Y-197790000D02*
X316091370Y-197790000D01*
X478790000Y-109320000D02*
X469900000Y-118210000D01*
X469900000Y-193675000D02*
X464094999Y-199480001D01*
X469900000Y-118210000D02*
X469900000Y-193675000D01*
X313251370Y-153675000D02*
X312120000Y-153675000D01*
X315600000Y-153675000D02*
X313251370Y-153675000D01*
X317885020Y-155960020D02*
X315600000Y-153675000D01*
X317885020Y-197634980D02*
X317885020Y-155960020D01*
X314960000Y-200560000D02*
X317885020Y-197634980D01*
X448545001Y-183279999D02*
X448945000Y-182880000D01*
X478790000Y-106550000D02*
X477658630Y-106550000D01*
X468630000Y-185420000D02*
X466725000Y-187325000D01*
X477658630Y-106550000D02*
X468630000Y-115578630D01*
X466725000Y-187325000D02*
X448945000Y-187325000D01*
X448545001Y-186925001D02*
X448545001Y-183279999D01*
X468630000Y-115578630D02*
X468630000Y-185420000D01*
X448945000Y-187325000D02*
X448545001Y-186925001D01*
X318785039Y-154450037D02*
X315240002Y-150905000D01*
X315240002Y-150905000D02*
X313251370Y-150905000D01*
X318785039Y-199504961D02*
X318785039Y-154450037D01*
X313251370Y-150905000D02*
X312120000Y-150905000D01*
X314960000Y-203330000D02*
X318785039Y-199504961D01*
X467544990Y-175075010D02*
X464494998Y-178125002D01*
X467544990Y-115025010D02*
X467544990Y-175075010D01*
X464494998Y-178125002D02*
X464094999Y-178525001D01*
X478790000Y-103780000D02*
X467544990Y-115025010D01*
X319685057Y-152580055D02*
X315240002Y-148135000D01*
X315240002Y-148135000D02*
X313251370Y-148135000D01*
X316091370Y-206100000D02*
X319685057Y-202506313D01*
X313251370Y-148135000D02*
X312120000Y-148135000D01*
X319685057Y-202506313D02*
X319685057Y-152580055D01*
X314960000Y-206100000D02*
X316091370Y-206100000D01*
X448545001Y-162324999D02*
X448945000Y-161925000D01*
X478790000Y-101010000D02*
X466644970Y-113155030D01*
X466644970Y-113155030D02*
X466644970Y-166450030D01*
X466644970Y-166450030D02*
X466090000Y-167005000D01*
X466090000Y-167005000D02*
X450411998Y-167005000D01*
X450411998Y-167005000D02*
X448545001Y-165138003D01*
X448545001Y-165138003D02*
X448545001Y-162324999D01*
X313251370Y-145365000D02*
X312120000Y-145365000D01*
X315240002Y-145365000D02*
X313251370Y-145365000D01*
X320585076Y-150710074D02*
X315240002Y-145365000D01*
X320585076Y-203244924D02*
X320585076Y-150710074D01*
X314960000Y-208870000D02*
X320585076Y-203244924D01*
X465455000Y-110443630D02*
X465455000Y-157480000D01*
X477658630Y-98240000D02*
X465455000Y-110443630D01*
X478790000Y-98240000D02*
X477658630Y-98240000D01*
X313251370Y-142595000D02*
X312120000Y-142595000D01*
X315240002Y-142595000D02*
X313251370Y-142595000D01*
X321485094Y-148840092D02*
X315240002Y-142595000D01*
X321485096Y-206246274D02*
X321485094Y-148840092D01*
X316091370Y-211640000D02*
X321485096Y-206246274D01*
X314960000Y-211640000D02*
X316091370Y-211640000D01*
X448545001Y-141369999D02*
X448945000Y-140970000D01*
X478790000Y-95470000D02*
X464369990Y-109890010D01*
X464369990Y-109890010D02*
X464369990Y-144595010D01*
X464369990Y-144595010D02*
X462915000Y-146050000D01*
X448545001Y-145015001D02*
X448545001Y-141369999D01*
X462915000Y-146050000D02*
X449580000Y-146050000D01*
X449580000Y-146050000D02*
X448545001Y-145015001D01*
X315240002Y-139825000D02*
X313251370Y-139825000D01*
X322385115Y-146970113D02*
X315240002Y-139825000D01*
X313251370Y-139825000D02*
X312120000Y-139825000D01*
X322385115Y-206984885D02*
X322385115Y-146970113D01*
X314960000Y-214410000D02*
X322385115Y-206984885D01*
X461409999Y-136760001D02*
X461010000Y-137160000D01*
X461739989Y-136430011D02*
X461409999Y-136760001D01*
X461739989Y-109750011D02*
X461739989Y-136430011D01*
X478790000Y-92700000D02*
X461739989Y-109750011D01*
X313251370Y-137055000D02*
X312120000Y-137055000D01*
X315240002Y-137055000D02*
X313251370Y-137055000D01*
X323285134Y-145100132D02*
X315240002Y-137055000D01*
X323285134Y-208854866D02*
X323285134Y-145100132D01*
X314960000Y-217180000D02*
X323285134Y-208854866D01*
X478790000Y-89930000D02*
X455930000Y-112790000D01*
X455930000Y-112790000D02*
X455930000Y-118745000D01*
X454705000Y-119970000D02*
X448990000Y-119970000D01*
X455930000Y-118745000D02*
X454705000Y-119970000D01*
X357715125Y-127920123D02*
X357715125Y-262679875D01*
X312120000Y-85445000D02*
X315240002Y-85445000D01*
X315240002Y-85445000D02*
X357715125Y-127920123D01*
X357715125Y-262679875D02*
X356235000Y-264160000D01*
X345440000Y-264160000D02*
X343535000Y-266065000D01*
X356235000Y-264160000D02*
X345440000Y-264160000D01*
X351705685Y-252110000D02*
X351140000Y-252110000D01*
X356815105Y-247000580D02*
X351705685Y-252110000D01*
X356815105Y-129790103D02*
X356815105Y-247000580D01*
X315240002Y-88215000D02*
X356815105Y-129790103D01*
X312120000Y-88215000D02*
X315240002Y-88215000D01*
X343535000Y-240030000D02*
X343535000Y-241300000D01*
X315240002Y-90985000D02*
X355915087Y-131660085D01*
X312120000Y-90985000D02*
X315240002Y-90985000D01*
X355915087Y-131660085D02*
X355915087Y-237809913D01*
X355915087Y-237809913D02*
X354330000Y-239395000D01*
X354330000Y-239395000D02*
X344170000Y-239395000D01*
X344170000Y-239395000D02*
X343535000Y-240030000D01*
X355015068Y-223469932D02*
X351539999Y-226945001D01*
X351539999Y-226945001D02*
X351140000Y-227345000D01*
X355015068Y-133530066D02*
X355015068Y-223469932D01*
X315240002Y-93755000D02*
X355015068Y-133530066D01*
X312120000Y-93755000D02*
X315240002Y-93755000D01*
X354115049Y-135400047D02*
X354115049Y-212304951D01*
X312120000Y-96525000D02*
X315240002Y-96525000D01*
X315240002Y-96525000D02*
X354115049Y-135400047D01*
X354115049Y-212304951D02*
X351790000Y-214630000D01*
X345440000Y-214630000D02*
X343535000Y-216535000D01*
X351790000Y-214630000D02*
X345440000Y-214630000D01*
X351539999Y-202180001D02*
X351140000Y-202580000D01*
X353215030Y-200504970D02*
X351539999Y-202180001D01*
X315342780Y-99295000D02*
X353215030Y-137167250D01*
X353215030Y-137167250D02*
X353215030Y-200504970D01*
X312120000Y-99295000D02*
X315342780Y-99295000D01*
X352315011Y-139037231D02*
X352315011Y-186164989D01*
X312120000Y-102065000D02*
X315342780Y-102065000D01*
X315342780Y-102065000D02*
X352315011Y-139037231D01*
X352315011Y-186164989D02*
X348615000Y-189865000D01*
X345440000Y-189865000D02*
X343535000Y-191770000D01*
X348615000Y-189865000D02*
X345440000Y-189865000D01*
X351140000Y-177249315D02*
X351140000Y-177815000D01*
X351140000Y-140734998D02*
X351140000Y-177249315D01*
X315240002Y-104835000D02*
X351140000Y-140734998D01*
X312120000Y-104835000D02*
X315240002Y-104835000D01*
X358165135Y-127265135D02*
X358165135Y-271119865D01*
X314960000Y-84060000D02*
X358165135Y-127265135D01*
X358165135Y-271119865D02*
X356870000Y-272415000D01*
X356870000Y-272415000D02*
X344170000Y-272415000D01*
X343535000Y-273050000D02*
X343535000Y-276225000D01*
X344170000Y-272415000D02*
X343535000Y-273050000D01*
X351539999Y-258060001D02*
X351140000Y-258460000D01*
X357265115Y-252334885D02*
X351539999Y-258060001D01*
X357265115Y-129135115D02*
X357265115Y-252334885D01*
X314960000Y-86830000D02*
X357265115Y-129135115D01*
X356365096Y-131005096D02*
X356365096Y-246249904D01*
X314960000Y-89600000D02*
X356365096Y-131005096D01*
X356365096Y-246249904D02*
X354965000Y-247650000D01*
X354965000Y-247650000D02*
X344170000Y-247650000D01*
X344170000Y-247650000D02*
X343535000Y-248285000D01*
X343535000Y-248285000D02*
X343535000Y-250190000D01*
X351539999Y-233295001D02*
X351140000Y-233695000D01*
X355465078Y-229369922D02*
X351539999Y-233295001D01*
X355465078Y-132875078D02*
X355465078Y-229369922D01*
X314960000Y-92370000D02*
X355465078Y-132875078D01*
X354565058Y-134745058D02*
X314960000Y-95140000D01*
X354565058Y-221379942D02*
X354565058Y-134745058D01*
X344805000Y-222885000D02*
X353060000Y-222885000D01*
X353060000Y-222885000D02*
X354565058Y-221379942D01*
X342900000Y-226695000D02*
X342900000Y-224790000D01*
X342900000Y-224790000D02*
X344805000Y-222885000D01*
X351539999Y-208530001D02*
X351140000Y-208930000D01*
X353665040Y-206404960D02*
X351539999Y-208530001D01*
X353665040Y-136615040D02*
X353665040Y-206404960D01*
X314960000Y-97910000D02*
X353665040Y-136615040D01*
X314960000Y-100680000D02*
X316091370Y-100680000D01*
X352765020Y-137353650D02*
X352765020Y-196509980D01*
X351155000Y-198120000D02*
X346075000Y-198120000D01*
X352765020Y-196509980D02*
X351155000Y-198120000D01*
X316091370Y-100680000D02*
X352765020Y-137353650D01*
X346075000Y-198120000D02*
X343535000Y-200660000D01*
X351539999Y-183765001D02*
X351140000Y-184165000D01*
X351865001Y-139223631D02*
X351865001Y-183439999D01*
X316091370Y-103450000D02*
X351865001Y-139223631D01*
X351865001Y-183439999D02*
X351539999Y-183765001D01*
X314960000Y-103450000D02*
X316091370Y-103450000D01*
X361950000Y-269240000D02*
X361950000Y-226695000D01*
X363855000Y-269875000D02*
X357505000Y-276225000D01*
X363855000Y-226695000D02*
X363855000Y-269875000D01*
X398145000Y-276225000D02*
X398145000Y-278765000D01*
X398145000Y-278765000D02*
X393065000Y-283845000D01*
X328875000Y-283845000D02*
X314960000Y-297760000D01*
X393065000Y-283845000D02*
X328875000Y-283845000D01*
X337835000Y-186070000D02*
X327010000Y-186070000D01*
X315759999Y-272030001D02*
X314960000Y-272830000D01*
X324185153Y-263604847D02*
X315759999Y-272030001D01*
X324185153Y-188894847D02*
X324185153Y-263604847D01*
X327010000Y-186070000D02*
X324185153Y-188894847D01*
X327010000Y-193690000D02*
X344185000Y-193690000D01*
X325120000Y-266571370D02*
X325120000Y-195580000D01*
X314960000Y-275600000D02*
X316091370Y-275600000D01*
X325120000Y-195580000D02*
X327010000Y-193690000D01*
X316091370Y-275600000D02*
X325120000Y-266571370D01*
X316091370Y-278370000D02*
X326390000Y-268071370D01*
X314960000Y-278370000D02*
X316091370Y-278370000D01*
X326390000Y-268071370D02*
X326390000Y-212090000D01*
X327645000Y-210835000D02*
X337835000Y-210835000D01*
X326390000Y-212090000D02*
X327645000Y-210835000D01*
X314960000Y-281140000D02*
X327660000Y-268440000D01*
X327660000Y-268440000D02*
X327660000Y-219710000D01*
X328915000Y-218455000D02*
X344185000Y-218455000D01*
X327660000Y-219710000D02*
X328915000Y-218455000D01*
X316091370Y-283910000D02*
X328930000Y-271071370D01*
X314960000Y-283910000D02*
X316091370Y-283910000D01*
X328930000Y-271071370D02*
X328930000Y-236855000D01*
X330185000Y-235600000D02*
X337835000Y-235600000D01*
X328930000Y-236855000D02*
X330185000Y-235600000D01*
X316091370Y-286680000D02*
X330200000Y-272571370D01*
X314960000Y-286680000D02*
X316091370Y-286680000D01*
X330200000Y-272571370D02*
X330200000Y-244475000D01*
X331455000Y-243220000D02*
X344185000Y-243220000D01*
X330200000Y-244475000D02*
X331455000Y-243220000D01*
X314960000Y-289450000D02*
X331470000Y-272940000D01*
X331470000Y-272940000D02*
X331470000Y-261620000D01*
X332725000Y-260365000D02*
X337835000Y-260365000D01*
X331470000Y-261620000D02*
X332725000Y-260365000D01*
X314960000Y-292220000D02*
X332740000Y-274440000D01*
X332740000Y-274440000D02*
X332740000Y-268605000D01*
X333995000Y-267350000D02*
X344185000Y-267350000D01*
X332740000Y-268605000D02*
X333995000Y-267350000D01*
X342355000Y-189230000D02*
X344215000Y-187370000D01*
X324635163Y-191619837D02*
X327025000Y-189230000D01*
X324635163Y-264819839D02*
X324635163Y-191619837D01*
X327025000Y-189230000D02*
X342355000Y-189230000D01*
X312120000Y-274215000D02*
X315240002Y-274215000D01*
X315240002Y-274215000D02*
X324635163Y-264819839D01*
X315342780Y-276985000D02*
X325755000Y-266572780D01*
X312120000Y-276985000D02*
X315342780Y-276985000D01*
X325755000Y-266572780D02*
X325755000Y-203200000D01*
X327645000Y-201310000D02*
X337835000Y-201310000D01*
X325755000Y-203200000D02*
X327645000Y-201310000D01*
X315342780Y-279755000D02*
X327025000Y-268072780D01*
X312120000Y-279755000D02*
X315342780Y-279755000D01*
X327025000Y-268072780D02*
X327025000Y-215900000D01*
X327025000Y-215900000D02*
X328295000Y-214630000D01*
X341660000Y-214630000D02*
X344185000Y-212105000D01*
X328295000Y-214630000D02*
X341660000Y-214630000D01*
X315240002Y-282525000D02*
X328295000Y-269470002D01*
X312120000Y-282525000D02*
X315240002Y-282525000D01*
X328295000Y-269470002D02*
X328295000Y-227330000D01*
X329550000Y-226075000D02*
X337835000Y-226075000D01*
X328295000Y-227330000D02*
X329550000Y-226075000D01*
X315342780Y-285295000D02*
X329565000Y-271072780D01*
X312120000Y-285295000D02*
X315342780Y-285295000D01*
X329565000Y-271072780D02*
X329565000Y-240665000D01*
X329565000Y-240665000D02*
X331470000Y-238760000D01*
X342295000Y-238760000D02*
X344185000Y-236870000D01*
X331470000Y-238760000D02*
X342295000Y-238760000D01*
X315342780Y-288065000D02*
X330835000Y-272572780D01*
X312120000Y-288065000D02*
X315342780Y-288065000D01*
X330835000Y-272572780D02*
X330835000Y-252095000D01*
X332090000Y-250840000D02*
X337835000Y-250840000D01*
X330835000Y-252095000D02*
X332090000Y-250840000D01*
X315240002Y-290835000D02*
X332105000Y-273970002D01*
X312120000Y-290835000D02*
X315240002Y-290835000D01*
X332105000Y-273970002D02*
X332105000Y-264160000D01*
X332105000Y-264160000D02*
X332740000Y-263525000D01*
X342295000Y-263525000D02*
X344185000Y-261635000D01*
X332740000Y-263525000D02*
X342295000Y-263525000D01*
X315240002Y-293605000D02*
X333255002Y-275590000D01*
X312120000Y-293605000D02*
X315240002Y-293605000D01*
X333270002Y-275605000D02*
X337835000Y-275605000D01*
X333255002Y-275590000D02*
X333270002Y-275605000D01*
X406400000Y-100330000D02*
X406400000Y-224155000D01*
X406400000Y-224155000D02*
X406400000Y-224155000D01*
X359899999Y-290920001D02*
X341739999Y-309080001D01*
X341739999Y-309080001D02*
X340940000Y-309880000D01*
X405674999Y-290920001D02*
X359899999Y-290920001D01*
X406400000Y-290195000D02*
X405674999Y-290920001D01*
X406400000Y-86995000D02*
X406400000Y-100330000D01*
X344170000Y-252095000D02*
X345455000Y-250810000D01*
X344170000Y-254635000D02*
X344170000Y-252095000D01*
X342900000Y-258445000D02*
X342900000Y-255905000D01*
X342885000Y-255920000D02*
X342900000Y-255905000D01*
X342900000Y-255905000D02*
X344170000Y-254635000D01*
X342885000Y-234300000D02*
X343550000Y-234300000D01*
X349250000Y-228600000D02*
X349250000Y-225425000D01*
X343550000Y-234300000D02*
X349250000Y-228600000D01*
X450807500Y-178392500D02*
X457200000Y-184785000D01*
X450807500Y-175302500D02*
X450807500Y-178392500D01*
X456565000Y-176460685D02*
X456565000Y-175895000D01*
X456565000Y-178365685D02*
X456565000Y-176460685D01*
X455225685Y-179705000D02*
X456565000Y-178365685D01*
X454660000Y-179705000D02*
X455225685Y-179705000D01*
X454660000Y-158115000D02*
X450850000Y-154305000D01*
X454660000Y-161925000D02*
X455295000Y-162560000D01*
X454660000Y-158115000D02*
X454660000Y-161925000D01*
X447085000Y-113550685D02*
X447085000Y-112985000D01*
X449776998Y-124460000D02*
X447085000Y-121768002D01*
X447085000Y-121768002D02*
X447085000Y-113550685D01*
X460375000Y-124460000D02*
X449776998Y-124460000D01*
X365760000Y-272415000D02*
X364490000Y-273685000D01*
X365760000Y-226695000D02*
X365760000Y-272415000D01*
X375980000Y-278160000D02*
X375330000Y-278810000D01*
X384205000Y-278160000D02*
X375980000Y-278160000D01*
X381235001Y-276624999D02*
X381635000Y-276225000D01*
X373800010Y-277709990D02*
X380150010Y-277709990D01*
X380150010Y-277709990D02*
X381235001Y-276624999D01*
X373350000Y-278160000D02*
X373800010Y-277709990D01*
X384810000Y-276225000D02*
X391795000Y-276225000D01*
X384175000Y-276860000D02*
X384810000Y-276225000D01*
X391160000Y-278130000D02*
X393080000Y-276210000D01*
X391160000Y-278765000D02*
X391160000Y-278130000D01*
X345440000Y-151130000D02*
X345495000Y-151130000D01*
X343535000Y-153035000D02*
X345440000Y-151130000D01*
X454415000Y-82580000D02*
X454415000Y-41610000D01*
X454840000Y-83005000D02*
X454415000Y-82580000D01*
X432155000Y-312720000D02*
X432155000Y-275945000D01*
X401320000Y-245110000D02*
X401320000Y-55880000D01*
X432155000Y-275945000D02*
X401320000Y-245110000D01*
X410210000Y-252096410D02*
X410210000Y-53905685D01*
X410210000Y-53905685D02*
X410210000Y-53340000D01*
X437695000Y-279581410D02*
X410210000Y-252096410D01*
X437695000Y-312720000D02*
X437695000Y-279581410D01*
X410430000Y-44450000D02*
X411480000Y-44450000D01*
X400594999Y-246288589D02*
X400594999Y-54285001D01*
X400594999Y-54285001D02*
X410430000Y-44450000D01*
X430770000Y-276463590D02*
X400594999Y-246288589D01*
X430770000Y-309880000D02*
X430770000Y-276463590D01*
X436310000Y-279463590D02*
X436310000Y-309880000D01*
X402590000Y-245743590D02*
X436310000Y-279463590D01*
X407670000Y-55880000D02*
X402590000Y-60960000D01*
X402590000Y-60960000D02*
X402590000Y-245743590D01*
X358615145Y-127078735D02*
X358615145Y-273844855D01*
X336665000Y-41610000D02*
X336665000Y-105128590D01*
X336665000Y-105128590D02*
X358615145Y-127078735D01*
X358615145Y-273844855D02*
X353060000Y-279400000D01*
X353060000Y-279400000D02*
X353060000Y-279400000D01*
X353060000Y-279400000D02*
X350520000Y-281940000D01*
X350520000Y-281940000D02*
X344170000Y-281940000D01*
X344170000Y-281940000D02*
X344170000Y-281940000D01*
X450865000Y-195565000D02*
X450865000Y-198105000D01*
X455960000Y-190470000D02*
X450865000Y-195565000D01*
X447040000Y-178435000D02*
X447055000Y-178450000D01*
X447040000Y-171450000D02*
X447040000Y-178435000D01*
X450865000Y-156421998D02*
X450865000Y-156929315D01*
X449958001Y-155514999D02*
X450865000Y-156421998D01*
X450865000Y-156929315D02*
X450865000Y-157495000D01*
X449716997Y-155514999D02*
X449958001Y-155514999D01*
X447040000Y-152838002D02*
X449716997Y-155514999D01*
X447040000Y-150495000D02*
X447040000Y-152838002D01*
X450299315Y-136540000D02*
X450865000Y-136540000D01*
X449791998Y-136540000D02*
X450299315Y-136540000D01*
X448884999Y-135633001D02*
X449791998Y-136540000D01*
X448884999Y-131384999D02*
X448884999Y-135633001D01*
X447040000Y-129540000D02*
X448884999Y-131384999D01*
M02*
