G04 #@! TF.GenerationSoftware,KiCad,Pcbnew,5.1.5-52549c5~84~ubuntu18.04.1*
G04 #@! TF.CreationDate,2020-06-06T14:23:53-07:00*
G04 #@! TF.ProjectId,motherboard,6d6f7468-6572-4626-9f61-72642e6b6963,rev?*
G04 #@! TF.SameCoordinates,Original*
G04 #@! TF.FileFunction,Paste,Top*
G04 #@! TF.FilePolarity,Positive*
%FSLAX46Y46*%
G04 Gerber Fmt 4.6, Leading zero omitted, Abs format (unit mm)*
G04 Created by KiCad (PCBNEW 5.1.5-52549c5~84~ubuntu18.04.1) date 2020-06-06 14:23:53*
%MOMM*%
%LPD*%
G04 APERTURE LIST*
%ADD10C,0.100000*%
%ADD11R,1.350000X0.350000*%
%ADD12R,1.450000X1.200000*%
G04 APERTURE END LIST*
D10*
G36*
X358122544Y-111691108D02*
G01*
X358144871Y-111694419D01*
X358166765Y-111699904D01*
X358188017Y-111707508D01*
X358208421Y-111717158D01*
X358227781Y-111728762D01*
X358245910Y-111742208D01*
X358262635Y-111757365D01*
X358277792Y-111774090D01*
X358291238Y-111792219D01*
X358302842Y-111811579D01*
X358312492Y-111831983D01*
X358320096Y-111853235D01*
X358325581Y-111875129D01*
X358328892Y-111897456D01*
X358330000Y-111920000D01*
X358330000Y-112610000D01*
X358328892Y-112632544D01*
X358325581Y-112654871D01*
X358320096Y-112676765D01*
X358312492Y-112698017D01*
X358302842Y-112718421D01*
X358291238Y-112737781D01*
X358277792Y-112755910D01*
X358262635Y-112772635D01*
X358245910Y-112787792D01*
X358227781Y-112801238D01*
X358208421Y-112812842D01*
X358188017Y-112822492D01*
X358166765Y-112830096D01*
X358144871Y-112835581D01*
X358122544Y-112838892D01*
X358100000Y-112840000D01*
X356910000Y-112840000D01*
X356887456Y-112838892D01*
X356865129Y-112835581D01*
X356843235Y-112830096D01*
X356821983Y-112822492D01*
X356801579Y-112812842D01*
X356782219Y-112801238D01*
X356764090Y-112787792D01*
X356747365Y-112772635D01*
X356732208Y-112755910D01*
X356718762Y-112737781D01*
X356707158Y-112718421D01*
X356697508Y-112698017D01*
X356689904Y-112676765D01*
X356684419Y-112654871D01*
X356681108Y-112632544D01*
X356680000Y-112610000D01*
X356680000Y-111920000D01*
X356681108Y-111897456D01*
X356684419Y-111875129D01*
X356689904Y-111853235D01*
X356697508Y-111831983D01*
X356707158Y-111811579D01*
X356718762Y-111792219D01*
X356732208Y-111774090D01*
X356747365Y-111757365D01*
X356764090Y-111742208D01*
X356782219Y-111728762D01*
X356801579Y-111717158D01*
X356821983Y-111707508D01*
X356843235Y-111699904D01*
X356865129Y-111694419D01*
X356887456Y-111691108D01*
X356910000Y-111690000D01*
X358100000Y-111690000D01*
X358122544Y-111691108D01*
G37*
G36*
X358122544Y-114491108D02*
G01*
X358144871Y-114494419D01*
X358166765Y-114499904D01*
X358188017Y-114507508D01*
X358208421Y-114517158D01*
X358227781Y-114528762D01*
X358245910Y-114542208D01*
X358262635Y-114557365D01*
X358277792Y-114574090D01*
X358291238Y-114592219D01*
X358302842Y-114611579D01*
X358312492Y-114631983D01*
X358320096Y-114653235D01*
X358325581Y-114675129D01*
X358328892Y-114697456D01*
X358330000Y-114720000D01*
X358330000Y-115410000D01*
X358328892Y-115432544D01*
X358325581Y-115454871D01*
X358320096Y-115476765D01*
X358312492Y-115498017D01*
X358302842Y-115518421D01*
X358291238Y-115537781D01*
X358277792Y-115555910D01*
X358262635Y-115572635D01*
X358245910Y-115587792D01*
X358227781Y-115601238D01*
X358208421Y-115612842D01*
X358188017Y-115622492D01*
X358166765Y-115630096D01*
X358144871Y-115635581D01*
X358122544Y-115638892D01*
X358100000Y-115640000D01*
X356910000Y-115640000D01*
X356887456Y-115638892D01*
X356865129Y-115635581D01*
X356843235Y-115630096D01*
X356821983Y-115622492D01*
X356801579Y-115612842D01*
X356782219Y-115601238D01*
X356764090Y-115587792D01*
X356747365Y-115572635D01*
X356732208Y-115555910D01*
X356718762Y-115537781D01*
X356707158Y-115518421D01*
X356697508Y-115498017D01*
X356689904Y-115476765D01*
X356684419Y-115454871D01*
X356681108Y-115432544D01*
X356680000Y-115410000D01*
X356680000Y-114720000D01*
X356681108Y-114697456D01*
X356684419Y-114675129D01*
X356689904Y-114653235D01*
X356697508Y-114631983D01*
X356707158Y-114611579D01*
X356718762Y-114592219D01*
X356732208Y-114574090D01*
X356747365Y-114557365D01*
X356764090Y-114542208D01*
X356782219Y-114528762D01*
X356801579Y-114517158D01*
X356821983Y-114507508D01*
X356843235Y-114499904D01*
X356865129Y-114494419D01*
X356887456Y-114491108D01*
X356910000Y-114490000D01*
X358100000Y-114490000D01*
X358122544Y-114491108D01*
G37*
G36*
X358122544Y-101531108D02*
G01*
X358144871Y-101534419D01*
X358166765Y-101539904D01*
X358188017Y-101547508D01*
X358208421Y-101557158D01*
X358227781Y-101568762D01*
X358245910Y-101582208D01*
X358262635Y-101597365D01*
X358277792Y-101614090D01*
X358291238Y-101632219D01*
X358302842Y-101651579D01*
X358312492Y-101671983D01*
X358320096Y-101693235D01*
X358325581Y-101715129D01*
X358328892Y-101737456D01*
X358330000Y-101760000D01*
X358330000Y-102450000D01*
X358328892Y-102472544D01*
X358325581Y-102494871D01*
X358320096Y-102516765D01*
X358312492Y-102538017D01*
X358302842Y-102558421D01*
X358291238Y-102577781D01*
X358277792Y-102595910D01*
X358262635Y-102612635D01*
X358245910Y-102627792D01*
X358227781Y-102641238D01*
X358208421Y-102652842D01*
X358188017Y-102662492D01*
X358166765Y-102670096D01*
X358144871Y-102675581D01*
X358122544Y-102678892D01*
X358100000Y-102680000D01*
X356910000Y-102680000D01*
X356887456Y-102678892D01*
X356865129Y-102675581D01*
X356843235Y-102670096D01*
X356821983Y-102662492D01*
X356801579Y-102652842D01*
X356782219Y-102641238D01*
X356764090Y-102627792D01*
X356747365Y-102612635D01*
X356732208Y-102595910D01*
X356718762Y-102577781D01*
X356707158Y-102558421D01*
X356697508Y-102538017D01*
X356689904Y-102516765D01*
X356684419Y-102494871D01*
X356681108Y-102472544D01*
X356680000Y-102450000D01*
X356680000Y-101760000D01*
X356681108Y-101737456D01*
X356684419Y-101715129D01*
X356689904Y-101693235D01*
X356697508Y-101671983D01*
X356707158Y-101651579D01*
X356718762Y-101632219D01*
X356732208Y-101614090D01*
X356747365Y-101597365D01*
X356764090Y-101582208D01*
X356782219Y-101568762D01*
X356801579Y-101557158D01*
X356821983Y-101547508D01*
X356843235Y-101539904D01*
X356865129Y-101534419D01*
X356887456Y-101531108D01*
X356910000Y-101530000D01*
X358100000Y-101530000D01*
X358122544Y-101531108D01*
G37*
G36*
X358122544Y-104331108D02*
G01*
X358144871Y-104334419D01*
X358166765Y-104339904D01*
X358188017Y-104347508D01*
X358208421Y-104357158D01*
X358227781Y-104368762D01*
X358245910Y-104382208D01*
X358262635Y-104397365D01*
X358277792Y-104414090D01*
X358291238Y-104432219D01*
X358302842Y-104451579D01*
X358312492Y-104471983D01*
X358320096Y-104493235D01*
X358325581Y-104515129D01*
X358328892Y-104537456D01*
X358330000Y-104560000D01*
X358330000Y-105250000D01*
X358328892Y-105272544D01*
X358325581Y-105294871D01*
X358320096Y-105316765D01*
X358312492Y-105338017D01*
X358302842Y-105358421D01*
X358291238Y-105377781D01*
X358277792Y-105395910D01*
X358262635Y-105412635D01*
X358245910Y-105427792D01*
X358227781Y-105441238D01*
X358208421Y-105452842D01*
X358188017Y-105462492D01*
X358166765Y-105470096D01*
X358144871Y-105475581D01*
X358122544Y-105478892D01*
X358100000Y-105480000D01*
X356910000Y-105480000D01*
X356887456Y-105478892D01*
X356865129Y-105475581D01*
X356843235Y-105470096D01*
X356821983Y-105462492D01*
X356801579Y-105452842D01*
X356782219Y-105441238D01*
X356764090Y-105427792D01*
X356747365Y-105412635D01*
X356732208Y-105395910D01*
X356718762Y-105377781D01*
X356707158Y-105358421D01*
X356697508Y-105338017D01*
X356689904Y-105316765D01*
X356684419Y-105294871D01*
X356681108Y-105272544D01*
X356680000Y-105250000D01*
X356680000Y-104560000D01*
X356681108Y-104537456D01*
X356684419Y-104515129D01*
X356689904Y-104493235D01*
X356697508Y-104471983D01*
X356707158Y-104451579D01*
X356718762Y-104432219D01*
X356732208Y-104414090D01*
X356747365Y-104397365D01*
X356764090Y-104382208D01*
X356782219Y-104368762D01*
X356801579Y-104357158D01*
X356821983Y-104347508D01*
X356843235Y-104339904D01*
X356865129Y-104334419D01*
X356887456Y-104331108D01*
X356910000Y-104330000D01*
X358100000Y-104330000D01*
X358122544Y-104331108D01*
G37*
G36*
X368282544Y-92901108D02*
G01*
X368304871Y-92904419D01*
X368326765Y-92909904D01*
X368348017Y-92917508D01*
X368368421Y-92927158D01*
X368387781Y-92938762D01*
X368405910Y-92952208D01*
X368422635Y-92967365D01*
X368437792Y-92984090D01*
X368451238Y-93002219D01*
X368462842Y-93021579D01*
X368472492Y-93041983D01*
X368480096Y-93063235D01*
X368485581Y-93085129D01*
X368488892Y-93107456D01*
X368490000Y-93130000D01*
X368490000Y-93820000D01*
X368488892Y-93842544D01*
X368485581Y-93864871D01*
X368480096Y-93886765D01*
X368472492Y-93908017D01*
X368462842Y-93928421D01*
X368451238Y-93947781D01*
X368437792Y-93965910D01*
X368422635Y-93982635D01*
X368405910Y-93997792D01*
X368387781Y-94011238D01*
X368368421Y-94022842D01*
X368348017Y-94032492D01*
X368326765Y-94040096D01*
X368304871Y-94045581D01*
X368282544Y-94048892D01*
X368260000Y-94050000D01*
X367070000Y-94050000D01*
X367047456Y-94048892D01*
X367025129Y-94045581D01*
X367003235Y-94040096D01*
X366981983Y-94032492D01*
X366961579Y-94022842D01*
X366942219Y-94011238D01*
X366924090Y-93997792D01*
X366907365Y-93982635D01*
X366892208Y-93965910D01*
X366878762Y-93947781D01*
X366867158Y-93928421D01*
X366857508Y-93908017D01*
X366849904Y-93886765D01*
X366844419Y-93864871D01*
X366841108Y-93842544D01*
X366840000Y-93820000D01*
X366840000Y-93130000D01*
X366841108Y-93107456D01*
X366844419Y-93085129D01*
X366849904Y-93063235D01*
X366857508Y-93041983D01*
X366867158Y-93021579D01*
X366878762Y-93002219D01*
X366892208Y-92984090D01*
X366907365Y-92967365D01*
X366924090Y-92952208D01*
X366942219Y-92938762D01*
X366961579Y-92927158D01*
X366981983Y-92917508D01*
X367003235Y-92909904D01*
X367025129Y-92904419D01*
X367047456Y-92901108D01*
X367070000Y-92900000D01*
X368260000Y-92900000D01*
X368282544Y-92901108D01*
G37*
G36*
X368282544Y-90101108D02*
G01*
X368304871Y-90104419D01*
X368326765Y-90109904D01*
X368348017Y-90117508D01*
X368368421Y-90127158D01*
X368387781Y-90138762D01*
X368405910Y-90152208D01*
X368422635Y-90167365D01*
X368437792Y-90184090D01*
X368451238Y-90202219D01*
X368462842Y-90221579D01*
X368472492Y-90241983D01*
X368480096Y-90263235D01*
X368485581Y-90285129D01*
X368488892Y-90307456D01*
X368490000Y-90330000D01*
X368490000Y-91020000D01*
X368488892Y-91042544D01*
X368485581Y-91064871D01*
X368480096Y-91086765D01*
X368472492Y-91108017D01*
X368462842Y-91128421D01*
X368451238Y-91147781D01*
X368437792Y-91165910D01*
X368422635Y-91182635D01*
X368405910Y-91197792D01*
X368387781Y-91211238D01*
X368368421Y-91222842D01*
X368348017Y-91232492D01*
X368326765Y-91240096D01*
X368304871Y-91245581D01*
X368282544Y-91248892D01*
X368260000Y-91250000D01*
X367070000Y-91250000D01*
X367047456Y-91248892D01*
X367025129Y-91245581D01*
X367003235Y-91240096D01*
X366981983Y-91232492D01*
X366961579Y-91222842D01*
X366942219Y-91211238D01*
X366924090Y-91197792D01*
X366907365Y-91182635D01*
X366892208Y-91165910D01*
X366878762Y-91147781D01*
X366867158Y-91128421D01*
X366857508Y-91108017D01*
X366849904Y-91086765D01*
X366844419Y-91064871D01*
X366841108Y-91042544D01*
X366840000Y-91020000D01*
X366840000Y-90330000D01*
X366841108Y-90307456D01*
X366844419Y-90285129D01*
X366849904Y-90263235D01*
X366857508Y-90241983D01*
X366867158Y-90221579D01*
X366878762Y-90202219D01*
X366892208Y-90184090D01*
X366907365Y-90167365D01*
X366924090Y-90152208D01*
X366942219Y-90138762D01*
X366961579Y-90127158D01*
X366981983Y-90117508D01*
X367003235Y-90109904D01*
X367025129Y-90104419D01*
X367047456Y-90101108D01*
X367070000Y-90100000D01*
X368260000Y-90100000D01*
X368282544Y-90101108D01*
G37*
G36*
X372727544Y-92901108D02*
G01*
X372749871Y-92904419D01*
X372771765Y-92909904D01*
X372793017Y-92917508D01*
X372813421Y-92927158D01*
X372832781Y-92938762D01*
X372850910Y-92952208D01*
X372867635Y-92967365D01*
X372882792Y-92984090D01*
X372896238Y-93002219D01*
X372907842Y-93021579D01*
X372917492Y-93041983D01*
X372925096Y-93063235D01*
X372930581Y-93085129D01*
X372933892Y-93107456D01*
X372935000Y-93130000D01*
X372935000Y-93820000D01*
X372933892Y-93842544D01*
X372930581Y-93864871D01*
X372925096Y-93886765D01*
X372917492Y-93908017D01*
X372907842Y-93928421D01*
X372896238Y-93947781D01*
X372882792Y-93965910D01*
X372867635Y-93982635D01*
X372850910Y-93997792D01*
X372832781Y-94011238D01*
X372813421Y-94022842D01*
X372793017Y-94032492D01*
X372771765Y-94040096D01*
X372749871Y-94045581D01*
X372727544Y-94048892D01*
X372705000Y-94050000D01*
X371515000Y-94050000D01*
X371492456Y-94048892D01*
X371470129Y-94045581D01*
X371448235Y-94040096D01*
X371426983Y-94032492D01*
X371406579Y-94022842D01*
X371387219Y-94011238D01*
X371369090Y-93997792D01*
X371352365Y-93982635D01*
X371337208Y-93965910D01*
X371323762Y-93947781D01*
X371312158Y-93928421D01*
X371302508Y-93908017D01*
X371294904Y-93886765D01*
X371289419Y-93864871D01*
X371286108Y-93842544D01*
X371285000Y-93820000D01*
X371285000Y-93130000D01*
X371286108Y-93107456D01*
X371289419Y-93085129D01*
X371294904Y-93063235D01*
X371302508Y-93041983D01*
X371312158Y-93021579D01*
X371323762Y-93002219D01*
X371337208Y-92984090D01*
X371352365Y-92967365D01*
X371369090Y-92952208D01*
X371387219Y-92938762D01*
X371406579Y-92927158D01*
X371426983Y-92917508D01*
X371448235Y-92909904D01*
X371470129Y-92904419D01*
X371492456Y-92901108D01*
X371515000Y-92900000D01*
X372705000Y-92900000D01*
X372727544Y-92901108D01*
G37*
G36*
X372727544Y-90101108D02*
G01*
X372749871Y-90104419D01*
X372771765Y-90109904D01*
X372793017Y-90117508D01*
X372813421Y-90127158D01*
X372832781Y-90138762D01*
X372850910Y-90152208D01*
X372867635Y-90167365D01*
X372882792Y-90184090D01*
X372896238Y-90202219D01*
X372907842Y-90221579D01*
X372917492Y-90241983D01*
X372925096Y-90263235D01*
X372930581Y-90285129D01*
X372933892Y-90307456D01*
X372935000Y-90330000D01*
X372935000Y-91020000D01*
X372933892Y-91042544D01*
X372930581Y-91064871D01*
X372925096Y-91086765D01*
X372917492Y-91108017D01*
X372907842Y-91128421D01*
X372896238Y-91147781D01*
X372882792Y-91165910D01*
X372867635Y-91182635D01*
X372850910Y-91197792D01*
X372832781Y-91211238D01*
X372813421Y-91222842D01*
X372793017Y-91232492D01*
X372771765Y-91240096D01*
X372749871Y-91245581D01*
X372727544Y-91248892D01*
X372705000Y-91250000D01*
X371515000Y-91250000D01*
X371492456Y-91248892D01*
X371470129Y-91245581D01*
X371448235Y-91240096D01*
X371426983Y-91232492D01*
X371406579Y-91222842D01*
X371387219Y-91211238D01*
X371369090Y-91197792D01*
X371352365Y-91182635D01*
X371337208Y-91165910D01*
X371323762Y-91147781D01*
X371312158Y-91128421D01*
X371302508Y-91108017D01*
X371294904Y-91086765D01*
X371289419Y-91064871D01*
X371286108Y-91042544D01*
X371285000Y-91020000D01*
X371285000Y-90330000D01*
X371286108Y-90307456D01*
X371289419Y-90285129D01*
X371294904Y-90263235D01*
X371302508Y-90241983D01*
X371312158Y-90221579D01*
X371323762Y-90202219D01*
X371337208Y-90184090D01*
X371352365Y-90167365D01*
X371369090Y-90152208D01*
X371387219Y-90138762D01*
X371406579Y-90127158D01*
X371426983Y-90117508D01*
X371448235Y-90109904D01*
X371470129Y-90104419D01*
X371492456Y-90101108D01*
X371515000Y-90100000D01*
X372705000Y-90100000D01*
X372727544Y-90101108D01*
G37*
G36*
X377172544Y-92901108D02*
G01*
X377194871Y-92904419D01*
X377216765Y-92909904D01*
X377238017Y-92917508D01*
X377258421Y-92927158D01*
X377277781Y-92938762D01*
X377295910Y-92952208D01*
X377312635Y-92967365D01*
X377327792Y-92984090D01*
X377341238Y-93002219D01*
X377352842Y-93021579D01*
X377362492Y-93041983D01*
X377370096Y-93063235D01*
X377375581Y-93085129D01*
X377378892Y-93107456D01*
X377380000Y-93130000D01*
X377380000Y-93820000D01*
X377378892Y-93842544D01*
X377375581Y-93864871D01*
X377370096Y-93886765D01*
X377362492Y-93908017D01*
X377352842Y-93928421D01*
X377341238Y-93947781D01*
X377327792Y-93965910D01*
X377312635Y-93982635D01*
X377295910Y-93997792D01*
X377277781Y-94011238D01*
X377258421Y-94022842D01*
X377238017Y-94032492D01*
X377216765Y-94040096D01*
X377194871Y-94045581D01*
X377172544Y-94048892D01*
X377150000Y-94050000D01*
X375960000Y-94050000D01*
X375937456Y-94048892D01*
X375915129Y-94045581D01*
X375893235Y-94040096D01*
X375871983Y-94032492D01*
X375851579Y-94022842D01*
X375832219Y-94011238D01*
X375814090Y-93997792D01*
X375797365Y-93982635D01*
X375782208Y-93965910D01*
X375768762Y-93947781D01*
X375757158Y-93928421D01*
X375747508Y-93908017D01*
X375739904Y-93886765D01*
X375734419Y-93864871D01*
X375731108Y-93842544D01*
X375730000Y-93820000D01*
X375730000Y-93130000D01*
X375731108Y-93107456D01*
X375734419Y-93085129D01*
X375739904Y-93063235D01*
X375747508Y-93041983D01*
X375757158Y-93021579D01*
X375768762Y-93002219D01*
X375782208Y-92984090D01*
X375797365Y-92967365D01*
X375814090Y-92952208D01*
X375832219Y-92938762D01*
X375851579Y-92927158D01*
X375871983Y-92917508D01*
X375893235Y-92909904D01*
X375915129Y-92904419D01*
X375937456Y-92901108D01*
X375960000Y-92900000D01*
X377150000Y-92900000D01*
X377172544Y-92901108D01*
G37*
G36*
X377172544Y-90101108D02*
G01*
X377194871Y-90104419D01*
X377216765Y-90109904D01*
X377238017Y-90117508D01*
X377258421Y-90127158D01*
X377277781Y-90138762D01*
X377295910Y-90152208D01*
X377312635Y-90167365D01*
X377327792Y-90184090D01*
X377341238Y-90202219D01*
X377352842Y-90221579D01*
X377362492Y-90241983D01*
X377370096Y-90263235D01*
X377375581Y-90285129D01*
X377378892Y-90307456D01*
X377380000Y-90330000D01*
X377380000Y-91020000D01*
X377378892Y-91042544D01*
X377375581Y-91064871D01*
X377370096Y-91086765D01*
X377362492Y-91108017D01*
X377352842Y-91128421D01*
X377341238Y-91147781D01*
X377327792Y-91165910D01*
X377312635Y-91182635D01*
X377295910Y-91197792D01*
X377277781Y-91211238D01*
X377258421Y-91222842D01*
X377238017Y-91232492D01*
X377216765Y-91240096D01*
X377194871Y-91245581D01*
X377172544Y-91248892D01*
X377150000Y-91250000D01*
X375960000Y-91250000D01*
X375937456Y-91248892D01*
X375915129Y-91245581D01*
X375893235Y-91240096D01*
X375871983Y-91232492D01*
X375851579Y-91222842D01*
X375832219Y-91211238D01*
X375814090Y-91197792D01*
X375797365Y-91182635D01*
X375782208Y-91165910D01*
X375768762Y-91147781D01*
X375757158Y-91128421D01*
X375747508Y-91108017D01*
X375739904Y-91086765D01*
X375734419Y-91064871D01*
X375731108Y-91042544D01*
X375730000Y-91020000D01*
X375730000Y-90330000D01*
X375731108Y-90307456D01*
X375734419Y-90285129D01*
X375739904Y-90263235D01*
X375747508Y-90241983D01*
X375757158Y-90221579D01*
X375768762Y-90202219D01*
X375782208Y-90184090D01*
X375797365Y-90167365D01*
X375814090Y-90152208D01*
X375832219Y-90138762D01*
X375851579Y-90127158D01*
X375871983Y-90117508D01*
X375893235Y-90109904D01*
X375915129Y-90104419D01*
X375937456Y-90101108D01*
X375960000Y-90100000D01*
X377150000Y-90100000D01*
X377172544Y-90101108D01*
G37*
G36*
X381617544Y-92901108D02*
G01*
X381639871Y-92904419D01*
X381661765Y-92909904D01*
X381683017Y-92917508D01*
X381703421Y-92927158D01*
X381722781Y-92938762D01*
X381740910Y-92952208D01*
X381757635Y-92967365D01*
X381772792Y-92984090D01*
X381786238Y-93002219D01*
X381797842Y-93021579D01*
X381807492Y-93041983D01*
X381815096Y-93063235D01*
X381820581Y-93085129D01*
X381823892Y-93107456D01*
X381825000Y-93130000D01*
X381825000Y-93820000D01*
X381823892Y-93842544D01*
X381820581Y-93864871D01*
X381815096Y-93886765D01*
X381807492Y-93908017D01*
X381797842Y-93928421D01*
X381786238Y-93947781D01*
X381772792Y-93965910D01*
X381757635Y-93982635D01*
X381740910Y-93997792D01*
X381722781Y-94011238D01*
X381703421Y-94022842D01*
X381683017Y-94032492D01*
X381661765Y-94040096D01*
X381639871Y-94045581D01*
X381617544Y-94048892D01*
X381595000Y-94050000D01*
X380405000Y-94050000D01*
X380382456Y-94048892D01*
X380360129Y-94045581D01*
X380338235Y-94040096D01*
X380316983Y-94032492D01*
X380296579Y-94022842D01*
X380277219Y-94011238D01*
X380259090Y-93997792D01*
X380242365Y-93982635D01*
X380227208Y-93965910D01*
X380213762Y-93947781D01*
X380202158Y-93928421D01*
X380192508Y-93908017D01*
X380184904Y-93886765D01*
X380179419Y-93864871D01*
X380176108Y-93842544D01*
X380175000Y-93820000D01*
X380175000Y-93130000D01*
X380176108Y-93107456D01*
X380179419Y-93085129D01*
X380184904Y-93063235D01*
X380192508Y-93041983D01*
X380202158Y-93021579D01*
X380213762Y-93002219D01*
X380227208Y-92984090D01*
X380242365Y-92967365D01*
X380259090Y-92952208D01*
X380277219Y-92938762D01*
X380296579Y-92927158D01*
X380316983Y-92917508D01*
X380338235Y-92909904D01*
X380360129Y-92904419D01*
X380382456Y-92901108D01*
X380405000Y-92900000D01*
X381595000Y-92900000D01*
X381617544Y-92901108D01*
G37*
G36*
X381617544Y-90101108D02*
G01*
X381639871Y-90104419D01*
X381661765Y-90109904D01*
X381683017Y-90117508D01*
X381703421Y-90127158D01*
X381722781Y-90138762D01*
X381740910Y-90152208D01*
X381757635Y-90167365D01*
X381772792Y-90184090D01*
X381786238Y-90202219D01*
X381797842Y-90221579D01*
X381807492Y-90241983D01*
X381815096Y-90263235D01*
X381820581Y-90285129D01*
X381823892Y-90307456D01*
X381825000Y-90330000D01*
X381825000Y-91020000D01*
X381823892Y-91042544D01*
X381820581Y-91064871D01*
X381815096Y-91086765D01*
X381807492Y-91108017D01*
X381797842Y-91128421D01*
X381786238Y-91147781D01*
X381772792Y-91165910D01*
X381757635Y-91182635D01*
X381740910Y-91197792D01*
X381722781Y-91211238D01*
X381703421Y-91222842D01*
X381683017Y-91232492D01*
X381661765Y-91240096D01*
X381639871Y-91245581D01*
X381617544Y-91248892D01*
X381595000Y-91250000D01*
X380405000Y-91250000D01*
X380382456Y-91248892D01*
X380360129Y-91245581D01*
X380338235Y-91240096D01*
X380316983Y-91232492D01*
X380296579Y-91222842D01*
X380277219Y-91211238D01*
X380259090Y-91197792D01*
X380242365Y-91182635D01*
X380227208Y-91165910D01*
X380213762Y-91147781D01*
X380202158Y-91128421D01*
X380192508Y-91108017D01*
X380184904Y-91086765D01*
X380179419Y-91064871D01*
X380176108Y-91042544D01*
X380175000Y-91020000D01*
X380175000Y-90330000D01*
X380176108Y-90307456D01*
X380179419Y-90285129D01*
X380184904Y-90263235D01*
X380192508Y-90241983D01*
X380202158Y-90221579D01*
X380213762Y-90202219D01*
X380227208Y-90184090D01*
X380242365Y-90167365D01*
X380259090Y-90152208D01*
X380277219Y-90138762D01*
X380296579Y-90127158D01*
X380316983Y-90117508D01*
X380338235Y-90109904D01*
X380360129Y-90104419D01*
X380382456Y-90101108D01*
X380405000Y-90100000D01*
X381595000Y-90100000D01*
X381617544Y-90101108D01*
G37*
G36*
X386062544Y-92901108D02*
G01*
X386084871Y-92904419D01*
X386106765Y-92909904D01*
X386128017Y-92917508D01*
X386148421Y-92927158D01*
X386167781Y-92938762D01*
X386185910Y-92952208D01*
X386202635Y-92967365D01*
X386217792Y-92984090D01*
X386231238Y-93002219D01*
X386242842Y-93021579D01*
X386252492Y-93041983D01*
X386260096Y-93063235D01*
X386265581Y-93085129D01*
X386268892Y-93107456D01*
X386270000Y-93130000D01*
X386270000Y-93820000D01*
X386268892Y-93842544D01*
X386265581Y-93864871D01*
X386260096Y-93886765D01*
X386252492Y-93908017D01*
X386242842Y-93928421D01*
X386231238Y-93947781D01*
X386217792Y-93965910D01*
X386202635Y-93982635D01*
X386185910Y-93997792D01*
X386167781Y-94011238D01*
X386148421Y-94022842D01*
X386128017Y-94032492D01*
X386106765Y-94040096D01*
X386084871Y-94045581D01*
X386062544Y-94048892D01*
X386040000Y-94050000D01*
X384850000Y-94050000D01*
X384827456Y-94048892D01*
X384805129Y-94045581D01*
X384783235Y-94040096D01*
X384761983Y-94032492D01*
X384741579Y-94022842D01*
X384722219Y-94011238D01*
X384704090Y-93997792D01*
X384687365Y-93982635D01*
X384672208Y-93965910D01*
X384658762Y-93947781D01*
X384647158Y-93928421D01*
X384637508Y-93908017D01*
X384629904Y-93886765D01*
X384624419Y-93864871D01*
X384621108Y-93842544D01*
X384620000Y-93820000D01*
X384620000Y-93130000D01*
X384621108Y-93107456D01*
X384624419Y-93085129D01*
X384629904Y-93063235D01*
X384637508Y-93041983D01*
X384647158Y-93021579D01*
X384658762Y-93002219D01*
X384672208Y-92984090D01*
X384687365Y-92967365D01*
X384704090Y-92952208D01*
X384722219Y-92938762D01*
X384741579Y-92927158D01*
X384761983Y-92917508D01*
X384783235Y-92909904D01*
X384805129Y-92904419D01*
X384827456Y-92901108D01*
X384850000Y-92900000D01*
X386040000Y-92900000D01*
X386062544Y-92901108D01*
G37*
G36*
X386062544Y-90101108D02*
G01*
X386084871Y-90104419D01*
X386106765Y-90109904D01*
X386128017Y-90117508D01*
X386148421Y-90127158D01*
X386167781Y-90138762D01*
X386185910Y-90152208D01*
X386202635Y-90167365D01*
X386217792Y-90184090D01*
X386231238Y-90202219D01*
X386242842Y-90221579D01*
X386252492Y-90241983D01*
X386260096Y-90263235D01*
X386265581Y-90285129D01*
X386268892Y-90307456D01*
X386270000Y-90330000D01*
X386270000Y-91020000D01*
X386268892Y-91042544D01*
X386265581Y-91064871D01*
X386260096Y-91086765D01*
X386252492Y-91108017D01*
X386242842Y-91128421D01*
X386231238Y-91147781D01*
X386217792Y-91165910D01*
X386202635Y-91182635D01*
X386185910Y-91197792D01*
X386167781Y-91211238D01*
X386148421Y-91222842D01*
X386128017Y-91232492D01*
X386106765Y-91240096D01*
X386084871Y-91245581D01*
X386062544Y-91248892D01*
X386040000Y-91250000D01*
X384850000Y-91250000D01*
X384827456Y-91248892D01*
X384805129Y-91245581D01*
X384783235Y-91240096D01*
X384761983Y-91232492D01*
X384741579Y-91222842D01*
X384722219Y-91211238D01*
X384704090Y-91197792D01*
X384687365Y-91182635D01*
X384672208Y-91165910D01*
X384658762Y-91147781D01*
X384647158Y-91128421D01*
X384637508Y-91108017D01*
X384629904Y-91086765D01*
X384624419Y-91064871D01*
X384621108Y-91042544D01*
X384620000Y-91020000D01*
X384620000Y-90330000D01*
X384621108Y-90307456D01*
X384624419Y-90285129D01*
X384629904Y-90263235D01*
X384637508Y-90241983D01*
X384647158Y-90221579D01*
X384658762Y-90202219D01*
X384672208Y-90184090D01*
X384687365Y-90167365D01*
X384704090Y-90152208D01*
X384722219Y-90138762D01*
X384741579Y-90127158D01*
X384761983Y-90117508D01*
X384783235Y-90109904D01*
X384805129Y-90104419D01*
X384827456Y-90101108D01*
X384850000Y-90100000D01*
X386040000Y-90100000D01*
X386062544Y-90101108D01*
G37*
G36*
X390507544Y-92901108D02*
G01*
X390529871Y-92904419D01*
X390551765Y-92909904D01*
X390573017Y-92917508D01*
X390593421Y-92927158D01*
X390612781Y-92938762D01*
X390630910Y-92952208D01*
X390647635Y-92967365D01*
X390662792Y-92984090D01*
X390676238Y-93002219D01*
X390687842Y-93021579D01*
X390697492Y-93041983D01*
X390705096Y-93063235D01*
X390710581Y-93085129D01*
X390713892Y-93107456D01*
X390715000Y-93130000D01*
X390715000Y-93820000D01*
X390713892Y-93842544D01*
X390710581Y-93864871D01*
X390705096Y-93886765D01*
X390697492Y-93908017D01*
X390687842Y-93928421D01*
X390676238Y-93947781D01*
X390662792Y-93965910D01*
X390647635Y-93982635D01*
X390630910Y-93997792D01*
X390612781Y-94011238D01*
X390593421Y-94022842D01*
X390573017Y-94032492D01*
X390551765Y-94040096D01*
X390529871Y-94045581D01*
X390507544Y-94048892D01*
X390485000Y-94050000D01*
X389295000Y-94050000D01*
X389272456Y-94048892D01*
X389250129Y-94045581D01*
X389228235Y-94040096D01*
X389206983Y-94032492D01*
X389186579Y-94022842D01*
X389167219Y-94011238D01*
X389149090Y-93997792D01*
X389132365Y-93982635D01*
X389117208Y-93965910D01*
X389103762Y-93947781D01*
X389092158Y-93928421D01*
X389082508Y-93908017D01*
X389074904Y-93886765D01*
X389069419Y-93864871D01*
X389066108Y-93842544D01*
X389065000Y-93820000D01*
X389065000Y-93130000D01*
X389066108Y-93107456D01*
X389069419Y-93085129D01*
X389074904Y-93063235D01*
X389082508Y-93041983D01*
X389092158Y-93021579D01*
X389103762Y-93002219D01*
X389117208Y-92984090D01*
X389132365Y-92967365D01*
X389149090Y-92952208D01*
X389167219Y-92938762D01*
X389186579Y-92927158D01*
X389206983Y-92917508D01*
X389228235Y-92909904D01*
X389250129Y-92904419D01*
X389272456Y-92901108D01*
X389295000Y-92900000D01*
X390485000Y-92900000D01*
X390507544Y-92901108D01*
G37*
G36*
X390507544Y-90101108D02*
G01*
X390529871Y-90104419D01*
X390551765Y-90109904D01*
X390573017Y-90117508D01*
X390593421Y-90127158D01*
X390612781Y-90138762D01*
X390630910Y-90152208D01*
X390647635Y-90167365D01*
X390662792Y-90184090D01*
X390676238Y-90202219D01*
X390687842Y-90221579D01*
X390697492Y-90241983D01*
X390705096Y-90263235D01*
X390710581Y-90285129D01*
X390713892Y-90307456D01*
X390715000Y-90330000D01*
X390715000Y-91020000D01*
X390713892Y-91042544D01*
X390710581Y-91064871D01*
X390705096Y-91086765D01*
X390697492Y-91108017D01*
X390687842Y-91128421D01*
X390676238Y-91147781D01*
X390662792Y-91165910D01*
X390647635Y-91182635D01*
X390630910Y-91197792D01*
X390612781Y-91211238D01*
X390593421Y-91222842D01*
X390573017Y-91232492D01*
X390551765Y-91240096D01*
X390529871Y-91245581D01*
X390507544Y-91248892D01*
X390485000Y-91250000D01*
X389295000Y-91250000D01*
X389272456Y-91248892D01*
X389250129Y-91245581D01*
X389228235Y-91240096D01*
X389206983Y-91232492D01*
X389186579Y-91222842D01*
X389167219Y-91211238D01*
X389149090Y-91197792D01*
X389132365Y-91182635D01*
X389117208Y-91165910D01*
X389103762Y-91147781D01*
X389092158Y-91128421D01*
X389082508Y-91108017D01*
X389074904Y-91086765D01*
X389069419Y-91064871D01*
X389066108Y-91042544D01*
X389065000Y-91020000D01*
X389065000Y-90330000D01*
X389066108Y-90307456D01*
X389069419Y-90285129D01*
X389074904Y-90263235D01*
X389082508Y-90241983D01*
X389092158Y-90221579D01*
X389103762Y-90202219D01*
X389117208Y-90184090D01*
X389132365Y-90167365D01*
X389149090Y-90152208D01*
X389167219Y-90138762D01*
X389186579Y-90127158D01*
X389206983Y-90117508D01*
X389228235Y-90109904D01*
X389250129Y-90104419D01*
X389272456Y-90101108D01*
X389295000Y-90100000D01*
X390485000Y-90100000D01*
X390507544Y-90101108D01*
G37*
G36*
X394952544Y-92901108D02*
G01*
X394974871Y-92904419D01*
X394996765Y-92909904D01*
X395018017Y-92917508D01*
X395038421Y-92927158D01*
X395057781Y-92938762D01*
X395075910Y-92952208D01*
X395092635Y-92967365D01*
X395107792Y-92984090D01*
X395121238Y-93002219D01*
X395132842Y-93021579D01*
X395142492Y-93041983D01*
X395150096Y-93063235D01*
X395155581Y-93085129D01*
X395158892Y-93107456D01*
X395160000Y-93130000D01*
X395160000Y-93820000D01*
X395158892Y-93842544D01*
X395155581Y-93864871D01*
X395150096Y-93886765D01*
X395142492Y-93908017D01*
X395132842Y-93928421D01*
X395121238Y-93947781D01*
X395107792Y-93965910D01*
X395092635Y-93982635D01*
X395075910Y-93997792D01*
X395057781Y-94011238D01*
X395038421Y-94022842D01*
X395018017Y-94032492D01*
X394996765Y-94040096D01*
X394974871Y-94045581D01*
X394952544Y-94048892D01*
X394930000Y-94050000D01*
X393740000Y-94050000D01*
X393717456Y-94048892D01*
X393695129Y-94045581D01*
X393673235Y-94040096D01*
X393651983Y-94032492D01*
X393631579Y-94022842D01*
X393612219Y-94011238D01*
X393594090Y-93997792D01*
X393577365Y-93982635D01*
X393562208Y-93965910D01*
X393548762Y-93947781D01*
X393537158Y-93928421D01*
X393527508Y-93908017D01*
X393519904Y-93886765D01*
X393514419Y-93864871D01*
X393511108Y-93842544D01*
X393510000Y-93820000D01*
X393510000Y-93130000D01*
X393511108Y-93107456D01*
X393514419Y-93085129D01*
X393519904Y-93063235D01*
X393527508Y-93041983D01*
X393537158Y-93021579D01*
X393548762Y-93002219D01*
X393562208Y-92984090D01*
X393577365Y-92967365D01*
X393594090Y-92952208D01*
X393612219Y-92938762D01*
X393631579Y-92927158D01*
X393651983Y-92917508D01*
X393673235Y-92909904D01*
X393695129Y-92904419D01*
X393717456Y-92901108D01*
X393740000Y-92900000D01*
X394930000Y-92900000D01*
X394952544Y-92901108D01*
G37*
G36*
X394952544Y-90101108D02*
G01*
X394974871Y-90104419D01*
X394996765Y-90109904D01*
X395018017Y-90117508D01*
X395038421Y-90127158D01*
X395057781Y-90138762D01*
X395075910Y-90152208D01*
X395092635Y-90167365D01*
X395107792Y-90184090D01*
X395121238Y-90202219D01*
X395132842Y-90221579D01*
X395142492Y-90241983D01*
X395150096Y-90263235D01*
X395155581Y-90285129D01*
X395158892Y-90307456D01*
X395160000Y-90330000D01*
X395160000Y-91020000D01*
X395158892Y-91042544D01*
X395155581Y-91064871D01*
X395150096Y-91086765D01*
X395142492Y-91108017D01*
X395132842Y-91128421D01*
X395121238Y-91147781D01*
X395107792Y-91165910D01*
X395092635Y-91182635D01*
X395075910Y-91197792D01*
X395057781Y-91211238D01*
X395038421Y-91222842D01*
X395018017Y-91232492D01*
X394996765Y-91240096D01*
X394974871Y-91245581D01*
X394952544Y-91248892D01*
X394930000Y-91250000D01*
X393740000Y-91250000D01*
X393717456Y-91248892D01*
X393695129Y-91245581D01*
X393673235Y-91240096D01*
X393651983Y-91232492D01*
X393631579Y-91222842D01*
X393612219Y-91211238D01*
X393594090Y-91197792D01*
X393577365Y-91182635D01*
X393562208Y-91165910D01*
X393548762Y-91147781D01*
X393537158Y-91128421D01*
X393527508Y-91108017D01*
X393519904Y-91086765D01*
X393514419Y-91064871D01*
X393511108Y-91042544D01*
X393510000Y-91020000D01*
X393510000Y-90330000D01*
X393511108Y-90307456D01*
X393514419Y-90285129D01*
X393519904Y-90263235D01*
X393527508Y-90241983D01*
X393537158Y-90221579D01*
X393548762Y-90202219D01*
X393562208Y-90184090D01*
X393577365Y-90167365D01*
X393594090Y-90152208D01*
X393612219Y-90138762D01*
X393631579Y-90127158D01*
X393651983Y-90117508D01*
X393673235Y-90109904D01*
X393695129Y-90104419D01*
X393717456Y-90101108D01*
X393740000Y-90100000D01*
X394930000Y-90100000D01*
X394952544Y-90101108D01*
G37*
G36*
X399397544Y-92901108D02*
G01*
X399419871Y-92904419D01*
X399441765Y-92909904D01*
X399463017Y-92917508D01*
X399483421Y-92927158D01*
X399502781Y-92938762D01*
X399520910Y-92952208D01*
X399537635Y-92967365D01*
X399552792Y-92984090D01*
X399566238Y-93002219D01*
X399577842Y-93021579D01*
X399587492Y-93041983D01*
X399595096Y-93063235D01*
X399600581Y-93085129D01*
X399603892Y-93107456D01*
X399605000Y-93130000D01*
X399605000Y-93820000D01*
X399603892Y-93842544D01*
X399600581Y-93864871D01*
X399595096Y-93886765D01*
X399587492Y-93908017D01*
X399577842Y-93928421D01*
X399566238Y-93947781D01*
X399552792Y-93965910D01*
X399537635Y-93982635D01*
X399520910Y-93997792D01*
X399502781Y-94011238D01*
X399483421Y-94022842D01*
X399463017Y-94032492D01*
X399441765Y-94040096D01*
X399419871Y-94045581D01*
X399397544Y-94048892D01*
X399375000Y-94050000D01*
X398185000Y-94050000D01*
X398162456Y-94048892D01*
X398140129Y-94045581D01*
X398118235Y-94040096D01*
X398096983Y-94032492D01*
X398076579Y-94022842D01*
X398057219Y-94011238D01*
X398039090Y-93997792D01*
X398022365Y-93982635D01*
X398007208Y-93965910D01*
X397993762Y-93947781D01*
X397982158Y-93928421D01*
X397972508Y-93908017D01*
X397964904Y-93886765D01*
X397959419Y-93864871D01*
X397956108Y-93842544D01*
X397955000Y-93820000D01*
X397955000Y-93130000D01*
X397956108Y-93107456D01*
X397959419Y-93085129D01*
X397964904Y-93063235D01*
X397972508Y-93041983D01*
X397982158Y-93021579D01*
X397993762Y-93002219D01*
X398007208Y-92984090D01*
X398022365Y-92967365D01*
X398039090Y-92952208D01*
X398057219Y-92938762D01*
X398076579Y-92927158D01*
X398096983Y-92917508D01*
X398118235Y-92909904D01*
X398140129Y-92904419D01*
X398162456Y-92901108D01*
X398185000Y-92900000D01*
X399375000Y-92900000D01*
X399397544Y-92901108D01*
G37*
G36*
X399397544Y-90101108D02*
G01*
X399419871Y-90104419D01*
X399441765Y-90109904D01*
X399463017Y-90117508D01*
X399483421Y-90127158D01*
X399502781Y-90138762D01*
X399520910Y-90152208D01*
X399537635Y-90167365D01*
X399552792Y-90184090D01*
X399566238Y-90202219D01*
X399577842Y-90221579D01*
X399587492Y-90241983D01*
X399595096Y-90263235D01*
X399600581Y-90285129D01*
X399603892Y-90307456D01*
X399605000Y-90330000D01*
X399605000Y-91020000D01*
X399603892Y-91042544D01*
X399600581Y-91064871D01*
X399595096Y-91086765D01*
X399587492Y-91108017D01*
X399577842Y-91128421D01*
X399566238Y-91147781D01*
X399552792Y-91165910D01*
X399537635Y-91182635D01*
X399520910Y-91197792D01*
X399502781Y-91211238D01*
X399483421Y-91222842D01*
X399463017Y-91232492D01*
X399441765Y-91240096D01*
X399419871Y-91245581D01*
X399397544Y-91248892D01*
X399375000Y-91250000D01*
X398185000Y-91250000D01*
X398162456Y-91248892D01*
X398140129Y-91245581D01*
X398118235Y-91240096D01*
X398096983Y-91232492D01*
X398076579Y-91222842D01*
X398057219Y-91211238D01*
X398039090Y-91197792D01*
X398022365Y-91182635D01*
X398007208Y-91165910D01*
X397993762Y-91147781D01*
X397982158Y-91128421D01*
X397972508Y-91108017D01*
X397964904Y-91086765D01*
X397959419Y-91064871D01*
X397956108Y-91042544D01*
X397955000Y-91020000D01*
X397955000Y-90330000D01*
X397956108Y-90307456D01*
X397959419Y-90285129D01*
X397964904Y-90263235D01*
X397972508Y-90241983D01*
X397982158Y-90221579D01*
X397993762Y-90202219D01*
X398007208Y-90184090D01*
X398022365Y-90167365D01*
X398039090Y-90152208D01*
X398057219Y-90138762D01*
X398076579Y-90127158D01*
X398096983Y-90117508D01*
X398118235Y-90109904D01*
X398140129Y-90104419D01*
X398162456Y-90101108D01*
X398185000Y-90100000D01*
X399375000Y-90100000D01*
X399397544Y-90101108D01*
G37*
G36*
X403842544Y-92901108D02*
G01*
X403864871Y-92904419D01*
X403886765Y-92909904D01*
X403908017Y-92917508D01*
X403928421Y-92927158D01*
X403947781Y-92938762D01*
X403965910Y-92952208D01*
X403982635Y-92967365D01*
X403997792Y-92984090D01*
X404011238Y-93002219D01*
X404022842Y-93021579D01*
X404032492Y-93041983D01*
X404040096Y-93063235D01*
X404045581Y-93085129D01*
X404048892Y-93107456D01*
X404050000Y-93130000D01*
X404050000Y-93820000D01*
X404048892Y-93842544D01*
X404045581Y-93864871D01*
X404040096Y-93886765D01*
X404032492Y-93908017D01*
X404022842Y-93928421D01*
X404011238Y-93947781D01*
X403997792Y-93965910D01*
X403982635Y-93982635D01*
X403965910Y-93997792D01*
X403947781Y-94011238D01*
X403928421Y-94022842D01*
X403908017Y-94032492D01*
X403886765Y-94040096D01*
X403864871Y-94045581D01*
X403842544Y-94048892D01*
X403820000Y-94050000D01*
X402630000Y-94050000D01*
X402607456Y-94048892D01*
X402585129Y-94045581D01*
X402563235Y-94040096D01*
X402541983Y-94032492D01*
X402521579Y-94022842D01*
X402502219Y-94011238D01*
X402484090Y-93997792D01*
X402467365Y-93982635D01*
X402452208Y-93965910D01*
X402438762Y-93947781D01*
X402427158Y-93928421D01*
X402417508Y-93908017D01*
X402409904Y-93886765D01*
X402404419Y-93864871D01*
X402401108Y-93842544D01*
X402400000Y-93820000D01*
X402400000Y-93130000D01*
X402401108Y-93107456D01*
X402404419Y-93085129D01*
X402409904Y-93063235D01*
X402417508Y-93041983D01*
X402427158Y-93021579D01*
X402438762Y-93002219D01*
X402452208Y-92984090D01*
X402467365Y-92967365D01*
X402484090Y-92952208D01*
X402502219Y-92938762D01*
X402521579Y-92927158D01*
X402541983Y-92917508D01*
X402563235Y-92909904D01*
X402585129Y-92904419D01*
X402607456Y-92901108D01*
X402630000Y-92900000D01*
X403820000Y-92900000D01*
X403842544Y-92901108D01*
G37*
G36*
X403842544Y-90101108D02*
G01*
X403864871Y-90104419D01*
X403886765Y-90109904D01*
X403908017Y-90117508D01*
X403928421Y-90127158D01*
X403947781Y-90138762D01*
X403965910Y-90152208D01*
X403982635Y-90167365D01*
X403997792Y-90184090D01*
X404011238Y-90202219D01*
X404022842Y-90221579D01*
X404032492Y-90241983D01*
X404040096Y-90263235D01*
X404045581Y-90285129D01*
X404048892Y-90307456D01*
X404050000Y-90330000D01*
X404050000Y-91020000D01*
X404048892Y-91042544D01*
X404045581Y-91064871D01*
X404040096Y-91086765D01*
X404032492Y-91108017D01*
X404022842Y-91128421D01*
X404011238Y-91147781D01*
X403997792Y-91165910D01*
X403982635Y-91182635D01*
X403965910Y-91197792D01*
X403947781Y-91211238D01*
X403928421Y-91222842D01*
X403908017Y-91232492D01*
X403886765Y-91240096D01*
X403864871Y-91245581D01*
X403842544Y-91248892D01*
X403820000Y-91250000D01*
X402630000Y-91250000D01*
X402607456Y-91248892D01*
X402585129Y-91245581D01*
X402563235Y-91240096D01*
X402541983Y-91232492D01*
X402521579Y-91222842D01*
X402502219Y-91211238D01*
X402484090Y-91197792D01*
X402467365Y-91182635D01*
X402452208Y-91165910D01*
X402438762Y-91147781D01*
X402427158Y-91128421D01*
X402417508Y-91108017D01*
X402409904Y-91086765D01*
X402404419Y-91064871D01*
X402401108Y-91042544D01*
X402400000Y-91020000D01*
X402400000Y-90330000D01*
X402401108Y-90307456D01*
X402404419Y-90285129D01*
X402409904Y-90263235D01*
X402417508Y-90241983D01*
X402427158Y-90221579D01*
X402438762Y-90202219D01*
X402452208Y-90184090D01*
X402467365Y-90167365D01*
X402484090Y-90152208D01*
X402502219Y-90138762D01*
X402521579Y-90127158D01*
X402541983Y-90117508D01*
X402563235Y-90109904D01*
X402585129Y-90104419D01*
X402607456Y-90101108D01*
X402630000Y-90100000D01*
X403820000Y-90100000D01*
X403842544Y-90101108D01*
G37*
G36*
X408287544Y-92901108D02*
G01*
X408309871Y-92904419D01*
X408331765Y-92909904D01*
X408353017Y-92917508D01*
X408373421Y-92927158D01*
X408392781Y-92938762D01*
X408410910Y-92952208D01*
X408427635Y-92967365D01*
X408442792Y-92984090D01*
X408456238Y-93002219D01*
X408467842Y-93021579D01*
X408477492Y-93041983D01*
X408485096Y-93063235D01*
X408490581Y-93085129D01*
X408493892Y-93107456D01*
X408495000Y-93130000D01*
X408495000Y-93820000D01*
X408493892Y-93842544D01*
X408490581Y-93864871D01*
X408485096Y-93886765D01*
X408477492Y-93908017D01*
X408467842Y-93928421D01*
X408456238Y-93947781D01*
X408442792Y-93965910D01*
X408427635Y-93982635D01*
X408410910Y-93997792D01*
X408392781Y-94011238D01*
X408373421Y-94022842D01*
X408353017Y-94032492D01*
X408331765Y-94040096D01*
X408309871Y-94045581D01*
X408287544Y-94048892D01*
X408265000Y-94050000D01*
X407075000Y-94050000D01*
X407052456Y-94048892D01*
X407030129Y-94045581D01*
X407008235Y-94040096D01*
X406986983Y-94032492D01*
X406966579Y-94022842D01*
X406947219Y-94011238D01*
X406929090Y-93997792D01*
X406912365Y-93982635D01*
X406897208Y-93965910D01*
X406883762Y-93947781D01*
X406872158Y-93928421D01*
X406862508Y-93908017D01*
X406854904Y-93886765D01*
X406849419Y-93864871D01*
X406846108Y-93842544D01*
X406845000Y-93820000D01*
X406845000Y-93130000D01*
X406846108Y-93107456D01*
X406849419Y-93085129D01*
X406854904Y-93063235D01*
X406862508Y-93041983D01*
X406872158Y-93021579D01*
X406883762Y-93002219D01*
X406897208Y-92984090D01*
X406912365Y-92967365D01*
X406929090Y-92952208D01*
X406947219Y-92938762D01*
X406966579Y-92927158D01*
X406986983Y-92917508D01*
X407008235Y-92909904D01*
X407030129Y-92904419D01*
X407052456Y-92901108D01*
X407075000Y-92900000D01*
X408265000Y-92900000D01*
X408287544Y-92901108D01*
G37*
G36*
X408287544Y-90101108D02*
G01*
X408309871Y-90104419D01*
X408331765Y-90109904D01*
X408353017Y-90117508D01*
X408373421Y-90127158D01*
X408392781Y-90138762D01*
X408410910Y-90152208D01*
X408427635Y-90167365D01*
X408442792Y-90184090D01*
X408456238Y-90202219D01*
X408467842Y-90221579D01*
X408477492Y-90241983D01*
X408485096Y-90263235D01*
X408490581Y-90285129D01*
X408493892Y-90307456D01*
X408495000Y-90330000D01*
X408495000Y-91020000D01*
X408493892Y-91042544D01*
X408490581Y-91064871D01*
X408485096Y-91086765D01*
X408477492Y-91108017D01*
X408467842Y-91128421D01*
X408456238Y-91147781D01*
X408442792Y-91165910D01*
X408427635Y-91182635D01*
X408410910Y-91197792D01*
X408392781Y-91211238D01*
X408373421Y-91222842D01*
X408353017Y-91232492D01*
X408331765Y-91240096D01*
X408309871Y-91245581D01*
X408287544Y-91248892D01*
X408265000Y-91250000D01*
X407075000Y-91250000D01*
X407052456Y-91248892D01*
X407030129Y-91245581D01*
X407008235Y-91240096D01*
X406986983Y-91232492D01*
X406966579Y-91222842D01*
X406947219Y-91211238D01*
X406929090Y-91197792D01*
X406912365Y-91182635D01*
X406897208Y-91165910D01*
X406883762Y-91147781D01*
X406872158Y-91128421D01*
X406862508Y-91108017D01*
X406854904Y-91086765D01*
X406849419Y-91064871D01*
X406846108Y-91042544D01*
X406845000Y-91020000D01*
X406845000Y-90330000D01*
X406846108Y-90307456D01*
X406849419Y-90285129D01*
X406854904Y-90263235D01*
X406862508Y-90241983D01*
X406872158Y-90221579D01*
X406883762Y-90202219D01*
X406897208Y-90184090D01*
X406912365Y-90167365D01*
X406929090Y-90152208D01*
X406947219Y-90138762D01*
X406966579Y-90127158D01*
X406986983Y-90117508D01*
X407008235Y-90109904D01*
X407030129Y-90104419D01*
X407052456Y-90101108D01*
X407075000Y-90100000D01*
X408265000Y-90100000D01*
X408287544Y-90101108D01*
G37*
G36*
X412732544Y-92901108D02*
G01*
X412754871Y-92904419D01*
X412776765Y-92909904D01*
X412798017Y-92917508D01*
X412818421Y-92927158D01*
X412837781Y-92938762D01*
X412855910Y-92952208D01*
X412872635Y-92967365D01*
X412887792Y-92984090D01*
X412901238Y-93002219D01*
X412912842Y-93021579D01*
X412922492Y-93041983D01*
X412930096Y-93063235D01*
X412935581Y-93085129D01*
X412938892Y-93107456D01*
X412940000Y-93130000D01*
X412940000Y-93820000D01*
X412938892Y-93842544D01*
X412935581Y-93864871D01*
X412930096Y-93886765D01*
X412922492Y-93908017D01*
X412912842Y-93928421D01*
X412901238Y-93947781D01*
X412887792Y-93965910D01*
X412872635Y-93982635D01*
X412855910Y-93997792D01*
X412837781Y-94011238D01*
X412818421Y-94022842D01*
X412798017Y-94032492D01*
X412776765Y-94040096D01*
X412754871Y-94045581D01*
X412732544Y-94048892D01*
X412710000Y-94050000D01*
X411520000Y-94050000D01*
X411497456Y-94048892D01*
X411475129Y-94045581D01*
X411453235Y-94040096D01*
X411431983Y-94032492D01*
X411411579Y-94022842D01*
X411392219Y-94011238D01*
X411374090Y-93997792D01*
X411357365Y-93982635D01*
X411342208Y-93965910D01*
X411328762Y-93947781D01*
X411317158Y-93928421D01*
X411307508Y-93908017D01*
X411299904Y-93886765D01*
X411294419Y-93864871D01*
X411291108Y-93842544D01*
X411290000Y-93820000D01*
X411290000Y-93130000D01*
X411291108Y-93107456D01*
X411294419Y-93085129D01*
X411299904Y-93063235D01*
X411307508Y-93041983D01*
X411317158Y-93021579D01*
X411328762Y-93002219D01*
X411342208Y-92984090D01*
X411357365Y-92967365D01*
X411374090Y-92952208D01*
X411392219Y-92938762D01*
X411411579Y-92927158D01*
X411431983Y-92917508D01*
X411453235Y-92909904D01*
X411475129Y-92904419D01*
X411497456Y-92901108D01*
X411520000Y-92900000D01*
X412710000Y-92900000D01*
X412732544Y-92901108D01*
G37*
G36*
X412732544Y-90101108D02*
G01*
X412754871Y-90104419D01*
X412776765Y-90109904D01*
X412798017Y-90117508D01*
X412818421Y-90127158D01*
X412837781Y-90138762D01*
X412855910Y-90152208D01*
X412872635Y-90167365D01*
X412887792Y-90184090D01*
X412901238Y-90202219D01*
X412912842Y-90221579D01*
X412922492Y-90241983D01*
X412930096Y-90263235D01*
X412935581Y-90285129D01*
X412938892Y-90307456D01*
X412940000Y-90330000D01*
X412940000Y-91020000D01*
X412938892Y-91042544D01*
X412935581Y-91064871D01*
X412930096Y-91086765D01*
X412922492Y-91108017D01*
X412912842Y-91128421D01*
X412901238Y-91147781D01*
X412887792Y-91165910D01*
X412872635Y-91182635D01*
X412855910Y-91197792D01*
X412837781Y-91211238D01*
X412818421Y-91222842D01*
X412798017Y-91232492D01*
X412776765Y-91240096D01*
X412754871Y-91245581D01*
X412732544Y-91248892D01*
X412710000Y-91250000D01*
X411520000Y-91250000D01*
X411497456Y-91248892D01*
X411475129Y-91245581D01*
X411453235Y-91240096D01*
X411431983Y-91232492D01*
X411411579Y-91222842D01*
X411392219Y-91211238D01*
X411374090Y-91197792D01*
X411357365Y-91182635D01*
X411342208Y-91165910D01*
X411328762Y-91147781D01*
X411317158Y-91128421D01*
X411307508Y-91108017D01*
X411299904Y-91086765D01*
X411294419Y-91064871D01*
X411291108Y-91042544D01*
X411290000Y-91020000D01*
X411290000Y-90330000D01*
X411291108Y-90307456D01*
X411294419Y-90285129D01*
X411299904Y-90263235D01*
X411307508Y-90241983D01*
X411317158Y-90221579D01*
X411328762Y-90202219D01*
X411342208Y-90184090D01*
X411357365Y-90167365D01*
X411374090Y-90152208D01*
X411392219Y-90138762D01*
X411411579Y-90127158D01*
X411431983Y-90117508D01*
X411453235Y-90109904D01*
X411475129Y-90104419D01*
X411497456Y-90101108D01*
X411520000Y-90100000D01*
X412710000Y-90100000D01*
X412732544Y-90101108D01*
G37*
G36*
X417177544Y-92901108D02*
G01*
X417199871Y-92904419D01*
X417221765Y-92909904D01*
X417243017Y-92917508D01*
X417263421Y-92927158D01*
X417282781Y-92938762D01*
X417300910Y-92952208D01*
X417317635Y-92967365D01*
X417332792Y-92984090D01*
X417346238Y-93002219D01*
X417357842Y-93021579D01*
X417367492Y-93041983D01*
X417375096Y-93063235D01*
X417380581Y-93085129D01*
X417383892Y-93107456D01*
X417385000Y-93130000D01*
X417385000Y-93820000D01*
X417383892Y-93842544D01*
X417380581Y-93864871D01*
X417375096Y-93886765D01*
X417367492Y-93908017D01*
X417357842Y-93928421D01*
X417346238Y-93947781D01*
X417332792Y-93965910D01*
X417317635Y-93982635D01*
X417300910Y-93997792D01*
X417282781Y-94011238D01*
X417263421Y-94022842D01*
X417243017Y-94032492D01*
X417221765Y-94040096D01*
X417199871Y-94045581D01*
X417177544Y-94048892D01*
X417155000Y-94050000D01*
X415965000Y-94050000D01*
X415942456Y-94048892D01*
X415920129Y-94045581D01*
X415898235Y-94040096D01*
X415876983Y-94032492D01*
X415856579Y-94022842D01*
X415837219Y-94011238D01*
X415819090Y-93997792D01*
X415802365Y-93982635D01*
X415787208Y-93965910D01*
X415773762Y-93947781D01*
X415762158Y-93928421D01*
X415752508Y-93908017D01*
X415744904Y-93886765D01*
X415739419Y-93864871D01*
X415736108Y-93842544D01*
X415735000Y-93820000D01*
X415735000Y-93130000D01*
X415736108Y-93107456D01*
X415739419Y-93085129D01*
X415744904Y-93063235D01*
X415752508Y-93041983D01*
X415762158Y-93021579D01*
X415773762Y-93002219D01*
X415787208Y-92984090D01*
X415802365Y-92967365D01*
X415819090Y-92952208D01*
X415837219Y-92938762D01*
X415856579Y-92927158D01*
X415876983Y-92917508D01*
X415898235Y-92909904D01*
X415920129Y-92904419D01*
X415942456Y-92901108D01*
X415965000Y-92900000D01*
X417155000Y-92900000D01*
X417177544Y-92901108D01*
G37*
G36*
X417177544Y-90101108D02*
G01*
X417199871Y-90104419D01*
X417221765Y-90109904D01*
X417243017Y-90117508D01*
X417263421Y-90127158D01*
X417282781Y-90138762D01*
X417300910Y-90152208D01*
X417317635Y-90167365D01*
X417332792Y-90184090D01*
X417346238Y-90202219D01*
X417357842Y-90221579D01*
X417367492Y-90241983D01*
X417375096Y-90263235D01*
X417380581Y-90285129D01*
X417383892Y-90307456D01*
X417385000Y-90330000D01*
X417385000Y-91020000D01*
X417383892Y-91042544D01*
X417380581Y-91064871D01*
X417375096Y-91086765D01*
X417367492Y-91108017D01*
X417357842Y-91128421D01*
X417346238Y-91147781D01*
X417332792Y-91165910D01*
X417317635Y-91182635D01*
X417300910Y-91197792D01*
X417282781Y-91211238D01*
X417263421Y-91222842D01*
X417243017Y-91232492D01*
X417221765Y-91240096D01*
X417199871Y-91245581D01*
X417177544Y-91248892D01*
X417155000Y-91250000D01*
X415965000Y-91250000D01*
X415942456Y-91248892D01*
X415920129Y-91245581D01*
X415898235Y-91240096D01*
X415876983Y-91232492D01*
X415856579Y-91222842D01*
X415837219Y-91211238D01*
X415819090Y-91197792D01*
X415802365Y-91182635D01*
X415787208Y-91165910D01*
X415773762Y-91147781D01*
X415762158Y-91128421D01*
X415752508Y-91108017D01*
X415744904Y-91086765D01*
X415739419Y-91064871D01*
X415736108Y-91042544D01*
X415735000Y-91020000D01*
X415735000Y-90330000D01*
X415736108Y-90307456D01*
X415739419Y-90285129D01*
X415744904Y-90263235D01*
X415752508Y-90241983D01*
X415762158Y-90221579D01*
X415773762Y-90202219D01*
X415787208Y-90184090D01*
X415802365Y-90167365D01*
X415819090Y-90152208D01*
X415837219Y-90138762D01*
X415856579Y-90127158D01*
X415876983Y-90117508D01*
X415898235Y-90109904D01*
X415920129Y-90104419D01*
X415942456Y-90101108D01*
X415965000Y-90100000D01*
X417155000Y-90100000D01*
X417177544Y-90101108D01*
G37*
G36*
X421622544Y-92901108D02*
G01*
X421644871Y-92904419D01*
X421666765Y-92909904D01*
X421688017Y-92917508D01*
X421708421Y-92927158D01*
X421727781Y-92938762D01*
X421745910Y-92952208D01*
X421762635Y-92967365D01*
X421777792Y-92984090D01*
X421791238Y-93002219D01*
X421802842Y-93021579D01*
X421812492Y-93041983D01*
X421820096Y-93063235D01*
X421825581Y-93085129D01*
X421828892Y-93107456D01*
X421830000Y-93130000D01*
X421830000Y-93820000D01*
X421828892Y-93842544D01*
X421825581Y-93864871D01*
X421820096Y-93886765D01*
X421812492Y-93908017D01*
X421802842Y-93928421D01*
X421791238Y-93947781D01*
X421777792Y-93965910D01*
X421762635Y-93982635D01*
X421745910Y-93997792D01*
X421727781Y-94011238D01*
X421708421Y-94022842D01*
X421688017Y-94032492D01*
X421666765Y-94040096D01*
X421644871Y-94045581D01*
X421622544Y-94048892D01*
X421600000Y-94050000D01*
X420410000Y-94050000D01*
X420387456Y-94048892D01*
X420365129Y-94045581D01*
X420343235Y-94040096D01*
X420321983Y-94032492D01*
X420301579Y-94022842D01*
X420282219Y-94011238D01*
X420264090Y-93997792D01*
X420247365Y-93982635D01*
X420232208Y-93965910D01*
X420218762Y-93947781D01*
X420207158Y-93928421D01*
X420197508Y-93908017D01*
X420189904Y-93886765D01*
X420184419Y-93864871D01*
X420181108Y-93842544D01*
X420180000Y-93820000D01*
X420180000Y-93130000D01*
X420181108Y-93107456D01*
X420184419Y-93085129D01*
X420189904Y-93063235D01*
X420197508Y-93041983D01*
X420207158Y-93021579D01*
X420218762Y-93002219D01*
X420232208Y-92984090D01*
X420247365Y-92967365D01*
X420264090Y-92952208D01*
X420282219Y-92938762D01*
X420301579Y-92927158D01*
X420321983Y-92917508D01*
X420343235Y-92909904D01*
X420365129Y-92904419D01*
X420387456Y-92901108D01*
X420410000Y-92900000D01*
X421600000Y-92900000D01*
X421622544Y-92901108D01*
G37*
G36*
X421622544Y-90101108D02*
G01*
X421644871Y-90104419D01*
X421666765Y-90109904D01*
X421688017Y-90117508D01*
X421708421Y-90127158D01*
X421727781Y-90138762D01*
X421745910Y-90152208D01*
X421762635Y-90167365D01*
X421777792Y-90184090D01*
X421791238Y-90202219D01*
X421802842Y-90221579D01*
X421812492Y-90241983D01*
X421820096Y-90263235D01*
X421825581Y-90285129D01*
X421828892Y-90307456D01*
X421830000Y-90330000D01*
X421830000Y-91020000D01*
X421828892Y-91042544D01*
X421825581Y-91064871D01*
X421820096Y-91086765D01*
X421812492Y-91108017D01*
X421802842Y-91128421D01*
X421791238Y-91147781D01*
X421777792Y-91165910D01*
X421762635Y-91182635D01*
X421745910Y-91197792D01*
X421727781Y-91211238D01*
X421708421Y-91222842D01*
X421688017Y-91232492D01*
X421666765Y-91240096D01*
X421644871Y-91245581D01*
X421622544Y-91248892D01*
X421600000Y-91250000D01*
X420410000Y-91250000D01*
X420387456Y-91248892D01*
X420365129Y-91245581D01*
X420343235Y-91240096D01*
X420321983Y-91232492D01*
X420301579Y-91222842D01*
X420282219Y-91211238D01*
X420264090Y-91197792D01*
X420247365Y-91182635D01*
X420232208Y-91165910D01*
X420218762Y-91147781D01*
X420207158Y-91128421D01*
X420197508Y-91108017D01*
X420189904Y-91086765D01*
X420184419Y-91064871D01*
X420181108Y-91042544D01*
X420180000Y-91020000D01*
X420180000Y-90330000D01*
X420181108Y-90307456D01*
X420184419Y-90285129D01*
X420189904Y-90263235D01*
X420197508Y-90241983D01*
X420207158Y-90221579D01*
X420218762Y-90202219D01*
X420232208Y-90184090D01*
X420247365Y-90167365D01*
X420264090Y-90152208D01*
X420282219Y-90138762D01*
X420301579Y-90127158D01*
X420321983Y-90117508D01*
X420343235Y-90109904D01*
X420365129Y-90104419D01*
X420387456Y-90101108D01*
X420410000Y-90100000D01*
X421600000Y-90100000D01*
X421622544Y-90101108D01*
G37*
G36*
X426067544Y-92901108D02*
G01*
X426089871Y-92904419D01*
X426111765Y-92909904D01*
X426133017Y-92917508D01*
X426153421Y-92927158D01*
X426172781Y-92938762D01*
X426190910Y-92952208D01*
X426207635Y-92967365D01*
X426222792Y-92984090D01*
X426236238Y-93002219D01*
X426247842Y-93021579D01*
X426257492Y-93041983D01*
X426265096Y-93063235D01*
X426270581Y-93085129D01*
X426273892Y-93107456D01*
X426275000Y-93130000D01*
X426275000Y-93820000D01*
X426273892Y-93842544D01*
X426270581Y-93864871D01*
X426265096Y-93886765D01*
X426257492Y-93908017D01*
X426247842Y-93928421D01*
X426236238Y-93947781D01*
X426222792Y-93965910D01*
X426207635Y-93982635D01*
X426190910Y-93997792D01*
X426172781Y-94011238D01*
X426153421Y-94022842D01*
X426133017Y-94032492D01*
X426111765Y-94040096D01*
X426089871Y-94045581D01*
X426067544Y-94048892D01*
X426045000Y-94050000D01*
X424855000Y-94050000D01*
X424832456Y-94048892D01*
X424810129Y-94045581D01*
X424788235Y-94040096D01*
X424766983Y-94032492D01*
X424746579Y-94022842D01*
X424727219Y-94011238D01*
X424709090Y-93997792D01*
X424692365Y-93982635D01*
X424677208Y-93965910D01*
X424663762Y-93947781D01*
X424652158Y-93928421D01*
X424642508Y-93908017D01*
X424634904Y-93886765D01*
X424629419Y-93864871D01*
X424626108Y-93842544D01*
X424625000Y-93820000D01*
X424625000Y-93130000D01*
X424626108Y-93107456D01*
X424629419Y-93085129D01*
X424634904Y-93063235D01*
X424642508Y-93041983D01*
X424652158Y-93021579D01*
X424663762Y-93002219D01*
X424677208Y-92984090D01*
X424692365Y-92967365D01*
X424709090Y-92952208D01*
X424727219Y-92938762D01*
X424746579Y-92927158D01*
X424766983Y-92917508D01*
X424788235Y-92909904D01*
X424810129Y-92904419D01*
X424832456Y-92901108D01*
X424855000Y-92900000D01*
X426045000Y-92900000D01*
X426067544Y-92901108D01*
G37*
G36*
X426067544Y-90101108D02*
G01*
X426089871Y-90104419D01*
X426111765Y-90109904D01*
X426133017Y-90117508D01*
X426153421Y-90127158D01*
X426172781Y-90138762D01*
X426190910Y-90152208D01*
X426207635Y-90167365D01*
X426222792Y-90184090D01*
X426236238Y-90202219D01*
X426247842Y-90221579D01*
X426257492Y-90241983D01*
X426265096Y-90263235D01*
X426270581Y-90285129D01*
X426273892Y-90307456D01*
X426275000Y-90330000D01*
X426275000Y-91020000D01*
X426273892Y-91042544D01*
X426270581Y-91064871D01*
X426265096Y-91086765D01*
X426257492Y-91108017D01*
X426247842Y-91128421D01*
X426236238Y-91147781D01*
X426222792Y-91165910D01*
X426207635Y-91182635D01*
X426190910Y-91197792D01*
X426172781Y-91211238D01*
X426153421Y-91222842D01*
X426133017Y-91232492D01*
X426111765Y-91240096D01*
X426089871Y-91245581D01*
X426067544Y-91248892D01*
X426045000Y-91250000D01*
X424855000Y-91250000D01*
X424832456Y-91248892D01*
X424810129Y-91245581D01*
X424788235Y-91240096D01*
X424766983Y-91232492D01*
X424746579Y-91222842D01*
X424727219Y-91211238D01*
X424709090Y-91197792D01*
X424692365Y-91182635D01*
X424677208Y-91165910D01*
X424663762Y-91147781D01*
X424652158Y-91128421D01*
X424642508Y-91108017D01*
X424634904Y-91086765D01*
X424629419Y-91064871D01*
X424626108Y-91042544D01*
X424625000Y-91020000D01*
X424625000Y-90330000D01*
X424626108Y-90307456D01*
X424629419Y-90285129D01*
X424634904Y-90263235D01*
X424642508Y-90241983D01*
X424652158Y-90221579D01*
X424663762Y-90202219D01*
X424677208Y-90184090D01*
X424692365Y-90167365D01*
X424709090Y-90152208D01*
X424727219Y-90138762D01*
X424746579Y-90127158D01*
X424766983Y-90117508D01*
X424788235Y-90109904D01*
X424810129Y-90104419D01*
X424832456Y-90101108D01*
X424855000Y-90100000D01*
X426045000Y-90100000D01*
X426067544Y-90101108D01*
G37*
G36*
X430512544Y-92901108D02*
G01*
X430534871Y-92904419D01*
X430556765Y-92909904D01*
X430578017Y-92917508D01*
X430598421Y-92927158D01*
X430617781Y-92938762D01*
X430635910Y-92952208D01*
X430652635Y-92967365D01*
X430667792Y-92984090D01*
X430681238Y-93002219D01*
X430692842Y-93021579D01*
X430702492Y-93041983D01*
X430710096Y-93063235D01*
X430715581Y-93085129D01*
X430718892Y-93107456D01*
X430720000Y-93130000D01*
X430720000Y-93820000D01*
X430718892Y-93842544D01*
X430715581Y-93864871D01*
X430710096Y-93886765D01*
X430702492Y-93908017D01*
X430692842Y-93928421D01*
X430681238Y-93947781D01*
X430667792Y-93965910D01*
X430652635Y-93982635D01*
X430635910Y-93997792D01*
X430617781Y-94011238D01*
X430598421Y-94022842D01*
X430578017Y-94032492D01*
X430556765Y-94040096D01*
X430534871Y-94045581D01*
X430512544Y-94048892D01*
X430490000Y-94050000D01*
X429300000Y-94050000D01*
X429277456Y-94048892D01*
X429255129Y-94045581D01*
X429233235Y-94040096D01*
X429211983Y-94032492D01*
X429191579Y-94022842D01*
X429172219Y-94011238D01*
X429154090Y-93997792D01*
X429137365Y-93982635D01*
X429122208Y-93965910D01*
X429108762Y-93947781D01*
X429097158Y-93928421D01*
X429087508Y-93908017D01*
X429079904Y-93886765D01*
X429074419Y-93864871D01*
X429071108Y-93842544D01*
X429070000Y-93820000D01*
X429070000Y-93130000D01*
X429071108Y-93107456D01*
X429074419Y-93085129D01*
X429079904Y-93063235D01*
X429087508Y-93041983D01*
X429097158Y-93021579D01*
X429108762Y-93002219D01*
X429122208Y-92984090D01*
X429137365Y-92967365D01*
X429154090Y-92952208D01*
X429172219Y-92938762D01*
X429191579Y-92927158D01*
X429211983Y-92917508D01*
X429233235Y-92909904D01*
X429255129Y-92904419D01*
X429277456Y-92901108D01*
X429300000Y-92900000D01*
X430490000Y-92900000D01*
X430512544Y-92901108D01*
G37*
G36*
X430512544Y-90101108D02*
G01*
X430534871Y-90104419D01*
X430556765Y-90109904D01*
X430578017Y-90117508D01*
X430598421Y-90127158D01*
X430617781Y-90138762D01*
X430635910Y-90152208D01*
X430652635Y-90167365D01*
X430667792Y-90184090D01*
X430681238Y-90202219D01*
X430692842Y-90221579D01*
X430702492Y-90241983D01*
X430710096Y-90263235D01*
X430715581Y-90285129D01*
X430718892Y-90307456D01*
X430720000Y-90330000D01*
X430720000Y-91020000D01*
X430718892Y-91042544D01*
X430715581Y-91064871D01*
X430710096Y-91086765D01*
X430702492Y-91108017D01*
X430692842Y-91128421D01*
X430681238Y-91147781D01*
X430667792Y-91165910D01*
X430652635Y-91182635D01*
X430635910Y-91197792D01*
X430617781Y-91211238D01*
X430598421Y-91222842D01*
X430578017Y-91232492D01*
X430556765Y-91240096D01*
X430534871Y-91245581D01*
X430512544Y-91248892D01*
X430490000Y-91250000D01*
X429300000Y-91250000D01*
X429277456Y-91248892D01*
X429255129Y-91245581D01*
X429233235Y-91240096D01*
X429211983Y-91232492D01*
X429191579Y-91222842D01*
X429172219Y-91211238D01*
X429154090Y-91197792D01*
X429137365Y-91182635D01*
X429122208Y-91165910D01*
X429108762Y-91147781D01*
X429097158Y-91128421D01*
X429087508Y-91108017D01*
X429079904Y-91086765D01*
X429074419Y-91064871D01*
X429071108Y-91042544D01*
X429070000Y-91020000D01*
X429070000Y-90330000D01*
X429071108Y-90307456D01*
X429074419Y-90285129D01*
X429079904Y-90263235D01*
X429087508Y-90241983D01*
X429097158Y-90221579D01*
X429108762Y-90202219D01*
X429122208Y-90184090D01*
X429137365Y-90167365D01*
X429154090Y-90152208D01*
X429172219Y-90138762D01*
X429191579Y-90127158D01*
X429211983Y-90117508D01*
X429233235Y-90109904D01*
X429255129Y-90104419D01*
X429277456Y-90101108D01*
X429300000Y-90100000D01*
X430490000Y-90100000D01*
X430512544Y-90101108D01*
G37*
G36*
X361932544Y-114491108D02*
G01*
X361954871Y-114494419D01*
X361976765Y-114499904D01*
X361998017Y-114507508D01*
X362018421Y-114517158D01*
X362037781Y-114528762D01*
X362055910Y-114542208D01*
X362072635Y-114557365D01*
X362087792Y-114574090D01*
X362101238Y-114592219D01*
X362112842Y-114611579D01*
X362122492Y-114631983D01*
X362130096Y-114653235D01*
X362135581Y-114675129D01*
X362138892Y-114697456D01*
X362140000Y-114720000D01*
X362140000Y-115410000D01*
X362138892Y-115432544D01*
X362135581Y-115454871D01*
X362130096Y-115476765D01*
X362122492Y-115498017D01*
X362112842Y-115518421D01*
X362101238Y-115537781D01*
X362087792Y-115555910D01*
X362072635Y-115572635D01*
X362055910Y-115587792D01*
X362037781Y-115601238D01*
X362018421Y-115612842D01*
X361998017Y-115622492D01*
X361976765Y-115630096D01*
X361954871Y-115635581D01*
X361932544Y-115638892D01*
X361910000Y-115640000D01*
X360720000Y-115640000D01*
X360697456Y-115638892D01*
X360675129Y-115635581D01*
X360653235Y-115630096D01*
X360631983Y-115622492D01*
X360611579Y-115612842D01*
X360592219Y-115601238D01*
X360574090Y-115587792D01*
X360557365Y-115572635D01*
X360542208Y-115555910D01*
X360528762Y-115537781D01*
X360517158Y-115518421D01*
X360507508Y-115498017D01*
X360499904Y-115476765D01*
X360494419Y-115454871D01*
X360491108Y-115432544D01*
X360490000Y-115410000D01*
X360490000Y-114720000D01*
X360491108Y-114697456D01*
X360494419Y-114675129D01*
X360499904Y-114653235D01*
X360507508Y-114631983D01*
X360517158Y-114611579D01*
X360528762Y-114592219D01*
X360542208Y-114574090D01*
X360557365Y-114557365D01*
X360574090Y-114542208D01*
X360592219Y-114528762D01*
X360611579Y-114517158D01*
X360631983Y-114507508D01*
X360653235Y-114499904D01*
X360675129Y-114494419D01*
X360697456Y-114491108D01*
X360720000Y-114490000D01*
X361910000Y-114490000D01*
X361932544Y-114491108D01*
G37*
G36*
X361932544Y-111691108D02*
G01*
X361954871Y-111694419D01*
X361976765Y-111699904D01*
X361998017Y-111707508D01*
X362018421Y-111717158D01*
X362037781Y-111728762D01*
X362055910Y-111742208D01*
X362072635Y-111757365D01*
X362087792Y-111774090D01*
X362101238Y-111792219D01*
X362112842Y-111811579D01*
X362122492Y-111831983D01*
X362130096Y-111853235D01*
X362135581Y-111875129D01*
X362138892Y-111897456D01*
X362140000Y-111920000D01*
X362140000Y-112610000D01*
X362138892Y-112632544D01*
X362135581Y-112654871D01*
X362130096Y-112676765D01*
X362122492Y-112698017D01*
X362112842Y-112718421D01*
X362101238Y-112737781D01*
X362087792Y-112755910D01*
X362072635Y-112772635D01*
X362055910Y-112787792D01*
X362037781Y-112801238D01*
X362018421Y-112812842D01*
X361998017Y-112822492D01*
X361976765Y-112830096D01*
X361954871Y-112835581D01*
X361932544Y-112838892D01*
X361910000Y-112840000D01*
X360720000Y-112840000D01*
X360697456Y-112838892D01*
X360675129Y-112835581D01*
X360653235Y-112830096D01*
X360631983Y-112822492D01*
X360611579Y-112812842D01*
X360592219Y-112801238D01*
X360574090Y-112787792D01*
X360557365Y-112772635D01*
X360542208Y-112755910D01*
X360528762Y-112737781D01*
X360517158Y-112718421D01*
X360507508Y-112698017D01*
X360499904Y-112676765D01*
X360494419Y-112654871D01*
X360491108Y-112632544D01*
X360490000Y-112610000D01*
X360490000Y-111920000D01*
X360491108Y-111897456D01*
X360494419Y-111875129D01*
X360499904Y-111853235D01*
X360507508Y-111831983D01*
X360517158Y-111811579D01*
X360528762Y-111792219D01*
X360542208Y-111774090D01*
X360557365Y-111757365D01*
X360574090Y-111742208D01*
X360592219Y-111728762D01*
X360611579Y-111717158D01*
X360631983Y-111707508D01*
X360653235Y-111699904D01*
X360675129Y-111694419D01*
X360697456Y-111691108D01*
X360720000Y-111690000D01*
X361910000Y-111690000D01*
X361932544Y-111691108D01*
G37*
G36*
X361932544Y-104331108D02*
G01*
X361954871Y-104334419D01*
X361976765Y-104339904D01*
X361998017Y-104347508D01*
X362018421Y-104357158D01*
X362037781Y-104368762D01*
X362055910Y-104382208D01*
X362072635Y-104397365D01*
X362087792Y-104414090D01*
X362101238Y-104432219D01*
X362112842Y-104451579D01*
X362122492Y-104471983D01*
X362130096Y-104493235D01*
X362135581Y-104515129D01*
X362138892Y-104537456D01*
X362140000Y-104560000D01*
X362140000Y-105250000D01*
X362138892Y-105272544D01*
X362135581Y-105294871D01*
X362130096Y-105316765D01*
X362122492Y-105338017D01*
X362112842Y-105358421D01*
X362101238Y-105377781D01*
X362087792Y-105395910D01*
X362072635Y-105412635D01*
X362055910Y-105427792D01*
X362037781Y-105441238D01*
X362018421Y-105452842D01*
X361998017Y-105462492D01*
X361976765Y-105470096D01*
X361954871Y-105475581D01*
X361932544Y-105478892D01*
X361910000Y-105480000D01*
X360720000Y-105480000D01*
X360697456Y-105478892D01*
X360675129Y-105475581D01*
X360653235Y-105470096D01*
X360631983Y-105462492D01*
X360611579Y-105452842D01*
X360592219Y-105441238D01*
X360574090Y-105427792D01*
X360557365Y-105412635D01*
X360542208Y-105395910D01*
X360528762Y-105377781D01*
X360517158Y-105358421D01*
X360507508Y-105338017D01*
X360499904Y-105316765D01*
X360494419Y-105294871D01*
X360491108Y-105272544D01*
X360490000Y-105250000D01*
X360490000Y-104560000D01*
X360491108Y-104537456D01*
X360494419Y-104515129D01*
X360499904Y-104493235D01*
X360507508Y-104471983D01*
X360517158Y-104451579D01*
X360528762Y-104432219D01*
X360542208Y-104414090D01*
X360557365Y-104397365D01*
X360574090Y-104382208D01*
X360592219Y-104368762D01*
X360611579Y-104357158D01*
X360631983Y-104347508D01*
X360653235Y-104339904D01*
X360675129Y-104334419D01*
X360697456Y-104331108D01*
X360720000Y-104330000D01*
X361910000Y-104330000D01*
X361932544Y-104331108D01*
G37*
G36*
X361932544Y-101531108D02*
G01*
X361954871Y-101534419D01*
X361976765Y-101539904D01*
X361998017Y-101547508D01*
X362018421Y-101557158D01*
X362037781Y-101568762D01*
X362055910Y-101582208D01*
X362072635Y-101597365D01*
X362087792Y-101614090D01*
X362101238Y-101632219D01*
X362112842Y-101651579D01*
X362122492Y-101671983D01*
X362130096Y-101693235D01*
X362135581Y-101715129D01*
X362138892Y-101737456D01*
X362140000Y-101760000D01*
X362140000Y-102450000D01*
X362138892Y-102472544D01*
X362135581Y-102494871D01*
X362130096Y-102516765D01*
X362122492Y-102538017D01*
X362112842Y-102558421D01*
X362101238Y-102577781D01*
X362087792Y-102595910D01*
X362072635Y-102612635D01*
X362055910Y-102627792D01*
X362037781Y-102641238D01*
X362018421Y-102652842D01*
X361998017Y-102662492D01*
X361976765Y-102670096D01*
X361954871Y-102675581D01*
X361932544Y-102678892D01*
X361910000Y-102680000D01*
X360720000Y-102680000D01*
X360697456Y-102678892D01*
X360675129Y-102675581D01*
X360653235Y-102670096D01*
X360631983Y-102662492D01*
X360611579Y-102652842D01*
X360592219Y-102641238D01*
X360574090Y-102627792D01*
X360557365Y-102612635D01*
X360542208Y-102595910D01*
X360528762Y-102577781D01*
X360517158Y-102558421D01*
X360507508Y-102538017D01*
X360499904Y-102516765D01*
X360494419Y-102494871D01*
X360491108Y-102472544D01*
X360490000Y-102450000D01*
X360490000Y-101760000D01*
X360491108Y-101737456D01*
X360494419Y-101715129D01*
X360499904Y-101693235D01*
X360507508Y-101671983D01*
X360517158Y-101651579D01*
X360528762Y-101632219D01*
X360542208Y-101614090D01*
X360557365Y-101597365D01*
X360574090Y-101582208D01*
X360592219Y-101568762D01*
X360611579Y-101557158D01*
X360631983Y-101547508D01*
X360653235Y-101539904D01*
X360675129Y-101534419D01*
X360697456Y-101531108D01*
X360720000Y-101530000D01*
X361910000Y-101530000D01*
X361932544Y-101531108D01*
G37*
G36*
X368282544Y-109411108D02*
G01*
X368304871Y-109414419D01*
X368326765Y-109419904D01*
X368348017Y-109427508D01*
X368368421Y-109437158D01*
X368387781Y-109448762D01*
X368405910Y-109462208D01*
X368422635Y-109477365D01*
X368437792Y-109494090D01*
X368451238Y-109512219D01*
X368462842Y-109531579D01*
X368472492Y-109551983D01*
X368480096Y-109573235D01*
X368485581Y-109595129D01*
X368488892Y-109617456D01*
X368490000Y-109640000D01*
X368490000Y-110330000D01*
X368488892Y-110352544D01*
X368485581Y-110374871D01*
X368480096Y-110396765D01*
X368472492Y-110418017D01*
X368462842Y-110438421D01*
X368451238Y-110457781D01*
X368437792Y-110475910D01*
X368422635Y-110492635D01*
X368405910Y-110507792D01*
X368387781Y-110521238D01*
X368368421Y-110532842D01*
X368348017Y-110542492D01*
X368326765Y-110550096D01*
X368304871Y-110555581D01*
X368282544Y-110558892D01*
X368260000Y-110560000D01*
X367070000Y-110560000D01*
X367047456Y-110558892D01*
X367025129Y-110555581D01*
X367003235Y-110550096D01*
X366981983Y-110542492D01*
X366961579Y-110532842D01*
X366942219Y-110521238D01*
X366924090Y-110507792D01*
X366907365Y-110492635D01*
X366892208Y-110475910D01*
X366878762Y-110457781D01*
X366867158Y-110438421D01*
X366857508Y-110418017D01*
X366849904Y-110396765D01*
X366844419Y-110374871D01*
X366841108Y-110352544D01*
X366840000Y-110330000D01*
X366840000Y-109640000D01*
X366841108Y-109617456D01*
X366844419Y-109595129D01*
X366849904Y-109573235D01*
X366857508Y-109551983D01*
X366867158Y-109531579D01*
X366878762Y-109512219D01*
X366892208Y-109494090D01*
X366907365Y-109477365D01*
X366924090Y-109462208D01*
X366942219Y-109448762D01*
X366961579Y-109437158D01*
X366981983Y-109427508D01*
X367003235Y-109419904D01*
X367025129Y-109414419D01*
X367047456Y-109411108D01*
X367070000Y-109410000D01*
X368260000Y-109410000D01*
X368282544Y-109411108D01*
G37*
G36*
X368282544Y-106611108D02*
G01*
X368304871Y-106614419D01*
X368326765Y-106619904D01*
X368348017Y-106627508D01*
X368368421Y-106637158D01*
X368387781Y-106648762D01*
X368405910Y-106662208D01*
X368422635Y-106677365D01*
X368437792Y-106694090D01*
X368451238Y-106712219D01*
X368462842Y-106731579D01*
X368472492Y-106751983D01*
X368480096Y-106773235D01*
X368485581Y-106795129D01*
X368488892Y-106817456D01*
X368490000Y-106840000D01*
X368490000Y-107530000D01*
X368488892Y-107552544D01*
X368485581Y-107574871D01*
X368480096Y-107596765D01*
X368472492Y-107618017D01*
X368462842Y-107638421D01*
X368451238Y-107657781D01*
X368437792Y-107675910D01*
X368422635Y-107692635D01*
X368405910Y-107707792D01*
X368387781Y-107721238D01*
X368368421Y-107732842D01*
X368348017Y-107742492D01*
X368326765Y-107750096D01*
X368304871Y-107755581D01*
X368282544Y-107758892D01*
X368260000Y-107760000D01*
X367070000Y-107760000D01*
X367047456Y-107758892D01*
X367025129Y-107755581D01*
X367003235Y-107750096D01*
X366981983Y-107742492D01*
X366961579Y-107732842D01*
X366942219Y-107721238D01*
X366924090Y-107707792D01*
X366907365Y-107692635D01*
X366892208Y-107675910D01*
X366878762Y-107657781D01*
X366867158Y-107638421D01*
X366857508Y-107618017D01*
X366849904Y-107596765D01*
X366844419Y-107574871D01*
X366841108Y-107552544D01*
X366840000Y-107530000D01*
X366840000Y-106840000D01*
X366841108Y-106817456D01*
X366844419Y-106795129D01*
X366849904Y-106773235D01*
X366857508Y-106751983D01*
X366867158Y-106731579D01*
X366878762Y-106712219D01*
X366892208Y-106694090D01*
X366907365Y-106677365D01*
X366924090Y-106662208D01*
X366942219Y-106648762D01*
X366961579Y-106637158D01*
X366981983Y-106627508D01*
X367003235Y-106619904D01*
X367025129Y-106614419D01*
X367047456Y-106611108D01*
X367070000Y-106610000D01*
X368260000Y-106610000D01*
X368282544Y-106611108D01*
G37*
G36*
X372727544Y-109411108D02*
G01*
X372749871Y-109414419D01*
X372771765Y-109419904D01*
X372793017Y-109427508D01*
X372813421Y-109437158D01*
X372832781Y-109448762D01*
X372850910Y-109462208D01*
X372867635Y-109477365D01*
X372882792Y-109494090D01*
X372896238Y-109512219D01*
X372907842Y-109531579D01*
X372917492Y-109551983D01*
X372925096Y-109573235D01*
X372930581Y-109595129D01*
X372933892Y-109617456D01*
X372935000Y-109640000D01*
X372935000Y-110330000D01*
X372933892Y-110352544D01*
X372930581Y-110374871D01*
X372925096Y-110396765D01*
X372917492Y-110418017D01*
X372907842Y-110438421D01*
X372896238Y-110457781D01*
X372882792Y-110475910D01*
X372867635Y-110492635D01*
X372850910Y-110507792D01*
X372832781Y-110521238D01*
X372813421Y-110532842D01*
X372793017Y-110542492D01*
X372771765Y-110550096D01*
X372749871Y-110555581D01*
X372727544Y-110558892D01*
X372705000Y-110560000D01*
X371515000Y-110560000D01*
X371492456Y-110558892D01*
X371470129Y-110555581D01*
X371448235Y-110550096D01*
X371426983Y-110542492D01*
X371406579Y-110532842D01*
X371387219Y-110521238D01*
X371369090Y-110507792D01*
X371352365Y-110492635D01*
X371337208Y-110475910D01*
X371323762Y-110457781D01*
X371312158Y-110438421D01*
X371302508Y-110418017D01*
X371294904Y-110396765D01*
X371289419Y-110374871D01*
X371286108Y-110352544D01*
X371285000Y-110330000D01*
X371285000Y-109640000D01*
X371286108Y-109617456D01*
X371289419Y-109595129D01*
X371294904Y-109573235D01*
X371302508Y-109551983D01*
X371312158Y-109531579D01*
X371323762Y-109512219D01*
X371337208Y-109494090D01*
X371352365Y-109477365D01*
X371369090Y-109462208D01*
X371387219Y-109448762D01*
X371406579Y-109437158D01*
X371426983Y-109427508D01*
X371448235Y-109419904D01*
X371470129Y-109414419D01*
X371492456Y-109411108D01*
X371515000Y-109410000D01*
X372705000Y-109410000D01*
X372727544Y-109411108D01*
G37*
G36*
X372727544Y-106611108D02*
G01*
X372749871Y-106614419D01*
X372771765Y-106619904D01*
X372793017Y-106627508D01*
X372813421Y-106637158D01*
X372832781Y-106648762D01*
X372850910Y-106662208D01*
X372867635Y-106677365D01*
X372882792Y-106694090D01*
X372896238Y-106712219D01*
X372907842Y-106731579D01*
X372917492Y-106751983D01*
X372925096Y-106773235D01*
X372930581Y-106795129D01*
X372933892Y-106817456D01*
X372935000Y-106840000D01*
X372935000Y-107530000D01*
X372933892Y-107552544D01*
X372930581Y-107574871D01*
X372925096Y-107596765D01*
X372917492Y-107618017D01*
X372907842Y-107638421D01*
X372896238Y-107657781D01*
X372882792Y-107675910D01*
X372867635Y-107692635D01*
X372850910Y-107707792D01*
X372832781Y-107721238D01*
X372813421Y-107732842D01*
X372793017Y-107742492D01*
X372771765Y-107750096D01*
X372749871Y-107755581D01*
X372727544Y-107758892D01*
X372705000Y-107760000D01*
X371515000Y-107760000D01*
X371492456Y-107758892D01*
X371470129Y-107755581D01*
X371448235Y-107750096D01*
X371426983Y-107742492D01*
X371406579Y-107732842D01*
X371387219Y-107721238D01*
X371369090Y-107707792D01*
X371352365Y-107692635D01*
X371337208Y-107675910D01*
X371323762Y-107657781D01*
X371312158Y-107638421D01*
X371302508Y-107618017D01*
X371294904Y-107596765D01*
X371289419Y-107574871D01*
X371286108Y-107552544D01*
X371285000Y-107530000D01*
X371285000Y-106840000D01*
X371286108Y-106817456D01*
X371289419Y-106795129D01*
X371294904Y-106773235D01*
X371302508Y-106751983D01*
X371312158Y-106731579D01*
X371323762Y-106712219D01*
X371337208Y-106694090D01*
X371352365Y-106677365D01*
X371369090Y-106662208D01*
X371387219Y-106648762D01*
X371406579Y-106637158D01*
X371426983Y-106627508D01*
X371448235Y-106619904D01*
X371470129Y-106614419D01*
X371492456Y-106611108D01*
X371515000Y-106610000D01*
X372705000Y-106610000D01*
X372727544Y-106611108D01*
G37*
G36*
X377172544Y-109411108D02*
G01*
X377194871Y-109414419D01*
X377216765Y-109419904D01*
X377238017Y-109427508D01*
X377258421Y-109437158D01*
X377277781Y-109448762D01*
X377295910Y-109462208D01*
X377312635Y-109477365D01*
X377327792Y-109494090D01*
X377341238Y-109512219D01*
X377352842Y-109531579D01*
X377362492Y-109551983D01*
X377370096Y-109573235D01*
X377375581Y-109595129D01*
X377378892Y-109617456D01*
X377380000Y-109640000D01*
X377380000Y-110330000D01*
X377378892Y-110352544D01*
X377375581Y-110374871D01*
X377370096Y-110396765D01*
X377362492Y-110418017D01*
X377352842Y-110438421D01*
X377341238Y-110457781D01*
X377327792Y-110475910D01*
X377312635Y-110492635D01*
X377295910Y-110507792D01*
X377277781Y-110521238D01*
X377258421Y-110532842D01*
X377238017Y-110542492D01*
X377216765Y-110550096D01*
X377194871Y-110555581D01*
X377172544Y-110558892D01*
X377150000Y-110560000D01*
X375960000Y-110560000D01*
X375937456Y-110558892D01*
X375915129Y-110555581D01*
X375893235Y-110550096D01*
X375871983Y-110542492D01*
X375851579Y-110532842D01*
X375832219Y-110521238D01*
X375814090Y-110507792D01*
X375797365Y-110492635D01*
X375782208Y-110475910D01*
X375768762Y-110457781D01*
X375757158Y-110438421D01*
X375747508Y-110418017D01*
X375739904Y-110396765D01*
X375734419Y-110374871D01*
X375731108Y-110352544D01*
X375730000Y-110330000D01*
X375730000Y-109640000D01*
X375731108Y-109617456D01*
X375734419Y-109595129D01*
X375739904Y-109573235D01*
X375747508Y-109551983D01*
X375757158Y-109531579D01*
X375768762Y-109512219D01*
X375782208Y-109494090D01*
X375797365Y-109477365D01*
X375814090Y-109462208D01*
X375832219Y-109448762D01*
X375851579Y-109437158D01*
X375871983Y-109427508D01*
X375893235Y-109419904D01*
X375915129Y-109414419D01*
X375937456Y-109411108D01*
X375960000Y-109410000D01*
X377150000Y-109410000D01*
X377172544Y-109411108D01*
G37*
G36*
X377172544Y-106611108D02*
G01*
X377194871Y-106614419D01*
X377216765Y-106619904D01*
X377238017Y-106627508D01*
X377258421Y-106637158D01*
X377277781Y-106648762D01*
X377295910Y-106662208D01*
X377312635Y-106677365D01*
X377327792Y-106694090D01*
X377341238Y-106712219D01*
X377352842Y-106731579D01*
X377362492Y-106751983D01*
X377370096Y-106773235D01*
X377375581Y-106795129D01*
X377378892Y-106817456D01*
X377380000Y-106840000D01*
X377380000Y-107530000D01*
X377378892Y-107552544D01*
X377375581Y-107574871D01*
X377370096Y-107596765D01*
X377362492Y-107618017D01*
X377352842Y-107638421D01*
X377341238Y-107657781D01*
X377327792Y-107675910D01*
X377312635Y-107692635D01*
X377295910Y-107707792D01*
X377277781Y-107721238D01*
X377258421Y-107732842D01*
X377238017Y-107742492D01*
X377216765Y-107750096D01*
X377194871Y-107755581D01*
X377172544Y-107758892D01*
X377150000Y-107760000D01*
X375960000Y-107760000D01*
X375937456Y-107758892D01*
X375915129Y-107755581D01*
X375893235Y-107750096D01*
X375871983Y-107742492D01*
X375851579Y-107732842D01*
X375832219Y-107721238D01*
X375814090Y-107707792D01*
X375797365Y-107692635D01*
X375782208Y-107675910D01*
X375768762Y-107657781D01*
X375757158Y-107638421D01*
X375747508Y-107618017D01*
X375739904Y-107596765D01*
X375734419Y-107574871D01*
X375731108Y-107552544D01*
X375730000Y-107530000D01*
X375730000Y-106840000D01*
X375731108Y-106817456D01*
X375734419Y-106795129D01*
X375739904Y-106773235D01*
X375747508Y-106751983D01*
X375757158Y-106731579D01*
X375768762Y-106712219D01*
X375782208Y-106694090D01*
X375797365Y-106677365D01*
X375814090Y-106662208D01*
X375832219Y-106648762D01*
X375851579Y-106637158D01*
X375871983Y-106627508D01*
X375893235Y-106619904D01*
X375915129Y-106614419D01*
X375937456Y-106611108D01*
X375960000Y-106610000D01*
X377150000Y-106610000D01*
X377172544Y-106611108D01*
G37*
G36*
X381617544Y-109411108D02*
G01*
X381639871Y-109414419D01*
X381661765Y-109419904D01*
X381683017Y-109427508D01*
X381703421Y-109437158D01*
X381722781Y-109448762D01*
X381740910Y-109462208D01*
X381757635Y-109477365D01*
X381772792Y-109494090D01*
X381786238Y-109512219D01*
X381797842Y-109531579D01*
X381807492Y-109551983D01*
X381815096Y-109573235D01*
X381820581Y-109595129D01*
X381823892Y-109617456D01*
X381825000Y-109640000D01*
X381825000Y-110330000D01*
X381823892Y-110352544D01*
X381820581Y-110374871D01*
X381815096Y-110396765D01*
X381807492Y-110418017D01*
X381797842Y-110438421D01*
X381786238Y-110457781D01*
X381772792Y-110475910D01*
X381757635Y-110492635D01*
X381740910Y-110507792D01*
X381722781Y-110521238D01*
X381703421Y-110532842D01*
X381683017Y-110542492D01*
X381661765Y-110550096D01*
X381639871Y-110555581D01*
X381617544Y-110558892D01*
X381595000Y-110560000D01*
X380405000Y-110560000D01*
X380382456Y-110558892D01*
X380360129Y-110555581D01*
X380338235Y-110550096D01*
X380316983Y-110542492D01*
X380296579Y-110532842D01*
X380277219Y-110521238D01*
X380259090Y-110507792D01*
X380242365Y-110492635D01*
X380227208Y-110475910D01*
X380213762Y-110457781D01*
X380202158Y-110438421D01*
X380192508Y-110418017D01*
X380184904Y-110396765D01*
X380179419Y-110374871D01*
X380176108Y-110352544D01*
X380175000Y-110330000D01*
X380175000Y-109640000D01*
X380176108Y-109617456D01*
X380179419Y-109595129D01*
X380184904Y-109573235D01*
X380192508Y-109551983D01*
X380202158Y-109531579D01*
X380213762Y-109512219D01*
X380227208Y-109494090D01*
X380242365Y-109477365D01*
X380259090Y-109462208D01*
X380277219Y-109448762D01*
X380296579Y-109437158D01*
X380316983Y-109427508D01*
X380338235Y-109419904D01*
X380360129Y-109414419D01*
X380382456Y-109411108D01*
X380405000Y-109410000D01*
X381595000Y-109410000D01*
X381617544Y-109411108D01*
G37*
G36*
X381617544Y-106611108D02*
G01*
X381639871Y-106614419D01*
X381661765Y-106619904D01*
X381683017Y-106627508D01*
X381703421Y-106637158D01*
X381722781Y-106648762D01*
X381740910Y-106662208D01*
X381757635Y-106677365D01*
X381772792Y-106694090D01*
X381786238Y-106712219D01*
X381797842Y-106731579D01*
X381807492Y-106751983D01*
X381815096Y-106773235D01*
X381820581Y-106795129D01*
X381823892Y-106817456D01*
X381825000Y-106840000D01*
X381825000Y-107530000D01*
X381823892Y-107552544D01*
X381820581Y-107574871D01*
X381815096Y-107596765D01*
X381807492Y-107618017D01*
X381797842Y-107638421D01*
X381786238Y-107657781D01*
X381772792Y-107675910D01*
X381757635Y-107692635D01*
X381740910Y-107707792D01*
X381722781Y-107721238D01*
X381703421Y-107732842D01*
X381683017Y-107742492D01*
X381661765Y-107750096D01*
X381639871Y-107755581D01*
X381617544Y-107758892D01*
X381595000Y-107760000D01*
X380405000Y-107760000D01*
X380382456Y-107758892D01*
X380360129Y-107755581D01*
X380338235Y-107750096D01*
X380316983Y-107742492D01*
X380296579Y-107732842D01*
X380277219Y-107721238D01*
X380259090Y-107707792D01*
X380242365Y-107692635D01*
X380227208Y-107675910D01*
X380213762Y-107657781D01*
X380202158Y-107638421D01*
X380192508Y-107618017D01*
X380184904Y-107596765D01*
X380179419Y-107574871D01*
X380176108Y-107552544D01*
X380175000Y-107530000D01*
X380175000Y-106840000D01*
X380176108Y-106817456D01*
X380179419Y-106795129D01*
X380184904Y-106773235D01*
X380192508Y-106751983D01*
X380202158Y-106731579D01*
X380213762Y-106712219D01*
X380227208Y-106694090D01*
X380242365Y-106677365D01*
X380259090Y-106662208D01*
X380277219Y-106648762D01*
X380296579Y-106637158D01*
X380316983Y-106627508D01*
X380338235Y-106619904D01*
X380360129Y-106614419D01*
X380382456Y-106611108D01*
X380405000Y-106610000D01*
X381595000Y-106610000D01*
X381617544Y-106611108D01*
G37*
G36*
X386062544Y-109411108D02*
G01*
X386084871Y-109414419D01*
X386106765Y-109419904D01*
X386128017Y-109427508D01*
X386148421Y-109437158D01*
X386167781Y-109448762D01*
X386185910Y-109462208D01*
X386202635Y-109477365D01*
X386217792Y-109494090D01*
X386231238Y-109512219D01*
X386242842Y-109531579D01*
X386252492Y-109551983D01*
X386260096Y-109573235D01*
X386265581Y-109595129D01*
X386268892Y-109617456D01*
X386270000Y-109640000D01*
X386270000Y-110330000D01*
X386268892Y-110352544D01*
X386265581Y-110374871D01*
X386260096Y-110396765D01*
X386252492Y-110418017D01*
X386242842Y-110438421D01*
X386231238Y-110457781D01*
X386217792Y-110475910D01*
X386202635Y-110492635D01*
X386185910Y-110507792D01*
X386167781Y-110521238D01*
X386148421Y-110532842D01*
X386128017Y-110542492D01*
X386106765Y-110550096D01*
X386084871Y-110555581D01*
X386062544Y-110558892D01*
X386040000Y-110560000D01*
X384850000Y-110560000D01*
X384827456Y-110558892D01*
X384805129Y-110555581D01*
X384783235Y-110550096D01*
X384761983Y-110542492D01*
X384741579Y-110532842D01*
X384722219Y-110521238D01*
X384704090Y-110507792D01*
X384687365Y-110492635D01*
X384672208Y-110475910D01*
X384658762Y-110457781D01*
X384647158Y-110438421D01*
X384637508Y-110418017D01*
X384629904Y-110396765D01*
X384624419Y-110374871D01*
X384621108Y-110352544D01*
X384620000Y-110330000D01*
X384620000Y-109640000D01*
X384621108Y-109617456D01*
X384624419Y-109595129D01*
X384629904Y-109573235D01*
X384637508Y-109551983D01*
X384647158Y-109531579D01*
X384658762Y-109512219D01*
X384672208Y-109494090D01*
X384687365Y-109477365D01*
X384704090Y-109462208D01*
X384722219Y-109448762D01*
X384741579Y-109437158D01*
X384761983Y-109427508D01*
X384783235Y-109419904D01*
X384805129Y-109414419D01*
X384827456Y-109411108D01*
X384850000Y-109410000D01*
X386040000Y-109410000D01*
X386062544Y-109411108D01*
G37*
G36*
X386062544Y-106611108D02*
G01*
X386084871Y-106614419D01*
X386106765Y-106619904D01*
X386128017Y-106627508D01*
X386148421Y-106637158D01*
X386167781Y-106648762D01*
X386185910Y-106662208D01*
X386202635Y-106677365D01*
X386217792Y-106694090D01*
X386231238Y-106712219D01*
X386242842Y-106731579D01*
X386252492Y-106751983D01*
X386260096Y-106773235D01*
X386265581Y-106795129D01*
X386268892Y-106817456D01*
X386270000Y-106840000D01*
X386270000Y-107530000D01*
X386268892Y-107552544D01*
X386265581Y-107574871D01*
X386260096Y-107596765D01*
X386252492Y-107618017D01*
X386242842Y-107638421D01*
X386231238Y-107657781D01*
X386217792Y-107675910D01*
X386202635Y-107692635D01*
X386185910Y-107707792D01*
X386167781Y-107721238D01*
X386148421Y-107732842D01*
X386128017Y-107742492D01*
X386106765Y-107750096D01*
X386084871Y-107755581D01*
X386062544Y-107758892D01*
X386040000Y-107760000D01*
X384850000Y-107760000D01*
X384827456Y-107758892D01*
X384805129Y-107755581D01*
X384783235Y-107750096D01*
X384761983Y-107742492D01*
X384741579Y-107732842D01*
X384722219Y-107721238D01*
X384704090Y-107707792D01*
X384687365Y-107692635D01*
X384672208Y-107675910D01*
X384658762Y-107657781D01*
X384647158Y-107638421D01*
X384637508Y-107618017D01*
X384629904Y-107596765D01*
X384624419Y-107574871D01*
X384621108Y-107552544D01*
X384620000Y-107530000D01*
X384620000Y-106840000D01*
X384621108Y-106817456D01*
X384624419Y-106795129D01*
X384629904Y-106773235D01*
X384637508Y-106751983D01*
X384647158Y-106731579D01*
X384658762Y-106712219D01*
X384672208Y-106694090D01*
X384687365Y-106677365D01*
X384704090Y-106662208D01*
X384722219Y-106648762D01*
X384741579Y-106637158D01*
X384761983Y-106627508D01*
X384783235Y-106619904D01*
X384805129Y-106614419D01*
X384827456Y-106611108D01*
X384850000Y-106610000D01*
X386040000Y-106610000D01*
X386062544Y-106611108D01*
G37*
G36*
X390507544Y-109411108D02*
G01*
X390529871Y-109414419D01*
X390551765Y-109419904D01*
X390573017Y-109427508D01*
X390593421Y-109437158D01*
X390612781Y-109448762D01*
X390630910Y-109462208D01*
X390647635Y-109477365D01*
X390662792Y-109494090D01*
X390676238Y-109512219D01*
X390687842Y-109531579D01*
X390697492Y-109551983D01*
X390705096Y-109573235D01*
X390710581Y-109595129D01*
X390713892Y-109617456D01*
X390715000Y-109640000D01*
X390715000Y-110330000D01*
X390713892Y-110352544D01*
X390710581Y-110374871D01*
X390705096Y-110396765D01*
X390697492Y-110418017D01*
X390687842Y-110438421D01*
X390676238Y-110457781D01*
X390662792Y-110475910D01*
X390647635Y-110492635D01*
X390630910Y-110507792D01*
X390612781Y-110521238D01*
X390593421Y-110532842D01*
X390573017Y-110542492D01*
X390551765Y-110550096D01*
X390529871Y-110555581D01*
X390507544Y-110558892D01*
X390485000Y-110560000D01*
X389295000Y-110560000D01*
X389272456Y-110558892D01*
X389250129Y-110555581D01*
X389228235Y-110550096D01*
X389206983Y-110542492D01*
X389186579Y-110532842D01*
X389167219Y-110521238D01*
X389149090Y-110507792D01*
X389132365Y-110492635D01*
X389117208Y-110475910D01*
X389103762Y-110457781D01*
X389092158Y-110438421D01*
X389082508Y-110418017D01*
X389074904Y-110396765D01*
X389069419Y-110374871D01*
X389066108Y-110352544D01*
X389065000Y-110330000D01*
X389065000Y-109640000D01*
X389066108Y-109617456D01*
X389069419Y-109595129D01*
X389074904Y-109573235D01*
X389082508Y-109551983D01*
X389092158Y-109531579D01*
X389103762Y-109512219D01*
X389117208Y-109494090D01*
X389132365Y-109477365D01*
X389149090Y-109462208D01*
X389167219Y-109448762D01*
X389186579Y-109437158D01*
X389206983Y-109427508D01*
X389228235Y-109419904D01*
X389250129Y-109414419D01*
X389272456Y-109411108D01*
X389295000Y-109410000D01*
X390485000Y-109410000D01*
X390507544Y-109411108D01*
G37*
G36*
X390507544Y-106611108D02*
G01*
X390529871Y-106614419D01*
X390551765Y-106619904D01*
X390573017Y-106627508D01*
X390593421Y-106637158D01*
X390612781Y-106648762D01*
X390630910Y-106662208D01*
X390647635Y-106677365D01*
X390662792Y-106694090D01*
X390676238Y-106712219D01*
X390687842Y-106731579D01*
X390697492Y-106751983D01*
X390705096Y-106773235D01*
X390710581Y-106795129D01*
X390713892Y-106817456D01*
X390715000Y-106840000D01*
X390715000Y-107530000D01*
X390713892Y-107552544D01*
X390710581Y-107574871D01*
X390705096Y-107596765D01*
X390697492Y-107618017D01*
X390687842Y-107638421D01*
X390676238Y-107657781D01*
X390662792Y-107675910D01*
X390647635Y-107692635D01*
X390630910Y-107707792D01*
X390612781Y-107721238D01*
X390593421Y-107732842D01*
X390573017Y-107742492D01*
X390551765Y-107750096D01*
X390529871Y-107755581D01*
X390507544Y-107758892D01*
X390485000Y-107760000D01*
X389295000Y-107760000D01*
X389272456Y-107758892D01*
X389250129Y-107755581D01*
X389228235Y-107750096D01*
X389206983Y-107742492D01*
X389186579Y-107732842D01*
X389167219Y-107721238D01*
X389149090Y-107707792D01*
X389132365Y-107692635D01*
X389117208Y-107675910D01*
X389103762Y-107657781D01*
X389092158Y-107638421D01*
X389082508Y-107618017D01*
X389074904Y-107596765D01*
X389069419Y-107574871D01*
X389066108Y-107552544D01*
X389065000Y-107530000D01*
X389065000Y-106840000D01*
X389066108Y-106817456D01*
X389069419Y-106795129D01*
X389074904Y-106773235D01*
X389082508Y-106751983D01*
X389092158Y-106731579D01*
X389103762Y-106712219D01*
X389117208Y-106694090D01*
X389132365Y-106677365D01*
X389149090Y-106662208D01*
X389167219Y-106648762D01*
X389186579Y-106637158D01*
X389206983Y-106627508D01*
X389228235Y-106619904D01*
X389250129Y-106614419D01*
X389272456Y-106611108D01*
X389295000Y-106610000D01*
X390485000Y-106610000D01*
X390507544Y-106611108D01*
G37*
G36*
X394952544Y-109411108D02*
G01*
X394974871Y-109414419D01*
X394996765Y-109419904D01*
X395018017Y-109427508D01*
X395038421Y-109437158D01*
X395057781Y-109448762D01*
X395075910Y-109462208D01*
X395092635Y-109477365D01*
X395107792Y-109494090D01*
X395121238Y-109512219D01*
X395132842Y-109531579D01*
X395142492Y-109551983D01*
X395150096Y-109573235D01*
X395155581Y-109595129D01*
X395158892Y-109617456D01*
X395160000Y-109640000D01*
X395160000Y-110330000D01*
X395158892Y-110352544D01*
X395155581Y-110374871D01*
X395150096Y-110396765D01*
X395142492Y-110418017D01*
X395132842Y-110438421D01*
X395121238Y-110457781D01*
X395107792Y-110475910D01*
X395092635Y-110492635D01*
X395075910Y-110507792D01*
X395057781Y-110521238D01*
X395038421Y-110532842D01*
X395018017Y-110542492D01*
X394996765Y-110550096D01*
X394974871Y-110555581D01*
X394952544Y-110558892D01*
X394930000Y-110560000D01*
X393740000Y-110560000D01*
X393717456Y-110558892D01*
X393695129Y-110555581D01*
X393673235Y-110550096D01*
X393651983Y-110542492D01*
X393631579Y-110532842D01*
X393612219Y-110521238D01*
X393594090Y-110507792D01*
X393577365Y-110492635D01*
X393562208Y-110475910D01*
X393548762Y-110457781D01*
X393537158Y-110438421D01*
X393527508Y-110418017D01*
X393519904Y-110396765D01*
X393514419Y-110374871D01*
X393511108Y-110352544D01*
X393510000Y-110330000D01*
X393510000Y-109640000D01*
X393511108Y-109617456D01*
X393514419Y-109595129D01*
X393519904Y-109573235D01*
X393527508Y-109551983D01*
X393537158Y-109531579D01*
X393548762Y-109512219D01*
X393562208Y-109494090D01*
X393577365Y-109477365D01*
X393594090Y-109462208D01*
X393612219Y-109448762D01*
X393631579Y-109437158D01*
X393651983Y-109427508D01*
X393673235Y-109419904D01*
X393695129Y-109414419D01*
X393717456Y-109411108D01*
X393740000Y-109410000D01*
X394930000Y-109410000D01*
X394952544Y-109411108D01*
G37*
G36*
X394952544Y-106611108D02*
G01*
X394974871Y-106614419D01*
X394996765Y-106619904D01*
X395018017Y-106627508D01*
X395038421Y-106637158D01*
X395057781Y-106648762D01*
X395075910Y-106662208D01*
X395092635Y-106677365D01*
X395107792Y-106694090D01*
X395121238Y-106712219D01*
X395132842Y-106731579D01*
X395142492Y-106751983D01*
X395150096Y-106773235D01*
X395155581Y-106795129D01*
X395158892Y-106817456D01*
X395160000Y-106840000D01*
X395160000Y-107530000D01*
X395158892Y-107552544D01*
X395155581Y-107574871D01*
X395150096Y-107596765D01*
X395142492Y-107618017D01*
X395132842Y-107638421D01*
X395121238Y-107657781D01*
X395107792Y-107675910D01*
X395092635Y-107692635D01*
X395075910Y-107707792D01*
X395057781Y-107721238D01*
X395038421Y-107732842D01*
X395018017Y-107742492D01*
X394996765Y-107750096D01*
X394974871Y-107755581D01*
X394952544Y-107758892D01*
X394930000Y-107760000D01*
X393740000Y-107760000D01*
X393717456Y-107758892D01*
X393695129Y-107755581D01*
X393673235Y-107750096D01*
X393651983Y-107742492D01*
X393631579Y-107732842D01*
X393612219Y-107721238D01*
X393594090Y-107707792D01*
X393577365Y-107692635D01*
X393562208Y-107675910D01*
X393548762Y-107657781D01*
X393537158Y-107638421D01*
X393527508Y-107618017D01*
X393519904Y-107596765D01*
X393514419Y-107574871D01*
X393511108Y-107552544D01*
X393510000Y-107530000D01*
X393510000Y-106840000D01*
X393511108Y-106817456D01*
X393514419Y-106795129D01*
X393519904Y-106773235D01*
X393527508Y-106751983D01*
X393537158Y-106731579D01*
X393548762Y-106712219D01*
X393562208Y-106694090D01*
X393577365Y-106677365D01*
X393594090Y-106662208D01*
X393612219Y-106648762D01*
X393631579Y-106637158D01*
X393651983Y-106627508D01*
X393673235Y-106619904D01*
X393695129Y-106614419D01*
X393717456Y-106611108D01*
X393740000Y-106610000D01*
X394930000Y-106610000D01*
X394952544Y-106611108D01*
G37*
G36*
X399397544Y-109411108D02*
G01*
X399419871Y-109414419D01*
X399441765Y-109419904D01*
X399463017Y-109427508D01*
X399483421Y-109437158D01*
X399502781Y-109448762D01*
X399520910Y-109462208D01*
X399537635Y-109477365D01*
X399552792Y-109494090D01*
X399566238Y-109512219D01*
X399577842Y-109531579D01*
X399587492Y-109551983D01*
X399595096Y-109573235D01*
X399600581Y-109595129D01*
X399603892Y-109617456D01*
X399605000Y-109640000D01*
X399605000Y-110330000D01*
X399603892Y-110352544D01*
X399600581Y-110374871D01*
X399595096Y-110396765D01*
X399587492Y-110418017D01*
X399577842Y-110438421D01*
X399566238Y-110457781D01*
X399552792Y-110475910D01*
X399537635Y-110492635D01*
X399520910Y-110507792D01*
X399502781Y-110521238D01*
X399483421Y-110532842D01*
X399463017Y-110542492D01*
X399441765Y-110550096D01*
X399419871Y-110555581D01*
X399397544Y-110558892D01*
X399375000Y-110560000D01*
X398185000Y-110560000D01*
X398162456Y-110558892D01*
X398140129Y-110555581D01*
X398118235Y-110550096D01*
X398096983Y-110542492D01*
X398076579Y-110532842D01*
X398057219Y-110521238D01*
X398039090Y-110507792D01*
X398022365Y-110492635D01*
X398007208Y-110475910D01*
X397993762Y-110457781D01*
X397982158Y-110438421D01*
X397972508Y-110418017D01*
X397964904Y-110396765D01*
X397959419Y-110374871D01*
X397956108Y-110352544D01*
X397955000Y-110330000D01*
X397955000Y-109640000D01*
X397956108Y-109617456D01*
X397959419Y-109595129D01*
X397964904Y-109573235D01*
X397972508Y-109551983D01*
X397982158Y-109531579D01*
X397993762Y-109512219D01*
X398007208Y-109494090D01*
X398022365Y-109477365D01*
X398039090Y-109462208D01*
X398057219Y-109448762D01*
X398076579Y-109437158D01*
X398096983Y-109427508D01*
X398118235Y-109419904D01*
X398140129Y-109414419D01*
X398162456Y-109411108D01*
X398185000Y-109410000D01*
X399375000Y-109410000D01*
X399397544Y-109411108D01*
G37*
G36*
X399397544Y-106611108D02*
G01*
X399419871Y-106614419D01*
X399441765Y-106619904D01*
X399463017Y-106627508D01*
X399483421Y-106637158D01*
X399502781Y-106648762D01*
X399520910Y-106662208D01*
X399537635Y-106677365D01*
X399552792Y-106694090D01*
X399566238Y-106712219D01*
X399577842Y-106731579D01*
X399587492Y-106751983D01*
X399595096Y-106773235D01*
X399600581Y-106795129D01*
X399603892Y-106817456D01*
X399605000Y-106840000D01*
X399605000Y-107530000D01*
X399603892Y-107552544D01*
X399600581Y-107574871D01*
X399595096Y-107596765D01*
X399587492Y-107618017D01*
X399577842Y-107638421D01*
X399566238Y-107657781D01*
X399552792Y-107675910D01*
X399537635Y-107692635D01*
X399520910Y-107707792D01*
X399502781Y-107721238D01*
X399483421Y-107732842D01*
X399463017Y-107742492D01*
X399441765Y-107750096D01*
X399419871Y-107755581D01*
X399397544Y-107758892D01*
X399375000Y-107760000D01*
X398185000Y-107760000D01*
X398162456Y-107758892D01*
X398140129Y-107755581D01*
X398118235Y-107750096D01*
X398096983Y-107742492D01*
X398076579Y-107732842D01*
X398057219Y-107721238D01*
X398039090Y-107707792D01*
X398022365Y-107692635D01*
X398007208Y-107675910D01*
X397993762Y-107657781D01*
X397982158Y-107638421D01*
X397972508Y-107618017D01*
X397964904Y-107596765D01*
X397959419Y-107574871D01*
X397956108Y-107552544D01*
X397955000Y-107530000D01*
X397955000Y-106840000D01*
X397956108Y-106817456D01*
X397959419Y-106795129D01*
X397964904Y-106773235D01*
X397972508Y-106751983D01*
X397982158Y-106731579D01*
X397993762Y-106712219D01*
X398007208Y-106694090D01*
X398022365Y-106677365D01*
X398039090Y-106662208D01*
X398057219Y-106648762D01*
X398076579Y-106637158D01*
X398096983Y-106627508D01*
X398118235Y-106619904D01*
X398140129Y-106614419D01*
X398162456Y-106611108D01*
X398185000Y-106610000D01*
X399375000Y-106610000D01*
X399397544Y-106611108D01*
G37*
G36*
X403842544Y-109411108D02*
G01*
X403864871Y-109414419D01*
X403886765Y-109419904D01*
X403908017Y-109427508D01*
X403928421Y-109437158D01*
X403947781Y-109448762D01*
X403965910Y-109462208D01*
X403982635Y-109477365D01*
X403997792Y-109494090D01*
X404011238Y-109512219D01*
X404022842Y-109531579D01*
X404032492Y-109551983D01*
X404040096Y-109573235D01*
X404045581Y-109595129D01*
X404048892Y-109617456D01*
X404050000Y-109640000D01*
X404050000Y-110330000D01*
X404048892Y-110352544D01*
X404045581Y-110374871D01*
X404040096Y-110396765D01*
X404032492Y-110418017D01*
X404022842Y-110438421D01*
X404011238Y-110457781D01*
X403997792Y-110475910D01*
X403982635Y-110492635D01*
X403965910Y-110507792D01*
X403947781Y-110521238D01*
X403928421Y-110532842D01*
X403908017Y-110542492D01*
X403886765Y-110550096D01*
X403864871Y-110555581D01*
X403842544Y-110558892D01*
X403820000Y-110560000D01*
X402630000Y-110560000D01*
X402607456Y-110558892D01*
X402585129Y-110555581D01*
X402563235Y-110550096D01*
X402541983Y-110542492D01*
X402521579Y-110532842D01*
X402502219Y-110521238D01*
X402484090Y-110507792D01*
X402467365Y-110492635D01*
X402452208Y-110475910D01*
X402438762Y-110457781D01*
X402427158Y-110438421D01*
X402417508Y-110418017D01*
X402409904Y-110396765D01*
X402404419Y-110374871D01*
X402401108Y-110352544D01*
X402400000Y-110330000D01*
X402400000Y-109640000D01*
X402401108Y-109617456D01*
X402404419Y-109595129D01*
X402409904Y-109573235D01*
X402417508Y-109551983D01*
X402427158Y-109531579D01*
X402438762Y-109512219D01*
X402452208Y-109494090D01*
X402467365Y-109477365D01*
X402484090Y-109462208D01*
X402502219Y-109448762D01*
X402521579Y-109437158D01*
X402541983Y-109427508D01*
X402563235Y-109419904D01*
X402585129Y-109414419D01*
X402607456Y-109411108D01*
X402630000Y-109410000D01*
X403820000Y-109410000D01*
X403842544Y-109411108D01*
G37*
G36*
X403842544Y-106611108D02*
G01*
X403864871Y-106614419D01*
X403886765Y-106619904D01*
X403908017Y-106627508D01*
X403928421Y-106637158D01*
X403947781Y-106648762D01*
X403965910Y-106662208D01*
X403982635Y-106677365D01*
X403997792Y-106694090D01*
X404011238Y-106712219D01*
X404022842Y-106731579D01*
X404032492Y-106751983D01*
X404040096Y-106773235D01*
X404045581Y-106795129D01*
X404048892Y-106817456D01*
X404050000Y-106840000D01*
X404050000Y-107530000D01*
X404048892Y-107552544D01*
X404045581Y-107574871D01*
X404040096Y-107596765D01*
X404032492Y-107618017D01*
X404022842Y-107638421D01*
X404011238Y-107657781D01*
X403997792Y-107675910D01*
X403982635Y-107692635D01*
X403965910Y-107707792D01*
X403947781Y-107721238D01*
X403928421Y-107732842D01*
X403908017Y-107742492D01*
X403886765Y-107750096D01*
X403864871Y-107755581D01*
X403842544Y-107758892D01*
X403820000Y-107760000D01*
X402630000Y-107760000D01*
X402607456Y-107758892D01*
X402585129Y-107755581D01*
X402563235Y-107750096D01*
X402541983Y-107742492D01*
X402521579Y-107732842D01*
X402502219Y-107721238D01*
X402484090Y-107707792D01*
X402467365Y-107692635D01*
X402452208Y-107675910D01*
X402438762Y-107657781D01*
X402427158Y-107638421D01*
X402417508Y-107618017D01*
X402409904Y-107596765D01*
X402404419Y-107574871D01*
X402401108Y-107552544D01*
X402400000Y-107530000D01*
X402400000Y-106840000D01*
X402401108Y-106817456D01*
X402404419Y-106795129D01*
X402409904Y-106773235D01*
X402417508Y-106751983D01*
X402427158Y-106731579D01*
X402438762Y-106712219D01*
X402452208Y-106694090D01*
X402467365Y-106677365D01*
X402484090Y-106662208D01*
X402502219Y-106648762D01*
X402521579Y-106637158D01*
X402541983Y-106627508D01*
X402563235Y-106619904D01*
X402585129Y-106614419D01*
X402607456Y-106611108D01*
X402630000Y-106610000D01*
X403820000Y-106610000D01*
X403842544Y-106611108D01*
G37*
G36*
X408287544Y-109411108D02*
G01*
X408309871Y-109414419D01*
X408331765Y-109419904D01*
X408353017Y-109427508D01*
X408373421Y-109437158D01*
X408392781Y-109448762D01*
X408410910Y-109462208D01*
X408427635Y-109477365D01*
X408442792Y-109494090D01*
X408456238Y-109512219D01*
X408467842Y-109531579D01*
X408477492Y-109551983D01*
X408485096Y-109573235D01*
X408490581Y-109595129D01*
X408493892Y-109617456D01*
X408495000Y-109640000D01*
X408495000Y-110330000D01*
X408493892Y-110352544D01*
X408490581Y-110374871D01*
X408485096Y-110396765D01*
X408477492Y-110418017D01*
X408467842Y-110438421D01*
X408456238Y-110457781D01*
X408442792Y-110475910D01*
X408427635Y-110492635D01*
X408410910Y-110507792D01*
X408392781Y-110521238D01*
X408373421Y-110532842D01*
X408353017Y-110542492D01*
X408331765Y-110550096D01*
X408309871Y-110555581D01*
X408287544Y-110558892D01*
X408265000Y-110560000D01*
X407075000Y-110560000D01*
X407052456Y-110558892D01*
X407030129Y-110555581D01*
X407008235Y-110550096D01*
X406986983Y-110542492D01*
X406966579Y-110532842D01*
X406947219Y-110521238D01*
X406929090Y-110507792D01*
X406912365Y-110492635D01*
X406897208Y-110475910D01*
X406883762Y-110457781D01*
X406872158Y-110438421D01*
X406862508Y-110418017D01*
X406854904Y-110396765D01*
X406849419Y-110374871D01*
X406846108Y-110352544D01*
X406845000Y-110330000D01*
X406845000Y-109640000D01*
X406846108Y-109617456D01*
X406849419Y-109595129D01*
X406854904Y-109573235D01*
X406862508Y-109551983D01*
X406872158Y-109531579D01*
X406883762Y-109512219D01*
X406897208Y-109494090D01*
X406912365Y-109477365D01*
X406929090Y-109462208D01*
X406947219Y-109448762D01*
X406966579Y-109437158D01*
X406986983Y-109427508D01*
X407008235Y-109419904D01*
X407030129Y-109414419D01*
X407052456Y-109411108D01*
X407075000Y-109410000D01*
X408265000Y-109410000D01*
X408287544Y-109411108D01*
G37*
G36*
X408287544Y-106611108D02*
G01*
X408309871Y-106614419D01*
X408331765Y-106619904D01*
X408353017Y-106627508D01*
X408373421Y-106637158D01*
X408392781Y-106648762D01*
X408410910Y-106662208D01*
X408427635Y-106677365D01*
X408442792Y-106694090D01*
X408456238Y-106712219D01*
X408467842Y-106731579D01*
X408477492Y-106751983D01*
X408485096Y-106773235D01*
X408490581Y-106795129D01*
X408493892Y-106817456D01*
X408495000Y-106840000D01*
X408495000Y-107530000D01*
X408493892Y-107552544D01*
X408490581Y-107574871D01*
X408485096Y-107596765D01*
X408477492Y-107618017D01*
X408467842Y-107638421D01*
X408456238Y-107657781D01*
X408442792Y-107675910D01*
X408427635Y-107692635D01*
X408410910Y-107707792D01*
X408392781Y-107721238D01*
X408373421Y-107732842D01*
X408353017Y-107742492D01*
X408331765Y-107750096D01*
X408309871Y-107755581D01*
X408287544Y-107758892D01*
X408265000Y-107760000D01*
X407075000Y-107760000D01*
X407052456Y-107758892D01*
X407030129Y-107755581D01*
X407008235Y-107750096D01*
X406986983Y-107742492D01*
X406966579Y-107732842D01*
X406947219Y-107721238D01*
X406929090Y-107707792D01*
X406912365Y-107692635D01*
X406897208Y-107675910D01*
X406883762Y-107657781D01*
X406872158Y-107638421D01*
X406862508Y-107618017D01*
X406854904Y-107596765D01*
X406849419Y-107574871D01*
X406846108Y-107552544D01*
X406845000Y-107530000D01*
X406845000Y-106840000D01*
X406846108Y-106817456D01*
X406849419Y-106795129D01*
X406854904Y-106773235D01*
X406862508Y-106751983D01*
X406872158Y-106731579D01*
X406883762Y-106712219D01*
X406897208Y-106694090D01*
X406912365Y-106677365D01*
X406929090Y-106662208D01*
X406947219Y-106648762D01*
X406966579Y-106637158D01*
X406986983Y-106627508D01*
X407008235Y-106619904D01*
X407030129Y-106614419D01*
X407052456Y-106611108D01*
X407075000Y-106610000D01*
X408265000Y-106610000D01*
X408287544Y-106611108D01*
G37*
G36*
X412732544Y-109411108D02*
G01*
X412754871Y-109414419D01*
X412776765Y-109419904D01*
X412798017Y-109427508D01*
X412818421Y-109437158D01*
X412837781Y-109448762D01*
X412855910Y-109462208D01*
X412872635Y-109477365D01*
X412887792Y-109494090D01*
X412901238Y-109512219D01*
X412912842Y-109531579D01*
X412922492Y-109551983D01*
X412930096Y-109573235D01*
X412935581Y-109595129D01*
X412938892Y-109617456D01*
X412940000Y-109640000D01*
X412940000Y-110330000D01*
X412938892Y-110352544D01*
X412935581Y-110374871D01*
X412930096Y-110396765D01*
X412922492Y-110418017D01*
X412912842Y-110438421D01*
X412901238Y-110457781D01*
X412887792Y-110475910D01*
X412872635Y-110492635D01*
X412855910Y-110507792D01*
X412837781Y-110521238D01*
X412818421Y-110532842D01*
X412798017Y-110542492D01*
X412776765Y-110550096D01*
X412754871Y-110555581D01*
X412732544Y-110558892D01*
X412710000Y-110560000D01*
X411520000Y-110560000D01*
X411497456Y-110558892D01*
X411475129Y-110555581D01*
X411453235Y-110550096D01*
X411431983Y-110542492D01*
X411411579Y-110532842D01*
X411392219Y-110521238D01*
X411374090Y-110507792D01*
X411357365Y-110492635D01*
X411342208Y-110475910D01*
X411328762Y-110457781D01*
X411317158Y-110438421D01*
X411307508Y-110418017D01*
X411299904Y-110396765D01*
X411294419Y-110374871D01*
X411291108Y-110352544D01*
X411290000Y-110330000D01*
X411290000Y-109640000D01*
X411291108Y-109617456D01*
X411294419Y-109595129D01*
X411299904Y-109573235D01*
X411307508Y-109551983D01*
X411317158Y-109531579D01*
X411328762Y-109512219D01*
X411342208Y-109494090D01*
X411357365Y-109477365D01*
X411374090Y-109462208D01*
X411392219Y-109448762D01*
X411411579Y-109437158D01*
X411431983Y-109427508D01*
X411453235Y-109419904D01*
X411475129Y-109414419D01*
X411497456Y-109411108D01*
X411520000Y-109410000D01*
X412710000Y-109410000D01*
X412732544Y-109411108D01*
G37*
G36*
X412732544Y-106611108D02*
G01*
X412754871Y-106614419D01*
X412776765Y-106619904D01*
X412798017Y-106627508D01*
X412818421Y-106637158D01*
X412837781Y-106648762D01*
X412855910Y-106662208D01*
X412872635Y-106677365D01*
X412887792Y-106694090D01*
X412901238Y-106712219D01*
X412912842Y-106731579D01*
X412922492Y-106751983D01*
X412930096Y-106773235D01*
X412935581Y-106795129D01*
X412938892Y-106817456D01*
X412940000Y-106840000D01*
X412940000Y-107530000D01*
X412938892Y-107552544D01*
X412935581Y-107574871D01*
X412930096Y-107596765D01*
X412922492Y-107618017D01*
X412912842Y-107638421D01*
X412901238Y-107657781D01*
X412887792Y-107675910D01*
X412872635Y-107692635D01*
X412855910Y-107707792D01*
X412837781Y-107721238D01*
X412818421Y-107732842D01*
X412798017Y-107742492D01*
X412776765Y-107750096D01*
X412754871Y-107755581D01*
X412732544Y-107758892D01*
X412710000Y-107760000D01*
X411520000Y-107760000D01*
X411497456Y-107758892D01*
X411475129Y-107755581D01*
X411453235Y-107750096D01*
X411431983Y-107742492D01*
X411411579Y-107732842D01*
X411392219Y-107721238D01*
X411374090Y-107707792D01*
X411357365Y-107692635D01*
X411342208Y-107675910D01*
X411328762Y-107657781D01*
X411317158Y-107638421D01*
X411307508Y-107618017D01*
X411299904Y-107596765D01*
X411294419Y-107574871D01*
X411291108Y-107552544D01*
X411290000Y-107530000D01*
X411290000Y-106840000D01*
X411291108Y-106817456D01*
X411294419Y-106795129D01*
X411299904Y-106773235D01*
X411307508Y-106751983D01*
X411317158Y-106731579D01*
X411328762Y-106712219D01*
X411342208Y-106694090D01*
X411357365Y-106677365D01*
X411374090Y-106662208D01*
X411392219Y-106648762D01*
X411411579Y-106637158D01*
X411431983Y-106627508D01*
X411453235Y-106619904D01*
X411475129Y-106614419D01*
X411497456Y-106611108D01*
X411520000Y-106610000D01*
X412710000Y-106610000D01*
X412732544Y-106611108D01*
G37*
G36*
X417177544Y-109411108D02*
G01*
X417199871Y-109414419D01*
X417221765Y-109419904D01*
X417243017Y-109427508D01*
X417263421Y-109437158D01*
X417282781Y-109448762D01*
X417300910Y-109462208D01*
X417317635Y-109477365D01*
X417332792Y-109494090D01*
X417346238Y-109512219D01*
X417357842Y-109531579D01*
X417367492Y-109551983D01*
X417375096Y-109573235D01*
X417380581Y-109595129D01*
X417383892Y-109617456D01*
X417385000Y-109640000D01*
X417385000Y-110330000D01*
X417383892Y-110352544D01*
X417380581Y-110374871D01*
X417375096Y-110396765D01*
X417367492Y-110418017D01*
X417357842Y-110438421D01*
X417346238Y-110457781D01*
X417332792Y-110475910D01*
X417317635Y-110492635D01*
X417300910Y-110507792D01*
X417282781Y-110521238D01*
X417263421Y-110532842D01*
X417243017Y-110542492D01*
X417221765Y-110550096D01*
X417199871Y-110555581D01*
X417177544Y-110558892D01*
X417155000Y-110560000D01*
X415965000Y-110560000D01*
X415942456Y-110558892D01*
X415920129Y-110555581D01*
X415898235Y-110550096D01*
X415876983Y-110542492D01*
X415856579Y-110532842D01*
X415837219Y-110521238D01*
X415819090Y-110507792D01*
X415802365Y-110492635D01*
X415787208Y-110475910D01*
X415773762Y-110457781D01*
X415762158Y-110438421D01*
X415752508Y-110418017D01*
X415744904Y-110396765D01*
X415739419Y-110374871D01*
X415736108Y-110352544D01*
X415735000Y-110330000D01*
X415735000Y-109640000D01*
X415736108Y-109617456D01*
X415739419Y-109595129D01*
X415744904Y-109573235D01*
X415752508Y-109551983D01*
X415762158Y-109531579D01*
X415773762Y-109512219D01*
X415787208Y-109494090D01*
X415802365Y-109477365D01*
X415819090Y-109462208D01*
X415837219Y-109448762D01*
X415856579Y-109437158D01*
X415876983Y-109427508D01*
X415898235Y-109419904D01*
X415920129Y-109414419D01*
X415942456Y-109411108D01*
X415965000Y-109410000D01*
X417155000Y-109410000D01*
X417177544Y-109411108D01*
G37*
G36*
X417177544Y-106611108D02*
G01*
X417199871Y-106614419D01*
X417221765Y-106619904D01*
X417243017Y-106627508D01*
X417263421Y-106637158D01*
X417282781Y-106648762D01*
X417300910Y-106662208D01*
X417317635Y-106677365D01*
X417332792Y-106694090D01*
X417346238Y-106712219D01*
X417357842Y-106731579D01*
X417367492Y-106751983D01*
X417375096Y-106773235D01*
X417380581Y-106795129D01*
X417383892Y-106817456D01*
X417385000Y-106840000D01*
X417385000Y-107530000D01*
X417383892Y-107552544D01*
X417380581Y-107574871D01*
X417375096Y-107596765D01*
X417367492Y-107618017D01*
X417357842Y-107638421D01*
X417346238Y-107657781D01*
X417332792Y-107675910D01*
X417317635Y-107692635D01*
X417300910Y-107707792D01*
X417282781Y-107721238D01*
X417263421Y-107732842D01*
X417243017Y-107742492D01*
X417221765Y-107750096D01*
X417199871Y-107755581D01*
X417177544Y-107758892D01*
X417155000Y-107760000D01*
X415965000Y-107760000D01*
X415942456Y-107758892D01*
X415920129Y-107755581D01*
X415898235Y-107750096D01*
X415876983Y-107742492D01*
X415856579Y-107732842D01*
X415837219Y-107721238D01*
X415819090Y-107707792D01*
X415802365Y-107692635D01*
X415787208Y-107675910D01*
X415773762Y-107657781D01*
X415762158Y-107638421D01*
X415752508Y-107618017D01*
X415744904Y-107596765D01*
X415739419Y-107574871D01*
X415736108Y-107552544D01*
X415735000Y-107530000D01*
X415735000Y-106840000D01*
X415736108Y-106817456D01*
X415739419Y-106795129D01*
X415744904Y-106773235D01*
X415752508Y-106751983D01*
X415762158Y-106731579D01*
X415773762Y-106712219D01*
X415787208Y-106694090D01*
X415802365Y-106677365D01*
X415819090Y-106662208D01*
X415837219Y-106648762D01*
X415856579Y-106637158D01*
X415876983Y-106627508D01*
X415898235Y-106619904D01*
X415920129Y-106614419D01*
X415942456Y-106611108D01*
X415965000Y-106610000D01*
X417155000Y-106610000D01*
X417177544Y-106611108D01*
G37*
G36*
X421622544Y-109411108D02*
G01*
X421644871Y-109414419D01*
X421666765Y-109419904D01*
X421688017Y-109427508D01*
X421708421Y-109437158D01*
X421727781Y-109448762D01*
X421745910Y-109462208D01*
X421762635Y-109477365D01*
X421777792Y-109494090D01*
X421791238Y-109512219D01*
X421802842Y-109531579D01*
X421812492Y-109551983D01*
X421820096Y-109573235D01*
X421825581Y-109595129D01*
X421828892Y-109617456D01*
X421830000Y-109640000D01*
X421830000Y-110330000D01*
X421828892Y-110352544D01*
X421825581Y-110374871D01*
X421820096Y-110396765D01*
X421812492Y-110418017D01*
X421802842Y-110438421D01*
X421791238Y-110457781D01*
X421777792Y-110475910D01*
X421762635Y-110492635D01*
X421745910Y-110507792D01*
X421727781Y-110521238D01*
X421708421Y-110532842D01*
X421688017Y-110542492D01*
X421666765Y-110550096D01*
X421644871Y-110555581D01*
X421622544Y-110558892D01*
X421600000Y-110560000D01*
X420410000Y-110560000D01*
X420387456Y-110558892D01*
X420365129Y-110555581D01*
X420343235Y-110550096D01*
X420321983Y-110542492D01*
X420301579Y-110532842D01*
X420282219Y-110521238D01*
X420264090Y-110507792D01*
X420247365Y-110492635D01*
X420232208Y-110475910D01*
X420218762Y-110457781D01*
X420207158Y-110438421D01*
X420197508Y-110418017D01*
X420189904Y-110396765D01*
X420184419Y-110374871D01*
X420181108Y-110352544D01*
X420180000Y-110330000D01*
X420180000Y-109640000D01*
X420181108Y-109617456D01*
X420184419Y-109595129D01*
X420189904Y-109573235D01*
X420197508Y-109551983D01*
X420207158Y-109531579D01*
X420218762Y-109512219D01*
X420232208Y-109494090D01*
X420247365Y-109477365D01*
X420264090Y-109462208D01*
X420282219Y-109448762D01*
X420301579Y-109437158D01*
X420321983Y-109427508D01*
X420343235Y-109419904D01*
X420365129Y-109414419D01*
X420387456Y-109411108D01*
X420410000Y-109410000D01*
X421600000Y-109410000D01*
X421622544Y-109411108D01*
G37*
G36*
X421622544Y-106611108D02*
G01*
X421644871Y-106614419D01*
X421666765Y-106619904D01*
X421688017Y-106627508D01*
X421708421Y-106637158D01*
X421727781Y-106648762D01*
X421745910Y-106662208D01*
X421762635Y-106677365D01*
X421777792Y-106694090D01*
X421791238Y-106712219D01*
X421802842Y-106731579D01*
X421812492Y-106751983D01*
X421820096Y-106773235D01*
X421825581Y-106795129D01*
X421828892Y-106817456D01*
X421830000Y-106840000D01*
X421830000Y-107530000D01*
X421828892Y-107552544D01*
X421825581Y-107574871D01*
X421820096Y-107596765D01*
X421812492Y-107618017D01*
X421802842Y-107638421D01*
X421791238Y-107657781D01*
X421777792Y-107675910D01*
X421762635Y-107692635D01*
X421745910Y-107707792D01*
X421727781Y-107721238D01*
X421708421Y-107732842D01*
X421688017Y-107742492D01*
X421666765Y-107750096D01*
X421644871Y-107755581D01*
X421622544Y-107758892D01*
X421600000Y-107760000D01*
X420410000Y-107760000D01*
X420387456Y-107758892D01*
X420365129Y-107755581D01*
X420343235Y-107750096D01*
X420321983Y-107742492D01*
X420301579Y-107732842D01*
X420282219Y-107721238D01*
X420264090Y-107707792D01*
X420247365Y-107692635D01*
X420232208Y-107675910D01*
X420218762Y-107657781D01*
X420207158Y-107638421D01*
X420197508Y-107618017D01*
X420189904Y-107596765D01*
X420184419Y-107574871D01*
X420181108Y-107552544D01*
X420180000Y-107530000D01*
X420180000Y-106840000D01*
X420181108Y-106817456D01*
X420184419Y-106795129D01*
X420189904Y-106773235D01*
X420197508Y-106751983D01*
X420207158Y-106731579D01*
X420218762Y-106712219D01*
X420232208Y-106694090D01*
X420247365Y-106677365D01*
X420264090Y-106662208D01*
X420282219Y-106648762D01*
X420301579Y-106637158D01*
X420321983Y-106627508D01*
X420343235Y-106619904D01*
X420365129Y-106614419D01*
X420387456Y-106611108D01*
X420410000Y-106610000D01*
X421600000Y-106610000D01*
X421622544Y-106611108D01*
G37*
G36*
X426067544Y-109411108D02*
G01*
X426089871Y-109414419D01*
X426111765Y-109419904D01*
X426133017Y-109427508D01*
X426153421Y-109437158D01*
X426172781Y-109448762D01*
X426190910Y-109462208D01*
X426207635Y-109477365D01*
X426222792Y-109494090D01*
X426236238Y-109512219D01*
X426247842Y-109531579D01*
X426257492Y-109551983D01*
X426265096Y-109573235D01*
X426270581Y-109595129D01*
X426273892Y-109617456D01*
X426275000Y-109640000D01*
X426275000Y-110330000D01*
X426273892Y-110352544D01*
X426270581Y-110374871D01*
X426265096Y-110396765D01*
X426257492Y-110418017D01*
X426247842Y-110438421D01*
X426236238Y-110457781D01*
X426222792Y-110475910D01*
X426207635Y-110492635D01*
X426190910Y-110507792D01*
X426172781Y-110521238D01*
X426153421Y-110532842D01*
X426133017Y-110542492D01*
X426111765Y-110550096D01*
X426089871Y-110555581D01*
X426067544Y-110558892D01*
X426045000Y-110560000D01*
X424855000Y-110560000D01*
X424832456Y-110558892D01*
X424810129Y-110555581D01*
X424788235Y-110550096D01*
X424766983Y-110542492D01*
X424746579Y-110532842D01*
X424727219Y-110521238D01*
X424709090Y-110507792D01*
X424692365Y-110492635D01*
X424677208Y-110475910D01*
X424663762Y-110457781D01*
X424652158Y-110438421D01*
X424642508Y-110418017D01*
X424634904Y-110396765D01*
X424629419Y-110374871D01*
X424626108Y-110352544D01*
X424625000Y-110330000D01*
X424625000Y-109640000D01*
X424626108Y-109617456D01*
X424629419Y-109595129D01*
X424634904Y-109573235D01*
X424642508Y-109551983D01*
X424652158Y-109531579D01*
X424663762Y-109512219D01*
X424677208Y-109494090D01*
X424692365Y-109477365D01*
X424709090Y-109462208D01*
X424727219Y-109448762D01*
X424746579Y-109437158D01*
X424766983Y-109427508D01*
X424788235Y-109419904D01*
X424810129Y-109414419D01*
X424832456Y-109411108D01*
X424855000Y-109410000D01*
X426045000Y-109410000D01*
X426067544Y-109411108D01*
G37*
G36*
X426067544Y-106611108D02*
G01*
X426089871Y-106614419D01*
X426111765Y-106619904D01*
X426133017Y-106627508D01*
X426153421Y-106637158D01*
X426172781Y-106648762D01*
X426190910Y-106662208D01*
X426207635Y-106677365D01*
X426222792Y-106694090D01*
X426236238Y-106712219D01*
X426247842Y-106731579D01*
X426257492Y-106751983D01*
X426265096Y-106773235D01*
X426270581Y-106795129D01*
X426273892Y-106817456D01*
X426275000Y-106840000D01*
X426275000Y-107530000D01*
X426273892Y-107552544D01*
X426270581Y-107574871D01*
X426265096Y-107596765D01*
X426257492Y-107618017D01*
X426247842Y-107638421D01*
X426236238Y-107657781D01*
X426222792Y-107675910D01*
X426207635Y-107692635D01*
X426190910Y-107707792D01*
X426172781Y-107721238D01*
X426153421Y-107732842D01*
X426133017Y-107742492D01*
X426111765Y-107750096D01*
X426089871Y-107755581D01*
X426067544Y-107758892D01*
X426045000Y-107760000D01*
X424855000Y-107760000D01*
X424832456Y-107758892D01*
X424810129Y-107755581D01*
X424788235Y-107750096D01*
X424766983Y-107742492D01*
X424746579Y-107732842D01*
X424727219Y-107721238D01*
X424709090Y-107707792D01*
X424692365Y-107692635D01*
X424677208Y-107675910D01*
X424663762Y-107657781D01*
X424652158Y-107638421D01*
X424642508Y-107618017D01*
X424634904Y-107596765D01*
X424629419Y-107574871D01*
X424626108Y-107552544D01*
X424625000Y-107530000D01*
X424625000Y-106840000D01*
X424626108Y-106817456D01*
X424629419Y-106795129D01*
X424634904Y-106773235D01*
X424642508Y-106751983D01*
X424652158Y-106731579D01*
X424663762Y-106712219D01*
X424677208Y-106694090D01*
X424692365Y-106677365D01*
X424709090Y-106662208D01*
X424727219Y-106648762D01*
X424746579Y-106637158D01*
X424766983Y-106627508D01*
X424788235Y-106619904D01*
X424810129Y-106614419D01*
X424832456Y-106611108D01*
X424855000Y-106610000D01*
X426045000Y-106610000D01*
X426067544Y-106611108D01*
G37*
G36*
X430512544Y-109411108D02*
G01*
X430534871Y-109414419D01*
X430556765Y-109419904D01*
X430578017Y-109427508D01*
X430598421Y-109437158D01*
X430617781Y-109448762D01*
X430635910Y-109462208D01*
X430652635Y-109477365D01*
X430667792Y-109494090D01*
X430681238Y-109512219D01*
X430692842Y-109531579D01*
X430702492Y-109551983D01*
X430710096Y-109573235D01*
X430715581Y-109595129D01*
X430718892Y-109617456D01*
X430720000Y-109640000D01*
X430720000Y-110330000D01*
X430718892Y-110352544D01*
X430715581Y-110374871D01*
X430710096Y-110396765D01*
X430702492Y-110418017D01*
X430692842Y-110438421D01*
X430681238Y-110457781D01*
X430667792Y-110475910D01*
X430652635Y-110492635D01*
X430635910Y-110507792D01*
X430617781Y-110521238D01*
X430598421Y-110532842D01*
X430578017Y-110542492D01*
X430556765Y-110550096D01*
X430534871Y-110555581D01*
X430512544Y-110558892D01*
X430490000Y-110560000D01*
X429300000Y-110560000D01*
X429277456Y-110558892D01*
X429255129Y-110555581D01*
X429233235Y-110550096D01*
X429211983Y-110542492D01*
X429191579Y-110532842D01*
X429172219Y-110521238D01*
X429154090Y-110507792D01*
X429137365Y-110492635D01*
X429122208Y-110475910D01*
X429108762Y-110457781D01*
X429097158Y-110438421D01*
X429087508Y-110418017D01*
X429079904Y-110396765D01*
X429074419Y-110374871D01*
X429071108Y-110352544D01*
X429070000Y-110330000D01*
X429070000Y-109640000D01*
X429071108Y-109617456D01*
X429074419Y-109595129D01*
X429079904Y-109573235D01*
X429087508Y-109551983D01*
X429097158Y-109531579D01*
X429108762Y-109512219D01*
X429122208Y-109494090D01*
X429137365Y-109477365D01*
X429154090Y-109462208D01*
X429172219Y-109448762D01*
X429191579Y-109437158D01*
X429211983Y-109427508D01*
X429233235Y-109419904D01*
X429255129Y-109414419D01*
X429277456Y-109411108D01*
X429300000Y-109410000D01*
X430490000Y-109410000D01*
X430512544Y-109411108D01*
G37*
G36*
X430512544Y-106611108D02*
G01*
X430534871Y-106614419D01*
X430556765Y-106619904D01*
X430578017Y-106627508D01*
X430598421Y-106637158D01*
X430617781Y-106648762D01*
X430635910Y-106662208D01*
X430652635Y-106677365D01*
X430667792Y-106694090D01*
X430681238Y-106712219D01*
X430692842Y-106731579D01*
X430702492Y-106751983D01*
X430710096Y-106773235D01*
X430715581Y-106795129D01*
X430718892Y-106817456D01*
X430720000Y-106840000D01*
X430720000Y-107530000D01*
X430718892Y-107552544D01*
X430715581Y-107574871D01*
X430710096Y-107596765D01*
X430702492Y-107618017D01*
X430692842Y-107638421D01*
X430681238Y-107657781D01*
X430667792Y-107675910D01*
X430652635Y-107692635D01*
X430635910Y-107707792D01*
X430617781Y-107721238D01*
X430598421Y-107732842D01*
X430578017Y-107742492D01*
X430556765Y-107750096D01*
X430534871Y-107755581D01*
X430512544Y-107758892D01*
X430490000Y-107760000D01*
X429300000Y-107760000D01*
X429277456Y-107758892D01*
X429255129Y-107755581D01*
X429233235Y-107750096D01*
X429211983Y-107742492D01*
X429191579Y-107732842D01*
X429172219Y-107721238D01*
X429154090Y-107707792D01*
X429137365Y-107692635D01*
X429122208Y-107675910D01*
X429108762Y-107657781D01*
X429097158Y-107638421D01*
X429087508Y-107618017D01*
X429079904Y-107596765D01*
X429074419Y-107574871D01*
X429071108Y-107552544D01*
X429070000Y-107530000D01*
X429070000Y-106840000D01*
X429071108Y-106817456D01*
X429074419Y-106795129D01*
X429079904Y-106773235D01*
X429087508Y-106751983D01*
X429097158Y-106731579D01*
X429108762Y-106712219D01*
X429122208Y-106694090D01*
X429137365Y-106677365D01*
X429154090Y-106662208D01*
X429172219Y-106648762D01*
X429191579Y-106637158D01*
X429211983Y-106627508D01*
X429233235Y-106619904D01*
X429255129Y-106614419D01*
X429277456Y-106611108D01*
X429300000Y-106610000D01*
X430490000Y-106610000D01*
X430512544Y-106611108D01*
G37*
D11*
X452980000Y-207600000D03*
X452980000Y-208250000D03*
X452980000Y-208900000D03*
X452980000Y-209550000D03*
X452980000Y-210200000D03*
X452980000Y-210850000D03*
X452980000Y-211500000D03*
X458880000Y-211500000D03*
X458880000Y-210850000D03*
X458880000Y-210200000D03*
X458880000Y-209550000D03*
X458880000Y-208900000D03*
X458880000Y-208250000D03*
X458880000Y-207600000D03*
X341220000Y-149180000D03*
X341220000Y-149830000D03*
X341220000Y-150480000D03*
X341220000Y-151130000D03*
X341220000Y-151780000D03*
X341220000Y-152430000D03*
X341220000Y-153080000D03*
X347120000Y-153080000D03*
X347120000Y-152430000D03*
X347120000Y-151780000D03*
X347120000Y-151130000D03*
X347120000Y-150480000D03*
X347120000Y-149830000D03*
X347120000Y-149180000D03*
X388845000Y-274910000D03*
X388845000Y-275560000D03*
X388845000Y-276210000D03*
X388845000Y-276860000D03*
X388845000Y-277510000D03*
X388845000Y-278160000D03*
X388845000Y-278810000D03*
X394745000Y-278810000D03*
X394745000Y-278160000D03*
X394745000Y-277510000D03*
X394745000Y-276860000D03*
X394745000Y-276210000D03*
X394745000Y-275560000D03*
X394745000Y-274910000D03*
X379955000Y-274910000D03*
X379955000Y-275560000D03*
X379955000Y-276210000D03*
X379955000Y-276860000D03*
X379955000Y-277510000D03*
X379955000Y-278160000D03*
X379955000Y-278810000D03*
X385855000Y-278810000D03*
X385855000Y-278160000D03*
X385855000Y-277510000D03*
X385855000Y-276860000D03*
X385855000Y-276210000D03*
X385855000Y-275560000D03*
X385855000Y-274910000D03*
X371065000Y-274910000D03*
X371065000Y-275560000D03*
X371065000Y-276210000D03*
X371065000Y-276860000D03*
X371065000Y-277510000D03*
X371065000Y-278160000D03*
X371065000Y-278810000D03*
X376965000Y-278810000D03*
X376965000Y-278160000D03*
X376965000Y-277510000D03*
X376965000Y-276860000D03*
X376965000Y-276210000D03*
X376965000Y-275560000D03*
X376965000Y-274910000D03*
X362175000Y-274910000D03*
X362175000Y-275560000D03*
X362175000Y-276210000D03*
X362175000Y-276860000D03*
X362175000Y-277510000D03*
X362175000Y-278160000D03*
X362175000Y-278810000D03*
X368075000Y-278810000D03*
X368075000Y-278160000D03*
X368075000Y-277510000D03*
X368075000Y-276860000D03*
X368075000Y-276210000D03*
X368075000Y-275560000D03*
X368075000Y-274910000D03*
X458880000Y-112985000D03*
X458880000Y-113635000D03*
X458880000Y-114285000D03*
X458880000Y-114935000D03*
X458880000Y-115585000D03*
X458880000Y-116235000D03*
X458880000Y-116885000D03*
X452980000Y-116885000D03*
X452980000Y-116235000D03*
X452980000Y-115585000D03*
X452980000Y-114935000D03*
X452980000Y-114285000D03*
X452980000Y-113635000D03*
X452980000Y-112985000D03*
X458880000Y-119970000D03*
X458880000Y-120620000D03*
X458880000Y-121270000D03*
X458880000Y-121920000D03*
X458880000Y-122570000D03*
X458880000Y-123220000D03*
X458880000Y-123870000D03*
X452980000Y-123870000D03*
X452980000Y-123220000D03*
X452980000Y-122570000D03*
X452980000Y-121920000D03*
X452980000Y-121270000D03*
X452980000Y-120620000D03*
X452980000Y-119970000D03*
X458880000Y-126955000D03*
X458880000Y-127605000D03*
X458880000Y-128255000D03*
X458880000Y-128905000D03*
X458880000Y-129555000D03*
X458880000Y-130205000D03*
X458880000Y-130855000D03*
X452980000Y-130855000D03*
X452980000Y-130205000D03*
X452980000Y-129555000D03*
X452980000Y-128905000D03*
X452980000Y-128255000D03*
X452980000Y-127605000D03*
X452980000Y-126955000D03*
X458880000Y-133940000D03*
X458880000Y-134590000D03*
X458880000Y-135240000D03*
X458880000Y-135890000D03*
X458880000Y-136540000D03*
X458880000Y-137190000D03*
X458880000Y-137840000D03*
X452980000Y-137840000D03*
X452980000Y-137190000D03*
X452980000Y-136540000D03*
X452980000Y-135890000D03*
X452980000Y-135240000D03*
X452980000Y-134590000D03*
X452980000Y-133940000D03*
X458880000Y-140925000D03*
X458880000Y-141575000D03*
X458880000Y-142225000D03*
X458880000Y-142875000D03*
X458880000Y-143525000D03*
X458880000Y-144175000D03*
X458880000Y-144825000D03*
X452980000Y-144825000D03*
X452980000Y-144175000D03*
X452980000Y-143525000D03*
X452980000Y-142875000D03*
X452980000Y-142225000D03*
X452980000Y-141575000D03*
X452980000Y-140925000D03*
X458880000Y-147910000D03*
X458880000Y-148560000D03*
X458880000Y-149210000D03*
X458880000Y-149860000D03*
X458880000Y-150510000D03*
X458880000Y-151160000D03*
X458880000Y-151810000D03*
X452980000Y-151810000D03*
X452980000Y-151160000D03*
X452980000Y-150510000D03*
X452980000Y-149860000D03*
X452980000Y-149210000D03*
X452980000Y-148560000D03*
X452980000Y-147910000D03*
X458880000Y-154895000D03*
X458880000Y-155545000D03*
X458880000Y-156195000D03*
X458880000Y-156845000D03*
X458880000Y-157495000D03*
X458880000Y-158145000D03*
X458880000Y-158795000D03*
X452980000Y-158795000D03*
X452980000Y-158145000D03*
X452980000Y-157495000D03*
X452980000Y-156845000D03*
X452980000Y-156195000D03*
X452980000Y-155545000D03*
X452980000Y-154895000D03*
X458880000Y-161880000D03*
X458880000Y-162530000D03*
X458880000Y-163180000D03*
X458880000Y-163830000D03*
X458880000Y-164480000D03*
X458880000Y-165130000D03*
X458880000Y-165780000D03*
X452980000Y-165780000D03*
X452980000Y-165130000D03*
X452980000Y-164480000D03*
X452980000Y-163830000D03*
X452980000Y-163180000D03*
X452980000Y-162530000D03*
X452980000Y-161880000D03*
X458880000Y-168865000D03*
X458880000Y-169515000D03*
X458880000Y-170165000D03*
X458880000Y-170815000D03*
X458880000Y-171465000D03*
X458880000Y-172115000D03*
X458880000Y-172765000D03*
X452980000Y-172765000D03*
X452980000Y-172115000D03*
X452980000Y-171465000D03*
X452980000Y-170815000D03*
X452980000Y-170165000D03*
X452980000Y-169515000D03*
X452980000Y-168865000D03*
X458880000Y-175850000D03*
X458880000Y-176500000D03*
X458880000Y-177150000D03*
X458880000Y-177800000D03*
X458880000Y-178450000D03*
X458880000Y-179100000D03*
X458880000Y-179750000D03*
X452980000Y-179750000D03*
X452980000Y-179100000D03*
X452980000Y-178450000D03*
X452980000Y-177800000D03*
X452980000Y-177150000D03*
X452980000Y-176500000D03*
X452980000Y-175850000D03*
X458880000Y-182835000D03*
X458880000Y-183485000D03*
X458880000Y-184135000D03*
X458880000Y-184785000D03*
X458880000Y-185435000D03*
X458880000Y-186085000D03*
X458880000Y-186735000D03*
X452980000Y-186735000D03*
X452980000Y-186085000D03*
X452980000Y-185435000D03*
X452980000Y-184785000D03*
X452980000Y-184135000D03*
X452980000Y-183485000D03*
X452980000Y-182835000D03*
X458880000Y-189820000D03*
X458880000Y-190470000D03*
X458880000Y-191120000D03*
X458880000Y-191770000D03*
X458880000Y-192420000D03*
X458880000Y-193070000D03*
X458880000Y-193720000D03*
X452980000Y-193720000D03*
X452980000Y-193070000D03*
X452980000Y-192420000D03*
X452980000Y-191770000D03*
X452980000Y-191120000D03*
X452980000Y-190470000D03*
X452980000Y-189820000D03*
X458880000Y-196805000D03*
X458880000Y-197455000D03*
X458880000Y-198105000D03*
X458880000Y-198755000D03*
X458880000Y-199405000D03*
X458880000Y-200055000D03*
X458880000Y-200705000D03*
X452980000Y-200705000D03*
X452980000Y-200055000D03*
X452980000Y-199405000D03*
X452980000Y-198755000D03*
X452980000Y-198105000D03*
X452980000Y-197455000D03*
X452980000Y-196805000D03*
X341220000Y-179115000D03*
X341220000Y-178465000D03*
X341220000Y-177815000D03*
X341220000Y-177165000D03*
X341220000Y-176515000D03*
X341220000Y-175865000D03*
X341220000Y-175215000D03*
X347120000Y-175215000D03*
X347120000Y-175865000D03*
X347120000Y-176515000D03*
X347120000Y-177165000D03*
X347120000Y-177815000D03*
X347120000Y-178465000D03*
X347120000Y-179115000D03*
X341220000Y-187370000D03*
X341220000Y-186720000D03*
X341220000Y-186070000D03*
X341220000Y-185420000D03*
X341220000Y-184770000D03*
X341220000Y-184120000D03*
X341220000Y-183470000D03*
X347120000Y-183470000D03*
X347120000Y-184120000D03*
X347120000Y-184770000D03*
X347120000Y-185420000D03*
X347120000Y-186070000D03*
X347120000Y-186720000D03*
X347120000Y-187370000D03*
X341220000Y-195625000D03*
X341220000Y-194975000D03*
X341220000Y-194325000D03*
X341220000Y-193675000D03*
X341220000Y-193025000D03*
X341220000Y-192375000D03*
X341220000Y-191725000D03*
X347120000Y-191725000D03*
X347120000Y-192375000D03*
X347120000Y-193025000D03*
X347120000Y-193675000D03*
X347120000Y-194325000D03*
X347120000Y-194975000D03*
X347120000Y-195625000D03*
X341220000Y-203880000D03*
X341220000Y-203230000D03*
X341220000Y-202580000D03*
X341220000Y-201930000D03*
X341220000Y-201280000D03*
X341220000Y-200630000D03*
X341220000Y-199980000D03*
X347120000Y-199980000D03*
X347120000Y-200630000D03*
X347120000Y-201280000D03*
X347120000Y-201930000D03*
X347120000Y-202580000D03*
X347120000Y-203230000D03*
X347120000Y-203880000D03*
X341220000Y-212135000D03*
X341220000Y-211485000D03*
X341220000Y-210835000D03*
X341220000Y-210185000D03*
X341220000Y-209535000D03*
X341220000Y-208885000D03*
X341220000Y-208235000D03*
X347120000Y-208235000D03*
X347120000Y-208885000D03*
X347120000Y-209535000D03*
X347120000Y-210185000D03*
X347120000Y-210835000D03*
X347120000Y-211485000D03*
X347120000Y-212135000D03*
X341220000Y-220390000D03*
X341220000Y-219740000D03*
X341220000Y-219090000D03*
X341220000Y-218440000D03*
X341220000Y-217790000D03*
X341220000Y-217140000D03*
X341220000Y-216490000D03*
X347120000Y-216490000D03*
X347120000Y-217140000D03*
X347120000Y-217790000D03*
X347120000Y-218440000D03*
X347120000Y-219090000D03*
X347120000Y-219740000D03*
X347120000Y-220390000D03*
X341220000Y-228645000D03*
X341220000Y-227995000D03*
X341220000Y-227345000D03*
X341220000Y-226695000D03*
X341220000Y-226045000D03*
X341220000Y-225395000D03*
X341220000Y-224745000D03*
X347120000Y-224745000D03*
X347120000Y-225395000D03*
X347120000Y-226045000D03*
X347120000Y-226695000D03*
X347120000Y-227345000D03*
X347120000Y-227995000D03*
X347120000Y-228645000D03*
X341220000Y-236900000D03*
X341220000Y-236250000D03*
X341220000Y-235600000D03*
X341220000Y-234950000D03*
X341220000Y-234300000D03*
X341220000Y-233650000D03*
X341220000Y-233000000D03*
X347120000Y-233000000D03*
X347120000Y-233650000D03*
X347120000Y-234300000D03*
X347120000Y-234950000D03*
X347120000Y-235600000D03*
X347120000Y-236250000D03*
X347120000Y-236900000D03*
X341220000Y-245155000D03*
X341220000Y-244505000D03*
X341220000Y-243855000D03*
X341220000Y-243205000D03*
X341220000Y-242555000D03*
X341220000Y-241905000D03*
X341220000Y-241255000D03*
X347120000Y-241255000D03*
X347120000Y-241905000D03*
X347120000Y-242555000D03*
X347120000Y-243205000D03*
X347120000Y-243855000D03*
X347120000Y-244505000D03*
X347120000Y-245155000D03*
X341220000Y-253410000D03*
X341220000Y-252760000D03*
X341220000Y-252110000D03*
X341220000Y-251460000D03*
X341220000Y-250810000D03*
X341220000Y-250160000D03*
X341220000Y-249510000D03*
X347120000Y-249510000D03*
X347120000Y-250160000D03*
X347120000Y-250810000D03*
X347120000Y-251460000D03*
X347120000Y-252110000D03*
X347120000Y-252760000D03*
X347120000Y-253410000D03*
X341220000Y-261665000D03*
X341220000Y-261015000D03*
X341220000Y-260365000D03*
X341220000Y-259715000D03*
X341220000Y-259065000D03*
X341220000Y-258415000D03*
X341220000Y-257765000D03*
X347120000Y-257765000D03*
X347120000Y-258415000D03*
X347120000Y-259065000D03*
X347120000Y-259715000D03*
X347120000Y-260365000D03*
X347120000Y-261015000D03*
X347120000Y-261665000D03*
X341220000Y-269920000D03*
X341220000Y-269270000D03*
X341220000Y-268620000D03*
X341220000Y-267970000D03*
X341220000Y-267320000D03*
X341220000Y-266670000D03*
X341220000Y-266020000D03*
X347120000Y-266020000D03*
X347120000Y-266670000D03*
X347120000Y-267320000D03*
X347120000Y-267970000D03*
X347120000Y-268620000D03*
X347120000Y-269270000D03*
X347120000Y-269920000D03*
X341220000Y-278175000D03*
X341220000Y-277525000D03*
X341220000Y-276875000D03*
X341220000Y-276225000D03*
X341220000Y-275575000D03*
X341220000Y-274925000D03*
X341220000Y-274275000D03*
X347120000Y-274275000D03*
X347120000Y-274925000D03*
X347120000Y-275575000D03*
X347120000Y-276225000D03*
X347120000Y-276875000D03*
X347120000Y-277525000D03*
X347120000Y-278175000D03*
D12*
X393533354Y-266193000D03*
X385583354Y-266193000D03*
X393533354Y-261693000D03*
X385583354Y-261693000D03*
D10*
G36*
X398000544Y-264224108D02*
G01*
X398022871Y-264227419D01*
X398044765Y-264232904D01*
X398066017Y-264240508D01*
X398086421Y-264250158D01*
X398105781Y-264261762D01*
X398123910Y-264275208D01*
X398140635Y-264290365D01*
X398155792Y-264307090D01*
X398169238Y-264325219D01*
X398180842Y-264344579D01*
X398190492Y-264364983D01*
X398198096Y-264386235D01*
X398203581Y-264408129D01*
X398206892Y-264430456D01*
X398208000Y-264453000D01*
X398208000Y-265143000D01*
X398206892Y-265165544D01*
X398203581Y-265187871D01*
X398198096Y-265209765D01*
X398190492Y-265231017D01*
X398180842Y-265251421D01*
X398169238Y-265270781D01*
X398155792Y-265288910D01*
X398140635Y-265305635D01*
X398123910Y-265320792D01*
X398105781Y-265334238D01*
X398086421Y-265345842D01*
X398066017Y-265355492D01*
X398044765Y-265363096D01*
X398022871Y-265368581D01*
X398000544Y-265371892D01*
X397978000Y-265373000D01*
X396788000Y-265373000D01*
X396765456Y-265371892D01*
X396743129Y-265368581D01*
X396721235Y-265363096D01*
X396699983Y-265355492D01*
X396679579Y-265345842D01*
X396660219Y-265334238D01*
X396642090Y-265320792D01*
X396625365Y-265305635D01*
X396610208Y-265288910D01*
X396596762Y-265270781D01*
X396585158Y-265251421D01*
X396575508Y-265231017D01*
X396567904Y-265209765D01*
X396562419Y-265187871D01*
X396559108Y-265165544D01*
X396558000Y-265143000D01*
X396558000Y-264453000D01*
X396559108Y-264430456D01*
X396562419Y-264408129D01*
X396567904Y-264386235D01*
X396575508Y-264364983D01*
X396585158Y-264344579D01*
X396596762Y-264325219D01*
X396610208Y-264307090D01*
X396625365Y-264290365D01*
X396642090Y-264275208D01*
X396660219Y-264261762D01*
X396679579Y-264250158D01*
X396699983Y-264240508D01*
X396721235Y-264232904D01*
X396743129Y-264227419D01*
X396765456Y-264224108D01*
X396788000Y-264223000D01*
X397978000Y-264223000D01*
X398000544Y-264224108D01*
G37*
G36*
X398000544Y-261424108D02*
G01*
X398022871Y-261427419D01*
X398044765Y-261432904D01*
X398066017Y-261440508D01*
X398086421Y-261450158D01*
X398105781Y-261461762D01*
X398123910Y-261475208D01*
X398140635Y-261490365D01*
X398155792Y-261507090D01*
X398169238Y-261525219D01*
X398180842Y-261544579D01*
X398190492Y-261564983D01*
X398198096Y-261586235D01*
X398203581Y-261608129D01*
X398206892Y-261630456D01*
X398208000Y-261653000D01*
X398208000Y-262343000D01*
X398206892Y-262365544D01*
X398203581Y-262387871D01*
X398198096Y-262409765D01*
X398190492Y-262431017D01*
X398180842Y-262451421D01*
X398169238Y-262470781D01*
X398155792Y-262488910D01*
X398140635Y-262505635D01*
X398123910Y-262520792D01*
X398105781Y-262534238D01*
X398086421Y-262545842D01*
X398066017Y-262555492D01*
X398044765Y-262563096D01*
X398022871Y-262568581D01*
X398000544Y-262571892D01*
X397978000Y-262573000D01*
X396788000Y-262573000D01*
X396765456Y-262571892D01*
X396743129Y-262568581D01*
X396721235Y-262563096D01*
X396699983Y-262555492D01*
X396679579Y-262545842D01*
X396660219Y-262534238D01*
X396642090Y-262520792D01*
X396625365Y-262505635D01*
X396610208Y-262488910D01*
X396596762Y-262470781D01*
X396585158Y-262451421D01*
X396575508Y-262431017D01*
X396567904Y-262409765D01*
X396562419Y-262387871D01*
X396559108Y-262365544D01*
X396558000Y-262343000D01*
X396558000Y-261653000D01*
X396559108Y-261630456D01*
X396562419Y-261608129D01*
X396567904Y-261586235D01*
X396575508Y-261564983D01*
X396585158Y-261544579D01*
X396596762Y-261525219D01*
X396610208Y-261507090D01*
X396625365Y-261490365D01*
X396642090Y-261475208D01*
X396660219Y-261461762D01*
X396679579Y-261450158D01*
X396699983Y-261440508D01*
X396721235Y-261432904D01*
X396743129Y-261427419D01*
X396765456Y-261424108D01*
X396788000Y-261423000D01*
X397978000Y-261423000D01*
X398000544Y-261424108D01*
G37*
G36*
X467342544Y-255836108D02*
G01*
X467364871Y-255839419D01*
X467386765Y-255844904D01*
X467408017Y-255852508D01*
X467428421Y-255862158D01*
X467447781Y-255873762D01*
X467465910Y-255887208D01*
X467482635Y-255902365D01*
X467497792Y-255919090D01*
X467511238Y-255937219D01*
X467522842Y-255956579D01*
X467532492Y-255976983D01*
X467540096Y-255998235D01*
X467545581Y-256020129D01*
X467548892Y-256042456D01*
X467550000Y-256065000D01*
X467550000Y-256755000D01*
X467548892Y-256777544D01*
X467545581Y-256799871D01*
X467540096Y-256821765D01*
X467532492Y-256843017D01*
X467522842Y-256863421D01*
X467511238Y-256882781D01*
X467497792Y-256900910D01*
X467482635Y-256917635D01*
X467465910Y-256932792D01*
X467447781Y-256946238D01*
X467428421Y-256957842D01*
X467408017Y-256967492D01*
X467386765Y-256975096D01*
X467364871Y-256980581D01*
X467342544Y-256983892D01*
X467320000Y-256985000D01*
X466130000Y-256985000D01*
X466107456Y-256983892D01*
X466085129Y-256980581D01*
X466063235Y-256975096D01*
X466041983Y-256967492D01*
X466021579Y-256957842D01*
X466002219Y-256946238D01*
X465984090Y-256932792D01*
X465967365Y-256917635D01*
X465952208Y-256900910D01*
X465938762Y-256882781D01*
X465927158Y-256863421D01*
X465917508Y-256843017D01*
X465909904Y-256821765D01*
X465904419Y-256799871D01*
X465901108Y-256777544D01*
X465900000Y-256755000D01*
X465900000Y-256065000D01*
X465901108Y-256042456D01*
X465904419Y-256020129D01*
X465909904Y-255998235D01*
X465917508Y-255976983D01*
X465927158Y-255956579D01*
X465938762Y-255937219D01*
X465952208Y-255919090D01*
X465967365Y-255902365D01*
X465984090Y-255887208D01*
X466002219Y-255873762D01*
X466021579Y-255862158D01*
X466041983Y-255852508D01*
X466063235Y-255844904D01*
X466085129Y-255839419D01*
X466107456Y-255836108D01*
X466130000Y-255835000D01*
X467320000Y-255835000D01*
X467342544Y-255836108D01*
G37*
G36*
X467342544Y-258636108D02*
G01*
X467364871Y-258639419D01*
X467386765Y-258644904D01*
X467408017Y-258652508D01*
X467428421Y-258662158D01*
X467447781Y-258673762D01*
X467465910Y-258687208D01*
X467482635Y-258702365D01*
X467497792Y-258719090D01*
X467511238Y-258737219D01*
X467522842Y-258756579D01*
X467532492Y-258776983D01*
X467540096Y-258798235D01*
X467545581Y-258820129D01*
X467548892Y-258842456D01*
X467550000Y-258865000D01*
X467550000Y-259555000D01*
X467548892Y-259577544D01*
X467545581Y-259599871D01*
X467540096Y-259621765D01*
X467532492Y-259643017D01*
X467522842Y-259663421D01*
X467511238Y-259682781D01*
X467497792Y-259700910D01*
X467482635Y-259717635D01*
X467465910Y-259732792D01*
X467447781Y-259746238D01*
X467428421Y-259757842D01*
X467408017Y-259767492D01*
X467386765Y-259775096D01*
X467364871Y-259780581D01*
X467342544Y-259783892D01*
X467320000Y-259785000D01*
X466130000Y-259785000D01*
X466107456Y-259783892D01*
X466085129Y-259780581D01*
X466063235Y-259775096D01*
X466041983Y-259767492D01*
X466021579Y-259757842D01*
X466002219Y-259746238D01*
X465984090Y-259732792D01*
X465967365Y-259717635D01*
X465952208Y-259700910D01*
X465938762Y-259682781D01*
X465927158Y-259663421D01*
X465917508Y-259643017D01*
X465909904Y-259621765D01*
X465904419Y-259599871D01*
X465901108Y-259577544D01*
X465900000Y-259555000D01*
X465900000Y-258865000D01*
X465901108Y-258842456D01*
X465904419Y-258820129D01*
X465909904Y-258798235D01*
X465917508Y-258776983D01*
X465927158Y-258756579D01*
X465938762Y-258737219D01*
X465952208Y-258719090D01*
X465967365Y-258702365D01*
X465984090Y-258687208D01*
X466002219Y-258673762D01*
X466021579Y-258662158D01*
X466041983Y-258652508D01*
X466063235Y-258644904D01*
X466085129Y-258639419D01*
X466107456Y-258636108D01*
X466130000Y-258635000D01*
X467320000Y-258635000D01*
X467342544Y-258636108D01*
G37*
M02*
