G04 #@! TF.GenerationSoftware,KiCad,Pcbnew,5.1.5-52549c5~84~ubuntu18.04.1*
G04 #@! TF.CreationDate,2020-06-07T21:28:07-07:00*
G04 #@! TF.ProjectId,motherboard,6d6f7468-6572-4626-9f61-72642e6b6963,rev?*
G04 #@! TF.SameCoordinates,Original*
G04 #@! TF.FileFunction,Legend,Top*
G04 #@! TF.FilePolarity,Positive*
%FSLAX46Y46*%
G04 Gerber Fmt 4.6, Leading zero omitted, Abs format (unit mm)*
G04 Created by KiCad (PCBNEW 5.1.5-52549c5~84~ubuntu18.04.1) date 2020-06-07 21:28:07*
%MOMM*%
%LPD*%
G04 APERTURE LIST*
%ADD10C,0.300000*%
%ADD11C,0.120000*%
%ADD12C,0.200000*%
%ADD13C,0.150000*%
%ADD14C,0.250000*%
%ADD15C,0.400000*%
%ADD16C,0.010000*%
G04 APERTURE END LIST*
D10*
X387457428Y-258742571D02*
X386957428Y-258028285D01*
X386600285Y-258742571D02*
X386600285Y-257242571D01*
X387171714Y-257242571D01*
X387314571Y-257314000D01*
X387386000Y-257385428D01*
X387457428Y-257528285D01*
X387457428Y-257742571D01*
X387386000Y-257885428D01*
X387314571Y-257956857D01*
X387171714Y-258028285D01*
X386600285Y-258028285D01*
X388100285Y-257956857D02*
X388600285Y-257956857D01*
X388814571Y-258742571D02*
X388100285Y-258742571D01*
X388100285Y-257242571D01*
X388814571Y-257242571D01*
X389386000Y-258671142D02*
X389600285Y-258742571D01*
X389957428Y-258742571D01*
X390100285Y-258671142D01*
X390171714Y-258599714D01*
X390243142Y-258456857D01*
X390243142Y-258314000D01*
X390171714Y-258171142D01*
X390100285Y-258099714D01*
X389957428Y-258028285D01*
X389671714Y-257956857D01*
X389528857Y-257885428D01*
X389457428Y-257814000D01*
X389386000Y-257671142D01*
X389386000Y-257528285D01*
X389457428Y-257385428D01*
X389528857Y-257314000D01*
X389671714Y-257242571D01*
X390028857Y-257242571D01*
X390243142Y-257314000D01*
X390886000Y-257956857D02*
X391386000Y-257956857D01*
X391600285Y-258742571D02*
X390886000Y-258742571D01*
X390886000Y-257242571D01*
X391600285Y-257242571D01*
X392028857Y-257242571D02*
X392886000Y-257242571D01*
X392457428Y-258742571D02*
X392457428Y-257242571D01*
X375507428Y-269434571D02*
X375793142Y-269434571D01*
X375936000Y-269506000D01*
X376078857Y-269648857D01*
X376150285Y-269934571D01*
X376150285Y-270434571D01*
X376078857Y-270720285D01*
X375936000Y-270863142D01*
X375793142Y-270934571D01*
X375507428Y-270934571D01*
X375364571Y-270863142D01*
X375221714Y-270720285D01*
X375150285Y-270434571D01*
X375150285Y-269934571D01*
X375221714Y-269648857D01*
X375364571Y-269506000D01*
X375507428Y-269434571D01*
X377293142Y-270148857D02*
X376793142Y-270148857D01*
X376793142Y-270934571D02*
X376793142Y-269434571D01*
X377507428Y-269434571D01*
X378578857Y-270148857D02*
X378078857Y-270148857D01*
X378078857Y-270934571D02*
X378078857Y-269434571D01*
X378793142Y-269434571D01*
X376007428Y-257242571D02*
X376293142Y-257242571D01*
X376436000Y-257314000D01*
X376578857Y-257456857D01*
X376650285Y-257742571D01*
X376650285Y-258242571D01*
X376578857Y-258528285D01*
X376436000Y-258671142D01*
X376293142Y-258742571D01*
X376007428Y-258742571D01*
X375864571Y-258671142D01*
X375721714Y-258528285D01*
X375650285Y-258242571D01*
X375650285Y-257742571D01*
X375721714Y-257456857D01*
X375864571Y-257314000D01*
X376007428Y-257242571D01*
X377293142Y-258742571D02*
X377293142Y-257242571D01*
X378150285Y-258742571D01*
X378150285Y-257242571D01*
X355944952Y-99337714D02*
X355840190Y-99442476D01*
X355525904Y-99547238D01*
X355316380Y-99547238D01*
X355002095Y-99442476D01*
X354792571Y-99232952D01*
X354687809Y-99023428D01*
X354583047Y-98604380D01*
X354583047Y-98290095D01*
X354687809Y-97871047D01*
X354792571Y-97661523D01*
X355002095Y-97452000D01*
X355316380Y-97347238D01*
X355525904Y-97347238D01*
X355840190Y-97452000D01*
X355944952Y-97556761D01*
X356887809Y-98709142D02*
X358564000Y-98709142D01*
X359611619Y-99547238D02*
X359611619Y-98080571D01*
X359611619Y-97347238D02*
X359506857Y-97452000D01*
X359611619Y-97556761D01*
X359716380Y-97452000D01*
X359611619Y-97347238D01*
X359611619Y-97556761D01*
X360659238Y-98080571D02*
X360659238Y-99547238D01*
X360659238Y-98290095D02*
X360764000Y-98185333D01*
X360973523Y-98080571D01*
X361287809Y-98080571D01*
X361497333Y-98185333D01*
X361602095Y-98394857D01*
X361602095Y-99547238D01*
X362544952Y-99442476D02*
X362754476Y-99547238D01*
X363173523Y-99547238D01*
X363383047Y-99442476D01*
X363487809Y-99232952D01*
X363487809Y-99128190D01*
X363383047Y-98918666D01*
X363173523Y-98813904D01*
X362859238Y-98813904D01*
X362649714Y-98709142D01*
X362544952Y-98499619D01*
X362544952Y-98394857D01*
X362649714Y-98185333D01*
X362859238Y-98080571D01*
X363173523Y-98080571D01*
X363383047Y-98185333D01*
X364116380Y-98080571D02*
X364954476Y-98080571D01*
X364430666Y-97347238D02*
X364430666Y-99232952D01*
X364535428Y-99442476D01*
X364744952Y-99547238D01*
X364954476Y-99547238D01*
X354740190Y-118730666D02*
X355787809Y-118730666D01*
X354530666Y-119359238D02*
X355264000Y-117159238D01*
X355997333Y-119359238D01*
X356730666Y-118521142D02*
X358406857Y-118521142D01*
X359454476Y-119359238D02*
X359454476Y-117892571D01*
X359454476Y-117159238D02*
X359349714Y-117264000D01*
X359454476Y-117368761D01*
X359559238Y-117264000D01*
X359454476Y-117159238D01*
X359454476Y-117368761D01*
X360502095Y-117892571D02*
X360502095Y-119359238D01*
X360502095Y-118102095D02*
X360606857Y-117997333D01*
X360816380Y-117892571D01*
X361130666Y-117892571D01*
X361340190Y-117997333D01*
X361444952Y-118206857D01*
X361444952Y-119359238D01*
X362387809Y-119254476D02*
X362597333Y-119359238D01*
X363016380Y-119359238D01*
X363225904Y-119254476D01*
X363330666Y-119044952D01*
X363330666Y-118940190D01*
X363225904Y-118730666D01*
X363016380Y-118625904D01*
X362702095Y-118625904D01*
X362492571Y-118521142D01*
X362387809Y-118311619D01*
X362387809Y-118206857D01*
X362492571Y-117997333D01*
X362702095Y-117892571D01*
X363016380Y-117892571D01*
X363225904Y-117997333D01*
X363959238Y-117892571D02*
X364797333Y-117892571D01*
X364273523Y-117159238D02*
X364273523Y-119044952D01*
X364378285Y-119254476D01*
X364587809Y-119359238D01*
X364797333Y-119359238D01*
X398256190Y-117714666D02*
X399303809Y-117714666D01*
X398046666Y-118343238D02*
X398780000Y-116143238D01*
X399513333Y-118343238D01*
D11*
X365760000Y-114935000D02*
X365760000Y-113665000D01*
X431800000Y-114935000D02*
X365760000Y-114935000D01*
X431800000Y-113665000D02*
X431800000Y-114935000D01*
D12*
X367398333Y-113663333D02*
X366598333Y-113663333D01*
X366998333Y-113663333D02*
X366998333Y-112263333D01*
X366865000Y-112463333D01*
X366731666Y-112596666D01*
X366598333Y-112663333D01*
X368598333Y-112730000D02*
X368598333Y-113663333D01*
X368265000Y-112196666D02*
X367931666Y-113196666D01*
X368798333Y-113196666D01*
X371843333Y-113663333D02*
X371043333Y-113663333D01*
X371443333Y-113663333D02*
X371443333Y-112263333D01*
X371310000Y-112463333D01*
X371176666Y-112596666D01*
X371043333Y-112663333D01*
X372310000Y-112263333D02*
X373176666Y-112263333D01*
X372710000Y-112796666D01*
X372910000Y-112796666D01*
X373043333Y-112863333D01*
X373110000Y-112930000D01*
X373176666Y-113063333D01*
X373176666Y-113396666D01*
X373110000Y-113530000D01*
X373043333Y-113596666D01*
X372910000Y-113663333D01*
X372510000Y-113663333D01*
X372376666Y-113596666D01*
X372310000Y-113530000D01*
X376288333Y-113663333D02*
X375488333Y-113663333D01*
X375888333Y-113663333D02*
X375888333Y-112263333D01*
X375755000Y-112463333D01*
X375621666Y-112596666D01*
X375488333Y-112663333D01*
X376821666Y-112396666D02*
X376888333Y-112330000D01*
X377021666Y-112263333D01*
X377355000Y-112263333D01*
X377488333Y-112330000D01*
X377555000Y-112396666D01*
X377621666Y-112530000D01*
X377621666Y-112663333D01*
X377555000Y-112863333D01*
X376755000Y-113663333D01*
X377621666Y-113663333D01*
X380733333Y-113663333D02*
X379933333Y-113663333D01*
X380333333Y-113663333D02*
X380333333Y-112263333D01*
X380200000Y-112463333D01*
X380066666Y-112596666D01*
X379933333Y-112663333D01*
X382066666Y-113663333D02*
X381266666Y-113663333D01*
X381666666Y-113663333D02*
X381666666Y-112263333D01*
X381533333Y-112463333D01*
X381400000Y-112596666D01*
X381266666Y-112663333D01*
X385178333Y-113663333D02*
X384378333Y-113663333D01*
X384778333Y-113663333D02*
X384778333Y-112263333D01*
X384645000Y-112463333D01*
X384511666Y-112596666D01*
X384378333Y-112663333D01*
X386045000Y-112263333D02*
X386178333Y-112263333D01*
X386311666Y-112330000D01*
X386378333Y-112396666D01*
X386445000Y-112530000D01*
X386511666Y-112796666D01*
X386511666Y-113130000D01*
X386445000Y-113396666D01*
X386378333Y-113530000D01*
X386311666Y-113596666D01*
X386178333Y-113663333D01*
X386045000Y-113663333D01*
X385911666Y-113596666D01*
X385845000Y-113530000D01*
X385778333Y-113396666D01*
X385711666Y-113130000D01*
X385711666Y-112796666D01*
X385778333Y-112530000D01*
X385845000Y-112396666D01*
X385911666Y-112330000D01*
X386045000Y-112263333D01*
X389623333Y-113663333D02*
X389890000Y-113663333D01*
X390023333Y-113596666D01*
X390090000Y-113530000D01*
X390223333Y-113330000D01*
X390290000Y-113063333D01*
X390290000Y-112530000D01*
X390223333Y-112396666D01*
X390156666Y-112330000D01*
X390023333Y-112263333D01*
X389756666Y-112263333D01*
X389623333Y-112330000D01*
X389556666Y-112396666D01*
X389490000Y-112530000D01*
X389490000Y-112863333D01*
X389556666Y-112996666D01*
X389623333Y-113063333D01*
X389756666Y-113130000D01*
X390023333Y-113130000D01*
X390156666Y-113063333D01*
X390223333Y-112996666D01*
X390290000Y-112863333D01*
X394201666Y-112863333D02*
X394068333Y-112796666D01*
X394001666Y-112730000D01*
X393935000Y-112596666D01*
X393935000Y-112530000D01*
X394001666Y-112396666D01*
X394068333Y-112330000D01*
X394201666Y-112263333D01*
X394468333Y-112263333D01*
X394601666Y-112330000D01*
X394668333Y-112396666D01*
X394735000Y-112530000D01*
X394735000Y-112596666D01*
X394668333Y-112730000D01*
X394601666Y-112796666D01*
X394468333Y-112863333D01*
X394201666Y-112863333D01*
X394068333Y-112930000D01*
X394001666Y-112996666D01*
X393935000Y-113130000D01*
X393935000Y-113396666D01*
X394001666Y-113530000D01*
X394068333Y-113596666D01*
X394201666Y-113663333D01*
X394468333Y-113663333D01*
X394601666Y-113596666D01*
X394668333Y-113530000D01*
X394735000Y-113396666D01*
X394735000Y-113130000D01*
X394668333Y-112996666D01*
X394601666Y-112930000D01*
X394468333Y-112863333D01*
X398313333Y-112263333D02*
X399246666Y-112263333D01*
X398646666Y-113663333D01*
X403491666Y-112263333D02*
X403225000Y-112263333D01*
X403091666Y-112330000D01*
X403025000Y-112396666D01*
X402891666Y-112596666D01*
X402825000Y-112863333D01*
X402825000Y-113396666D01*
X402891666Y-113530000D01*
X402958333Y-113596666D01*
X403091666Y-113663333D01*
X403358333Y-113663333D01*
X403491666Y-113596666D01*
X403558333Y-113530000D01*
X403625000Y-113396666D01*
X403625000Y-113063333D01*
X403558333Y-112930000D01*
X403491666Y-112863333D01*
X403358333Y-112796666D01*
X403091666Y-112796666D01*
X402958333Y-112863333D01*
X402891666Y-112930000D01*
X402825000Y-113063333D01*
X408003333Y-112263333D02*
X407336666Y-112263333D01*
X407270000Y-112930000D01*
X407336666Y-112863333D01*
X407470000Y-112796666D01*
X407803333Y-112796666D01*
X407936666Y-112863333D01*
X408003333Y-112930000D01*
X408070000Y-113063333D01*
X408070000Y-113396666D01*
X408003333Y-113530000D01*
X407936666Y-113596666D01*
X407803333Y-113663333D01*
X407470000Y-113663333D01*
X407336666Y-113596666D01*
X407270000Y-113530000D01*
X412381666Y-112730000D02*
X412381666Y-113663333D01*
X412048333Y-112196666D02*
X411715000Y-113196666D01*
X412581666Y-113196666D01*
X416093333Y-112263333D02*
X416960000Y-112263333D01*
X416493333Y-112796666D01*
X416693333Y-112796666D01*
X416826666Y-112863333D01*
X416893333Y-112930000D01*
X416960000Y-113063333D01*
X416960000Y-113396666D01*
X416893333Y-113530000D01*
X416826666Y-113596666D01*
X416693333Y-113663333D01*
X416293333Y-113663333D01*
X416160000Y-113596666D01*
X416093333Y-113530000D01*
X420605000Y-112396666D02*
X420671666Y-112330000D01*
X420805000Y-112263333D01*
X421138333Y-112263333D01*
X421271666Y-112330000D01*
X421338333Y-112396666D01*
X421405000Y-112530000D01*
X421405000Y-112663333D01*
X421338333Y-112863333D01*
X420538333Y-113663333D01*
X421405000Y-113663333D01*
X425850000Y-113663333D02*
X425050000Y-113663333D01*
X425450000Y-113663333D02*
X425450000Y-112263333D01*
X425316666Y-112463333D01*
X425183333Y-112596666D01*
X425050000Y-112663333D01*
X429828333Y-112263333D02*
X429961666Y-112263333D01*
X430095000Y-112330000D01*
X430161666Y-112396666D01*
X430228333Y-112530000D01*
X430295000Y-112796666D01*
X430295000Y-113130000D01*
X430228333Y-113396666D01*
X430161666Y-113530000D01*
X430095000Y-113596666D01*
X429961666Y-113663333D01*
X429828333Y-113663333D01*
X429695000Y-113596666D01*
X429628333Y-113530000D01*
X429561666Y-113396666D01*
X429495000Y-113130000D01*
X429495000Y-112796666D01*
X429561666Y-112530000D01*
X429628333Y-112396666D01*
X429695000Y-112330000D01*
X429828333Y-112263333D01*
D13*
X375102619Y-103132380D02*
X375626428Y-102465714D01*
X375102619Y-102465714D02*
X375626428Y-103132380D01*
X376007380Y-102608571D02*
X376769285Y-102608571D01*
X376769285Y-102894285D02*
X376007380Y-102894285D01*
X377245476Y-103132380D02*
X377245476Y-102132380D01*
X377578809Y-102846666D01*
X377912142Y-102132380D01*
X377912142Y-103132380D01*
X375245476Y-104782380D02*
X375769285Y-104115714D01*
X375245476Y-104115714D02*
X375769285Y-104782380D01*
X376150238Y-104258571D02*
X376912142Y-104258571D01*
X376912142Y-104544285D02*
X376150238Y-104544285D01*
X377340714Y-104496666D02*
X377816904Y-104496666D01*
X377245476Y-104782380D02*
X377578809Y-103782380D01*
X377912142Y-104782380D01*
D11*
X374650000Y-101600000D02*
X374650000Y-102870000D01*
X405130000Y-101600000D02*
X374650000Y-101600000D01*
X405130000Y-102870000D02*
X405130000Y-101600000D01*
D12*
X380066666Y-103840000D02*
X380800000Y-103840000D01*
X380066666Y-104773333D01*
X380800000Y-104773333D01*
X381200000Y-104773333D02*
X381933333Y-103840000D01*
X381200000Y-103840000D02*
X381933333Y-104773333D01*
X384878333Y-104640000D02*
X384945000Y-104706666D01*
X384878333Y-104773333D01*
X384811666Y-104706666D01*
X384878333Y-104640000D01*
X384878333Y-104773333D01*
X384878333Y-104240000D02*
X384811666Y-103440000D01*
X384878333Y-103373333D01*
X384945000Y-103440000D01*
X384878333Y-104240000D01*
X384878333Y-103373333D01*
X385411666Y-104773333D02*
X386145000Y-103840000D01*
X385411666Y-103840000D02*
X386145000Y-104773333D01*
X388990000Y-103840000D02*
X389723333Y-103840000D01*
X388990000Y-104773333D01*
X389723333Y-104773333D01*
X390123333Y-103840000D02*
X390456666Y-104773333D01*
X390790000Y-103840000D02*
X390456666Y-104773333D01*
X390323333Y-105106666D01*
X390256666Y-105173333D01*
X390123333Y-105240000D01*
X393801666Y-104640000D02*
X393868333Y-104706666D01*
X393801666Y-104773333D01*
X393735000Y-104706666D01*
X393801666Y-104640000D01*
X393801666Y-104773333D01*
X393801666Y-104240000D02*
X393735000Y-103440000D01*
X393801666Y-103373333D01*
X393868333Y-103440000D01*
X393801666Y-104240000D01*
X393801666Y-103373333D01*
X394335000Y-103840000D02*
X394668333Y-104773333D01*
X395001666Y-103840000D02*
X394668333Y-104773333D01*
X394535000Y-105106666D01*
X394468333Y-105173333D01*
X394335000Y-105240000D01*
D13*
X397518095Y-103132380D02*
X398041904Y-102465714D01*
X397518095Y-102465714D02*
X398041904Y-103132380D01*
X398422857Y-102751428D02*
X399184761Y-102751428D01*
X398803809Y-103132380D02*
X398803809Y-102370476D01*
X399565714Y-102465714D02*
X399803809Y-103132380D01*
X400041904Y-102465714D02*
X399803809Y-103132380D01*
X399708571Y-103370476D01*
X399660952Y-103418095D01*
X399565714Y-103465714D01*
X397518095Y-104782380D02*
X398041904Y-104115714D01*
X397518095Y-104115714D02*
X398041904Y-104782380D01*
X399232380Y-104782380D02*
X399184761Y-104782380D01*
X399089523Y-104734761D01*
X398946666Y-104591904D01*
X398708571Y-104306190D01*
X398613333Y-104163333D01*
X398565714Y-104020476D01*
X398565714Y-103925238D01*
X398613333Y-103830000D01*
X398708571Y-103782380D01*
X398756190Y-103782380D01*
X398851428Y-103830000D01*
X398899047Y-103925238D01*
X398899047Y-103972857D01*
X398851428Y-104068095D01*
X398803809Y-104115714D01*
X398518095Y-104306190D01*
X398470476Y-104353809D01*
X398422857Y-104449047D01*
X398422857Y-104591904D01*
X398470476Y-104687142D01*
X398518095Y-104734761D01*
X398613333Y-104782380D01*
X398756190Y-104782380D01*
X398851428Y-104734761D01*
X398899047Y-104687142D01*
X399041904Y-104496666D01*
X399089523Y-104353809D01*
X399089523Y-104258571D01*
X399565714Y-104115714D02*
X399803809Y-104782380D01*
X400041904Y-104115714D02*
X399803809Y-104782380D01*
X399708571Y-105020476D01*
X399660952Y-105068095D01*
X399565714Y-105115714D01*
D12*
X401558333Y-104640000D02*
X401625000Y-104706666D01*
X401558333Y-104773333D01*
X401491666Y-104706666D01*
X401558333Y-104640000D01*
X401558333Y-104773333D01*
X401558333Y-104240000D02*
X401491666Y-103440000D01*
X401558333Y-103373333D01*
X401625000Y-103440000D01*
X401558333Y-104240000D01*
X401558333Y-103373333D01*
X402425000Y-104773333D02*
X402291666Y-104706666D01*
X402225000Y-104640000D01*
X402158333Y-104506666D01*
X402158333Y-104106666D01*
X402225000Y-103973333D01*
X402291666Y-103906666D01*
X402425000Y-103840000D01*
X402625000Y-103840000D01*
X402758333Y-103906666D01*
X402825000Y-103973333D01*
X402891666Y-104106666D01*
X402891666Y-104506666D01*
X402825000Y-104640000D01*
X402758333Y-104706666D01*
X402625000Y-104773333D01*
X402425000Y-104773333D01*
X404091666Y-103840000D02*
X404091666Y-104773333D01*
X403491666Y-103840000D02*
X403491666Y-104573333D01*
X403558333Y-104706666D01*
X403691666Y-104773333D01*
X403891666Y-104773333D01*
X404025000Y-104706666D01*
X404091666Y-104640000D01*
X404558333Y-103840000D02*
X405091666Y-103840000D01*
X404758333Y-103373333D02*
X404758333Y-104573333D01*
X404825000Y-104706666D01*
X404958333Y-104773333D01*
X405091666Y-104773333D01*
X416093333Y-104773333D02*
X416093333Y-103373333D01*
X416560000Y-104373333D01*
X417026666Y-103373333D01*
X417026666Y-104773333D01*
X411748333Y-104773333D02*
X411748333Y-103373333D01*
X412081666Y-103373333D01*
X412281666Y-103440000D01*
X412415000Y-103573333D01*
X412481666Y-103706666D01*
X412548333Y-103973333D01*
X412548333Y-104173333D01*
X412481666Y-104440000D01*
X412415000Y-104573333D01*
X412281666Y-104706666D01*
X412081666Y-104773333D01*
X411748333Y-104773333D01*
X407336666Y-104373333D02*
X408003333Y-104373333D01*
X407203333Y-104773333D02*
X407670000Y-103373333D01*
X408136666Y-104773333D01*
D11*
X418465000Y-101600000D02*
X418465000Y-102870000D01*
X405765000Y-101600000D02*
X418465000Y-101600000D01*
X405765000Y-102870000D02*
X405765000Y-101600000D01*
D12*
X428695000Y-103840000D02*
X429761666Y-104240000D01*
X428695000Y-104640000D01*
X430695000Y-103373333D02*
X430828333Y-103373333D01*
X430961666Y-103440000D01*
X431028333Y-103506666D01*
X431095000Y-103640000D01*
X431161666Y-103906666D01*
X431161666Y-104240000D01*
X431095000Y-104506666D01*
X431028333Y-104640000D01*
X430961666Y-104706666D01*
X430828333Y-104773333D01*
X430695000Y-104773333D01*
X430561666Y-104706666D01*
X430495000Y-104640000D01*
X430428333Y-104506666D01*
X430361666Y-104240000D01*
X430361666Y-103906666D01*
X430428333Y-103640000D01*
X430495000Y-103506666D01*
X430561666Y-103440000D01*
X430695000Y-103373333D01*
X424250000Y-104040000D02*
X425316666Y-104040000D01*
X425316666Y-104440000D02*
X424250000Y-104440000D01*
X426250000Y-103373333D02*
X426383333Y-103373333D01*
X426516666Y-103440000D01*
X426583333Y-103506666D01*
X426650000Y-103640000D01*
X426716666Y-103906666D01*
X426716666Y-104240000D01*
X426650000Y-104506666D01*
X426583333Y-104640000D01*
X426516666Y-104706666D01*
X426383333Y-104773333D01*
X426250000Y-104773333D01*
X426116666Y-104706666D01*
X426050000Y-104640000D01*
X425983333Y-104506666D01*
X425916666Y-104240000D01*
X425916666Y-103906666D01*
X425983333Y-103640000D01*
X426050000Y-103506666D01*
X426116666Y-103440000D01*
X426250000Y-103373333D01*
X420871666Y-103840000D02*
X419805000Y-104240000D01*
X420871666Y-104640000D01*
X421805000Y-103373333D02*
X421938333Y-103373333D01*
X422071666Y-103440000D01*
X422138333Y-103506666D01*
X422205000Y-103640000D01*
X422271666Y-103906666D01*
X422271666Y-104240000D01*
X422205000Y-104506666D01*
X422138333Y-104640000D01*
X422071666Y-104706666D01*
X421938333Y-104773333D01*
X421805000Y-104773333D01*
X421671666Y-104706666D01*
X421605000Y-104640000D01*
X421538333Y-104506666D01*
X421471666Y-104240000D01*
X421471666Y-103906666D01*
X421538333Y-103640000D01*
X421605000Y-103506666D01*
X421671666Y-103440000D01*
X421805000Y-103373333D01*
D11*
X431800000Y-101600000D02*
X431800000Y-102870000D01*
X419100000Y-101600000D02*
X431800000Y-101600000D01*
X419100000Y-102870000D02*
X419100000Y-101600000D01*
D14*
X409941904Y-100464047D02*
X409941904Y-98764047D01*
X409941904Y-100383095D02*
X409780000Y-100464047D01*
X409456190Y-100464047D01*
X409294285Y-100383095D01*
X409213333Y-100302142D01*
X409132380Y-100140238D01*
X409132380Y-99654523D01*
X409213333Y-99492619D01*
X409294285Y-99411666D01*
X409456190Y-99330714D01*
X409780000Y-99330714D01*
X409941904Y-99411666D01*
X411399047Y-100383095D02*
X411237142Y-100464047D01*
X410913333Y-100464047D01*
X410751428Y-100383095D01*
X410670476Y-100221190D01*
X410670476Y-99573571D01*
X410751428Y-99411666D01*
X410913333Y-99330714D01*
X411237142Y-99330714D01*
X411399047Y-99411666D01*
X411480000Y-99573571D01*
X411480000Y-99735476D01*
X410670476Y-99897380D01*
X412127619Y-100383095D02*
X412289523Y-100464047D01*
X412613333Y-100464047D01*
X412775238Y-100383095D01*
X412856190Y-100221190D01*
X412856190Y-100140238D01*
X412775238Y-99978333D01*
X412613333Y-99897380D01*
X412370476Y-99897380D01*
X412208571Y-99816428D01*
X412127619Y-99654523D01*
X412127619Y-99573571D01*
X412208571Y-99411666D01*
X412370476Y-99330714D01*
X412613333Y-99330714D01*
X412775238Y-99411666D01*
X413341904Y-99330714D02*
X413989523Y-99330714D01*
X413584761Y-98764047D02*
X413584761Y-100221190D01*
X413665714Y-100383095D01*
X413827619Y-100464047D01*
X413989523Y-100464047D01*
X422778571Y-99330714D02*
X422778571Y-100787857D01*
X422697619Y-100949761D01*
X422535714Y-101030714D01*
X422454761Y-101030714D01*
X422778571Y-98764047D02*
X422697619Y-98845000D01*
X422778571Y-98925952D01*
X422859523Y-98845000D01*
X422778571Y-98764047D01*
X422778571Y-98925952D01*
X424316666Y-99330714D02*
X424316666Y-100464047D01*
X423588095Y-99330714D02*
X423588095Y-100221190D01*
X423669047Y-100383095D01*
X423830952Y-100464047D01*
X424073809Y-100464047D01*
X424235714Y-100383095D01*
X424316666Y-100302142D01*
X425126190Y-100464047D02*
X425126190Y-99330714D01*
X425126190Y-99492619D02*
X425207142Y-99411666D01*
X425369047Y-99330714D01*
X425611904Y-99330714D01*
X425773809Y-99411666D01*
X425854761Y-99573571D01*
X425854761Y-100464047D01*
X425854761Y-99573571D02*
X425935714Y-99411666D01*
X426097619Y-99330714D01*
X426340476Y-99330714D01*
X426502380Y-99411666D01*
X426583333Y-99573571D01*
X426583333Y-100464047D01*
X427392857Y-99330714D02*
X427392857Y-101030714D01*
X427392857Y-99411666D02*
X427554761Y-99330714D01*
X427878571Y-99330714D01*
X428040476Y-99411666D01*
X428121428Y-99492619D01*
X428202380Y-99654523D01*
X428202380Y-100140238D01*
X428121428Y-100302142D01*
X428040476Y-100383095D01*
X427878571Y-100464047D01*
X427554761Y-100464047D01*
X427392857Y-100383095D01*
X385386000Y-100383095D02*
X385224095Y-100464047D01*
X384900285Y-100464047D01*
X384738380Y-100383095D01*
X384657428Y-100302142D01*
X384576476Y-100140238D01*
X384576476Y-99654523D01*
X384657428Y-99492619D01*
X384738380Y-99411666D01*
X384900285Y-99330714D01*
X385224095Y-99330714D01*
X385386000Y-99411666D01*
X386357428Y-100464047D02*
X386195523Y-100383095D01*
X386114571Y-100302142D01*
X386033619Y-100140238D01*
X386033619Y-99654523D01*
X386114571Y-99492619D01*
X386195523Y-99411666D01*
X386357428Y-99330714D01*
X386600285Y-99330714D01*
X386762190Y-99411666D01*
X386843142Y-99492619D01*
X386924095Y-99654523D01*
X386924095Y-100140238D01*
X386843142Y-100302142D01*
X386762190Y-100383095D01*
X386600285Y-100464047D01*
X386357428Y-100464047D01*
X387652666Y-100464047D02*
X387652666Y-99330714D01*
X387652666Y-99492619D02*
X387733619Y-99411666D01*
X387895523Y-99330714D01*
X388138380Y-99330714D01*
X388300285Y-99411666D01*
X388381238Y-99573571D01*
X388381238Y-100464047D01*
X388381238Y-99573571D02*
X388462190Y-99411666D01*
X388624095Y-99330714D01*
X388866952Y-99330714D01*
X389028857Y-99411666D01*
X389109809Y-99573571D01*
X389109809Y-100464047D01*
X389919333Y-99330714D02*
X389919333Y-101030714D01*
X389919333Y-99411666D02*
X390081238Y-99330714D01*
X390405047Y-99330714D01*
X390566952Y-99411666D01*
X390647904Y-99492619D01*
X390728857Y-99654523D01*
X390728857Y-100140238D01*
X390647904Y-100302142D01*
X390566952Y-100383095D01*
X390405047Y-100464047D01*
X390081238Y-100464047D01*
X389919333Y-100383095D01*
X392186000Y-99330714D02*
X392186000Y-100464047D01*
X391457428Y-99330714D02*
X391457428Y-100221190D01*
X391538380Y-100383095D01*
X391700285Y-100464047D01*
X391943142Y-100464047D01*
X392105047Y-100383095D01*
X392186000Y-100302142D01*
X392752666Y-99330714D02*
X393400285Y-99330714D01*
X392995523Y-98764047D02*
X392995523Y-100221190D01*
X393076476Y-100383095D01*
X393238380Y-100464047D01*
X393400285Y-100464047D01*
X394614571Y-100383095D02*
X394452666Y-100464047D01*
X394128857Y-100464047D01*
X393966952Y-100383095D01*
X393886000Y-100221190D01*
X393886000Y-99573571D01*
X393966952Y-99411666D01*
X394128857Y-99330714D01*
X394452666Y-99330714D01*
X394614571Y-99411666D01*
X394695523Y-99573571D01*
X394695523Y-99735476D01*
X393886000Y-99897380D01*
D13*
X431324285Y-69207142D02*
X432038571Y-71207142D01*
X432752857Y-69207142D01*
X435467142Y-71207142D02*
X433752857Y-71207142D01*
X434610000Y-71207142D02*
X434610000Y-68207142D01*
X434324285Y-68635714D01*
X434038571Y-68921428D01*
X433752857Y-69064285D01*
X436752857Y-70921428D02*
X436895714Y-71064285D01*
X436752857Y-71207142D01*
X436610000Y-71064285D01*
X436752857Y-70921428D01*
X436752857Y-71207142D01*
X439752857Y-71207142D02*
X438038571Y-71207142D01*
X438895714Y-71207142D02*
X438895714Y-68207142D01*
X438610000Y-68635714D01*
X438324285Y-68921428D01*
X438038571Y-69064285D01*
D15*
X358652380Y-71564047D02*
X358652380Y-63564047D01*
X361319047Y-69278333D01*
X363985714Y-63564047D01*
X363985714Y-71564047D01*
X368938095Y-71564047D02*
X368176190Y-71183095D01*
X367795238Y-70802142D01*
X367414285Y-70040238D01*
X367414285Y-67754523D01*
X367795238Y-66992619D01*
X368176190Y-66611666D01*
X368938095Y-66230714D01*
X370080952Y-66230714D01*
X370842857Y-66611666D01*
X371223809Y-66992619D01*
X371604761Y-67754523D01*
X371604761Y-70040238D01*
X371223809Y-70802142D01*
X370842857Y-71183095D01*
X370080952Y-71564047D01*
X368938095Y-71564047D01*
X373890476Y-66230714D02*
X376938095Y-66230714D01*
X375033333Y-63564047D02*
X375033333Y-70421190D01*
X375414285Y-71183095D01*
X376176190Y-71564047D01*
X376938095Y-71564047D01*
X379604761Y-71564047D02*
X379604761Y-63564047D01*
X383033333Y-71564047D02*
X383033333Y-67373571D01*
X382652380Y-66611666D01*
X381890476Y-66230714D01*
X380747619Y-66230714D01*
X379985714Y-66611666D01*
X379604761Y-66992619D01*
X389890476Y-71183095D02*
X389128571Y-71564047D01*
X387604761Y-71564047D01*
X386842857Y-71183095D01*
X386461904Y-70421190D01*
X386461904Y-67373571D01*
X386842857Y-66611666D01*
X387604761Y-66230714D01*
X389128571Y-66230714D01*
X389890476Y-66611666D01*
X390271428Y-67373571D01*
X390271428Y-68135476D01*
X386461904Y-68897380D01*
X393700000Y-71564047D02*
X393700000Y-66230714D01*
X393700000Y-67754523D02*
X394080952Y-66992619D01*
X394461904Y-66611666D01*
X395223809Y-66230714D01*
X395985714Y-66230714D01*
X398652380Y-71564047D02*
X398652380Y-63564047D01*
X398652380Y-66611666D02*
X399414285Y-66230714D01*
X400938095Y-66230714D01*
X401700000Y-66611666D01*
X402080952Y-66992619D01*
X402461904Y-67754523D01*
X402461904Y-70040238D01*
X402080952Y-70802142D01*
X401700000Y-71183095D01*
X400938095Y-71564047D01*
X399414285Y-71564047D01*
X398652380Y-71183095D01*
X407033333Y-71564047D02*
X406271428Y-71183095D01*
X405890476Y-70802142D01*
X405509523Y-70040238D01*
X405509523Y-67754523D01*
X405890476Y-66992619D01*
X406271428Y-66611666D01*
X407033333Y-66230714D01*
X408176190Y-66230714D01*
X408938095Y-66611666D01*
X409319047Y-66992619D01*
X409700000Y-67754523D01*
X409700000Y-70040238D01*
X409319047Y-70802142D01*
X408938095Y-71183095D01*
X408176190Y-71564047D01*
X407033333Y-71564047D01*
X416557142Y-71564047D02*
X416557142Y-67373571D01*
X416176190Y-66611666D01*
X415414285Y-66230714D01*
X413890476Y-66230714D01*
X413128571Y-66611666D01*
X416557142Y-71183095D02*
X415795238Y-71564047D01*
X413890476Y-71564047D01*
X413128571Y-71183095D01*
X412747619Y-70421190D01*
X412747619Y-69659285D01*
X413128571Y-68897380D01*
X413890476Y-68516428D01*
X415795238Y-68516428D01*
X416557142Y-68135476D01*
X420366666Y-71564047D02*
X420366666Y-66230714D01*
X420366666Y-67754523D02*
X420747619Y-66992619D01*
X421128571Y-66611666D01*
X421890476Y-66230714D01*
X422652380Y-66230714D01*
X428747619Y-71564047D02*
X428747619Y-63564047D01*
X428747619Y-71183095D02*
X427985714Y-71564047D01*
X426461904Y-71564047D01*
X425700000Y-71183095D01*
X425319047Y-70802142D01*
X424938095Y-70040238D01*
X424938095Y-67754523D01*
X425319047Y-66992619D01*
X425700000Y-66611666D01*
X426461904Y-66230714D01*
X427985714Y-66230714D01*
X428747619Y-66611666D01*
D16*
G36*
X407162000Y-172212000D02*
G01*
X405976667Y-172212000D01*
X405976667Y-170857334D01*
X407162000Y-170857334D01*
X407162000Y-172212000D01*
G37*
X407162000Y-172212000D02*
X405976667Y-172212000D01*
X405976667Y-170857334D01*
X407162000Y-170857334D01*
X407162000Y-172212000D01*
G36*
X415713334Y-180086000D02*
G01*
X414528000Y-180086000D01*
X414528000Y-170857334D01*
X415713334Y-170857334D01*
X415713334Y-180086000D01*
G37*
X415713334Y-180086000D02*
X414528000Y-180086000D01*
X414528000Y-170857334D01*
X415713334Y-170857334D01*
X415713334Y-180086000D01*
G36*
X412474834Y-173290432D02*
G01*
X412750000Y-173331886D01*
X412750000Y-173882485D01*
X412746630Y-174177078D01*
X412727748Y-174336769D01*
X412680200Y-174395968D01*
X412590831Y-174389091D01*
X412559500Y-174380830D01*
X411949309Y-174279449D01*
X411399147Y-174321739D01*
X410923414Y-174504481D01*
X410536510Y-174824456D01*
X410527276Y-174835148D01*
X410381405Y-175015179D01*
X410265906Y-175190878D01*
X410176803Y-175384777D01*
X410110122Y-175619405D01*
X410061887Y-175917293D01*
X410028123Y-176300973D01*
X410004854Y-176792974D01*
X409988106Y-177415828D01*
X409978022Y-177948167D01*
X409941052Y-180086000D01*
X408855334Y-180086000D01*
X408855334Y-173397334D01*
X409956000Y-173397334D01*
X409956000Y-174413821D01*
X410267725Y-174068779D01*
X410518058Y-173830904D01*
X410796409Y-173622185D01*
X410915495Y-173552300D01*
X411283817Y-173414496D01*
X411731562Y-173317687D01*
X412176831Y-173275628D01*
X412474834Y-173290432D01*
G37*
X412474834Y-173290432D02*
X412750000Y-173331886D01*
X412750000Y-173882485D01*
X412746630Y-174177078D01*
X412727748Y-174336769D01*
X412680200Y-174395968D01*
X412590831Y-174389091D01*
X412559500Y-174380830D01*
X411949309Y-174279449D01*
X411399147Y-174321739D01*
X410923414Y-174504481D01*
X410536510Y-174824456D01*
X410527276Y-174835148D01*
X410381405Y-175015179D01*
X410265906Y-175190878D01*
X410176803Y-175384777D01*
X410110122Y-175619405D01*
X410061887Y-175917293D01*
X410028123Y-176300973D01*
X410004854Y-176792974D01*
X409988106Y-177415828D01*
X409978022Y-177948167D01*
X409941052Y-180086000D01*
X408855334Y-180086000D01*
X408855334Y-173397334D01*
X409956000Y-173397334D01*
X409956000Y-174413821D01*
X410267725Y-174068779D01*
X410518058Y-173830904D01*
X410796409Y-173622185D01*
X410915495Y-173552300D01*
X411283817Y-173414496D01*
X411731562Y-173317687D01*
X412176831Y-173275628D01*
X412474834Y-173290432D01*
G36*
X407141816Y-176762834D02*
G01*
X407163966Y-180086000D01*
X405974701Y-180086000D01*
X405996851Y-176762834D01*
X406019000Y-173439667D01*
X407119667Y-173439667D01*
X407141816Y-176762834D01*
G37*
X407141816Y-176762834D02*
X407163966Y-180086000D01*
X405974701Y-180086000D01*
X405996851Y-176762834D01*
X406019000Y-173439667D01*
X407119667Y-173439667D01*
X407141816Y-176762834D01*
G36*
X396078112Y-173429196D02*
G01*
X396263232Y-173504698D01*
X396691912Y-173765064D01*
X397017145Y-174118334D01*
X397262277Y-174593262D01*
X397348738Y-174841617D01*
X397397235Y-175014008D01*
X397435062Y-175197821D01*
X397463504Y-175416042D01*
X397483850Y-175691654D01*
X397497384Y-176047641D01*
X397505394Y-176506988D01*
X397509165Y-177092678D01*
X397510000Y-177722877D01*
X397510000Y-180086000D01*
X396421118Y-180086000D01*
X396394059Y-177694167D01*
X396385516Y-176991620D01*
X396376521Y-176437179D01*
X396365424Y-176009623D01*
X396350579Y-175687727D01*
X396330336Y-175450270D01*
X396303049Y-175276028D01*
X396267068Y-175143779D01*
X396220746Y-175032301D01*
X396181377Y-174955433D01*
X395946473Y-174619945D01*
X395648452Y-174406224D01*
X395248317Y-174290439D01*
X395054026Y-174266487D01*
X394495978Y-174292917D01*
X394001845Y-174468398D01*
X393591379Y-174778508D01*
X393284332Y-175208825D01*
X393113562Y-175683334D01*
X393088671Y-175876513D01*
X393066390Y-176209509D01*
X393047813Y-176652815D01*
X393034036Y-177176921D01*
X393026156Y-177752318D01*
X393024737Y-178075167D01*
X393022667Y-180086000D01*
X391922000Y-180086000D01*
X391922000Y-173397334D01*
X393022667Y-173397334D01*
X393022667Y-174443813D01*
X393321181Y-174095067D01*
X393759419Y-173707654D01*
X394288912Y-173440401D01*
X394874978Y-173300268D01*
X395482938Y-173294213D01*
X396078112Y-173429196D01*
G37*
X396078112Y-173429196D02*
X396263232Y-173504698D01*
X396691912Y-173765064D01*
X397017145Y-174118334D01*
X397262277Y-174593262D01*
X397348738Y-174841617D01*
X397397235Y-175014008D01*
X397435062Y-175197821D01*
X397463504Y-175416042D01*
X397483850Y-175691654D01*
X397497384Y-176047641D01*
X397505394Y-176506988D01*
X397509165Y-177092678D01*
X397510000Y-177722877D01*
X397510000Y-180086000D01*
X396421118Y-180086000D01*
X396394059Y-177694167D01*
X396385516Y-176991620D01*
X396376521Y-176437179D01*
X396365424Y-176009623D01*
X396350579Y-175687727D01*
X396330336Y-175450270D01*
X396303049Y-175276028D01*
X396267068Y-175143779D01*
X396220746Y-175032301D01*
X396181377Y-174955433D01*
X395946473Y-174619945D01*
X395648452Y-174406224D01*
X395248317Y-174290439D01*
X395054026Y-174266487D01*
X394495978Y-174292917D01*
X394001845Y-174468398D01*
X393591379Y-174778508D01*
X393284332Y-175208825D01*
X393113562Y-175683334D01*
X393088671Y-175876513D01*
X393066390Y-176209509D01*
X393047813Y-176652815D01*
X393034036Y-177176921D01*
X393026156Y-177752318D01*
X393024737Y-178075167D01*
X393022667Y-180086000D01*
X391922000Y-180086000D01*
X391922000Y-173397334D01*
X393022667Y-173397334D01*
X393022667Y-174443813D01*
X393321181Y-174095067D01*
X393759419Y-173707654D01*
X394288912Y-173440401D01*
X394874978Y-173300268D01*
X395482938Y-173294213D01*
X396078112Y-173429196D01*
G36*
X404452667Y-180086000D02*
G01*
X403352000Y-180086000D01*
X403350122Y-179197000D01*
X403133219Y-179472217D01*
X402926124Y-179681983D01*
X402652191Y-179895483D01*
X402526232Y-179976038D01*
X402292604Y-180096393D01*
X402057666Y-180170485D01*
X401763031Y-180211667D01*
X401410574Y-180231195D01*
X400876107Y-180227353D01*
X400479103Y-180173175D01*
X400367328Y-180139458D01*
X399830009Y-179850775D01*
X399362281Y-179417650D01*
X398978532Y-178855720D01*
X398771707Y-178404928D01*
X398657945Y-177992513D01*
X398578878Y-177472414D01*
X398538175Y-176903411D01*
X398538370Y-176820944D01*
X399692671Y-176820944D01*
X399737460Y-177412535D01*
X399850025Y-177966909D01*
X400026835Y-178447362D01*
X400264358Y-178817190D01*
X400358349Y-178911237D01*
X400764162Y-179163201D01*
X401246628Y-179303788D01*
X401746447Y-179322249D01*
X402139988Y-179234141D01*
X402466295Y-179042004D01*
X402784057Y-178736444D01*
X403044023Y-178368409D01*
X403117161Y-178223334D01*
X403225194Y-177872288D01*
X403300062Y-177410558D01*
X403338089Y-176894205D01*
X403335604Y-176379291D01*
X403288930Y-175921877D01*
X403273393Y-175839443D01*
X403098921Y-175312055D01*
X402821301Y-174854863D01*
X402467200Y-174508070D01*
X402333052Y-174421850D01*
X402103325Y-174311616D01*
X401876494Y-174258546D01*
X401583235Y-174250344D01*
X401409802Y-174258090D01*
X400907982Y-174339180D01*
X400514799Y-174532062D01*
X400199338Y-174857171D01*
X400000278Y-175189915D01*
X399820548Y-175672930D01*
X399719190Y-176228841D01*
X399692671Y-176820944D01*
X398538370Y-176820944D01*
X398539503Y-176344288D01*
X398586531Y-175853826D01*
X398605934Y-175748466D01*
X398820123Y-175054802D01*
X399149557Y-174444082D01*
X399577699Y-173938815D01*
X400088012Y-173561512D01*
X400284780Y-173463053D01*
X400815591Y-173310448D01*
X401389728Y-173284754D01*
X401964003Y-173377593D01*
X402495230Y-173580589D01*
X402940222Y-173885365D01*
X403054959Y-174000366D01*
X403352000Y-174329155D01*
X403352000Y-170857334D01*
X404452667Y-170857334D01*
X404452667Y-180086000D01*
G37*
X404452667Y-180086000D02*
X403352000Y-180086000D01*
X403350122Y-179197000D01*
X403133219Y-179472217D01*
X402926124Y-179681983D01*
X402652191Y-179895483D01*
X402526232Y-179976038D01*
X402292604Y-180096393D01*
X402057666Y-180170485D01*
X401763031Y-180211667D01*
X401410574Y-180231195D01*
X400876107Y-180227353D01*
X400479103Y-180173175D01*
X400367328Y-180139458D01*
X399830009Y-179850775D01*
X399362281Y-179417650D01*
X398978532Y-178855720D01*
X398771707Y-178404928D01*
X398657945Y-177992513D01*
X398578878Y-177472414D01*
X398538175Y-176903411D01*
X398538370Y-176820944D01*
X399692671Y-176820944D01*
X399737460Y-177412535D01*
X399850025Y-177966909D01*
X400026835Y-178447362D01*
X400264358Y-178817190D01*
X400358349Y-178911237D01*
X400764162Y-179163201D01*
X401246628Y-179303788D01*
X401746447Y-179322249D01*
X402139988Y-179234141D01*
X402466295Y-179042004D01*
X402784057Y-178736444D01*
X403044023Y-178368409D01*
X403117161Y-178223334D01*
X403225194Y-177872288D01*
X403300062Y-177410558D01*
X403338089Y-176894205D01*
X403335604Y-176379291D01*
X403288930Y-175921877D01*
X403273393Y-175839443D01*
X403098921Y-175312055D01*
X402821301Y-174854863D01*
X402467200Y-174508070D01*
X402333052Y-174421850D01*
X402103325Y-174311616D01*
X401876494Y-174258546D01*
X401583235Y-174250344D01*
X401409802Y-174258090D01*
X400907982Y-174339180D01*
X400514799Y-174532062D01*
X400199338Y-174857171D01*
X400000278Y-175189915D01*
X399820548Y-175672930D01*
X399719190Y-176228841D01*
X399692671Y-176820944D01*
X398538370Y-176820944D01*
X398539503Y-176344288D01*
X398586531Y-175853826D01*
X398605934Y-175748466D01*
X398820123Y-175054802D01*
X399149557Y-174444082D01*
X399577699Y-173938815D01*
X400088012Y-173561512D01*
X400284780Y-173463053D01*
X400815591Y-173310448D01*
X401389728Y-173284754D01*
X401964003Y-173377593D01*
X402495230Y-173580589D01*
X402940222Y-173885365D01*
X403054959Y-174000366D01*
X403352000Y-174329155D01*
X403352000Y-170857334D01*
X404452667Y-170857334D01*
X404452667Y-180086000D01*
G36*
X388151163Y-173345755D02*
G01*
X388780644Y-173513733D01*
X389312770Y-173782705D01*
X389725768Y-174148865D01*
X389732112Y-174156487D01*
X389892068Y-174369727D01*
X390020403Y-174595879D01*
X390120442Y-174855825D01*
X390195506Y-175170445D01*
X390248919Y-175560621D01*
X390284004Y-176047232D01*
X390304082Y-176651159D01*
X390312478Y-177393284D01*
X390313334Y-177808919D01*
X390313334Y-180086000D01*
X389212667Y-180086000D01*
X389212667Y-179204077D01*
X388852834Y-179551165D01*
X388529207Y-179837403D01*
X388229656Y-180028952D01*
X387903403Y-180145365D01*
X387499672Y-180206196D01*
X387096000Y-180227708D01*
X386609820Y-180227056D01*
X386227725Y-180195119D01*
X386006939Y-180144143D01*
X385630856Y-179939968D01*
X385270448Y-179639205D01*
X384984943Y-179295979D01*
X384886464Y-179120272D01*
X384776324Y-178744082D01*
X384727529Y-178281078D01*
X384731104Y-178144121D01*
X385826211Y-178144121D01*
X385884591Y-178531450D01*
X385991681Y-178769315D01*
X386241888Y-179051903D01*
X386562482Y-179224776D01*
X386983734Y-179300050D01*
X387323498Y-179302474D01*
X387676920Y-179277940D01*
X387928369Y-179224568D01*
X388144931Y-179123131D01*
X388297164Y-179023437D01*
X388690716Y-178647589D01*
X388980818Y-178153842D01*
X389154101Y-177567686D01*
X389186333Y-177328224D01*
X389239219Y-176761874D01*
X388019443Y-176801662D01*
X387408762Y-176830460D01*
X386941728Y-176876725D01*
X386592955Y-176947878D01*
X386337056Y-177051339D01*
X386148643Y-177194532D01*
X386002329Y-177384877D01*
X385997504Y-177392739D01*
X385863948Y-177741065D01*
X385826211Y-178144121D01*
X384731104Y-178144121D01*
X384740102Y-177799487D01*
X384814063Y-177367534D01*
X384885850Y-177165000D01*
X385138149Y-176760289D01*
X385489366Y-176436041D01*
X385951010Y-176187898D01*
X386534585Y-176011498D01*
X387251598Y-175902483D01*
X388113557Y-175856491D01*
X388344834Y-175854344D01*
X389212667Y-175852667D01*
X389212667Y-175638281D01*
X389132820Y-175235060D01*
X388912254Y-174859570D01*
X388579428Y-174546765D01*
X388162801Y-174331601D01*
X388143484Y-174325086D01*
X387842517Y-174270072D01*
X387407513Y-174253737D01*
X387061833Y-174265004D01*
X386660935Y-174296469D01*
X386321810Y-174350637D01*
X385985601Y-174442276D01*
X385593451Y-174586156D01*
X385296834Y-174707897D01*
X385214321Y-174724155D01*
X385169580Y-174662534D01*
X385151471Y-174489862D01*
X385148667Y-174266649D01*
X385157431Y-173990612D01*
X385204726Y-173807507D01*
X385322054Y-173684436D01*
X385540916Y-173588502D01*
X385892815Y-173486807D01*
X385896341Y-173485858D01*
X386687237Y-173328010D01*
X387446102Y-173282579D01*
X388151163Y-173345755D01*
G37*
X388151163Y-173345755D02*
X388780644Y-173513733D01*
X389312770Y-173782705D01*
X389725768Y-174148865D01*
X389732112Y-174156487D01*
X389892068Y-174369727D01*
X390020403Y-174595879D01*
X390120442Y-174855825D01*
X390195506Y-175170445D01*
X390248919Y-175560621D01*
X390284004Y-176047232D01*
X390304082Y-176651159D01*
X390312478Y-177393284D01*
X390313334Y-177808919D01*
X390313334Y-180086000D01*
X389212667Y-180086000D01*
X389212667Y-179204077D01*
X388852834Y-179551165D01*
X388529207Y-179837403D01*
X388229656Y-180028952D01*
X387903403Y-180145365D01*
X387499672Y-180206196D01*
X387096000Y-180227708D01*
X386609820Y-180227056D01*
X386227725Y-180195119D01*
X386006939Y-180144143D01*
X385630856Y-179939968D01*
X385270448Y-179639205D01*
X384984943Y-179295979D01*
X384886464Y-179120272D01*
X384776324Y-178744082D01*
X384727529Y-178281078D01*
X384731104Y-178144121D01*
X385826211Y-178144121D01*
X385884591Y-178531450D01*
X385991681Y-178769315D01*
X386241888Y-179051903D01*
X386562482Y-179224776D01*
X386983734Y-179300050D01*
X387323498Y-179302474D01*
X387676920Y-179277940D01*
X387928369Y-179224568D01*
X388144931Y-179123131D01*
X388297164Y-179023437D01*
X388690716Y-178647589D01*
X388980818Y-178153842D01*
X389154101Y-177567686D01*
X389186333Y-177328224D01*
X389239219Y-176761874D01*
X388019443Y-176801662D01*
X387408762Y-176830460D01*
X386941728Y-176876725D01*
X386592955Y-176947878D01*
X386337056Y-177051339D01*
X386148643Y-177194532D01*
X386002329Y-177384877D01*
X385997504Y-177392739D01*
X385863948Y-177741065D01*
X385826211Y-178144121D01*
X384731104Y-178144121D01*
X384740102Y-177799487D01*
X384814063Y-177367534D01*
X384885850Y-177165000D01*
X385138149Y-176760289D01*
X385489366Y-176436041D01*
X385951010Y-176187898D01*
X386534585Y-176011498D01*
X387251598Y-175902483D01*
X388113557Y-175856491D01*
X388344834Y-175854344D01*
X389212667Y-175852667D01*
X389212667Y-175638281D01*
X389132820Y-175235060D01*
X388912254Y-174859570D01*
X388579428Y-174546765D01*
X388162801Y-174331601D01*
X388143484Y-174325086D01*
X387842517Y-174270072D01*
X387407513Y-174253737D01*
X387061833Y-174265004D01*
X386660935Y-174296469D01*
X386321810Y-174350637D01*
X385985601Y-174442276D01*
X385593451Y-174586156D01*
X385296834Y-174707897D01*
X385214321Y-174724155D01*
X385169580Y-174662534D01*
X385151471Y-174489862D01*
X385148667Y-174266649D01*
X385157431Y-173990612D01*
X385204726Y-173807507D01*
X385322054Y-173684436D01*
X385540916Y-173588502D01*
X385892815Y-173486807D01*
X385896341Y-173485858D01*
X386687237Y-173328010D01*
X387446102Y-173282579D01*
X388151163Y-173345755D01*
G36*
X379249706Y-166322710D02*
G01*
X379378251Y-166450623D01*
X379449676Y-166692748D01*
X379475353Y-167072761D01*
X379476000Y-167166593D01*
X379480827Y-167467431D01*
X379507171Y-167646922D01*
X379572830Y-167753009D01*
X379695599Y-167833638D01*
X379730361Y-167851854D01*
X379936933Y-168006488D01*
X380146177Y-168234300D01*
X380204139Y-168314950D01*
X380339621Y-168555697D01*
X380394429Y-168784144D01*
X380389278Y-169087932D01*
X380388676Y-169095755D01*
X380357972Y-169375951D01*
X380317860Y-169598007D01*
X380294332Y-169673644D01*
X380300549Y-169760202D01*
X380413932Y-169858270D01*
X380656868Y-169984418D01*
X380802026Y-170049369D01*
X381434393Y-170410013D01*
X382016413Y-170904864D01*
X382519441Y-171500195D01*
X382914836Y-172162275D01*
X383168303Y-172835857D01*
X383197181Y-173026714D01*
X383222389Y-173354504D01*
X383243881Y-173797925D01*
X383261613Y-174335677D01*
X383275539Y-174946458D01*
X383285613Y-175608967D01*
X383291790Y-176301903D01*
X383294026Y-177003964D01*
X383292275Y-177693850D01*
X383286491Y-178350258D01*
X383276629Y-178951888D01*
X383262645Y-179477438D01*
X383244492Y-179905608D01*
X383222125Y-180215095D01*
X383195500Y-180384599D01*
X383184400Y-180407733D01*
X383040386Y-180462361D01*
X382750955Y-180497152D01*
X382340058Y-180509334D01*
X381597316Y-180509334D01*
X381550334Y-182922334D01*
X381220285Y-182949359D01*
X380958198Y-182939464D01*
X380819415Y-182864693D01*
X380792935Y-182741871D01*
X380770754Y-182485136D01*
X380754942Y-182129892D01*
X380747569Y-181711543D01*
X380747297Y-181631167D01*
X380746000Y-180509334D01*
X377359334Y-180509334D01*
X377359334Y-181603075D01*
X377355502Y-182026379D01*
X377345036Y-182395424D01*
X377329480Y-182673319D01*
X377310378Y-182823171D01*
X377307942Y-182830742D01*
X377200050Y-182911701D01*
X376997542Y-182960411D01*
X376773337Y-182969223D01*
X376600354Y-182930493D01*
X376569111Y-182908222D01*
X376548609Y-182807304D01*
X376531433Y-182569525D01*
X376519075Y-182227348D01*
X376513027Y-181813236D01*
X376512667Y-181680556D01*
X376512667Y-180509334D01*
X374140699Y-180509334D01*
X374143894Y-179749792D01*
X375912106Y-179749792D01*
X381127000Y-179705000D01*
X381127000Y-176572334D01*
X381125798Y-175679866D01*
X381120716Y-174938612D01*
X381109536Y-174330459D01*
X381090044Y-173837295D01*
X381060023Y-173441008D01*
X381017258Y-173123487D01*
X380959532Y-172866618D01*
X380884631Y-172652291D01*
X380790338Y-172462394D01*
X380674436Y-172278813D01*
X380586493Y-172154334D01*
X380260093Y-171806852D01*
X379856302Y-171573898D01*
X379351601Y-171445760D01*
X378789206Y-171412035D01*
X378403007Y-171421215D01*
X378117963Y-171454508D01*
X377866160Y-171526586D01*
X377579683Y-171652118D01*
X377501593Y-171690170D01*
X376934421Y-172048433D01*
X376497982Y-172507245D01*
X376174662Y-173085506D01*
X376153511Y-173136615D01*
X376103409Y-173266280D01*
X376062708Y-173395124D01*
X376030257Y-173542006D01*
X376004904Y-173725782D01*
X375985499Y-173965311D01*
X375970889Y-174279452D01*
X375959924Y-174687063D01*
X375951453Y-175207000D01*
X375944323Y-175858124D01*
X375937384Y-176659291D01*
X375937220Y-176679396D01*
X375912106Y-179749792D01*
X374143894Y-179749792D01*
X374162516Y-175323500D01*
X374184334Y-170137667D01*
X375877667Y-170137667D01*
X375902977Y-170574055D01*
X375928287Y-171010442D01*
X376241643Y-170717775D01*
X376471549Y-170539549D01*
X376794290Y-170334669D01*
X377146810Y-170142602D01*
X377209360Y-170112054D01*
X377542867Y-169942843D01*
X377737104Y-169817566D01*
X377811742Y-169721743D01*
X377807138Y-169672000D01*
X377770129Y-169519332D01*
X377736324Y-169264946D01*
X377720869Y-169079334D01*
X377722498Y-169056814D01*
X378460000Y-169056814D01*
X378528459Y-169274169D01*
X378696589Y-169486542D01*
X378908523Y-169635943D01*
X379052667Y-169672000D01*
X379232125Y-169614487D01*
X379426489Y-169474971D01*
X379437515Y-169464182D01*
X379612177Y-169202176D01*
X379617990Y-168937669D01*
X379461242Y-168682624D01*
X379222098Y-168530138D01*
X378956207Y-168509034D01*
X378709766Y-168602046D01*
X378528971Y-168791910D01*
X378460000Y-169056814D01*
X377722498Y-169056814D01*
X377754714Y-168611549D01*
X377927504Y-168235747D01*
X378246906Y-167936954D01*
X378333768Y-167882329D01*
X378493307Y-167779807D01*
X378581745Y-167676567D01*
X378620042Y-167521414D01*
X378629156Y-167263155D01*
X378629334Y-167160404D01*
X378647600Y-166751684D01*
X378710009Y-166485505D01*
X378827978Y-166338267D01*
X379012924Y-166286372D01*
X379052667Y-166285334D01*
X379249706Y-166322710D01*
G37*
X379249706Y-166322710D02*
X379378251Y-166450623D01*
X379449676Y-166692748D01*
X379475353Y-167072761D01*
X379476000Y-167166593D01*
X379480827Y-167467431D01*
X379507171Y-167646922D01*
X379572830Y-167753009D01*
X379695599Y-167833638D01*
X379730361Y-167851854D01*
X379936933Y-168006488D01*
X380146177Y-168234300D01*
X380204139Y-168314950D01*
X380339621Y-168555697D01*
X380394429Y-168784144D01*
X380389278Y-169087932D01*
X380388676Y-169095755D01*
X380357972Y-169375951D01*
X380317860Y-169598007D01*
X380294332Y-169673644D01*
X380300549Y-169760202D01*
X380413932Y-169858270D01*
X380656868Y-169984418D01*
X380802026Y-170049369D01*
X381434393Y-170410013D01*
X382016413Y-170904864D01*
X382519441Y-171500195D01*
X382914836Y-172162275D01*
X383168303Y-172835857D01*
X383197181Y-173026714D01*
X383222389Y-173354504D01*
X383243881Y-173797925D01*
X383261613Y-174335677D01*
X383275539Y-174946458D01*
X383285613Y-175608967D01*
X383291790Y-176301903D01*
X383294026Y-177003964D01*
X383292275Y-177693850D01*
X383286491Y-178350258D01*
X383276629Y-178951888D01*
X383262645Y-179477438D01*
X383244492Y-179905608D01*
X383222125Y-180215095D01*
X383195500Y-180384599D01*
X383184400Y-180407733D01*
X383040386Y-180462361D01*
X382750955Y-180497152D01*
X382340058Y-180509334D01*
X381597316Y-180509334D01*
X381550334Y-182922334D01*
X381220285Y-182949359D01*
X380958198Y-182939464D01*
X380819415Y-182864693D01*
X380792935Y-182741871D01*
X380770754Y-182485136D01*
X380754942Y-182129892D01*
X380747569Y-181711543D01*
X380747297Y-181631167D01*
X380746000Y-180509334D01*
X377359334Y-180509334D01*
X377359334Y-181603075D01*
X377355502Y-182026379D01*
X377345036Y-182395424D01*
X377329480Y-182673319D01*
X377310378Y-182823171D01*
X377307942Y-182830742D01*
X377200050Y-182911701D01*
X376997542Y-182960411D01*
X376773337Y-182969223D01*
X376600354Y-182930493D01*
X376569111Y-182908222D01*
X376548609Y-182807304D01*
X376531433Y-182569525D01*
X376519075Y-182227348D01*
X376513027Y-181813236D01*
X376512667Y-181680556D01*
X376512667Y-180509334D01*
X374140699Y-180509334D01*
X374143894Y-179749792D01*
X375912106Y-179749792D01*
X381127000Y-179705000D01*
X381127000Y-176572334D01*
X381125798Y-175679866D01*
X381120716Y-174938612D01*
X381109536Y-174330459D01*
X381090044Y-173837295D01*
X381060023Y-173441008D01*
X381017258Y-173123487D01*
X380959532Y-172866618D01*
X380884631Y-172652291D01*
X380790338Y-172462394D01*
X380674436Y-172278813D01*
X380586493Y-172154334D01*
X380260093Y-171806852D01*
X379856302Y-171573898D01*
X379351601Y-171445760D01*
X378789206Y-171412035D01*
X378403007Y-171421215D01*
X378117963Y-171454508D01*
X377866160Y-171526586D01*
X377579683Y-171652118D01*
X377501593Y-171690170D01*
X376934421Y-172048433D01*
X376497982Y-172507245D01*
X376174662Y-173085506D01*
X376153511Y-173136615D01*
X376103409Y-173266280D01*
X376062708Y-173395124D01*
X376030257Y-173542006D01*
X376004904Y-173725782D01*
X375985499Y-173965311D01*
X375970889Y-174279452D01*
X375959924Y-174687063D01*
X375951453Y-175207000D01*
X375944323Y-175858124D01*
X375937384Y-176659291D01*
X375937220Y-176679396D01*
X375912106Y-179749792D01*
X374143894Y-179749792D01*
X374162516Y-175323500D01*
X374184334Y-170137667D01*
X375877667Y-170137667D01*
X375902977Y-170574055D01*
X375928287Y-171010442D01*
X376241643Y-170717775D01*
X376471549Y-170539549D01*
X376794290Y-170334669D01*
X377146810Y-170142602D01*
X377209360Y-170112054D01*
X377542867Y-169942843D01*
X377737104Y-169817566D01*
X377811742Y-169721743D01*
X377807138Y-169672000D01*
X377770129Y-169519332D01*
X377736324Y-169264946D01*
X377720869Y-169079334D01*
X377722498Y-169056814D01*
X378460000Y-169056814D01*
X378528459Y-169274169D01*
X378696589Y-169486542D01*
X378908523Y-169635943D01*
X379052667Y-169672000D01*
X379232125Y-169614487D01*
X379426489Y-169474971D01*
X379437515Y-169464182D01*
X379612177Y-169202176D01*
X379617990Y-168937669D01*
X379461242Y-168682624D01*
X379222098Y-168530138D01*
X378956207Y-168509034D01*
X378709766Y-168602046D01*
X378528971Y-168791910D01*
X378460000Y-169056814D01*
X377722498Y-169056814D01*
X377754714Y-168611549D01*
X377927504Y-168235747D01*
X378246906Y-167936954D01*
X378333768Y-167882329D01*
X378493307Y-167779807D01*
X378581745Y-167676567D01*
X378620042Y-167521414D01*
X378629156Y-167263155D01*
X378629334Y-167160404D01*
X378647600Y-166751684D01*
X378710009Y-166485505D01*
X378827978Y-166338267D01*
X379012924Y-166286372D01*
X379052667Y-166285334D01*
X379249706Y-166322710D01*
D11*
X374650000Y-267970000D02*
X379730000Y-267970000D01*
X374650000Y-260350000D02*
X374650000Y-267970000D01*
X379730000Y-260350000D02*
X374650000Y-260350000D01*
X379730000Y-267970000D02*
X379730000Y-260350000D01*
X358415000Y-114267064D02*
X358415000Y-113062936D01*
X356595000Y-114267064D02*
X356595000Y-113062936D01*
X358415000Y-104107064D02*
X358415000Y-102902936D01*
X356595000Y-104107064D02*
X356595000Y-102902936D01*
X366755000Y-91472936D02*
X366755000Y-92677064D01*
X368575000Y-91472936D02*
X368575000Y-92677064D01*
X371200000Y-91472936D02*
X371200000Y-92677064D01*
X373020000Y-91472936D02*
X373020000Y-92677064D01*
X375645000Y-91472936D02*
X375645000Y-92677064D01*
X377465000Y-91472936D02*
X377465000Y-92677064D01*
X380090000Y-91472936D02*
X380090000Y-92677064D01*
X381910000Y-91472936D02*
X381910000Y-92677064D01*
X384535000Y-91472936D02*
X384535000Y-92677064D01*
X386355000Y-91472936D02*
X386355000Y-92677064D01*
X388980000Y-91472936D02*
X388980000Y-92677064D01*
X390800000Y-91472936D02*
X390800000Y-92677064D01*
X393425000Y-91472936D02*
X393425000Y-92677064D01*
X395245000Y-91472936D02*
X395245000Y-92677064D01*
X397870000Y-91472936D02*
X397870000Y-92677064D01*
X399690000Y-91472936D02*
X399690000Y-92677064D01*
X402315000Y-91472936D02*
X402315000Y-92677064D01*
X404135000Y-91472936D02*
X404135000Y-92677064D01*
X406760000Y-91472936D02*
X406760000Y-92677064D01*
X408580000Y-91472936D02*
X408580000Y-92677064D01*
X411205000Y-91472936D02*
X411205000Y-92677064D01*
X413025000Y-91472936D02*
X413025000Y-92677064D01*
X415650000Y-91472936D02*
X415650000Y-92677064D01*
X417470000Y-91472936D02*
X417470000Y-92677064D01*
X420095000Y-91472936D02*
X420095000Y-92677064D01*
X421915000Y-91472936D02*
X421915000Y-92677064D01*
X424540000Y-91472936D02*
X424540000Y-92677064D01*
X426360000Y-91472936D02*
X426360000Y-92677064D01*
X428985000Y-91472936D02*
X428985000Y-92677064D01*
X430805000Y-91472936D02*
X430805000Y-92677064D01*
X360180000Y-111380000D02*
X360180000Y-115265000D01*
X362450000Y-111380000D02*
X360180000Y-111380000D01*
X362450000Y-115265000D02*
X362450000Y-111380000D01*
X360180000Y-101220000D02*
X360180000Y-105105000D01*
X362450000Y-101220000D02*
X360180000Y-101220000D01*
X362450000Y-105105000D02*
X362450000Y-101220000D01*
X366530000Y-106300000D02*
X366530000Y-110185000D01*
X368800000Y-106300000D02*
X366530000Y-106300000D01*
X368800000Y-110185000D02*
X368800000Y-106300000D01*
X370975000Y-106300000D02*
X370975000Y-110185000D01*
X373245000Y-106300000D02*
X370975000Y-106300000D01*
X373245000Y-110185000D02*
X373245000Y-106300000D01*
X375420000Y-106300000D02*
X375420000Y-110185000D01*
X377690000Y-106300000D02*
X375420000Y-106300000D01*
X377690000Y-110185000D02*
X377690000Y-106300000D01*
X379865000Y-106300000D02*
X379865000Y-110185000D01*
X382135000Y-106300000D02*
X379865000Y-106300000D01*
X382135000Y-110185000D02*
X382135000Y-106300000D01*
X384310000Y-106300000D02*
X384310000Y-110185000D01*
X386580000Y-106300000D02*
X384310000Y-106300000D01*
X386580000Y-110185000D02*
X386580000Y-106300000D01*
X388755000Y-106300000D02*
X388755000Y-110185000D01*
X391025000Y-106300000D02*
X388755000Y-106300000D01*
X391025000Y-110185000D02*
X391025000Y-106300000D01*
X393200000Y-106300000D02*
X393200000Y-110185000D01*
X395470000Y-106300000D02*
X393200000Y-106300000D01*
X395470000Y-110185000D02*
X395470000Y-106300000D01*
X397645000Y-106300000D02*
X397645000Y-110185000D01*
X399915000Y-106300000D02*
X397645000Y-106300000D01*
X399915000Y-110185000D02*
X399915000Y-106300000D01*
X402090000Y-106300000D02*
X402090000Y-110185000D01*
X404360000Y-106300000D02*
X402090000Y-106300000D01*
X404360000Y-110185000D02*
X404360000Y-106300000D01*
X406535000Y-106300000D02*
X406535000Y-110185000D01*
X408805000Y-106300000D02*
X406535000Y-106300000D01*
X408805000Y-110185000D02*
X408805000Y-106300000D01*
X410980000Y-106300000D02*
X410980000Y-110185000D01*
X413250000Y-106300000D02*
X410980000Y-106300000D01*
X413250000Y-110185000D02*
X413250000Y-106300000D01*
X415425000Y-106300000D02*
X415425000Y-110185000D01*
X417695000Y-106300000D02*
X415425000Y-106300000D01*
X417695000Y-110185000D02*
X417695000Y-106300000D01*
X419870000Y-106300000D02*
X419870000Y-110185000D01*
X422140000Y-106300000D02*
X419870000Y-106300000D01*
X422140000Y-110185000D02*
X422140000Y-106300000D01*
X424315000Y-106300000D02*
X424315000Y-110185000D01*
X426585000Y-106300000D02*
X424315000Y-106300000D01*
X426585000Y-110185000D02*
X426585000Y-106300000D01*
X428760000Y-106300000D02*
X428760000Y-110185000D01*
X431030000Y-106300000D02*
X428760000Y-106300000D01*
X431030000Y-110185000D02*
X431030000Y-106300000D01*
X335280000Y-46771325D02*
X335530000Y-47204338D01*
X335030000Y-47204338D02*
X335280000Y-46771325D01*
X335530000Y-47204338D02*
X335030000Y-47204338D01*
X325450000Y-46310000D02*
X325450000Y-33970000D01*
X394970000Y-46310000D02*
X325450000Y-46310000D01*
X394970000Y-33970000D02*
X394970000Y-46310000D01*
X411480000Y-46771325D02*
X411730000Y-47204338D01*
X411230000Y-47204338D02*
X411480000Y-46771325D01*
X411730000Y-47204338D02*
X411230000Y-47204338D01*
X401650000Y-46310000D02*
X401650000Y-33970000D01*
X471170000Y-46310000D02*
X401650000Y-46310000D01*
X471170000Y-33970000D02*
X471170000Y-46310000D01*
X349250000Y-307558675D02*
X349000000Y-307125662D01*
X349500000Y-307125662D02*
X349250000Y-307558675D01*
X349000000Y-307125662D02*
X349500000Y-307125662D01*
X359195000Y-308020000D02*
X359195000Y-320360000D01*
X328225000Y-308020000D02*
X359195000Y-308020000D01*
X328225000Y-320360000D02*
X328225000Y-308020000D01*
X317281325Y-306070000D02*
X317714338Y-305820000D01*
X317714338Y-306320000D02*
X317281325Y-306070000D01*
X317714338Y-305820000D02*
X317714338Y-306320000D01*
X316820000Y-316060000D02*
X304480000Y-316060000D01*
X316820000Y-262840000D02*
X316820000Y-316060000D01*
X304480000Y-262840000D02*
X316820000Y-262840000D01*
X317281325Y-247650000D02*
X317714338Y-247400000D01*
X317714338Y-247900000D02*
X317281325Y-247650000D01*
X317714338Y-247400000D02*
X317714338Y-247900000D01*
X316820000Y-257480000D02*
X304480000Y-257480000D01*
X316820000Y-187960000D02*
X316820000Y-257480000D01*
X304480000Y-187960000D02*
X316820000Y-187960000D01*
X317281325Y-168910000D02*
X317714338Y-168660000D01*
X317714338Y-169160000D02*
X317281325Y-168910000D01*
X317714338Y-168660000D02*
X317714338Y-169160000D01*
X316820000Y-178900000D02*
X304480000Y-178900000D01*
X316820000Y-125680000D02*
X316820000Y-178900000D01*
X304480000Y-125680000D02*
X316820000Y-125680000D01*
X317281325Y-111760000D02*
X317714338Y-111510000D01*
X317714338Y-112010000D02*
X317281325Y-111760000D01*
X317714338Y-111510000D02*
X317714338Y-112010000D01*
X316820000Y-121590000D02*
X304480000Y-121590000D01*
X316820000Y-52070000D02*
X316820000Y-121590000D01*
X304480000Y-52070000D02*
X316820000Y-52070000D01*
X458470000Y-307558675D02*
X458220000Y-307125662D01*
X458720000Y-307125662D02*
X458470000Y-307558675D01*
X458220000Y-307125662D02*
X458720000Y-307125662D01*
X468300000Y-308020000D02*
X468300000Y-320360000D01*
X398780000Y-308020000D02*
X468300000Y-308020000D01*
X398780000Y-320360000D02*
X398780000Y-308020000D01*
X476468675Y-229870000D02*
X476035662Y-230120000D01*
X476035662Y-229620000D02*
X476468675Y-229870000D01*
X476035662Y-230120000D02*
X476035662Y-229620000D01*
X476930000Y-220040000D02*
X489270000Y-220040000D01*
X476930000Y-289560000D02*
X476930000Y-220040000D01*
X489270000Y-289560000D02*
X476930000Y-289560000D01*
X476468675Y-62230000D02*
X476035662Y-62480000D01*
X476035662Y-61980000D02*
X476468675Y-62230000D01*
X476035662Y-62480000D02*
X476035662Y-61980000D01*
X476930000Y-52400000D02*
X489270000Y-52400000D01*
X476930000Y-121920000D02*
X476930000Y-52400000D01*
X489270000Y-121920000D02*
X476930000Y-121920000D01*
X476468675Y-146050000D02*
X476035662Y-146300000D01*
X476035662Y-145800000D02*
X476468675Y-146050000D01*
X476035662Y-146300000D02*
X476035662Y-145800000D01*
X476930000Y-136220000D02*
X489270000Y-136220000D01*
X476930000Y-205740000D02*
X476930000Y-136220000D01*
X489270000Y-205740000D02*
X476930000Y-205740000D01*
D13*
X453605000Y-206925000D02*
X453605000Y-207050000D01*
X458255000Y-206925000D02*
X458255000Y-207150000D01*
X458255000Y-212175000D02*
X458255000Y-211950000D01*
X453605000Y-212175000D02*
X453605000Y-211950000D01*
X453605000Y-206925000D02*
X458255000Y-206925000D01*
X453605000Y-212175000D02*
X458255000Y-212175000D01*
X453605000Y-207050000D02*
X452255000Y-207050000D01*
X341845000Y-148505000D02*
X341845000Y-148630000D01*
X346495000Y-148505000D02*
X346495000Y-148730000D01*
X346495000Y-153755000D02*
X346495000Y-153530000D01*
X341845000Y-153755000D02*
X341845000Y-153530000D01*
X341845000Y-148505000D02*
X346495000Y-148505000D01*
X341845000Y-153755000D02*
X346495000Y-153755000D01*
X341845000Y-148630000D02*
X340495000Y-148630000D01*
X389470000Y-274235000D02*
X389470000Y-274360000D01*
X394120000Y-274235000D02*
X394120000Y-274460000D01*
X394120000Y-279485000D02*
X394120000Y-279260000D01*
X389470000Y-279485000D02*
X389470000Y-279260000D01*
X389470000Y-274235000D02*
X394120000Y-274235000D01*
X389470000Y-279485000D02*
X394120000Y-279485000D01*
X389470000Y-274360000D02*
X388120000Y-274360000D01*
X380580000Y-274235000D02*
X380580000Y-274360000D01*
X385230000Y-274235000D02*
X385230000Y-274460000D01*
X385230000Y-279485000D02*
X385230000Y-279260000D01*
X380580000Y-279485000D02*
X380580000Y-279260000D01*
X380580000Y-274235000D02*
X385230000Y-274235000D01*
X380580000Y-279485000D02*
X385230000Y-279485000D01*
X380580000Y-274360000D02*
X379230000Y-274360000D01*
X371690000Y-274235000D02*
X371690000Y-274360000D01*
X376340000Y-274235000D02*
X376340000Y-274460000D01*
X376340000Y-279485000D02*
X376340000Y-279260000D01*
X371690000Y-279485000D02*
X371690000Y-279260000D01*
X371690000Y-274235000D02*
X376340000Y-274235000D01*
X371690000Y-279485000D02*
X376340000Y-279485000D01*
X371690000Y-274360000D02*
X370340000Y-274360000D01*
X362800000Y-274235000D02*
X362800000Y-274360000D01*
X367450000Y-274235000D02*
X367450000Y-274460000D01*
X367450000Y-279485000D02*
X367450000Y-279260000D01*
X362800000Y-279485000D02*
X362800000Y-279260000D01*
X362800000Y-274235000D02*
X367450000Y-274235000D01*
X362800000Y-279485000D02*
X367450000Y-279485000D01*
X362800000Y-274360000D02*
X361450000Y-274360000D01*
X453605000Y-112435000D02*
X452255000Y-112435000D01*
X453605000Y-117560000D02*
X458255000Y-117560000D01*
X453605000Y-112310000D02*
X458255000Y-112310000D01*
X453605000Y-117560000D02*
X453605000Y-117335000D01*
X458255000Y-117560000D02*
X458255000Y-117335000D01*
X458255000Y-112310000D02*
X458255000Y-112535000D01*
X453605000Y-112310000D02*
X453605000Y-112435000D01*
X453605000Y-119420000D02*
X452255000Y-119420000D01*
X453605000Y-124545000D02*
X458255000Y-124545000D01*
X453605000Y-119295000D02*
X458255000Y-119295000D01*
X453605000Y-124545000D02*
X453605000Y-124320000D01*
X458255000Y-124545000D02*
X458255000Y-124320000D01*
X458255000Y-119295000D02*
X458255000Y-119520000D01*
X453605000Y-119295000D02*
X453605000Y-119420000D01*
X453605000Y-126405000D02*
X452255000Y-126405000D01*
X453605000Y-131530000D02*
X458255000Y-131530000D01*
X453605000Y-126280000D02*
X458255000Y-126280000D01*
X453605000Y-131530000D02*
X453605000Y-131305000D01*
X458255000Y-131530000D02*
X458255000Y-131305000D01*
X458255000Y-126280000D02*
X458255000Y-126505000D01*
X453605000Y-126280000D02*
X453605000Y-126405000D01*
X453605000Y-133390000D02*
X452255000Y-133390000D01*
X453605000Y-138515000D02*
X458255000Y-138515000D01*
X453605000Y-133265000D02*
X458255000Y-133265000D01*
X453605000Y-138515000D02*
X453605000Y-138290000D01*
X458255000Y-138515000D02*
X458255000Y-138290000D01*
X458255000Y-133265000D02*
X458255000Y-133490000D01*
X453605000Y-133265000D02*
X453605000Y-133390000D01*
X453605000Y-140375000D02*
X452255000Y-140375000D01*
X453605000Y-145500000D02*
X458255000Y-145500000D01*
X453605000Y-140250000D02*
X458255000Y-140250000D01*
X453605000Y-145500000D02*
X453605000Y-145275000D01*
X458255000Y-145500000D02*
X458255000Y-145275000D01*
X458255000Y-140250000D02*
X458255000Y-140475000D01*
X453605000Y-140250000D02*
X453605000Y-140375000D01*
X453605000Y-147360000D02*
X452255000Y-147360000D01*
X453605000Y-152485000D02*
X458255000Y-152485000D01*
X453605000Y-147235000D02*
X458255000Y-147235000D01*
X453605000Y-152485000D02*
X453605000Y-152260000D01*
X458255000Y-152485000D02*
X458255000Y-152260000D01*
X458255000Y-147235000D02*
X458255000Y-147460000D01*
X453605000Y-147235000D02*
X453605000Y-147360000D01*
X453605000Y-154345000D02*
X452255000Y-154345000D01*
X453605000Y-159470000D02*
X458255000Y-159470000D01*
X453605000Y-154220000D02*
X458255000Y-154220000D01*
X453605000Y-159470000D02*
X453605000Y-159245000D01*
X458255000Y-159470000D02*
X458255000Y-159245000D01*
X458255000Y-154220000D02*
X458255000Y-154445000D01*
X453605000Y-154220000D02*
X453605000Y-154345000D01*
X453605000Y-161330000D02*
X452255000Y-161330000D01*
X453605000Y-166455000D02*
X458255000Y-166455000D01*
X453605000Y-161205000D02*
X458255000Y-161205000D01*
X453605000Y-166455000D02*
X453605000Y-166230000D01*
X458255000Y-166455000D02*
X458255000Y-166230000D01*
X458255000Y-161205000D02*
X458255000Y-161430000D01*
X453605000Y-161205000D02*
X453605000Y-161330000D01*
X453605000Y-168315000D02*
X452255000Y-168315000D01*
X453605000Y-173440000D02*
X458255000Y-173440000D01*
X453605000Y-168190000D02*
X458255000Y-168190000D01*
X453605000Y-173440000D02*
X453605000Y-173215000D01*
X458255000Y-173440000D02*
X458255000Y-173215000D01*
X458255000Y-168190000D02*
X458255000Y-168415000D01*
X453605000Y-168190000D02*
X453605000Y-168315000D01*
X453605000Y-175300000D02*
X452255000Y-175300000D01*
X453605000Y-180425000D02*
X458255000Y-180425000D01*
X453605000Y-175175000D02*
X458255000Y-175175000D01*
X453605000Y-180425000D02*
X453605000Y-180200000D01*
X458255000Y-180425000D02*
X458255000Y-180200000D01*
X458255000Y-175175000D02*
X458255000Y-175400000D01*
X453605000Y-175175000D02*
X453605000Y-175300000D01*
X453605000Y-182285000D02*
X452255000Y-182285000D01*
X453605000Y-187410000D02*
X458255000Y-187410000D01*
X453605000Y-182160000D02*
X458255000Y-182160000D01*
X453605000Y-187410000D02*
X453605000Y-187185000D01*
X458255000Y-187410000D02*
X458255000Y-187185000D01*
X458255000Y-182160000D02*
X458255000Y-182385000D01*
X453605000Y-182160000D02*
X453605000Y-182285000D01*
X453605000Y-189270000D02*
X452255000Y-189270000D01*
X453605000Y-194395000D02*
X458255000Y-194395000D01*
X453605000Y-189145000D02*
X458255000Y-189145000D01*
X453605000Y-194395000D02*
X453605000Y-194170000D01*
X458255000Y-194395000D02*
X458255000Y-194170000D01*
X458255000Y-189145000D02*
X458255000Y-189370000D01*
X453605000Y-189145000D02*
X453605000Y-189270000D01*
X453605000Y-196255000D02*
X452255000Y-196255000D01*
X453605000Y-201380000D02*
X458255000Y-201380000D01*
X453605000Y-196130000D02*
X458255000Y-196130000D01*
X453605000Y-201380000D02*
X453605000Y-201155000D01*
X458255000Y-201380000D02*
X458255000Y-201155000D01*
X458255000Y-196130000D02*
X458255000Y-196355000D01*
X453605000Y-196130000D02*
X453605000Y-196255000D01*
X346495000Y-179665000D02*
X347845000Y-179665000D01*
X346495000Y-174540000D02*
X341845000Y-174540000D01*
X346495000Y-179790000D02*
X341845000Y-179790000D01*
X346495000Y-174540000D02*
X346495000Y-174765000D01*
X341845000Y-174540000D02*
X341845000Y-174765000D01*
X341845000Y-179790000D02*
X341845000Y-179565000D01*
X346495000Y-179790000D02*
X346495000Y-179665000D01*
X346495000Y-187920000D02*
X347845000Y-187920000D01*
X346495000Y-182795000D02*
X341845000Y-182795000D01*
X346495000Y-188045000D02*
X341845000Y-188045000D01*
X346495000Y-182795000D02*
X346495000Y-183020000D01*
X341845000Y-182795000D02*
X341845000Y-183020000D01*
X341845000Y-188045000D02*
X341845000Y-187820000D01*
X346495000Y-188045000D02*
X346495000Y-187920000D01*
X346495000Y-196175000D02*
X347845000Y-196175000D01*
X346495000Y-191050000D02*
X341845000Y-191050000D01*
X346495000Y-196300000D02*
X341845000Y-196300000D01*
X346495000Y-191050000D02*
X346495000Y-191275000D01*
X341845000Y-191050000D02*
X341845000Y-191275000D01*
X341845000Y-196300000D02*
X341845000Y-196075000D01*
X346495000Y-196300000D02*
X346495000Y-196175000D01*
X346495000Y-204430000D02*
X347845000Y-204430000D01*
X346495000Y-199305000D02*
X341845000Y-199305000D01*
X346495000Y-204555000D02*
X341845000Y-204555000D01*
X346495000Y-199305000D02*
X346495000Y-199530000D01*
X341845000Y-199305000D02*
X341845000Y-199530000D01*
X341845000Y-204555000D02*
X341845000Y-204330000D01*
X346495000Y-204555000D02*
X346495000Y-204430000D01*
X346495000Y-212685000D02*
X347845000Y-212685000D01*
X346495000Y-207560000D02*
X341845000Y-207560000D01*
X346495000Y-212810000D02*
X341845000Y-212810000D01*
X346495000Y-207560000D02*
X346495000Y-207785000D01*
X341845000Y-207560000D02*
X341845000Y-207785000D01*
X341845000Y-212810000D02*
X341845000Y-212585000D01*
X346495000Y-212810000D02*
X346495000Y-212685000D01*
X346495000Y-220940000D02*
X347845000Y-220940000D01*
X346495000Y-215815000D02*
X341845000Y-215815000D01*
X346495000Y-221065000D02*
X341845000Y-221065000D01*
X346495000Y-215815000D02*
X346495000Y-216040000D01*
X341845000Y-215815000D02*
X341845000Y-216040000D01*
X341845000Y-221065000D02*
X341845000Y-220840000D01*
X346495000Y-221065000D02*
X346495000Y-220940000D01*
X346495000Y-229195000D02*
X347845000Y-229195000D01*
X346495000Y-224070000D02*
X341845000Y-224070000D01*
X346495000Y-229320000D02*
X341845000Y-229320000D01*
X346495000Y-224070000D02*
X346495000Y-224295000D01*
X341845000Y-224070000D02*
X341845000Y-224295000D01*
X341845000Y-229320000D02*
X341845000Y-229095000D01*
X346495000Y-229320000D02*
X346495000Y-229195000D01*
X346495000Y-237450000D02*
X347845000Y-237450000D01*
X346495000Y-232325000D02*
X341845000Y-232325000D01*
X346495000Y-237575000D02*
X341845000Y-237575000D01*
X346495000Y-232325000D02*
X346495000Y-232550000D01*
X341845000Y-232325000D02*
X341845000Y-232550000D01*
X341845000Y-237575000D02*
X341845000Y-237350000D01*
X346495000Y-237575000D02*
X346495000Y-237450000D01*
X346495000Y-245705000D02*
X347845000Y-245705000D01*
X346495000Y-240580000D02*
X341845000Y-240580000D01*
X346495000Y-245830000D02*
X341845000Y-245830000D01*
X346495000Y-240580000D02*
X346495000Y-240805000D01*
X341845000Y-240580000D02*
X341845000Y-240805000D01*
X341845000Y-245830000D02*
X341845000Y-245605000D01*
X346495000Y-245830000D02*
X346495000Y-245705000D01*
X346495000Y-253960000D02*
X347845000Y-253960000D01*
X346495000Y-248835000D02*
X341845000Y-248835000D01*
X346495000Y-254085000D02*
X341845000Y-254085000D01*
X346495000Y-248835000D02*
X346495000Y-249060000D01*
X341845000Y-248835000D02*
X341845000Y-249060000D01*
X341845000Y-254085000D02*
X341845000Y-253860000D01*
X346495000Y-254085000D02*
X346495000Y-253960000D01*
X346495000Y-262215000D02*
X347845000Y-262215000D01*
X346495000Y-257090000D02*
X341845000Y-257090000D01*
X346495000Y-262340000D02*
X341845000Y-262340000D01*
X346495000Y-257090000D02*
X346495000Y-257315000D01*
X341845000Y-257090000D02*
X341845000Y-257315000D01*
X341845000Y-262340000D02*
X341845000Y-262115000D01*
X346495000Y-262340000D02*
X346495000Y-262215000D01*
X346495000Y-270470000D02*
X347845000Y-270470000D01*
X346495000Y-265345000D02*
X341845000Y-265345000D01*
X346495000Y-270595000D02*
X341845000Y-270595000D01*
X346495000Y-265345000D02*
X346495000Y-265570000D01*
X341845000Y-265345000D02*
X341845000Y-265570000D01*
X341845000Y-270595000D02*
X341845000Y-270370000D01*
X346495000Y-270595000D02*
X346495000Y-270470000D01*
X346495000Y-278725000D02*
X347845000Y-278725000D01*
X346495000Y-273600000D02*
X341845000Y-273600000D01*
X346495000Y-278850000D02*
X341845000Y-278850000D01*
X346495000Y-273600000D02*
X346495000Y-273825000D01*
X341845000Y-273600000D02*
X341845000Y-273825000D01*
X341845000Y-278850000D02*
X341845000Y-278625000D01*
X346495000Y-278850000D02*
X346495000Y-278725000D01*
D11*
X392708354Y-262643000D02*
X392708354Y-265243000D01*
X386408354Y-267393000D02*
X386408354Y-267143000D01*
X392708354Y-267393000D02*
X386408354Y-267393000D01*
X392708354Y-267143000D02*
X392708354Y-267393000D01*
X386408354Y-265243000D02*
X386408354Y-262643000D01*
X392708354Y-260493000D02*
X392708354Y-260743000D01*
X386408354Y-260493000D02*
X392708354Y-260493000D01*
X386408354Y-260743000D02*
X386408354Y-260493000D01*
X396473000Y-262795936D02*
X396473000Y-264000064D01*
X398293000Y-262795936D02*
X398293000Y-264000064D01*
X467635000Y-258412064D02*
X467635000Y-257207936D01*
X465815000Y-258412064D02*
X465815000Y-257207936D01*
X374590000Y-287080000D02*
X374590000Y-285750000D01*
X375920000Y-287080000D02*
X374590000Y-287080000D01*
X377190000Y-287080000D02*
X377190000Y-284420000D01*
X377190000Y-284420000D02*
X382330000Y-284420000D01*
X377190000Y-287080000D02*
X382330000Y-287080000D01*
X382330000Y-287080000D02*
X382330000Y-284420000D01*
X377460000Y-303500000D02*
X379460000Y-303500000D01*
X373350000Y-316910000D02*
X373350000Y-313850000D01*
X383570000Y-316910000D02*
X373350000Y-316910000D01*
X383570000Y-313850000D02*
X383570000Y-316910000D01*
X383570000Y-303690000D02*
X383570000Y-309750000D01*
X380760000Y-303690000D02*
X383570000Y-303690000D01*
X373350000Y-303690000D02*
X376160000Y-303690000D01*
X373350000Y-309750000D02*
X373350000Y-303690000D01*
X392970000Y-286675000D02*
X392970000Y-287120000D01*
X392970000Y-284380000D02*
X392970000Y-284825000D01*
X386730000Y-286675000D02*
X386730000Y-287120000D01*
X386730000Y-284380000D02*
X386730000Y-284825000D01*
X386730000Y-287120000D02*
X392970000Y-287120000D01*
X386730000Y-284380000D02*
X392970000Y-284380000D01*
X370110000Y-286675000D02*
X370110000Y-287120000D01*
X370110000Y-284380000D02*
X370110000Y-284825000D01*
X363870000Y-286675000D02*
X363870000Y-287120000D01*
X363870000Y-284380000D02*
X363870000Y-284825000D01*
X363870000Y-287120000D02*
X370110000Y-287120000D01*
X363870000Y-284380000D02*
X370110000Y-284380000D01*
X385860302Y-293195000D02*
X385860302Y-293995000D01*
X385460302Y-293595000D02*
X386260302Y-293595000D01*
X393951000Y-295377000D02*
X393951000Y-296443000D01*
X393911000Y-295142000D02*
X393911000Y-296678000D01*
X393871000Y-294962000D02*
X393871000Y-296858000D01*
X393831000Y-294812000D02*
X393831000Y-297008000D01*
X393791000Y-294681000D02*
X393791000Y-297139000D01*
X393751000Y-294564000D02*
X393751000Y-297256000D01*
X393711000Y-294457000D02*
X393711000Y-297363000D01*
X393671000Y-294358000D02*
X393671000Y-297462000D01*
X393631000Y-294265000D02*
X393631000Y-297555000D01*
X393591000Y-294179000D02*
X393591000Y-297641000D01*
X393551000Y-294097000D02*
X393551000Y-297723000D01*
X393511000Y-294020000D02*
X393511000Y-297800000D01*
X393471000Y-293946000D02*
X393471000Y-297874000D01*
X393431000Y-293876000D02*
X393431000Y-297944000D01*
X393391000Y-293808000D02*
X393391000Y-298012000D01*
X393351000Y-293744000D02*
X393351000Y-298076000D01*
X393311000Y-293682000D02*
X393311000Y-298138000D01*
X393271000Y-293623000D02*
X393271000Y-298197000D01*
X393231000Y-293565000D02*
X393231000Y-298255000D01*
X393191000Y-293510000D02*
X393191000Y-298310000D01*
X393151000Y-293456000D02*
X393151000Y-298364000D01*
X393111000Y-293405000D02*
X393111000Y-298415000D01*
X393071000Y-293354000D02*
X393071000Y-298466000D01*
X393031000Y-293306000D02*
X393031000Y-298514000D01*
X392991000Y-293259000D02*
X392991000Y-298561000D01*
X392951000Y-293213000D02*
X392951000Y-298607000D01*
X392911000Y-293169000D02*
X392911000Y-298651000D01*
X392871000Y-293126000D02*
X392871000Y-298694000D01*
X392831000Y-293084000D02*
X392831000Y-298736000D01*
X392791000Y-293043000D02*
X392791000Y-298777000D01*
X392751000Y-293003000D02*
X392751000Y-298817000D01*
X392711000Y-292965000D02*
X392711000Y-298855000D01*
X392671000Y-292927000D02*
X392671000Y-298893000D01*
X392631000Y-292891000D02*
X392631000Y-298929000D01*
X392591000Y-292855000D02*
X392591000Y-298965000D01*
X392551000Y-292820000D02*
X392551000Y-299000000D01*
X392511000Y-292786000D02*
X392511000Y-299034000D01*
X392471000Y-292754000D02*
X392471000Y-299066000D01*
X392431000Y-292721000D02*
X392431000Y-299099000D01*
X392391000Y-292690000D02*
X392391000Y-299130000D01*
X392351000Y-292660000D02*
X392351000Y-299160000D01*
X392311000Y-292630000D02*
X392311000Y-299190000D01*
X392271000Y-292601000D02*
X392271000Y-299219000D01*
X392231000Y-292572000D02*
X392231000Y-299248000D01*
X392191000Y-292545000D02*
X392191000Y-299275000D01*
X392151000Y-296950000D02*
X392151000Y-299302000D01*
X392151000Y-292518000D02*
X392151000Y-294870000D01*
X392111000Y-296950000D02*
X392111000Y-299328000D01*
X392111000Y-292492000D02*
X392111000Y-294870000D01*
X392071000Y-296950000D02*
X392071000Y-299354000D01*
X392071000Y-292466000D02*
X392071000Y-294870000D01*
X392031000Y-296950000D02*
X392031000Y-299379000D01*
X392031000Y-292441000D02*
X392031000Y-294870000D01*
X391991000Y-296950000D02*
X391991000Y-299403000D01*
X391991000Y-292417000D02*
X391991000Y-294870000D01*
X391951000Y-296950000D02*
X391951000Y-299427000D01*
X391951000Y-292393000D02*
X391951000Y-294870000D01*
X391911000Y-296950000D02*
X391911000Y-299450000D01*
X391911000Y-292370000D02*
X391911000Y-294870000D01*
X391871000Y-296950000D02*
X391871000Y-299472000D01*
X391871000Y-292348000D02*
X391871000Y-294870000D01*
X391831000Y-296950000D02*
X391831000Y-299494000D01*
X391831000Y-292326000D02*
X391831000Y-294870000D01*
X391791000Y-296950000D02*
X391791000Y-299516000D01*
X391791000Y-292304000D02*
X391791000Y-294870000D01*
X391751000Y-296950000D02*
X391751000Y-299537000D01*
X391751000Y-292283000D02*
X391751000Y-294870000D01*
X391711000Y-296950000D02*
X391711000Y-299557000D01*
X391711000Y-292263000D02*
X391711000Y-294870000D01*
X391671000Y-296950000D02*
X391671000Y-299576000D01*
X391671000Y-292244000D02*
X391671000Y-294870000D01*
X391631000Y-296950000D02*
X391631000Y-299596000D01*
X391631000Y-292224000D02*
X391631000Y-294870000D01*
X391591000Y-296950000D02*
X391591000Y-299614000D01*
X391591000Y-292206000D02*
X391591000Y-294870000D01*
X391551000Y-296950000D02*
X391551000Y-299632000D01*
X391551000Y-292188000D02*
X391551000Y-294870000D01*
X391511000Y-296950000D02*
X391511000Y-299650000D01*
X391511000Y-292170000D02*
X391511000Y-294870000D01*
X391471000Y-296950000D02*
X391471000Y-299667000D01*
X391471000Y-292153000D02*
X391471000Y-294870000D01*
X391431000Y-296950000D02*
X391431000Y-299684000D01*
X391431000Y-292136000D02*
X391431000Y-294870000D01*
X391391000Y-296950000D02*
X391391000Y-299700000D01*
X391391000Y-292120000D02*
X391391000Y-294870000D01*
X391351000Y-296950000D02*
X391351000Y-299715000D01*
X391351000Y-292105000D02*
X391351000Y-294870000D01*
X391311000Y-296950000D02*
X391311000Y-299731000D01*
X391311000Y-292089000D02*
X391311000Y-294870000D01*
X391271000Y-296950000D02*
X391271000Y-299745000D01*
X391271000Y-292075000D02*
X391271000Y-294870000D01*
X391231000Y-296950000D02*
X391231000Y-299760000D01*
X391231000Y-292060000D02*
X391231000Y-294870000D01*
X391191000Y-296950000D02*
X391191000Y-299773000D01*
X391191000Y-292047000D02*
X391191000Y-294870000D01*
X391151000Y-296950000D02*
X391151000Y-299787000D01*
X391151000Y-292033000D02*
X391151000Y-294870000D01*
X391111000Y-296950000D02*
X391111000Y-299799000D01*
X391111000Y-292021000D02*
X391111000Y-294870000D01*
X391071000Y-296950000D02*
X391071000Y-299812000D01*
X391071000Y-292008000D02*
X391071000Y-294870000D01*
X391031000Y-296950000D02*
X391031000Y-299824000D01*
X391031000Y-291996000D02*
X391031000Y-294870000D01*
X390991000Y-296950000D02*
X390991000Y-299835000D01*
X390991000Y-291985000D02*
X390991000Y-294870000D01*
X390951000Y-296950000D02*
X390951000Y-299846000D01*
X390951000Y-291974000D02*
X390951000Y-294870000D01*
X390911000Y-296950000D02*
X390911000Y-299857000D01*
X390911000Y-291963000D02*
X390911000Y-294870000D01*
X390871000Y-296950000D02*
X390871000Y-299867000D01*
X390871000Y-291953000D02*
X390871000Y-294870000D01*
X390831000Y-296950000D02*
X390831000Y-299877000D01*
X390831000Y-291943000D02*
X390831000Y-294870000D01*
X390791000Y-296950000D02*
X390791000Y-299886000D01*
X390791000Y-291934000D02*
X390791000Y-294870000D01*
X390751000Y-296950000D02*
X390751000Y-299895000D01*
X390751000Y-291925000D02*
X390751000Y-294870000D01*
X390711000Y-296950000D02*
X390711000Y-299904000D01*
X390711000Y-291916000D02*
X390711000Y-294870000D01*
X390671000Y-296950000D02*
X390671000Y-299912000D01*
X390671000Y-291908000D02*
X390671000Y-294870000D01*
X390631000Y-296950000D02*
X390631000Y-299920000D01*
X390631000Y-291900000D02*
X390631000Y-294870000D01*
X390591000Y-296950000D02*
X390591000Y-299927000D01*
X390591000Y-291893000D02*
X390591000Y-294870000D01*
X390550000Y-296950000D02*
X390550000Y-299934000D01*
X390550000Y-291886000D02*
X390550000Y-294870000D01*
X390510000Y-296950000D02*
X390510000Y-299940000D01*
X390510000Y-291880000D02*
X390510000Y-294870000D01*
X390470000Y-296950000D02*
X390470000Y-299947000D01*
X390470000Y-291873000D02*
X390470000Y-294870000D01*
X390430000Y-296950000D02*
X390430000Y-299952000D01*
X390430000Y-291868000D02*
X390430000Y-294870000D01*
X390390000Y-296950000D02*
X390390000Y-299958000D01*
X390390000Y-291862000D02*
X390390000Y-294870000D01*
X390350000Y-296950000D02*
X390350000Y-299962000D01*
X390350000Y-291858000D02*
X390350000Y-294870000D01*
X390310000Y-296950000D02*
X390310000Y-299967000D01*
X390310000Y-291853000D02*
X390310000Y-294870000D01*
X390270000Y-296950000D02*
X390270000Y-299971000D01*
X390270000Y-291849000D02*
X390270000Y-294870000D01*
X390230000Y-296950000D02*
X390230000Y-299975000D01*
X390230000Y-291845000D02*
X390230000Y-294870000D01*
X390190000Y-296950000D02*
X390190000Y-299978000D01*
X390190000Y-291842000D02*
X390190000Y-294870000D01*
X390150000Y-296950000D02*
X390150000Y-299981000D01*
X390150000Y-291839000D02*
X390150000Y-294870000D01*
X390110000Y-296950000D02*
X390110000Y-299984000D01*
X390110000Y-291836000D02*
X390110000Y-294870000D01*
X390070000Y-291834000D02*
X390070000Y-299986000D01*
X390030000Y-291833000D02*
X390030000Y-299987000D01*
X389990000Y-291831000D02*
X389990000Y-299989000D01*
X389950000Y-291830000D02*
X389950000Y-299990000D01*
X389910000Y-291830000D02*
X389910000Y-299990000D01*
X389870000Y-291830000D02*
X389870000Y-299990000D01*
X393990000Y-295910000D02*
G75*
G03X393990000Y-295910000I-4120000J0D01*
G01*
X363000302Y-293195000D02*
X363000302Y-293995000D01*
X362600302Y-293595000D02*
X363400302Y-293595000D01*
X371091000Y-295377000D02*
X371091000Y-296443000D01*
X371051000Y-295142000D02*
X371051000Y-296678000D01*
X371011000Y-294962000D02*
X371011000Y-296858000D01*
X370971000Y-294812000D02*
X370971000Y-297008000D01*
X370931000Y-294681000D02*
X370931000Y-297139000D01*
X370891000Y-294564000D02*
X370891000Y-297256000D01*
X370851000Y-294457000D02*
X370851000Y-297363000D01*
X370811000Y-294358000D02*
X370811000Y-297462000D01*
X370771000Y-294265000D02*
X370771000Y-297555000D01*
X370731000Y-294179000D02*
X370731000Y-297641000D01*
X370691000Y-294097000D02*
X370691000Y-297723000D01*
X370651000Y-294020000D02*
X370651000Y-297800000D01*
X370611000Y-293946000D02*
X370611000Y-297874000D01*
X370571000Y-293876000D02*
X370571000Y-297944000D01*
X370531000Y-293808000D02*
X370531000Y-298012000D01*
X370491000Y-293744000D02*
X370491000Y-298076000D01*
X370451000Y-293682000D02*
X370451000Y-298138000D01*
X370411000Y-293623000D02*
X370411000Y-298197000D01*
X370371000Y-293565000D02*
X370371000Y-298255000D01*
X370331000Y-293510000D02*
X370331000Y-298310000D01*
X370291000Y-293456000D02*
X370291000Y-298364000D01*
X370251000Y-293405000D02*
X370251000Y-298415000D01*
X370211000Y-293354000D02*
X370211000Y-298466000D01*
X370171000Y-293306000D02*
X370171000Y-298514000D01*
X370131000Y-293259000D02*
X370131000Y-298561000D01*
X370091000Y-293213000D02*
X370091000Y-298607000D01*
X370051000Y-293169000D02*
X370051000Y-298651000D01*
X370011000Y-293126000D02*
X370011000Y-298694000D01*
X369971000Y-293084000D02*
X369971000Y-298736000D01*
X369931000Y-293043000D02*
X369931000Y-298777000D01*
X369891000Y-293003000D02*
X369891000Y-298817000D01*
X369851000Y-292965000D02*
X369851000Y-298855000D01*
X369811000Y-292927000D02*
X369811000Y-298893000D01*
X369771000Y-292891000D02*
X369771000Y-298929000D01*
X369731000Y-292855000D02*
X369731000Y-298965000D01*
X369691000Y-292820000D02*
X369691000Y-299000000D01*
X369651000Y-292786000D02*
X369651000Y-299034000D01*
X369611000Y-292754000D02*
X369611000Y-299066000D01*
X369571000Y-292721000D02*
X369571000Y-299099000D01*
X369531000Y-292690000D02*
X369531000Y-299130000D01*
X369491000Y-292660000D02*
X369491000Y-299160000D01*
X369451000Y-292630000D02*
X369451000Y-299190000D01*
X369411000Y-292601000D02*
X369411000Y-299219000D01*
X369371000Y-292572000D02*
X369371000Y-299248000D01*
X369331000Y-292545000D02*
X369331000Y-299275000D01*
X369291000Y-296950000D02*
X369291000Y-299302000D01*
X369291000Y-292518000D02*
X369291000Y-294870000D01*
X369251000Y-296950000D02*
X369251000Y-299328000D01*
X369251000Y-292492000D02*
X369251000Y-294870000D01*
X369211000Y-296950000D02*
X369211000Y-299354000D01*
X369211000Y-292466000D02*
X369211000Y-294870000D01*
X369171000Y-296950000D02*
X369171000Y-299379000D01*
X369171000Y-292441000D02*
X369171000Y-294870000D01*
X369131000Y-296950000D02*
X369131000Y-299403000D01*
X369131000Y-292417000D02*
X369131000Y-294870000D01*
X369091000Y-296950000D02*
X369091000Y-299427000D01*
X369091000Y-292393000D02*
X369091000Y-294870000D01*
X369051000Y-296950000D02*
X369051000Y-299450000D01*
X369051000Y-292370000D02*
X369051000Y-294870000D01*
X369011000Y-296950000D02*
X369011000Y-299472000D01*
X369011000Y-292348000D02*
X369011000Y-294870000D01*
X368971000Y-296950000D02*
X368971000Y-299494000D01*
X368971000Y-292326000D02*
X368971000Y-294870000D01*
X368931000Y-296950000D02*
X368931000Y-299516000D01*
X368931000Y-292304000D02*
X368931000Y-294870000D01*
X368891000Y-296950000D02*
X368891000Y-299537000D01*
X368891000Y-292283000D02*
X368891000Y-294870000D01*
X368851000Y-296950000D02*
X368851000Y-299557000D01*
X368851000Y-292263000D02*
X368851000Y-294870000D01*
X368811000Y-296950000D02*
X368811000Y-299576000D01*
X368811000Y-292244000D02*
X368811000Y-294870000D01*
X368771000Y-296950000D02*
X368771000Y-299596000D01*
X368771000Y-292224000D02*
X368771000Y-294870000D01*
X368731000Y-296950000D02*
X368731000Y-299614000D01*
X368731000Y-292206000D02*
X368731000Y-294870000D01*
X368691000Y-296950000D02*
X368691000Y-299632000D01*
X368691000Y-292188000D02*
X368691000Y-294870000D01*
X368651000Y-296950000D02*
X368651000Y-299650000D01*
X368651000Y-292170000D02*
X368651000Y-294870000D01*
X368611000Y-296950000D02*
X368611000Y-299667000D01*
X368611000Y-292153000D02*
X368611000Y-294870000D01*
X368571000Y-296950000D02*
X368571000Y-299684000D01*
X368571000Y-292136000D02*
X368571000Y-294870000D01*
X368531000Y-296950000D02*
X368531000Y-299700000D01*
X368531000Y-292120000D02*
X368531000Y-294870000D01*
X368491000Y-296950000D02*
X368491000Y-299715000D01*
X368491000Y-292105000D02*
X368491000Y-294870000D01*
X368451000Y-296950000D02*
X368451000Y-299731000D01*
X368451000Y-292089000D02*
X368451000Y-294870000D01*
X368411000Y-296950000D02*
X368411000Y-299745000D01*
X368411000Y-292075000D02*
X368411000Y-294870000D01*
X368371000Y-296950000D02*
X368371000Y-299760000D01*
X368371000Y-292060000D02*
X368371000Y-294870000D01*
X368331000Y-296950000D02*
X368331000Y-299773000D01*
X368331000Y-292047000D02*
X368331000Y-294870000D01*
X368291000Y-296950000D02*
X368291000Y-299787000D01*
X368291000Y-292033000D02*
X368291000Y-294870000D01*
X368251000Y-296950000D02*
X368251000Y-299799000D01*
X368251000Y-292021000D02*
X368251000Y-294870000D01*
X368211000Y-296950000D02*
X368211000Y-299812000D01*
X368211000Y-292008000D02*
X368211000Y-294870000D01*
X368171000Y-296950000D02*
X368171000Y-299824000D01*
X368171000Y-291996000D02*
X368171000Y-294870000D01*
X368131000Y-296950000D02*
X368131000Y-299835000D01*
X368131000Y-291985000D02*
X368131000Y-294870000D01*
X368091000Y-296950000D02*
X368091000Y-299846000D01*
X368091000Y-291974000D02*
X368091000Y-294870000D01*
X368051000Y-296950000D02*
X368051000Y-299857000D01*
X368051000Y-291963000D02*
X368051000Y-294870000D01*
X368011000Y-296950000D02*
X368011000Y-299867000D01*
X368011000Y-291953000D02*
X368011000Y-294870000D01*
X367971000Y-296950000D02*
X367971000Y-299877000D01*
X367971000Y-291943000D02*
X367971000Y-294870000D01*
X367931000Y-296950000D02*
X367931000Y-299886000D01*
X367931000Y-291934000D02*
X367931000Y-294870000D01*
X367891000Y-296950000D02*
X367891000Y-299895000D01*
X367891000Y-291925000D02*
X367891000Y-294870000D01*
X367851000Y-296950000D02*
X367851000Y-299904000D01*
X367851000Y-291916000D02*
X367851000Y-294870000D01*
X367811000Y-296950000D02*
X367811000Y-299912000D01*
X367811000Y-291908000D02*
X367811000Y-294870000D01*
X367771000Y-296950000D02*
X367771000Y-299920000D01*
X367771000Y-291900000D02*
X367771000Y-294870000D01*
X367731000Y-296950000D02*
X367731000Y-299927000D01*
X367731000Y-291893000D02*
X367731000Y-294870000D01*
X367690000Y-296950000D02*
X367690000Y-299934000D01*
X367690000Y-291886000D02*
X367690000Y-294870000D01*
X367650000Y-296950000D02*
X367650000Y-299940000D01*
X367650000Y-291880000D02*
X367650000Y-294870000D01*
X367610000Y-296950000D02*
X367610000Y-299947000D01*
X367610000Y-291873000D02*
X367610000Y-294870000D01*
X367570000Y-296950000D02*
X367570000Y-299952000D01*
X367570000Y-291868000D02*
X367570000Y-294870000D01*
X367530000Y-296950000D02*
X367530000Y-299958000D01*
X367530000Y-291862000D02*
X367530000Y-294870000D01*
X367490000Y-296950000D02*
X367490000Y-299962000D01*
X367490000Y-291858000D02*
X367490000Y-294870000D01*
X367450000Y-296950000D02*
X367450000Y-299967000D01*
X367450000Y-291853000D02*
X367450000Y-294870000D01*
X367410000Y-296950000D02*
X367410000Y-299971000D01*
X367410000Y-291849000D02*
X367410000Y-294870000D01*
X367370000Y-296950000D02*
X367370000Y-299975000D01*
X367370000Y-291845000D02*
X367370000Y-294870000D01*
X367330000Y-296950000D02*
X367330000Y-299978000D01*
X367330000Y-291842000D02*
X367330000Y-294870000D01*
X367290000Y-296950000D02*
X367290000Y-299981000D01*
X367290000Y-291839000D02*
X367290000Y-294870000D01*
X367250000Y-296950000D02*
X367250000Y-299984000D01*
X367250000Y-291836000D02*
X367250000Y-294870000D01*
X367210000Y-291834000D02*
X367210000Y-299986000D01*
X367170000Y-291833000D02*
X367170000Y-299987000D01*
X367130000Y-291831000D02*
X367130000Y-299989000D01*
X367090000Y-291830000D02*
X367090000Y-299990000D01*
X367050000Y-291830000D02*
X367050000Y-299990000D01*
X367010000Y-291830000D02*
X367010000Y-299990000D01*
X371130000Y-295910000D02*
G75*
G03X371130000Y-295910000I-4120000J0D01*
G01*
X373440354Y-292535000D02*
X373440354Y-293535000D01*
X372940354Y-293035000D02*
X373940354Y-293035000D01*
X383501000Y-295311000D02*
X383501000Y-296509000D01*
X383461000Y-295048000D02*
X383461000Y-296772000D01*
X383421000Y-294848000D02*
X383421000Y-296972000D01*
X383381000Y-294680000D02*
X383381000Y-297140000D01*
X383341000Y-294532000D02*
X383341000Y-297288000D01*
X383301000Y-294400000D02*
X383301000Y-297420000D01*
X383261000Y-294280000D02*
X383261000Y-297540000D01*
X383221000Y-294168000D02*
X383221000Y-297652000D01*
X383181000Y-294064000D02*
X383181000Y-297756000D01*
X383141000Y-293966000D02*
X383141000Y-297854000D01*
X383101000Y-293873000D02*
X383101000Y-297947000D01*
X383061000Y-293785000D02*
X383061000Y-298035000D01*
X383021000Y-293701000D02*
X383021000Y-298119000D01*
X382981000Y-293621000D02*
X382981000Y-298199000D01*
X382941000Y-293545000D02*
X382941000Y-298275000D01*
X382901000Y-293471000D02*
X382901000Y-298349000D01*
X382861000Y-293400000D02*
X382861000Y-298420000D01*
X382821000Y-293331000D02*
X382821000Y-298489000D01*
X382781000Y-293265000D02*
X382781000Y-298555000D01*
X382741000Y-293201000D02*
X382741000Y-298619000D01*
X382701000Y-293140000D02*
X382701000Y-298680000D01*
X382661000Y-293080000D02*
X382661000Y-298740000D01*
X382621000Y-293021000D02*
X382621000Y-298799000D01*
X382581000Y-292965000D02*
X382581000Y-298855000D01*
X382541000Y-292910000D02*
X382541000Y-298910000D01*
X382501000Y-292856000D02*
X382501000Y-298964000D01*
X382461000Y-292804000D02*
X382461000Y-299016000D01*
X382421000Y-292754000D02*
X382421000Y-299066000D01*
X382381000Y-292704000D02*
X382381000Y-299116000D01*
X382341000Y-292656000D02*
X382341000Y-299164000D01*
X382301000Y-292609000D02*
X382301000Y-299211000D01*
X382261000Y-292563000D02*
X382261000Y-299257000D01*
X382221000Y-292518000D02*
X382221000Y-299302000D01*
X382181000Y-292474000D02*
X382181000Y-299346000D01*
X382141000Y-297151000D02*
X382141000Y-299388000D01*
X382141000Y-292432000D02*
X382141000Y-294669000D01*
X382101000Y-297151000D02*
X382101000Y-299430000D01*
X382101000Y-292390000D02*
X382101000Y-294669000D01*
X382061000Y-297151000D02*
X382061000Y-299471000D01*
X382061000Y-292349000D02*
X382061000Y-294669000D01*
X382021000Y-297151000D02*
X382021000Y-299511000D01*
X382021000Y-292309000D02*
X382021000Y-294669000D01*
X381981000Y-297151000D02*
X381981000Y-299550000D01*
X381981000Y-292270000D02*
X381981000Y-294669000D01*
X381941000Y-297151000D02*
X381941000Y-299589000D01*
X381941000Y-292231000D02*
X381941000Y-294669000D01*
X381901000Y-297151000D02*
X381901000Y-299626000D01*
X381901000Y-292194000D02*
X381901000Y-294669000D01*
X381861000Y-297151000D02*
X381861000Y-299663000D01*
X381861000Y-292157000D02*
X381861000Y-294669000D01*
X381821000Y-297151000D02*
X381821000Y-299699000D01*
X381821000Y-292121000D02*
X381821000Y-294669000D01*
X381781000Y-297151000D02*
X381781000Y-299734000D01*
X381781000Y-292086000D02*
X381781000Y-294669000D01*
X381741000Y-297151000D02*
X381741000Y-299768000D01*
X381741000Y-292052000D02*
X381741000Y-294669000D01*
X381701000Y-297151000D02*
X381701000Y-299802000D01*
X381701000Y-292018000D02*
X381701000Y-294669000D01*
X381661000Y-297151000D02*
X381661000Y-299835000D01*
X381661000Y-291985000D02*
X381661000Y-294669000D01*
X381621000Y-297151000D02*
X381621000Y-299867000D01*
X381621000Y-291953000D02*
X381621000Y-294669000D01*
X381581000Y-297151000D02*
X381581000Y-299899000D01*
X381581000Y-291921000D02*
X381581000Y-294669000D01*
X381541000Y-297151000D02*
X381541000Y-299930000D01*
X381541000Y-291890000D02*
X381541000Y-294669000D01*
X381501000Y-297151000D02*
X381501000Y-299960000D01*
X381501000Y-291860000D02*
X381501000Y-294669000D01*
X381461000Y-297151000D02*
X381461000Y-299990000D01*
X381461000Y-291830000D02*
X381461000Y-294669000D01*
X381421000Y-297151000D02*
X381421000Y-300020000D01*
X381421000Y-291800000D02*
X381421000Y-294669000D01*
X381381000Y-297151000D02*
X381381000Y-300048000D01*
X381381000Y-291772000D02*
X381381000Y-294669000D01*
X381341000Y-297151000D02*
X381341000Y-300076000D01*
X381341000Y-291744000D02*
X381341000Y-294669000D01*
X381301000Y-297151000D02*
X381301000Y-300104000D01*
X381301000Y-291716000D02*
X381301000Y-294669000D01*
X381261000Y-297151000D02*
X381261000Y-300131000D01*
X381261000Y-291689000D02*
X381261000Y-294669000D01*
X381221000Y-297151000D02*
X381221000Y-300157000D01*
X381221000Y-291663000D02*
X381221000Y-294669000D01*
X381181000Y-297151000D02*
X381181000Y-300183000D01*
X381181000Y-291637000D02*
X381181000Y-294669000D01*
X381141000Y-297151000D02*
X381141000Y-300208000D01*
X381141000Y-291612000D02*
X381141000Y-294669000D01*
X381101000Y-297151000D02*
X381101000Y-300233000D01*
X381101000Y-291587000D02*
X381101000Y-294669000D01*
X381061000Y-297151000D02*
X381061000Y-300257000D01*
X381061000Y-291563000D02*
X381061000Y-294669000D01*
X381021000Y-297151000D02*
X381021000Y-300281000D01*
X381021000Y-291539000D02*
X381021000Y-294669000D01*
X380981000Y-297151000D02*
X380981000Y-300305000D01*
X380981000Y-291515000D02*
X380981000Y-294669000D01*
X380941000Y-297151000D02*
X380941000Y-300327000D01*
X380941000Y-291493000D02*
X380941000Y-294669000D01*
X380901000Y-297151000D02*
X380901000Y-300350000D01*
X380901000Y-291470000D02*
X380901000Y-294669000D01*
X380861000Y-297151000D02*
X380861000Y-300372000D01*
X380861000Y-291448000D02*
X380861000Y-294669000D01*
X380821000Y-297151000D02*
X380821000Y-300393000D01*
X380821000Y-291427000D02*
X380821000Y-294669000D01*
X380781000Y-297151000D02*
X380781000Y-300414000D01*
X380781000Y-291406000D02*
X380781000Y-294669000D01*
X380741000Y-297151000D02*
X380741000Y-300435000D01*
X380741000Y-291385000D02*
X380741000Y-294669000D01*
X380701000Y-297151000D02*
X380701000Y-300455000D01*
X380701000Y-291365000D02*
X380701000Y-294669000D01*
X380661000Y-297151000D02*
X380661000Y-300474000D01*
X380661000Y-291346000D02*
X380661000Y-294669000D01*
X380621000Y-297151000D02*
X380621000Y-300494000D01*
X380621000Y-291326000D02*
X380621000Y-294669000D01*
X380581000Y-297151000D02*
X380581000Y-300513000D01*
X380581000Y-291307000D02*
X380581000Y-294669000D01*
X380541000Y-297151000D02*
X380541000Y-300531000D01*
X380541000Y-291289000D02*
X380541000Y-294669000D01*
X380501000Y-297151000D02*
X380501000Y-300549000D01*
X380501000Y-291271000D02*
X380501000Y-294669000D01*
X380461000Y-297151000D02*
X380461000Y-300567000D01*
X380461000Y-291253000D02*
X380461000Y-294669000D01*
X380421000Y-297151000D02*
X380421000Y-300584000D01*
X380421000Y-291236000D02*
X380421000Y-294669000D01*
X380381000Y-297151000D02*
X380381000Y-300600000D01*
X380381000Y-291220000D02*
X380381000Y-294669000D01*
X380341000Y-297151000D02*
X380341000Y-300617000D01*
X380341000Y-291203000D02*
X380341000Y-294669000D01*
X380301000Y-297151000D02*
X380301000Y-300633000D01*
X380301000Y-291187000D02*
X380301000Y-294669000D01*
X380261000Y-297151000D02*
X380261000Y-300648000D01*
X380261000Y-291172000D02*
X380261000Y-294669000D01*
X380221000Y-297151000D02*
X380221000Y-300664000D01*
X380221000Y-291156000D02*
X380221000Y-294669000D01*
X380181000Y-297151000D02*
X380181000Y-300678000D01*
X380181000Y-291142000D02*
X380181000Y-294669000D01*
X380141000Y-297151000D02*
X380141000Y-300693000D01*
X380141000Y-291127000D02*
X380141000Y-294669000D01*
X380101000Y-297151000D02*
X380101000Y-300707000D01*
X380101000Y-291113000D02*
X380101000Y-294669000D01*
X380061000Y-297151000D02*
X380061000Y-300721000D01*
X380061000Y-291099000D02*
X380061000Y-294669000D01*
X380021000Y-297151000D02*
X380021000Y-300734000D01*
X380021000Y-291086000D02*
X380021000Y-294669000D01*
X379981000Y-297151000D02*
X379981000Y-300747000D01*
X379981000Y-291073000D02*
X379981000Y-294669000D01*
X379941000Y-297151000D02*
X379941000Y-300760000D01*
X379941000Y-291060000D02*
X379941000Y-294669000D01*
X379901000Y-297151000D02*
X379901000Y-300772000D01*
X379901000Y-291048000D02*
X379901000Y-294669000D01*
X379861000Y-297151000D02*
X379861000Y-300784000D01*
X379861000Y-291036000D02*
X379861000Y-294669000D01*
X379821000Y-297151000D02*
X379821000Y-300795000D01*
X379821000Y-291025000D02*
X379821000Y-294669000D01*
X379781000Y-297151000D02*
X379781000Y-300807000D01*
X379781000Y-291013000D02*
X379781000Y-294669000D01*
X379741000Y-297151000D02*
X379741000Y-300817000D01*
X379741000Y-291003000D02*
X379741000Y-294669000D01*
X379701000Y-297151000D02*
X379701000Y-300828000D01*
X379701000Y-290992000D02*
X379701000Y-294669000D01*
X379661000Y-290982000D02*
X379661000Y-300838000D01*
X379621000Y-290972000D02*
X379621000Y-300848000D01*
X379581000Y-290963000D02*
X379581000Y-300857000D01*
X379541000Y-290954000D02*
X379541000Y-300866000D01*
X379501000Y-290945000D02*
X379501000Y-300875000D01*
X379461000Y-290936000D02*
X379461000Y-300884000D01*
X379421000Y-290928000D02*
X379421000Y-300892000D01*
X379381000Y-290920000D02*
X379381000Y-300900000D01*
X379341000Y-290913000D02*
X379341000Y-300907000D01*
X379301000Y-290906000D02*
X379301000Y-300914000D01*
X379261000Y-290899000D02*
X379261000Y-300921000D01*
X379221000Y-290892000D02*
X379221000Y-300928000D01*
X379181000Y-290886000D02*
X379181000Y-300934000D01*
X379141000Y-290880000D02*
X379141000Y-300940000D01*
X379100000Y-290875000D02*
X379100000Y-300945000D01*
X379060000Y-290870000D02*
X379060000Y-300950000D01*
X379020000Y-290865000D02*
X379020000Y-300955000D01*
X378980000Y-290860000D02*
X378980000Y-300960000D01*
X378940000Y-290856000D02*
X378940000Y-300964000D01*
X378900000Y-290852000D02*
X378900000Y-300968000D01*
X378860000Y-290848000D02*
X378860000Y-300972000D01*
X378820000Y-290845000D02*
X378820000Y-300975000D01*
X378780000Y-290842000D02*
X378780000Y-300978000D01*
X378740000Y-290840000D02*
X378740000Y-300980000D01*
X378700000Y-290837000D02*
X378700000Y-300983000D01*
X378660000Y-290835000D02*
X378660000Y-300985000D01*
X378620000Y-290833000D02*
X378620000Y-300987000D01*
X378580000Y-290832000D02*
X378580000Y-300988000D01*
X378540000Y-290831000D02*
X378540000Y-300989000D01*
X378500000Y-290830000D02*
X378500000Y-300990000D01*
X378460000Y-290830000D02*
X378460000Y-300990000D01*
X378420000Y-290830000D02*
X378420000Y-300990000D01*
X383540000Y-295910000D02*
G75*
G03X383540000Y-295910000I-5120000J0D01*
G01*
D13*
X375602666Y-264564761D02*
X375745523Y-264612380D01*
X375983619Y-264612380D01*
X376078857Y-264564761D01*
X376126476Y-264517142D01*
X376174095Y-264421904D01*
X376174095Y-264326666D01*
X376126476Y-264231428D01*
X376078857Y-264183809D01*
X375983619Y-264136190D01*
X375793142Y-264088571D01*
X375697904Y-264040952D01*
X375650285Y-263993333D01*
X375602666Y-263898095D01*
X375602666Y-263802857D01*
X375650285Y-263707619D01*
X375697904Y-263660000D01*
X375793142Y-263612380D01*
X376031238Y-263612380D01*
X376174095Y-263660000D01*
X376507428Y-263612380D02*
X376745523Y-264612380D01*
X376936000Y-263898095D01*
X377126476Y-264612380D01*
X377364571Y-263612380D01*
X377697904Y-263707619D02*
X377745523Y-263660000D01*
X377840761Y-263612380D01*
X378078857Y-263612380D01*
X378174095Y-263660000D01*
X378221714Y-263707619D01*
X378269333Y-263802857D01*
X378269333Y-263898095D01*
X378221714Y-264040952D01*
X377650285Y-264612380D01*
X378269333Y-264612380D01*
X356137380Y-114307857D02*
X355661190Y-114641190D01*
X356137380Y-114879285D02*
X355137380Y-114879285D01*
X355137380Y-114498333D01*
X355185000Y-114403095D01*
X355232619Y-114355476D01*
X355327857Y-114307857D01*
X355470714Y-114307857D01*
X355565952Y-114355476D01*
X355613571Y-114403095D01*
X355661190Y-114498333D01*
X355661190Y-114879285D01*
X356137380Y-113355476D02*
X356137380Y-113926904D01*
X356137380Y-113641190D02*
X355137380Y-113641190D01*
X355280238Y-113736428D01*
X355375476Y-113831666D01*
X355423095Y-113926904D01*
X356137380Y-112879285D02*
X356137380Y-112688809D01*
X356089761Y-112593571D01*
X356042142Y-112545952D01*
X355899285Y-112450714D01*
X355708809Y-112403095D01*
X355327857Y-112403095D01*
X355232619Y-112450714D01*
X355185000Y-112498333D01*
X355137380Y-112593571D01*
X355137380Y-112784047D01*
X355185000Y-112879285D01*
X355232619Y-112926904D01*
X355327857Y-112974523D01*
X355565952Y-112974523D01*
X355661190Y-112926904D01*
X355708809Y-112879285D01*
X355756428Y-112784047D01*
X355756428Y-112593571D01*
X355708809Y-112498333D01*
X355661190Y-112450714D01*
X355565952Y-112403095D01*
X356137380Y-104147857D02*
X355661190Y-104481190D01*
X356137380Y-104719285D02*
X355137380Y-104719285D01*
X355137380Y-104338333D01*
X355185000Y-104243095D01*
X355232619Y-104195476D01*
X355327857Y-104147857D01*
X355470714Y-104147857D01*
X355565952Y-104195476D01*
X355613571Y-104243095D01*
X355661190Y-104338333D01*
X355661190Y-104719285D01*
X356137380Y-103195476D02*
X356137380Y-103766904D01*
X356137380Y-103481190D02*
X355137380Y-103481190D01*
X355280238Y-103576428D01*
X355375476Y-103671666D01*
X355423095Y-103766904D01*
X355565952Y-102624047D02*
X355518333Y-102719285D01*
X355470714Y-102766904D01*
X355375476Y-102814523D01*
X355327857Y-102814523D01*
X355232619Y-102766904D01*
X355185000Y-102719285D01*
X355137380Y-102624047D01*
X355137380Y-102433571D01*
X355185000Y-102338333D01*
X355232619Y-102290714D01*
X355327857Y-102243095D01*
X355375476Y-102243095D01*
X355470714Y-102290714D01*
X355518333Y-102338333D01*
X355565952Y-102433571D01*
X355565952Y-102624047D01*
X355613571Y-102719285D01*
X355661190Y-102766904D01*
X355756428Y-102814523D01*
X355946904Y-102814523D01*
X356042142Y-102766904D01*
X356089761Y-102719285D01*
X356137380Y-102624047D01*
X356137380Y-102433571D01*
X356089761Y-102338333D01*
X356042142Y-102290714D01*
X355946904Y-102243095D01*
X355756428Y-102243095D01*
X355661190Y-102290714D01*
X355613571Y-102338333D01*
X355565952Y-102433571D01*
X369937380Y-92717857D02*
X369461190Y-93051190D01*
X369937380Y-93289285D02*
X368937380Y-93289285D01*
X368937380Y-92908333D01*
X368985000Y-92813095D01*
X369032619Y-92765476D01*
X369127857Y-92717857D01*
X369270714Y-92717857D01*
X369365952Y-92765476D01*
X369413571Y-92813095D01*
X369461190Y-92908333D01*
X369461190Y-93289285D01*
X369937380Y-91765476D02*
X369937380Y-92336904D01*
X369937380Y-92051190D02*
X368937380Y-92051190D01*
X369080238Y-92146428D01*
X369175476Y-92241666D01*
X369223095Y-92336904D01*
X368937380Y-91432142D02*
X368937380Y-90765476D01*
X369937380Y-91194047D01*
X374382380Y-92717857D02*
X373906190Y-93051190D01*
X374382380Y-93289285D02*
X373382380Y-93289285D01*
X373382380Y-92908333D01*
X373430000Y-92813095D01*
X373477619Y-92765476D01*
X373572857Y-92717857D01*
X373715714Y-92717857D01*
X373810952Y-92765476D01*
X373858571Y-92813095D01*
X373906190Y-92908333D01*
X373906190Y-93289285D01*
X374382380Y-91765476D02*
X374382380Y-92336904D01*
X374382380Y-92051190D02*
X373382380Y-92051190D01*
X373525238Y-92146428D01*
X373620476Y-92241666D01*
X373668095Y-92336904D01*
X373382380Y-90908333D02*
X373382380Y-91098809D01*
X373430000Y-91194047D01*
X373477619Y-91241666D01*
X373620476Y-91336904D01*
X373810952Y-91384523D01*
X374191904Y-91384523D01*
X374287142Y-91336904D01*
X374334761Y-91289285D01*
X374382380Y-91194047D01*
X374382380Y-91003571D01*
X374334761Y-90908333D01*
X374287142Y-90860714D01*
X374191904Y-90813095D01*
X373953809Y-90813095D01*
X373858571Y-90860714D01*
X373810952Y-90908333D01*
X373763333Y-91003571D01*
X373763333Y-91194047D01*
X373810952Y-91289285D01*
X373858571Y-91336904D01*
X373953809Y-91384523D01*
X378827380Y-92717857D02*
X378351190Y-93051190D01*
X378827380Y-93289285D02*
X377827380Y-93289285D01*
X377827380Y-92908333D01*
X377875000Y-92813095D01*
X377922619Y-92765476D01*
X378017857Y-92717857D01*
X378160714Y-92717857D01*
X378255952Y-92765476D01*
X378303571Y-92813095D01*
X378351190Y-92908333D01*
X378351190Y-93289285D01*
X378827380Y-91765476D02*
X378827380Y-92336904D01*
X378827380Y-92051190D02*
X377827380Y-92051190D01*
X377970238Y-92146428D01*
X378065476Y-92241666D01*
X378113095Y-92336904D01*
X377827380Y-90860714D02*
X377827380Y-91336904D01*
X378303571Y-91384523D01*
X378255952Y-91336904D01*
X378208333Y-91241666D01*
X378208333Y-91003571D01*
X378255952Y-90908333D01*
X378303571Y-90860714D01*
X378398809Y-90813095D01*
X378636904Y-90813095D01*
X378732142Y-90860714D01*
X378779761Y-90908333D01*
X378827380Y-91003571D01*
X378827380Y-91241666D01*
X378779761Y-91336904D01*
X378732142Y-91384523D01*
X383272380Y-92717857D02*
X382796190Y-93051190D01*
X383272380Y-93289285D02*
X382272380Y-93289285D01*
X382272380Y-92908333D01*
X382320000Y-92813095D01*
X382367619Y-92765476D01*
X382462857Y-92717857D01*
X382605714Y-92717857D01*
X382700952Y-92765476D01*
X382748571Y-92813095D01*
X382796190Y-92908333D01*
X382796190Y-93289285D01*
X383272380Y-91765476D02*
X383272380Y-92336904D01*
X383272380Y-92051190D02*
X382272380Y-92051190D01*
X382415238Y-92146428D01*
X382510476Y-92241666D01*
X382558095Y-92336904D01*
X382605714Y-90908333D02*
X383272380Y-90908333D01*
X382224761Y-91146428D02*
X382939047Y-91384523D01*
X382939047Y-90765476D01*
X387717380Y-92717857D02*
X387241190Y-93051190D01*
X387717380Y-93289285D02*
X386717380Y-93289285D01*
X386717380Y-92908333D01*
X386765000Y-92813095D01*
X386812619Y-92765476D01*
X386907857Y-92717857D01*
X387050714Y-92717857D01*
X387145952Y-92765476D01*
X387193571Y-92813095D01*
X387241190Y-92908333D01*
X387241190Y-93289285D01*
X387717380Y-91765476D02*
X387717380Y-92336904D01*
X387717380Y-92051190D02*
X386717380Y-92051190D01*
X386860238Y-92146428D01*
X386955476Y-92241666D01*
X387003095Y-92336904D01*
X386717380Y-91432142D02*
X386717380Y-90813095D01*
X387098333Y-91146428D01*
X387098333Y-91003571D01*
X387145952Y-90908333D01*
X387193571Y-90860714D01*
X387288809Y-90813095D01*
X387526904Y-90813095D01*
X387622142Y-90860714D01*
X387669761Y-90908333D01*
X387717380Y-91003571D01*
X387717380Y-91289285D01*
X387669761Y-91384523D01*
X387622142Y-91432142D01*
X392162380Y-92717857D02*
X391686190Y-93051190D01*
X392162380Y-93289285D02*
X391162380Y-93289285D01*
X391162380Y-92908333D01*
X391210000Y-92813095D01*
X391257619Y-92765476D01*
X391352857Y-92717857D01*
X391495714Y-92717857D01*
X391590952Y-92765476D01*
X391638571Y-92813095D01*
X391686190Y-92908333D01*
X391686190Y-93289285D01*
X392162380Y-91765476D02*
X392162380Y-92336904D01*
X392162380Y-92051190D02*
X391162380Y-92051190D01*
X391305238Y-92146428D01*
X391400476Y-92241666D01*
X391448095Y-92336904D01*
X391257619Y-91384523D02*
X391210000Y-91336904D01*
X391162380Y-91241666D01*
X391162380Y-91003571D01*
X391210000Y-90908333D01*
X391257619Y-90860714D01*
X391352857Y-90813095D01*
X391448095Y-90813095D01*
X391590952Y-90860714D01*
X392162380Y-91432142D01*
X392162380Y-90813095D01*
X396607380Y-92717857D02*
X396131190Y-93051190D01*
X396607380Y-93289285D02*
X395607380Y-93289285D01*
X395607380Y-92908333D01*
X395655000Y-92813095D01*
X395702619Y-92765476D01*
X395797857Y-92717857D01*
X395940714Y-92717857D01*
X396035952Y-92765476D01*
X396083571Y-92813095D01*
X396131190Y-92908333D01*
X396131190Y-93289285D01*
X396607380Y-91765476D02*
X396607380Y-92336904D01*
X396607380Y-92051190D02*
X395607380Y-92051190D01*
X395750238Y-92146428D01*
X395845476Y-92241666D01*
X395893095Y-92336904D01*
X396607380Y-90813095D02*
X396607380Y-91384523D01*
X396607380Y-91098809D02*
X395607380Y-91098809D01*
X395750238Y-91194047D01*
X395845476Y-91289285D01*
X395893095Y-91384523D01*
X401052380Y-92717857D02*
X400576190Y-93051190D01*
X401052380Y-93289285D02*
X400052380Y-93289285D01*
X400052380Y-92908333D01*
X400100000Y-92813095D01*
X400147619Y-92765476D01*
X400242857Y-92717857D01*
X400385714Y-92717857D01*
X400480952Y-92765476D01*
X400528571Y-92813095D01*
X400576190Y-92908333D01*
X400576190Y-93289285D01*
X401052380Y-91765476D02*
X401052380Y-92336904D01*
X401052380Y-92051190D02*
X400052380Y-92051190D01*
X400195238Y-92146428D01*
X400290476Y-92241666D01*
X400338095Y-92336904D01*
X400052380Y-91146428D02*
X400052380Y-91051190D01*
X400100000Y-90955952D01*
X400147619Y-90908333D01*
X400242857Y-90860714D01*
X400433333Y-90813095D01*
X400671428Y-90813095D01*
X400861904Y-90860714D01*
X400957142Y-90908333D01*
X401004761Y-90955952D01*
X401052380Y-91051190D01*
X401052380Y-91146428D01*
X401004761Y-91241666D01*
X400957142Y-91289285D01*
X400861904Y-91336904D01*
X400671428Y-91384523D01*
X400433333Y-91384523D01*
X400242857Y-91336904D01*
X400147619Y-91289285D01*
X400100000Y-91241666D01*
X400052380Y-91146428D01*
X405497380Y-92241666D02*
X405021190Y-92575000D01*
X405497380Y-92813095D02*
X404497380Y-92813095D01*
X404497380Y-92432142D01*
X404545000Y-92336904D01*
X404592619Y-92289285D01*
X404687857Y-92241666D01*
X404830714Y-92241666D01*
X404925952Y-92289285D01*
X404973571Y-92336904D01*
X405021190Y-92432142D01*
X405021190Y-92813095D01*
X405497380Y-91765476D02*
X405497380Y-91575000D01*
X405449761Y-91479761D01*
X405402142Y-91432142D01*
X405259285Y-91336904D01*
X405068809Y-91289285D01*
X404687857Y-91289285D01*
X404592619Y-91336904D01*
X404545000Y-91384523D01*
X404497380Y-91479761D01*
X404497380Y-91670238D01*
X404545000Y-91765476D01*
X404592619Y-91813095D01*
X404687857Y-91860714D01*
X404925952Y-91860714D01*
X405021190Y-91813095D01*
X405068809Y-91765476D01*
X405116428Y-91670238D01*
X405116428Y-91479761D01*
X405068809Y-91384523D01*
X405021190Y-91336904D01*
X404925952Y-91289285D01*
X409942380Y-92241666D02*
X409466190Y-92575000D01*
X409942380Y-92813095D02*
X408942380Y-92813095D01*
X408942380Y-92432142D01*
X408990000Y-92336904D01*
X409037619Y-92289285D01*
X409132857Y-92241666D01*
X409275714Y-92241666D01*
X409370952Y-92289285D01*
X409418571Y-92336904D01*
X409466190Y-92432142D01*
X409466190Y-92813095D01*
X409370952Y-91670238D02*
X409323333Y-91765476D01*
X409275714Y-91813095D01*
X409180476Y-91860714D01*
X409132857Y-91860714D01*
X409037619Y-91813095D01*
X408990000Y-91765476D01*
X408942380Y-91670238D01*
X408942380Y-91479761D01*
X408990000Y-91384523D01*
X409037619Y-91336904D01*
X409132857Y-91289285D01*
X409180476Y-91289285D01*
X409275714Y-91336904D01*
X409323333Y-91384523D01*
X409370952Y-91479761D01*
X409370952Y-91670238D01*
X409418571Y-91765476D01*
X409466190Y-91813095D01*
X409561428Y-91860714D01*
X409751904Y-91860714D01*
X409847142Y-91813095D01*
X409894761Y-91765476D01*
X409942380Y-91670238D01*
X409942380Y-91479761D01*
X409894761Y-91384523D01*
X409847142Y-91336904D01*
X409751904Y-91289285D01*
X409561428Y-91289285D01*
X409466190Y-91336904D01*
X409418571Y-91384523D01*
X409370952Y-91479761D01*
X414387380Y-92241666D02*
X413911190Y-92575000D01*
X414387380Y-92813095D02*
X413387380Y-92813095D01*
X413387380Y-92432142D01*
X413435000Y-92336904D01*
X413482619Y-92289285D01*
X413577857Y-92241666D01*
X413720714Y-92241666D01*
X413815952Y-92289285D01*
X413863571Y-92336904D01*
X413911190Y-92432142D01*
X413911190Y-92813095D01*
X413387380Y-91908333D02*
X413387380Y-91241666D01*
X414387380Y-91670238D01*
X418832380Y-92241666D02*
X418356190Y-92575000D01*
X418832380Y-92813095D02*
X417832380Y-92813095D01*
X417832380Y-92432142D01*
X417880000Y-92336904D01*
X417927619Y-92289285D01*
X418022857Y-92241666D01*
X418165714Y-92241666D01*
X418260952Y-92289285D01*
X418308571Y-92336904D01*
X418356190Y-92432142D01*
X418356190Y-92813095D01*
X417832380Y-91384523D02*
X417832380Y-91575000D01*
X417880000Y-91670238D01*
X417927619Y-91717857D01*
X418070476Y-91813095D01*
X418260952Y-91860714D01*
X418641904Y-91860714D01*
X418737142Y-91813095D01*
X418784761Y-91765476D01*
X418832380Y-91670238D01*
X418832380Y-91479761D01*
X418784761Y-91384523D01*
X418737142Y-91336904D01*
X418641904Y-91289285D01*
X418403809Y-91289285D01*
X418308571Y-91336904D01*
X418260952Y-91384523D01*
X418213333Y-91479761D01*
X418213333Y-91670238D01*
X418260952Y-91765476D01*
X418308571Y-91813095D01*
X418403809Y-91860714D01*
X423277380Y-92241666D02*
X422801190Y-92575000D01*
X423277380Y-92813095D02*
X422277380Y-92813095D01*
X422277380Y-92432142D01*
X422325000Y-92336904D01*
X422372619Y-92289285D01*
X422467857Y-92241666D01*
X422610714Y-92241666D01*
X422705952Y-92289285D01*
X422753571Y-92336904D01*
X422801190Y-92432142D01*
X422801190Y-92813095D01*
X422277380Y-91336904D02*
X422277380Y-91813095D01*
X422753571Y-91860714D01*
X422705952Y-91813095D01*
X422658333Y-91717857D01*
X422658333Y-91479761D01*
X422705952Y-91384523D01*
X422753571Y-91336904D01*
X422848809Y-91289285D01*
X423086904Y-91289285D01*
X423182142Y-91336904D01*
X423229761Y-91384523D01*
X423277380Y-91479761D01*
X423277380Y-91717857D01*
X423229761Y-91813095D01*
X423182142Y-91860714D01*
X427722380Y-92241666D02*
X427246190Y-92575000D01*
X427722380Y-92813095D02*
X426722380Y-92813095D01*
X426722380Y-92432142D01*
X426770000Y-92336904D01*
X426817619Y-92289285D01*
X426912857Y-92241666D01*
X427055714Y-92241666D01*
X427150952Y-92289285D01*
X427198571Y-92336904D01*
X427246190Y-92432142D01*
X427246190Y-92813095D01*
X427055714Y-91384523D02*
X427722380Y-91384523D01*
X426674761Y-91622619D02*
X427389047Y-91860714D01*
X427389047Y-91241666D01*
X432167380Y-92241666D02*
X431691190Y-92575000D01*
X432167380Y-92813095D02*
X431167380Y-92813095D01*
X431167380Y-92432142D01*
X431215000Y-92336904D01*
X431262619Y-92289285D01*
X431357857Y-92241666D01*
X431500714Y-92241666D01*
X431595952Y-92289285D01*
X431643571Y-92336904D01*
X431691190Y-92432142D01*
X431691190Y-92813095D01*
X431167380Y-91908333D02*
X431167380Y-91289285D01*
X431548333Y-91622619D01*
X431548333Y-91479761D01*
X431595952Y-91384523D01*
X431643571Y-91336904D01*
X431738809Y-91289285D01*
X431976904Y-91289285D01*
X432072142Y-91336904D01*
X432119761Y-91384523D01*
X432167380Y-91479761D01*
X432167380Y-91765476D01*
X432119761Y-91860714D01*
X432072142Y-91908333D01*
X359862380Y-114879285D02*
X358862380Y-114879285D01*
X358862380Y-114641190D01*
X358910000Y-114498333D01*
X359005238Y-114403095D01*
X359100476Y-114355476D01*
X359290952Y-114307857D01*
X359433809Y-114307857D01*
X359624285Y-114355476D01*
X359719523Y-114403095D01*
X359814761Y-114498333D01*
X359862380Y-114641190D01*
X359862380Y-114879285D01*
X359862380Y-113355476D02*
X359862380Y-113926904D01*
X359862380Y-113641190D02*
X358862380Y-113641190D01*
X359005238Y-113736428D01*
X359100476Y-113831666D01*
X359148095Y-113926904D01*
X358862380Y-113022142D02*
X358862380Y-112355476D01*
X359862380Y-112784047D01*
X359862380Y-104719285D02*
X358862380Y-104719285D01*
X358862380Y-104481190D01*
X358910000Y-104338333D01*
X359005238Y-104243095D01*
X359100476Y-104195476D01*
X359290952Y-104147857D01*
X359433809Y-104147857D01*
X359624285Y-104195476D01*
X359719523Y-104243095D01*
X359814761Y-104338333D01*
X359862380Y-104481190D01*
X359862380Y-104719285D01*
X359862380Y-103195476D02*
X359862380Y-103766904D01*
X359862380Y-103481190D02*
X358862380Y-103481190D01*
X359005238Y-103576428D01*
X359100476Y-103671666D01*
X359148095Y-103766904D01*
X358862380Y-102338333D02*
X358862380Y-102528809D01*
X358910000Y-102624047D01*
X358957619Y-102671666D01*
X359100476Y-102766904D01*
X359290952Y-102814523D01*
X359671904Y-102814523D01*
X359767142Y-102766904D01*
X359814761Y-102719285D01*
X359862380Y-102624047D01*
X359862380Y-102433571D01*
X359814761Y-102338333D01*
X359767142Y-102290714D01*
X359671904Y-102243095D01*
X359433809Y-102243095D01*
X359338571Y-102290714D01*
X359290952Y-102338333D01*
X359243333Y-102433571D01*
X359243333Y-102624047D01*
X359290952Y-102719285D01*
X359338571Y-102766904D01*
X359433809Y-102814523D01*
X369937380Y-109799285D02*
X368937380Y-109799285D01*
X368937380Y-109561190D01*
X368985000Y-109418333D01*
X369080238Y-109323095D01*
X369175476Y-109275476D01*
X369365952Y-109227857D01*
X369508809Y-109227857D01*
X369699285Y-109275476D01*
X369794523Y-109323095D01*
X369889761Y-109418333D01*
X369937380Y-109561190D01*
X369937380Y-109799285D01*
X369937380Y-108275476D02*
X369937380Y-108846904D01*
X369937380Y-108561190D02*
X368937380Y-108561190D01*
X369080238Y-108656428D01*
X369175476Y-108751666D01*
X369223095Y-108846904D01*
X368937380Y-107370714D02*
X368937380Y-107846904D01*
X369413571Y-107894523D01*
X369365952Y-107846904D01*
X369318333Y-107751666D01*
X369318333Y-107513571D01*
X369365952Y-107418333D01*
X369413571Y-107370714D01*
X369508809Y-107323095D01*
X369746904Y-107323095D01*
X369842142Y-107370714D01*
X369889761Y-107418333D01*
X369937380Y-107513571D01*
X369937380Y-107751666D01*
X369889761Y-107846904D01*
X369842142Y-107894523D01*
X374382380Y-109799285D02*
X373382380Y-109799285D01*
X373382380Y-109561190D01*
X373430000Y-109418333D01*
X373525238Y-109323095D01*
X373620476Y-109275476D01*
X373810952Y-109227857D01*
X373953809Y-109227857D01*
X374144285Y-109275476D01*
X374239523Y-109323095D01*
X374334761Y-109418333D01*
X374382380Y-109561190D01*
X374382380Y-109799285D01*
X374382380Y-108275476D02*
X374382380Y-108846904D01*
X374382380Y-108561190D02*
X373382380Y-108561190D01*
X373525238Y-108656428D01*
X373620476Y-108751666D01*
X373668095Y-108846904D01*
X373715714Y-107418333D02*
X374382380Y-107418333D01*
X373334761Y-107656428D02*
X374049047Y-107894523D01*
X374049047Y-107275476D01*
X378827380Y-109799285D02*
X377827380Y-109799285D01*
X377827380Y-109561190D01*
X377875000Y-109418333D01*
X377970238Y-109323095D01*
X378065476Y-109275476D01*
X378255952Y-109227857D01*
X378398809Y-109227857D01*
X378589285Y-109275476D01*
X378684523Y-109323095D01*
X378779761Y-109418333D01*
X378827380Y-109561190D01*
X378827380Y-109799285D01*
X378827380Y-108275476D02*
X378827380Y-108846904D01*
X378827380Y-108561190D02*
X377827380Y-108561190D01*
X377970238Y-108656428D01*
X378065476Y-108751666D01*
X378113095Y-108846904D01*
X377827380Y-107942142D02*
X377827380Y-107323095D01*
X378208333Y-107656428D01*
X378208333Y-107513571D01*
X378255952Y-107418333D01*
X378303571Y-107370714D01*
X378398809Y-107323095D01*
X378636904Y-107323095D01*
X378732142Y-107370714D01*
X378779761Y-107418333D01*
X378827380Y-107513571D01*
X378827380Y-107799285D01*
X378779761Y-107894523D01*
X378732142Y-107942142D01*
X383272380Y-109799285D02*
X382272380Y-109799285D01*
X382272380Y-109561190D01*
X382320000Y-109418333D01*
X382415238Y-109323095D01*
X382510476Y-109275476D01*
X382700952Y-109227857D01*
X382843809Y-109227857D01*
X383034285Y-109275476D01*
X383129523Y-109323095D01*
X383224761Y-109418333D01*
X383272380Y-109561190D01*
X383272380Y-109799285D01*
X383272380Y-108275476D02*
X383272380Y-108846904D01*
X383272380Y-108561190D02*
X382272380Y-108561190D01*
X382415238Y-108656428D01*
X382510476Y-108751666D01*
X382558095Y-108846904D01*
X382367619Y-107894523D02*
X382320000Y-107846904D01*
X382272380Y-107751666D01*
X382272380Y-107513571D01*
X382320000Y-107418333D01*
X382367619Y-107370714D01*
X382462857Y-107323095D01*
X382558095Y-107323095D01*
X382700952Y-107370714D01*
X383272380Y-107942142D01*
X383272380Y-107323095D01*
X387717380Y-109799285D02*
X386717380Y-109799285D01*
X386717380Y-109561190D01*
X386765000Y-109418333D01*
X386860238Y-109323095D01*
X386955476Y-109275476D01*
X387145952Y-109227857D01*
X387288809Y-109227857D01*
X387479285Y-109275476D01*
X387574523Y-109323095D01*
X387669761Y-109418333D01*
X387717380Y-109561190D01*
X387717380Y-109799285D01*
X387717380Y-108275476D02*
X387717380Y-108846904D01*
X387717380Y-108561190D02*
X386717380Y-108561190D01*
X386860238Y-108656428D01*
X386955476Y-108751666D01*
X387003095Y-108846904D01*
X387717380Y-107323095D02*
X387717380Y-107894523D01*
X387717380Y-107608809D02*
X386717380Y-107608809D01*
X386860238Y-107704047D01*
X386955476Y-107799285D01*
X387003095Y-107894523D01*
X392162380Y-109799285D02*
X391162380Y-109799285D01*
X391162380Y-109561190D01*
X391210000Y-109418333D01*
X391305238Y-109323095D01*
X391400476Y-109275476D01*
X391590952Y-109227857D01*
X391733809Y-109227857D01*
X391924285Y-109275476D01*
X392019523Y-109323095D01*
X392114761Y-109418333D01*
X392162380Y-109561190D01*
X392162380Y-109799285D01*
X392162380Y-108275476D02*
X392162380Y-108846904D01*
X392162380Y-108561190D02*
X391162380Y-108561190D01*
X391305238Y-108656428D01*
X391400476Y-108751666D01*
X391448095Y-108846904D01*
X391162380Y-107656428D02*
X391162380Y-107561190D01*
X391210000Y-107465952D01*
X391257619Y-107418333D01*
X391352857Y-107370714D01*
X391543333Y-107323095D01*
X391781428Y-107323095D01*
X391971904Y-107370714D01*
X392067142Y-107418333D01*
X392114761Y-107465952D01*
X392162380Y-107561190D01*
X392162380Y-107656428D01*
X392114761Y-107751666D01*
X392067142Y-107799285D01*
X391971904Y-107846904D01*
X391781428Y-107894523D01*
X391543333Y-107894523D01*
X391352857Y-107846904D01*
X391257619Y-107799285D01*
X391210000Y-107751666D01*
X391162380Y-107656428D01*
X396607380Y-109323095D02*
X395607380Y-109323095D01*
X395607380Y-109085000D01*
X395655000Y-108942142D01*
X395750238Y-108846904D01*
X395845476Y-108799285D01*
X396035952Y-108751666D01*
X396178809Y-108751666D01*
X396369285Y-108799285D01*
X396464523Y-108846904D01*
X396559761Y-108942142D01*
X396607380Y-109085000D01*
X396607380Y-109323095D01*
X396607380Y-108275476D02*
X396607380Y-108085000D01*
X396559761Y-107989761D01*
X396512142Y-107942142D01*
X396369285Y-107846904D01*
X396178809Y-107799285D01*
X395797857Y-107799285D01*
X395702619Y-107846904D01*
X395655000Y-107894523D01*
X395607380Y-107989761D01*
X395607380Y-108180238D01*
X395655000Y-108275476D01*
X395702619Y-108323095D01*
X395797857Y-108370714D01*
X396035952Y-108370714D01*
X396131190Y-108323095D01*
X396178809Y-108275476D01*
X396226428Y-108180238D01*
X396226428Y-107989761D01*
X396178809Y-107894523D01*
X396131190Y-107846904D01*
X396035952Y-107799285D01*
X401052380Y-109323095D02*
X400052380Y-109323095D01*
X400052380Y-109085000D01*
X400100000Y-108942142D01*
X400195238Y-108846904D01*
X400290476Y-108799285D01*
X400480952Y-108751666D01*
X400623809Y-108751666D01*
X400814285Y-108799285D01*
X400909523Y-108846904D01*
X401004761Y-108942142D01*
X401052380Y-109085000D01*
X401052380Y-109323095D01*
X400480952Y-108180238D02*
X400433333Y-108275476D01*
X400385714Y-108323095D01*
X400290476Y-108370714D01*
X400242857Y-108370714D01*
X400147619Y-108323095D01*
X400100000Y-108275476D01*
X400052380Y-108180238D01*
X400052380Y-107989761D01*
X400100000Y-107894523D01*
X400147619Y-107846904D01*
X400242857Y-107799285D01*
X400290476Y-107799285D01*
X400385714Y-107846904D01*
X400433333Y-107894523D01*
X400480952Y-107989761D01*
X400480952Y-108180238D01*
X400528571Y-108275476D01*
X400576190Y-108323095D01*
X400671428Y-108370714D01*
X400861904Y-108370714D01*
X400957142Y-108323095D01*
X401004761Y-108275476D01*
X401052380Y-108180238D01*
X401052380Y-107989761D01*
X401004761Y-107894523D01*
X400957142Y-107846904D01*
X400861904Y-107799285D01*
X400671428Y-107799285D01*
X400576190Y-107846904D01*
X400528571Y-107894523D01*
X400480952Y-107989761D01*
X405497380Y-109323095D02*
X404497380Y-109323095D01*
X404497380Y-109085000D01*
X404545000Y-108942142D01*
X404640238Y-108846904D01*
X404735476Y-108799285D01*
X404925952Y-108751666D01*
X405068809Y-108751666D01*
X405259285Y-108799285D01*
X405354523Y-108846904D01*
X405449761Y-108942142D01*
X405497380Y-109085000D01*
X405497380Y-109323095D01*
X404497380Y-108418333D02*
X404497380Y-107751666D01*
X405497380Y-108180238D01*
X409942380Y-109323095D02*
X408942380Y-109323095D01*
X408942380Y-109085000D01*
X408990000Y-108942142D01*
X409085238Y-108846904D01*
X409180476Y-108799285D01*
X409370952Y-108751666D01*
X409513809Y-108751666D01*
X409704285Y-108799285D01*
X409799523Y-108846904D01*
X409894761Y-108942142D01*
X409942380Y-109085000D01*
X409942380Y-109323095D01*
X408942380Y-107894523D02*
X408942380Y-108085000D01*
X408990000Y-108180238D01*
X409037619Y-108227857D01*
X409180476Y-108323095D01*
X409370952Y-108370714D01*
X409751904Y-108370714D01*
X409847142Y-108323095D01*
X409894761Y-108275476D01*
X409942380Y-108180238D01*
X409942380Y-107989761D01*
X409894761Y-107894523D01*
X409847142Y-107846904D01*
X409751904Y-107799285D01*
X409513809Y-107799285D01*
X409418571Y-107846904D01*
X409370952Y-107894523D01*
X409323333Y-107989761D01*
X409323333Y-108180238D01*
X409370952Y-108275476D01*
X409418571Y-108323095D01*
X409513809Y-108370714D01*
X414387380Y-109323095D02*
X413387380Y-109323095D01*
X413387380Y-109085000D01*
X413435000Y-108942142D01*
X413530238Y-108846904D01*
X413625476Y-108799285D01*
X413815952Y-108751666D01*
X413958809Y-108751666D01*
X414149285Y-108799285D01*
X414244523Y-108846904D01*
X414339761Y-108942142D01*
X414387380Y-109085000D01*
X414387380Y-109323095D01*
X413387380Y-107846904D02*
X413387380Y-108323095D01*
X413863571Y-108370714D01*
X413815952Y-108323095D01*
X413768333Y-108227857D01*
X413768333Y-107989761D01*
X413815952Y-107894523D01*
X413863571Y-107846904D01*
X413958809Y-107799285D01*
X414196904Y-107799285D01*
X414292142Y-107846904D01*
X414339761Y-107894523D01*
X414387380Y-107989761D01*
X414387380Y-108227857D01*
X414339761Y-108323095D01*
X414292142Y-108370714D01*
X418832380Y-109323095D02*
X417832380Y-109323095D01*
X417832380Y-109085000D01*
X417880000Y-108942142D01*
X417975238Y-108846904D01*
X418070476Y-108799285D01*
X418260952Y-108751666D01*
X418403809Y-108751666D01*
X418594285Y-108799285D01*
X418689523Y-108846904D01*
X418784761Y-108942142D01*
X418832380Y-109085000D01*
X418832380Y-109323095D01*
X418165714Y-107894523D02*
X418832380Y-107894523D01*
X417784761Y-108132619D02*
X418499047Y-108370714D01*
X418499047Y-107751666D01*
X423277380Y-109323095D02*
X422277380Y-109323095D01*
X422277380Y-109085000D01*
X422325000Y-108942142D01*
X422420238Y-108846904D01*
X422515476Y-108799285D01*
X422705952Y-108751666D01*
X422848809Y-108751666D01*
X423039285Y-108799285D01*
X423134523Y-108846904D01*
X423229761Y-108942142D01*
X423277380Y-109085000D01*
X423277380Y-109323095D01*
X422277380Y-108418333D02*
X422277380Y-107799285D01*
X422658333Y-108132619D01*
X422658333Y-107989761D01*
X422705952Y-107894523D01*
X422753571Y-107846904D01*
X422848809Y-107799285D01*
X423086904Y-107799285D01*
X423182142Y-107846904D01*
X423229761Y-107894523D01*
X423277380Y-107989761D01*
X423277380Y-108275476D01*
X423229761Y-108370714D01*
X423182142Y-108418333D01*
X427722380Y-109323095D02*
X426722380Y-109323095D01*
X426722380Y-109085000D01*
X426770000Y-108942142D01*
X426865238Y-108846904D01*
X426960476Y-108799285D01*
X427150952Y-108751666D01*
X427293809Y-108751666D01*
X427484285Y-108799285D01*
X427579523Y-108846904D01*
X427674761Y-108942142D01*
X427722380Y-109085000D01*
X427722380Y-109323095D01*
X426817619Y-108370714D02*
X426770000Y-108323095D01*
X426722380Y-108227857D01*
X426722380Y-107989761D01*
X426770000Y-107894523D01*
X426817619Y-107846904D01*
X426912857Y-107799285D01*
X427008095Y-107799285D01*
X427150952Y-107846904D01*
X427722380Y-108418333D01*
X427722380Y-107799285D01*
X432167380Y-109323095D02*
X431167380Y-109323095D01*
X431167380Y-109085000D01*
X431215000Y-108942142D01*
X431310238Y-108846904D01*
X431405476Y-108799285D01*
X431595952Y-108751666D01*
X431738809Y-108751666D01*
X431929285Y-108799285D01*
X432024523Y-108846904D01*
X432119761Y-108942142D01*
X432167380Y-109085000D01*
X432167380Y-109323095D01*
X432167380Y-107799285D02*
X432167380Y-108370714D01*
X432167380Y-108085000D02*
X431167380Y-108085000D01*
X431310238Y-108180238D01*
X431405476Y-108275476D01*
X431453095Y-108370714D01*
X359400476Y-46702380D02*
X359400476Y-47416666D01*
X359352857Y-47559523D01*
X359257619Y-47654761D01*
X359114761Y-47702380D01*
X359019523Y-47702380D01*
X360400476Y-47702380D02*
X359829047Y-47702380D01*
X360114761Y-47702380D02*
X360114761Y-46702380D01*
X360019523Y-46845238D01*
X359924285Y-46940476D01*
X359829047Y-46988095D01*
X361352857Y-47702380D02*
X360781428Y-47702380D01*
X361067142Y-47702380D02*
X361067142Y-46702380D01*
X360971904Y-46845238D01*
X360876666Y-46940476D01*
X360781428Y-46988095D01*
X435600476Y-46702380D02*
X435600476Y-47416666D01*
X435552857Y-47559523D01*
X435457619Y-47654761D01*
X435314761Y-47702380D01*
X435219523Y-47702380D01*
X436600476Y-47702380D02*
X436029047Y-47702380D01*
X436314761Y-47702380D02*
X436314761Y-46702380D01*
X436219523Y-46845238D01*
X436124285Y-46940476D01*
X436029047Y-46988095D01*
X437219523Y-46702380D02*
X437314761Y-46702380D01*
X437410000Y-46750000D01*
X437457619Y-46797619D01*
X437505238Y-46892857D01*
X437552857Y-47083333D01*
X437552857Y-47321428D01*
X437505238Y-47511904D01*
X437457619Y-47607142D01*
X437410000Y-47654761D01*
X437314761Y-47702380D01*
X437219523Y-47702380D01*
X437124285Y-47654761D01*
X437076666Y-47607142D01*
X437029047Y-47511904D01*
X436981428Y-47321428D01*
X436981428Y-47083333D01*
X437029047Y-46892857D01*
X437076666Y-46797619D01*
X437124285Y-46750000D01*
X437219523Y-46702380D01*
X343376666Y-306532380D02*
X343376666Y-307246666D01*
X343329047Y-307389523D01*
X343233809Y-307484761D01*
X343090952Y-307532380D01*
X342995714Y-307532380D01*
X343900476Y-307532380D02*
X344090952Y-307532380D01*
X344186190Y-307484761D01*
X344233809Y-307437142D01*
X344329047Y-307294285D01*
X344376666Y-307103809D01*
X344376666Y-306722857D01*
X344329047Y-306627619D01*
X344281428Y-306580000D01*
X344186190Y-306532380D01*
X343995714Y-306532380D01*
X343900476Y-306580000D01*
X343852857Y-306627619D01*
X343805238Y-306722857D01*
X343805238Y-306960952D01*
X343852857Y-307056190D01*
X343900476Y-307103809D01*
X343995714Y-307151428D01*
X344186190Y-307151428D01*
X344281428Y-307103809D01*
X344329047Y-307056190D01*
X344376666Y-306960952D01*
X317212380Y-289783333D02*
X317926666Y-289783333D01*
X318069523Y-289830952D01*
X318164761Y-289926190D01*
X318212380Y-290069047D01*
X318212380Y-290164285D01*
X317640952Y-289164285D02*
X317593333Y-289259523D01*
X317545714Y-289307142D01*
X317450476Y-289354761D01*
X317402857Y-289354761D01*
X317307619Y-289307142D01*
X317260000Y-289259523D01*
X317212380Y-289164285D01*
X317212380Y-288973809D01*
X317260000Y-288878571D01*
X317307619Y-288830952D01*
X317402857Y-288783333D01*
X317450476Y-288783333D01*
X317545714Y-288830952D01*
X317593333Y-288878571D01*
X317640952Y-288973809D01*
X317640952Y-289164285D01*
X317688571Y-289259523D01*
X317736190Y-289307142D01*
X317831428Y-289354761D01*
X318021904Y-289354761D01*
X318117142Y-289307142D01*
X318164761Y-289259523D01*
X318212380Y-289164285D01*
X318212380Y-288973809D01*
X318164761Y-288878571D01*
X318117142Y-288830952D01*
X318021904Y-288783333D01*
X317831428Y-288783333D01*
X317736190Y-288830952D01*
X317688571Y-288878571D01*
X317640952Y-288973809D01*
X317212380Y-223053333D02*
X317926666Y-223053333D01*
X318069523Y-223100952D01*
X318164761Y-223196190D01*
X318212380Y-223339047D01*
X318212380Y-223434285D01*
X317212380Y-222672380D02*
X317212380Y-222005714D01*
X318212380Y-222434285D01*
X317212380Y-152623333D02*
X317926666Y-152623333D01*
X318069523Y-152670952D01*
X318164761Y-152766190D01*
X318212380Y-152909047D01*
X318212380Y-153004285D01*
X317212380Y-151718571D02*
X317212380Y-151909047D01*
X317260000Y-152004285D01*
X317307619Y-152051904D01*
X317450476Y-152147142D01*
X317640952Y-152194761D01*
X318021904Y-152194761D01*
X318117142Y-152147142D01*
X318164761Y-152099523D01*
X318212380Y-152004285D01*
X318212380Y-151813809D01*
X318164761Y-151718571D01*
X318117142Y-151670952D01*
X318021904Y-151623333D01*
X317783809Y-151623333D01*
X317688571Y-151670952D01*
X317640952Y-151718571D01*
X317593333Y-151813809D01*
X317593333Y-152004285D01*
X317640952Y-152099523D01*
X317688571Y-152147142D01*
X317783809Y-152194761D01*
X317212380Y-87163333D02*
X317926666Y-87163333D01*
X318069523Y-87210952D01*
X318164761Y-87306190D01*
X318212380Y-87449047D01*
X318212380Y-87544285D01*
X317212380Y-86210952D02*
X317212380Y-86687142D01*
X317688571Y-86734761D01*
X317640952Y-86687142D01*
X317593333Y-86591904D01*
X317593333Y-86353809D01*
X317640952Y-86258571D01*
X317688571Y-86210952D01*
X317783809Y-86163333D01*
X318021904Y-86163333D01*
X318117142Y-86210952D01*
X318164761Y-86258571D01*
X318212380Y-86353809D01*
X318212380Y-86591904D01*
X318164761Y-86687142D01*
X318117142Y-86734761D01*
X433206666Y-306532380D02*
X433206666Y-307246666D01*
X433159047Y-307389523D01*
X433063809Y-307484761D01*
X432920952Y-307532380D01*
X432825714Y-307532380D01*
X434111428Y-306865714D02*
X434111428Y-307532380D01*
X433873333Y-306484761D02*
X433635238Y-307199047D01*
X434254285Y-307199047D01*
X475442380Y-255133333D02*
X476156666Y-255133333D01*
X476299523Y-255180952D01*
X476394761Y-255276190D01*
X476442380Y-255419047D01*
X476442380Y-255514285D01*
X475442380Y-254752380D02*
X475442380Y-254133333D01*
X475823333Y-254466666D01*
X475823333Y-254323809D01*
X475870952Y-254228571D01*
X475918571Y-254180952D01*
X476013809Y-254133333D01*
X476251904Y-254133333D01*
X476347142Y-254180952D01*
X476394761Y-254228571D01*
X476442380Y-254323809D01*
X476442380Y-254609523D01*
X476394761Y-254704761D01*
X476347142Y-254752380D01*
X475442380Y-87493333D02*
X476156666Y-87493333D01*
X476299523Y-87540952D01*
X476394761Y-87636190D01*
X476442380Y-87779047D01*
X476442380Y-87874285D01*
X475537619Y-87064761D02*
X475490000Y-87017142D01*
X475442380Y-86921904D01*
X475442380Y-86683809D01*
X475490000Y-86588571D01*
X475537619Y-86540952D01*
X475632857Y-86493333D01*
X475728095Y-86493333D01*
X475870952Y-86540952D01*
X476442380Y-87112380D01*
X476442380Y-86493333D01*
X475442380Y-171313333D02*
X476156666Y-171313333D01*
X476299523Y-171360952D01*
X476394761Y-171456190D01*
X476442380Y-171599047D01*
X476442380Y-171694285D01*
X476442380Y-170313333D02*
X476442380Y-170884761D01*
X476442380Y-170599047D02*
X475442380Y-170599047D01*
X475585238Y-170694285D01*
X475680476Y-170789523D01*
X475728095Y-170884761D01*
X454691904Y-205452380D02*
X454691904Y-206261904D01*
X454739523Y-206357142D01*
X454787142Y-206404761D01*
X454882380Y-206452380D01*
X455072857Y-206452380D01*
X455168095Y-206404761D01*
X455215714Y-206357142D01*
X455263333Y-206261904D01*
X455263333Y-205452380D01*
X455644285Y-205452380D02*
X456263333Y-205452380D01*
X455930000Y-205833333D01*
X456072857Y-205833333D01*
X456168095Y-205880952D01*
X456215714Y-205928571D01*
X456263333Y-206023809D01*
X456263333Y-206261904D01*
X456215714Y-206357142D01*
X456168095Y-206404761D01*
X456072857Y-206452380D01*
X455787142Y-206452380D01*
X455691904Y-206404761D01*
X455644285Y-206357142D01*
X456644285Y-205547619D02*
X456691904Y-205500000D01*
X456787142Y-205452380D01*
X457025238Y-205452380D01*
X457120476Y-205500000D01*
X457168095Y-205547619D01*
X457215714Y-205642857D01*
X457215714Y-205738095D01*
X457168095Y-205880952D01*
X456596666Y-206452380D01*
X457215714Y-206452380D01*
X342931904Y-147032380D02*
X342931904Y-147841904D01*
X342979523Y-147937142D01*
X343027142Y-147984761D01*
X343122380Y-148032380D01*
X343312857Y-148032380D01*
X343408095Y-147984761D01*
X343455714Y-147937142D01*
X343503333Y-147841904D01*
X343503333Y-147032380D01*
X343884285Y-147032380D02*
X344503333Y-147032380D01*
X344170000Y-147413333D01*
X344312857Y-147413333D01*
X344408095Y-147460952D01*
X344455714Y-147508571D01*
X344503333Y-147603809D01*
X344503333Y-147841904D01*
X344455714Y-147937142D01*
X344408095Y-147984761D01*
X344312857Y-148032380D01*
X344027142Y-148032380D01*
X343931904Y-147984761D01*
X343884285Y-147937142D01*
X345455714Y-148032380D02*
X344884285Y-148032380D01*
X345170000Y-148032380D02*
X345170000Y-147032380D01*
X345074761Y-147175238D01*
X344979523Y-147270476D01*
X344884285Y-147318095D01*
X390556904Y-272762380D02*
X390556904Y-273571904D01*
X390604523Y-273667142D01*
X390652142Y-273714761D01*
X390747380Y-273762380D01*
X390937857Y-273762380D01*
X391033095Y-273714761D01*
X391080714Y-273667142D01*
X391128333Y-273571904D01*
X391128333Y-272762380D01*
X391509285Y-272762380D02*
X392128333Y-272762380D01*
X391795000Y-273143333D01*
X391937857Y-273143333D01*
X392033095Y-273190952D01*
X392080714Y-273238571D01*
X392128333Y-273333809D01*
X392128333Y-273571904D01*
X392080714Y-273667142D01*
X392033095Y-273714761D01*
X391937857Y-273762380D01*
X391652142Y-273762380D01*
X391556904Y-273714761D01*
X391509285Y-273667142D01*
X392747380Y-272762380D02*
X392842619Y-272762380D01*
X392937857Y-272810000D01*
X392985476Y-272857619D01*
X393033095Y-272952857D01*
X393080714Y-273143333D01*
X393080714Y-273381428D01*
X393033095Y-273571904D01*
X392985476Y-273667142D01*
X392937857Y-273714761D01*
X392842619Y-273762380D01*
X392747380Y-273762380D01*
X392652142Y-273714761D01*
X392604523Y-273667142D01*
X392556904Y-273571904D01*
X392509285Y-273381428D01*
X392509285Y-273143333D01*
X392556904Y-272952857D01*
X392604523Y-272857619D01*
X392652142Y-272810000D01*
X392747380Y-272762380D01*
X381666904Y-272762380D02*
X381666904Y-273571904D01*
X381714523Y-273667142D01*
X381762142Y-273714761D01*
X381857380Y-273762380D01*
X382047857Y-273762380D01*
X382143095Y-273714761D01*
X382190714Y-273667142D01*
X382238333Y-273571904D01*
X382238333Y-272762380D01*
X382666904Y-272857619D02*
X382714523Y-272810000D01*
X382809761Y-272762380D01*
X383047857Y-272762380D01*
X383143095Y-272810000D01*
X383190714Y-272857619D01*
X383238333Y-272952857D01*
X383238333Y-273048095D01*
X383190714Y-273190952D01*
X382619285Y-273762380D01*
X383238333Y-273762380D01*
X383714523Y-273762380D02*
X383905000Y-273762380D01*
X384000238Y-273714761D01*
X384047857Y-273667142D01*
X384143095Y-273524285D01*
X384190714Y-273333809D01*
X384190714Y-272952857D01*
X384143095Y-272857619D01*
X384095476Y-272810000D01*
X384000238Y-272762380D01*
X383809761Y-272762380D01*
X383714523Y-272810000D01*
X383666904Y-272857619D01*
X383619285Y-272952857D01*
X383619285Y-273190952D01*
X383666904Y-273286190D01*
X383714523Y-273333809D01*
X383809761Y-273381428D01*
X384000238Y-273381428D01*
X384095476Y-273333809D01*
X384143095Y-273286190D01*
X384190714Y-273190952D01*
X372776904Y-272762380D02*
X372776904Y-273571904D01*
X372824523Y-273667142D01*
X372872142Y-273714761D01*
X372967380Y-273762380D01*
X373157857Y-273762380D01*
X373253095Y-273714761D01*
X373300714Y-273667142D01*
X373348333Y-273571904D01*
X373348333Y-272762380D01*
X373776904Y-272857619D02*
X373824523Y-272810000D01*
X373919761Y-272762380D01*
X374157857Y-272762380D01*
X374253095Y-272810000D01*
X374300714Y-272857619D01*
X374348333Y-272952857D01*
X374348333Y-273048095D01*
X374300714Y-273190952D01*
X373729285Y-273762380D01*
X374348333Y-273762380D01*
X374919761Y-273190952D02*
X374824523Y-273143333D01*
X374776904Y-273095714D01*
X374729285Y-273000476D01*
X374729285Y-272952857D01*
X374776904Y-272857619D01*
X374824523Y-272810000D01*
X374919761Y-272762380D01*
X375110238Y-272762380D01*
X375205476Y-272810000D01*
X375253095Y-272857619D01*
X375300714Y-272952857D01*
X375300714Y-273000476D01*
X375253095Y-273095714D01*
X375205476Y-273143333D01*
X375110238Y-273190952D01*
X374919761Y-273190952D01*
X374824523Y-273238571D01*
X374776904Y-273286190D01*
X374729285Y-273381428D01*
X374729285Y-273571904D01*
X374776904Y-273667142D01*
X374824523Y-273714761D01*
X374919761Y-273762380D01*
X375110238Y-273762380D01*
X375205476Y-273714761D01*
X375253095Y-273667142D01*
X375300714Y-273571904D01*
X375300714Y-273381428D01*
X375253095Y-273286190D01*
X375205476Y-273238571D01*
X375110238Y-273190952D01*
X363886904Y-272762380D02*
X363886904Y-273571904D01*
X363934523Y-273667142D01*
X363982142Y-273714761D01*
X364077380Y-273762380D01*
X364267857Y-273762380D01*
X364363095Y-273714761D01*
X364410714Y-273667142D01*
X364458333Y-273571904D01*
X364458333Y-272762380D01*
X364886904Y-272857619D02*
X364934523Y-272810000D01*
X365029761Y-272762380D01*
X365267857Y-272762380D01*
X365363095Y-272810000D01*
X365410714Y-272857619D01*
X365458333Y-272952857D01*
X365458333Y-273048095D01*
X365410714Y-273190952D01*
X364839285Y-273762380D01*
X365458333Y-273762380D01*
X365791666Y-272762380D02*
X366458333Y-272762380D01*
X366029761Y-273762380D01*
X454691904Y-110837380D02*
X454691904Y-111646904D01*
X454739523Y-111742142D01*
X454787142Y-111789761D01*
X454882380Y-111837380D01*
X455072857Y-111837380D01*
X455168095Y-111789761D01*
X455215714Y-111742142D01*
X455263333Y-111646904D01*
X455263333Y-110837380D01*
X455691904Y-110932619D02*
X455739523Y-110885000D01*
X455834761Y-110837380D01*
X456072857Y-110837380D01*
X456168095Y-110885000D01*
X456215714Y-110932619D01*
X456263333Y-111027857D01*
X456263333Y-111123095D01*
X456215714Y-111265952D01*
X455644285Y-111837380D01*
X456263333Y-111837380D01*
X457120476Y-110837380D02*
X456930000Y-110837380D01*
X456834761Y-110885000D01*
X456787142Y-110932619D01*
X456691904Y-111075476D01*
X456644285Y-111265952D01*
X456644285Y-111646904D01*
X456691904Y-111742142D01*
X456739523Y-111789761D01*
X456834761Y-111837380D01*
X457025238Y-111837380D01*
X457120476Y-111789761D01*
X457168095Y-111742142D01*
X457215714Y-111646904D01*
X457215714Y-111408809D01*
X457168095Y-111313571D01*
X457120476Y-111265952D01*
X457025238Y-111218333D01*
X456834761Y-111218333D01*
X456739523Y-111265952D01*
X456691904Y-111313571D01*
X456644285Y-111408809D01*
X454691904Y-117822380D02*
X454691904Y-118631904D01*
X454739523Y-118727142D01*
X454787142Y-118774761D01*
X454882380Y-118822380D01*
X455072857Y-118822380D01*
X455168095Y-118774761D01*
X455215714Y-118727142D01*
X455263333Y-118631904D01*
X455263333Y-117822380D01*
X455691904Y-117917619D02*
X455739523Y-117870000D01*
X455834761Y-117822380D01*
X456072857Y-117822380D01*
X456168095Y-117870000D01*
X456215714Y-117917619D01*
X456263333Y-118012857D01*
X456263333Y-118108095D01*
X456215714Y-118250952D01*
X455644285Y-118822380D01*
X456263333Y-118822380D01*
X457168095Y-117822380D02*
X456691904Y-117822380D01*
X456644285Y-118298571D01*
X456691904Y-118250952D01*
X456787142Y-118203333D01*
X457025238Y-118203333D01*
X457120476Y-118250952D01*
X457168095Y-118298571D01*
X457215714Y-118393809D01*
X457215714Y-118631904D01*
X457168095Y-118727142D01*
X457120476Y-118774761D01*
X457025238Y-118822380D01*
X456787142Y-118822380D01*
X456691904Y-118774761D01*
X456644285Y-118727142D01*
X454691904Y-124807380D02*
X454691904Y-125616904D01*
X454739523Y-125712142D01*
X454787142Y-125759761D01*
X454882380Y-125807380D01*
X455072857Y-125807380D01*
X455168095Y-125759761D01*
X455215714Y-125712142D01*
X455263333Y-125616904D01*
X455263333Y-124807380D01*
X455691904Y-124902619D02*
X455739523Y-124855000D01*
X455834761Y-124807380D01*
X456072857Y-124807380D01*
X456168095Y-124855000D01*
X456215714Y-124902619D01*
X456263333Y-124997857D01*
X456263333Y-125093095D01*
X456215714Y-125235952D01*
X455644285Y-125807380D01*
X456263333Y-125807380D01*
X457120476Y-125140714D02*
X457120476Y-125807380D01*
X456882380Y-124759761D02*
X456644285Y-125474047D01*
X457263333Y-125474047D01*
X454691904Y-131792380D02*
X454691904Y-132601904D01*
X454739523Y-132697142D01*
X454787142Y-132744761D01*
X454882380Y-132792380D01*
X455072857Y-132792380D01*
X455168095Y-132744761D01*
X455215714Y-132697142D01*
X455263333Y-132601904D01*
X455263333Y-131792380D01*
X455691904Y-131887619D02*
X455739523Y-131840000D01*
X455834761Y-131792380D01*
X456072857Y-131792380D01*
X456168095Y-131840000D01*
X456215714Y-131887619D01*
X456263333Y-131982857D01*
X456263333Y-132078095D01*
X456215714Y-132220952D01*
X455644285Y-132792380D01*
X456263333Y-132792380D01*
X456596666Y-131792380D02*
X457215714Y-131792380D01*
X456882380Y-132173333D01*
X457025238Y-132173333D01*
X457120476Y-132220952D01*
X457168095Y-132268571D01*
X457215714Y-132363809D01*
X457215714Y-132601904D01*
X457168095Y-132697142D01*
X457120476Y-132744761D01*
X457025238Y-132792380D01*
X456739523Y-132792380D01*
X456644285Y-132744761D01*
X456596666Y-132697142D01*
X454691904Y-138777380D02*
X454691904Y-139586904D01*
X454739523Y-139682142D01*
X454787142Y-139729761D01*
X454882380Y-139777380D01*
X455072857Y-139777380D01*
X455168095Y-139729761D01*
X455215714Y-139682142D01*
X455263333Y-139586904D01*
X455263333Y-138777380D01*
X455691904Y-138872619D02*
X455739523Y-138825000D01*
X455834761Y-138777380D01*
X456072857Y-138777380D01*
X456168095Y-138825000D01*
X456215714Y-138872619D01*
X456263333Y-138967857D01*
X456263333Y-139063095D01*
X456215714Y-139205952D01*
X455644285Y-139777380D01*
X456263333Y-139777380D01*
X456644285Y-138872619D02*
X456691904Y-138825000D01*
X456787142Y-138777380D01*
X457025238Y-138777380D01*
X457120476Y-138825000D01*
X457168095Y-138872619D01*
X457215714Y-138967857D01*
X457215714Y-139063095D01*
X457168095Y-139205952D01*
X456596666Y-139777380D01*
X457215714Y-139777380D01*
X454691904Y-145762380D02*
X454691904Y-146571904D01*
X454739523Y-146667142D01*
X454787142Y-146714761D01*
X454882380Y-146762380D01*
X455072857Y-146762380D01*
X455168095Y-146714761D01*
X455215714Y-146667142D01*
X455263333Y-146571904D01*
X455263333Y-145762380D01*
X455691904Y-145857619D02*
X455739523Y-145810000D01*
X455834761Y-145762380D01*
X456072857Y-145762380D01*
X456168095Y-145810000D01*
X456215714Y-145857619D01*
X456263333Y-145952857D01*
X456263333Y-146048095D01*
X456215714Y-146190952D01*
X455644285Y-146762380D01*
X456263333Y-146762380D01*
X457215714Y-146762380D02*
X456644285Y-146762380D01*
X456930000Y-146762380D02*
X456930000Y-145762380D01*
X456834761Y-145905238D01*
X456739523Y-146000476D01*
X456644285Y-146048095D01*
X454691904Y-152747380D02*
X454691904Y-153556904D01*
X454739523Y-153652142D01*
X454787142Y-153699761D01*
X454882380Y-153747380D01*
X455072857Y-153747380D01*
X455168095Y-153699761D01*
X455215714Y-153652142D01*
X455263333Y-153556904D01*
X455263333Y-152747380D01*
X455691904Y-152842619D02*
X455739523Y-152795000D01*
X455834761Y-152747380D01*
X456072857Y-152747380D01*
X456168095Y-152795000D01*
X456215714Y-152842619D01*
X456263333Y-152937857D01*
X456263333Y-153033095D01*
X456215714Y-153175952D01*
X455644285Y-153747380D01*
X456263333Y-153747380D01*
X456882380Y-152747380D02*
X456977619Y-152747380D01*
X457072857Y-152795000D01*
X457120476Y-152842619D01*
X457168095Y-152937857D01*
X457215714Y-153128333D01*
X457215714Y-153366428D01*
X457168095Y-153556904D01*
X457120476Y-153652142D01*
X457072857Y-153699761D01*
X456977619Y-153747380D01*
X456882380Y-153747380D01*
X456787142Y-153699761D01*
X456739523Y-153652142D01*
X456691904Y-153556904D01*
X456644285Y-153366428D01*
X456644285Y-153128333D01*
X456691904Y-152937857D01*
X456739523Y-152842619D01*
X456787142Y-152795000D01*
X456882380Y-152747380D01*
X454691904Y-159732380D02*
X454691904Y-160541904D01*
X454739523Y-160637142D01*
X454787142Y-160684761D01*
X454882380Y-160732380D01*
X455072857Y-160732380D01*
X455168095Y-160684761D01*
X455215714Y-160637142D01*
X455263333Y-160541904D01*
X455263333Y-159732380D01*
X456263333Y-160732380D02*
X455691904Y-160732380D01*
X455977619Y-160732380D02*
X455977619Y-159732380D01*
X455882380Y-159875238D01*
X455787142Y-159970476D01*
X455691904Y-160018095D01*
X456739523Y-160732380D02*
X456930000Y-160732380D01*
X457025238Y-160684761D01*
X457072857Y-160637142D01*
X457168095Y-160494285D01*
X457215714Y-160303809D01*
X457215714Y-159922857D01*
X457168095Y-159827619D01*
X457120476Y-159780000D01*
X457025238Y-159732380D01*
X456834761Y-159732380D01*
X456739523Y-159780000D01*
X456691904Y-159827619D01*
X456644285Y-159922857D01*
X456644285Y-160160952D01*
X456691904Y-160256190D01*
X456739523Y-160303809D01*
X456834761Y-160351428D01*
X457025238Y-160351428D01*
X457120476Y-160303809D01*
X457168095Y-160256190D01*
X457215714Y-160160952D01*
X454691904Y-166717380D02*
X454691904Y-167526904D01*
X454739523Y-167622142D01*
X454787142Y-167669761D01*
X454882380Y-167717380D01*
X455072857Y-167717380D01*
X455168095Y-167669761D01*
X455215714Y-167622142D01*
X455263333Y-167526904D01*
X455263333Y-166717380D01*
X456263333Y-167717380D02*
X455691904Y-167717380D01*
X455977619Y-167717380D02*
X455977619Y-166717380D01*
X455882380Y-166860238D01*
X455787142Y-166955476D01*
X455691904Y-167003095D01*
X456834761Y-167145952D02*
X456739523Y-167098333D01*
X456691904Y-167050714D01*
X456644285Y-166955476D01*
X456644285Y-166907857D01*
X456691904Y-166812619D01*
X456739523Y-166765000D01*
X456834761Y-166717380D01*
X457025238Y-166717380D01*
X457120476Y-166765000D01*
X457168095Y-166812619D01*
X457215714Y-166907857D01*
X457215714Y-166955476D01*
X457168095Y-167050714D01*
X457120476Y-167098333D01*
X457025238Y-167145952D01*
X456834761Y-167145952D01*
X456739523Y-167193571D01*
X456691904Y-167241190D01*
X456644285Y-167336428D01*
X456644285Y-167526904D01*
X456691904Y-167622142D01*
X456739523Y-167669761D01*
X456834761Y-167717380D01*
X457025238Y-167717380D01*
X457120476Y-167669761D01*
X457168095Y-167622142D01*
X457215714Y-167526904D01*
X457215714Y-167336428D01*
X457168095Y-167241190D01*
X457120476Y-167193571D01*
X457025238Y-167145952D01*
X454691904Y-173702380D02*
X454691904Y-174511904D01*
X454739523Y-174607142D01*
X454787142Y-174654761D01*
X454882380Y-174702380D01*
X455072857Y-174702380D01*
X455168095Y-174654761D01*
X455215714Y-174607142D01*
X455263333Y-174511904D01*
X455263333Y-173702380D01*
X456263333Y-174702380D02*
X455691904Y-174702380D01*
X455977619Y-174702380D02*
X455977619Y-173702380D01*
X455882380Y-173845238D01*
X455787142Y-173940476D01*
X455691904Y-173988095D01*
X456596666Y-173702380D02*
X457263333Y-173702380D01*
X456834761Y-174702380D01*
X454691904Y-180687380D02*
X454691904Y-181496904D01*
X454739523Y-181592142D01*
X454787142Y-181639761D01*
X454882380Y-181687380D01*
X455072857Y-181687380D01*
X455168095Y-181639761D01*
X455215714Y-181592142D01*
X455263333Y-181496904D01*
X455263333Y-180687380D01*
X456263333Y-181687380D02*
X455691904Y-181687380D01*
X455977619Y-181687380D02*
X455977619Y-180687380D01*
X455882380Y-180830238D01*
X455787142Y-180925476D01*
X455691904Y-180973095D01*
X457120476Y-180687380D02*
X456930000Y-180687380D01*
X456834761Y-180735000D01*
X456787142Y-180782619D01*
X456691904Y-180925476D01*
X456644285Y-181115952D01*
X456644285Y-181496904D01*
X456691904Y-181592142D01*
X456739523Y-181639761D01*
X456834761Y-181687380D01*
X457025238Y-181687380D01*
X457120476Y-181639761D01*
X457168095Y-181592142D01*
X457215714Y-181496904D01*
X457215714Y-181258809D01*
X457168095Y-181163571D01*
X457120476Y-181115952D01*
X457025238Y-181068333D01*
X456834761Y-181068333D01*
X456739523Y-181115952D01*
X456691904Y-181163571D01*
X456644285Y-181258809D01*
X454691904Y-187672380D02*
X454691904Y-188481904D01*
X454739523Y-188577142D01*
X454787142Y-188624761D01*
X454882380Y-188672380D01*
X455072857Y-188672380D01*
X455168095Y-188624761D01*
X455215714Y-188577142D01*
X455263333Y-188481904D01*
X455263333Y-187672380D01*
X456263333Y-188672380D02*
X455691904Y-188672380D01*
X455977619Y-188672380D02*
X455977619Y-187672380D01*
X455882380Y-187815238D01*
X455787142Y-187910476D01*
X455691904Y-187958095D01*
X457168095Y-187672380D02*
X456691904Y-187672380D01*
X456644285Y-188148571D01*
X456691904Y-188100952D01*
X456787142Y-188053333D01*
X457025238Y-188053333D01*
X457120476Y-188100952D01*
X457168095Y-188148571D01*
X457215714Y-188243809D01*
X457215714Y-188481904D01*
X457168095Y-188577142D01*
X457120476Y-188624761D01*
X457025238Y-188672380D01*
X456787142Y-188672380D01*
X456691904Y-188624761D01*
X456644285Y-188577142D01*
X454691904Y-194657380D02*
X454691904Y-195466904D01*
X454739523Y-195562142D01*
X454787142Y-195609761D01*
X454882380Y-195657380D01*
X455072857Y-195657380D01*
X455168095Y-195609761D01*
X455215714Y-195562142D01*
X455263333Y-195466904D01*
X455263333Y-194657380D01*
X456263333Y-195657380D02*
X455691904Y-195657380D01*
X455977619Y-195657380D02*
X455977619Y-194657380D01*
X455882380Y-194800238D01*
X455787142Y-194895476D01*
X455691904Y-194943095D01*
X457120476Y-194990714D02*
X457120476Y-195657380D01*
X456882380Y-194609761D02*
X456644285Y-195324047D01*
X457263333Y-195324047D01*
X342931904Y-180167380D02*
X342931904Y-180976904D01*
X342979523Y-181072142D01*
X343027142Y-181119761D01*
X343122380Y-181167380D01*
X343312857Y-181167380D01*
X343408095Y-181119761D01*
X343455714Y-181072142D01*
X343503333Y-180976904D01*
X343503333Y-180167380D01*
X344503333Y-181167380D02*
X343931904Y-181167380D01*
X344217619Y-181167380D02*
X344217619Y-180167380D01*
X344122380Y-180310238D01*
X344027142Y-180405476D01*
X343931904Y-180453095D01*
X344836666Y-180167380D02*
X345455714Y-180167380D01*
X345122380Y-180548333D01*
X345265238Y-180548333D01*
X345360476Y-180595952D01*
X345408095Y-180643571D01*
X345455714Y-180738809D01*
X345455714Y-180976904D01*
X345408095Y-181072142D01*
X345360476Y-181119761D01*
X345265238Y-181167380D01*
X344979523Y-181167380D01*
X344884285Y-181119761D01*
X344836666Y-181072142D01*
X342931904Y-188422380D02*
X342931904Y-189231904D01*
X342979523Y-189327142D01*
X343027142Y-189374761D01*
X343122380Y-189422380D01*
X343312857Y-189422380D01*
X343408095Y-189374761D01*
X343455714Y-189327142D01*
X343503333Y-189231904D01*
X343503333Y-188422380D01*
X344503333Y-189422380D02*
X343931904Y-189422380D01*
X344217619Y-189422380D02*
X344217619Y-188422380D01*
X344122380Y-188565238D01*
X344027142Y-188660476D01*
X343931904Y-188708095D01*
X344884285Y-188517619D02*
X344931904Y-188470000D01*
X345027142Y-188422380D01*
X345265238Y-188422380D01*
X345360476Y-188470000D01*
X345408095Y-188517619D01*
X345455714Y-188612857D01*
X345455714Y-188708095D01*
X345408095Y-188850952D01*
X344836666Y-189422380D01*
X345455714Y-189422380D01*
X342931904Y-196677380D02*
X342931904Y-197486904D01*
X342979523Y-197582142D01*
X343027142Y-197629761D01*
X343122380Y-197677380D01*
X343312857Y-197677380D01*
X343408095Y-197629761D01*
X343455714Y-197582142D01*
X343503333Y-197486904D01*
X343503333Y-196677380D01*
X344503333Y-197677380D02*
X343931904Y-197677380D01*
X344217619Y-197677380D02*
X344217619Y-196677380D01*
X344122380Y-196820238D01*
X344027142Y-196915476D01*
X343931904Y-196963095D01*
X345455714Y-197677380D02*
X344884285Y-197677380D01*
X345170000Y-197677380D02*
X345170000Y-196677380D01*
X345074761Y-196820238D01*
X344979523Y-196915476D01*
X344884285Y-196963095D01*
X342931904Y-204932380D02*
X342931904Y-205741904D01*
X342979523Y-205837142D01*
X343027142Y-205884761D01*
X343122380Y-205932380D01*
X343312857Y-205932380D01*
X343408095Y-205884761D01*
X343455714Y-205837142D01*
X343503333Y-205741904D01*
X343503333Y-204932380D01*
X344503333Y-205932380D02*
X343931904Y-205932380D01*
X344217619Y-205932380D02*
X344217619Y-204932380D01*
X344122380Y-205075238D01*
X344027142Y-205170476D01*
X343931904Y-205218095D01*
X345122380Y-204932380D02*
X345217619Y-204932380D01*
X345312857Y-204980000D01*
X345360476Y-205027619D01*
X345408095Y-205122857D01*
X345455714Y-205313333D01*
X345455714Y-205551428D01*
X345408095Y-205741904D01*
X345360476Y-205837142D01*
X345312857Y-205884761D01*
X345217619Y-205932380D01*
X345122380Y-205932380D01*
X345027142Y-205884761D01*
X344979523Y-205837142D01*
X344931904Y-205741904D01*
X344884285Y-205551428D01*
X344884285Y-205313333D01*
X344931904Y-205122857D01*
X344979523Y-205027619D01*
X345027142Y-204980000D01*
X345122380Y-204932380D01*
X343408095Y-213187380D02*
X343408095Y-213996904D01*
X343455714Y-214092142D01*
X343503333Y-214139761D01*
X343598571Y-214187380D01*
X343789047Y-214187380D01*
X343884285Y-214139761D01*
X343931904Y-214092142D01*
X343979523Y-213996904D01*
X343979523Y-213187380D01*
X344503333Y-214187380D02*
X344693809Y-214187380D01*
X344789047Y-214139761D01*
X344836666Y-214092142D01*
X344931904Y-213949285D01*
X344979523Y-213758809D01*
X344979523Y-213377857D01*
X344931904Y-213282619D01*
X344884285Y-213235000D01*
X344789047Y-213187380D01*
X344598571Y-213187380D01*
X344503333Y-213235000D01*
X344455714Y-213282619D01*
X344408095Y-213377857D01*
X344408095Y-213615952D01*
X344455714Y-213711190D01*
X344503333Y-213758809D01*
X344598571Y-213806428D01*
X344789047Y-213806428D01*
X344884285Y-213758809D01*
X344931904Y-213711190D01*
X344979523Y-213615952D01*
X343408095Y-221442380D02*
X343408095Y-222251904D01*
X343455714Y-222347142D01*
X343503333Y-222394761D01*
X343598571Y-222442380D01*
X343789047Y-222442380D01*
X343884285Y-222394761D01*
X343931904Y-222347142D01*
X343979523Y-222251904D01*
X343979523Y-221442380D01*
X344598571Y-221870952D02*
X344503333Y-221823333D01*
X344455714Y-221775714D01*
X344408095Y-221680476D01*
X344408095Y-221632857D01*
X344455714Y-221537619D01*
X344503333Y-221490000D01*
X344598571Y-221442380D01*
X344789047Y-221442380D01*
X344884285Y-221490000D01*
X344931904Y-221537619D01*
X344979523Y-221632857D01*
X344979523Y-221680476D01*
X344931904Y-221775714D01*
X344884285Y-221823333D01*
X344789047Y-221870952D01*
X344598571Y-221870952D01*
X344503333Y-221918571D01*
X344455714Y-221966190D01*
X344408095Y-222061428D01*
X344408095Y-222251904D01*
X344455714Y-222347142D01*
X344503333Y-222394761D01*
X344598571Y-222442380D01*
X344789047Y-222442380D01*
X344884285Y-222394761D01*
X344931904Y-222347142D01*
X344979523Y-222251904D01*
X344979523Y-222061428D01*
X344931904Y-221966190D01*
X344884285Y-221918571D01*
X344789047Y-221870952D01*
X343408095Y-229697380D02*
X343408095Y-230506904D01*
X343455714Y-230602142D01*
X343503333Y-230649761D01*
X343598571Y-230697380D01*
X343789047Y-230697380D01*
X343884285Y-230649761D01*
X343931904Y-230602142D01*
X343979523Y-230506904D01*
X343979523Y-229697380D01*
X344360476Y-229697380D02*
X345027142Y-229697380D01*
X344598571Y-230697380D01*
X343408095Y-237952380D02*
X343408095Y-238761904D01*
X343455714Y-238857142D01*
X343503333Y-238904761D01*
X343598571Y-238952380D01*
X343789047Y-238952380D01*
X343884285Y-238904761D01*
X343931904Y-238857142D01*
X343979523Y-238761904D01*
X343979523Y-237952380D01*
X344884285Y-237952380D02*
X344693809Y-237952380D01*
X344598571Y-238000000D01*
X344550952Y-238047619D01*
X344455714Y-238190476D01*
X344408095Y-238380952D01*
X344408095Y-238761904D01*
X344455714Y-238857142D01*
X344503333Y-238904761D01*
X344598571Y-238952380D01*
X344789047Y-238952380D01*
X344884285Y-238904761D01*
X344931904Y-238857142D01*
X344979523Y-238761904D01*
X344979523Y-238523809D01*
X344931904Y-238428571D01*
X344884285Y-238380952D01*
X344789047Y-238333333D01*
X344598571Y-238333333D01*
X344503333Y-238380952D01*
X344455714Y-238428571D01*
X344408095Y-238523809D01*
X343408095Y-246207380D02*
X343408095Y-247016904D01*
X343455714Y-247112142D01*
X343503333Y-247159761D01*
X343598571Y-247207380D01*
X343789047Y-247207380D01*
X343884285Y-247159761D01*
X343931904Y-247112142D01*
X343979523Y-247016904D01*
X343979523Y-246207380D01*
X344931904Y-246207380D02*
X344455714Y-246207380D01*
X344408095Y-246683571D01*
X344455714Y-246635952D01*
X344550952Y-246588333D01*
X344789047Y-246588333D01*
X344884285Y-246635952D01*
X344931904Y-246683571D01*
X344979523Y-246778809D01*
X344979523Y-247016904D01*
X344931904Y-247112142D01*
X344884285Y-247159761D01*
X344789047Y-247207380D01*
X344550952Y-247207380D01*
X344455714Y-247159761D01*
X344408095Y-247112142D01*
X343408095Y-254462380D02*
X343408095Y-255271904D01*
X343455714Y-255367142D01*
X343503333Y-255414761D01*
X343598571Y-255462380D01*
X343789047Y-255462380D01*
X343884285Y-255414761D01*
X343931904Y-255367142D01*
X343979523Y-255271904D01*
X343979523Y-254462380D01*
X344884285Y-254795714D02*
X344884285Y-255462380D01*
X344646190Y-254414761D02*
X344408095Y-255129047D01*
X345027142Y-255129047D01*
X343408095Y-262717380D02*
X343408095Y-263526904D01*
X343455714Y-263622142D01*
X343503333Y-263669761D01*
X343598571Y-263717380D01*
X343789047Y-263717380D01*
X343884285Y-263669761D01*
X343931904Y-263622142D01*
X343979523Y-263526904D01*
X343979523Y-262717380D01*
X344360476Y-262717380D02*
X344979523Y-262717380D01*
X344646190Y-263098333D01*
X344789047Y-263098333D01*
X344884285Y-263145952D01*
X344931904Y-263193571D01*
X344979523Y-263288809D01*
X344979523Y-263526904D01*
X344931904Y-263622142D01*
X344884285Y-263669761D01*
X344789047Y-263717380D01*
X344503333Y-263717380D01*
X344408095Y-263669761D01*
X344360476Y-263622142D01*
X343408095Y-270972380D02*
X343408095Y-271781904D01*
X343455714Y-271877142D01*
X343503333Y-271924761D01*
X343598571Y-271972380D01*
X343789047Y-271972380D01*
X343884285Y-271924761D01*
X343931904Y-271877142D01*
X343979523Y-271781904D01*
X343979523Y-270972380D01*
X344408095Y-271067619D02*
X344455714Y-271020000D01*
X344550952Y-270972380D01*
X344789047Y-270972380D01*
X344884285Y-271020000D01*
X344931904Y-271067619D01*
X344979523Y-271162857D01*
X344979523Y-271258095D01*
X344931904Y-271400952D01*
X344360476Y-271972380D01*
X344979523Y-271972380D01*
X343408095Y-279227380D02*
X343408095Y-280036904D01*
X343455714Y-280132142D01*
X343503333Y-280179761D01*
X343598571Y-280227380D01*
X343789047Y-280227380D01*
X343884285Y-280179761D01*
X343931904Y-280132142D01*
X343979523Y-280036904D01*
X343979523Y-279227380D01*
X344979523Y-280227380D02*
X344408095Y-280227380D01*
X344693809Y-280227380D02*
X344693809Y-279227380D01*
X344598571Y-279370238D01*
X344503333Y-279465476D01*
X344408095Y-279513095D01*
X388302666Y-264056761D02*
X388445523Y-264104380D01*
X388683619Y-264104380D01*
X388778857Y-264056761D01*
X388826476Y-264009142D01*
X388874095Y-263913904D01*
X388874095Y-263818666D01*
X388826476Y-263723428D01*
X388778857Y-263675809D01*
X388683619Y-263628190D01*
X388493142Y-263580571D01*
X388397904Y-263532952D01*
X388350285Y-263485333D01*
X388302666Y-263390095D01*
X388302666Y-263294857D01*
X388350285Y-263199619D01*
X388397904Y-263152000D01*
X388493142Y-263104380D01*
X388731238Y-263104380D01*
X388874095Y-263152000D01*
X389207428Y-263104380D02*
X389445523Y-264104380D01*
X389636000Y-263390095D01*
X389826476Y-264104380D01*
X390064571Y-263104380D01*
X390969333Y-264104380D02*
X390397904Y-264104380D01*
X390683619Y-264104380D02*
X390683619Y-263104380D01*
X390588380Y-263247238D01*
X390493142Y-263342476D01*
X390397904Y-263390095D01*
X399655380Y-263564666D02*
X399179190Y-263898000D01*
X399655380Y-264136095D02*
X398655380Y-264136095D01*
X398655380Y-263755142D01*
X398703000Y-263659904D01*
X398750619Y-263612285D01*
X398845857Y-263564666D01*
X398988714Y-263564666D01*
X399083952Y-263612285D01*
X399131571Y-263659904D01*
X399179190Y-263755142D01*
X399179190Y-264136095D01*
X398750619Y-263183714D02*
X398703000Y-263136095D01*
X398655380Y-263040857D01*
X398655380Y-262802761D01*
X398703000Y-262707523D01*
X398750619Y-262659904D01*
X398845857Y-262612285D01*
X398941095Y-262612285D01*
X399083952Y-262659904D01*
X399655380Y-263231333D01*
X399655380Y-262612285D01*
X465357380Y-257976666D02*
X464881190Y-258310000D01*
X465357380Y-258548095D02*
X464357380Y-258548095D01*
X464357380Y-258167142D01*
X464405000Y-258071904D01*
X464452619Y-258024285D01*
X464547857Y-257976666D01*
X464690714Y-257976666D01*
X464785952Y-258024285D01*
X464833571Y-258071904D01*
X464881190Y-258167142D01*
X464881190Y-258548095D01*
X465357380Y-257024285D02*
X465357380Y-257595714D01*
X465357380Y-257310000D02*
X464357380Y-257310000D01*
X464500238Y-257405238D01*
X464595476Y-257500476D01*
X464643095Y-257595714D01*
X373042380Y-286559523D02*
X373756666Y-286559523D01*
X373899523Y-286607142D01*
X373994761Y-286702380D01*
X374042380Y-286845238D01*
X374042380Y-286940476D01*
X374042380Y-285559523D02*
X374042380Y-286130952D01*
X374042380Y-285845238D02*
X373042380Y-285845238D01*
X373185238Y-285940476D01*
X373280476Y-286035714D01*
X373328095Y-286130952D01*
X373042380Y-285226190D02*
X373042380Y-284607142D01*
X373423333Y-284940476D01*
X373423333Y-284797619D01*
X373470952Y-284702380D01*
X373518571Y-284654761D01*
X373613809Y-284607142D01*
X373851904Y-284607142D01*
X373947142Y-284654761D01*
X373994761Y-284702380D01*
X374042380Y-284797619D01*
X374042380Y-285083333D01*
X373994761Y-285178571D01*
X373947142Y-285226190D01*
X377650476Y-301952380D02*
X377650476Y-302666666D01*
X377602857Y-302809523D01*
X377507619Y-302904761D01*
X377364761Y-302952380D01*
X377269523Y-302952380D01*
X378650476Y-302952380D02*
X378079047Y-302952380D01*
X378364761Y-302952380D02*
X378364761Y-301952380D01*
X378269523Y-302095238D01*
X378174285Y-302190476D01*
X378079047Y-302238095D01*
X379031428Y-302047619D02*
X379079047Y-302000000D01*
X379174285Y-301952380D01*
X379412380Y-301952380D01*
X379507619Y-302000000D01*
X379555238Y-302047619D01*
X379602857Y-302142857D01*
X379602857Y-302238095D01*
X379555238Y-302380952D01*
X378983809Y-302952380D01*
X379602857Y-302952380D01*
X389683333Y-283607142D02*
X389635714Y-283654761D01*
X389492857Y-283702380D01*
X389397619Y-283702380D01*
X389254761Y-283654761D01*
X389159523Y-283559523D01*
X389111904Y-283464285D01*
X389064285Y-283273809D01*
X389064285Y-283130952D01*
X389111904Y-282940476D01*
X389159523Y-282845238D01*
X389254761Y-282750000D01*
X389397619Y-282702380D01*
X389492857Y-282702380D01*
X389635714Y-282750000D01*
X389683333Y-282797619D01*
X390588095Y-282702380D02*
X390111904Y-282702380D01*
X390064285Y-283178571D01*
X390111904Y-283130952D01*
X390207142Y-283083333D01*
X390445238Y-283083333D01*
X390540476Y-283130952D01*
X390588095Y-283178571D01*
X390635714Y-283273809D01*
X390635714Y-283511904D01*
X390588095Y-283607142D01*
X390540476Y-283654761D01*
X390445238Y-283702380D01*
X390207142Y-283702380D01*
X390111904Y-283654761D01*
X390064285Y-283607142D01*
X366823333Y-283607142D02*
X366775714Y-283654761D01*
X366632857Y-283702380D01*
X366537619Y-283702380D01*
X366394761Y-283654761D01*
X366299523Y-283559523D01*
X366251904Y-283464285D01*
X366204285Y-283273809D01*
X366204285Y-283130952D01*
X366251904Y-282940476D01*
X366299523Y-282845238D01*
X366394761Y-282750000D01*
X366537619Y-282702380D01*
X366632857Y-282702380D01*
X366775714Y-282750000D01*
X366823333Y-282797619D01*
X367680476Y-283035714D02*
X367680476Y-283702380D01*
X367442380Y-282654761D02*
X367204285Y-283369047D01*
X367823333Y-283369047D01*
X389703333Y-291017142D02*
X389655714Y-291064761D01*
X389512857Y-291112380D01*
X389417619Y-291112380D01*
X389274761Y-291064761D01*
X389179523Y-290969523D01*
X389131904Y-290874285D01*
X389084285Y-290683809D01*
X389084285Y-290540952D01*
X389131904Y-290350476D01*
X389179523Y-290255238D01*
X389274761Y-290160000D01*
X389417619Y-290112380D01*
X389512857Y-290112380D01*
X389655714Y-290160000D01*
X389703333Y-290207619D01*
X390036666Y-290112380D02*
X390655714Y-290112380D01*
X390322380Y-290493333D01*
X390465238Y-290493333D01*
X390560476Y-290540952D01*
X390608095Y-290588571D01*
X390655714Y-290683809D01*
X390655714Y-290921904D01*
X390608095Y-291017142D01*
X390560476Y-291064761D01*
X390465238Y-291112380D01*
X390179523Y-291112380D01*
X390084285Y-291064761D01*
X390036666Y-291017142D01*
X366843333Y-291017142D02*
X366795714Y-291064761D01*
X366652857Y-291112380D01*
X366557619Y-291112380D01*
X366414761Y-291064761D01*
X366319523Y-290969523D01*
X366271904Y-290874285D01*
X366224285Y-290683809D01*
X366224285Y-290540952D01*
X366271904Y-290350476D01*
X366319523Y-290255238D01*
X366414761Y-290160000D01*
X366557619Y-290112380D01*
X366652857Y-290112380D01*
X366795714Y-290160000D01*
X366843333Y-290207619D01*
X367224285Y-290207619D02*
X367271904Y-290160000D01*
X367367142Y-290112380D01*
X367605238Y-290112380D01*
X367700476Y-290160000D01*
X367748095Y-290207619D01*
X367795714Y-290302857D01*
X367795714Y-290398095D01*
X367748095Y-290540952D01*
X367176666Y-291112380D01*
X367795714Y-291112380D01*
X378253333Y-290017142D02*
X378205714Y-290064761D01*
X378062857Y-290112380D01*
X377967619Y-290112380D01*
X377824761Y-290064761D01*
X377729523Y-289969523D01*
X377681904Y-289874285D01*
X377634285Y-289683809D01*
X377634285Y-289540952D01*
X377681904Y-289350476D01*
X377729523Y-289255238D01*
X377824761Y-289160000D01*
X377967619Y-289112380D01*
X378062857Y-289112380D01*
X378205714Y-289160000D01*
X378253333Y-289207619D01*
X379205714Y-290112380D02*
X378634285Y-290112380D01*
X378920000Y-290112380D02*
X378920000Y-289112380D01*
X378824761Y-289255238D01*
X378729523Y-289350476D01*
X378634285Y-289398095D01*
M02*
