G04 #@! TF.GenerationSoftware,KiCad,Pcbnew,5.1.5-52549c5~84~ubuntu18.04.1*
G04 #@! TF.CreationDate,2020-05-17T15:41:05-07:00*
G04 #@! TF.ProjectId,motherboard,6d6f7468-6572-4626-9f61-72642e6b6963,rev?*
G04 #@! TF.SameCoordinates,Original*
G04 #@! TF.FileFunction,Paste,Top*
G04 #@! TF.FilePolarity,Positive*
%FSLAX46Y46*%
G04 Gerber Fmt 4.6, Leading zero omitted, Abs format (unit mm)*
G04 Created by KiCad (PCBNEW 5.1.5-52549c5~84~ubuntu18.04.1) date 2020-05-17 15:41:05*
%MOMM*%
%LPD*%
G04 APERTURE LIST*
%ADD10C,0.100000*%
%ADD11R,1.450000X0.450000*%
%ADD12R,1.550000X1.300000*%
G04 APERTURE END LIST*
D10*
G36*
X358154504Y-111641204D02*
G01*
X358178773Y-111644804D01*
X358202571Y-111650765D01*
X358225671Y-111659030D01*
X358247849Y-111669520D01*
X358268893Y-111682133D01*
X358288598Y-111696747D01*
X358306777Y-111713223D01*
X358323253Y-111731402D01*
X358337867Y-111751107D01*
X358350480Y-111772151D01*
X358360970Y-111794329D01*
X358369235Y-111817429D01*
X358375196Y-111841227D01*
X358378796Y-111865496D01*
X358380000Y-111890000D01*
X358380000Y-112640000D01*
X358378796Y-112664504D01*
X358375196Y-112688773D01*
X358369235Y-112712571D01*
X358360970Y-112735671D01*
X358350480Y-112757849D01*
X358337867Y-112778893D01*
X358323253Y-112798598D01*
X358306777Y-112816777D01*
X358288598Y-112833253D01*
X358268893Y-112847867D01*
X358247849Y-112860480D01*
X358225671Y-112870970D01*
X358202571Y-112879235D01*
X358178773Y-112885196D01*
X358154504Y-112888796D01*
X358130000Y-112890000D01*
X356880000Y-112890000D01*
X356855496Y-112888796D01*
X356831227Y-112885196D01*
X356807429Y-112879235D01*
X356784329Y-112870970D01*
X356762151Y-112860480D01*
X356741107Y-112847867D01*
X356721402Y-112833253D01*
X356703223Y-112816777D01*
X356686747Y-112798598D01*
X356672133Y-112778893D01*
X356659520Y-112757849D01*
X356649030Y-112735671D01*
X356640765Y-112712571D01*
X356634804Y-112688773D01*
X356631204Y-112664504D01*
X356630000Y-112640000D01*
X356630000Y-111890000D01*
X356631204Y-111865496D01*
X356634804Y-111841227D01*
X356640765Y-111817429D01*
X356649030Y-111794329D01*
X356659520Y-111772151D01*
X356672133Y-111751107D01*
X356686747Y-111731402D01*
X356703223Y-111713223D01*
X356721402Y-111696747D01*
X356741107Y-111682133D01*
X356762151Y-111669520D01*
X356784329Y-111659030D01*
X356807429Y-111650765D01*
X356831227Y-111644804D01*
X356855496Y-111641204D01*
X356880000Y-111640000D01*
X358130000Y-111640000D01*
X358154504Y-111641204D01*
G37*
G36*
X358154504Y-114441204D02*
G01*
X358178773Y-114444804D01*
X358202571Y-114450765D01*
X358225671Y-114459030D01*
X358247849Y-114469520D01*
X358268893Y-114482133D01*
X358288598Y-114496747D01*
X358306777Y-114513223D01*
X358323253Y-114531402D01*
X358337867Y-114551107D01*
X358350480Y-114572151D01*
X358360970Y-114594329D01*
X358369235Y-114617429D01*
X358375196Y-114641227D01*
X358378796Y-114665496D01*
X358380000Y-114690000D01*
X358380000Y-115440000D01*
X358378796Y-115464504D01*
X358375196Y-115488773D01*
X358369235Y-115512571D01*
X358360970Y-115535671D01*
X358350480Y-115557849D01*
X358337867Y-115578893D01*
X358323253Y-115598598D01*
X358306777Y-115616777D01*
X358288598Y-115633253D01*
X358268893Y-115647867D01*
X358247849Y-115660480D01*
X358225671Y-115670970D01*
X358202571Y-115679235D01*
X358178773Y-115685196D01*
X358154504Y-115688796D01*
X358130000Y-115690000D01*
X356880000Y-115690000D01*
X356855496Y-115688796D01*
X356831227Y-115685196D01*
X356807429Y-115679235D01*
X356784329Y-115670970D01*
X356762151Y-115660480D01*
X356741107Y-115647867D01*
X356721402Y-115633253D01*
X356703223Y-115616777D01*
X356686747Y-115598598D01*
X356672133Y-115578893D01*
X356659520Y-115557849D01*
X356649030Y-115535671D01*
X356640765Y-115512571D01*
X356634804Y-115488773D01*
X356631204Y-115464504D01*
X356630000Y-115440000D01*
X356630000Y-114690000D01*
X356631204Y-114665496D01*
X356634804Y-114641227D01*
X356640765Y-114617429D01*
X356649030Y-114594329D01*
X356659520Y-114572151D01*
X356672133Y-114551107D01*
X356686747Y-114531402D01*
X356703223Y-114513223D01*
X356721402Y-114496747D01*
X356741107Y-114482133D01*
X356762151Y-114469520D01*
X356784329Y-114459030D01*
X356807429Y-114450765D01*
X356831227Y-114444804D01*
X356855496Y-114441204D01*
X356880000Y-114440000D01*
X358130000Y-114440000D01*
X358154504Y-114441204D01*
G37*
G36*
X358154504Y-101481204D02*
G01*
X358178773Y-101484804D01*
X358202571Y-101490765D01*
X358225671Y-101499030D01*
X358247849Y-101509520D01*
X358268893Y-101522133D01*
X358288598Y-101536747D01*
X358306777Y-101553223D01*
X358323253Y-101571402D01*
X358337867Y-101591107D01*
X358350480Y-101612151D01*
X358360970Y-101634329D01*
X358369235Y-101657429D01*
X358375196Y-101681227D01*
X358378796Y-101705496D01*
X358380000Y-101730000D01*
X358380000Y-102480000D01*
X358378796Y-102504504D01*
X358375196Y-102528773D01*
X358369235Y-102552571D01*
X358360970Y-102575671D01*
X358350480Y-102597849D01*
X358337867Y-102618893D01*
X358323253Y-102638598D01*
X358306777Y-102656777D01*
X358288598Y-102673253D01*
X358268893Y-102687867D01*
X358247849Y-102700480D01*
X358225671Y-102710970D01*
X358202571Y-102719235D01*
X358178773Y-102725196D01*
X358154504Y-102728796D01*
X358130000Y-102730000D01*
X356880000Y-102730000D01*
X356855496Y-102728796D01*
X356831227Y-102725196D01*
X356807429Y-102719235D01*
X356784329Y-102710970D01*
X356762151Y-102700480D01*
X356741107Y-102687867D01*
X356721402Y-102673253D01*
X356703223Y-102656777D01*
X356686747Y-102638598D01*
X356672133Y-102618893D01*
X356659520Y-102597849D01*
X356649030Y-102575671D01*
X356640765Y-102552571D01*
X356634804Y-102528773D01*
X356631204Y-102504504D01*
X356630000Y-102480000D01*
X356630000Y-101730000D01*
X356631204Y-101705496D01*
X356634804Y-101681227D01*
X356640765Y-101657429D01*
X356649030Y-101634329D01*
X356659520Y-101612151D01*
X356672133Y-101591107D01*
X356686747Y-101571402D01*
X356703223Y-101553223D01*
X356721402Y-101536747D01*
X356741107Y-101522133D01*
X356762151Y-101509520D01*
X356784329Y-101499030D01*
X356807429Y-101490765D01*
X356831227Y-101484804D01*
X356855496Y-101481204D01*
X356880000Y-101480000D01*
X358130000Y-101480000D01*
X358154504Y-101481204D01*
G37*
G36*
X358154504Y-104281204D02*
G01*
X358178773Y-104284804D01*
X358202571Y-104290765D01*
X358225671Y-104299030D01*
X358247849Y-104309520D01*
X358268893Y-104322133D01*
X358288598Y-104336747D01*
X358306777Y-104353223D01*
X358323253Y-104371402D01*
X358337867Y-104391107D01*
X358350480Y-104412151D01*
X358360970Y-104434329D01*
X358369235Y-104457429D01*
X358375196Y-104481227D01*
X358378796Y-104505496D01*
X358380000Y-104530000D01*
X358380000Y-105280000D01*
X358378796Y-105304504D01*
X358375196Y-105328773D01*
X358369235Y-105352571D01*
X358360970Y-105375671D01*
X358350480Y-105397849D01*
X358337867Y-105418893D01*
X358323253Y-105438598D01*
X358306777Y-105456777D01*
X358288598Y-105473253D01*
X358268893Y-105487867D01*
X358247849Y-105500480D01*
X358225671Y-105510970D01*
X358202571Y-105519235D01*
X358178773Y-105525196D01*
X358154504Y-105528796D01*
X358130000Y-105530000D01*
X356880000Y-105530000D01*
X356855496Y-105528796D01*
X356831227Y-105525196D01*
X356807429Y-105519235D01*
X356784329Y-105510970D01*
X356762151Y-105500480D01*
X356741107Y-105487867D01*
X356721402Y-105473253D01*
X356703223Y-105456777D01*
X356686747Y-105438598D01*
X356672133Y-105418893D01*
X356659520Y-105397849D01*
X356649030Y-105375671D01*
X356640765Y-105352571D01*
X356634804Y-105328773D01*
X356631204Y-105304504D01*
X356630000Y-105280000D01*
X356630000Y-104530000D01*
X356631204Y-104505496D01*
X356634804Y-104481227D01*
X356640765Y-104457429D01*
X356649030Y-104434329D01*
X356659520Y-104412151D01*
X356672133Y-104391107D01*
X356686747Y-104371402D01*
X356703223Y-104353223D01*
X356721402Y-104336747D01*
X356741107Y-104322133D01*
X356762151Y-104309520D01*
X356784329Y-104299030D01*
X356807429Y-104290765D01*
X356831227Y-104284804D01*
X356855496Y-104281204D01*
X356880000Y-104280000D01*
X358130000Y-104280000D01*
X358154504Y-104281204D01*
G37*
G36*
X368314504Y-92851204D02*
G01*
X368338773Y-92854804D01*
X368362571Y-92860765D01*
X368385671Y-92869030D01*
X368407849Y-92879520D01*
X368428893Y-92892133D01*
X368448598Y-92906747D01*
X368466777Y-92923223D01*
X368483253Y-92941402D01*
X368497867Y-92961107D01*
X368510480Y-92982151D01*
X368520970Y-93004329D01*
X368529235Y-93027429D01*
X368535196Y-93051227D01*
X368538796Y-93075496D01*
X368540000Y-93100000D01*
X368540000Y-93850000D01*
X368538796Y-93874504D01*
X368535196Y-93898773D01*
X368529235Y-93922571D01*
X368520970Y-93945671D01*
X368510480Y-93967849D01*
X368497867Y-93988893D01*
X368483253Y-94008598D01*
X368466777Y-94026777D01*
X368448598Y-94043253D01*
X368428893Y-94057867D01*
X368407849Y-94070480D01*
X368385671Y-94080970D01*
X368362571Y-94089235D01*
X368338773Y-94095196D01*
X368314504Y-94098796D01*
X368290000Y-94100000D01*
X367040000Y-94100000D01*
X367015496Y-94098796D01*
X366991227Y-94095196D01*
X366967429Y-94089235D01*
X366944329Y-94080970D01*
X366922151Y-94070480D01*
X366901107Y-94057867D01*
X366881402Y-94043253D01*
X366863223Y-94026777D01*
X366846747Y-94008598D01*
X366832133Y-93988893D01*
X366819520Y-93967849D01*
X366809030Y-93945671D01*
X366800765Y-93922571D01*
X366794804Y-93898773D01*
X366791204Y-93874504D01*
X366790000Y-93850000D01*
X366790000Y-93100000D01*
X366791204Y-93075496D01*
X366794804Y-93051227D01*
X366800765Y-93027429D01*
X366809030Y-93004329D01*
X366819520Y-92982151D01*
X366832133Y-92961107D01*
X366846747Y-92941402D01*
X366863223Y-92923223D01*
X366881402Y-92906747D01*
X366901107Y-92892133D01*
X366922151Y-92879520D01*
X366944329Y-92869030D01*
X366967429Y-92860765D01*
X366991227Y-92854804D01*
X367015496Y-92851204D01*
X367040000Y-92850000D01*
X368290000Y-92850000D01*
X368314504Y-92851204D01*
G37*
G36*
X368314504Y-90051204D02*
G01*
X368338773Y-90054804D01*
X368362571Y-90060765D01*
X368385671Y-90069030D01*
X368407849Y-90079520D01*
X368428893Y-90092133D01*
X368448598Y-90106747D01*
X368466777Y-90123223D01*
X368483253Y-90141402D01*
X368497867Y-90161107D01*
X368510480Y-90182151D01*
X368520970Y-90204329D01*
X368529235Y-90227429D01*
X368535196Y-90251227D01*
X368538796Y-90275496D01*
X368540000Y-90300000D01*
X368540000Y-91050000D01*
X368538796Y-91074504D01*
X368535196Y-91098773D01*
X368529235Y-91122571D01*
X368520970Y-91145671D01*
X368510480Y-91167849D01*
X368497867Y-91188893D01*
X368483253Y-91208598D01*
X368466777Y-91226777D01*
X368448598Y-91243253D01*
X368428893Y-91257867D01*
X368407849Y-91270480D01*
X368385671Y-91280970D01*
X368362571Y-91289235D01*
X368338773Y-91295196D01*
X368314504Y-91298796D01*
X368290000Y-91300000D01*
X367040000Y-91300000D01*
X367015496Y-91298796D01*
X366991227Y-91295196D01*
X366967429Y-91289235D01*
X366944329Y-91280970D01*
X366922151Y-91270480D01*
X366901107Y-91257867D01*
X366881402Y-91243253D01*
X366863223Y-91226777D01*
X366846747Y-91208598D01*
X366832133Y-91188893D01*
X366819520Y-91167849D01*
X366809030Y-91145671D01*
X366800765Y-91122571D01*
X366794804Y-91098773D01*
X366791204Y-91074504D01*
X366790000Y-91050000D01*
X366790000Y-90300000D01*
X366791204Y-90275496D01*
X366794804Y-90251227D01*
X366800765Y-90227429D01*
X366809030Y-90204329D01*
X366819520Y-90182151D01*
X366832133Y-90161107D01*
X366846747Y-90141402D01*
X366863223Y-90123223D01*
X366881402Y-90106747D01*
X366901107Y-90092133D01*
X366922151Y-90079520D01*
X366944329Y-90069030D01*
X366967429Y-90060765D01*
X366991227Y-90054804D01*
X367015496Y-90051204D01*
X367040000Y-90050000D01*
X368290000Y-90050000D01*
X368314504Y-90051204D01*
G37*
G36*
X372759504Y-92851204D02*
G01*
X372783773Y-92854804D01*
X372807571Y-92860765D01*
X372830671Y-92869030D01*
X372852849Y-92879520D01*
X372873893Y-92892133D01*
X372893598Y-92906747D01*
X372911777Y-92923223D01*
X372928253Y-92941402D01*
X372942867Y-92961107D01*
X372955480Y-92982151D01*
X372965970Y-93004329D01*
X372974235Y-93027429D01*
X372980196Y-93051227D01*
X372983796Y-93075496D01*
X372985000Y-93100000D01*
X372985000Y-93850000D01*
X372983796Y-93874504D01*
X372980196Y-93898773D01*
X372974235Y-93922571D01*
X372965970Y-93945671D01*
X372955480Y-93967849D01*
X372942867Y-93988893D01*
X372928253Y-94008598D01*
X372911777Y-94026777D01*
X372893598Y-94043253D01*
X372873893Y-94057867D01*
X372852849Y-94070480D01*
X372830671Y-94080970D01*
X372807571Y-94089235D01*
X372783773Y-94095196D01*
X372759504Y-94098796D01*
X372735000Y-94100000D01*
X371485000Y-94100000D01*
X371460496Y-94098796D01*
X371436227Y-94095196D01*
X371412429Y-94089235D01*
X371389329Y-94080970D01*
X371367151Y-94070480D01*
X371346107Y-94057867D01*
X371326402Y-94043253D01*
X371308223Y-94026777D01*
X371291747Y-94008598D01*
X371277133Y-93988893D01*
X371264520Y-93967849D01*
X371254030Y-93945671D01*
X371245765Y-93922571D01*
X371239804Y-93898773D01*
X371236204Y-93874504D01*
X371235000Y-93850000D01*
X371235000Y-93100000D01*
X371236204Y-93075496D01*
X371239804Y-93051227D01*
X371245765Y-93027429D01*
X371254030Y-93004329D01*
X371264520Y-92982151D01*
X371277133Y-92961107D01*
X371291747Y-92941402D01*
X371308223Y-92923223D01*
X371326402Y-92906747D01*
X371346107Y-92892133D01*
X371367151Y-92879520D01*
X371389329Y-92869030D01*
X371412429Y-92860765D01*
X371436227Y-92854804D01*
X371460496Y-92851204D01*
X371485000Y-92850000D01*
X372735000Y-92850000D01*
X372759504Y-92851204D01*
G37*
G36*
X372759504Y-90051204D02*
G01*
X372783773Y-90054804D01*
X372807571Y-90060765D01*
X372830671Y-90069030D01*
X372852849Y-90079520D01*
X372873893Y-90092133D01*
X372893598Y-90106747D01*
X372911777Y-90123223D01*
X372928253Y-90141402D01*
X372942867Y-90161107D01*
X372955480Y-90182151D01*
X372965970Y-90204329D01*
X372974235Y-90227429D01*
X372980196Y-90251227D01*
X372983796Y-90275496D01*
X372985000Y-90300000D01*
X372985000Y-91050000D01*
X372983796Y-91074504D01*
X372980196Y-91098773D01*
X372974235Y-91122571D01*
X372965970Y-91145671D01*
X372955480Y-91167849D01*
X372942867Y-91188893D01*
X372928253Y-91208598D01*
X372911777Y-91226777D01*
X372893598Y-91243253D01*
X372873893Y-91257867D01*
X372852849Y-91270480D01*
X372830671Y-91280970D01*
X372807571Y-91289235D01*
X372783773Y-91295196D01*
X372759504Y-91298796D01*
X372735000Y-91300000D01*
X371485000Y-91300000D01*
X371460496Y-91298796D01*
X371436227Y-91295196D01*
X371412429Y-91289235D01*
X371389329Y-91280970D01*
X371367151Y-91270480D01*
X371346107Y-91257867D01*
X371326402Y-91243253D01*
X371308223Y-91226777D01*
X371291747Y-91208598D01*
X371277133Y-91188893D01*
X371264520Y-91167849D01*
X371254030Y-91145671D01*
X371245765Y-91122571D01*
X371239804Y-91098773D01*
X371236204Y-91074504D01*
X371235000Y-91050000D01*
X371235000Y-90300000D01*
X371236204Y-90275496D01*
X371239804Y-90251227D01*
X371245765Y-90227429D01*
X371254030Y-90204329D01*
X371264520Y-90182151D01*
X371277133Y-90161107D01*
X371291747Y-90141402D01*
X371308223Y-90123223D01*
X371326402Y-90106747D01*
X371346107Y-90092133D01*
X371367151Y-90079520D01*
X371389329Y-90069030D01*
X371412429Y-90060765D01*
X371436227Y-90054804D01*
X371460496Y-90051204D01*
X371485000Y-90050000D01*
X372735000Y-90050000D01*
X372759504Y-90051204D01*
G37*
G36*
X377204504Y-92851204D02*
G01*
X377228773Y-92854804D01*
X377252571Y-92860765D01*
X377275671Y-92869030D01*
X377297849Y-92879520D01*
X377318893Y-92892133D01*
X377338598Y-92906747D01*
X377356777Y-92923223D01*
X377373253Y-92941402D01*
X377387867Y-92961107D01*
X377400480Y-92982151D01*
X377410970Y-93004329D01*
X377419235Y-93027429D01*
X377425196Y-93051227D01*
X377428796Y-93075496D01*
X377430000Y-93100000D01*
X377430000Y-93850000D01*
X377428796Y-93874504D01*
X377425196Y-93898773D01*
X377419235Y-93922571D01*
X377410970Y-93945671D01*
X377400480Y-93967849D01*
X377387867Y-93988893D01*
X377373253Y-94008598D01*
X377356777Y-94026777D01*
X377338598Y-94043253D01*
X377318893Y-94057867D01*
X377297849Y-94070480D01*
X377275671Y-94080970D01*
X377252571Y-94089235D01*
X377228773Y-94095196D01*
X377204504Y-94098796D01*
X377180000Y-94100000D01*
X375930000Y-94100000D01*
X375905496Y-94098796D01*
X375881227Y-94095196D01*
X375857429Y-94089235D01*
X375834329Y-94080970D01*
X375812151Y-94070480D01*
X375791107Y-94057867D01*
X375771402Y-94043253D01*
X375753223Y-94026777D01*
X375736747Y-94008598D01*
X375722133Y-93988893D01*
X375709520Y-93967849D01*
X375699030Y-93945671D01*
X375690765Y-93922571D01*
X375684804Y-93898773D01*
X375681204Y-93874504D01*
X375680000Y-93850000D01*
X375680000Y-93100000D01*
X375681204Y-93075496D01*
X375684804Y-93051227D01*
X375690765Y-93027429D01*
X375699030Y-93004329D01*
X375709520Y-92982151D01*
X375722133Y-92961107D01*
X375736747Y-92941402D01*
X375753223Y-92923223D01*
X375771402Y-92906747D01*
X375791107Y-92892133D01*
X375812151Y-92879520D01*
X375834329Y-92869030D01*
X375857429Y-92860765D01*
X375881227Y-92854804D01*
X375905496Y-92851204D01*
X375930000Y-92850000D01*
X377180000Y-92850000D01*
X377204504Y-92851204D01*
G37*
G36*
X377204504Y-90051204D02*
G01*
X377228773Y-90054804D01*
X377252571Y-90060765D01*
X377275671Y-90069030D01*
X377297849Y-90079520D01*
X377318893Y-90092133D01*
X377338598Y-90106747D01*
X377356777Y-90123223D01*
X377373253Y-90141402D01*
X377387867Y-90161107D01*
X377400480Y-90182151D01*
X377410970Y-90204329D01*
X377419235Y-90227429D01*
X377425196Y-90251227D01*
X377428796Y-90275496D01*
X377430000Y-90300000D01*
X377430000Y-91050000D01*
X377428796Y-91074504D01*
X377425196Y-91098773D01*
X377419235Y-91122571D01*
X377410970Y-91145671D01*
X377400480Y-91167849D01*
X377387867Y-91188893D01*
X377373253Y-91208598D01*
X377356777Y-91226777D01*
X377338598Y-91243253D01*
X377318893Y-91257867D01*
X377297849Y-91270480D01*
X377275671Y-91280970D01*
X377252571Y-91289235D01*
X377228773Y-91295196D01*
X377204504Y-91298796D01*
X377180000Y-91300000D01*
X375930000Y-91300000D01*
X375905496Y-91298796D01*
X375881227Y-91295196D01*
X375857429Y-91289235D01*
X375834329Y-91280970D01*
X375812151Y-91270480D01*
X375791107Y-91257867D01*
X375771402Y-91243253D01*
X375753223Y-91226777D01*
X375736747Y-91208598D01*
X375722133Y-91188893D01*
X375709520Y-91167849D01*
X375699030Y-91145671D01*
X375690765Y-91122571D01*
X375684804Y-91098773D01*
X375681204Y-91074504D01*
X375680000Y-91050000D01*
X375680000Y-90300000D01*
X375681204Y-90275496D01*
X375684804Y-90251227D01*
X375690765Y-90227429D01*
X375699030Y-90204329D01*
X375709520Y-90182151D01*
X375722133Y-90161107D01*
X375736747Y-90141402D01*
X375753223Y-90123223D01*
X375771402Y-90106747D01*
X375791107Y-90092133D01*
X375812151Y-90079520D01*
X375834329Y-90069030D01*
X375857429Y-90060765D01*
X375881227Y-90054804D01*
X375905496Y-90051204D01*
X375930000Y-90050000D01*
X377180000Y-90050000D01*
X377204504Y-90051204D01*
G37*
G36*
X381649504Y-92851204D02*
G01*
X381673773Y-92854804D01*
X381697571Y-92860765D01*
X381720671Y-92869030D01*
X381742849Y-92879520D01*
X381763893Y-92892133D01*
X381783598Y-92906747D01*
X381801777Y-92923223D01*
X381818253Y-92941402D01*
X381832867Y-92961107D01*
X381845480Y-92982151D01*
X381855970Y-93004329D01*
X381864235Y-93027429D01*
X381870196Y-93051227D01*
X381873796Y-93075496D01*
X381875000Y-93100000D01*
X381875000Y-93850000D01*
X381873796Y-93874504D01*
X381870196Y-93898773D01*
X381864235Y-93922571D01*
X381855970Y-93945671D01*
X381845480Y-93967849D01*
X381832867Y-93988893D01*
X381818253Y-94008598D01*
X381801777Y-94026777D01*
X381783598Y-94043253D01*
X381763893Y-94057867D01*
X381742849Y-94070480D01*
X381720671Y-94080970D01*
X381697571Y-94089235D01*
X381673773Y-94095196D01*
X381649504Y-94098796D01*
X381625000Y-94100000D01*
X380375000Y-94100000D01*
X380350496Y-94098796D01*
X380326227Y-94095196D01*
X380302429Y-94089235D01*
X380279329Y-94080970D01*
X380257151Y-94070480D01*
X380236107Y-94057867D01*
X380216402Y-94043253D01*
X380198223Y-94026777D01*
X380181747Y-94008598D01*
X380167133Y-93988893D01*
X380154520Y-93967849D01*
X380144030Y-93945671D01*
X380135765Y-93922571D01*
X380129804Y-93898773D01*
X380126204Y-93874504D01*
X380125000Y-93850000D01*
X380125000Y-93100000D01*
X380126204Y-93075496D01*
X380129804Y-93051227D01*
X380135765Y-93027429D01*
X380144030Y-93004329D01*
X380154520Y-92982151D01*
X380167133Y-92961107D01*
X380181747Y-92941402D01*
X380198223Y-92923223D01*
X380216402Y-92906747D01*
X380236107Y-92892133D01*
X380257151Y-92879520D01*
X380279329Y-92869030D01*
X380302429Y-92860765D01*
X380326227Y-92854804D01*
X380350496Y-92851204D01*
X380375000Y-92850000D01*
X381625000Y-92850000D01*
X381649504Y-92851204D01*
G37*
G36*
X381649504Y-90051204D02*
G01*
X381673773Y-90054804D01*
X381697571Y-90060765D01*
X381720671Y-90069030D01*
X381742849Y-90079520D01*
X381763893Y-90092133D01*
X381783598Y-90106747D01*
X381801777Y-90123223D01*
X381818253Y-90141402D01*
X381832867Y-90161107D01*
X381845480Y-90182151D01*
X381855970Y-90204329D01*
X381864235Y-90227429D01*
X381870196Y-90251227D01*
X381873796Y-90275496D01*
X381875000Y-90300000D01*
X381875000Y-91050000D01*
X381873796Y-91074504D01*
X381870196Y-91098773D01*
X381864235Y-91122571D01*
X381855970Y-91145671D01*
X381845480Y-91167849D01*
X381832867Y-91188893D01*
X381818253Y-91208598D01*
X381801777Y-91226777D01*
X381783598Y-91243253D01*
X381763893Y-91257867D01*
X381742849Y-91270480D01*
X381720671Y-91280970D01*
X381697571Y-91289235D01*
X381673773Y-91295196D01*
X381649504Y-91298796D01*
X381625000Y-91300000D01*
X380375000Y-91300000D01*
X380350496Y-91298796D01*
X380326227Y-91295196D01*
X380302429Y-91289235D01*
X380279329Y-91280970D01*
X380257151Y-91270480D01*
X380236107Y-91257867D01*
X380216402Y-91243253D01*
X380198223Y-91226777D01*
X380181747Y-91208598D01*
X380167133Y-91188893D01*
X380154520Y-91167849D01*
X380144030Y-91145671D01*
X380135765Y-91122571D01*
X380129804Y-91098773D01*
X380126204Y-91074504D01*
X380125000Y-91050000D01*
X380125000Y-90300000D01*
X380126204Y-90275496D01*
X380129804Y-90251227D01*
X380135765Y-90227429D01*
X380144030Y-90204329D01*
X380154520Y-90182151D01*
X380167133Y-90161107D01*
X380181747Y-90141402D01*
X380198223Y-90123223D01*
X380216402Y-90106747D01*
X380236107Y-90092133D01*
X380257151Y-90079520D01*
X380279329Y-90069030D01*
X380302429Y-90060765D01*
X380326227Y-90054804D01*
X380350496Y-90051204D01*
X380375000Y-90050000D01*
X381625000Y-90050000D01*
X381649504Y-90051204D01*
G37*
G36*
X386094504Y-92851204D02*
G01*
X386118773Y-92854804D01*
X386142571Y-92860765D01*
X386165671Y-92869030D01*
X386187849Y-92879520D01*
X386208893Y-92892133D01*
X386228598Y-92906747D01*
X386246777Y-92923223D01*
X386263253Y-92941402D01*
X386277867Y-92961107D01*
X386290480Y-92982151D01*
X386300970Y-93004329D01*
X386309235Y-93027429D01*
X386315196Y-93051227D01*
X386318796Y-93075496D01*
X386320000Y-93100000D01*
X386320000Y-93850000D01*
X386318796Y-93874504D01*
X386315196Y-93898773D01*
X386309235Y-93922571D01*
X386300970Y-93945671D01*
X386290480Y-93967849D01*
X386277867Y-93988893D01*
X386263253Y-94008598D01*
X386246777Y-94026777D01*
X386228598Y-94043253D01*
X386208893Y-94057867D01*
X386187849Y-94070480D01*
X386165671Y-94080970D01*
X386142571Y-94089235D01*
X386118773Y-94095196D01*
X386094504Y-94098796D01*
X386070000Y-94100000D01*
X384820000Y-94100000D01*
X384795496Y-94098796D01*
X384771227Y-94095196D01*
X384747429Y-94089235D01*
X384724329Y-94080970D01*
X384702151Y-94070480D01*
X384681107Y-94057867D01*
X384661402Y-94043253D01*
X384643223Y-94026777D01*
X384626747Y-94008598D01*
X384612133Y-93988893D01*
X384599520Y-93967849D01*
X384589030Y-93945671D01*
X384580765Y-93922571D01*
X384574804Y-93898773D01*
X384571204Y-93874504D01*
X384570000Y-93850000D01*
X384570000Y-93100000D01*
X384571204Y-93075496D01*
X384574804Y-93051227D01*
X384580765Y-93027429D01*
X384589030Y-93004329D01*
X384599520Y-92982151D01*
X384612133Y-92961107D01*
X384626747Y-92941402D01*
X384643223Y-92923223D01*
X384661402Y-92906747D01*
X384681107Y-92892133D01*
X384702151Y-92879520D01*
X384724329Y-92869030D01*
X384747429Y-92860765D01*
X384771227Y-92854804D01*
X384795496Y-92851204D01*
X384820000Y-92850000D01*
X386070000Y-92850000D01*
X386094504Y-92851204D01*
G37*
G36*
X386094504Y-90051204D02*
G01*
X386118773Y-90054804D01*
X386142571Y-90060765D01*
X386165671Y-90069030D01*
X386187849Y-90079520D01*
X386208893Y-90092133D01*
X386228598Y-90106747D01*
X386246777Y-90123223D01*
X386263253Y-90141402D01*
X386277867Y-90161107D01*
X386290480Y-90182151D01*
X386300970Y-90204329D01*
X386309235Y-90227429D01*
X386315196Y-90251227D01*
X386318796Y-90275496D01*
X386320000Y-90300000D01*
X386320000Y-91050000D01*
X386318796Y-91074504D01*
X386315196Y-91098773D01*
X386309235Y-91122571D01*
X386300970Y-91145671D01*
X386290480Y-91167849D01*
X386277867Y-91188893D01*
X386263253Y-91208598D01*
X386246777Y-91226777D01*
X386228598Y-91243253D01*
X386208893Y-91257867D01*
X386187849Y-91270480D01*
X386165671Y-91280970D01*
X386142571Y-91289235D01*
X386118773Y-91295196D01*
X386094504Y-91298796D01*
X386070000Y-91300000D01*
X384820000Y-91300000D01*
X384795496Y-91298796D01*
X384771227Y-91295196D01*
X384747429Y-91289235D01*
X384724329Y-91280970D01*
X384702151Y-91270480D01*
X384681107Y-91257867D01*
X384661402Y-91243253D01*
X384643223Y-91226777D01*
X384626747Y-91208598D01*
X384612133Y-91188893D01*
X384599520Y-91167849D01*
X384589030Y-91145671D01*
X384580765Y-91122571D01*
X384574804Y-91098773D01*
X384571204Y-91074504D01*
X384570000Y-91050000D01*
X384570000Y-90300000D01*
X384571204Y-90275496D01*
X384574804Y-90251227D01*
X384580765Y-90227429D01*
X384589030Y-90204329D01*
X384599520Y-90182151D01*
X384612133Y-90161107D01*
X384626747Y-90141402D01*
X384643223Y-90123223D01*
X384661402Y-90106747D01*
X384681107Y-90092133D01*
X384702151Y-90079520D01*
X384724329Y-90069030D01*
X384747429Y-90060765D01*
X384771227Y-90054804D01*
X384795496Y-90051204D01*
X384820000Y-90050000D01*
X386070000Y-90050000D01*
X386094504Y-90051204D01*
G37*
G36*
X390539504Y-92851204D02*
G01*
X390563773Y-92854804D01*
X390587571Y-92860765D01*
X390610671Y-92869030D01*
X390632849Y-92879520D01*
X390653893Y-92892133D01*
X390673598Y-92906747D01*
X390691777Y-92923223D01*
X390708253Y-92941402D01*
X390722867Y-92961107D01*
X390735480Y-92982151D01*
X390745970Y-93004329D01*
X390754235Y-93027429D01*
X390760196Y-93051227D01*
X390763796Y-93075496D01*
X390765000Y-93100000D01*
X390765000Y-93850000D01*
X390763796Y-93874504D01*
X390760196Y-93898773D01*
X390754235Y-93922571D01*
X390745970Y-93945671D01*
X390735480Y-93967849D01*
X390722867Y-93988893D01*
X390708253Y-94008598D01*
X390691777Y-94026777D01*
X390673598Y-94043253D01*
X390653893Y-94057867D01*
X390632849Y-94070480D01*
X390610671Y-94080970D01*
X390587571Y-94089235D01*
X390563773Y-94095196D01*
X390539504Y-94098796D01*
X390515000Y-94100000D01*
X389265000Y-94100000D01*
X389240496Y-94098796D01*
X389216227Y-94095196D01*
X389192429Y-94089235D01*
X389169329Y-94080970D01*
X389147151Y-94070480D01*
X389126107Y-94057867D01*
X389106402Y-94043253D01*
X389088223Y-94026777D01*
X389071747Y-94008598D01*
X389057133Y-93988893D01*
X389044520Y-93967849D01*
X389034030Y-93945671D01*
X389025765Y-93922571D01*
X389019804Y-93898773D01*
X389016204Y-93874504D01*
X389015000Y-93850000D01*
X389015000Y-93100000D01*
X389016204Y-93075496D01*
X389019804Y-93051227D01*
X389025765Y-93027429D01*
X389034030Y-93004329D01*
X389044520Y-92982151D01*
X389057133Y-92961107D01*
X389071747Y-92941402D01*
X389088223Y-92923223D01*
X389106402Y-92906747D01*
X389126107Y-92892133D01*
X389147151Y-92879520D01*
X389169329Y-92869030D01*
X389192429Y-92860765D01*
X389216227Y-92854804D01*
X389240496Y-92851204D01*
X389265000Y-92850000D01*
X390515000Y-92850000D01*
X390539504Y-92851204D01*
G37*
G36*
X390539504Y-90051204D02*
G01*
X390563773Y-90054804D01*
X390587571Y-90060765D01*
X390610671Y-90069030D01*
X390632849Y-90079520D01*
X390653893Y-90092133D01*
X390673598Y-90106747D01*
X390691777Y-90123223D01*
X390708253Y-90141402D01*
X390722867Y-90161107D01*
X390735480Y-90182151D01*
X390745970Y-90204329D01*
X390754235Y-90227429D01*
X390760196Y-90251227D01*
X390763796Y-90275496D01*
X390765000Y-90300000D01*
X390765000Y-91050000D01*
X390763796Y-91074504D01*
X390760196Y-91098773D01*
X390754235Y-91122571D01*
X390745970Y-91145671D01*
X390735480Y-91167849D01*
X390722867Y-91188893D01*
X390708253Y-91208598D01*
X390691777Y-91226777D01*
X390673598Y-91243253D01*
X390653893Y-91257867D01*
X390632849Y-91270480D01*
X390610671Y-91280970D01*
X390587571Y-91289235D01*
X390563773Y-91295196D01*
X390539504Y-91298796D01*
X390515000Y-91300000D01*
X389265000Y-91300000D01*
X389240496Y-91298796D01*
X389216227Y-91295196D01*
X389192429Y-91289235D01*
X389169329Y-91280970D01*
X389147151Y-91270480D01*
X389126107Y-91257867D01*
X389106402Y-91243253D01*
X389088223Y-91226777D01*
X389071747Y-91208598D01*
X389057133Y-91188893D01*
X389044520Y-91167849D01*
X389034030Y-91145671D01*
X389025765Y-91122571D01*
X389019804Y-91098773D01*
X389016204Y-91074504D01*
X389015000Y-91050000D01*
X389015000Y-90300000D01*
X389016204Y-90275496D01*
X389019804Y-90251227D01*
X389025765Y-90227429D01*
X389034030Y-90204329D01*
X389044520Y-90182151D01*
X389057133Y-90161107D01*
X389071747Y-90141402D01*
X389088223Y-90123223D01*
X389106402Y-90106747D01*
X389126107Y-90092133D01*
X389147151Y-90079520D01*
X389169329Y-90069030D01*
X389192429Y-90060765D01*
X389216227Y-90054804D01*
X389240496Y-90051204D01*
X389265000Y-90050000D01*
X390515000Y-90050000D01*
X390539504Y-90051204D01*
G37*
G36*
X394984504Y-92851204D02*
G01*
X395008773Y-92854804D01*
X395032571Y-92860765D01*
X395055671Y-92869030D01*
X395077849Y-92879520D01*
X395098893Y-92892133D01*
X395118598Y-92906747D01*
X395136777Y-92923223D01*
X395153253Y-92941402D01*
X395167867Y-92961107D01*
X395180480Y-92982151D01*
X395190970Y-93004329D01*
X395199235Y-93027429D01*
X395205196Y-93051227D01*
X395208796Y-93075496D01*
X395210000Y-93100000D01*
X395210000Y-93850000D01*
X395208796Y-93874504D01*
X395205196Y-93898773D01*
X395199235Y-93922571D01*
X395190970Y-93945671D01*
X395180480Y-93967849D01*
X395167867Y-93988893D01*
X395153253Y-94008598D01*
X395136777Y-94026777D01*
X395118598Y-94043253D01*
X395098893Y-94057867D01*
X395077849Y-94070480D01*
X395055671Y-94080970D01*
X395032571Y-94089235D01*
X395008773Y-94095196D01*
X394984504Y-94098796D01*
X394960000Y-94100000D01*
X393710000Y-94100000D01*
X393685496Y-94098796D01*
X393661227Y-94095196D01*
X393637429Y-94089235D01*
X393614329Y-94080970D01*
X393592151Y-94070480D01*
X393571107Y-94057867D01*
X393551402Y-94043253D01*
X393533223Y-94026777D01*
X393516747Y-94008598D01*
X393502133Y-93988893D01*
X393489520Y-93967849D01*
X393479030Y-93945671D01*
X393470765Y-93922571D01*
X393464804Y-93898773D01*
X393461204Y-93874504D01*
X393460000Y-93850000D01*
X393460000Y-93100000D01*
X393461204Y-93075496D01*
X393464804Y-93051227D01*
X393470765Y-93027429D01*
X393479030Y-93004329D01*
X393489520Y-92982151D01*
X393502133Y-92961107D01*
X393516747Y-92941402D01*
X393533223Y-92923223D01*
X393551402Y-92906747D01*
X393571107Y-92892133D01*
X393592151Y-92879520D01*
X393614329Y-92869030D01*
X393637429Y-92860765D01*
X393661227Y-92854804D01*
X393685496Y-92851204D01*
X393710000Y-92850000D01*
X394960000Y-92850000D01*
X394984504Y-92851204D01*
G37*
G36*
X394984504Y-90051204D02*
G01*
X395008773Y-90054804D01*
X395032571Y-90060765D01*
X395055671Y-90069030D01*
X395077849Y-90079520D01*
X395098893Y-90092133D01*
X395118598Y-90106747D01*
X395136777Y-90123223D01*
X395153253Y-90141402D01*
X395167867Y-90161107D01*
X395180480Y-90182151D01*
X395190970Y-90204329D01*
X395199235Y-90227429D01*
X395205196Y-90251227D01*
X395208796Y-90275496D01*
X395210000Y-90300000D01*
X395210000Y-91050000D01*
X395208796Y-91074504D01*
X395205196Y-91098773D01*
X395199235Y-91122571D01*
X395190970Y-91145671D01*
X395180480Y-91167849D01*
X395167867Y-91188893D01*
X395153253Y-91208598D01*
X395136777Y-91226777D01*
X395118598Y-91243253D01*
X395098893Y-91257867D01*
X395077849Y-91270480D01*
X395055671Y-91280970D01*
X395032571Y-91289235D01*
X395008773Y-91295196D01*
X394984504Y-91298796D01*
X394960000Y-91300000D01*
X393710000Y-91300000D01*
X393685496Y-91298796D01*
X393661227Y-91295196D01*
X393637429Y-91289235D01*
X393614329Y-91280970D01*
X393592151Y-91270480D01*
X393571107Y-91257867D01*
X393551402Y-91243253D01*
X393533223Y-91226777D01*
X393516747Y-91208598D01*
X393502133Y-91188893D01*
X393489520Y-91167849D01*
X393479030Y-91145671D01*
X393470765Y-91122571D01*
X393464804Y-91098773D01*
X393461204Y-91074504D01*
X393460000Y-91050000D01*
X393460000Y-90300000D01*
X393461204Y-90275496D01*
X393464804Y-90251227D01*
X393470765Y-90227429D01*
X393479030Y-90204329D01*
X393489520Y-90182151D01*
X393502133Y-90161107D01*
X393516747Y-90141402D01*
X393533223Y-90123223D01*
X393551402Y-90106747D01*
X393571107Y-90092133D01*
X393592151Y-90079520D01*
X393614329Y-90069030D01*
X393637429Y-90060765D01*
X393661227Y-90054804D01*
X393685496Y-90051204D01*
X393710000Y-90050000D01*
X394960000Y-90050000D01*
X394984504Y-90051204D01*
G37*
G36*
X399429504Y-92851204D02*
G01*
X399453773Y-92854804D01*
X399477571Y-92860765D01*
X399500671Y-92869030D01*
X399522849Y-92879520D01*
X399543893Y-92892133D01*
X399563598Y-92906747D01*
X399581777Y-92923223D01*
X399598253Y-92941402D01*
X399612867Y-92961107D01*
X399625480Y-92982151D01*
X399635970Y-93004329D01*
X399644235Y-93027429D01*
X399650196Y-93051227D01*
X399653796Y-93075496D01*
X399655000Y-93100000D01*
X399655000Y-93850000D01*
X399653796Y-93874504D01*
X399650196Y-93898773D01*
X399644235Y-93922571D01*
X399635970Y-93945671D01*
X399625480Y-93967849D01*
X399612867Y-93988893D01*
X399598253Y-94008598D01*
X399581777Y-94026777D01*
X399563598Y-94043253D01*
X399543893Y-94057867D01*
X399522849Y-94070480D01*
X399500671Y-94080970D01*
X399477571Y-94089235D01*
X399453773Y-94095196D01*
X399429504Y-94098796D01*
X399405000Y-94100000D01*
X398155000Y-94100000D01*
X398130496Y-94098796D01*
X398106227Y-94095196D01*
X398082429Y-94089235D01*
X398059329Y-94080970D01*
X398037151Y-94070480D01*
X398016107Y-94057867D01*
X397996402Y-94043253D01*
X397978223Y-94026777D01*
X397961747Y-94008598D01*
X397947133Y-93988893D01*
X397934520Y-93967849D01*
X397924030Y-93945671D01*
X397915765Y-93922571D01*
X397909804Y-93898773D01*
X397906204Y-93874504D01*
X397905000Y-93850000D01*
X397905000Y-93100000D01*
X397906204Y-93075496D01*
X397909804Y-93051227D01*
X397915765Y-93027429D01*
X397924030Y-93004329D01*
X397934520Y-92982151D01*
X397947133Y-92961107D01*
X397961747Y-92941402D01*
X397978223Y-92923223D01*
X397996402Y-92906747D01*
X398016107Y-92892133D01*
X398037151Y-92879520D01*
X398059329Y-92869030D01*
X398082429Y-92860765D01*
X398106227Y-92854804D01*
X398130496Y-92851204D01*
X398155000Y-92850000D01*
X399405000Y-92850000D01*
X399429504Y-92851204D01*
G37*
G36*
X399429504Y-90051204D02*
G01*
X399453773Y-90054804D01*
X399477571Y-90060765D01*
X399500671Y-90069030D01*
X399522849Y-90079520D01*
X399543893Y-90092133D01*
X399563598Y-90106747D01*
X399581777Y-90123223D01*
X399598253Y-90141402D01*
X399612867Y-90161107D01*
X399625480Y-90182151D01*
X399635970Y-90204329D01*
X399644235Y-90227429D01*
X399650196Y-90251227D01*
X399653796Y-90275496D01*
X399655000Y-90300000D01*
X399655000Y-91050000D01*
X399653796Y-91074504D01*
X399650196Y-91098773D01*
X399644235Y-91122571D01*
X399635970Y-91145671D01*
X399625480Y-91167849D01*
X399612867Y-91188893D01*
X399598253Y-91208598D01*
X399581777Y-91226777D01*
X399563598Y-91243253D01*
X399543893Y-91257867D01*
X399522849Y-91270480D01*
X399500671Y-91280970D01*
X399477571Y-91289235D01*
X399453773Y-91295196D01*
X399429504Y-91298796D01*
X399405000Y-91300000D01*
X398155000Y-91300000D01*
X398130496Y-91298796D01*
X398106227Y-91295196D01*
X398082429Y-91289235D01*
X398059329Y-91280970D01*
X398037151Y-91270480D01*
X398016107Y-91257867D01*
X397996402Y-91243253D01*
X397978223Y-91226777D01*
X397961747Y-91208598D01*
X397947133Y-91188893D01*
X397934520Y-91167849D01*
X397924030Y-91145671D01*
X397915765Y-91122571D01*
X397909804Y-91098773D01*
X397906204Y-91074504D01*
X397905000Y-91050000D01*
X397905000Y-90300000D01*
X397906204Y-90275496D01*
X397909804Y-90251227D01*
X397915765Y-90227429D01*
X397924030Y-90204329D01*
X397934520Y-90182151D01*
X397947133Y-90161107D01*
X397961747Y-90141402D01*
X397978223Y-90123223D01*
X397996402Y-90106747D01*
X398016107Y-90092133D01*
X398037151Y-90079520D01*
X398059329Y-90069030D01*
X398082429Y-90060765D01*
X398106227Y-90054804D01*
X398130496Y-90051204D01*
X398155000Y-90050000D01*
X399405000Y-90050000D01*
X399429504Y-90051204D01*
G37*
G36*
X403874504Y-92851204D02*
G01*
X403898773Y-92854804D01*
X403922571Y-92860765D01*
X403945671Y-92869030D01*
X403967849Y-92879520D01*
X403988893Y-92892133D01*
X404008598Y-92906747D01*
X404026777Y-92923223D01*
X404043253Y-92941402D01*
X404057867Y-92961107D01*
X404070480Y-92982151D01*
X404080970Y-93004329D01*
X404089235Y-93027429D01*
X404095196Y-93051227D01*
X404098796Y-93075496D01*
X404100000Y-93100000D01*
X404100000Y-93850000D01*
X404098796Y-93874504D01*
X404095196Y-93898773D01*
X404089235Y-93922571D01*
X404080970Y-93945671D01*
X404070480Y-93967849D01*
X404057867Y-93988893D01*
X404043253Y-94008598D01*
X404026777Y-94026777D01*
X404008598Y-94043253D01*
X403988893Y-94057867D01*
X403967849Y-94070480D01*
X403945671Y-94080970D01*
X403922571Y-94089235D01*
X403898773Y-94095196D01*
X403874504Y-94098796D01*
X403850000Y-94100000D01*
X402600000Y-94100000D01*
X402575496Y-94098796D01*
X402551227Y-94095196D01*
X402527429Y-94089235D01*
X402504329Y-94080970D01*
X402482151Y-94070480D01*
X402461107Y-94057867D01*
X402441402Y-94043253D01*
X402423223Y-94026777D01*
X402406747Y-94008598D01*
X402392133Y-93988893D01*
X402379520Y-93967849D01*
X402369030Y-93945671D01*
X402360765Y-93922571D01*
X402354804Y-93898773D01*
X402351204Y-93874504D01*
X402350000Y-93850000D01*
X402350000Y-93100000D01*
X402351204Y-93075496D01*
X402354804Y-93051227D01*
X402360765Y-93027429D01*
X402369030Y-93004329D01*
X402379520Y-92982151D01*
X402392133Y-92961107D01*
X402406747Y-92941402D01*
X402423223Y-92923223D01*
X402441402Y-92906747D01*
X402461107Y-92892133D01*
X402482151Y-92879520D01*
X402504329Y-92869030D01*
X402527429Y-92860765D01*
X402551227Y-92854804D01*
X402575496Y-92851204D01*
X402600000Y-92850000D01*
X403850000Y-92850000D01*
X403874504Y-92851204D01*
G37*
G36*
X403874504Y-90051204D02*
G01*
X403898773Y-90054804D01*
X403922571Y-90060765D01*
X403945671Y-90069030D01*
X403967849Y-90079520D01*
X403988893Y-90092133D01*
X404008598Y-90106747D01*
X404026777Y-90123223D01*
X404043253Y-90141402D01*
X404057867Y-90161107D01*
X404070480Y-90182151D01*
X404080970Y-90204329D01*
X404089235Y-90227429D01*
X404095196Y-90251227D01*
X404098796Y-90275496D01*
X404100000Y-90300000D01*
X404100000Y-91050000D01*
X404098796Y-91074504D01*
X404095196Y-91098773D01*
X404089235Y-91122571D01*
X404080970Y-91145671D01*
X404070480Y-91167849D01*
X404057867Y-91188893D01*
X404043253Y-91208598D01*
X404026777Y-91226777D01*
X404008598Y-91243253D01*
X403988893Y-91257867D01*
X403967849Y-91270480D01*
X403945671Y-91280970D01*
X403922571Y-91289235D01*
X403898773Y-91295196D01*
X403874504Y-91298796D01*
X403850000Y-91300000D01*
X402600000Y-91300000D01*
X402575496Y-91298796D01*
X402551227Y-91295196D01*
X402527429Y-91289235D01*
X402504329Y-91280970D01*
X402482151Y-91270480D01*
X402461107Y-91257867D01*
X402441402Y-91243253D01*
X402423223Y-91226777D01*
X402406747Y-91208598D01*
X402392133Y-91188893D01*
X402379520Y-91167849D01*
X402369030Y-91145671D01*
X402360765Y-91122571D01*
X402354804Y-91098773D01*
X402351204Y-91074504D01*
X402350000Y-91050000D01*
X402350000Y-90300000D01*
X402351204Y-90275496D01*
X402354804Y-90251227D01*
X402360765Y-90227429D01*
X402369030Y-90204329D01*
X402379520Y-90182151D01*
X402392133Y-90161107D01*
X402406747Y-90141402D01*
X402423223Y-90123223D01*
X402441402Y-90106747D01*
X402461107Y-90092133D01*
X402482151Y-90079520D01*
X402504329Y-90069030D01*
X402527429Y-90060765D01*
X402551227Y-90054804D01*
X402575496Y-90051204D01*
X402600000Y-90050000D01*
X403850000Y-90050000D01*
X403874504Y-90051204D01*
G37*
G36*
X408319504Y-92851204D02*
G01*
X408343773Y-92854804D01*
X408367571Y-92860765D01*
X408390671Y-92869030D01*
X408412849Y-92879520D01*
X408433893Y-92892133D01*
X408453598Y-92906747D01*
X408471777Y-92923223D01*
X408488253Y-92941402D01*
X408502867Y-92961107D01*
X408515480Y-92982151D01*
X408525970Y-93004329D01*
X408534235Y-93027429D01*
X408540196Y-93051227D01*
X408543796Y-93075496D01*
X408545000Y-93100000D01*
X408545000Y-93850000D01*
X408543796Y-93874504D01*
X408540196Y-93898773D01*
X408534235Y-93922571D01*
X408525970Y-93945671D01*
X408515480Y-93967849D01*
X408502867Y-93988893D01*
X408488253Y-94008598D01*
X408471777Y-94026777D01*
X408453598Y-94043253D01*
X408433893Y-94057867D01*
X408412849Y-94070480D01*
X408390671Y-94080970D01*
X408367571Y-94089235D01*
X408343773Y-94095196D01*
X408319504Y-94098796D01*
X408295000Y-94100000D01*
X407045000Y-94100000D01*
X407020496Y-94098796D01*
X406996227Y-94095196D01*
X406972429Y-94089235D01*
X406949329Y-94080970D01*
X406927151Y-94070480D01*
X406906107Y-94057867D01*
X406886402Y-94043253D01*
X406868223Y-94026777D01*
X406851747Y-94008598D01*
X406837133Y-93988893D01*
X406824520Y-93967849D01*
X406814030Y-93945671D01*
X406805765Y-93922571D01*
X406799804Y-93898773D01*
X406796204Y-93874504D01*
X406795000Y-93850000D01*
X406795000Y-93100000D01*
X406796204Y-93075496D01*
X406799804Y-93051227D01*
X406805765Y-93027429D01*
X406814030Y-93004329D01*
X406824520Y-92982151D01*
X406837133Y-92961107D01*
X406851747Y-92941402D01*
X406868223Y-92923223D01*
X406886402Y-92906747D01*
X406906107Y-92892133D01*
X406927151Y-92879520D01*
X406949329Y-92869030D01*
X406972429Y-92860765D01*
X406996227Y-92854804D01*
X407020496Y-92851204D01*
X407045000Y-92850000D01*
X408295000Y-92850000D01*
X408319504Y-92851204D01*
G37*
G36*
X408319504Y-90051204D02*
G01*
X408343773Y-90054804D01*
X408367571Y-90060765D01*
X408390671Y-90069030D01*
X408412849Y-90079520D01*
X408433893Y-90092133D01*
X408453598Y-90106747D01*
X408471777Y-90123223D01*
X408488253Y-90141402D01*
X408502867Y-90161107D01*
X408515480Y-90182151D01*
X408525970Y-90204329D01*
X408534235Y-90227429D01*
X408540196Y-90251227D01*
X408543796Y-90275496D01*
X408545000Y-90300000D01*
X408545000Y-91050000D01*
X408543796Y-91074504D01*
X408540196Y-91098773D01*
X408534235Y-91122571D01*
X408525970Y-91145671D01*
X408515480Y-91167849D01*
X408502867Y-91188893D01*
X408488253Y-91208598D01*
X408471777Y-91226777D01*
X408453598Y-91243253D01*
X408433893Y-91257867D01*
X408412849Y-91270480D01*
X408390671Y-91280970D01*
X408367571Y-91289235D01*
X408343773Y-91295196D01*
X408319504Y-91298796D01*
X408295000Y-91300000D01*
X407045000Y-91300000D01*
X407020496Y-91298796D01*
X406996227Y-91295196D01*
X406972429Y-91289235D01*
X406949329Y-91280970D01*
X406927151Y-91270480D01*
X406906107Y-91257867D01*
X406886402Y-91243253D01*
X406868223Y-91226777D01*
X406851747Y-91208598D01*
X406837133Y-91188893D01*
X406824520Y-91167849D01*
X406814030Y-91145671D01*
X406805765Y-91122571D01*
X406799804Y-91098773D01*
X406796204Y-91074504D01*
X406795000Y-91050000D01*
X406795000Y-90300000D01*
X406796204Y-90275496D01*
X406799804Y-90251227D01*
X406805765Y-90227429D01*
X406814030Y-90204329D01*
X406824520Y-90182151D01*
X406837133Y-90161107D01*
X406851747Y-90141402D01*
X406868223Y-90123223D01*
X406886402Y-90106747D01*
X406906107Y-90092133D01*
X406927151Y-90079520D01*
X406949329Y-90069030D01*
X406972429Y-90060765D01*
X406996227Y-90054804D01*
X407020496Y-90051204D01*
X407045000Y-90050000D01*
X408295000Y-90050000D01*
X408319504Y-90051204D01*
G37*
G36*
X412764504Y-92851204D02*
G01*
X412788773Y-92854804D01*
X412812571Y-92860765D01*
X412835671Y-92869030D01*
X412857849Y-92879520D01*
X412878893Y-92892133D01*
X412898598Y-92906747D01*
X412916777Y-92923223D01*
X412933253Y-92941402D01*
X412947867Y-92961107D01*
X412960480Y-92982151D01*
X412970970Y-93004329D01*
X412979235Y-93027429D01*
X412985196Y-93051227D01*
X412988796Y-93075496D01*
X412990000Y-93100000D01*
X412990000Y-93850000D01*
X412988796Y-93874504D01*
X412985196Y-93898773D01*
X412979235Y-93922571D01*
X412970970Y-93945671D01*
X412960480Y-93967849D01*
X412947867Y-93988893D01*
X412933253Y-94008598D01*
X412916777Y-94026777D01*
X412898598Y-94043253D01*
X412878893Y-94057867D01*
X412857849Y-94070480D01*
X412835671Y-94080970D01*
X412812571Y-94089235D01*
X412788773Y-94095196D01*
X412764504Y-94098796D01*
X412740000Y-94100000D01*
X411490000Y-94100000D01*
X411465496Y-94098796D01*
X411441227Y-94095196D01*
X411417429Y-94089235D01*
X411394329Y-94080970D01*
X411372151Y-94070480D01*
X411351107Y-94057867D01*
X411331402Y-94043253D01*
X411313223Y-94026777D01*
X411296747Y-94008598D01*
X411282133Y-93988893D01*
X411269520Y-93967849D01*
X411259030Y-93945671D01*
X411250765Y-93922571D01*
X411244804Y-93898773D01*
X411241204Y-93874504D01*
X411240000Y-93850000D01*
X411240000Y-93100000D01*
X411241204Y-93075496D01*
X411244804Y-93051227D01*
X411250765Y-93027429D01*
X411259030Y-93004329D01*
X411269520Y-92982151D01*
X411282133Y-92961107D01*
X411296747Y-92941402D01*
X411313223Y-92923223D01*
X411331402Y-92906747D01*
X411351107Y-92892133D01*
X411372151Y-92879520D01*
X411394329Y-92869030D01*
X411417429Y-92860765D01*
X411441227Y-92854804D01*
X411465496Y-92851204D01*
X411490000Y-92850000D01*
X412740000Y-92850000D01*
X412764504Y-92851204D01*
G37*
G36*
X412764504Y-90051204D02*
G01*
X412788773Y-90054804D01*
X412812571Y-90060765D01*
X412835671Y-90069030D01*
X412857849Y-90079520D01*
X412878893Y-90092133D01*
X412898598Y-90106747D01*
X412916777Y-90123223D01*
X412933253Y-90141402D01*
X412947867Y-90161107D01*
X412960480Y-90182151D01*
X412970970Y-90204329D01*
X412979235Y-90227429D01*
X412985196Y-90251227D01*
X412988796Y-90275496D01*
X412990000Y-90300000D01*
X412990000Y-91050000D01*
X412988796Y-91074504D01*
X412985196Y-91098773D01*
X412979235Y-91122571D01*
X412970970Y-91145671D01*
X412960480Y-91167849D01*
X412947867Y-91188893D01*
X412933253Y-91208598D01*
X412916777Y-91226777D01*
X412898598Y-91243253D01*
X412878893Y-91257867D01*
X412857849Y-91270480D01*
X412835671Y-91280970D01*
X412812571Y-91289235D01*
X412788773Y-91295196D01*
X412764504Y-91298796D01*
X412740000Y-91300000D01*
X411490000Y-91300000D01*
X411465496Y-91298796D01*
X411441227Y-91295196D01*
X411417429Y-91289235D01*
X411394329Y-91280970D01*
X411372151Y-91270480D01*
X411351107Y-91257867D01*
X411331402Y-91243253D01*
X411313223Y-91226777D01*
X411296747Y-91208598D01*
X411282133Y-91188893D01*
X411269520Y-91167849D01*
X411259030Y-91145671D01*
X411250765Y-91122571D01*
X411244804Y-91098773D01*
X411241204Y-91074504D01*
X411240000Y-91050000D01*
X411240000Y-90300000D01*
X411241204Y-90275496D01*
X411244804Y-90251227D01*
X411250765Y-90227429D01*
X411259030Y-90204329D01*
X411269520Y-90182151D01*
X411282133Y-90161107D01*
X411296747Y-90141402D01*
X411313223Y-90123223D01*
X411331402Y-90106747D01*
X411351107Y-90092133D01*
X411372151Y-90079520D01*
X411394329Y-90069030D01*
X411417429Y-90060765D01*
X411441227Y-90054804D01*
X411465496Y-90051204D01*
X411490000Y-90050000D01*
X412740000Y-90050000D01*
X412764504Y-90051204D01*
G37*
G36*
X417209504Y-92851204D02*
G01*
X417233773Y-92854804D01*
X417257571Y-92860765D01*
X417280671Y-92869030D01*
X417302849Y-92879520D01*
X417323893Y-92892133D01*
X417343598Y-92906747D01*
X417361777Y-92923223D01*
X417378253Y-92941402D01*
X417392867Y-92961107D01*
X417405480Y-92982151D01*
X417415970Y-93004329D01*
X417424235Y-93027429D01*
X417430196Y-93051227D01*
X417433796Y-93075496D01*
X417435000Y-93100000D01*
X417435000Y-93850000D01*
X417433796Y-93874504D01*
X417430196Y-93898773D01*
X417424235Y-93922571D01*
X417415970Y-93945671D01*
X417405480Y-93967849D01*
X417392867Y-93988893D01*
X417378253Y-94008598D01*
X417361777Y-94026777D01*
X417343598Y-94043253D01*
X417323893Y-94057867D01*
X417302849Y-94070480D01*
X417280671Y-94080970D01*
X417257571Y-94089235D01*
X417233773Y-94095196D01*
X417209504Y-94098796D01*
X417185000Y-94100000D01*
X415935000Y-94100000D01*
X415910496Y-94098796D01*
X415886227Y-94095196D01*
X415862429Y-94089235D01*
X415839329Y-94080970D01*
X415817151Y-94070480D01*
X415796107Y-94057867D01*
X415776402Y-94043253D01*
X415758223Y-94026777D01*
X415741747Y-94008598D01*
X415727133Y-93988893D01*
X415714520Y-93967849D01*
X415704030Y-93945671D01*
X415695765Y-93922571D01*
X415689804Y-93898773D01*
X415686204Y-93874504D01*
X415685000Y-93850000D01*
X415685000Y-93100000D01*
X415686204Y-93075496D01*
X415689804Y-93051227D01*
X415695765Y-93027429D01*
X415704030Y-93004329D01*
X415714520Y-92982151D01*
X415727133Y-92961107D01*
X415741747Y-92941402D01*
X415758223Y-92923223D01*
X415776402Y-92906747D01*
X415796107Y-92892133D01*
X415817151Y-92879520D01*
X415839329Y-92869030D01*
X415862429Y-92860765D01*
X415886227Y-92854804D01*
X415910496Y-92851204D01*
X415935000Y-92850000D01*
X417185000Y-92850000D01*
X417209504Y-92851204D01*
G37*
G36*
X417209504Y-90051204D02*
G01*
X417233773Y-90054804D01*
X417257571Y-90060765D01*
X417280671Y-90069030D01*
X417302849Y-90079520D01*
X417323893Y-90092133D01*
X417343598Y-90106747D01*
X417361777Y-90123223D01*
X417378253Y-90141402D01*
X417392867Y-90161107D01*
X417405480Y-90182151D01*
X417415970Y-90204329D01*
X417424235Y-90227429D01*
X417430196Y-90251227D01*
X417433796Y-90275496D01*
X417435000Y-90300000D01*
X417435000Y-91050000D01*
X417433796Y-91074504D01*
X417430196Y-91098773D01*
X417424235Y-91122571D01*
X417415970Y-91145671D01*
X417405480Y-91167849D01*
X417392867Y-91188893D01*
X417378253Y-91208598D01*
X417361777Y-91226777D01*
X417343598Y-91243253D01*
X417323893Y-91257867D01*
X417302849Y-91270480D01*
X417280671Y-91280970D01*
X417257571Y-91289235D01*
X417233773Y-91295196D01*
X417209504Y-91298796D01*
X417185000Y-91300000D01*
X415935000Y-91300000D01*
X415910496Y-91298796D01*
X415886227Y-91295196D01*
X415862429Y-91289235D01*
X415839329Y-91280970D01*
X415817151Y-91270480D01*
X415796107Y-91257867D01*
X415776402Y-91243253D01*
X415758223Y-91226777D01*
X415741747Y-91208598D01*
X415727133Y-91188893D01*
X415714520Y-91167849D01*
X415704030Y-91145671D01*
X415695765Y-91122571D01*
X415689804Y-91098773D01*
X415686204Y-91074504D01*
X415685000Y-91050000D01*
X415685000Y-90300000D01*
X415686204Y-90275496D01*
X415689804Y-90251227D01*
X415695765Y-90227429D01*
X415704030Y-90204329D01*
X415714520Y-90182151D01*
X415727133Y-90161107D01*
X415741747Y-90141402D01*
X415758223Y-90123223D01*
X415776402Y-90106747D01*
X415796107Y-90092133D01*
X415817151Y-90079520D01*
X415839329Y-90069030D01*
X415862429Y-90060765D01*
X415886227Y-90054804D01*
X415910496Y-90051204D01*
X415935000Y-90050000D01*
X417185000Y-90050000D01*
X417209504Y-90051204D01*
G37*
G36*
X421654504Y-92851204D02*
G01*
X421678773Y-92854804D01*
X421702571Y-92860765D01*
X421725671Y-92869030D01*
X421747849Y-92879520D01*
X421768893Y-92892133D01*
X421788598Y-92906747D01*
X421806777Y-92923223D01*
X421823253Y-92941402D01*
X421837867Y-92961107D01*
X421850480Y-92982151D01*
X421860970Y-93004329D01*
X421869235Y-93027429D01*
X421875196Y-93051227D01*
X421878796Y-93075496D01*
X421880000Y-93100000D01*
X421880000Y-93850000D01*
X421878796Y-93874504D01*
X421875196Y-93898773D01*
X421869235Y-93922571D01*
X421860970Y-93945671D01*
X421850480Y-93967849D01*
X421837867Y-93988893D01*
X421823253Y-94008598D01*
X421806777Y-94026777D01*
X421788598Y-94043253D01*
X421768893Y-94057867D01*
X421747849Y-94070480D01*
X421725671Y-94080970D01*
X421702571Y-94089235D01*
X421678773Y-94095196D01*
X421654504Y-94098796D01*
X421630000Y-94100000D01*
X420380000Y-94100000D01*
X420355496Y-94098796D01*
X420331227Y-94095196D01*
X420307429Y-94089235D01*
X420284329Y-94080970D01*
X420262151Y-94070480D01*
X420241107Y-94057867D01*
X420221402Y-94043253D01*
X420203223Y-94026777D01*
X420186747Y-94008598D01*
X420172133Y-93988893D01*
X420159520Y-93967849D01*
X420149030Y-93945671D01*
X420140765Y-93922571D01*
X420134804Y-93898773D01*
X420131204Y-93874504D01*
X420130000Y-93850000D01*
X420130000Y-93100000D01*
X420131204Y-93075496D01*
X420134804Y-93051227D01*
X420140765Y-93027429D01*
X420149030Y-93004329D01*
X420159520Y-92982151D01*
X420172133Y-92961107D01*
X420186747Y-92941402D01*
X420203223Y-92923223D01*
X420221402Y-92906747D01*
X420241107Y-92892133D01*
X420262151Y-92879520D01*
X420284329Y-92869030D01*
X420307429Y-92860765D01*
X420331227Y-92854804D01*
X420355496Y-92851204D01*
X420380000Y-92850000D01*
X421630000Y-92850000D01*
X421654504Y-92851204D01*
G37*
G36*
X421654504Y-90051204D02*
G01*
X421678773Y-90054804D01*
X421702571Y-90060765D01*
X421725671Y-90069030D01*
X421747849Y-90079520D01*
X421768893Y-90092133D01*
X421788598Y-90106747D01*
X421806777Y-90123223D01*
X421823253Y-90141402D01*
X421837867Y-90161107D01*
X421850480Y-90182151D01*
X421860970Y-90204329D01*
X421869235Y-90227429D01*
X421875196Y-90251227D01*
X421878796Y-90275496D01*
X421880000Y-90300000D01*
X421880000Y-91050000D01*
X421878796Y-91074504D01*
X421875196Y-91098773D01*
X421869235Y-91122571D01*
X421860970Y-91145671D01*
X421850480Y-91167849D01*
X421837867Y-91188893D01*
X421823253Y-91208598D01*
X421806777Y-91226777D01*
X421788598Y-91243253D01*
X421768893Y-91257867D01*
X421747849Y-91270480D01*
X421725671Y-91280970D01*
X421702571Y-91289235D01*
X421678773Y-91295196D01*
X421654504Y-91298796D01*
X421630000Y-91300000D01*
X420380000Y-91300000D01*
X420355496Y-91298796D01*
X420331227Y-91295196D01*
X420307429Y-91289235D01*
X420284329Y-91280970D01*
X420262151Y-91270480D01*
X420241107Y-91257867D01*
X420221402Y-91243253D01*
X420203223Y-91226777D01*
X420186747Y-91208598D01*
X420172133Y-91188893D01*
X420159520Y-91167849D01*
X420149030Y-91145671D01*
X420140765Y-91122571D01*
X420134804Y-91098773D01*
X420131204Y-91074504D01*
X420130000Y-91050000D01*
X420130000Y-90300000D01*
X420131204Y-90275496D01*
X420134804Y-90251227D01*
X420140765Y-90227429D01*
X420149030Y-90204329D01*
X420159520Y-90182151D01*
X420172133Y-90161107D01*
X420186747Y-90141402D01*
X420203223Y-90123223D01*
X420221402Y-90106747D01*
X420241107Y-90092133D01*
X420262151Y-90079520D01*
X420284329Y-90069030D01*
X420307429Y-90060765D01*
X420331227Y-90054804D01*
X420355496Y-90051204D01*
X420380000Y-90050000D01*
X421630000Y-90050000D01*
X421654504Y-90051204D01*
G37*
G36*
X426099504Y-92851204D02*
G01*
X426123773Y-92854804D01*
X426147571Y-92860765D01*
X426170671Y-92869030D01*
X426192849Y-92879520D01*
X426213893Y-92892133D01*
X426233598Y-92906747D01*
X426251777Y-92923223D01*
X426268253Y-92941402D01*
X426282867Y-92961107D01*
X426295480Y-92982151D01*
X426305970Y-93004329D01*
X426314235Y-93027429D01*
X426320196Y-93051227D01*
X426323796Y-93075496D01*
X426325000Y-93100000D01*
X426325000Y-93850000D01*
X426323796Y-93874504D01*
X426320196Y-93898773D01*
X426314235Y-93922571D01*
X426305970Y-93945671D01*
X426295480Y-93967849D01*
X426282867Y-93988893D01*
X426268253Y-94008598D01*
X426251777Y-94026777D01*
X426233598Y-94043253D01*
X426213893Y-94057867D01*
X426192849Y-94070480D01*
X426170671Y-94080970D01*
X426147571Y-94089235D01*
X426123773Y-94095196D01*
X426099504Y-94098796D01*
X426075000Y-94100000D01*
X424825000Y-94100000D01*
X424800496Y-94098796D01*
X424776227Y-94095196D01*
X424752429Y-94089235D01*
X424729329Y-94080970D01*
X424707151Y-94070480D01*
X424686107Y-94057867D01*
X424666402Y-94043253D01*
X424648223Y-94026777D01*
X424631747Y-94008598D01*
X424617133Y-93988893D01*
X424604520Y-93967849D01*
X424594030Y-93945671D01*
X424585765Y-93922571D01*
X424579804Y-93898773D01*
X424576204Y-93874504D01*
X424575000Y-93850000D01*
X424575000Y-93100000D01*
X424576204Y-93075496D01*
X424579804Y-93051227D01*
X424585765Y-93027429D01*
X424594030Y-93004329D01*
X424604520Y-92982151D01*
X424617133Y-92961107D01*
X424631747Y-92941402D01*
X424648223Y-92923223D01*
X424666402Y-92906747D01*
X424686107Y-92892133D01*
X424707151Y-92879520D01*
X424729329Y-92869030D01*
X424752429Y-92860765D01*
X424776227Y-92854804D01*
X424800496Y-92851204D01*
X424825000Y-92850000D01*
X426075000Y-92850000D01*
X426099504Y-92851204D01*
G37*
G36*
X426099504Y-90051204D02*
G01*
X426123773Y-90054804D01*
X426147571Y-90060765D01*
X426170671Y-90069030D01*
X426192849Y-90079520D01*
X426213893Y-90092133D01*
X426233598Y-90106747D01*
X426251777Y-90123223D01*
X426268253Y-90141402D01*
X426282867Y-90161107D01*
X426295480Y-90182151D01*
X426305970Y-90204329D01*
X426314235Y-90227429D01*
X426320196Y-90251227D01*
X426323796Y-90275496D01*
X426325000Y-90300000D01*
X426325000Y-91050000D01*
X426323796Y-91074504D01*
X426320196Y-91098773D01*
X426314235Y-91122571D01*
X426305970Y-91145671D01*
X426295480Y-91167849D01*
X426282867Y-91188893D01*
X426268253Y-91208598D01*
X426251777Y-91226777D01*
X426233598Y-91243253D01*
X426213893Y-91257867D01*
X426192849Y-91270480D01*
X426170671Y-91280970D01*
X426147571Y-91289235D01*
X426123773Y-91295196D01*
X426099504Y-91298796D01*
X426075000Y-91300000D01*
X424825000Y-91300000D01*
X424800496Y-91298796D01*
X424776227Y-91295196D01*
X424752429Y-91289235D01*
X424729329Y-91280970D01*
X424707151Y-91270480D01*
X424686107Y-91257867D01*
X424666402Y-91243253D01*
X424648223Y-91226777D01*
X424631747Y-91208598D01*
X424617133Y-91188893D01*
X424604520Y-91167849D01*
X424594030Y-91145671D01*
X424585765Y-91122571D01*
X424579804Y-91098773D01*
X424576204Y-91074504D01*
X424575000Y-91050000D01*
X424575000Y-90300000D01*
X424576204Y-90275496D01*
X424579804Y-90251227D01*
X424585765Y-90227429D01*
X424594030Y-90204329D01*
X424604520Y-90182151D01*
X424617133Y-90161107D01*
X424631747Y-90141402D01*
X424648223Y-90123223D01*
X424666402Y-90106747D01*
X424686107Y-90092133D01*
X424707151Y-90079520D01*
X424729329Y-90069030D01*
X424752429Y-90060765D01*
X424776227Y-90054804D01*
X424800496Y-90051204D01*
X424825000Y-90050000D01*
X426075000Y-90050000D01*
X426099504Y-90051204D01*
G37*
G36*
X430544504Y-92851204D02*
G01*
X430568773Y-92854804D01*
X430592571Y-92860765D01*
X430615671Y-92869030D01*
X430637849Y-92879520D01*
X430658893Y-92892133D01*
X430678598Y-92906747D01*
X430696777Y-92923223D01*
X430713253Y-92941402D01*
X430727867Y-92961107D01*
X430740480Y-92982151D01*
X430750970Y-93004329D01*
X430759235Y-93027429D01*
X430765196Y-93051227D01*
X430768796Y-93075496D01*
X430770000Y-93100000D01*
X430770000Y-93850000D01*
X430768796Y-93874504D01*
X430765196Y-93898773D01*
X430759235Y-93922571D01*
X430750970Y-93945671D01*
X430740480Y-93967849D01*
X430727867Y-93988893D01*
X430713253Y-94008598D01*
X430696777Y-94026777D01*
X430678598Y-94043253D01*
X430658893Y-94057867D01*
X430637849Y-94070480D01*
X430615671Y-94080970D01*
X430592571Y-94089235D01*
X430568773Y-94095196D01*
X430544504Y-94098796D01*
X430520000Y-94100000D01*
X429270000Y-94100000D01*
X429245496Y-94098796D01*
X429221227Y-94095196D01*
X429197429Y-94089235D01*
X429174329Y-94080970D01*
X429152151Y-94070480D01*
X429131107Y-94057867D01*
X429111402Y-94043253D01*
X429093223Y-94026777D01*
X429076747Y-94008598D01*
X429062133Y-93988893D01*
X429049520Y-93967849D01*
X429039030Y-93945671D01*
X429030765Y-93922571D01*
X429024804Y-93898773D01*
X429021204Y-93874504D01*
X429020000Y-93850000D01*
X429020000Y-93100000D01*
X429021204Y-93075496D01*
X429024804Y-93051227D01*
X429030765Y-93027429D01*
X429039030Y-93004329D01*
X429049520Y-92982151D01*
X429062133Y-92961107D01*
X429076747Y-92941402D01*
X429093223Y-92923223D01*
X429111402Y-92906747D01*
X429131107Y-92892133D01*
X429152151Y-92879520D01*
X429174329Y-92869030D01*
X429197429Y-92860765D01*
X429221227Y-92854804D01*
X429245496Y-92851204D01*
X429270000Y-92850000D01*
X430520000Y-92850000D01*
X430544504Y-92851204D01*
G37*
G36*
X430544504Y-90051204D02*
G01*
X430568773Y-90054804D01*
X430592571Y-90060765D01*
X430615671Y-90069030D01*
X430637849Y-90079520D01*
X430658893Y-90092133D01*
X430678598Y-90106747D01*
X430696777Y-90123223D01*
X430713253Y-90141402D01*
X430727867Y-90161107D01*
X430740480Y-90182151D01*
X430750970Y-90204329D01*
X430759235Y-90227429D01*
X430765196Y-90251227D01*
X430768796Y-90275496D01*
X430770000Y-90300000D01*
X430770000Y-91050000D01*
X430768796Y-91074504D01*
X430765196Y-91098773D01*
X430759235Y-91122571D01*
X430750970Y-91145671D01*
X430740480Y-91167849D01*
X430727867Y-91188893D01*
X430713253Y-91208598D01*
X430696777Y-91226777D01*
X430678598Y-91243253D01*
X430658893Y-91257867D01*
X430637849Y-91270480D01*
X430615671Y-91280970D01*
X430592571Y-91289235D01*
X430568773Y-91295196D01*
X430544504Y-91298796D01*
X430520000Y-91300000D01*
X429270000Y-91300000D01*
X429245496Y-91298796D01*
X429221227Y-91295196D01*
X429197429Y-91289235D01*
X429174329Y-91280970D01*
X429152151Y-91270480D01*
X429131107Y-91257867D01*
X429111402Y-91243253D01*
X429093223Y-91226777D01*
X429076747Y-91208598D01*
X429062133Y-91188893D01*
X429049520Y-91167849D01*
X429039030Y-91145671D01*
X429030765Y-91122571D01*
X429024804Y-91098773D01*
X429021204Y-91074504D01*
X429020000Y-91050000D01*
X429020000Y-90300000D01*
X429021204Y-90275496D01*
X429024804Y-90251227D01*
X429030765Y-90227429D01*
X429039030Y-90204329D01*
X429049520Y-90182151D01*
X429062133Y-90161107D01*
X429076747Y-90141402D01*
X429093223Y-90123223D01*
X429111402Y-90106747D01*
X429131107Y-90092133D01*
X429152151Y-90079520D01*
X429174329Y-90069030D01*
X429197429Y-90060765D01*
X429221227Y-90054804D01*
X429245496Y-90051204D01*
X429270000Y-90050000D01*
X430520000Y-90050000D01*
X430544504Y-90051204D01*
G37*
G36*
X361964504Y-114441204D02*
G01*
X361988773Y-114444804D01*
X362012571Y-114450765D01*
X362035671Y-114459030D01*
X362057849Y-114469520D01*
X362078893Y-114482133D01*
X362098598Y-114496747D01*
X362116777Y-114513223D01*
X362133253Y-114531402D01*
X362147867Y-114551107D01*
X362160480Y-114572151D01*
X362170970Y-114594329D01*
X362179235Y-114617429D01*
X362185196Y-114641227D01*
X362188796Y-114665496D01*
X362190000Y-114690000D01*
X362190000Y-115440000D01*
X362188796Y-115464504D01*
X362185196Y-115488773D01*
X362179235Y-115512571D01*
X362170970Y-115535671D01*
X362160480Y-115557849D01*
X362147867Y-115578893D01*
X362133253Y-115598598D01*
X362116777Y-115616777D01*
X362098598Y-115633253D01*
X362078893Y-115647867D01*
X362057849Y-115660480D01*
X362035671Y-115670970D01*
X362012571Y-115679235D01*
X361988773Y-115685196D01*
X361964504Y-115688796D01*
X361940000Y-115690000D01*
X360690000Y-115690000D01*
X360665496Y-115688796D01*
X360641227Y-115685196D01*
X360617429Y-115679235D01*
X360594329Y-115670970D01*
X360572151Y-115660480D01*
X360551107Y-115647867D01*
X360531402Y-115633253D01*
X360513223Y-115616777D01*
X360496747Y-115598598D01*
X360482133Y-115578893D01*
X360469520Y-115557849D01*
X360459030Y-115535671D01*
X360450765Y-115512571D01*
X360444804Y-115488773D01*
X360441204Y-115464504D01*
X360440000Y-115440000D01*
X360440000Y-114690000D01*
X360441204Y-114665496D01*
X360444804Y-114641227D01*
X360450765Y-114617429D01*
X360459030Y-114594329D01*
X360469520Y-114572151D01*
X360482133Y-114551107D01*
X360496747Y-114531402D01*
X360513223Y-114513223D01*
X360531402Y-114496747D01*
X360551107Y-114482133D01*
X360572151Y-114469520D01*
X360594329Y-114459030D01*
X360617429Y-114450765D01*
X360641227Y-114444804D01*
X360665496Y-114441204D01*
X360690000Y-114440000D01*
X361940000Y-114440000D01*
X361964504Y-114441204D01*
G37*
G36*
X361964504Y-111641204D02*
G01*
X361988773Y-111644804D01*
X362012571Y-111650765D01*
X362035671Y-111659030D01*
X362057849Y-111669520D01*
X362078893Y-111682133D01*
X362098598Y-111696747D01*
X362116777Y-111713223D01*
X362133253Y-111731402D01*
X362147867Y-111751107D01*
X362160480Y-111772151D01*
X362170970Y-111794329D01*
X362179235Y-111817429D01*
X362185196Y-111841227D01*
X362188796Y-111865496D01*
X362190000Y-111890000D01*
X362190000Y-112640000D01*
X362188796Y-112664504D01*
X362185196Y-112688773D01*
X362179235Y-112712571D01*
X362170970Y-112735671D01*
X362160480Y-112757849D01*
X362147867Y-112778893D01*
X362133253Y-112798598D01*
X362116777Y-112816777D01*
X362098598Y-112833253D01*
X362078893Y-112847867D01*
X362057849Y-112860480D01*
X362035671Y-112870970D01*
X362012571Y-112879235D01*
X361988773Y-112885196D01*
X361964504Y-112888796D01*
X361940000Y-112890000D01*
X360690000Y-112890000D01*
X360665496Y-112888796D01*
X360641227Y-112885196D01*
X360617429Y-112879235D01*
X360594329Y-112870970D01*
X360572151Y-112860480D01*
X360551107Y-112847867D01*
X360531402Y-112833253D01*
X360513223Y-112816777D01*
X360496747Y-112798598D01*
X360482133Y-112778893D01*
X360469520Y-112757849D01*
X360459030Y-112735671D01*
X360450765Y-112712571D01*
X360444804Y-112688773D01*
X360441204Y-112664504D01*
X360440000Y-112640000D01*
X360440000Y-111890000D01*
X360441204Y-111865496D01*
X360444804Y-111841227D01*
X360450765Y-111817429D01*
X360459030Y-111794329D01*
X360469520Y-111772151D01*
X360482133Y-111751107D01*
X360496747Y-111731402D01*
X360513223Y-111713223D01*
X360531402Y-111696747D01*
X360551107Y-111682133D01*
X360572151Y-111669520D01*
X360594329Y-111659030D01*
X360617429Y-111650765D01*
X360641227Y-111644804D01*
X360665496Y-111641204D01*
X360690000Y-111640000D01*
X361940000Y-111640000D01*
X361964504Y-111641204D01*
G37*
G36*
X361964504Y-104281204D02*
G01*
X361988773Y-104284804D01*
X362012571Y-104290765D01*
X362035671Y-104299030D01*
X362057849Y-104309520D01*
X362078893Y-104322133D01*
X362098598Y-104336747D01*
X362116777Y-104353223D01*
X362133253Y-104371402D01*
X362147867Y-104391107D01*
X362160480Y-104412151D01*
X362170970Y-104434329D01*
X362179235Y-104457429D01*
X362185196Y-104481227D01*
X362188796Y-104505496D01*
X362190000Y-104530000D01*
X362190000Y-105280000D01*
X362188796Y-105304504D01*
X362185196Y-105328773D01*
X362179235Y-105352571D01*
X362170970Y-105375671D01*
X362160480Y-105397849D01*
X362147867Y-105418893D01*
X362133253Y-105438598D01*
X362116777Y-105456777D01*
X362098598Y-105473253D01*
X362078893Y-105487867D01*
X362057849Y-105500480D01*
X362035671Y-105510970D01*
X362012571Y-105519235D01*
X361988773Y-105525196D01*
X361964504Y-105528796D01*
X361940000Y-105530000D01*
X360690000Y-105530000D01*
X360665496Y-105528796D01*
X360641227Y-105525196D01*
X360617429Y-105519235D01*
X360594329Y-105510970D01*
X360572151Y-105500480D01*
X360551107Y-105487867D01*
X360531402Y-105473253D01*
X360513223Y-105456777D01*
X360496747Y-105438598D01*
X360482133Y-105418893D01*
X360469520Y-105397849D01*
X360459030Y-105375671D01*
X360450765Y-105352571D01*
X360444804Y-105328773D01*
X360441204Y-105304504D01*
X360440000Y-105280000D01*
X360440000Y-104530000D01*
X360441204Y-104505496D01*
X360444804Y-104481227D01*
X360450765Y-104457429D01*
X360459030Y-104434329D01*
X360469520Y-104412151D01*
X360482133Y-104391107D01*
X360496747Y-104371402D01*
X360513223Y-104353223D01*
X360531402Y-104336747D01*
X360551107Y-104322133D01*
X360572151Y-104309520D01*
X360594329Y-104299030D01*
X360617429Y-104290765D01*
X360641227Y-104284804D01*
X360665496Y-104281204D01*
X360690000Y-104280000D01*
X361940000Y-104280000D01*
X361964504Y-104281204D01*
G37*
G36*
X361964504Y-101481204D02*
G01*
X361988773Y-101484804D01*
X362012571Y-101490765D01*
X362035671Y-101499030D01*
X362057849Y-101509520D01*
X362078893Y-101522133D01*
X362098598Y-101536747D01*
X362116777Y-101553223D01*
X362133253Y-101571402D01*
X362147867Y-101591107D01*
X362160480Y-101612151D01*
X362170970Y-101634329D01*
X362179235Y-101657429D01*
X362185196Y-101681227D01*
X362188796Y-101705496D01*
X362190000Y-101730000D01*
X362190000Y-102480000D01*
X362188796Y-102504504D01*
X362185196Y-102528773D01*
X362179235Y-102552571D01*
X362170970Y-102575671D01*
X362160480Y-102597849D01*
X362147867Y-102618893D01*
X362133253Y-102638598D01*
X362116777Y-102656777D01*
X362098598Y-102673253D01*
X362078893Y-102687867D01*
X362057849Y-102700480D01*
X362035671Y-102710970D01*
X362012571Y-102719235D01*
X361988773Y-102725196D01*
X361964504Y-102728796D01*
X361940000Y-102730000D01*
X360690000Y-102730000D01*
X360665496Y-102728796D01*
X360641227Y-102725196D01*
X360617429Y-102719235D01*
X360594329Y-102710970D01*
X360572151Y-102700480D01*
X360551107Y-102687867D01*
X360531402Y-102673253D01*
X360513223Y-102656777D01*
X360496747Y-102638598D01*
X360482133Y-102618893D01*
X360469520Y-102597849D01*
X360459030Y-102575671D01*
X360450765Y-102552571D01*
X360444804Y-102528773D01*
X360441204Y-102504504D01*
X360440000Y-102480000D01*
X360440000Y-101730000D01*
X360441204Y-101705496D01*
X360444804Y-101681227D01*
X360450765Y-101657429D01*
X360459030Y-101634329D01*
X360469520Y-101612151D01*
X360482133Y-101591107D01*
X360496747Y-101571402D01*
X360513223Y-101553223D01*
X360531402Y-101536747D01*
X360551107Y-101522133D01*
X360572151Y-101509520D01*
X360594329Y-101499030D01*
X360617429Y-101490765D01*
X360641227Y-101484804D01*
X360665496Y-101481204D01*
X360690000Y-101480000D01*
X361940000Y-101480000D01*
X361964504Y-101481204D01*
G37*
G36*
X368314504Y-109361204D02*
G01*
X368338773Y-109364804D01*
X368362571Y-109370765D01*
X368385671Y-109379030D01*
X368407849Y-109389520D01*
X368428893Y-109402133D01*
X368448598Y-109416747D01*
X368466777Y-109433223D01*
X368483253Y-109451402D01*
X368497867Y-109471107D01*
X368510480Y-109492151D01*
X368520970Y-109514329D01*
X368529235Y-109537429D01*
X368535196Y-109561227D01*
X368538796Y-109585496D01*
X368540000Y-109610000D01*
X368540000Y-110360000D01*
X368538796Y-110384504D01*
X368535196Y-110408773D01*
X368529235Y-110432571D01*
X368520970Y-110455671D01*
X368510480Y-110477849D01*
X368497867Y-110498893D01*
X368483253Y-110518598D01*
X368466777Y-110536777D01*
X368448598Y-110553253D01*
X368428893Y-110567867D01*
X368407849Y-110580480D01*
X368385671Y-110590970D01*
X368362571Y-110599235D01*
X368338773Y-110605196D01*
X368314504Y-110608796D01*
X368290000Y-110610000D01*
X367040000Y-110610000D01*
X367015496Y-110608796D01*
X366991227Y-110605196D01*
X366967429Y-110599235D01*
X366944329Y-110590970D01*
X366922151Y-110580480D01*
X366901107Y-110567867D01*
X366881402Y-110553253D01*
X366863223Y-110536777D01*
X366846747Y-110518598D01*
X366832133Y-110498893D01*
X366819520Y-110477849D01*
X366809030Y-110455671D01*
X366800765Y-110432571D01*
X366794804Y-110408773D01*
X366791204Y-110384504D01*
X366790000Y-110360000D01*
X366790000Y-109610000D01*
X366791204Y-109585496D01*
X366794804Y-109561227D01*
X366800765Y-109537429D01*
X366809030Y-109514329D01*
X366819520Y-109492151D01*
X366832133Y-109471107D01*
X366846747Y-109451402D01*
X366863223Y-109433223D01*
X366881402Y-109416747D01*
X366901107Y-109402133D01*
X366922151Y-109389520D01*
X366944329Y-109379030D01*
X366967429Y-109370765D01*
X366991227Y-109364804D01*
X367015496Y-109361204D01*
X367040000Y-109360000D01*
X368290000Y-109360000D01*
X368314504Y-109361204D01*
G37*
G36*
X368314504Y-106561204D02*
G01*
X368338773Y-106564804D01*
X368362571Y-106570765D01*
X368385671Y-106579030D01*
X368407849Y-106589520D01*
X368428893Y-106602133D01*
X368448598Y-106616747D01*
X368466777Y-106633223D01*
X368483253Y-106651402D01*
X368497867Y-106671107D01*
X368510480Y-106692151D01*
X368520970Y-106714329D01*
X368529235Y-106737429D01*
X368535196Y-106761227D01*
X368538796Y-106785496D01*
X368540000Y-106810000D01*
X368540000Y-107560000D01*
X368538796Y-107584504D01*
X368535196Y-107608773D01*
X368529235Y-107632571D01*
X368520970Y-107655671D01*
X368510480Y-107677849D01*
X368497867Y-107698893D01*
X368483253Y-107718598D01*
X368466777Y-107736777D01*
X368448598Y-107753253D01*
X368428893Y-107767867D01*
X368407849Y-107780480D01*
X368385671Y-107790970D01*
X368362571Y-107799235D01*
X368338773Y-107805196D01*
X368314504Y-107808796D01*
X368290000Y-107810000D01*
X367040000Y-107810000D01*
X367015496Y-107808796D01*
X366991227Y-107805196D01*
X366967429Y-107799235D01*
X366944329Y-107790970D01*
X366922151Y-107780480D01*
X366901107Y-107767867D01*
X366881402Y-107753253D01*
X366863223Y-107736777D01*
X366846747Y-107718598D01*
X366832133Y-107698893D01*
X366819520Y-107677849D01*
X366809030Y-107655671D01*
X366800765Y-107632571D01*
X366794804Y-107608773D01*
X366791204Y-107584504D01*
X366790000Y-107560000D01*
X366790000Y-106810000D01*
X366791204Y-106785496D01*
X366794804Y-106761227D01*
X366800765Y-106737429D01*
X366809030Y-106714329D01*
X366819520Y-106692151D01*
X366832133Y-106671107D01*
X366846747Y-106651402D01*
X366863223Y-106633223D01*
X366881402Y-106616747D01*
X366901107Y-106602133D01*
X366922151Y-106589520D01*
X366944329Y-106579030D01*
X366967429Y-106570765D01*
X366991227Y-106564804D01*
X367015496Y-106561204D01*
X367040000Y-106560000D01*
X368290000Y-106560000D01*
X368314504Y-106561204D01*
G37*
G36*
X372759504Y-109361204D02*
G01*
X372783773Y-109364804D01*
X372807571Y-109370765D01*
X372830671Y-109379030D01*
X372852849Y-109389520D01*
X372873893Y-109402133D01*
X372893598Y-109416747D01*
X372911777Y-109433223D01*
X372928253Y-109451402D01*
X372942867Y-109471107D01*
X372955480Y-109492151D01*
X372965970Y-109514329D01*
X372974235Y-109537429D01*
X372980196Y-109561227D01*
X372983796Y-109585496D01*
X372985000Y-109610000D01*
X372985000Y-110360000D01*
X372983796Y-110384504D01*
X372980196Y-110408773D01*
X372974235Y-110432571D01*
X372965970Y-110455671D01*
X372955480Y-110477849D01*
X372942867Y-110498893D01*
X372928253Y-110518598D01*
X372911777Y-110536777D01*
X372893598Y-110553253D01*
X372873893Y-110567867D01*
X372852849Y-110580480D01*
X372830671Y-110590970D01*
X372807571Y-110599235D01*
X372783773Y-110605196D01*
X372759504Y-110608796D01*
X372735000Y-110610000D01*
X371485000Y-110610000D01*
X371460496Y-110608796D01*
X371436227Y-110605196D01*
X371412429Y-110599235D01*
X371389329Y-110590970D01*
X371367151Y-110580480D01*
X371346107Y-110567867D01*
X371326402Y-110553253D01*
X371308223Y-110536777D01*
X371291747Y-110518598D01*
X371277133Y-110498893D01*
X371264520Y-110477849D01*
X371254030Y-110455671D01*
X371245765Y-110432571D01*
X371239804Y-110408773D01*
X371236204Y-110384504D01*
X371235000Y-110360000D01*
X371235000Y-109610000D01*
X371236204Y-109585496D01*
X371239804Y-109561227D01*
X371245765Y-109537429D01*
X371254030Y-109514329D01*
X371264520Y-109492151D01*
X371277133Y-109471107D01*
X371291747Y-109451402D01*
X371308223Y-109433223D01*
X371326402Y-109416747D01*
X371346107Y-109402133D01*
X371367151Y-109389520D01*
X371389329Y-109379030D01*
X371412429Y-109370765D01*
X371436227Y-109364804D01*
X371460496Y-109361204D01*
X371485000Y-109360000D01*
X372735000Y-109360000D01*
X372759504Y-109361204D01*
G37*
G36*
X372759504Y-106561204D02*
G01*
X372783773Y-106564804D01*
X372807571Y-106570765D01*
X372830671Y-106579030D01*
X372852849Y-106589520D01*
X372873893Y-106602133D01*
X372893598Y-106616747D01*
X372911777Y-106633223D01*
X372928253Y-106651402D01*
X372942867Y-106671107D01*
X372955480Y-106692151D01*
X372965970Y-106714329D01*
X372974235Y-106737429D01*
X372980196Y-106761227D01*
X372983796Y-106785496D01*
X372985000Y-106810000D01*
X372985000Y-107560000D01*
X372983796Y-107584504D01*
X372980196Y-107608773D01*
X372974235Y-107632571D01*
X372965970Y-107655671D01*
X372955480Y-107677849D01*
X372942867Y-107698893D01*
X372928253Y-107718598D01*
X372911777Y-107736777D01*
X372893598Y-107753253D01*
X372873893Y-107767867D01*
X372852849Y-107780480D01*
X372830671Y-107790970D01*
X372807571Y-107799235D01*
X372783773Y-107805196D01*
X372759504Y-107808796D01*
X372735000Y-107810000D01*
X371485000Y-107810000D01*
X371460496Y-107808796D01*
X371436227Y-107805196D01*
X371412429Y-107799235D01*
X371389329Y-107790970D01*
X371367151Y-107780480D01*
X371346107Y-107767867D01*
X371326402Y-107753253D01*
X371308223Y-107736777D01*
X371291747Y-107718598D01*
X371277133Y-107698893D01*
X371264520Y-107677849D01*
X371254030Y-107655671D01*
X371245765Y-107632571D01*
X371239804Y-107608773D01*
X371236204Y-107584504D01*
X371235000Y-107560000D01*
X371235000Y-106810000D01*
X371236204Y-106785496D01*
X371239804Y-106761227D01*
X371245765Y-106737429D01*
X371254030Y-106714329D01*
X371264520Y-106692151D01*
X371277133Y-106671107D01*
X371291747Y-106651402D01*
X371308223Y-106633223D01*
X371326402Y-106616747D01*
X371346107Y-106602133D01*
X371367151Y-106589520D01*
X371389329Y-106579030D01*
X371412429Y-106570765D01*
X371436227Y-106564804D01*
X371460496Y-106561204D01*
X371485000Y-106560000D01*
X372735000Y-106560000D01*
X372759504Y-106561204D01*
G37*
G36*
X377204504Y-109361204D02*
G01*
X377228773Y-109364804D01*
X377252571Y-109370765D01*
X377275671Y-109379030D01*
X377297849Y-109389520D01*
X377318893Y-109402133D01*
X377338598Y-109416747D01*
X377356777Y-109433223D01*
X377373253Y-109451402D01*
X377387867Y-109471107D01*
X377400480Y-109492151D01*
X377410970Y-109514329D01*
X377419235Y-109537429D01*
X377425196Y-109561227D01*
X377428796Y-109585496D01*
X377430000Y-109610000D01*
X377430000Y-110360000D01*
X377428796Y-110384504D01*
X377425196Y-110408773D01*
X377419235Y-110432571D01*
X377410970Y-110455671D01*
X377400480Y-110477849D01*
X377387867Y-110498893D01*
X377373253Y-110518598D01*
X377356777Y-110536777D01*
X377338598Y-110553253D01*
X377318893Y-110567867D01*
X377297849Y-110580480D01*
X377275671Y-110590970D01*
X377252571Y-110599235D01*
X377228773Y-110605196D01*
X377204504Y-110608796D01*
X377180000Y-110610000D01*
X375930000Y-110610000D01*
X375905496Y-110608796D01*
X375881227Y-110605196D01*
X375857429Y-110599235D01*
X375834329Y-110590970D01*
X375812151Y-110580480D01*
X375791107Y-110567867D01*
X375771402Y-110553253D01*
X375753223Y-110536777D01*
X375736747Y-110518598D01*
X375722133Y-110498893D01*
X375709520Y-110477849D01*
X375699030Y-110455671D01*
X375690765Y-110432571D01*
X375684804Y-110408773D01*
X375681204Y-110384504D01*
X375680000Y-110360000D01*
X375680000Y-109610000D01*
X375681204Y-109585496D01*
X375684804Y-109561227D01*
X375690765Y-109537429D01*
X375699030Y-109514329D01*
X375709520Y-109492151D01*
X375722133Y-109471107D01*
X375736747Y-109451402D01*
X375753223Y-109433223D01*
X375771402Y-109416747D01*
X375791107Y-109402133D01*
X375812151Y-109389520D01*
X375834329Y-109379030D01*
X375857429Y-109370765D01*
X375881227Y-109364804D01*
X375905496Y-109361204D01*
X375930000Y-109360000D01*
X377180000Y-109360000D01*
X377204504Y-109361204D01*
G37*
G36*
X377204504Y-106561204D02*
G01*
X377228773Y-106564804D01*
X377252571Y-106570765D01*
X377275671Y-106579030D01*
X377297849Y-106589520D01*
X377318893Y-106602133D01*
X377338598Y-106616747D01*
X377356777Y-106633223D01*
X377373253Y-106651402D01*
X377387867Y-106671107D01*
X377400480Y-106692151D01*
X377410970Y-106714329D01*
X377419235Y-106737429D01*
X377425196Y-106761227D01*
X377428796Y-106785496D01*
X377430000Y-106810000D01*
X377430000Y-107560000D01*
X377428796Y-107584504D01*
X377425196Y-107608773D01*
X377419235Y-107632571D01*
X377410970Y-107655671D01*
X377400480Y-107677849D01*
X377387867Y-107698893D01*
X377373253Y-107718598D01*
X377356777Y-107736777D01*
X377338598Y-107753253D01*
X377318893Y-107767867D01*
X377297849Y-107780480D01*
X377275671Y-107790970D01*
X377252571Y-107799235D01*
X377228773Y-107805196D01*
X377204504Y-107808796D01*
X377180000Y-107810000D01*
X375930000Y-107810000D01*
X375905496Y-107808796D01*
X375881227Y-107805196D01*
X375857429Y-107799235D01*
X375834329Y-107790970D01*
X375812151Y-107780480D01*
X375791107Y-107767867D01*
X375771402Y-107753253D01*
X375753223Y-107736777D01*
X375736747Y-107718598D01*
X375722133Y-107698893D01*
X375709520Y-107677849D01*
X375699030Y-107655671D01*
X375690765Y-107632571D01*
X375684804Y-107608773D01*
X375681204Y-107584504D01*
X375680000Y-107560000D01*
X375680000Y-106810000D01*
X375681204Y-106785496D01*
X375684804Y-106761227D01*
X375690765Y-106737429D01*
X375699030Y-106714329D01*
X375709520Y-106692151D01*
X375722133Y-106671107D01*
X375736747Y-106651402D01*
X375753223Y-106633223D01*
X375771402Y-106616747D01*
X375791107Y-106602133D01*
X375812151Y-106589520D01*
X375834329Y-106579030D01*
X375857429Y-106570765D01*
X375881227Y-106564804D01*
X375905496Y-106561204D01*
X375930000Y-106560000D01*
X377180000Y-106560000D01*
X377204504Y-106561204D01*
G37*
G36*
X381649504Y-109361204D02*
G01*
X381673773Y-109364804D01*
X381697571Y-109370765D01*
X381720671Y-109379030D01*
X381742849Y-109389520D01*
X381763893Y-109402133D01*
X381783598Y-109416747D01*
X381801777Y-109433223D01*
X381818253Y-109451402D01*
X381832867Y-109471107D01*
X381845480Y-109492151D01*
X381855970Y-109514329D01*
X381864235Y-109537429D01*
X381870196Y-109561227D01*
X381873796Y-109585496D01*
X381875000Y-109610000D01*
X381875000Y-110360000D01*
X381873796Y-110384504D01*
X381870196Y-110408773D01*
X381864235Y-110432571D01*
X381855970Y-110455671D01*
X381845480Y-110477849D01*
X381832867Y-110498893D01*
X381818253Y-110518598D01*
X381801777Y-110536777D01*
X381783598Y-110553253D01*
X381763893Y-110567867D01*
X381742849Y-110580480D01*
X381720671Y-110590970D01*
X381697571Y-110599235D01*
X381673773Y-110605196D01*
X381649504Y-110608796D01*
X381625000Y-110610000D01*
X380375000Y-110610000D01*
X380350496Y-110608796D01*
X380326227Y-110605196D01*
X380302429Y-110599235D01*
X380279329Y-110590970D01*
X380257151Y-110580480D01*
X380236107Y-110567867D01*
X380216402Y-110553253D01*
X380198223Y-110536777D01*
X380181747Y-110518598D01*
X380167133Y-110498893D01*
X380154520Y-110477849D01*
X380144030Y-110455671D01*
X380135765Y-110432571D01*
X380129804Y-110408773D01*
X380126204Y-110384504D01*
X380125000Y-110360000D01*
X380125000Y-109610000D01*
X380126204Y-109585496D01*
X380129804Y-109561227D01*
X380135765Y-109537429D01*
X380144030Y-109514329D01*
X380154520Y-109492151D01*
X380167133Y-109471107D01*
X380181747Y-109451402D01*
X380198223Y-109433223D01*
X380216402Y-109416747D01*
X380236107Y-109402133D01*
X380257151Y-109389520D01*
X380279329Y-109379030D01*
X380302429Y-109370765D01*
X380326227Y-109364804D01*
X380350496Y-109361204D01*
X380375000Y-109360000D01*
X381625000Y-109360000D01*
X381649504Y-109361204D01*
G37*
G36*
X381649504Y-106561204D02*
G01*
X381673773Y-106564804D01*
X381697571Y-106570765D01*
X381720671Y-106579030D01*
X381742849Y-106589520D01*
X381763893Y-106602133D01*
X381783598Y-106616747D01*
X381801777Y-106633223D01*
X381818253Y-106651402D01*
X381832867Y-106671107D01*
X381845480Y-106692151D01*
X381855970Y-106714329D01*
X381864235Y-106737429D01*
X381870196Y-106761227D01*
X381873796Y-106785496D01*
X381875000Y-106810000D01*
X381875000Y-107560000D01*
X381873796Y-107584504D01*
X381870196Y-107608773D01*
X381864235Y-107632571D01*
X381855970Y-107655671D01*
X381845480Y-107677849D01*
X381832867Y-107698893D01*
X381818253Y-107718598D01*
X381801777Y-107736777D01*
X381783598Y-107753253D01*
X381763893Y-107767867D01*
X381742849Y-107780480D01*
X381720671Y-107790970D01*
X381697571Y-107799235D01*
X381673773Y-107805196D01*
X381649504Y-107808796D01*
X381625000Y-107810000D01*
X380375000Y-107810000D01*
X380350496Y-107808796D01*
X380326227Y-107805196D01*
X380302429Y-107799235D01*
X380279329Y-107790970D01*
X380257151Y-107780480D01*
X380236107Y-107767867D01*
X380216402Y-107753253D01*
X380198223Y-107736777D01*
X380181747Y-107718598D01*
X380167133Y-107698893D01*
X380154520Y-107677849D01*
X380144030Y-107655671D01*
X380135765Y-107632571D01*
X380129804Y-107608773D01*
X380126204Y-107584504D01*
X380125000Y-107560000D01*
X380125000Y-106810000D01*
X380126204Y-106785496D01*
X380129804Y-106761227D01*
X380135765Y-106737429D01*
X380144030Y-106714329D01*
X380154520Y-106692151D01*
X380167133Y-106671107D01*
X380181747Y-106651402D01*
X380198223Y-106633223D01*
X380216402Y-106616747D01*
X380236107Y-106602133D01*
X380257151Y-106589520D01*
X380279329Y-106579030D01*
X380302429Y-106570765D01*
X380326227Y-106564804D01*
X380350496Y-106561204D01*
X380375000Y-106560000D01*
X381625000Y-106560000D01*
X381649504Y-106561204D01*
G37*
G36*
X386094504Y-109361204D02*
G01*
X386118773Y-109364804D01*
X386142571Y-109370765D01*
X386165671Y-109379030D01*
X386187849Y-109389520D01*
X386208893Y-109402133D01*
X386228598Y-109416747D01*
X386246777Y-109433223D01*
X386263253Y-109451402D01*
X386277867Y-109471107D01*
X386290480Y-109492151D01*
X386300970Y-109514329D01*
X386309235Y-109537429D01*
X386315196Y-109561227D01*
X386318796Y-109585496D01*
X386320000Y-109610000D01*
X386320000Y-110360000D01*
X386318796Y-110384504D01*
X386315196Y-110408773D01*
X386309235Y-110432571D01*
X386300970Y-110455671D01*
X386290480Y-110477849D01*
X386277867Y-110498893D01*
X386263253Y-110518598D01*
X386246777Y-110536777D01*
X386228598Y-110553253D01*
X386208893Y-110567867D01*
X386187849Y-110580480D01*
X386165671Y-110590970D01*
X386142571Y-110599235D01*
X386118773Y-110605196D01*
X386094504Y-110608796D01*
X386070000Y-110610000D01*
X384820000Y-110610000D01*
X384795496Y-110608796D01*
X384771227Y-110605196D01*
X384747429Y-110599235D01*
X384724329Y-110590970D01*
X384702151Y-110580480D01*
X384681107Y-110567867D01*
X384661402Y-110553253D01*
X384643223Y-110536777D01*
X384626747Y-110518598D01*
X384612133Y-110498893D01*
X384599520Y-110477849D01*
X384589030Y-110455671D01*
X384580765Y-110432571D01*
X384574804Y-110408773D01*
X384571204Y-110384504D01*
X384570000Y-110360000D01*
X384570000Y-109610000D01*
X384571204Y-109585496D01*
X384574804Y-109561227D01*
X384580765Y-109537429D01*
X384589030Y-109514329D01*
X384599520Y-109492151D01*
X384612133Y-109471107D01*
X384626747Y-109451402D01*
X384643223Y-109433223D01*
X384661402Y-109416747D01*
X384681107Y-109402133D01*
X384702151Y-109389520D01*
X384724329Y-109379030D01*
X384747429Y-109370765D01*
X384771227Y-109364804D01*
X384795496Y-109361204D01*
X384820000Y-109360000D01*
X386070000Y-109360000D01*
X386094504Y-109361204D01*
G37*
G36*
X386094504Y-106561204D02*
G01*
X386118773Y-106564804D01*
X386142571Y-106570765D01*
X386165671Y-106579030D01*
X386187849Y-106589520D01*
X386208893Y-106602133D01*
X386228598Y-106616747D01*
X386246777Y-106633223D01*
X386263253Y-106651402D01*
X386277867Y-106671107D01*
X386290480Y-106692151D01*
X386300970Y-106714329D01*
X386309235Y-106737429D01*
X386315196Y-106761227D01*
X386318796Y-106785496D01*
X386320000Y-106810000D01*
X386320000Y-107560000D01*
X386318796Y-107584504D01*
X386315196Y-107608773D01*
X386309235Y-107632571D01*
X386300970Y-107655671D01*
X386290480Y-107677849D01*
X386277867Y-107698893D01*
X386263253Y-107718598D01*
X386246777Y-107736777D01*
X386228598Y-107753253D01*
X386208893Y-107767867D01*
X386187849Y-107780480D01*
X386165671Y-107790970D01*
X386142571Y-107799235D01*
X386118773Y-107805196D01*
X386094504Y-107808796D01*
X386070000Y-107810000D01*
X384820000Y-107810000D01*
X384795496Y-107808796D01*
X384771227Y-107805196D01*
X384747429Y-107799235D01*
X384724329Y-107790970D01*
X384702151Y-107780480D01*
X384681107Y-107767867D01*
X384661402Y-107753253D01*
X384643223Y-107736777D01*
X384626747Y-107718598D01*
X384612133Y-107698893D01*
X384599520Y-107677849D01*
X384589030Y-107655671D01*
X384580765Y-107632571D01*
X384574804Y-107608773D01*
X384571204Y-107584504D01*
X384570000Y-107560000D01*
X384570000Y-106810000D01*
X384571204Y-106785496D01*
X384574804Y-106761227D01*
X384580765Y-106737429D01*
X384589030Y-106714329D01*
X384599520Y-106692151D01*
X384612133Y-106671107D01*
X384626747Y-106651402D01*
X384643223Y-106633223D01*
X384661402Y-106616747D01*
X384681107Y-106602133D01*
X384702151Y-106589520D01*
X384724329Y-106579030D01*
X384747429Y-106570765D01*
X384771227Y-106564804D01*
X384795496Y-106561204D01*
X384820000Y-106560000D01*
X386070000Y-106560000D01*
X386094504Y-106561204D01*
G37*
G36*
X390539504Y-109361204D02*
G01*
X390563773Y-109364804D01*
X390587571Y-109370765D01*
X390610671Y-109379030D01*
X390632849Y-109389520D01*
X390653893Y-109402133D01*
X390673598Y-109416747D01*
X390691777Y-109433223D01*
X390708253Y-109451402D01*
X390722867Y-109471107D01*
X390735480Y-109492151D01*
X390745970Y-109514329D01*
X390754235Y-109537429D01*
X390760196Y-109561227D01*
X390763796Y-109585496D01*
X390765000Y-109610000D01*
X390765000Y-110360000D01*
X390763796Y-110384504D01*
X390760196Y-110408773D01*
X390754235Y-110432571D01*
X390745970Y-110455671D01*
X390735480Y-110477849D01*
X390722867Y-110498893D01*
X390708253Y-110518598D01*
X390691777Y-110536777D01*
X390673598Y-110553253D01*
X390653893Y-110567867D01*
X390632849Y-110580480D01*
X390610671Y-110590970D01*
X390587571Y-110599235D01*
X390563773Y-110605196D01*
X390539504Y-110608796D01*
X390515000Y-110610000D01*
X389265000Y-110610000D01*
X389240496Y-110608796D01*
X389216227Y-110605196D01*
X389192429Y-110599235D01*
X389169329Y-110590970D01*
X389147151Y-110580480D01*
X389126107Y-110567867D01*
X389106402Y-110553253D01*
X389088223Y-110536777D01*
X389071747Y-110518598D01*
X389057133Y-110498893D01*
X389044520Y-110477849D01*
X389034030Y-110455671D01*
X389025765Y-110432571D01*
X389019804Y-110408773D01*
X389016204Y-110384504D01*
X389015000Y-110360000D01*
X389015000Y-109610000D01*
X389016204Y-109585496D01*
X389019804Y-109561227D01*
X389025765Y-109537429D01*
X389034030Y-109514329D01*
X389044520Y-109492151D01*
X389057133Y-109471107D01*
X389071747Y-109451402D01*
X389088223Y-109433223D01*
X389106402Y-109416747D01*
X389126107Y-109402133D01*
X389147151Y-109389520D01*
X389169329Y-109379030D01*
X389192429Y-109370765D01*
X389216227Y-109364804D01*
X389240496Y-109361204D01*
X389265000Y-109360000D01*
X390515000Y-109360000D01*
X390539504Y-109361204D01*
G37*
G36*
X390539504Y-106561204D02*
G01*
X390563773Y-106564804D01*
X390587571Y-106570765D01*
X390610671Y-106579030D01*
X390632849Y-106589520D01*
X390653893Y-106602133D01*
X390673598Y-106616747D01*
X390691777Y-106633223D01*
X390708253Y-106651402D01*
X390722867Y-106671107D01*
X390735480Y-106692151D01*
X390745970Y-106714329D01*
X390754235Y-106737429D01*
X390760196Y-106761227D01*
X390763796Y-106785496D01*
X390765000Y-106810000D01*
X390765000Y-107560000D01*
X390763796Y-107584504D01*
X390760196Y-107608773D01*
X390754235Y-107632571D01*
X390745970Y-107655671D01*
X390735480Y-107677849D01*
X390722867Y-107698893D01*
X390708253Y-107718598D01*
X390691777Y-107736777D01*
X390673598Y-107753253D01*
X390653893Y-107767867D01*
X390632849Y-107780480D01*
X390610671Y-107790970D01*
X390587571Y-107799235D01*
X390563773Y-107805196D01*
X390539504Y-107808796D01*
X390515000Y-107810000D01*
X389265000Y-107810000D01*
X389240496Y-107808796D01*
X389216227Y-107805196D01*
X389192429Y-107799235D01*
X389169329Y-107790970D01*
X389147151Y-107780480D01*
X389126107Y-107767867D01*
X389106402Y-107753253D01*
X389088223Y-107736777D01*
X389071747Y-107718598D01*
X389057133Y-107698893D01*
X389044520Y-107677849D01*
X389034030Y-107655671D01*
X389025765Y-107632571D01*
X389019804Y-107608773D01*
X389016204Y-107584504D01*
X389015000Y-107560000D01*
X389015000Y-106810000D01*
X389016204Y-106785496D01*
X389019804Y-106761227D01*
X389025765Y-106737429D01*
X389034030Y-106714329D01*
X389044520Y-106692151D01*
X389057133Y-106671107D01*
X389071747Y-106651402D01*
X389088223Y-106633223D01*
X389106402Y-106616747D01*
X389126107Y-106602133D01*
X389147151Y-106589520D01*
X389169329Y-106579030D01*
X389192429Y-106570765D01*
X389216227Y-106564804D01*
X389240496Y-106561204D01*
X389265000Y-106560000D01*
X390515000Y-106560000D01*
X390539504Y-106561204D01*
G37*
G36*
X394984504Y-109361204D02*
G01*
X395008773Y-109364804D01*
X395032571Y-109370765D01*
X395055671Y-109379030D01*
X395077849Y-109389520D01*
X395098893Y-109402133D01*
X395118598Y-109416747D01*
X395136777Y-109433223D01*
X395153253Y-109451402D01*
X395167867Y-109471107D01*
X395180480Y-109492151D01*
X395190970Y-109514329D01*
X395199235Y-109537429D01*
X395205196Y-109561227D01*
X395208796Y-109585496D01*
X395210000Y-109610000D01*
X395210000Y-110360000D01*
X395208796Y-110384504D01*
X395205196Y-110408773D01*
X395199235Y-110432571D01*
X395190970Y-110455671D01*
X395180480Y-110477849D01*
X395167867Y-110498893D01*
X395153253Y-110518598D01*
X395136777Y-110536777D01*
X395118598Y-110553253D01*
X395098893Y-110567867D01*
X395077849Y-110580480D01*
X395055671Y-110590970D01*
X395032571Y-110599235D01*
X395008773Y-110605196D01*
X394984504Y-110608796D01*
X394960000Y-110610000D01*
X393710000Y-110610000D01*
X393685496Y-110608796D01*
X393661227Y-110605196D01*
X393637429Y-110599235D01*
X393614329Y-110590970D01*
X393592151Y-110580480D01*
X393571107Y-110567867D01*
X393551402Y-110553253D01*
X393533223Y-110536777D01*
X393516747Y-110518598D01*
X393502133Y-110498893D01*
X393489520Y-110477849D01*
X393479030Y-110455671D01*
X393470765Y-110432571D01*
X393464804Y-110408773D01*
X393461204Y-110384504D01*
X393460000Y-110360000D01*
X393460000Y-109610000D01*
X393461204Y-109585496D01*
X393464804Y-109561227D01*
X393470765Y-109537429D01*
X393479030Y-109514329D01*
X393489520Y-109492151D01*
X393502133Y-109471107D01*
X393516747Y-109451402D01*
X393533223Y-109433223D01*
X393551402Y-109416747D01*
X393571107Y-109402133D01*
X393592151Y-109389520D01*
X393614329Y-109379030D01*
X393637429Y-109370765D01*
X393661227Y-109364804D01*
X393685496Y-109361204D01*
X393710000Y-109360000D01*
X394960000Y-109360000D01*
X394984504Y-109361204D01*
G37*
G36*
X394984504Y-106561204D02*
G01*
X395008773Y-106564804D01*
X395032571Y-106570765D01*
X395055671Y-106579030D01*
X395077849Y-106589520D01*
X395098893Y-106602133D01*
X395118598Y-106616747D01*
X395136777Y-106633223D01*
X395153253Y-106651402D01*
X395167867Y-106671107D01*
X395180480Y-106692151D01*
X395190970Y-106714329D01*
X395199235Y-106737429D01*
X395205196Y-106761227D01*
X395208796Y-106785496D01*
X395210000Y-106810000D01*
X395210000Y-107560000D01*
X395208796Y-107584504D01*
X395205196Y-107608773D01*
X395199235Y-107632571D01*
X395190970Y-107655671D01*
X395180480Y-107677849D01*
X395167867Y-107698893D01*
X395153253Y-107718598D01*
X395136777Y-107736777D01*
X395118598Y-107753253D01*
X395098893Y-107767867D01*
X395077849Y-107780480D01*
X395055671Y-107790970D01*
X395032571Y-107799235D01*
X395008773Y-107805196D01*
X394984504Y-107808796D01*
X394960000Y-107810000D01*
X393710000Y-107810000D01*
X393685496Y-107808796D01*
X393661227Y-107805196D01*
X393637429Y-107799235D01*
X393614329Y-107790970D01*
X393592151Y-107780480D01*
X393571107Y-107767867D01*
X393551402Y-107753253D01*
X393533223Y-107736777D01*
X393516747Y-107718598D01*
X393502133Y-107698893D01*
X393489520Y-107677849D01*
X393479030Y-107655671D01*
X393470765Y-107632571D01*
X393464804Y-107608773D01*
X393461204Y-107584504D01*
X393460000Y-107560000D01*
X393460000Y-106810000D01*
X393461204Y-106785496D01*
X393464804Y-106761227D01*
X393470765Y-106737429D01*
X393479030Y-106714329D01*
X393489520Y-106692151D01*
X393502133Y-106671107D01*
X393516747Y-106651402D01*
X393533223Y-106633223D01*
X393551402Y-106616747D01*
X393571107Y-106602133D01*
X393592151Y-106589520D01*
X393614329Y-106579030D01*
X393637429Y-106570765D01*
X393661227Y-106564804D01*
X393685496Y-106561204D01*
X393710000Y-106560000D01*
X394960000Y-106560000D01*
X394984504Y-106561204D01*
G37*
G36*
X399429504Y-109361204D02*
G01*
X399453773Y-109364804D01*
X399477571Y-109370765D01*
X399500671Y-109379030D01*
X399522849Y-109389520D01*
X399543893Y-109402133D01*
X399563598Y-109416747D01*
X399581777Y-109433223D01*
X399598253Y-109451402D01*
X399612867Y-109471107D01*
X399625480Y-109492151D01*
X399635970Y-109514329D01*
X399644235Y-109537429D01*
X399650196Y-109561227D01*
X399653796Y-109585496D01*
X399655000Y-109610000D01*
X399655000Y-110360000D01*
X399653796Y-110384504D01*
X399650196Y-110408773D01*
X399644235Y-110432571D01*
X399635970Y-110455671D01*
X399625480Y-110477849D01*
X399612867Y-110498893D01*
X399598253Y-110518598D01*
X399581777Y-110536777D01*
X399563598Y-110553253D01*
X399543893Y-110567867D01*
X399522849Y-110580480D01*
X399500671Y-110590970D01*
X399477571Y-110599235D01*
X399453773Y-110605196D01*
X399429504Y-110608796D01*
X399405000Y-110610000D01*
X398155000Y-110610000D01*
X398130496Y-110608796D01*
X398106227Y-110605196D01*
X398082429Y-110599235D01*
X398059329Y-110590970D01*
X398037151Y-110580480D01*
X398016107Y-110567867D01*
X397996402Y-110553253D01*
X397978223Y-110536777D01*
X397961747Y-110518598D01*
X397947133Y-110498893D01*
X397934520Y-110477849D01*
X397924030Y-110455671D01*
X397915765Y-110432571D01*
X397909804Y-110408773D01*
X397906204Y-110384504D01*
X397905000Y-110360000D01*
X397905000Y-109610000D01*
X397906204Y-109585496D01*
X397909804Y-109561227D01*
X397915765Y-109537429D01*
X397924030Y-109514329D01*
X397934520Y-109492151D01*
X397947133Y-109471107D01*
X397961747Y-109451402D01*
X397978223Y-109433223D01*
X397996402Y-109416747D01*
X398016107Y-109402133D01*
X398037151Y-109389520D01*
X398059329Y-109379030D01*
X398082429Y-109370765D01*
X398106227Y-109364804D01*
X398130496Y-109361204D01*
X398155000Y-109360000D01*
X399405000Y-109360000D01*
X399429504Y-109361204D01*
G37*
G36*
X399429504Y-106561204D02*
G01*
X399453773Y-106564804D01*
X399477571Y-106570765D01*
X399500671Y-106579030D01*
X399522849Y-106589520D01*
X399543893Y-106602133D01*
X399563598Y-106616747D01*
X399581777Y-106633223D01*
X399598253Y-106651402D01*
X399612867Y-106671107D01*
X399625480Y-106692151D01*
X399635970Y-106714329D01*
X399644235Y-106737429D01*
X399650196Y-106761227D01*
X399653796Y-106785496D01*
X399655000Y-106810000D01*
X399655000Y-107560000D01*
X399653796Y-107584504D01*
X399650196Y-107608773D01*
X399644235Y-107632571D01*
X399635970Y-107655671D01*
X399625480Y-107677849D01*
X399612867Y-107698893D01*
X399598253Y-107718598D01*
X399581777Y-107736777D01*
X399563598Y-107753253D01*
X399543893Y-107767867D01*
X399522849Y-107780480D01*
X399500671Y-107790970D01*
X399477571Y-107799235D01*
X399453773Y-107805196D01*
X399429504Y-107808796D01*
X399405000Y-107810000D01*
X398155000Y-107810000D01*
X398130496Y-107808796D01*
X398106227Y-107805196D01*
X398082429Y-107799235D01*
X398059329Y-107790970D01*
X398037151Y-107780480D01*
X398016107Y-107767867D01*
X397996402Y-107753253D01*
X397978223Y-107736777D01*
X397961747Y-107718598D01*
X397947133Y-107698893D01*
X397934520Y-107677849D01*
X397924030Y-107655671D01*
X397915765Y-107632571D01*
X397909804Y-107608773D01*
X397906204Y-107584504D01*
X397905000Y-107560000D01*
X397905000Y-106810000D01*
X397906204Y-106785496D01*
X397909804Y-106761227D01*
X397915765Y-106737429D01*
X397924030Y-106714329D01*
X397934520Y-106692151D01*
X397947133Y-106671107D01*
X397961747Y-106651402D01*
X397978223Y-106633223D01*
X397996402Y-106616747D01*
X398016107Y-106602133D01*
X398037151Y-106589520D01*
X398059329Y-106579030D01*
X398082429Y-106570765D01*
X398106227Y-106564804D01*
X398130496Y-106561204D01*
X398155000Y-106560000D01*
X399405000Y-106560000D01*
X399429504Y-106561204D01*
G37*
G36*
X403874504Y-109361204D02*
G01*
X403898773Y-109364804D01*
X403922571Y-109370765D01*
X403945671Y-109379030D01*
X403967849Y-109389520D01*
X403988893Y-109402133D01*
X404008598Y-109416747D01*
X404026777Y-109433223D01*
X404043253Y-109451402D01*
X404057867Y-109471107D01*
X404070480Y-109492151D01*
X404080970Y-109514329D01*
X404089235Y-109537429D01*
X404095196Y-109561227D01*
X404098796Y-109585496D01*
X404100000Y-109610000D01*
X404100000Y-110360000D01*
X404098796Y-110384504D01*
X404095196Y-110408773D01*
X404089235Y-110432571D01*
X404080970Y-110455671D01*
X404070480Y-110477849D01*
X404057867Y-110498893D01*
X404043253Y-110518598D01*
X404026777Y-110536777D01*
X404008598Y-110553253D01*
X403988893Y-110567867D01*
X403967849Y-110580480D01*
X403945671Y-110590970D01*
X403922571Y-110599235D01*
X403898773Y-110605196D01*
X403874504Y-110608796D01*
X403850000Y-110610000D01*
X402600000Y-110610000D01*
X402575496Y-110608796D01*
X402551227Y-110605196D01*
X402527429Y-110599235D01*
X402504329Y-110590970D01*
X402482151Y-110580480D01*
X402461107Y-110567867D01*
X402441402Y-110553253D01*
X402423223Y-110536777D01*
X402406747Y-110518598D01*
X402392133Y-110498893D01*
X402379520Y-110477849D01*
X402369030Y-110455671D01*
X402360765Y-110432571D01*
X402354804Y-110408773D01*
X402351204Y-110384504D01*
X402350000Y-110360000D01*
X402350000Y-109610000D01*
X402351204Y-109585496D01*
X402354804Y-109561227D01*
X402360765Y-109537429D01*
X402369030Y-109514329D01*
X402379520Y-109492151D01*
X402392133Y-109471107D01*
X402406747Y-109451402D01*
X402423223Y-109433223D01*
X402441402Y-109416747D01*
X402461107Y-109402133D01*
X402482151Y-109389520D01*
X402504329Y-109379030D01*
X402527429Y-109370765D01*
X402551227Y-109364804D01*
X402575496Y-109361204D01*
X402600000Y-109360000D01*
X403850000Y-109360000D01*
X403874504Y-109361204D01*
G37*
G36*
X403874504Y-106561204D02*
G01*
X403898773Y-106564804D01*
X403922571Y-106570765D01*
X403945671Y-106579030D01*
X403967849Y-106589520D01*
X403988893Y-106602133D01*
X404008598Y-106616747D01*
X404026777Y-106633223D01*
X404043253Y-106651402D01*
X404057867Y-106671107D01*
X404070480Y-106692151D01*
X404080970Y-106714329D01*
X404089235Y-106737429D01*
X404095196Y-106761227D01*
X404098796Y-106785496D01*
X404100000Y-106810000D01*
X404100000Y-107560000D01*
X404098796Y-107584504D01*
X404095196Y-107608773D01*
X404089235Y-107632571D01*
X404080970Y-107655671D01*
X404070480Y-107677849D01*
X404057867Y-107698893D01*
X404043253Y-107718598D01*
X404026777Y-107736777D01*
X404008598Y-107753253D01*
X403988893Y-107767867D01*
X403967849Y-107780480D01*
X403945671Y-107790970D01*
X403922571Y-107799235D01*
X403898773Y-107805196D01*
X403874504Y-107808796D01*
X403850000Y-107810000D01*
X402600000Y-107810000D01*
X402575496Y-107808796D01*
X402551227Y-107805196D01*
X402527429Y-107799235D01*
X402504329Y-107790970D01*
X402482151Y-107780480D01*
X402461107Y-107767867D01*
X402441402Y-107753253D01*
X402423223Y-107736777D01*
X402406747Y-107718598D01*
X402392133Y-107698893D01*
X402379520Y-107677849D01*
X402369030Y-107655671D01*
X402360765Y-107632571D01*
X402354804Y-107608773D01*
X402351204Y-107584504D01*
X402350000Y-107560000D01*
X402350000Y-106810000D01*
X402351204Y-106785496D01*
X402354804Y-106761227D01*
X402360765Y-106737429D01*
X402369030Y-106714329D01*
X402379520Y-106692151D01*
X402392133Y-106671107D01*
X402406747Y-106651402D01*
X402423223Y-106633223D01*
X402441402Y-106616747D01*
X402461107Y-106602133D01*
X402482151Y-106589520D01*
X402504329Y-106579030D01*
X402527429Y-106570765D01*
X402551227Y-106564804D01*
X402575496Y-106561204D01*
X402600000Y-106560000D01*
X403850000Y-106560000D01*
X403874504Y-106561204D01*
G37*
G36*
X408319504Y-109361204D02*
G01*
X408343773Y-109364804D01*
X408367571Y-109370765D01*
X408390671Y-109379030D01*
X408412849Y-109389520D01*
X408433893Y-109402133D01*
X408453598Y-109416747D01*
X408471777Y-109433223D01*
X408488253Y-109451402D01*
X408502867Y-109471107D01*
X408515480Y-109492151D01*
X408525970Y-109514329D01*
X408534235Y-109537429D01*
X408540196Y-109561227D01*
X408543796Y-109585496D01*
X408545000Y-109610000D01*
X408545000Y-110360000D01*
X408543796Y-110384504D01*
X408540196Y-110408773D01*
X408534235Y-110432571D01*
X408525970Y-110455671D01*
X408515480Y-110477849D01*
X408502867Y-110498893D01*
X408488253Y-110518598D01*
X408471777Y-110536777D01*
X408453598Y-110553253D01*
X408433893Y-110567867D01*
X408412849Y-110580480D01*
X408390671Y-110590970D01*
X408367571Y-110599235D01*
X408343773Y-110605196D01*
X408319504Y-110608796D01*
X408295000Y-110610000D01*
X407045000Y-110610000D01*
X407020496Y-110608796D01*
X406996227Y-110605196D01*
X406972429Y-110599235D01*
X406949329Y-110590970D01*
X406927151Y-110580480D01*
X406906107Y-110567867D01*
X406886402Y-110553253D01*
X406868223Y-110536777D01*
X406851747Y-110518598D01*
X406837133Y-110498893D01*
X406824520Y-110477849D01*
X406814030Y-110455671D01*
X406805765Y-110432571D01*
X406799804Y-110408773D01*
X406796204Y-110384504D01*
X406795000Y-110360000D01*
X406795000Y-109610000D01*
X406796204Y-109585496D01*
X406799804Y-109561227D01*
X406805765Y-109537429D01*
X406814030Y-109514329D01*
X406824520Y-109492151D01*
X406837133Y-109471107D01*
X406851747Y-109451402D01*
X406868223Y-109433223D01*
X406886402Y-109416747D01*
X406906107Y-109402133D01*
X406927151Y-109389520D01*
X406949329Y-109379030D01*
X406972429Y-109370765D01*
X406996227Y-109364804D01*
X407020496Y-109361204D01*
X407045000Y-109360000D01*
X408295000Y-109360000D01*
X408319504Y-109361204D01*
G37*
G36*
X408319504Y-106561204D02*
G01*
X408343773Y-106564804D01*
X408367571Y-106570765D01*
X408390671Y-106579030D01*
X408412849Y-106589520D01*
X408433893Y-106602133D01*
X408453598Y-106616747D01*
X408471777Y-106633223D01*
X408488253Y-106651402D01*
X408502867Y-106671107D01*
X408515480Y-106692151D01*
X408525970Y-106714329D01*
X408534235Y-106737429D01*
X408540196Y-106761227D01*
X408543796Y-106785496D01*
X408545000Y-106810000D01*
X408545000Y-107560000D01*
X408543796Y-107584504D01*
X408540196Y-107608773D01*
X408534235Y-107632571D01*
X408525970Y-107655671D01*
X408515480Y-107677849D01*
X408502867Y-107698893D01*
X408488253Y-107718598D01*
X408471777Y-107736777D01*
X408453598Y-107753253D01*
X408433893Y-107767867D01*
X408412849Y-107780480D01*
X408390671Y-107790970D01*
X408367571Y-107799235D01*
X408343773Y-107805196D01*
X408319504Y-107808796D01*
X408295000Y-107810000D01*
X407045000Y-107810000D01*
X407020496Y-107808796D01*
X406996227Y-107805196D01*
X406972429Y-107799235D01*
X406949329Y-107790970D01*
X406927151Y-107780480D01*
X406906107Y-107767867D01*
X406886402Y-107753253D01*
X406868223Y-107736777D01*
X406851747Y-107718598D01*
X406837133Y-107698893D01*
X406824520Y-107677849D01*
X406814030Y-107655671D01*
X406805765Y-107632571D01*
X406799804Y-107608773D01*
X406796204Y-107584504D01*
X406795000Y-107560000D01*
X406795000Y-106810000D01*
X406796204Y-106785496D01*
X406799804Y-106761227D01*
X406805765Y-106737429D01*
X406814030Y-106714329D01*
X406824520Y-106692151D01*
X406837133Y-106671107D01*
X406851747Y-106651402D01*
X406868223Y-106633223D01*
X406886402Y-106616747D01*
X406906107Y-106602133D01*
X406927151Y-106589520D01*
X406949329Y-106579030D01*
X406972429Y-106570765D01*
X406996227Y-106564804D01*
X407020496Y-106561204D01*
X407045000Y-106560000D01*
X408295000Y-106560000D01*
X408319504Y-106561204D01*
G37*
G36*
X412764504Y-109361204D02*
G01*
X412788773Y-109364804D01*
X412812571Y-109370765D01*
X412835671Y-109379030D01*
X412857849Y-109389520D01*
X412878893Y-109402133D01*
X412898598Y-109416747D01*
X412916777Y-109433223D01*
X412933253Y-109451402D01*
X412947867Y-109471107D01*
X412960480Y-109492151D01*
X412970970Y-109514329D01*
X412979235Y-109537429D01*
X412985196Y-109561227D01*
X412988796Y-109585496D01*
X412990000Y-109610000D01*
X412990000Y-110360000D01*
X412988796Y-110384504D01*
X412985196Y-110408773D01*
X412979235Y-110432571D01*
X412970970Y-110455671D01*
X412960480Y-110477849D01*
X412947867Y-110498893D01*
X412933253Y-110518598D01*
X412916777Y-110536777D01*
X412898598Y-110553253D01*
X412878893Y-110567867D01*
X412857849Y-110580480D01*
X412835671Y-110590970D01*
X412812571Y-110599235D01*
X412788773Y-110605196D01*
X412764504Y-110608796D01*
X412740000Y-110610000D01*
X411490000Y-110610000D01*
X411465496Y-110608796D01*
X411441227Y-110605196D01*
X411417429Y-110599235D01*
X411394329Y-110590970D01*
X411372151Y-110580480D01*
X411351107Y-110567867D01*
X411331402Y-110553253D01*
X411313223Y-110536777D01*
X411296747Y-110518598D01*
X411282133Y-110498893D01*
X411269520Y-110477849D01*
X411259030Y-110455671D01*
X411250765Y-110432571D01*
X411244804Y-110408773D01*
X411241204Y-110384504D01*
X411240000Y-110360000D01*
X411240000Y-109610000D01*
X411241204Y-109585496D01*
X411244804Y-109561227D01*
X411250765Y-109537429D01*
X411259030Y-109514329D01*
X411269520Y-109492151D01*
X411282133Y-109471107D01*
X411296747Y-109451402D01*
X411313223Y-109433223D01*
X411331402Y-109416747D01*
X411351107Y-109402133D01*
X411372151Y-109389520D01*
X411394329Y-109379030D01*
X411417429Y-109370765D01*
X411441227Y-109364804D01*
X411465496Y-109361204D01*
X411490000Y-109360000D01*
X412740000Y-109360000D01*
X412764504Y-109361204D01*
G37*
G36*
X412764504Y-106561204D02*
G01*
X412788773Y-106564804D01*
X412812571Y-106570765D01*
X412835671Y-106579030D01*
X412857849Y-106589520D01*
X412878893Y-106602133D01*
X412898598Y-106616747D01*
X412916777Y-106633223D01*
X412933253Y-106651402D01*
X412947867Y-106671107D01*
X412960480Y-106692151D01*
X412970970Y-106714329D01*
X412979235Y-106737429D01*
X412985196Y-106761227D01*
X412988796Y-106785496D01*
X412990000Y-106810000D01*
X412990000Y-107560000D01*
X412988796Y-107584504D01*
X412985196Y-107608773D01*
X412979235Y-107632571D01*
X412970970Y-107655671D01*
X412960480Y-107677849D01*
X412947867Y-107698893D01*
X412933253Y-107718598D01*
X412916777Y-107736777D01*
X412898598Y-107753253D01*
X412878893Y-107767867D01*
X412857849Y-107780480D01*
X412835671Y-107790970D01*
X412812571Y-107799235D01*
X412788773Y-107805196D01*
X412764504Y-107808796D01*
X412740000Y-107810000D01*
X411490000Y-107810000D01*
X411465496Y-107808796D01*
X411441227Y-107805196D01*
X411417429Y-107799235D01*
X411394329Y-107790970D01*
X411372151Y-107780480D01*
X411351107Y-107767867D01*
X411331402Y-107753253D01*
X411313223Y-107736777D01*
X411296747Y-107718598D01*
X411282133Y-107698893D01*
X411269520Y-107677849D01*
X411259030Y-107655671D01*
X411250765Y-107632571D01*
X411244804Y-107608773D01*
X411241204Y-107584504D01*
X411240000Y-107560000D01*
X411240000Y-106810000D01*
X411241204Y-106785496D01*
X411244804Y-106761227D01*
X411250765Y-106737429D01*
X411259030Y-106714329D01*
X411269520Y-106692151D01*
X411282133Y-106671107D01*
X411296747Y-106651402D01*
X411313223Y-106633223D01*
X411331402Y-106616747D01*
X411351107Y-106602133D01*
X411372151Y-106589520D01*
X411394329Y-106579030D01*
X411417429Y-106570765D01*
X411441227Y-106564804D01*
X411465496Y-106561204D01*
X411490000Y-106560000D01*
X412740000Y-106560000D01*
X412764504Y-106561204D01*
G37*
G36*
X417209504Y-109361204D02*
G01*
X417233773Y-109364804D01*
X417257571Y-109370765D01*
X417280671Y-109379030D01*
X417302849Y-109389520D01*
X417323893Y-109402133D01*
X417343598Y-109416747D01*
X417361777Y-109433223D01*
X417378253Y-109451402D01*
X417392867Y-109471107D01*
X417405480Y-109492151D01*
X417415970Y-109514329D01*
X417424235Y-109537429D01*
X417430196Y-109561227D01*
X417433796Y-109585496D01*
X417435000Y-109610000D01*
X417435000Y-110360000D01*
X417433796Y-110384504D01*
X417430196Y-110408773D01*
X417424235Y-110432571D01*
X417415970Y-110455671D01*
X417405480Y-110477849D01*
X417392867Y-110498893D01*
X417378253Y-110518598D01*
X417361777Y-110536777D01*
X417343598Y-110553253D01*
X417323893Y-110567867D01*
X417302849Y-110580480D01*
X417280671Y-110590970D01*
X417257571Y-110599235D01*
X417233773Y-110605196D01*
X417209504Y-110608796D01*
X417185000Y-110610000D01*
X415935000Y-110610000D01*
X415910496Y-110608796D01*
X415886227Y-110605196D01*
X415862429Y-110599235D01*
X415839329Y-110590970D01*
X415817151Y-110580480D01*
X415796107Y-110567867D01*
X415776402Y-110553253D01*
X415758223Y-110536777D01*
X415741747Y-110518598D01*
X415727133Y-110498893D01*
X415714520Y-110477849D01*
X415704030Y-110455671D01*
X415695765Y-110432571D01*
X415689804Y-110408773D01*
X415686204Y-110384504D01*
X415685000Y-110360000D01*
X415685000Y-109610000D01*
X415686204Y-109585496D01*
X415689804Y-109561227D01*
X415695765Y-109537429D01*
X415704030Y-109514329D01*
X415714520Y-109492151D01*
X415727133Y-109471107D01*
X415741747Y-109451402D01*
X415758223Y-109433223D01*
X415776402Y-109416747D01*
X415796107Y-109402133D01*
X415817151Y-109389520D01*
X415839329Y-109379030D01*
X415862429Y-109370765D01*
X415886227Y-109364804D01*
X415910496Y-109361204D01*
X415935000Y-109360000D01*
X417185000Y-109360000D01*
X417209504Y-109361204D01*
G37*
G36*
X417209504Y-106561204D02*
G01*
X417233773Y-106564804D01*
X417257571Y-106570765D01*
X417280671Y-106579030D01*
X417302849Y-106589520D01*
X417323893Y-106602133D01*
X417343598Y-106616747D01*
X417361777Y-106633223D01*
X417378253Y-106651402D01*
X417392867Y-106671107D01*
X417405480Y-106692151D01*
X417415970Y-106714329D01*
X417424235Y-106737429D01*
X417430196Y-106761227D01*
X417433796Y-106785496D01*
X417435000Y-106810000D01*
X417435000Y-107560000D01*
X417433796Y-107584504D01*
X417430196Y-107608773D01*
X417424235Y-107632571D01*
X417415970Y-107655671D01*
X417405480Y-107677849D01*
X417392867Y-107698893D01*
X417378253Y-107718598D01*
X417361777Y-107736777D01*
X417343598Y-107753253D01*
X417323893Y-107767867D01*
X417302849Y-107780480D01*
X417280671Y-107790970D01*
X417257571Y-107799235D01*
X417233773Y-107805196D01*
X417209504Y-107808796D01*
X417185000Y-107810000D01*
X415935000Y-107810000D01*
X415910496Y-107808796D01*
X415886227Y-107805196D01*
X415862429Y-107799235D01*
X415839329Y-107790970D01*
X415817151Y-107780480D01*
X415796107Y-107767867D01*
X415776402Y-107753253D01*
X415758223Y-107736777D01*
X415741747Y-107718598D01*
X415727133Y-107698893D01*
X415714520Y-107677849D01*
X415704030Y-107655671D01*
X415695765Y-107632571D01*
X415689804Y-107608773D01*
X415686204Y-107584504D01*
X415685000Y-107560000D01*
X415685000Y-106810000D01*
X415686204Y-106785496D01*
X415689804Y-106761227D01*
X415695765Y-106737429D01*
X415704030Y-106714329D01*
X415714520Y-106692151D01*
X415727133Y-106671107D01*
X415741747Y-106651402D01*
X415758223Y-106633223D01*
X415776402Y-106616747D01*
X415796107Y-106602133D01*
X415817151Y-106589520D01*
X415839329Y-106579030D01*
X415862429Y-106570765D01*
X415886227Y-106564804D01*
X415910496Y-106561204D01*
X415935000Y-106560000D01*
X417185000Y-106560000D01*
X417209504Y-106561204D01*
G37*
G36*
X421654504Y-109361204D02*
G01*
X421678773Y-109364804D01*
X421702571Y-109370765D01*
X421725671Y-109379030D01*
X421747849Y-109389520D01*
X421768893Y-109402133D01*
X421788598Y-109416747D01*
X421806777Y-109433223D01*
X421823253Y-109451402D01*
X421837867Y-109471107D01*
X421850480Y-109492151D01*
X421860970Y-109514329D01*
X421869235Y-109537429D01*
X421875196Y-109561227D01*
X421878796Y-109585496D01*
X421880000Y-109610000D01*
X421880000Y-110360000D01*
X421878796Y-110384504D01*
X421875196Y-110408773D01*
X421869235Y-110432571D01*
X421860970Y-110455671D01*
X421850480Y-110477849D01*
X421837867Y-110498893D01*
X421823253Y-110518598D01*
X421806777Y-110536777D01*
X421788598Y-110553253D01*
X421768893Y-110567867D01*
X421747849Y-110580480D01*
X421725671Y-110590970D01*
X421702571Y-110599235D01*
X421678773Y-110605196D01*
X421654504Y-110608796D01*
X421630000Y-110610000D01*
X420380000Y-110610000D01*
X420355496Y-110608796D01*
X420331227Y-110605196D01*
X420307429Y-110599235D01*
X420284329Y-110590970D01*
X420262151Y-110580480D01*
X420241107Y-110567867D01*
X420221402Y-110553253D01*
X420203223Y-110536777D01*
X420186747Y-110518598D01*
X420172133Y-110498893D01*
X420159520Y-110477849D01*
X420149030Y-110455671D01*
X420140765Y-110432571D01*
X420134804Y-110408773D01*
X420131204Y-110384504D01*
X420130000Y-110360000D01*
X420130000Y-109610000D01*
X420131204Y-109585496D01*
X420134804Y-109561227D01*
X420140765Y-109537429D01*
X420149030Y-109514329D01*
X420159520Y-109492151D01*
X420172133Y-109471107D01*
X420186747Y-109451402D01*
X420203223Y-109433223D01*
X420221402Y-109416747D01*
X420241107Y-109402133D01*
X420262151Y-109389520D01*
X420284329Y-109379030D01*
X420307429Y-109370765D01*
X420331227Y-109364804D01*
X420355496Y-109361204D01*
X420380000Y-109360000D01*
X421630000Y-109360000D01*
X421654504Y-109361204D01*
G37*
G36*
X421654504Y-106561204D02*
G01*
X421678773Y-106564804D01*
X421702571Y-106570765D01*
X421725671Y-106579030D01*
X421747849Y-106589520D01*
X421768893Y-106602133D01*
X421788598Y-106616747D01*
X421806777Y-106633223D01*
X421823253Y-106651402D01*
X421837867Y-106671107D01*
X421850480Y-106692151D01*
X421860970Y-106714329D01*
X421869235Y-106737429D01*
X421875196Y-106761227D01*
X421878796Y-106785496D01*
X421880000Y-106810000D01*
X421880000Y-107560000D01*
X421878796Y-107584504D01*
X421875196Y-107608773D01*
X421869235Y-107632571D01*
X421860970Y-107655671D01*
X421850480Y-107677849D01*
X421837867Y-107698893D01*
X421823253Y-107718598D01*
X421806777Y-107736777D01*
X421788598Y-107753253D01*
X421768893Y-107767867D01*
X421747849Y-107780480D01*
X421725671Y-107790970D01*
X421702571Y-107799235D01*
X421678773Y-107805196D01*
X421654504Y-107808796D01*
X421630000Y-107810000D01*
X420380000Y-107810000D01*
X420355496Y-107808796D01*
X420331227Y-107805196D01*
X420307429Y-107799235D01*
X420284329Y-107790970D01*
X420262151Y-107780480D01*
X420241107Y-107767867D01*
X420221402Y-107753253D01*
X420203223Y-107736777D01*
X420186747Y-107718598D01*
X420172133Y-107698893D01*
X420159520Y-107677849D01*
X420149030Y-107655671D01*
X420140765Y-107632571D01*
X420134804Y-107608773D01*
X420131204Y-107584504D01*
X420130000Y-107560000D01*
X420130000Y-106810000D01*
X420131204Y-106785496D01*
X420134804Y-106761227D01*
X420140765Y-106737429D01*
X420149030Y-106714329D01*
X420159520Y-106692151D01*
X420172133Y-106671107D01*
X420186747Y-106651402D01*
X420203223Y-106633223D01*
X420221402Y-106616747D01*
X420241107Y-106602133D01*
X420262151Y-106589520D01*
X420284329Y-106579030D01*
X420307429Y-106570765D01*
X420331227Y-106564804D01*
X420355496Y-106561204D01*
X420380000Y-106560000D01*
X421630000Y-106560000D01*
X421654504Y-106561204D01*
G37*
G36*
X426099504Y-109361204D02*
G01*
X426123773Y-109364804D01*
X426147571Y-109370765D01*
X426170671Y-109379030D01*
X426192849Y-109389520D01*
X426213893Y-109402133D01*
X426233598Y-109416747D01*
X426251777Y-109433223D01*
X426268253Y-109451402D01*
X426282867Y-109471107D01*
X426295480Y-109492151D01*
X426305970Y-109514329D01*
X426314235Y-109537429D01*
X426320196Y-109561227D01*
X426323796Y-109585496D01*
X426325000Y-109610000D01*
X426325000Y-110360000D01*
X426323796Y-110384504D01*
X426320196Y-110408773D01*
X426314235Y-110432571D01*
X426305970Y-110455671D01*
X426295480Y-110477849D01*
X426282867Y-110498893D01*
X426268253Y-110518598D01*
X426251777Y-110536777D01*
X426233598Y-110553253D01*
X426213893Y-110567867D01*
X426192849Y-110580480D01*
X426170671Y-110590970D01*
X426147571Y-110599235D01*
X426123773Y-110605196D01*
X426099504Y-110608796D01*
X426075000Y-110610000D01*
X424825000Y-110610000D01*
X424800496Y-110608796D01*
X424776227Y-110605196D01*
X424752429Y-110599235D01*
X424729329Y-110590970D01*
X424707151Y-110580480D01*
X424686107Y-110567867D01*
X424666402Y-110553253D01*
X424648223Y-110536777D01*
X424631747Y-110518598D01*
X424617133Y-110498893D01*
X424604520Y-110477849D01*
X424594030Y-110455671D01*
X424585765Y-110432571D01*
X424579804Y-110408773D01*
X424576204Y-110384504D01*
X424575000Y-110360000D01*
X424575000Y-109610000D01*
X424576204Y-109585496D01*
X424579804Y-109561227D01*
X424585765Y-109537429D01*
X424594030Y-109514329D01*
X424604520Y-109492151D01*
X424617133Y-109471107D01*
X424631747Y-109451402D01*
X424648223Y-109433223D01*
X424666402Y-109416747D01*
X424686107Y-109402133D01*
X424707151Y-109389520D01*
X424729329Y-109379030D01*
X424752429Y-109370765D01*
X424776227Y-109364804D01*
X424800496Y-109361204D01*
X424825000Y-109360000D01*
X426075000Y-109360000D01*
X426099504Y-109361204D01*
G37*
G36*
X426099504Y-106561204D02*
G01*
X426123773Y-106564804D01*
X426147571Y-106570765D01*
X426170671Y-106579030D01*
X426192849Y-106589520D01*
X426213893Y-106602133D01*
X426233598Y-106616747D01*
X426251777Y-106633223D01*
X426268253Y-106651402D01*
X426282867Y-106671107D01*
X426295480Y-106692151D01*
X426305970Y-106714329D01*
X426314235Y-106737429D01*
X426320196Y-106761227D01*
X426323796Y-106785496D01*
X426325000Y-106810000D01*
X426325000Y-107560000D01*
X426323796Y-107584504D01*
X426320196Y-107608773D01*
X426314235Y-107632571D01*
X426305970Y-107655671D01*
X426295480Y-107677849D01*
X426282867Y-107698893D01*
X426268253Y-107718598D01*
X426251777Y-107736777D01*
X426233598Y-107753253D01*
X426213893Y-107767867D01*
X426192849Y-107780480D01*
X426170671Y-107790970D01*
X426147571Y-107799235D01*
X426123773Y-107805196D01*
X426099504Y-107808796D01*
X426075000Y-107810000D01*
X424825000Y-107810000D01*
X424800496Y-107808796D01*
X424776227Y-107805196D01*
X424752429Y-107799235D01*
X424729329Y-107790970D01*
X424707151Y-107780480D01*
X424686107Y-107767867D01*
X424666402Y-107753253D01*
X424648223Y-107736777D01*
X424631747Y-107718598D01*
X424617133Y-107698893D01*
X424604520Y-107677849D01*
X424594030Y-107655671D01*
X424585765Y-107632571D01*
X424579804Y-107608773D01*
X424576204Y-107584504D01*
X424575000Y-107560000D01*
X424575000Y-106810000D01*
X424576204Y-106785496D01*
X424579804Y-106761227D01*
X424585765Y-106737429D01*
X424594030Y-106714329D01*
X424604520Y-106692151D01*
X424617133Y-106671107D01*
X424631747Y-106651402D01*
X424648223Y-106633223D01*
X424666402Y-106616747D01*
X424686107Y-106602133D01*
X424707151Y-106589520D01*
X424729329Y-106579030D01*
X424752429Y-106570765D01*
X424776227Y-106564804D01*
X424800496Y-106561204D01*
X424825000Y-106560000D01*
X426075000Y-106560000D01*
X426099504Y-106561204D01*
G37*
G36*
X430544504Y-109361204D02*
G01*
X430568773Y-109364804D01*
X430592571Y-109370765D01*
X430615671Y-109379030D01*
X430637849Y-109389520D01*
X430658893Y-109402133D01*
X430678598Y-109416747D01*
X430696777Y-109433223D01*
X430713253Y-109451402D01*
X430727867Y-109471107D01*
X430740480Y-109492151D01*
X430750970Y-109514329D01*
X430759235Y-109537429D01*
X430765196Y-109561227D01*
X430768796Y-109585496D01*
X430770000Y-109610000D01*
X430770000Y-110360000D01*
X430768796Y-110384504D01*
X430765196Y-110408773D01*
X430759235Y-110432571D01*
X430750970Y-110455671D01*
X430740480Y-110477849D01*
X430727867Y-110498893D01*
X430713253Y-110518598D01*
X430696777Y-110536777D01*
X430678598Y-110553253D01*
X430658893Y-110567867D01*
X430637849Y-110580480D01*
X430615671Y-110590970D01*
X430592571Y-110599235D01*
X430568773Y-110605196D01*
X430544504Y-110608796D01*
X430520000Y-110610000D01*
X429270000Y-110610000D01*
X429245496Y-110608796D01*
X429221227Y-110605196D01*
X429197429Y-110599235D01*
X429174329Y-110590970D01*
X429152151Y-110580480D01*
X429131107Y-110567867D01*
X429111402Y-110553253D01*
X429093223Y-110536777D01*
X429076747Y-110518598D01*
X429062133Y-110498893D01*
X429049520Y-110477849D01*
X429039030Y-110455671D01*
X429030765Y-110432571D01*
X429024804Y-110408773D01*
X429021204Y-110384504D01*
X429020000Y-110360000D01*
X429020000Y-109610000D01*
X429021204Y-109585496D01*
X429024804Y-109561227D01*
X429030765Y-109537429D01*
X429039030Y-109514329D01*
X429049520Y-109492151D01*
X429062133Y-109471107D01*
X429076747Y-109451402D01*
X429093223Y-109433223D01*
X429111402Y-109416747D01*
X429131107Y-109402133D01*
X429152151Y-109389520D01*
X429174329Y-109379030D01*
X429197429Y-109370765D01*
X429221227Y-109364804D01*
X429245496Y-109361204D01*
X429270000Y-109360000D01*
X430520000Y-109360000D01*
X430544504Y-109361204D01*
G37*
G36*
X430544504Y-106561204D02*
G01*
X430568773Y-106564804D01*
X430592571Y-106570765D01*
X430615671Y-106579030D01*
X430637849Y-106589520D01*
X430658893Y-106602133D01*
X430678598Y-106616747D01*
X430696777Y-106633223D01*
X430713253Y-106651402D01*
X430727867Y-106671107D01*
X430740480Y-106692151D01*
X430750970Y-106714329D01*
X430759235Y-106737429D01*
X430765196Y-106761227D01*
X430768796Y-106785496D01*
X430770000Y-106810000D01*
X430770000Y-107560000D01*
X430768796Y-107584504D01*
X430765196Y-107608773D01*
X430759235Y-107632571D01*
X430750970Y-107655671D01*
X430740480Y-107677849D01*
X430727867Y-107698893D01*
X430713253Y-107718598D01*
X430696777Y-107736777D01*
X430678598Y-107753253D01*
X430658893Y-107767867D01*
X430637849Y-107780480D01*
X430615671Y-107790970D01*
X430592571Y-107799235D01*
X430568773Y-107805196D01*
X430544504Y-107808796D01*
X430520000Y-107810000D01*
X429270000Y-107810000D01*
X429245496Y-107808796D01*
X429221227Y-107805196D01*
X429197429Y-107799235D01*
X429174329Y-107790970D01*
X429152151Y-107780480D01*
X429131107Y-107767867D01*
X429111402Y-107753253D01*
X429093223Y-107736777D01*
X429076747Y-107718598D01*
X429062133Y-107698893D01*
X429049520Y-107677849D01*
X429039030Y-107655671D01*
X429030765Y-107632571D01*
X429024804Y-107608773D01*
X429021204Y-107584504D01*
X429020000Y-107560000D01*
X429020000Y-106810000D01*
X429021204Y-106785496D01*
X429024804Y-106761227D01*
X429030765Y-106737429D01*
X429039030Y-106714329D01*
X429049520Y-106692151D01*
X429062133Y-106671107D01*
X429076747Y-106651402D01*
X429093223Y-106633223D01*
X429111402Y-106616747D01*
X429131107Y-106602133D01*
X429152151Y-106589520D01*
X429174329Y-106579030D01*
X429197429Y-106570765D01*
X429221227Y-106564804D01*
X429245496Y-106561204D01*
X429270000Y-106560000D01*
X430520000Y-106560000D01*
X430544504Y-106561204D01*
G37*
D11*
X452980000Y-207600000D03*
X452980000Y-208250000D03*
X452980000Y-208900000D03*
X452980000Y-209550000D03*
X452980000Y-210200000D03*
X452980000Y-210850000D03*
X452980000Y-211500000D03*
X458880000Y-211500000D03*
X458880000Y-210850000D03*
X458880000Y-210200000D03*
X458880000Y-209550000D03*
X458880000Y-208900000D03*
X458880000Y-208250000D03*
X458880000Y-207600000D03*
X341220000Y-149180000D03*
X341220000Y-149830000D03*
X341220000Y-150480000D03*
X341220000Y-151130000D03*
X341220000Y-151780000D03*
X341220000Y-152430000D03*
X341220000Y-153080000D03*
X347120000Y-153080000D03*
X347120000Y-152430000D03*
X347120000Y-151780000D03*
X347120000Y-151130000D03*
X347120000Y-150480000D03*
X347120000Y-149830000D03*
X347120000Y-149180000D03*
X388845000Y-274910000D03*
X388845000Y-275560000D03*
X388845000Y-276210000D03*
X388845000Y-276860000D03*
X388845000Y-277510000D03*
X388845000Y-278160000D03*
X388845000Y-278810000D03*
X394745000Y-278810000D03*
X394745000Y-278160000D03*
X394745000Y-277510000D03*
X394745000Y-276860000D03*
X394745000Y-276210000D03*
X394745000Y-275560000D03*
X394745000Y-274910000D03*
X379955000Y-274910000D03*
X379955000Y-275560000D03*
X379955000Y-276210000D03*
X379955000Y-276860000D03*
X379955000Y-277510000D03*
X379955000Y-278160000D03*
X379955000Y-278810000D03*
X385855000Y-278810000D03*
X385855000Y-278160000D03*
X385855000Y-277510000D03*
X385855000Y-276860000D03*
X385855000Y-276210000D03*
X385855000Y-275560000D03*
X385855000Y-274910000D03*
X371065000Y-274910000D03*
X371065000Y-275560000D03*
X371065000Y-276210000D03*
X371065000Y-276860000D03*
X371065000Y-277510000D03*
X371065000Y-278160000D03*
X371065000Y-278810000D03*
X376965000Y-278810000D03*
X376965000Y-278160000D03*
X376965000Y-277510000D03*
X376965000Y-276860000D03*
X376965000Y-276210000D03*
X376965000Y-275560000D03*
X376965000Y-274910000D03*
X362175000Y-274910000D03*
X362175000Y-275560000D03*
X362175000Y-276210000D03*
X362175000Y-276860000D03*
X362175000Y-277510000D03*
X362175000Y-278160000D03*
X362175000Y-278810000D03*
X368075000Y-278810000D03*
X368075000Y-278160000D03*
X368075000Y-277510000D03*
X368075000Y-276860000D03*
X368075000Y-276210000D03*
X368075000Y-275560000D03*
X368075000Y-274910000D03*
X458880000Y-112985000D03*
X458880000Y-113635000D03*
X458880000Y-114285000D03*
X458880000Y-114935000D03*
X458880000Y-115585000D03*
X458880000Y-116235000D03*
X458880000Y-116885000D03*
X452980000Y-116885000D03*
X452980000Y-116235000D03*
X452980000Y-115585000D03*
X452980000Y-114935000D03*
X452980000Y-114285000D03*
X452980000Y-113635000D03*
X452980000Y-112985000D03*
X458880000Y-119970000D03*
X458880000Y-120620000D03*
X458880000Y-121270000D03*
X458880000Y-121920000D03*
X458880000Y-122570000D03*
X458880000Y-123220000D03*
X458880000Y-123870000D03*
X452980000Y-123870000D03*
X452980000Y-123220000D03*
X452980000Y-122570000D03*
X452980000Y-121920000D03*
X452980000Y-121270000D03*
X452980000Y-120620000D03*
X452980000Y-119970000D03*
X458880000Y-126955000D03*
X458880000Y-127605000D03*
X458880000Y-128255000D03*
X458880000Y-128905000D03*
X458880000Y-129555000D03*
X458880000Y-130205000D03*
X458880000Y-130855000D03*
X452980000Y-130855000D03*
X452980000Y-130205000D03*
X452980000Y-129555000D03*
X452980000Y-128905000D03*
X452980000Y-128255000D03*
X452980000Y-127605000D03*
X452980000Y-126955000D03*
X458880000Y-133940000D03*
X458880000Y-134590000D03*
X458880000Y-135240000D03*
X458880000Y-135890000D03*
X458880000Y-136540000D03*
X458880000Y-137190000D03*
X458880000Y-137840000D03*
X452980000Y-137840000D03*
X452980000Y-137190000D03*
X452980000Y-136540000D03*
X452980000Y-135890000D03*
X452980000Y-135240000D03*
X452980000Y-134590000D03*
X452980000Y-133940000D03*
X458880000Y-140925000D03*
X458880000Y-141575000D03*
X458880000Y-142225000D03*
X458880000Y-142875000D03*
X458880000Y-143525000D03*
X458880000Y-144175000D03*
X458880000Y-144825000D03*
X452980000Y-144825000D03*
X452980000Y-144175000D03*
X452980000Y-143525000D03*
X452980000Y-142875000D03*
X452980000Y-142225000D03*
X452980000Y-141575000D03*
X452980000Y-140925000D03*
X458880000Y-147910000D03*
X458880000Y-148560000D03*
X458880000Y-149210000D03*
X458880000Y-149860000D03*
X458880000Y-150510000D03*
X458880000Y-151160000D03*
X458880000Y-151810000D03*
X452980000Y-151810000D03*
X452980000Y-151160000D03*
X452980000Y-150510000D03*
X452980000Y-149860000D03*
X452980000Y-149210000D03*
X452980000Y-148560000D03*
X452980000Y-147910000D03*
X458880000Y-154895000D03*
X458880000Y-155545000D03*
X458880000Y-156195000D03*
X458880000Y-156845000D03*
X458880000Y-157495000D03*
X458880000Y-158145000D03*
X458880000Y-158795000D03*
X452980000Y-158795000D03*
X452980000Y-158145000D03*
X452980000Y-157495000D03*
X452980000Y-156845000D03*
X452980000Y-156195000D03*
X452980000Y-155545000D03*
X452980000Y-154895000D03*
X458880000Y-161880000D03*
X458880000Y-162530000D03*
X458880000Y-163180000D03*
X458880000Y-163830000D03*
X458880000Y-164480000D03*
X458880000Y-165130000D03*
X458880000Y-165780000D03*
X452980000Y-165780000D03*
X452980000Y-165130000D03*
X452980000Y-164480000D03*
X452980000Y-163830000D03*
X452980000Y-163180000D03*
X452980000Y-162530000D03*
X452980000Y-161880000D03*
X458880000Y-168865000D03*
X458880000Y-169515000D03*
X458880000Y-170165000D03*
X458880000Y-170815000D03*
X458880000Y-171465000D03*
X458880000Y-172115000D03*
X458880000Y-172765000D03*
X452980000Y-172765000D03*
X452980000Y-172115000D03*
X452980000Y-171465000D03*
X452980000Y-170815000D03*
X452980000Y-170165000D03*
X452980000Y-169515000D03*
X452980000Y-168865000D03*
X458880000Y-175850000D03*
X458880000Y-176500000D03*
X458880000Y-177150000D03*
X458880000Y-177800000D03*
X458880000Y-178450000D03*
X458880000Y-179100000D03*
X458880000Y-179750000D03*
X452980000Y-179750000D03*
X452980000Y-179100000D03*
X452980000Y-178450000D03*
X452980000Y-177800000D03*
X452980000Y-177150000D03*
X452980000Y-176500000D03*
X452980000Y-175850000D03*
X458880000Y-182835000D03*
X458880000Y-183485000D03*
X458880000Y-184135000D03*
X458880000Y-184785000D03*
X458880000Y-185435000D03*
X458880000Y-186085000D03*
X458880000Y-186735000D03*
X452980000Y-186735000D03*
X452980000Y-186085000D03*
X452980000Y-185435000D03*
X452980000Y-184785000D03*
X452980000Y-184135000D03*
X452980000Y-183485000D03*
X452980000Y-182835000D03*
X458880000Y-189820000D03*
X458880000Y-190470000D03*
X458880000Y-191120000D03*
X458880000Y-191770000D03*
X458880000Y-192420000D03*
X458880000Y-193070000D03*
X458880000Y-193720000D03*
X452980000Y-193720000D03*
X452980000Y-193070000D03*
X452980000Y-192420000D03*
X452980000Y-191770000D03*
X452980000Y-191120000D03*
X452980000Y-190470000D03*
X452980000Y-189820000D03*
X458880000Y-196805000D03*
X458880000Y-197455000D03*
X458880000Y-198105000D03*
X458880000Y-198755000D03*
X458880000Y-199405000D03*
X458880000Y-200055000D03*
X458880000Y-200705000D03*
X452980000Y-200705000D03*
X452980000Y-200055000D03*
X452980000Y-199405000D03*
X452980000Y-198755000D03*
X452980000Y-198105000D03*
X452980000Y-197455000D03*
X452980000Y-196805000D03*
X341220000Y-179115000D03*
X341220000Y-178465000D03*
X341220000Y-177815000D03*
X341220000Y-177165000D03*
X341220000Y-176515000D03*
X341220000Y-175865000D03*
X341220000Y-175215000D03*
X347120000Y-175215000D03*
X347120000Y-175865000D03*
X347120000Y-176515000D03*
X347120000Y-177165000D03*
X347120000Y-177815000D03*
X347120000Y-178465000D03*
X347120000Y-179115000D03*
X341220000Y-187370000D03*
X341220000Y-186720000D03*
X341220000Y-186070000D03*
X341220000Y-185420000D03*
X341220000Y-184770000D03*
X341220000Y-184120000D03*
X341220000Y-183470000D03*
X347120000Y-183470000D03*
X347120000Y-184120000D03*
X347120000Y-184770000D03*
X347120000Y-185420000D03*
X347120000Y-186070000D03*
X347120000Y-186720000D03*
X347120000Y-187370000D03*
X341220000Y-195625000D03*
X341220000Y-194975000D03*
X341220000Y-194325000D03*
X341220000Y-193675000D03*
X341220000Y-193025000D03*
X341220000Y-192375000D03*
X341220000Y-191725000D03*
X347120000Y-191725000D03*
X347120000Y-192375000D03*
X347120000Y-193025000D03*
X347120000Y-193675000D03*
X347120000Y-194325000D03*
X347120000Y-194975000D03*
X347120000Y-195625000D03*
X341220000Y-203880000D03*
X341220000Y-203230000D03*
X341220000Y-202580000D03*
X341220000Y-201930000D03*
X341220000Y-201280000D03*
X341220000Y-200630000D03*
X341220000Y-199980000D03*
X347120000Y-199980000D03*
X347120000Y-200630000D03*
X347120000Y-201280000D03*
X347120000Y-201930000D03*
X347120000Y-202580000D03*
X347120000Y-203230000D03*
X347120000Y-203880000D03*
X341220000Y-212135000D03*
X341220000Y-211485000D03*
X341220000Y-210835000D03*
X341220000Y-210185000D03*
X341220000Y-209535000D03*
X341220000Y-208885000D03*
X341220000Y-208235000D03*
X347120000Y-208235000D03*
X347120000Y-208885000D03*
X347120000Y-209535000D03*
X347120000Y-210185000D03*
X347120000Y-210835000D03*
X347120000Y-211485000D03*
X347120000Y-212135000D03*
X341220000Y-220390000D03*
X341220000Y-219740000D03*
X341220000Y-219090000D03*
X341220000Y-218440000D03*
X341220000Y-217790000D03*
X341220000Y-217140000D03*
X341220000Y-216490000D03*
X347120000Y-216490000D03*
X347120000Y-217140000D03*
X347120000Y-217790000D03*
X347120000Y-218440000D03*
X347120000Y-219090000D03*
X347120000Y-219740000D03*
X347120000Y-220390000D03*
X341220000Y-228645000D03*
X341220000Y-227995000D03*
X341220000Y-227345000D03*
X341220000Y-226695000D03*
X341220000Y-226045000D03*
X341220000Y-225395000D03*
X341220000Y-224745000D03*
X347120000Y-224745000D03*
X347120000Y-225395000D03*
X347120000Y-226045000D03*
X347120000Y-226695000D03*
X347120000Y-227345000D03*
X347120000Y-227995000D03*
X347120000Y-228645000D03*
X341220000Y-236900000D03*
X341220000Y-236250000D03*
X341220000Y-235600000D03*
X341220000Y-234950000D03*
X341220000Y-234300000D03*
X341220000Y-233650000D03*
X341220000Y-233000000D03*
X347120000Y-233000000D03*
X347120000Y-233650000D03*
X347120000Y-234300000D03*
X347120000Y-234950000D03*
X347120000Y-235600000D03*
X347120000Y-236250000D03*
X347120000Y-236900000D03*
X341220000Y-245155000D03*
X341220000Y-244505000D03*
X341220000Y-243855000D03*
X341220000Y-243205000D03*
X341220000Y-242555000D03*
X341220000Y-241905000D03*
X341220000Y-241255000D03*
X347120000Y-241255000D03*
X347120000Y-241905000D03*
X347120000Y-242555000D03*
X347120000Y-243205000D03*
X347120000Y-243855000D03*
X347120000Y-244505000D03*
X347120000Y-245155000D03*
X341220000Y-253410000D03*
X341220000Y-252760000D03*
X341220000Y-252110000D03*
X341220000Y-251460000D03*
X341220000Y-250810000D03*
X341220000Y-250160000D03*
X341220000Y-249510000D03*
X347120000Y-249510000D03*
X347120000Y-250160000D03*
X347120000Y-250810000D03*
X347120000Y-251460000D03*
X347120000Y-252110000D03*
X347120000Y-252760000D03*
X347120000Y-253410000D03*
X341220000Y-261665000D03*
X341220000Y-261015000D03*
X341220000Y-260365000D03*
X341220000Y-259715000D03*
X341220000Y-259065000D03*
X341220000Y-258415000D03*
X341220000Y-257765000D03*
X347120000Y-257765000D03*
X347120000Y-258415000D03*
X347120000Y-259065000D03*
X347120000Y-259715000D03*
X347120000Y-260365000D03*
X347120000Y-261015000D03*
X347120000Y-261665000D03*
X341220000Y-269920000D03*
X341220000Y-269270000D03*
X341220000Y-268620000D03*
X341220000Y-267970000D03*
X341220000Y-267320000D03*
X341220000Y-266670000D03*
X341220000Y-266020000D03*
X347120000Y-266020000D03*
X347120000Y-266670000D03*
X347120000Y-267320000D03*
X347120000Y-267970000D03*
X347120000Y-268620000D03*
X347120000Y-269270000D03*
X347120000Y-269920000D03*
X341220000Y-278175000D03*
X341220000Y-277525000D03*
X341220000Y-276875000D03*
X341220000Y-276225000D03*
X341220000Y-275575000D03*
X341220000Y-274925000D03*
X341220000Y-274275000D03*
X347120000Y-274275000D03*
X347120000Y-274925000D03*
X347120000Y-275575000D03*
X347120000Y-276225000D03*
X347120000Y-276875000D03*
X347120000Y-277525000D03*
X347120000Y-278175000D03*
D12*
X453985354Y-258065000D03*
X446035354Y-258065000D03*
X453985354Y-253565000D03*
X446035354Y-253565000D03*
D10*
G36*
X458484504Y-256046204D02*
G01*
X458508773Y-256049804D01*
X458532571Y-256055765D01*
X458555671Y-256064030D01*
X458577849Y-256074520D01*
X458598893Y-256087133D01*
X458618598Y-256101747D01*
X458636777Y-256118223D01*
X458653253Y-256136402D01*
X458667867Y-256156107D01*
X458680480Y-256177151D01*
X458690970Y-256199329D01*
X458699235Y-256222429D01*
X458705196Y-256246227D01*
X458708796Y-256270496D01*
X458710000Y-256295000D01*
X458710000Y-257045000D01*
X458708796Y-257069504D01*
X458705196Y-257093773D01*
X458699235Y-257117571D01*
X458690970Y-257140671D01*
X458680480Y-257162849D01*
X458667867Y-257183893D01*
X458653253Y-257203598D01*
X458636777Y-257221777D01*
X458618598Y-257238253D01*
X458598893Y-257252867D01*
X458577849Y-257265480D01*
X458555671Y-257275970D01*
X458532571Y-257284235D01*
X458508773Y-257290196D01*
X458484504Y-257293796D01*
X458460000Y-257295000D01*
X457210000Y-257295000D01*
X457185496Y-257293796D01*
X457161227Y-257290196D01*
X457137429Y-257284235D01*
X457114329Y-257275970D01*
X457092151Y-257265480D01*
X457071107Y-257252867D01*
X457051402Y-257238253D01*
X457033223Y-257221777D01*
X457016747Y-257203598D01*
X457002133Y-257183893D01*
X456989520Y-257162849D01*
X456979030Y-257140671D01*
X456970765Y-257117571D01*
X456964804Y-257093773D01*
X456961204Y-257069504D01*
X456960000Y-257045000D01*
X456960000Y-256295000D01*
X456961204Y-256270496D01*
X456964804Y-256246227D01*
X456970765Y-256222429D01*
X456979030Y-256199329D01*
X456989520Y-256177151D01*
X457002133Y-256156107D01*
X457016747Y-256136402D01*
X457033223Y-256118223D01*
X457051402Y-256101747D01*
X457071107Y-256087133D01*
X457092151Y-256074520D01*
X457114329Y-256064030D01*
X457137429Y-256055765D01*
X457161227Y-256049804D01*
X457185496Y-256046204D01*
X457210000Y-256045000D01*
X458460000Y-256045000D01*
X458484504Y-256046204D01*
G37*
G36*
X458484504Y-253246204D02*
G01*
X458508773Y-253249804D01*
X458532571Y-253255765D01*
X458555671Y-253264030D01*
X458577849Y-253274520D01*
X458598893Y-253287133D01*
X458618598Y-253301747D01*
X458636777Y-253318223D01*
X458653253Y-253336402D01*
X458667867Y-253356107D01*
X458680480Y-253377151D01*
X458690970Y-253399329D01*
X458699235Y-253422429D01*
X458705196Y-253446227D01*
X458708796Y-253470496D01*
X458710000Y-253495000D01*
X458710000Y-254245000D01*
X458708796Y-254269504D01*
X458705196Y-254293773D01*
X458699235Y-254317571D01*
X458690970Y-254340671D01*
X458680480Y-254362849D01*
X458667867Y-254383893D01*
X458653253Y-254403598D01*
X458636777Y-254421777D01*
X458618598Y-254438253D01*
X458598893Y-254452867D01*
X458577849Y-254465480D01*
X458555671Y-254475970D01*
X458532571Y-254484235D01*
X458508773Y-254490196D01*
X458484504Y-254493796D01*
X458460000Y-254495000D01*
X457210000Y-254495000D01*
X457185496Y-254493796D01*
X457161227Y-254490196D01*
X457137429Y-254484235D01*
X457114329Y-254475970D01*
X457092151Y-254465480D01*
X457071107Y-254452867D01*
X457051402Y-254438253D01*
X457033223Y-254421777D01*
X457016747Y-254403598D01*
X457002133Y-254383893D01*
X456989520Y-254362849D01*
X456979030Y-254340671D01*
X456970765Y-254317571D01*
X456964804Y-254293773D01*
X456961204Y-254269504D01*
X456960000Y-254245000D01*
X456960000Y-253495000D01*
X456961204Y-253470496D01*
X456964804Y-253446227D01*
X456970765Y-253422429D01*
X456979030Y-253399329D01*
X456989520Y-253377151D01*
X457002133Y-253356107D01*
X457016747Y-253336402D01*
X457033223Y-253318223D01*
X457051402Y-253301747D01*
X457071107Y-253287133D01*
X457092151Y-253274520D01*
X457114329Y-253264030D01*
X457137429Y-253255765D01*
X457161227Y-253249804D01*
X457185496Y-253246204D01*
X457210000Y-253245000D01*
X458460000Y-253245000D01*
X458484504Y-253246204D01*
G37*
G36*
X467374504Y-255786204D02*
G01*
X467398773Y-255789804D01*
X467422571Y-255795765D01*
X467445671Y-255804030D01*
X467467849Y-255814520D01*
X467488893Y-255827133D01*
X467508598Y-255841747D01*
X467526777Y-255858223D01*
X467543253Y-255876402D01*
X467557867Y-255896107D01*
X467570480Y-255917151D01*
X467580970Y-255939329D01*
X467589235Y-255962429D01*
X467595196Y-255986227D01*
X467598796Y-256010496D01*
X467600000Y-256035000D01*
X467600000Y-256785000D01*
X467598796Y-256809504D01*
X467595196Y-256833773D01*
X467589235Y-256857571D01*
X467580970Y-256880671D01*
X467570480Y-256902849D01*
X467557867Y-256923893D01*
X467543253Y-256943598D01*
X467526777Y-256961777D01*
X467508598Y-256978253D01*
X467488893Y-256992867D01*
X467467849Y-257005480D01*
X467445671Y-257015970D01*
X467422571Y-257024235D01*
X467398773Y-257030196D01*
X467374504Y-257033796D01*
X467350000Y-257035000D01*
X466100000Y-257035000D01*
X466075496Y-257033796D01*
X466051227Y-257030196D01*
X466027429Y-257024235D01*
X466004329Y-257015970D01*
X465982151Y-257005480D01*
X465961107Y-256992867D01*
X465941402Y-256978253D01*
X465923223Y-256961777D01*
X465906747Y-256943598D01*
X465892133Y-256923893D01*
X465879520Y-256902849D01*
X465869030Y-256880671D01*
X465860765Y-256857571D01*
X465854804Y-256833773D01*
X465851204Y-256809504D01*
X465850000Y-256785000D01*
X465850000Y-256035000D01*
X465851204Y-256010496D01*
X465854804Y-255986227D01*
X465860765Y-255962429D01*
X465869030Y-255939329D01*
X465879520Y-255917151D01*
X465892133Y-255896107D01*
X465906747Y-255876402D01*
X465923223Y-255858223D01*
X465941402Y-255841747D01*
X465961107Y-255827133D01*
X465982151Y-255814520D01*
X466004329Y-255804030D01*
X466027429Y-255795765D01*
X466051227Y-255789804D01*
X466075496Y-255786204D01*
X466100000Y-255785000D01*
X467350000Y-255785000D01*
X467374504Y-255786204D01*
G37*
G36*
X467374504Y-258586204D02*
G01*
X467398773Y-258589804D01*
X467422571Y-258595765D01*
X467445671Y-258604030D01*
X467467849Y-258614520D01*
X467488893Y-258627133D01*
X467508598Y-258641747D01*
X467526777Y-258658223D01*
X467543253Y-258676402D01*
X467557867Y-258696107D01*
X467570480Y-258717151D01*
X467580970Y-258739329D01*
X467589235Y-258762429D01*
X467595196Y-258786227D01*
X467598796Y-258810496D01*
X467600000Y-258835000D01*
X467600000Y-259585000D01*
X467598796Y-259609504D01*
X467595196Y-259633773D01*
X467589235Y-259657571D01*
X467580970Y-259680671D01*
X467570480Y-259702849D01*
X467557867Y-259723893D01*
X467543253Y-259743598D01*
X467526777Y-259761777D01*
X467508598Y-259778253D01*
X467488893Y-259792867D01*
X467467849Y-259805480D01*
X467445671Y-259815970D01*
X467422571Y-259824235D01*
X467398773Y-259830196D01*
X467374504Y-259833796D01*
X467350000Y-259835000D01*
X466100000Y-259835000D01*
X466075496Y-259833796D01*
X466051227Y-259830196D01*
X466027429Y-259824235D01*
X466004329Y-259815970D01*
X465982151Y-259805480D01*
X465961107Y-259792867D01*
X465941402Y-259778253D01*
X465923223Y-259761777D01*
X465906747Y-259743598D01*
X465892133Y-259723893D01*
X465879520Y-259702849D01*
X465869030Y-259680671D01*
X465860765Y-259657571D01*
X465854804Y-259633773D01*
X465851204Y-259609504D01*
X465850000Y-259585000D01*
X465850000Y-258835000D01*
X465851204Y-258810496D01*
X465854804Y-258786227D01*
X465860765Y-258762429D01*
X465869030Y-258739329D01*
X465879520Y-258717151D01*
X465892133Y-258696107D01*
X465906747Y-258676402D01*
X465923223Y-258658223D01*
X465941402Y-258641747D01*
X465961107Y-258627133D01*
X465982151Y-258614520D01*
X466004329Y-258604030D01*
X466027429Y-258595765D01*
X466051227Y-258589804D01*
X466075496Y-258586204D01*
X466100000Y-258585000D01*
X467350000Y-258585000D01*
X467374504Y-258586204D01*
G37*
M02*
