G04 #@! TF.GenerationSoftware,KiCad,Pcbnew,5.1.5-52549c5~84~ubuntu18.04.1*
G04 #@! TF.CreationDate,2020-05-17T15:55:06-07:00*
G04 #@! TF.ProjectId,ram,72616d2e-6b69-4636-9164-5f7063625858,rev?*
G04 #@! TF.SameCoordinates,Original*
G04 #@! TF.FileFunction,Soldermask,Top*
G04 #@! TF.FilePolarity,Negative*
%FSLAX46Y46*%
G04 Gerber Fmt 4.6, Leading zero omitted, Abs format (unit mm)*
G04 Created by KiCad (PCBNEW 5.1.5-52549c5~84~ubuntu18.04.1) date 2020-05-17 15:55:06*
%MOMM*%
%LPD*%
G04 APERTURE LIST*
%ADD10C,0.100000*%
G04 APERTURE END LIST*
D10*
G36*
X235698254Y-91317818D02*
G01*
X236071511Y-91472426D01*
X236071513Y-91472427D01*
X236407436Y-91696884D01*
X236693116Y-91982564D01*
X236917574Y-92318489D01*
X237072182Y-92691746D01*
X237151000Y-93087993D01*
X237151000Y-93492007D01*
X237072182Y-93888254D01*
X236917574Y-94261511D01*
X236917573Y-94261513D01*
X236693116Y-94597436D01*
X236407436Y-94883116D01*
X236071513Y-95107573D01*
X236071512Y-95107574D01*
X236071511Y-95107574D01*
X235698254Y-95262182D01*
X235302007Y-95341000D01*
X234897993Y-95341000D01*
X234501746Y-95262182D01*
X234128489Y-95107574D01*
X234128488Y-95107574D01*
X234128487Y-95107573D01*
X233792564Y-94883116D01*
X233506884Y-94597436D01*
X233282427Y-94261513D01*
X233282426Y-94261511D01*
X233127818Y-93888254D01*
X233049000Y-93492007D01*
X233049000Y-93087993D01*
X233127818Y-92691746D01*
X233282426Y-92318489D01*
X233506884Y-91982564D01*
X233792564Y-91696884D01*
X234128487Y-91472427D01*
X234128489Y-91472426D01*
X234501746Y-91317818D01*
X234897993Y-91239000D01*
X235302007Y-91239000D01*
X235698254Y-91317818D01*
G37*
G36*
X200346000Y-91356000D02*
G01*
X195894000Y-91356000D01*
X195894000Y-89804000D01*
X200346000Y-89804000D01*
X200346000Y-91356000D01*
G37*
G36*
X206696000Y-91356000D02*
G01*
X202244000Y-91356000D01*
X202244000Y-89804000D01*
X206696000Y-89804000D01*
X206696000Y-91356000D01*
G37*
G36*
X213046000Y-91356000D02*
G01*
X208594000Y-91356000D01*
X208594000Y-89804000D01*
X213046000Y-89804000D01*
X213046000Y-91356000D01*
G37*
G36*
X193996000Y-91356000D02*
G01*
X189544000Y-91356000D01*
X189544000Y-89804000D01*
X193996000Y-89804000D01*
X193996000Y-91356000D01*
G37*
G36*
X162673512Y-88003927D02*
G01*
X162822812Y-88033624D01*
X162986784Y-88101544D01*
X163134354Y-88200147D01*
X163259853Y-88325646D01*
X163358456Y-88473216D01*
X163426376Y-88637188D01*
X163461000Y-88811259D01*
X163461000Y-88988741D01*
X163426376Y-89162812D01*
X163358456Y-89326784D01*
X163259853Y-89474354D01*
X163134354Y-89599853D01*
X162986784Y-89698456D01*
X162822812Y-89766376D01*
X162673512Y-89796073D01*
X162648742Y-89801000D01*
X162471258Y-89801000D01*
X162446488Y-89796073D01*
X162297188Y-89766376D01*
X162133216Y-89698456D01*
X161985646Y-89599853D01*
X161860147Y-89474354D01*
X161761544Y-89326784D01*
X161693624Y-89162812D01*
X161659000Y-88988741D01*
X161659000Y-88811259D01*
X161693624Y-88637188D01*
X161761544Y-88473216D01*
X161860147Y-88325646D01*
X161985646Y-88200147D01*
X162133216Y-88101544D01*
X162297188Y-88033624D01*
X162446488Y-88003927D01*
X162471258Y-87999000D01*
X162648742Y-87999000D01*
X162673512Y-88003927D01*
G37*
G36*
X175373512Y-88003927D02*
G01*
X175522812Y-88033624D01*
X175686784Y-88101544D01*
X175834354Y-88200147D01*
X175959853Y-88325646D01*
X176058456Y-88473216D01*
X176126376Y-88637188D01*
X176161000Y-88811259D01*
X176161000Y-88988741D01*
X176126376Y-89162812D01*
X176058456Y-89326784D01*
X175959853Y-89474354D01*
X175834354Y-89599853D01*
X175686784Y-89698456D01*
X175522812Y-89766376D01*
X175373512Y-89796073D01*
X175348742Y-89801000D01*
X175171258Y-89801000D01*
X175146488Y-89796073D01*
X174997188Y-89766376D01*
X174833216Y-89698456D01*
X174685646Y-89599853D01*
X174560147Y-89474354D01*
X174461544Y-89326784D01*
X174393624Y-89162812D01*
X174359000Y-88988741D01*
X174359000Y-88811259D01*
X174393624Y-88637188D01*
X174461544Y-88473216D01*
X174560147Y-88325646D01*
X174685646Y-88200147D01*
X174833216Y-88101544D01*
X174997188Y-88033624D01*
X175146488Y-88003927D01*
X175171258Y-87999000D01*
X175348742Y-87999000D01*
X175373512Y-88003927D01*
G37*
G36*
X172833512Y-88003927D02*
G01*
X172982812Y-88033624D01*
X173146784Y-88101544D01*
X173294354Y-88200147D01*
X173419853Y-88325646D01*
X173518456Y-88473216D01*
X173586376Y-88637188D01*
X173621000Y-88811259D01*
X173621000Y-88988741D01*
X173586376Y-89162812D01*
X173518456Y-89326784D01*
X173419853Y-89474354D01*
X173294354Y-89599853D01*
X173146784Y-89698456D01*
X172982812Y-89766376D01*
X172833512Y-89796073D01*
X172808742Y-89801000D01*
X172631258Y-89801000D01*
X172606488Y-89796073D01*
X172457188Y-89766376D01*
X172293216Y-89698456D01*
X172145646Y-89599853D01*
X172020147Y-89474354D01*
X171921544Y-89326784D01*
X171853624Y-89162812D01*
X171819000Y-88988741D01*
X171819000Y-88811259D01*
X171853624Y-88637188D01*
X171921544Y-88473216D01*
X172020147Y-88325646D01*
X172145646Y-88200147D01*
X172293216Y-88101544D01*
X172457188Y-88033624D01*
X172606488Y-88003927D01*
X172631258Y-87999000D01*
X172808742Y-87999000D01*
X172833512Y-88003927D01*
G37*
G36*
X170293512Y-88003927D02*
G01*
X170442812Y-88033624D01*
X170606784Y-88101544D01*
X170754354Y-88200147D01*
X170879853Y-88325646D01*
X170978456Y-88473216D01*
X171046376Y-88637188D01*
X171081000Y-88811259D01*
X171081000Y-88988741D01*
X171046376Y-89162812D01*
X170978456Y-89326784D01*
X170879853Y-89474354D01*
X170754354Y-89599853D01*
X170606784Y-89698456D01*
X170442812Y-89766376D01*
X170293512Y-89796073D01*
X170268742Y-89801000D01*
X170091258Y-89801000D01*
X170066488Y-89796073D01*
X169917188Y-89766376D01*
X169753216Y-89698456D01*
X169605646Y-89599853D01*
X169480147Y-89474354D01*
X169381544Y-89326784D01*
X169313624Y-89162812D01*
X169279000Y-88988741D01*
X169279000Y-88811259D01*
X169313624Y-88637188D01*
X169381544Y-88473216D01*
X169480147Y-88325646D01*
X169605646Y-88200147D01*
X169753216Y-88101544D01*
X169917188Y-88033624D01*
X170066488Y-88003927D01*
X170091258Y-87999000D01*
X170268742Y-87999000D01*
X170293512Y-88003927D01*
G37*
G36*
X167753512Y-88003927D02*
G01*
X167902812Y-88033624D01*
X168066784Y-88101544D01*
X168214354Y-88200147D01*
X168339853Y-88325646D01*
X168438456Y-88473216D01*
X168506376Y-88637188D01*
X168541000Y-88811259D01*
X168541000Y-88988741D01*
X168506376Y-89162812D01*
X168438456Y-89326784D01*
X168339853Y-89474354D01*
X168214354Y-89599853D01*
X168066784Y-89698456D01*
X167902812Y-89766376D01*
X167753512Y-89796073D01*
X167728742Y-89801000D01*
X167551258Y-89801000D01*
X167526488Y-89796073D01*
X167377188Y-89766376D01*
X167213216Y-89698456D01*
X167065646Y-89599853D01*
X166940147Y-89474354D01*
X166841544Y-89326784D01*
X166773624Y-89162812D01*
X166739000Y-88988741D01*
X166739000Y-88811259D01*
X166773624Y-88637188D01*
X166841544Y-88473216D01*
X166940147Y-88325646D01*
X167065646Y-88200147D01*
X167213216Y-88101544D01*
X167377188Y-88033624D01*
X167526488Y-88003927D01*
X167551258Y-87999000D01*
X167728742Y-87999000D01*
X167753512Y-88003927D01*
G37*
G36*
X165213512Y-88003927D02*
G01*
X165362812Y-88033624D01*
X165526784Y-88101544D01*
X165674354Y-88200147D01*
X165799853Y-88325646D01*
X165898456Y-88473216D01*
X165966376Y-88637188D01*
X166001000Y-88811259D01*
X166001000Y-88988741D01*
X165966376Y-89162812D01*
X165898456Y-89326784D01*
X165799853Y-89474354D01*
X165674354Y-89599853D01*
X165526784Y-89698456D01*
X165362812Y-89766376D01*
X165213512Y-89796073D01*
X165188742Y-89801000D01*
X165011258Y-89801000D01*
X164986488Y-89796073D01*
X164837188Y-89766376D01*
X164673216Y-89698456D01*
X164525646Y-89599853D01*
X164400147Y-89474354D01*
X164301544Y-89326784D01*
X164233624Y-89162812D01*
X164199000Y-88988741D01*
X164199000Y-88811259D01*
X164233624Y-88637188D01*
X164301544Y-88473216D01*
X164400147Y-88325646D01*
X164525646Y-88200147D01*
X164673216Y-88101544D01*
X164837188Y-88033624D01*
X164986488Y-88003927D01*
X165011258Y-87999000D01*
X165188742Y-87999000D01*
X165213512Y-88003927D01*
G37*
G36*
X160133512Y-88003927D02*
G01*
X160282812Y-88033624D01*
X160446784Y-88101544D01*
X160594354Y-88200147D01*
X160719853Y-88325646D01*
X160818456Y-88473216D01*
X160886376Y-88637188D01*
X160921000Y-88811259D01*
X160921000Y-88988741D01*
X160886376Y-89162812D01*
X160818456Y-89326784D01*
X160719853Y-89474354D01*
X160594354Y-89599853D01*
X160446784Y-89698456D01*
X160282812Y-89766376D01*
X160133512Y-89796073D01*
X160108742Y-89801000D01*
X159931258Y-89801000D01*
X159906488Y-89796073D01*
X159757188Y-89766376D01*
X159593216Y-89698456D01*
X159445646Y-89599853D01*
X159320147Y-89474354D01*
X159221544Y-89326784D01*
X159153624Y-89162812D01*
X159119000Y-88988741D01*
X159119000Y-88811259D01*
X159153624Y-88637188D01*
X159221544Y-88473216D01*
X159320147Y-88325646D01*
X159445646Y-88200147D01*
X159593216Y-88101544D01*
X159757188Y-88033624D01*
X159906488Y-88003927D01*
X159931258Y-87999000D01*
X160108742Y-87999000D01*
X160133512Y-88003927D01*
G37*
G36*
X157593512Y-88003927D02*
G01*
X157742812Y-88033624D01*
X157906784Y-88101544D01*
X158054354Y-88200147D01*
X158179853Y-88325646D01*
X158278456Y-88473216D01*
X158346376Y-88637188D01*
X158381000Y-88811259D01*
X158381000Y-88988741D01*
X158346376Y-89162812D01*
X158278456Y-89326784D01*
X158179853Y-89474354D01*
X158054354Y-89599853D01*
X157906784Y-89698456D01*
X157742812Y-89766376D01*
X157593512Y-89796073D01*
X157568742Y-89801000D01*
X157391258Y-89801000D01*
X157366488Y-89796073D01*
X157217188Y-89766376D01*
X157053216Y-89698456D01*
X156905646Y-89599853D01*
X156780147Y-89474354D01*
X156681544Y-89326784D01*
X156613624Y-89162812D01*
X156579000Y-88988741D01*
X156579000Y-88811259D01*
X156613624Y-88637188D01*
X156681544Y-88473216D01*
X156780147Y-88325646D01*
X156905646Y-88200147D01*
X157053216Y-88101544D01*
X157217188Y-88033624D01*
X157366488Y-88003927D01*
X157391258Y-87999000D01*
X157568742Y-87999000D01*
X157593512Y-88003927D01*
G37*
G36*
X177913512Y-88003927D02*
G01*
X178062812Y-88033624D01*
X178226784Y-88101544D01*
X178374354Y-88200147D01*
X178499853Y-88325646D01*
X178598456Y-88473216D01*
X178666376Y-88637188D01*
X178701000Y-88811259D01*
X178701000Y-88988741D01*
X178666376Y-89162812D01*
X178598456Y-89326784D01*
X178499853Y-89474354D01*
X178374354Y-89599853D01*
X178226784Y-89698456D01*
X178062812Y-89766376D01*
X177913512Y-89796073D01*
X177888742Y-89801000D01*
X177711258Y-89801000D01*
X177686488Y-89796073D01*
X177537188Y-89766376D01*
X177373216Y-89698456D01*
X177225646Y-89599853D01*
X177100147Y-89474354D01*
X177001544Y-89326784D01*
X176933624Y-89162812D01*
X176899000Y-88988741D01*
X176899000Y-88811259D01*
X176933624Y-88637188D01*
X177001544Y-88473216D01*
X177100147Y-88325646D01*
X177225646Y-88200147D01*
X177373216Y-88101544D01*
X177537188Y-88033624D01*
X177686488Y-88003927D01*
X177711258Y-87999000D01*
X177888742Y-87999000D01*
X177913512Y-88003927D01*
G37*
G36*
X167753512Y-85463927D02*
G01*
X167902812Y-85493624D01*
X168066784Y-85561544D01*
X168214354Y-85660147D01*
X168339853Y-85785646D01*
X168438456Y-85933216D01*
X168506376Y-86097188D01*
X168541000Y-86271259D01*
X168541000Y-86448741D01*
X168506376Y-86622812D01*
X168438456Y-86786784D01*
X168339853Y-86934354D01*
X168214354Y-87059853D01*
X168066784Y-87158456D01*
X167902812Y-87226376D01*
X167753512Y-87256073D01*
X167728742Y-87261000D01*
X167551258Y-87261000D01*
X167526488Y-87256073D01*
X167377188Y-87226376D01*
X167213216Y-87158456D01*
X167065646Y-87059853D01*
X166940147Y-86934354D01*
X166841544Y-86786784D01*
X166773624Y-86622812D01*
X166739000Y-86448741D01*
X166739000Y-86271259D01*
X166773624Y-86097188D01*
X166841544Y-85933216D01*
X166940147Y-85785646D01*
X167065646Y-85660147D01*
X167213216Y-85561544D01*
X167377188Y-85493624D01*
X167526488Y-85463927D01*
X167551258Y-85459000D01*
X167728742Y-85459000D01*
X167753512Y-85463927D01*
G37*
G36*
X178701000Y-87261000D02*
G01*
X176899000Y-87261000D01*
X176899000Y-85459000D01*
X178701000Y-85459000D01*
X178701000Y-87261000D01*
G37*
G36*
X175373512Y-85463927D02*
G01*
X175522812Y-85493624D01*
X175686784Y-85561544D01*
X175834354Y-85660147D01*
X175959853Y-85785646D01*
X176058456Y-85933216D01*
X176126376Y-86097188D01*
X176161000Y-86271259D01*
X176161000Y-86448741D01*
X176126376Y-86622812D01*
X176058456Y-86786784D01*
X175959853Y-86934354D01*
X175834354Y-87059853D01*
X175686784Y-87158456D01*
X175522812Y-87226376D01*
X175373512Y-87256073D01*
X175348742Y-87261000D01*
X175171258Y-87261000D01*
X175146488Y-87256073D01*
X174997188Y-87226376D01*
X174833216Y-87158456D01*
X174685646Y-87059853D01*
X174560147Y-86934354D01*
X174461544Y-86786784D01*
X174393624Y-86622812D01*
X174359000Y-86448741D01*
X174359000Y-86271259D01*
X174393624Y-86097188D01*
X174461544Y-85933216D01*
X174560147Y-85785646D01*
X174685646Y-85660147D01*
X174833216Y-85561544D01*
X174997188Y-85493624D01*
X175146488Y-85463927D01*
X175171258Y-85459000D01*
X175348742Y-85459000D01*
X175373512Y-85463927D01*
G37*
G36*
X172833512Y-85463927D02*
G01*
X172982812Y-85493624D01*
X173146784Y-85561544D01*
X173294354Y-85660147D01*
X173419853Y-85785646D01*
X173518456Y-85933216D01*
X173586376Y-86097188D01*
X173621000Y-86271259D01*
X173621000Y-86448741D01*
X173586376Y-86622812D01*
X173518456Y-86786784D01*
X173419853Y-86934354D01*
X173294354Y-87059853D01*
X173146784Y-87158456D01*
X172982812Y-87226376D01*
X172833512Y-87256073D01*
X172808742Y-87261000D01*
X172631258Y-87261000D01*
X172606488Y-87256073D01*
X172457188Y-87226376D01*
X172293216Y-87158456D01*
X172145646Y-87059853D01*
X172020147Y-86934354D01*
X171921544Y-86786784D01*
X171853624Y-86622812D01*
X171819000Y-86448741D01*
X171819000Y-86271259D01*
X171853624Y-86097188D01*
X171921544Y-85933216D01*
X172020147Y-85785646D01*
X172145646Y-85660147D01*
X172293216Y-85561544D01*
X172457188Y-85493624D01*
X172606488Y-85463927D01*
X172631258Y-85459000D01*
X172808742Y-85459000D01*
X172833512Y-85463927D01*
G37*
G36*
X170293512Y-85463927D02*
G01*
X170442812Y-85493624D01*
X170606784Y-85561544D01*
X170754354Y-85660147D01*
X170879853Y-85785646D01*
X170978456Y-85933216D01*
X171046376Y-86097188D01*
X171081000Y-86271259D01*
X171081000Y-86448741D01*
X171046376Y-86622812D01*
X170978456Y-86786784D01*
X170879853Y-86934354D01*
X170754354Y-87059853D01*
X170606784Y-87158456D01*
X170442812Y-87226376D01*
X170293512Y-87256073D01*
X170268742Y-87261000D01*
X170091258Y-87261000D01*
X170066488Y-87256073D01*
X169917188Y-87226376D01*
X169753216Y-87158456D01*
X169605646Y-87059853D01*
X169480147Y-86934354D01*
X169381544Y-86786784D01*
X169313624Y-86622812D01*
X169279000Y-86448741D01*
X169279000Y-86271259D01*
X169313624Y-86097188D01*
X169381544Y-85933216D01*
X169480147Y-85785646D01*
X169605646Y-85660147D01*
X169753216Y-85561544D01*
X169917188Y-85493624D01*
X170066488Y-85463927D01*
X170091258Y-85459000D01*
X170268742Y-85459000D01*
X170293512Y-85463927D01*
G37*
G36*
X165213512Y-85463927D02*
G01*
X165362812Y-85493624D01*
X165526784Y-85561544D01*
X165674354Y-85660147D01*
X165799853Y-85785646D01*
X165898456Y-85933216D01*
X165966376Y-86097188D01*
X166001000Y-86271259D01*
X166001000Y-86448741D01*
X165966376Y-86622812D01*
X165898456Y-86786784D01*
X165799853Y-86934354D01*
X165674354Y-87059853D01*
X165526784Y-87158456D01*
X165362812Y-87226376D01*
X165213512Y-87256073D01*
X165188742Y-87261000D01*
X165011258Y-87261000D01*
X164986488Y-87256073D01*
X164837188Y-87226376D01*
X164673216Y-87158456D01*
X164525646Y-87059853D01*
X164400147Y-86934354D01*
X164301544Y-86786784D01*
X164233624Y-86622812D01*
X164199000Y-86448741D01*
X164199000Y-86271259D01*
X164233624Y-86097188D01*
X164301544Y-85933216D01*
X164400147Y-85785646D01*
X164525646Y-85660147D01*
X164673216Y-85561544D01*
X164837188Y-85493624D01*
X164986488Y-85463927D01*
X165011258Y-85459000D01*
X165188742Y-85459000D01*
X165213512Y-85463927D01*
G37*
G36*
X162673512Y-85463927D02*
G01*
X162822812Y-85493624D01*
X162986784Y-85561544D01*
X163134354Y-85660147D01*
X163259853Y-85785646D01*
X163358456Y-85933216D01*
X163426376Y-86097188D01*
X163461000Y-86271259D01*
X163461000Y-86448741D01*
X163426376Y-86622812D01*
X163358456Y-86786784D01*
X163259853Y-86934354D01*
X163134354Y-87059853D01*
X162986784Y-87158456D01*
X162822812Y-87226376D01*
X162673512Y-87256073D01*
X162648742Y-87261000D01*
X162471258Y-87261000D01*
X162446488Y-87256073D01*
X162297188Y-87226376D01*
X162133216Y-87158456D01*
X161985646Y-87059853D01*
X161860147Y-86934354D01*
X161761544Y-86786784D01*
X161693624Y-86622812D01*
X161659000Y-86448741D01*
X161659000Y-86271259D01*
X161693624Y-86097188D01*
X161761544Y-85933216D01*
X161860147Y-85785646D01*
X161985646Y-85660147D01*
X162133216Y-85561544D01*
X162297188Y-85493624D01*
X162446488Y-85463927D01*
X162471258Y-85459000D01*
X162648742Y-85459000D01*
X162673512Y-85463927D01*
G37*
G36*
X160133512Y-85463927D02*
G01*
X160282812Y-85493624D01*
X160446784Y-85561544D01*
X160594354Y-85660147D01*
X160719853Y-85785646D01*
X160818456Y-85933216D01*
X160886376Y-86097188D01*
X160921000Y-86271259D01*
X160921000Y-86448741D01*
X160886376Y-86622812D01*
X160818456Y-86786784D01*
X160719853Y-86934354D01*
X160594354Y-87059853D01*
X160446784Y-87158456D01*
X160282812Y-87226376D01*
X160133512Y-87256073D01*
X160108742Y-87261000D01*
X159931258Y-87261000D01*
X159906488Y-87256073D01*
X159757188Y-87226376D01*
X159593216Y-87158456D01*
X159445646Y-87059853D01*
X159320147Y-86934354D01*
X159221544Y-86786784D01*
X159153624Y-86622812D01*
X159119000Y-86448741D01*
X159119000Y-86271259D01*
X159153624Y-86097188D01*
X159221544Y-85933216D01*
X159320147Y-85785646D01*
X159445646Y-85660147D01*
X159593216Y-85561544D01*
X159757188Y-85493624D01*
X159906488Y-85463927D01*
X159931258Y-85459000D01*
X160108742Y-85459000D01*
X160133512Y-85463927D01*
G37*
G36*
X157593512Y-85463927D02*
G01*
X157742812Y-85493624D01*
X157906784Y-85561544D01*
X158054354Y-85660147D01*
X158179853Y-85785646D01*
X158278456Y-85933216D01*
X158346376Y-86097188D01*
X158381000Y-86271259D01*
X158381000Y-86448741D01*
X158346376Y-86622812D01*
X158278456Y-86786784D01*
X158179853Y-86934354D01*
X158054354Y-87059853D01*
X157906784Y-87158456D01*
X157742812Y-87226376D01*
X157593512Y-87256073D01*
X157568742Y-87261000D01*
X157391258Y-87261000D01*
X157366488Y-87256073D01*
X157217188Y-87226376D01*
X157053216Y-87158456D01*
X156905646Y-87059853D01*
X156780147Y-86934354D01*
X156681544Y-86786784D01*
X156613624Y-86622812D01*
X156579000Y-86448741D01*
X156579000Y-86271259D01*
X156613624Y-86097188D01*
X156681544Y-85933216D01*
X156780147Y-85785646D01*
X156905646Y-85660147D01*
X157053216Y-85561544D01*
X157217188Y-85493624D01*
X157366488Y-85463927D01*
X157391258Y-85459000D01*
X157568742Y-85459000D01*
X157593512Y-85463927D01*
G37*
G36*
X234531000Y-87211000D02*
G01*
X232829000Y-87211000D01*
X232829000Y-85509000D01*
X234531000Y-85509000D01*
X234531000Y-87211000D01*
G37*
G36*
X236768228Y-84156703D02*
G01*
X236923100Y-84220853D01*
X237062481Y-84313985D01*
X237181015Y-84432519D01*
X237274147Y-84571900D01*
X237338297Y-84726772D01*
X237371000Y-84891184D01*
X237371000Y-85058816D01*
X237338297Y-85223228D01*
X237274147Y-85378100D01*
X237181015Y-85517481D01*
X237062481Y-85636015D01*
X236923100Y-85729147D01*
X236768228Y-85793297D01*
X236603816Y-85826000D01*
X236436184Y-85826000D01*
X236271772Y-85793297D01*
X236116900Y-85729147D01*
X235977519Y-85636015D01*
X235858985Y-85517481D01*
X235765853Y-85378100D01*
X235701703Y-85223228D01*
X235669000Y-85058816D01*
X235669000Y-84891184D01*
X235701703Y-84726772D01*
X235765853Y-84571900D01*
X235858985Y-84432519D01*
X235977519Y-84313985D01*
X236116900Y-84220853D01*
X236271772Y-84156703D01*
X236436184Y-84124000D01*
X236603816Y-84124000D01*
X236768228Y-84156703D01*
G37*
G36*
X225746000Y-85641000D02*
G01*
X221294000Y-85641000D01*
X221294000Y-84089000D01*
X225746000Y-84089000D01*
X225746000Y-85641000D01*
G37*
G36*
X213046000Y-85456000D02*
G01*
X208594000Y-85456000D01*
X208594000Y-83904000D01*
X213046000Y-83904000D01*
X213046000Y-85456000D01*
G37*
G36*
X200346000Y-85456000D02*
G01*
X195894000Y-85456000D01*
X195894000Y-83904000D01*
X200346000Y-83904000D01*
X200346000Y-85456000D01*
G37*
G36*
X193996000Y-85456000D02*
G01*
X189544000Y-85456000D01*
X189544000Y-83904000D01*
X193996000Y-83904000D01*
X193996000Y-85456000D01*
G37*
G36*
X206696000Y-85456000D02*
G01*
X202244000Y-85456000D01*
X202244000Y-83904000D01*
X206696000Y-83904000D01*
X206696000Y-85456000D01*
G37*
G36*
X233928228Y-82771703D02*
G01*
X234083100Y-82835853D01*
X234222481Y-82928985D01*
X234341015Y-83047519D01*
X234434147Y-83186900D01*
X234498297Y-83341772D01*
X234531000Y-83506184D01*
X234531000Y-83673816D01*
X234498297Y-83838228D01*
X234434147Y-83993100D01*
X234341015Y-84132481D01*
X234222481Y-84251015D01*
X234083100Y-84344147D01*
X233928228Y-84408297D01*
X233763816Y-84441000D01*
X233596184Y-84441000D01*
X233431772Y-84408297D01*
X233276900Y-84344147D01*
X233137519Y-84251015D01*
X233018985Y-84132481D01*
X232925853Y-83993100D01*
X232861703Y-83838228D01*
X232829000Y-83673816D01*
X232829000Y-83506184D01*
X232861703Y-83341772D01*
X232925853Y-83186900D01*
X233018985Y-83047519D01*
X233137519Y-82928985D01*
X233276900Y-82835853D01*
X233431772Y-82771703D01*
X233596184Y-82739000D01*
X233763816Y-82739000D01*
X233928228Y-82771703D01*
G37*
G36*
X236768228Y-81386703D02*
G01*
X236923100Y-81450853D01*
X237062481Y-81543985D01*
X237181015Y-81662519D01*
X237274147Y-81801900D01*
X237338297Y-81956772D01*
X237371000Y-82121184D01*
X237371000Y-82288816D01*
X237338297Y-82453228D01*
X237274147Y-82608100D01*
X237181015Y-82747481D01*
X237062481Y-82866015D01*
X236923100Y-82959147D01*
X236768228Y-83023297D01*
X236603816Y-83056000D01*
X236436184Y-83056000D01*
X236271772Y-83023297D01*
X236116900Y-82959147D01*
X235977519Y-82866015D01*
X235858985Y-82747481D01*
X235765853Y-82608100D01*
X235701703Y-82453228D01*
X235669000Y-82288816D01*
X235669000Y-82121184D01*
X235701703Y-81956772D01*
X235765853Y-81801900D01*
X235858985Y-81662519D01*
X235977519Y-81543985D01*
X236116900Y-81450853D01*
X236271772Y-81386703D01*
X236436184Y-81354000D01*
X236603816Y-81354000D01*
X236768228Y-81386703D01*
G37*
G36*
X233928228Y-80001703D02*
G01*
X234083100Y-80065853D01*
X234222481Y-80158985D01*
X234341015Y-80277519D01*
X234434147Y-80416900D01*
X234498297Y-80571772D01*
X234531000Y-80736184D01*
X234531000Y-80903816D01*
X234498297Y-81068228D01*
X234434147Y-81223100D01*
X234341015Y-81362481D01*
X234222481Y-81481015D01*
X234083100Y-81574147D01*
X233928228Y-81638297D01*
X233763816Y-81671000D01*
X233596184Y-81671000D01*
X233431772Y-81638297D01*
X233276900Y-81574147D01*
X233137519Y-81481015D01*
X233018985Y-81362481D01*
X232925853Y-81223100D01*
X232861703Y-81068228D01*
X232829000Y-80903816D01*
X232829000Y-80736184D01*
X232861703Y-80571772D01*
X232925853Y-80416900D01*
X233018985Y-80277519D01*
X233137519Y-80158985D01*
X233276900Y-80065853D01*
X233431772Y-80001703D01*
X233596184Y-79969000D01*
X233763816Y-79969000D01*
X233928228Y-80001703D01*
G37*
G36*
X193996000Y-81196000D02*
G01*
X189544000Y-81196000D01*
X189544000Y-79644000D01*
X193996000Y-79644000D01*
X193996000Y-81196000D01*
G37*
G36*
X200346000Y-81196000D02*
G01*
X195894000Y-81196000D01*
X195894000Y-79644000D01*
X200346000Y-79644000D01*
X200346000Y-81196000D01*
G37*
G36*
X206696000Y-81196000D02*
G01*
X202244000Y-81196000D01*
X202244000Y-79644000D01*
X206696000Y-79644000D01*
X206696000Y-81196000D01*
G37*
G36*
X213046000Y-81196000D02*
G01*
X208594000Y-81196000D01*
X208594000Y-79644000D01*
X213046000Y-79644000D01*
X213046000Y-81196000D01*
G37*
G36*
X236768228Y-78616703D02*
G01*
X236923100Y-78680853D01*
X237062481Y-78773985D01*
X237181015Y-78892519D01*
X237274147Y-79031900D01*
X237338297Y-79186772D01*
X237371000Y-79351184D01*
X237371000Y-79518816D01*
X237338297Y-79683228D01*
X237274147Y-79838100D01*
X237181015Y-79977481D01*
X237062481Y-80096015D01*
X236923100Y-80189147D01*
X236768228Y-80253297D01*
X236603816Y-80286000D01*
X236436184Y-80286000D01*
X236271772Y-80253297D01*
X236116900Y-80189147D01*
X235977519Y-80096015D01*
X235858985Y-79977481D01*
X235765853Y-79838100D01*
X235701703Y-79683228D01*
X235669000Y-79518816D01*
X235669000Y-79351184D01*
X235701703Y-79186772D01*
X235765853Y-79031900D01*
X235858985Y-78892519D01*
X235977519Y-78773985D01*
X236116900Y-78680853D01*
X236271772Y-78616703D01*
X236436184Y-78584000D01*
X236603816Y-78584000D01*
X236768228Y-78616703D01*
G37*
G36*
X225746000Y-79741000D02*
G01*
X221294000Y-79741000D01*
X221294000Y-78189000D01*
X225746000Y-78189000D01*
X225746000Y-79741000D01*
G37*
G36*
X233928228Y-77231703D02*
G01*
X234083100Y-77295853D01*
X234222481Y-77388985D01*
X234341015Y-77507519D01*
X234434147Y-77646900D01*
X234498297Y-77801772D01*
X234531000Y-77966184D01*
X234531000Y-78133816D01*
X234498297Y-78298228D01*
X234434147Y-78453100D01*
X234341015Y-78592481D01*
X234222481Y-78711015D01*
X234083100Y-78804147D01*
X233928228Y-78868297D01*
X233763816Y-78901000D01*
X233596184Y-78901000D01*
X233431772Y-78868297D01*
X233276900Y-78804147D01*
X233137519Y-78711015D01*
X233018985Y-78592481D01*
X232925853Y-78453100D01*
X232861703Y-78298228D01*
X232829000Y-78133816D01*
X232829000Y-77966184D01*
X232861703Y-77801772D01*
X232925853Y-77646900D01*
X233018985Y-77507519D01*
X233137519Y-77388985D01*
X233276900Y-77295853D01*
X233431772Y-77231703D01*
X233596184Y-77199000D01*
X233763816Y-77199000D01*
X233928228Y-77231703D01*
G37*
G36*
X236768228Y-75846703D02*
G01*
X236923100Y-75910853D01*
X237062481Y-76003985D01*
X237181015Y-76122519D01*
X237274147Y-76261900D01*
X237338297Y-76416772D01*
X237371000Y-76581184D01*
X237371000Y-76748816D01*
X237338297Y-76913228D01*
X237274147Y-77068100D01*
X237181015Y-77207481D01*
X237062481Y-77326015D01*
X236923100Y-77419147D01*
X236768228Y-77483297D01*
X236603816Y-77516000D01*
X236436184Y-77516000D01*
X236271772Y-77483297D01*
X236116900Y-77419147D01*
X235977519Y-77326015D01*
X235858985Y-77207481D01*
X235765853Y-77068100D01*
X235701703Y-76913228D01*
X235669000Y-76748816D01*
X235669000Y-76581184D01*
X235701703Y-76416772D01*
X235765853Y-76261900D01*
X235858985Y-76122519D01*
X235977519Y-76003985D01*
X236116900Y-75910853D01*
X236271772Y-75846703D01*
X236436184Y-75814000D01*
X236603816Y-75814000D01*
X236768228Y-75846703D01*
G37*
G36*
X233928228Y-74461703D02*
G01*
X234083100Y-74525853D01*
X234222481Y-74618985D01*
X234341015Y-74737519D01*
X234434147Y-74876900D01*
X234498297Y-75031772D01*
X234531000Y-75196184D01*
X234531000Y-75363816D01*
X234498297Y-75528228D01*
X234434147Y-75683100D01*
X234341015Y-75822481D01*
X234222481Y-75941015D01*
X234083100Y-76034147D01*
X233928228Y-76098297D01*
X233763816Y-76131000D01*
X233596184Y-76131000D01*
X233431772Y-76098297D01*
X233276900Y-76034147D01*
X233137519Y-75941015D01*
X233018985Y-75822481D01*
X232925853Y-75683100D01*
X232861703Y-75528228D01*
X232829000Y-75363816D01*
X232829000Y-75196184D01*
X232861703Y-75031772D01*
X232925853Y-74876900D01*
X233018985Y-74737519D01*
X233137519Y-74618985D01*
X233276900Y-74525853D01*
X233431772Y-74461703D01*
X233596184Y-74429000D01*
X233763816Y-74429000D01*
X233928228Y-74461703D01*
G37*
G36*
X213046000Y-75296000D02*
G01*
X208594000Y-75296000D01*
X208594000Y-73744000D01*
X213046000Y-73744000D01*
X213046000Y-75296000D01*
G37*
G36*
X193996000Y-75296000D02*
G01*
X189544000Y-75296000D01*
X189544000Y-73744000D01*
X193996000Y-73744000D01*
X193996000Y-75296000D01*
G37*
G36*
X200346000Y-75296000D02*
G01*
X195894000Y-75296000D01*
X195894000Y-73744000D01*
X200346000Y-73744000D01*
X200346000Y-75296000D01*
G37*
G36*
X206696000Y-75296000D02*
G01*
X202244000Y-75296000D01*
X202244000Y-73744000D01*
X206696000Y-73744000D01*
X206696000Y-75296000D01*
G37*
G36*
X236768228Y-73076703D02*
G01*
X236923100Y-73140853D01*
X237062481Y-73233985D01*
X237181015Y-73352519D01*
X237274147Y-73491900D01*
X237338297Y-73646772D01*
X237371000Y-73811184D01*
X237371000Y-73978816D01*
X237338297Y-74143228D01*
X237274147Y-74298100D01*
X237181015Y-74437481D01*
X237062481Y-74556015D01*
X236923100Y-74649147D01*
X236768228Y-74713297D01*
X236603816Y-74746000D01*
X236436184Y-74746000D01*
X236271772Y-74713297D01*
X236116900Y-74649147D01*
X235977519Y-74556015D01*
X235858985Y-74437481D01*
X235765853Y-74298100D01*
X235701703Y-74143228D01*
X235669000Y-73978816D01*
X235669000Y-73811184D01*
X235701703Y-73646772D01*
X235765853Y-73491900D01*
X235858985Y-73352519D01*
X235977519Y-73233985D01*
X236116900Y-73140853D01*
X236271772Y-73076703D01*
X236436184Y-73044000D01*
X236603816Y-73044000D01*
X236768228Y-73076703D01*
G37*
G36*
X233928228Y-71691703D02*
G01*
X234083100Y-71755853D01*
X234222481Y-71848985D01*
X234341015Y-71967519D01*
X234434147Y-72106900D01*
X234498297Y-72261772D01*
X234531000Y-72426184D01*
X234531000Y-72593816D01*
X234498297Y-72758228D01*
X234434147Y-72913100D01*
X234341015Y-73052481D01*
X234222481Y-73171015D01*
X234083100Y-73264147D01*
X233928228Y-73328297D01*
X233763816Y-73361000D01*
X233596184Y-73361000D01*
X233431772Y-73328297D01*
X233276900Y-73264147D01*
X233137519Y-73171015D01*
X233018985Y-73052481D01*
X232925853Y-72913100D01*
X232861703Y-72758228D01*
X232829000Y-72593816D01*
X232829000Y-72426184D01*
X232861703Y-72261772D01*
X232925853Y-72106900D01*
X233018985Y-71967519D01*
X233137519Y-71848985D01*
X233276900Y-71755853D01*
X233431772Y-71691703D01*
X233596184Y-71659000D01*
X233763816Y-71659000D01*
X233928228Y-71691703D01*
G37*
G36*
X236768228Y-70306703D02*
G01*
X236923100Y-70370853D01*
X237062481Y-70463985D01*
X237181015Y-70582519D01*
X237274147Y-70721900D01*
X237338297Y-70876772D01*
X237371000Y-71041184D01*
X237371000Y-71208816D01*
X237338297Y-71373228D01*
X237274147Y-71528100D01*
X237181015Y-71667481D01*
X237062481Y-71786015D01*
X236923100Y-71879147D01*
X236768228Y-71943297D01*
X236603816Y-71976000D01*
X236436184Y-71976000D01*
X236271772Y-71943297D01*
X236116900Y-71879147D01*
X235977519Y-71786015D01*
X235858985Y-71667481D01*
X235765853Y-71528100D01*
X235701703Y-71373228D01*
X235669000Y-71208816D01*
X235669000Y-71041184D01*
X235701703Y-70876772D01*
X235765853Y-70721900D01*
X235858985Y-70582519D01*
X235977519Y-70463985D01*
X236116900Y-70370853D01*
X236271772Y-70306703D01*
X236436184Y-70274000D01*
X236603816Y-70274000D01*
X236768228Y-70306703D01*
G37*
G36*
X193996000Y-71036000D02*
G01*
X189544000Y-71036000D01*
X189544000Y-69484000D01*
X193996000Y-69484000D01*
X193996000Y-71036000D01*
G37*
G36*
X200346000Y-71036000D02*
G01*
X195894000Y-71036000D01*
X195894000Y-69484000D01*
X200346000Y-69484000D01*
X200346000Y-71036000D01*
G37*
G36*
X206696000Y-71036000D02*
G01*
X202244000Y-71036000D01*
X202244000Y-69484000D01*
X206696000Y-69484000D01*
X206696000Y-71036000D01*
G37*
G36*
X213046000Y-71036000D02*
G01*
X208594000Y-71036000D01*
X208594000Y-69484000D01*
X213046000Y-69484000D01*
X213046000Y-71036000D01*
G37*
G36*
X233928228Y-68921703D02*
G01*
X234083100Y-68985853D01*
X234222481Y-69078985D01*
X234341015Y-69197519D01*
X234434147Y-69336900D01*
X234498297Y-69491772D01*
X234531000Y-69656184D01*
X234531000Y-69823816D01*
X234498297Y-69988228D01*
X234434147Y-70143100D01*
X234341015Y-70282481D01*
X234222481Y-70401015D01*
X234083100Y-70494147D01*
X233928228Y-70558297D01*
X233763816Y-70591000D01*
X233596184Y-70591000D01*
X233431772Y-70558297D01*
X233276900Y-70494147D01*
X233137519Y-70401015D01*
X233018985Y-70282481D01*
X232925853Y-70143100D01*
X232861703Y-69988228D01*
X232829000Y-69823816D01*
X232829000Y-69656184D01*
X232861703Y-69491772D01*
X232925853Y-69336900D01*
X233018985Y-69197519D01*
X233137519Y-69078985D01*
X233276900Y-68985853D01*
X233431772Y-68921703D01*
X233596184Y-68889000D01*
X233763816Y-68889000D01*
X233928228Y-68921703D01*
G37*
G36*
X236768228Y-67536703D02*
G01*
X236923100Y-67600853D01*
X237062481Y-67693985D01*
X237181015Y-67812519D01*
X237274147Y-67951900D01*
X237338297Y-68106772D01*
X237371000Y-68271184D01*
X237371000Y-68438816D01*
X237338297Y-68603228D01*
X237274147Y-68758100D01*
X237181015Y-68897481D01*
X237062481Y-69016015D01*
X236923100Y-69109147D01*
X236768228Y-69173297D01*
X236603816Y-69206000D01*
X236436184Y-69206000D01*
X236271772Y-69173297D01*
X236116900Y-69109147D01*
X235977519Y-69016015D01*
X235858985Y-68897481D01*
X235765853Y-68758100D01*
X235701703Y-68603228D01*
X235669000Y-68438816D01*
X235669000Y-68271184D01*
X235701703Y-68106772D01*
X235765853Y-67951900D01*
X235858985Y-67812519D01*
X235977519Y-67693985D01*
X236116900Y-67600853D01*
X236271772Y-67536703D01*
X236436184Y-67504000D01*
X236603816Y-67504000D01*
X236768228Y-67536703D01*
G37*
G36*
X233928228Y-66151703D02*
G01*
X234083100Y-66215853D01*
X234222481Y-66308985D01*
X234341015Y-66427519D01*
X234434147Y-66566900D01*
X234498297Y-66721772D01*
X234531000Y-66886184D01*
X234531000Y-67053816D01*
X234498297Y-67218228D01*
X234434147Y-67373100D01*
X234341015Y-67512481D01*
X234222481Y-67631015D01*
X234083100Y-67724147D01*
X233928228Y-67788297D01*
X233763816Y-67821000D01*
X233596184Y-67821000D01*
X233431772Y-67788297D01*
X233276900Y-67724147D01*
X233137519Y-67631015D01*
X233018985Y-67512481D01*
X232925853Y-67373100D01*
X232861703Y-67218228D01*
X232829000Y-67053816D01*
X232829000Y-66886184D01*
X232861703Y-66721772D01*
X232925853Y-66566900D01*
X233018985Y-66427519D01*
X233137519Y-66308985D01*
X233276900Y-66215853D01*
X233431772Y-66151703D01*
X233596184Y-66119000D01*
X233763816Y-66119000D01*
X233928228Y-66151703D01*
G37*
G36*
X236768228Y-64766703D02*
G01*
X236923100Y-64830853D01*
X237062481Y-64923985D01*
X237181015Y-65042519D01*
X237274147Y-65181900D01*
X237338297Y-65336772D01*
X237371000Y-65501184D01*
X237371000Y-65668816D01*
X237338297Y-65833228D01*
X237274147Y-65988100D01*
X237181015Y-66127481D01*
X237062481Y-66246015D01*
X236923100Y-66339147D01*
X236768228Y-66403297D01*
X236603816Y-66436000D01*
X236436184Y-66436000D01*
X236271772Y-66403297D01*
X236116900Y-66339147D01*
X235977519Y-66246015D01*
X235858985Y-66127481D01*
X235765853Y-65988100D01*
X235701703Y-65833228D01*
X235669000Y-65668816D01*
X235669000Y-65501184D01*
X235701703Y-65336772D01*
X235765853Y-65181900D01*
X235858985Y-65042519D01*
X235977519Y-64923985D01*
X236116900Y-64830853D01*
X236271772Y-64766703D01*
X236436184Y-64734000D01*
X236603816Y-64734000D01*
X236768228Y-64766703D01*
G37*
G36*
X200346000Y-65136000D02*
G01*
X195894000Y-65136000D01*
X195894000Y-63584000D01*
X200346000Y-63584000D01*
X200346000Y-65136000D01*
G37*
G36*
X193996000Y-65136000D02*
G01*
X189544000Y-65136000D01*
X189544000Y-63584000D01*
X193996000Y-63584000D01*
X193996000Y-65136000D01*
G37*
G36*
X206696000Y-65136000D02*
G01*
X202244000Y-65136000D01*
X202244000Y-63584000D01*
X206696000Y-63584000D01*
X206696000Y-65136000D01*
G37*
G36*
X213046000Y-65136000D02*
G01*
X208594000Y-65136000D01*
X208594000Y-63584000D01*
X213046000Y-63584000D01*
X213046000Y-65136000D01*
G37*
G36*
X233928228Y-63381703D02*
G01*
X234083100Y-63445853D01*
X234222481Y-63538985D01*
X234341015Y-63657519D01*
X234434147Y-63796900D01*
X234498297Y-63951772D01*
X234531000Y-64116184D01*
X234531000Y-64283816D01*
X234498297Y-64448228D01*
X234434147Y-64603100D01*
X234341015Y-64742481D01*
X234222481Y-64861015D01*
X234083100Y-64954147D01*
X233928228Y-65018297D01*
X233763816Y-65051000D01*
X233596184Y-65051000D01*
X233431772Y-65018297D01*
X233276900Y-64954147D01*
X233137519Y-64861015D01*
X233018985Y-64742481D01*
X232925853Y-64603100D01*
X232861703Y-64448228D01*
X232829000Y-64283816D01*
X232829000Y-64116184D01*
X232861703Y-63951772D01*
X232925853Y-63796900D01*
X233018985Y-63657519D01*
X233137519Y-63538985D01*
X233276900Y-63445853D01*
X233431772Y-63381703D01*
X233596184Y-63349000D01*
X233763816Y-63349000D01*
X233928228Y-63381703D01*
G37*
G36*
X236768228Y-61996703D02*
G01*
X236923100Y-62060853D01*
X237062481Y-62153985D01*
X237181015Y-62272519D01*
X237274147Y-62411900D01*
X237338297Y-62566772D01*
X237371000Y-62731184D01*
X237371000Y-62898816D01*
X237338297Y-63063228D01*
X237274147Y-63218100D01*
X237181015Y-63357481D01*
X237062481Y-63476015D01*
X236923100Y-63569147D01*
X236768228Y-63633297D01*
X236603816Y-63666000D01*
X236436184Y-63666000D01*
X236271772Y-63633297D01*
X236116900Y-63569147D01*
X235977519Y-63476015D01*
X235858985Y-63357481D01*
X235765853Y-63218100D01*
X235701703Y-63063228D01*
X235669000Y-62898816D01*
X235669000Y-62731184D01*
X235701703Y-62566772D01*
X235765853Y-62411900D01*
X235858985Y-62272519D01*
X235977519Y-62153985D01*
X236116900Y-62060853D01*
X236271772Y-61996703D01*
X236436184Y-61964000D01*
X236603816Y-61964000D01*
X236768228Y-61996703D01*
G37*
G36*
X233928228Y-60611703D02*
G01*
X234083100Y-60675853D01*
X234222481Y-60768985D01*
X234341015Y-60887519D01*
X234434147Y-61026900D01*
X234498297Y-61181772D01*
X234531000Y-61346184D01*
X234531000Y-61513816D01*
X234498297Y-61678228D01*
X234434147Y-61833100D01*
X234341015Y-61972481D01*
X234222481Y-62091015D01*
X234083100Y-62184147D01*
X233928228Y-62248297D01*
X233763816Y-62281000D01*
X233596184Y-62281000D01*
X233431772Y-62248297D01*
X233276900Y-62184147D01*
X233137519Y-62091015D01*
X233018985Y-61972481D01*
X232925853Y-61833100D01*
X232861703Y-61678228D01*
X232829000Y-61513816D01*
X232829000Y-61346184D01*
X232861703Y-61181772D01*
X232925853Y-61026900D01*
X233018985Y-60887519D01*
X233137519Y-60768985D01*
X233276900Y-60675853D01*
X233431772Y-60611703D01*
X233596184Y-60579000D01*
X233763816Y-60579000D01*
X233928228Y-60611703D01*
G37*
G36*
X236768228Y-59226703D02*
G01*
X236923100Y-59290853D01*
X237062481Y-59383985D01*
X237181015Y-59502519D01*
X237274147Y-59641900D01*
X237338297Y-59796772D01*
X237371000Y-59961184D01*
X237371000Y-60128816D01*
X237338297Y-60293228D01*
X237274147Y-60448100D01*
X237181015Y-60587481D01*
X237062481Y-60706015D01*
X236923100Y-60799147D01*
X236768228Y-60863297D01*
X236603816Y-60896000D01*
X236436184Y-60896000D01*
X236271772Y-60863297D01*
X236116900Y-60799147D01*
X235977519Y-60706015D01*
X235858985Y-60587481D01*
X235765853Y-60448100D01*
X235701703Y-60293228D01*
X235669000Y-60128816D01*
X235669000Y-59961184D01*
X235701703Y-59796772D01*
X235765853Y-59641900D01*
X235858985Y-59502519D01*
X235977519Y-59383985D01*
X236116900Y-59290853D01*
X236271772Y-59226703D01*
X236436184Y-59194000D01*
X236603816Y-59194000D01*
X236768228Y-59226703D01*
G37*
G36*
X213046000Y-60876000D02*
G01*
X208594000Y-60876000D01*
X208594000Y-59324000D01*
X213046000Y-59324000D01*
X213046000Y-60876000D01*
G37*
G36*
X193996000Y-60876000D02*
G01*
X189544000Y-60876000D01*
X189544000Y-59324000D01*
X193996000Y-59324000D01*
X193996000Y-60876000D01*
G37*
G36*
X200346000Y-60876000D02*
G01*
X195894000Y-60876000D01*
X195894000Y-59324000D01*
X200346000Y-59324000D01*
X200346000Y-60876000D01*
G37*
G36*
X206696000Y-60876000D02*
G01*
X202244000Y-60876000D01*
X202244000Y-59324000D01*
X206696000Y-59324000D01*
X206696000Y-60876000D01*
G37*
G36*
X233928228Y-57841703D02*
G01*
X234083100Y-57905853D01*
X234222481Y-57998985D01*
X234341015Y-58117519D01*
X234434147Y-58256900D01*
X234498297Y-58411772D01*
X234531000Y-58576184D01*
X234531000Y-58743816D01*
X234498297Y-58908228D01*
X234434147Y-59063100D01*
X234341015Y-59202481D01*
X234222481Y-59321015D01*
X234083100Y-59414147D01*
X233928228Y-59478297D01*
X233763816Y-59511000D01*
X233596184Y-59511000D01*
X233431772Y-59478297D01*
X233276900Y-59414147D01*
X233137519Y-59321015D01*
X233018985Y-59202481D01*
X232925853Y-59063100D01*
X232861703Y-58908228D01*
X232829000Y-58743816D01*
X232829000Y-58576184D01*
X232861703Y-58411772D01*
X232925853Y-58256900D01*
X233018985Y-58117519D01*
X233137519Y-57998985D01*
X233276900Y-57905853D01*
X233431772Y-57841703D01*
X233596184Y-57809000D01*
X233763816Y-57809000D01*
X233928228Y-57841703D01*
G37*
G36*
X222578228Y-57601703D02*
G01*
X222733100Y-57665853D01*
X222872481Y-57758985D01*
X222991015Y-57877519D01*
X223084147Y-58016900D01*
X223148297Y-58171772D01*
X223181000Y-58336184D01*
X223181000Y-58503816D01*
X223148297Y-58668228D01*
X223084147Y-58823100D01*
X222991015Y-58962481D01*
X222872481Y-59081015D01*
X222733100Y-59174147D01*
X222578228Y-59238297D01*
X222413816Y-59271000D01*
X222246184Y-59271000D01*
X222081772Y-59238297D01*
X221926900Y-59174147D01*
X221787519Y-59081015D01*
X221668985Y-58962481D01*
X221575853Y-58823100D01*
X221511703Y-58668228D01*
X221479000Y-58503816D01*
X221479000Y-58336184D01*
X221511703Y-58171772D01*
X221575853Y-58016900D01*
X221668985Y-57877519D01*
X221787519Y-57758985D01*
X221926900Y-57665853D01*
X222081772Y-57601703D01*
X222246184Y-57569000D01*
X222413816Y-57569000D01*
X222578228Y-57601703D01*
G37*
G36*
X227578228Y-57601703D02*
G01*
X227733100Y-57665853D01*
X227872481Y-57758985D01*
X227991015Y-57877519D01*
X228084147Y-58016900D01*
X228148297Y-58171772D01*
X228181000Y-58336184D01*
X228181000Y-58503816D01*
X228148297Y-58668228D01*
X228084147Y-58823100D01*
X227991015Y-58962481D01*
X227872481Y-59081015D01*
X227733100Y-59174147D01*
X227578228Y-59238297D01*
X227413816Y-59271000D01*
X227246184Y-59271000D01*
X227081772Y-59238297D01*
X226926900Y-59174147D01*
X226787519Y-59081015D01*
X226668985Y-58962481D01*
X226575853Y-58823100D01*
X226511703Y-58668228D01*
X226479000Y-58503816D01*
X226479000Y-58336184D01*
X226511703Y-58171772D01*
X226575853Y-58016900D01*
X226668985Y-57877519D01*
X226787519Y-57758985D01*
X226926900Y-57665853D01*
X227081772Y-57601703D01*
X227246184Y-57569000D01*
X227413816Y-57569000D01*
X227578228Y-57601703D01*
G37*
G36*
X236768228Y-56456703D02*
G01*
X236923100Y-56520853D01*
X237062481Y-56613985D01*
X237181015Y-56732519D01*
X237274147Y-56871900D01*
X237338297Y-57026772D01*
X237371000Y-57191184D01*
X237371000Y-57358816D01*
X237338297Y-57523228D01*
X237274147Y-57678100D01*
X237181015Y-57817481D01*
X237062481Y-57936015D01*
X236923100Y-58029147D01*
X236768228Y-58093297D01*
X236603816Y-58126000D01*
X236436184Y-58126000D01*
X236271772Y-58093297D01*
X236116900Y-58029147D01*
X235977519Y-57936015D01*
X235858985Y-57817481D01*
X235765853Y-57678100D01*
X235701703Y-57523228D01*
X235669000Y-57358816D01*
X235669000Y-57191184D01*
X235701703Y-57026772D01*
X235765853Y-56871900D01*
X235858985Y-56732519D01*
X235977519Y-56613985D01*
X236116900Y-56520853D01*
X236271772Y-56456703D01*
X236436184Y-56424000D01*
X236603816Y-56424000D01*
X236768228Y-56456703D01*
G37*
G36*
X233928228Y-55071703D02*
G01*
X234083100Y-55135853D01*
X234222481Y-55228985D01*
X234341015Y-55347519D01*
X234434147Y-55486900D01*
X234498297Y-55641772D01*
X234531000Y-55806184D01*
X234531000Y-55973816D01*
X234498297Y-56138228D01*
X234434147Y-56293100D01*
X234341015Y-56432481D01*
X234222481Y-56551015D01*
X234083100Y-56644147D01*
X233928228Y-56708297D01*
X233763816Y-56741000D01*
X233596184Y-56741000D01*
X233431772Y-56708297D01*
X233276900Y-56644147D01*
X233137519Y-56551015D01*
X233018985Y-56432481D01*
X232925853Y-56293100D01*
X232861703Y-56138228D01*
X232829000Y-55973816D01*
X232829000Y-55806184D01*
X232861703Y-55641772D01*
X232925853Y-55486900D01*
X233018985Y-55347519D01*
X233137519Y-55228985D01*
X233276900Y-55135853D01*
X233431772Y-55071703D01*
X233596184Y-55039000D01*
X233763816Y-55039000D01*
X233928228Y-55071703D01*
G37*
G36*
X236768228Y-53686703D02*
G01*
X236923100Y-53750853D01*
X237062481Y-53843985D01*
X237181015Y-53962519D01*
X237274147Y-54101900D01*
X237338297Y-54256772D01*
X237371000Y-54421184D01*
X237371000Y-54588816D01*
X237338297Y-54753228D01*
X237274147Y-54908100D01*
X237181015Y-55047481D01*
X237062481Y-55166015D01*
X236923100Y-55259147D01*
X236768228Y-55323297D01*
X236603816Y-55356000D01*
X236436184Y-55356000D01*
X236271772Y-55323297D01*
X236116900Y-55259147D01*
X235977519Y-55166015D01*
X235858985Y-55047481D01*
X235765853Y-54908100D01*
X235701703Y-54753228D01*
X235669000Y-54588816D01*
X235669000Y-54421184D01*
X235701703Y-54256772D01*
X235765853Y-54101900D01*
X235858985Y-53962519D01*
X235977519Y-53843985D01*
X236116900Y-53750853D01*
X236271772Y-53686703D01*
X236436184Y-53654000D01*
X236603816Y-53654000D01*
X236768228Y-53686703D01*
G37*
G36*
X213046000Y-54976000D02*
G01*
X208594000Y-54976000D01*
X208594000Y-53424000D01*
X213046000Y-53424000D01*
X213046000Y-54976000D01*
G37*
G36*
X206696000Y-54976000D02*
G01*
X202244000Y-54976000D01*
X202244000Y-53424000D01*
X206696000Y-53424000D01*
X206696000Y-54976000D01*
G37*
G36*
X193996000Y-54976000D02*
G01*
X189544000Y-54976000D01*
X189544000Y-53424000D01*
X193996000Y-53424000D01*
X193996000Y-54976000D01*
G37*
G36*
X200346000Y-54976000D02*
G01*
X195894000Y-54976000D01*
X195894000Y-53424000D01*
X200346000Y-53424000D01*
X200346000Y-54976000D01*
G37*
G36*
X233928228Y-52301703D02*
G01*
X234083100Y-52365853D01*
X234222481Y-52458985D01*
X234341015Y-52577519D01*
X234434147Y-52716900D01*
X234498297Y-52871772D01*
X234531000Y-53036184D01*
X234531000Y-53203816D01*
X234498297Y-53368228D01*
X234434147Y-53523100D01*
X234341015Y-53662481D01*
X234222481Y-53781015D01*
X234083100Y-53874147D01*
X233928228Y-53938297D01*
X233763816Y-53971000D01*
X233596184Y-53971000D01*
X233431772Y-53938297D01*
X233276900Y-53874147D01*
X233137519Y-53781015D01*
X233018985Y-53662481D01*
X232925853Y-53523100D01*
X232861703Y-53368228D01*
X232829000Y-53203816D01*
X232829000Y-53036184D01*
X232861703Y-52871772D01*
X232925853Y-52716900D01*
X233018985Y-52577519D01*
X233137519Y-52458985D01*
X233276900Y-52365853D01*
X233431772Y-52301703D01*
X233596184Y-52269000D01*
X233763816Y-52269000D01*
X233928228Y-52301703D01*
G37*
G36*
X224371000Y-51651000D02*
G01*
X222669000Y-51651000D01*
X222669000Y-49949000D01*
X224371000Y-49949000D01*
X224371000Y-51651000D01*
G37*
G36*
X226268228Y-49981703D02*
G01*
X226423100Y-50045853D01*
X226562481Y-50138985D01*
X226681015Y-50257519D01*
X226774147Y-50396900D01*
X226838297Y-50551772D01*
X226871000Y-50716184D01*
X226871000Y-50883816D01*
X226838297Y-51048228D01*
X226774147Y-51203100D01*
X226681015Y-51342481D01*
X226562481Y-51461015D01*
X226423100Y-51554147D01*
X226268228Y-51618297D01*
X226103816Y-51651000D01*
X225936184Y-51651000D01*
X225771772Y-51618297D01*
X225616900Y-51554147D01*
X225477519Y-51461015D01*
X225358985Y-51342481D01*
X225265853Y-51203100D01*
X225201703Y-51048228D01*
X225169000Y-50883816D01*
X225169000Y-50716184D01*
X225201703Y-50551772D01*
X225265853Y-50396900D01*
X225358985Y-50257519D01*
X225477519Y-50138985D01*
X225616900Y-50045853D01*
X225771772Y-49981703D01*
X225936184Y-49949000D01*
X226103816Y-49949000D01*
X226268228Y-49981703D01*
G37*
G36*
X193996000Y-50716000D02*
G01*
X189544000Y-50716000D01*
X189544000Y-49164000D01*
X193996000Y-49164000D01*
X193996000Y-50716000D01*
G37*
G36*
X213046000Y-50716000D02*
G01*
X208594000Y-50716000D01*
X208594000Y-49164000D01*
X213046000Y-49164000D01*
X213046000Y-50716000D01*
G37*
G36*
X200346000Y-50716000D02*
G01*
X195894000Y-50716000D01*
X195894000Y-49164000D01*
X200346000Y-49164000D01*
X200346000Y-50716000D01*
G37*
G36*
X206696000Y-50716000D02*
G01*
X202244000Y-50716000D01*
X202244000Y-49164000D01*
X206696000Y-49164000D01*
X206696000Y-50716000D01*
G37*
G36*
X235698254Y-44217818D02*
G01*
X236071511Y-44372426D01*
X236071513Y-44372427D01*
X236407436Y-44596884D01*
X236693116Y-44882564D01*
X236917574Y-45218489D01*
X237072182Y-45591746D01*
X237151000Y-45987993D01*
X237151000Y-46392007D01*
X237072182Y-46788254D01*
X236917574Y-47161511D01*
X236917573Y-47161513D01*
X236693116Y-47497436D01*
X236407436Y-47783116D01*
X236071513Y-48007573D01*
X236071512Y-48007574D01*
X236071511Y-48007574D01*
X235698254Y-48162182D01*
X235302007Y-48241000D01*
X234897993Y-48241000D01*
X234501746Y-48162182D01*
X234128489Y-48007574D01*
X234128488Y-48007574D01*
X234128487Y-48007573D01*
X233792564Y-47783116D01*
X233506884Y-47497436D01*
X233282427Y-47161513D01*
X233282426Y-47161511D01*
X233127818Y-46788254D01*
X233049000Y-46392007D01*
X233049000Y-45987993D01*
X233127818Y-45591746D01*
X233282426Y-45218489D01*
X233506884Y-44882564D01*
X233792564Y-44596884D01*
X234128487Y-44372427D01*
X234128489Y-44372426D01*
X234501746Y-44217818D01*
X234897993Y-44139000D01*
X235302007Y-44139000D01*
X235698254Y-44217818D01*
G37*
G36*
X193996000Y-44816000D02*
G01*
X189544000Y-44816000D01*
X189544000Y-43264000D01*
X193996000Y-43264000D01*
X193996000Y-44816000D01*
G37*
G36*
X213046000Y-44816000D02*
G01*
X208594000Y-44816000D01*
X208594000Y-43264000D01*
X213046000Y-43264000D01*
X213046000Y-44816000D01*
G37*
G36*
X206696000Y-44816000D02*
G01*
X202244000Y-44816000D01*
X202244000Y-43264000D01*
X206696000Y-43264000D01*
X206696000Y-44816000D01*
G37*
G36*
X200346000Y-44816000D02*
G01*
X195894000Y-44816000D01*
X195894000Y-43264000D01*
X200346000Y-43264000D01*
X200346000Y-44816000D01*
G37*
G36*
X224371000Y-41491000D02*
G01*
X222669000Y-41491000D01*
X222669000Y-39789000D01*
X224371000Y-39789000D01*
X224371000Y-41491000D01*
G37*
G36*
X226268228Y-39821703D02*
G01*
X226423100Y-39885853D01*
X226562481Y-39978985D01*
X226681015Y-40097519D01*
X226774147Y-40236900D01*
X226838297Y-40391772D01*
X226871000Y-40556184D01*
X226871000Y-40723816D01*
X226838297Y-40888228D01*
X226774147Y-41043100D01*
X226681015Y-41182481D01*
X226562481Y-41301015D01*
X226423100Y-41394147D01*
X226268228Y-41458297D01*
X226103816Y-41491000D01*
X225936184Y-41491000D01*
X225771772Y-41458297D01*
X225616900Y-41394147D01*
X225477519Y-41301015D01*
X225358985Y-41182481D01*
X225265853Y-41043100D01*
X225201703Y-40888228D01*
X225169000Y-40723816D01*
X225169000Y-40556184D01*
X225201703Y-40391772D01*
X225265853Y-40236900D01*
X225358985Y-40097519D01*
X225477519Y-39978985D01*
X225616900Y-39885853D01*
X225771772Y-39821703D01*
X225936184Y-39789000D01*
X226103816Y-39789000D01*
X226268228Y-39821703D01*
G37*
G36*
X206696000Y-40556000D02*
G01*
X202244000Y-40556000D01*
X202244000Y-39004000D01*
X206696000Y-39004000D01*
X206696000Y-40556000D01*
G37*
G36*
X200346000Y-40556000D02*
G01*
X195894000Y-40556000D01*
X195894000Y-39004000D01*
X200346000Y-39004000D01*
X200346000Y-40556000D01*
G37*
G36*
X193996000Y-40556000D02*
G01*
X189544000Y-40556000D01*
X189544000Y-39004000D01*
X193996000Y-39004000D01*
X193996000Y-40556000D01*
G37*
G36*
X213046000Y-40556000D02*
G01*
X208594000Y-40556000D01*
X208594000Y-39004000D01*
X213046000Y-39004000D01*
X213046000Y-40556000D01*
G37*
G36*
X160244987Y-20486524D02*
G01*
X160263730Y-20492210D01*
X160280997Y-20501439D01*
X160296136Y-20513864D01*
X160308561Y-20529003D01*
X160317790Y-20546270D01*
X160323476Y-20565013D01*
X160326000Y-20590640D01*
X160326000Y-21029360D01*
X160323476Y-21054987D01*
X160317790Y-21073730D01*
X160308561Y-21090997D01*
X160296135Y-21106138D01*
X160287317Y-21113375D01*
X160269990Y-21130702D01*
X160256377Y-21151076D01*
X160246999Y-21173715D01*
X160242219Y-21197748D01*
X160242219Y-21222252D01*
X160246999Y-21246285D01*
X160256377Y-21268924D01*
X160269991Y-21289299D01*
X160287317Y-21306625D01*
X160296135Y-21313862D01*
X160308561Y-21329003D01*
X160317790Y-21346270D01*
X160323476Y-21365013D01*
X160326000Y-21390640D01*
X160326000Y-21829360D01*
X160323476Y-21854987D01*
X160317790Y-21873730D01*
X160308561Y-21890997D01*
X160296135Y-21906138D01*
X160287317Y-21913375D01*
X160269990Y-21930702D01*
X160256377Y-21951076D01*
X160246999Y-21973715D01*
X160242219Y-21997748D01*
X160242219Y-22022252D01*
X160246999Y-22046285D01*
X160256377Y-22068924D01*
X160269991Y-22089299D01*
X160287317Y-22106625D01*
X160296135Y-22113862D01*
X160308561Y-22129003D01*
X160317790Y-22146270D01*
X160323476Y-22165013D01*
X160326000Y-22190640D01*
X160326000Y-22629360D01*
X160323476Y-22654987D01*
X160317790Y-22673730D01*
X160308561Y-22690997D01*
X160296135Y-22706138D01*
X160287317Y-22713375D01*
X160269990Y-22730702D01*
X160256377Y-22751076D01*
X160246999Y-22773715D01*
X160242219Y-22797748D01*
X160242219Y-22822252D01*
X160246999Y-22846285D01*
X160256377Y-22868924D01*
X160269991Y-22889299D01*
X160287317Y-22906625D01*
X160296135Y-22913862D01*
X160308561Y-22929003D01*
X160317790Y-22946270D01*
X160323476Y-22965013D01*
X160326000Y-22990640D01*
X160326000Y-23429360D01*
X160323476Y-23454987D01*
X160317790Y-23473730D01*
X160308561Y-23490997D01*
X160296135Y-23506138D01*
X160287317Y-23513375D01*
X160269990Y-23530702D01*
X160256377Y-23551076D01*
X160246999Y-23573715D01*
X160242219Y-23597748D01*
X160242219Y-23622252D01*
X160246999Y-23646285D01*
X160256377Y-23668924D01*
X160269991Y-23689299D01*
X160287317Y-23706625D01*
X160296135Y-23713862D01*
X160308561Y-23729003D01*
X160317790Y-23746270D01*
X160323476Y-23765013D01*
X160326000Y-23790640D01*
X160326000Y-24229360D01*
X160323476Y-24254987D01*
X160317790Y-24273730D01*
X160308561Y-24290997D01*
X160296135Y-24306138D01*
X160287317Y-24313375D01*
X160269990Y-24330702D01*
X160256377Y-24351076D01*
X160246999Y-24373715D01*
X160242219Y-24397748D01*
X160242219Y-24422252D01*
X160246999Y-24446285D01*
X160256377Y-24468924D01*
X160269991Y-24489299D01*
X160287317Y-24506625D01*
X160296135Y-24513862D01*
X160308561Y-24529003D01*
X160317790Y-24546270D01*
X160323476Y-24565013D01*
X160326000Y-24590640D01*
X160326000Y-25029360D01*
X160323476Y-25054987D01*
X160317790Y-25073730D01*
X160308561Y-25090997D01*
X160296135Y-25106138D01*
X160287317Y-25113375D01*
X160269990Y-25130702D01*
X160256377Y-25151076D01*
X160246999Y-25173715D01*
X160242219Y-25197748D01*
X160242219Y-25222252D01*
X160246999Y-25246285D01*
X160256377Y-25268924D01*
X160269991Y-25289299D01*
X160287317Y-25306625D01*
X160296135Y-25313862D01*
X160308561Y-25329003D01*
X160317790Y-25346270D01*
X160323476Y-25365013D01*
X160326000Y-25390640D01*
X160326000Y-25829360D01*
X160323476Y-25854987D01*
X160317790Y-25873730D01*
X160308561Y-25890997D01*
X160296135Y-25906138D01*
X160287317Y-25913375D01*
X160269990Y-25930702D01*
X160256377Y-25951076D01*
X160246999Y-25973715D01*
X160242219Y-25997748D01*
X160242219Y-26022252D01*
X160246999Y-26046285D01*
X160256377Y-26068924D01*
X160269991Y-26089299D01*
X160287317Y-26106625D01*
X160296135Y-26113862D01*
X160308561Y-26129003D01*
X160317790Y-26146270D01*
X160323476Y-26165013D01*
X160326000Y-26190640D01*
X160326000Y-26629360D01*
X160323476Y-26654987D01*
X160317790Y-26673730D01*
X160308561Y-26690997D01*
X160296135Y-26706138D01*
X160287317Y-26713375D01*
X160269990Y-26730702D01*
X160256377Y-26751076D01*
X160246999Y-26773715D01*
X160242219Y-26797748D01*
X160242219Y-26822252D01*
X160246999Y-26846285D01*
X160256377Y-26868924D01*
X160269991Y-26889299D01*
X160287317Y-26906625D01*
X160296135Y-26913862D01*
X160308561Y-26929003D01*
X160317790Y-26946270D01*
X160323476Y-26965013D01*
X160326000Y-26990640D01*
X160326000Y-27429360D01*
X160323476Y-27454987D01*
X160317790Y-27473730D01*
X160308561Y-27490997D01*
X160296135Y-27506138D01*
X160287317Y-27513375D01*
X160269990Y-27530702D01*
X160256377Y-27551076D01*
X160246999Y-27573715D01*
X160242219Y-27597748D01*
X160242219Y-27622252D01*
X160246999Y-27646285D01*
X160256377Y-27668924D01*
X160269991Y-27689299D01*
X160287317Y-27706625D01*
X160296135Y-27713862D01*
X160308561Y-27729003D01*
X160317790Y-27746270D01*
X160323476Y-27765013D01*
X160326000Y-27790640D01*
X160326000Y-28229360D01*
X160323476Y-28254987D01*
X160317790Y-28273730D01*
X160308561Y-28290997D01*
X160296135Y-28306138D01*
X160287317Y-28313375D01*
X160269990Y-28330702D01*
X160256377Y-28351076D01*
X160246999Y-28373715D01*
X160242219Y-28397748D01*
X160242219Y-28422252D01*
X160246999Y-28446285D01*
X160256377Y-28468924D01*
X160269991Y-28489299D01*
X160287317Y-28506625D01*
X160296135Y-28513862D01*
X160308561Y-28529003D01*
X160317790Y-28546270D01*
X160323476Y-28565013D01*
X160326000Y-28590640D01*
X160326000Y-29029360D01*
X160323476Y-29054987D01*
X160317790Y-29073730D01*
X160308561Y-29090997D01*
X160296135Y-29106138D01*
X160287317Y-29113375D01*
X160269990Y-29130702D01*
X160256377Y-29151076D01*
X160246999Y-29173715D01*
X160242219Y-29197748D01*
X160242219Y-29222252D01*
X160246999Y-29246285D01*
X160256377Y-29268924D01*
X160269991Y-29289299D01*
X160287317Y-29306625D01*
X160296135Y-29313862D01*
X160308561Y-29329003D01*
X160317790Y-29346270D01*
X160323476Y-29365013D01*
X160326000Y-29390640D01*
X160326000Y-29829360D01*
X160323476Y-29854987D01*
X160317790Y-29873730D01*
X160308561Y-29890997D01*
X160296135Y-29906138D01*
X160287317Y-29913375D01*
X160269990Y-29930702D01*
X160256377Y-29951076D01*
X160246999Y-29973715D01*
X160242219Y-29997748D01*
X160242219Y-30022252D01*
X160246999Y-30046285D01*
X160256377Y-30068924D01*
X160269991Y-30089299D01*
X160287317Y-30106625D01*
X160296135Y-30113862D01*
X160308561Y-30129003D01*
X160317790Y-30146270D01*
X160323476Y-30165013D01*
X160326000Y-30190640D01*
X160326000Y-30629360D01*
X160323476Y-30654987D01*
X160317790Y-30673730D01*
X160308561Y-30690997D01*
X160296135Y-30706138D01*
X160287317Y-30713375D01*
X160269990Y-30730702D01*
X160256377Y-30751076D01*
X160246999Y-30773715D01*
X160242219Y-30797748D01*
X160242219Y-30822252D01*
X160246999Y-30846285D01*
X160256377Y-30868924D01*
X160269991Y-30889299D01*
X160287317Y-30906625D01*
X160296135Y-30913862D01*
X160308561Y-30929003D01*
X160317790Y-30946270D01*
X160323476Y-30965013D01*
X160326000Y-30990640D01*
X160326000Y-31429360D01*
X160323476Y-31454987D01*
X160317790Y-31473730D01*
X160308561Y-31490997D01*
X160296135Y-31506138D01*
X160287317Y-31513375D01*
X160269990Y-31530702D01*
X160256377Y-31551076D01*
X160246999Y-31573715D01*
X160242219Y-31597748D01*
X160242219Y-31622252D01*
X160246999Y-31646285D01*
X160256377Y-31668924D01*
X160269991Y-31689299D01*
X160287317Y-31706625D01*
X160296135Y-31713862D01*
X160308561Y-31729003D01*
X160317790Y-31746270D01*
X160323476Y-31765013D01*
X160326000Y-31790640D01*
X160326000Y-32229360D01*
X160323476Y-32254987D01*
X160317790Y-32273730D01*
X160308561Y-32290997D01*
X160296135Y-32306138D01*
X160287317Y-32313375D01*
X160269990Y-32330702D01*
X160256377Y-32351076D01*
X160246999Y-32373715D01*
X160242219Y-32397748D01*
X160242219Y-32422252D01*
X160246999Y-32446285D01*
X160256377Y-32468924D01*
X160269991Y-32489299D01*
X160287317Y-32506625D01*
X160296135Y-32513862D01*
X160308561Y-32529003D01*
X160317790Y-32546270D01*
X160323476Y-32565013D01*
X160326000Y-32590640D01*
X160326000Y-33029360D01*
X160323476Y-33054987D01*
X160317790Y-33073730D01*
X160308561Y-33090997D01*
X160296135Y-33106138D01*
X160287317Y-33113375D01*
X160269990Y-33130702D01*
X160256377Y-33151076D01*
X160246999Y-33173715D01*
X160242219Y-33197748D01*
X160242219Y-33222252D01*
X160246999Y-33246285D01*
X160256377Y-33268924D01*
X160269991Y-33289299D01*
X160287317Y-33306625D01*
X160296135Y-33313862D01*
X160308561Y-33329003D01*
X160317790Y-33346270D01*
X160323476Y-33365013D01*
X160326000Y-33390640D01*
X160326000Y-33829360D01*
X160323476Y-33854987D01*
X160317790Y-33873730D01*
X160308561Y-33890997D01*
X160296135Y-33906138D01*
X160287317Y-33913375D01*
X160269990Y-33930702D01*
X160256377Y-33951076D01*
X160246999Y-33973715D01*
X160242219Y-33997748D01*
X160242219Y-34022252D01*
X160246999Y-34046285D01*
X160256377Y-34068924D01*
X160269991Y-34089299D01*
X160287317Y-34106625D01*
X160296135Y-34113862D01*
X160308561Y-34129003D01*
X160317790Y-34146270D01*
X160323476Y-34165013D01*
X160326000Y-34190640D01*
X160326000Y-34629360D01*
X160323476Y-34654987D01*
X160317790Y-34673730D01*
X160308561Y-34690997D01*
X160296135Y-34706138D01*
X160287317Y-34713375D01*
X160269990Y-34730702D01*
X160256377Y-34751076D01*
X160246999Y-34773715D01*
X160242219Y-34797748D01*
X160242219Y-34822252D01*
X160246999Y-34846285D01*
X160256377Y-34868924D01*
X160269991Y-34889299D01*
X160287317Y-34906625D01*
X160296135Y-34913862D01*
X160308561Y-34929003D01*
X160317790Y-34946270D01*
X160323476Y-34965013D01*
X160326000Y-34990640D01*
X160326000Y-35429360D01*
X160323476Y-35454987D01*
X160317790Y-35473730D01*
X160308561Y-35490997D01*
X160296135Y-35506138D01*
X160287317Y-35513375D01*
X160269990Y-35530702D01*
X160256377Y-35551076D01*
X160246999Y-35573715D01*
X160242219Y-35597748D01*
X160242219Y-35622252D01*
X160246999Y-35646285D01*
X160256377Y-35668924D01*
X160269991Y-35689299D01*
X160287317Y-35706625D01*
X160296135Y-35713862D01*
X160308561Y-35729003D01*
X160317790Y-35746270D01*
X160323476Y-35765013D01*
X160326000Y-35790640D01*
X160326000Y-36229360D01*
X160323476Y-36254987D01*
X160317790Y-36273730D01*
X160308561Y-36290997D01*
X160296135Y-36306138D01*
X160287317Y-36313375D01*
X160269990Y-36330702D01*
X160256377Y-36351076D01*
X160246999Y-36373715D01*
X160242219Y-36397748D01*
X160242219Y-36422252D01*
X160246999Y-36446285D01*
X160256377Y-36468924D01*
X160269991Y-36489299D01*
X160287317Y-36506625D01*
X160296135Y-36513862D01*
X160308561Y-36529003D01*
X160317790Y-36546270D01*
X160323476Y-36565013D01*
X160326000Y-36590640D01*
X160326000Y-37029360D01*
X160323476Y-37054987D01*
X160317790Y-37073730D01*
X160308561Y-37090997D01*
X160296135Y-37106138D01*
X160287317Y-37113375D01*
X160269990Y-37130702D01*
X160256377Y-37151076D01*
X160246999Y-37173715D01*
X160242219Y-37197748D01*
X160242219Y-37222252D01*
X160246999Y-37246285D01*
X160256377Y-37268924D01*
X160269991Y-37289299D01*
X160287317Y-37306625D01*
X160296135Y-37313862D01*
X160308561Y-37329003D01*
X160317790Y-37346270D01*
X160323476Y-37365013D01*
X160326000Y-37390640D01*
X160326000Y-37829360D01*
X160323476Y-37854987D01*
X160317790Y-37873730D01*
X160308561Y-37890997D01*
X160296136Y-37906136D01*
X160280997Y-37918561D01*
X160263730Y-37927790D01*
X160244987Y-37933476D01*
X160219360Y-37936000D01*
X158805640Y-37936000D01*
X158780013Y-37933476D01*
X158761270Y-37927790D01*
X158744003Y-37918561D01*
X158728864Y-37906136D01*
X158716439Y-37890997D01*
X158707210Y-37873730D01*
X158701524Y-37854987D01*
X158699000Y-37829360D01*
X158699000Y-37390640D01*
X158701524Y-37365013D01*
X158707210Y-37346270D01*
X158716439Y-37329003D01*
X158728865Y-37313862D01*
X158737683Y-37306625D01*
X158755010Y-37289298D01*
X158768623Y-37268924D01*
X158778001Y-37246285D01*
X158782781Y-37222252D01*
X158782781Y-37197748D01*
X158778001Y-37173715D01*
X158768623Y-37151076D01*
X158755009Y-37130701D01*
X158737683Y-37113375D01*
X158728865Y-37106138D01*
X158716439Y-37090997D01*
X158707210Y-37073730D01*
X158701524Y-37054987D01*
X158699000Y-37029360D01*
X158699000Y-36590640D01*
X158701524Y-36565013D01*
X158707210Y-36546270D01*
X158716439Y-36529003D01*
X158728865Y-36513862D01*
X158737683Y-36506625D01*
X158755010Y-36489298D01*
X158768623Y-36468924D01*
X158778001Y-36446285D01*
X158782781Y-36422252D01*
X158782781Y-36397748D01*
X158778001Y-36373715D01*
X158768623Y-36351076D01*
X158755009Y-36330701D01*
X158737683Y-36313375D01*
X158728865Y-36306138D01*
X158716439Y-36290997D01*
X158707210Y-36273730D01*
X158701524Y-36254987D01*
X158699000Y-36229360D01*
X158699000Y-35790640D01*
X158701524Y-35765013D01*
X158707210Y-35746270D01*
X158716439Y-35729003D01*
X158728865Y-35713862D01*
X158737683Y-35706625D01*
X158755010Y-35689298D01*
X158768623Y-35668924D01*
X158778001Y-35646285D01*
X158782781Y-35622252D01*
X158782781Y-35597748D01*
X158778001Y-35573715D01*
X158768623Y-35551076D01*
X158755009Y-35530701D01*
X158737683Y-35513375D01*
X158728865Y-35506138D01*
X158716439Y-35490997D01*
X158707210Y-35473730D01*
X158701524Y-35454987D01*
X158699000Y-35429360D01*
X158699000Y-34990640D01*
X158701524Y-34965013D01*
X158707210Y-34946270D01*
X158716439Y-34929003D01*
X158728865Y-34913862D01*
X158737683Y-34906625D01*
X158755010Y-34889298D01*
X158768623Y-34868924D01*
X158778001Y-34846285D01*
X158782781Y-34822252D01*
X158782781Y-34797748D01*
X158778001Y-34773715D01*
X158768623Y-34751076D01*
X158755009Y-34730701D01*
X158737683Y-34713375D01*
X158728865Y-34706138D01*
X158716439Y-34690997D01*
X158707210Y-34673730D01*
X158701524Y-34654987D01*
X158699000Y-34629360D01*
X158699000Y-34190640D01*
X158701524Y-34165013D01*
X158707210Y-34146270D01*
X158716439Y-34129003D01*
X158728865Y-34113862D01*
X158737683Y-34106625D01*
X158755010Y-34089298D01*
X158768623Y-34068924D01*
X158778001Y-34046285D01*
X158782781Y-34022252D01*
X158782781Y-33997748D01*
X158778001Y-33973715D01*
X158768623Y-33951076D01*
X158755009Y-33930701D01*
X158737683Y-33913375D01*
X158728865Y-33906138D01*
X158716439Y-33890997D01*
X158707210Y-33873730D01*
X158701524Y-33854987D01*
X158699000Y-33829360D01*
X158699000Y-33390640D01*
X158701524Y-33365013D01*
X158707210Y-33346270D01*
X158716439Y-33329003D01*
X158728865Y-33313862D01*
X158737683Y-33306625D01*
X158755010Y-33289298D01*
X158768623Y-33268924D01*
X158778001Y-33246285D01*
X158782781Y-33222252D01*
X158782781Y-33197748D01*
X158778001Y-33173715D01*
X158768623Y-33151076D01*
X158755009Y-33130701D01*
X158737683Y-33113375D01*
X158728865Y-33106138D01*
X158716439Y-33090997D01*
X158707210Y-33073730D01*
X158701524Y-33054987D01*
X158699000Y-33029360D01*
X158699000Y-32590640D01*
X158701524Y-32565013D01*
X158707210Y-32546270D01*
X158716439Y-32529003D01*
X158728865Y-32513862D01*
X158737683Y-32506625D01*
X158755010Y-32489298D01*
X158768623Y-32468924D01*
X158778001Y-32446285D01*
X158782781Y-32422252D01*
X158782781Y-32397748D01*
X158778001Y-32373715D01*
X158768623Y-32351076D01*
X158755009Y-32330701D01*
X158737683Y-32313375D01*
X158728865Y-32306138D01*
X158716439Y-32290997D01*
X158707210Y-32273730D01*
X158701524Y-32254987D01*
X158699000Y-32229360D01*
X158699000Y-31790640D01*
X158701524Y-31765013D01*
X158707210Y-31746270D01*
X158716439Y-31729003D01*
X158728865Y-31713862D01*
X158737683Y-31706625D01*
X158755010Y-31689298D01*
X158768623Y-31668924D01*
X158778001Y-31646285D01*
X158782781Y-31622252D01*
X158782781Y-31597748D01*
X158778001Y-31573715D01*
X158768623Y-31551076D01*
X158755009Y-31530701D01*
X158737683Y-31513375D01*
X158728865Y-31506138D01*
X158716439Y-31490997D01*
X158707210Y-31473730D01*
X158701524Y-31454987D01*
X158699000Y-31429360D01*
X158699000Y-30990640D01*
X158701524Y-30965013D01*
X158707210Y-30946270D01*
X158716439Y-30929003D01*
X158728865Y-30913862D01*
X158737683Y-30906625D01*
X158755010Y-30889298D01*
X158768623Y-30868924D01*
X158778001Y-30846285D01*
X158782781Y-30822252D01*
X158782781Y-30797748D01*
X158778001Y-30773715D01*
X158768623Y-30751076D01*
X158755009Y-30730701D01*
X158737683Y-30713375D01*
X158728865Y-30706138D01*
X158716439Y-30690997D01*
X158707210Y-30673730D01*
X158701524Y-30654987D01*
X158699000Y-30629360D01*
X158699000Y-30190640D01*
X158701524Y-30165013D01*
X158707210Y-30146270D01*
X158716439Y-30129003D01*
X158728865Y-30113862D01*
X158737683Y-30106625D01*
X158755010Y-30089298D01*
X158768623Y-30068924D01*
X158778001Y-30046285D01*
X158782781Y-30022252D01*
X158782781Y-29997748D01*
X158778001Y-29973715D01*
X158768623Y-29951076D01*
X158755009Y-29930701D01*
X158737683Y-29913375D01*
X158728865Y-29906138D01*
X158716439Y-29890997D01*
X158707210Y-29873730D01*
X158701524Y-29854987D01*
X158699000Y-29829360D01*
X158699000Y-29390640D01*
X158701524Y-29365013D01*
X158707210Y-29346270D01*
X158716439Y-29329003D01*
X158728865Y-29313862D01*
X158737683Y-29306625D01*
X158755010Y-29289298D01*
X158768623Y-29268924D01*
X158778001Y-29246285D01*
X158782781Y-29222252D01*
X158782781Y-29197748D01*
X158778001Y-29173715D01*
X158768623Y-29151076D01*
X158755009Y-29130701D01*
X158737683Y-29113375D01*
X158728865Y-29106138D01*
X158716439Y-29090997D01*
X158707210Y-29073730D01*
X158701524Y-29054987D01*
X158699000Y-29029360D01*
X158699000Y-28590640D01*
X158701524Y-28565013D01*
X158707210Y-28546270D01*
X158716439Y-28529003D01*
X158728865Y-28513862D01*
X158737683Y-28506625D01*
X158755010Y-28489298D01*
X158768623Y-28468924D01*
X158778001Y-28446285D01*
X158782781Y-28422252D01*
X158782781Y-28397748D01*
X158778001Y-28373715D01*
X158768623Y-28351076D01*
X158755009Y-28330701D01*
X158737683Y-28313375D01*
X158728865Y-28306138D01*
X158716439Y-28290997D01*
X158707210Y-28273730D01*
X158701524Y-28254987D01*
X158699000Y-28229360D01*
X158699000Y-27790640D01*
X158701524Y-27765013D01*
X158707210Y-27746270D01*
X158716439Y-27729003D01*
X158728865Y-27713862D01*
X158737683Y-27706625D01*
X158755010Y-27689298D01*
X158768623Y-27668924D01*
X158778001Y-27646285D01*
X158782781Y-27622252D01*
X158782781Y-27597748D01*
X158778001Y-27573715D01*
X158768623Y-27551076D01*
X158755009Y-27530701D01*
X158737683Y-27513375D01*
X158728865Y-27506138D01*
X158716439Y-27490997D01*
X158707210Y-27473730D01*
X158701524Y-27454987D01*
X158699000Y-27429360D01*
X158699000Y-26990640D01*
X158701524Y-26965013D01*
X158707210Y-26946270D01*
X158716439Y-26929003D01*
X158728865Y-26913862D01*
X158737683Y-26906625D01*
X158755010Y-26889298D01*
X158768623Y-26868924D01*
X158778001Y-26846285D01*
X158782781Y-26822252D01*
X158782781Y-26797748D01*
X158778001Y-26773715D01*
X158768623Y-26751076D01*
X158755009Y-26730701D01*
X158737683Y-26713375D01*
X158728865Y-26706138D01*
X158716439Y-26690997D01*
X158707210Y-26673730D01*
X158701524Y-26654987D01*
X158699000Y-26629360D01*
X158699000Y-26190640D01*
X158701524Y-26165013D01*
X158707210Y-26146270D01*
X158716439Y-26129003D01*
X158728865Y-26113862D01*
X158737683Y-26106625D01*
X158755010Y-26089298D01*
X158768623Y-26068924D01*
X158778001Y-26046285D01*
X158782781Y-26022252D01*
X158782781Y-25997748D01*
X158778001Y-25973715D01*
X158768623Y-25951076D01*
X158755009Y-25930701D01*
X158737683Y-25913375D01*
X158728865Y-25906138D01*
X158716439Y-25890997D01*
X158707210Y-25873730D01*
X158701524Y-25854987D01*
X158699000Y-25829360D01*
X158699000Y-25390640D01*
X158701524Y-25365013D01*
X158707210Y-25346270D01*
X158716439Y-25329003D01*
X158728865Y-25313862D01*
X158737683Y-25306625D01*
X158755010Y-25289298D01*
X158768623Y-25268924D01*
X158778001Y-25246285D01*
X158782781Y-25222252D01*
X158782781Y-25197748D01*
X158778001Y-25173715D01*
X158768623Y-25151076D01*
X158755009Y-25130701D01*
X158737683Y-25113375D01*
X158728865Y-25106138D01*
X158716439Y-25090997D01*
X158707210Y-25073730D01*
X158701524Y-25054987D01*
X158699000Y-25029360D01*
X158699000Y-24590640D01*
X158701524Y-24565013D01*
X158707210Y-24546270D01*
X158716439Y-24529003D01*
X158728865Y-24513862D01*
X158737683Y-24506625D01*
X158755010Y-24489298D01*
X158768623Y-24468924D01*
X158778001Y-24446285D01*
X158782781Y-24422252D01*
X158782781Y-24397748D01*
X158778001Y-24373715D01*
X158768623Y-24351076D01*
X158755009Y-24330701D01*
X158737683Y-24313375D01*
X158728865Y-24306138D01*
X158716439Y-24290997D01*
X158707210Y-24273730D01*
X158701524Y-24254987D01*
X158699000Y-24229360D01*
X158699000Y-23790640D01*
X158701524Y-23765013D01*
X158707210Y-23746270D01*
X158716439Y-23729003D01*
X158728865Y-23713862D01*
X158737683Y-23706625D01*
X158755010Y-23689298D01*
X158768623Y-23668924D01*
X158778001Y-23646285D01*
X158782781Y-23622252D01*
X158782781Y-23597748D01*
X158778001Y-23573715D01*
X158768623Y-23551076D01*
X158755009Y-23530701D01*
X158737683Y-23513375D01*
X158728865Y-23506138D01*
X158716439Y-23490997D01*
X158707210Y-23473730D01*
X158701524Y-23454987D01*
X158699000Y-23429360D01*
X158699000Y-22990640D01*
X158701524Y-22965013D01*
X158707210Y-22946270D01*
X158716439Y-22929003D01*
X158728865Y-22913862D01*
X158737683Y-22906625D01*
X158755010Y-22889298D01*
X158768623Y-22868924D01*
X158778001Y-22846285D01*
X158782781Y-22822252D01*
X158782781Y-22797748D01*
X158778001Y-22773715D01*
X158768623Y-22751076D01*
X158755009Y-22730701D01*
X158737683Y-22713375D01*
X158728865Y-22706138D01*
X158716439Y-22690997D01*
X158707210Y-22673730D01*
X158701524Y-22654987D01*
X158699000Y-22629360D01*
X158699000Y-22190640D01*
X158701524Y-22165013D01*
X158707210Y-22146270D01*
X158716439Y-22129003D01*
X158728865Y-22113862D01*
X158737683Y-22106625D01*
X158755010Y-22089298D01*
X158768623Y-22068924D01*
X158778001Y-22046285D01*
X158782781Y-22022252D01*
X158782781Y-21997748D01*
X158778001Y-21973715D01*
X158768623Y-21951076D01*
X158755009Y-21930701D01*
X158737683Y-21913375D01*
X158728865Y-21906138D01*
X158716439Y-21890997D01*
X158707210Y-21873730D01*
X158701524Y-21854987D01*
X158699000Y-21829360D01*
X158699000Y-21390640D01*
X158701524Y-21365013D01*
X158707210Y-21346270D01*
X158716439Y-21329003D01*
X158728865Y-21313862D01*
X158737683Y-21306625D01*
X158755010Y-21289298D01*
X158768623Y-21268924D01*
X158778001Y-21246285D01*
X158782781Y-21222252D01*
X158782781Y-21197748D01*
X158778001Y-21173715D01*
X158768623Y-21151076D01*
X158755009Y-21130701D01*
X158737683Y-21113375D01*
X158728865Y-21106138D01*
X158716439Y-21090997D01*
X158707210Y-21073730D01*
X158701524Y-21054987D01*
X158699000Y-21029360D01*
X158699000Y-20590640D01*
X158701524Y-20565013D01*
X158707210Y-20546270D01*
X158716439Y-20529003D01*
X158728864Y-20513864D01*
X158744003Y-20501439D01*
X158761270Y-20492210D01*
X158780013Y-20486524D01*
X158805640Y-20484000D01*
X160219360Y-20484000D01*
X160244987Y-20486524D01*
G37*
G36*
X171419987Y-20486524D02*
G01*
X171438730Y-20492210D01*
X171455997Y-20501439D01*
X171471136Y-20513864D01*
X171483561Y-20529003D01*
X171492790Y-20546270D01*
X171498476Y-20565013D01*
X171501000Y-20590640D01*
X171501000Y-21029360D01*
X171498476Y-21054987D01*
X171492790Y-21073730D01*
X171483561Y-21090997D01*
X171471135Y-21106138D01*
X171462317Y-21113375D01*
X171444990Y-21130702D01*
X171431377Y-21151076D01*
X171421999Y-21173715D01*
X171417219Y-21197748D01*
X171417219Y-21222252D01*
X171421999Y-21246285D01*
X171431377Y-21268924D01*
X171444991Y-21289299D01*
X171462317Y-21306625D01*
X171471135Y-21313862D01*
X171483561Y-21329003D01*
X171492790Y-21346270D01*
X171498476Y-21365013D01*
X171501000Y-21390640D01*
X171501000Y-21829360D01*
X171498476Y-21854987D01*
X171492790Y-21873730D01*
X171483561Y-21890997D01*
X171471135Y-21906138D01*
X171462317Y-21913375D01*
X171444990Y-21930702D01*
X171431377Y-21951076D01*
X171421999Y-21973715D01*
X171417219Y-21997748D01*
X171417219Y-22022252D01*
X171421999Y-22046285D01*
X171431377Y-22068924D01*
X171444991Y-22089299D01*
X171462317Y-22106625D01*
X171471135Y-22113862D01*
X171483561Y-22129003D01*
X171492790Y-22146270D01*
X171498476Y-22165013D01*
X171501000Y-22190640D01*
X171501000Y-22629360D01*
X171498476Y-22654987D01*
X171492790Y-22673730D01*
X171483561Y-22690997D01*
X171471135Y-22706138D01*
X171462317Y-22713375D01*
X171444990Y-22730702D01*
X171431377Y-22751076D01*
X171421999Y-22773715D01*
X171417219Y-22797748D01*
X171417219Y-22822252D01*
X171421999Y-22846285D01*
X171431377Y-22868924D01*
X171444991Y-22889299D01*
X171462317Y-22906625D01*
X171471135Y-22913862D01*
X171483561Y-22929003D01*
X171492790Y-22946270D01*
X171498476Y-22965013D01*
X171501000Y-22990640D01*
X171501000Y-23429360D01*
X171498476Y-23454987D01*
X171492790Y-23473730D01*
X171483561Y-23490997D01*
X171471135Y-23506138D01*
X171462317Y-23513375D01*
X171444990Y-23530702D01*
X171431377Y-23551076D01*
X171421999Y-23573715D01*
X171417219Y-23597748D01*
X171417219Y-23622252D01*
X171421999Y-23646285D01*
X171431377Y-23668924D01*
X171444991Y-23689299D01*
X171462317Y-23706625D01*
X171471135Y-23713862D01*
X171483561Y-23729003D01*
X171492790Y-23746270D01*
X171498476Y-23765013D01*
X171501000Y-23790640D01*
X171501000Y-24229360D01*
X171498476Y-24254987D01*
X171492790Y-24273730D01*
X171483561Y-24290997D01*
X171471135Y-24306138D01*
X171462317Y-24313375D01*
X171444990Y-24330702D01*
X171431377Y-24351076D01*
X171421999Y-24373715D01*
X171417219Y-24397748D01*
X171417219Y-24422252D01*
X171421999Y-24446285D01*
X171431377Y-24468924D01*
X171444991Y-24489299D01*
X171462317Y-24506625D01*
X171471135Y-24513862D01*
X171483561Y-24529003D01*
X171492790Y-24546270D01*
X171498476Y-24565013D01*
X171501000Y-24590640D01*
X171501000Y-25029360D01*
X171498476Y-25054987D01*
X171492790Y-25073730D01*
X171483561Y-25090997D01*
X171471135Y-25106138D01*
X171462317Y-25113375D01*
X171444990Y-25130702D01*
X171431377Y-25151076D01*
X171421999Y-25173715D01*
X171417219Y-25197748D01*
X171417219Y-25222252D01*
X171421999Y-25246285D01*
X171431377Y-25268924D01*
X171444991Y-25289299D01*
X171462317Y-25306625D01*
X171471135Y-25313862D01*
X171483561Y-25329003D01*
X171492790Y-25346270D01*
X171498476Y-25365013D01*
X171501000Y-25390640D01*
X171501000Y-25829360D01*
X171498476Y-25854987D01*
X171492790Y-25873730D01*
X171483561Y-25890997D01*
X171471135Y-25906138D01*
X171462317Y-25913375D01*
X171444990Y-25930702D01*
X171431377Y-25951076D01*
X171421999Y-25973715D01*
X171417219Y-25997748D01*
X171417219Y-26022252D01*
X171421999Y-26046285D01*
X171431377Y-26068924D01*
X171444991Y-26089299D01*
X171462317Y-26106625D01*
X171471135Y-26113862D01*
X171483561Y-26129003D01*
X171492790Y-26146270D01*
X171498476Y-26165013D01*
X171501000Y-26190640D01*
X171501000Y-26629360D01*
X171498476Y-26654987D01*
X171492790Y-26673730D01*
X171483561Y-26690997D01*
X171471135Y-26706138D01*
X171462317Y-26713375D01*
X171444990Y-26730702D01*
X171431377Y-26751076D01*
X171421999Y-26773715D01*
X171417219Y-26797748D01*
X171417219Y-26822252D01*
X171421999Y-26846285D01*
X171431377Y-26868924D01*
X171444991Y-26889299D01*
X171462317Y-26906625D01*
X171471135Y-26913862D01*
X171483561Y-26929003D01*
X171492790Y-26946270D01*
X171498476Y-26965013D01*
X171501000Y-26990640D01*
X171501000Y-27429360D01*
X171498476Y-27454987D01*
X171492790Y-27473730D01*
X171483561Y-27490997D01*
X171471135Y-27506138D01*
X171462317Y-27513375D01*
X171444990Y-27530702D01*
X171431377Y-27551076D01*
X171421999Y-27573715D01*
X171417219Y-27597748D01*
X171417219Y-27622252D01*
X171421999Y-27646285D01*
X171431377Y-27668924D01*
X171444991Y-27689299D01*
X171462317Y-27706625D01*
X171471135Y-27713862D01*
X171483561Y-27729003D01*
X171492790Y-27746270D01*
X171498476Y-27765013D01*
X171501000Y-27790640D01*
X171501000Y-28229360D01*
X171498476Y-28254987D01*
X171492790Y-28273730D01*
X171483561Y-28290997D01*
X171471135Y-28306138D01*
X171462317Y-28313375D01*
X171444990Y-28330702D01*
X171431377Y-28351076D01*
X171421999Y-28373715D01*
X171417219Y-28397748D01*
X171417219Y-28422252D01*
X171421999Y-28446285D01*
X171431377Y-28468924D01*
X171444991Y-28489299D01*
X171462317Y-28506625D01*
X171471135Y-28513862D01*
X171483561Y-28529003D01*
X171492790Y-28546270D01*
X171498476Y-28565013D01*
X171501000Y-28590640D01*
X171501000Y-29029360D01*
X171498476Y-29054987D01*
X171492790Y-29073730D01*
X171483561Y-29090997D01*
X171471135Y-29106138D01*
X171462317Y-29113375D01*
X171444990Y-29130702D01*
X171431377Y-29151076D01*
X171421999Y-29173715D01*
X171417219Y-29197748D01*
X171417219Y-29222252D01*
X171421999Y-29246285D01*
X171431377Y-29268924D01*
X171444991Y-29289299D01*
X171462317Y-29306625D01*
X171471135Y-29313862D01*
X171483561Y-29329003D01*
X171492790Y-29346270D01*
X171498476Y-29365013D01*
X171501000Y-29390640D01*
X171501000Y-29829360D01*
X171498476Y-29854987D01*
X171492790Y-29873730D01*
X171483561Y-29890997D01*
X171471135Y-29906138D01*
X171462317Y-29913375D01*
X171444990Y-29930702D01*
X171431377Y-29951076D01*
X171421999Y-29973715D01*
X171417219Y-29997748D01*
X171417219Y-30022252D01*
X171421999Y-30046285D01*
X171431377Y-30068924D01*
X171444991Y-30089299D01*
X171462317Y-30106625D01*
X171471135Y-30113862D01*
X171483561Y-30129003D01*
X171492790Y-30146270D01*
X171498476Y-30165013D01*
X171501000Y-30190640D01*
X171501000Y-30629360D01*
X171498476Y-30654987D01*
X171492790Y-30673730D01*
X171483561Y-30690997D01*
X171471135Y-30706138D01*
X171462317Y-30713375D01*
X171444990Y-30730702D01*
X171431377Y-30751076D01*
X171421999Y-30773715D01*
X171417219Y-30797748D01*
X171417219Y-30822252D01*
X171421999Y-30846285D01*
X171431377Y-30868924D01*
X171444991Y-30889299D01*
X171462317Y-30906625D01*
X171471135Y-30913862D01*
X171483561Y-30929003D01*
X171492790Y-30946270D01*
X171498476Y-30965013D01*
X171501000Y-30990640D01*
X171501000Y-31429360D01*
X171498476Y-31454987D01*
X171492790Y-31473730D01*
X171483561Y-31490997D01*
X171471135Y-31506138D01*
X171462317Y-31513375D01*
X171444990Y-31530702D01*
X171431377Y-31551076D01*
X171421999Y-31573715D01*
X171417219Y-31597748D01*
X171417219Y-31622252D01*
X171421999Y-31646285D01*
X171431377Y-31668924D01*
X171444991Y-31689299D01*
X171462317Y-31706625D01*
X171471135Y-31713862D01*
X171483561Y-31729003D01*
X171492790Y-31746270D01*
X171498476Y-31765013D01*
X171501000Y-31790640D01*
X171501000Y-32229360D01*
X171498476Y-32254987D01*
X171492790Y-32273730D01*
X171483561Y-32290997D01*
X171471135Y-32306138D01*
X171462317Y-32313375D01*
X171444990Y-32330702D01*
X171431377Y-32351076D01*
X171421999Y-32373715D01*
X171417219Y-32397748D01*
X171417219Y-32422252D01*
X171421999Y-32446285D01*
X171431377Y-32468924D01*
X171444991Y-32489299D01*
X171462317Y-32506625D01*
X171471135Y-32513862D01*
X171483561Y-32529003D01*
X171492790Y-32546270D01*
X171498476Y-32565013D01*
X171501000Y-32590640D01*
X171501000Y-33029360D01*
X171498476Y-33054987D01*
X171492790Y-33073730D01*
X171483561Y-33090997D01*
X171471135Y-33106138D01*
X171462317Y-33113375D01*
X171444990Y-33130702D01*
X171431377Y-33151076D01*
X171421999Y-33173715D01*
X171417219Y-33197748D01*
X171417219Y-33222252D01*
X171421999Y-33246285D01*
X171431377Y-33268924D01*
X171444991Y-33289299D01*
X171462317Y-33306625D01*
X171471135Y-33313862D01*
X171483561Y-33329003D01*
X171492790Y-33346270D01*
X171498476Y-33365013D01*
X171501000Y-33390640D01*
X171501000Y-33829360D01*
X171498476Y-33854987D01*
X171492790Y-33873730D01*
X171483561Y-33890997D01*
X171471135Y-33906138D01*
X171462317Y-33913375D01*
X171444990Y-33930702D01*
X171431377Y-33951076D01*
X171421999Y-33973715D01*
X171417219Y-33997748D01*
X171417219Y-34022252D01*
X171421999Y-34046285D01*
X171431377Y-34068924D01*
X171444991Y-34089299D01*
X171462317Y-34106625D01*
X171471135Y-34113862D01*
X171483561Y-34129003D01*
X171492790Y-34146270D01*
X171498476Y-34165013D01*
X171501000Y-34190640D01*
X171501000Y-34629360D01*
X171498476Y-34654987D01*
X171492790Y-34673730D01*
X171483561Y-34690997D01*
X171471135Y-34706138D01*
X171462317Y-34713375D01*
X171444990Y-34730702D01*
X171431377Y-34751076D01*
X171421999Y-34773715D01*
X171417219Y-34797748D01*
X171417219Y-34822252D01*
X171421999Y-34846285D01*
X171431377Y-34868924D01*
X171444991Y-34889299D01*
X171462317Y-34906625D01*
X171471135Y-34913862D01*
X171483561Y-34929003D01*
X171492790Y-34946270D01*
X171498476Y-34965013D01*
X171501000Y-34990640D01*
X171501000Y-35429360D01*
X171498476Y-35454987D01*
X171492790Y-35473730D01*
X171483561Y-35490997D01*
X171471135Y-35506138D01*
X171462317Y-35513375D01*
X171444990Y-35530702D01*
X171431377Y-35551076D01*
X171421999Y-35573715D01*
X171417219Y-35597748D01*
X171417219Y-35622252D01*
X171421999Y-35646285D01*
X171431377Y-35668924D01*
X171444991Y-35689299D01*
X171462317Y-35706625D01*
X171471135Y-35713862D01*
X171483561Y-35729003D01*
X171492790Y-35746270D01*
X171498476Y-35765013D01*
X171501000Y-35790640D01*
X171501000Y-36229360D01*
X171498476Y-36254987D01*
X171492790Y-36273730D01*
X171483561Y-36290997D01*
X171471135Y-36306138D01*
X171462317Y-36313375D01*
X171444990Y-36330702D01*
X171431377Y-36351076D01*
X171421999Y-36373715D01*
X171417219Y-36397748D01*
X171417219Y-36422252D01*
X171421999Y-36446285D01*
X171431377Y-36468924D01*
X171444991Y-36489299D01*
X171462317Y-36506625D01*
X171471135Y-36513862D01*
X171483561Y-36529003D01*
X171492790Y-36546270D01*
X171498476Y-36565013D01*
X171501000Y-36590640D01*
X171501000Y-37029360D01*
X171498476Y-37054987D01*
X171492790Y-37073730D01*
X171483561Y-37090997D01*
X171471135Y-37106138D01*
X171462317Y-37113375D01*
X171444990Y-37130702D01*
X171431377Y-37151076D01*
X171421999Y-37173715D01*
X171417219Y-37197748D01*
X171417219Y-37222252D01*
X171421999Y-37246285D01*
X171431377Y-37268924D01*
X171444991Y-37289299D01*
X171462317Y-37306625D01*
X171471135Y-37313862D01*
X171483561Y-37329003D01*
X171492790Y-37346270D01*
X171498476Y-37365013D01*
X171501000Y-37390640D01*
X171501000Y-37829360D01*
X171498476Y-37854987D01*
X171492790Y-37873730D01*
X171483561Y-37890997D01*
X171471136Y-37906136D01*
X171455997Y-37918561D01*
X171438730Y-37927790D01*
X171419987Y-37933476D01*
X171394360Y-37936000D01*
X169980640Y-37936000D01*
X169955013Y-37933476D01*
X169936270Y-37927790D01*
X169919003Y-37918561D01*
X169903864Y-37906136D01*
X169891439Y-37890997D01*
X169882210Y-37873730D01*
X169876524Y-37854987D01*
X169874000Y-37829360D01*
X169874000Y-37390640D01*
X169876524Y-37365013D01*
X169882210Y-37346270D01*
X169891439Y-37329003D01*
X169903865Y-37313862D01*
X169912683Y-37306625D01*
X169930010Y-37289298D01*
X169943623Y-37268924D01*
X169953001Y-37246285D01*
X169957781Y-37222252D01*
X169957781Y-37197748D01*
X169953001Y-37173715D01*
X169943623Y-37151076D01*
X169930009Y-37130701D01*
X169912683Y-37113375D01*
X169903865Y-37106138D01*
X169891439Y-37090997D01*
X169882210Y-37073730D01*
X169876524Y-37054987D01*
X169874000Y-37029360D01*
X169874000Y-36590640D01*
X169876524Y-36565013D01*
X169882210Y-36546270D01*
X169891439Y-36529003D01*
X169903865Y-36513862D01*
X169912683Y-36506625D01*
X169930010Y-36489298D01*
X169943623Y-36468924D01*
X169953001Y-36446285D01*
X169957781Y-36422252D01*
X169957781Y-36397748D01*
X169953001Y-36373715D01*
X169943623Y-36351076D01*
X169930009Y-36330701D01*
X169912683Y-36313375D01*
X169903865Y-36306138D01*
X169891439Y-36290997D01*
X169882210Y-36273730D01*
X169876524Y-36254987D01*
X169874000Y-36229360D01*
X169874000Y-35790640D01*
X169876524Y-35765013D01*
X169882210Y-35746270D01*
X169891439Y-35729003D01*
X169903865Y-35713862D01*
X169912683Y-35706625D01*
X169930010Y-35689298D01*
X169943623Y-35668924D01*
X169953001Y-35646285D01*
X169957781Y-35622252D01*
X169957781Y-35597748D01*
X169953001Y-35573715D01*
X169943623Y-35551076D01*
X169930009Y-35530701D01*
X169912683Y-35513375D01*
X169903865Y-35506138D01*
X169891439Y-35490997D01*
X169882210Y-35473730D01*
X169876524Y-35454987D01*
X169874000Y-35429360D01*
X169874000Y-34990640D01*
X169876524Y-34965013D01*
X169882210Y-34946270D01*
X169891439Y-34929003D01*
X169903865Y-34913862D01*
X169912683Y-34906625D01*
X169930010Y-34889298D01*
X169943623Y-34868924D01*
X169953001Y-34846285D01*
X169957781Y-34822252D01*
X169957781Y-34797748D01*
X169953001Y-34773715D01*
X169943623Y-34751076D01*
X169930009Y-34730701D01*
X169912683Y-34713375D01*
X169903865Y-34706138D01*
X169891439Y-34690997D01*
X169882210Y-34673730D01*
X169876524Y-34654987D01*
X169874000Y-34629360D01*
X169874000Y-34190640D01*
X169876524Y-34165013D01*
X169882210Y-34146270D01*
X169891439Y-34129003D01*
X169903865Y-34113862D01*
X169912683Y-34106625D01*
X169930010Y-34089298D01*
X169943623Y-34068924D01*
X169953001Y-34046285D01*
X169957781Y-34022252D01*
X169957781Y-33997748D01*
X169953001Y-33973715D01*
X169943623Y-33951076D01*
X169930009Y-33930701D01*
X169912683Y-33913375D01*
X169903865Y-33906138D01*
X169891439Y-33890997D01*
X169882210Y-33873730D01*
X169876524Y-33854987D01*
X169874000Y-33829360D01*
X169874000Y-33390640D01*
X169876524Y-33365013D01*
X169882210Y-33346270D01*
X169891439Y-33329003D01*
X169903865Y-33313862D01*
X169912683Y-33306625D01*
X169930010Y-33289298D01*
X169943623Y-33268924D01*
X169953001Y-33246285D01*
X169957781Y-33222252D01*
X169957781Y-33197748D01*
X169953001Y-33173715D01*
X169943623Y-33151076D01*
X169930009Y-33130701D01*
X169912683Y-33113375D01*
X169903865Y-33106138D01*
X169891439Y-33090997D01*
X169882210Y-33073730D01*
X169876524Y-33054987D01*
X169874000Y-33029360D01*
X169874000Y-32590640D01*
X169876524Y-32565013D01*
X169882210Y-32546270D01*
X169891439Y-32529003D01*
X169903865Y-32513862D01*
X169912683Y-32506625D01*
X169930010Y-32489298D01*
X169943623Y-32468924D01*
X169953001Y-32446285D01*
X169957781Y-32422252D01*
X169957781Y-32397748D01*
X169953001Y-32373715D01*
X169943623Y-32351076D01*
X169930009Y-32330701D01*
X169912683Y-32313375D01*
X169903865Y-32306138D01*
X169891439Y-32290997D01*
X169882210Y-32273730D01*
X169876524Y-32254987D01*
X169874000Y-32229360D01*
X169874000Y-31790640D01*
X169876524Y-31765013D01*
X169882210Y-31746270D01*
X169891439Y-31729003D01*
X169903865Y-31713862D01*
X169912683Y-31706625D01*
X169930010Y-31689298D01*
X169943623Y-31668924D01*
X169953001Y-31646285D01*
X169957781Y-31622252D01*
X169957781Y-31597748D01*
X169953001Y-31573715D01*
X169943623Y-31551076D01*
X169930009Y-31530701D01*
X169912683Y-31513375D01*
X169903865Y-31506138D01*
X169891439Y-31490997D01*
X169882210Y-31473730D01*
X169876524Y-31454987D01*
X169874000Y-31429360D01*
X169874000Y-30990640D01*
X169876524Y-30965013D01*
X169882210Y-30946270D01*
X169891439Y-30929003D01*
X169903865Y-30913862D01*
X169912683Y-30906625D01*
X169930010Y-30889298D01*
X169943623Y-30868924D01*
X169953001Y-30846285D01*
X169957781Y-30822252D01*
X169957781Y-30797748D01*
X169953001Y-30773715D01*
X169943623Y-30751076D01*
X169930009Y-30730701D01*
X169912683Y-30713375D01*
X169903865Y-30706138D01*
X169891439Y-30690997D01*
X169882210Y-30673730D01*
X169876524Y-30654987D01*
X169874000Y-30629360D01*
X169874000Y-30190640D01*
X169876524Y-30165013D01*
X169882210Y-30146270D01*
X169891439Y-30129003D01*
X169903865Y-30113862D01*
X169912683Y-30106625D01*
X169930010Y-30089298D01*
X169943623Y-30068924D01*
X169953001Y-30046285D01*
X169957781Y-30022252D01*
X169957781Y-29997748D01*
X169953001Y-29973715D01*
X169943623Y-29951076D01*
X169930009Y-29930701D01*
X169912683Y-29913375D01*
X169903865Y-29906138D01*
X169891439Y-29890997D01*
X169882210Y-29873730D01*
X169876524Y-29854987D01*
X169874000Y-29829360D01*
X169874000Y-29390640D01*
X169876524Y-29365013D01*
X169882210Y-29346270D01*
X169891439Y-29329003D01*
X169903865Y-29313862D01*
X169912683Y-29306625D01*
X169930010Y-29289298D01*
X169943623Y-29268924D01*
X169953001Y-29246285D01*
X169957781Y-29222252D01*
X169957781Y-29197748D01*
X169953001Y-29173715D01*
X169943623Y-29151076D01*
X169930009Y-29130701D01*
X169912683Y-29113375D01*
X169903865Y-29106138D01*
X169891439Y-29090997D01*
X169882210Y-29073730D01*
X169876524Y-29054987D01*
X169874000Y-29029360D01*
X169874000Y-28590640D01*
X169876524Y-28565013D01*
X169882210Y-28546270D01*
X169891439Y-28529003D01*
X169903865Y-28513862D01*
X169912683Y-28506625D01*
X169930010Y-28489298D01*
X169943623Y-28468924D01*
X169953001Y-28446285D01*
X169957781Y-28422252D01*
X169957781Y-28397748D01*
X169953001Y-28373715D01*
X169943623Y-28351076D01*
X169930009Y-28330701D01*
X169912683Y-28313375D01*
X169903865Y-28306138D01*
X169891439Y-28290997D01*
X169882210Y-28273730D01*
X169876524Y-28254987D01*
X169874000Y-28229360D01*
X169874000Y-27790640D01*
X169876524Y-27765013D01*
X169882210Y-27746270D01*
X169891439Y-27729003D01*
X169903865Y-27713862D01*
X169912683Y-27706625D01*
X169930010Y-27689298D01*
X169943623Y-27668924D01*
X169953001Y-27646285D01*
X169957781Y-27622252D01*
X169957781Y-27597748D01*
X169953001Y-27573715D01*
X169943623Y-27551076D01*
X169930009Y-27530701D01*
X169912683Y-27513375D01*
X169903865Y-27506138D01*
X169891439Y-27490997D01*
X169882210Y-27473730D01*
X169876524Y-27454987D01*
X169874000Y-27429360D01*
X169874000Y-26990640D01*
X169876524Y-26965013D01*
X169882210Y-26946270D01*
X169891439Y-26929003D01*
X169903865Y-26913862D01*
X169912683Y-26906625D01*
X169930010Y-26889298D01*
X169943623Y-26868924D01*
X169953001Y-26846285D01*
X169957781Y-26822252D01*
X169957781Y-26797748D01*
X169953001Y-26773715D01*
X169943623Y-26751076D01*
X169930009Y-26730701D01*
X169912683Y-26713375D01*
X169903865Y-26706138D01*
X169891439Y-26690997D01*
X169882210Y-26673730D01*
X169876524Y-26654987D01*
X169874000Y-26629360D01*
X169874000Y-26190640D01*
X169876524Y-26165013D01*
X169882210Y-26146270D01*
X169891439Y-26129003D01*
X169903865Y-26113862D01*
X169912683Y-26106625D01*
X169930010Y-26089298D01*
X169943623Y-26068924D01*
X169953001Y-26046285D01*
X169957781Y-26022252D01*
X169957781Y-25997748D01*
X169953001Y-25973715D01*
X169943623Y-25951076D01*
X169930009Y-25930701D01*
X169912683Y-25913375D01*
X169903865Y-25906138D01*
X169891439Y-25890997D01*
X169882210Y-25873730D01*
X169876524Y-25854987D01*
X169874000Y-25829360D01*
X169874000Y-25390640D01*
X169876524Y-25365013D01*
X169882210Y-25346270D01*
X169891439Y-25329003D01*
X169903865Y-25313862D01*
X169912683Y-25306625D01*
X169930010Y-25289298D01*
X169943623Y-25268924D01*
X169953001Y-25246285D01*
X169957781Y-25222252D01*
X169957781Y-25197748D01*
X169953001Y-25173715D01*
X169943623Y-25151076D01*
X169930009Y-25130701D01*
X169912683Y-25113375D01*
X169903865Y-25106138D01*
X169891439Y-25090997D01*
X169882210Y-25073730D01*
X169876524Y-25054987D01*
X169874000Y-25029360D01*
X169874000Y-24590640D01*
X169876524Y-24565013D01*
X169882210Y-24546270D01*
X169891439Y-24529003D01*
X169903865Y-24513862D01*
X169912683Y-24506625D01*
X169930010Y-24489298D01*
X169943623Y-24468924D01*
X169953001Y-24446285D01*
X169957781Y-24422252D01*
X169957781Y-24397748D01*
X169953001Y-24373715D01*
X169943623Y-24351076D01*
X169930009Y-24330701D01*
X169912683Y-24313375D01*
X169903865Y-24306138D01*
X169891439Y-24290997D01*
X169882210Y-24273730D01*
X169876524Y-24254987D01*
X169874000Y-24229360D01*
X169874000Y-23790640D01*
X169876524Y-23765013D01*
X169882210Y-23746270D01*
X169891439Y-23729003D01*
X169903865Y-23713862D01*
X169912683Y-23706625D01*
X169930010Y-23689298D01*
X169943623Y-23668924D01*
X169953001Y-23646285D01*
X169957781Y-23622252D01*
X169957781Y-23597748D01*
X169953001Y-23573715D01*
X169943623Y-23551076D01*
X169930009Y-23530701D01*
X169912683Y-23513375D01*
X169903865Y-23506138D01*
X169891439Y-23490997D01*
X169882210Y-23473730D01*
X169876524Y-23454987D01*
X169874000Y-23429360D01*
X169874000Y-22990640D01*
X169876524Y-22965013D01*
X169882210Y-22946270D01*
X169891439Y-22929003D01*
X169903865Y-22913862D01*
X169912683Y-22906625D01*
X169930010Y-22889298D01*
X169943623Y-22868924D01*
X169953001Y-22846285D01*
X169957781Y-22822252D01*
X169957781Y-22797748D01*
X169953001Y-22773715D01*
X169943623Y-22751076D01*
X169930009Y-22730701D01*
X169912683Y-22713375D01*
X169903865Y-22706138D01*
X169891439Y-22690997D01*
X169882210Y-22673730D01*
X169876524Y-22654987D01*
X169874000Y-22629360D01*
X169874000Y-22190640D01*
X169876524Y-22165013D01*
X169882210Y-22146270D01*
X169891439Y-22129003D01*
X169903865Y-22113862D01*
X169912683Y-22106625D01*
X169930010Y-22089298D01*
X169943623Y-22068924D01*
X169953001Y-22046285D01*
X169957781Y-22022252D01*
X169957781Y-21997748D01*
X169953001Y-21973715D01*
X169943623Y-21951076D01*
X169930009Y-21930701D01*
X169912683Y-21913375D01*
X169903865Y-21906138D01*
X169891439Y-21890997D01*
X169882210Y-21873730D01*
X169876524Y-21854987D01*
X169874000Y-21829360D01*
X169874000Y-21390640D01*
X169876524Y-21365013D01*
X169882210Y-21346270D01*
X169891439Y-21329003D01*
X169903865Y-21313862D01*
X169912683Y-21306625D01*
X169930010Y-21289298D01*
X169943623Y-21268924D01*
X169953001Y-21246285D01*
X169957781Y-21222252D01*
X169957781Y-21197748D01*
X169953001Y-21173715D01*
X169943623Y-21151076D01*
X169930009Y-21130701D01*
X169912683Y-21113375D01*
X169903865Y-21106138D01*
X169891439Y-21090997D01*
X169882210Y-21073730D01*
X169876524Y-21054987D01*
X169874000Y-21029360D01*
X169874000Y-20590640D01*
X169876524Y-20565013D01*
X169882210Y-20546270D01*
X169891439Y-20529003D01*
X169903864Y-20513864D01*
X169919003Y-20501439D01*
X169936270Y-20492210D01*
X169955013Y-20486524D01*
X169980640Y-20484000D01*
X171394360Y-20484000D01*
X171419987Y-20486524D01*
G37*
G36*
X235698254Y-32787818D02*
G01*
X236071511Y-32942426D01*
X236071513Y-32942427D01*
X236407436Y-33166884D01*
X236693116Y-33452564D01*
X236890200Y-33747520D01*
X236917574Y-33788489D01*
X237072182Y-34161746D01*
X237151000Y-34557993D01*
X237151000Y-34962007D01*
X237072182Y-35358254D01*
X236935956Y-35687132D01*
X236917573Y-35731513D01*
X236693116Y-36067436D01*
X236407436Y-36353116D01*
X236071513Y-36577573D01*
X236071512Y-36577574D01*
X236071511Y-36577574D01*
X235698254Y-36732182D01*
X235302007Y-36811000D01*
X234897993Y-36811000D01*
X234501746Y-36732182D01*
X234128489Y-36577574D01*
X234128488Y-36577574D01*
X234128487Y-36577573D01*
X233792564Y-36353116D01*
X233506884Y-36067436D01*
X233282427Y-35731513D01*
X233264044Y-35687132D01*
X233127818Y-35358254D01*
X233049000Y-34962007D01*
X233049000Y-34557993D01*
X233127818Y-34161746D01*
X233282426Y-33788489D01*
X233309801Y-33747520D01*
X233506884Y-33452564D01*
X233792564Y-33166884D01*
X234128487Y-32942427D01*
X234128489Y-32942426D01*
X234501746Y-32787818D01*
X234897993Y-32709000D01*
X235302007Y-32709000D01*
X235698254Y-32787818D01*
G37*
G36*
X222498228Y-33471703D02*
G01*
X222653100Y-33535853D01*
X222792481Y-33628985D01*
X222911015Y-33747519D01*
X223004147Y-33886900D01*
X223068297Y-34041772D01*
X223101000Y-34206184D01*
X223101000Y-34373816D01*
X223068297Y-34538228D01*
X223004147Y-34693100D01*
X222911015Y-34832481D01*
X222792481Y-34951015D01*
X222653100Y-35044147D01*
X222498228Y-35108297D01*
X222333816Y-35141000D01*
X222166184Y-35141000D01*
X222001772Y-35108297D01*
X221846900Y-35044147D01*
X221707519Y-34951015D01*
X221588985Y-34832481D01*
X221495853Y-34693100D01*
X221431703Y-34538228D01*
X221399000Y-34373816D01*
X221399000Y-34206184D01*
X221431703Y-34041772D01*
X221495853Y-33886900D01*
X221588985Y-33747519D01*
X221707519Y-33628985D01*
X221846900Y-33535853D01*
X222001772Y-33471703D01*
X222166184Y-33439000D01*
X222333816Y-33439000D01*
X222498228Y-33471703D01*
G37*
G36*
X227498228Y-33471703D02*
G01*
X227653100Y-33535853D01*
X227792481Y-33628985D01*
X227911015Y-33747519D01*
X228004147Y-33886900D01*
X228068297Y-34041772D01*
X228101000Y-34206184D01*
X228101000Y-34373816D01*
X228068297Y-34538228D01*
X228004147Y-34693100D01*
X227911015Y-34832481D01*
X227792481Y-34951015D01*
X227653100Y-35044147D01*
X227498228Y-35108297D01*
X227333816Y-35141000D01*
X227166184Y-35141000D01*
X227001772Y-35108297D01*
X226846900Y-35044147D01*
X226707519Y-34951015D01*
X226588985Y-34832481D01*
X226495853Y-34693100D01*
X226431703Y-34538228D01*
X226399000Y-34373816D01*
X226399000Y-34206184D01*
X226431703Y-34041772D01*
X226495853Y-33886900D01*
X226588985Y-33747519D01*
X226707519Y-33628985D01*
X226846900Y-33535853D01*
X227001772Y-33471703D01*
X227166184Y-33439000D01*
X227333816Y-33439000D01*
X227498228Y-33471703D01*
G37*
G36*
X213046000Y-34656000D02*
G01*
X208594000Y-34656000D01*
X208594000Y-33104000D01*
X213046000Y-33104000D01*
X213046000Y-34656000D01*
G37*
G36*
X206696000Y-34656000D02*
G01*
X202244000Y-34656000D01*
X202244000Y-33104000D01*
X206696000Y-33104000D01*
X206696000Y-34656000D01*
G37*
G36*
X193996000Y-34656000D02*
G01*
X189544000Y-34656000D01*
X189544000Y-33104000D01*
X193996000Y-33104000D01*
X193996000Y-34656000D01*
G37*
G36*
X200346000Y-34656000D02*
G01*
X195894000Y-34656000D01*
X195894000Y-33104000D01*
X200346000Y-33104000D01*
X200346000Y-34656000D01*
G37*
G36*
X143876000Y-31436000D02*
G01*
X142324000Y-31436000D01*
X142324000Y-26984000D01*
X143876000Y-26984000D01*
X143876000Y-31436000D01*
G37*
G36*
X149776000Y-31436000D02*
G01*
X148224000Y-31436000D01*
X148224000Y-26984000D01*
X149776000Y-26984000D01*
X149776000Y-31436000D01*
G37*
G36*
X156978604Y-29938347D02*
G01*
X157015144Y-29949432D01*
X157048821Y-29967433D01*
X157078341Y-29991659D01*
X157102567Y-30021179D01*
X157120568Y-30054856D01*
X157131653Y-30091396D01*
X157136000Y-30135538D01*
X157136000Y-31084462D01*
X157131653Y-31128604D01*
X157120568Y-31165144D01*
X157102567Y-31198821D01*
X157078341Y-31228341D01*
X157048821Y-31252567D01*
X157015144Y-31270568D01*
X156978604Y-31281653D01*
X156934462Y-31286000D01*
X155485538Y-31286000D01*
X155441396Y-31281653D01*
X155404856Y-31270568D01*
X155371179Y-31252567D01*
X155341659Y-31228341D01*
X155317433Y-31198821D01*
X155299432Y-31165144D01*
X155288347Y-31128604D01*
X155284000Y-31084462D01*
X155284000Y-30135538D01*
X155288347Y-30091396D01*
X155299432Y-30054856D01*
X155317433Y-30021179D01*
X155341659Y-29991659D01*
X155371179Y-29967433D01*
X155404856Y-29949432D01*
X155441396Y-29938347D01*
X155485538Y-29934000D01*
X156934462Y-29934000D01*
X156978604Y-29938347D01*
G37*
G36*
X174758604Y-29938347D02*
G01*
X174795144Y-29949432D01*
X174828821Y-29967433D01*
X174858341Y-29991659D01*
X174882567Y-30021179D01*
X174900568Y-30054856D01*
X174911653Y-30091396D01*
X174916000Y-30135538D01*
X174916000Y-31084462D01*
X174911653Y-31128604D01*
X174900568Y-31165144D01*
X174882567Y-31198821D01*
X174858341Y-31228341D01*
X174828821Y-31252567D01*
X174795144Y-31270568D01*
X174758604Y-31281653D01*
X174714462Y-31286000D01*
X173265538Y-31286000D01*
X173221396Y-31281653D01*
X173184856Y-31270568D01*
X173151179Y-31252567D01*
X173121659Y-31228341D01*
X173097433Y-31198821D01*
X173079432Y-31165144D01*
X173068347Y-31128604D01*
X173064000Y-31084462D01*
X173064000Y-30135538D01*
X173068347Y-30091396D01*
X173079432Y-30054856D01*
X173097433Y-30021179D01*
X173121659Y-29991659D01*
X173151179Y-29967433D01*
X173184856Y-29949432D01*
X173221396Y-29938347D01*
X173265538Y-29934000D01*
X174714462Y-29934000D01*
X174758604Y-29938347D01*
G37*
G36*
X200346000Y-30396000D02*
G01*
X195894000Y-30396000D01*
X195894000Y-28844000D01*
X200346000Y-28844000D01*
X200346000Y-30396000D01*
G37*
G36*
X213046000Y-30396000D02*
G01*
X208594000Y-30396000D01*
X208594000Y-28844000D01*
X213046000Y-28844000D01*
X213046000Y-30396000D01*
G37*
G36*
X193996000Y-30396000D02*
G01*
X189544000Y-30396000D01*
X189544000Y-28844000D01*
X193996000Y-28844000D01*
X193996000Y-30396000D01*
G37*
G36*
X206696000Y-30396000D02*
G01*
X202244000Y-30396000D01*
X202244000Y-28844000D01*
X206696000Y-28844000D01*
X206696000Y-30396000D01*
G37*
G36*
X234531000Y-28791000D02*
G01*
X232829000Y-28791000D01*
X232829000Y-27089000D01*
X234531000Y-27089000D01*
X234531000Y-28791000D01*
G37*
G36*
X174758604Y-27138347D02*
G01*
X174795144Y-27149432D01*
X174828821Y-27167433D01*
X174858341Y-27191659D01*
X174882567Y-27221179D01*
X174900568Y-27254856D01*
X174911653Y-27291396D01*
X174916000Y-27335538D01*
X174916000Y-28284462D01*
X174911653Y-28328604D01*
X174900568Y-28365144D01*
X174882567Y-28398821D01*
X174858341Y-28428341D01*
X174828821Y-28452567D01*
X174795144Y-28470568D01*
X174758604Y-28481653D01*
X174714462Y-28486000D01*
X173265538Y-28486000D01*
X173221396Y-28481653D01*
X173184856Y-28470568D01*
X173151179Y-28452567D01*
X173121659Y-28428341D01*
X173097433Y-28398821D01*
X173079432Y-28365144D01*
X173068347Y-28328604D01*
X173064000Y-28284462D01*
X173064000Y-27335538D01*
X173068347Y-27291396D01*
X173079432Y-27254856D01*
X173097433Y-27221179D01*
X173121659Y-27191659D01*
X173151179Y-27167433D01*
X173184856Y-27149432D01*
X173221396Y-27138347D01*
X173265538Y-27134000D01*
X174714462Y-27134000D01*
X174758604Y-27138347D01*
G37*
G36*
X156978604Y-27138347D02*
G01*
X157015144Y-27149432D01*
X157048821Y-27167433D01*
X157078341Y-27191659D01*
X157102567Y-27221179D01*
X157120568Y-27254856D01*
X157131653Y-27291396D01*
X157136000Y-27335538D01*
X157136000Y-28284462D01*
X157131653Y-28328604D01*
X157120568Y-28365144D01*
X157102567Y-28398821D01*
X157078341Y-28428341D01*
X157048821Y-28452567D01*
X157015144Y-28470568D01*
X156978604Y-28481653D01*
X156934462Y-28486000D01*
X155485538Y-28486000D01*
X155441396Y-28481653D01*
X155404856Y-28470568D01*
X155371179Y-28452567D01*
X155341659Y-28428341D01*
X155317433Y-28398821D01*
X155299432Y-28365144D01*
X155288347Y-28328604D01*
X155284000Y-28284462D01*
X155284000Y-27335538D01*
X155288347Y-27291396D01*
X155299432Y-27254856D01*
X155317433Y-27221179D01*
X155341659Y-27191659D01*
X155371179Y-27167433D01*
X155404856Y-27149432D01*
X155441396Y-27138347D01*
X155485538Y-27134000D01*
X156934462Y-27134000D01*
X156978604Y-27138347D01*
G37*
G36*
X236768228Y-25736703D02*
G01*
X236923100Y-25800853D01*
X237062481Y-25893985D01*
X237181015Y-26012519D01*
X237274147Y-26151900D01*
X237338297Y-26306772D01*
X237371000Y-26471184D01*
X237371000Y-26638816D01*
X237338297Y-26803228D01*
X237274147Y-26958100D01*
X237181015Y-27097481D01*
X237062481Y-27216015D01*
X236923100Y-27309147D01*
X236768228Y-27373297D01*
X236603816Y-27406000D01*
X236436184Y-27406000D01*
X236271772Y-27373297D01*
X236116900Y-27309147D01*
X235977519Y-27216015D01*
X235858985Y-27097481D01*
X235765853Y-26958100D01*
X235701703Y-26803228D01*
X235669000Y-26638816D01*
X235669000Y-26471184D01*
X235701703Y-26306772D01*
X235765853Y-26151900D01*
X235858985Y-26012519D01*
X235977519Y-25893985D01*
X236116900Y-25800853D01*
X236271772Y-25736703D01*
X236436184Y-25704000D01*
X236603816Y-25704000D01*
X236768228Y-25736703D01*
G37*
G36*
X233928228Y-24351703D02*
G01*
X234083100Y-24415853D01*
X234222481Y-24508985D01*
X234341015Y-24627519D01*
X234434147Y-24766900D01*
X234498297Y-24921772D01*
X234531000Y-25086184D01*
X234531000Y-25253816D01*
X234498297Y-25418228D01*
X234434147Y-25573100D01*
X234341015Y-25712481D01*
X234222481Y-25831015D01*
X234083100Y-25924147D01*
X233928228Y-25988297D01*
X233763816Y-26021000D01*
X233596184Y-26021000D01*
X233431772Y-25988297D01*
X233276900Y-25924147D01*
X233137519Y-25831015D01*
X233018985Y-25712481D01*
X232925853Y-25573100D01*
X232861703Y-25418228D01*
X232829000Y-25253816D01*
X232829000Y-25086184D01*
X232861703Y-24921772D01*
X232925853Y-24766900D01*
X233018985Y-24627519D01*
X233137519Y-24508985D01*
X233276900Y-24415853D01*
X233431772Y-24351703D01*
X233596184Y-24319000D01*
X233763816Y-24319000D01*
X233928228Y-24351703D01*
G37*
G36*
X143876000Y-25086000D02*
G01*
X142324000Y-25086000D01*
X142324000Y-20634000D01*
X143876000Y-20634000D01*
X143876000Y-25086000D01*
G37*
G36*
X149776000Y-25086000D02*
G01*
X148224000Y-25086000D01*
X148224000Y-20634000D01*
X149776000Y-20634000D01*
X149776000Y-25086000D01*
G37*
G36*
X236768228Y-22966703D02*
G01*
X236923100Y-23030853D01*
X237062481Y-23123985D01*
X237181015Y-23242519D01*
X237274147Y-23381900D01*
X237338297Y-23536772D01*
X237371000Y-23701184D01*
X237371000Y-23868816D01*
X237338297Y-24033228D01*
X237274147Y-24188100D01*
X237181015Y-24327481D01*
X237062481Y-24446015D01*
X236923100Y-24539147D01*
X236768228Y-24603297D01*
X236603816Y-24636000D01*
X236436184Y-24636000D01*
X236271772Y-24603297D01*
X236116900Y-24539147D01*
X235977519Y-24446015D01*
X235858985Y-24327481D01*
X235765853Y-24188100D01*
X235701703Y-24033228D01*
X235669000Y-23868816D01*
X235669000Y-23701184D01*
X235701703Y-23536772D01*
X235765853Y-23381900D01*
X235858985Y-23242519D01*
X235977519Y-23123985D01*
X236116900Y-23030853D01*
X236271772Y-22966703D01*
X236436184Y-22934000D01*
X236603816Y-22934000D01*
X236768228Y-22966703D01*
G37*
G36*
X193996000Y-24496000D02*
G01*
X189544000Y-24496000D01*
X189544000Y-22944000D01*
X193996000Y-22944000D01*
X193996000Y-24496000D01*
G37*
G36*
X206696000Y-24496000D02*
G01*
X202244000Y-24496000D01*
X202244000Y-22944000D01*
X206696000Y-22944000D01*
X206696000Y-24496000D01*
G37*
G36*
X213046000Y-24496000D02*
G01*
X208594000Y-24496000D01*
X208594000Y-22944000D01*
X213046000Y-22944000D01*
X213046000Y-24496000D01*
G37*
G36*
X200346000Y-24496000D02*
G01*
X195894000Y-24496000D01*
X195894000Y-22944000D01*
X200346000Y-22944000D01*
X200346000Y-24496000D01*
G37*
G36*
X233928228Y-21581703D02*
G01*
X234083100Y-21645853D01*
X234222481Y-21738985D01*
X234341015Y-21857519D01*
X234434147Y-21996900D01*
X234498297Y-22151772D01*
X234531000Y-22316184D01*
X234531000Y-22483816D01*
X234498297Y-22648228D01*
X234434147Y-22803100D01*
X234341015Y-22942481D01*
X234222481Y-23061015D01*
X234083100Y-23154147D01*
X233928228Y-23218297D01*
X233763816Y-23251000D01*
X233596184Y-23251000D01*
X233431772Y-23218297D01*
X233276900Y-23154147D01*
X233137519Y-23061015D01*
X233018985Y-22942481D01*
X232925853Y-22803100D01*
X232861703Y-22648228D01*
X232829000Y-22483816D01*
X232829000Y-22316184D01*
X232861703Y-22151772D01*
X232925853Y-21996900D01*
X233018985Y-21857519D01*
X233137519Y-21738985D01*
X233276900Y-21645853D01*
X233431772Y-21581703D01*
X233596184Y-21549000D01*
X233763816Y-21549000D01*
X233928228Y-21581703D01*
G37*
G36*
X236768228Y-20196703D02*
G01*
X236923100Y-20260853D01*
X237062481Y-20353985D01*
X237181015Y-20472519D01*
X237274147Y-20611900D01*
X237338297Y-20766772D01*
X237371000Y-20931184D01*
X237371000Y-21098816D01*
X237338297Y-21263228D01*
X237274147Y-21418100D01*
X237181015Y-21557481D01*
X237062481Y-21676015D01*
X236923100Y-21769147D01*
X236768228Y-21833297D01*
X236603816Y-21866000D01*
X236436184Y-21866000D01*
X236271772Y-21833297D01*
X236116900Y-21769147D01*
X235977519Y-21676015D01*
X235858985Y-21557481D01*
X235765853Y-21418100D01*
X235701703Y-21263228D01*
X235669000Y-21098816D01*
X235669000Y-20931184D01*
X235701703Y-20766772D01*
X235765853Y-20611900D01*
X235858985Y-20472519D01*
X235977519Y-20353985D01*
X236116900Y-20260853D01*
X236271772Y-20196703D01*
X236436184Y-20164000D01*
X236603816Y-20164000D01*
X236768228Y-20196703D01*
G37*
G36*
X233928228Y-18811703D02*
G01*
X234083100Y-18875853D01*
X234222481Y-18968985D01*
X234341015Y-19087519D01*
X234434147Y-19226900D01*
X234498297Y-19381772D01*
X234531000Y-19546184D01*
X234531000Y-19713816D01*
X234498297Y-19878228D01*
X234434147Y-20033100D01*
X234341015Y-20172481D01*
X234222481Y-20291015D01*
X234083100Y-20384147D01*
X233928228Y-20448297D01*
X233763816Y-20481000D01*
X233596184Y-20481000D01*
X233431772Y-20448297D01*
X233276900Y-20384147D01*
X233137519Y-20291015D01*
X233018985Y-20172481D01*
X232925853Y-20033100D01*
X232861703Y-19878228D01*
X232829000Y-19713816D01*
X232829000Y-19546184D01*
X232861703Y-19381772D01*
X232925853Y-19226900D01*
X233018985Y-19087519D01*
X233137519Y-18968985D01*
X233276900Y-18875853D01*
X233431772Y-18811703D01*
X233596184Y-18779000D01*
X233763816Y-18779000D01*
X233928228Y-18811703D01*
G37*
G36*
X206696000Y-20236000D02*
G01*
X202244000Y-20236000D01*
X202244000Y-18684000D01*
X206696000Y-18684000D01*
X206696000Y-20236000D01*
G37*
G36*
X213046000Y-20236000D02*
G01*
X208594000Y-20236000D01*
X208594000Y-18684000D01*
X213046000Y-18684000D01*
X213046000Y-20236000D01*
G37*
G36*
X200346000Y-20236000D02*
G01*
X195894000Y-20236000D01*
X195894000Y-18684000D01*
X200346000Y-18684000D01*
X200346000Y-20236000D01*
G37*
G36*
X236768228Y-17426703D02*
G01*
X236923100Y-17490853D01*
X237062481Y-17583985D01*
X237181015Y-17702519D01*
X237274147Y-17841900D01*
X237338297Y-17996772D01*
X237371000Y-18161184D01*
X237371000Y-18328816D01*
X237338297Y-18493228D01*
X237274147Y-18648100D01*
X237181015Y-18787481D01*
X237062481Y-18906015D01*
X236923100Y-18999147D01*
X236768228Y-19063297D01*
X236603816Y-19096000D01*
X236436184Y-19096000D01*
X236271772Y-19063297D01*
X236116900Y-18999147D01*
X235977519Y-18906015D01*
X235858985Y-18787481D01*
X235765853Y-18648100D01*
X235701703Y-18493228D01*
X235669000Y-18328816D01*
X235669000Y-18161184D01*
X235701703Y-17996772D01*
X235765853Y-17841900D01*
X235858985Y-17702519D01*
X235977519Y-17583985D01*
X236116900Y-17490853D01*
X236271772Y-17426703D01*
X236436184Y-17394000D01*
X236603816Y-17394000D01*
X236768228Y-17426703D01*
G37*
G36*
X233928228Y-16041703D02*
G01*
X234083100Y-16105853D01*
X234222481Y-16198985D01*
X234341015Y-16317519D01*
X234434147Y-16456900D01*
X234498297Y-16611772D01*
X234531000Y-16776184D01*
X234531000Y-16943816D01*
X234498297Y-17108228D01*
X234434147Y-17263100D01*
X234341015Y-17402481D01*
X234222481Y-17521015D01*
X234083100Y-17614147D01*
X233928228Y-17678297D01*
X233763816Y-17711000D01*
X233596184Y-17711000D01*
X233431772Y-17678297D01*
X233276900Y-17614147D01*
X233137519Y-17521015D01*
X233018985Y-17402481D01*
X232925853Y-17263100D01*
X232861703Y-17108228D01*
X232829000Y-16943816D01*
X232829000Y-16776184D01*
X232861703Y-16611772D01*
X232925853Y-16456900D01*
X233018985Y-16317519D01*
X233137519Y-16198985D01*
X233276900Y-16105853D01*
X233431772Y-16041703D01*
X233596184Y-16009000D01*
X233763816Y-16009000D01*
X233928228Y-16041703D01*
G37*
G36*
X236768228Y-14656703D02*
G01*
X236923100Y-14720853D01*
X237062481Y-14813985D01*
X237181015Y-14932519D01*
X237274147Y-15071900D01*
X237338297Y-15226772D01*
X237371000Y-15391184D01*
X237371000Y-15558816D01*
X237338297Y-15723228D01*
X237274147Y-15878100D01*
X237181015Y-16017481D01*
X237062481Y-16136015D01*
X236923100Y-16229147D01*
X236768228Y-16293297D01*
X236603816Y-16326000D01*
X236436184Y-16326000D01*
X236271772Y-16293297D01*
X236116900Y-16229147D01*
X235977519Y-16136015D01*
X235858985Y-16017481D01*
X235765853Y-15878100D01*
X235701703Y-15723228D01*
X235669000Y-15558816D01*
X235669000Y-15391184D01*
X235701703Y-15226772D01*
X235765853Y-15071900D01*
X235858985Y-14932519D01*
X235977519Y-14813985D01*
X236116900Y-14720853D01*
X236271772Y-14656703D01*
X236436184Y-14624000D01*
X236603816Y-14624000D01*
X236768228Y-14656703D01*
G37*
G36*
X233928228Y-13271703D02*
G01*
X234083100Y-13335853D01*
X234222481Y-13428985D01*
X234341015Y-13547519D01*
X234434147Y-13686900D01*
X234498297Y-13841772D01*
X234531000Y-14006184D01*
X234531000Y-14173816D01*
X234498297Y-14338228D01*
X234434147Y-14493100D01*
X234341015Y-14632481D01*
X234222481Y-14751015D01*
X234083100Y-14844147D01*
X233928228Y-14908297D01*
X233763816Y-14941000D01*
X233596184Y-14941000D01*
X233431772Y-14908297D01*
X233276900Y-14844147D01*
X233137519Y-14751015D01*
X233018985Y-14632481D01*
X232925853Y-14493100D01*
X232861703Y-14338228D01*
X232829000Y-14173816D01*
X232829000Y-14006184D01*
X232861703Y-13841772D01*
X232925853Y-13686900D01*
X233018985Y-13547519D01*
X233137519Y-13428985D01*
X233276900Y-13335853D01*
X233431772Y-13271703D01*
X233596184Y-13239000D01*
X233763816Y-13239000D01*
X233928228Y-13271703D01*
G37*
G36*
X200346000Y-14336000D02*
G01*
X195894000Y-14336000D01*
X195894000Y-12784000D01*
X200346000Y-12784000D01*
X200346000Y-14336000D01*
G37*
G36*
X206696000Y-14336000D02*
G01*
X202244000Y-14336000D01*
X202244000Y-12784000D01*
X206696000Y-12784000D01*
X206696000Y-14336000D01*
G37*
G36*
X213046000Y-14336000D02*
G01*
X208594000Y-14336000D01*
X208594000Y-12784000D01*
X213046000Y-12784000D01*
X213046000Y-14336000D01*
G37*
G36*
X236768228Y-11886703D02*
G01*
X236923100Y-11950853D01*
X237062481Y-12043985D01*
X237181015Y-12162519D01*
X237274147Y-12301900D01*
X237338297Y-12456772D01*
X237371000Y-12621184D01*
X237371000Y-12788816D01*
X237338297Y-12953228D01*
X237274147Y-13108100D01*
X237181015Y-13247481D01*
X237062481Y-13366015D01*
X236923100Y-13459147D01*
X236768228Y-13523297D01*
X236603816Y-13556000D01*
X236436184Y-13556000D01*
X236271772Y-13523297D01*
X236116900Y-13459147D01*
X235977519Y-13366015D01*
X235858985Y-13247481D01*
X235765853Y-13108100D01*
X235701703Y-12953228D01*
X235669000Y-12788816D01*
X235669000Y-12621184D01*
X235701703Y-12456772D01*
X235765853Y-12301900D01*
X235858985Y-12162519D01*
X235977519Y-12043985D01*
X236116900Y-11950853D01*
X236271772Y-11886703D01*
X236436184Y-11854000D01*
X236603816Y-11854000D01*
X236768228Y-11886703D01*
G37*
G36*
X233928228Y-10501703D02*
G01*
X234083100Y-10565853D01*
X234222481Y-10658985D01*
X234341015Y-10777519D01*
X234434147Y-10916900D01*
X234498297Y-11071772D01*
X234531000Y-11236184D01*
X234531000Y-11403816D01*
X234498297Y-11568228D01*
X234434147Y-11723100D01*
X234341015Y-11862481D01*
X234222481Y-11981015D01*
X234083100Y-12074147D01*
X233928228Y-12138297D01*
X233763816Y-12171000D01*
X233596184Y-12171000D01*
X233431772Y-12138297D01*
X233276900Y-12074147D01*
X233137519Y-11981015D01*
X233018985Y-11862481D01*
X232925853Y-11723100D01*
X232861703Y-11568228D01*
X232829000Y-11403816D01*
X232829000Y-11236184D01*
X232861703Y-11071772D01*
X232925853Y-10916900D01*
X233018985Y-10777519D01*
X233137519Y-10658985D01*
X233276900Y-10565853D01*
X233431772Y-10501703D01*
X233596184Y-10469000D01*
X233763816Y-10469000D01*
X233928228Y-10501703D01*
G37*
G36*
X236768228Y-9116703D02*
G01*
X236923100Y-9180853D01*
X237062481Y-9273985D01*
X237181015Y-9392519D01*
X237274147Y-9531900D01*
X237338297Y-9686772D01*
X237371000Y-9851184D01*
X237371000Y-10018816D01*
X237338297Y-10183228D01*
X237274147Y-10338100D01*
X237181015Y-10477481D01*
X237062481Y-10596015D01*
X236923100Y-10689147D01*
X236768228Y-10753297D01*
X236603816Y-10786000D01*
X236436184Y-10786000D01*
X236271772Y-10753297D01*
X236116900Y-10689147D01*
X235977519Y-10596015D01*
X235858985Y-10477481D01*
X235765853Y-10338100D01*
X235701703Y-10183228D01*
X235669000Y-10018816D01*
X235669000Y-9851184D01*
X235701703Y-9686772D01*
X235765853Y-9531900D01*
X235858985Y-9392519D01*
X235977519Y-9273985D01*
X236116900Y-9180853D01*
X236271772Y-9116703D01*
X236436184Y-9084000D01*
X236603816Y-9084000D01*
X236768228Y-9116703D01*
G37*
G36*
X206696000Y-10076000D02*
G01*
X202244000Y-10076000D01*
X202244000Y-8524000D01*
X206696000Y-8524000D01*
X206696000Y-10076000D01*
G37*
G36*
X200346000Y-10076000D02*
G01*
X195894000Y-10076000D01*
X195894000Y-8524000D01*
X200346000Y-8524000D01*
X200346000Y-10076000D01*
G37*
G36*
X193996000Y-10076000D02*
G01*
X189544000Y-10076000D01*
X189544000Y-8524000D01*
X193996000Y-8524000D01*
X193996000Y-10076000D01*
G37*
G36*
X213046000Y-10076000D02*
G01*
X208594000Y-10076000D01*
X208594000Y-8524000D01*
X213046000Y-8524000D01*
X213046000Y-10076000D01*
G37*
G36*
X161951000Y-9441000D02*
G01*
X155549000Y-9441000D01*
X155549000Y-7889000D01*
X161951000Y-7889000D01*
X161951000Y-9441000D01*
G37*
G36*
X174651000Y-9441000D02*
G01*
X168249000Y-9441000D01*
X168249000Y-7889000D01*
X174651000Y-7889000D01*
X174651000Y-9441000D01*
G37*
G36*
X233928228Y-7731703D02*
G01*
X234083100Y-7795853D01*
X234222481Y-7888985D01*
X234341015Y-8007519D01*
X234434147Y-8146900D01*
X234498297Y-8301772D01*
X234531000Y-8466184D01*
X234531000Y-8633816D01*
X234498297Y-8798228D01*
X234434147Y-8953100D01*
X234341015Y-9092481D01*
X234222481Y-9211015D01*
X234083100Y-9304147D01*
X233928228Y-9368297D01*
X233763816Y-9401000D01*
X233596184Y-9401000D01*
X233431772Y-9368297D01*
X233276900Y-9304147D01*
X233137519Y-9211015D01*
X233018985Y-9092481D01*
X232925853Y-8953100D01*
X232861703Y-8798228D01*
X232829000Y-8633816D01*
X232829000Y-8466184D01*
X232861703Y-8301772D01*
X232925853Y-8146900D01*
X233018985Y-8007519D01*
X233137519Y-7888985D01*
X233276900Y-7795853D01*
X233431772Y-7731703D01*
X233596184Y-7699000D01*
X233763816Y-7699000D01*
X233928228Y-7731703D01*
G37*
G36*
X236768228Y-6346703D02*
G01*
X236923100Y-6410853D01*
X237062481Y-6503985D01*
X237181015Y-6622519D01*
X237274147Y-6761900D01*
X237338297Y-6916772D01*
X237371000Y-7081184D01*
X237371000Y-7248816D01*
X237338297Y-7413228D01*
X237274147Y-7568100D01*
X237181015Y-7707481D01*
X237062481Y-7826015D01*
X236923100Y-7919147D01*
X236768228Y-7983297D01*
X236603816Y-8016000D01*
X236436184Y-8016000D01*
X236271772Y-7983297D01*
X236116900Y-7919147D01*
X235977519Y-7826015D01*
X235858985Y-7707481D01*
X235765853Y-7568100D01*
X235701703Y-7413228D01*
X235669000Y-7248816D01*
X235669000Y-7081184D01*
X235701703Y-6916772D01*
X235765853Y-6761900D01*
X235858985Y-6622519D01*
X235977519Y-6503985D01*
X236116900Y-6410853D01*
X236271772Y-6346703D01*
X236436184Y-6314000D01*
X236603816Y-6314000D01*
X236768228Y-6346703D01*
G37*
G36*
X233928228Y-4961703D02*
G01*
X234083100Y-5025853D01*
X234222481Y-5118985D01*
X234341015Y-5237519D01*
X234434147Y-5376900D01*
X234498297Y-5531772D01*
X234531000Y-5696184D01*
X234531000Y-5863816D01*
X234498297Y-6028228D01*
X234434147Y-6183100D01*
X234341015Y-6322481D01*
X234222481Y-6441015D01*
X234083100Y-6534147D01*
X233928228Y-6598297D01*
X233763816Y-6631000D01*
X233596184Y-6631000D01*
X233431772Y-6598297D01*
X233276900Y-6534147D01*
X233137519Y-6441015D01*
X233018985Y-6322481D01*
X232925853Y-6183100D01*
X232861703Y-6028228D01*
X232829000Y-5863816D01*
X232829000Y-5696184D01*
X232861703Y-5531772D01*
X232925853Y-5376900D01*
X233018985Y-5237519D01*
X233137519Y-5118985D01*
X233276900Y-5025853D01*
X233431772Y-4961703D01*
X233596184Y-4929000D01*
X233763816Y-4929000D01*
X233928228Y-4961703D01*
G37*
G36*
X236768228Y-3576703D02*
G01*
X236923100Y-3640853D01*
X237062481Y-3733985D01*
X237181015Y-3852519D01*
X237274147Y-3991900D01*
X237338297Y-4146772D01*
X237371000Y-4311184D01*
X237371000Y-4478816D01*
X237338297Y-4643228D01*
X237274147Y-4798100D01*
X237181015Y-4937481D01*
X237062481Y-5056015D01*
X236923100Y-5149147D01*
X236768228Y-5213297D01*
X236603816Y-5246000D01*
X236436184Y-5246000D01*
X236271772Y-5213297D01*
X236116900Y-5149147D01*
X235977519Y-5056015D01*
X235858985Y-4937481D01*
X235765853Y-4798100D01*
X235701703Y-4643228D01*
X235669000Y-4478816D01*
X235669000Y-4311184D01*
X235701703Y-4146772D01*
X235765853Y-3991900D01*
X235858985Y-3852519D01*
X235977519Y-3733985D01*
X236116900Y-3640853D01*
X236271772Y-3576703D01*
X236436184Y-3544000D01*
X236603816Y-3544000D01*
X236768228Y-3576703D01*
G37*
G36*
X193996000Y-4176000D02*
G01*
X189544000Y-4176000D01*
X189544000Y-2624000D01*
X193996000Y-2624000D01*
X193996000Y-4176000D01*
G37*
G36*
X206696000Y-4176000D02*
G01*
X202244000Y-4176000D01*
X202244000Y-2624000D01*
X206696000Y-2624000D01*
X206696000Y-4176000D01*
G37*
G36*
X213046000Y-4176000D02*
G01*
X208594000Y-4176000D01*
X208594000Y-2624000D01*
X213046000Y-2624000D01*
X213046000Y-4176000D01*
G37*
G36*
X200346000Y-4176000D02*
G01*
X195894000Y-4176000D01*
X195894000Y-2624000D01*
X200346000Y-2624000D01*
X200346000Y-4176000D01*
G37*
G36*
X233928228Y-2191703D02*
G01*
X234083100Y-2255853D01*
X234222481Y-2348985D01*
X234341015Y-2467519D01*
X234434147Y-2606900D01*
X234498297Y-2761772D01*
X234531000Y-2926184D01*
X234531000Y-3093816D01*
X234498297Y-3258228D01*
X234434147Y-3413100D01*
X234341015Y-3552481D01*
X234222481Y-3671015D01*
X234083100Y-3764147D01*
X233928228Y-3828297D01*
X233763816Y-3861000D01*
X233596184Y-3861000D01*
X233431772Y-3828297D01*
X233276900Y-3764147D01*
X233137519Y-3671015D01*
X233018985Y-3552481D01*
X232925853Y-3413100D01*
X232861703Y-3258228D01*
X232829000Y-3093816D01*
X232829000Y-2926184D01*
X232861703Y-2761772D01*
X232925853Y-2606900D01*
X233018985Y-2467519D01*
X233137519Y-2348985D01*
X233276900Y-2255853D01*
X233431772Y-2191703D01*
X233596184Y-2159000D01*
X233763816Y-2159000D01*
X233928228Y-2191703D01*
G37*
G36*
X161951000Y-3541000D02*
G01*
X155549000Y-3541000D01*
X155549000Y-1989000D01*
X161951000Y-1989000D01*
X161951000Y-3541000D01*
G37*
G36*
X174651000Y-3541000D02*
G01*
X168249000Y-3541000D01*
X168249000Y-1989000D01*
X174651000Y-1989000D01*
X174651000Y-3541000D01*
G37*
G36*
X236768228Y-806703D02*
G01*
X236923100Y-870853D01*
X237062481Y-963985D01*
X237181015Y-1082519D01*
X237274147Y-1221900D01*
X237338297Y-1376772D01*
X237371000Y-1541184D01*
X237371000Y-1708816D01*
X237338297Y-1873228D01*
X237274147Y-2028100D01*
X237181015Y-2167481D01*
X237062481Y-2286015D01*
X236923100Y-2379147D01*
X236768228Y-2443297D01*
X236603816Y-2476000D01*
X236436184Y-2476000D01*
X236271772Y-2443297D01*
X236116900Y-2379147D01*
X235977519Y-2286015D01*
X235858985Y-2167481D01*
X235765853Y-2028100D01*
X235701703Y-1873228D01*
X235669000Y-1708816D01*
X235669000Y-1541184D01*
X235701703Y-1376772D01*
X235765853Y-1221900D01*
X235858985Y-1082519D01*
X235977519Y-963985D01*
X236116900Y-870853D01*
X236271772Y-806703D01*
X236436184Y-774000D01*
X236603816Y-774000D01*
X236768228Y-806703D01*
G37*
G36*
X233928228Y578297D02*
G01*
X234083100Y514147D01*
X234222481Y421015D01*
X234341015Y302481D01*
X234434147Y163100D01*
X234498297Y8228D01*
X234531000Y-156184D01*
X234531000Y-323816D01*
X234498297Y-488228D01*
X234434147Y-643100D01*
X234341015Y-782481D01*
X234222481Y-901015D01*
X234083100Y-994147D01*
X233928228Y-1058297D01*
X233763816Y-1091000D01*
X233596184Y-1091000D01*
X233431772Y-1058297D01*
X233276900Y-994147D01*
X233137519Y-901015D01*
X233018985Y-782481D01*
X232925853Y-643100D01*
X232861703Y-488228D01*
X232829000Y-323816D01*
X232829000Y-156184D01*
X232861703Y8228D01*
X232925853Y163100D01*
X233018985Y302481D01*
X233137519Y421015D01*
X233276900Y514147D01*
X233431772Y578297D01*
X233596184Y611000D01*
X233763816Y611000D01*
X233928228Y578297D01*
G37*
G36*
X206696000Y84000D02*
G01*
X202244000Y84000D01*
X202244000Y1636000D01*
X206696000Y1636000D01*
X206696000Y84000D01*
G37*
G36*
X193996000Y84000D02*
G01*
X189544000Y84000D01*
X189544000Y1636000D01*
X193996000Y1636000D01*
X193996000Y84000D01*
G37*
G36*
X200346000Y84000D02*
G01*
X195894000Y84000D01*
X195894000Y1636000D01*
X200346000Y1636000D01*
X200346000Y84000D01*
G37*
G36*
X213046000Y84000D02*
G01*
X208594000Y84000D01*
X208594000Y1636000D01*
X213046000Y1636000D01*
X213046000Y84000D01*
G37*
G36*
X236768228Y1963297D02*
G01*
X236923100Y1899147D01*
X237062481Y1806015D01*
X237181015Y1687481D01*
X237274147Y1548100D01*
X237338297Y1393228D01*
X237371000Y1228816D01*
X237371000Y1061184D01*
X237338297Y896772D01*
X237274147Y741900D01*
X237181015Y602519D01*
X237062481Y483985D01*
X236923100Y390853D01*
X236768228Y326703D01*
X236603816Y294000D01*
X236436184Y294000D01*
X236271772Y326703D01*
X236116900Y390853D01*
X235977519Y483985D01*
X235858985Y602519D01*
X235765853Y741900D01*
X235701703Y896772D01*
X235669000Y1061184D01*
X235669000Y1228816D01*
X235701703Y1393228D01*
X235765853Y1548100D01*
X235858985Y1687481D01*
X235977519Y1806015D01*
X236116900Y1899147D01*
X236271772Y1963297D01*
X236436184Y1996000D01*
X236603816Y1996000D01*
X236768228Y1963297D01*
G37*
G36*
X233928228Y3348297D02*
G01*
X234083100Y3284147D01*
X234222481Y3191015D01*
X234341015Y3072481D01*
X234434147Y2933100D01*
X234498297Y2778228D01*
X234531000Y2613816D01*
X234531000Y2446184D01*
X234498297Y2281772D01*
X234434147Y2126900D01*
X234341015Y1987519D01*
X234222481Y1868985D01*
X234083100Y1775853D01*
X233928228Y1711703D01*
X233763816Y1679000D01*
X233596184Y1679000D01*
X233431772Y1711703D01*
X233276900Y1775853D01*
X233137519Y1868985D01*
X233018985Y1987519D01*
X232925853Y2126900D01*
X232861703Y2281772D01*
X232829000Y2446184D01*
X232829000Y2613816D01*
X232861703Y2778228D01*
X232925853Y2933100D01*
X233018985Y3072481D01*
X233137519Y3191015D01*
X233276900Y3284147D01*
X233431772Y3348297D01*
X233596184Y3381000D01*
X233763816Y3381000D01*
X233928228Y3348297D01*
G37*
G36*
X236768228Y4733297D02*
G01*
X236923100Y4669147D01*
X237062481Y4576015D01*
X237181015Y4457481D01*
X237274147Y4318100D01*
X237338297Y4163228D01*
X237371000Y3998816D01*
X237371000Y3831184D01*
X237338297Y3666772D01*
X237274147Y3511900D01*
X237181015Y3372519D01*
X237062481Y3253985D01*
X236923100Y3160853D01*
X236768228Y3096703D01*
X236603816Y3064000D01*
X236436184Y3064000D01*
X236271772Y3096703D01*
X236116900Y3160853D01*
X235977519Y3253985D01*
X235858985Y3372519D01*
X235765853Y3511900D01*
X235701703Y3666772D01*
X235669000Y3831184D01*
X235669000Y3998816D01*
X235701703Y4163228D01*
X235765853Y4318100D01*
X235858985Y4457481D01*
X235977519Y4576015D01*
X236116900Y4669147D01*
X236271772Y4733297D01*
X236436184Y4766000D01*
X236603816Y4766000D01*
X236768228Y4733297D01*
G37*
G36*
X233928228Y6118297D02*
G01*
X234083100Y6054147D01*
X234222481Y5961015D01*
X234341015Y5842481D01*
X234434147Y5703100D01*
X234498297Y5548228D01*
X234531000Y5383816D01*
X234531000Y5216184D01*
X234498297Y5051772D01*
X234434147Y4896900D01*
X234341015Y4757519D01*
X234222481Y4638985D01*
X234083100Y4545853D01*
X233928228Y4481703D01*
X233763816Y4449000D01*
X233596184Y4449000D01*
X233431772Y4481703D01*
X233276900Y4545853D01*
X233137519Y4638985D01*
X233018985Y4757519D01*
X232925853Y4896900D01*
X232861703Y5051772D01*
X232829000Y5216184D01*
X232829000Y5383816D01*
X232861703Y5548228D01*
X232925853Y5703100D01*
X233018985Y5842481D01*
X233137519Y5961015D01*
X233276900Y6054147D01*
X233431772Y6118297D01*
X233596184Y6151000D01*
X233763816Y6151000D01*
X233928228Y6118297D01*
G37*
G36*
X236768228Y7503297D02*
G01*
X236923100Y7439147D01*
X237062481Y7346015D01*
X237181015Y7227481D01*
X237274147Y7088100D01*
X237338297Y6933228D01*
X237371000Y6768816D01*
X237371000Y6601184D01*
X237338297Y6436772D01*
X237274147Y6281900D01*
X237181015Y6142519D01*
X237062481Y6023985D01*
X236923100Y5930853D01*
X236768228Y5866703D01*
X236603816Y5834000D01*
X236436184Y5834000D01*
X236271772Y5866703D01*
X236116900Y5930853D01*
X235977519Y6023985D01*
X235858985Y6142519D01*
X235765853Y6281900D01*
X235701703Y6436772D01*
X235669000Y6601184D01*
X235669000Y6768816D01*
X235701703Y6933228D01*
X235765853Y7088100D01*
X235858985Y7227481D01*
X235977519Y7346015D01*
X236116900Y7439147D01*
X236271772Y7503297D01*
X236436184Y7536000D01*
X236603816Y7536000D01*
X236768228Y7503297D01*
G37*
G36*
X193996000Y5984000D02*
G01*
X189544000Y5984000D01*
X189544000Y7536000D01*
X193996000Y7536000D01*
X193996000Y5984000D01*
G37*
G36*
X213046000Y5984000D02*
G01*
X208594000Y5984000D01*
X208594000Y7536000D01*
X213046000Y7536000D01*
X213046000Y5984000D01*
G37*
G36*
X206696000Y5984000D02*
G01*
X202244000Y5984000D01*
X202244000Y7536000D01*
X206696000Y7536000D01*
X206696000Y5984000D01*
G37*
G36*
X200346000Y5984000D02*
G01*
X195894000Y5984000D01*
X195894000Y7536000D01*
X200346000Y7536000D01*
X200346000Y5984000D01*
G37*
G36*
X233928228Y8888297D02*
G01*
X234083100Y8824147D01*
X234222481Y8731015D01*
X234341015Y8612481D01*
X234434147Y8473100D01*
X234498297Y8318228D01*
X234531000Y8153816D01*
X234531000Y7986184D01*
X234498297Y7821772D01*
X234434147Y7666900D01*
X234341015Y7527519D01*
X234222481Y7408985D01*
X234083100Y7315853D01*
X233928228Y7251703D01*
X233763816Y7219000D01*
X233596184Y7219000D01*
X233431772Y7251703D01*
X233276900Y7315853D01*
X233137519Y7408985D01*
X233018985Y7527519D01*
X232925853Y7666900D01*
X232861703Y7821772D01*
X232829000Y7986184D01*
X232829000Y8153816D01*
X232861703Y8318228D01*
X232925853Y8473100D01*
X233018985Y8612481D01*
X233137519Y8731015D01*
X233276900Y8824147D01*
X233431772Y8888297D01*
X233596184Y8921000D01*
X233763816Y8921000D01*
X233928228Y8888297D01*
G37*
G36*
X236768228Y10273297D02*
G01*
X236923100Y10209147D01*
X237062481Y10116015D01*
X237181015Y9997481D01*
X237274147Y9858100D01*
X237338297Y9703228D01*
X237371000Y9538816D01*
X237371000Y9371184D01*
X237338297Y9206772D01*
X237274147Y9051900D01*
X237181015Y8912519D01*
X237062481Y8793985D01*
X236923100Y8700853D01*
X236768228Y8636703D01*
X236603816Y8604000D01*
X236436184Y8604000D01*
X236271772Y8636703D01*
X236116900Y8700853D01*
X235977519Y8793985D01*
X235858985Y8912519D01*
X235765853Y9051900D01*
X235701703Y9206772D01*
X235669000Y9371184D01*
X235669000Y9538816D01*
X235701703Y9703228D01*
X235765853Y9858100D01*
X235858985Y9997481D01*
X235977519Y10116015D01*
X236116900Y10209147D01*
X236271772Y10273297D01*
X236436184Y10306000D01*
X236603816Y10306000D01*
X236768228Y10273297D01*
G37*
G36*
X233928228Y11658297D02*
G01*
X234083100Y11594147D01*
X234222481Y11501015D01*
X234341015Y11382481D01*
X234434147Y11243100D01*
X234498297Y11088228D01*
X234531000Y10923816D01*
X234531000Y10756184D01*
X234498297Y10591772D01*
X234434147Y10436900D01*
X234341015Y10297519D01*
X234222481Y10178985D01*
X234083100Y10085853D01*
X233928228Y10021703D01*
X233763816Y9989000D01*
X233596184Y9989000D01*
X233431772Y10021703D01*
X233276900Y10085853D01*
X233137519Y10178985D01*
X233018985Y10297519D01*
X232925853Y10436900D01*
X232861703Y10591772D01*
X232829000Y10756184D01*
X232829000Y10923816D01*
X232861703Y11088228D01*
X232925853Y11243100D01*
X233018985Y11382481D01*
X233137519Y11501015D01*
X233276900Y11594147D01*
X233431772Y11658297D01*
X233596184Y11691000D01*
X233763816Y11691000D01*
X233928228Y11658297D01*
G37*
G36*
X206696000Y10244000D02*
G01*
X202244000Y10244000D01*
X202244000Y11796000D01*
X206696000Y11796000D01*
X206696000Y10244000D01*
G37*
G36*
X193996000Y10244000D02*
G01*
X189544000Y10244000D01*
X189544000Y11796000D01*
X193996000Y11796000D01*
X193996000Y10244000D01*
G37*
G36*
X200346000Y10244000D02*
G01*
X195894000Y10244000D01*
X195894000Y11796000D01*
X200346000Y11796000D01*
X200346000Y10244000D01*
G37*
G36*
X213046000Y10244000D02*
G01*
X208594000Y10244000D01*
X208594000Y11796000D01*
X213046000Y11796000D01*
X213046000Y10244000D01*
G37*
G36*
X236768228Y13043297D02*
G01*
X236923100Y12979147D01*
X237062481Y12886015D01*
X237181015Y12767481D01*
X237274147Y12628100D01*
X237338297Y12473228D01*
X237371000Y12308816D01*
X237371000Y12141184D01*
X237338297Y11976772D01*
X237274147Y11821900D01*
X237181015Y11682519D01*
X237062481Y11563985D01*
X236923100Y11470853D01*
X236768228Y11406703D01*
X236603816Y11374000D01*
X236436184Y11374000D01*
X236271772Y11406703D01*
X236116900Y11470853D01*
X235977519Y11563985D01*
X235858985Y11682519D01*
X235765853Y11821900D01*
X235701703Y11976772D01*
X235669000Y12141184D01*
X235669000Y12308816D01*
X235701703Y12473228D01*
X235765853Y12628100D01*
X235858985Y12767481D01*
X235977519Y12886015D01*
X236116900Y12979147D01*
X236271772Y13043297D01*
X236436184Y13076000D01*
X236603816Y13076000D01*
X236768228Y13043297D01*
G37*
G36*
X149776000Y11744000D02*
G01*
X148224000Y11744000D01*
X148224000Y16196000D01*
X149776000Y16196000D01*
X149776000Y11744000D01*
G37*
G36*
X143876000Y11744000D02*
G01*
X142324000Y11744000D01*
X142324000Y16196000D01*
X143876000Y16196000D01*
X143876000Y11744000D01*
G37*
G36*
X233928228Y14428297D02*
G01*
X234083100Y14364147D01*
X234222481Y14271015D01*
X234341015Y14152481D01*
X234434147Y14013100D01*
X234498297Y13858228D01*
X234531000Y13693816D01*
X234531000Y13526184D01*
X234498297Y13361772D01*
X234434147Y13206900D01*
X234341015Y13067519D01*
X234222481Y12948985D01*
X234083100Y12855853D01*
X233928228Y12791703D01*
X233763816Y12759000D01*
X233596184Y12759000D01*
X233431772Y12791703D01*
X233276900Y12855853D01*
X233137519Y12948985D01*
X233018985Y13067519D01*
X232925853Y13206900D01*
X232861703Y13361772D01*
X232829000Y13526184D01*
X232829000Y13693816D01*
X232861703Y13858228D01*
X232925853Y14013100D01*
X233018985Y14152481D01*
X233137519Y14271015D01*
X233276900Y14364147D01*
X233431772Y14428297D01*
X233596184Y14461000D01*
X233763816Y14461000D01*
X233928228Y14428297D01*
G37*
G36*
X236768228Y15813297D02*
G01*
X236923100Y15749147D01*
X237062481Y15656015D01*
X237181015Y15537481D01*
X237274147Y15398100D01*
X237338297Y15243228D01*
X237371000Y15078816D01*
X237371000Y14911184D01*
X237338297Y14746772D01*
X237274147Y14591900D01*
X237181015Y14452519D01*
X237062481Y14333985D01*
X236923100Y14240853D01*
X236768228Y14176703D01*
X236603816Y14144000D01*
X236436184Y14144000D01*
X236271772Y14176703D01*
X236116900Y14240853D01*
X235977519Y14333985D01*
X235858985Y14452519D01*
X235765853Y14591900D01*
X235701703Y14746772D01*
X235669000Y14911184D01*
X235669000Y15078816D01*
X235701703Y15243228D01*
X235765853Y15398100D01*
X235858985Y15537481D01*
X235977519Y15656015D01*
X236116900Y15749147D01*
X236271772Y15813297D01*
X236436184Y15846000D01*
X236603816Y15846000D01*
X236768228Y15813297D01*
G37*
G36*
X233928228Y17198297D02*
G01*
X234083100Y17134147D01*
X234222481Y17041015D01*
X234341015Y16922481D01*
X234434147Y16783100D01*
X234498297Y16628228D01*
X234531000Y16463816D01*
X234531000Y16296184D01*
X234498297Y16131772D01*
X234434147Y15976900D01*
X234341015Y15837519D01*
X234222481Y15718985D01*
X234083100Y15625853D01*
X233928228Y15561703D01*
X233763816Y15529000D01*
X233596184Y15529000D01*
X233431772Y15561703D01*
X233276900Y15625853D01*
X233137519Y15718985D01*
X233018985Y15837519D01*
X232925853Y15976900D01*
X232861703Y16131772D01*
X232829000Y16296184D01*
X232829000Y16463816D01*
X232861703Y16628228D01*
X232925853Y16783100D01*
X233018985Y16922481D01*
X233137519Y17041015D01*
X233276900Y17134147D01*
X233431772Y17198297D01*
X233596184Y17231000D01*
X233763816Y17231000D01*
X233928228Y17198297D01*
G37*
G36*
X193996000Y16144000D02*
G01*
X189544000Y16144000D01*
X189544000Y17696000D01*
X193996000Y17696000D01*
X193996000Y16144000D01*
G37*
G36*
X200346000Y16144000D02*
G01*
X195894000Y16144000D01*
X195894000Y17696000D01*
X200346000Y17696000D01*
X200346000Y16144000D01*
G37*
G36*
X206696000Y16144000D02*
G01*
X202244000Y16144000D01*
X202244000Y17696000D01*
X206696000Y17696000D01*
X206696000Y16144000D01*
G37*
G36*
X213046000Y16144000D02*
G01*
X208594000Y16144000D01*
X208594000Y17696000D01*
X213046000Y17696000D01*
X213046000Y16144000D01*
G37*
G36*
X236768228Y18583297D02*
G01*
X236923100Y18519147D01*
X237062481Y18426015D01*
X237181015Y18307481D01*
X237274147Y18168100D01*
X237338297Y18013228D01*
X237371000Y17848816D01*
X237371000Y17681184D01*
X237338297Y17516772D01*
X237274147Y17361900D01*
X237181015Y17222519D01*
X237062481Y17103985D01*
X236923100Y17010853D01*
X236768228Y16946703D01*
X236603816Y16914000D01*
X236436184Y16914000D01*
X236271772Y16946703D01*
X236116900Y17010853D01*
X235977519Y17103985D01*
X235858985Y17222519D01*
X235765853Y17361900D01*
X235701703Y17516772D01*
X235669000Y17681184D01*
X235669000Y17848816D01*
X235701703Y18013228D01*
X235765853Y18168100D01*
X235858985Y18307481D01*
X235977519Y18426015D01*
X236116900Y18519147D01*
X236271772Y18583297D01*
X236436184Y18616000D01*
X236603816Y18616000D01*
X236768228Y18583297D01*
G37*
G36*
X233928228Y19968297D02*
G01*
X234083100Y19904147D01*
X234222481Y19811015D01*
X234341015Y19692481D01*
X234434147Y19553100D01*
X234498297Y19398228D01*
X234531000Y19233816D01*
X234531000Y19066184D01*
X234498297Y18901772D01*
X234434147Y18746900D01*
X234341015Y18607519D01*
X234222481Y18488985D01*
X234083100Y18395853D01*
X233928228Y18331703D01*
X233763816Y18299000D01*
X233596184Y18299000D01*
X233431772Y18331703D01*
X233276900Y18395853D01*
X233137519Y18488985D01*
X233018985Y18607519D01*
X232925853Y18746900D01*
X232861703Y18901772D01*
X232829000Y19066184D01*
X232829000Y19233816D01*
X232861703Y19398228D01*
X232925853Y19553100D01*
X233018985Y19692481D01*
X233137519Y19811015D01*
X233276900Y19904147D01*
X233431772Y19968297D01*
X233596184Y20001000D01*
X233763816Y20001000D01*
X233928228Y19968297D01*
G37*
G36*
X236768228Y21353297D02*
G01*
X236923100Y21289147D01*
X237062481Y21196015D01*
X237181015Y21077481D01*
X237274147Y20938100D01*
X237338297Y20783228D01*
X237371000Y20618816D01*
X237371000Y20451184D01*
X237338297Y20286772D01*
X237274147Y20131900D01*
X237181015Y19992519D01*
X237062481Y19873985D01*
X236923100Y19780853D01*
X236768228Y19716703D01*
X236603816Y19684000D01*
X236436184Y19684000D01*
X236271772Y19716703D01*
X236116900Y19780853D01*
X235977519Y19873985D01*
X235858985Y19992519D01*
X235765853Y20131900D01*
X235701703Y20286772D01*
X235669000Y20451184D01*
X235669000Y20618816D01*
X235701703Y20783228D01*
X235765853Y20938100D01*
X235858985Y21077481D01*
X235977519Y21196015D01*
X236116900Y21289147D01*
X236271772Y21353297D01*
X236436184Y21386000D01*
X236603816Y21386000D01*
X236768228Y21353297D01*
G37*
G36*
X200346000Y20404000D02*
G01*
X195894000Y20404000D01*
X195894000Y21956000D01*
X200346000Y21956000D01*
X200346000Y20404000D01*
G37*
G36*
X213046000Y20404000D02*
G01*
X208594000Y20404000D01*
X208594000Y21956000D01*
X213046000Y21956000D01*
X213046000Y20404000D01*
G37*
G36*
X193996000Y20404000D02*
G01*
X189544000Y20404000D01*
X189544000Y21956000D01*
X193996000Y21956000D01*
X193996000Y20404000D01*
G37*
G36*
X206696000Y20404000D02*
G01*
X202244000Y20404000D01*
X202244000Y21956000D01*
X206696000Y21956000D01*
X206696000Y20404000D01*
G37*
G36*
X166483512Y22486073D02*
G01*
X166632812Y22456376D01*
X166796784Y22388456D01*
X166944354Y22289853D01*
X167069853Y22164354D01*
X167168456Y22016784D01*
X167236376Y21852812D01*
X167271000Y21678741D01*
X167271000Y21501259D01*
X167236376Y21327188D01*
X167168456Y21163216D01*
X167069853Y21015646D01*
X166944354Y20890147D01*
X166796784Y20791544D01*
X166632812Y20723624D01*
X166483512Y20693927D01*
X166458742Y20689000D01*
X166281258Y20689000D01*
X166256488Y20693927D01*
X166107188Y20723624D01*
X165943216Y20791544D01*
X165795646Y20890147D01*
X165670147Y21015646D01*
X165571544Y21163216D01*
X165503624Y21327188D01*
X165469000Y21501259D01*
X165469000Y21678741D01*
X165503624Y21852812D01*
X165571544Y22016784D01*
X165670147Y22164354D01*
X165795646Y22289853D01*
X165943216Y22388456D01*
X166107188Y22456376D01*
X166256488Y22486073D01*
X166281258Y22491000D01*
X166458742Y22491000D01*
X166483512Y22486073D01*
G37*
G36*
X174103512Y22486073D02*
G01*
X174252812Y22456376D01*
X174416784Y22388456D01*
X174564354Y22289853D01*
X174689853Y22164354D01*
X174788456Y22016784D01*
X174856376Y21852812D01*
X174891000Y21678741D01*
X174891000Y21501259D01*
X174856376Y21327188D01*
X174788456Y21163216D01*
X174689853Y21015646D01*
X174564354Y20890147D01*
X174416784Y20791544D01*
X174252812Y20723624D01*
X174103512Y20693927D01*
X174078742Y20689000D01*
X173901258Y20689000D01*
X173876488Y20693927D01*
X173727188Y20723624D01*
X173563216Y20791544D01*
X173415646Y20890147D01*
X173290147Y21015646D01*
X173191544Y21163216D01*
X173123624Y21327188D01*
X173089000Y21501259D01*
X173089000Y21678741D01*
X173123624Y21852812D01*
X173191544Y22016784D01*
X173290147Y22164354D01*
X173415646Y22289853D01*
X173563216Y22388456D01*
X173727188Y22456376D01*
X173876488Y22486073D01*
X173901258Y22491000D01*
X174078742Y22491000D01*
X174103512Y22486073D01*
G37*
G36*
X171563512Y22486073D02*
G01*
X171712812Y22456376D01*
X171876784Y22388456D01*
X172024354Y22289853D01*
X172149853Y22164354D01*
X172248456Y22016784D01*
X172316376Y21852812D01*
X172351000Y21678741D01*
X172351000Y21501259D01*
X172316376Y21327188D01*
X172248456Y21163216D01*
X172149853Y21015646D01*
X172024354Y20890147D01*
X171876784Y20791544D01*
X171712812Y20723624D01*
X171563512Y20693927D01*
X171538742Y20689000D01*
X171361258Y20689000D01*
X171336488Y20693927D01*
X171187188Y20723624D01*
X171023216Y20791544D01*
X170875646Y20890147D01*
X170750147Y21015646D01*
X170651544Y21163216D01*
X170583624Y21327188D01*
X170549000Y21501259D01*
X170549000Y21678741D01*
X170583624Y21852812D01*
X170651544Y22016784D01*
X170750147Y22164354D01*
X170875646Y22289853D01*
X171023216Y22388456D01*
X171187188Y22456376D01*
X171336488Y22486073D01*
X171361258Y22491000D01*
X171538742Y22491000D01*
X171563512Y22486073D01*
G37*
G36*
X169023512Y22486073D02*
G01*
X169172812Y22456376D01*
X169336784Y22388456D01*
X169484354Y22289853D01*
X169609853Y22164354D01*
X169708456Y22016784D01*
X169776376Y21852812D01*
X169811000Y21678741D01*
X169811000Y21501259D01*
X169776376Y21327188D01*
X169708456Y21163216D01*
X169609853Y21015646D01*
X169484354Y20890147D01*
X169336784Y20791544D01*
X169172812Y20723624D01*
X169023512Y20693927D01*
X168998742Y20689000D01*
X168821258Y20689000D01*
X168796488Y20693927D01*
X168647188Y20723624D01*
X168483216Y20791544D01*
X168335646Y20890147D01*
X168210147Y21015646D01*
X168111544Y21163216D01*
X168043624Y21327188D01*
X168009000Y21501259D01*
X168009000Y21678741D01*
X168043624Y21852812D01*
X168111544Y22016784D01*
X168210147Y22164354D01*
X168335646Y22289853D01*
X168483216Y22388456D01*
X168647188Y22456376D01*
X168796488Y22486073D01*
X168821258Y22491000D01*
X168998742Y22491000D01*
X169023512Y22486073D01*
G37*
G36*
X179183512Y22486073D02*
G01*
X179332812Y22456376D01*
X179496784Y22388456D01*
X179644354Y22289853D01*
X179769853Y22164354D01*
X179868456Y22016784D01*
X179936376Y21852812D01*
X179971000Y21678741D01*
X179971000Y21501259D01*
X179936376Y21327188D01*
X179868456Y21163216D01*
X179769853Y21015646D01*
X179644354Y20890147D01*
X179496784Y20791544D01*
X179332812Y20723624D01*
X179183512Y20693927D01*
X179158742Y20689000D01*
X178981258Y20689000D01*
X178956488Y20693927D01*
X178807188Y20723624D01*
X178643216Y20791544D01*
X178495646Y20890147D01*
X178370147Y21015646D01*
X178271544Y21163216D01*
X178203624Y21327188D01*
X178169000Y21501259D01*
X178169000Y21678741D01*
X178203624Y21852812D01*
X178271544Y22016784D01*
X178370147Y22164354D01*
X178495646Y22289853D01*
X178643216Y22388456D01*
X178807188Y22456376D01*
X178956488Y22486073D01*
X178981258Y22491000D01*
X179158742Y22491000D01*
X179183512Y22486073D01*
G37*
G36*
X161403512Y22486073D02*
G01*
X161552812Y22456376D01*
X161716784Y22388456D01*
X161864354Y22289853D01*
X161989853Y22164354D01*
X162088456Y22016784D01*
X162156376Y21852812D01*
X162191000Y21678741D01*
X162191000Y21501259D01*
X162156376Y21327188D01*
X162088456Y21163216D01*
X161989853Y21015646D01*
X161864354Y20890147D01*
X161716784Y20791544D01*
X161552812Y20723624D01*
X161403512Y20693927D01*
X161378742Y20689000D01*
X161201258Y20689000D01*
X161176488Y20693927D01*
X161027188Y20723624D01*
X160863216Y20791544D01*
X160715646Y20890147D01*
X160590147Y21015646D01*
X160491544Y21163216D01*
X160423624Y21327188D01*
X160389000Y21501259D01*
X160389000Y21678741D01*
X160423624Y21852812D01*
X160491544Y22016784D01*
X160590147Y22164354D01*
X160715646Y22289853D01*
X160863216Y22388456D01*
X161027188Y22456376D01*
X161176488Y22486073D01*
X161201258Y22491000D01*
X161378742Y22491000D01*
X161403512Y22486073D01*
G37*
G36*
X176643512Y22486073D02*
G01*
X176792812Y22456376D01*
X176956784Y22388456D01*
X177104354Y22289853D01*
X177229853Y22164354D01*
X177328456Y22016784D01*
X177396376Y21852812D01*
X177431000Y21678741D01*
X177431000Y21501259D01*
X177396376Y21327188D01*
X177328456Y21163216D01*
X177229853Y21015646D01*
X177104354Y20890147D01*
X176956784Y20791544D01*
X176792812Y20723624D01*
X176643512Y20693927D01*
X176618742Y20689000D01*
X176441258Y20689000D01*
X176416488Y20693927D01*
X176267188Y20723624D01*
X176103216Y20791544D01*
X175955646Y20890147D01*
X175830147Y21015646D01*
X175731544Y21163216D01*
X175663624Y21327188D01*
X175629000Y21501259D01*
X175629000Y21678741D01*
X175663624Y21852812D01*
X175731544Y22016784D01*
X175830147Y22164354D01*
X175955646Y22289853D01*
X176103216Y22388456D01*
X176267188Y22456376D01*
X176416488Y22486073D01*
X176441258Y22491000D01*
X176618742Y22491000D01*
X176643512Y22486073D01*
G37*
G36*
X158863512Y22486073D02*
G01*
X159012812Y22456376D01*
X159176784Y22388456D01*
X159324354Y22289853D01*
X159449853Y22164354D01*
X159548456Y22016784D01*
X159616376Y21852812D01*
X159651000Y21678741D01*
X159651000Y21501259D01*
X159616376Y21327188D01*
X159548456Y21163216D01*
X159449853Y21015646D01*
X159324354Y20890147D01*
X159176784Y20791544D01*
X159012812Y20723624D01*
X158863512Y20693927D01*
X158838742Y20689000D01*
X158661258Y20689000D01*
X158636488Y20693927D01*
X158487188Y20723624D01*
X158323216Y20791544D01*
X158175646Y20890147D01*
X158050147Y21015646D01*
X157951544Y21163216D01*
X157883624Y21327188D01*
X157849000Y21501259D01*
X157849000Y21678741D01*
X157883624Y21852812D01*
X157951544Y22016784D01*
X158050147Y22164354D01*
X158175646Y22289853D01*
X158323216Y22388456D01*
X158487188Y22456376D01*
X158636488Y22486073D01*
X158661258Y22491000D01*
X158838742Y22491000D01*
X158863512Y22486073D01*
G37*
G36*
X156323512Y22486073D02*
G01*
X156472812Y22456376D01*
X156636784Y22388456D01*
X156784354Y22289853D01*
X156909853Y22164354D01*
X157008456Y22016784D01*
X157076376Y21852812D01*
X157111000Y21678741D01*
X157111000Y21501259D01*
X157076376Y21327188D01*
X157008456Y21163216D01*
X156909853Y21015646D01*
X156784354Y20890147D01*
X156636784Y20791544D01*
X156472812Y20723624D01*
X156323512Y20693927D01*
X156298742Y20689000D01*
X156121258Y20689000D01*
X156096488Y20693927D01*
X155947188Y20723624D01*
X155783216Y20791544D01*
X155635646Y20890147D01*
X155510147Y21015646D01*
X155411544Y21163216D01*
X155343624Y21327188D01*
X155309000Y21501259D01*
X155309000Y21678741D01*
X155343624Y21852812D01*
X155411544Y22016784D01*
X155510147Y22164354D01*
X155635646Y22289853D01*
X155783216Y22388456D01*
X155947188Y22456376D01*
X156096488Y22486073D01*
X156121258Y22491000D01*
X156298742Y22491000D01*
X156323512Y22486073D01*
G37*
G36*
X163943512Y22486073D02*
G01*
X164092812Y22456376D01*
X164256784Y22388456D01*
X164404354Y22289853D01*
X164529853Y22164354D01*
X164628456Y22016784D01*
X164696376Y21852812D01*
X164731000Y21678741D01*
X164731000Y21501259D01*
X164696376Y21327188D01*
X164628456Y21163216D01*
X164529853Y21015646D01*
X164404354Y20890147D01*
X164256784Y20791544D01*
X164092812Y20723624D01*
X163943512Y20693927D01*
X163918742Y20689000D01*
X163741258Y20689000D01*
X163716488Y20693927D01*
X163567188Y20723624D01*
X163403216Y20791544D01*
X163255646Y20890147D01*
X163130147Y21015646D01*
X163031544Y21163216D01*
X162963624Y21327188D01*
X162929000Y21501259D01*
X162929000Y21678741D01*
X162963624Y21852812D01*
X163031544Y22016784D01*
X163130147Y22164354D01*
X163255646Y22289853D01*
X163403216Y22388456D01*
X163567188Y22456376D01*
X163716488Y22486073D01*
X163741258Y22491000D01*
X163918742Y22491000D01*
X163943512Y22486073D01*
G37*
G36*
X233928228Y22738297D02*
G01*
X234083100Y22674147D01*
X234222481Y22581015D01*
X234341015Y22462481D01*
X234434147Y22323100D01*
X234498297Y22168228D01*
X234531000Y22003816D01*
X234531000Y21836184D01*
X234498297Y21671772D01*
X234434147Y21516900D01*
X234341015Y21377519D01*
X234222481Y21258985D01*
X234083100Y21165853D01*
X233928228Y21101703D01*
X233763816Y21069000D01*
X233596184Y21069000D01*
X233431772Y21101703D01*
X233276900Y21165853D01*
X233137519Y21258985D01*
X233018985Y21377519D01*
X232925853Y21516900D01*
X232861703Y21671772D01*
X232829000Y21836184D01*
X232829000Y22003816D01*
X232861703Y22168228D01*
X232925853Y22323100D01*
X233018985Y22462481D01*
X233137519Y22581015D01*
X233276900Y22674147D01*
X233431772Y22738297D01*
X233596184Y22771000D01*
X233763816Y22771000D01*
X233928228Y22738297D01*
G37*
G36*
X158863512Y25026073D02*
G01*
X159012812Y24996376D01*
X159176784Y24928456D01*
X159324354Y24829853D01*
X159449853Y24704354D01*
X159548456Y24556784D01*
X159616376Y24392812D01*
X159651000Y24218741D01*
X159651000Y24041259D01*
X159616376Y23867188D01*
X159548456Y23703216D01*
X159449853Y23555646D01*
X159324354Y23430147D01*
X159176784Y23331544D01*
X159012812Y23263624D01*
X158863512Y23233927D01*
X158838742Y23229000D01*
X158661258Y23229000D01*
X158636488Y23233927D01*
X158487188Y23263624D01*
X158323216Y23331544D01*
X158175646Y23430147D01*
X158050147Y23555646D01*
X157951544Y23703216D01*
X157883624Y23867188D01*
X157849000Y24041259D01*
X157849000Y24218741D01*
X157883624Y24392812D01*
X157951544Y24556784D01*
X158050147Y24704354D01*
X158175646Y24829853D01*
X158323216Y24928456D01*
X158487188Y24996376D01*
X158636488Y25026073D01*
X158661258Y25031000D01*
X158838742Y25031000D01*
X158863512Y25026073D01*
G37*
G36*
X179971000Y23229000D02*
G01*
X178169000Y23229000D01*
X178169000Y25031000D01*
X179971000Y25031000D01*
X179971000Y23229000D01*
G37*
G36*
X176643512Y25026073D02*
G01*
X176792812Y24996376D01*
X176956784Y24928456D01*
X177104354Y24829853D01*
X177229853Y24704354D01*
X177328456Y24556784D01*
X177396376Y24392812D01*
X177431000Y24218741D01*
X177431000Y24041259D01*
X177396376Y23867188D01*
X177328456Y23703216D01*
X177229853Y23555646D01*
X177104354Y23430147D01*
X176956784Y23331544D01*
X176792812Y23263624D01*
X176643512Y23233927D01*
X176618742Y23229000D01*
X176441258Y23229000D01*
X176416488Y23233927D01*
X176267188Y23263624D01*
X176103216Y23331544D01*
X175955646Y23430147D01*
X175830147Y23555646D01*
X175731544Y23703216D01*
X175663624Y23867188D01*
X175629000Y24041259D01*
X175629000Y24218741D01*
X175663624Y24392812D01*
X175731544Y24556784D01*
X175830147Y24704354D01*
X175955646Y24829853D01*
X176103216Y24928456D01*
X176267188Y24996376D01*
X176416488Y25026073D01*
X176441258Y25031000D01*
X176618742Y25031000D01*
X176643512Y25026073D01*
G37*
G36*
X174103512Y25026073D02*
G01*
X174252812Y24996376D01*
X174416784Y24928456D01*
X174564354Y24829853D01*
X174689853Y24704354D01*
X174788456Y24556784D01*
X174856376Y24392812D01*
X174891000Y24218741D01*
X174891000Y24041259D01*
X174856376Y23867188D01*
X174788456Y23703216D01*
X174689853Y23555646D01*
X174564354Y23430147D01*
X174416784Y23331544D01*
X174252812Y23263624D01*
X174103512Y23233927D01*
X174078742Y23229000D01*
X173901258Y23229000D01*
X173876488Y23233927D01*
X173727188Y23263624D01*
X173563216Y23331544D01*
X173415646Y23430147D01*
X173290147Y23555646D01*
X173191544Y23703216D01*
X173123624Y23867188D01*
X173089000Y24041259D01*
X173089000Y24218741D01*
X173123624Y24392812D01*
X173191544Y24556784D01*
X173290147Y24704354D01*
X173415646Y24829853D01*
X173563216Y24928456D01*
X173727188Y24996376D01*
X173876488Y25026073D01*
X173901258Y25031000D01*
X174078742Y25031000D01*
X174103512Y25026073D01*
G37*
G36*
X171563512Y25026073D02*
G01*
X171712812Y24996376D01*
X171876784Y24928456D01*
X172024354Y24829853D01*
X172149853Y24704354D01*
X172248456Y24556784D01*
X172316376Y24392812D01*
X172351000Y24218741D01*
X172351000Y24041259D01*
X172316376Y23867188D01*
X172248456Y23703216D01*
X172149853Y23555646D01*
X172024354Y23430147D01*
X171876784Y23331544D01*
X171712812Y23263624D01*
X171563512Y23233927D01*
X171538742Y23229000D01*
X171361258Y23229000D01*
X171336488Y23233927D01*
X171187188Y23263624D01*
X171023216Y23331544D01*
X170875646Y23430147D01*
X170750147Y23555646D01*
X170651544Y23703216D01*
X170583624Y23867188D01*
X170549000Y24041259D01*
X170549000Y24218741D01*
X170583624Y24392812D01*
X170651544Y24556784D01*
X170750147Y24704354D01*
X170875646Y24829853D01*
X171023216Y24928456D01*
X171187188Y24996376D01*
X171336488Y25026073D01*
X171361258Y25031000D01*
X171538742Y25031000D01*
X171563512Y25026073D01*
G37*
G36*
X169023512Y25026073D02*
G01*
X169172812Y24996376D01*
X169336784Y24928456D01*
X169484354Y24829853D01*
X169609853Y24704354D01*
X169708456Y24556784D01*
X169776376Y24392812D01*
X169811000Y24218741D01*
X169811000Y24041259D01*
X169776376Y23867188D01*
X169708456Y23703216D01*
X169609853Y23555646D01*
X169484354Y23430147D01*
X169336784Y23331544D01*
X169172812Y23263624D01*
X169023512Y23233927D01*
X168998742Y23229000D01*
X168821258Y23229000D01*
X168796488Y23233927D01*
X168647188Y23263624D01*
X168483216Y23331544D01*
X168335646Y23430147D01*
X168210147Y23555646D01*
X168111544Y23703216D01*
X168043624Y23867188D01*
X168009000Y24041259D01*
X168009000Y24218741D01*
X168043624Y24392812D01*
X168111544Y24556784D01*
X168210147Y24704354D01*
X168335646Y24829853D01*
X168483216Y24928456D01*
X168647188Y24996376D01*
X168796488Y25026073D01*
X168821258Y25031000D01*
X168998742Y25031000D01*
X169023512Y25026073D01*
G37*
G36*
X166483512Y25026073D02*
G01*
X166632812Y24996376D01*
X166796784Y24928456D01*
X166944354Y24829853D01*
X167069853Y24704354D01*
X167168456Y24556784D01*
X167236376Y24392812D01*
X167271000Y24218741D01*
X167271000Y24041259D01*
X167236376Y23867188D01*
X167168456Y23703216D01*
X167069853Y23555646D01*
X166944354Y23430147D01*
X166796784Y23331544D01*
X166632812Y23263624D01*
X166483512Y23233927D01*
X166458742Y23229000D01*
X166281258Y23229000D01*
X166256488Y23233927D01*
X166107188Y23263624D01*
X165943216Y23331544D01*
X165795646Y23430147D01*
X165670147Y23555646D01*
X165571544Y23703216D01*
X165503624Y23867188D01*
X165469000Y24041259D01*
X165469000Y24218741D01*
X165503624Y24392812D01*
X165571544Y24556784D01*
X165670147Y24704354D01*
X165795646Y24829853D01*
X165943216Y24928456D01*
X166107188Y24996376D01*
X166256488Y25026073D01*
X166281258Y25031000D01*
X166458742Y25031000D01*
X166483512Y25026073D01*
G37*
G36*
X163943512Y25026073D02*
G01*
X164092812Y24996376D01*
X164256784Y24928456D01*
X164404354Y24829853D01*
X164529853Y24704354D01*
X164628456Y24556784D01*
X164696376Y24392812D01*
X164731000Y24218741D01*
X164731000Y24041259D01*
X164696376Y23867188D01*
X164628456Y23703216D01*
X164529853Y23555646D01*
X164404354Y23430147D01*
X164256784Y23331544D01*
X164092812Y23263624D01*
X163943512Y23233927D01*
X163918742Y23229000D01*
X163741258Y23229000D01*
X163716488Y23233927D01*
X163567188Y23263624D01*
X163403216Y23331544D01*
X163255646Y23430147D01*
X163130147Y23555646D01*
X163031544Y23703216D01*
X162963624Y23867188D01*
X162929000Y24041259D01*
X162929000Y24218741D01*
X162963624Y24392812D01*
X163031544Y24556784D01*
X163130147Y24704354D01*
X163255646Y24829853D01*
X163403216Y24928456D01*
X163567188Y24996376D01*
X163716488Y25026073D01*
X163741258Y25031000D01*
X163918742Y25031000D01*
X163943512Y25026073D01*
G37*
G36*
X161403512Y25026073D02*
G01*
X161552812Y24996376D01*
X161716784Y24928456D01*
X161864354Y24829853D01*
X161989853Y24704354D01*
X162088456Y24556784D01*
X162156376Y24392812D01*
X162191000Y24218741D01*
X162191000Y24041259D01*
X162156376Y23867188D01*
X162088456Y23703216D01*
X161989853Y23555646D01*
X161864354Y23430147D01*
X161716784Y23331544D01*
X161552812Y23263624D01*
X161403512Y23233927D01*
X161378742Y23229000D01*
X161201258Y23229000D01*
X161176488Y23233927D01*
X161027188Y23263624D01*
X160863216Y23331544D01*
X160715646Y23430147D01*
X160590147Y23555646D01*
X160491544Y23703216D01*
X160423624Y23867188D01*
X160389000Y24041259D01*
X160389000Y24218741D01*
X160423624Y24392812D01*
X160491544Y24556784D01*
X160590147Y24704354D01*
X160715646Y24829853D01*
X160863216Y24928456D01*
X161027188Y24996376D01*
X161176488Y25026073D01*
X161201258Y25031000D01*
X161378742Y25031000D01*
X161403512Y25026073D01*
G37*
G36*
X156323512Y25026073D02*
G01*
X156472812Y24996376D01*
X156636784Y24928456D01*
X156784354Y24829853D01*
X156909853Y24704354D01*
X157008456Y24556784D01*
X157076376Y24392812D01*
X157111000Y24218741D01*
X157111000Y24041259D01*
X157076376Y23867188D01*
X157008456Y23703216D01*
X156909853Y23555646D01*
X156784354Y23430147D01*
X156636784Y23331544D01*
X156472812Y23263624D01*
X156323512Y23233927D01*
X156298742Y23229000D01*
X156121258Y23229000D01*
X156096488Y23233927D01*
X155947188Y23263624D01*
X155783216Y23331544D01*
X155635646Y23430147D01*
X155510147Y23555646D01*
X155411544Y23703216D01*
X155343624Y23867188D01*
X155309000Y24041259D01*
X155309000Y24218741D01*
X155343624Y24392812D01*
X155411544Y24556784D01*
X155510147Y24704354D01*
X155635646Y24829853D01*
X155783216Y24928456D01*
X155947188Y24996376D01*
X156096488Y25026073D01*
X156121258Y25031000D01*
X156298742Y25031000D01*
X156323512Y25026073D01*
G37*
G36*
X200346000Y26304000D02*
G01*
X195894000Y26304000D01*
X195894000Y27856000D01*
X200346000Y27856000D01*
X200346000Y26304000D01*
G37*
G36*
X206696000Y26304000D02*
G01*
X202244000Y26304000D01*
X202244000Y27856000D01*
X206696000Y27856000D01*
X206696000Y26304000D01*
G37*
G36*
X213046000Y26304000D02*
G01*
X208594000Y26304000D01*
X208594000Y27856000D01*
X213046000Y27856000D01*
X213046000Y26304000D01*
G37*
G36*
X193996000Y26304000D02*
G01*
X189544000Y26304000D01*
X189544000Y27856000D01*
X193996000Y27856000D01*
X193996000Y26304000D01*
G37*
G36*
X235698254Y30712182D02*
G01*
X236071511Y30557574D01*
X236071513Y30557573D01*
X236407436Y30333116D01*
X236693116Y30047436D01*
X236917574Y29711511D01*
X237072182Y29338254D01*
X237151000Y28942007D01*
X237151000Y28537993D01*
X237072182Y28141746D01*
X236953822Y27856000D01*
X236917573Y27768487D01*
X236693116Y27432564D01*
X236407436Y27146884D01*
X236071513Y26922427D01*
X236071512Y26922426D01*
X236071511Y26922426D01*
X235698254Y26767818D01*
X235302007Y26689000D01*
X234897993Y26689000D01*
X234501746Y26767818D01*
X234128489Y26922426D01*
X234128488Y26922426D01*
X234128487Y26922427D01*
X233792564Y27146884D01*
X233506884Y27432564D01*
X233282427Y27768487D01*
X233246178Y27856000D01*
X233127818Y28141746D01*
X233049000Y28537993D01*
X233049000Y28942007D01*
X233127818Y29338254D01*
X233282426Y29711511D01*
X233506884Y30047436D01*
X233792564Y30333116D01*
X234128487Y30557573D01*
X234128489Y30557574D01*
X234501746Y30712182D01*
X234897993Y30791000D01*
X235302007Y30791000D01*
X235698254Y30712182D01*
G37*
M02*
