G04 #@! TF.GenerationSoftware,KiCad,Pcbnew,5.1.5-52549c5~84~ubuntu18.04.1*
G04 #@! TF.CreationDate,2020-05-17T15:55:05-07:00*
G04 #@! TF.ProjectId,ram,72616d2e-6b69-4636-9164-5f7063625858,rev?*
G04 #@! TF.SameCoordinates,Original*
G04 #@! TF.FileFunction,Copper,L3,Inr*
G04 #@! TF.FilePolarity,Positive*
%FSLAX46Y46*%
G04 Gerber Fmt 4.6, Leading zero omitted, Abs format (unit mm)*
G04 Created by KiCad (PCBNEW 5.1.5-52549c5~84~ubuntu18.04.1) date 2020-05-17 15:55:05*
%MOMM*%
%LPD*%
G04 APERTURE LIST*
%ADD10C,4.000000*%
%ADD11C,1.600000*%
%ADD12R,1.600000X1.600000*%
%ADD13O,1.700000X1.700000*%
%ADD14R,1.700000X1.700000*%
%ADD15C,6.000000*%
%ADD16C,0.800000*%
%ADD17C,0.250000*%
G04 APERTURE END LIST*
D10*
X235100000Y28740000D03*
X235100000Y-34760000D03*
D11*
X236520000Y20535000D03*
X236520000Y17765000D03*
X236520000Y14995000D03*
X236520000Y12225000D03*
X236520000Y9455000D03*
X236520000Y6685000D03*
X236520000Y3915000D03*
X236520000Y1145000D03*
X236520000Y-1625000D03*
X236520000Y-4395000D03*
X236520000Y-7165000D03*
X236520000Y-9935000D03*
X236520000Y-12705000D03*
X236520000Y-15475000D03*
X236520000Y-18245000D03*
X236520000Y-21015000D03*
X236520000Y-23785000D03*
X236520000Y-26555000D03*
X233680000Y21920000D03*
X233680000Y19150000D03*
X233680000Y16380000D03*
X233680000Y13610000D03*
X233680000Y10840000D03*
X233680000Y8070000D03*
X233680000Y5300000D03*
X233680000Y2530000D03*
X233680000Y-240000D03*
X233680000Y-3010000D03*
X233680000Y-5780000D03*
X233680000Y-8550000D03*
X233680000Y-11320000D03*
X233680000Y-14090000D03*
X233680000Y-16860000D03*
X233680000Y-19630000D03*
X233680000Y-22400000D03*
X233680000Y-25170000D03*
D12*
X233680000Y-27940000D03*
D10*
X235100000Y-46190000D03*
X235100000Y-93290000D03*
D11*
X236520000Y-54505000D03*
X236520000Y-57275000D03*
X236520000Y-60045000D03*
X236520000Y-62815000D03*
X236520000Y-65585000D03*
X236520000Y-68355000D03*
X236520000Y-71125000D03*
X236520000Y-73895000D03*
X236520000Y-76665000D03*
X236520000Y-79435000D03*
X236520000Y-82205000D03*
X236520000Y-84975000D03*
X233680000Y-53120000D03*
X233680000Y-55890000D03*
X233680000Y-58660000D03*
X233680000Y-61430000D03*
X233680000Y-64200000D03*
X233680000Y-66970000D03*
X233680000Y-69740000D03*
X233680000Y-72510000D03*
X233680000Y-75280000D03*
X233680000Y-78050000D03*
X233680000Y-80820000D03*
X233680000Y-83590000D03*
D12*
X233680000Y-86360000D03*
D13*
X157480000Y-88900000D03*
X157480000Y-86360000D03*
X160020000Y-88900000D03*
X160020000Y-86360000D03*
X162560000Y-88900000D03*
X162560000Y-86360000D03*
X165100000Y-88900000D03*
X165100000Y-86360000D03*
X167640000Y-88900000D03*
X167640000Y-86360000D03*
X170180000Y-88900000D03*
X170180000Y-86360000D03*
X172720000Y-88900000D03*
X172720000Y-86360000D03*
X175260000Y-88900000D03*
X175260000Y-86360000D03*
X177800000Y-88900000D03*
D14*
X177800000Y-86360000D03*
D13*
X156210000Y21590000D03*
X156210000Y24130000D03*
X158750000Y21590000D03*
X158750000Y24130000D03*
X161290000Y21590000D03*
X161290000Y24130000D03*
X163830000Y21590000D03*
X163830000Y24130000D03*
X166370000Y21590000D03*
X166370000Y24130000D03*
X168910000Y21590000D03*
X168910000Y24130000D03*
X171450000Y21590000D03*
X171450000Y24130000D03*
X173990000Y21590000D03*
X173990000Y24130000D03*
X176530000Y21590000D03*
X176530000Y24130000D03*
X179070000Y21590000D03*
D14*
X179070000Y24130000D03*
D11*
X222330000Y-58420000D03*
X227330000Y-58420000D03*
X227250000Y-34290000D03*
X222250000Y-34290000D03*
X226020000Y-50800000D03*
D12*
X223520000Y-50800000D03*
D11*
X226020000Y-40640000D03*
D12*
X223520000Y-40640000D03*
D15*
X142240000Y29210000D03*
X142240000Y-93980000D03*
D16*
X161925000Y-10160000D03*
X221570000Y-77515000D03*
X150450000Y-27260000D03*
X150450000Y15920000D03*
X208870000Y28530000D03*
X202520000Y28530000D03*
X196170000Y28530000D03*
X189820000Y28530000D03*
X208870000Y18370000D03*
X202520000Y18370000D03*
X196170000Y18370000D03*
X189820000Y18370000D03*
X208870000Y8210000D03*
X202520000Y8210000D03*
X196170000Y8210000D03*
X189820000Y8210000D03*
X208870000Y-1950000D03*
X202520000Y-1950000D03*
X196170000Y-1950000D03*
X189820000Y-1950000D03*
X208870000Y-12110000D03*
X202520000Y-12110000D03*
X196170000Y-12110000D03*
X208870000Y-22270000D03*
X202520000Y-22270000D03*
X196170000Y-22270000D03*
X189820000Y-22270000D03*
X189820000Y-32430000D03*
X196170000Y-32430000D03*
X202520000Y-32430000D03*
X208870000Y-32430000D03*
X208870000Y-42590000D03*
X202520000Y-42590000D03*
X196170000Y-42590000D03*
X189820000Y-42590000D03*
X208870000Y-52750000D03*
X202520000Y-52750000D03*
X196170000Y-52750000D03*
X189820000Y-52750000D03*
X189820000Y-62910000D03*
X196170000Y-62910000D03*
X202520000Y-62910000D03*
X208870000Y-62910000D03*
X189820000Y-73070000D03*
X196170000Y-73070000D03*
X202520000Y-73070000D03*
X208870000Y-73070000D03*
X208870000Y-83230000D03*
X202520000Y-83230000D03*
X196170000Y-83230000D03*
X189820000Y-83230000D03*
X150450000Y-20910000D03*
X172320000Y-29610000D03*
X157880000Y-28810000D03*
X174625000Y-10160000D03*
X202565000Y-48260000D03*
X189865000Y-48260000D03*
X202565000Y-38100000D03*
X189865000Y-38100000D03*
X202565000Y-27940000D03*
X189865000Y-27940000D03*
X202565000Y-17780000D03*
X208915000Y-48260000D03*
X196215000Y-48260000D03*
X208915000Y-38100000D03*
X196215000Y-38100000D03*
X208915000Y-27940000D03*
X196215000Y-27940000D03*
X208915000Y-17780000D03*
X196215000Y-17780000D03*
X223520000Y-77470000D03*
X140970000Y-29845000D03*
X199390000Y-12065000D03*
X185510001Y-11520001D03*
X160020000Y15875000D03*
X140365000Y-27910000D03*
X205740000Y-12065000D03*
X182245000Y-15875000D03*
X161290000Y8890000D03*
X212090000Y-12065000D03*
X180340000Y-15875000D03*
X162560000Y6985000D03*
X193040000Y-22225000D03*
X159512000Y-19304000D03*
X151130000Y-19050000D03*
X163830000Y11430000D03*
X199390000Y-22225000D03*
X159512000Y-17780000D03*
X149860000Y-17780000D03*
X165100000Y12700000D03*
X205740000Y-22225000D03*
X159512000Y-16256000D03*
X148735999Y-16655999D03*
X166370000Y13970000D03*
X212090000Y-22225000D03*
X158424990Y-15311010D03*
X147391010Y-15311010D03*
X167640000Y15240000D03*
X193040000Y-32385000D03*
X160020000Y-42672000D03*
X184150000Y-45085000D03*
X168910000Y13335000D03*
X199390000Y-32385000D03*
X160020000Y-41148000D03*
X152400000Y-41275000D03*
X170180000Y5715000D03*
X205740000Y-32385000D03*
X160020000Y-39624000D03*
X151275999Y-39224001D03*
X171450000Y10160000D03*
X212090000Y-32385000D03*
X179705000Y-40005000D03*
X172720000Y11430000D03*
X193040000Y-42545000D03*
X179705000Y-38100000D03*
X173990000Y10160000D03*
X199390000Y-42545000D03*
X179705000Y-36195000D03*
X175260000Y8255000D03*
X205740000Y-42545000D03*
X172435000Y-35210000D03*
X180990010Y-43765010D03*
X176530000Y12700000D03*
X212090000Y-42545000D03*
X179585000Y-34410000D03*
X177800000Y5715000D03*
X150465000Y-24160000D03*
X140985000Y-23510000D03*
X141635000Y15270000D03*
X146715000Y-30510000D03*
X144735000Y15920000D03*
X154305000Y-10795000D03*
X189865000Y-58420000D03*
X153670000Y-43815000D03*
X155575000Y-12065000D03*
X196215000Y-58420000D03*
X154940000Y-45085000D03*
X156845000Y-12700000D03*
X202565000Y-58420000D03*
X156210000Y-33655000D03*
X157775000Y-11725000D03*
X208915000Y-58420000D03*
X157154999Y-32075001D03*
X158750000Y-10795000D03*
X189865000Y-68580000D03*
X161290000Y-28194000D03*
X159929999Y-12609999D03*
X196215000Y-68580000D03*
X162560000Y-27432000D03*
X160655000Y-11430000D03*
X202565000Y-68580000D03*
X163830000Y-26670000D03*
X161925000Y-12065000D03*
X208915000Y-68580000D03*
X165100000Y-25908000D03*
X189865000Y-78740000D03*
X167005000Y-10795000D03*
X166370000Y-25654000D03*
X196215000Y-78740000D03*
X168275000Y-12065000D03*
X167640000Y-26416000D03*
X202565000Y-78740000D03*
X169545000Y-12700000D03*
X168910000Y-27178000D03*
X208915000Y-78740000D03*
X170475000Y-11725000D03*
X170475000Y-41361000D03*
X189865000Y-88900000D03*
X171450000Y-10795000D03*
X174084999Y-41307001D03*
X196215000Y-88900000D03*
X172629999Y-12609999D03*
X175260000Y-40132000D03*
X202565000Y-88900000D03*
X173355000Y-11430000D03*
X176624999Y-32163001D03*
X208915000Y-88900000D03*
X174625000Y-12065000D03*
X177800000Y-32512000D03*
X199390000Y-52705000D03*
X212090000Y-52705000D03*
X199390000Y-62865000D03*
X212090000Y-62865000D03*
X199390000Y-73025000D03*
X212090000Y-73025000D03*
X199390000Y-83185000D03*
X212090000Y-83185000D03*
X193040000Y-52705000D03*
X205740000Y-52705000D03*
X193040000Y-62865000D03*
X205740000Y-62865000D03*
X193040000Y-73025000D03*
X205740000Y-73025000D03*
X193040000Y-83185000D03*
X205740000Y-83185000D03*
X221570000Y-86315000D03*
X196215000Y22860000D03*
X208915000Y22860000D03*
X196215000Y12700000D03*
X208915000Y12700000D03*
X196215000Y2540000D03*
X208915000Y2540000D03*
X196215000Y-7620000D03*
X208915000Y-7620000D03*
X189865000Y22860000D03*
X202565000Y22860000D03*
X189865000Y12700000D03*
X202565000Y12700000D03*
X189865000Y2540000D03*
X202565000Y2540000D03*
X189865000Y-7620000D03*
X202565000Y-7620000D03*
X150495000Y-26035000D03*
X150495000Y-35560000D03*
X147435000Y-25400000D03*
X172720000Y-25400000D03*
X149225000Y-33020000D03*
X142875000Y-19685000D03*
X161675000Y-7040000D03*
X174375000Y-7040000D03*
X150495000Y13970000D03*
X191770000Y19685000D03*
X198120000Y19685000D03*
X204470000Y19685000D03*
X210820000Y19685000D03*
X191770000Y9525000D03*
X198120000Y9525000D03*
X204470000Y9525000D03*
X210820000Y9525000D03*
X191770000Y-635000D03*
X198120000Y-635000D03*
X204470000Y-635000D03*
X210820000Y-635000D03*
X191770000Y-10795000D03*
X198120000Y-10795000D03*
X204470000Y-10795000D03*
X210820000Y-10795000D03*
X198120000Y-20955000D03*
X204470000Y-20955000D03*
X210820000Y-20955000D03*
X191770000Y-31115000D03*
X198120000Y-31115000D03*
X204470000Y-31115000D03*
X210820000Y-31115000D03*
X191770000Y-41275000D03*
X198120000Y-41275000D03*
X204470000Y-41275000D03*
X210820000Y-41275000D03*
X191770000Y-51435000D03*
X198120000Y-51435000D03*
X204470000Y-51435000D03*
X210820000Y-51435000D03*
X191770000Y-61595000D03*
X198120000Y-61595000D03*
X204470000Y-61595000D03*
X210820000Y-61595000D03*
X191770000Y-71755000D03*
X198120000Y-71755000D03*
X204470000Y-71755000D03*
X210820000Y-71755000D03*
X204470000Y-81915000D03*
X198120000Y-81915000D03*
X191770000Y-81915000D03*
X191770000Y-92075000D03*
X198120000Y-92075000D03*
X210820000Y-81915000D03*
X204470000Y-92075000D03*
X210820000Y-92075000D03*
X145077500Y-23157500D03*
X150495000Y-22028002D03*
X187960000Y-29210000D03*
X145415000Y-20955000D03*
X146740000Y-22225000D03*
X212090000Y18415000D03*
X167640000Y4445000D03*
X205740000Y18415000D03*
X168910000Y4445000D03*
X199390000Y18415000D03*
X170180000Y4445000D03*
X193040000Y18415000D03*
X171450000Y4445000D03*
X212090000Y28575000D03*
X172720000Y5715000D03*
X205740000Y28575000D03*
X173990000Y5715000D03*
X199390000Y28575000D03*
X175260000Y5715000D03*
X193040000Y28575000D03*
X176530000Y5715000D03*
X212090000Y-1905000D03*
X156475000Y-5450000D03*
X205740000Y-1905000D03*
X157972500Y-4587500D03*
X199390000Y-1905000D03*
X156845000Y-635000D03*
X193040000Y-1905000D03*
X157480000Y635000D03*
X212090000Y8255000D03*
X158115000Y1905000D03*
X205740000Y8255000D03*
X159385000Y3175000D03*
X199390000Y8255000D03*
X160375000Y4165000D03*
X193040000Y8255000D03*
X162560000Y4445000D03*
X212120000Y-78770000D03*
X209520000Y-76170000D03*
X212120000Y-58450000D03*
X209520000Y-55850000D03*
X212120000Y-88930000D03*
X209520000Y-86330000D03*
X212120000Y-68610000D03*
X209520000Y-66010000D03*
X205770000Y-78770000D03*
X203170000Y-76170000D03*
X205770000Y-58450000D03*
X203170000Y-55850000D03*
X205770000Y-88930000D03*
X203170000Y-86330000D03*
X205770000Y-68610000D03*
X203170000Y-66010000D03*
X199420000Y-78770000D03*
X196820000Y-76170000D03*
X199420000Y-58450000D03*
X196820000Y-55850000D03*
X199420000Y-88930000D03*
X196820000Y-86330000D03*
X199420000Y-68610000D03*
X196820000Y-66010000D03*
X193070000Y-78770000D03*
X190470000Y-76170000D03*
X193070000Y-58450000D03*
X190470000Y-55850000D03*
X193070000Y-88930000D03*
X190470000Y-86330000D03*
X193070000Y-68610000D03*
X190470000Y-66010000D03*
X212120000Y-38130000D03*
X209520000Y-35530000D03*
X212120000Y-17810000D03*
X209520000Y-15210000D03*
X212120000Y-48290000D03*
X209520000Y-45690000D03*
X212120000Y-27970000D03*
X209520000Y-25370000D03*
X205770000Y-38130000D03*
X203170000Y-35530000D03*
X205770000Y-17810000D03*
X203170000Y-15210000D03*
X205770000Y-48290000D03*
X203170000Y-45690000D03*
X205770000Y-27970000D03*
X203170000Y-25370000D03*
X199420000Y-38130000D03*
X196820000Y-35530000D03*
X199420000Y-17810000D03*
X196820000Y-15210000D03*
X199420000Y-48290000D03*
X196820000Y-45690000D03*
X199420000Y-27970000D03*
X196820000Y-25370000D03*
X193070000Y-38130000D03*
X190470000Y-35530000D03*
X224790000Y-80645000D03*
X223520000Y-86360000D03*
X193070000Y-48290000D03*
X190470000Y-45690000D03*
X193070000Y-27970000D03*
X190470000Y-25370000D03*
X193070000Y12670000D03*
X190470000Y15270000D03*
X193070000Y-7650000D03*
X190470000Y-5050000D03*
X193070000Y22830000D03*
X190470000Y25430000D03*
X193070000Y2510000D03*
X190470000Y5110000D03*
X199420000Y12670000D03*
X196820000Y15270000D03*
X199420000Y-7650000D03*
X196820000Y-5050000D03*
X199420000Y22830000D03*
X196820000Y25430000D03*
X199420000Y2510000D03*
X196820000Y5110000D03*
X205770000Y12670000D03*
X203170000Y15270000D03*
X205770000Y-7650000D03*
X203170000Y-5050000D03*
X205770000Y22830000D03*
X203170000Y25430000D03*
X205770000Y2510000D03*
X203170000Y5110000D03*
X212120000Y12670000D03*
X209520000Y15270000D03*
X212120000Y-7650000D03*
X209520000Y-5050000D03*
X212120000Y22830000D03*
X209520000Y25430000D03*
X212120000Y2510000D03*
X209520000Y5110000D03*
D17*
X203130685Y-48260000D02*
X202565000Y-48260000D01*
X204273002Y-48260000D02*
X203130685Y-48260000D01*
X209595001Y-42938001D02*
X204273002Y-48260000D01*
X209595001Y-41426997D02*
X209595001Y-42938001D01*
X210471999Y-40549999D02*
X209595001Y-41426997D01*
X211628631Y-40549999D02*
X210471999Y-40549999D01*
X232548630Y-19630000D02*
X211628631Y-40549999D01*
X233680000Y-19630000D02*
X232548630Y-19630000D01*
X190264999Y-47860001D02*
X189865000Y-48260000D01*
X193610011Y-44514989D02*
X190264999Y-47860001D01*
X202303013Y-44514989D02*
X193610011Y-44514989D01*
X204998003Y-41819999D02*
X202303013Y-44514989D01*
X206268003Y-41819999D02*
X204998003Y-41819999D01*
X231228002Y-16860000D02*
X206268003Y-41819999D01*
X233680000Y-16860000D02*
X231228002Y-16860000D01*
X233680000Y-14090000D02*
X232288590Y-14090000D01*
X202964999Y-37700001D02*
X202565000Y-38100000D01*
X204409999Y-36255001D02*
X202964999Y-37700001D01*
X210123589Y-36255001D02*
X204409999Y-36255001D01*
X232288590Y-14090000D02*
X210123589Y-36255001D01*
X190264999Y-37700001D02*
X189865000Y-38100000D01*
X193610011Y-34354989D02*
X190264999Y-37700001D01*
X231688002Y-11320000D02*
X208653013Y-34354989D01*
X208653013Y-34354989D02*
X193610011Y-34354989D01*
X233680000Y-11320000D02*
X231688002Y-11320000D01*
X233680000Y-8550000D02*
X227668590Y-8550000D01*
X202964999Y-27540001D02*
X202565000Y-27940000D01*
X210123589Y-26095001D02*
X204409999Y-26095001D01*
X204409999Y-26095001D02*
X202964999Y-27540001D01*
X227668590Y-8550000D02*
X210123589Y-26095001D01*
X233680000Y-5780000D02*
X228971592Y-5780000D01*
X228971592Y-5780000D02*
X227101611Y-7649981D01*
X190264999Y-27540001D02*
X189865000Y-27940000D01*
X193610011Y-24194989D02*
X190264999Y-27540001D01*
X209047009Y-24194989D02*
X193610011Y-24194989D01*
X225592017Y-7649981D02*
X209047009Y-24194989D01*
X227101611Y-7649981D02*
X225592017Y-7649981D01*
X203290001Y-17054999D02*
X202964999Y-17380001D01*
X208748003Y-17054999D02*
X203290001Y-17054999D01*
X202964999Y-17380001D02*
X202565000Y-17780000D01*
X222793002Y-3010000D02*
X208748003Y-17054999D01*
X233680000Y-3010000D02*
X222793002Y-3010000D01*
X208515001Y-45046997D02*
X208515001Y-47860001D01*
X232546998Y-21015000D02*
X208515001Y-45046997D01*
X208515001Y-47860001D02*
X208915000Y-48260000D01*
X236520000Y-21015000D02*
X232546998Y-21015000D01*
X199510001Y-44964999D02*
X196614999Y-47860001D01*
X204393003Y-44964999D02*
X199510001Y-44964999D01*
X196614999Y-47860001D02*
X196215000Y-48260000D01*
X206465001Y-42893001D02*
X204393003Y-44964999D01*
X206465001Y-42711997D02*
X206465001Y-42893001D01*
X230931998Y-18245000D02*
X206465001Y-42711997D01*
X236520000Y-18245000D02*
X230931998Y-18245000D01*
X231540000Y-15475000D02*
X208915000Y-38100000D01*
X236520000Y-15475000D02*
X231540000Y-15475000D01*
X196614999Y-37700001D02*
X196215000Y-38100000D01*
X199510001Y-34804999D02*
X196614999Y-37700001D01*
X210743003Y-34804999D02*
X199510001Y-34804999D01*
X232843002Y-12705000D02*
X210743003Y-34804999D01*
X236520000Y-12705000D02*
X232843002Y-12705000D01*
X226920000Y-9935000D02*
X208915000Y-27940000D01*
X236520000Y-9935000D02*
X226920000Y-9935000D01*
X236520000Y-7165000D02*
X231320000Y-7165000D01*
X199510001Y-24644999D02*
X196614999Y-27540001D01*
X210743003Y-24644999D02*
X199510001Y-24644999D01*
X227288012Y-8099990D02*
X210743003Y-24644999D01*
X196614999Y-27540001D02*
X196215000Y-27940000D01*
X230385010Y-8099990D02*
X227288012Y-8099990D01*
X231320000Y-7165000D02*
X230385010Y-8099990D01*
X209314999Y-17380001D02*
X208915000Y-17780000D01*
X222040001Y-4654999D02*
X209314999Y-17380001D01*
X236260001Y-4654999D02*
X222040001Y-4654999D01*
X236520000Y-4395000D02*
X236260001Y-4654999D01*
X203359316Y-10069999D02*
X196215000Y-17214315D01*
X210910001Y-10069999D02*
X203359316Y-10069999D01*
X219355000Y-1625000D02*
X210910001Y-10069999D01*
X196215000Y-17214315D02*
X196215000Y-17780000D01*
X236520000Y-1625000D02*
X219355000Y-1625000D01*
X139809989Y-25314401D02*
X139809989Y-1160011D01*
X141369999Y-26874411D02*
X139809989Y-25314401D01*
X140970000Y-29845000D02*
X141369999Y-29445001D01*
X141369999Y-29445001D02*
X141369999Y-26874411D01*
X158750000Y17780000D02*
X158750000Y21590000D01*
X139809989Y-1160011D02*
X158750000Y17780000D01*
X174974411Y15965001D02*
X160110001Y15965001D01*
X185510001Y-11520001D02*
X185510001Y5429411D01*
X185510001Y5429411D02*
X174974411Y15965001D01*
X160110001Y15965001D02*
X160020000Y15875000D01*
X160020000Y15875000D02*
X160020000Y15875000D01*
X176880821Y8980001D02*
X161380001Y8980001D01*
X182245000Y-15875000D02*
X182245000Y3615822D01*
X182245000Y3615822D02*
X176880821Y8980001D01*
X161380001Y8980001D02*
X161290000Y8890000D01*
X161290000Y8890000D02*
X161290000Y8890000D01*
X180340000Y4248002D02*
X177603002Y6985000D01*
X180340000Y-15875000D02*
X180340000Y4248002D01*
X177603002Y6985000D02*
X162560000Y6985000D01*
X162560000Y6985000D02*
X162560000Y6985000D01*
X151130000Y1272820D02*
X161287180Y11430000D01*
X151130000Y-19050000D02*
X151130000Y1272820D01*
X161287180Y11430000D02*
X163830000Y11430000D01*
X163830000Y11430000D02*
X163830000Y11430000D01*
X149860000Y639230D02*
X161920770Y12700000D01*
X149860000Y-17780000D02*
X149860000Y639230D01*
X161920770Y12700000D02*
X165100000Y12700000D01*
X165100000Y12700000D02*
X165100000Y12700000D01*
X148735999Y151639D02*
X162554360Y13970000D01*
X148735999Y-16655999D02*
X148735999Y151639D01*
X162554360Y13970000D02*
X166370000Y13970000D01*
X166370000Y13970000D02*
X166370000Y13970000D01*
X147391010Y-556940D02*
X163187950Y15240000D01*
X147391010Y-15311010D02*
X147391010Y-556940D01*
X163187950Y15240000D02*
X167640000Y15240000D01*
X167640000Y15240000D02*
X167640000Y15240000D01*
X192474315Y-32385000D02*
X193040000Y-32385000D01*
X184150000Y-40709315D02*
X192474315Y-32385000D01*
X184150000Y-45085000D02*
X184150000Y-40709315D01*
X176878001Y13425001D02*
X169000001Y13425001D01*
X184320029Y5982973D02*
X176878001Y13425001D01*
X184320029Y-36662791D02*
X184320029Y5982973D01*
X184150000Y-40709315D02*
X184150000Y-36832820D01*
X184150000Y-36832820D02*
X184320029Y-36662791D01*
X152400000Y-41275000D02*
X152400000Y1270000D01*
X152400000Y1270000D02*
X156845000Y5715000D01*
X156845000Y5715000D02*
X170180000Y5715000D01*
X170180000Y5715000D02*
X170180000Y5715000D01*
X151855001Y1361411D02*
X160653590Y10160000D01*
X151275999Y-39224001D02*
X151855001Y-38644999D01*
X151855001Y-38644999D02*
X151855001Y1361411D01*
X160653590Y10160000D02*
X171450000Y10160000D01*
X171450000Y10160000D02*
X171450000Y10160000D01*
X183420010Y3713632D02*
X175703642Y11430000D01*
X179705000Y-40005000D02*
X183420010Y-36289990D01*
X183420010Y-36289990D02*
X183420010Y3713632D01*
X175703642Y11430000D02*
X172720000Y11430000D01*
X172720000Y11430000D02*
X172720000Y11430000D01*
X179705000Y-38100000D02*
X182970001Y-34834999D01*
X182970001Y3527231D02*
X176972232Y9525000D01*
X182970001Y-34834999D02*
X182970001Y3527231D01*
X176972232Y9525000D02*
X174625000Y9525000D01*
X174625000Y9525000D02*
X173990000Y10160000D01*
X173990000Y10160000D02*
X173990000Y10160000D01*
X181065001Y4159411D02*
X176969412Y8255000D01*
X179705000Y-36195000D02*
X181065001Y-34834999D01*
X181065001Y-34834999D02*
X181065001Y4159411D01*
X176969412Y8255000D02*
X175260000Y8255000D01*
X175260000Y8255000D02*
X175260000Y8255000D01*
X183870020Y-36476390D02*
X183870020Y5359980D01*
X180990010Y-43765010D02*
X180990010Y-39356400D01*
X180990010Y-39356400D02*
X183870020Y-36476390D01*
X183870020Y5359980D02*
X176530000Y12700000D01*
X176530000Y12700000D02*
X176530000Y12700000D01*
X179585000Y-34410000D02*
X179585000Y3930000D01*
X179585000Y3930000D02*
X177800000Y5715000D01*
X177800000Y5715000D02*
X177800000Y5715000D01*
X163830000Y-95250000D02*
X157480000Y-88900000D01*
X212578630Y-95250000D02*
X163830000Y-95250000D01*
X229081998Y-75280000D02*
X217805000Y-86556998D01*
X233680000Y-75280000D02*
X229081998Y-75280000D01*
X217805000Y-90023630D02*
X212578630Y-95250000D01*
X217805000Y-86556998D02*
X217805000Y-90023630D01*
X141635000Y-24160000D02*
X140985000Y-23510000D01*
X150465000Y-24160000D02*
X141635000Y-24160000D01*
X156304999Y-89464001D02*
X156304999Y-87535001D01*
X222794999Y-86163003D02*
X213257993Y-95700009D01*
X156630001Y-87209999D02*
X157480000Y-86360000D01*
X213257993Y-95700009D02*
X162541007Y-95700009D01*
X222794999Y-86011999D02*
X222794999Y-86163003D01*
X156304999Y-87535001D02*
X156630001Y-87209999D01*
X229111999Y-79694999D02*
X222794999Y-86011999D01*
X162541007Y-95700009D02*
X156304999Y-89464001D01*
X234621371Y-79694999D02*
X229111999Y-79694999D01*
X236520000Y-77796370D02*
X234621371Y-79694999D01*
X236520000Y-76665000D02*
X236520000Y-77796370D01*
X158655001Y-85795999D02*
X153670000Y-80810998D01*
X158655001Y-86734003D02*
X158655001Y-85795999D01*
X160020000Y-88900000D02*
X160020000Y-88099002D01*
X160020000Y-88099002D02*
X158655001Y-86734003D01*
X153670000Y-11430000D02*
X154305000Y-10795000D01*
X153670000Y-80810998D02*
X153670000Y-43815000D01*
X153670000Y-43815000D02*
X153670000Y-11430000D01*
X160020000Y-86360000D02*
X154940000Y-81280000D01*
X154940000Y-12700000D02*
X155575000Y-12065000D01*
X154940000Y-81280000D02*
X154940000Y-45085000D01*
X154940000Y-45085000D02*
X154940000Y-12700000D01*
X161195001Y-85795999D02*
X156210000Y-80810998D01*
X162560000Y-88900000D02*
X161195001Y-87535001D01*
X161195001Y-87535001D02*
X161195001Y-85795999D01*
X156210000Y-13335000D02*
X156845000Y-12700000D01*
X156210000Y-80810998D02*
X156210000Y-32385000D01*
X156210000Y-32385000D02*
X156210000Y-13335000D01*
X157775000Y-12290685D02*
X157775000Y-11725000D01*
X157775000Y-12805000D02*
X157775000Y-12290685D01*
X157154999Y-13425001D02*
X157775000Y-12805000D01*
X157154999Y-80954999D02*
X157154999Y-32075001D01*
X162560000Y-86360000D02*
X157154999Y-80954999D01*
X157154999Y-32075001D02*
X157154999Y-13425001D01*
X163924999Y-85821409D02*
X161290000Y-83186410D01*
X165100000Y-88900000D02*
X163924999Y-87724999D01*
X163924999Y-87724999D02*
X163924999Y-85821409D01*
X161290000Y-83186410D02*
X161290000Y-28194000D01*
X158750000Y-13970000D02*
X158750000Y-10795000D01*
X161290000Y-16510000D02*
X158750000Y-13970000D01*
X161290000Y-28194000D02*
X161290000Y-16510000D01*
X165100000Y-86360000D02*
X162560000Y-83820000D01*
X162560000Y-15240000D02*
X159929999Y-12609999D01*
X162560000Y-83820000D02*
X162560000Y-27432000D01*
X162560000Y-27432000D02*
X162560000Y-15240000D01*
X163830000Y-15240000D02*
X160655000Y-12065000D01*
X160655000Y-12065000D02*
X160655000Y-11430000D01*
X166275001Y-85795999D02*
X163830000Y-83350998D01*
X167640000Y-88900000D02*
X166275001Y-87535001D01*
X163830000Y-83350998D02*
X163830000Y-26670000D01*
X166275001Y-87535001D02*
X166275001Y-85795999D01*
X163830000Y-26670000D02*
X163830000Y-15240000D01*
X167640000Y-86360000D02*
X165100000Y-83820000D01*
X165100000Y-15240000D02*
X161925000Y-12065000D01*
X165100000Y-83820000D02*
X165100000Y-25908000D01*
X165100000Y-25908000D02*
X165100000Y-15240000D01*
X169004999Y-85821409D02*
X166370000Y-83186410D01*
X170180000Y-88900000D02*
X169004999Y-87724999D01*
X169004999Y-87724999D02*
X169004999Y-85821409D01*
X166370000Y-11430000D02*
X167005000Y-10795000D01*
X166370000Y-83186410D02*
X166370000Y-25654000D01*
X166370000Y-25654000D02*
X166370000Y-11430000D01*
X167640000Y-12700000D02*
X168275000Y-12065000D01*
X170180000Y-86360000D02*
X167640000Y-83820000D01*
X167640000Y-83820000D02*
X167640000Y-26416000D01*
X167640000Y-26416000D02*
X167640000Y-12700000D01*
X168910000Y-75566410D02*
X168910000Y-27178000D01*
X171544999Y-78201409D02*
X168910000Y-75566410D01*
X172720000Y-88900000D02*
X171544999Y-87724999D01*
X168910000Y-13335000D02*
X169545000Y-12700000D01*
X171544999Y-87724999D02*
X171544999Y-78201409D01*
X168910000Y-27178000D02*
X168910000Y-13335000D01*
X170475000Y-12290685D02*
X170475000Y-11725000D01*
X170475000Y-76495000D02*
X170475000Y-41361000D01*
X172720000Y-78740000D02*
X170475000Y-76495000D01*
X172720000Y-86360000D02*
X172720000Y-78740000D01*
X170475000Y-41361000D02*
X170475000Y-12290685D01*
X171450000Y-12503002D02*
X171450000Y-11360685D01*
X171450000Y-11360685D02*
X171450000Y-10795000D01*
X174084999Y-15138001D02*
X171450000Y-12503002D01*
X174084999Y-87724999D02*
X174084999Y-41307001D01*
X175260000Y-88900000D02*
X174084999Y-87724999D01*
X174084999Y-41307001D02*
X174084999Y-15138001D01*
X175260000Y-15240000D02*
X172629999Y-12609999D01*
X175260000Y-86360000D02*
X175260000Y-15240000D01*
X176624999Y-15265684D02*
X173355000Y-11995685D01*
X173355000Y-11995685D02*
X173355000Y-11430000D01*
X176624999Y-87724999D02*
X176624999Y-32163001D01*
X177800000Y-88900000D02*
X176624999Y-87724999D01*
X176624999Y-32163001D02*
X176624999Y-15265684D01*
X177800000Y-15240000D02*
X174625000Y-12065000D01*
X177800000Y-86360000D02*
X177800000Y-32512000D01*
X177800000Y-32512000D02*
X177800000Y-15240000D01*
X199789999Y-53104999D02*
X199390000Y-52705000D01*
X200160001Y-53475001D02*
X199789999Y-53104999D01*
X203503001Y-53475001D02*
X200160001Y-53475001D01*
X206268003Y-50709999D02*
X203503001Y-53475001D01*
X215599412Y-54505000D02*
X211804411Y-50709999D01*
X211804411Y-50709999D02*
X206268003Y-50709999D01*
X236520000Y-54505000D02*
X215599412Y-54505000D01*
X212489999Y-53104999D02*
X212090000Y-52705000D01*
X216679999Y-57294999D02*
X212489999Y-53104999D01*
X236500001Y-57294999D02*
X216679999Y-57294999D01*
X236520000Y-57275000D02*
X236500001Y-57294999D01*
X202210000Y-60045000D02*
X199390000Y-62865000D01*
X236520000Y-60045000D02*
X202210000Y-60045000D01*
X212140000Y-62815000D02*
X212090000Y-62865000D01*
X236520000Y-62815000D02*
X212140000Y-62815000D01*
X199789999Y-72625001D02*
X199390000Y-73025000D01*
X201835011Y-70579989D02*
X199789999Y-72625001D01*
X207988013Y-70579989D02*
X201835011Y-70579989D01*
X212983002Y-65585000D02*
X207988013Y-70579989D01*
X236520000Y-65585000D02*
X212983002Y-65585000D01*
X216760000Y-68355000D02*
X212090000Y-73025000D01*
X236520000Y-68355000D02*
X236520000Y-88115000D01*
X199789999Y-82785001D02*
X199390000Y-83185000D01*
X201385001Y-81189999D02*
X199789999Y-82785001D01*
X210773003Y-81189999D02*
X201385001Y-81189999D01*
X220838002Y-71125000D02*
X210773003Y-81189999D01*
X236520000Y-71125000D02*
X220838002Y-71125000D01*
X221380000Y-73895000D02*
X212090000Y-83185000D01*
X236520000Y-73895000D02*
X221380000Y-73895000D01*
X196070001Y-49674999D02*
X193439999Y-52305001D01*
X193439999Y-52305001D02*
X193040000Y-52705000D01*
X232548630Y-53120000D02*
X229103629Y-49674999D01*
X229103629Y-49674999D02*
X196070001Y-49674999D01*
X233680000Y-53120000D02*
X232548630Y-53120000D01*
X206139999Y-53104999D02*
X205740000Y-52705000D01*
X209853001Y-53475001D02*
X206510001Y-53475001D01*
X211348003Y-51979999D02*
X209853001Y-53475001D01*
X212438001Y-51979999D02*
X211348003Y-51979999D01*
X217170000Y-56711998D02*
X212438001Y-51979999D01*
X217170000Y-56844989D02*
X217170000Y-56711998D01*
X206510001Y-53475001D02*
X206139999Y-53104999D01*
X232725011Y-56844989D02*
X217170000Y-56844989D01*
X233680000Y-55890000D02*
X232725011Y-56844989D01*
X193439999Y-62465001D02*
X193040000Y-62865000D01*
X232794999Y-59545001D02*
X196359999Y-59545001D01*
X196359999Y-59545001D02*
X193439999Y-62465001D01*
X233680000Y-58660000D02*
X232794999Y-59545001D01*
X232880001Y-60630001D02*
X208609999Y-60630001D01*
X233680000Y-61430000D02*
X232880001Y-60630001D01*
X206375000Y-62865000D02*
X205740000Y-62865000D01*
X208609999Y-60630001D02*
X206375000Y-62865000D01*
X201865000Y-64200000D02*
X193040000Y-73025000D01*
X233680000Y-64200000D02*
X201865000Y-64200000D01*
X206139999Y-72625001D02*
X205740000Y-73025000D01*
X207735001Y-71029999D02*
X206139999Y-72625001D01*
X210910001Y-71029999D02*
X207735001Y-71029999D01*
X214970000Y-66970000D02*
X210910001Y-71029999D01*
X233680000Y-66970000D02*
X214970000Y-66970000D01*
X195485011Y-80739989D02*
X193439999Y-82785001D01*
X209077009Y-80739989D02*
X195485011Y-80739989D01*
X193439999Y-82785001D02*
X193040000Y-83185000D01*
X220076998Y-69740000D02*
X209077009Y-80739989D01*
X233680000Y-69740000D02*
X220076998Y-69740000D01*
X206510001Y-83955001D02*
X206139999Y-83584999D01*
X209853001Y-83955001D02*
X206510001Y-83955001D01*
X221298002Y-72510000D02*
X209853001Y-83955001D01*
X206139999Y-83584999D02*
X205740000Y-83185000D01*
X233680000Y-72510000D02*
X221298002Y-72510000D01*
X229835000Y-78050000D02*
X221570000Y-86315000D01*
X233680000Y-78050000D02*
X229835000Y-78050000D01*
X196614999Y23259999D02*
X196215000Y22860000D01*
X197390010Y24035010D02*
X196614999Y23259999D01*
X209449402Y24035010D02*
X197390010Y24035010D01*
X212714403Y20770009D02*
X209449402Y24035010D01*
X235153621Y20770009D02*
X212714403Y20770009D01*
X235388630Y20535000D02*
X235153621Y20770009D01*
X236520000Y20535000D02*
X235388630Y20535000D01*
X214010000Y17765000D02*
X208915000Y22860000D01*
X236520000Y17765000D02*
X214010000Y17765000D01*
X196614999Y13099999D02*
X196215000Y12700000D01*
X217744999Y14544999D02*
X198059999Y14544999D01*
X198059999Y14544999D02*
X196614999Y13099999D01*
X218195000Y14995000D02*
X217744999Y14544999D01*
X236520000Y14995000D02*
X218195000Y14995000D01*
X209670001Y11944999D02*
X209314999Y12300001D01*
X212468001Y11944999D02*
X209670001Y11944999D01*
X209314999Y12300001D02*
X208915000Y12700000D01*
X212748002Y12225000D02*
X212468001Y11944999D01*
X236520000Y12225000D02*
X212748002Y12225000D01*
X196614999Y2939999D02*
X196215000Y2540000D01*
X206477009Y3715011D02*
X197390011Y3715011D01*
X212216998Y9455000D02*
X206477009Y3715011D01*
X197390011Y3715011D02*
X196614999Y2939999D01*
X236520000Y9455000D02*
X212216998Y9455000D01*
X213060000Y6685000D02*
X208915000Y2540000D01*
X236520000Y6685000D02*
X213060000Y6685000D01*
X205418012Y-6474990D02*
X197360010Y-6474990D01*
X209595001Y-2298001D02*
X205418012Y-6474990D01*
X209595001Y-786997D02*
X209595001Y-2298001D01*
X211168001Y90001D02*
X210471999Y90001D01*
X214993000Y3915000D02*
X211168001Y90001D01*
X196614999Y-7220001D02*
X196215000Y-7620000D01*
X197360010Y-6474990D02*
X196614999Y-7220001D01*
X210471999Y90001D02*
X209595001Y-786997D01*
X236520000Y3915000D02*
X214993000Y3915000D01*
X209314999Y-7220001D02*
X208915000Y-7620000D01*
X217420001Y885001D02*
X209314999Y-7220001D01*
X236260001Y885001D02*
X217420001Y885001D01*
X236520000Y1145000D02*
X236260001Y885001D01*
X191490019Y24485019D02*
X190264999Y23259999D01*
X231114981Y24485019D02*
X191490019Y24485019D01*
X190264999Y23259999D02*
X189865000Y22860000D01*
X233680000Y21920000D02*
X231114981Y24485019D01*
X233680000Y19150000D02*
X215165000Y19150000D01*
X202964999Y23259999D02*
X202565000Y22860000D01*
X203290001Y23585001D02*
X202964999Y23259999D01*
X209263001Y23585001D02*
X203290001Y23585001D01*
X212528002Y20320000D02*
X209263001Y23585001D01*
X213995000Y20320000D02*
X212528002Y20320000D01*
X215165000Y19150000D02*
X213995000Y20320000D01*
X190264999Y13099999D02*
X189865000Y12700000D01*
X233295001Y15995001D02*
X193160001Y15995001D01*
X193160001Y15995001D02*
X190264999Y13099999D01*
X233680000Y16380000D02*
X233295001Y15995001D01*
X203475000Y13610000D02*
X202565000Y12700000D01*
X233680000Y13610000D02*
X203475000Y13610000D01*
X190264999Y2939999D02*
X189865000Y2540000D01*
X191490020Y4165020D02*
X190264999Y2939999D01*
X203752018Y4165020D02*
X191490020Y4165020D01*
X210426998Y10840000D02*
X203752018Y4165020D01*
X233680000Y10840000D02*
X210426998Y10840000D01*
X208748003Y3265001D02*
X203290001Y3265001D01*
X203290001Y3265001D02*
X202964999Y2939999D01*
X213553002Y8070000D02*
X208748003Y3265001D01*
X202964999Y2939999D02*
X202565000Y2540000D01*
X233680000Y8070000D02*
X213553002Y8070000D01*
X190264999Y-7220001D02*
X189865000Y-7620000D01*
X193160001Y-4324999D02*
X190264999Y-7220001D01*
X204393003Y-4324999D02*
X193160001Y-4324999D01*
X206465001Y-2253001D02*
X204393003Y-4324999D01*
X206465001Y-2071997D02*
X206465001Y-2253001D01*
X214636997Y6099999D02*
X206465001Y-2071997D01*
X232880001Y6099999D02*
X214636997Y6099999D01*
X233680000Y5300000D02*
X232880001Y6099999D01*
X202964999Y-7220001D02*
X202565000Y-7620000D01*
X203260001Y-6924999D02*
X202964999Y-7220001D01*
X205996999Y-6924999D02*
X203260001Y-6924999D01*
X215451998Y2530000D02*
X205996999Y-6924999D01*
X233680000Y2530000D02*
X215451998Y2530000D01*
X151175001Y-34879999D02*
X150894999Y-35160001D01*
X151175001Y-26715001D02*
X151175001Y-34879999D01*
X150894999Y-35160001D02*
X150495000Y-35560000D01*
X150495000Y-26035000D02*
X151175001Y-26715001D01*
X148659315Y-33020000D02*
X149225000Y-33020000D01*
X148151998Y-33020000D02*
X148659315Y-33020000D01*
X140259999Y-25128001D02*
X148151998Y-33020000D01*
X140259999Y-22300001D02*
X140259999Y-25128001D01*
X142875000Y-19685000D02*
X140259999Y-22300001D01*
X146685000Y-22225000D02*
X145415000Y-20955000D01*
X146740000Y-22225000D02*
X146685000Y-22225000D01*
M02*
