G04 #@! TF.GenerationSoftware,KiCad,Pcbnew,5.1.5-52549c5~84~ubuntu18.04.1*
G04 #@! TF.CreationDate,2020-06-07T18:01:10-07:00*
G04 #@! TF.ProjectId,ram,72616d2e-6b69-4636-9164-5f7063625858,rev?*
G04 #@! TF.SameCoordinates,Original*
G04 #@! TF.FileFunction,Copper,L2,Inr*
G04 #@! TF.FilePolarity,Positive*
%FSLAX46Y46*%
G04 Gerber Fmt 4.6, Leading zero omitted, Abs format (unit mm)*
G04 Created by KiCad (PCBNEW 5.1.5-52549c5~84~ubuntu18.04.1) date 2020-06-07 18:01:10*
%MOMM*%
%LPD*%
G04 APERTURE LIST*
%ADD10O,1.700000X1.700000*%
%ADD11R,1.700000X1.700000*%
%ADD12C,1.600000*%
%ADD13R,1.600000X1.600000*%
%ADD14R,1.300000X1.300000*%
%ADD15C,1.300000*%
%ADD16C,2.600000*%
%ADD17C,1.890000*%
%ADD18C,1.900000*%
%ADD19R,1.900000X1.900000*%
%ADD20C,4.000000*%
%ADD21C,6.000000*%
%ADD22C,0.800000*%
%ADD23C,0.250000*%
%ADD24C,0.200000*%
G04 APERTURE END LIST*
D10*
X228600000Y-95250000D03*
X226060000Y-95250000D03*
X223520000Y-95250000D03*
X220980000Y-95250000D03*
X218440000Y-95250000D03*
X215900000Y-95250000D03*
X213360000Y-95250000D03*
X210820000Y-95250000D03*
X208280000Y-95250000D03*
D11*
X205740000Y-95250000D03*
D12*
X187960000Y-59690000D03*
X187960000Y-57150000D03*
X187960000Y-54610000D03*
X187960000Y-52070000D03*
X187960000Y-49530000D03*
X187960000Y-46990000D03*
X187960000Y-44450000D03*
X187960000Y-41910000D03*
X187960000Y-39370000D03*
X187960000Y-36830000D03*
X187960000Y-34290000D03*
X187960000Y-31750000D03*
X187960000Y-29210000D03*
X187960000Y-26670000D03*
D13*
X203200000Y-59690000D03*
D12*
X203200000Y-57150000D03*
X203200000Y-54610000D03*
X203200000Y-52070000D03*
X203200000Y-49530000D03*
X203200000Y-46990000D03*
X203200000Y-44450000D03*
X203200000Y-41910000D03*
X203200000Y-39370000D03*
X203200000Y-36830000D03*
X203200000Y-34290000D03*
X203200000Y-31750000D03*
X203200000Y-29210000D03*
X187960000Y-24130000D03*
X187960000Y-21590000D03*
X187960000Y-19050000D03*
X187960000Y-16510000D03*
X187960000Y-13970000D03*
X187960000Y-11430000D03*
X187960000Y-8890000D03*
X187960000Y-6350000D03*
X187960000Y-3810000D03*
X187960000Y-1270000D03*
X203200000Y-1270000D03*
X203200000Y-3810000D03*
X203200000Y-6350000D03*
X203200000Y-8890000D03*
X203200000Y-26670000D03*
X203200000Y-24130000D03*
X203200000Y-21590000D03*
X203200000Y-11430000D03*
X203200000Y-13970000D03*
X203200000Y-16510000D03*
X203200000Y-19050000D03*
D14*
X190500000Y-46720000D03*
D15*
X190500000Y-44720000D03*
X192500000Y-46720000D03*
X192500000Y-44720000D03*
X194500000Y-44720000D03*
X194500000Y-46720000D03*
D16*
X201704000Y-82792000D03*
X186154000Y-82792000D03*
D17*
X187604000Y-90742000D03*
X190144000Y-89222000D03*
X197714000Y-90742000D03*
X200254000Y-89222000D03*
D18*
X198374000Y-76962000D03*
X197104000Y-79502000D03*
X195834000Y-76962000D03*
X194564000Y-79502000D03*
X193294000Y-76962000D03*
X192024000Y-79502000D03*
X190754000Y-76962000D03*
D19*
X189484000Y-79502000D03*
D20*
X235100000Y28740000D03*
X235100000Y-34760000D03*
D12*
X236520000Y20535000D03*
X236520000Y17765000D03*
X236520000Y14995000D03*
X236520000Y12225000D03*
X236520000Y9455000D03*
X236520000Y6685000D03*
X236520000Y3915000D03*
X236520000Y1145000D03*
X236520000Y-1625000D03*
X236520000Y-4395000D03*
X236520000Y-7165000D03*
X236520000Y-9935000D03*
X236520000Y-12705000D03*
X236520000Y-15475000D03*
X236520000Y-18245000D03*
X236520000Y-21015000D03*
X236520000Y-23785000D03*
X236520000Y-26555000D03*
X233680000Y21920000D03*
X233680000Y19150000D03*
X233680000Y16380000D03*
X233680000Y13610000D03*
X233680000Y10840000D03*
X233680000Y8070000D03*
X233680000Y5300000D03*
X233680000Y2530000D03*
X233680000Y-240000D03*
X233680000Y-3010000D03*
X233680000Y-5780000D03*
X233680000Y-8550000D03*
X233680000Y-11320000D03*
X233680000Y-14090000D03*
X233680000Y-16860000D03*
X233680000Y-19630000D03*
X233680000Y-22400000D03*
X233680000Y-25170000D03*
D13*
X233680000Y-27940000D03*
D20*
X235100000Y-46190000D03*
X235100000Y-93290000D03*
D12*
X236520000Y-54505000D03*
X236520000Y-57275000D03*
X236520000Y-60045000D03*
X236520000Y-62815000D03*
X236520000Y-65585000D03*
X236520000Y-68355000D03*
X236520000Y-71125000D03*
X236520000Y-73895000D03*
X236520000Y-76665000D03*
X236520000Y-79435000D03*
X236520000Y-82205000D03*
X236520000Y-84975000D03*
X233680000Y-53120000D03*
X233680000Y-55890000D03*
X233680000Y-58660000D03*
X233680000Y-61430000D03*
X233680000Y-64200000D03*
X233680000Y-66970000D03*
X233680000Y-69740000D03*
X233680000Y-72510000D03*
X233680000Y-75280000D03*
X233680000Y-78050000D03*
X233680000Y-80820000D03*
X233680000Y-83590000D03*
D13*
X233680000Y-86360000D03*
D12*
X227250000Y-48514000D03*
X222250000Y-48514000D03*
X227250000Y-25400000D03*
X222250000Y-25400000D03*
X226020000Y-41910000D03*
D13*
X223520000Y-41910000D03*
D12*
X226020000Y-31750000D03*
D13*
X223520000Y-31750000D03*
D21*
X177800000Y29210000D03*
X177800000Y-93980000D03*
D22*
X217072000Y19460000D03*
X217014000Y8030000D03*
X216539000Y-9275000D03*
X216277000Y-19435000D03*
X226470000Y-61370000D03*
X226412000Y-72800000D03*
X225200000Y-76864000D03*
X215040000Y-76864000D03*
X226904000Y-85680000D03*
X216744000Y-85680000D03*
X200152000Y22860000D03*
X196088000Y6604000D03*
X216472000Y-3492000D03*
X217424000Y-62484000D03*
X217424000Y-81280000D03*
X206887000Y-3556000D03*
X206248000Y-19304000D03*
X213360000Y-85625000D03*
X210932000Y-80660000D03*
X213360000Y-59436000D03*
X213360000Y-70612000D03*
X203454000Y9906000D03*
X206756000Y-21844000D03*
X207046999Y-4789001D03*
X205094500Y9789500D03*
X208788000Y-26416000D03*
X207772000Y-6096000D03*
X205973000Y17272000D03*
X215392000Y-6604000D03*
X215392000Y-28956000D03*
X204216000Y17272000D03*
X215392000Y-31496000D03*
X213868000Y-7620000D03*
X202850000Y16922000D03*
X213360000Y-8636000D03*
X214884000Y-33528000D03*
X201422000Y17018000D03*
X214884000Y-36576000D03*
X213106000Y-10414000D03*
X190500000Y17780000D03*
X212184989Y-13048989D03*
X214376000Y-39116000D03*
X189250000Y16998000D03*
X214376000Y-41656000D03*
X211836000Y-14224000D03*
X188175000Y15963000D03*
X214376000Y-44196000D03*
X211487999Y-15399999D03*
X188175000Y6819000D03*
X214376000Y-46736000D03*
X211074000Y-16510000D03*
X187988501Y5559499D03*
X210109958Y-16966042D03*
X214376000Y-49276000D03*
X187960000Y4457996D03*
X210058000Y-18034000D03*
X213868000Y-51816000D03*
X187960000Y3384994D03*
X213360000Y-54356000D03*
X209296000Y-18796000D03*
X187960000Y2311992D03*
X213360000Y-57404000D03*
X209042000Y-20066000D03*
X221488000Y-79756000D03*
X220950000Y-86330000D03*
X210790000Y-86330000D03*
X223490000Y-81310000D03*
X193250000Y17990000D03*
X224028000Y10668000D03*
X185928000Y-15240000D03*
X218948000Y-53557998D03*
X194050000Y17278000D03*
X223012000Y9652000D03*
X189484000Y-17780000D03*
X219964000Y-52832000D03*
X194850000Y18002000D03*
X222504000Y10668000D03*
X190500000Y-16764000D03*
X220980000Y-53848000D03*
X219964000Y6096000D03*
X195650000Y17342000D03*
X221488000Y11176000D03*
X190500000Y-14224000D03*
X221849999Y-52978001D03*
X198050000Y17202000D03*
X220655000Y10343000D03*
X185420000Y-46736000D03*
X222575000Y-53919000D03*
X185928000Y-55880000D03*
X192168999Y-55735001D03*
X198850000Y18066000D03*
X219710000Y9906000D03*
X185420000Y-44704000D03*
X223324999Y-53144999D03*
X186145001Y-53122999D03*
X192024000Y-53340000D03*
X199650000Y17278000D03*
X218268206Y9988206D03*
X224050000Y-52346000D03*
X192024000Y-51816000D03*
X200450000Y17990000D03*
X216408000Y9144000D03*
X193040000Y-49784000D03*
X225044000Y-53340000D03*
X200450000Y10878000D03*
X224536000Y21336000D03*
X195580000Y-34544000D03*
X220218000Y-64262000D03*
X201168000Y-34544000D03*
X199650000Y10154000D03*
X223506000Y21336000D03*
X195072000Y-36576000D03*
X220980000Y-68580000D03*
X198850000Y10954000D03*
X222504000Y21786998D03*
X196088000Y-20828000D03*
X220980000Y-65024000D03*
X200442999Y-21045001D03*
X198050000Y10090000D03*
X221488000Y21844000D03*
X196088000Y-18796000D03*
X221849999Y-64154001D03*
X199717998Y-19230002D03*
X195580000Y10160000D03*
X220655000Y22535000D03*
X195072000Y-31496000D03*
X222575000Y-65095000D03*
X198628000Y-31496000D03*
X194850000Y10954000D03*
X219929999Y21809999D03*
X195072000Y-29464000D03*
X223300001Y-64296001D03*
X198628000Y-29464000D03*
X194050000Y10166000D03*
X218948000Y21336000D03*
X194056000Y-39624000D03*
X224536000Y-64516000D03*
X197612000Y-39624000D03*
X193250000Y10966000D03*
X217932000Y21118002D03*
X193040000Y-42164000D03*
X225552000Y-64008000D03*
X197104000Y-42164000D03*
X230124000Y-2540000D03*
X190850000Y21178000D03*
X187960000Y-68580000D03*
X192532000Y-68580000D03*
X215040000Y-90776000D03*
X201422000Y9906000D03*
X209804000Y-62484000D03*
X216662000Y-80010000D03*
X210992000Y-78060000D03*
X225200000Y-83156000D03*
X213390000Y-88930000D03*
X213473500Y-78118500D03*
X223550000Y-86330000D03*
X223184000Y-89580000D03*
X215392000Y21336000D03*
X221996000Y508000D03*
X226060000Y-51308000D03*
X227838000Y-87630000D03*
X225708000Y19460000D03*
X225454000Y8030000D03*
X218030000Y-2130000D03*
X219833000Y-13585000D03*
X219325000Y-70743000D03*
X216408000Y-87797002D03*
X215900000Y-49784000D03*
X219325000Y-59059000D03*
X215040000Y-83156000D03*
X208280000Y-62484000D03*
X224028000Y-84836000D03*
X212852000Y-87884000D03*
X206756000Y-62484000D03*
D23*
X215174999Y-49102591D02*
X215174999Y-60234999D01*
X219107999Y-45169591D02*
X215174999Y-49102591D01*
X216472000Y-3492000D02*
X219107999Y-6127999D01*
X219107999Y-6127999D02*
X219107999Y-45169591D01*
X215174999Y-60234999D02*
X217424000Y-62484000D01*
X217424000Y-62484000D02*
X217424000Y-62484000D01*
X206321998Y-5153998D02*
X206596989Y-5428989D01*
X206887000Y-3556000D02*
X206321998Y-4121002D01*
X206321998Y-4121002D02*
X206321998Y-5153998D01*
X206596989Y-5428989D02*
X206596990Y-7589400D01*
X206596990Y-7589400D02*
X207134907Y-8127317D01*
X207134907Y-8127317D02*
X207134907Y-17909093D01*
X207134907Y-17909093D02*
X206248000Y-18796000D01*
X206248000Y-18796000D02*
X206248000Y-19304000D01*
X206248000Y-19304000D02*
X206248000Y-19304000D01*
X213360000Y-84328000D02*
X213360000Y-85625000D01*
X206248000Y-21278998D02*
X206030999Y-21495999D01*
X206030999Y-21495999D02*
X206030999Y-24732001D01*
X206248000Y-19304000D02*
X206248000Y-21278998D01*
X206030999Y-24732001D02*
X209238998Y-27940000D01*
X213360000Y-83653685D02*
X213360000Y-84328000D01*
X210932000Y-81225685D02*
X213360000Y-83653685D01*
X210932000Y-80660000D02*
X210932000Y-81225685D01*
X209238998Y-27940000D02*
X209238998Y-55314998D01*
X209238998Y-55314998D02*
X213360000Y-59436000D01*
X213360000Y-59436000D02*
X213360000Y-59436000D01*
X210266999Y-79994999D02*
X210266999Y-73705001D01*
X210932000Y-80660000D02*
X210266999Y-79994999D01*
X210266999Y-73705001D02*
X213360000Y-70612000D01*
X213360000Y-70612000D02*
X213360000Y-70612000D01*
X204295501Y9064499D02*
X208708499Y9064499D01*
X203454000Y9906000D02*
X204295501Y9064499D01*
X208708499Y9064499D02*
X208788000Y8984998D01*
X208788000Y8984998D02*
X208788000Y-3048000D01*
X207046999Y-4789001D02*
X207046999Y-4789001D01*
X208788000Y-3048000D02*
X207046999Y-4789001D01*
X207046999Y-6515409D02*
X207046999Y-7402999D01*
X207046999Y-7402999D02*
X207772000Y-8128000D01*
X207772000Y-15598308D02*
X207584917Y-15785391D01*
X207772000Y-8128000D02*
X207772000Y-15598308D01*
X207584917Y-15785391D02*
X207584917Y-21015083D01*
X207584917Y-21015083D02*
X206756000Y-21844000D01*
X206756000Y-21844000D02*
X206756000Y-21844000D01*
X207046999Y-4789001D02*
X207046999Y-6515409D01*
X205094500Y9789500D02*
X208650500Y9789500D01*
X208650500Y9789500D02*
X209296000Y9144000D01*
X209296000Y9144000D02*
X209296000Y-4064000D01*
X209296000Y-4064000D02*
X207772000Y-5588000D01*
X207772000Y-5588000D02*
X207772000Y-6096000D01*
X207772000Y-6604000D02*
X208280000Y-7112000D01*
X208034927Y-15971791D02*
X208034927Y-25662927D01*
X208280000Y-7112000D02*
X208280000Y-15726718D01*
X208280000Y-15726718D02*
X208034927Y-15971791D01*
X208034927Y-25662927D02*
X208788000Y-26416000D01*
X208788000Y-26416000D02*
X208788000Y-26416000D01*
X207772000Y-6096000D02*
X207772000Y-6604000D01*
X205973000Y17272000D02*
X209296000Y17272000D01*
X209296000Y17272000D02*
X215392000Y11176000D01*
X215392000Y11176000D02*
X215392000Y6096000D01*
X215392000Y6096000D02*
X215392000Y-6604000D01*
X215392000Y-6604000D02*
X215392000Y-28956000D01*
X215392000Y-28956000D02*
X215392000Y-28956000D01*
X204941001Y16546999D02*
X209078999Y16546999D01*
X204216000Y17272000D02*
X204941001Y16546999D01*
X209369998Y16256000D02*
X209369998Y16182002D01*
X209078999Y16546999D02*
X209369998Y16256000D01*
X209369998Y16182002D02*
X214884000Y10668000D01*
X214884000Y-6038998D02*
X213868000Y-7054998D01*
X214884000Y10668000D02*
X214884000Y-6038998D01*
X213868000Y-7054998D02*
X213868000Y-7620000D01*
X213868000Y-7620000D02*
X214884000Y-8636000D01*
X214884000Y-8636000D02*
X214884000Y-22352000D01*
X214884000Y-22352000D02*
X214884000Y-25908000D01*
X214884000Y-25908000D02*
X214884000Y-27940000D01*
X214666999Y-28607999D02*
X214666999Y-30770999D01*
X214884000Y-27940000D02*
X214884000Y-28390998D01*
X214884000Y-28390998D02*
X214666999Y-28607999D01*
X214666999Y-30770999D02*
X215392000Y-31496000D01*
X215392000Y-31496000D02*
X215392000Y-31496000D01*
X213868000Y-7620000D02*
X213868000Y-7620000D01*
X204329589Y16522001D02*
X204754601Y16096989D01*
X202850000Y16922000D02*
X203249999Y16522001D01*
X203249999Y16522001D02*
X204329589Y16522001D01*
X204754601Y16096989D02*
X208818601Y16096989D01*
X208818601Y16096989D02*
X214376000Y10539590D01*
X214376000Y10539590D02*
X214376000Y-4572000D01*
X214376000Y-4572000D02*
X214376000Y-5588000D01*
X213142999Y-6821001D02*
X213142999Y-8418999D01*
X214376000Y-5588000D02*
X213142999Y-6821001D01*
X213142999Y-8418999D02*
X213360000Y-8636000D01*
X213868000Y-9144000D02*
X214376000Y-9652000D01*
X214216989Y-28421599D02*
X214216989Y-32860989D01*
X214376000Y-9652000D02*
X214376000Y-28262588D01*
X214376000Y-28262588D02*
X214216989Y-28421599D01*
X214216989Y-32860989D02*
X214884000Y-33528000D01*
X213360000Y-8636000D02*
X213868000Y-9144000D01*
X214884000Y-33528000D02*
X214884000Y-33528000D01*
X202038001Y16618001D02*
X203009023Y15646979D01*
X201422000Y17018000D02*
X201821999Y16618001D01*
X201821999Y16618001D02*
X202038001Y16618001D01*
X203009023Y15646979D02*
X208632201Y15646979D01*
X208632201Y15646979D02*
X213868000Y10411180D01*
X213868000Y10411180D02*
X213868000Y-5080000D01*
X212634999Y-6692591D02*
X212634999Y-9942999D01*
X213868000Y-5080000D02*
X213868000Y-5459590D01*
X213868000Y-5459590D02*
X212634999Y-6692591D01*
X212634999Y-9942999D02*
X213106000Y-10414000D01*
X213766979Y-28235199D02*
X213766979Y-35458979D01*
X213868000Y-11176000D02*
X213868000Y-28134178D01*
X213868000Y-28134178D02*
X213766979Y-28235199D01*
X213766979Y-35458979D02*
X214884000Y-36576000D01*
X214884000Y-36576000D02*
X214884000Y-36576000D01*
X213106000Y-10414000D02*
X213868000Y-11176000D01*
X190500000Y17780000D02*
X193083031Y15196969D01*
X193083031Y15196969D02*
X202822623Y15196969D01*
X202822623Y15196969D02*
X208445801Y15196969D01*
X208445801Y15196969D02*
X211643385Y11999385D01*
X211643385Y11999385D02*
X213360000Y10282770D01*
X213360000Y10282770D02*
X213360000Y3048000D01*
X213360000Y3048000D02*
X213360000Y-5331180D01*
X212184989Y-6506191D02*
X212184989Y-13048989D01*
X213360000Y-5331180D02*
X212184989Y-6506191D01*
X212184989Y-13048989D02*
X213360000Y-14224000D01*
X213316969Y-28048799D02*
X213316969Y-38056969D01*
X213360000Y-14224000D02*
X213360000Y-28005768D01*
X213360000Y-28005768D02*
X213316969Y-28048799D01*
X213316969Y-38056969D02*
X214376000Y-39116000D01*
X212184989Y-13048989D02*
X212184989Y-13048989D01*
X214376000Y-39116000D02*
X214376000Y-39116000D01*
X189250000Y16998000D02*
X191516000Y14732000D01*
X191516000Y14732000D02*
X208274360Y14732000D01*
X208274360Y14732000D02*
X212852000Y10154360D01*
X212852000Y10154360D02*
X212852000Y-5080000D01*
X211459988Y-6594782D02*
X211459988Y-13847988D01*
X212852000Y-5080000D02*
X212852000Y-5202770D01*
X212852000Y-5202770D02*
X211459988Y-6594782D01*
X211459988Y-13847988D02*
X211836000Y-14224000D01*
X212852000Y-15240000D02*
X212852000Y-40132000D01*
X212852000Y-40132000D02*
X214376000Y-41656000D01*
X214376000Y-41656000D02*
X214376000Y-41656000D01*
X211836000Y-14224000D02*
X212852000Y-15240000D01*
X188175000Y15963000D02*
X189914000Y14224000D01*
X189914000Y14224000D02*
X208145950Y14224000D01*
X208145950Y14224000D02*
X212344000Y10025950D01*
X212344000Y10025950D02*
X212344000Y-4572000D01*
X212344000Y-4572000D02*
X212344000Y-5074360D01*
X212344000Y-5074360D02*
X211009978Y-6408382D01*
X211009978Y-14470980D02*
X211328000Y-14789002D01*
X211009978Y-6408382D02*
X211009978Y-14470980D01*
X211487999Y-14949001D02*
X211487999Y-15399999D01*
X211328000Y-14789002D02*
X211487999Y-14949001D01*
X211487999Y-15399999D02*
X211487999Y-15399999D01*
X212344000Y-16256000D02*
X212344000Y-33528000D01*
X212344000Y-33528000D02*
X212344000Y-42164000D01*
X212344000Y-42164000D02*
X214376000Y-44196000D01*
X214376000Y-44196000D02*
X214376000Y-44196000D01*
X211487999Y-15399999D02*
X212344000Y-16256000D01*
X188175000Y6819000D02*
X188175000Y10375000D01*
X188175000Y10375000D02*
X191516000Y13716000D01*
X191516000Y13716000D02*
X200152000Y13716000D01*
X200152000Y13716000D02*
X208017540Y13716000D01*
X208017540Y13716000D02*
X211836000Y9897540D01*
X211836000Y9897540D02*
X211836000Y-2540000D01*
X211836000Y-2540000D02*
X211836000Y-4945950D01*
X210559968Y-6221982D02*
X210559968Y-15995968D01*
X211836000Y-4945950D02*
X210559968Y-6221982D01*
X210559968Y-15995968D02*
X211074000Y-16510000D01*
X211836000Y-42729002D02*
X214376000Y-45269002D01*
X211836000Y-17272000D02*
X211836000Y-42729002D01*
X214376000Y-45269002D02*
X214376000Y-46736000D01*
X214376000Y-46736000D02*
X214376000Y-46736000D01*
X211074000Y-16510000D02*
X211836000Y-17272000D01*
X187988501Y5559499D02*
X188976000Y6546998D01*
X188976000Y6546998D02*
X188976000Y10539590D01*
X188976000Y10539590D02*
X191644410Y13208000D01*
X191644410Y13208000D02*
X207772000Y13208000D01*
X207772000Y13208000D02*
X207889130Y13208000D01*
X207889130Y13208000D02*
X210116565Y10980565D01*
X210116565Y10980565D02*
X211328000Y9769130D01*
X211328000Y9769130D02*
X211328000Y-4817540D01*
X210109958Y-6035582D02*
X210109958Y-16966042D01*
X211328000Y-4817540D02*
X210109958Y-6035582D01*
X211328000Y-17780000D02*
X211328000Y-46228000D01*
X210109958Y-16966042D02*
X210509957Y-17366041D01*
X211328000Y-46228000D02*
X214376000Y-49276000D01*
X210914041Y-17366041D02*
X211328000Y-17780000D01*
X210509957Y-17366041D02*
X210914041Y-17366041D01*
X214376000Y-49276000D02*
X214376000Y-49276000D01*
X187960000Y4457996D02*
X189484000Y5981996D01*
X189484000Y5981996D02*
X189484000Y10160000D01*
X189484000Y10160000D02*
X191516000Y12192000D01*
X191516000Y12192000D02*
X192024000Y12700000D01*
X192024000Y12700000D02*
X194564000Y12700000D01*
X194564000Y12700000D02*
X207760720Y12700000D01*
X207760720Y12700000D02*
X209666556Y10794164D01*
X209666556Y10794164D02*
X210820000Y9640720D01*
X210820000Y-4689130D02*
X209659948Y-5849182D01*
X210820000Y9640720D02*
X210820000Y-4689130D01*
X209659948Y-5849182D02*
X209659948Y-14224000D01*
X209659948Y-14224000D02*
X209659948Y-16256000D01*
X209384957Y-16530991D02*
X209384957Y-17360957D01*
X209659948Y-16256000D02*
X209384957Y-16530991D01*
X209384957Y-17360957D02*
X210058000Y-18034000D01*
X210058000Y-18034000D02*
X210312000Y-18288000D01*
X210058000Y-18034000D02*
X210457999Y-18433999D01*
X210457999Y-18433999D02*
X210820000Y-18796000D01*
X210820000Y-18796000D02*
X210820000Y-48768000D01*
X210820000Y-48768000D02*
X213868000Y-51816000D01*
X213868000Y-51816000D02*
X213868000Y-51816000D01*
X187960000Y3384994D02*
X189992000Y5416994D01*
X189992000Y5416994D02*
X189992000Y10031590D01*
X189992000Y10031590D02*
X192152410Y12192000D01*
X192152410Y12192000D02*
X193097002Y12192000D01*
X193097002Y12192000D02*
X200660000Y12192000D01*
X200660000Y12192000D02*
X205740000Y12192000D01*
X205740000Y12192000D02*
X207632310Y12192000D01*
X207632310Y12192000D02*
X210312000Y9512310D01*
X210312000Y9512310D02*
X210312000Y2032000D01*
X210312000Y2032000D02*
X210312000Y-4560720D01*
X210312000Y-4560720D02*
X209209938Y-5662782D01*
X208934947Y-16344591D02*
X208934947Y-18434947D01*
X209209938Y-5662782D02*
X209209938Y-16069600D01*
X209209938Y-16069600D02*
X208934947Y-16344591D01*
X208934947Y-18434947D02*
X209296000Y-18796000D01*
X209804000Y-19304000D02*
X210312000Y-19812000D01*
X210312000Y-19812000D02*
X210312000Y-51308000D01*
X210312000Y-51308000D02*
X213360000Y-54356000D01*
X213360000Y-54356000D02*
X213360000Y-54356000D01*
X209296000Y-18796000D02*
X209804000Y-19304000D01*
X187960000Y2311992D02*
X190500000Y4851992D01*
X190500000Y4851992D02*
X190500000Y9903180D01*
X190500000Y9903180D02*
X192280820Y11684000D01*
X192287821Y11691001D02*
X194556999Y11691001D01*
X192280820Y11684000D02*
X192287821Y11691001D01*
X195186001Y11691001D02*
X195193002Y11684000D01*
X194556999Y11691001D02*
X195186001Y11691001D01*
X195193002Y11684000D02*
X207264000Y11684000D01*
X207264000Y11684000D02*
X207503900Y11684000D01*
X207503900Y11684000D02*
X208653950Y10533950D01*
X208653950Y10533950D02*
X209804000Y9383900D01*
X209804000Y9383900D02*
X209804000Y-4064000D01*
X209804000Y-4432310D02*
X208759928Y-5476382D01*
X209804000Y-4064000D02*
X209804000Y-4432310D01*
X208759928Y-5476382D02*
X208759928Y-15748000D01*
X208484937Y-16158191D02*
X208484937Y-19508937D01*
X208759928Y-15748000D02*
X208759928Y-15883200D01*
X208759928Y-15883200D02*
X208484937Y-16158191D01*
X208484937Y-19508937D02*
X209042000Y-20066000D01*
X209804000Y-20828000D02*
X209804000Y-53848000D01*
X209804000Y-53848000D02*
X213360000Y-57404000D01*
X213360000Y-57404000D02*
X213360000Y-57404000D01*
X209042000Y-20066000D02*
X209804000Y-20828000D01*
X220950000Y-80294000D02*
X221488000Y-79756000D01*
X220950000Y-86330000D02*
X220950000Y-80294000D01*
X232880001Y-76079999D02*
X233680000Y-75280000D01*
X229715011Y-79244989D02*
X232880001Y-76079999D01*
X221999011Y-79244989D02*
X229715011Y-79244989D01*
X221488000Y-79756000D02*
X221999011Y-79244989D01*
X220950000Y-90140000D02*
X220950000Y-86330000D01*
X226060000Y-95250000D02*
X220950000Y-90140000D01*
X236520000Y-77796370D02*
X236520000Y-76665000D01*
X234621371Y-79694999D02*
X236520000Y-77796370D01*
X223490000Y-81310000D02*
X225105001Y-79694999D01*
X225105001Y-79694999D02*
X234621371Y-79694999D01*
X223090001Y-81709999D02*
X223490000Y-81310000D01*
X222824999Y-87131997D02*
X222824999Y-81975001D01*
X222824999Y-81975001D02*
X223090001Y-81709999D01*
X227235001Y-91541999D02*
X222824999Y-87131997D01*
X227235001Y-95814001D02*
X227235001Y-91541999D01*
X226624001Y-96425001D02*
X227235001Y-95814001D01*
X224695001Y-96425001D02*
X226624001Y-96425001D01*
X223520000Y-95250000D02*
X224695001Y-96425001D01*
X193250000Y18555685D02*
X193250000Y17990000D01*
X196185371Y21491056D02*
X193250000Y18555685D01*
X213519448Y21491057D02*
X196185371Y21491056D01*
X224028000Y10982505D02*
X213519448Y21491057D01*
X224028000Y10668000D02*
X224028000Y10982505D01*
X224427999Y10268001D02*
X224028000Y10668000D01*
X228825011Y5870989D02*
X224427999Y10268001D01*
X228825011Y-51268401D02*
X228825011Y5870989D01*
X224999402Y-55094010D02*
X228825011Y-51268401D01*
X220484012Y-55094010D02*
X224999402Y-55094010D01*
X218948000Y-53557998D02*
X220484012Y-55094010D01*
X194050000Y17843685D02*
X194050000Y17278000D01*
X194050000Y18275002D02*
X194050000Y17843685D01*
X196816045Y21041047D02*
X194050000Y18275002D01*
X213333048Y21041047D02*
X196816045Y21041047D01*
X223302999Y11071096D02*
X213333048Y21041047D01*
X223302999Y9942999D02*
X223302999Y11071096D01*
X223012000Y9652000D02*
X223302999Y9942999D01*
X228375001Y3723314D02*
X223012000Y9086315D01*
X228375001Y-51082001D02*
X228375001Y3723314D01*
X224813001Y-54644001D02*
X228375001Y-51082001D01*
X220702999Y-54644001D02*
X224813001Y-54644001D01*
X219964000Y-53905002D02*
X220702999Y-54644001D01*
X223012000Y9086315D02*
X223012000Y9652000D01*
X219964000Y-52832000D02*
X219964000Y-53905002D01*
X197439037Y20591037D02*
X195249999Y18401999D01*
X213146648Y20591037D02*
X197439037Y20591037D01*
X222504000Y11233685D02*
X213146648Y20591037D01*
X195249999Y18401999D02*
X194850000Y18002000D01*
X222504000Y10668000D02*
X222504000Y11233685D01*
X220674989Y-52439401D02*
X220674989Y5385011D01*
X220980000Y-53848000D02*
X220980000Y-52744412D01*
X220980000Y-52744412D02*
X220674989Y-52439401D01*
X220674989Y5385011D02*
X219964000Y6096000D01*
X219964000Y6096000D02*
X219964000Y6096000D01*
X198449028Y20141028D02*
X196049999Y17741999D01*
X196049999Y17741999D02*
X195650000Y17342000D01*
X212522972Y20141028D02*
X198449028Y20141028D01*
X221488000Y11176000D02*
X212522972Y20141028D01*
X221488000Y10610315D02*
X221488000Y11176000D01*
X221488000Y10102998D02*
X221488000Y10610315D01*
X221124999Y9739997D02*
X221488000Y10102998D01*
X221124999Y-52253001D02*
X221124999Y9739997D01*
X221849999Y-52978001D02*
X221124999Y-52253001D01*
X211306980Y19691020D02*
X220655000Y10343000D01*
X198050000Y17202000D02*
X198050000Y18468095D01*
X199272924Y19691019D02*
X211306980Y19691020D01*
X198050000Y18468095D02*
X199272924Y19691019D01*
X198850000Y18631685D02*
X198850000Y18066000D01*
X199459325Y19241010D02*
X198850000Y18631685D01*
X210940675Y19241010D02*
X199459325Y19241010D01*
X219710000Y10471685D02*
X210940675Y19241010D01*
X219710000Y9906000D02*
X219710000Y10471685D01*
X199650000Y17843685D02*
X199650000Y17278000D01*
X199650000Y18263002D02*
X199650000Y17843685D01*
X200177999Y18791001D02*
X199650000Y18263002D01*
X210031096Y18791001D02*
X200177999Y18791001D01*
X218268206Y10553891D02*
X210031096Y18791001D01*
X218268206Y9988206D02*
X218268206Y10553891D01*
X209804000Y18288000D02*
X216408000Y11684000D01*
X200450000Y17990000D02*
X201015685Y17990000D01*
X216408000Y11684000D02*
X216408000Y9144000D01*
X201313685Y18288000D02*
X209804000Y18288000D01*
X201015685Y17990000D02*
X201313685Y18288000D01*
X205586998Y-64262000D02*
X201168000Y-59843002D01*
X220218000Y-64262000D02*
X205586998Y-64262000D01*
X201168000Y-59843002D02*
X201168000Y-34544000D01*
X201168000Y-34544000D02*
X201168000Y-34544000D01*
X196378999Y-59508871D02*
X196378999Y-37809001D01*
X220980000Y-68580000D02*
X205450128Y-68580000D01*
X205450128Y-68580000D02*
X196378999Y-59508871D01*
X196305001Y-37809001D02*
X196378999Y-37809001D01*
X195072000Y-36576000D02*
X196305001Y-37809001D01*
X220980000Y-65024000D02*
X205712588Y-65024000D01*
X205712588Y-65024000D02*
X200660000Y-59971412D01*
X200442999Y-49566999D02*
X200442999Y-21045001D01*
X200660000Y-59971412D02*
X200660000Y-49784000D01*
X200660000Y-49784000D02*
X200442999Y-49566999D01*
X200442999Y-21045001D02*
X200442999Y-21045001D01*
X205801179Y-65749001D02*
X200152000Y-60099822D01*
X221328001Y-65749001D02*
X205801179Y-65749001D01*
X221849999Y-64154001D02*
X221849999Y-65227003D01*
X221849999Y-65227003D02*
X221328001Y-65749001D01*
X199717998Y-49478408D02*
X199717998Y-19230002D01*
X200152000Y-60099822D02*
X200152000Y-49912410D01*
X200152000Y-49912410D02*
X199717998Y-49478408D01*
X199717998Y-19230002D02*
X199717998Y-19230002D01*
X205614778Y-66199010D02*
X199644000Y-60228232D01*
X222036675Y-66199010D02*
X205614778Y-66199010D01*
X222575000Y-65095000D02*
X222575000Y-65660685D01*
X222575000Y-65660685D02*
X222036675Y-66199010D01*
X199644000Y-50040820D02*
X199267988Y-49664808D01*
X199644000Y-60228232D02*
X199644000Y-50040820D01*
X199267988Y-49664808D02*
X199267988Y-32512000D01*
X199267988Y-32512000D02*
X199267988Y-32135988D01*
X199267988Y-32135988D02*
X198628000Y-31496000D01*
X198628000Y-31496000D02*
X198628000Y-31496000D01*
X205428377Y-66649019D02*
X199136000Y-60356642D01*
X222223075Y-66649020D02*
X205428377Y-66649019D01*
X223300001Y-64296001D02*
X223300001Y-65572094D01*
X223300001Y-65572094D02*
X222223075Y-66649020D01*
X198817978Y-49851208D02*
X198817978Y-33020000D01*
X199136000Y-60356642D02*
X199136000Y-50169230D01*
X199136000Y-50169230D02*
X198817978Y-49851208D01*
X197902999Y-32105021D02*
X197902999Y-30189001D01*
X198817978Y-33020000D02*
X197902999Y-32105021D01*
X197902999Y-30189001D02*
X198628000Y-29464000D01*
X198628000Y-29464000D02*
X198628000Y-29464000D01*
X205241976Y-67099028D02*
X198628000Y-60485052D01*
X222518657Y-67099028D02*
X205241976Y-67099028D01*
X224536000Y-64516000D02*
X224536000Y-65081685D01*
X224536000Y-65081685D02*
X222518657Y-67099028D01*
X198628000Y-50297640D02*
X198367968Y-50037608D01*
X198628000Y-60485052D02*
X198628000Y-50297640D01*
X198367968Y-50037608D02*
X198367968Y-40379968D01*
X198367968Y-40379968D02*
X197612000Y-39624000D01*
X197612000Y-39624000D02*
X197612000Y-39624000D01*
X222705057Y-67549038D02*
X205055575Y-67549037D01*
X225552000Y-64008000D02*
X225552000Y-64702095D01*
X225552000Y-64702095D02*
X222705057Y-67549038D01*
X205055575Y-67549037D02*
X197917958Y-60411420D01*
X197917958Y-60411420D02*
X197917958Y-42977958D01*
X197917958Y-42977958D02*
X197104000Y-42164000D01*
X197104000Y-42164000D02*
X197104000Y-42164000D01*
X192532000Y-69145685D02*
X192532000Y-68580000D01*
X214162315Y-90776000D02*
X192532000Y-69145685D01*
X215040000Y-90776000D02*
X214162315Y-90776000D01*
X215040000Y-93570000D02*
X213360000Y-95250000D01*
X215040000Y-90776000D02*
X215040000Y-93570000D01*
X205232000Y-4176998D02*
X205232000Y-57912000D01*
X203450003Y-2395001D02*
X205232000Y-4176998D01*
X202659999Y-2395001D02*
X203450003Y-2395001D01*
X201821999Y-1557001D02*
X202659999Y-2395001D01*
X201422000Y9906000D02*
X201821999Y9506001D01*
X201821999Y9506001D02*
X201821999Y-1557001D01*
X205232000Y-57912000D02*
X209804000Y-62484000D01*
X209804000Y-62484000D02*
X209804000Y-62484000D01*
X216662000Y-82607002D02*
X216662000Y-80010000D01*
X215388001Y-83881001D02*
X216662000Y-82607002D01*
X211995001Y-96425001D02*
X213924001Y-96425001D01*
X214535001Y-95814001D02*
X214535001Y-94711409D01*
X215765001Y-90427999D02*
X215388001Y-90050999D01*
X215765001Y-93481409D02*
X215765001Y-90427999D01*
X210820000Y-95250000D02*
X211995001Y-96425001D01*
X213924001Y-96425001D02*
X214535001Y-95814001D01*
X215388001Y-90050999D02*
X215388001Y-83881001D01*
X214535001Y-94711409D02*
X215765001Y-93481409D01*
X213789999Y-88530001D02*
X213390000Y-88930000D01*
X214085001Y-88234999D02*
X213789999Y-88530001D01*
X214085001Y-78730001D02*
X214085001Y-88234999D01*
X213473500Y-78118500D02*
X214085001Y-78730001D01*
X222394999Y-46993997D02*
X226060000Y-50658998D01*
X222394999Y-30689999D02*
X222394999Y-46993997D01*
X223375001Y-29709997D02*
X222394999Y-30689999D01*
X221996000Y508000D02*
X223375001Y-871001D01*
X223375001Y-871001D02*
X223375001Y-29709997D01*
X226060000Y-50658998D02*
X226060000Y-51308000D01*
X226060000Y-51308000D02*
X226060000Y-51308000D01*
X216008001Y-85342997D02*
X218038998Y-83312000D01*
X216408000Y-87797002D02*
X216008001Y-87397003D01*
X216008001Y-87397003D02*
X216008001Y-85342997D01*
X218038998Y-83312000D02*
X218440000Y-83312000D01*
X219325000Y-82427000D02*
X219325000Y-70743000D01*
X218440000Y-83312000D02*
X219325000Y-82427000D01*
X219833000Y-3933000D02*
X218030000Y-2130000D01*
X219833000Y-13585000D02*
X219833000Y-3933000D01*
X215900000Y-49784000D02*
X217002001Y-48681999D01*
X215900000Y-49784000D02*
X215900000Y-49784000D01*
X219833000Y-13585000D02*
X219833000Y-45081000D01*
X217002001Y-47911999D02*
X217002001Y-48681999D01*
X219833000Y-45081000D02*
X217002001Y-47911999D01*
X190164001Y-86845568D02*
X187604000Y-89405569D01*
X190164001Y-84905999D02*
X190164001Y-86845568D01*
X188208999Y-82950997D02*
X190164001Y-84905999D01*
X188208999Y-78291999D02*
X188208999Y-82950997D01*
X189085001Y-77415997D02*
X188208999Y-78291999D01*
X189085001Y-44691997D02*
X189085001Y-77415997D01*
X187604000Y-89405569D02*
X187604000Y-90742000D01*
X190031999Y-43744999D02*
X189085001Y-44691997D01*
X190968001Y-43744999D02*
X190031999Y-43744999D01*
X191475001Y-44251999D02*
X190968001Y-43744999D01*
X192500000Y-46213000D02*
X191475001Y-45188001D01*
X191475001Y-45188001D02*
X191475001Y-44251999D01*
X192500000Y-46720000D02*
X192500000Y-46213000D01*
D24*
X193444010Y-75262008D02*
X194544001Y-76361999D01*
X191450001Y-47610001D02*
X190950000Y-48110002D01*
X191450001Y-45829999D02*
X191450001Y-47610001D01*
X190950000Y-45329998D02*
X191450001Y-45829999D01*
X190950000Y-45170000D02*
X190950000Y-45329998D01*
X190500000Y-44720000D02*
X190950000Y-45170000D01*
X190950000Y-48110002D02*
X190950000Y-74734000D01*
D23*
X191437992Y-75262008D02*
X191437992Y-75221992D01*
D24*
X191437992Y-75262008D02*
X193444010Y-75262008D01*
D23*
X191437992Y-75221992D02*
X190950000Y-74734000D01*
X194544001Y-76361999D02*
X194544001Y-76688001D01*
X194818000Y-76962000D02*
X195834000Y-76962000D01*
X194544001Y-76688001D02*
X194818000Y-76962000D01*
D24*
X191354001Y-75711999D02*
X192004001Y-76361999D01*
X192004001Y-76361999D02*
X192004001Y-77260200D01*
X192004001Y-77260200D02*
X192024000Y-77280199D01*
X192024000Y-77280199D02*
X192024000Y-79502000D01*
D23*
X191027999Y-75711999D02*
X190500000Y-75184000D01*
X191354001Y-75711999D02*
X191027999Y-75711999D01*
D24*
X190500000Y-46720000D02*
X190500000Y-75184000D01*
D23*
X204775011Y-10465011D02*
X204775011Y-58979011D01*
X203200000Y-8890000D02*
X204775011Y-10465011D01*
X204775011Y-58979011D02*
X208280000Y-62484000D01*
X208280000Y-62484000D02*
X208280000Y-62484000D01*
X228600000Y-89465002D02*
X224224998Y-85090000D01*
X228600000Y-95250000D02*
X228600000Y-89465002D01*
X224224998Y-85090000D02*
X224224998Y-85032998D01*
X224224998Y-85032998D02*
X224028000Y-84836000D01*
X224028000Y-84836000D02*
X224028000Y-84836000D01*
X204325001Y-12555001D02*
X204325001Y-60053001D01*
X203200000Y-11430000D02*
X204325001Y-12555001D01*
X204325001Y-60053001D02*
X206756000Y-62484000D01*
X206756000Y-62484000D02*
X206756000Y-62484000D01*
M02*
