G04 #@! TF.GenerationSoftware,KiCad,Pcbnew,5.1.5-52549c5~84~ubuntu18.04.1*
G04 #@! TF.CreationDate,2020-05-17T15:55:06-07:00*
G04 #@! TF.ProjectId,ram,72616d2e-6b69-4636-9164-5f7063625858,rev?*
G04 #@! TF.SameCoordinates,Original*
G04 #@! TF.FileFunction,Legend,Top*
G04 #@! TF.FilePolarity,Positive*
%FSLAX46Y46*%
G04 Gerber Fmt 4.6, Leading zero omitted, Abs format (unit mm)*
G04 Created by KiCad (PCBNEW 5.1.5-52549c5~84~ubuntu18.04.1) date 2020-05-17 15:55:06*
%MOMM*%
%LPD*%
G04 APERTURE LIST*
%ADD10C,0.200000*%
%ADD11C,0.300000*%
%ADD12C,0.010000*%
%ADD13C,0.120000*%
%ADD14C,0.150000*%
G04 APERTURE END LIST*
D10*
X223313571Y6032142D02*
X221980238Y5555952D01*
X223313571Y5079761D01*
X221980238Y3270238D02*
X221980238Y4413095D01*
X221980238Y3841666D02*
X223980238Y3841666D01*
X223694523Y4032142D01*
X223504047Y4222619D01*
X223408809Y4413095D01*
X222170714Y2413095D02*
X222075476Y2317857D01*
X221980238Y2413095D01*
X222075476Y2508333D01*
X222170714Y2413095D01*
X221980238Y2413095D01*
X223980238Y1079761D02*
X223980238Y889285D01*
X223885000Y698809D01*
X223789761Y603571D01*
X223599285Y508333D01*
X223218333Y413095D01*
X222742142Y413095D01*
X222361190Y508333D01*
X222170714Y603571D01*
X222075476Y698809D01*
X221980238Y889285D01*
X221980238Y1079761D01*
X222075476Y1270238D01*
X222170714Y1365476D01*
X222361190Y1460714D01*
X222742142Y1555952D01*
X223218333Y1555952D01*
X223599285Y1460714D01*
X223789761Y1365476D01*
X223885000Y1270238D01*
X223980238Y1079761D01*
D11*
X221893095Y17422380D02*
X224274047Y19089047D01*
X221893095Y20279523D02*
X226893095Y20279523D01*
X226893095Y18374761D01*
X226655000Y17898571D01*
X226416904Y17660476D01*
X225940714Y17422380D01*
X225226428Y17422380D01*
X224750238Y17660476D01*
X224512142Y17898571D01*
X224274047Y18374761D01*
X224274047Y20279523D01*
X223321666Y15517619D02*
X223321666Y13136666D01*
X221893095Y15993809D02*
X226893095Y14327142D01*
X221893095Y12660476D01*
X221893095Y10993809D02*
X226893095Y10993809D01*
X223321666Y9327142D01*
X226893095Y7660476D01*
X221893095Y7660476D01*
D12*
G36*
X226727081Y-22330065D02*
G01*
X226663776Y-22414383D01*
X226498599Y-22436004D01*
X226398667Y-22436667D01*
X226181831Y-22427696D01*
X226085467Y-22372304D01*
X226060757Y-22227774D01*
X226060000Y-22140334D01*
X226070253Y-21950602D01*
X226133558Y-21866284D01*
X226298734Y-21844663D01*
X226398667Y-21844000D01*
X226615503Y-21852971D01*
X226711866Y-21908363D01*
X226736576Y-22052893D01*
X226737333Y-22140334D01*
X226727081Y-22330065D01*
G37*
X226727081Y-22330065D02*
X226663776Y-22414383D01*
X226498599Y-22436004D01*
X226398667Y-22436667D01*
X226181831Y-22427696D01*
X226085467Y-22372304D01*
X226060757Y-22227774D01*
X226060000Y-22140334D01*
X226070253Y-21950602D01*
X226133558Y-21866284D01*
X226298734Y-21844663D01*
X226398667Y-21844000D01*
X226615503Y-21852971D01*
X226711866Y-21908363D01*
X226736576Y-22052893D01*
X226737333Y-22140334D01*
X226727081Y-22330065D01*
G36*
X222080667Y-26670000D02*
G01*
X222080667Y-26162000D01*
X226737333Y-26162000D01*
X226737333Y-26670000D01*
X222080667Y-26670000D01*
G37*
X222080667Y-26670000D02*
X222080667Y-26162000D01*
X226737333Y-26162000D01*
X226737333Y-26670000D01*
X222080667Y-26670000D01*
G36*
X225532855Y-25153559D02*
G01*
X225440356Y-25220458D01*
X225276833Y-25230667D01*
X225113717Y-25222872D01*
X225032557Y-25170276D01*
X225004740Y-25029060D01*
X225001667Y-24809258D01*
X224982322Y-24519299D01*
X224905908Y-24318952D01*
X224767139Y-24153091D01*
X224668649Y-24060558D01*
X224568281Y-23995024D01*
X224434912Y-23950497D01*
X224237420Y-23920986D01*
X223944684Y-23900499D01*
X223525582Y-23883045D01*
X223327805Y-23876000D01*
X222123000Y-23833667D01*
X222096469Y-23558500D01*
X222069938Y-23283334D01*
X225467333Y-23283334D01*
X225467333Y-23579667D01*
X225452198Y-23779456D01*
X225381049Y-23861342D01*
X225240908Y-23876000D01*
X225014483Y-23876000D01*
X225192935Y-24066500D01*
X225433161Y-24436867D01*
X225546813Y-24870861D01*
X225552000Y-24982179D01*
X225532855Y-25153559D01*
G37*
X225532855Y-25153559D02*
X225440356Y-25220458D01*
X225276833Y-25230667D01*
X225113717Y-25222872D01*
X225032557Y-25170276D01*
X225004740Y-25029060D01*
X225001667Y-24809258D01*
X224982322Y-24519299D01*
X224905908Y-24318952D01*
X224767139Y-24153091D01*
X224668649Y-24060558D01*
X224568281Y-23995024D01*
X224434912Y-23950497D01*
X224237420Y-23920986D01*
X223944684Y-23900499D01*
X223525582Y-23883045D01*
X223327805Y-23876000D01*
X222123000Y-23833667D01*
X222096469Y-23558500D01*
X222069938Y-23283334D01*
X225467333Y-23283334D01*
X225467333Y-23579667D01*
X225452198Y-23779456D01*
X225381049Y-23861342D01*
X225240908Y-23876000D01*
X225014483Y-23876000D01*
X225192935Y-24066500D01*
X225433161Y-24436867D01*
X225546813Y-24870861D01*
X225552000Y-24982179D01*
X225532855Y-25153559D01*
G36*
X222080667Y-22436667D02*
G01*
X222080667Y-21844000D01*
X225467333Y-21844000D01*
X225467333Y-22436667D01*
X222080667Y-22436667D01*
G37*
X222080667Y-22436667D02*
X222080667Y-21844000D01*
X225467333Y-21844000D01*
X225467333Y-22436667D01*
X222080667Y-22436667D01*
G36*
X225458809Y-16886997D02*
G01*
X225338259Y-17136462D01*
X225149187Y-17313874D01*
X224962560Y-17420167D01*
X224798776Y-17495231D01*
X224632508Y-17547663D01*
X224429606Y-17581442D01*
X224155920Y-17600547D01*
X223777300Y-17608956D01*
X223327362Y-17610667D01*
X222069938Y-17610667D01*
X222096469Y-17335500D01*
X222123000Y-17060334D01*
X223421901Y-17018000D01*
X223918817Y-17000518D01*
X224274667Y-16982554D01*
X224517667Y-16959427D01*
X224676033Y-16926460D01*
X224777981Y-16878972D01*
X224851726Y-16812284D01*
X224882401Y-16775787D01*
X225027720Y-16472951D01*
X225020546Y-16139064D01*
X224863817Y-15810266D01*
X224797238Y-15728169D01*
X224550476Y-15451667D01*
X223336738Y-15409334D01*
X222123000Y-15367000D01*
X222096469Y-15091834D01*
X222069938Y-14816667D01*
X225467333Y-14816667D01*
X225467333Y-15113000D01*
X225451882Y-15313061D01*
X225380766Y-15395019D01*
X225248141Y-15409334D01*
X225028948Y-15409334D01*
X225244772Y-15665826D01*
X225466655Y-16053836D01*
X225532982Y-16489510D01*
X225458809Y-16886997D01*
G37*
X225458809Y-16886997D02*
X225338259Y-17136462D01*
X225149187Y-17313874D01*
X224962560Y-17420167D01*
X224798776Y-17495231D01*
X224632508Y-17547663D01*
X224429606Y-17581442D01*
X224155920Y-17600547D01*
X223777300Y-17608956D01*
X223327362Y-17610667D01*
X222069938Y-17610667D01*
X222096469Y-17335500D01*
X222123000Y-17060334D01*
X223421901Y-17018000D01*
X223918817Y-17000518D01*
X224274667Y-16982554D01*
X224517667Y-16959427D01*
X224676033Y-16926460D01*
X224777981Y-16878972D01*
X224851726Y-16812284D01*
X224882401Y-16775787D01*
X225027720Y-16472951D01*
X225020546Y-16139064D01*
X224863817Y-15810266D01*
X224797238Y-15728169D01*
X224550476Y-15451667D01*
X223336738Y-15409334D01*
X222123000Y-15367000D01*
X222096469Y-15091834D01*
X222069938Y-14816667D01*
X225467333Y-14816667D01*
X225467333Y-15113000D01*
X225451882Y-15313061D01*
X225380766Y-15395019D01*
X225248141Y-15409334D01*
X225028948Y-15409334D01*
X225244772Y-15665826D01*
X225466655Y-16053836D01*
X225532982Y-16489510D01*
X225458809Y-16886997D01*
G36*
X222080667Y-21082000D02*
G01*
X222080667Y-20828000D01*
X222103204Y-20646715D01*
X222200126Y-20580302D01*
X222296642Y-20574000D01*
X222512618Y-20574000D01*
X222296869Y-20291139D01*
X222113688Y-19941605D01*
X222031153Y-19541606D01*
X222059010Y-19158405D01*
X222110940Y-19007667D01*
X222380312Y-18622914D01*
X222784297Y-18326472D01*
X222946936Y-18249708D01*
X223327239Y-18152337D01*
X223657413Y-18131404D01*
X223657413Y-18713178D01*
X223241079Y-18783954D01*
X222887175Y-18929705D01*
X222643713Y-19142223D01*
X222642065Y-19144562D01*
X222513668Y-19463609D01*
X222538377Y-19803499D01*
X222712201Y-20121878D01*
X222736833Y-20150026D01*
X223047061Y-20372339D01*
X223463440Y-20494814D01*
X223949662Y-20509150D01*
X224176167Y-20479098D01*
X224558530Y-20346072D01*
X224834514Y-20125357D01*
X224998254Y-19848251D01*
X225043886Y-19546051D01*
X224965543Y-19250054D01*
X224757361Y-18991558D01*
X224485321Y-18829390D01*
X224088165Y-18725586D01*
X223657413Y-18713178D01*
X223657413Y-18131404D01*
X223786174Y-18123240D01*
X224247964Y-18161177D01*
X224636833Y-18264911D01*
X224666503Y-18277812D01*
X225071980Y-18538228D01*
X225356368Y-18878898D01*
X225511350Y-19270226D01*
X225528610Y-19682619D01*
X225399830Y-20086480D01*
X225240968Y-20322028D01*
X225028948Y-20574000D01*
X226737333Y-20574000D01*
X226737333Y-21082000D01*
X222080667Y-21082000D01*
G37*
X222080667Y-21082000D02*
X222080667Y-20828000D01*
X222103204Y-20646715D01*
X222200126Y-20580302D01*
X222296642Y-20574000D01*
X222512618Y-20574000D01*
X222296869Y-20291139D01*
X222113688Y-19941605D01*
X222031153Y-19541606D01*
X222059010Y-19158405D01*
X222110940Y-19007667D01*
X222380312Y-18622914D01*
X222784297Y-18326472D01*
X222946936Y-18249708D01*
X223327239Y-18152337D01*
X223657413Y-18131404D01*
X223657413Y-18713178D01*
X223241079Y-18783954D01*
X222887175Y-18929705D01*
X222643713Y-19142223D01*
X222642065Y-19144562D01*
X222513668Y-19463609D01*
X222538377Y-19803499D01*
X222712201Y-20121878D01*
X222736833Y-20150026D01*
X223047061Y-20372339D01*
X223463440Y-20494814D01*
X223949662Y-20509150D01*
X224176167Y-20479098D01*
X224558530Y-20346072D01*
X224834514Y-20125357D01*
X224998254Y-19848251D01*
X225043886Y-19546051D01*
X224965543Y-19250054D01*
X224757361Y-18991558D01*
X224485321Y-18829390D01*
X224088165Y-18725586D01*
X223657413Y-18713178D01*
X223657413Y-18131404D01*
X223786174Y-18123240D01*
X224247964Y-18161177D01*
X224636833Y-18264911D01*
X224666503Y-18277812D01*
X225071980Y-18538228D01*
X225356368Y-18878898D01*
X225511350Y-19270226D01*
X225528610Y-19682619D01*
X225399830Y-20086480D01*
X225240968Y-20322028D01*
X225028948Y-20574000D01*
X226737333Y-20574000D01*
X226737333Y-21082000D01*
X222080667Y-21082000D01*
G36*
X225516330Y-12744957D02*
G01*
X225453677Y-13136084D01*
X225333836Y-13429583D01*
X225314763Y-13457019D01*
X225145161Y-13656478D01*
X224957577Y-13803457D01*
X224722813Y-13906549D01*
X224411670Y-13974347D01*
X223994951Y-14015443D01*
X223443459Y-14038431D01*
X223329500Y-14041266D01*
X222080667Y-14070198D01*
X222080667Y-13766099D01*
X222094881Y-13562950D01*
X222162385Y-13478292D01*
X222307092Y-13462000D01*
X222533517Y-13462000D01*
X222347403Y-13263891D01*
X222115779Y-12901064D01*
X222013752Y-12473148D01*
X222048351Y-12031891D01*
X222144298Y-11768667D01*
X222378969Y-11464113D01*
X222694719Y-11275738D01*
X223053096Y-11202624D01*
X223249153Y-11224918D01*
X223249153Y-11782217D01*
X222988814Y-11783912D01*
X222765236Y-11903551D01*
X222600859Y-12115537D01*
X222518122Y-12394274D01*
X222539464Y-12714163D01*
X222627271Y-12946788D01*
X222825242Y-13176348D01*
X223124866Y-13358071D01*
X223458806Y-13454954D01*
X223564841Y-13462000D01*
X223795757Y-13462000D01*
X223755740Y-12770731D01*
X223728517Y-12412376D01*
X223689575Y-12180940D01*
X223627298Y-12034011D01*
X223530065Y-11929175D01*
X223523815Y-11924064D01*
X223249153Y-11782217D01*
X223249153Y-11224918D01*
X223415648Y-11243851D01*
X223743922Y-11398501D01*
X223999467Y-11665654D01*
X224077405Y-11814866D01*
X224141084Y-12061042D01*
X224183510Y-12415576D01*
X224197333Y-12781947D01*
X224201026Y-13120667D01*
X224217568Y-13323972D01*
X224255152Y-13425715D01*
X224321975Y-13459751D01*
X224361946Y-13462000D01*
X224535672Y-13408930D01*
X224738065Y-13279662D01*
X224755957Y-13264679D01*
X224930616Y-13014466D01*
X225025277Y-12664932D01*
X225033695Y-12269183D01*
X224949624Y-11880327D01*
X224925936Y-11819328D01*
X224829688Y-11582421D01*
X224808916Y-11465874D01*
X224877557Y-11432295D01*
X225049552Y-11444286D01*
X225065167Y-11445802D01*
X225231988Y-11476722D01*
X225332913Y-11558447D01*
X225406433Y-11735927D01*
X225450445Y-11895667D01*
X225516888Y-12312665D01*
X225516330Y-12744957D01*
G37*
X225516330Y-12744957D02*
X225453677Y-13136084D01*
X225333836Y-13429583D01*
X225314763Y-13457019D01*
X225145161Y-13656478D01*
X224957577Y-13803457D01*
X224722813Y-13906549D01*
X224411670Y-13974347D01*
X223994951Y-14015443D01*
X223443459Y-14038431D01*
X223329500Y-14041266D01*
X222080667Y-14070198D01*
X222080667Y-13766099D01*
X222094881Y-13562950D01*
X222162385Y-13478292D01*
X222307092Y-13462000D01*
X222533517Y-13462000D01*
X222347403Y-13263891D01*
X222115779Y-12901064D01*
X222013752Y-12473148D01*
X222048351Y-12031891D01*
X222144298Y-11768667D01*
X222378969Y-11464113D01*
X222694719Y-11275738D01*
X223053096Y-11202624D01*
X223249153Y-11224918D01*
X223249153Y-11782217D01*
X222988814Y-11783912D01*
X222765236Y-11903551D01*
X222600859Y-12115537D01*
X222518122Y-12394274D01*
X222539464Y-12714163D01*
X222627271Y-12946788D01*
X222825242Y-13176348D01*
X223124866Y-13358071D01*
X223458806Y-13454954D01*
X223564841Y-13462000D01*
X223795757Y-13462000D01*
X223755740Y-12770731D01*
X223728517Y-12412376D01*
X223689575Y-12180940D01*
X223627298Y-12034011D01*
X223530065Y-11929175D01*
X223523815Y-11924064D01*
X223249153Y-11782217D01*
X223249153Y-11224918D01*
X223415648Y-11243851D01*
X223743922Y-11398501D01*
X223999467Y-11665654D01*
X224077405Y-11814866D01*
X224141084Y-12061042D01*
X224183510Y-12415576D01*
X224197333Y-12781947D01*
X224201026Y-13120667D01*
X224217568Y-13323972D01*
X224255152Y-13425715D01*
X224321975Y-13459751D01*
X224361946Y-13462000D01*
X224535672Y-13408930D01*
X224738065Y-13279662D01*
X224755957Y-13264679D01*
X224930616Y-13014466D01*
X225025277Y-12664932D01*
X225033695Y-12269183D01*
X224949624Y-11880327D01*
X224925936Y-11819328D01*
X224829688Y-11582421D01*
X224808916Y-11465874D01*
X224877557Y-11432295D01*
X225049552Y-11444286D01*
X225065167Y-11445802D01*
X225231988Y-11476722D01*
X225332913Y-11558447D01*
X225406433Y-11735927D01*
X225450445Y-11895667D01*
X225516888Y-12312665D01*
X225516330Y-12744957D01*
G36*
X228991255Y-8497446D02*
G01*
X228865058Y-8544996D01*
X228718636Y-8551334D01*
X228458931Y-8593695D01*
X228236134Y-8745520D01*
X228168355Y-8814231D01*
X227979668Y-8985858D01*
X227799057Y-9049969D01*
X227588197Y-9045223D01*
X227370087Y-9037038D01*
X227244465Y-9093851D01*
X227145063Y-9255761D01*
X227108276Y-9335636D01*
X226859164Y-9717664D01*
X226494661Y-10061884D01*
X226068389Y-10320058D01*
X225967171Y-10362223D01*
X225815824Y-10410358D01*
X225635060Y-10445535D01*
X225399469Y-10469117D01*
X225083646Y-10482470D01*
X224662180Y-10486958D01*
X224109664Y-10483947D01*
X223774000Y-10480026D01*
X221953667Y-10456334D01*
X221928009Y-10057785D01*
X221902351Y-9659237D01*
X221293009Y-9634452D01*
X220975537Y-9616721D01*
X220791871Y-9588216D01*
X220706485Y-9537619D01*
X220683853Y-9453612D01*
X220683667Y-9440334D01*
X220700885Y-9351673D01*
X220776145Y-9297603D01*
X220944861Y-9266921D01*
X221242441Y-9248424D01*
X221297500Y-9246124D01*
X221911333Y-9221248D01*
X221911333Y-7542752D01*
X221298398Y-7517876D01*
X220961434Y-7495475D01*
X220763150Y-7457114D01*
X220673106Y-7395349D01*
X220660471Y-7361872D01*
X220671154Y-7211322D01*
X220694851Y-7171372D01*
X220803872Y-7141491D01*
X221032705Y-7120166D01*
X221331873Y-7112000D01*
X221911333Y-7112000D01*
X221911333Y-5926667D01*
X222334667Y-5926667D01*
X222334667Y-6754451D01*
X222334667Y-9407684D01*
X224064390Y-9381675D01*
X224653000Y-9371699D01*
X225097075Y-9360189D01*
X225421406Y-9344587D01*
X225650790Y-9322337D01*
X225810020Y-9290881D01*
X225923889Y-9247663D01*
X226017192Y-9190126D01*
X226032890Y-9178664D01*
X226297330Y-8887338D01*
X226435111Y-8525577D01*
X226451933Y-8128566D01*
X226353495Y-7731487D01*
X226145496Y-7369523D01*
X225833637Y-7077858D01*
X225677883Y-6987164D01*
X225530448Y-6924686D01*
X225357431Y-6878034D01*
X225130048Y-6844081D01*
X224819517Y-6819700D01*
X224397055Y-6801763D01*
X223837500Y-6787223D01*
X222334667Y-6754451D01*
X222334667Y-5926667D01*
X227076000Y-5926667D01*
X227076000Y-6350000D01*
X227067085Y-6603917D01*
X227029244Y-6730555D01*
X226945833Y-6771522D01*
X226906667Y-6773334D01*
X226760067Y-6814098D01*
X226762671Y-6920271D01*
X226851255Y-7016479D01*
X226957785Y-7151547D01*
X227080240Y-7369013D01*
X227109400Y-7430855D01*
X227214150Y-7633516D01*
X227325020Y-7718376D01*
X227508931Y-7725680D01*
X227588197Y-7718778D01*
X227678242Y-7718529D01*
X227678242Y-8141759D01*
X227481026Y-8174596D01*
X227351185Y-8300793D01*
X227332593Y-8382000D01*
X227371940Y-8481812D01*
X227404372Y-8537575D01*
X227535446Y-8614940D01*
X227678242Y-8622241D01*
X227836999Y-8552513D01*
X227880333Y-8382000D01*
X227835191Y-8209338D01*
X227678242Y-8141759D01*
X227678242Y-7718529D01*
X227828894Y-7718111D01*
X228005300Y-7796147D01*
X228168355Y-7949769D01*
X228394877Y-8139704D01*
X228636104Y-8209567D01*
X228718636Y-8212667D01*
X228926369Y-8230494D01*
X229011930Y-8300627D01*
X229023333Y-8382000D01*
X228991255Y-8497446D01*
G37*
X228991255Y-8497446D02*
X228865058Y-8544996D01*
X228718636Y-8551334D01*
X228458931Y-8593695D01*
X228236134Y-8745520D01*
X228168355Y-8814231D01*
X227979668Y-8985858D01*
X227799057Y-9049969D01*
X227588197Y-9045223D01*
X227370087Y-9037038D01*
X227244465Y-9093851D01*
X227145063Y-9255761D01*
X227108276Y-9335636D01*
X226859164Y-9717664D01*
X226494661Y-10061884D01*
X226068389Y-10320058D01*
X225967171Y-10362223D01*
X225815824Y-10410358D01*
X225635060Y-10445535D01*
X225399469Y-10469117D01*
X225083646Y-10482470D01*
X224662180Y-10486958D01*
X224109664Y-10483947D01*
X223774000Y-10480026D01*
X221953667Y-10456334D01*
X221928009Y-10057785D01*
X221902351Y-9659237D01*
X221293009Y-9634452D01*
X220975537Y-9616721D01*
X220791871Y-9588216D01*
X220706485Y-9537619D01*
X220683853Y-9453612D01*
X220683667Y-9440334D01*
X220700885Y-9351673D01*
X220776145Y-9297603D01*
X220944861Y-9266921D01*
X221242441Y-9248424D01*
X221297500Y-9246124D01*
X221911333Y-9221248D01*
X221911333Y-7542752D01*
X221298398Y-7517876D01*
X220961434Y-7495475D01*
X220763150Y-7457114D01*
X220673106Y-7395349D01*
X220660471Y-7361872D01*
X220671154Y-7211322D01*
X220694851Y-7171372D01*
X220803872Y-7141491D01*
X221032705Y-7120166D01*
X221331873Y-7112000D01*
X221911333Y-7112000D01*
X221911333Y-5926667D01*
X222334667Y-5926667D01*
X222334667Y-6754451D01*
X222334667Y-9407684D01*
X224064390Y-9381675D01*
X224653000Y-9371699D01*
X225097075Y-9360189D01*
X225421406Y-9344587D01*
X225650790Y-9322337D01*
X225810020Y-9290881D01*
X225923889Y-9247663D01*
X226017192Y-9190126D01*
X226032890Y-9178664D01*
X226297330Y-8887338D01*
X226435111Y-8525577D01*
X226451933Y-8128566D01*
X226353495Y-7731487D01*
X226145496Y-7369523D01*
X225833637Y-7077858D01*
X225677883Y-6987164D01*
X225530448Y-6924686D01*
X225357431Y-6878034D01*
X225130048Y-6844081D01*
X224819517Y-6819700D01*
X224397055Y-6801763D01*
X223837500Y-6787223D01*
X222334667Y-6754451D01*
X222334667Y-5926667D01*
X227076000Y-5926667D01*
X227076000Y-6350000D01*
X227067085Y-6603917D01*
X227029244Y-6730555D01*
X226945833Y-6771522D01*
X226906667Y-6773334D01*
X226760067Y-6814098D01*
X226762671Y-6920271D01*
X226851255Y-7016479D01*
X226957785Y-7151547D01*
X227080240Y-7369013D01*
X227109400Y-7430855D01*
X227214150Y-7633516D01*
X227325020Y-7718376D01*
X227508931Y-7725680D01*
X227588197Y-7718778D01*
X227678242Y-7718529D01*
X227678242Y-8141759D01*
X227481026Y-8174596D01*
X227351185Y-8300793D01*
X227332593Y-8382000D01*
X227371940Y-8481812D01*
X227404372Y-8537575D01*
X227535446Y-8614940D01*
X227678242Y-8622241D01*
X227836999Y-8552513D01*
X227880333Y-8382000D01*
X227835191Y-8209338D01*
X227678242Y-8141759D01*
X227678242Y-7718529D01*
X227828894Y-7718111D01*
X228005300Y-7796147D01*
X228168355Y-7949769D01*
X228394877Y-8139704D01*
X228636104Y-8209567D01*
X228718636Y-8212667D01*
X228926369Y-8230494D01*
X229011930Y-8300627D01*
X229023333Y-8382000D01*
X228991255Y-8497446D01*
D13*
X231358675Y-27940000D02*
X230925662Y-28190000D01*
X230925662Y-27690000D02*
X231358675Y-27940000D01*
X230925662Y-28190000D02*
X230925662Y-27690000D01*
X231820000Y31750000D02*
X244160000Y31750000D01*
X231820000Y-37770000D02*
X231820000Y31750000D01*
X244160000Y-37770000D02*
X231820000Y-37770000D01*
X231358675Y-86360000D02*
X230925662Y-86610000D01*
X230925662Y-86110000D02*
X231358675Y-86360000D01*
X230925662Y-86610000D02*
X230925662Y-86110000D01*
X231820000Y-43130000D02*
X244160000Y-43130000D01*
X231820000Y-96350000D02*
X231820000Y-43130000D01*
X244160000Y-96350000D02*
X231820000Y-96350000D01*
X174900000Y-29812064D02*
X174900000Y-28607936D01*
X173080000Y-29812064D02*
X173080000Y-28607936D01*
X157120000Y-29812064D02*
X157120000Y-28607936D01*
X155300000Y-29812064D02*
X155300000Y-28607936D01*
D14*
X208320000Y1485000D02*
X208320000Y135000D01*
X213445000Y1485000D02*
X213445000Y6135000D01*
X208195000Y1485000D02*
X208195000Y6135000D01*
X213445000Y1485000D02*
X213220000Y1485000D01*
X213445000Y6135000D02*
X213220000Y6135000D01*
X208195000Y6135000D02*
X208420000Y6135000D01*
X208195000Y1485000D02*
X208320000Y1485000D01*
X208320000Y21805000D02*
X208320000Y20455000D01*
X213445000Y21805000D02*
X213445000Y26455000D01*
X208195000Y21805000D02*
X208195000Y26455000D01*
X213445000Y21805000D02*
X213220000Y21805000D01*
X213445000Y26455000D02*
X213220000Y26455000D01*
X208195000Y26455000D02*
X208420000Y26455000D01*
X208195000Y21805000D02*
X208320000Y21805000D01*
X208320000Y-8675000D02*
X208320000Y-10025000D01*
X213445000Y-8675000D02*
X213445000Y-4025000D01*
X208195000Y-8675000D02*
X208195000Y-4025000D01*
X213445000Y-8675000D02*
X213220000Y-8675000D01*
X213445000Y-4025000D02*
X213220000Y-4025000D01*
X208195000Y-4025000D02*
X208420000Y-4025000D01*
X208195000Y-8675000D02*
X208320000Y-8675000D01*
X208320000Y11645000D02*
X208320000Y10295000D01*
X213445000Y11645000D02*
X213445000Y16295000D01*
X208195000Y11645000D02*
X208195000Y16295000D01*
X213445000Y11645000D02*
X213220000Y11645000D01*
X213445000Y16295000D02*
X213220000Y16295000D01*
X208195000Y16295000D02*
X208420000Y16295000D01*
X208195000Y11645000D02*
X208320000Y11645000D01*
X201970000Y1485000D02*
X201970000Y135000D01*
X207095000Y1485000D02*
X207095000Y6135000D01*
X201845000Y1485000D02*
X201845000Y6135000D01*
X207095000Y1485000D02*
X206870000Y1485000D01*
X207095000Y6135000D02*
X206870000Y6135000D01*
X201845000Y6135000D02*
X202070000Y6135000D01*
X201845000Y1485000D02*
X201970000Y1485000D01*
X201970000Y21805000D02*
X201970000Y20455000D01*
X207095000Y21805000D02*
X207095000Y26455000D01*
X201845000Y21805000D02*
X201845000Y26455000D01*
X207095000Y21805000D02*
X206870000Y21805000D01*
X207095000Y26455000D02*
X206870000Y26455000D01*
X201845000Y26455000D02*
X202070000Y26455000D01*
X201845000Y21805000D02*
X201970000Y21805000D01*
X201970000Y-8675000D02*
X201970000Y-10025000D01*
X207095000Y-8675000D02*
X207095000Y-4025000D01*
X201845000Y-8675000D02*
X201845000Y-4025000D01*
X207095000Y-8675000D02*
X206870000Y-8675000D01*
X207095000Y-4025000D02*
X206870000Y-4025000D01*
X201845000Y-4025000D02*
X202070000Y-4025000D01*
X201845000Y-8675000D02*
X201970000Y-8675000D01*
X201970000Y11645000D02*
X201970000Y10295000D01*
X207095000Y11645000D02*
X207095000Y16295000D01*
X201845000Y11645000D02*
X201845000Y16295000D01*
X207095000Y11645000D02*
X206870000Y11645000D01*
X207095000Y16295000D02*
X206870000Y16295000D01*
X201845000Y16295000D02*
X202070000Y16295000D01*
X201845000Y11645000D02*
X201970000Y11645000D01*
X195620000Y1485000D02*
X195620000Y135000D01*
X200745000Y1485000D02*
X200745000Y6135000D01*
X195495000Y1485000D02*
X195495000Y6135000D01*
X200745000Y1485000D02*
X200520000Y1485000D01*
X200745000Y6135000D02*
X200520000Y6135000D01*
X195495000Y6135000D02*
X195720000Y6135000D01*
X195495000Y1485000D02*
X195620000Y1485000D01*
X195620000Y21805000D02*
X195620000Y20455000D01*
X200745000Y21805000D02*
X200745000Y26455000D01*
X195495000Y21805000D02*
X195495000Y26455000D01*
X200745000Y21805000D02*
X200520000Y21805000D01*
X200745000Y26455000D02*
X200520000Y26455000D01*
X195495000Y26455000D02*
X195720000Y26455000D01*
X195495000Y21805000D02*
X195620000Y21805000D01*
X195620000Y-8675000D02*
X195620000Y-10025000D01*
X200745000Y-8675000D02*
X200745000Y-4025000D01*
X195495000Y-8675000D02*
X195495000Y-4025000D01*
X200745000Y-8675000D02*
X200520000Y-8675000D01*
X200745000Y-4025000D02*
X200520000Y-4025000D01*
X195495000Y-4025000D02*
X195720000Y-4025000D01*
X195495000Y-8675000D02*
X195620000Y-8675000D01*
X195620000Y11645000D02*
X195620000Y10295000D01*
X200745000Y11645000D02*
X200745000Y16295000D01*
X195495000Y11645000D02*
X195495000Y16295000D01*
X200745000Y11645000D02*
X200520000Y11645000D01*
X200745000Y16295000D02*
X200520000Y16295000D01*
X195495000Y16295000D02*
X195720000Y16295000D01*
X195495000Y11645000D02*
X195620000Y11645000D01*
X189270000Y1485000D02*
X189270000Y135000D01*
X194395000Y1485000D02*
X194395000Y6135000D01*
X189145000Y1485000D02*
X189145000Y6135000D01*
X194395000Y1485000D02*
X194170000Y1485000D01*
X194395000Y6135000D02*
X194170000Y6135000D01*
X189145000Y6135000D02*
X189370000Y6135000D01*
X189145000Y1485000D02*
X189270000Y1485000D01*
X189270000Y21805000D02*
X189270000Y20455000D01*
X194395000Y21805000D02*
X194395000Y26455000D01*
X189145000Y21805000D02*
X189145000Y26455000D01*
X194395000Y21805000D02*
X194170000Y21805000D01*
X194395000Y26455000D02*
X194170000Y26455000D01*
X189145000Y26455000D02*
X189370000Y26455000D01*
X189145000Y21805000D02*
X189270000Y21805000D01*
X189270000Y-8675000D02*
X189270000Y-10025000D01*
X194395000Y-8675000D02*
X194395000Y-4025000D01*
X189145000Y-8675000D02*
X189145000Y-4025000D01*
X194395000Y-8675000D02*
X194170000Y-8675000D01*
X194395000Y-4025000D02*
X194170000Y-4025000D01*
X189145000Y-4025000D02*
X189370000Y-4025000D01*
X189145000Y-8675000D02*
X189270000Y-8675000D01*
X189270000Y11645000D02*
X189270000Y10295000D01*
X194395000Y11645000D02*
X194395000Y16295000D01*
X189145000Y11645000D02*
X189145000Y16295000D01*
X194395000Y11645000D02*
X194170000Y11645000D01*
X194395000Y16295000D02*
X194170000Y16295000D01*
X189145000Y16295000D02*
X189370000Y16295000D01*
X189145000Y11645000D02*
X189270000Y11645000D01*
X189270000Y-28995000D02*
X189270000Y-30345000D01*
X194395000Y-28995000D02*
X194395000Y-24345000D01*
X189145000Y-28995000D02*
X189145000Y-24345000D01*
X194395000Y-28995000D02*
X194170000Y-28995000D01*
X194395000Y-24345000D02*
X194170000Y-24345000D01*
X189145000Y-24345000D02*
X189370000Y-24345000D01*
X189145000Y-28995000D02*
X189270000Y-28995000D01*
X189270000Y-49315000D02*
X189270000Y-50665000D01*
X194395000Y-49315000D02*
X194395000Y-44665000D01*
X189145000Y-49315000D02*
X189145000Y-44665000D01*
X194395000Y-49315000D02*
X194170000Y-49315000D01*
X194395000Y-44665000D02*
X194170000Y-44665000D01*
X189145000Y-44665000D02*
X189370000Y-44665000D01*
X189145000Y-49315000D02*
X189270000Y-49315000D01*
X221020000Y-84240000D02*
X221020000Y-85590000D01*
X226145000Y-84240000D02*
X226145000Y-79590000D01*
X220895000Y-84240000D02*
X220895000Y-79590000D01*
X226145000Y-84240000D02*
X225920000Y-84240000D01*
X226145000Y-79590000D02*
X225920000Y-79590000D01*
X220895000Y-79590000D02*
X221120000Y-79590000D01*
X220895000Y-84240000D02*
X221020000Y-84240000D01*
X189270000Y-39155000D02*
X189270000Y-40505000D01*
X194395000Y-39155000D02*
X194395000Y-34505000D01*
X189145000Y-39155000D02*
X189145000Y-34505000D01*
X194395000Y-39155000D02*
X194170000Y-39155000D01*
X194395000Y-34505000D02*
X194170000Y-34505000D01*
X189145000Y-34505000D02*
X189370000Y-34505000D01*
X189145000Y-39155000D02*
X189270000Y-39155000D01*
X195620000Y-28995000D02*
X195620000Y-30345000D01*
X200745000Y-28995000D02*
X200745000Y-24345000D01*
X195495000Y-28995000D02*
X195495000Y-24345000D01*
X200745000Y-28995000D02*
X200520000Y-28995000D01*
X200745000Y-24345000D02*
X200520000Y-24345000D01*
X195495000Y-24345000D02*
X195720000Y-24345000D01*
X195495000Y-28995000D02*
X195620000Y-28995000D01*
X195620000Y-49315000D02*
X195620000Y-50665000D01*
X200745000Y-49315000D02*
X200745000Y-44665000D01*
X195495000Y-49315000D02*
X195495000Y-44665000D01*
X200745000Y-49315000D02*
X200520000Y-49315000D01*
X200745000Y-44665000D02*
X200520000Y-44665000D01*
X195495000Y-44665000D02*
X195720000Y-44665000D01*
X195495000Y-49315000D02*
X195620000Y-49315000D01*
X195620000Y-18835000D02*
X195620000Y-20185000D01*
X200745000Y-18835000D02*
X200745000Y-14185000D01*
X195495000Y-18835000D02*
X195495000Y-14185000D01*
X200745000Y-18835000D02*
X200520000Y-18835000D01*
X200745000Y-14185000D02*
X200520000Y-14185000D01*
X195495000Y-14185000D02*
X195720000Y-14185000D01*
X195495000Y-18835000D02*
X195620000Y-18835000D01*
X195620000Y-39155000D02*
X195620000Y-40505000D01*
X200745000Y-39155000D02*
X200745000Y-34505000D01*
X195495000Y-39155000D02*
X195495000Y-34505000D01*
X200745000Y-39155000D02*
X200520000Y-39155000D01*
X200745000Y-34505000D02*
X200520000Y-34505000D01*
X195495000Y-34505000D02*
X195720000Y-34505000D01*
X195495000Y-39155000D02*
X195620000Y-39155000D01*
X201970000Y-28995000D02*
X201970000Y-30345000D01*
X207095000Y-28995000D02*
X207095000Y-24345000D01*
X201845000Y-28995000D02*
X201845000Y-24345000D01*
X207095000Y-28995000D02*
X206870000Y-28995000D01*
X207095000Y-24345000D02*
X206870000Y-24345000D01*
X201845000Y-24345000D02*
X202070000Y-24345000D01*
X201845000Y-28995000D02*
X201970000Y-28995000D01*
X201970000Y-49315000D02*
X201970000Y-50665000D01*
X207095000Y-49315000D02*
X207095000Y-44665000D01*
X201845000Y-49315000D02*
X201845000Y-44665000D01*
X207095000Y-49315000D02*
X206870000Y-49315000D01*
X207095000Y-44665000D02*
X206870000Y-44665000D01*
X201845000Y-44665000D02*
X202070000Y-44665000D01*
X201845000Y-49315000D02*
X201970000Y-49315000D01*
X201970000Y-18835000D02*
X201970000Y-20185000D01*
X207095000Y-18835000D02*
X207095000Y-14185000D01*
X201845000Y-18835000D02*
X201845000Y-14185000D01*
X207095000Y-18835000D02*
X206870000Y-18835000D01*
X207095000Y-14185000D02*
X206870000Y-14185000D01*
X201845000Y-14185000D02*
X202070000Y-14185000D01*
X201845000Y-18835000D02*
X201970000Y-18835000D01*
X201970000Y-39155000D02*
X201970000Y-40505000D01*
X207095000Y-39155000D02*
X207095000Y-34505000D01*
X201845000Y-39155000D02*
X201845000Y-34505000D01*
X207095000Y-39155000D02*
X206870000Y-39155000D01*
X207095000Y-34505000D02*
X206870000Y-34505000D01*
X201845000Y-34505000D02*
X202070000Y-34505000D01*
X201845000Y-39155000D02*
X201970000Y-39155000D01*
X208320000Y-28995000D02*
X208320000Y-30345000D01*
X213445000Y-28995000D02*
X213445000Y-24345000D01*
X208195000Y-28995000D02*
X208195000Y-24345000D01*
X213445000Y-28995000D02*
X213220000Y-28995000D01*
X213445000Y-24345000D02*
X213220000Y-24345000D01*
X208195000Y-24345000D02*
X208420000Y-24345000D01*
X208195000Y-28995000D02*
X208320000Y-28995000D01*
X208320000Y-49315000D02*
X208320000Y-50665000D01*
X213445000Y-49315000D02*
X213445000Y-44665000D01*
X208195000Y-49315000D02*
X208195000Y-44665000D01*
X213445000Y-49315000D02*
X213220000Y-49315000D01*
X213445000Y-44665000D02*
X213220000Y-44665000D01*
X208195000Y-44665000D02*
X208420000Y-44665000D01*
X208195000Y-49315000D02*
X208320000Y-49315000D01*
X208320000Y-18835000D02*
X208320000Y-20185000D01*
X213445000Y-18835000D02*
X213445000Y-14185000D01*
X208195000Y-18835000D02*
X208195000Y-14185000D01*
X213445000Y-18835000D02*
X213220000Y-18835000D01*
X213445000Y-14185000D02*
X213220000Y-14185000D01*
X208195000Y-14185000D02*
X208420000Y-14185000D01*
X208195000Y-18835000D02*
X208320000Y-18835000D01*
X208320000Y-39155000D02*
X208320000Y-40505000D01*
X213445000Y-39155000D02*
X213445000Y-34505000D01*
X208195000Y-39155000D02*
X208195000Y-34505000D01*
X213445000Y-39155000D02*
X213220000Y-39155000D01*
X213445000Y-34505000D02*
X213220000Y-34505000D01*
X208195000Y-34505000D02*
X208420000Y-34505000D01*
X208195000Y-39155000D02*
X208320000Y-39155000D01*
X189270000Y-69635000D02*
X189270000Y-70985000D01*
X194395000Y-69635000D02*
X194395000Y-64985000D01*
X189145000Y-69635000D02*
X189145000Y-64985000D01*
X194395000Y-69635000D02*
X194170000Y-69635000D01*
X194395000Y-64985000D02*
X194170000Y-64985000D01*
X189145000Y-64985000D02*
X189370000Y-64985000D01*
X189145000Y-69635000D02*
X189270000Y-69635000D01*
X189270000Y-89955000D02*
X189270000Y-91305000D01*
X194395000Y-89955000D02*
X194395000Y-85305000D01*
X189145000Y-89955000D02*
X189145000Y-85305000D01*
X194395000Y-89955000D02*
X194170000Y-89955000D01*
X194395000Y-85305000D02*
X194170000Y-85305000D01*
X189145000Y-85305000D02*
X189370000Y-85305000D01*
X189145000Y-89955000D02*
X189270000Y-89955000D01*
X189270000Y-59475000D02*
X189270000Y-60825000D01*
X194395000Y-59475000D02*
X194395000Y-54825000D01*
X189145000Y-59475000D02*
X189145000Y-54825000D01*
X194395000Y-59475000D02*
X194170000Y-59475000D01*
X194395000Y-54825000D02*
X194170000Y-54825000D01*
X189145000Y-54825000D02*
X189370000Y-54825000D01*
X189145000Y-59475000D02*
X189270000Y-59475000D01*
X189270000Y-79795000D02*
X189270000Y-81145000D01*
X194395000Y-79795000D02*
X194395000Y-75145000D01*
X189145000Y-79795000D02*
X189145000Y-75145000D01*
X194395000Y-79795000D02*
X194170000Y-79795000D01*
X194395000Y-75145000D02*
X194170000Y-75145000D01*
X189145000Y-75145000D02*
X189370000Y-75145000D01*
X189145000Y-79795000D02*
X189270000Y-79795000D01*
X195620000Y-69635000D02*
X195620000Y-70985000D01*
X200745000Y-69635000D02*
X200745000Y-64985000D01*
X195495000Y-69635000D02*
X195495000Y-64985000D01*
X200745000Y-69635000D02*
X200520000Y-69635000D01*
X200745000Y-64985000D02*
X200520000Y-64985000D01*
X195495000Y-64985000D02*
X195720000Y-64985000D01*
X195495000Y-69635000D02*
X195620000Y-69635000D01*
X195620000Y-89955000D02*
X195620000Y-91305000D01*
X200745000Y-89955000D02*
X200745000Y-85305000D01*
X195495000Y-89955000D02*
X195495000Y-85305000D01*
X200745000Y-89955000D02*
X200520000Y-89955000D01*
X200745000Y-85305000D02*
X200520000Y-85305000D01*
X195495000Y-85305000D02*
X195720000Y-85305000D01*
X195495000Y-89955000D02*
X195620000Y-89955000D01*
X195620000Y-59475000D02*
X195620000Y-60825000D01*
X200745000Y-59475000D02*
X200745000Y-54825000D01*
X195495000Y-59475000D02*
X195495000Y-54825000D01*
X200745000Y-59475000D02*
X200520000Y-59475000D01*
X200745000Y-54825000D02*
X200520000Y-54825000D01*
X195495000Y-54825000D02*
X195720000Y-54825000D01*
X195495000Y-59475000D02*
X195620000Y-59475000D01*
X195620000Y-79795000D02*
X195620000Y-81145000D01*
X200745000Y-79795000D02*
X200745000Y-75145000D01*
X195495000Y-79795000D02*
X195495000Y-75145000D01*
X200745000Y-79795000D02*
X200520000Y-79795000D01*
X200745000Y-75145000D02*
X200520000Y-75145000D01*
X195495000Y-75145000D02*
X195720000Y-75145000D01*
X195495000Y-79795000D02*
X195620000Y-79795000D01*
X201970000Y-69635000D02*
X201970000Y-70985000D01*
X207095000Y-69635000D02*
X207095000Y-64985000D01*
X201845000Y-69635000D02*
X201845000Y-64985000D01*
X207095000Y-69635000D02*
X206870000Y-69635000D01*
X207095000Y-64985000D02*
X206870000Y-64985000D01*
X201845000Y-64985000D02*
X202070000Y-64985000D01*
X201845000Y-69635000D02*
X201970000Y-69635000D01*
X201970000Y-89955000D02*
X201970000Y-91305000D01*
X207095000Y-89955000D02*
X207095000Y-85305000D01*
X201845000Y-89955000D02*
X201845000Y-85305000D01*
X207095000Y-89955000D02*
X206870000Y-89955000D01*
X207095000Y-85305000D02*
X206870000Y-85305000D01*
X201845000Y-85305000D02*
X202070000Y-85305000D01*
X201845000Y-89955000D02*
X201970000Y-89955000D01*
X201970000Y-59475000D02*
X201970000Y-60825000D01*
X207095000Y-59475000D02*
X207095000Y-54825000D01*
X201845000Y-59475000D02*
X201845000Y-54825000D01*
X207095000Y-59475000D02*
X206870000Y-59475000D01*
X207095000Y-54825000D02*
X206870000Y-54825000D01*
X201845000Y-54825000D02*
X202070000Y-54825000D01*
X201845000Y-59475000D02*
X201970000Y-59475000D01*
X201970000Y-79795000D02*
X201970000Y-81145000D01*
X207095000Y-79795000D02*
X207095000Y-75145000D01*
X201845000Y-79795000D02*
X201845000Y-75145000D01*
X207095000Y-79795000D02*
X206870000Y-79795000D01*
X207095000Y-75145000D02*
X206870000Y-75145000D01*
X201845000Y-75145000D02*
X202070000Y-75145000D01*
X201845000Y-79795000D02*
X201970000Y-79795000D01*
X208320000Y-69635000D02*
X208320000Y-70985000D01*
X213445000Y-69635000D02*
X213445000Y-64985000D01*
X208195000Y-69635000D02*
X208195000Y-64985000D01*
X213445000Y-69635000D02*
X213220000Y-69635000D01*
X213445000Y-64985000D02*
X213220000Y-64985000D01*
X208195000Y-64985000D02*
X208420000Y-64985000D01*
X208195000Y-69635000D02*
X208320000Y-69635000D01*
X208320000Y-89955000D02*
X208320000Y-91305000D01*
X213445000Y-89955000D02*
X213445000Y-85305000D01*
X208195000Y-89955000D02*
X208195000Y-85305000D01*
X213445000Y-89955000D02*
X213220000Y-89955000D01*
X213445000Y-85305000D02*
X213220000Y-85305000D01*
X208195000Y-85305000D02*
X208420000Y-85305000D01*
X208195000Y-89955000D02*
X208320000Y-89955000D01*
X208320000Y-59475000D02*
X208320000Y-60825000D01*
X213445000Y-59475000D02*
X213445000Y-54825000D01*
X208195000Y-59475000D02*
X208195000Y-54825000D01*
X213445000Y-59475000D02*
X213220000Y-59475000D01*
X213445000Y-54825000D02*
X213220000Y-54825000D01*
X208195000Y-54825000D02*
X208420000Y-54825000D01*
X208195000Y-59475000D02*
X208320000Y-59475000D01*
X208320000Y-79795000D02*
X208320000Y-81145000D01*
X213445000Y-79795000D02*
X213445000Y-75145000D01*
X208195000Y-79795000D02*
X208195000Y-75145000D01*
X213445000Y-79795000D02*
X213220000Y-79795000D01*
X213445000Y-75145000D02*
X213220000Y-75145000D01*
X208195000Y-75145000D02*
X208420000Y-75145000D01*
X208195000Y-79795000D02*
X208320000Y-79795000D01*
X162200000Y-1965000D02*
X162200000Y-7940000D01*
X155300000Y-3490000D02*
X155300000Y-7940000D01*
X174900000Y-1965000D02*
X174900000Y-7940000D01*
X168000000Y-3490000D02*
X168000000Y-7940000D01*
X143725000Y-20360000D02*
X142375000Y-20360000D01*
X143725000Y-25485000D02*
X148375000Y-25485000D01*
X143725000Y-20235000D02*
X148375000Y-20235000D01*
X143725000Y-25485000D02*
X143725000Y-25260000D01*
X148375000Y-25485000D02*
X148375000Y-25260000D01*
X148375000Y-20235000D02*
X148375000Y-20460000D01*
X143725000Y-20235000D02*
X143725000Y-20360000D01*
X143725000Y16470000D02*
X142375000Y16470000D01*
X143725000Y11345000D02*
X148375000Y11345000D01*
X143725000Y16595000D02*
X148375000Y16595000D01*
X143725000Y11345000D02*
X143725000Y11570000D01*
X148375000Y11345000D02*
X148375000Y11570000D01*
X148375000Y16595000D02*
X148375000Y16370000D01*
X143725000Y16595000D02*
X143725000Y16470000D01*
X143725000Y-26710000D02*
X142375000Y-26710000D01*
X143725000Y-31835000D02*
X148375000Y-31835000D01*
X143725000Y-26585000D02*
X148375000Y-26585000D01*
X143725000Y-31835000D02*
X143725000Y-31610000D01*
X148375000Y-31835000D02*
X148375000Y-31610000D01*
X148375000Y-26585000D02*
X148375000Y-26810000D01*
X143725000Y-26585000D02*
X143725000Y-26710000D01*
D13*
X170290000Y-38145000D02*
X171450000Y-38145000D01*
X170290000Y-38525000D02*
X170290000Y-38145000D01*
X165100000Y-38525000D02*
X170290000Y-38525000D01*
X159910000Y-38525000D02*
X159910000Y-38145000D01*
X165100000Y-38525000D02*
X159910000Y-38525000D01*
X170290000Y-19895000D02*
X170290000Y-20275000D01*
X165100000Y-19895000D02*
X170290000Y-19895000D01*
X159910000Y-19895000D02*
X159910000Y-20275000D01*
X165100000Y-19895000D02*
X159910000Y-19895000D01*
X179130000Y-85030000D02*
X179130000Y-86360000D01*
X177800000Y-85030000D02*
X179130000Y-85030000D01*
X179130000Y-87630000D02*
X179130000Y-90230000D01*
X176530000Y-87630000D02*
X179130000Y-87630000D01*
X176530000Y-85030000D02*
X176530000Y-87630000D01*
X179130000Y-90230000D02*
X156150000Y-90230000D01*
X176530000Y-85030000D02*
X156150000Y-85030000D01*
X156150000Y-85030000D02*
X156150000Y-90230000D01*
X180400000Y25460000D02*
X180400000Y24130000D01*
X179070000Y25460000D02*
X180400000Y25460000D01*
X180400000Y22860000D02*
X180400000Y20260000D01*
X177800000Y22860000D02*
X180400000Y22860000D01*
X177800000Y25460000D02*
X177800000Y22860000D01*
X180400000Y20260000D02*
X154880000Y20260000D01*
X177800000Y25460000D02*
X154880000Y25460000D01*
X154880000Y25460000D02*
X154880000Y20260000D01*
X222210000Y-57365000D02*
X222210000Y-57050000D01*
X222210000Y-59790000D02*
X222210000Y-59475000D01*
X227450000Y-57365000D02*
X227450000Y-57050000D01*
X227450000Y-59790000D02*
X227450000Y-59475000D01*
X227450000Y-57050000D02*
X222210000Y-57050000D01*
X227450000Y-59790000D02*
X222210000Y-59790000D01*
X227370000Y-35345000D02*
X227370000Y-35660000D01*
X227370000Y-32920000D02*
X227370000Y-33235000D01*
X222130000Y-35345000D02*
X222130000Y-35660000D01*
X222130000Y-32920000D02*
X222130000Y-33235000D01*
X222130000Y-35660000D02*
X227370000Y-35660000D01*
X222130000Y-32920000D02*
X227370000Y-32920000D01*
X220760302Y-48085000D02*
X220760302Y-48885000D01*
X220360302Y-48485000D02*
X221160302Y-48485000D01*
X228851000Y-50267000D02*
X228851000Y-51333000D01*
X228811000Y-50032000D02*
X228811000Y-51568000D01*
X228771000Y-49852000D02*
X228771000Y-51748000D01*
X228731000Y-49702000D02*
X228731000Y-51898000D01*
X228691000Y-49571000D02*
X228691000Y-52029000D01*
X228651000Y-49454000D02*
X228651000Y-52146000D01*
X228611000Y-49347000D02*
X228611000Y-52253000D01*
X228571000Y-49248000D02*
X228571000Y-52352000D01*
X228531000Y-49155000D02*
X228531000Y-52445000D01*
X228491000Y-49069000D02*
X228491000Y-52531000D01*
X228451000Y-48987000D02*
X228451000Y-52613000D01*
X228411000Y-48910000D02*
X228411000Y-52690000D01*
X228371000Y-48836000D02*
X228371000Y-52764000D01*
X228331000Y-48766000D02*
X228331000Y-52834000D01*
X228291000Y-48698000D02*
X228291000Y-52902000D01*
X228251000Y-48634000D02*
X228251000Y-52966000D01*
X228211000Y-48572000D02*
X228211000Y-53028000D01*
X228171000Y-48513000D02*
X228171000Y-53087000D01*
X228131000Y-48455000D02*
X228131000Y-53145000D01*
X228091000Y-48400000D02*
X228091000Y-53200000D01*
X228051000Y-48346000D02*
X228051000Y-53254000D01*
X228011000Y-48295000D02*
X228011000Y-53305000D01*
X227971000Y-48244000D02*
X227971000Y-53356000D01*
X227931000Y-48196000D02*
X227931000Y-53404000D01*
X227891000Y-48149000D02*
X227891000Y-53451000D01*
X227851000Y-48103000D02*
X227851000Y-53497000D01*
X227811000Y-48059000D02*
X227811000Y-53541000D01*
X227771000Y-48016000D02*
X227771000Y-53584000D01*
X227731000Y-47974000D02*
X227731000Y-53626000D01*
X227691000Y-47933000D02*
X227691000Y-53667000D01*
X227651000Y-47893000D02*
X227651000Y-53707000D01*
X227611000Y-47855000D02*
X227611000Y-53745000D01*
X227571000Y-47817000D02*
X227571000Y-53783000D01*
X227531000Y-47781000D02*
X227531000Y-53819000D01*
X227491000Y-47745000D02*
X227491000Y-53855000D01*
X227451000Y-47710000D02*
X227451000Y-53890000D01*
X227411000Y-47676000D02*
X227411000Y-53924000D01*
X227371000Y-47644000D02*
X227371000Y-53956000D01*
X227331000Y-47611000D02*
X227331000Y-53989000D01*
X227291000Y-47580000D02*
X227291000Y-54020000D01*
X227251000Y-47550000D02*
X227251000Y-54050000D01*
X227211000Y-47520000D02*
X227211000Y-54080000D01*
X227171000Y-47491000D02*
X227171000Y-54109000D01*
X227131000Y-47462000D02*
X227131000Y-54138000D01*
X227091000Y-47435000D02*
X227091000Y-54165000D01*
X227051000Y-51840000D02*
X227051000Y-54192000D01*
X227051000Y-47408000D02*
X227051000Y-49760000D01*
X227011000Y-51840000D02*
X227011000Y-54218000D01*
X227011000Y-47382000D02*
X227011000Y-49760000D01*
X226971000Y-51840000D02*
X226971000Y-54244000D01*
X226971000Y-47356000D02*
X226971000Y-49760000D01*
X226931000Y-51840000D02*
X226931000Y-54269000D01*
X226931000Y-47331000D02*
X226931000Y-49760000D01*
X226891000Y-51840000D02*
X226891000Y-54293000D01*
X226891000Y-47307000D02*
X226891000Y-49760000D01*
X226851000Y-51840000D02*
X226851000Y-54317000D01*
X226851000Y-47283000D02*
X226851000Y-49760000D01*
X226811000Y-51840000D02*
X226811000Y-54340000D01*
X226811000Y-47260000D02*
X226811000Y-49760000D01*
X226771000Y-51840000D02*
X226771000Y-54362000D01*
X226771000Y-47238000D02*
X226771000Y-49760000D01*
X226731000Y-51840000D02*
X226731000Y-54384000D01*
X226731000Y-47216000D02*
X226731000Y-49760000D01*
X226691000Y-51840000D02*
X226691000Y-54406000D01*
X226691000Y-47194000D02*
X226691000Y-49760000D01*
X226651000Y-51840000D02*
X226651000Y-54427000D01*
X226651000Y-47173000D02*
X226651000Y-49760000D01*
X226611000Y-51840000D02*
X226611000Y-54447000D01*
X226611000Y-47153000D02*
X226611000Y-49760000D01*
X226571000Y-51840000D02*
X226571000Y-54466000D01*
X226571000Y-47134000D02*
X226571000Y-49760000D01*
X226531000Y-51840000D02*
X226531000Y-54486000D01*
X226531000Y-47114000D02*
X226531000Y-49760000D01*
X226491000Y-51840000D02*
X226491000Y-54504000D01*
X226491000Y-47096000D02*
X226491000Y-49760000D01*
X226451000Y-51840000D02*
X226451000Y-54522000D01*
X226451000Y-47078000D02*
X226451000Y-49760000D01*
X226411000Y-51840000D02*
X226411000Y-54540000D01*
X226411000Y-47060000D02*
X226411000Y-49760000D01*
X226371000Y-51840000D02*
X226371000Y-54557000D01*
X226371000Y-47043000D02*
X226371000Y-49760000D01*
X226331000Y-51840000D02*
X226331000Y-54574000D01*
X226331000Y-47026000D02*
X226331000Y-49760000D01*
X226291000Y-51840000D02*
X226291000Y-54590000D01*
X226291000Y-47010000D02*
X226291000Y-49760000D01*
X226251000Y-51840000D02*
X226251000Y-54605000D01*
X226251000Y-46995000D02*
X226251000Y-49760000D01*
X226211000Y-51840000D02*
X226211000Y-54621000D01*
X226211000Y-46979000D02*
X226211000Y-49760000D01*
X226171000Y-51840000D02*
X226171000Y-54635000D01*
X226171000Y-46965000D02*
X226171000Y-49760000D01*
X226131000Y-51840000D02*
X226131000Y-54650000D01*
X226131000Y-46950000D02*
X226131000Y-49760000D01*
X226091000Y-51840000D02*
X226091000Y-54663000D01*
X226091000Y-46937000D02*
X226091000Y-49760000D01*
X226051000Y-51840000D02*
X226051000Y-54677000D01*
X226051000Y-46923000D02*
X226051000Y-49760000D01*
X226011000Y-51840000D02*
X226011000Y-54689000D01*
X226011000Y-46911000D02*
X226011000Y-49760000D01*
X225971000Y-51840000D02*
X225971000Y-54702000D01*
X225971000Y-46898000D02*
X225971000Y-49760000D01*
X225931000Y-51840000D02*
X225931000Y-54714000D01*
X225931000Y-46886000D02*
X225931000Y-49760000D01*
X225891000Y-51840000D02*
X225891000Y-54725000D01*
X225891000Y-46875000D02*
X225891000Y-49760000D01*
X225851000Y-51840000D02*
X225851000Y-54736000D01*
X225851000Y-46864000D02*
X225851000Y-49760000D01*
X225811000Y-51840000D02*
X225811000Y-54747000D01*
X225811000Y-46853000D02*
X225811000Y-49760000D01*
X225771000Y-51840000D02*
X225771000Y-54757000D01*
X225771000Y-46843000D02*
X225771000Y-49760000D01*
X225731000Y-51840000D02*
X225731000Y-54767000D01*
X225731000Y-46833000D02*
X225731000Y-49760000D01*
X225691000Y-51840000D02*
X225691000Y-54776000D01*
X225691000Y-46824000D02*
X225691000Y-49760000D01*
X225651000Y-51840000D02*
X225651000Y-54785000D01*
X225651000Y-46815000D02*
X225651000Y-49760000D01*
X225611000Y-51840000D02*
X225611000Y-54794000D01*
X225611000Y-46806000D02*
X225611000Y-49760000D01*
X225571000Y-51840000D02*
X225571000Y-54802000D01*
X225571000Y-46798000D02*
X225571000Y-49760000D01*
X225531000Y-51840000D02*
X225531000Y-54810000D01*
X225531000Y-46790000D02*
X225531000Y-49760000D01*
X225491000Y-51840000D02*
X225491000Y-54817000D01*
X225491000Y-46783000D02*
X225491000Y-49760000D01*
X225450000Y-51840000D02*
X225450000Y-54824000D01*
X225450000Y-46776000D02*
X225450000Y-49760000D01*
X225410000Y-51840000D02*
X225410000Y-54830000D01*
X225410000Y-46770000D02*
X225410000Y-49760000D01*
X225370000Y-51840000D02*
X225370000Y-54837000D01*
X225370000Y-46763000D02*
X225370000Y-49760000D01*
X225330000Y-51840000D02*
X225330000Y-54842000D01*
X225330000Y-46758000D02*
X225330000Y-49760000D01*
X225290000Y-51840000D02*
X225290000Y-54848000D01*
X225290000Y-46752000D02*
X225290000Y-49760000D01*
X225250000Y-51840000D02*
X225250000Y-54852000D01*
X225250000Y-46748000D02*
X225250000Y-49760000D01*
X225210000Y-51840000D02*
X225210000Y-54857000D01*
X225210000Y-46743000D02*
X225210000Y-49760000D01*
X225170000Y-51840000D02*
X225170000Y-54861000D01*
X225170000Y-46739000D02*
X225170000Y-49760000D01*
X225130000Y-51840000D02*
X225130000Y-54865000D01*
X225130000Y-46735000D02*
X225130000Y-49760000D01*
X225090000Y-51840000D02*
X225090000Y-54868000D01*
X225090000Y-46732000D02*
X225090000Y-49760000D01*
X225050000Y-51840000D02*
X225050000Y-54871000D01*
X225050000Y-46729000D02*
X225050000Y-49760000D01*
X225010000Y-51840000D02*
X225010000Y-54874000D01*
X225010000Y-46726000D02*
X225010000Y-49760000D01*
X224970000Y-46724000D02*
X224970000Y-54876000D01*
X224930000Y-46723000D02*
X224930000Y-54877000D01*
X224890000Y-46721000D02*
X224890000Y-54879000D01*
X224850000Y-46720000D02*
X224850000Y-54880000D01*
X224810000Y-46720000D02*
X224810000Y-54880000D01*
X224770000Y-46720000D02*
X224770000Y-54880000D01*
X228890000Y-50800000D02*
G75*
G03X228890000Y-50800000I-4120000J0D01*
G01*
X220760302Y-37925000D02*
X220760302Y-38725000D01*
X220360302Y-38325000D02*
X221160302Y-38325000D01*
X228851000Y-40107000D02*
X228851000Y-41173000D01*
X228811000Y-39872000D02*
X228811000Y-41408000D01*
X228771000Y-39692000D02*
X228771000Y-41588000D01*
X228731000Y-39542000D02*
X228731000Y-41738000D01*
X228691000Y-39411000D02*
X228691000Y-41869000D01*
X228651000Y-39294000D02*
X228651000Y-41986000D01*
X228611000Y-39187000D02*
X228611000Y-42093000D01*
X228571000Y-39088000D02*
X228571000Y-42192000D01*
X228531000Y-38995000D02*
X228531000Y-42285000D01*
X228491000Y-38909000D02*
X228491000Y-42371000D01*
X228451000Y-38827000D02*
X228451000Y-42453000D01*
X228411000Y-38750000D02*
X228411000Y-42530000D01*
X228371000Y-38676000D02*
X228371000Y-42604000D01*
X228331000Y-38606000D02*
X228331000Y-42674000D01*
X228291000Y-38538000D02*
X228291000Y-42742000D01*
X228251000Y-38474000D02*
X228251000Y-42806000D01*
X228211000Y-38412000D02*
X228211000Y-42868000D01*
X228171000Y-38353000D02*
X228171000Y-42927000D01*
X228131000Y-38295000D02*
X228131000Y-42985000D01*
X228091000Y-38240000D02*
X228091000Y-43040000D01*
X228051000Y-38186000D02*
X228051000Y-43094000D01*
X228011000Y-38135000D02*
X228011000Y-43145000D01*
X227971000Y-38084000D02*
X227971000Y-43196000D01*
X227931000Y-38036000D02*
X227931000Y-43244000D01*
X227891000Y-37989000D02*
X227891000Y-43291000D01*
X227851000Y-37943000D02*
X227851000Y-43337000D01*
X227811000Y-37899000D02*
X227811000Y-43381000D01*
X227771000Y-37856000D02*
X227771000Y-43424000D01*
X227731000Y-37814000D02*
X227731000Y-43466000D01*
X227691000Y-37773000D02*
X227691000Y-43507000D01*
X227651000Y-37733000D02*
X227651000Y-43547000D01*
X227611000Y-37695000D02*
X227611000Y-43585000D01*
X227571000Y-37657000D02*
X227571000Y-43623000D01*
X227531000Y-37621000D02*
X227531000Y-43659000D01*
X227491000Y-37585000D02*
X227491000Y-43695000D01*
X227451000Y-37550000D02*
X227451000Y-43730000D01*
X227411000Y-37516000D02*
X227411000Y-43764000D01*
X227371000Y-37484000D02*
X227371000Y-43796000D01*
X227331000Y-37451000D02*
X227331000Y-43829000D01*
X227291000Y-37420000D02*
X227291000Y-43860000D01*
X227251000Y-37390000D02*
X227251000Y-43890000D01*
X227211000Y-37360000D02*
X227211000Y-43920000D01*
X227171000Y-37331000D02*
X227171000Y-43949000D01*
X227131000Y-37302000D02*
X227131000Y-43978000D01*
X227091000Y-37275000D02*
X227091000Y-44005000D01*
X227051000Y-41680000D02*
X227051000Y-44032000D01*
X227051000Y-37248000D02*
X227051000Y-39600000D01*
X227011000Y-41680000D02*
X227011000Y-44058000D01*
X227011000Y-37222000D02*
X227011000Y-39600000D01*
X226971000Y-41680000D02*
X226971000Y-44084000D01*
X226971000Y-37196000D02*
X226971000Y-39600000D01*
X226931000Y-41680000D02*
X226931000Y-44109000D01*
X226931000Y-37171000D02*
X226931000Y-39600000D01*
X226891000Y-41680000D02*
X226891000Y-44133000D01*
X226891000Y-37147000D02*
X226891000Y-39600000D01*
X226851000Y-41680000D02*
X226851000Y-44157000D01*
X226851000Y-37123000D02*
X226851000Y-39600000D01*
X226811000Y-41680000D02*
X226811000Y-44180000D01*
X226811000Y-37100000D02*
X226811000Y-39600000D01*
X226771000Y-41680000D02*
X226771000Y-44202000D01*
X226771000Y-37078000D02*
X226771000Y-39600000D01*
X226731000Y-41680000D02*
X226731000Y-44224000D01*
X226731000Y-37056000D02*
X226731000Y-39600000D01*
X226691000Y-41680000D02*
X226691000Y-44246000D01*
X226691000Y-37034000D02*
X226691000Y-39600000D01*
X226651000Y-41680000D02*
X226651000Y-44267000D01*
X226651000Y-37013000D02*
X226651000Y-39600000D01*
X226611000Y-41680000D02*
X226611000Y-44287000D01*
X226611000Y-36993000D02*
X226611000Y-39600000D01*
X226571000Y-41680000D02*
X226571000Y-44306000D01*
X226571000Y-36974000D02*
X226571000Y-39600000D01*
X226531000Y-41680000D02*
X226531000Y-44326000D01*
X226531000Y-36954000D02*
X226531000Y-39600000D01*
X226491000Y-41680000D02*
X226491000Y-44344000D01*
X226491000Y-36936000D02*
X226491000Y-39600000D01*
X226451000Y-41680000D02*
X226451000Y-44362000D01*
X226451000Y-36918000D02*
X226451000Y-39600000D01*
X226411000Y-41680000D02*
X226411000Y-44380000D01*
X226411000Y-36900000D02*
X226411000Y-39600000D01*
X226371000Y-41680000D02*
X226371000Y-44397000D01*
X226371000Y-36883000D02*
X226371000Y-39600000D01*
X226331000Y-41680000D02*
X226331000Y-44414000D01*
X226331000Y-36866000D02*
X226331000Y-39600000D01*
X226291000Y-41680000D02*
X226291000Y-44430000D01*
X226291000Y-36850000D02*
X226291000Y-39600000D01*
X226251000Y-41680000D02*
X226251000Y-44445000D01*
X226251000Y-36835000D02*
X226251000Y-39600000D01*
X226211000Y-41680000D02*
X226211000Y-44461000D01*
X226211000Y-36819000D02*
X226211000Y-39600000D01*
X226171000Y-41680000D02*
X226171000Y-44475000D01*
X226171000Y-36805000D02*
X226171000Y-39600000D01*
X226131000Y-41680000D02*
X226131000Y-44490000D01*
X226131000Y-36790000D02*
X226131000Y-39600000D01*
X226091000Y-41680000D02*
X226091000Y-44503000D01*
X226091000Y-36777000D02*
X226091000Y-39600000D01*
X226051000Y-41680000D02*
X226051000Y-44517000D01*
X226051000Y-36763000D02*
X226051000Y-39600000D01*
X226011000Y-41680000D02*
X226011000Y-44529000D01*
X226011000Y-36751000D02*
X226011000Y-39600000D01*
X225971000Y-41680000D02*
X225971000Y-44542000D01*
X225971000Y-36738000D02*
X225971000Y-39600000D01*
X225931000Y-41680000D02*
X225931000Y-44554000D01*
X225931000Y-36726000D02*
X225931000Y-39600000D01*
X225891000Y-41680000D02*
X225891000Y-44565000D01*
X225891000Y-36715000D02*
X225891000Y-39600000D01*
X225851000Y-41680000D02*
X225851000Y-44576000D01*
X225851000Y-36704000D02*
X225851000Y-39600000D01*
X225811000Y-41680000D02*
X225811000Y-44587000D01*
X225811000Y-36693000D02*
X225811000Y-39600000D01*
X225771000Y-41680000D02*
X225771000Y-44597000D01*
X225771000Y-36683000D02*
X225771000Y-39600000D01*
X225731000Y-41680000D02*
X225731000Y-44607000D01*
X225731000Y-36673000D02*
X225731000Y-39600000D01*
X225691000Y-41680000D02*
X225691000Y-44616000D01*
X225691000Y-36664000D02*
X225691000Y-39600000D01*
X225651000Y-41680000D02*
X225651000Y-44625000D01*
X225651000Y-36655000D02*
X225651000Y-39600000D01*
X225611000Y-41680000D02*
X225611000Y-44634000D01*
X225611000Y-36646000D02*
X225611000Y-39600000D01*
X225571000Y-41680000D02*
X225571000Y-44642000D01*
X225571000Y-36638000D02*
X225571000Y-39600000D01*
X225531000Y-41680000D02*
X225531000Y-44650000D01*
X225531000Y-36630000D02*
X225531000Y-39600000D01*
X225491000Y-41680000D02*
X225491000Y-44657000D01*
X225491000Y-36623000D02*
X225491000Y-39600000D01*
X225450000Y-41680000D02*
X225450000Y-44664000D01*
X225450000Y-36616000D02*
X225450000Y-39600000D01*
X225410000Y-41680000D02*
X225410000Y-44670000D01*
X225410000Y-36610000D02*
X225410000Y-39600000D01*
X225370000Y-41680000D02*
X225370000Y-44677000D01*
X225370000Y-36603000D02*
X225370000Y-39600000D01*
X225330000Y-41680000D02*
X225330000Y-44682000D01*
X225330000Y-36598000D02*
X225330000Y-39600000D01*
X225290000Y-41680000D02*
X225290000Y-44688000D01*
X225290000Y-36592000D02*
X225290000Y-39600000D01*
X225250000Y-41680000D02*
X225250000Y-44692000D01*
X225250000Y-36588000D02*
X225250000Y-39600000D01*
X225210000Y-41680000D02*
X225210000Y-44697000D01*
X225210000Y-36583000D02*
X225210000Y-39600000D01*
X225170000Y-41680000D02*
X225170000Y-44701000D01*
X225170000Y-36579000D02*
X225170000Y-39600000D01*
X225130000Y-41680000D02*
X225130000Y-44705000D01*
X225130000Y-36575000D02*
X225130000Y-39600000D01*
X225090000Y-41680000D02*
X225090000Y-44708000D01*
X225090000Y-36572000D02*
X225090000Y-39600000D01*
X225050000Y-41680000D02*
X225050000Y-44711000D01*
X225050000Y-36569000D02*
X225050000Y-39600000D01*
X225010000Y-41680000D02*
X225010000Y-44714000D01*
X225010000Y-36566000D02*
X225010000Y-39600000D01*
X224970000Y-36564000D02*
X224970000Y-44716000D01*
X224930000Y-36563000D02*
X224930000Y-44717000D01*
X224890000Y-36561000D02*
X224890000Y-44719000D01*
X224850000Y-36560000D02*
X224850000Y-44720000D01*
X224810000Y-36560000D02*
X224810000Y-44720000D01*
X224770000Y-36560000D02*
X224770000Y-44720000D01*
X228890000Y-40640000D02*
G75*
G03X228890000Y-40640000I-4120000J0D01*
G01*
D14*
X230332380Y-3343333D02*
X231046666Y-3343333D01*
X231189523Y-3390952D01*
X231284761Y-3486190D01*
X231332380Y-3629047D01*
X231332380Y-3724285D01*
X230665714Y-2438571D02*
X231332380Y-2438571D01*
X230284761Y-2676666D02*
X230999047Y-2914761D01*
X230999047Y-2295714D01*
X230332380Y-70073333D02*
X231046666Y-70073333D01*
X231189523Y-70120952D01*
X231284761Y-70216190D01*
X231332380Y-70359047D01*
X231332380Y-70454285D01*
X230332380Y-69692380D02*
X230332380Y-69073333D01*
X230713333Y-69406666D01*
X230713333Y-69263809D01*
X230760952Y-69168571D01*
X230808571Y-69120952D01*
X230903809Y-69073333D01*
X231141904Y-69073333D01*
X231237142Y-69120952D01*
X231284761Y-69168571D01*
X231332380Y-69263809D01*
X231332380Y-69549523D01*
X231284761Y-69644761D01*
X231237142Y-69692380D01*
X176252142Y-29376666D02*
X176299761Y-29424285D01*
X176347380Y-29567142D01*
X176347380Y-29662380D01*
X176299761Y-29805238D01*
X176204523Y-29900476D01*
X176109285Y-29948095D01*
X175918809Y-29995714D01*
X175775952Y-29995714D01*
X175585476Y-29948095D01*
X175490238Y-29900476D01*
X175395000Y-29805238D01*
X175347380Y-29662380D01*
X175347380Y-29567142D01*
X175395000Y-29424285D01*
X175442619Y-29376666D01*
X175347380Y-28519523D02*
X175347380Y-28710000D01*
X175395000Y-28805238D01*
X175442619Y-28852857D01*
X175585476Y-28948095D01*
X175775952Y-28995714D01*
X176156904Y-28995714D01*
X176252142Y-28948095D01*
X176299761Y-28900476D01*
X176347380Y-28805238D01*
X176347380Y-28614761D01*
X176299761Y-28519523D01*
X176252142Y-28471904D01*
X176156904Y-28424285D01*
X175918809Y-28424285D01*
X175823571Y-28471904D01*
X175775952Y-28519523D01*
X175728333Y-28614761D01*
X175728333Y-28805238D01*
X175775952Y-28900476D01*
X175823571Y-28948095D01*
X175918809Y-28995714D01*
X154747142Y-29376666D02*
X154794761Y-29424285D01*
X154842380Y-29567142D01*
X154842380Y-29662380D01*
X154794761Y-29805238D01*
X154699523Y-29900476D01*
X154604285Y-29948095D01*
X154413809Y-29995714D01*
X154270952Y-29995714D01*
X154080476Y-29948095D01*
X153985238Y-29900476D01*
X153890000Y-29805238D01*
X153842380Y-29662380D01*
X153842380Y-29567142D01*
X153890000Y-29424285D01*
X153937619Y-29376666D01*
X153842380Y-28471904D02*
X153842380Y-28948095D01*
X154318571Y-28995714D01*
X154270952Y-28948095D01*
X154223333Y-28852857D01*
X154223333Y-28614761D01*
X154270952Y-28519523D01*
X154318571Y-28471904D01*
X154413809Y-28424285D01*
X154651904Y-28424285D01*
X154747142Y-28471904D01*
X154794761Y-28519523D01*
X154842380Y-28614761D01*
X154842380Y-28852857D01*
X154794761Y-28948095D01*
X154747142Y-28995714D01*
X206722380Y2571904D02*
X207531904Y2571904D01*
X207627142Y2619523D01*
X207674761Y2667142D01*
X207722380Y2762380D01*
X207722380Y2952857D01*
X207674761Y3048095D01*
X207627142Y3095714D01*
X207531904Y3143333D01*
X206722380Y3143333D01*
X206722380Y4095714D02*
X206722380Y3619523D01*
X207198571Y3571904D01*
X207150952Y3619523D01*
X207103333Y3714761D01*
X207103333Y3952857D01*
X207150952Y4048095D01*
X207198571Y4095714D01*
X207293809Y4143333D01*
X207531904Y4143333D01*
X207627142Y4095714D01*
X207674761Y4048095D01*
X207722380Y3952857D01*
X207722380Y3714761D01*
X207674761Y3619523D01*
X207627142Y3571904D01*
X207055714Y5000476D02*
X207722380Y5000476D01*
X206674761Y4762380D02*
X207389047Y4524285D01*
X207389047Y5143333D01*
X206722380Y22891904D02*
X207531904Y22891904D01*
X207627142Y22939523D01*
X207674761Y22987142D01*
X207722380Y23082380D01*
X207722380Y23272857D01*
X207674761Y23368095D01*
X207627142Y23415714D01*
X207531904Y23463333D01*
X206722380Y23463333D01*
X206722380Y24415714D02*
X206722380Y23939523D01*
X207198571Y23891904D01*
X207150952Y23939523D01*
X207103333Y24034761D01*
X207103333Y24272857D01*
X207150952Y24368095D01*
X207198571Y24415714D01*
X207293809Y24463333D01*
X207531904Y24463333D01*
X207627142Y24415714D01*
X207674761Y24368095D01*
X207722380Y24272857D01*
X207722380Y24034761D01*
X207674761Y23939523D01*
X207627142Y23891904D01*
X206722380Y24796666D02*
X206722380Y25415714D01*
X207103333Y25082380D01*
X207103333Y25225238D01*
X207150952Y25320476D01*
X207198571Y25368095D01*
X207293809Y25415714D01*
X207531904Y25415714D01*
X207627142Y25368095D01*
X207674761Y25320476D01*
X207722380Y25225238D01*
X207722380Y24939523D01*
X207674761Y24844285D01*
X207627142Y24796666D01*
X206722380Y-7588095D02*
X207531904Y-7588095D01*
X207627142Y-7540476D01*
X207674761Y-7492857D01*
X207722380Y-7397619D01*
X207722380Y-7207142D01*
X207674761Y-7111904D01*
X207627142Y-7064285D01*
X207531904Y-7016666D01*
X206722380Y-7016666D01*
X206722380Y-6064285D02*
X206722380Y-6540476D01*
X207198571Y-6588095D01*
X207150952Y-6540476D01*
X207103333Y-6445238D01*
X207103333Y-6207142D01*
X207150952Y-6111904D01*
X207198571Y-6064285D01*
X207293809Y-6016666D01*
X207531904Y-6016666D01*
X207627142Y-6064285D01*
X207674761Y-6111904D01*
X207722380Y-6207142D01*
X207722380Y-6445238D01*
X207674761Y-6540476D01*
X207627142Y-6588095D01*
X206817619Y-5635714D02*
X206770000Y-5588095D01*
X206722380Y-5492857D01*
X206722380Y-5254761D01*
X206770000Y-5159523D01*
X206817619Y-5111904D01*
X206912857Y-5064285D01*
X207008095Y-5064285D01*
X207150952Y-5111904D01*
X207722380Y-5683333D01*
X207722380Y-5064285D01*
X206722380Y12731904D02*
X207531904Y12731904D01*
X207627142Y12779523D01*
X207674761Y12827142D01*
X207722380Y12922380D01*
X207722380Y13112857D01*
X207674761Y13208095D01*
X207627142Y13255714D01*
X207531904Y13303333D01*
X206722380Y13303333D01*
X206722380Y14255714D02*
X206722380Y13779523D01*
X207198571Y13731904D01*
X207150952Y13779523D01*
X207103333Y13874761D01*
X207103333Y14112857D01*
X207150952Y14208095D01*
X207198571Y14255714D01*
X207293809Y14303333D01*
X207531904Y14303333D01*
X207627142Y14255714D01*
X207674761Y14208095D01*
X207722380Y14112857D01*
X207722380Y13874761D01*
X207674761Y13779523D01*
X207627142Y13731904D01*
X207722380Y15255714D02*
X207722380Y14684285D01*
X207722380Y14970000D02*
X206722380Y14970000D01*
X206865238Y14874761D01*
X206960476Y14779523D01*
X207008095Y14684285D01*
X200372380Y2571904D02*
X201181904Y2571904D01*
X201277142Y2619523D01*
X201324761Y2667142D01*
X201372380Y2762380D01*
X201372380Y2952857D01*
X201324761Y3048095D01*
X201277142Y3095714D01*
X201181904Y3143333D01*
X200372380Y3143333D01*
X200372380Y4095714D02*
X200372380Y3619523D01*
X200848571Y3571904D01*
X200800952Y3619523D01*
X200753333Y3714761D01*
X200753333Y3952857D01*
X200800952Y4048095D01*
X200848571Y4095714D01*
X200943809Y4143333D01*
X201181904Y4143333D01*
X201277142Y4095714D01*
X201324761Y4048095D01*
X201372380Y3952857D01*
X201372380Y3714761D01*
X201324761Y3619523D01*
X201277142Y3571904D01*
X200372380Y4762380D02*
X200372380Y4857619D01*
X200420000Y4952857D01*
X200467619Y5000476D01*
X200562857Y5048095D01*
X200753333Y5095714D01*
X200991428Y5095714D01*
X201181904Y5048095D01*
X201277142Y5000476D01*
X201324761Y4952857D01*
X201372380Y4857619D01*
X201372380Y4762380D01*
X201324761Y4667142D01*
X201277142Y4619523D01*
X201181904Y4571904D01*
X200991428Y4524285D01*
X200753333Y4524285D01*
X200562857Y4571904D01*
X200467619Y4619523D01*
X200420000Y4667142D01*
X200372380Y4762380D01*
X200372380Y22891904D02*
X201181904Y22891904D01*
X201277142Y22939523D01*
X201324761Y22987142D01*
X201372380Y23082380D01*
X201372380Y23272857D01*
X201324761Y23368095D01*
X201277142Y23415714D01*
X201181904Y23463333D01*
X200372380Y23463333D01*
X200705714Y24368095D02*
X201372380Y24368095D01*
X200324761Y24130000D02*
X201039047Y23891904D01*
X201039047Y24510952D01*
X201372380Y24939523D02*
X201372380Y25130000D01*
X201324761Y25225238D01*
X201277142Y25272857D01*
X201134285Y25368095D01*
X200943809Y25415714D01*
X200562857Y25415714D01*
X200467619Y25368095D01*
X200420000Y25320476D01*
X200372380Y25225238D01*
X200372380Y25034761D01*
X200420000Y24939523D01*
X200467619Y24891904D01*
X200562857Y24844285D01*
X200800952Y24844285D01*
X200896190Y24891904D01*
X200943809Y24939523D01*
X200991428Y25034761D01*
X200991428Y25225238D01*
X200943809Y25320476D01*
X200896190Y25368095D01*
X200800952Y25415714D01*
X200372380Y-7588095D02*
X201181904Y-7588095D01*
X201277142Y-7540476D01*
X201324761Y-7492857D01*
X201372380Y-7397619D01*
X201372380Y-7207142D01*
X201324761Y-7111904D01*
X201277142Y-7064285D01*
X201181904Y-7016666D01*
X200372380Y-7016666D01*
X200705714Y-6111904D02*
X201372380Y-6111904D01*
X200324761Y-6350000D02*
X201039047Y-6588095D01*
X201039047Y-5969047D01*
X200800952Y-5445238D02*
X200753333Y-5540476D01*
X200705714Y-5588095D01*
X200610476Y-5635714D01*
X200562857Y-5635714D01*
X200467619Y-5588095D01*
X200420000Y-5540476D01*
X200372380Y-5445238D01*
X200372380Y-5254761D01*
X200420000Y-5159523D01*
X200467619Y-5111904D01*
X200562857Y-5064285D01*
X200610476Y-5064285D01*
X200705714Y-5111904D01*
X200753333Y-5159523D01*
X200800952Y-5254761D01*
X200800952Y-5445238D01*
X200848571Y-5540476D01*
X200896190Y-5588095D01*
X200991428Y-5635714D01*
X201181904Y-5635714D01*
X201277142Y-5588095D01*
X201324761Y-5540476D01*
X201372380Y-5445238D01*
X201372380Y-5254761D01*
X201324761Y-5159523D01*
X201277142Y-5111904D01*
X201181904Y-5064285D01*
X200991428Y-5064285D01*
X200896190Y-5111904D01*
X200848571Y-5159523D01*
X200800952Y-5254761D01*
X200372380Y12731904D02*
X201181904Y12731904D01*
X201277142Y12779523D01*
X201324761Y12827142D01*
X201372380Y12922380D01*
X201372380Y13112857D01*
X201324761Y13208095D01*
X201277142Y13255714D01*
X201181904Y13303333D01*
X200372380Y13303333D01*
X200705714Y14208095D02*
X201372380Y14208095D01*
X200324761Y13970000D02*
X201039047Y13731904D01*
X201039047Y14350952D01*
X200372380Y14636666D02*
X200372380Y15303333D01*
X201372380Y14874761D01*
X194022380Y2571904D02*
X194831904Y2571904D01*
X194927142Y2619523D01*
X194974761Y2667142D01*
X195022380Y2762380D01*
X195022380Y2952857D01*
X194974761Y3048095D01*
X194927142Y3095714D01*
X194831904Y3143333D01*
X194022380Y3143333D01*
X194355714Y4048095D02*
X195022380Y4048095D01*
X193974761Y3810000D02*
X194689047Y3571904D01*
X194689047Y4190952D01*
X194022380Y5000476D02*
X194022380Y4810000D01*
X194070000Y4714761D01*
X194117619Y4667142D01*
X194260476Y4571904D01*
X194450952Y4524285D01*
X194831904Y4524285D01*
X194927142Y4571904D01*
X194974761Y4619523D01*
X195022380Y4714761D01*
X195022380Y4905238D01*
X194974761Y5000476D01*
X194927142Y5048095D01*
X194831904Y5095714D01*
X194593809Y5095714D01*
X194498571Y5048095D01*
X194450952Y5000476D01*
X194403333Y4905238D01*
X194403333Y4714761D01*
X194450952Y4619523D01*
X194498571Y4571904D01*
X194593809Y4524285D01*
X194022380Y22891904D02*
X194831904Y22891904D01*
X194927142Y22939523D01*
X194974761Y22987142D01*
X195022380Y23082380D01*
X195022380Y23272857D01*
X194974761Y23368095D01*
X194927142Y23415714D01*
X194831904Y23463333D01*
X194022380Y23463333D01*
X194355714Y24368095D02*
X195022380Y24368095D01*
X193974761Y24130000D02*
X194689047Y23891904D01*
X194689047Y24510952D01*
X194022380Y25368095D02*
X194022380Y24891904D01*
X194498571Y24844285D01*
X194450952Y24891904D01*
X194403333Y24987142D01*
X194403333Y25225238D01*
X194450952Y25320476D01*
X194498571Y25368095D01*
X194593809Y25415714D01*
X194831904Y25415714D01*
X194927142Y25368095D01*
X194974761Y25320476D01*
X195022380Y25225238D01*
X195022380Y24987142D01*
X194974761Y24891904D01*
X194927142Y24844285D01*
X194022380Y-7588095D02*
X194831904Y-7588095D01*
X194927142Y-7540476D01*
X194974761Y-7492857D01*
X195022380Y-7397619D01*
X195022380Y-7207142D01*
X194974761Y-7111904D01*
X194927142Y-7064285D01*
X194831904Y-7016666D01*
X194022380Y-7016666D01*
X194355714Y-6111904D02*
X195022380Y-6111904D01*
X193974761Y-6350000D02*
X194689047Y-6588095D01*
X194689047Y-5969047D01*
X194355714Y-5159523D02*
X195022380Y-5159523D01*
X193974761Y-5397619D02*
X194689047Y-5635714D01*
X194689047Y-5016666D01*
X194022380Y12731904D02*
X194831904Y12731904D01*
X194927142Y12779523D01*
X194974761Y12827142D01*
X195022380Y12922380D01*
X195022380Y13112857D01*
X194974761Y13208095D01*
X194927142Y13255714D01*
X194831904Y13303333D01*
X194022380Y13303333D01*
X194355714Y14208095D02*
X195022380Y14208095D01*
X193974761Y13970000D02*
X194689047Y13731904D01*
X194689047Y14350952D01*
X194022380Y14636666D02*
X194022380Y15255714D01*
X194403333Y14922380D01*
X194403333Y15065238D01*
X194450952Y15160476D01*
X194498571Y15208095D01*
X194593809Y15255714D01*
X194831904Y15255714D01*
X194927142Y15208095D01*
X194974761Y15160476D01*
X195022380Y15065238D01*
X195022380Y14779523D01*
X194974761Y14684285D01*
X194927142Y14636666D01*
X187672380Y2571904D02*
X188481904Y2571904D01*
X188577142Y2619523D01*
X188624761Y2667142D01*
X188672380Y2762380D01*
X188672380Y2952857D01*
X188624761Y3048095D01*
X188577142Y3095714D01*
X188481904Y3143333D01*
X187672380Y3143333D01*
X188005714Y4048095D02*
X188672380Y4048095D01*
X187624761Y3810000D02*
X188339047Y3571904D01*
X188339047Y4190952D01*
X187767619Y4524285D02*
X187720000Y4571904D01*
X187672380Y4667142D01*
X187672380Y4905238D01*
X187720000Y5000476D01*
X187767619Y5048095D01*
X187862857Y5095714D01*
X187958095Y5095714D01*
X188100952Y5048095D01*
X188672380Y4476666D01*
X188672380Y5095714D01*
X187672380Y22891904D02*
X188481904Y22891904D01*
X188577142Y22939523D01*
X188624761Y22987142D01*
X188672380Y23082380D01*
X188672380Y23272857D01*
X188624761Y23368095D01*
X188577142Y23415714D01*
X188481904Y23463333D01*
X187672380Y23463333D01*
X188005714Y24368095D02*
X188672380Y24368095D01*
X187624761Y24130000D02*
X188339047Y23891904D01*
X188339047Y24510952D01*
X188672380Y25415714D02*
X188672380Y24844285D01*
X188672380Y25130000D02*
X187672380Y25130000D01*
X187815238Y25034761D01*
X187910476Y24939523D01*
X187958095Y24844285D01*
X187672380Y-7588095D02*
X188481904Y-7588095D01*
X188577142Y-7540476D01*
X188624761Y-7492857D01*
X188672380Y-7397619D01*
X188672380Y-7207142D01*
X188624761Y-7111904D01*
X188577142Y-7064285D01*
X188481904Y-7016666D01*
X187672380Y-7016666D01*
X188005714Y-6111904D02*
X188672380Y-6111904D01*
X187624761Y-6350000D02*
X188339047Y-6588095D01*
X188339047Y-5969047D01*
X187672380Y-5397619D02*
X187672380Y-5302380D01*
X187720000Y-5207142D01*
X187767619Y-5159523D01*
X187862857Y-5111904D01*
X188053333Y-5064285D01*
X188291428Y-5064285D01*
X188481904Y-5111904D01*
X188577142Y-5159523D01*
X188624761Y-5207142D01*
X188672380Y-5302380D01*
X188672380Y-5397619D01*
X188624761Y-5492857D01*
X188577142Y-5540476D01*
X188481904Y-5588095D01*
X188291428Y-5635714D01*
X188053333Y-5635714D01*
X187862857Y-5588095D01*
X187767619Y-5540476D01*
X187720000Y-5492857D01*
X187672380Y-5397619D01*
X187672380Y12731904D02*
X188481904Y12731904D01*
X188577142Y12779523D01*
X188624761Y12827142D01*
X188672380Y12922380D01*
X188672380Y13112857D01*
X188624761Y13208095D01*
X188577142Y13255714D01*
X188481904Y13303333D01*
X187672380Y13303333D01*
X187672380Y13684285D02*
X187672380Y14303333D01*
X188053333Y13970000D01*
X188053333Y14112857D01*
X188100952Y14208095D01*
X188148571Y14255714D01*
X188243809Y14303333D01*
X188481904Y14303333D01*
X188577142Y14255714D01*
X188624761Y14208095D01*
X188672380Y14112857D01*
X188672380Y13827142D01*
X188624761Y13731904D01*
X188577142Y13684285D01*
X188672380Y14779523D02*
X188672380Y14970000D01*
X188624761Y15065238D01*
X188577142Y15112857D01*
X188434285Y15208095D01*
X188243809Y15255714D01*
X187862857Y15255714D01*
X187767619Y15208095D01*
X187720000Y15160476D01*
X187672380Y15065238D01*
X187672380Y14874761D01*
X187720000Y14779523D01*
X187767619Y14731904D01*
X187862857Y14684285D01*
X188100952Y14684285D01*
X188196190Y14731904D01*
X188243809Y14779523D01*
X188291428Y14874761D01*
X188291428Y15065238D01*
X188243809Y15160476D01*
X188196190Y15208095D01*
X188100952Y15255714D01*
X187672380Y-27908095D02*
X188481904Y-27908095D01*
X188577142Y-27860476D01*
X188624761Y-27812857D01*
X188672380Y-27717619D01*
X188672380Y-27527142D01*
X188624761Y-27431904D01*
X188577142Y-27384285D01*
X188481904Y-27336666D01*
X187672380Y-27336666D01*
X187672380Y-26955714D02*
X187672380Y-26336666D01*
X188053333Y-26670000D01*
X188053333Y-26527142D01*
X188100952Y-26431904D01*
X188148571Y-26384285D01*
X188243809Y-26336666D01*
X188481904Y-26336666D01*
X188577142Y-26384285D01*
X188624761Y-26431904D01*
X188672380Y-26527142D01*
X188672380Y-26812857D01*
X188624761Y-26908095D01*
X188577142Y-26955714D01*
X188100952Y-25765238D02*
X188053333Y-25860476D01*
X188005714Y-25908095D01*
X187910476Y-25955714D01*
X187862857Y-25955714D01*
X187767619Y-25908095D01*
X187720000Y-25860476D01*
X187672380Y-25765238D01*
X187672380Y-25574761D01*
X187720000Y-25479523D01*
X187767619Y-25431904D01*
X187862857Y-25384285D01*
X187910476Y-25384285D01*
X188005714Y-25431904D01*
X188053333Y-25479523D01*
X188100952Y-25574761D01*
X188100952Y-25765238D01*
X188148571Y-25860476D01*
X188196190Y-25908095D01*
X188291428Y-25955714D01*
X188481904Y-25955714D01*
X188577142Y-25908095D01*
X188624761Y-25860476D01*
X188672380Y-25765238D01*
X188672380Y-25574761D01*
X188624761Y-25479523D01*
X188577142Y-25431904D01*
X188481904Y-25384285D01*
X188291428Y-25384285D01*
X188196190Y-25431904D01*
X188148571Y-25479523D01*
X188100952Y-25574761D01*
X187672380Y-48228095D02*
X188481904Y-48228095D01*
X188577142Y-48180476D01*
X188624761Y-48132857D01*
X188672380Y-48037619D01*
X188672380Y-47847142D01*
X188624761Y-47751904D01*
X188577142Y-47704285D01*
X188481904Y-47656666D01*
X187672380Y-47656666D01*
X187672380Y-47275714D02*
X187672380Y-46656666D01*
X188053333Y-46990000D01*
X188053333Y-46847142D01*
X188100952Y-46751904D01*
X188148571Y-46704285D01*
X188243809Y-46656666D01*
X188481904Y-46656666D01*
X188577142Y-46704285D01*
X188624761Y-46751904D01*
X188672380Y-46847142D01*
X188672380Y-47132857D01*
X188624761Y-47228095D01*
X188577142Y-47275714D01*
X187672380Y-46323333D02*
X187672380Y-45656666D01*
X188672380Y-46085238D01*
X219422380Y-83153095D02*
X220231904Y-83153095D01*
X220327142Y-83105476D01*
X220374761Y-83057857D01*
X220422380Y-82962619D01*
X220422380Y-82772142D01*
X220374761Y-82676904D01*
X220327142Y-82629285D01*
X220231904Y-82581666D01*
X219422380Y-82581666D01*
X219422380Y-82200714D02*
X219422380Y-81581666D01*
X219803333Y-81915000D01*
X219803333Y-81772142D01*
X219850952Y-81676904D01*
X219898571Y-81629285D01*
X219993809Y-81581666D01*
X220231904Y-81581666D01*
X220327142Y-81629285D01*
X220374761Y-81676904D01*
X220422380Y-81772142D01*
X220422380Y-82057857D01*
X220374761Y-82153095D01*
X220327142Y-82200714D01*
X219422380Y-80724523D02*
X219422380Y-80915000D01*
X219470000Y-81010238D01*
X219517619Y-81057857D01*
X219660476Y-81153095D01*
X219850952Y-81200714D01*
X220231904Y-81200714D01*
X220327142Y-81153095D01*
X220374761Y-81105476D01*
X220422380Y-81010238D01*
X220422380Y-80819761D01*
X220374761Y-80724523D01*
X220327142Y-80676904D01*
X220231904Y-80629285D01*
X219993809Y-80629285D01*
X219898571Y-80676904D01*
X219850952Y-80724523D01*
X219803333Y-80819761D01*
X219803333Y-81010238D01*
X219850952Y-81105476D01*
X219898571Y-81153095D01*
X219993809Y-81200714D01*
X187672380Y-38068095D02*
X188481904Y-38068095D01*
X188577142Y-38020476D01*
X188624761Y-37972857D01*
X188672380Y-37877619D01*
X188672380Y-37687142D01*
X188624761Y-37591904D01*
X188577142Y-37544285D01*
X188481904Y-37496666D01*
X187672380Y-37496666D01*
X187672380Y-37115714D02*
X187672380Y-36496666D01*
X188053333Y-36830000D01*
X188053333Y-36687142D01*
X188100952Y-36591904D01*
X188148571Y-36544285D01*
X188243809Y-36496666D01*
X188481904Y-36496666D01*
X188577142Y-36544285D01*
X188624761Y-36591904D01*
X188672380Y-36687142D01*
X188672380Y-36972857D01*
X188624761Y-37068095D01*
X188577142Y-37115714D01*
X187672380Y-35591904D02*
X187672380Y-36068095D01*
X188148571Y-36115714D01*
X188100952Y-36068095D01*
X188053333Y-35972857D01*
X188053333Y-35734761D01*
X188100952Y-35639523D01*
X188148571Y-35591904D01*
X188243809Y-35544285D01*
X188481904Y-35544285D01*
X188577142Y-35591904D01*
X188624761Y-35639523D01*
X188672380Y-35734761D01*
X188672380Y-35972857D01*
X188624761Y-36068095D01*
X188577142Y-36115714D01*
X194022380Y-27908095D02*
X194831904Y-27908095D01*
X194927142Y-27860476D01*
X194974761Y-27812857D01*
X195022380Y-27717619D01*
X195022380Y-27527142D01*
X194974761Y-27431904D01*
X194927142Y-27384285D01*
X194831904Y-27336666D01*
X194022380Y-27336666D01*
X194022380Y-26955714D02*
X194022380Y-26336666D01*
X194403333Y-26670000D01*
X194403333Y-26527142D01*
X194450952Y-26431904D01*
X194498571Y-26384285D01*
X194593809Y-26336666D01*
X194831904Y-26336666D01*
X194927142Y-26384285D01*
X194974761Y-26431904D01*
X195022380Y-26527142D01*
X195022380Y-26812857D01*
X194974761Y-26908095D01*
X194927142Y-26955714D01*
X194355714Y-25479523D02*
X195022380Y-25479523D01*
X193974761Y-25717619D02*
X194689047Y-25955714D01*
X194689047Y-25336666D01*
X194022380Y-48228095D02*
X194831904Y-48228095D01*
X194927142Y-48180476D01*
X194974761Y-48132857D01*
X195022380Y-48037619D01*
X195022380Y-47847142D01*
X194974761Y-47751904D01*
X194927142Y-47704285D01*
X194831904Y-47656666D01*
X194022380Y-47656666D01*
X194022380Y-47275714D02*
X194022380Y-46656666D01*
X194403333Y-46990000D01*
X194403333Y-46847142D01*
X194450952Y-46751904D01*
X194498571Y-46704285D01*
X194593809Y-46656666D01*
X194831904Y-46656666D01*
X194927142Y-46704285D01*
X194974761Y-46751904D01*
X195022380Y-46847142D01*
X195022380Y-47132857D01*
X194974761Y-47228095D01*
X194927142Y-47275714D01*
X194022380Y-46323333D02*
X194022380Y-45704285D01*
X194403333Y-46037619D01*
X194403333Y-45894761D01*
X194450952Y-45799523D01*
X194498571Y-45751904D01*
X194593809Y-45704285D01*
X194831904Y-45704285D01*
X194927142Y-45751904D01*
X194974761Y-45799523D01*
X195022380Y-45894761D01*
X195022380Y-46180476D01*
X194974761Y-46275714D01*
X194927142Y-46323333D01*
X194022380Y-17748095D02*
X194831904Y-17748095D01*
X194927142Y-17700476D01*
X194974761Y-17652857D01*
X195022380Y-17557619D01*
X195022380Y-17367142D01*
X194974761Y-17271904D01*
X194927142Y-17224285D01*
X194831904Y-17176666D01*
X194022380Y-17176666D01*
X194022380Y-16795714D02*
X194022380Y-16176666D01*
X194403333Y-16510000D01*
X194403333Y-16367142D01*
X194450952Y-16271904D01*
X194498571Y-16224285D01*
X194593809Y-16176666D01*
X194831904Y-16176666D01*
X194927142Y-16224285D01*
X194974761Y-16271904D01*
X195022380Y-16367142D01*
X195022380Y-16652857D01*
X194974761Y-16748095D01*
X194927142Y-16795714D01*
X194117619Y-15795714D02*
X194070000Y-15748095D01*
X194022380Y-15652857D01*
X194022380Y-15414761D01*
X194070000Y-15319523D01*
X194117619Y-15271904D01*
X194212857Y-15224285D01*
X194308095Y-15224285D01*
X194450952Y-15271904D01*
X195022380Y-15843333D01*
X195022380Y-15224285D01*
X194022380Y-38068095D02*
X194831904Y-38068095D01*
X194927142Y-38020476D01*
X194974761Y-37972857D01*
X195022380Y-37877619D01*
X195022380Y-37687142D01*
X194974761Y-37591904D01*
X194927142Y-37544285D01*
X194831904Y-37496666D01*
X194022380Y-37496666D01*
X194022380Y-37115714D02*
X194022380Y-36496666D01*
X194403333Y-36830000D01*
X194403333Y-36687142D01*
X194450952Y-36591904D01*
X194498571Y-36544285D01*
X194593809Y-36496666D01*
X194831904Y-36496666D01*
X194927142Y-36544285D01*
X194974761Y-36591904D01*
X195022380Y-36687142D01*
X195022380Y-36972857D01*
X194974761Y-37068095D01*
X194927142Y-37115714D01*
X195022380Y-35544285D02*
X195022380Y-36115714D01*
X195022380Y-35830000D02*
X194022380Y-35830000D01*
X194165238Y-35925238D01*
X194260476Y-36020476D01*
X194308095Y-36115714D01*
X200372380Y-27908095D02*
X201181904Y-27908095D01*
X201277142Y-27860476D01*
X201324761Y-27812857D01*
X201372380Y-27717619D01*
X201372380Y-27527142D01*
X201324761Y-27431904D01*
X201277142Y-27384285D01*
X201181904Y-27336666D01*
X200372380Y-27336666D01*
X200372380Y-26955714D02*
X200372380Y-26336666D01*
X200753333Y-26670000D01*
X200753333Y-26527142D01*
X200800952Y-26431904D01*
X200848571Y-26384285D01*
X200943809Y-26336666D01*
X201181904Y-26336666D01*
X201277142Y-26384285D01*
X201324761Y-26431904D01*
X201372380Y-26527142D01*
X201372380Y-26812857D01*
X201324761Y-26908095D01*
X201277142Y-26955714D01*
X200372380Y-25717619D02*
X200372380Y-25622380D01*
X200420000Y-25527142D01*
X200467619Y-25479523D01*
X200562857Y-25431904D01*
X200753333Y-25384285D01*
X200991428Y-25384285D01*
X201181904Y-25431904D01*
X201277142Y-25479523D01*
X201324761Y-25527142D01*
X201372380Y-25622380D01*
X201372380Y-25717619D01*
X201324761Y-25812857D01*
X201277142Y-25860476D01*
X201181904Y-25908095D01*
X200991428Y-25955714D01*
X200753333Y-25955714D01*
X200562857Y-25908095D01*
X200467619Y-25860476D01*
X200420000Y-25812857D01*
X200372380Y-25717619D01*
X200372380Y-48228095D02*
X201181904Y-48228095D01*
X201277142Y-48180476D01*
X201324761Y-48132857D01*
X201372380Y-48037619D01*
X201372380Y-47847142D01*
X201324761Y-47751904D01*
X201277142Y-47704285D01*
X201181904Y-47656666D01*
X200372380Y-47656666D01*
X200467619Y-47228095D02*
X200420000Y-47180476D01*
X200372380Y-47085238D01*
X200372380Y-46847142D01*
X200420000Y-46751904D01*
X200467619Y-46704285D01*
X200562857Y-46656666D01*
X200658095Y-46656666D01*
X200800952Y-46704285D01*
X201372380Y-47275714D01*
X201372380Y-46656666D01*
X201372380Y-46180476D02*
X201372380Y-45990000D01*
X201324761Y-45894761D01*
X201277142Y-45847142D01*
X201134285Y-45751904D01*
X200943809Y-45704285D01*
X200562857Y-45704285D01*
X200467619Y-45751904D01*
X200420000Y-45799523D01*
X200372380Y-45894761D01*
X200372380Y-46085238D01*
X200420000Y-46180476D01*
X200467619Y-46228095D01*
X200562857Y-46275714D01*
X200800952Y-46275714D01*
X200896190Y-46228095D01*
X200943809Y-46180476D01*
X200991428Y-46085238D01*
X200991428Y-45894761D01*
X200943809Y-45799523D01*
X200896190Y-45751904D01*
X200800952Y-45704285D01*
X200372380Y-17748095D02*
X201181904Y-17748095D01*
X201277142Y-17700476D01*
X201324761Y-17652857D01*
X201372380Y-17557619D01*
X201372380Y-17367142D01*
X201324761Y-17271904D01*
X201277142Y-17224285D01*
X201181904Y-17176666D01*
X200372380Y-17176666D01*
X200467619Y-16748095D02*
X200420000Y-16700476D01*
X200372380Y-16605238D01*
X200372380Y-16367142D01*
X200420000Y-16271904D01*
X200467619Y-16224285D01*
X200562857Y-16176666D01*
X200658095Y-16176666D01*
X200800952Y-16224285D01*
X201372380Y-16795714D01*
X201372380Y-16176666D01*
X200800952Y-15605238D02*
X200753333Y-15700476D01*
X200705714Y-15748095D01*
X200610476Y-15795714D01*
X200562857Y-15795714D01*
X200467619Y-15748095D01*
X200420000Y-15700476D01*
X200372380Y-15605238D01*
X200372380Y-15414761D01*
X200420000Y-15319523D01*
X200467619Y-15271904D01*
X200562857Y-15224285D01*
X200610476Y-15224285D01*
X200705714Y-15271904D01*
X200753333Y-15319523D01*
X200800952Y-15414761D01*
X200800952Y-15605238D01*
X200848571Y-15700476D01*
X200896190Y-15748095D01*
X200991428Y-15795714D01*
X201181904Y-15795714D01*
X201277142Y-15748095D01*
X201324761Y-15700476D01*
X201372380Y-15605238D01*
X201372380Y-15414761D01*
X201324761Y-15319523D01*
X201277142Y-15271904D01*
X201181904Y-15224285D01*
X200991428Y-15224285D01*
X200896190Y-15271904D01*
X200848571Y-15319523D01*
X200800952Y-15414761D01*
X200372380Y-38068095D02*
X201181904Y-38068095D01*
X201277142Y-38020476D01*
X201324761Y-37972857D01*
X201372380Y-37877619D01*
X201372380Y-37687142D01*
X201324761Y-37591904D01*
X201277142Y-37544285D01*
X201181904Y-37496666D01*
X200372380Y-37496666D01*
X200467619Y-37068095D02*
X200420000Y-37020476D01*
X200372380Y-36925238D01*
X200372380Y-36687142D01*
X200420000Y-36591904D01*
X200467619Y-36544285D01*
X200562857Y-36496666D01*
X200658095Y-36496666D01*
X200800952Y-36544285D01*
X201372380Y-37115714D01*
X201372380Y-36496666D01*
X200372380Y-36163333D02*
X200372380Y-35496666D01*
X201372380Y-35925238D01*
X206722380Y-27908095D02*
X207531904Y-27908095D01*
X207627142Y-27860476D01*
X207674761Y-27812857D01*
X207722380Y-27717619D01*
X207722380Y-27527142D01*
X207674761Y-27431904D01*
X207627142Y-27384285D01*
X207531904Y-27336666D01*
X206722380Y-27336666D01*
X206817619Y-26908095D02*
X206770000Y-26860476D01*
X206722380Y-26765238D01*
X206722380Y-26527142D01*
X206770000Y-26431904D01*
X206817619Y-26384285D01*
X206912857Y-26336666D01*
X207008095Y-26336666D01*
X207150952Y-26384285D01*
X207722380Y-26955714D01*
X207722380Y-26336666D01*
X206722380Y-25479523D02*
X206722380Y-25670000D01*
X206770000Y-25765238D01*
X206817619Y-25812857D01*
X206960476Y-25908095D01*
X207150952Y-25955714D01*
X207531904Y-25955714D01*
X207627142Y-25908095D01*
X207674761Y-25860476D01*
X207722380Y-25765238D01*
X207722380Y-25574761D01*
X207674761Y-25479523D01*
X207627142Y-25431904D01*
X207531904Y-25384285D01*
X207293809Y-25384285D01*
X207198571Y-25431904D01*
X207150952Y-25479523D01*
X207103333Y-25574761D01*
X207103333Y-25765238D01*
X207150952Y-25860476D01*
X207198571Y-25908095D01*
X207293809Y-25955714D01*
X206722380Y-48228095D02*
X207531904Y-48228095D01*
X207627142Y-48180476D01*
X207674761Y-48132857D01*
X207722380Y-48037619D01*
X207722380Y-47847142D01*
X207674761Y-47751904D01*
X207627142Y-47704285D01*
X207531904Y-47656666D01*
X206722380Y-47656666D01*
X206817619Y-47228095D02*
X206770000Y-47180476D01*
X206722380Y-47085238D01*
X206722380Y-46847142D01*
X206770000Y-46751904D01*
X206817619Y-46704285D01*
X206912857Y-46656666D01*
X207008095Y-46656666D01*
X207150952Y-46704285D01*
X207722380Y-47275714D01*
X207722380Y-46656666D01*
X206722380Y-45751904D02*
X206722380Y-46228095D01*
X207198571Y-46275714D01*
X207150952Y-46228095D01*
X207103333Y-46132857D01*
X207103333Y-45894761D01*
X207150952Y-45799523D01*
X207198571Y-45751904D01*
X207293809Y-45704285D01*
X207531904Y-45704285D01*
X207627142Y-45751904D01*
X207674761Y-45799523D01*
X207722380Y-45894761D01*
X207722380Y-46132857D01*
X207674761Y-46228095D01*
X207627142Y-46275714D01*
X206722380Y-17748095D02*
X207531904Y-17748095D01*
X207627142Y-17700476D01*
X207674761Y-17652857D01*
X207722380Y-17557619D01*
X207722380Y-17367142D01*
X207674761Y-17271904D01*
X207627142Y-17224285D01*
X207531904Y-17176666D01*
X206722380Y-17176666D01*
X206817619Y-16748095D02*
X206770000Y-16700476D01*
X206722380Y-16605238D01*
X206722380Y-16367142D01*
X206770000Y-16271904D01*
X206817619Y-16224285D01*
X206912857Y-16176666D01*
X207008095Y-16176666D01*
X207150952Y-16224285D01*
X207722380Y-16795714D01*
X207722380Y-16176666D01*
X207055714Y-15319523D02*
X207722380Y-15319523D01*
X206674761Y-15557619D02*
X207389047Y-15795714D01*
X207389047Y-15176666D01*
X206722380Y-38068095D02*
X207531904Y-38068095D01*
X207627142Y-38020476D01*
X207674761Y-37972857D01*
X207722380Y-37877619D01*
X207722380Y-37687142D01*
X207674761Y-37591904D01*
X207627142Y-37544285D01*
X207531904Y-37496666D01*
X206722380Y-37496666D01*
X206817619Y-37068095D02*
X206770000Y-37020476D01*
X206722380Y-36925238D01*
X206722380Y-36687142D01*
X206770000Y-36591904D01*
X206817619Y-36544285D01*
X206912857Y-36496666D01*
X207008095Y-36496666D01*
X207150952Y-36544285D01*
X207722380Y-37115714D01*
X207722380Y-36496666D01*
X206722380Y-36163333D02*
X206722380Y-35544285D01*
X207103333Y-35877619D01*
X207103333Y-35734761D01*
X207150952Y-35639523D01*
X207198571Y-35591904D01*
X207293809Y-35544285D01*
X207531904Y-35544285D01*
X207627142Y-35591904D01*
X207674761Y-35639523D01*
X207722380Y-35734761D01*
X207722380Y-36020476D01*
X207674761Y-36115714D01*
X207627142Y-36163333D01*
X187672380Y-68548095D02*
X188481904Y-68548095D01*
X188577142Y-68500476D01*
X188624761Y-68452857D01*
X188672380Y-68357619D01*
X188672380Y-68167142D01*
X188624761Y-68071904D01*
X188577142Y-68024285D01*
X188481904Y-67976666D01*
X187672380Y-67976666D01*
X187767619Y-67548095D02*
X187720000Y-67500476D01*
X187672380Y-67405238D01*
X187672380Y-67167142D01*
X187720000Y-67071904D01*
X187767619Y-67024285D01*
X187862857Y-66976666D01*
X187958095Y-66976666D01*
X188100952Y-67024285D01*
X188672380Y-67595714D01*
X188672380Y-66976666D01*
X187767619Y-66595714D02*
X187720000Y-66548095D01*
X187672380Y-66452857D01*
X187672380Y-66214761D01*
X187720000Y-66119523D01*
X187767619Y-66071904D01*
X187862857Y-66024285D01*
X187958095Y-66024285D01*
X188100952Y-66071904D01*
X188672380Y-66643333D01*
X188672380Y-66024285D01*
X187672380Y-88868095D02*
X188481904Y-88868095D01*
X188577142Y-88820476D01*
X188624761Y-88772857D01*
X188672380Y-88677619D01*
X188672380Y-88487142D01*
X188624761Y-88391904D01*
X188577142Y-88344285D01*
X188481904Y-88296666D01*
X187672380Y-88296666D01*
X187767619Y-87868095D02*
X187720000Y-87820476D01*
X187672380Y-87725238D01*
X187672380Y-87487142D01*
X187720000Y-87391904D01*
X187767619Y-87344285D01*
X187862857Y-87296666D01*
X187958095Y-87296666D01*
X188100952Y-87344285D01*
X188672380Y-87915714D01*
X188672380Y-87296666D01*
X188672380Y-86344285D02*
X188672380Y-86915714D01*
X188672380Y-86630000D02*
X187672380Y-86630000D01*
X187815238Y-86725238D01*
X187910476Y-86820476D01*
X187958095Y-86915714D01*
X187672380Y-58388095D02*
X188481904Y-58388095D01*
X188577142Y-58340476D01*
X188624761Y-58292857D01*
X188672380Y-58197619D01*
X188672380Y-58007142D01*
X188624761Y-57911904D01*
X188577142Y-57864285D01*
X188481904Y-57816666D01*
X187672380Y-57816666D01*
X187767619Y-57388095D02*
X187720000Y-57340476D01*
X187672380Y-57245238D01*
X187672380Y-57007142D01*
X187720000Y-56911904D01*
X187767619Y-56864285D01*
X187862857Y-56816666D01*
X187958095Y-56816666D01*
X188100952Y-56864285D01*
X188672380Y-57435714D01*
X188672380Y-56816666D01*
X187672380Y-56197619D02*
X187672380Y-56102380D01*
X187720000Y-56007142D01*
X187767619Y-55959523D01*
X187862857Y-55911904D01*
X188053333Y-55864285D01*
X188291428Y-55864285D01*
X188481904Y-55911904D01*
X188577142Y-55959523D01*
X188624761Y-56007142D01*
X188672380Y-56102380D01*
X188672380Y-56197619D01*
X188624761Y-56292857D01*
X188577142Y-56340476D01*
X188481904Y-56388095D01*
X188291428Y-56435714D01*
X188053333Y-56435714D01*
X187862857Y-56388095D01*
X187767619Y-56340476D01*
X187720000Y-56292857D01*
X187672380Y-56197619D01*
X187672380Y-78708095D02*
X188481904Y-78708095D01*
X188577142Y-78660476D01*
X188624761Y-78612857D01*
X188672380Y-78517619D01*
X188672380Y-78327142D01*
X188624761Y-78231904D01*
X188577142Y-78184285D01*
X188481904Y-78136666D01*
X187672380Y-78136666D01*
X188672380Y-77136666D02*
X188672380Y-77708095D01*
X188672380Y-77422380D02*
X187672380Y-77422380D01*
X187815238Y-77517619D01*
X187910476Y-77612857D01*
X187958095Y-77708095D01*
X188672380Y-76660476D02*
X188672380Y-76470000D01*
X188624761Y-76374761D01*
X188577142Y-76327142D01*
X188434285Y-76231904D01*
X188243809Y-76184285D01*
X187862857Y-76184285D01*
X187767619Y-76231904D01*
X187720000Y-76279523D01*
X187672380Y-76374761D01*
X187672380Y-76565238D01*
X187720000Y-76660476D01*
X187767619Y-76708095D01*
X187862857Y-76755714D01*
X188100952Y-76755714D01*
X188196190Y-76708095D01*
X188243809Y-76660476D01*
X188291428Y-76565238D01*
X188291428Y-76374761D01*
X188243809Y-76279523D01*
X188196190Y-76231904D01*
X188100952Y-76184285D01*
X194022380Y-68548095D02*
X194831904Y-68548095D01*
X194927142Y-68500476D01*
X194974761Y-68452857D01*
X195022380Y-68357619D01*
X195022380Y-68167142D01*
X194974761Y-68071904D01*
X194927142Y-68024285D01*
X194831904Y-67976666D01*
X194022380Y-67976666D01*
X195022380Y-66976666D02*
X195022380Y-67548095D01*
X195022380Y-67262380D02*
X194022380Y-67262380D01*
X194165238Y-67357619D01*
X194260476Y-67452857D01*
X194308095Y-67548095D01*
X194450952Y-66405238D02*
X194403333Y-66500476D01*
X194355714Y-66548095D01*
X194260476Y-66595714D01*
X194212857Y-66595714D01*
X194117619Y-66548095D01*
X194070000Y-66500476D01*
X194022380Y-66405238D01*
X194022380Y-66214761D01*
X194070000Y-66119523D01*
X194117619Y-66071904D01*
X194212857Y-66024285D01*
X194260476Y-66024285D01*
X194355714Y-66071904D01*
X194403333Y-66119523D01*
X194450952Y-66214761D01*
X194450952Y-66405238D01*
X194498571Y-66500476D01*
X194546190Y-66548095D01*
X194641428Y-66595714D01*
X194831904Y-66595714D01*
X194927142Y-66548095D01*
X194974761Y-66500476D01*
X195022380Y-66405238D01*
X195022380Y-66214761D01*
X194974761Y-66119523D01*
X194927142Y-66071904D01*
X194831904Y-66024285D01*
X194641428Y-66024285D01*
X194546190Y-66071904D01*
X194498571Y-66119523D01*
X194450952Y-66214761D01*
X194022380Y-88868095D02*
X194831904Y-88868095D01*
X194927142Y-88820476D01*
X194974761Y-88772857D01*
X195022380Y-88677619D01*
X195022380Y-88487142D01*
X194974761Y-88391904D01*
X194927142Y-88344285D01*
X194831904Y-88296666D01*
X194022380Y-88296666D01*
X195022380Y-87296666D02*
X195022380Y-87868095D01*
X195022380Y-87582380D02*
X194022380Y-87582380D01*
X194165238Y-87677619D01*
X194260476Y-87772857D01*
X194308095Y-87868095D01*
X194022380Y-86963333D02*
X194022380Y-86296666D01*
X195022380Y-86725238D01*
X194022380Y-58388095D02*
X194831904Y-58388095D01*
X194927142Y-58340476D01*
X194974761Y-58292857D01*
X195022380Y-58197619D01*
X195022380Y-58007142D01*
X194974761Y-57911904D01*
X194927142Y-57864285D01*
X194831904Y-57816666D01*
X194022380Y-57816666D01*
X195022380Y-56816666D02*
X195022380Y-57388095D01*
X195022380Y-57102380D02*
X194022380Y-57102380D01*
X194165238Y-57197619D01*
X194260476Y-57292857D01*
X194308095Y-57388095D01*
X194022380Y-55959523D02*
X194022380Y-56150000D01*
X194070000Y-56245238D01*
X194117619Y-56292857D01*
X194260476Y-56388095D01*
X194450952Y-56435714D01*
X194831904Y-56435714D01*
X194927142Y-56388095D01*
X194974761Y-56340476D01*
X195022380Y-56245238D01*
X195022380Y-56054761D01*
X194974761Y-55959523D01*
X194927142Y-55911904D01*
X194831904Y-55864285D01*
X194593809Y-55864285D01*
X194498571Y-55911904D01*
X194450952Y-55959523D01*
X194403333Y-56054761D01*
X194403333Y-56245238D01*
X194450952Y-56340476D01*
X194498571Y-56388095D01*
X194593809Y-56435714D01*
X194022380Y-78708095D02*
X194831904Y-78708095D01*
X194927142Y-78660476D01*
X194974761Y-78612857D01*
X195022380Y-78517619D01*
X195022380Y-78327142D01*
X194974761Y-78231904D01*
X194927142Y-78184285D01*
X194831904Y-78136666D01*
X194022380Y-78136666D01*
X195022380Y-77136666D02*
X195022380Y-77708095D01*
X195022380Y-77422380D02*
X194022380Y-77422380D01*
X194165238Y-77517619D01*
X194260476Y-77612857D01*
X194308095Y-77708095D01*
X194022380Y-76231904D02*
X194022380Y-76708095D01*
X194498571Y-76755714D01*
X194450952Y-76708095D01*
X194403333Y-76612857D01*
X194403333Y-76374761D01*
X194450952Y-76279523D01*
X194498571Y-76231904D01*
X194593809Y-76184285D01*
X194831904Y-76184285D01*
X194927142Y-76231904D01*
X194974761Y-76279523D01*
X195022380Y-76374761D01*
X195022380Y-76612857D01*
X194974761Y-76708095D01*
X194927142Y-76755714D01*
X200372380Y-68548095D02*
X201181904Y-68548095D01*
X201277142Y-68500476D01*
X201324761Y-68452857D01*
X201372380Y-68357619D01*
X201372380Y-68167142D01*
X201324761Y-68071904D01*
X201277142Y-68024285D01*
X201181904Y-67976666D01*
X200372380Y-67976666D01*
X201372380Y-66976666D02*
X201372380Y-67548095D01*
X201372380Y-67262380D02*
X200372380Y-67262380D01*
X200515238Y-67357619D01*
X200610476Y-67452857D01*
X200658095Y-67548095D01*
X200705714Y-66119523D02*
X201372380Y-66119523D01*
X200324761Y-66357619D02*
X201039047Y-66595714D01*
X201039047Y-65976666D01*
X200372380Y-88868095D02*
X201181904Y-88868095D01*
X201277142Y-88820476D01*
X201324761Y-88772857D01*
X201372380Y-88677619D01*
X201372380Y-88487142D01*
X201324761Y-88391904D01*
X201277142Y-88344285D01*
X201181904Y-88296666D01*
X200372380Y-88296666D01*
X201372380Y-87296666D02*
X201372380Y-87868095D01*
X201372380Y-87582380D02*
X200372380Y-87582380D01*
X200515238Y-87677619D01*
X200610476Y-87772857D01*
X200658095Y-87868095D01*
X200372380Y-86963333D02*
X200372380Y-86344285D01*
X200753333Y-86677619D01*
X200753333Y-86534761D01*
X200800952Y-86439523D01*
X200848571Y-86391904D01*
X200943809Y-86344285D01*
X201181904Y-86344285D01*
X201277142Y-86391904D01*
X201324761Y-86439523D01*
X201372380Y-86534761D01*
X201372380Y-86820476D01*
X201324761Y-86915714D01*
X201277142Y-86963333D01*
X200372380Y-58388095D02*
X201181904Y-58388095D01*
X201277142Y-58340476D01*
X201324761Y-58292857D01*
X201372380Y-58197619D01*
X201372380Y-58007142D01*
X201324761Y-57911904D01*
X201277142Y-57864285D01*
X201181904Y-57816666D01*
X200372380Y-57816666D01*
X201372380Y-56816666D02*
X201372380Y-57388095D01*
X201372380Y-57102380D02*
X200372380Y-57102380D01*
X200515238Y-57197619D01*
X200610476Y-57292857D01*
X200658095Y-57388095D01*
X200467619Y-56435714D02*
X200420000Y-56388095D01*
X200372380Y-56292857D01*
X200372380Y-56054761D01*
X200420000Y-55959523D01*
X200467619Y-55911904D01*
X200562857Y-55864285D01*
X200658095Y-55864285D01*
X200800952Y-55911904D01*
X201372380Y-56483333D01*
X201372380Y-55864285D01*
X200372380Y-78708095D02*
X201181904Y-78708095D01*
X201277142Y-78660476D01*
X201324761Y-78612857D01*
X201372380Y-78517619D01*
X201372380Y-78327142D01*
X201324761Y-78231904D01*
X201277142Y-78184285D01*
X201181904Y-78136666D01*
X200372380Y-78136666D01*
X201372380Y-77136666D02*
X201372380Y-77708095D01*
X201372380Y-77422380D02*
X200372380Y-77422380D01*
X200515238Y-77517619D01*
X200610476Y-77612857D01*
X200658095Y-77708095D01*
X201372380Y-76184285D02*
X201372380Y-76755714D01*
X201372380Y-76470000D02*
X200372380Y-76470000D01*
X200515238Y-76565238D01*
X200610476Y-76660476D01*
X200658095Y-76755714D01*
X206722380Y-68548095D02*
X207531904Y-68548095D01*
X207627142Y-68500476D01*
X207674761Y-68452857D01*
X207722380Y-68357619D01*
X207722380Y-68167142D01*
X207674761Y-68071904D01*
X207627142Y-68024285D01*
X207531904Y-67976666D01*
X206722380Y-67976666D01*
X207722380Y-66976666D02*
X207722380Y-67548095D01*
X207722380Y-67262380D02*
X206722380Y-67262380D01*
X206865238Y-67357619D01*
X206960476Y-67452857D01*
X207008095Y-67548095D01*
X206722380Y-66357619D02*
X206722380Y-66262380D01*
X206770000Y-66167142D01*
X206817619Y-66119523D01*
X206912857Y-66071904D01*
X207103333Y-66024285D01*
X207341428Y-66024285D01*
X207531904Y-66071904D01*
X207627142Y-66119523D01*
X207674761Y-66167142D01*
X207722380Y-66262380D01*
X207722380Y-66357619D01*
X207674761Y-66452857D01*
X207627142Y-66500476D01*
X207531904Y-66548095D01*
X207341428Y-66595714D01*
X207103333Y-66595714D01*
X206912857Y-66548095D01*
X206817619Y-66500476D01*
X206770000Y-66452857D01*
X206722380Y-66357619D01*
X206722380Y-88391904D02*
X207531904Y-88391904D01*
X207627142Y-88344285D01*
X207674761Y-88296666D01*
X207722380Y-88201428D01*
X207722380Y-88010952D01*
X207674761Y-87915714D01*
X207627142Y-87868095D01*
X207531904Y-87820476D01*
X206722380Y-87820476D01*
X207722380Y-87296666D02*
X207722380Y-87106190D01*
X207674761Y-87010952D01*
X207627142Y-86963333D01*
X207484285Y-86868095D01*
X207293809Y-86820476D01*
X206912857Y-86820476D01*
X206817619Y-86868095D01*
X206770000Y-86915714D01*
X206722380Y-87010952D01*
X206722380Y-87201428D01*
X206770000Y-87296666D01*
X206817619Y-87344285D01*
X206912857Y-87391904D01*
X207150952Y-87391904D01*
X207246190Y-87344285D01*
X207293809Y-87296666D01*
X207341428Y-87201428D01*
X207341428Y-87010952D01*
X207293809Y-86915714D01*
X207246190Y-86868095D01*
X207150952Y-86820476D01*
X206722380Y-57911904D02*
X207531904Y-57911904D01*
X207627142Y-57864285D01*
X207674761Y-57816666D01*
X207722380Y-57721428D01*
X207722380Y-57530952D01*
X207674761Y-57435714D01*
X207627142Y-57388095D01*
X207531904Y-57340476D01*
X206722380Y-57340476D01*
X207150952Y-56721428D02*
X207103333Y-56816666D01*
X207055714Y-56864285D01*
X206960476Y-56911904D01*
X206912857Y-56911904D01*
X206817619Y-56864285D01*
X206770000Y-56816666D01*
X206722380Y-56721428D01*
X206722380Y-56530952D01*
X206770000Y-56435714D01*
X206817619Y-56388095D01*
X206912857Y-56340476D01*
X206960476Y-56340476D01*
X207055714Y-56388095D01*
X207103333Y-56435714D01*
X207150952Y-56530952D01*
X207150952Y-56721428D01*
X207198571Y-56816666D01*
X207246190Y-56864285D01*
X207341428Y-56911904D01*
X207531904Y-56911904D01*
X207627142Y-56864285D01*
X207674761Y-56816666D01*
X207722380Y-56721428D01*
X207722380Y-56530952D01*
X207674761Y-56435714D01*
X207627142Y-56388095D01*
X207531904Y-56340476D01*
X207341428Y-56340476D01*
X207246190Y-56388095D01*
X207198571Y-56435714D01*
X207150952Y-56530952D01*
X206722380Y-78231904D02*
X207531904Y-78231904D01*
X207627142Y-78184285D01*
X207674761Y-78136666D01*
X207722380Y-78041428D01*
X207722380Y-77850952D01*
X207674761Y-77755714D01*
X207627142Y-77708095D01*
X207531904Y-77660476D01*
X206722380Y-77660476D01*
X206722380Y-77279523D02*
X206722380Y-76612857D01*
X207722380Y-77041428D01*
X162502380Y-6476904D02*
X163311904Y-6476904D01*
X163407142Y-6429285D01*
X163454761Y-6381666D01*
X163502380Y-6286428D01*
X163502380Y-6095952D01*
X163454761Y-6000714D01*
X163407142Y-5953095D01*
X163311904Y-5905476D01*
X162502380Y-5905476D01*
X162502380Y-5000714D02*
X162502380Y-5191190D01*
X162550000Y-5286428D01*
X162597619Y-5334047D01*
X162740476Y-5429285D01*
X162930952Y-5476904D01*
X163311904Y-5476904D01*
X163407142Y-5429285D01*
X163454761Y-5381666D01*
X163502380Y-5286428D01*
X163502380Y-5095952D01*
X163454761Y-5000714D01*
X163407142Y-4953095D01*
X163311904Y-4905476D01*
X163073809Y-4905476D01*
X162978571Y-4953095D01*
X162930952Y-5000714D01*
X162883333Y-5095952D01*
X162883333Y-5286428D01*
X162930952Y-5381666D01*
X162978571Y-5429285D01*
X163073809Y-5476904D01*
X175202380Y-6476904D02*
X176011904Y-6476904D01*
X176107142Y-6429285D01*
X176154761Y-6381666D01*
X176202380Y-6286428D01*
X176202380Y-6095952D01*
X176154761Y-6000714D01*
X176107142Y-5953095D01*
X176011904Y-5905476D01*
X175202380Y-5905476D01*
X175202380Y-4953095D02*
X175202380Y-5429285D01*
X175678571Y-5476904D01*
X175630952Y-5429285D01*
X175583333Y-5334047D01*
X175583333Y-5095952D01*
X175630952Y-5000714D01*
X175678571Y-4953095D01*
X175773809Y-4905476D01*
X176011904Y-4905476D01*
X176107142Y-4953095D01*
X176154761Y-5000714D01*
X176202380Y-5095952D01*
X176202380Y-5334047D01*
X176154761Y-5429285D01*
X176107142Y-5476904D01*
X145288095Y-18762380D02*
X145288095Y-19571904D01*
X145335714Y-19667142D01*
X145383333Y-19714761D01*
X145478571Y-19762380D01*
X145669047Y-19762380D01*
X145764285Y-19714761D01*
X145811904Y-19667142D01*
X145859523Y-19571904D01*
X145859523Y-18762380D01*
X146764285Y-19095714D02*
X146764285Y-19762380D01*
X146526190Y-18714761D02*
X146288095Y-19429047D01*
X146907142Y-19429047D01*
X145288095Y18067619D02*
X145288095Y17258095D01*
X145335714Y17162857D01*
X145383333Y17115238D01*
X145478571Y17067619D01*
X145669047Y17067619D01*
X145764285Y17115238D01*
X145811904Y17162857D01*
X145859523Y17258095D01*
X145859523Y18067619D01*
X146240476Y18067619D02*
X146859523Y18067619D01*
X146526190Y17686666D01*
X146669047Y17686666D01*
X146764285Y17639047D01*
X146811904Y17591428D01*
X146859523Y17496190D01*
X146859523Y17258095D01*
X146811904Y17162857D01*
X146764285Y17115238D01*
X146669047Y17067619D01*
X146383333Y17067619D01*
X146288095Y17115238D01*
X146240476Y17162857D01*
X145288095Y-25112380D02*
X145288095Y-25921904D01*
X145335714Y-26017142D01*
X145383333Y-26064761D01*
X145478571Y-26112380D01*
X145669047Y-26112380D01*
X145764285Y-26064761D01*
X145811904Y-26017142D01*
X145859523Y-25921904D01*
X145859523Y-25112380D01*
X146288095Y-25207619D02*
X146335714Y-25160000D01*
X146430952Y-25112380D01*
X146669047Y-25112380D01*
X146764285Y-25160000D01*
X146811904Y-25207619D01*
X146859523Y-25302857D01*
X146859523Y-25398095D01*
X146811904Y-25540952D01*
X146240476Y-26112380D01*
X146859523Y-26112380D01*
X164338095Y-38822380D02*
X164338095Y-39631904D01*
X164385714Y-39727142D01*
X164433333Y-39774761D01*
X164528571Y-39822380D01*
X164719047Y-39822380D01*
X164814285Y-39774761D01*
X164861904Y-39727142D01*
X164909523Y-39631904D01*
X164909523Y-38822380D01*
X165909523Y-39822380D02*
X165338095Y-39822380D01*
X165623809Y-39822380D02*
X165623809Y-38822380D01*
X165528571Y-38965238D01*
X165433333Y-39060476D01*
X165338095Y-39108095D01*
X179582380Y-87963333D02*
X180296666Y-87963333D01*
X180439523Y-88010952D01*
X180534761Y-88106190D01*
X180582380Y-88249047D01*
X180582380Y-88344285D01*
X179677619Y-87534761D02*
X179630000Y-87487142D01*
X179582380Y-87391904D01*
X179582380Y-87153809D01*
X179630000Y-87058571D01*
X179677619Y-87010952D01*
X179772857Y-86963333D01*
X179868095Y-86963333D01*
X180010952Y-87010952D01*
X180582380Y-87582380D01*
X180582380Y-86963333D01*
X180852380Y22526666D02*
X181566666Y22526666D01*
X181709523Y22479047D01*
X181804761Y22383809D01*
X181852380Y22240952D01*
X181852380Y22145714D01*
X181852380Y23526666D02*
X181852380Y22955238D01*
X181852380Y23240952D02*
X180852380Y23240952D01*
X180995238Y23145714D01*
X181090476Y23050476D01*
X181138095Y22955238D01*
X224663333Y-61277142D02*
X224615714Y-61324761D01*
X224472857Y-61372380D01*
X224377619Y-61372380D01*
X224234761Y-61324761D01*
X224139523Y-61229523D01*
X224091904Y-61134285D01*
X224044285Y-60943809D01*
X224044285Y-60800952D01*
X224091904Y-60610476D01*
X224139523Y-60515238D01*
X224234761Y-60420000D01*
X224377619Y-60372380D01*
X224472857Y-60372380D01*
X224615714Y-60420000D01*
X224663333Y-60467619D01*
X225520476Y-60705714D02*
X225520476Y-61372380D01*
X225282380Y-60324761D02*
X225044285Y-61039047D01*
X225663333Y-61039047D01*
X224583333Y-32147142D02*
X224535714Y-32194761D01*
X224392857Y-32242380D01*
X224297619Y-32242380D01*
X224154761Y-32194761D01*
X224059523Y-32099523D01*
X224011904Y-32004285D01*
X223964285Y-31813809D01*
X223964285Y-31670952D01*
X224011904Y-31480476D01*
X224059523Y-31385238D01*
X224154761Y-31290000D01*
X224297619Y-31242380D01*
X224392857Y-31242380D01*
X224535714Y-31290000D01*
X224583333Y-31337619D01*
X224916666Y-31242380D02*
X225535714Y-31242380D01*
X225202380Y-31623333D01*
X225345238Y-31623333D01*
X225440476Y-31670952D01*
X225488095Y-31718571D01*
X225535714Y-31813809D01*
X225535714Y-32051904D01*
X225488095Y-32147142D01*
X225440476Y-32194761D01*
X225345238Y-32242380D01*
X225059523Y-32242380D01*
X224964285Y-32194761D01*
X224916666Y-32147142D01*
X224603333Y-45907142D02*
X224555714Y-45954761D01*
X224412857Y-46002380D01*
X224317619Y-46002380D01*
X224174761Y-45954761D01*
X224079523Y-45859523D01*
X224031904Y-45764285D01*
X223984285Y-45573809D01*
X223984285Y-45430952D01*
X224031904Y-45240476D01*
X224079523Y-45145238D01*
X224174761Y-45050000D01*
X224317619Y-45002380D01*
X224412857Y-45002380D01*
X224555714Y-45050000D01*
X224603333Y-45097619D01*
X224984285Y-45097619D02*
X225031904Y-45050000D01*
X225127142Y-45002380D01*
X225365238Y-45002380D01*
X225460476Y-45050000D01*
X225508095Y-45097619D01*
X225555714Y-45192857D01*
X225555714Y-45288095D01*
X225508095Y-45430952D01*
X224936666Y-46002380D01*
X225555714Y-46002380D01*
X224603333Y-35747142D02*
X224555714Y-35794761D01*
X224412857Y-35842380D01*
X224317619Y-35842380D01*
X224174761Y-35794761D01*
X224079523Y-35699523D01*
X224031904Y-35604285D01*
X223984285Y-35413809D01*
X223984285Y-35270952D01*
X224031904Y-35080476D01*
X224079523Y-34985238D01*
X224174761Y-34890000D01*
X224317619Y-34842380D01*
X224412857Y-34842380D01*
X224555714Y-34890000D01*
X224603333Y-34937619D01*
X225555714Y-35842380D02*
X224984285Y-35842380D01*
X225270000Y-35842380D02*
X225270000Y-34842380D01*
X225174761Y-34985238D01*
X225079523Y-35080476D01*
X224984285Y-35128095D01*
M02*
