G04 #@! TF.GenerationSoftware,KiCad,Pcbnew,5.1.5-52549c5~84~ubuntu18.04.1*
G04 #@! TF.CreationDate,2020-05-17T15:55:05-07:00*
G04 #@! TF.ProjectId,ram,72616d2e-6b69-4636-9164-5f7063625858,rev?*
G04 #@! TF.SameCoordinates,Original*
G04 #@! TF.FileFunction,Copper,L2,Inr*
G04 #@! TF.FilePolarity,Positive*
%FSLAX46Y46*%
G04 Gerber Fmt 4.6, Leading zero omitted, Abs format (unit mm)*
G04 Created by KiCad (PCBNEW 5.1.5-52549c5~84~ubuntu18.04.1) date 2020-05-17 15:55:05*
%MOMM*%
%LPD*%
G04 APERTURE LIST*
%ADD10C,4.000000*%
%ADD11C,1.600000*%
%ADD12R,1.600000X1.600000*%
%ADD13O,1.700000X1.700000*%
%ADD14R,1.700000X1.700000*%
%ADD15C,6.000000*%
%ADD16C,0.800000*%
%ADD17C,0.250000*%
G04 APERTURE END LIST*
D10*
X235100000Y28740000D03*
X235100000Y-34760000D03*
D11*
X236520000Y20535000D03*
X236520000Y17765000D03*
X236520000Y14995000D03*
X236520000Y12225000D03*
X236520000Y9455000D03*
X236520000Y6685000D03*
X236520000Y3915000D03*
X236520000Y1145000D03*
X236520000Y-1625000D03*
X236520000Y-4395000D03*
X236520000Y-7165000D03*
X236520000Y-9935000D03*
X236520000Y-12705000D03*
X236520000Y-15475000D03*
X236520000Y-18245000D03*
X236520000Y-21015000D03*
X236520000Y-23785000D03*
X236520000Y-26555000D03*
X233680000Y21920000D03*
X233680000Y19150000D03*
X233680000Y16380000D03*
X233680000Y13610000D03*
X233680000Y10840000D03*
X233680000Y8070000D03*
X233680000Y5300000D03*
X233680000Y2530000D03*
X233680000Y-240000D03*
X233680000Y-3010000D03*
X233680000Y-5780000D03*
X233680000Y-8550000D03*
X233680000Y-11320000D03*
X233680000Y-14090000D03*
X233680000Y-16860000D03*
X233680000Y-19630000D03*
X233680000Y-22400000D03*
X233680000Y-25170000D03*
D12*
X233680000Y-27940000D03*
D10*
X235100000Y-46190000D03*
X235100000Y-93290000D03*
D11*
X236520000Y-54505000D03*
X236520000Y-57275000D03*
X236520000Y-60045000D03*
X236520000Y-62815000D03*
X236520000Y-65585000D03*
X236520000Y-68355000D03*
X236520000Y-71125000D03*
X236520000Y-73895000D03*
X236520000Y-76665000D03*
X236520000Y-79435000D03*
X236520000Y-82205000D03*
X236520000Y-84975000D03*
X233680000Y-53120000D03*
X233680000Y-55890000D03*
X233680000Y-58660000D03*
X233680000Y-61430000D03*
X233680000Y-64200000D03*
X233680000Y-66970000D03*
X233680000Y-69740000D03*
X233680000Y-72510000D03*
X233680000Y-75280000D03*
X233680000Y-78050000D03*
X233680000Y-80820000D03*
X233680000Y-83590000D03*
D12*
X233680000Y-86360000D03*
D13*
X157480000Y-88900000D03*
X157480000Y-86360000D03*
X160020000Y-88900000D03*
X160020000Y-86360000D03*
X162560000Y-88900000D03*
X162560000Y-86360000D03*
X165100000Y-88900000D03*
X165100000Y-86360000D03*
X167640000Y-88900000D03*
X167640000Y-86360000D03*
X170180000Y-88900000D03*
X170180000Y-86360000D03*
X172720000Y-88900000D03*
X172720000Y-86360000D03*
X175260000Y-88900000D03*
X175260000Y-86360000D03*
X177800000Y-88900000D03*
D14*
X177800000Y-86360000D03*
D13*
X156210000Y21590000D03*
X156210000Y24130000D03*
X158750000Y21590000D03*
X158750000Y24130000D03*
X161290000Y21590000D03*
X161290000Y24130000D03*
X163830000Y21590000D03*
X163830000Y24130000D03*
X166370000Y21590000D03*
X166370000Y24130000D03*
X168910000Y21590000D03*
X168910000Y24130000D03*
X171450000Y21590000D03*
X171450000Y24130000D03*
X173990000Y21590000D03*
X173990000Y24130000D03*
X176530000Y21590000D03*
X176530000Y24130000D03*
X179070000Y21590000D03*
D14*
X179070000Y24130000D03*
D11*
X222330000Y-58420000D03*
X227330000Y-58420000D03*
X227250000Y-34290000D03*
X222250000Y-34290000D03*
X226020000Y-50800000D03*
D12*
X223520000Y-50800000D03*
D11*
X226020000Y-40640000D03*
D12*
X223520000Y-40640000D03*
D15*
X142240000Y29210000D03*
X142240000Y-93980000D03*
D16*
X161925000Y-10160000D03*
X221570000Y-77515000D03*
X150450000Y-27260000D03*
X150450000Y15920000D03*
X208870000Y28530000D03*
X202520000Y28530000D03*
X196170000Y28530000D03*
X189820000Y28530000D03*
X208870000Y18370000D03*
X202520000Y18370000D03*
X196170000Y18370000D03*
X189820000Y18370000D03*
X208870000Y8210000D03*
X202520000Y8210000D03*
X196170000Y8210000D03*
X189820000Y8210000D03*
X208870000Y-1950000D03*
X202520000Y-1950000D03*
X196170000Y-1950000D03*
X189820000Y-1950000D03*
X208870000Y-12110000D03*
X202520000Y-12110000D03*
X196170000Y-12110000D03*
X208870000Y-22270000D03*
X202520000Y-22270000D03*
X196170000Y-22270000D03*
X189820000Y-22270000D03*
X189820000Y-32430000D03*
X196170000Y-32430000D03*
X202520000Y-32430000D03*
X208870000Y-32430000D03*
X208870000Y-42590000D03*
X202520000Y-42590000D03*
X196170000Y-42590000D03*
X189820000Y-42590000D03*
X208870000Y-52750000D03*
X202520000Y-52750000D03*
X196170000Y-52750000D03*
X189820000Y-52750000D03*
X189820000Y-62910000D03*
X196170000Y-62910000D03*
X202520000Y-62910000D03*
X208870000Y-62910000D03*
X189820000Y-73070000D03*
X196170000Y-73070000D03*
X202520000Y-73070000D03*
X208870000Y-73070000D03*
X208870000Y-83230000D03*
X202520000Y-83230000D03*
X196170000Y-83230000D03*
X189820000Y-83230000D03*
X150450000Y-20910000D03*
X172320000Y-29610000D03*
X157880000Y-28810000D03*
X174625000Y-10160000D03*
X202565000Y-48260000D03*
X189865000Y-48260000D03*
X202565000Y-38100000D03*
X189865000Y-38100000D03*
X202565000Y-27940000D03*
X189865000Y-27940000D03*
X202565000Y-17780000D03*
X208915000Y-48260000D03*
X196215000Y-48260000D03*
X208915000Y-38100000D03*
X196215000Y-38100000D03*
X208915000Y-27940000D03*
X196215000Y-27940000D03*
X208915000Y-17780000D03*
X196215000Y-17780000D03*
X223520000Y-77470000D03*
X140970000Y-29845000D03*
X199390000Y-12065000D03*
X185510001Y-11520001D03*
X160020000Y15875000D03*
X140365000Y-27910000D03*
X205740000Y-12065000D03*
X182245000Y-15875000D03*
X161290000Y8890000D03*
X212090000Y-12065000D03*
X180340000Y-15875000D03*
X162560000Y6985000D03*
X193040000Y-22225000D03*
X159512000Y-19304000D03*
X151130000Y-19050000D03*
X163830000Y11430000D03*
X199390000Y-22225000D03*
X159512000Y-17780000D03*
X149860000Y-17780000D03*
X165100000Y12700000D03*
X205740000Y-22225000D03*
X159512000Y-16256000D03*
X148735999Y-16655999D03*
X166370000Y13970000D03*
X212090000Y-22225000D03*
X158424990Y-15311010D03*
X147391010Y-15311010D03*
X167640000Y15240000D03*
X193040000Y-32385000D03*
X160020000Y-42672000D03*
X184150000Y-45085000D03*
X168910000Y13335000D03*
X199390000Y-32385000D03*
X160020000Y-41148000D03*
X152400000Y-41275000D03*
X170180000Y5715000D03*
X205740000Y-32385000D03*
X160020000Y-39624000D03*
X151275999Y-39224001D03*
X171450000Y10160000D03*
X212090000Y-32385000D03*
X179705000Y-40005000D03*
X172720000Y11430000D03*
X193040000Y-42545000D03*
X179705000Y-38100000D03*
X173990000Y10160000D03*
X199390000Y-42545000D03*
X179705000Y-36195000D03*
X175260000Y8255000D03*
X205740000Y-42545000D03*
X172435000Y-35210000D03*
X180990010Y-43765010D03*
X176530000Y12700000D03*
X212090000Y-42545000D03*
X179585000Y-34410000D03*
X177800000Y5715000D03*
X150465000Y-24160000D03*
X140985000Y-23510000D03*
X141635000Y15270000D03*
X146715000Y-30510000D03*
X144735000Y15920000D03*
X154305000Y-10795000D03*
X189865000Y-58420000D03*
X153670000Y-43815000D03*
X155575000Y-12065000D03*
X196215000Y-58420000D03*
X154940000Y-45085000D03*
X156845000Y-12700000D03*
X202565000Y-58420000D03*
X156210000Y-33655000D03*
X157775000Y-11725000D03*
X208915000Y-58420000D03*
X157154999Y-32075001D03*
X158750000Y-10795000D03*
X189865000Y-68580000D03*
X161290000Y-28194000D03*
X159929999Y-12609999D03*
X196215000Y-68580000D03*
X162560000Y-27432000D03*
X160655000Y-11430000D03*
X202565000Y-68580000D03*
X163830000Y-26670000D03*
X161925000Y-12065000D03*
X208915000Y-68580000D03*
X165100000Y-25908000D03*
X189865000Y-78740000D03*
X167005000Y-10795000D03*
X166370000Y-25654000D03*
X196215000Y-78740000D03*
X168275000Y-12065000D03*
X167640000Y-26416000D03*
X202565000Y-78740000D03*
X169545000Y-12700000D03*
X168910000Y-27178000D03*
X208915000Y-78740000D03*
X170475000Y-11725000D03*
X170475000Y-41361000D03*
X189865000Y-88900000D03*
X171450000Y-10795000D03*
X174084999Y-41307001D03*
X196215000Y-88900000D03*
X172629999Y-12609999D03*
X175260000Y-40132000D03*
X202565000Y-88900000D03*
X173355000Y-11430000D03*
X176624999Y-32163001D03*
X208915000Y-88900000D03*
X174625000Y-12065000D03*
X177800000Y-32512000D03*
X199390000Y-52705000D03*
X212090000Y-52705000D03*
X199390000Y-62865000D03*
X212090000Y-62865000D03*
X199390000Y-73025000D03*
X212090000Y-73025000D03*
X199390000Y-83185000D03*
X212090000Y-83185000D03*
X193040000Y-52705000D03*
X205740000Y-52705000D03*
X193040000Y-62865000D03*
X205740000Y-62865000D03*
X193040000Y-73025000D03*
X205740000Y-73025000D03*
X193040000Y-83185000D03*
X205740000Y-83185000D03*
X221570000Y-86315000D03*
X196215000Y22860000D03*
X208915000Y22860000D03*
X196215000Y12700000D03*
X208915000Y12700000D03*
X196215000Y2540000D03*
X208915000Y2540000D03*
X196215000Y-7620000D03*
X208915000Y-7620000D03*
X189865000Y22860000D03*
X202565000Y22860000D03*
X189865000Y12700000D03*
X202565000Y12700000D03*
X189865000Y2540000D03*
X202565000Y2540000D03*
X189865000Y-7620000D03*
X202565000Y-7620000D03*
X150495000Y-26035000D03*
X150495000Y-35560000D03*
X147435000Y-25400000D03*
X172720000Y-25400000D03*
X149225000Y-33020000D03*
X142875000Y-19685000D03*
X161675000Y-7040000D03*
X174375000Y-7040000D03*
X150495000Y13970000D03*
X191770000Y19685000D03*
X198120000Y19685000D03*
X204470000Y19685000D03*
X210820000Y19685000D03*
X191770000Y9525000D03*
X198120000Y9525000D03*
X204470000Y9525000D03*
X210820000Y9525000D03*
X191770000Y-635000D03*
X198120000Y-635000D03*
X204470000Y-635000D03*
X210820000Y-635000D03*
X191770000Y-10795000D03*
X198120000Y-10795000D03*
X204470000Y-10795000D03*
X210820000Y-10795000D03*
X198120000Y-20955000D03*
X204470000Y-20955000D03*
X210820000Y-20955000D03*
X191770000Y-31115000D03*
X198120000Y-31115000D03*
X204470000Y-31115000D03*
X210820000Y-31115000D03*
X191770000Y-41275000D03*
X198120000Y-41275000D03*
X204470000Y-41275000D03*
X210820000Y-41275000D03*
X191770000Y-51435000D03*
X198120000Y-51435000D03*
X204470000Y-51435000D03*
X210820000Y-51435000D03*
X191770000Y-61595000D03*
X198120000Y-61595000D03*
X204470000Y-61595000D03*
X210820000Y-61595000D03*
X191770000Y-71755000D03*
X198120000Y-71755000D03*
X204470000Y-71755000D03*
X210820000Y-71755000D03*
X204470000Y-81915000D03*
X198120000Y-81915000D03*
X191770000Y-81915000D03*
X191770000Y-92075000D03*
X198120000Y-92075000D03*
X210820000Y-81915000D03*
X204470000Y-92075000D03*
X210820000Y-92075000D03*
X145077500Y-23157500D03*
X150495000Y-22028002D03*
X187960000Y-29210000D03*
X145415000Y-20955000D03*
X146740000Y-22225000D03*
X212090000Y18415000D03*
X167640000Y4445000D03*
X205740000Y18415000D03*
X168910000Y4445000D03*
X199390000Y18415000D03*
X170180000Y4445000D03*
X193040000Y18415000D03*
X171450000Y4445000D03*
X212090000Y28575000D03*
X172720000Y5715000D03*
X205740000Y28575000D03*
X173990000Y5715000D03*
X199390000Y28575000D03*
X175260000Y5715000D03*
X193040000Y28575000D03*
X176530000Y5715000D03*
X212090000Y-1905000D03*
X156475000Y-5450000D03*
X205740000Y-1905000D03*
X157972500Y-4587500D03*
X199390000Y-1905000D03*
X156845000Y-635000D03*
X193040000Y-1905000D03*
X157480000Y635000D03*
X212090000Y8255000D03*
X158115000Y1905000D03*
X205740000Y8255000D03*
X159385000Y3175000D03*
X199390000Y8255000D03*
X160375000Y4165000D03*
X193040000Y8255000D03*
X162560000Y4445000D03*
X212120000Y-78770000D03*
X209520000Y-76170000D03*
X212120000Y-58450000D03*
X209520000Y-55850000D03*
X212120000Y-88930000D03*
X209520000Y-86330000D03*
X212120000Y-68610000D03*
X209520000Y-66010000D03*
X205770000Y-78770000D03*
X203170000Y-76170000D03*
X205770000Y-58450000D03*
X203170000Y-55850000D03*
X205770000Y-88930000D03*
X203170000Y-86330000D03*
X205770000Y-68610000D03*
X203170000Y-66010000D03*
X199420000Y-78770000D03*
X196820000Y-76170000D03*
X199420000Y-58450000D03*
X196820000Y-55850000D03*
X199420000Y-88930000D03*
X196820000Y-86330000D03*
X199420000Y-68610000D03*
X196820000Y-66010000D03*
X193070000Y-78770000D03*
X190470000Y-76170000D03*
X193070000Y-58450000D03*
X190470000Y-55850000D03*
X193070000Y-88930000D03*
X190470000Y-86330000D03*
X193070000Y-68610000D03*
X190470000Y-66010000D03*
X212120000Y-38130000D03*
X209520000Y-35530000D03*
X212120000Y-17810000D03*
X209520000Y-15210000D03*
X212120000Y-48290000D03*
X209520000Y-45690000D03*
X212120000Y-27970000D03*
X209520000Y-25370000D03*
X205770000Y-38130000D03*
X203170000Y-35530000D03*
X205770000Y-17810000D03*
X203170000Y-15210000D03*
X205770000Y-48290000D03*
X203170000Y-45690000D03*
X205770000Y-27970000D03*
X203170000Y-25370000D03*
X199420000Y-38130000D03*
X196820000Y-35530000D03*
X199420000Y-17810000D03*
X196820000Y-15210000D03*
X199420000Y-48290000D03*
X196820000Y-45690000D03*
X199420000Y-27970000D03*
X196820000Y-25370000D03*
X193070000Y-38130000D03*
X190470000Y-35530000D03*
X224790000Y-80645000D03*
X223520000Y-86360000D03*
X193070000Y-48290000D03*
X190470000Y-45690000D03*
X193070000Y-27970000D03*
X190470000Y-25370000D03*
X193070000Y12670000D03*
X190470000Y15270000D03*
X193070000Y-7650000D03*
X190470000Y-5050000D03*
X193070000Y22830000D03*
X190470000Y25430000D03*
X193070000Y2510000D03*
X190470000Y5110000D03*
X199420000Y12670000D03*
X196820000Y15270000D03*
X199420000Y-7650000D03*
X196820000Y-5050000D03*
X199420000Y22830000D03*
X196820000Y25430000D03*
X199420000Y2510000D03*
X196820000Y5110000D03*
X205770000Y12670000D03*
X203170000Y15270000D03*
X205770000Y-7650000D03*
X203170000Y-5050000D03*
X205770000Y22830000D03*
X203170000Y25430000D03*
X205770000Y2510000D03*
X203170000Y5110000D03*
X212120000Y12670000D03*
X209520000Y15270000D03*
X212120000Y-7650000D03*
X209520000Y-5050000D03*
X212120000Y22830000D03*
X209520000Y25430000D03*
X212120000Y2510000D03*
X209520000Y5110000D03*
D17*
X159640999Y-92800001D02*
X140970000Y-74129002D01*
X211168001Y-92800001D02*
X159640999Y-92800001D01*
X223520000Y-77470000D02*
X223520000Y-80448002D01*
X223520000Y-80448002D02*
X211168001Y-92800001D01*
X140970000Y-74129002D02*
X140970000Y-29845000D01*
X140970000Y-29845000D02*
X140970000Y-29845000D01*
X192118001Y-11520001D02*
X185510001Y-11520001D01*
X192253003Y-11384999D02*
X192118001Y-11520001D01*
X196518001Y-11384999D02*
X192253003Y-11384999D01*
X199390000Y-12065000D02*
X197198002Y-12065000D01*
X197198002Y-12065000D02*
X196518001Y-11384999D01*
X185510001Y-11520001D02*
X185510001Y-11520001D01*
X157574999Y22954999D02*
X157900001Y23280001D01*
X157900001Y23280001D02*
X158750000Y24130000D01*
X148246997Y22954999D02*
X157574999Y22954999D01*
X139965001Y14673003D02*
X148246997Y22954999D01*
X139965001Y-27510001D02*
X139965001Y14673003D01*
X140365000Y-27910000D02*
X139965001Y-27510001D01*
X205740000Y-12630685D02*
X205740000Y-12065000D01*
X205740000Y-13713002D02*
X205740000Y-12630685D01*
X203178003Y-16274999D02*
X205740000Y-13713002D01*
X182644999Y-16274999D02*
X203178003Y-16274999D01*
X182245000Y-15875000D02*
X182644999Y-16274999D01*
X211524315Y-12065000D02*
X212090000Y-12065000D01*
X211016998Y-12065000D02*
X211524315Y-12065000D01*
X210291997Y-11339999D02*
X211016998Y-12065000D01*
X205391999Y-11339999D02*
X210291997Y-11339999D01*
X203896997Y-12835001D02*
X205391999Y-11339999D01*
X183379999Y-12835001D02*
X203896997Y-12835001D01*
X180340000Y-15875000D02*
X183379999Y-12835001D01*
X159911999Y-19703999D02*
X159512000Y-19304000D01*
X161752999Y-21544999D02*
X159911999Y-19703999D01*
X192359999Y-21544999D02*
X161752999Y-21544999D01*
X193040000Y-22225000D02*
X192359999Y-21544999D01*
X159112001Y-18904001D02*
X151275999Y-18904001D01*
X159512000Y-19304000D02*
X159112001Y-18904001D01*
X151275999Y-18904001D02*
X151130000Y-19050000D01*
X151130000Y-19050000D02*
X151130000Y-19050000D01*
X160717011Y-18985011D02*
X159911999Y-18179999D01*
X193958013Y-18985011D02*
X160717011Y-18985011D01*
X197198002Y-22225000D02*
X193958013Y-18985011D01*
X159911999Y-18179999D02*
X159512000Y-17780000D01*
X199390000Y-22225000D02*
X197198002Y-22225000D01*
X159512000Y-17780000D02*
X149860000Y-17780000D01*
X149860000Y-17780000D02*
X149860000Y-17780000D01*
X159911999Y-16655999D02*
X159512000Y-16256000D01*
X161791001Y-18535001D02*
X159911999Y-16655999D01*
X199858003Y-18535001D02*
X161791001Y-18535001D01*
X203548002Y-22225000D02*
X199858003Y-18535001D01*
X205740000Y-22225000D02*
X203548002Y-22225000D01*
X159112001Y-16655999D02*
X148735999Y-16655999D01*
X159512000Y-16256000D02*
X159112001Y-16655999D01*
X148735999Y-16655999D02*
X148735999Y-16655999D01*
X158990675Y-15311010D02*
X158424990Y-15311010D01*
X164081012Y-15311010D02*
X158990675Y-15311010D01*
X165825001Y-17054999D02*
X164081012Y-15311010D01*
X199738001Y-17054999D02*
X165825001Y-17054999D01*
X201218003Y-18535001D02*
X199738001Y-17054999D01*
X206208003Y-18535001D02*
X201218003Y-18535001D01*
X209898002Y-22225000D02*
X206208003Y-18535001D01*
X212090000Y-22225000D02*
X209898002Y-22225000D01*
X158424990Y-15311010D02*
X147391010Y-15311010D01*
X147391010Y-15311010D02*
X147391010Y-15311010D01*
X174636998Y-40582000D02*
X179139998Y-45085000D01*
X160020000Y-42672000D02*
X162110000Y-40582000D01*
X162110000Y-40582000D02*
X174636998Y-40582000D01*
X179139998Y-45085000D02*
X184150000Y-45085000D01*
X184150000Y-45085000D02*
X184150000Y-45085000D01*
X160419999Y-40748001D02*
X160020000Y-41148000D01*
X166683001Y-34484999D02*
X160419999Y-40748001D01*
X176900003Y-34484999D02*
X166683001Y-34484999D01*
X179680003Y-31704999D02*
X176900003Y-34484999D01*
X190168001Y-31704999D02*
X179680003Y-31704999D01*
X190545001Y-32081999D02*
X190168001Y-31704999D01*
X192269999Y-32081999D02*
X190545001Y-32081999D01*
X192691999Y-31659999D02*
X192269999Y-32081999D01*
X196473001Y-31659999D02*
X192691999Y-31659999D01*
X197198002Y-32385000D02*
X196473001Y-31659999D01*
X199390000Y-32385000D02*
X197198002Y-32385000D01*
X159454315Y-41148000D02*
X159327315Y-41275000D01*
X160020000Y-41148000D02*
X159454315Y-41148000D01*
X159327315Y-41275000D02*
X152400000Y-41275000D01*
X205740000Y-31819315D02*
X205740000Y-32385000D01*
X205740000Y-31311998D02*
X205740000Y-31819315D01*
X204818001Y-30389999D02*
X205740000Y-31311998D01*
X169254001Y-30389999D02*
X204818001Y-30389999D01*
X160020000Y-39624000D02*
X169254001Y-30389999D01*
X159620001Y-39224001D02*
X151275999Y-39224001D01*
X160020000Y-39624000D02*
X159620001Y-39224001D01*
X211690001Y-32784999D02*
X212090000Y-32385000D01*
X179766997Y-33155001D02*
X211319999Y-33155001D01*
X178859999Y-34061999D02*
X179766997Y-33155001D01*
X178859999Y-39159999D02*
X178859999Y-34061999D01*
X211319999Y-33155001D02*
X211690001Y-32784999D01*
X179705000Y-40005000D02*
X178859999Y-39159999D01*
X193040000Y-41471998D02*
X193040000Y-41979315D01*
X191388012Y-39820010D02*
X193040000Y-41471998D01*
X181425010Y-39820010D02*
X191388012Y-39820010D01*
X193040000Y-41979315D02*
X193040000Y-42545000D01*
X179705000Y-38100000D02*
X181425010Y-39820010D01*
X179705000Y-36195000D02*
X182880000Y-39370000D01*
X198619999Y-43315001D02*
X198990001Y-42944999D01*
X195821999Y-43315001D02*
X198619999Y-43315001D01*
X198990001Y-42944999D02*
X199390000Y-42545000D01*
X191876998Y-39370000D02*
X195821999Y-43315001D01*
X182880000Y-39370000D02*
X191876998Y-39370000D01*
X205340001Y-42944999D02*
X205740000Y-42545000D01*
X204519990Y-43765010D02*
X205340001Y-42944999D01*
X180990010Y-43765010D02*
X180990010Y-43765010D01*
X172435000Y-35210000D02*
X180990010Y-43765010D01*
X180990010Y-43765010D02*
X204519990Y-43765010D01*
X179984999Y-34809999D02*
X179585000Y-34410000D01*
X193508003Y-38855001D02*
X184030001Y-38855001D01*
X196653003Y-42000001D02*
X193508003Y-38855001D01*
X202823001Y-41819999D02*
X198648003Y-41819999D01*
X203003003Y-42000001D02*
X202823001Y-41819999D01*
X204818001Y-42000001D02*
X203003003Y-42000001D01*
X204998003Y-41819999D02*
X204818001Y-42000001D01*
X184030001Y-38855001D02*
X179984999Y-34809999D01*
X209173001Y-41819999D02*
X204998003Y-41819999D01*
X198468001Y-42000001D02*
X196653003Y-42000001D01*
X198648003Y-41819999D02*
X198468001Y-42000001D01*
X209898002Y-42545000D02*
X209173001Y-41819999D01*
X212090000Y-42545000D02*
X209898002Y-42545000D01*
X141384999Y-23909999D02*
X140985000Y-23510000D01*
X145989999Y-28514999D02*
X141384999Y-23909999D01*
X145989999Y-77409999D02*
X145989999Y-28514999D01*
X157480000Y-88900000D02*
X145989999Y-77409999D01*
X140985000Y14620000D02*
X141635000Y15270000D01*
X140985000Y-23510000D02*
X140985000Y14620000D01*
X146715000Y-75595000D02*
X146715000Y-30510000D01*
X157480000Y-86360000D02*
X146715000Y-75595000D01*
X146715000Y-27335000D02*
X144335001Y-24955001D01*
X144335001Y15520001D02*
X144735000Y15920000D01*
X144335001Y-24955001D02*
X144335001Y15520001D01*
X146715000Y-30510000D02*
X146715000Y-27335000D01*
X159170001Y-88050001D02*
X160020000Y-88900000D01*
X158844999Y-87724999D02*
X159170001Y-88050001D01*
X158844999Y-85795999D02*
X158844999Y-87724999D01*
X186220998Y-58420000D02*
X158844999Y-85795999D01*
X189865000Y-58420000D02*
X186220998Y-58420000D01*
X160869999Y-85510001D02*
X160020000Y-86360000D01*
X187204999Y-59175001D02*
X160869999Y-85510001D01*
X195459999Y-59175001D02*
X187204999Y-59175001D01*
X196215000Y-58420000D02*
X195459999Y-59175001D01*
X161710001Y-88050001D02*
X162560000Y-88900000D01*
X182346008Y-64834990D02*
X161384999Y-85795999D01*
X196150010Y-64834990D02*
X182346008Y-64834990D01*
X161384999Y-87724999D02*
X161710001Y-88050001D01*
X161384999Y-85795999D02*
X161384999Y-87724999D01*
X202565000Y-58420000D02*
X196150010Y-64834990D01*
X163409999Y-85510001D02*
X162560000Y-86360000D01*
X183635001Y-65284999D02*
X163409999Y-85510001D01*
X202050001Y-65284999D02*
X183635001Y-65284999D01*
X208915000Y-58420000D02*
X202050001Y-65284999D01*
X164250001Y-88050001D02*
X165100000Y-88900000D01*
X163924999Y-85795999D02*
X163924999Y-87724999D01*
X181140998Y-68580000D02*
X163924999Y-85795999D01*
X163924999Y-87724999D02*
X164250001Y-88050001D01*
X189865000Y-68580000D02*
X181140998Y-68580000D01*
X165949999Y-85510001D02*
X165100000Y-86360000D01*
X176915030Y-74544970D02*
X165949999Y-85510001D01*
X190250030Y-74544970D02*
X176915030Y-74544970D01*
X196215000Y-68580000D02*
X190250030Y-74544970D01*
X166464999Y-87724999D02*
X166790001Y-88050001D01*
X166790001Y-88050001D02*
X167640000Y-88900000D01*
X177266008Y-74994990D02*
X166464999Y-85795999D01*
X166464999Y-85795999D02*
X166464999Y-87724999D01*
X196150010Y-74994990D02*
X177266008Y-74994990D01*
X202565000Y-68580000D02*
X196150010Y-74994990D01*
X178555001Y-75444999D02*
X168489999Y-85510001D01*
X168489999Y-85510001D02*
X167640000Y-86360000D01*
X202050001Y-75444999D02*
X178555001Y-75444999D01*
X208915000Y-68580000D02*
X202050001Y-75444999D01*
X169330001Y-88050001D02*
X170180000Y-88900000D01*
X169004999Y-87724999D02*
X169330001Y-88050001D01*
X176060998Y-78740000D02*
X169004999Y-85795999D01*
X169004999Y-85795999D02*
X169004999Y-87724999D01*
X189865000Y-78740000D02*
X176060998Y-78740000D01*
X171029999Y-85510001D02*
X170180000Y-86360000D01*
X175800010Y-80739990D02*
X171029999Y-85510001D01*
X194215010Y-80739990D02*
X175800010Y-80739990D01*
X196215000Y-78740000D02*
X194215010Y-80739990D01*
X171870001Y-88050001D02*
X172720000Y-88900000D01*
X171544999Y-87724999D02*
X171870001Y-88050001D01*
X171544999Y-85795999D02*
X171544999Y-87724999D01*
X200115001Y-81189999D02*
X176150999Y-81189999D01*
X176150999Y-81189999D02*
X171544999Y-85795999D01*
X202565000Y-78740000D02*
X200115001Y-81189999D01*
X173569999Y-85510001D02*
X172720000Y-86360000D01*
X175124999Y-83955001D02*
X173569999Y-85510001D01*
X203699999Y-83955001D02*
X175124999Y-83955001D01*
X208915000Y-78740000D02*
X203699999Y-83955001D01*
X176435001Y-90075001D02*
X176109999Y-89749999D01*
X176109999Y-89749999D02*
X175260000Y-88900000D01*
X188689999Y-90075001D02*
X176435001Y-90075001D01*
X189865000Y-88900000D02*
X188689999Y-90075001D01*
X174084999Y-87535001D02*
X174410001Y-87209999D01*
X174410001Y-87209999D02*
X175260000Y-86360000D01*
X175146008Y-90525010D02*
X174084999Y-89464001D01*
X194589990Y-90525010D02*
X175146008Y-90525010D01*
X174084999Y-89464001D02*
X174084999Y-87535001D01*
X196215000Y-88900000D02*
X194589990Y-90525010D01*
X201715001Y-88050001D02*
X178649999Y-88050001D01*
X178649999Y-88050001D02*
X177800000Y-88900000D01*
X202565000Y-88900000D02*
X201715001Y-88050001D01*
X178900000Y-86360000D02*
X177800000Y-86360000D01*
X179655001Y-85604999D02*
X178900000Y-86360000D01*
X205619999Y-85604999D02*
X179655001Y-85604999D01*
X208915000Y-88900000D02*
X205619999Y-85604999D01*
X147834999Y-25000001D02*
X147435000Y-25400000D01*
X147906001Y-24928999D02*
X147834999Y-25000001D01*
X172248999Y-24928999D02*
X147906001Y-24928999D01*
X172720000Y-25400000D02*
X172248999Y-24928999D01*
X173809315Y-7040000D02*
X174375000Y-7040000D01*
X150495000Y-543002D02*
X156991998Y-7040000D01*
X156991998Y-7040000D02*
X173809315Y-7040000D01*
X150495000Y13970000D02*
X150495000Y-543002D01*
X211893002Y-41275000D02*
X211385685Y-41275000D01*
X212815001Y-42196999D02*
X211893002Y-41275000D01*
X211385685Y-41275000D02*
X210820000Y-41275000D01*
X212815001Y-42893001D02*
X212815001Y-42196999D01*
X210820000Y-44888002D02*
X212815001Y-42893001D01*
X210820000Y-92075000D02*
X210820000Y-44888002D01*
X211385685Y-31115000D02*
X210820000Y-31115000D01*
X212815001Y-32733001D02*
X212815001Y-32036999D01*
X211893002Y-31115000D02*
X211385685Y-31115000D01*
X210820000Y-34728002D02*
X212815001Y-32733001D01*
X212815001Y-32036999D02*
X211893002Y-31115000D01*
X210820000Y-41275000D02*
X210820000Y-34728002D01*
X211385685Y-20955000D02*
X210820000Y-20955000D01*
X211893002Y-20955000D02*
X211385685Y-20955000D01*
X212815001Y-21876999D02*
X211893002Y-20955000D01*
X212815001Y-22573001D02*
X212815001Y-21876999D01*
X210820000Y-24568002D02*
X212815001Y-22573001D01*
X210820000Y-31115000D02*
X210820000Y-24568002D01*
X212815001Y-11716999D02*
X211893002Y-10795000D01*
X211893002Y-10795000D02*
X211385685Y-10795000D01*
X212815001Y-16041997D02*
X212815001Y-11716999D01*
X211385685Y-10795000D02*
X210820000Y-10795000D01*
X210820000Y-18036998D02*
X212815001Y-16041997D01*
X210820000Y-20955000D02*
X210820000Y-18036998D01*
X211893002Y-635000D02*
X211385685Y-635000D01*
X212815001Y-5881997D02*
X212815001Y-1556999D01*
X211385685Y-635000D02*
X210820000Y-635000D01*
X210820000Y-7876998D02*
X212815001Y-5881997D01*
X212815001Y-1556999D02*
X211893002Y-635000D01*
X210820000Y-10795000D02*
X210820000Y-7876998D01*
X211893002Y9525000D02*
X211385685Y9525000D01*
X212815001Y8603001D02*
X211893002Y9525000D01*
X211385685Y9525000D02*
X210820000Y9525000D01*
X212815001Y4278003D02*
X212815001Y8603001D01*
X210820000Y2283002D02*
X212815001Y4278003D01*
X210820000Y-635000D02*
X210820000Y2283002D01*
X211893002Y19685000D02*
X211385685Y19685000D01*
X212815001Y18763001D02*
X211893002Y19685000D01*
X211385685Y19685000D02*
X210820000Y19685000D01*
X212815001Y14438003D02*
X212815001Y18763001D01*
X210820000Y12443002D02*
X212815001Y14438003D01*
X210820000Y9525000D02*
X210820000Y12443002D01*
X149365502Y-23157500D02*
X150495000Y-22028002D01*
X145077500Y-23157500D02*
X149365502Y-23157500D01*
X150495000Y-22028002D02*
X180778002Y-22028002D01*
X180778002Y-22028002D02*
X187960000Y-29210000D01*
X187960000Y-29210000D02*
X187960000Y-29210000D01*
X169265019Y2819981D02*
X179349981Y2819981D01*
X167640000Y4445000D02*
X169265019Y2819981D01*
X188595000Y12065000D02*
X188595000Y12698590D01*
X179349981Y2819981D02*
X188595000Y12065000D01*
X212090000Y17849315D02*
X212090000Y18415000D01*
X212090000Y16766998D02*
X212090000Y17849315D01*
X189321411Y13425001D02*
X208748003Y13425001D01*
X208748003Y13425001D02*
X212090000Y16766998D01*
X188595000Y12698590D02*
X189321411Y13425001D01*
X170085010Y3269990D02*
X178529990Y3269990D01*
X168910000Y4445000D02*
X170085010Y3269990D01*
X201304314Y14544999D02*
X205174315Y18415000D01*
X178529990Y3269990D02*
X189804999Y14544999D01*
X189804999Y14544999D02*
X201304314Y14544999D01*
X205174315Y18415000D02*
X205740000Y18415000D01*
X197636997Y19095001D02*
X198316998Y18415000D01*
X198824315Y18415000D02*
X199390000Y18415000D01*
X195821999Y19095001D02*
X197636997Y19095001D01*
X194416997Y17689999D02*
X195821999Y19095001D01*
X191816997Y17689999D02*
X194416997Y17689999D01*
X177846997Y3719999D02*
X191816997Y17689999D01*
X198316998Y18415000D02*
X198824315Y18415000D01*
X170905001Y3719999D02*
X177846997Y3719999D01*
X170180000Y4445000D02*
X170905001Y3719999D01*
X192474315Y18415000D02*
X193040000Y18415000D01*
X191966998Y18415000D02*
X192474315Y18415000D01*
X189471999Y19095001D02*
X191286997Y19095001D01*
X189094999Y18718001D02*
X189471999Y19095001D01*
X189094999Y15936997D02*
X189094999Y18718001D01*
X177603002Y4445000D02*
X189094999Y15936997D01*
X191286997Y19095001D02*
X191966998Y18415000D01*
X171450000Y4445000D02*
X177603002Y4445000D01*
X172720000Y6280685D02*
X172720000Y5715000D01*
X172720000Y9963002D02*
X172720000Y6280685D01*
X171994999Y10688003D02*
X172720000Y9963002D01*
X171994999Y12414411D02*
X171994999Y10688003D01*
X189780607Y30200019D02*
X171994999Y12414411D01*
X209899296Y30200019D02*
X189780607Y30200019D01*
X211524315Y28575000D02*
X209899296Y30200019D01*
X212090000Y28575000D02*
X211524315Y28575000D01*
X173590001Y6114999D02*
X173990000Y5715000D01*
X173264999Y6440001D02*
X173590001Y6114999D01*
X173264999Y10508001D02*
X173264999Y6440001D01*
X173445001Y10688003D02*
X173264999Y10508001D01*
X173445001Y13228003D02*
X173445001Y10688003D01*
X189967008Y29750010D02*
X173445001Y13228003D01*
X204564990Y29750010D02*
X189967008Y29750010D01*
X205740000Y28575000D02*
X204564990Y29750010D01*
X175659999Y6114999D02*
X175260000Y5715000D01*
X175985001Y6440001D02*
X175659999Y6114999D01*
X175985001Y8603001D02*
X175985001Y6440001D01*
X175804999Y8783003D02*
X175985001Y8603001D01*
X175804999Y13048001D02*
X175804999Y8783003D01*
X192056999Y29300001D02*
X175804999Y13048001D01*
X198664999Y29300001D02*
X192056999Y29300001D01*
X199390000Y28575000D02*
X198664999Y29300001D01*
X176929999Y6114999D02*
X176530000Y5715000D01*
X177255001Y13355686D02*
X177255001Y6440001D01*
X192474315Y28575000D02*
X177255001Y13355686D01*
X177255001Y6440001D02*
X176929999Y6114999D01*
X193040000Y28575000D02*
X192474315Y28575000D01*
X211524315Y-1905000D02*
X212090000Y-1905000D01*
X156874999Y-5849999D02*
X207579316Y-5849999D01*
X207579316Y-5849999D02*
X211524315Y-1905000D01*
X156475000Y-5450000D02*
X156874999Y-5849999D01*
X203457499Y-4187501D02*
X205340001Y-2304999D01*
X205340001Y-2304999D02*
X205740000Y-1905000D01*
X158372499Y-4187501D02*
X203457499Y-4187501D01*
X157972500Y-4587500D02*
X158372499Y-4187501D01*
X156845000Y-635000D02*
X186055000Y-635000D01*
X198990001Y-2304999D02*
X199390000Y-1905000D01*
X198619999Y-2675001D02*
X198990001Y-2304999D01*
X188095001Y-2675001D02*
X198619999Y-2675001D01*
X186055000Y-635000D02*
X188095001Y-2675001D01*
X157480000Y635000D02*
X158115000Y0D01*
X192474315Y-1905000D02*
X193040000Y-1905000D01*
X190848002Y-1905000D02*
X192474315Y-1905000D01*
X188943002Y0D02*
X190848002Y-1905000D01*
X158115000Y0D02*
X188943002Y0D01*
X211690001Y7855001D02*
X212090000Y8255000D01*
X209670001Y5835001D02*
X211690001Y7855001D01*
X158115000Y1905000D02*
X159385000Y635000D01*
X190439999Y4384999D02*
X197168001Y4384999D01*
X159385000Y635000D02*
X186690000Y635000D01*
X186690000Y635000D02*
X190439999Y4384999D01*
X197168001Y4384999D02*
X198618003Y5835001D01*
X198618003Y5835001D02*
X209670001Y5835001D01*
X159385000Y3175000D02*
X161290000Y1270000D01*
X185556998Y1270000D02*
X190636998Y6350000D01*
X161290000Y1270000D02*
X185556998Y1270000D01*
X203835000Y6350000D02*
X205740000Y8255000D01*
X190636998Y6350000D02*
X203835000Y6350000D01*
X190168001Y7484999D02*
X198619999Y7484999D01*
X198619999Y7484999D02*
X198990001Y7855001D01*
X184588002Y1905000D02*
X190168001Y7484999D01*
X198990001Y7855001D02*
X199390000Y8255000D01*
X162635000Y1905000D02*
X184588002Y1905000D01*
X160375000Y4165000D02*
X162635000Y1905000D01*
X164635029Y2369971D02*
X179536382Y2369972D01*
X162560000Y4445000D02*
X164635029Y2369971D01*
X192474315Y8255000D02*
X193040000Y8255000D01*
X191966998Y8255000D02*
X192474315Y8255000D01*
X186101411Y8935001D02*
X191286997Y8935001D01*
X191286997Y8935001D02*
X191966998Y8255000D01*
X179536382Y2369972D02*
X186101411Y8935001D01*
X223520000Y-81915000D02*
X224790000Y-80645000D01*
X223520000Y-86360000D02*
X223520000Y-81915000D01*
M02*
