G04 #@! TF.GenerationSoftware,KiCad,Pcbnew,5.1.5-52549c5~84~ubuntu18.04.1*
G04 #@! TF.CreationDate,2020-06-07T18:01:10-07:00*
G04 #@! TF.ProjectId,ram,72616d2e-6b69-4636-9164-5f7063625858,rev?*
G04 #@! TF.SameCoordinates,Original*
G04 #@! TF.FileFunction,Paste,Top*
G04 #@! TF.FilePolarity,Positive*
%FSLAX46Y46*%
G04 Gerber Fmt 4.6, Leading zero omitted, Abs format (unit mm)*
G04 Created by KiCad (PCBNEW 5.1.5-52549c5~84~ubuntu18.04.1) date 2020-06-07 18:01:10*
%MOMM*%
%LPD*%
G04 APERTURE LIST*
%ADD10R,1.348400X0.348400*%
%ADD11R,0.348400X1.348400*%
%ADD12C,0.100000*%
G04 APERTURE END LIST*
D10*
X215040000Y-85680000D03*
X215040000Y-86330000D03*
X215040000Y-86980000D03*
X215040000Y-87630000D03*
X215040000Y-88280000D03*
X215040000Y-88930000D03*
X215040000Y-89580000D03*
X209140000Y-89580000D03*
X209140000Y-88930000D03*
X209140000Y-88280000D03*
X209140000Y-87630000D03*
X209140000Y-86980000D03*
X209140000Y-86330000D03*
X209140000Y-85680000D03*
D11*
X225175000Y-61370000D03*
X224525000Y-61370000D03*
X223875000Y-61370000D03*
X223225000Y-61370000D03*
X222575000Y-61370000D03*
X221925000Y-61370000D03*
X221275000Y-61370000D03*
X220625000Y-61370000D03*
X219975000Y-61370000D03*
X219325000Y-61370000D03*
X219325000Y-55470000D03*
X219975000Y-55470000D03*
X220625000Y-55470000D03*
X221275000Y-55470000D03*
X221925000Y-55470000D03*
X222575000Y-55470000D03*
X223225000Y-55470000D03*
X223875000Y-55470000D03*
X224525000Y-55470000D03*
X225175000Y-55470000D03*
D10*
X218030000Y-9275000D03*
X218030000Y-8625000D03*
X218030000Y-7975000D03*
X218030000Y-7325000D03*
X218030000Y-6675000D03*
X218030000Y-6025000D03*
X218030000Y-5375000D03*
X218030000Y-4725000D03*
X218030000Y-4075000D03*
X218030000Y-3425000D03*
X223930000Y-3425000D03*
X223930000Y-4075000D03*
X223930000Y-4725000D03*
X223930000Y-5375000D03*
X223930000Y-6025000D03*
X223930000Y-6675000D03*
X223930000Y-7325000D03*
X223930000Y-7975000D03*
X223930000Y-8625000D03*
X223930000Y-9275000D03*
D11*
X218055000Y8030000D03*
X218705000Y8030000D03*
X219355000Y8030000D03*
X220005000Y8030000D03*
X220655000Y8030000D03*
X221305000Y8030000D03*
X221955000Y8030000D03*
X222605000Y8030000D03*
X223255000Y8030000D03*
X223905000Y8030000D03*
X223905000Y2130000D03*
X223255000Y2130000D03*
X222605000Y2130000D03*
X221955000Y2130000D03*
X221305000Y2130000D03*
X220655000Y2130000D03*
X220005000Y2130000D03*
X219355000Y2130000D03*
X218705000Y2130000D03*
X218055000Y2130000D03*
X225175000Y-72800000D03*
X224525000Y-72800000D03*
X223875000Y-72800000D03*
X223225000Y-72800000D03*
X222575000Y-72800000D03*
X221925000Y-72800000D03*
X221275000Y-72800000D03*
X220625000Y-72800000D03*
X219975000Y-72800000D03*
X219325000Y-72800000D03*
X219325000Y-66900000D03*
X219975000Y-66900000D03*
X220625000Y-66900000D03*
X221275000Y-66900000D03*
X221925000Y-66900000D03*
X222575000Y-66900000D03*
X223225000Y-66900000D03*
X223875000Y-66900000D03*
X224525000Y-66900000D03*
X225175000Y-66900000D03*
D10*
X218030000Y-19435000D03*
X218030000Y-18785000D03*
X218030000Y-18135000D03*
X218030000Y-17485000D03*
X218030000Y-16835000D03*
X218030000Y-16185000D03*
X218030000Y-15535000D03*
X218030000Y-14885000D03*
X218030000Y-14235000D03*
X218030000Y-13585000D03*
X223930000Y-13585000D03*
X223930000Y-14235000D03*
X223930000Y-14885000D03*
X223930000Y-15535000D03*
X223930000Y-16185000D03*
X223930000Y-16835000D03*
X223930000Y-17485000D03*
X223930000Y-18135000D03*
X223930000Y-18785000D03*
X223930000Y-19435000D03*
D11*
X218055000Y19460000D03*
X218705000Y19460000D03*
X219355000Y19460000D03*
X220005000Y19460000D03*
X220655000Y19460000D03*
X221305000Y19460000D03*
X221955000Y19460000D03*
X222605000Y19460000D03*
X223255000Y19460000D03*
X223905000Y19460000D03*
X223905000Y13560000D03*
X223255000Y13560000D03*
X222605000Y13560000D03*
X221955000Y13560000D03*
X221305000Y13560000D03*
X220655000Y13560000D03*
X220005000Y13560000D03*
X219355000Y13560000D03*
X218705000Y13560000D03*
X218055000Y13560000D03*
D10*
X215040000Y-78060000D03*
X215040000Y-78710000D03*
X215040000Y-79360000D03*
X215040000Y-80010000D03*
X215040000Y-80660000D03*
X215040000Y-81310000D03*
X215040000Y-81960000D03*
X209140000Y-81960000D03*
X209140000Y-81310000D03*
X209140000Y-80660000D03*
X209140000Y-80010000D03*
X209140000Y-79360000D03*
X209140000Y-78710000D03*
X209140000Y-78060000D03*
X225200000Y-85680000D03*
X225200000Y-86330000D03*
X225200000Y-86980000D03*
X225200000Y-87630000D03*
X225200000Y-88280000D03*
X225200000Y-88930000D03*
X225200000Y-89580000D03*
X219300000Y-89580000D03*
X219300000Y-88930000D03*
X219300000Y-88280000D03*
X219300000Y-87630000D03*
X219300000Y-86980000D03*
X219300000Y-86330000D03*
X219300000Y-85680000D03*
X225200000Y-78060000D03*
X225200000Y-78710000D03*
X225200000Y-79360000D03*
X225200000Y-80010000D03*
X225200000Y-80660000D03*
X225200000Y-81310000D03*
X225200000Y-81960000D03*
X219300000Y-81960000D03*
X219300000Y-81310000D03*
X219300000Y-80660000D03*
X219300000Y-80010000D03*
X219300000Y-79360000D03*
X219300000Y-78710000D03*
X219300000Y-78060000D03*
D12*
G36*
X188573088Y20268660D02*
G01*
X188583970Y20267046D01*
X188594641Y20264373D01*
X188604999Y20260667D01*
X188614944Y20255963D01*
X188624379Y20250308D01*
X188633215Y20243754D01*
X188641367Y20236367D01*
X188648754Y20228215D01*
X188655308Y20219379D01*
X188660963Y20209944D01*
X188665667Y20199999D01*
X188669373Y20189641D01*
X188672046Y20178970D01*
X188673660Y20168088D01*
X188674200Y20157100D01*
X188674200Y18957900D01*
X188673660Y18946912D01*
X188672046Y18936030D01*
X188669373Y18925359D01*
X188665667Y18915001D01*
X188660963Y18905056D01*
X188655308Y18895621D01*
X188648754Y18886785D01*
X188641367Y18878633D01*
X188633215Y18871246D01*
X188624379Y18864692D01*
X188614944Y18859037D01*
X188604999Y18854333D01*
X188594641Y18850627D01*
X188583970Y18847954D01*
X188573088Y18846340D01*
X188562100Y18845800D01*
X188337900Y18845800D01*
X188326912Y18846340D01*
X188316030Y18847954D01*
X188305359Y18850627D01*
X188295001Y18854333D01*
X188285056Y18859037D01*
X188275621Y18864692D01*
X188266785Y18871246D01*
X188258633Y18878633D01*
X188251246Y18886785D01*
X188244692Y18895621D01*
X188239037Y18905056D01*
X188234333Y18915001D01*
X188230627Y18925359D01*
X188227954Y18936030D01*
X188226340Y18946912D01*
X188225800Y18957900D01*
X188225800Y20157100D01*
X188226340Y20168088D01*
X188227954Y20178970D01*
X188230627Y20189641D01*
X188234333Y20199999D01*
X188239037Y20209944D01*
X188244692Y20219379D01*
X188251246Y20228215D01*
X188258633Y20236367D01*
X188266785Y20243754D01*
X188275621Y20250308D01*
X188285056Y20255963D01*
X188295001Y20260667D01*
X188305359Y20264373D01*
X188316030Y20267046D01*
X188326912Y20268660D01*
X188337900Y20269200D01*
X188562100Y20269200D01*
X188573088Y20268660D01*
G37*
G36*
X189373088Y20268660D02*
G01*
X189383970Y20267046D01*
X189394641Y20264373D01*
X189404999Y20260667D01*
X189414944Y20255963D01*
X189424379Y20250308D01*
X189433215Y20243754D01*
X189441367Y20236367D01*
X189448754Y20228215D01*
X189455308Y20219379D01*
X189460963Y20209944D01*
X189465667Y20199999D01*
X189469373Y20189641D01*
X189472046Y20178970D01*
X189473660Y20168088D01*
X189474200Y20157100D01*
X189474200Y18957900D01*
X189473660Y18946912D01*
X189472046Y18936030D01*
X189469373Y18925359D01*
X189465667Y18915001D01*
X189460963Y18905056D01*
X189455308Y18895621D01*
X189448754Y18886785D01*
X189441367Y18878633D01*
X189433215Y18871246D01*
X189424379Y18864692D01*
X189414944Y18859037D01*
X189404999Y18854333D01*
X189394641Y18850627D01*
X189383970Y18847954D01*
X189373088Y18846340D01*
X189362100Y18845800D01*
X189137900Y18845800D01*
X189126912Y18846340D01*
X189116030Y18847954D01*
X189105359Y18850627D01*
X189095001Y18854333D01*
X189085056Y18859037D01*
X189075621Y18864692D01*
X189066785Y18871246D01*
X189058633Y18878633D01*
X189051246Y18886785D01*
X189044692Y18895621D01*
X189039037Y18905056D01*
X189034333Y18915001D01*
X189030627Y18925359D01*
X189027954Y18936030D01*
X189026340Y18946912D01*
X189025800Y18957900D01*
X189025800Y20157100D01*
X189026340Y20168088D01*
X189027954Y20178970D01*
X189030627Y20189641D01*
X189034333Y20199999D01*
X189039037Y20209944D01*
X189044692Y20219379D01*
X189051246Y20228215D01*
X189058633Y20236367D01*
X189066785Y20243754D01*
X189075621Y20250308D01*
X189085056Y20255963D01*
X189095001Y20260667D01*
X189105359Y20264373D01*
X189116030Y20267046D01*
X189126912Y20268660D01*
X189137900Y20269200D01*
X189362100Y20269200D01*
X189373088Y20268660D01*
G37*
G36*
X190173088Y20268660D02*
G01*
X190183970Y20267046D01*
X190194641Y20264373D01*
X190204999Y20260667D01*
X190214944Y20255963D01*
X190224379Y20250308D01*
X190233215Y20243754D01*
X190241367Y20236367D01*
X190248754Y20228215D01*
X190255308Y20219379D01*
X190260963Y20209944D01*
X190265667Y20199999D01*
X190269373Y20189641D01*
X190272046Y20178970D01*
X190273660Y20168088D01*
X190274200Y20157100D01*
X190274200Y18957900D01*
X190273660Y18946912D01*
X190272046Y18936030D01*
X190269373Y18925359D01*
X190265667Y18915001D01*
X190260963Y18905056D01*
X190255308Y18895621D01*
X190248754Y18886785D01*
X190241367Y18878633D01*
X190233215Y18871246D01*
X190224379Y18864692D01*
X190214944Y18859037D01*
X190204999Y18854333D01*
X190194641Y18850627D01*
X190183970Y18847954D01*
X190173088Y18846340D01*
X190162100Y18845800D01*
X189937900Y18845800D01*
X189926912Y18846340D01*
X189916030Y18847954D01*
X189905359Y18850627D01*
X189895001Y18854333D01*
X189885056Y18859037D01*
X189875621Y18864692D01*
X189866785Y18871246D01*
X189858633Y18878633D01*
X189851246Y18886785D01*
X189844692Y18895621D01*
X189839037Y18905056D01*
X189834333Y18915001D01*
X189830627Y18925359D01*
X189827954Y18936030D01*
X189826340Y18946912D01*
X189825800Y18957900D01*
X189825800Y20157100D01*
X189826340Y20168088D01*
X189827954Y20178970D01*
X189830627Y20189641D01*
X189834333Y20199999D01*
X189839037Y20209944D01*
X189844692Y20219379D01*
X189851246Y20228215D01*
X189858633Y20236367D01*
X189866785Y20243754D01*
X189875621Y20250308D01*
X189885056Y20255963D01*
X189895001Y20260667D01*
X189905359Y20264373D01*
X189916030Y20267046D01*
X189926912Y20268660D01*
X189937900Y20269200D01*
X190162100Y20269200D01*
X190173088Y20268660D01*
G37*
G36*
X190973088Y20268660D02*
G01*
X190983970Y20267046D01*
X190994641Y20264373D01*
X191004999Y20260667D01*
X191014944Y20255963D01*
X191024379Y20250308D01*
X191033215Y20243754D01*
X191041367Y20236367D01*
X191048754Y20228215D01*
X191055308Y20219379D01*
X191060963Y20209944D01*
X191065667Y20199999D01*
X191069373Y20189641D01*
X191072046Y20178970D01*
X191073660Y20168088D01*
X191074200Y20157100D01*
X191074200Y18957900D01*
X191073660Y18946912D01*
X191072046Y18936030D01*
X191069373Y18925359D01*
X191065667Y18915001D01*
X191060963Y18905056D01*
X191055308Y18895621D01*
X191048754Y18886785D01*
X191041367Y18878633D01*
X191033215Y18871246D01*
X191024379Y18864692D01*
X191014944Y18859037D01*
X191004999Y18854333D01*
X190994641Y18850627D01*
X190983970Y18847954D01*
X190973088Y18846340D01*
X190962100Y18845800D01*
X190737900Y18845800D01*
X190726912Y18846340D01*
X190716030Y18847954D01*
X190705359Y18850627D01*
X190695001Y18854333D01*
X190685056Y18859037D01*
X190675621Y18864692D01*
X190666785Y18871246D01*
X190658633Y18878633D01*
X190651246Y18886785D01*
X190644692Y18895621D01*
X190639037Y18905056D01*
X190634333Y18915001D01*
X190630627Y18925359D01*
X190627954Y18936030D01*
X190626340Y18946912D01*
X190625800Y18957900D01*
X190625800Y20157100D01*
X190626340Y20168088D01*
X190627954Y20178970D01*
X190630627Y20189641D01*
X190634333Y20199999D01*
X190639037Y20209944D01*
X190644692Y20219379D01*
X190651246Y20228215D01*
X190658633Y20236367D01*
X190666785Y20243754D01*
X190675621Y20250308D01*
X190685056Y20255963D01*
X190695001Y20260667D01*
X190705359Y20264373D01*
X190716030Y20267046D01*
X190726912Y20268660D01*
X190737900Y20269200D01*
X190962100Y20269200D01*
X190973088Y20268660D01*
G37*
G36*
X191773088Y20268660D02*
G01*
X191783970Y20267046D01*
X191794641Y20264373D01*
X191804999Y20260667D01*
X191814944Y20255963D01*
X191824379Y20250308D01*
X191833215Y20243754D01*
X191841367Y20236367D01*
X191848754Y20228215D01*
X191855308Y20219379D01*
X191860963Y20209944D01*
X191865667Y20199999D01*
X191869373Y20189641D01*
X191872046Y20178970D01*
X191873660Y20168088D01*
X191874200Y20157100D01*
X191874200Y18957900D01*
X191873660Y18946912D01*
X191872046Y18936030D01*
X191869373Y18925359D01*
X191865667Y18915001D01*
X191860963Y18905056D01*
X191855308Y18895621D01*
X191848754Y18886785D01*
X191841367Y18878633D01*
X191833215Y18871246D01*
X191824379Y18864692D01*
X191814944Y18859037D01*
X191804999Y18854333D01*
X191794641Y18850627D01*
X191783970Y18847954D01*
X191773088Y18846340D01*
X191762100Y18845800D01*
X191537900Y18845800D01*
X191526912Y18846340D01*
X191516030Y18847954D01*
X191505359Y18850627D01*
X191495001Y18854333D01*
X191485056Y18859037D01*
X191475621Y18864692D01*
X191466785Y18871246D01*
X191458633Y18878633D01*
X191451246Y18886785D01*
X191444692Y18895621D01*
X191439037Y18905056D01*
X191434333Y18915001D01*
X191430627Y18925359D01*
X191427954Y18936030D01*
X191426340Y18946912D01*
X191425800Y18957900D01*
X191425800Y20157100D01*
X191426340Y20168088D01*
X191427954Y20178970D01*
X191430627Y20189641D01*
X191434333Y20199999D01*
X191439037Y20209944D01*
X191444692Y20219379D01*
X191451246Y20228215D01*
X191458633Y20236367D01*
X191466785Y20243754D01*
X191475621Y20250308D01*
X191485056Y20255963D01*
X191495001Y20260667D01*
X191505359Y20264373D01*
X191516030Y20267046D01*
X191526912Y20268660D01*
X191537900Y20269200D01*
X191762100Y20269200D01*
X191773088Y20268660D01*
G37*
G36*
X192573088Y20268660D02*
G01*
X192583970Y20267046D01*
X192594641Y20264373D01*
X192604999Y20260667D01*
X192614944Y20255963D01*
X192624379Y20250308D01*
X192633215Y20243754D01*
X192641367Y20236367D01*
X192648754Y20228215D01*
X192655308Y20219379D01*
X192660963Y20209944D01*
X192665667Y20199999D01*
X192669373Y20189641D01*
X192672046Y20178970D01*
X192673660Y20168088D01*
X192674200Y20157100D01*
X192674200Y18957900D01*
X192673660Y18946912D01*
X192672046Y18936030D01*
X192669373Y18925359D01*
X192665667Y18915001D01*
X192660963Y18905056D01*
X192655308Y18895621D01*
X192648754Y18886785D01*
X192641367Y18878633D01*
X192633215Y18871246D01*
X192624379Y18864692D01*
X192614944Y18859037D01*
X192604999Y18854333D01*
X192594641Y18850627D01*
X192583970Y18847954D01*
X192573088Y18846340D01*
X192562100Y18845800D01*
X192337900Y18845800D01*
X192326912Y18846340D01*
X192316030Y18847954D01*
X192305359Y18850627D01*
X192295001Y18854333D01*
X192285056Y18859037D01*
X192275621Y18864692D01*
X192266785Y18871246D01*
X192258633Y18878633D01*
X192251246Y18886785D01*
X192244692Y18895621D01*
X192239037Y18905056D01*
X192234333Y18915001D01*
X192230627Y18925359D01*
X192227954Y18936030D01*
X192226340Y18946912D01*
X192225800Y18957900D01*
X192225800Y20157100D01*
X192226340Y20168088D01*
X192227954Y20178970D01*
X192230627Y20189641D01*
X192234333Y20199999D01*
X192239037Y20209944D01*
X192244692Y20219379D01*
X192251246Y20228215D01*
X192258633Y20236367D01*
X192266785Y20243754D01*
X192275621Y20250308D01*
X192285056Y20255963D01*
X192295001Y20260667D01*
X192305359Y20264373D01*
X192316030Y20267046D01*
X192326912Y20268660D01*
X192337900Y20269200D01*
X192562100Y20269200D01*
X192573088Y20268660D01*
G37*
G36*
X193373088Y20268660D02*
G01*
X193383970Y20267046D01*
X193394641Y20264373D01*
X193404999Y20260667D01*
X193414944Y20255963D01*
X193424379Y20250308D01*
X193433215Y20243754D01*
X193441367Y20236367D01*
X193448754Y20228215D01*
X193455308Y20219379D01*
X193460963Y20209944D01*
X193465667Y20199999D01*
X193469373Y20189641D01*
X193472046Y20178970D01*
X193473660Y20168088D01*
X193474200Y20157100D01*
X193474200Y18957900D01*
X193473660Y18946912D01*
X193472046Y18936030D01*
X193469373Y18925359D01*
X193465667Y18915001D01*
X193460963Y18905056D01*
X193455308Y18895621D01*
X193448754Y18886785D01*
X193441367Y18878633D01*
X193433215Y18871246D01*
X193424379Y18864692D01*
X193414944Y18859037D01*
X193404999Y18854333D01*
X193394641Y18850627D01*
X193383970Y18847954D01*
X193373088Y18846340D01*
X193362100Y18845800D01*
X193137900Y18845800D01*
X193126912Y18846340D01*
X193116030Y18847954D01*
X193105359Y18850627D01*
X193095001Y18854333D01*
X193085056Y18859037D01*
X193075621Y18864692D01*
X193066785Y18871246D01*
X193058633Y18878633D01*
X193051246Y18886785D01*
X193044692Y18895621D01*
X193039037Y18905056D01*
X193034333Y18915001D01*
X193030627Y18925359D01*
X193027954Y18936030D01*
X193026340Y18946912D01*
X193025800Y18957900D01*
X193025800Y20157100D01*
X193026340Y20168088D01*
X193027954Y20178970D01*
X193030627Y20189641D01*
X193034333Y20199999D01*
X193039037Y20209944D01*
X193044692Y20219379D01*
X193051246Y20228215D01*
X193058633Y20236367D01*
X193066785Y20243754D01*
X193075621Y20250308D01*
X193085056Y20255963D01*
X193095001Y20260667D01*
X193105359Y20264373D01*
X193116030Y20267046D01*
X193126912Y20268660D01*
X193137900Y20269200D01*
X193362100Y20269200D01*
X193373088Y20268660D01*
G37*
G36*
X194173088Y20268660D02*
G01*
X194183970Y20267046D01*
X194194641Y20264373D01*
X194204999Y20260667D01*
X194214944Y20255963D01*
X194224379Y20250308D01*
X194233215Y20243754D01*
X194241367Y20236367D01*
X194248754Y20228215D01*
X194255308Y20219379D01*
X194260963Y20209944D01*
X194265667Y20199999D01*
X194269373Y20189641D01*
X194272046Y20178970D01*
X194273660Y20168088D01*
X194274200Y20157100D01*
X194274200Y18957900D01*
X194273660Y18946912D01*
X194272046Y18936030D01*
X194269373Y18925359D01*
X194265667Y18915001D01*
X194260963Y18905056D01*
X194255308Y18895621D01*
X194248754Y18886785D01*
X194241367Y18878633D01*
X194233215Y18871246D01*
X194224379Y18864692D01*
X194214944Y18859037D01*
X194204999Y18854333D01*
X194194641Y18850627D01*
X194183970Y18847954D01*
X194173088Y18846340D01*
X194162100Y18845800D01*
X193937900Y18845800D01*
X193926912Y18846340D01*
X193916030Y18847954D01*
X193905359Y18850627D01*
X193895001Y18854333D01*
X193885056Y18859037D01*
X193875621Y18864692D01*
X193866785Y18871246D01*
X193858633Y18878633D01*
X193851246Y18886785D01*
X193844692Y18895621D01*
X193839037Y18905056D01*
X193834333Y18915001D01*
X193830627Y18925359D01*
X193827954Y18936030D01*
X193826340Y18946912D01*
X193825800Y18957900D01*
X193825800Y20157100D01*
X193826340Y20168088D01*
X193827954Y20178970D01*
X193830627Y20189641D01*
X193834333Y20199999D01*
X193839037Y20209944D01*
X193844692Y20219379D01*
X193851246Y20228215D01*
X193858633Y20236367D01*
X193866785Y20243754D01*
X193875621Y20250308D01*
X193885056Y20255963D01*
X193895001Y20260667D01*
X193905359Y20264373D01*
X193916030Y20267046D01*
X193926912Y20268660D01*
X193937900Y20269200D01*
X194162100Y20269200D01*
X194173088Y20268660D01*
G37*
G36*
X194973088Y20268660D02*
G01*
X194983970Y20267046D01*
X194994641Y20264373D01*
X195004999Y20260667D01*
X195014944Y20255963D01*
X195024379Y20250308D01*
X195033215Y20243754D01*
X195041367Y20236367D01*
X195048754Y20228215D01*
X195055308Y20219379D01*
X195060963Y20209944D01*
X195065667Y20199999D01*
X195069373Y20189641D01*
X195072046Y20178970D01*
X195073660Y20168088D01*
X195074200Y20157100D01*
X195074200Y18957900D01*
X195073660Y18946912D01*
X195072046Y18936030D01*
X195069373Y18925359D01*
X195065667Y18915001D01*
X195060963Y18905056D01*
X195055308Y18895621D01*
X195048754Y18886785D01*
X195041367Y18878633D01*
X195033215Y18871246D01*
X195024379Y18864692D01*
X195014944Y18859037D01*
X195004999Y18854333D01*
X194994641Y18850627D01*
X194983970Y18847954D01*
X194973088Y18846340D01*
X194962100Y18845800D01*
X194737900Y18845800D01*
X194726912Y18846340D01*
X194716030Y18847954D01*
X194705359Y18850627D01*
X194695001Y18854333D01*
X194685056Y18859037D01*
X194675621Y18864692D01*
X194666785Y18871246D01*
X194658633Y18878633D01*
X194651246Y18886785D01*
X194644692Y18895621D01*
X194639037Y18905056D01*
X194634333Y18915001D01*
X194630627Y18925359D01*
X194627954Y18936030D01*
X194626340Y18946912D01*
X194625800Y18957900D01*
X194625800Y20157100D01*
X194626340Y20168088D01*
X194627954Y20178970D01*
X194630627Y20189641D01*
X194634333Y20199999D01*
X194639037Y20209944D01*
X194644692Y20219379D01*
X194651246Y20228215D01*
X194658633Y20236367D01*
X194666785Y20243754D01*
X194675621Y20250308D01*
X194685056Y20255963D01*
X194695001Y20260667D01*
X194705359Y20264373D01*
X194716030Y20267046D01*
X194726912Y20268660D01*
X194737900Y20269200D01*
X194962100Y20269200D01*
X194973088Y20268660D01*
G37*
G36*
X195773088Y20268660D02*
G01*
X195783970Y20267046D01*
X195794641Y20264373D01*
X195804999Y20260667D01*
X195814944Y20255963D01*
X195824379Y20250308D01*
X195833215Y20243754D01*
X195841367Y20236367D01*
X195848754Y20228215D01*
X195855308Y20219379D01*
X195860963Y20209944D01*
X195865667Y20199999D01*
X195869373Y20189641D01*
X195872046Y20178970D01*
X195873660Y20168088D01*
X195874200Y20157100D01*
X195874200Y18957900D01*
X195873660Y18946912D01*
X195872046Y18936030D01*
X195869373Y18925359D01*
X195865667Y18915001D01*
X195860963Y18905056D01*
X195855308Y18895621D01*
X195848754Y18886785D01*
X195841367Y18878633D01*
X195833215Y18871246D01*
X195824379Y18864692D01*
X195814944Y18859037D01*
X195804999Y18854333D01*
X195794641Y18850627D01*
X195783970Y18847954D01*
X195773088Y18846340D01*
X195762100Y18845800D01*
X195537900Y18845800D01*
X195526912Y18846340D01*
X195516030Y18847954D01*
X195505359Y18850627D01*
X195495001Y18854333D01*
X195485056Y18859037D01*
X195475621Y18864692D01*
X195466785Y18871246D01*
X195458633Y18878633D01*
X195451246Y18886785D01*
X195444692Y18895621D01*
X195439037Y18905056D01*
X195434333Y18915001D01*
X195430627Y18925359D01*
X195427954Y18936030D01*
X195426340Y18946912D01*
X195425800Y18957900D01*
X195425800Y20157100D01*
X195426340Y20168088D01*
X195427954Y20178970D01*
X195430627Y20189641D01*
X195434333Y20199999D01*
X195439037Y20209944D01*
X195444692Y20219379D01*
X195451246Y20228215D01*
X195458633Y20236367D01*
X195466785Y20243754D01*
X195475621Y20250308D01*
X195485056Y20255963D01*
X195495001Y20260667D01*
X195505359Y20264373D01*
X195516030Y20267046D01*
X195526912Y20268660D01*
X195537900Y20269200D01*
X195762100Y20269200D01*
X195773088Y20268660D01*
G37*
G36*
X196573088Y20268660D02*
G01*
X196583970Y20267046D01*
X196594641Y20264373D01*
X196604999Y20260667D01*
X196614944Y20255963D01*
X196624379Y20250308D01*
X196633215Y20243754D01*
X196641367Y20236367D01*
X196648754Y20228215D01*
X196655308Y20219379D01*
X196660963Y20209944D01*
X196665667Y20199999D01*
X196669373Y20189641D01*
X196672046Y20178970D01*
X196673660Y20168088D01*
X196674200Y20157100D01*
X196674200Y18957900D01*
X196673660Y18946912D01*
X196672046Y18936030D01*
X196669373Y18925359D01*
X196665667Y18915001D01*
X196660963Y18905056D01*
X196655308Y18895621D01*
X196648754Y18886785D01*
X196641367Y18878633D01*
X196633215Y18871246D01*
X196624379Y18864692D01*
X196614944Y18859037D01*
X196604999Y18854333D01*
X196594641Y18850627D01*
X196583970Y18847954D01*
X196573088Y18846340D01*
X196562100Y18845800D01*
X196337900Y18845800D01*
X196326912Y18846340D01*
X196316030Y18847954D01*
X196305359Y18850627D01*
X196295001Y18854333D01*
X196285056Y18859037D01*
X196275621Y18864692D01*
X196266785Y18871246D01*
X196258633Y18878633D01*
X196251246Y18886785D01*
X196244692Y18895621D01*
X196239037Y18905056D01*
X196234333Y18915001D01*
X196230627Y18925359D01*
X196227954Y18936030D01*
X196226340Y18946912D01*
X196225800Y18957900D01*
X196225800Y20157100D01*
X196226340Y20168088D01*
X196227954Y20178970D01*
X196230627Y20189641D01*
X196234333Y20199999D01*
X196239037Y20209944D01*
X196244692Y20219379D01*
X196251246Y20228215D01*
X196258633Y20236367D01*
X196266785Y20243754D01*
X196275621Y20250308D01*
X196285056Y20255963D01*
X196295001Y20260667D01*
X196305359Y20264373D01*
X196316030Y20267046D01*
X196326912Y20268660D01*
X196337900Y20269200D01*
X196562100Y20269200D01*
X196573088Y20268660D01*
G37*
G36*
X197373088Y20268660D02*
G01*
X197383970Y20267046D01*
X197394641Y20264373D01*
X197404999Y20260667D01*
X197414944Y20255963D01*
X197424379Y20250308D01*
X197433215Y20243754D01*
X197441367Y20236367D01*
X197448754Y20228215D01*
X197455308Y20219379D01*
X197460963Y20209944D01*
X197465667Y20199999D01*
X197469373Y20189641D01*
X197472046Y20178970D01*
X197473660Y20168088D01*
X197474200Y20157100D01*
X197474200Y18957900D01*
X197473660Y18946912D01*
X197472046Y18936030D01*
X197469373Y18925359D01*
X197465667Y18915001D01*
X197460963Y18905056D01*
X197455308Y18895621D01*
X197448754Y18886785D01*
X197441367Y18878633D01*
X197433215Y18871246D01*
X197424379Y18864692D01*
X197414944Y18859037D01*
X197404999Y18854333D01*
X197394641Y18850627D01*
X197383970Y18847954D01*
X197373088Y18846340D01*
X197362100Y18845800D01*
X197137900Y18845800D01*
X197126912Y18846340D01*
X197116030Y18847954D01*
X197105359Y18850627D01*
X197095001Y18854333D01*
X197085056Y18859037D01*
X197075621Y18864692D01*
X197066785Y18871246D01*
X197058633Y18878633D01*
X197051246Y18886785D01*
X197044692Y18895621D01*
X197039037Y18905056D01*
X197034333Y18915001D01*
X197030627Y18925359D01*
X197027954Y18936030D01*
X197026340Y18946912D01*
X197025800Y18957900D01*
X197025800Y20157100D01*
X197026340Y20168088D01*
X197027954Y20178970D01*
X197030627Y20189641D01*
X197034333Y20199999D01*
X197039037Y20209944D01*
X197044692Y20219379D01*
X197051246Y20228215D01*
X197058633Y20236367D01*
X197066785Y20243754D01*
X197075621Y20250308D01*
X197085056Y20255963D01*
X197095001Y20260667D01*
X197105359Y20264373D01*
X197116030Y20267046D01*
X197126912Y20268660D01*
X197137900Y20269200D01*
X197362100Y20269200D01*
X197373088Y20268660D01*
G37*
G36*
X198173088Y20268660D02*
G01*
X198183970Y20267046D01*
X198194641Y20264373D01*
X198204999Y20260667D01*
X198214944Y20255963D01*
X198224379Y20250308D01*
X198233215Y20243754D01*
X198241367Y20236367D01*
X198248754Y20228215D01*
X198255308Y20219379D01*
X198260963Y20209944D01*
X198265667Y20199999D01*
X198269373Y20189641D01*
X198272046Y20178970D01*
X198273660Y20168088D01*
X198274200Y20157100D01*
X198274200Y18957900D01*
X198273660Y18946912D01*
X198272046Y18936030D01*
X198269373Y18925359D01*
X198265667Y18915001D01*
X198260963Y18905056D01*
X198255308Y18895621D01*
X198248754Y18886785D01*
X198241367Y18878633D01*
X198233215Y18871246D01*
X198224379Y18864692D01*
X198214944Y18859037D01*
X198204999Y18854333D01*
X198194641Y18850627D01*
X198183970Y18847954D01*
X198173088Y18846340D01*
X198162100Y18845800D01*
X197937900Y18845800D01*
X197926912Y18846340D01*
X197916030Y18847954D01*
X197905359Y18850627D01*
X197895001Y18854333D01*
X197885056Y18859037D01*
X197875621Y18864692D01*
X197866785Y18871246D01*
X197858633Y18878633D01*
X197851246Y18886785D01*
X197844692Y18895621D01*
X197839037Y18905056D01*
X197834333Y18915001D01*
X197830627Y18925359D01*
X197827954Y18936030D01*
X197826340Y18946912D01*
X197825800Y18957900D01*
X197825800Y20157100D01*
X197826340Y20168088D01*
X197827954Y20178970D01*
X197830627Y20189641D01*
X197834333Y20199999D01*
X197839037Y20209944D01*
X197844692Y20219379D01*
X197851246Y20228215D01*
X197858633Y20236367D01*
X197866785Y20243754D01*
X197875621Y20250308D01*
X197885056Y20255963D01*
X197895001Y20260667D01*
X197905359Y20264373D01*
X197916030Y20267046D01*
X197926912Y20268660D01*
X197937900Y20269200D01*
X198162100Y20269200D01*
X198173088Y20268660D01*
G37*
G36*
X198973088Y20268660D02*
G01*
X198983970Y20267046D01*
X198994641Y20264373D01*
X199004999Y20260667D01*
X199014944Y20255963D01*
X199024379Y20250308D01*
X199033215Y20243754D01*
X199041367Y20236367D01*
X199048754Y20228215D01*
X199055308Y20219379D01*
X199060963Y20209944D01*
X199065667Y20199999D01*
X199069373Y20189641D01*
X199072046Y20178970D01*
X199073660Y20168088D01*
X199074200Y20157100D01*
X199074200Y18957900D01*
X199073660Y18946912D01*
X199072046Y18936030D01*
X199069373Y18925359D01*
X199065667Y18915001D01*
X199060963Y18905056D01*
X199055308Y18895621D01*
X199048754Y18886785D01*
X199041367Y18878633D01*
X199033215Y18871246D01*
X199024379Y18864692D01*
X199014944Y18859037D01*
X199004999Y18854333D01*
X198994641Y18850627D01*
X198983970Y18847954D01*
X198973088Y18846340D01*
X198962100Y18845800D01*
X198737900Y18845800D01*
X198726912Y18846340D01*
X198716030Y18847954D01*
X198705359Y18850627D01*
X198695001Y18854333D01*
X198685056Y18859037D01*
X198675621Y18864692D01*
X198666785Y18871246D01*
X198658633Y18878633D01*
X198651246Y18886785D01*
X198644692Y18895621D01*
X198639037Y18905056D01*
X198634333Y18915001D01*
X198630627Y18925359D01*
X198627954Y18936030D01*
X198626340Y18946912D01*
X198625800Y18957900D01*
X198625800Y20157100D01*
X198626340Y20168088D01*
X198627954Y20178970D01*
X198630627Y20189641D01*
X198634333Y20199999D01*
X198639037Y20209944D01*
X198644692Y20219379D01*
X198651246Y20228215D01*
X198658633Y20236367D01*
X198666785Y20243754D01*
X198675621Y20250308D01*
X198685056Y20255963D01*
X198695001Y20260667D01*
X198705359Y20264373D01*
X198716030Y20267046D01*
X198726912Y20268660D01*
X198737900Y20269200D01*
X198962100Y20269200D01*
X198973088Y20268660D01*
G37*
G36*
X199773088Y20268660D02*
G01*
X199783970Y20267046D01*
X199794641Y20264373D01*
X199804999Y20260667D01*
X199814944Y20255963D01*
X199824379Y20250308D01*
X199833215Y20243754D01*
X199841367Y20236367D01*
X199848754Y20228215D01*
X199855308Y20219379D01*
X199860963Y20209944D01*
X199865667Y20199999D01*
X199869373Y20189641D01*
X199872046Y20178970D01*
X199873660Y20168088D01*
X199874200Y20157100D01*
X199874200Y18957900D01*
X199873660Y18946912D01*
X199872046Y18936030D01*
X199869373Y18925359D01*
X199865667Y18915001D01*
X199860963Y18905056D01*
X199855308Y18895621D01*
X199848754Y18886785D01*
X199841367Y18878633D01*
X199833215Y18871246D01*
X199824379Y18864692D01*
X199814944Y18859037D01*
X199804999Y18854333D01*
X199794641Y18850627D01*
X199783970Y18847954D01*
X199773088Y18846340D01*
X199762100Y18845800D01*
X199537900Y18845800D01*
X199526912Y18846340D01*
X199516030Y18847954D01*
X199505359Y18850627D01*
X199495001Y18854333D01*
X199485056Y18859037D01*
X199475621Y18864692D01*
X199466785Y18871246D01*
X199458633Y18878633D01*
X199451246Y18886785D01*
X199444692Y18895621D01*
X199439037Y18905056D01*
X199434333Y18915001D01*
X199430627Y18925359D01*
X199427954Y18936030D01*
X199426340Y18946912D01*
X199425800Y18957900D01*
X199425800Y20157100D01*
X199426340Y20168088D01*
X199427954Y20178970D01*
X199430627Y20189641D01*
X199434333Y20199999D01*
X199439037Y20209944D01*
X199444692Y20219379D01*
X199451246Y20228215D01*
X199458633Y20236367D01*
X199466785Y20243754D01*
X199475621Y20250308D01*
X199485056Y20255963D01*
X199495001Y20260667D01*
X199505359Y20264373D01*
X199516030Y20267046D01*
X199526912Y20268660D01*
X199537900Y20269200D01*
X199762100Y20269200D01*
X199773088Y20268660D01*
G37*
G36*
X200573088Y20268660D02*
G01*
X200583970Y20267046D01*
X200594641Y20264373D01*
X200604999Y20260667D01*
X200614944Y20255963D01*
X200624379Y20250308D01*
X200633215Y20243754D01*
X200641367Y20236367D01*
X200648754Y20228215D01*
X200655308Y20219379D01*
X200660963Y20209944D01*
X200665667Y20199999D01*
X200669373Y20189641D01*
X200672046Y20178970D01*
X200673660Y20168088D01*
X200674200Y20157100D01*
X200674200Y18957900D01*
X200673660Y18946912D01*
X200672046Y18936030D01*
X200669373Y18925359D01*
X200665667Y18915001D01*
X200660963Y18905056D01*
X200655308Y18895621D01*
X200648754Y18886785D01*
X200641367Y18878633D01*
X200633215Y18871246D01*
X200624379Y18864692D01*
X200614944Y18859037D01*
X200604999Y18854333D01*
X200594641Y18850627D01*
X200583970Y18847954D01*
X200573088Y18846340D01*
X200562100Y18845800D01*
X200337900Y18845800D01*
X200326912Y18846340D01*
X200316030Y18847954D01*
X200305359Y18850627D01*
X200295001Y18854333D01*
X200285056Y18859037D01*
X200275621Y18864692D01*
X200266785Y18871246D01*
X200258633Y18878633D01*
X200251246Y18886785D01*
X200244692Y18895621D01*
X200239037Y18905056D01*
X200234333Y18915001D01*
X200230627Y18925359D01*
X200227954Y18936030D01*
X200226340Y18946912D01*
X200225800Y18957900D01*
X200225800Y20157100D01*
X200226340Y20168088D01*
X200227954Y20178970D01*
X200230627Y20189641D01*
X200234333Y20199999D01*
X200239037Y20209944D01*
X200244692Y20219379D01*
X200251246Y20228215D01*
X200258633Y20236367D01*
X200266785Y20243754D01*
X200275621Y20250308D01*
X200285056Y20255963D01*
X200295001Y20260667D01*
X200305359Y20264373D01*
X200316030Y20267046D01*
X200326912Y20268660D01*
X200337900Y20269200D01*
X200562100Y20269200D01*
X200573088Y20268660D01*
G37*
G36*
X201373088Y20268660D02*
G01*
X201383970Y20267046D01*
X201394641Y20264373D01*
X201404999Y20260667D01*
X201414944Y20255963D01*
X201424379Y20250308D01*
X201433215Y20243754D01*
X201441367Y20236367D01*
X201448754Y20228215D01*
X201455308Y20219379D01*
X201460963Y20209944D01*
X201465667Y20199999D01*
X201469373Y20189641D01*
X201472046Y20178970D01*
X201473660Y20168088D01*
X201474200Y20157100D01*
X201474200Y18957900D01*
X201473660Y18946912D01*
X201472046Y18936030D01*
X201469373Y18925359D01*
X201465667Y18915001D01*
X201460963Y18905056D01*
X201455308Y18895621D01*
X201448754Y18886785D01*
X201441367Y18878633D01*
X201433215Y18871246D01*
X201424379Y18864692D01*
X201414944Y18859037D01*
X201404999Y18854333D01*
X201394641Y18850627D01*
X201383970Y18847954D01*
X201373088Y18846340D01*
X201362100Y18845800D01*
X201137900Y18845800D01*
X201126912Y18846340D01*
X201116030Y18847954D01*
X201105359Y18850627D01*
X201095001Y18854333D01*
X201085056Y18859037D01*
X201075621Y18864692D01*
X201066785Y18871246D01*
X201058633Y18878633D01*
X201051246Y18886785D01*
X201044692Y18895621D01*
X201039037Y18905056D01*
X201034333Y18915001D01*
X201030627Y18925359D01*
X201027954Y18936030D01*
X201026340Y18946912D01*
X201025800Y18957900D01*
X201025800Y20157100D01*
X201026340Y20168088D01*
X201027954Y20178970D01*
X201030627Y20189641D01*
X201034333Y20199999D01*
X201039037Y20209944D01*
X201044692Y20219379D01*
X201051246Y20228215D01*
X201058633Y20236367D01*
X201066785Y20243754D01*
X201075621Y20250308D01*
X201085056Y20255963D01*
X201095001Y20260667D01*
X201105359Y20264373D01*
X201116030Y20267046D01*
X201126912Y20268660D01*
X201137900Y20269200D01*
X201362100Y20269200D01*
X201373088Y20268660D01*
G37*
G36*
X202173088Y20268660D02*
G01*
X202183970Y20267046D01*
X202194641Y20264373D01*
X202204999Y20260667D01*
X202214944Y20255963D01*
X202224379Y20250308D01*
X202233215Y20243754D01*
X202241367Y20236367D01*
X202248754Y20228215D01*
X202255308Y20219379D01*
X202260963Y20209944D01*
X202265667Y20199999D01*
X202269373Y20189641D01*
X202272046Y20178970D01*
X202273660Y20168088D01*
X202274200Y20157100D01*
X202274200Y18957900D01*
X202273660Y18946912D01*
X202272046Y18936030D01*
X202269373Y18925359D01*
X202265667Y18915001D01*
X202260963Y18905056D01*
X202255308Y18895621D01*
X202248754Y18886785D01*
X202241367Y18878633D01*
X202233215Y18871246D01*
X202224379Y18864692D01*
X202214944Y18859037D01*
X202204999Y18854333D01*
X202194641Y18850627D01*
X202183970Y18847954D01*
X202173088Y18846340D01*
X202162100Y18845800D01*
X201937900Y18845800D01*
X201926912Y18846340D01*
X201916030Y18847954D01*
X201905359Y18850627D01*
X201895001Y18854333D01*
X201885056Y18859037D01*
X201875621Y18864692D01*
X201866785Y18871246D01*
X201858633Y18878633D01*
X201851246Y18886785D01*
X201844692Y18895621D01*
X201839037Y18905056D01*
X201834333Y18915001D01*
X201830627Y18925359D01*
X201827954Y18936030D01*
X201826340Y18946912D01*
X201825800Y18957900D01*
X201825800Y20157100D01*
X201826340Y20168088D01*
X201827954Y20178970D01*
X201830627Y20189641D01*
X201834333Y20199999D01*
X201839037Y20209944D01*
X201844692Y20219379D01*
X201851246Y20228215D01*
X201858633Y20236367D01*
X201866785Y20243754D01*
X201875621Y20250308D01*
X201885056Y20255963D01*
X201895001Y20260667D01*
X201905359Y20264373D01*
X201916030Y20267046D01*
X201926912Y20268660D01*
X201937900Y20269200D01*
X202162100Y20269200D01*
X202173088Y20268660D01*
G37*
G36*
X202973088Y20268660D02*
G01*
X202983970Y20267046D01*
X202994641Y20264373D01*
X203004999Y20260667D01*
X203014944Y20255963D01*
X203024379Y20250308D01*
X203033215Y20243754D01*
X203041367Y20236367D01*
X203048754Y20228215D01*
X203055308Y20219379D01*
X203060963Y20209944D01*
X203065667Y20199999D01*
X203069373Y20189641D01*
X203072046Y20178970D01*
X203073660Y20168088D01*
X203074200Y20157100D01*
X203074200Y18957900D01*
X203073660Y18946912D01*
X203072046Y18936030D01*
X203069373Y18925359D01*
X203065667Y18915001D01*
X203060963Y18905056D01*
X203055308Y18895621D01*
X203048754Y18886785D01*
X203041367Y18878633D01*
X203033215Y18871246D01*
X203024379Y18864692D01*
X203014944Y18859037D01*
X203004999Y18854333D01*
X202994641Y18850627D01*
X202983970Y18847954D01*
X202973088Y18846340D01*
X202962100Y18845800D01*
X202737900Y18845800D01*
X202726912Y18846340D01*
X202716030Y18847954D01*
X202705359Y18850627D01*
X202695001Y18854333D01*
X202685056Y18859037D01*
X202675621Y18864692D01*
X202666785Y18871246D01*
X202658633Y18878633D01*
X202651246Y18886785D01*
X202644692Y18895621D01*
X202639037Y18905056D01*
X202634333Y18915001D01*
X202630627Y18925359D01*
X202627954Y18936030D01*
X202626340Y18946912D01*
X202625800Y18957900D01*
X202625800Y20157100D01*
X202626340Y20168088D01*
X202627954Y20178970D01*
X202630627Y20189641D01*
X202634333Y20199999D01*
X202639037Y20209944D01*
X202644692Y20219379D01*
X202651246Y20228215D01*
X202658633Y20236367D01*
X202666785Y20243754D01*
X202675621Y20250308D01*
X202685056Y20255963D01*
X202695001Y20260667D01*
X202705359Y20264373D01*
X202716030Y20267046D01*
X202726912Y20268660D01*
X202737900Y20269200D01*
X202962100Y20269200D01*
X202973088Y20268660D01*
G37*
G36*
X203773088Y20268660D02*
G01*
X203783970Y20267046D01*
X203794641Y20264373D01*
X203804999Y20260667D01*
X203814944Y20255963D01*
X203824379Y20250308D01*
X203833215Y20243754D01*
X203841367Y20236367D01*
X203848754Y20228215D01*
X203855308Y20219379D01*
X203860963Y20209944D01*
X203865667Y20199999D01*
X203869373Y20189641D01*
X203872046Y20178970D01*
X203873660Y20168088D01*
X203874200Y20157100D01*
X203874200Y18957900D01*
X203873660Y18946912D01*
X203872046Y18936030D01*
X203869373Y18925359D01*
X203865667Y18915001D01*
X203860963Y18905056D01*
X203855308Y18895621D01*
X203848754Y18886785D01*
X203841367Y18878633D01*
X203833215Y18871246D01*
X203824379Y18864692D01*
X203814944Y18859037D01*
X203804999Y18854333D01*
X203794641Y18850627D01*
X203783970Y18847954D01*
X203773088Y18846340D01*
X203762100Y18845800D01*
X203537900Y18845800D01*
X203526912Y18846340D01*
X203516030Y18847954D01*
X203505359Y18850627D01*
X203495001Y18854333D01*
X203485056Y18859037D01*
X203475621Y18864692D01*
X203466785Y18871246D01*
X203458633Y18878633D01*
X203451246Y18886785D01*
X203444692Y18895621D01*
X203439037Y18905056D01*
X203434333Y18915001D01*
X203430627Y18925359D01*
X203427954Y18936030D01*
X203426340Y18946912D01*
X203425800Y18957900D01*
X203425800Y20157100D01*
X203426340Y20168088D01*
X203427954Y20178970D01*
X203430627Y20189641D01*
X203434333Y20199999D01*
X203439037Y20209944D01*
X203444692Y20219379D01*
X203451246Y20228215D01*
X203458633Y20236367D01*
X203466785Y20243754D01*
X203475621Y20250308D01*
X203485056Y20255963D01*
X203495001Y20260667D01*
X203505359Y20264373D01*
X203516030Y20267046D01*
X203526912Y20268660D01*
X203537900Y20269200D01*
X203762100Y20269200D01*
X203773088Y20268660D01*
G37*
G36*
X204573088Y20268660D02*
G01*
X204583970Y20267046D01*
X204594641Y20264373D01*
X204604999Y20260667D01*
X204614944Y20255963D01*
X204624379Y20250308D01*
X204633215Y20243754D01*
X204641367Y20236367D01*
X204648754Y20228215D01*
X204655308Y20219379D01*
X204660963Y20209944D01*
X204665667Y20199999D01*
X204669373Y20189641D01*
X204672046Y20178970D01*
X204673660Y20168088D01*
X204674200Y20157100D01*
X204674200Y18957900D01*
X204673660Y18946912D01*
X204672046Y18936030D01*
X204669373Y18925359D01*
X204665667Y18915001D01*
X204660963Y18905056D01*
X204655308Y18895621D01*
X204648754Y18886785D01*
X204641367Y18878633D01*
X204633215Y18871246D01*
X204624379Y18864692D01*
X204614944Y18859037D01*
X204604999Y18854333D01*
X204594641Y18850627D01*
X204583970Y18847954D01*
X204573088Y18846340D01*
X204562100Y18845800D01*
X204337900Y18845800D01*
X204326912Y18846340D01*
X204316030Y18847954D01*
X204305359Y18850627D01*
X204295001Y18854333D01*
X204285056Y18859037D01*
X204275621Y18864692D01*
X204266785Y18871246D01*
X204258633Y18878633D01*
X204251246Y18886785D01*
X204244692Y18895621D01*
X204239037Y18905056D01*
X204234333Y18915001D01*
X204230627Y18925359D01*
X204227954Y18936030D01*
X204226340Y18946912D01*
X204225800Y18957900D01*
X204225800Y20157100D01*
X204226340Y20168088D01*
X204227954Y20178970D01*
X204230627Y20189641D01*
X204234333Y20199999D01*
X204239037Y20209944D01*
X204244692Y20219379D01*
X204251246Y20228215D01*
X204258633Y20236367D01*
X204266785Y20243754D01*
X204275621Y20250308D01*
X204285056Y20255963D01*
X204295001Y20260667D01*
X204305359Y20264373D01*
X204316030Y20267046D01*
X204326912Y20268660D01*
X204337900Y20269200D01*
X204562100Y20269200D01*
X204573088Y20268660D01*
G37*
G36*
X205373088Y20268660D02*
G01*
X205383970Y20267046D01*
X205394641Y20264373D01*
X205404999Y20260667D01*
X205414944Y20255963D01*
X205424379Y20250308D01*
X205433215Y20243754D01*
X205441367Y20236367D01*
X205448754Y20228215D01*
X205455308Y20219379D01*
X205460963Y20209944D01*
X205465667Y20199999D01*
X205469373Y20189641D01*
X205472046Y20178970D01*
X205473660Y20168088D01*
X205474200Y20157100D01*
X205474200Y18957900D01*
X205473660Y18946912D01*
X205472046Y18936030D01*
X205469373Y18925359D01*
X205465667Y18915001D01*
X205460963Y18905056D01*
X205455308Y18895621D01*
X205448754Y18886785D01*
X205441367Y18878633D01*
X205433215Y18871246D01*
X205424379Y18864692D01*
X205414944Y18859037D01*
X205404999Y18854333D01*
X205394641Y18850627D01*
X205383970Y18847954D01*
X205373088Y18846340D01*
X205362100Y18845800D01*
X205137900Y18845800D01*
X205126912Y18846340D01*
X205116030Y18847954D01*
X205105359Y18850627D01*
X205095001Y18854333D01*
X205085056Y18859037D01*
X205075621Y18864692D01*
X205066785Y18871246D01*
X205058633Y18878633D01*
X205051246Y18886785D01*
X205044692Y18895621D01*
X205039037Y18905056D01*
X205034333Y18915001D01*
X205030627Y18925359D01*
X205027954Y18936030D01*
X205026340Y18946912D01*
X205025800Y18957900D01*
X205025800Y20157100D01*
X205026340Y20168088D01*
X205027954Y20178970D01*
X205030627Y20189641D01*
X205034333Y20199999D01*
X205039037Y20209944D01*
X205044692Y20219379D01*
X205051246Y20228215D01*
X205058633Y20236367D01*
X205066785Y20243754D01*
X205075621Y20250308D01*
X205085056Y20255963D01*
X205095001Y20260667D01*
X205105359Y20264373D01*
X205116030Y20267046D01*
X205126912Y20268660D01*
X205137900Y20269200D01*
X205362100Y20269200D01*
X205373088Y20268660D01*
G37*
G36*
X205373088Y9093660D02*
G01*
X205383970Y9092046D01*
X205394641Y9089373D01*
X205404999Y9085667D01*
X205414944Y9080963D01*
X205424379Y9075308D01*
X205433215Y9068754D01*
X205441367Y9061367D01*
X205448754Y9053215D01*
X205455308Y9044379D01*
X205460963Y9034944D01*
X205465667Y9024999D01*
X205469373Y9014641D01*
X205472046Y9003970D01*
X205473660Y8993088D01*
X205474200Y8982100D01*
X205474200Y7782900D01*
X205473660Y7771912D01*
X205472046Y7761030D01*
X205469373Y7750359D01*
X205465667Y7740001D01*
X205460963Y7730056D01*
X205455308Y7720621D01*
X205448754Y7711785D01*
X205441367Y7703633D01*
X205433215Y7696246D01*
X205424379Y7689692D01*
X205414944Y7684037D01*
X205404999Y7679333D01*
X205394641Y7675627D01*
X205383970Y7672954D01*
X205373088Y7671340D01*
X205362100Y7670800D01*
X205137900Y7670800D01*
X205126912Y7671340D01*
X205116030Y7672954D01*
X205105359Y7675627D01*
X205095001Y7679333D01*
X205085056Y7684037D01*
X205075621Y7689692D01*
X205066785Y7696246D01*
X205058633Y7703633D01*
X205051246Y7711785D01*
X205044692Y7720621D01*
X205039037Y7730056D01*
X205034333Y7740001D01*
X205030627Y7750359D01*
X205027954Y7761030D01*
X205026340Y7771912D01*
X205025800Y7782900D01*
X205025800Y8982100D01*
X205026340Y8993088D01*
X205027954Y9003970D01*
X205030627Y9014641D01*
X205034333Y9024999D01*
X205039037Y9034944D01*
X205044692Y9044379D01*
X205051246Y9053215D01*
X205058633Y9061367D01*
X205066785Y9068754D01*
X205075621Y9075308D01*
X205085056Y9080963D01*
X205095001Y9085667D01*
X205105359Y9089373D01*
X205116030Y9092046D01*
X205126912Y9093660D01*
X205137900Y9094200D01*
X205362100Y9094200D01*
X205373088Y9093660D01*
G37*
G36*
X204573088Y9093660D02*
G01*
X204583970Y9092046D01*
X204594641Y9089373D01*
X204604999Y9085667D01*
X204614944Y9080963D01*
X204624379Y9075308D01*
X204633215Y9068754D01*
X204641367Y9061367D01*
X204648754Y9053215D01*
X204655308Y9044379D01*
X204660963Y9034944D01*
X204665667Y9024999D01*
X204669373Y9014641D01*
X204672046Y9003970D01*
X204673660Y8993088D01*
X204674200Y8982100D01*
X204674200Y7782900D01*
X204673660Y7771912D01*
X204672046Y7761030D01*
X204669373Y7750359D01*
X204665667Y7740001D01*
X204660963Y7730056D01*
X204655308Y7720621D01*
X204648754Y7711785D01*
X204641367Y7703633D01*
X204633215Y7696246D01*
X204624379Y7689692D01*
X204614944Y7684037D01*
X204604999Y7679333D01*
X204594641Y7675627D01*
X204583970Y7672954D01*
X204573088Y7671340D01*
X204562100Y7670800D01*
X204337900Y7670800D01*
X204326912Y7671340D01*
X204316030Y7672954D01*
X204305359Y7675627D01*
X204295001Y7679333D01*
X204285056Y7684037D01*
X204275621Y7689692D01*
X204266785Y7696246D01*
X204258633Y7703633D01*
X204251246Y7711785D01*
X204244692Y7720621D01*
X204239037Y7730056D01*
X204234333Y7740001D01*
X204230627Y7750359D01*
X204227954Y7761030D01*
X204226340Y7771912D01*
X204225800Y7782900D01*
X204225800Y8982100D01*
X204226340Y8993088D01*
X204227954Y9003970D01*
X204230627Y9014641D01*
X204234333Y9024999D01*
X204239037Y9034944D01*
X204244692Y9044379D01*
X204251246Y9053215D01*
X204258633Y9061367D01*
X204266785Y9068754D01*
X204275621Y9075308D01*
X204285056Y9080963D01*
X204295001Y9085667D01*
X204305359Y9089373D01*
X204316030Y9092046D01*
X204326912Y9093660D01*
X204337900Y9094200D01*
X204562100Y9094200D01*
X204573088Y9093660D01*
G37*
G36*
X203773088Y9093660D02*
G01*
X203783970Y9092046D01*
X203794641Y9089373D01*
X203804999Y9085667D01*
X203814944Y9080963D01*
X203824379Y9075308D01*
X203833215Y9068754D01*
X203841367Y9061367D01*
X203848754Y9053215D01*
X203855308Y9044379D01*
X203860963Y9034944D01*
X203865667Y9024999D01*
X203869373Y9014641D01*
X203872046Y9003970D01*
X203873660Y8993088D01*
X203874200Y8982100D01*
X203874200Y7782900D01*
X203873660Y7771912D01*
X203872046Y7761030D01*
X203869373Y7750359D01*
X203865667Y7740001D01*
X203860963Y7730056D01*
X203855308Y7720621D01*
X203848754Y7711785D01*
X203841367Y7703633D01*
X203833215Y7696246D01*
X203824379Y7689692D01*
X203814944Y7684037D01*
X203804999Y7679333D01*
X203794641Y7675627D01*
X203783970Y7672954D01*
X203773088Y7671340D01*
X203762100Y7670800D01*
X203537900Y7670800D01*
X203526912Y7671340D01*
X203516030Y7672954D01*
X203505359Y7675627D01*
X203495001Y7679333D01*
X203485056Y7684037D01*
X203475621Y7689692D01*
X203466785Y7696246D01*
X203458633Y7703633D01*
X203451246Y7711785D01*
X203444692Y7720621D01*
X203439037Y7730056D01*
X203434333Y7740001D01*
X203430627Y7750359D01*
X203427954Y7761030D01*
X203426340Y7771912D01*
X203425800Y7782900D01*
X203425800Y8982100D01*
X203426340Y8993088D01*
X203427954Y9003970D01*
X203430627Y9014641D01*
X203434333Y9024999D01*
X203439037Y9034944D01*
X203444692Y9044379D01*
X203451246Y9053215D01*
X203458633Y9061367D01*
X203466785Y9068754D01*
X203475621Y9075308D01*
X203485056Y9080963D01*
X203495001Y9085667D01*
X203505359Y9089373D01*
X203516030Y9092046D01*
X203526912Y9093660D01*
X203537900Y9094200D01*
X203762100Y9094200D01*
X203773088Y9093660D01*
G37*
G36*
X202973088Y9093660D02*
G01*
X202983970Y9092046D01*
X202994641Y9089373D01*
X203004999Y9085667D01*
X203014944Y9080963D01*
X203024379Y9075308D01*
X203033215Y9068754D01*
X203041367Y9061367D01*
X203048754Y9053215D01*
X203055308Y9044379D01*
X203060963Y9034944D01*
X203065667Y9024999D01*
X203069373Y9014641D01*
X203072046Y9003970D01*
X203073660Y8993088D01*
X203074200Y8982100D01*
X203074200Y7782900D01*
X203073660Y7771912D01*
X203072046Y7761030D01*
X203069373Y7750359D01*
X203065667Y7740001D01*
X203060963Y7730056D01*
X203055308Y7720621D01*
X203048754Y7711785D01*
X203041367Y7703633D01*
X203033215Y7696246D01*
X203024379Y7689692D01*
X203014944Y7684037D01*
X203004999Y7679333D01*
X202994641Y7675627D01*
X202983970Y7672954D01*
X202973088Y7671340D01*
X202962100Y7670800D01*
X202737900Y7670800D01*
X202726912Y7671340D01*
X202716030Y7672954D01*
X202705359Y7675627D01*
X202695001Y7679333D01*
X202685056Y7684037D01*
X202675621Y7689692D01*
X202666785Y7696246D01*
X202658633Y7703633D01*
X202651246Y7711785D01*
X202644692Y7720621D01*
X202639037Y7730056D01*
X202634333Y7740001D01*
X202630627Y7750359D01*
X202627954Y7761030D01*
X202626340Y7771912D01*
X202625800Y7782900D01*
X202625800Y8982100D01*
X202626340Y8993088D01*
X202627954Y9003970D01*
X202630627Y9014641D01*
X202634333Y9024999D01*
X202639037Y9034944D01*
X202644692Y9044379D01*
X202651246Y9053215D01*
X202658633Y9061367D01*
X202666785Y9068754D01*
X202675621Y9075308D01*
X202685056Y9080963D01*
X202695001Y9085667D01*
X202705359Y9089373D01*
X202716030Y9092046D01*
X202726912Y9093660D01*
X202737900Y9094200D01*
X202962100Y9094200D01*
X202973088Y9093660D01*
G37*
G36*
X202173088Y9093660D02*
G01*
X202183970Y9092046D01*
X202194641Y9089373D01*
X202204999Y9085667D01*
X202214944Y9080963D01*
X202224379Y9075308D01*
X202233215Y9068754D01*
X202241367Y9061367D01*
X202248754Y9053215D01*
X202255308Y9044379D01*
X202260963Y9034944D01*
X202265667Y9024999D01*
X202269373Y9014641D01*
X202272046Y9003970D01*
X202273660Y8993088D01*
X202274200Y8982100D01*
X202274200Y7782900D01*
X202273660Y7771912D01*
X202272046Y7761030D01*
X202269373Y7750359D01*
X202265667Y7740001D01*
X202260963Y7730056D01*
X202255308Y7720621D01*
X202248754Y7711785D01*
X202241367Y7703633D01*
X202233215Y7696246D01*
X202224379Y7689692D01*
X202214944Y7684037D01*
X202204999Y7679333D01*
X202194641Y7675627D01*
X202183970Y7672954D01*
X202173088Y7671340D01*
X202162100Y7670800D01*
X201937900Y7670800D01*
X201926912Y7671340D01*
X201916030Y7672954D01*
X201905359Y7675627D01*
X201895001Y7679333D01*
X201885056Y7684037D01*
X201875621Y7689692D01*
X201866785Y7696246D01*
X201858633Y7703633D01*
X201851246Y7711785D01*
X201844692Y7720621D01*
X201839037Y7730056D01*
X201834333Y7740001D01*
X201830627Y7750359D01*
X201827954Y7761030D01*
X201826340Y7771912D01*
X201825800Y7782900D01*
X201825800Y8982100D01*
X201826340Y8993088D01*
X201827954Y9003970D01*
X201830627Y9014641D01*
X201834333Y9024999D01*
X201839037Y9034944D01*
X201844692Y9044379D01*
X201851246Y9053215D01*
X201858633Y9061367D01*
X201866785Y9068754D01*
X201875621Y9075308D01*
X201885056Y9080963D01*
X201895001Y9085667D01*
X201905359Y9089373D01*
X201916030Y9092046D01*
X201926912Y9093660D01*
X201937900Y9094200D01*
X202162100Y9094200D01*
X202173088Y9093660D01*
G37*
G36*
X201373088Y9093660D02*
G01*
X201383970Y9092046D01*
X201394641Y9089373D01*
X201404999Y9085667D01*
X201414944Y9080963D01*
X201424379Y9075308D01*
X201433215Y9068754D01*
X201441367Y9061367D01*
X201448754Y9053215D01*
X201455308Y9044379D01*
X201460963Y9034944D01*
X201465667Y9024999D01*
X201469373Y9014641D01*
X201472046Y9003970D01*
X201473660Y8993088D01*
X201474200Y8982100D01*
X201474200Y7782900D01*
X201473660Y7771912D01*
X201472046Y7761030D01*
X201469373Y7750359D01*
X201465667Y7740001D01*
X201460963Y7730056D01*
X201455308Y7720621D01*
X201448754Y7711785D01*
X201441367Y7703633D01*
X201433215Y7696246D01*
X201424379Y7689692D01*
X201414944Y7684037D01*
X201404999Y7679333D01*
X201394641Y7675627D01*
X201383970Y7672954D01*
X201373088Y7671340D01*
X201362100Y7670800D01*
X201137900Y7670800D01*
X201126912Y7671340D01*
X201116030Y7672954D01*
X201105359Y7675627D01*
X201095001Y7679333D01*
X201085056Y7684037D01*
X201075621Y7689692D01*
X201066785Y7696246D01*
X201058633Y7703633D01*
X201051246Y7711785D01*
X201044692Y7720621D01*
X201039037Y7730056D01*
X201034333Y7740001D01*
X201030627Y7750359D01*
X201027954Y7761030D01*
X201026340Y7771912D01*
X201025800Y7782900D01*
X201025800Y8982100D01*
X201026340Y8993088D01*
X201027954Y9003970D01*
X201030627Y9014641D01*
X201034333Y9024999D01*
X201039037Y9034944D01*
X201044692Y9044379D01*
X201051246Y9053215D01*
X201058633Y9061367D01*
X201066785Y9068754D01*
X201075621Y9075308D01*
X201085056Y9080963D01*
X201095001Y9085667D01*
X201105359Y9089373D01*
X201116030Y9092046D01*
X201126912Y9093660D01*
X201137900Y9094200D01*
X201362100Y9094200D01*
X201373088Y9093660D01*
G37*
G36*
X200573088Y9093660D02*
G01*
X200583970Y9092046D01*
X200594641Y9089373D01*
X200604999Y9085667D01*
X200614944Y9080963D01*
X200624379Y9075308D01*
X200633215Y9068754D01*
X200641367Y9061367D01*
X200648754Y9053215D01*
X200655308Y9044379D01*
X200660963Y9034944D01*
X200665667Y9024999D01*
X200669373Y9014641D01*
X200672046Y9003970D01*
X200673660Y8993088D01*
X200674200Y8982100D01*
X200674200Y7782900D01*
X200673660Y7771912D01*
X200672046Y7761030D01*
X200669373Y7750359D01*
X200665667Y7740001D01*
X200660963Y7730056D01*
X200655308Y7720621D01*
X200648754Y7711785D01*
X200641367Y7703633D01*
X200633215Y7696246D01*
X200624379Y7689692D01*
X200614944Y7684037D01*
X200604999Y7679333D01*
X200594641Y7675627D01*
X200583970Y7672954D01*
X200573088Y7671340D01*
X200562100Y7670800D01*
X200337900Y7670800D01*
X200326912Y7671340D01*
X200316030Y7672954D01*
X200305359Y7675627D01*
X200295001Y7679333D01*
X200285056Y7684037D01*
X200275621Y7689692D01*
X200266785Y7696246D01*
X200258633Y7703633D01*
X200251246Y7711785D01*
X200244692Y7720621D01*
X200239037Y7730056D01*
X200234333Y7740001D01*
X200230627Y7750359D01*
X200227954Y7761030D01*
X200226340Y7771912D01*
X200225800Y7782900D01*
X200225800Y8982100D01*
X200226340Y8993088D01*
X200227954Y9003970D01*
X200230627Y9014641D01*
X200234333Y9024999D01*
X200239037Y9034944D01*
X200244692Y9044379D01*
X200251246Y9053215D01*
X200258633Y9061367D01*
X200266785Y9068754D01*
X200275621Y9075308D01*
X200285056Y9080963D01*
X200295001Y9085667D01*
X200305359Y9089373D01*
X200316030Y9092046D01*
X200326912Y9093660D01*
X200337900Y9094200D01*
X200562100Y9094200D01*
X200573088Y9093660D01*
G37*
G36*
X199773088Y9093660D02*
G01*
X199783970Y9092046D01*
X199794641Y9089373D01*
X199804999Y9085667D01*
X199814944Y9080963D01*
X199824379Y9075308D01*
X199833215Y9068754D01*
X199841367Y9061367D01*
X199848754Y9053215D01*
X199855308Y9044379D01*
X199860963Y9034944D01*
X199865667Y9024999D01*
X199869373Y9014641D01*
X199872046Y9003970D01*
X199873660Y8993088D01*
X199874200Y8982100D01*
X199874200Y7782900D01*
X199873660Y7771912D01*
X199872046Y7761030D01*
X199869373Y7750359D01*
X199865667Y7740001D01*
X199860963Y7730056D01*
X199855308Y7720621D01*
X199848754Y7711785D01*
X199841367Y7703633D01*
X199833215Y7696246D01*
X199824379Y7689692D01*
X199814944Y7684037D01*
X199804999Y7679333D01*
X199794641Y7675627D01*
X199783970Y7672954D01*
X199773088Y7671340D01*
X199762100Y7670800D01*
X199537900Y7670800D01*
X199526912Y7671340D01*
X199516030Y7672954D01*
X199505359Y7675627D01*
X199495001Y7679333D01*
X199485056Y7684037D01*
X199475621Y7689692D01*
X199466785Y7696246D01*
X199458633Y7703633D01*
X199451246Y7711785D01*
X199444692Y7720621D01*
X199439037Y7730056D01*
X199434333Y7740001D01*
X199430627Y7750359D01*
X199427954Y7761030D01*
X199426340Y7771912D01*
X199425800Y7782900D01*
X199425800Y8982100D01*
X199426340Y8993088D01*
X199427954Y9003970D01*
X199430627Y9014641D01*
X199434333Y9024999D01*
X199439037Y9034944D01*
X199444692Y9044379D01*
X199451246Y9053215D01*
X199458633Y9061367D01*
X199466785Y9068754D01*
X199475621Y9075308D01*
X199485056Y9080963D01*
X199495001Y9085667D01*
X199505359Y9089373D01*
X199516030Y9092046D01*
X199526912Y9093660D01*
X199537900Y9094200D01*
X199762100Y9094200D01*
X199773088Y9093660D01*
G37*
G36*
X198973088Y9093660D02*
G01*
X198983970Y9092046D01*
X198994641Y9089373D01*
X199004999Y9085667D01*
X199014944Y9080963D01*
X199024379Y9075308D01*
X199033215Y9068754D01*
X199041367Y9061367D01*
X199048754Y9053215D01*
X199055308Y9044379D01*
X199060963Y9034944D01*
X199065667Y9024999D01*
X199069373Y9014641D01*
X199072046Y9003970D01*
X199073660Y8993088D01*
X199074200Y8982100D01*
X199074200Y7782900D01*
X199073660Y7771912D01*
X199072046Y7761030D01*
X199069373Y7750359D01*
X199065667Y7740001D01*
X199060963Y7730056D01*
X199055308Y7720621D01*
X199048754Y7711785D01*
X199041367Y7703633D01*
X199033215Y7696246D01*
X199024379Y7689692D01*
X199014944Y7684037D01*
X199004999Y7679333D01*
X198994641Y7675627D01*
X198983970Y7672954D01*
X198973088Y7671340D01*
X198962100Y7670800D01*
X198737900Y7670800D01*
X198726912Y7671340D01*
X198716030Y7672954D01*
X198705359Y7675627D01*
X198695001Y7679333D01*
X198685056Y7684037D01*
X198675621Y7689692D01*
X198666785Y7696246D01*
X198658633Y7703633D01*
X198651246Y7711785D01*
X198644692Y7720621D01*
X198639037Y7730056D01*
X198634333Y7740001D01*
X198630627Y7750359D01*
X198627954Y7761030D01*
X198626340Y7771912D01*
X198625800Y7782900D01*
X198625800Y8982100D01*
X198626340Y8993088D01*
X198627954Y9003970D01*
X198630627Y9014641D01*
X198634333Y9024999D01*
X198639037Y9034944D01*
X198644692Y9044379D01*
X198651246Y9053215D01*
X198658633Y9061367D01*
X198666785Y9068754D01*
X198675621Y9075308D01*
X198685056Y9080963D01*
X198695001Y9085667D01*
X198705359Y9089373D01*
X198716030Y9092046D01*
X198726912Y9093660D01*
X198737900Y9094200D01*
X198962100Y9094200D01*
X198973088Y9093660D01*
G37*
G36*
X198173088Y9093660D02*
G01*
X198183970Y9092046D01*
X198194641Y9089373D01*
X198204999Y9085667D01*
X198214944Y9080963D01*
X198224379Y9075308D01*
X198233215Y9068754D01*
X198241367Y9061367D01*
X198248754Y9053215D01*
X198255308Y9044379D01*
X198260963Y9034944D01*
X198265667Y9024999D01*
X198269373Y9014641D01*
X198272046Y9003970D01*
X198273660Y8993088D01*
X198274200Y8982100D01*
X198274200Y7782900D01*
X198273660Y7771912D01*
X198272046Y7761030D01*
X198269373Y7750359D01*
X198265667Y7740001D01*
X198260963Y7730056D01*
X198255308Y7720621D01*
X198248754Y7711785D01*
X198241367Y7703633D01*
X198233215Y7696246D01*
X198224379Y7689692D01*
X198214944Y7684037D01*
X198204999Y7679333D01*
X198194641Y7675627D01*
X198183970Y7672954D01*
X198173088Y7671340D01*
X198162100Y7670800D01*
X197937900Y7670800D01*
X197926912Y7671340D01*
X197916030Y7672954D01*
X197905359Y7675627D01*
X197895001Y7679333D01*
X197885056Y7684037D01*
X197875621Y7689692D01*
X197866785Y7696246D01*
X197858633Y7703633D01*
X197851246Y7711785D01*
X197844692Y7720621D01*
X197839037Y7730056D01*
X197834333Y7740001D01*
X197830627Y7750359D01*
X197827954Y7761030D01*
X197826340Y7771912D01*
X197825800Y7782900D01*
X197825800Y8982100D01*
X197826340Y8993088D01*
X197827954Y9003970D01*
X197830627Y9014641D01*
X197834333Y9024999D01*
X197839037Y9034944D01*
X197844692Y9044379D01*
X197851246Y9053215D01*
X197858633Y9061367D01*
X197866785Y9068754D01*
X197875621Y9075308D01*
X197885056Y9080963D01*
X197895001Y9085667D01*
X197905359Y9089373D01*
X197916030Y9092046D01*
X197926912Y9093660D01*
X197937900Y9094200D01*
X198162100Y9094200D01*
X198173088Y9093660D01*
G37*
G36*
X197373088Y9093660D02*
G01*
X197383970Y9092046D01*
X197394641Y9089373D01*
X197404999Y9085667D01*
X197414944Y9080963D01*
X197424379Y9075308D01*
X197433215Y9068754D01*
X197441367Y9061367D01*
X197448754Y9053215D01*
X197455308Y9044379D01*
X197460963Y9034944D01*
X197465667Y9024999D01*
X197469373Y9014641D01*
X197472046Y9003970D01*
X197473660Y8993088D01*
X197474200Y8982100D01*
X197474200Y7782900D01*
X197473660Y7771912D01*
X197472046Y7761030D01*
X197469373Y7750359D01*
X197465667Y7740001D01*
X197460963Y7730056D01*
X197455308Y7720621D01*
X197448754Y7711785D01*
X197441367Y7703633D01*
X197433215Y7696246D01*
X197424379Y7689692D01*
X197414944Y7684037D01*
X197404999Y7679333D01*
X197394641Y7675627D01*
X197383970Y7672954D01*
X197373088Y7671340D01*
X197362100Y7670800D01*
X197137900Y7670800D01*
X197126912Y7671340D01*
X197116030Y7672954D01*
X197105359Y7675627D01*
X197095001Y7679333D01*
X197085056Y7684037D01*
X197075621Y7689692D01*
X197066785Y7696246D01*
X197058633Y7703633D01*
X197051246Y7711785D01*
X197044692Y7720621D01*
X197039037Y7730056D01*
X197034333Y7740001D01*
X197030627Y7750359D01*
X197027954Y7761030D01*
X197026340Y7771912D01*
X197025800Y7782900D01*
X197025800Y8982100D01*
X197026340Y8993088D01*
X197027954Y9003970D01*
X197030627Y9014641D01*
X197034333Y9024999D01*
X197039037Y9034944D01*
X197044692Y9044379D01*
X197051246Y9053215D01*
X197058633Y9061367D01*
X197066785Y9068754D01*
X197075621Y9075308D01*
X197085056Y9080963D01*
X197095001Y9085667D01*
X197105359Y9089373D01*
X197116030Y9092046D01*
X197126912Y9093660D01*
X197137900Y9094200D01*
X197362100Y9094200D01*
X197373088Y9093660D01*
G37*
G36*
X196573088Y9093660D02*
G01*
X196583970Y9092046D01*
X196594641Y9089373D01*
X196604999Y9085667D01*
X196614944Y9080963D01*
X196624379Y9075308D01*
X196633215Y9068754D01*
X196641367Y9061367D01*
X196648754Y9053215D01*
X196655308Y9044379D01*
X196660963Y9034944D01*
X196665667Y9024999D01*
X196669373Y9014641D01*
X196672046Y9003970D01*
X196673660Y8993088D01*
X196674200Y8982100D01*
X196674200Y7782900D01*
X196673660Y7771912D01*
X196672046Y7761030D01*
X196669373Y7750359D01*
X196665667Y7740001D01*
X196660963Y7730056D01*
X196655308Y7720621D01*
X196648754Y7711785D01*
X196641367Y7703633D01*
X196633215Y7696246D01*
X196624379Y7689692D01*
X196614944Y7684037D01*
X196604999Y7679333D01*
X196594641Y7675627D01*
X196583970Y7672954D01*
X196573088Y7671340D01*
X196562100Y7670800D01*
X196337900Y7670800D01*
X196326912Y7671340D01*
X196316030Y7672954D01*
X196305359Y7675627D01*
X196295001Y7679333D01*
X196285056Y7684037D01*
X196275621Y7689692D01*
X196266785Y7696246D01*
X196258633Y7703633D01*
X196251246Y7711785D01*
X196244692Y7720621D01*
X196239037Y7730056D01*
X196234333Y7740001D01*
X196230627Y7750359D01*
X196227954Y7761030D01*
X196226340Y7771912D01*
X196225800Y7782900D01*
X196225800Y8982100D01*
X196226340Y8993088D01*
X196227954Y9003970D01*
X196230627Y9014641D01*
X196234333Y9024999D01*
X196239037Y9034944D01*
X196244692Y9044379D01*
X196251246Y9053215D01*
X196258633Y9061367D01*
X196266785Y9068754D01*
X196275621Y9075308D01*
X196285056Y9080963D01*
X196295001Y9085667D01*
X196305359Y9089373D01*
X196316030Y9092046D01*
X196326912Y9093660D01*
X196337900Y9094200D01*
X196562100Y9094200D01*
X196573088Y9093660D01*
G37*
G36*
X195773088Y9093660D02*
G01*
X195783970Y9092046D01*
X195794641Y9089373D01*
X195804999Y9085667D01*
X195814944Y9080963D01*
X195824379Y9075308D01*
X195833215Y9068754D01*
X195841367Y9061367D01*
X195848754Y9053215D01*
X195855308Y9044379D01*
X195860963Y9034944D01*
X195865667Y9024999D01*
X195869373Y9014641D01*
X195872046Y9003970D01*
X195873660Y8993088D01*
X195874200Y8982100D01*
X195874200Y7782900D01*
X195873660Y7771912D01*
X195872046Y7761030D01*
X195869373Y7750359D01*
X195865667Y7740001D01*
X195860963Y7730056D01*
X195855308Y7720621D01*
X195848754Y7711785D01*
X195841367Y7703633D01*
X195833215Y7696246D01*
X195824379Y7689692D01*
X195814944Y7684037D01*
X195804999Y7679333D01*
X195794641Y7675627D01*
X195783970Y7672954D01*
X195773088Y7671340D01*
X195762100Y7670800D01*
X195537900Y7670800D01*
X195526912Y7671340D01*
X195516030Y7672954D01*
X195505359Y7675627D01*
X195495001Y7679333D01*
X195485056Y7684037D01*
X195475621Y7689692D01*
X195466785Y7696246D01*
X195458633Y7703633D01*
X195451246Y7711785D01*
X195444692Y7720621D01*
X195439037Y7730056D01*
X195434333Y7740001D01*
X195430627Y7750359D01*
X195427954Y7761030D01*
X195426340Y7771912D01*
X195425800Y7782900D01*
X195425800Y8982100D01*
X195426340Y8993088D01*
X195427954Y9003970D01*
X195430627Y9014641D01*
X195434333Y9024999D01*
X195439037Y9034944D01*
X195444692Y9044379D01*
X195451246Y9053215D01*
X195458633Y9061367D01*
X195466785Y9068754D01*
X195475621Y9075308D01*
X195485056Y9080963D01*
X195495001Y9085667D01*
X195505359Y9089373D01*
X195516030Y9092046D01*
X195526912Y9093660D01*
X195537900Y9094200D01*
X195762100Y9094200D01*
X195773088Y9093660D01*
G37*
G36*
X194973088Y9093660D02*
G01*
X194983970Y9092046D01*
X194994641Y9089373D01*
X195004999Y9085667D01*
X195014944Y9080963D01*
X195024379Y9075308D01*
X195033215Y9068754D01*
X195041367Y9061367D01*
X195048754Y9053215D01*
X195055308Y9044379D01*
X195060963Y9034944D01*
X195065667Y9024999D01*
X195069373Y9014641D01*
X195072046Y9003970D01*
X195073660Y8993088D01*
X195074200Y8982100D01*
X195074200Y7782900D01*
X195073660Y7771912D01*
X195072046Y7761030D01*
X195069373Y7750359D01*
X195065667Y7740001D01*
X195060963Y7730056D01*
X195055308Y7720621D01*
X195048754Y7711785D01*
X195041367Y7703633D01*
X195033215Y7696246D01*
X195024379Y7689692D01*
X195014944Y7684037D01*
X195004999Y7679333D01*
X194994641Y7675627D01*
X194983970Y7672954D01*
X194973088Y7671340D01*
X194962100Y7670800D01*
X194737900Y7670800D01*
X194726912Y7671340D01*
X194716030Y7672954D01*
X194705359Y7675627D01*
X194695001Y7679333D01*
X194685056Y7684037D01*
X194675621Y7689692D01*
X194666785Y7696246D01*
X194658633Y7703633D01*
X194651246Y7711785D01*
X194644692Y7720621D01*
X194639037Y7730056D01*
X194634333Y7740001D01*
X194630627Y7750359D01*
X194627954Y7761030D01*
X194626340Y7771912D01*
X194625800Y7782900D01*
X194625800Y8982100D01*
X194626340Y8993088D01*
X194627954Y9003970D01*
X194630627Y9014641D01*
X194634333Y9024999D01*
X194639037Y9034944D01*
X194644692Y9044379D01*
X194651246Y9053215D01*
X194658633Y9061367D01*
X194666785Y9068754D01*
X194675621Y9075308D01*
X194685056Y9080963D01*
X194695001Y9085667D01*
X194705359Y9089373D01*
X194716030Y9092046D01*
X194726912Y9093660D01*
X194737900Y9094200D01*
X194962100Y9094200D01*
X194973088Y9093660D01*
G37*
G36*
X194173088Y9093660D02*
G01*
X194183970Y9092046D01*
X194194641Y9089373D01*
X194204999Y9085667D01*
X194214944Y9080963D01*
X194224379Y9075308D01*
X194233215Y9068754D01*
X194241367Y9061367D01*
X194248754Y9053215D01*
X194255308Y9044379D01*
X194260963Y9034944D01*
X194265667Y9024999D01*
X194269373Y9014641D01*
X194272046Y9003970D01*
X194273660Y8993088D01*
X194274200Y8982100D01*
X194274200Y7782900D01*
X194273660Y7771912D01*
X194272046Y7761030D01*
X194269373Y7750359D01*
X194265667Y7740001D01*
X194260963Y7730056D01*
X194255308Y7720621D01*
X194248754Y7711785D01*
X194241367Y7703633D01*
X194233215Y7696246D01*
X194224379Y7689692D01*
X194214944Y7684037D01*
X194204999Y7679333D01*
X194194641Y7675627D01*
X194183970Y7672954D01*
X194173088Y7671340D01*
X194162100Y7670800D01*
X193937900Y7670800D01*
X193926912Y7671340D01*
X193916030Y7672954D01*
X193905359Y7675627D01*
X193895001Y7679333D01*
X193885056Y7684037D01*
X193875621Y7689692D01*
X193866785Y7696246D01*
X193858633Y7703633D01*
X193851246Y7711785D01*
X193844692Y7720621D01*
X193839037Y7730056D01*
X193834333Y7740001D01*
X193830627Y7750359D01*
X193827954Y7761030D01*
X193826340Y7771912D01*
X193825800Y7782900D01*
X193825800Y8982100D01*
X193826340Y8993088D01*
X193827954Y9003970D01*
X193830627Y9014641D01*
X193834333Y9024999D01*
X193839037Y9034944D01*
X193844692Y9044379D01*
X193851246Y9053215D01*
X193858633Y9061367D01*
X193866785Y9068754D01*
X193875621Y9075308D01*
X193885056Y9080963D01*
X193895001Y9085667D01*
X193905359Y9089373D01*
X193916030Y9092046D01*
X193926912Y9093660D01*
X193937900Y9094200D01*
X194162100Y9094200D01*
X194173088Y9093660D01*
G37*
G36*
X193373088Y9093660D02*
G01*
X193383970Y9092046D01*
X193394641Y9089373D01*
X193404999Y9085667D01*
X193414944Y9080963D01*
X193424379Y9075308D01*
X193433215Y9068754D01*
X193441367Y9061367D01*
X193448754Y9053215D01*
X193455308Y9044379D01*
X193460963Y9034944D01*
X193465667Y9024999D01*
X193469373Y9014641D01*
X193472046Y9003970D01*
X193473660Y8993088D01*
X193474200Y8982100D01*
X193474200Y7782900D01*
X193473660Y7771912D01*
X193472046Y7761030D01*
X193469373Y7750359D01*
X193465667Y7740001D01*
X193460963Y7730056D01*
X193455308Y7720621D01*
X193448754Y7711785D01*
X193441367Y7703633D01*
X193433215Y7696246D01*
X193424379Y7689692D01*
X193414944Y7684037D01*
X193404999Y7679333D01*
X193394641Y7675627D01*
X193383970Y7672954D01*
X193373088Y7671340D01*
X193362100Y7670800D01*
X193137900Y7670800D01*
X193126912Y7671340D01*
X193116030Y7672954D01*
X193105359Y7675627D01*
X193095001Y7679333D01*
X193085056Y7684037D01*
X193075621Y7689692D01*
X193066785Y7696246D01*
X193058633Y7703633D01*
X193051246Y7711785D01*
X193044692Y7720621D01*
X193039037Y7730056D01*
X193034333Y7740001D01*
X193030627Y7750359D01*
X193027954Y7761030D01*
X193026340Y7771912D01*
X193025800Y7782900D01*
X193025800Y8982100D01*
X193026340Y8993088D01*
X193027954Y9003970D01*
X193030627Y9014641D01*
X193034333Y9024999D01*
X193039037Y9034944D01*
X193044692Y9044379D01*
X193051246Y9053215D01*
X193058633Y9061367D01*
X193066785Y9068754D01*
X193075621Y9075308D01*
X193085056Y9080963D01*
X193095001Y9085667D01*
X193105359Y9089373D01*
X193116030Y9092046D01*
X193126912Y9093660D01*
X193137900Y9094200D01*
X193362100Y9094200D01*
X193373088Y9093660D01*
G37*
G36*
X192573088Y9093660D02*
G01*
X192583970Y9092046D01*
X192594641Y9089373D01*
X192604999Y9085667D01*
X192614944Y9080963D01*
X192624379Y9075308D01*
X192633215Y9068754D01*
X192641367Y9061367D01*
X192648754Y9053215D01*
X192655308Y9044379D01*
X192660963Y9034944D01*
X192665667Y9024999D01*
X192669373Y9014641D01*
X192672046Y9003970D01*
X192673660Y8993088D01*
X192674200Y8982100D01*
X192674200Y7782900D01*
X192673660Y7771912D01*
X192672046Y7761030D01*
X192669373Y7750359D01*
X192665667Y7740001D01*
X192660963Y7730056D01*
X192655308Y7720621D01*
X192648754Y7711785D01*
X192641367Y7703633D01*
X192633215Y7696246D01*
X192624379Y7689692D01*
X192614944Y7684037D01*
X192604999Y7679333D01*
X192594641Y7675627D01*
X192583970Y7672954D01*
X192573088Y7671340D01*
X192562100Y7670800D01*
X192337900Y7670800D01*
X192326912Y7671340D01*
X192316030Y7672954D01*
X192305359Y7675627D01*
X192295001Y7679333D01*
X192285056Y7684037D01*
X192275621Y7689692D01*
X192266785Y7696246D01*
X192258633Y7703633D01*
X192251246Y7711785D01*
X192244692Y7720621D01*
X192239037Y7730056D01*
X192234333Y7740001D01*
X192230627Y7750359D01*
X192227954Y7761030D01*
X192226340Y7771912D01*
X192225800Y7782900D01*
X192225800Y8982100D01*
X192226340Y8993088D01*
X192227954Y9003970D01*
X192230627Y9014641D01*
X192234333Y9024999D01*
X192239037Y9034944D01*
X192244692Y9044379D01*
X192251246Y9053215D01*
X192258633Y9061367D01*
X192266785Y9068754D01*
X192275621Y9075308D01*
X192285056Y9080963D01*
X192295001Y9085667D01*
X192305359Y9089373D01*
X192316030Y9092046D01*
X192326912Y9093660D01*
X192337900Y9094200D01*
X192562100Y9094200D01*
X192573088Y9093660D01*
G37*
G36*
X191773088Y9093660D02*
G01*
X191783970Y9092046D01*
X191794641Y9089373D01*
X191804999Y9085667D01*
X191814944Y9080963D01*
X191824379Y9075308D01*
X191833215Y9068754D01*
X191841367Y9061367D01*
X191848754Y9053215D01*
X191855308Y9044379D01*
X191860963Y9034944D01*
X191865667Y9024999D01*
X191869373Y9014641D01*
X191872046Y9003970D01*
X191873660Y8993088D01*
X191874200Y8982100D01*
X191874200Y7782900D01*
X191873660Y7771912D01*
X191872046Y7761030D01*
X191869373Y7750359D01*
X191865667Y7740001D01*
X191860963Y7730056D01*
X191855308Y7720621D01*
X191848754Y7711785D01*
X191841367Y7703633D01*
X191833215Y7696246D01*
X191824379Y7689692D01*
X191814944Y7684037D01*
X191804999Y7679333D01*
X191794641Y7675627D01*
X191783970Y7672954D01*
X191773088Y7671340D01*
X191762100Y7670800D01*
X191537900Y7670800D01*
X191526912Y7671340D01*
X191516030Y7672954D01*
X191505359Y7675627D01*
X191495001Y7679333D01*
X191485056Y7684037D01*
X191475621Y7689692D01*
X191466785Y7696246D01*
X191458633Y7703633D01*
X191451246Y7711785D01*
X191444692Y7720621D01*
X191439037Y7730056D01*
X191434333Y7740001D01*
X191430627Y7750359D01*
X191427954Y7761030D01*
X191426340Y7771912D01*
X191425800Y7782900D01*
X191425800Y8982100D01*
X191426340Y8993088D01*
X191427954Y9003970D01*
X191430627Y9014641D01*
X191434333Y9024999D01*
X191439037Y9034944D01*
X191444692Y9044379D01*
X191451246Y9053215D01*
X191458633Y9061367D01*
X191466785Y9068754D01*
X191475621Y9075308D01*
X191485056Y9080963D01*
X191495001Y9085667D01*
X191505359Y9089373D01*
X191516030Y9092046D01*
X191526912Y9093660D01*
X191537900Y9094200D01*
X191762100Y9094200D01*
X191773088Y9093660D01*
G37*
G36*
X190973088Y9093660D02*
G01*
X190983970Y9092046D01*
X190994641Y9089373D01*
X191004999Y9085667D01*
X191014944Y9080963D01*
X191024379Y9075308D01*
X191033215Y9068754D01*
X191041367Y9061367D01*
X191048754Y9053215D01*
X191055308Y9044379D01*
X191060963Y9034944D01*
X191065667Y9024999D01*
X191069373Y9014641D01*
X191072046Y9003970D01*
X191073660Y8993088D01*
X191074200Y8982100D01*
X191074200Y7782900D01*
X191073660Y7771912D01*
X191072046Y7761030D01*
X191069373Y7750359D01*
X191065667Y7740001D01*
X191060963Y7730056D01*
X191055308Y7720621D01*
X191048754Y7711785D01*
X191041367Y7703633D01*
X191033215Y7696246D01*
X191024379Y7689692D01*
X191014944Y7684037D01*
X191004999Y7679333D01*
X190994641Y7675627D01*
X190983970Y7672954D01*
X190973088Y7671340D01*
X190962100Y7670800D01*
X190737900Y7670800D01*
X190726912Y7671340D01*
X190716030Y7672954D01*
X190705359Y7675627D01*
X190695001Y7679333D01*
X190685056Y7684037D01*
X190675621Y7689692D01*
X190666785Y7696246D01*
X190658633Y7703633D01*
X190651246Y7711785D01*
X190644692Y7720621D01*
X190639037Y7730056D01*
X190634333Y7740001D01*
X190630627Y7750359D01*
X190627954Y7761030D01*
X190626340Y7771912D01*
X190625800Y7782900D01*
X190625800Y8982100D01*
X190626340Y8993088D01*
X190627954Y9003970D01*
X190630627Y9014641D01*
X190634333Y9024999D01*
X190639037Y9034944D01*
X190644692Y9044379D01*
X190651246Y9053215D01*
X190658633Y9061367D01*
X190666785Y9068754D01*
X190675621Y9075308D01*
X190685056Y9080963D01*
X190695001Y9085667D01*
X190705359Y9089373D01*
X190716030Y9092046D01*
X190726912Y9093660D01*
X190737900Y9094200D01*
X190962100Y9094200D01*
X190973088Y9093660D01*
G37*
G36*
X190173088Y9093660D02*
G01*
X190183970Y9092046D01*
X190194641Y9089373D01*
X190204999Y9085667D01*
X190214944Y9080963D01*
X190224379Y9075308D01*
X190233215Y9068754D01*
X190241367Y9061367D01*
X190248754Y9053215D01*
X190255308Y9044379D01*
X190260963Y9034944D01*
X190265667Y9024999D01*
X190269373Y9014641D01*
X190272046Y9003970D01*
X190273660Y8993088D01*
X190274200Y8982100D01*
X190274200Y7782900D01*
X190273660Y7771912D01*
X190272046Y7761030D01*
X190269373Y7750359D01*
X190265667Y7740001D01*
X190260963Y7730056D01*
X190255308Y7720621D01*
X190248754Y7711785D01*
X190241367Y7703633D01*
X190233215Y7696246D01*
X190224379Y7689692D01*
X190214944Y7684037D01*
X190204999Y7679333D01*
X190194641Y7675627D01*
X190183970Y7672954D01*
X190173088Y7671340D01*
X190162100Y7670800D01*
X189937900Y7670800D01*
X189926912Y7671340D01*
X189916030Y7672954D01*
X189905359Y7675627D01*
X189895001Y7679333D01*
X189885056Y7684037D01*
X189875621Y7689692D01*
X189866785Y7696246D01*
X189858633Y7703633D01*
X189851246Y7711785D01*
X189844692Y7720621D01*
X189839037Y7730056D01*
X189834333Y7740001D01*
X189830627Y7750359D01*
X189827954Y7761030D01*
X189826340Y7771912D01*
X189825800Y7782900D01*
X189825800Y8982100D01*
X189826340Y8993088D01*
X189827954Y9003970D01*
X189830627Y9014641D01*
X189834333Y9024999D01*
X189839037Y9034944D01*
X189844692Y9044379D01*
X189851246Y9053215D01*
X189858633Y9061367D01*
X189866785Y9068754D01*
X189875621Y9075308D01*
X189885056Y9080963D01*
X189895001Y9085667D01*
X189905359Y9089373D01*
X189916030Y9092046D01*
X189926912Y9093660D01*
X189937900Y9094200D01*
X190162100Y9094200D01*
X190173088Y9093660D01*
G37*
G36*
X189373088Y9093660D02*
G01*
X189383970Y9092046D01*
X189394641Y9089373D01*
X189404999Y9085667D01*
X189414944Y9080963D01*
X189424379Y9075308D01*
X189433215Y9068754D01*
X189441367Y9061367D01*
X189448754Y9053215D01*
X189455308Y9044379D01*
X189460963Y9034944D01*
X189465667Y9024999D01*
X189469373Y9014641D01*
X189472046Y9003970D01*
X189473660Y8993088D01*
X189474200Y8982100D01*
X189474200Y7782900D01*
X189473660Y7771912D01*
X189472046Y7761030D01*
X189469373Y7750359D01*
X189465667Y7740001D01*
X189460963Y7730056D01*
X189455308Y7720621D01*
X189448754Y7711785D01*
X189441367Y7703633D01*
X189433215Y7696246D01*
X189424379Y7689692D01*
X189414944Y7684037D01*
X189404999Y7679333D01*
X189394641Y7675627D01*
X189383970Y7672954D01*
X189373088Y7671340D01*
X189362100Y7670800D01*
X189137900Y7670800D01*
X189126912Y7671340D01*
X189116030Y7672954D01*
X189105359Y7675627D01*
X189095001Y7679333D01*
X189085056Y7684037D01*
X189075621Y7689692D01*
X189066785Y7696246D01*
X189058633Y7703633D01*
X189051246Y7711785D01*
X189044692Y7720621D01*
X189039037Y7730056D01*
X189034333Y7740001D01*
X189030627Y7750359D01*
X189027954Y7761030D01*
X189026340Y7771912D01*
X189025800Y7782900D01*
X189025800Y8982100D01*
X189026340Y8993088D01*
X189027954Y9003970D01*
X189030627Y9014641D01*
X189034333Y9024999D01*
X189039037Y9034944D01*
X189044692Y9044379D01*
X189051246Y9053215D01*
X189058633Y9061367D01*
X189066785Y9068754D01*
X189075621Y9075308D01*
X189085056Y9080963D01*
X189095001Y9085667D01*
X189105359Y9089373D01*
X189116030Y9092046D01*
X189126912Y9093660D01*
X189137900Y9094200D01*
X189362100Y9094200D01*
X189373088Y9093660D01*
G37*
G36*
X188573088Y9093660D02*
G01*
X188583970Y9092046D01*
X188594641Y9089373D01*
X188604999Y9085667D01*
X188614944Y9080963D01*
X188624379Y9075308D01*
X188633215Y9068754D01*
X188641367Y9061367D01*
X188648754Y9053215D01*
X188655308Y9044379D01*
X188660963Y9034944D01*
X188665667Y9024999D01*
X188669373Y9014641D01*
X188672046Y9003970D01*
X188673660Y8993088D01*
X188674200Y8982100D01*
X188674200Y7782900D01*
X188673660Y7771912D01*
X188672046Y7761030D01*
X188669373Y7750359D01*
X188665667Y7740001D01*
X188660963Y7730056D01*
X188655308Y7720621D01*
X188648754Y7711785D01*
X188641367Y7703633D01*
X188633215Y7696246D01*
X188624379Y7689692D01*
X188614944Y7684037D01*
X188604999Y7679333D01*
X188594641Y7675627D01*
X188583970Y7672954D01*
X188573088Y7671340D01*
X188562100Y7670800D01*
X188337900Y7670800D01*
X188326912Y7671340D01*
X188316030Y7672954D01*
X188305359Y7675627D01*
X188295001Y7679333D01*
X188285056Y7684037D01*
X188275621Y7689692D01*
X188266785Y7696246D01*
X188258633Y7703633D01*
X188251246Y7711785D01*
X188244692Y7720621D01*
X188239037Y7730056D01*
X188234333Y7740001D01*
X188230627Y7750359D01*
X188227954Y7761030D01*
X188226340Y7771912D01*
X188225800Y7782900D01*
X188225800Y8982100D01*
X188226340Y8993088D01*
X188227954Y9003970D01*
X188230627Y9014641D01*
X188234333Y9024999D01*
X188239037Y9034944D01*
X188244692Y9044379D01*
X188251246Y9053215D01*
X188258633Y9061367D01*
X188266785Y9068754D01*
X188275621Y9075308D01*
X188285056Y9080963D01*
X188295001Y9085667D01*
X188305359Y9089373D01*
X188316030Y9092046D01*
X188326912Y9093660D01*
X188337900Y9094200D01*
X188562100Y9094200D01*
X188573088Y9093660D01*
G37*
G36*
X181465033Y-85154906D02*
G01*
X181487328Y-85158213D01*
X181509193Y-85163690D01*
X181530415Y-85171283D01*
X181550790Y-85180920D01*
X181570123Y-85192508D01*
X181588227Y-85205935D01*
X181604928Y-85221072D01*
X181620065Y-85237773D01*
X181633492Y-85255877D01*
X181645080Y-85275210D01*
X181654717Y-85295585D01*
X181662310Y-85316807D01*
X181667787Y-85338672D01*
X181671094Y-85360967D01*
X181672200Y-85383480D01*
X181672200Y-86072520D01*
X181671094Y-86095033D01*
X181667787Y-86117328D01*
X181662310Y-86139193D01*
X181654717Y-86160415D01*
X181645080Y-86180790D01*
X181633492Y-86200123D01*
X181620065Y-86218227D01*
X181604928Y-86234928D01*
X181588227Y-86250065D01*
X181570123Y-86263492D01*
X181550790Y-86275080D01*
X181530415Y-86284717D01*
X181509193Y-86292310D01*
X181487328Y-86297787D01*
X181465033Y-86301094D01*
X181442520Y-86302200D01*
X180253480Y-86302200D01*
X180230967Y-86301094D01*
X180208672Y-86297787D01*
X180186807Y-86292310D01*
X180165585Y-86284717D01*
X180145210Y-86275080D01*
X180125877Y-86263492D01*
X180107773Y-86250065D01*
X180091072Y-86234928D01*
X180075935Y-86218227D01*
X180062508Y-86200123D01*
X180050920Y-86180790D01*
X180041283Y-86160415D01*
X180033690Y-86139193D01*
X180028213Y-86117328D01*
X180024906Y-86095033D01*
X180023800Y-86072520D01*
X180023800Y-85383480D01*
X180024906Y-85360967D01*
X180028213Y-85338672D01*
X180033690Y-85316807D01*
X180041283Y-85295585D01*
X180050920Y-85275210D01*
X180062508Y-85255877D01*
X180075935Y-85237773D01*
X180091072Y-85221072D01*
X180107773Y-85205935D01*
X180125877Y-85192508D01*
X180145210Y-85180920D01*
X180165585Y-85171283D01*
X180186807Y-85163690D01*
X180208672Y-85158213D01*
X180230967Y-85154906D01*
X180253480Y-85153800D01*
X181442520Y-85153800D01*
X181465033Y-85154906D01*
G37*
G36*
X181465033Y-82354906D02*
G01*
X181487328Y-82358213D01*
X181509193Y-82363690D01*
X181530415Y-82371283D01*
X181550790Y-82380920D01*
X181570123Y-82392508D01*
X181588227Y-82405935D01*
X181604928Y-82421072D01*
X181620065Y-82437773D01*
X181633492Y-82455877D01*
X181645080Y-82475210D01*
X181654717Y-82495585D01*
X181662310Y-82516807D01*
X181667787Y-82538672D01*
X181671094Y-82560967D01*
X181672200Y-82583480D01*
X181672200Y-83272520D01*
X181671094Y-83295033D01*
X181667787Y-83317328D01*
X181662310Y-83339193D01*
X181654717Y-83360415D01*
X181645080Y-83380790D01*
X181633492Y-83400123D01*
X181620065Y-83418227D01*
X181604928Y-83434928D01*
X181588227Y-83450065D01*
X181570123Y-83463492D01*
X181550790Y-83475080D01*
X181530415Y-83484717D01*
X181509193Y-83492310D01*
X181487328Y-83497787D01*
X181465033Y-83501094D01*
X181442520Y-83502200D01*
X180253480Y-83502200D01*
X180230967Y-83501094D01*
X180208672Y-83497787D01*
X180186807Y-83492310D01*
X180165585Y-83484717D01*
X180145210Y-83475080D01*
X180125877Y-83463492D01*
X180107773Y-83450065D01*
X180091072Y-83434928D01*
X180075935Y-83418227D01*
X180062508Y-83400123D01*
X180050920Y-83380790D01*
X180041283Y-83360415D01*
X180033690Y-83339193D01*
X180028213Y-83317328D01*
X180024906Y-83295033D01*
X180023800Y-83272520D01*
X180023800Y-82583480D01*
X180024906Y-82560967D01*
X180028213Y-82538672D01*
X180033690Y-82516807D01*
X180041283Y-82495585D01*
X180050920Y-82475210D01*
X180062508Y-82455877D01*
X180075935Y-82437773D01*
X180091072Y-82421072D01*
X180107773Y-82405935D01*
X180125877Y-82392508D01*
X180145210Y-82380920D01*
X180165585Y-82371283D01*
X180186807Y-82363690D01*
X180208672Y-82358213D01*
X180230967Y-82354906D01*
X180253480Y-82353800D01*
X181442520Y-82353800D01*
X181465033Y-82354906D01*
G37*
G36*
X181465033Y-79058906D02*
G01*
X181487328Y-79062213D01*
X181509193Y-79067690D01*
X181530415Y-79075283D01*
X181550790Y-79084920D01*
X181570123Y-79096508D01*
X181588227Y-79109935D01*
X181604928Y-79125072D01*
X181620065Y-79141773D01*
X181633492Y-79159877D01*
X181645080Y-79179210D01*
X181654717Y-79199585D01*
X181662310Y-79220807D01*
X181667787Y-79242672D01*
X181671094Y-79264967D01*
X181672200Y-79287480D01*
X181672200Y-79976520D01*
X181671094Y-79999033D01*
X181667787Y-80021328D01*
X181662310Y-80043193D01*
X181654717Y-80064415D01*
X181645080Y-80084790D01*
X181633492Y-80104123D01*
X181620065Y-80122227D01*
X181604928Y-80138928D01*
X181588227Y-80154065D01*
X181570123Y-80167492D01*
X181550790Y-80179080D01*
X181530415Y-80188717D01*
X181509193Y-80196310D01*
X181487328Y-80201787D01*
X181465033Y-80205094D01*
X181442520Y-80206200D01*
X180253480Y-80206200D01*
X180230967Y-80205094D01*
X180208672Y-80201787D01*
X180186807Y-80196310D01*
X180165585Y-80188717D01*
X180145210Y-80179080D01*
X180125877Y-80167492D01*
X180107773Y-80154065D01*
X180091072Y-80138928D01*
X180075935Y-80122227D01*
X180062508Y-80104123D01*
X180050920Y-80084790D01*
X180041283Y-80064415D01*
X180033690Y-80043193D01*
X180028213Y-80021328D01*
X180024906Y-79999033D01*
X180023800Y-79976520D01*
X180023800Y-79287480D01*
X180024906Y-79264967D01*
X180028213Y-79242672D01*
X180033690Y-79220807D01*
X180041283Y-79199585D01*
X180050920Y-79179210D01*
X180062508Y-79159877D01*
X180075935Y-79141773D01*
X180091072Y-79125072D01*
X180107773Y-79109935D01*
X180125877Y-79096508D01*
X180145210Y-79084920D01*
X180165585Y-79075283D01*
X180186807Y-79067690D01*
X180208672Y-79062213D01*
X180230967Y-79058906D01*
X180253480Y-79057800D01*
X181442520Y-79057800D01*
X181465033Y-79058906D01*
G37*
G36*
X181465033Y-76258906D02*
G01*
X181487328Y-76262213D01*
X181509193Y-76267690D01*
X181530415Y-76275283D01*
X181550790Y-76284920D01*
X181570123Y-76296508D01*
X181588227Y-76309935D01*
X181604928Y-76325072D01*
X181620065Y-76341773D01*
X181633492Y-76359877D01*
X181645080Y-76379210D01*
X181654717Y-76399585D01*
X181662310Y-76420807D01*
X181667787Y-76442672D01*
X181671094Y-76464967D01*
X181672200Y-76487480D01*
X181672200Y-77176520D01*
X181671094Y-77199033D01*
X181667787Y-77221328D01*
X181662310Y-77243193D01*
X181654717Y-77264415D01*
X181645080Y-77284790D01*
X181633492Y-77304123D01*
X181620065Y-77322227D01*
X181604928Y-77338928D01*
X181588227Y-77354065D01*
X181570123Y-77367492D01*
X181550790Y-77379080D01*
X181530415Y-77388717D01*
X181509193Y-77396310D01*
X181487328Y-77401787D01*
X181465033Y-77405094D01*
X181442520Y-77406200D01*
X180253480Y-77406200D01*
X180230967Y-77405094D01*
X180208672Y-77401787D01*
X180186807Y-77396310D01*
X180165585Y-77388717D01*
X180145210Y-77379080D01*
X180125877Y-77367492D01*
X180107773Y-77354065D01*
X180091072Y-77338928D01*
X180075935Y-77322227D01*
X180062508Y-77304123D01*
X180050920Y-77284790D01*
X180041283Y-77264415D01*
X180033690Y-77243193D01*
X180028213Y-77221328D01*
X180024906Y-77199033D01*
X180023800Y-77176520D01*
X180023800Y-76487480D01*
X180024906Y-76464967D01*
X180028213Y-76442672D01*
X180033690Y-76420807D01*
X180041283Y-76399585D01*
X180050920Y-76379210D01*
X180062508Y-76359877D01*
X180075935Y-76341773D01*
X180091072Y-76325072D01*
X180107773Y-76309935D01*
X180125877Y-76296508D01*
X180145210Y-76284920D01*
X180165585Y-76275283D01*
X180186807Y-76267690D01*
X180208672Y-76262213D01*
X180230967Y-76258906D01*
X180253480Y-76257800D01*
X181442520Y-76257800D01*
X181465033Y-76258906D01*
G37*
G36*
X198617033Y5903094D02*
G01*
X198639328Y5899787D01*
X198661193Y5894310D01*
X198682415Y5886717D01*
X198702790Y5877080D01*
X198722123Y5865492D01*
X198740227Y5852065D01*
X198756928Y5836928D01*
X198772065Y5820227D01*
X198785492Y5802123D01*
X198797080Y5782790D01*
X198806717Y5762415D01*
X198814310Y5741193D01*
X198819787Y5719328D01*
X198823094Y5697033D01*
X198824200Y5674520D01*
X198824200Y4485480D01*
X198823094Y4462967D01*
X198819787Y4440672D01*
X198814310Y4418807D01*
X198806717Y4397585D01*
X198797080Y4377210D01*
X198785492Y4357877D01*
X198772065Y4339773D01*
X198756928Y4323072D01*
X198740227Y4307935D01*
X198722123Y4294508D01*
X198702790Y4282920D01*
X198682415Y4273283D01*
X198661193Y4265690D01*
X198639328Y4260213D01*
X198617033Y4256906D01*
X198594520Y4255800D01*
X197905480Y4255800D01*
X197882967Y4256906D01*
X197860672Y4260213D01*
X197838807Y4265690D01*
X197817585Y4273283D01*
X197797210Y4282920D01*
X197777877Y4294508D01*
X197759773Y4307935D01*
X197743072Y4323072D01*
X197727935Y4339773D01*
X197714508Y4357877D01*
X197702920Y4377210D01*
X197693283Y4397585D01*
X197685690Y4418807D01*
X197680213Y4440672D01*
X197676906Y4462967D01*
X197675800Y4485480D01*
X197675800Y5674520D01*
X197676906Y5697033D01*
X197680213Y5719328D01*
X197685690Y5741193D01*
X197693283Y5762415D01*
X197702920Y5782790D01*
X197714508Y5802123D01*
X197727935Y5820227D01*
X197743072Y5836928D01*
X197759773Y5852065D01*
X197777877Y5865492D01*
X197797210Y5877080D01*
X197817585Y5886717D01*
X197838807Y5894310D01*
X197860672Y5899787D01*
X197882967Y5903094D01*
X197905480Y5904200D01*
X198594520Y5904200D01*
X198617033Y5903094D01*
G37*
G36*
X195817033Y5903094D02*
G01*
X195839328Y5899787D01*
X195861193Y5894310D01*
X195882415Y5886717D01*
X195902790Y5877080D01*
X195922123Y5865492D01*
X195940227Y5852065D01*
X195956928Y5836928D01*
X195972065Y5820227D01*
X195985492Y5802123D01*
X195997080Y5782790D01*
X196006717Y5762415D01*
X196014310Y5741193D01*
X196019787Y5719328D01*
X196023094Y5697033D01*
X196024200Y5674520D01*
X196024200Y4485480D01*
X196023094Y4462967D01*
X196019787Y4440672D01*
X196014310Y4418807D01*
X196006717Y4397585D01*
X195997080Y4377210D01*
X195985492Y4357877D01*
X195972065Y4339773D01*
X195956928Y4323072D01*
X195940227Y4307935D01*
X195922123Y4294508D01*
X195902790Y4282920D01*
X195882415Y4273283D01*
X195861193Y4265690D01*
X195839328Y4260213D01*
X195817033Y4256906D01*
X195794520Y4255800D01*
X195105480Y4255800D01*
X195082967Y4256906D01*
X195060672Y4260213D01*
X195038807Y4265690D01*
X195017585Y4273283D01*
X194997210Y4282920D01*
X194977877Y4294508D01*
X194959773Y4307935D01*
X194943072Y4323072D01*
X194927935Y4339773D01*
X194914508Y4357877D01*
X194902920Y4377210D01*
X194893283Y4397585D01*
X194885690Y4418807D01*
X194880213Y4440672D01*
X194876906Y4462967D01*
X194875800Y4485480D01*
X194875800Y5674520D01*
X194876906Y5697033D01*
X194880213Y5719328D01*
X194885690Y5741193D01*
X194893283Y5762415D01*
X194902920Y5782790D01*
X194914508Y5802123D01*
X194927935Y5820227D01*
X194943072Y5836928D01*
X194959773Y5852065D01*
X194977877Y5865492D01*
X194997210Y5877080D01*
X195017585Y5886717D01*
X195038807Y5894310D01*
X195060672Y5899787D01*
X195082967Y5903094D01*
X195105480Y5904200D01*
X195794520Y5904200D01*
X195817033Y5903094D01*
G37*
G36*
X198617033Y23683094D02*
G01*
X198639328Y23679787D01*
X198661193Y23674310D01*
X198682415Y23666717D01*
X198702790Y23657080D01*
X198722123Y23645492D01*
X198740227Y23632065D01*
X198756928Y23616928D01*
X198772065Y23600227D01*
X198785492Y23582123D01*
X198797080Y23562790D01*
X198806717Y23542415D01*
X198814310Y23521193D01*
X198819787Y23499328D01*
X198823094Y23477033D01*
X198824200Y23454520D01*
X198824200Y22265480D01*
X198823094Y22242967D01*
X198819787Y22220672D01*
X198814310Y22198807D01*
X198806717Y22177585D01*
X198797080Y22157210D01*
X198785492Y22137877D01*
X198772065Y22119773D01*
X198756928Y22103072D01*
X198740227Y22087935D01*
X198722123Y22074508D01*
X198702790Y22062920D01*
X198682415Y22053283D01*
X198661193Y22045690D01*
X198639328Y22040213D01*
X198617033Y22036906D01*
X198594520Y22035800D01*
X197905480Y22035800D01*
X197882967Y22036906D01*
X197860672Y22040213D01*
X197838807Y22045690D01*
X197817585Y22053283D01*
X197797210Y22062920D01*
X197777877Y22074508D01*
X197759773Y22087935D01*
X197743072Y22103072D01*
X197727935Y22119773D01*
X197714508Y22137877D01*
X197702920Y22157210D01*
X197693283Y22177585D01*
X197685690Y22198807D01*
X197680213Y22220672D01*
X197676906Y22242967D01*
X197675800Y22265480D01*
X197675800Y23454520D01*
X197676906Y23477033D01*
X197680213Y23499328D01*
X197685690Y23521193D01*
X197693283Y23542415D01*
X197702920Y23562790D01*
X197714508Y23582123D01*
X197727935Y23600227D01*
X197743072Y23616928D01*
X197759773Y23632065D01*
X197777877Y23645492D01*
X197797210Y23657080D01*
X197817585Y23666717D01*
X197838807Y23674310D01*
X197860672Y23679787D01*
X197882967Y23683094D01*
X197905480Y23684200D01*
X198594520Y23684200D01*
X198617033Y23683094D01*
G37*
G36*
X195817033Y23683094D02*
G01*
X195839328Y23679787D01*
X195861193Y23674310D01*
X195882415Y23666717D01*
X195902790Y23657080D01*
X195922123Y23645492D01*
X195940227Y23632065D01*
X195956928Y23616928D01*
X195972065Y23600227D01*
X195985492Y23582123D01*
X195997080Y23562790D01*
X196006717Y23542415D01*
X196014310Y23521193D01*
X196019787Y23499328D01*
X196023094Y23477033D01*
X196024200Y23454520D01*
X196024200Y22265480D01*
X196023094Y22242967D01*
X196019787Y22220672D01*
X196014310Y22198807D01*
X196006717Y22177585D01*
X195997080Y22157210D01*
X195985492Y22137877D01*
X195972065Y22119773D01*
X195956928Y22103072D01*
X195940227Y22087935D01*
X195922123Y22074508D01*
X195902790Y22062920D01*
X195882415Y22053283D01*
X195861193Y22045690D01*
X195839328Y22040213D01*
X195817033Y22036906D01*
X195794520Y22035800D01*
X195105480Y22035800D01*
X195082967Y22036906D01*
X195060672Y22040213D01*
X195038807Y22045690D01*
X195017585Y22053283D01*
X194997210Y22062920D01*
X194977877Y22074508D01*
X194959773Y22087935D01*
X194943072Y22103072D01*
X194927935Y22119773D01*
X194914508Y22137877D01*
X194902920Y22157210D01*
X194893283Y22177585D01*
X194885690Y22198807D01*
X194880213Y22220672D01*
X194876906Y22242967D01*
X194875800Y22265480D01*
X194875800Y23454520D01*
X194876906Y23477033D01*
X194880213Y23499328D01*
X194885690Y23521193D01*
X194893283Y23542415D01*
X194902920Y23562790D01*
X194914508Y23582123D01*
X194927935Y23600227D01*
X194943072Y23616928D01*
X194959773Y23632065D01*
X194977877Y23645492D01*
X194997210Y23657080D01*
X195017585Y23666717D01*
X195038807Y23674310D01*
X195060672Y23679787D01*
X195082967Y23683094D01*
X195105480Y23684200D01*
X195794520Y23684200D01*
X195817033Y23683094D01*
G37*
M02*
