M48
; DRILL file {KiCad 5.1.5-52549c5~84~ubuntu18.04.1} date Sun 17 May 2020 03:55:09 PM PDT
; FORMAT={-:-/ absolute / inch / decimal}
; #@! TF.CreationDate,2020-05-17T15:55:09-07:00
; #@! TF.GenerationSoftware,Kicad,Pcbnew,5.1.5-52549c5~84~ubuntu18.04.1
FMAT,2
INCH
T1C0.0157
T2C0.0315
T3C0.0394
T4C0.1260
%
G90
G05
T1
X5.5262Y-1.0988
X5.55Y-1.175
X5.5506Y-0.9256
X5.5762Y0.6012
X5.625Y-0.775
X5.6982Y0.6268
X5.7117Y-0.9117
X5.725Y-0.825
X5.7762Y-1.2012
X5.7772Y-0.875
X5.8028Y-0.6028
X5.8045Y-1.0
X5.8557Y-0.6557
X5.875Y-1.3
X5.9Y-0.7
X5.9232Y0.6268
X5.9232Y-0.8232
X5.9232Y-1.0732
X5.9238Y-0.9512
X5.925Y0.55
X5.925Y-0.8672
X5.925Y-1.025
X5.925Y-1.4
X5.95Y-0.75
X5.9557Y-1.5443
X6.0Y-1.625
X6.05Y-1.725
X6.075Y-0.425
X6.1Y-1.775
X6.125Y-0.475
X6.15Y-1.325
X6.1604Y-0.2146
X6.175Y-0.025
X6.175Y-0.5
X6.1872Y-1.2628
X6.2Y0.025
X6.2116Y-0.4616
X6.2157Y-1.1343
X6.2194Y-0.1806
X6.225Y0.075
X6.2372Y-0.6028
X6.25Y-0.425
X6.275Y0.125
X6.28Y-0.64
X6.28Y-0.7
X6.28Y-0.76
X6.2965Y-0.4965
X6.3Y0.625
X6.3Y-1.56
X6.3Y-1.62
X6.3Y-1.68
X6.314Y0.164
X6.325Y-0.45
X6.35Y0.35
X6.35Y-1.11
X6.3652Y-0.2772
X6.375Y-0.4
X6.375Y-0.475
X6.4Y0.275
X6.4Y0.175
X6.4Y-1.08
X6.45Y0.45
X6.45Y-1.05
X6.5Y0.5
X6.5Y-1.02
X6.55Y0.55
X6.55Y-1.01
X6.575Y-0.425
X6.6Y0.6
X6.6Y0.175
X6.6Y-1.04
X6.625Y-0.475
X6.65Y0.525
X6.65Y0.175
X6.65Y-1.07
X6.675Y-0.5
X6.7Y0.225
X6.7Y0.175
X6.7116Y-0.4616
X6.7116Y-1.6284
X6.75Y0.4
X6.75Y0.175
X6.75Y-0.425
X6.7843Y-1.1657
X6.7888Y-1.3862
X6.7965Y-0.4965
X6.8Y0.45
X6.8Y0.225
X6.8Y-1.0
X6.825Y-0.45
X6.85Y0.4
X6.85Y0.225
X6.8537Y-1.6263
X6.8652Y-0.2772
X6.875Y-0.4
X6.875Y-0.475
X6.9Y0.325
X6.9Y0.225
X6.9Y-1.58
X6.95Y0.5
X6.95Y0.225
X6.9537Y-1.2663
X7.0Y0.225
X7.0Y-1.28
X7.0703Y-1.3547
X7.075Y-1.425
X7.075Y-1.5
X7.075Y-1.575
X7.1Y-0.625
X7.1256Y-1.723
X7.175Y-0.625
X7.25Y-1.775
X7.3035Y-0.4535
X7.4Y-1.15
X7.4732Y1.1232
X7.4732Y0.7232
X7.4732Y0.3232
X7.4732Y-0.0768
X7.4732Y-0.8768
X7.4732Y-1.2768
X7.4732Y-1.6768
X7.4732Y-2.0768
X7.4732Y-2.4768
X7.4732Y-2.8768
X7.4732Y-3.2768
X7.475Y0.9
X7.475Y0.5
X7.475Y0.1
X7.475Y-0.3
X7.475Y-1.1
X7.475Y-1.5
X7.475Y-1.9
X7.475Y-2.3
X7.475Y-2.7
X7.475Y-3.1
X7.475Y-3.5
X7.4988Y1.0012
X7.4988Y0.6012
X7.4988Y0.2012
X7.4988Y-0.1988
X7.4988Y-0.9988
X7.4988Y-1.3988
X7.4988Y-1.7988
X7.4988Y-2.1988
X7.4988Y-2.5988
X7.4988Y-2.9988
X7.4988Y-3.3988
X7.55Y0.775
X7.55Y0.375
X7.55Y-0.025
X7.55Y-0.425
X7.55Y-1.225
X7.55Y-1.625
X7.55Y-2.025
X7.55Y-2.425
X7.55Y-2.825
X7.55Y-3.225
X7.55Y-3.625
X7.6Y1.125
X7.6Y0.725
X7.6Y0.325
X7.6Y-0.075
X7.6Y-0.875
X7.6Y-1.275
X7.6Y-1.675
X7.6Y-2.075
X7.6Y-2.475
X7.6Y-2.875
X7.6Y-3.275
X7.6012Y0.8988
X7.6012Y0.4988
X7.6012Y0.0988
X7.6012Y-0.3012
X7.6012Y-1.1012
X7.6012Y-1.5012
X7.6012Y-1.9012
X7.6012Y-2.3012
X7.6012Y-2.7012
X7.6012Y-3.1012
X7.6012Y-3.5012
X7.7232Y1.1232
X7.7232Y0.7232
X7.7232Y0.3232
X7.7232Y-0.0768
X7.7232Y-0.4768
X7.7232Y-0.8768
X7.7232Y-1.2768
X7.7232Y-1.6768
X7.7232Y-2.0768
X7.7232Y-2.4768
X7.7232Y-2.8768
X7.7232Y-3.2768
X7.725Y0.9
X7.725Y0.5
X7.725Y0.1
X7.725Y-0.3
X7.725Y-0.7
X7.725Y-1.1
X7.725Y-1.5
X7.725Y-1.9
X7.725Y-2.3
X7.725Y-2.7
X7.725Y-3.1
X7.725Y-3.5
X7.7488Y1.0012
X7.7488Y0.6012
X7.7488Y0.2012
X7.7488Y-0.1988
X7.7488Y-0.5988
X7.7488Y-0.9988
X7.7488Y-1.3988
X7.7488Y-1.7988
X7.7488Y-2.1988
X7.7488Y-2.5988
X7.7488Y-2.9988
X7.7488Y-3.3988
X7.8Y0.775
X7.8Y0.375
X7.8Y-0.025
X7.8Y-0.425
X7.8Y-0.825
X7.8Y-1.225
X7.8Y-1.625
X7.8Y-2.025
X7.8Y-2.425
X7.8Y-2.825
X7.8Y-3.225
X7.8Y-3.625
X7.85Y1.125
X7.85Y0.725
X7.85Y0.325
X7.85Y-0.075
X7.85Y-0.475
X7.85Y-0.875
X7.85Y-1.275
X7.85Y-1.675
X7.85Y-2.075
X7.85Y-2.475
X7.85Y-2.875
X7.85Y-3.275
X7.8512Y0.8988
X7.8512Y0.4988
X7.8512Y0.0988
X7.8512Y-0.3012
X7.8512Y-0.7012
X7.8512Y-1.1012
X7.8512Y-1.5012
X7.8512Y-1.9012
X7.8512Y-2.3012
X7.8512Y-2.7012
X7.8512Y-3.1012
X7.8512Y-3.5012
X7.9732Y1.1232
X7.9732Y0.7232
X7.9732Y0.3232
X7.9732Y-0.0768
X7.9732Y-0.4768
X7.9732Y-0.8768
X7.9732Y-1.2768
X7.9732Y-1.6768
X7.9732Y-2.0768
X7.9732Y-2.4768
X7.9732Y-2.8768
X7.9732Y-3.2768
X7.975Y0.9
X7.975Y0.5
X7.975Y0.1
X7.975Y-0.3
X7.975Y-0.7
X7.975Y-1.1
X7.975Y-1.5
X7.975Y-1.9
X7.975Y-2.3
X7.975Y-2.7
X7.975Y-3.1
X7.975Y-3.5
X7.9988Y1.0012
X7.9988Y0.6012
X7.9988Y0.2012
X7.9988Y-0.1988
X7.9988Y-0.5988
X7.9988Y-0.9988
X7.9988Y-1.3988
X7.9988Y-1.7988
X7.9988Y-2.1988
X7.9988Y-2.5988
X7.9988Y-2.9988
X7.9988Y-3.3988
X8.05Y0.775
X8.05Y0.375
X8.05Y-0.025
X8.05Y-0.425
X8.05Y-0.825
X8.05Y-1.225
X8.05Y-1.625
X8.05Y-2.025
X8.05Y-2.425
X8.05Y-2.825
X8.05Y-3.225
X8.05Y-3.625
X8.1Y1.125
X8.1Y0.725
X8.1Y0.325
X8.1Y-0.075
X8.1Y-0.475
X8.1Y-0.875
X8.1Y-1.275
X8.1Y-1.675
X8.1Y-2.075
X8.1Y-2.475
X8.1Y-2.875
X8.1Y-3.275
X8.1012Y0.8988
X8.1012Y0.4988
X8.1012Y0.0988
X8.1012Y-0.3012
X8.1012Y-0.7012
X8.1012Y-1.1012
X8.1012Y-1.5012
X8.1012Y-1.9012
X8.1012Y-2.3012
X8.1012Y-2.7012
X8.1012Y-3.1012
X8.1012Y-3.5012
X8.2232Y1.1232
X8.2232Y0.7232
X8.2232Y0.3232
X8.2232Y-0.0768
X8.2232Y-0.4768
X8.2232Y-0.8768
X8.2232Y-1.2768
X8.2232Y-1.6768
X8.2232Y-2.0768
X8.2232Y-2.4768
X8.2232Y-2.8768
X8.2232Y-3.2768
X8.225Y0.9
X8.225Y0.5
X8.225Y0.1
X8.225Y-0.3
X8.225Y-0.7
X8.225Y-1.1
X8.225Y-1.5
X8.225Y-1.9
X8.225Y-2.3
X8.225Y-2.7
X8.225Y-3.1
X8.225Y-3.5
X8.2488Y1.0012
X8.2488Y0.6012
X8.2488Y0.2012
X8.2488Y-0.1988
X8.2488Y-0.5988
X8.2488Y-0.9988
X8.2488Y-1.3988
X8.2488Y-1.7988
X8.2488Y-2.1988
X8.2488Y-2.5988
X8.2488Y-2.9988
X8.2488Y-3.3988
X8.3Y0.775
X8.3Y0.375
X8.3Y-0.025
X8.3Y-0.425
X8.3Y-0.825
X8.3Y-1.225
X8.3Y-1.625
X8.3Y-2.025
X8.3Y-2.425
X8.3Y-2.825
X8.3Y-3.225
X8.3Y-3.625
X8.35Y1.125
X8.35Y0.725
X8.35Y0.325
X8.35Y-0.075
X8.35Y-0.475
X8.35Y-0.875
X8.35Y-1.275
X8.35Y-1.675
X8.35Y-2.075
X8.35Y-2.475
X8.35Y-2.875
X8.35Y-3.275
X8.3512Y0.8988
X8.3512Y0.4988
X8.3512Y0.0988
X8.3512Y-0.3012
X8.3512Y-0.7012
X8.3512Y-1.1012
X8.3512Y-1.5012
X8.3512Y-1.9012
X8.3512Y-2.3012
X8.3512Y-2.7012
X8.3512Y-3.1012
X8.3512Y-3.5012
X8.7232Y-3.0518
X8.7232Y-3.3982
X8.8Y-3.05
X8.8Y-3.4
X8.85Y-3.175
T2
X8.8Y-1.6
X8.8984Y-1.6
X8.7531Y-2.3
X8.95Y-2.3
X8.75Y-1.35
X8.9469Y-1.35
X8.8Y-2.0
X8.8984Y-2.0
T3
X9.2Y-2.0913
X9.2Y-2.2004
X9.2Y-2.3094
X9.2Y-2.4185
X9.2Y-2.5276
X9.2Y-2.6366
X9.2Y-2.7457
X9.2Y-2.8547
X9.2Y-2.9638
X9.2Y-3.0728
X9.2Y-3.1819
X9.2Y-3.2909
X9.2Y-3.4
X9.3118Y-2.1459
X9.3118Y-2.2549
X9.3118Y-2.364
X9.3118Y-2.473
X9.3118Y-2.5821
X9.3118Y-2.6911
X9.3118Y-2.8002
X9.3118Y-2.9093
X9.3118Y-3.0183
X9.3118Y-3.1274
X9.3118Y-3.2364
X9.3118Y-3.3455
X9.2Y0.863
X9.2Y0.7539
X9.2Y0.6449
X9.2Y0.5358
X9.2Y0.4268
X9.2Y0.3177
X9.2Y0.2087
X9.2Y0.0996
X9.2Y-0.0094
X9.2Y-0.1185
X9.2Y-0.2276
X9.2Y-0.3366
X9.2Y-0.4457
X9.2Y-0.5547
X9.2Y-0.6638
X9.2Y-0.7728
X9.2Y-0.8819
X9.2Y-0.9909
X9.2Y-1.1
X9.3118Y0.8085
X9.3118Y0.6994
X9.3118Y0.5904
X9.3118Y0.4813
X9.3118Y0.3722
X9.3118Y0.2632
X9.3118Y0.1541
X9.3118Y0.0451
X9.3118Y-0.064
X9.3118Y-0.173
X9.3118Y-0.2821
X9.3118Y-0.3911
X9.3118Y-0.5002
X9.3118Y-0.6093
X9.3118Y-0.7183
X9.3118Y-0.8274
X9.3118Y-0.9364
X9.3118Y-1.0455
X6.15Y0.95
X6.15Y0.85
X6.25Y0.95
X6.25Y0.85
X6.35Y0.95
X6.35Y0.85
X6.45Y0.95
X6.45Y0.85
X6.55Y0.95
X6.55Y0.85
X6.65Y0.95
X6.65Y0.85
X6.75Y0.95
X6.75Y0.85
X6.85Y0.95
X6.85Y0.85
X6.95Y0.95
X6.95Y0.85
X7.05Y0.95
X7.05Y0.85
X6.2Y-3.4
X6.2Y-3.5
X6.3Y-3.4
X6.3Y-3.5
X6.4Y-3.4
X6.4Y-3.5
X6.5Y-3.4
X6.5Y-3.5
X6.6Y-3.4
X6.6Y-3.5
X6.7Y-3.4
X6.7Y-3.5
X6.8Y-3.4
X6.8Y-3.5
X6.9Y-3.4
X6.9Y-3.5
X7.0Y-3.4
X7.0Y-3.5
T4
X5.6Y1.15
X5.6Y-3.7
X9.2559Y-1.8185
X9.2559Y-3.6728
X9.2559Y1.1315
X9.2559Y-1.3685
T0
M30
