M48
; DRILL file {KiCad 5.1.5-52549c5~84~ubuntu18.04.1} date Sun 07 Jun 2020 05:59:55 PM PDT
; FORMAT={-:-/ absolute / inch / decimal}
; #@! TF.CreationDate,2020-06-07T17:59:55-07:00
; #@! TF.GenerationSoftware,Kicad,Pcbnew,5.1.5-52549c5~84~ubuntu18.04.1
FMAT,2
INCH
T1C0.0157
T2C0.0315
T3C0.0350
T4C0.0354
T5C0.0394
T6C0.0433
T7C0.0630
T8C0.1260
T9C0.1280
%
G90
G05
T1
X7.3Y-1.76
X7.3Y-1.84
X7.32Y-0.6
X7.32Y-2.2
X7.3285Y-2.0915
X7.4Y0.1755
X7.4Y0.1333
X7.4Y0.091
X7.4Y-2.7
X7.4011Y0.2189
X7.4085Y0.6285
X7.4085Y0.2685
X7.4508Y0.6692
X7.46Y-0.7
X7.5Y0.7
X7.5Y-0.56
X7.5Y-0.66
X7.5138Y0.8338
X7.56Y-2.04
X7.56Y-2.1
X7.5657Y-2.1943
X7.58Y-2.7
X7.6Y-1.66
X7.6Y-1.96
X7.6083Y0.7083
X7.6083Y0.4317
X7.6398Y0.6802
X7.6398Y0.4002
X7.64Y-1.56
X7.6713Y0.7087
X7.6713Y0.4313
X7.68Y-1.16
X7.68Y-1.24
X7.68Y-1.44
X7.7Y0.4
X7.7Y-1.36
X7.7028Y0.6828
X7.72Y0.26
X7.72Y-0.74
X7.72Y-0.82
X7.76Y-1.66
X7.78Y-1.56
X7.7972Y0.6772
X7.7972Y0.3972
X7.82Y-1.16
X7.82Y-1.24
X7.8287Y0.7113
X7.8287Y0.4313
X7.8602Y0.6802
X7.8602Y0.3998
X7.8629Y-0.7571
X7.88Y0.9
X7.8915Y-0.8285
X7.8917Y0.7083
X7.8917Y0.4283
X7.92Y-1.36
X7.93Y0.67
X7.93Y0.39
X7.9862Y0.6662
X8.01Y0.39
X8.04Y0.68
X8.0746Y0.3854
X8.1092Y0.68
X8.12Y-0.76
X8.14Y-0.86
X8.14Y-2.46
X8.1452Y-0.14
X8.1515Y-0.1885
X8.18Y-0.24
X8.2Y-2.46
X8.22Y-1.04
X8.23Y-0.79
X8.24Y-0.74
X8.26Y-2.46
X8.27Y-0.71
X8.272Y-0.668
X8.2988Y-3.3988
X8.3044Y-3.1756
X8.3068Y-3.0732
X8.31Y-0.65
X8.3263Y-0.6063
X8.34Y-0.56
X8.3537Y-0.5137
X8.38Y-3.46
X8.39Y-0.41
X8.4Y-0.34
X8.4Y-2.14
X8.4Y-2.26
X8.4Y-2.34
X8.4Y-2.78
X8.4Y-3.3711
X8.4012Y-3.5012
X8.4045Y-3.0755
X8.42Y-0.3
X8.42Y-2.04
X8.44Y-1.54
X8.44Y-1.64
X8.44Y-1.74
X8.44Y-1.84
X8.44Y-1.94
X8.46Y-1.32
X8.46Y-1.44
X8.4661Y-3.0261
X8.4661Y-3.2739
X8.4661Y-3.5739
X8.48Y0.84
X8.48Y-0.26
X8.48Y-1.14
X8.48Y-1.24
X8.5Y-1.96
X8.5148Y-0.7652
X8.52Y0.36
X8.52Y-3.4566
X8.5225Y-0.1375
X8.5252Y-0.3652
X8.53Y-3.15
X8.5332Y-3.3732
X8.5439Y0.3161
X8.5461Y0.7661
X8.56Y-2.46
X8.56Y-3.2
X8.58Y0.8314
X8.5839Y-0.0839
X8.5932Y0.3932
X8.62Y0.84
X8.62Y-2.1086
X8.6348Y-2.3252
X8.6348Y-2.7852
X8.65Y0.39
X8.6548Y-0.5348
X8.6587Y0.8587
X8.66Y0.24
X8.66Y-2.08
X8.67Y-2.53
X8.6872Y0.8872
X8.6872Y0.4072
X8.6988Y-3.3988
X8.7Y-2.12
X8.7Y-2.56
X8.7Y-2.7
X8.72Y0.86
X8.72Y0.44
X8.72Y-3.14
X8.7343Y-2.0857
X8.7343Y-2.5257
X8.74Y0.02
X8.76Y0.8578
X8.76Y0.42
X8.7628Y-2.1228
X8.7628Y-2.5628
X8.78Y0.38
X8.7868Y-3.5268
X8.7913Y-2.5313
X8.7923Y-2.0923
X8.7988Y-3.2012
X8.7994Y0.84
X8.8012Y-3.3988
X8.82Y0.42
X8.82Y-3.34
X8.8209Y-2.0609
X8.84Y0.84
X8.84Y-2.54
X8.86Y-2.1
X8.8661Y-3.0261
X8.8661Y-3.2739
X8.8761Y0.3161
X8.88Y-2.52
X8.8861Y0.7661
X8.9Y-2.02
X8.9139Y-2.8661
X8.9161Y-2.4161
X8.9332Y-3.3732
X8.97Y-3.45
X9.06Y-0.1
T2
X8.8Y-1.65
X8.8984Y-1.65
X8.75Y-1.91
X8.9469Y-1.91
X7.5Y-1.7606
X7.5Y-1.8394
X7.5787Y-1.7606
X7.5787Y-1.8394
X7.6575Y-1.7606
X7.6575Y-1.8394
X8.8Y-1.25
X8.8984Y-1.25
X8.75Y-1.0
X8.9469Y-1.0
T3
X7.386Y-3.5725
X7.486Y-3.5127
X7.784Y-3.5725
X7.884Y-3.5127
T4
X7.46Y-3.13
X7.51Y-3.03
X7.56Y-3.13
X7.61Y-3.03
X7.66Y-3.13
X7.71Y-3.03
X7.76Y-3.13
X7.81Y-3.03
T5
X9.2Y0.863
X9.2Y0.7539
X9.2Y0.6449
X9.2Y0.5358
X9.2Y0.4268
X9.2Y0.3177
X9.2Y0.2087
X9.2Y0.0996
X9.2Y-0.0094
X9.2Y-0.1185
X9.2Y-0.2276
X9.2Y-0.3366
X9.2Y-0.4457
X9.2Y-0.5547
X9.2Y-0.6638
X9.2Y-0.7728
X9.2Y-0.8819
X9.2Y-0.9909
X9.2Y-1.1
X9.3118Y0.8085
X9.3118Y0.6994
X9.3118Y0.5904
X9.3118Y0.4813
X9.3118Y0.3722
X9.3118Y0.2632
X9.3118Y0.1541
X9.3118Y0.0451
X9.3118Y-0.064
X9.3118Y-0.173
X9.3118Y-0.2821
X9.3118Y-0.3911
X9.3118Y-0.5002
X9.3118Y-0.6093
X9.3118Y-0.7183
X9.3118Y-0.8274
X9.3118Y-0.9364
X9.3118Y-1.0455
X9.2Y-2.0913
X9.2Y-2.2004
X9.2Y-2.3094
X9.2Y-2.4185
X9.2Y-2.5276
X9.2Y-2.6366
X9.2Y-2.7457
X9.2Y-2.8547
X9.2Y-2.9638
X9.2Y-3.0728
X9.2Y-3.1819
X9.2Y-3.2909
X9.2Y-3.4
X9.3118Y-2.1459
X9.3118Y-2.2549
X9.3118Y-2.364
X9.3118Y-2.473
X9.3118Y-2.5821
X9.3118Y-2.6911
X9.3118Y-2.8002
X9.3118Y-2.9093
X9.3118Y-3.0183
X9.3118Y-3.1274
X9.3118Y-3.2364
X9.3118Y-3.3455
X8.1Y-3.75
X8.2Y-3.75
X8.3Y-3.75
X8.4Y-3.75
X8.5Y-3.75
X8.6Y-3.75
X8.7Y-3.75
X8.8Y-3.75
X8.9Y-3.75
X9.0Y-3.75
T6
X7.4Y-0.05
X7.4Y-0.15
X7.4Y-0.25
X7.4Y-0.35
X7.4Y-0.45
X7.4Y-0.55
X7.4Y-0.65
X7.4Y-0.75
X7.4Y-0.85
X7.4Y-0.95
X7.4Y-1.05
X7.4Y-1.15
X7.4Y-1.25
X7.4Y-1.35
X7.4Y-1.45
X7.4Y-1.55
X7.4Y-1.65
X7.4Y-1.75
X7.4Y-1.85
X7.4Y-1.95
X7.4Y-2.05
X7.4Y-2.15
X7.4Y-2.25
X7.4Y-2.35
X8.0Y-0.05
X8.0Y-0.15
X8.0Y-0.25
X8.0Y-0.35
X8.0Y-0.45
X8.0Y-0.55
X8.0Y-0.65
X8.0Y-0.75
X8.0Y-0.85
X8.0Y-0.95
X8.0Y-1.05
X8.0Y-1.15
X8.0Y-1.25
X8.0Y-1.35
X8.0Y-1.45
X8.0Y-1.55
X8.0Y-1.65
X8.0Y-1.75
X8.0Y-1.85
X8.0Y-1.95
X8.0Y-2.05
X8.0Y-2.15
X8.0Y-2.25
X8.0Y-2.35
T7
X7.3289Y-3.2595
X7.9411Y-3.2595
T8
X7.0Y1.15
X7.0Y-3.7
X9.2559Y1.1315
X9.2559Y-1.3685
X9.2559Y-1.8185
X9.2559Y-3.6728
T9
X7.41Y-3.3796
X7.86Y-3.3796
T0
M30
