M48
; DRILL file {KiCad 5.1.5-52549c5~84~ubuntu18.04.1} date Wed 22 Apr 2020 05:53:37 PM PDT
; FORMAT={-:-/ absolute / inch / decimal}
; #@! TF.CreationDate,2020-04-22T17:53:37-07:00
; #@! TF.GenerationSoftware,Kicad,Pcbnew,5.1.5-52549c5~84~ubuntu18.04.1
FMAT,2
INCH
T1C0.0157
T2C0.0315
T3C0.0354
T4C0.0394
T5C0.1260
%
G90
G05
T1
X2.701Y-3.276
X3.475Y-4.225
X3.575Y-4.15
X3.675Y-3.75
X3.8Y-3.4
X3.8Y-3.8
X3.8Y-4.2
X3.84Y-4.58
X3.8488Y-4.2262
X3.85Y-3.6
X3.85Y-4.0
X3.875Y-3.775
X3.875Y-3.825
X3.875Y-4.35
X3.9Y-4.175
X3.9Y-4.615
X3.95Y-3.6
X3.95Y-4.0
X3.95Y-4.65
X3.9738Y-4.2262
X3.975Y-3.825
X3.975Y-4.35
X4.15Y-3.4
X4.15Y-3.8
X4.15Y-4.2
X4.1988Y-4.2262
X4.2Y-3.6
X4.2Y-4.0
X4.2Y-4.58
X4.225Y-3.775
X4.225Y-3.825
X4.225Y-4.35
X4.24Y-4.615
X4.25Y-4.175
X4.275Y-4.65
X4.3Y-3.6
X4.3Y-4.0
X4.3238Y-4.2262
X4.325Y-3.825
X4.325Y-4.35
X4.5Y-3.4
X4.5Y-3.8
X4.5Y-4.2
X4.54Y-4.58
X4.5488Y-4.2262
X4.55Y-3.6
X4.55Y-4.0
X4.575Y-3.775
X4.575Y-3.825
X4.575Y-4.35
X4.6Y-4.175
X4.6Y-4.615
X4.65Y-3.6
X4.65Y-4.0
X4.65Y-4.65
X4.6738Y-4.2262
X4.675Y-3.825
X4.675Y-4.35
X4.85Y-3.4
X4.85Y-3.8
X4.85Y-4.2
X4.8988Y-4.2262
X4.9Y-3.6
X4.9Y-4.0
X4.9Y-4.58
X4.925Y-3.775
X4.925Y-3.825
X4.925Y-4.35
X4.94Y-4.615
X4.95Y-4.175
X4.975Y-4.65
X5.0Y-3.6
X5.0Y-4.0
X5.0238Y-4.2262
X5.025Y-3.825
X5.025Y-4.35
X5.2Y-3.4
X5.2Y-3.8
X5.2Y-4.2
X5.24Y-4.58
X5.2488Y-4.2262
X5.25Y-3.6
X5.25Y-4.0
X5.275Y-3.775
X5.275Y-3.825
X5.275Y-4.35
X5.3Y-4.175
X5.3Y-4.615
X5.35Y-3.6
X5.35Y-4.0
X5.35Y-4.65
X5.3738Y-4.2262
X5.375Y-3.825
X5.375Y-4.35
X5.55Y-3.4
X5.55Y-3.8
X5.55Y-4.2
X5.5988Y-4.2262
X5.6Y-3.6
X5.6Y-4.0
X5.6Y-4.58
X5.625Y-3.775
X5.625Y-3.825
X5.625Y-4.35
X5.64Y-4.615
X5.65Y-4.175
X5.675Y-4.65
X5.7Y-3.6
X5.7Y-4.0
X5.7238Y-4.2262
X5.725Y-3.825
X5.725Y-4.35
X5.9Y-3.4
X5.9Y-3.8
X5.9Y-4.2
X5.94Y-4.58
X5.9488Y-4.2262
X5.95Y-3.6
X5.95Y-4.0
X5.975Y-3.775
X5.975Y-3.825
X5.975Y-4.35
X6.0Y-4.175
X6.0Y-4.615
X6.05Y-3.6
X6.05Y-4.0
X6.05Y-4.65
X6.0738Y-4.2262
X6.075Y-3.825
X6.075Y-4.35
X6.25Y-3.4
X6.25Y-3.8
X6.25Y-4.2
X6.2988Y-4.2262
X6.3Y-3.6
X6.3Y-4.0
X6.3Y-4.58
X6.325Y-3.775
X6.325Y-3.825
X6.325Y-4.35
X6.34Y-4.615
X6.35Y-4.175
X6.375Y-4.65
X6.4Y-3.6
X6.4Y-4.0
X6.4238Y-4.2262
X6.425Y-3.825
X6.425Y-4.35
X6.6Y-3.4
X6.6Y-3.8
X6.6Y-4.2
X6.64Y-4.58
X6.6488Y-4.2262
X6.65Y-3.6
X6.65Y-4.0
X6.675Y-3.775
X6.675Y-3.825
X6.675Y-4.35
X6.7Y-4.175
X6.7Y-4.615
X6.75Y-3.6
X6.75Y-4.0
X6.75Y-4.65
X6.7738Y-4.2262
X6.775Y-3.825
X6.775Y-4.35
X6.95Y-3.4
X6.95Y-3.8
X6.95Y-4.2
X6.9988Y-4.2262
X7.0Y-3.6
X7.0Y-4.0
X7.0Y-4.58
X7.025Y-3.775
X7.025Y-3.825
X7.025Y-4.35
X7.04Y-4.615
X7.05Y-4.175
X7.075Y-4.65
X7.1Y-3.6
X7.1Y-4.0
X7.1238Y-4.2262
X7.125Y-3.825
X7.125Y-4.35
X7.3Y-3.4
X7.3Y-3.8
X7.3Y-4.2
X7.34Y-4.58
X7.3488Y-4.2262
X7.35Y-3.6
X7.35Y-4.0
X7.375Y-3.775
X7.375Y-3.825
X7.375Y-4.35
X7.4Y-4.175
X7.4Y-4.615
X7.45Y-3.6
X7.45Y-4.0
X7.45Y-4.65
X7.4738Y-4.2262
X7.475Y-3.825
X7.475Y-4.35
X7.65Y-3.4
X7.65Y-3.8
X7.65Y-4.2
X7.6988Y-4.2262
X7.7Y-3.6
X7.7Y-4.0
X7.7Y-4.58
X7.725Y-3.775
X7.725Y-3.825
X7.725Y-4.35
X7.74Y-4.615
X7.75Y-4.175
X7.775Y-4.65
X7.8Y-3.6
X7.8Y-4.0
X7.8238Y-4.2262
X7.825Y-3.825
X7.825Y-4.35
X8.0Y-3.4
X8.0Y-3.8
X8.0Y-4.2
X8.04Y-4.58
X8.0488Y-4.2262
X8.05Y-3.6
X8.05Y-4.0
X8.075Y-3.775
X8.075Y-3.825
X8.075Y-4.35
X8.1Y-4.175
X8.1Y-4.615
X8.15Y-3.6
X8.15Y-4.0
X8.15Y-4.65
X8.1738Y-4.2262
X8.175Y-3.825
X8.175Y-4.35
X8.35Y-3.4
X8.35Y-3.8
X8.35Y-4.2
X8.3988Y-4.2262
X8.4Y-3.6
X8.4Y-4.0
X8.4Y-4.58
X8.425Y-3.775
X8.425Y-3.825
X8.425Y-4.35
X8.44Y-4.615
X8.45Y-4.175
X8.475Y-4.65
X8.5Y-3.6
X8.5Y-4.0
X8.5238Y-4.2262
X8.525Y-3.825
X8.525Y-4.35
X8.7Y-3.4
X8.7Y-3.8
X8.7Y-4.2
X8.74Y-4.58
X8.7488Y-4.2262
X8.75Y-3.6
X8.75Y-4.0
X8.775Y-3.775
X8.775Y-3.825
X8.775Y-4.35
X8.8Y-4.175
X8.8Y-4.615
X8.85Y-3.6
X8.85Y-4.0
X8.85Y-4.65
X8.8738Y-4.2262
X8.875Y-3.825
X8.875Y-4.35
X9.05Y-3.4
X9.05Y-3.8
X9.05Y-4.2
X9.0988Y-4.2262
X9.1Y-3.6
X9.1Y-4.0
X9.1Y-4.58
X9.125Y-3.775
X9.125Y-3.825
X9.125Y-4.35
X9.14Y-4.615
X9.15Y-4.175
X9.175Y-4.65
X9.2Y-3.6
X9.2Y-4.0
X9.2238Y-4.2262
X9.225Y-3.825
X9.225Y-4.35
T2
X3.475Y-3.8016
X3.475Y-3.9
X3.2Y-3.7531
X3.2Y-3.95
T3
X4.95Y-3.1
X4.95Y-3.2
X5.65Y-3.1
X5.65Y-3.2
X7.4Y-3.1
X7.4Y-3.2
X8.45Y-3.1
X8.45Y-3.2
X6.0Y-3.1
X6.0Y-3.2
X4.6Y-3.1
X4.6Y-3.2
X8.8Y-3.1
X8.8Y-3.2
X6.35Y-3.1
X6.35Y-3.2
X6.7Y-3.1
X6.7Y-3.2
X9.15Y-3.1
X9.15Y-3.2
X8.1Y-3.1
X8.1Y-3.2
X5.3Y-3.1
X5.3Y-3.2
X7.75Y-3.1
X7.75Y-3.2
X3.4Y-3.1
X3.4Y-3.2
X3.9Y-3.1
X3.9Y-3.2
X7.05Y-3.1
X7.05Y-3.2
X4.25Y-3.1
X4.25Y-3.2
T4
X2.7882Y-2.9045
X2.7882Y-3.0136
X2.7882Y-3.1226
X2.7882Y-3.2317
X2.7882Y-3.3407
X2.7882Y-3.4498
X2.7882Y-3.5589
X2.7882Y-3.6679
X2.7882Y-3.777
X2.7882Y-3.886
X2.7882Y-3.9951
X2.7882Y-4.1041
X2.7882Y-4.2132
X2.7882Y-4.3222
X2.7882Y-4.4313
X2.7882Y-4.5404
X2.7882Y-4.6494
X2.7882Y-4.7585
X2.9Y-2.85
X2.9Y-2.9591
X2.9Y-3.0681
X2.9Y-3.1772
X2.9Y-3.2862
X2.9Y-3.3953
X2.9Y-3.5043
X2.9Y-3.6134
X2.9Y-3.7224
X2.9Y-3.8315
X2.9Y-3.9406
X2.9Y-4.0496
X2.9Y-4.1587
X2.9Y-4.2677
X2.9Y-4.3768
X2.9Y-4.4858
X2.9Y-4.5949
X2.9Y-4.7039
X2.9Y-4.813
T5
X9.3Y-2.6
X9.3Y-5.05
X2.8441Y-2.5815
X2.8441Y-5.0815
T0
M30
