G04 #@! TF.GenerationSoftware,KiCad,Pcbnew,5.1.5-52549c5~84~ubuntu18.04.1*
G04 #@! TF.CreationDate,2020-04-22T17:53:27-07:00*
G04 #@! TF.ProjectId,register_16bit,72656769-7374-4657-925f-31366269742e,rev?*
G04 #@! TF.SameCoordinates,Original*
G04 #@! TF.FileFunction,Paste,Top*
G04 #@! TF.FilePolarity,Positive*
%FSLAX46Y46*%
G04 Gerber Fmt 4.6, Leading zero omitted, Abs format (unit mm)*
G04 Created by KiCad (PCBNEW 5.1.5-52549c5~84~ubuntu18.04.1) date 2020-04-22 17:53:27*
%MOMM*%
%LPD*%
G04 APERTURE LIST*
%ADD10C,0.100000*%
%ADD11R,0.450000X1.450000*%
G04 APERTURE END LIST*
D10*
G36*
X82564504Y-78621204D02*
G01*
X82588773Y-78624804D01*
X82612571Y-78630765D01*
X82635671Y-78639030D01*
X82657849Y-78649520D01*
X82678893Y-78662133D01*
X82698598Y-78676747D01*
X82716777Y-78693223D01*
X82733253Y-78711402D01*
X82747867Y-78731107D01*
X82760480Y-78752151D01*
X82770970Y-78774329D01*
X82779235Y-78797429D01*
X82785196Y-78821227D01*
X82788796Y-78845496D01*
X82790000Y-78870000D01*
X82790000Y-79620000D01*
X82788796Y-79644504D01*
X82785196Y-79668773D01*
X82779235Y-79692571D01*
X82770970Y-79715671D01*
X82760480Y-79737849D01*
X82747867Y-79758893D01*
X82733253Y-79778598D01*
X82716777Y-79796777D01*
X82698598Y-79813253D01*
X82678893Y-79827867D01*
X82657849Y-79840480D01*
X82635671Y-79850970D01*
X82612571Y-79859235D01*
X82588773Y-79865196D01*
X82564504Y-79868796D01*
X82540000Y-79870000D01*
X81290000Y-79870000D01*
X81265496Y-79868796D01*
X81241227Y-79865196D01*
X81217429Y-79859235D01*
X81194329Y-79850970D01*
X81172151Y-79840480D01*
X81151107Y-79827867D01*
X81131402Y-79813253D01*
X81113223Y-79796777D01*
X81096747Y-79778598D01*
X81082133Y-79758893D01*
X81069520Y-79737849D01*
X81059030Y-79715671D01*
X81050765Y-79692571D01*
X81044804Y-79668773D01*
X81041204Y-79644504D01*
X81040000Y-79620000D01*
X81040000Y-78870000D01*
X81041204Y-78845496D01*
X81044804Y-78821227D01*
X81050765Y-78797429D01*
X81059030Y-78774329D01*
X81069520Y-78752151D01*
X81082133Y-78731107D01*
X81096747Y-78711402D01*
X81113223Y-78693223D01*
X81131402Y-78676747D01*
X81151107Y-78662133D01*
X81172151Y-78649520D01*
X81194329Y-78639030D01*
X81217429Y-78630765D01*
X81241227Y-78624804D01*
X81265496Y-78621204D01*
X81290000Y-78620000D01*
X82540000Y-78620000D01*
X82564504Y-78621204D01*
G37*
G36*
X82564504Y-81421204D02*
G01*
X82588773Y-81424804D01*
X82612571Y-81430765D01*
X82635671Y-81439030D01*
X82657849Y-81449520D01*
X82678893Y-81462133D01*
X82698598Y-81476747D01*
X82716777Y-81493223D01*
X82733253Y-81511402D01*
X82747867Y-81531107D01*
X82760480Y-81552151D01*
X82770970Y-81574329D01*
X82779235Y-81597429D01*
X82785196Y-81621227D01*
X82788796Y-81645496D01*
X82790000Y-81670000D01*
X82790000Y-82420000D01*
X82788796Y-82444504D01*
X82785196Y-82468773D01*
X82779235Y-82492571D01*
X82770970Y-82515671D01*
X82760480Y-82537849D01*
X82747867Y-82558893D01*
X82733253Y-82578598D01*
X82716777Y-82596777D01*
X82698598Y-82613253D01*
X82678893Y-82627867D01*
X82657849Y-82640480D01*
X82635671Y-82650970D01*
X82612571Y-82659235D01*
X82588773Y-82665196D01*
X82564504Y-82668796D01*
X82540000Y-82670000D01*
X81290000Y-82670000D01*
X81265496Y-82668796D01*
X81241227Y-82665196D01*
X81217429Y-82659235D01*
X81194329Y-82650970D01*
X81172151Y-82640480D01*
X81151107Y-82627867D01*
X81131402Y-82613253D01*
X81113223Y-82596777D01*
X81096747Y-82578598D01*
X81082133Y-82558893D01*
X81069520Y-82537849D01*
X81059030Y-82515671D01*
X81050765Y-82492571D01*
X81044804Y-82468773D01*
X81041204Y-82444504D01*
X81040000Y-82420000D01*
X81040000Y-81670000D01*
X81041204Y-81645496D01*
X81044804Y-81621227D01*
X81050765Y-81597429D01*
X81059030Y-81574329D01*
X81069520Y-81552151D01*
X81082133Y-81531107D01*
X81096747Y-81511402D01*
X81113223Y-81493223D01*
X81131402Y-81476747D01*
X81151107Y-81462133D01*
X81172151Y-81449520D01*
X81194329Y-81439030D01*
X81217429Y-81430765D01*
X81241227Y-81424804D01*
X81265496Y-81421204D01*
X81290000Y-81420000D01*
X82540000Y-81420000D01*
X82564504Y-81421204D01*
G37*
D11*
X186010000Y-108810000D03*
X186660000Y-108810000D03*
X187310000Y-108810000D03*
X187960000Y-108810000D03*
X188610000Y-108810000D03*
X189260000Y-108810000D03*
X189910000Y-108810000D03*
X189910000Y-114710000D03*
X189260000Y-114710000D03*
X188610000Y-114710000D03*
X187960000Y-114710000D03*
X187310000Y-114710000D03*
X186660000Y-114710000D03*
X186010000Y-114710000D03*
X230460000Y-88490000D03*
X231110000Y-88490000D03*
X231760000Y-88490000D03*
X232410000Y-88490000D03*
X233060000Y-88490000D03*
X233710000Y-88490000D03*
X234360000Y-88490000D03*
X234360000Y-94390000D03*
X233710000Y-94390000D03*
X233060000Y-94390000D03*
X232410000Y-94390000D03*
X231760000Y-94390000D03*
X231110000Y-94390000D03*
X230460000Y-94390000D03*
X230460000Y-98650000D03*
X231110000Y-98650000D03*
X231760000Y-98650000D03*
X232410000Y-98650000D03*
X233060000Y-98650000D03*
X233710000Y-98650000D03*
X234360000Y-98650000D03*
X234360000Y-104550000D03*
X233710000Y-104550000D03*
X233060000Y-104550000D03*
X232410000Y-104550000D03*
X231760000Y-104550000D03*
X231110000Y-104550000D03*
X230460000Y-104550000D03*
X230460000Y-108810000D03*
X231110000Y-108810000D03*
X231760000Y-108810000D03*
X232410000Y-108810000D03*
X233060000Y-108810000D03*
X233710000Y-108810000D03*
X234360000Y-108810000D03*
X234360000Y-114710000D03*
X233710000Y-114710000D03*
X233060000Y-114710000D03*
X232410000Y-114710000D03*
X231760000Y-114710000D03*
X231110000Y-114710000D03*
X230460000Y-114710000D03*
X97110000Y-88490000D03*
X97760000Y-88490000D03*
X98410000Y-88490000D03*
X99060000Y-88490000D03*
X99710000Y-88490000D03*
X100360000Y-88490000D03*
X101010000Y-88490000D03*
X101010000Y-94390000D03*
X100360000Y-94390000D03*
X99710000Y-94390000D03*
X99060000Y-94390000D03*
X98410000Y-94390000D03*
X97760000Y-94390000D03*
X97110000Y-94390000D03*
X97110000Y-98650000D03*
X97760000Y-98650000D03*
X98410000Y-98650000D03*
X99060000Y-98650000D03*
X99710000Y-98650000D03*
X100360000Y-98650000D03*
X101010000Y-98650000D03*
X101010000Y-104550000D03*
X100360000Y-104550000D03*
X99710000Y-104550000D03*
X99060000Y-104550000D03*
X98410000Y-104550000D03*
X97760000Y-104550000D03*
X97110000Y-104550000D03*
X97110000Y-108810000D03*
X97760000Y-108810000D03*
X98410000Y-108810000D03*
X99060000Y-108810000D03*
X99710000Y-108810000D03*
X100360000Y-108810000D03*
X101010000Y-108810000D03*
X101010000Y-114710000D03*
X100360000Y-114710000D03*
X99710000Y-114710000D03*
X99060000Y-114710000D03*
X98410000Y-114710000D03*
X97760000Y-114710000D03*
X97110000Y-114710000D03*
X106000000Y-88490000D03*
X106650000Y-88490000D03*
X107300000Y-88490000D03*
X107950000Y-88490000D03*
X108600000Y-88490000D03*
X109250000Y-88490000D03*
X109900000Y-88490000D03*
X109900000Y-94390000D03*
X109250000Y-94390000D03*
X108600000Y-94390000D03*
X107950000Y-94390000D03*
X107300000Y-94390000D03*
X106650000Y-94390000D03*
X106000000Y-94390000D03*
X106000000Y-98650000D03*
X106650000Y-98650000D03*
X107300000Y-98650000D03*
X107950000Y-98650000D03*
X108600000Y-98650000D03*
X109250000Y-98650000D03*
X109900000Y-98650000D03*
X109900000Y-104550000D03*
X109250000Y-104550000D03*
X108600000Y-104550000D03*
X107950000Y-104550000D03*
X107300000Y-104550000D03*
X106650000Y-104550000D03*
X106000000Y-104550000D03*
X106000000Y-108810000D03*
X106650000Y-108810000D03*
X107300000Y-108810000D03*
X107950000Y-108810000D03*
X108600000Y-108810000D03*
X109250000Y-108810000D03*
X109900000Y-108810000D03*
X109900000Y-114710000D03*
X109250000Y-114710000D03*
X108600000Y-114710000D03*
X107950000Y-114710000D03*
X107300000Y-114710000D03*
X106650000Y-114710000D03*
X106000000Y-114710000D03*
X114890000Y-88490000D03*
X115540000Y-88490000D03*
X116190000Y-88490000D03*
X116840000Y-88490000D03*
X117490000Y-88490000D03*
X118140000Y-88490000D03*
X118790000Y-88490000D03*
X118790000Y-94390000D03*
X118140000Y-94390000D03*
X117490000Y-94390000D03*
X116840000Y-94390000D03*
X116190000Y-94390000D03*
X115540000Y-94390000D03*
X114890000Y-94390000D03*
X114890000Y-98650000D03*
X115540000Y-98650000D03*
X116190000Y-98650000D03*
X116840000Y-98650000D03*
X117490000Y-98650000D03*
X118140000Y-98650000D03*
X118790000Y-98650000D03*
X118790000Y-104550000D03*
X118140000Y-104550000D03*
X117490000Y-104550000D03*
X116840000Y-104550000D03*
X116190000Y-104550000D03*
X115540000Y-104550000D03*
X114890000Y-104550000D03*
X114890000Y-108810000D03*
X115540000Y-108810000D03*
X116190000Y-108810000D03*
X116840000Y-108810000D03*
X117490000Y-108810000D03*
X118140000Y-108810000D03*
X118790000Y-108810000D03*
X118790000Y-114710000D03*
X118140000Y-114710000D03*
X117490000Y-114710000D03*
X116840000Y-114710000D03*
X116190000Y-114710000D03*
X115540000Y-114710000D03*
X114890000Y-114710000D03*
X123780000Y-88490000D03*
X124430000Y-88490000D03*
X125080000Y-88490000D03*
X125730000Y-88490000D03*
X126380000Y-88490000D03*
X127030000Y-88490000D03*
X127680000Y-88490000D03*
X127680000Y-94390000D03*
X127030000Y-94390000D03*
X126380000Y-94390000D03*
X125730000Y-94390000D03*
X125080000Y-94390000D03*
X124430000Y-94390000D03*
X123780000Y-94390000D03*
X123780000Y-98650000D03*
X124430000Y-98650000D03*
X125080000Y-98650000D03*
X125730000Y-98650000D03*
X126380000Y-98650000D03*
X127030000Y-98650000D03*
X127680000Y-98650000D03*
X127680000Y-104550000D03*
X127030000Y-104550000D03*
X126380000Y-104550000D03*
X125730000Y-104550000D03*
X125080000Y-104550000D03*
X124430000Y-104550000D03*
X123780000Y-104550000D03*
X123780000Y-108810000D03*
X124430000Y-108810000D03*
X125080000Y-108810000D03*
X125730000Y-108810000D03*
X126380000Y-108810000D03*
X127030000Y-108810000D03*
X127680000Y-108810000D03*
X127680000Y-114710000D03*
X127030000Y-114710000D03*
X126380000Y-114710000D03*
X125730000Y-114710000D03*
X125080000Y-114710000D03*
X124430000Y-114710000D03*
X123780000Y-114710000D03*
X132670000Y-88490000D03*
X133320000Y-88490000D03*
X133970000Y-88490000D03*
X134620000Y-88490000D03*
X135270000Y-88490000D03*
X135920000Y-88490000D03*
X136570000Y-88490000D03*
X136570000Y-94390000D03*
X135920000Y-94390000D03*
X135270000Y-94390000D03*
X134620000Y-94390000D03*
X133970000Y-94390000D03*
X133320000Y-94390000D03*
X132670000Y-94390000D03*
X132670000Y-98650000D03*
X133320000Y-98650000D03*
X133970000Y-98650000D03*
X134620000Y-98650000D03*
X135270000Y-98650000D03*
X135920000Y-98650000D03*
X136570000Y-98650000D03*
X136570000Y-104550000D03*
X135920000Y-104550000D03*
X135270000Y-104550000D03*
X134620000Y-104550000D03*
X133970000Y-104550000D03*
X133320000Y-104550000D03*
X132670000Y-104550000D03*
X132670000Y-108810000D03*
X133320000Y-108810000D03*
X133970000Y-108810000D03*
X134620000Y-108810000D03*
X135270000Y-108810000D03*
X135920000Y-108810000D03*
X136570000Y-108810000D03*
X136570000Y-114710000D03*
X135920000Y-114710000D03*
X135270000Y-114710000D03*
X134620000Y-114710000D03*
X133970000Y-114710000D03*
X133320000Y-114710000D03*
X132670000Y-114710000D03*
X141560000Y-88490000D03*
X142210000Y-88490000D03*
X142860000Y-88490000D03*
X143510000Y-88490000D03*
X144160000Y-88490000D03*
X144810000Y-88490000D03*
X145460000Y-88490000D03*
X145460000Y-94390000D03*
X144810000Y-94390000D03*
X144160000Y-94390000D03*
X143510000Y-94390000D03*
X142860000Y-94390000D03*
X142210000Y-94390000D03*
X141560000Y-94390000D03*
X141560000Y-98650000D03*
X142210000Y-98650000D03*
X142860000Y-98650000D03*
X143510000Y-98650000D03*
X144160000Y-98650000D03*
X144810000Y-98650000D03*
X145460000Y-98650000D03*
X145460000Y-104550000D03*
X144810000Y-104550000D03*
X144160000Y-104550000D03*
X143510000Y-104550000D03*
X142860000Y-104550000D03*
X142210000Y-104550000D03*
X141560000Y-104550000D03*
X141560000Y-108810000D03*
X142210000Y-108810000D03*
X142860000Y-108810000D03*
X143510000Y-108810000D03*
X144160000Y-108810000D03*
X144810000Y-108810000D03*
X145460000Y-108810000D03*
X145460000Y-114710000D03*
X144810000Y-114710000D03*
X144160000Y-114710000D03*
X143510000Y-114710000D03*
X142860000Y-114710000D03*
X142210000Y-114710000D03*
X141560000Y-114710000D03*
X150450000Y-88490000D03*
X151100000Y-88490000D03*
X151750000Y-88490000D03*
X152400000Y-88490000D03*
X153050000Y-88490000D03*
X153700000Y-88490000D03*
X154350000Y-88490000D03*
X154350000Y-94390000D03*
X153700000Y-94390000D03*
X153050000Y-94390000D03*
X152400000Y-94390000D03*
X151750000Y-94390000D03*
X151100000Y-94390000D03*
X150450000Y-94390000D03*
X150450000Y-98650000D03*
X151100000Y-98650000D03*
X151750000Y-98650000D03*
X152400000Y-98650000D03*
X153050000Y-98650000D03*
X153700000Y-98650000D03*
X154350000Y-98650000D03*
X154350000Y-104550000D03*
X153700000Y-104550000D03*
X153050000Y-104550000D03*
X152400000Y-104550000D03*
X151750000Y-104550000D03*
X151100000Y-104550000D03*
X150450000Y-104550000D03*
X150450000Y-108810000D03*
X151100000Y-108810000D03*
X151750000Y-108810000D03*
X152400000Y-108810000D03*
X153050000Y-108810000D03*
X153700000Y-108810000D03*
X154350000Y-108810000D03*
X154350000Y-114710000D03*
X153700000Y-114710000D03*
X153050000Y-114710000D03*
X152400000Y-114710000D03*
X151750000Y-114710000D03*
X151100000Y-114710000D03*
X150450000Y-114710000D03*
X159340000Y-88490000D03*
X159990000Y-88490000D03*
X160640000Y-88490000D03*
X161290000Y-88490000D03*
X161940000Y-88490000D03*
X162590000Y-88490000D03*
X163240000Y-88490000D03*
X163240000Y-94390000D03*
X162590000Y-94390000D03*
X161940000Y-94390000D03*
X161290000Y-94390000D03*
X160640000Y-94390000D03*
X159990000Y-94390000D03*
X159340000Y-94390000D03*
X159340000Y-98650000D03*
X159990000Y-98650000D03*
X160640000Y-98650000D03*
X161290000Y-98650000D03*
X161940000Y-98650000D03*
X162590000Y-98650000D03*
X163240000Y-98650000D03*
X163240000Y-104550000D03*
X162590000Y-104550000D03*
X161940000Y-104550000D03*
X161290000Y-104550000D03*
X160640000Y-104550000D03*
X159990000Y-104550000D03*
X159340000Y-104550000D03*
X159340000Y-108810000D03*
X159990000Y-108810000D03*
X160640000Y-108810000D03*
X161290000Y-108810000D03*
X161940000Y-108810000D03*
X162590000Y-108810000D03*
X163240000Y-108810000D03*
X163240000Y-114710000D03*
X162590000Y-114710000D03*
X161940000Y-114710000D03*
X161290000Y-114710000D03*
X160640000Y-114710000D03*
X159990000Y-114710000D03*
X159340000Y-114710000D03*
X168230000Y-88490000D03*
X168880000Y-88490000D03*
X169530000Y-88490000D03*
X170180000Y-88490000D03*
X170830000Y-88490000D03*
X171480000Y-88490000D03*
X172130000Y-88490000D03*
X172130000Y-94390000D03*
X171480000Y-94390000D03*
X170830000Y-94390000D03*
X170180000Y-94390000D03*
X169530000Y-94390000D03*
X168880000Y-94390000D03*
X168230000Y-94390000D03*
X168230000Y-98650000D03*
X168880000Y-98650000D03*
X169530000Y-98650000D03*
X170180000Y-98650000D03*
X170830000Y-98650000D03*
X171480000Y-98650000D03*
X172130000Y-98650000D03*
X172130000Y-104550000D03*
X171480000Y-104550000D03*
X170830000Y-104550000D03*
X170180000Y-104550000D03*
X169530000Y-104550000D03*
X168880000Y-104550000D03*
X168230000Y-104550000D03*
X168230000Y-108810000D03*
X168880000Y-108810000D03*
X169530000Y-108810000D03*
X170180000Y-108810000D03*
X170830000Y-108810000D03*
X171480000Y-108810000D03*
X172130000Y-108810000D03*
X172130000Y-114710000D03*
X171480000Y-114710000D03*
X170830000Y-114710000D03*
X170180000Y-114710000D03*
X169530000Y-114710000D03*
X168880000Y-114710000D03*
X168230000Y-114710000D03*
X177120000Y-88490000D03*
X177770000Y-88490000D03*
X178420000Y-88490000D03*
X179070000Y-88490000D03*
X179720000Y-88490000D03*
X180370000Y-88490000D03*
X181020000Y-88490000D03*
X181020000Y-94390000D03*
X180370000Y-94390000D03*
X179720000Y-94390000D03*
X179070000Y-94390000D03*
X178420000Y-94390000D03*
X177770000Y-94390000D03*
X177120000Y-94390000D03*
X177120000Y-98650000D03*
X177770000Y-98650000D03*
X178420000Y-98650000D03*
X179070000Y-98650000D03*
X179720000Y-98650000D03*
X180370000Y-98650000D03*
X181020000Y-98650000D03*
X181020000Y-104550000D03*
X180370000Y-104550000D03*
X179720000Y-104550000D03*
X179070000Y-104550000D03*
X178420000Y-104550000D03*
X177770000Y-104550000D03*
X177120000Y-104550000D03*
X177120000Y-108810000D03*
X177770000Y-108810000D03*
X178420000Y-108810000D03*
X179070000Y-108810000D03*
X179720000Y-108810000D03*
X180370000Y-108810000D03*
X181020000Y-108810000D03*
X181020000Y-114710000D03*
X180370000Y-114710000D03*
X179720000Y-114710000D03*
X179070000Y-114710000D03*
X178420000Y-114710000D03*
X177770000Y-114710000D03*
X177120000Y-114710000D03*
X186010000Y-88490000D03*
X186660000Y-88490000D03*
X187310000Y-88490000D03*
X187960000Y-88490000D03*
X188610000Y-88490000D03*
X189260000Y-88490000D03*
X189910000Y-88490000D03*
X189910000Y-94390000D03*
X189260000Y-94390000D03*
X188610000Y-94390000D03*
X187960000Y-94390000D03*
X187310000Y-94390000D03*
X186660000Y-94390000D03*
X186010000Y-94390000D03*
X186010000Y-98650000D03*
X186660000Y-98650000D03*
X187310000Y-98650000D03*
X187960000Y-98650000D03*
X188610000Y-98650000D03*
X189260000Y-98650000D03*
X189910000Y-98650000D03*
X189910000Y-104550000D03*
X189260000Y-104550000D03*
X188610000Y-104550000D03*
X187960000Y-104550000D03*
X187310000Y-104550000D03*
X186660000Y-104550000D03*
X186010000Y-104550000D03*
X194900000Y-88490000D03*
X195550000Y-88490000D03*
X196200000Y-88490000D03*
X196850000Y-88490000D03*
X197500000Y-88490000D03*
X198150000Y-88490000D03*
X198800000Y-88490000D03*
X198800000Y-94390000D03*
X198150000Y-94390000D03*
X197500000Y-94390000D03*
X196850000Y-94390000D03*
X196200000Y-94390000D03*
X195550000Y-94390000D03*
X194900000Y-94390000D03*
X194900000Y-98650000D03*
X195550000Y-98650000D03*
X196200000Y-98650000D03*
X196850000Y-98650000D03*
X197500000Y-98650000D03*
X198150000Y-98650000D03*
X198800000Y-98650000D03*
X198800000Y-104550000D03*
X198150000Y-104550000D03*
X197500000Y-104550000D03*
X196850000Y-104550000D03*
X196200000Y-104550000D03*
X195550000Y-104550000D03*
X194900000Y-104550000D03*
X194900000Y-108810000D03*
X195550000Y-108810000D03*
X196200000Y-108810000D03*
X196850000Y-108810000D03*
X197500000Y-108810000D03*
X198150000Y-108810000D03*
X198800000Y-108810000D03*
X198800000Y-114710000D03*
X198150000Y-114710000D03*
X197500000Y-114710000D03*
X196850000Y-114710000D03*
X196200000Y-114710000D03*
X195550000Y-114710000D03*
X194900000Y-114710000D03*
X203790000Y-88490000D03*
X204440000Y-88490000D03*
X205090000Y-88490000D03*
X205740000Y-88490000D03*
X206390000Y-88490000D03*
X207040000Y-88490000D03*
X207690000Y-88490000D03*
X207690000Y-94390000D03*
X207040000Y-94390000D03*
X206390000Y-94390000D03*
X205740000Y-94390000D03*
X205090000Y-94390000D03*
X204440000Y-94390000D03*
X203790000Y-94390000D03*
X203790000Y-98650000D03*
X204440000Y-98650000D03*
X205090000Y-98650000D03*
X205740000Y-98650000D03*
X206390000Y-98650000D03*
X207040000Y-98650000D03*
X207690000Y-98650000D03*
X207690000Y-104550000D03*
X207040000Y-104550000D03*
X206390000Y-104550000D03*
X205740000Y-104550000D03*
X205090000Y-104550000D03*
X204440000Y-104550000D03*
X203790000Y-104550000D03*
X203790000Y-108810000D03*
X204440000Y-108810000D03*
X205090000Y-108810000D03*
X205740000Y-108810000D03*
X206390000Y-108810000D03*
X207040000Y-108810000D03*
X207690000Y-108810000D03*
X207690000Y-114710000D03*
X207040000Y-114710000D03*
X206390000Y-114710000D03*
X205740000Y-114710000D03*
X205090000Y-114710000D03*
X204440000Y-114710000D03*
X203790000Y-114710000D03*
X212680000Y-88490000D03*
X213330000Y-88490000D03*
X213980000Y-88490000D03*
X214630000Y-88490000D03*
X215280000Y-88490000D03*
X215930000Y-88490000D03*
X216580000Y-88490000D03*
X216580000Y-94390000D03*
X215930000Y-94390000D03*
X215280000Y-94390000D03*
X214630000Y-94390000D03*
X213980000Y-94390000D03*
X213330000Y-94390000D03*
X212680000Y-94390000D03*
X212680000Y-98650000D03*
X213330000Y-98650000D03*
X213980000Y-98650000D03*
X214630000Y-98650000D03*
X215280000Y-98650000D03*
X215930000Y-98650000D03*
X216580000Y-98650000D03*
X216580000Y-104550000D03*
X215930000Y-104550000D03*
X215280000Y-104550000D03*
X214630000Y-104550000D03*
X213980000Y-104550000D03*
X213330000Y-104550000D03*
X212680000Y-104550000D03*
X212680000Y-108810000D03*
X213330000Y-108810000D03*
X213980000Y-108810000D03*
X214630000Y-108810000D03*
X215280000Y-108810000D03*
X215930000Y-108810000D03*
X216580000Y-108810000D03*
X216580000Y-114710000D03*
X215930000Y-114710000D03*
X215280000Y-114710000D03*
X214630000Y-114710000D03*
X213980000Y-114710000D03*
X213330000Y-114710000D03*
X212680000Y-114710000D03*
X221570000Y-88490000D03*
X222220000Y-88490000D03*
X222870000Y-88490000D03*
X223520000Y-88490000D03*
X224170000Y-88490000D03*
X224820000Y-88490000D03*
X225470000Y-88490000D03*
X225470000Y-94390000D03*
X224820000Y-94390000D03*
X224170000Y-94390000D03*
X223520000Y-94390000D03*
X222870000Y-94390000D03*
X222220000Y-94390000D03*
X221570000Y-94390000D03*
X221570000Y-98650000D03*
X222220000Y-98650000D03*
X222870000Y-98650000D03*
X223520000Y-98650000D03*
X224170000Y-98650000D03*
X224820000Y-98650000D03*
X225470000Y-98650000D03*
X225470000Y-104550000D03*
X224820000Y-104550000D03*
X224170000Y-104550000D03*
X223520000Y-104550000D03*
X222870000Y-104550000D03*
X222220000Y-104550000D03*
X221570000Y-104550000D03*
X221570000Y-108810000D03*
X222220000Y-108810000D03*
X222870000Y-108810000D03*
X223520000Y-108810000D03*
X224170000Y-108810000D03*
X224820000Y-108810000D03*
X225470000Y-108810000D03*
X225470000Y-114710000D03*
X224820000Y-114710000D03*
X224170000Y-114710000D03*
X223520000Y-114710000D03*
X222870000Y-114710000D03*
X222220000Y-114710000D03*
X221570000Y-114710000D03*
X88220000Y-108810000D03*
X88870000Y-108810000D03*
X89520000Y-108810000D03*
X90170000Y-108810000D03*
X90820000Y-108810000D03*
X91470000Y-108810000D03*
X92120000Y-108810000D03*
X92120000Y-114710000D03*
X91470000Y-114710000D03*
X90820000Y-114710000D03*
X90170000Y-114710000D03*
X89520000Y-114710000D03*
X88870000Y-114710000D03*
X88220000Y-114710000D03*
D10*
G36*
X99709504Y-73036204D02*
G01*
X99733773Y-73039804D01*
X99757571Y-73045765D01*
X99780671Y-73054030D01*
X99802849Y-73064520D01*
X99823893Y-73077133D01*
X99843598Y-73091747D01*
X99861777Y-73108223D01*
X99878253Y-73126402D01*
X99892867Y-73146107D01*
X99905480Y-73167151D01*
X99915970Y-73189329D01*
X99924235Y-73212429D01*
X99930196Y-73236227D01*
X99933796Y-73260496D01*
X99935000Y-73285000D01*
X99935000Y-74035000D01*
X99933796Y-74059504D01*
X99930196Y-74083773D01*
X99924235Y-74107571D01*
X99915970Y-74130671D01*
X99905480Y-74152849D01*
X99892867Y-74173893D01*
X99878253Y-74193598D01*
X99861777Y-74211777D01*
X99843598Y-74228253D01*
X99823893Y-74242867D01*
X99802849Y-74255480D01*
X99780671Y-74265970D01*
X99757571Y-74274235D01*
X99733773Y-74280196D01*
X99709504Y-74283796D01*
X99685000Y-74285000D01*
X98435000Y-74285000D01*
X98410496Y-74283796D01*
X98386227Y-74280196D01*
X98362429Y-74274235D01*
X98339329Y-74265970D01*
X98317151Y-74255480D01*
X98296107Y-74242867D01*
X98276402Y-74228253D01*
X98258223Y-74211777D01*
X98241747Y-74193598D01*
X98227133Y-74173893D01*
X98214520Y-74152849D01*
X98204030Y-74130671D01*
X98195765Y-74107571D01*
X98189804Y-74083773D01*
X98186204Y-74059504D01*
X98185000Y-74035000D01*
X98185000Y-73285000D01*
X98186204Y-73260496D01*
X98189804Y-73236227D01*
X98195765Y-73212429D01*
X98204030Y-73189329D01*
X98214520Y-73167151D01*
X98227133Y-73146107D01*
X98241747Y-73126402D01*
X98258223Y-73108223D01*
X98276402Y-73091747D01*
X98296107Y-73077133D01*
X98317151Y-73064520D01*
X98339329Y-73054030D01*
X98362429Y-73045765D01*
X98386227Y-73039804D01*
X98410496Y-73036204D01*
X98435000Y-73035000D01*
X99685000Y-73035000D01*
X99709504Y-73036204D01*
G37*
G36*
X99709504Y-70236204D02*
G01*
X99733773Y-70239804D01*
X99757571Y-70245765D01*
X99780671Y-70254030D01*
X99802849Y-70264520D01*
X99823893Y-70277133D01*
X99843598Y-70291747D01*
X99861777Y-70308223D01*
X99878253Y-70326402D01*
X99892867Y-70346107D01*
X99905480Y-70367151D01*
X99915970Y-70389329D01*
X99924235Y-70412429D01*
X99930196Y-70436227D01*
X99933796Y-70460496D01*
X99935000Y-70485000D01*
X99935000Y-71235000D01*
X99933796Y-71259504D01*
X99930196Y-71283773D01*
X99924235Y-71307571D01*
X99915970Y-71330671D01*
X99905480Y-71352849D01*
X99892867Y-71373893D01*
X99878253Y-71393598D01*
X99861777Y-71411777D01*
X99843598Y-71428253D01*
X99823893Y-71442867D01*
X99802849Y-71455480D01*
X99780671Y-71465970D01*
X99757571Y-71474235D01*
X99733773Y-71480196D01*
X99709504Y-71483796D01*
X99685000Y-71485000D01*
X98435000Y-71485000D01*
X98410496Y-71483796D01*
X98386227Y-71480196D01*
X98362429Y-71474235D01*
X98339329Y-71465970D01*
X98317151Y-71455480D01*
X98296107Y-71442867D01*
X98276402Y-71428253D01*
X98258223Y-71411777D01*
X98241747Y-71393598D01*
X98227133Y-71373893D01*
X98214520Y-71352849D01*
X98204030Y-71330671D01*
X98195765Y-71307571D01*
X98189804Y-71283773D01*
X98186204Y-71259504D01*
X98185000Y-71235000D01*
X98185000Y-70485000D01*
X98186204Y-70460496D01*
X98189804Y-70436227D01*
X98195765Y-70412429D01*
X98204030Y-70389329D01*
X98214520Y-70367151D01*
X98227133Y-70346107D01*
X98241747Y-70326402D01*
X98258223Y-70308223D01*
X98276402Y-70291747D01*
X98296107Y-70277133D01*
X98317151Y-70264520D01*
X98339329Y-70254030D01*
X98362429Y-70245765D01*
X98386227Y-70239804D01*
X98410496Y-70236204D01*
X98435000Y-70235000D01*
X99685000Y-70235000D01*
X99709504Y-70236204D01*
G37*
G36*
X108599504Y-73036204D02*
G01*
X108623773Y-73039804D01*
X108647571Y-73045765D01*
X108670671Y-73054030D01*
X108692849Y-73064520D01*
X108713893Y-73077133D01*
X108733598Y-73091747D01*
X108751777Y-73108223D01*
X108768253Y-73126402D01*
X108782867Y-73146107D01*
X108795480Y-73167151D01*
X108805970Y-73189329D01*
X108814235Y-73212429D01*
X108820196Y-73236227D01*
X108823796Y-73260496D01*
X108825000Y-73285000D01*
X108825000Y-74035000D01*
X108823796Y-74059504D01*
X108820196Y-74083773D01*
X108814235Y-74107571D01*
X108805970Y-74130671D01*
X108795480Y-74152849D01*
X108782867Y-74173893D01*
X108768253Y-74193598D01*
X108751777Y-74211777D01*
X108733598Y-74228253D01*
X108713893Y-74242867D01*
X108692849Y-74255480D01*
X108670671Y-74265970D01*
X108647571Y-74274235D01*
X108623773Y-74280196D01*
X108599504Y-74283796D01*
X108575000Y-74285000D01*
X107325000Y-74285000D01*
X107300496Y-74283796D01*
X107276227Y-74280196D01*
X107252429Y-74274235D01*
X107229329Y-74265970D01*
X107207151Y-74255480D01*
X107186107Y-74242867D01*
X107166402Y-74228253D01*
X107148223Y-74211777D01*
X107131747Y-74193598D01*
X107117133Y-74173893D01*
X107104520Y-74152849D01*
X107094030Y-74130671D01*
X107085765Y-74107571D01*
X107079804Y-74083773D01*
X107076204Y-74059504D01*
X107075000Y-74035000D01*
X107075000Y-73285000D01*
X107076204Y-73260496D01*
X107079804Y-73236227D01*
X107085765Y-73212429D01*
X107094030Y-73189329D01*
X107104520Y-73167151D01*
X107117133Y-73146107D01*
X107131747Y-73126402D01*
X107148223Y-73108223D01*
X107166402Y-73091747D01*
X107186107Y-73077133D01*
X107207151Y-73064520D01*
X107229329Y-73054030D01*
X107252429Y-73045765D01*
X107276227Y-73039804D01*
X107300496Y-73036204D01*
X107325000Y-73035000D01*
X108575000Y-73035000D01*
X108599504Y-73036204D01*
G37*
G36*
X108599504Y-70236204D02*
G01*
X108623773Y-70239804D01*
X108647571Y-70245765D01*
X108670671Y-70254030D01*
X108692849Y-70264520D01*
X108713893Y-70277133D01*
X108733598Y-70291747D01*
X108751777Y-70308223D01*
X108768253Y-70326402D01*
X108782867Y-70346107D01*
X108795480Y-70367151D01*
X108805970Y-70389329D01*
X108814235Y-70412429D01*
X108820196Y-70436227D01*
X108823796Y-70460496D01*
X108825000Y-70485000D01*
X108825000Y-71235000D01*
X108823796Y-71259504D01*
X108820196Y-71283773D01*
X108814235Y-71307571D01*
X108805970Y-71330671D01*
X108795480Y-71352849D01*
X108782867Y-71373893D01*
X108768253Y-71393598D01*
X108751777Y-71411777D01*
X108733598Y-71428253D01*
X108713893Y-71442867D01*
X108692849Y-71455480D01*
X108670671Y-71465970D01*
X108647571Y-71474235D01*
X108623773Y-71480196D01*
X108599504Y-71483796D01*
X108575000Y-71485000D01*
X107325000Y-71485000D01*
X107300496Y-71483796D01*
X107276227Y-71480196D01*
X107252429Y-71474235D01*
X107229329Y-71465970D01*
X107207151Y-71455480D01*
X107186107Y-71442867D01*
X107166402Y-71428253D01*
X107148223Y-71411777D01*
X107131747Y-71393598D01*
X107117133Y-71373893D01*
X107104520Y-71352849D01*
X107094030Y-71330671D01*
X107085765Y-71307571D01*
X107079804Y-71283773D01*
X107076204Y-71259504D01*
X107075000Y-71235000D01*
X107075000Y-70485000D01*
X107076204Y-70460496D01*
X107079804Y-70436227D01*
X107085765Y-70412429D01*
X107094030Y-70389329D01*
X107104520Y-70367151D01*
X107117133Y-70346107D01*
X107131747Y-70326402D01*
X107148223Y-70308223D01*
X107166402Y-70291747D01*
X107186107Y-70277133D01*
X107207151Y-70264520D01*
X107229329Y-70254030D01*
X107252429Y-70245765D01*
X107276227Y-70239804D01*
X107300496Y-70236204D01*
X107325000Y-70235000D01*
X108575000Y-70235000D01*
X108599504Y-70236204D01*
G37*
G36*
X117489504Y-73036204D02*
G01*
X117513773Y-73039804D01*
X117537571Y-73045765D01*
X117560671Y-73054030D01*
X117582849Y-73064520D01*
X117603893Y-73077133D01*
X117623598Y-73091747D01*
X117641777Y-73108223D01*
X117658253Y-73126402D01*
X117672867Y-73146107D01*
X117685480Y-73167151D01*
X117695970Y-73189329D01*
X117704235Y-73212429D01*
X117710196Y-73236227D01*
X117713796Y-73260496D01*
X117715000Y-73285000D01*
X117715000Y-74035000D01*
X117713796Y-74059504D01*
X117710196Y-74083773D01*
X117704235Y-74107571D01*
X117695970Y-74130671D01*
X117685480Y-74152849D01*
X117672867Y-74173893D01*
X117658253Y-74193598D01*
X117641777Y-74211777D01*
X117623598Y-74228253D01*
X117603893Y-74242867D01*
X117582849Y-74255480D01*
X117560671Y-74265970D01*
X117537571Y-74274235D01*
X117513773Y-74280196D01*
X117489504Y-74283796D01*
X117465000Y-74285000D01*
X116215000Y-74285000D01*
X116190496Y-74283796D01*
X116166227Y-74280196D01*
X116142429Y-74274235D01*
X116119329Y-74265970D01*
X116097151Y-74255480D01*
X116076107Y-74242867D01*
X116056402Y-74228253D01*
X116038223Y-74211777D01*
X116021747Y-74193598D01*
X116007133Y-74173893D01*
X115994520Y-74152849D01*
X115984030Y-74130671D01*
X115975765Y-74107571D01*
X115969804Y-74083773D01*
X115966204Y-74059504D01*
X115965000Y-74035000D01*
X115965000Y-73285000D01*
X115966204Y-73260496D01*
X115969804Y-73236227D01*
X115975765Y-73212429D01*
X115984030Y-73189329D01*
X115994520Y-73167151D01*
X116007133Y-73146107D01*
X116021747Y-73126402D01*
X116038223Y-73108223D01*
X116056402Y-73091747D01*
X116076107Y-73077133D01*
X116097151Y-73064520D01*
X116119329Y-73054030D01*
X116142429Y-73045765D01*
X116166227Y-73039804D01*
X116190496Y-73036204D01*
X116215000Y-73035000D01*
X117465000Y-73035000D01*
X117489504Y-73036204D01*
G37*
G36*
X117489504Y-70236204D02*
G01*
X117513773Y-70239804D01*
X117537571Y-70245765D01*
X117560671Y-70254030D01*
X117582849Y-70264520D01*
X117603893Y-70277133D01*
X117623598Y-70291747D01*
X117641777Y-70308223D01*
X117658253Y-70326402D01*
X117672867Y-70346107D01*
X117685480Y-70367151D01*
X117695970Y-70389329D01*
X117704235Y-70412429D01*
X117710196Y-70436227D01*
X117713796Y-70460496D01*
X117715000Y-70485000D01*
X117715000Y-71235000D01*
X117713796Y-71259504D01*
X117710196Y-71283773D01*
X117704235Y-71307571D01*
X117695970Y-71330671D01*
X117685480Y-71352849D01*
X117672867Y-71373893D01*
X117658253Y-71393598D01*
X117641777Y-71411777D01*
X117623598Y-71428253D01*
X117603893Y-71442867D01*
X117582849Y-71455480D01*
X117560671Y-71465970D01*
X117537571Y-71474235D01*
X117513773Y-71480196D01*
X117489504Y-71483796D01*
X117465000Y-71485000D01*
X116215000Y-71485000D01*
X116190496Y-71483796D01*
X116166227Y-71480196D01*
X116142429Y-71474235D01*
X116119329Y-71465970D01*
X116097151Y-71455480D01*
X116076107Y-71442867D01*
X116056402Y-71428253D01*
X116038223Y-71411777D01*
X116021747Y-71393598D01*
X116007133Y-71373893D01*
X115994520Y-71352849D01*
X115984030Y-71330671D01*
X115975765Y-71307571D01*
X115969804Y-71283773D01*
X115966204Y-71259504D01*
X115965000Y-71235000D01*
X115965000Y-70485000D01*
X115966204Y-70460496D01*
X115969804Y-70436227D01*
X115975765Y-70412429D01*
X115984030Y-70389329D01*
X115994520Y-70367151D01*
X116007133Y-70346107D01*
X116021747Y-70326402D01*
X116038223Y-70308223D01*
X116056402Y-70291747D01*
X116076107Y-70277133D01*
X116097151Y-70264520D01*
X116119329Y-70254030D01*
X116142429Y-70245765D01*
X116166227Y-70239804D01*
X116190496Y-70236204D01*
X116215000Y-70235000D01*
X117465000Y-70235000D01*
X117489504Y-70236204D01*
G37*
G36*
X126379504Y-73036204D02*
G01*
X126403773Y-73039804D01*
X126427571Y-73045765D01*
X126450671Y-73054030D01*
X126472849Y-73064520D01*
X126493893Y-73077133D01*
X126513598Y-73091747D01*
X126531777Y-73108223D01*
X126548253Y-73126402D01*
X126562867Y-73146107D01*
X126575480Y-73167151D01*
X126585970Y-73189329D01*
X126594235Y-73212429D01*
X126600196Y-73236227D01*
X126603796Y-73260496D01*
X126605000Y-73285000D01*
X126605000Y-74035000D01*
X126603796Y-74059504D01*
X126600196Y-74083773D01*
X126594235Y-74107571D01*
X126585970Y-74130671D01*
X126575480Y-74152849D01*
X126562867Y-74173893D01*
X126548253Y-74193598D01*
X126531777Y-74211777D01*
X126513598Y-74228253D01*
X126493893Y-74242867D01*
X126472849Y-74255480D01*
X126450671Y-74265970D01*
X126427571Y-74274235D01*
X126403773Y-74280196D01*
X126379504Y-74283796D01*
X126355000Y-74285000D01*
X125105000Y-74285000D01*
X125080496Y-74283796D01*
X125056227Y-74280196D01*
X125032429Y-74274235D01*
X125009329Y-74265970D01*
X124987151Y-74255480D01*
X124966107Y-74242867D01*
X124946402Y-74228253D01*
X124928223Y-74211777D01*
X124911747Y-74193598D01*
X124897133Y-74173893D01*
X124884520Y-74152849D01*
X124874030Y-74130671D01*
X124865765Y-74107571D01*
X124859804Y-74083773D01*
X124856204Y-74059504D01*
X124855000Y-74035000D01*
X124855000Y-73285000D01*
X124856204Y-73260496D01*
X124859804Y-73236227D01*
X124865765Y-73212429D01*
X124874030Y-73189329D01*
X124884520Y-73167151D01*
X124897133Y-73146107D01*
X124911747Y-73126402D01*
X124928223Y-73108223D01*
X124946402Y-73091747D01*
X124966107Y-73077133D01*
X124987151Y-73064520D01*
X125009329Y-73054030D01*
X125032429Y-73045765D01*
X125056227Y-73039804D01*
X125080496Y-73036204D01*
X125105000Y-73035000D01*
X126355000Y-73035000D01*
X126379504Y-73036204D01*
G37*
G36*
X126379504Y-70236204D02*
G01*
X126403773Y-70239804D01*
X126427571Y-70245765D01*
X126450671Y-70254030D01*
X126472849Y-70264520D01*
X126493893Y-70277133D01*
X126513598Y-70291747D01*
X126531777Y-70308223D01*
X126548253Y-70326402D01*
X126562867Y-70346107D01*
X126575480Y-70367151D01*
X126585970Y-70389329D01*
X126594235Y-70412429D01*
X126600196Y-70436227D01*
X126603796Y-70460496D01*
X126605000Y-70485000D01*
X126605000Y-71235000D01*
X126603796Y-71259504D01*
X126600196Y-71283773D01*
X126594235Y-71307571D01*
X126585970Y-71330671D01*
X126575480Y-71352849D01*
X126562867Y-71373893D01*
X126548253Y-71393598D01*
X126531777Y-71411777D01*
X126513598Y-71428253D01*
X126493893Y-71442867D01*
X126472849Y-71455480D01*
X126450671Y-71465970D01*
X126427571Y-71474235D01*
X126403773Y-71480196D01*
X126379504Y-71483796D01*
X126355000Y-71485000D01*
X125105000Y-71485000D01*
X125080496Y-71483796D01*
X125056227Y-71480196D01*
X125032429Y-71474235D01*
X125009329Y-71465970D01*
X124987151Y-71455480D01*
X124966107Y-71442867D01*
X124946402Y-71428253D01*
X124928223Y-71411777D01*
X124911747Y-71393598D01*
X124897133Y-71373893D01*
X124884520Y-71352849D01*
X124874030Y-71330671D01*
X124865765Y-71307571D01*
X124859804Y-71283773D01*
X124856204Y-71259504D01*
X124855000Y-71235000D01*
X124855000Y-70485000D01*
X124856204Y-70460496D01*
X124859804Y-70436227D01*
X124865765Y-70412429D01*
X124874030Y-70389329D01*
X124884520Y-70367151D01*
X124897133Y-70346107D01*
X124911747Y-70326402D01*
X124928223Y-70308223D01*
X124946402Y-70291747D01*
X124966107Y-70277133D01*
X124987151Y-70264520D01*
X125009329Y-70254030D01*
X125032429Y-70245765D01*
X125056227Y-70239804D01*
X125080496Y-70236204D01*
X125105000Y-70235000D01*
X126355000Y-70235000D01*
X126379504Y-70236204D01*
G37*
G36*
X135269504Y-73036204D02*
G01*
X135293773Y-73039804D01*
X135317571Y-73045765D01*
X135340671Y-73054030D01*
X135362849Y-73064520D01*
X135383893Y-73077133D01*
X135403598Y-73091747D01*
X135421777Y-73108223D01*
X135438253Y-73126402D01*
X135452867Y-73146107D01*
X135465480Y-73167151D01*
X135475970Y-73189329D01*
X135484235Y-73212429D01*
X135490196Y-73236227D01*
X135493796Y-73260496D01*
X135495000Y-73285000D01*
X135495000Y-74035000D01*
X135493796Y-74059504D01*
X135490196Y-74083773D01*
X135484235Y-74107571D01*
X135475970Y-74130671D01*
X135465480Y-74152849D01*
X135452867Y-74173893D01*
X135438253Y-74193598D01*
X135421777Y-74211777D01*
X135403598Y-74228253D01*
X135383893Y-74242867D01*
X135362849Y-74255480D01*
X135340671Y-74265970D01*
X135317571Y-74274235D01*
X135293773Y-74280196D01*
X135269504Y-74283796D01*
X135245000Y-74285000D01*
X133995000Y-74285000D01*
X133970496Y-74283796D01*
X133946227Y-74280196D01*
X133922429Y-74274235D01*
X133899329Y-74265970D01*
X133877151Y-74255480D01*
X133856107Y-74242867D01*
X133836402Y-74228253D01*
X133818223Y-74211777D01*
X133801747Y-74193598D01*
X133787133Y-74173893D01*
X133774520Y-74152849D01*
X133764030Y-74130671D01*
X133755765Y-74107571D01*
X133749804Y-74083773D01*
X133746204Y-74059504D01*
X133745000Y-74035000D01*
X133745000Y-73285000D01*
X133746204Y-73260496D01*
X133749804Y-73236227D01*
X133755765Y-73212429D01*
X133764030Y-73189329D01*
X133774520Y-73167151D01*
X133787133Y-73146107D01*
X133801747Y-73126402D01*
X133818223Y-73108223D01*
X133836402Y-73091747D01*
X133856107Y-73077133D01*
X133877151Y-73064520D01*
X133899329Y-73054030D01*
X133922429Y-73045765D01*
X133946227Y-73039804D01*
X133970496Y-73036204D01*
X133995000Y-73035000D01*
X135245000Y-73035000D01*
X135269504Y-73036204D01*
G37*
G36*
X135269504Y-70236204D02*
G01*
X135293773Y-70239804D01*
X135317571Y-70245765D01*
X135340671Y-70254030D01*
X135362849Y-70264520D01*
X135383893Y-70277133D01*
X135403598Y-70291747D01*
X135421777Y-70308223D01*
X135438253Y-70326402D01*
X135452867Y-70346107D01*
X135465480Y-70367151D01*
X135475970Y-70389329D01*
X135484235Y-70412429D01*
X135490196Y-70436227D01*
X135493796Y-70460496D01*
X135495000Y-70485000D01*
X135495000Y-71235000D01*
X135493796Y-71259504D01*
X135490196Y-71283773D01*
X135484235Y-71307571D01*
X135475970Y-71330671D01*
X135465480Y-71352849D01*
X135452867Y-71373893D01*
X135438253Y-71393598D01*
X135421777Y-71411777D01*
X135403598Y-71428253D01*
X135383893Y-71442867D01*
X135362849Y-71455480D01*
X135340671Y-71465970D01*
X135317571Y-71474235D01*
X135293773Y-71480196D01*
X135269504Y-71483796D01*
X135245000Y-71485000D01*
X133995000Y-71485000D01*
X133970496Y-71483796D01*
X133946227Y-71480196D01*
X133922429Y-71474235D01*
X133899329Y-71465970D01*
X133877151Y-71455480D01*
X133856107Y-71442867D01*
X133836402Y-71428253D01*
X133818223Y-71411777D01*
X133801747Y-71393598D01*
X133787133Y-71373893D01*
X133774520Y-71352849D01*
X133764030Y-71330671D01*
X133755765Y-71307571D01*
X133749804Y-71283773D01*
X133746204Y-71259504D01*
X133745000Y-71235000D01*
X133745000Y-70485000D01*
X133746204Y-70460496D01*
X133749804Y-70436227D01*
X133755765Y-70412429D01*
X133764030Y-70389329D01*
X133774520Y-70367151D01*
X133787133Y-70346107D01*
X133801747Y-70326402D01*
X133818223Y-70308223D01*
X133836402Y-70291747D01*
X133856107Y-70277133D01*
X133877151Y-70264520D01*
X133899329Y-70254030D01*
X133922429Y-70245765D01*
X133946227Y-70239804D01*
X133970496Y-70236204D01*
X133995000Y-70235000D01*
X135245000Y-70235000D01*
X135269504Y-70236204D01*
G37*
G36*
X144159504Y-73036204D02*
G01*
X144183773Y-73039804D01*
X144207571Y-73045765D01*
X144230671Y-73054030D01*
X144252849Y-73064520D01*
X144273893Y-73077133D01*
X144293598Y-73091747D01*
X144311777Y-73108223D01*
X144328253Y-73126402D01*
X144342867Y-73146107D01*
X144355480Y-73167151D01*
X144365970Y-73189329D01*
X144374235Y-73212429D01*
X144380196Y-73236227D01*
X144383796Y-73260496D01*
X144385000Y-73285000D01*
X144385000Y-74035000D01*
X144383796Y-74059504D01*
X144380196Y-74083773D01*
X144374235Y-74107571D01*
X144365970Y-74130671D01*
X144355480Y-74152849D01*
X144342867Y-74173893D01*
X144328253Y-74193598D01*
X144311777Y-74211777D01*
X144293598Y-74228253D01*
X144273893Y-74242867D01*
X144252849Y-74255480D01*
X144230671Y-74265970D01*
X144207571Y-74274235D01*
X144183773Y-74280196D01*
X144159504Y-74283796D01*
X144135000Y-74285000D01*
X142885000Y-74285000D01*
X142860496Y-74283796D01*
X142836227Y-74280196D01*
X142812429Y-74274235D01*
X142789329Y-74265970D01*
X142767151Y-74255480D01*
X142746107Y-74242867D01*
X142726402Y-74228253D01*
X142708223Y-74211777D01*
X142691747Y-74193598D01*
X142677133Y-74173893D01*
X142664520Y-74152849D01*
X142654030Y-74130671D01*
X142645765Y-74107571D01*
X142639804Y-74083773D01*
X142636204Y-74059504D01*
X142635000Y-74035000D01*
X142635000Y-73285000D01*
X142636204Y-73260496D01*
X142639804Y-73236227D01*
X142645765Y-73212429D01*
X142654030Y-73189329D01*
X142664520Y-73167151D01*
X142677133Y-73146107D01*
X142691747Y-73126402D01*
X142708223Y-73108223D01*
X142726402Y-73091747D01*
X142746107Y-73077133D01*
X142767151Y-73064520D01*
X142789329Y-73054030D01*
X142812429Y-73045765D01*
X142836227Y-73039804D01*
X142860496Y-73036204D01*
X142885000Y-73035000D01*
X144135000Y-73035000D01*
X144159504Y-73036204D01*
G37*
G36*
X144159504Y-70236204D02*
G01*
X144183773Y-70239804D01*
X144207571Y-70245765D01*
X144230671Y-70254030D01*
X144252849Y-70264520D01*
X144273893Y-70277133D01*
X144293598Y-70291747D01*
X144311777Y-70308223D01*
X144328253Y-70326402D01*
X144342867Y-70346107D01*
X144355480Y-70367151D01*
X144365970Y-70389329D01*
X144374235Y-70412429D01*
X144380196Y-70436227D01*
X144383796Y-70460496D01*
X144385000Y-70485000D01*
X144385000Y-71235000D01*
X144383796Y-71259504D01*
X144380196Y-71283773D01*
X144374235Y-71307571D01*
X144365970Y-71330671D01*
X144355480Y-71352849D01*
X144342867Y-71373893D01*
X144328253Y-71393598D01*
X144311777Y-71411777D01*
X144293598Y-71428253D01*
X144273893Y-71442867D01*
X144252849Y-71455480D01*
X144230671Y-71465970D01*
X144207571Y-71474235D01*
X144183773Y-71480196D01*
X144159504Y-71483796D01*
X144135000Y-71485000D01*
X142885000Y-71485000D01*
X142860496Y-71483796D01*
X142836227Y-71480196D01*
X142812429Y-71474235D01*
X142789329Y-71465970D01*
X142767151Y-71455480D01*
X142746107Y-71442867D01*
X142726402Y-71428253D01*
X142708223Y-71411777D01*
X142691747Y-71393598D01*
X142677133Y-71373893D01*
X142664520Y-71352849D01*
X142654030Y-71330671D01*
X142645765Y-71307571D01*
X142639804Y-71283773D01*
X142636204Y-71259504D01*
X142635000Y-71235000D01*
X142635000Y-70485000D01*
X142636204Y-70460496D01*
X142639804Y-70436227D01*
X142645765Y-70412429D01*
X142654030Y-70389329D01*
X142664520Y-70367151D01*
X142677133Y-70346107D01*
X142691747Y-70326402D01*
X142708223Y-70308223D01*
X142726402Y-70291747D01*
X142746107Y-70277133D01*
X142767151Y-70264520D01*
X142789329Y-70254030D01*
X142812429Y-70245765D01*
X142836227Y-70239804D01*
X142860496Y-70236204D01*
X142885000Y-70235000D01*
X144135000Y-70235000D01*
X144159504Y-70236204D01*
G37*
G36*
X153049504Y-73036204D02*
G01*
X153073773Y-73039804D01*
X153097571Y-73045765D01*
X153120671Y-73054030D01*
X153142849Y-73064520D01*
X153163893Y-73077133D01*
X153183598Y-73091747D01*
X153201777Y-73108223D01*
X153218253Y-73126402D01*
X153232867Y-73146107D01*
X153245480Y-73167151D01*
X153255970Y-73189329D01*
X153264235Y-73212429D01*
X153270196Y-73236227D01*
X153273796Y-73260496D01*
X153275000Y-73285000D01*
X153275000Y-74035000D01*
X153273796Y-74059504D01*
X153270196Y-74083773D01*
X153264235Y-74107571D01*
X153255970Y-74130671D01*
X153245480Y-74152849D01*
X153232867Y-74173893D01*
X153218253Y-74193598D01*
X153201777Y-74211777D01*
X153183598Y-74228253D01*
X153163893Y-74242867D01*
X153142849Y-74255480D01*
X153120671Y-74265970D01*
X153097571Y-74274235D01*
X153073773Y-74280196D01*
X153049504Y-74283796D01*
X153025000Y-74285000D01*
X151775000Y-74285000D01*
X151750496Y-74283796D01*
X151726227Y-74280196D01*
X151702429Y-74274235D01*
X151679329Y-74265970D01*
X151657151Y-74255480D01*
X151636107Y-74242867D01*
X151616402Y-74228253D01*
X151598223Y-74211777D01*
X151581747Y-74193598D01*
X151567133Y-74173893D01*
X151554520Y-74152849D01*
X151544030Y-74130671D01*
X151535765Y-74107571D01*
X151529804Y-74083773D01*
X151526204Y-74059504D01*
X151525000Y-74035000D01*
X151525000Y-73285000D01*
X151526204Y-73260496D01*
X151529804Y-73236227D01*
X151535765Y-73212429D01*
X151544030Y-73189329D01*
X151554520Y-73167151D01*
X151567133Y-73146107D01*
X151581747Y-73126402D01*
X151598223Y-73108223D01*
X151616402Y-73091747D01*
X151636107Y-73077133D01*
X151657151Y-73064520D01*
X151679329Y-73054030D01*
X151702429Y-73045765D01*
X151726227Y-73039804D01*
X151750496Y-73036204D01*
X151775000Y-73035000D01*
X153025000Y-73035000D01*
X153049504Y-73036204D01*
G37*
G36*
X153049504Y-70236204D02*
G01*
X153073773Y-70239804D01*
X153097571Y-70245765D01*
X153120671Y-70254030D01*
X153142849Y-70264520D01*
X153163893Y-70277133D01*
X153183598Y-70291747D01*
X153201777Y-70308223D01*
X153218253Y-70326402D01*
X153232867Y-70346107D01*
X153245480Y-70367151D01*
X153255970Y-70389329D01*
X153264235Y-70412429D01*
X153270196Y-70436227D01*
X153273796Y-70460496D01*
X153275000Y-70485000D01*
X153275000Y-71235000D01*
X153273796Y-71259504D01*
X153270196Y-71283773D01*
X153264235Y-71307571D01*
X153255970Y-71330671D01*
X153245480Y-71352849D01*
X153232867Y-71373893D01*
X153218253Y-71393598D01*
X153201777Y-71411777D01*
X153183598Y-71428253D01*
X153163893Y-71442867D01*
X153142849Y-71455480D01*
X153120671Y-71465970D01*
X153097571Y-71474235D01*
X153073773Y-71480196D01*
X153049504Y-71483796D01*
X153025000Y-71485000D01*
X151775000Y-71485000D01*
X151750496Y-71483796D01*
X151726227Y-71480196D01*
X151702429Y-71474235D01*
X151679329Y-71465970D01*
X151657151Y-71455480D01*
X151636107Y-71442867D01*
X151616402Y-71428253D01*
X151598223Y-71411777D01*
X151581747Y-71393598D01*
X151567133Y-71373893D01*
X151554520Y-71352849D01*
X151544030Y-71330671D01*
X151535765Y-71307571D01*
X151529804Y-71283773D01*
X151526204Y-71259504D01*
X151525000Y-71235000D01*
X151525000Y-70485000D01*
X151526204Y-70460496D01*
X151529804Y-70436227D01*
X151535765Y-70412429D01*
X151544030Y-70389329D01*
X151554520Y-70367151D01*
X151567133Y-70346107D01*
X151581747Y-70326402D01*
X151598223Y-70308223D01*
X151616402Y-70291747D01*
X151636107Y-70277133D01*
X151657151Y-70264520D01*
X151679329Y-70254030D01*
X151702429Y-70245765D01*
X151726227Y-70239804D01*
X151750496Y-70236204D01*
X151775000Y-70235000D01*
X153025000Y-70235000D01*
X153049504Y-70236204D01*
G37*
G36*
X161939504Y-73036204D02*
G01*
X161963773Y-73039804D01*
X161987571Y-73045765D01*
X162010671Y-73054030D01*
X162032849Y-73064520D01*
X162053893Y-73077133D01*
X162073598Y-73091747D01*
X162091777Y-73108223D01*
X162108253Y-73126402D01*
X162122867Y-73146107D01*
X162135480Y-73167151D01*
X162145970Y-73189329D01*
X162154235Y-73212429D01*
X162160196Y-73236227D01*
X162163796Y-73260496D01*
X162165000Y-73285000D01*
X162165000Y-74035000D01*
X162163796Y-74059504D01*
X162160196Y-74083773D01*
X162154235Y-74107571D01*
X162145970Y-74130671D01*
X162135480Y-74152849D01*
X162122867Y-74173893D01*
X162108253Y-74193598D01*
X162091777Y-74211777D01*
X162073598Y-74228253D01*
X162053893Y-74242867D01*
X162032849Y-74255480D01*
X162010671Y-74265970D01*
X161987571Y-74274235D01*
X161963773Y-74280196D01*
X161939504Y-74283796D01*
X161915000Y-74285000D01*
X160665000Y-74285000D01*
X160640496Y-74283796D01*
X160616227Y-74280196D01*
X160592429Y-74274235D01*
X160569329Y-74265970D01*
X160547151Y-74255480D01*
X160526107Y-74242867D01*
X160506402Y-74228253D01*
X160488223Y-74211777D01*
X160471747Y-74193598D01*
X160457133Y-74173893D01*
X160444520Y-74152849D01*
X160434030Y-74130671D01*
X160425765Y-74107571D01*
X160419804Y-74083773D01*
X160416204Y-74059504D01*
X160415000Y-74035000D01*
X160415000Y-73285000D01*
X160416204Y-73260496D01*
X160419804Y-73236227D01*
X160425765Y-73212429D01*
X160434030Y-73189329D01*
X160444520Y-73167151D01*
X160457133Y-73146107D01*
X160471747Y-73126402D01*
X160488223Y-73108223D01*
X160506402Y-73091747D01*
X160526107Y-73077133D01*
X160547151Y-73064520D01*
X160569329Y-73054030D01*
X160592429Y-73045765D01*
X160616227Y-73039804D01*
X160640496Y-73036204D01*
X160665000Y-73035000D01*
X161915000Y-73035000D01*
X161939504Y-73036204D01*
G37*
G36*
X161939504Y-70236204D02*
G01*
X161963773Y-70239804D01*
X161987571Y-70245765D01*
X162010671Y-70254030D01*
X162032849Y-70264520D01*
X162053893Y-70277133D01*
X162073598Y-70291747D01*
X162091777Y-70308223D01*
X162108253Y-70326402D01*
X162122867Y-70346107D01*
X162135480Y-70367151D01*
X162145970Y-70389329D01*
X162154235Y-70412429D01*
X162160196Y-70436227D01*
X162163796Y-70460496D01*
X162165000Y-70485000D01*
X162165000Y-71235000D01*
X162163796Y-71259504D01*
X162160196Y-71283773D01*
X162154235Y-71307571D01*
X162145970Y-71330671D01*
X162135480Y-71352849D01*
X162122867Y-71373893D01*
X162108253Y-71393598D01*
X162091777Y-71411777D01*
X162073598Y-71428253D01*
X162053893Y-71442867D01*
X162032849Y-71455480D01*
X162010671Y-71465970D01*
X161987571Y-71474235D01*
X161963773Y-71480196D01*
X161939504Y-71483796D01*
X161915000Y-71485000D01*
X160665000Y-71485000D01*
X160640496Y-71483796D01*
X160616227Y-71480196D01*
X160592429Y-71474235D01*
X160569329Y-71465970D01*
X160547151Y-71455480D01*
X160526107Y-71442867D01*
X160506402Y-71428253D01*
X160488223Y-71411777D01*
X160471747Y-71393598D01*
X160457133Y-71373893D01*
X160444520Y-71352849D01*
X160434030Y-71330671D01*
X160425765Y-71307571D01*
X160419804Y-71283773D01*
X160416204Y-71259504D01*
X160415000Y-71235000D01*
X160415000Y-70485000D01*
X160416204Y-70460496D01*
X160419804Y-70436227D01*
X160425765Y-70412429D01*
X160434030Y-70389329D01*
X160444520Y-70367151D01*
X160457133Y-70346107D01*
X160471747Y-70326402D01*
X160488223Y-70308223D01*
X160506402Y-70291747D01*
X160526107Y-70277133D01*
X160547151Y-70264520D01*
X160569329Y-70254030D01*
X160592429Y-70245765D01*
X160616227Y-70239804D01*
X160640496Y-70236204D01*
X160665000Y-70235000D01*
X161915000Y-70235000D01*
X161939504Y-70236204D01*
G37*
G36*
X170829504Y-73036204D02*
G01*
X170853773Y-73039804D01*
X170877571Y-73045765D01*
X170900671Y-73054030D01*
X170922849Y-73064520D01*
X170943893Y-73077133D01*
X170963598Y-73091747D01*
X170981777Y-73108223D01*
X170998253Y-73126402D01*
X171012867Y-73146107D01*
X171025480Y-73167151D01*
X171035970Y-73189329D01*
X171044235Y-73212429D01*
X171050196Y-73236227D01*
X171053796Y-73260496D01*
X171055000Y-73285000D01*
X171055000Y-74035000D01*
X171053796Y-74059504D01*
X171050196Y-74083773D01*
X171044235Y-74107571D01*
X171035970Y-74130671D01*
X171025480Y-74152849D01*
X171012867Y-74173893D01*
X170998253Y-74193598D01*
X170981777Y-74211777D01*
X170963598Y-74228253D01*
X170943893Y-74242867D01*
X170922849Y-74255480D01*
X170900671Y-74265970D01*
X170877571Y-74274235D01*
X170853773Y-74280196D01*
X170829504Y-74283796D01*
X170805000Y-74285000D01*
X169555000Y-74285000D01*
X169530496Y-74283796D01*
X169506227Y-74280196D01*
X169482429Y-74274235D01*
X169459329Y-74265970D01*
X169437151Y-74255480D01*
X169416107Y-74242867D01*
X169396402Y-74228253D01*
X169378223Y-74211777D01*
X169361747Y-74193598D01*
X169347133Y-74173893D01*
X169334520Y-74152849D01*
X169324030Y-74130671D01*
X169315765Y-74107571D01*
X169309804Y-74083773D01*
X169306204Y-74059504D01*
X169305000Y-74035000D01*
X169305000Y-73285000D01*
X169306204Y-73260496D01*
X169309804Y-73236227D01*
X169315765Y-73212429D01*
X169324030Y-73189329D01*
X169334520Y-73167151D01*
X169347133Y-73146107D01*
X169361747Y-73126402D01*
X169378223Y-73108223D01*
X169396402Y-73091747D01*
X169416107Y-73077133D01*
X169437151Y-73064520D01*
X169459329Y-73054030D01*
X169482429Y-73045765D01*
X169506227Y-73039804D01*
X169530496Y-73036204D01*
X169555000Y-73035000D01*
X170805000Y-73035000D01*
X170829504Y-73036204D01*
G37*
G36*
X170829504Y-70236204D02*
G01*
X170853773Y-70239804D01*
X170877571Y-70245765D01*
X170900671Y-70254030D01*
X170922849Y-70264520D01*
X170943893Y-70277133D01*
X170963598Y-70291747D01*
X170981777Y-70308223D01*
X170998253Y-70326402D01*
X171012867Y-70346107D01*
X171025480Y-70367151D01*
X171035970Y-70389329D01*
X171044235Y-70412429D01*
X171050196Y-70436227D01*
X171053796Y-70460496D01*
X171055000Y-70485000D01*
X171055000Y-71235000D01*
X171053796Y-71259504D01*
X171050196Y-71283773D01*
X171044235Y-71307571D01*
X171035970Y-71330671D01*
X171025480Y-71352849D01*
X171012867Y-71373893D01*
X170998253Y-71393598D01*
X170981777Y-71411777D01*
X170963598Y-71428253D01*
X170943893Y-71442867D01*
X170922849Y-71455480D01*
X170900671Y-71465970D01*
X170877571Y-71474235D01*
X170853773Y-71480196D01*
X170829504Y-71483796D01*
X170805000Y-71485000D01*
X169555000Y-71485000D01*
X169530496Y-71483796D01*
X169506227Y-71480196D01*
X169482429Y-71474235D01*
X169459329Y-71465970D01*
X169437151Y-71455480D01*
X169416107Y-71442867D01*
X169396402Y-71428253D01*
X169378223Y-71411777D01*
X169361747Y-71393598D01*
X169347133Y-71373893D01*
X169334520Y-71352849D01*
X169324030Y-71330671D01*
X169315765Y-71307571D01*
X169309804Y-71283773D01*
X169306204Y-71259504D01*
X169305000Y-71235000D01*
X169305000Y-70485000D01*
X169306204Y-70460496D01*
X169309804Y-70436227D01*
X169315765Y-70412429D01*
X169324030Y-70389329D01*
X169334520Y-70367151D01*
X169347133Y-70346107D01*
X169361747Y-70326402D01*
X169378223Y-70308223D01*
X169396402Y-70291747D01*
X169416107Y-70277133D01*
X169437151Y-70264520D01*
X169459329Y-70254030D01*
X169482429Y-70245765D01*
X169506227Y-70239804D01*
X169530496Y-70236204D01*
X169555000Y-70235000D01*
X170805000Y-70235000D01*
X170829504Y-70236204D01*
G37*
G36*
X179719504Y-73036204D02*
G01*
X179743773Y-73039804D01*
X179767571Y-73045765D01*
X179790671Y-73054030D01*
X179812849Y-73064520D01*
X179833893Y-73077133D01*
X179853598Y-73091747D01*
X179871777Y-73108223D01*
X179888253Y-73126402D01*
X179902867Y-73146107D01*
X179915480Y-73167151D01*
X179925970Y-73189329D01*
X179934235Y-73212429D01*
X179940196Y-73236227D01*
X179943796Y-73260496D01*
X179945000Y-73285000D01*
X179945000Y-74035000D01*
X179943796Y-74059504D01*
X179940196Y-74083773D01*
X179934235Y-74107571D01*
X179925970Y-74130671D01*
X179915480Y-74152849D01*
X179902867Y-74173893D01*
X179888253Y-74193598D01*
X179871777Y-74211777D01*
X179853598Y-74228253D01*
X179833893Y-74242867D01*
X179812849Y-74255480D01*
X179790671Y-74265970D01*
X179767571Y-74274235D01*
X179743773Y-74280196D01*
X179719504Y-74283796D01*
X179695000Y-74285000D01*
X178445000Y-74285000D01*
X178420496Y-74283796D01*
X178396227Y-74280196D01*
X178372429Y-74274235D01*
X178349329Y-74265970D01*
X178327151Y-74255480D01*
X178306107Y-74242867D01*
X178286402Y-74228253D01*
X178268223Y-74211777D01*
X178251747Y-74193598D01*
X178237133Y-74173893D01*
X178224520Y-74152849D01*
X178214030Y-74130671D01*
X178205765Y-74107571D01*
X178199804Y-74083773D01*
X178196204Y-74059504D01*
X178195000Y-74035000D01*
X178195000Y-73285000D01*
X178196204Y-73260496D01*
X178199804Y-73236227D01*
X178205765Y-73212429D01*
X178214030Y-73189329D01*
X178224520Y-73167151D01*
X178237133Y-73146107D01*
X178251747Y-73126402D01*
X178268223Y-73108223D01*
X178286402Y-73091747D01*
X178306107Y-73077133D01*
X178327151Y-73064520D01*
X178349329Y-73054030D01*
X178372429Y-73045765D01*
X178396227Y-73039804D01*
X178420496Y-73036204D01*
X178445000Y-73035000D01*
X179695000Y-73035000D01*
X179719504Y-73036204D01*
G37*
G36*
X179719504Y-70236204D02*
G01*
X179743773Y-70239804D01*
X179767571Y-70245765D01*
X179790671Y-70254030D01*
X179812849Y-70264520D01*
X179833893Y-70277133D01*
X179853598Y-70291747D01*
X179871777Y-70308223D01*
X179888253Y-70326402D01*
X179902867Y-70346107D01*
X179915480Y-70367151D01*
X179925970Y-70389329D01*
X179934235Y-70412429D01*
X179940196Y-70436227D01*
X179943796Y-70460496D01*
X179945000Y-70485000D01*
X179945000Y-71235000D01*
X179943796Y-71259504D01*
X179940196Y-71283773D01*
X179934235Y-71307571D01*
X179925970Y-71330671D01*
X179915480Y-71352849D01*
X179902867Y-71373893D01*
X179888253Y-71393598D01*
X179871777Y-71411777D01*
X179853598Y-71428253D01*
X179833893Y-71442867D01*
X179812849Y-71455480D01*
X179790671Y-71465970D01*
X179767571Y-71474235D01*
X179743773Y-71480196D01*
X179719504Y-71483796D01*
X179695000Y-71485000D01*
X178445000Y-71485000D01*
X178420496Y-71483796D01*
X178396227Y-71480196D01*
X178372429Y-71474235D01*
X178349329Y-71465970D01*
X178327151Y-71455480D01*
X178306107Y-71442867D01*
X178286402Y-71428253D01*
X178268223Y-71411777D01*
X178251747Y-71393598D01*
X178237133Y-71373893D01*
X178224520Y-71352849D01*
X178214030Y-71330671D01*
X178205765Y-71307571D01*
X178199804Y-71283773D01*
X178196204Y-71259504D01*
X178195000Y-71235000D01*
X178195000Y-70485000D01*
X178196204Y-70460496D01*
X178199804Y-70436227D01*
X178205765Y-70412429D01*
X178214030Y-70389329D01*
X178224520Y-70367151D01*
X178237133Y-70346107D01*
X178251747Y-70326402D01*
X178268223Y-70308223D01*
X178286402Y-70291747D01*
X178306107Y-70277133D01*
X178327151Y-70264520D01*
X178349329Y-70254030D01*
X178372429Y-70245765D01*
X178396227Y-70239804D01*
X178420496Y-70236204D01*
X178445000Y-70235000D01*
X179695000Y-70235000D01*
X179719504Y-70236204D01*
G37*
G36*
X188609504Y-73036204D02*
G01*
X188633773Y-73039804D01*
X188657571Y-73045765D01*
X188680671Y-73054030D01*
X188702849Y-73064520D01*
X188723893Y-73077133D01*
X188743598Y-73091747D01*
X188761777Y-73108223D01*
X188778253Y-73126402D01*
X188792867Y-73146107D01*
X188805480Y-73167151D01*
X188815970Y-73189329D01*
X188824235Y-73212429D01*
X188830196Y-73236227D01*
X188833796Y-73260496D01*
X188835000Y-73285000D01*
X188835000Y-74035000D01*
X188833796Y-74059504D01*
X188830196Y-74083773D01*
X188824235Y-74107571D01*
X188815970Y-74130671D01*
X188805480Y-74152849D01*
X188792867Y-74173893D01*
X188778253Y-74193598D01*
X188761777Y-74211777D01*
X188743598Y-74228253D01*
X188723893Y-74242867D01*
X188702849Y-74255480D01*
X188680671Y-74265970D01*
X188657571Y-74274235D01*
X188633773Y-74280196D01*
X188609504Y-74283796D01*
X188585000Y-74285000D01*
X187335000Y-74285000D01*
X187310496Y-74283796D01*
X187286227Y-74280196D01*
X187262429Y-74274235D01*
X187239329Y-74265970D01*
X187217151Y-74255480D01*
X187196107Y-74242867D01*
X187176402Y-74228253D01*
X187158223Y-74211777D01*
X187141747Y-74193598D01*
X187127133Y-74173893D01*
X187114520Y-74152849D01*
X187104030Y-74130671D01*
X187095765Y-74107571D01*
X187089804Y-74083773D01*
X187086204Y-74059504D01*
X187085000Y-74035000D01*
X187085000Y-73285000D01*
X187086204Y-73260496D01*
X187089804Y-73236227D01*
X187095765Y-73212429D01*
X187104030Y-73189329D01*
X187114520Y-73167151D01*
X187127133Y-73146107D01*
X187141747Y-73126402D01*
X187158223Y-73108223D01*
X187176402Y-73091747D01*
X187196107Y-73077133D01*
X187217151Y-73064520D01*
X187239329Y-73054030D01*
X187262429Y-73045765D01*
X187286227Y-73039804D01*
X187310496Y-73036204D01*
X187335000Y-73035000D01*
X188585000Y-73035000D01*
X188609504Y-73036204D01*
G37*
G36*
X188609504Y-70236204D02*
G01*
X188633773Y-70239804D01*
X188657571Y-70245765D01*
X188680671Y-70254030D01*
X188702849Y-70264520D01*
X188723893Y-70277133D01*
X188743598Y-70291747D01*
X188761777Y-70308223D01*
X188778253Y-70326402D01*
X188792867Y-70346107D01*
X188805480Y-70367151D01*
X188815970Y-70389329D01*
X188824235Y-70412429D01*
X188830196Y-70436227D01*
X188833796Y-70460496D01*
X188835000Y-70485000D01*
X188835000Y-71235000D01*
X188833796Y-71259504D01*
X188830196Y-71283773D01*
X188824235Y-71307571D01*
X188815970Y-71330671D01*
X188805480Y-71352849D01*
X188792867Y-71373893D01*
X188778253Y-71393598D01*
X188761777Y-71411777D01*
X188743598Y-71428253D01*
X188723893Y-71442867D01*
X188702849Y-71455480D01*
X188680671Y-71465970D01*
X188657571Y-71474235D01*
X188633773Y-71480196D01*
X188609504Y-71483796D01*
X188585000Y-71485000D01*
X187335000Y-71485000D01*
X187310496Y-71483796D01*
X187286227Y-71480196D01*
X187262429Y-71474235D01*
X187239329Y-71465970D01*
X187217151Y-71455480D01*
X187196107Y-71442867D01*
X187176402Y-71428253D01*
X187158223Y-71411777D01*
X187141747Y-71393598D01*
X187127133Y-71373893D01*
X187114520Y-71352849D01*
X187104030Y-71330671D01*
X187095765Y-71307571D01*
X187089804Y-71283773D01*
X187086204Y-71259504D01*
X187085000Y-71235000D01*
X187085000Y-70485000D01*
X187086204Y-70460496D01*
X187089804Y-70436227D01*
X187095765Y-70412429D01*
X187104030Y-70389329D01*
X187114520Y-70367151D01*
X187127133Y-70346107D01*
X187141747Y-70326402D01*
X187158223Y-70308223D01*
X187176402Y-70291747D01*
X187196107Y-70277133D01*
X187217151Y-70264520D01*
X187239329Y-70254030D01*
X187262429Y-70245765D01*
X187286227Y-70239804D01*
X187310496Y-70236204D01*
X187335000Y-70235000D01*
X188585000Y-70235000D01*
X188609504Y-70236204D01*
G37*
G36*
X197499504Y-73036204D02*
G01*
X197523773Y-73039804D01*
X197547571Y-73045765D01*
X197570671Y-73054030D01*
X197592849Y-73064520D01*
X197613893Y-73077133D01*
X197633598Y-73091747D01*
X197651777Y-73108223D01*
X197668253Y-73126402D01*
X197682867Y-73146107D01*
X197695480Y-73167151D01*
X197705970Y-73189329D01*
X197714235Y-73212429D01*
X197720196Y-73236227D01*
X197723796Y-73260496D01*
X197725000Y-73285000D01*
X197725000Y-74035000D01*
X197723796Y-74059504D01*
X197720196Y-74083773D01*
X197714235Y-74107571D01*
X197705970Y-74130671D01*
X197695480Y-74152849D01*
X197682867Y-74173893D01*
X197668253Y-74193598D01*
X197651777Y-74211777D01*
X197633598Y-74228253D01*
X197613893Y-74242867D01*
X197592849Y-74255480D01*
X197570671Y-74265970D01*
X197547571Y-74274235D01*
X197523773Y-74280196D01*
X197499504Y-74283796D01*
X197475000Y-74285000D01*
X196225000Y-74285000D01*
X196200496Y-74283796D01*
X196176227Y-74280196D01*
X196152429Y-74274235D01*
X196129329Y-74265970D01*
X196107151Y-74255480D01*
X196086107Y-74242867D01*
X196066402Y-74228253D01*
X196048223Y-74211777D01*
X196031747Y-74193598D01*
X196017133Y-74173893D01*
X196004520Y-74152849D01*
X195994030Y-74130671D01*
X195985765Y-74107571D01*
X195979804Y-74083773D01*
X195976204Y-74059504D01*
X195975000Y-74035000D01*
X195975000Y-73285000D01*
X195976204Y-73260496D01*
X195979804Y-73236227D01*
X195985765Y-73212429D01*
X195994030Y-73189329D01*
X196004520Y-73167151D01*
X196017133Y-73146107D01*
X196031747Y-73126402D01*
X196048223Y-73108223D01*
X196066402Y-73091747D01*
X196086107Y-73077133D01*
X196107151Y-73064520D01*
X196129329Y-73054030D01*
X196152429Y-73045765D01*
X196176227Y-73039804D01*
X196200496Y-73036204D01*
X196225000Y-73035000D01*
X197475000Y-73035000D01*
X197499504Y-73036204D01*
G37*
G36*
X197499504Y-70236204D02*
G01*
X197523773Y-70239804D01*
X197547571Y-70245765D01*
X197570671Y-70254030D01*
X197592849Y-70264520D01*
X197613893Y-70277133D01*
X197633598Y-70291747D01*
X197651777Y-70308223D01*
X197668253Y-70326402D01*
X197682867Y-70346107D01*
X197695480Y-70367151D01*
X197705970Y-70389329D01*
X197714235Y-70412429D01*
X197720196Y-70436227D01*
X197723796Y-70460496D01*
X197725000Y-70485000D01*
X197725000Y-71235000D01*
X197723796Y-71259504D01*
X197720196Y-71283773D01*
X197714235Y-71307571D01*
X197705970Y-71330671D01*
X197695480Y-71352849D01*
X197682867Y-71373893D01*
X197668253Y-71393598D01*
X197651777Y-71411777D01*
X197633598Y-71428253D01*
X197613893Y-71442867D01*
X197592849Y-71455480D01*
X197570671Y-71465970D01*
X197547571Y-71474235D01*
X197523773Y-71480196D01*
X197499504Y-71483796D01*
X197475000Y-71485000D01*
X196225000Y-71485000D01*
X196200496Y-71483796D01*
X196176227Y-71480196D01*
X196152429Y-71474235D01*
X196129329Y-71465970D01*
X196107151Y-71455480D01*
X196086107Y-71442867D01*
X196066402Y-71428253D01*
X196048223Y-71411777D01*
X196031747Y-71393598D01*
X196017133Y-71373893D01*
X196004520Y-71352849D01*
X195994030Y-71330671D01*
X195985765Y-71307571D01*
X195979804Y-71283773D01*
X195976204Y-71259504D01*
X195975000Y-71235000D01*
X195975000Y-70485000D01*
X195976204Y-70460496D01*
X195979804Y-70436227D01*
X195985765Y-70412429D01*
X195994030Y-70389329D01*
X196004520Y-70367151D01*
X196017133Y-70346107D01*
X196031747Y-70326402D01*
X196048223Y-70308223D01*
X196066402Y-70291747D01*
X196086107Y-70277133D01*
X196107151Y-70264520D01*
X196129329Y-70254030D01*
X196152429Y-70245765D01*
X196176227Y-70239804D01*
X196200496Y-70236204D01*
X196225000Y-70235000D01*
X197475000Y-70235000D01*
X197499504Y-70236204D01*
G37*
G36*
X206389504Y-73036204D02*
G01*
X206413773Y-73039804D01*
X206437571Y-73045765D01*
X206460671Y-73054030D01*
X206482849Y-73064520D01*
X206503893Y-73077133D01*
X206523598Y-73091747D01*
X206541777Y-73108223D01*
X206558253Y-73126402D01*
X206572867Y-73146107D01*
X206585480Y-73167151D01*
X206595970Y-73189329D01*
X206604235Y-73212429D01*
X206610196Y-73236227D01*
X206613796Y-73260496D01*
X206615000Y-73285000D01*
X206615000Y-74035000D01*
X206613796Y-74059504D01*
X206610196Y-74083773D01*
X206604235Y-74107571D01*
X206595970Y-74130671D01*
X206585480Y-74152849D01*
X206572867Y-74173893D01*
X206558253Y-74193598D01*
X206541777Y-74211777D01*
X206523598Y-74228253D01*
X206503893Y-74242867D01*
X206482849Y-74255480D01*
X206460671Y-74265970D01*
X206437571Y-74274235D01*
X206413773Y-74280196D01*
X206389504Y-74283796D01*
X206365000Y-74285000D01*
X205115000Y-74285000D01*
X205090496Y-74283796D01*
X205066227Y-74280196D01*
X205042429Y-74274235D01*
X205019329Y-74265970D01*
X204997151Y-74255480D01*
X204976107Y-74242867D01*
X204956402Y-74228253D01*
X204938223Y-74211777D01*
X204921747Y-74193598D01*
X204907133Y-74173893D01*
X204894520Y-74152849D01*
X204884030Y-74130671D01*
X204875765Y-74107571D01*
X204869804Y-74083773D01*
X204866204Y-74059504D01*
X204865000Y-74035000D01*
X204865000Y-73285000D01*
X204866204Y-73260496D01*
X204869804Y-73236227D01*
X204875765Y-73212429D01*
X204884030Y-73189329D01*
X204894520Y-73167151D01*
X204907133Y-73146107D01*
X204921747Y-73126402D01*
X204938223Y-73108223D01*
X204956402Y-73091747D01*
X204976107Y-73077133D01*
X204997151Y-73064520D01*
X205019329Y-73054030D01*
X205042429Y-73045765D01*
X205066227Y-73039804D01*
X205090496Y-73036204D01*
X205115000Y-73035000D01*
X206365000Y-73035000D01*
X206389504Y-73036204D01*
G37*
G36*
X206389504Y-70236204D02*
G01*
X206413773Y-70239804D01*
X206437571Y-70245765D01*
X206460671Y-70254030D01*
X206482849Y-70264520D01*
X206503893Y-70277133D01*
X206523598Y-70291747D01*
X206541777Y-70308223D01*
X206558253Y-70326402D01*
X206572867Y-70346107D01*
X206585480Y-70367151D01*
X206595970Y-70389329D01*
X206604235Y-70412429D01*
X206610196Y-70436227D01*
X206613796Y-70460496D01*
X206615000Y-70485000D01*
X206615000Y-71235000D01*
X206613796Y-71259504D01*
X206610196Y-71283773D01*
X206604235Y-71307571D01*
X206595970Y-71330671D01*
X206585480Y-71352849D01*
X206572867Y-71373893D01*
X206558253Y-71393598D01*
X206541777Y-71411777D01*
X206523598Y-71428253D01*
X206503893Y-71442867D01*
X206482849Y-71455480D01*
X206460671Y-71465970D01*
X206437571Y-71474235D01*
X206413773Y-71480196D01*
X206389504Y-71483796D01*
X206365000Y-71485000D01*
X205115000Y-71485000D01*
X205090496Y-71483796D01*
X205066227Y-71480196D01*
X205042429Y-71474235D01*
X205019329Y-71465970D01*
X204997151Y-71455480D01*
X204976107Y-71442867D01*
X204956402Y-71428253D01*
X204938223Y-71411777D01*
X204921747Y-71393598D01*
X204907133Y-71373893D01*
X204894520Y-71352849D01*
X204884030Y-71330671D01*
X204875765Y-71307571D01*
X204869804Y-71283773D01*
X204866204Y-71259504D01*
X204865000Y-71235000D01*
X204865000Y-70485000D01*
X204866204Y-70460496D01*
X204869804Y-70436227D01*
X204875765Y-70412429D01*
X204884030Y-70389329D01*
X204894520Y-70367151D01*
X204907133Y-70346107D01*
X204921747Y-70326402D01*
X204938223Y-70308223D01*
X204956402Y-70291747D01*
X204976107Y-70277133D01*
X204997151Y-70264520D01*
X205019329Y-70254030D01*
X205042429Y-70245765D01*
X205066227Y-70239804D01*
X205090496Y-70236204D01*
X205115000Y-70235000D01*
X206365000Y-70235000D01*
X206389504Y-70236204D01*
G37*
G36*
X215279504Y-73036204D02*
G01*
X215303773Y-73039804D01*
X215327571Y-73045765D01*
X215350671Y-73054030D01*
X215372849Y-73064520D01*
X215393893Y-73077133D01*
X215413598Y-73091747D01*
X215431777Y-73108223D01*
X215448253Y-73126402D01*
X215462867Y-73146107D01*
X215475480Y-73167151D01*
X215485970Y-73189329D01*
X215494235Y-73212429D01*
X215500196Y-73236227D01*
X215503796Y-73260496D01*
X215505000Y-73285000D01*
X215505000Y-74035000D01*
X215503796Y-74059504D01*
X215500196Y-74083773D01*
X215494235Y-74107571D01*
X215485970Y-74130671D01*
X215475480Y-74152849D01*
X215462867Y-74173893D01*
X215448253Y-74193598D01*
X215431777Y-74211777D01*
X215413598Y-74228253D01*
X215393893Y-74242867D01*
X215372849Y-74255480D01*
X215350671Y-74265970D01*
X215327571Y-74274235D01*
X215303773Y-74280196D01*
X215279504Y-74283796D01*
X215255000Y-74285000D01*
X214005000Y-74285000D01*
X213980496Y-74283796D01*
X213956227Y-74280196D01*
X213932429Y-74274235D01*
X213909329Y-74265970D01*
X213887151Y-74255480D01*
X213866107Y-74242867D01*
X213846402Y-74228253D01*
X213828223Y-74211777D01*
X213811747Y-74193598D01*
X213797133Y-74173893D01*
X213784520Y-74152849D01*
X213774030Y-74130671D01*
X213765765Y-74107571D01*
X213759804Y-74083773D01*
X213756204Y-74059504D01*
X213755000Y-74035000D01*
X213755000Y-73285000D01*
X213756204Y-73260496D01*
X213759804Y-73236227D01*
X213765765Y-73212429D01*
X213774030Y-73189329D01*
X213784520Y-73167151D01*
X213797133Y-73146107D01*
X213811747Y-73126402D01*
X213828223Y-73108223D01*
X213846402Y-73091747D01*
X213866107Y-73077133D01*
X213887151Y-73064520D01*
X213909329Y-73054030D01*
X213932429Y-73045765D01*
X213956227Y-73039804D01*
X213980496Y-73036204D01*
X214005000Y-73035000D01*
X215255000Y-73035000D01*
X215279504Y-73036204D01*
G37*
G36*
X215279504Y-70236204D02*
G01*
X215303773Y-70239804D01*
X215327571Y-70245765D01*
X215350671Y-70254030D01*
X215372849Y-70264520D01*
X215393893Y-70277133D01*
X215413598Y-70291747D01*
X215431777Y-70308223D01*
X215448253Y-70326402D01*
X215462867Y-70346107D01*
X215475480Y-70367151D01*
X215485970Y-70389329D01*
X215494235Y-70412429D01*
X215500196Y-70436227D01*
X215503796Y-70460496D01*
X215505000Y-70485000D01*
X215505000Y-71235000D01*
X215503796Y-71259504D01*
X215500196Y-71283773D01*
X215494235Y-71307571D01*
X215485970Y-71330671D01*
X215475480Y-71352849D01*
X215462867Y-71373893D01*
X215448253Y-71393598D01*
X215431777Y-71411777D01*
X215413598Y-71428253D01*
X215393893Y-71442867D01*
X215372849Y-71455480D01*
X215350671Y-71465970D01*
X215327571Y-71474235D01*
X215303773Y-71480196D01*
X215279504Y-71483796D01*
X215255000Y-71485000D01*
X214005000Y-71485000D01*
X213980496Y-71483796D01*
X213956227Y-71480196D01*
X213932429Y-71474235D01*
X213909329Y-71465970D01*
X213887151Y-71455480D01*
X213866107Y-71442867D01*
X213846402Y-71428253D01*
X213828223Y-71411777D01*
X213811747Y-71393598D01*
X213797133Y-71373893D01*
X213784520Y-71352849D01*
X213774030Y-71330671D01*
X213765765Y-71307571D01*
X213759804Y-71283773D01*
X213756204Y-71259504D01*
X213755000Y-71235000D01*
X213755000Y-70485000D01*
X213756204Y-70460496D01*
X213759804Y-70436227D01*
X213765765Y-70412429D01*
X213774030Y-70389329D01*
X213784520Y-70367151D01*
X213797133Y-70346107D01*
X213811747Y-70326402D01*
X213828223Y-70308223D01*
X213846402Y-70291747D01*
X213866107Y-70277133D01*
X213887151Y-70264520D01*
X213909329Y-70254030D01*
X213932429Y-70245765D01*
X213956227Y-70239804D01*
X213980496Y-70236204D01*
X214005000Y-70235000D01*
X215255000Y-70235000D01*
X215279504Y-70236204D01*
G37*
G36*
X224169504Y-73036204D02*
G01*
X224193773Y-73039804D01*
X224217571Y-73045765D01*
X224240671Y-73054030D01*
X224262849Y-73064520D01*
X224283893Y-73077133D01*
X224303598Y-73091747D01*
X224321777Y-73108223D01*
X224338253Y-73126402D01*
X224352867Y-73146107D01*
X224365480Y-73167151D01*
X224375970Y-73189329D01*
X224384235Y-73212429D01*
X224390196Y-73236227D01*
X224393796Y-73260496D01*
X224395000Y-73285000D01*
X224395000Y-74035000D01*
X224393796Y-74059504D01*
X224390196Y-74083773D01*
X224384235Y-74107571D01*
X224375970Y-74130671D01*
X224365480Y-74152849D01*
X224352867Y-74173893D01*
X224338253Y-74193598D01*
X224321777Y-74211777D01*
X224303598Y-74228253D01*
X224283893Y-74242867D01*
X224262849Y-74255480D01*
X224240671Y-74265970D01*
X224217571Y-74274235D01*
X224193773Y-74280196D01*
X224169504Y-74283796D01*
X224145000Y-74285000D01*
X222895000Y-74285000D01*
X222870496Y-74283796D01*
X222846227Y-74280196D01*
X222822429Y-74274235D01*
X222799329Y-74265970D01*
X222777151Y-74255480D01*
X222756107Y-74242867D01*
X222736402Y-74228253D01*
X222718223Y-74211777D01*
X222701747Y-74193598D01*
X222687133Y-74173893D01*
X222674520Y-74152849D01*
X222664030Y-74130671D01*
X222655765Y-74107571D01*
X222649804Y-74083773D01*
X222646204Y-74059504D01*
X222645000Y-74035000D01*
X222645000Y-73285000D01*
X222646204Y-73260496D01*
X222649804Y-73236227D01*
X222655765Y-73212429D01*
X222664030Y-73189329D01*
X222674520Y-73167151D01*
X222687133Y-73146107D01*
X222701747Y-73126402D01*
X222718223Y-73108223D01*
X222736402Y-73091747D01*
X222756107Y-73077133D01*
X222777151Y-73064520D01*
X222799329Y-73054030D01*
X222822429Y-73045765D01*
X222846227Y-73039804D01*
X222870496Y-73036204D01*
X222895000Y-73035000D01*
X224145000Y-73035000D01*
X224169504Y-73036204D01*
G37*
G36*
X224169504Y-70236204D02*
G01*
X224193773Y-70239804D01*
X224217571Y-70245765D01*
X224240671Y-70254030D01*
X224262849Y-70264520D01*
X224283893Y-70277133D01*
X224303598Y-70291747D01*
X224321777Y-70308223D01*
X224338253Y-70326402D01*
X224352867Y-70346107D01*
X224365480Y-70367151D01*
X224375970Y-70389329D01*
X224384235Y-70412429D01*
X224390196Y-70436227D01*
X224393796Y-70460496D01*
X224395000Y-70485000D01*
X224395000Y-71235000D01*
X224393796Y-71259504D01*
X224390196Y-71283773D01*
X224384235Y-71307571D01*
X224375970Y-71330671D01*
X224365480Y-71352849D01*
X224352867Y-71373893D01*
X224338253Y-71393598D01*
X224321777Y-71411777D01*
X224303598Y-71428253D01*
X224283893Y-71442867D01*
X224262849Y-71455480D01*
X224240671Y-71465970D01*
X224217571Y-71474235D01*
X224193773Y-71480196D01*
X224169504Y-71483796D01*
X224145000Y-71485000D01*
X222895000Y-71485000D01*
X222870496Y-71483796D01*
X222846227Y-71480196D01*
X222822429Y-71474235D01*
X222799329Y-71465970D01*
X222777151Y-71455480D01*
X222756107Y-71442867D01*
X222736402Y-71428253D01*
X222718223Y-71411777D01*
X222701747Y-71393598D01*
X222687133Y-71373893D01*
X222674520Y-71352849D01*
X222664030Y-71330671D01*
X222655765Y-71307571D01*
X222649804Y-71283773D01*
X222646204Y-71259504D01*
X222645000Y-71235000D01*
X222645000Y-70485000D01*
X222646204Y-70460496D01*
X222649804Y-70436227D01*
X222655765Y-70412429D01*
X222664030Y-70389329D01*
X222674520Y-70367151D01*
X222687133Y-70346107D01*
X222701747Y-70326402D01*
X222718223Y-70308223D01*
X222736402Y-70291747D01*
X222756107Y-70277133D01*
X222777151Y-70264520D01*
X222799329Y-70254030D01*
X222822429Y-70245765D01*
X222846227Y-70239804D01*
X222870496Y-70236204D01*
X222895000Y-70235000D01*
X224145000Y-70235000D01*
X224169504Y-70236204D01*
G37*
G36*
X233059504Y-73166204D02*
G01*
X233083773Y-73169804D01*
X233107571Y-73175765D01*
X233130671Y-73184030D01*
X233152849Y-73194520D01*
X233173893Y-73207133D01*
X233193598Y-73221747D01*
X233211777Y-73238223D01*
X233228253Y-73256402D01*
X233242867Y-73276107D01*
X233255480Y-73297151D01*
X233265970Y-73319329D01*
X233274235Y-73342429D01*
X233280196Y-73366227D01*
X233283796Y-73390496D01*
X233285000Y-73415000D01*
X233285000Y-74165000D01*
X233283796Y-74189504D01*
X233280196Y-74213773D01*
X233274235Y-74237571D01*
X233265970Y-74260671D01*
X233255480Y-74282849D01*
X233242867Y-74303893D01*
X233228253Y-74323598D01*
X233211777Y-74341777D01*
X233193598Y-74358253D01*
X233173893Y-74372867D01*
X233152849Y-74385480D01*
X233130671Y-74395970D01*
X233107571Y-74404235D01*
X233083773Y-74410196D01*
X233059504Y-74413796D01*
X233035000Y-74415000D01*
X231785000Y-74415000D01*
X231760496Y-74413796D01*
X231736227Y-74410196D01*
X231712429Y-74404235D01*
X231689329Y-74395970D01*
X231667151Y-74385480D01*
X231646107Y-74372867D01*
X231626402Y-74358253D01*
X231608223Y-74341777D01*
X231591747Y-74323598D01*
X231577133Y-74303893D01*
X231564520Y-74282849D01*
X231554030Y-74260671D01*
X231545765Y-74237571D01*
X231539804Y-74213773D01*
X231536204Y-74189504D01*
X231535000Y-74165000D01*
X231535000Y-73415000D01*
X231536204Y-73390496D01*
X231539804Y-73366227D01*
X231545765Y-73342429D01*
X231554030Y-73319329D01*
X231564520Y-73297151D01*
X231577133Y-73276107D01*
X231591747Y-73256402D01*
X231608223Y-73238223D01*
X231626402Y-73221747D01*
X231646107Y-73207133D01*
X231667151Y-73194520D01*
X231689329Y-73184030D01*
X231712429Y-73175765D01*
X231736227Y-73169804D01*
X231760496Y-73166204D01*
X231785000Y-73165000D01*
X233035000Y-73165000D01*
X233059504Y-73166204D01*
G37*
G36*
X233059504Y-70366204D02*
G01*
X233083773Y-70369804D01*
X233107571Y-70375765D01*
X233130671Y-70384030D01*
X233152849Y-70394520D01*
X233173893Y-70407133D01*
X233193598Y-70421747D01*
X233211777Y-70438223D01*
X233228253Y-70456402D01*
X233242867Y-70476107D01*
X233255480Y-70497151D01*
X233265970Y-70519329D01*
X233274235Y-70542429D01*
X233280196Y-70566227D01*
X233283796Y-70590496D01*
X233285000Y-70615000D01*
X233285000Y-71365000D01*
X233283796Y-71389504D01*
X233280196Y-71413773D01*
X233274235Y-71437571D01*
X233265970Y-71460671D01*
X233255480Y-71482849D01*
X233242867Y-71503893D01*
X233228253Y-71523598D01*
X233211777Y-71541777D01*
X233193598Y-71558253D01*
X233173893Y-71572867D01*
X233152849Y-71585480D01*
X233130671Y-71595970D01*
X233107571Y-71604235D01*
X233083773Y-71610196D01*
X233059504Y-71613796D01*
X233035000Y-71615000D01*
X231785000Y-71615000D01*
X231760496Y-71613796D01*
X231736227Y-71610196D01*
X231712429Y-71604235D01*
X231689329Y-71595970D01*
X231667151Y-71585480D01*
X231646107Y-71572867D01*
X231626402Y-71558253D01*
X231608223Y-71541777D01*
X231591747Y-71523598D01*
X231577133Y-71503893D01*
X231564520Y-71482849D01*
X231554030Y-71460671D01*
X231545765Y-71437571D01*
X231539804Y-71413773D01*
X231536204Y-71389504D01*
X231535000Y-71365000D01*
X231535000Y-70615000D01*
X231536204Y-70590496D01*
X231539804Y-70566227D01*
X231545765Y-70542429D01*
X231554030Y-70519329D01*
X231564520Y-70497151D01*
X231577133Y-70476107D01*
X231591747Y-70456402D01*
X231608223Y-70438223D01*
X231626402Y-70421747D01*
X231646107Y-70407133D01*
X231667151Y-70394520D01*
X231689329Y-70384030D01*
X231712429Y-70375765D01*
X231736227Y-70369804D01*
X231760496Y-70366204D01*
X231785000Y-70365000D01*
X233035000Y-70365000D01*
X233059504Y-70366204D01*
G37*
M02*
