G04 #@! TF.GenerationSoftware,KiCad,Pcbnew,5.1.5-52549c5~84~ubuntu18.04.1*
G04 #@! TF.CreationDate,2020-06-07T21:39:53-07:00*
G04 #@! TF.ProjectId,debugger,64656275-6767-4657-922e-6b696361645f,rev?*
G04 #@! TF.SameCoordinates,Original*
G04 #@! TF.FileFunction,Legend,Top*
G04 #@! TF.FilePolarity,Positive*
%FSLAX46Y46*%
G04 Gerber Fmt 4.6, Leading zero omitted, Abs format (unit mm)*
G04 Created by KiCad (PCBNEW 5.1.5-52549c5~84~ubuntu18.04.1) date 2020-06-07 21:39:53*
%MOMM*%
%LPD*%
G04 APERTURE LIST*
%ADD10C,0.150000*%
%ADD11C,0.200000*%
%ADD12C,0.010000*%
%ADD13C,0.100000*%
%ADD14C,0.120000*%
G04 APERTURE END LIST*
D10*
X145177142Y-121598571D02*
X145534285Y-122598571D01*
X145891428Y-121598571D01*
X147248571Y-122598571D02*
X146391428Y-122598571D01*
X146820000Y-122598571D02*
X146820000Y-121098571D01*
X146677142Y-121312857D01*
X146534285Y-121455714D01*
X146391428Y-121527142D01*
X147891428Y-122455714D02*
X147962857Y-122527142D01*
X147891428Y-122598571D01*
X147820000Y-122527142D01*
X147891428Y-122455714D01*
X147891428Y-122598571D01*
X148891428Y-121098571D02*
X149034285Y-121098571D01*
X149177142Y-121170000D01*
X149248571Y-121241428D01*
X149320000Y-121384285D01*
X149391428Y-121670000D01*
X149391428Y-122027142D01*
X149320000Y-122312857D01*
X149248571Y-122455714D01*
X149177142Y-122527142D01*
X149034285Y-122598571D01*
X148891428Y-122598571D01*
X148748571Y-122527142D01*
X148677142Y-122455714D01*
X148605714Y-122312857D01*
X148534285Y-122027142D01*
X148534285Y-121670000D01*
X148605714Y-121384285D01*
X148677142Y-121241428D01*
X148748571Y-121170000D01*
X148891428Y-121098571D01*
D11*
X124270714Y-122642142D02*
X124270714Y-119642142D01*
X124985000Y-119642142D01*
X125413571Y-119785000D01*
X125699285Y-120070714D01*
X125842142Y-120356428D01*
X125985000Y-120927857D01*
X125985000Y-121356428D01*
X125842142Y-121927857D01*
X125699285Y-122213571D01*
X125413571Y-122499285D01*
X124985000Y-122642142D01*
X124270714Y-122642142D01*
X128413571Y-122499285D02*
X128127857Y-122642142D01*
X127556428Y-122642142D01*
X127270714Y-122499285D01*
X127127857Y-122213571D01*
X127127857Y-121070714D01*
X127270714Y-120785000D01*
X127556428Y-120642142D01*
X128127857Y-120642142D01*
X128413571Y-120785000D01*
X128556428Y-121070714D01*
X128556428Y-121356428D01*
X127127857Y-121642142D01*
X129842142Y-122642142D02*
X129842142Y-119642142D01*
X129842142Y-120785000D02*
X130127857Y-120642142D01*
X130699285Y-120642142D01*
X130985000Y-120785000D01*
X131127857Y-120927857D01*
X131270714Y-121213571D01*
X131270714Y-122070714D01*
X131127857Y-122356428D01*
X130985000Y-122499285D01*
X130699285Y-122642142D01*
X130127857Y-122642142D01*
X129842142Y-122499285D01*
X133842142Y-120642142D02*
X133842142Y-122642142D01*
X132556428Y-120642142D02*
X132556428Y-122213571D01*
X132699285Y-122499285D01*
X132985000Y-122642142D01*
X133413571Y-122642142D01*
X133699285Y-122499285D01*
X133842142Y-122356428D01*
X136556428Y-120642142D02*
X136556428Y-123070714D01*
X136413571Y-123356428D01*
X136270714Y-123499285D01*
X135985000Y-123642142D01*
X135556428Y-123642142D01*
X135270714Y-123499285D01*
X136556428Y-122499285D02*
X136270714Y-122642142D01*
X135699285Y-122642142D01*
X135413571Y-122499285D01*
X135270714Y-122356428D01*
X135127857Y-122070714D01*
X135127857Y-121213571D01*
X135270714Y-120927857D01*
X135413571Y-120785000D01*
X135699285Y-120642142D01*
X136270714Y-120642142D01*
X136556428Y-120785000D01*
X139270714Y-120642142D02*
X139270714Y-123070714D01*
X139127857Y-123356428D01*
X138985000Y-123499285D01*
X138699285Y-123642142D01*
X138270714Y-123642142D01*
X137985000Y-123499285D01*
X139270714Y-122499285D02*
X138985000Y-122642142D01*
X138413571Y-122642142D01*
X138127857Y-122499285D01*
X137985000Y-122356428D01*
X137842142Y-122070714D01*
X137842142Y-121213571D01*
X137985000Y-120927857D01*
X138127857Y-120785000D01*
X138413571Y-120642142D01*
X138985000Y-120642142D01*
X139270714Y-120785000D01*
X141842142Y-122499285D02*
X141556428Y-122642142D01*
X140985000Y-122642142D01*
X140699285Y-122499285D01*
X140556428Y-122213571D01*
X140556428Y-121070714D01*
X140699285Y-120785000D01*
X140985000Y-120642142D01*
X141556428Y-120642142D01*
X141842142Y-120785000D01*
X141985000Y-121070714D01*
X141985000Y-121356428D01*
X140556428Y-121642142D01*
X143270714Y-122642142D02*
X143270714Y-120642142D01*
X143270714Y-121213571D02*
X143413571Y-120927857D01*
X143556428Y-120785000D01*
X143842142Y-120642142D01*
X144127857Y-120642142D01*
D12*
G36*
X170920065Y-118712919D02*
G01*
X171004383Y-118776224D01*
X171026004Y-118941401D01*
X171026667Y-119041333D01*
X171017696Y-119258169D01*
X170962304Y-119354533D01*
X170817774Y-119379243D01*
X170730334Y-119380000D01*
X170540602Y-119369747D01*
X170456284Y-119306442D01*
X170434663Y-119141266D01*
X170434000Y-119041333D01*
X170442971Y-118824497D01*
X170498363Y-118728134D01*
X170642893Y-118703424D01*
X170730334Y-118702667D01*
X170920065Y-118712919D01*
G37*
X170920065Y-118712919D02*
X171004383Y-118776224D01*
X171026004Y-118941401D01*
X171026667Y-119041333D01*
X171017696Y-119258169D01*
X170962304Y-119354533D01*
X170817774Y-119379243D01*
X170730334Y-119380000D01*
X170540602Y-119369747D01*
X170456284Y-119306442D01*
X170434663Y-119141266D01*
X170434000Y-119041333D01*
X170442971Y-118824497D01*
X170498363Y-118728134D01*
X170642893Y-118703424D01*
X170730334Y-118702667D01*
X170920065Y-118712919D01*
G36*
X175260000Y-123359333D02*
G01*
X174752000Y-123359333D01*
X174752000Y-118702667D01*
X175260000Y-118702667D01*
X175260000Y-123359333D01*
G37*
X175260000Y-123359333D02*
X174752000Y-123359333D01*
X174752000Y-118702667D01*
X175260000Y-118702667D01*
X175260000Y-123359333D01*
G36*
X173743559Y-119907145D02*
G01*
X173810458Y-119999644D01*
X173820667Y-120163167D01*
X173812872Y-120326283D01*
X173760276Y-120407443D01*
X173619060Y-120435260D01*
X173399258Y-120438333D01*
X173109299Y-120457678D01*
X172908952Y-120534092D01*
X172743091Y-120672861D01*
X172650558Y-120771351D01*
X172585024Y-120871719D01*
X172540497Y-121005088D01*
X172510986Y-121202580D01*
X172490499Y-121495316D01*
X172473045Y-121914418D01*
X172466000Y-122112195D01*
X172423667Y-123317000D01*
X172148500Y-123343531D01*
X171873334Y-123370062D01*
X171873334Y-119972667D01*
X172169667Y-119972667D01*
X172369456Y-119987802D01*
X172451342Y-120058951D01*
X172466000Y-120199092D01*
X172466000Y-120425517D01*
X172656500Y-120247065D01*
X173026867Y-120006839D01*
X173460861Y-119893187D01*
X173572179Y-119888000D01*
X173743559Y-119907145D01*
G37*
X173743559Y-119907145D02*
X173810458Y-119999644D01*
X173820667Y-120163167D01*
X173812872Y-120326283D01*
X173760276Y-120407443D01*
X173619060Y-120435260D01*
X173399258Y-120438333D01*
X173109299Y-120457678D01*
X172908952Y-120534092D01*
X172743091Y-120672861D01*
X172650558Y-120771351D01*
X172585024Y-120871719D01*
X172540497Y-121005088D01*
X172510986Y-121202580D01*
X172490499Y-121495316D01*
X172473045Y-121914418D01*
X172466000Y-122112195D01*
X172423667Y-123317000D01*
X172148500Y-123343531D01*
X171873334Y-123370062D01*
X171873334Y-119972667D01*
X172169667Y-119972667D01*
X172369456Y-119987802D01*
X172451342Y-120058951D01*
X172466000Y-120199092D01*
X172466000Y-120425517D01*
X172656500Y-120247065D01*
X173026867Y-120006839D01*
X173460861Y-119893187D01*
X173572179Y-119888000D01*
X173743559Y-119907145D01*
G36*
X171026667Y-123359333D02*
G01*
X170434000Y-123359333D01*
X170434000Y-119972667D01*
X171026667Y-119972667D01*
X171026667Y-123359333D01*
G37*
X171026667Y-123359333D02*
X170434000Y-123359333D01*
X170434000Y-119972667D01*
X171026667Y-119972667D01*
X171026667Y-123359333D01*
G36*
X165476997Y-119981191D02*
G01*
X165726462Y-120101741D01*
X165903874Y-120290813D01*
X166010167Y-120477440D01*
X166085231Y-120641224D01*
X166137663Y-120807492D01*
X166171442Y-121010394D01*
X166190547Y-121284080D01*
X166198956Y-121662700D01*
X166200667Y-122112638D01*
X166200667Y-123370062D01*
X165925500Y-123343531D01*
X165650334Y-123317000D01*
X165608000Y-122018099D01*
X165590518Y-121521183D01*
X165572554Y-121165333D01*
X165549427Y-120922333D01*
X165516460Y-120763967D01*
X165468972Y-120662019D01*
X165402284Y-120588274D01*
X165365787Y-120557599D01*
X165062951Y-120412280D01*
X164729064Y-120419454D01*
X164400266Y-120576183D01*
X164318169Y-120642762D01*
X164041667Y-120889524D01*
X163999334Y-122103262D01*
X163957000Y-123317000D01*
X163681834Y-123343531D01*
X163406667Y-123370062D01*
X163406667Y-119972667D01*
X163703000Y-119972667D01*
X163903061Y-119988118D01*
X163985019Y-120059234D01*
X163999334Y-120191859D01*
X163999334Y-120411052D01*
X164255826Y-120195228D01*
X164643836Y-119973345D01*
X165079510Y-119907018D01*
X165476997Y-119981191D01*
G37*
X165476997Y-119981191D02*
X165726462Y-120101741D01*
X165903874Y-120290813D01*
X166010167Y-120477440D01*
X166085231Y-120641224D01*
X166137663Y-120807492D01*
X166171442Y-121010394D01*
X166190547Y-121284080D01*
X166198956Y-121662700D01*
X166200667Y-122112638D01*
X166200667Y-123370062D01*
X165925500Y-123343531D01*
X165650334Y-123317000D01*
X165608000Y-122018099D01*
X165590518Y-121521183D01*
X165572554Y-121165333D01*
X165549427Y-120922333D01*
X165516460Y-120763967D01*
X165468972Y-120662019D01*
X165402284Y-120588274D01*
X165365787Y-120557599D01*
X165062951Y-120412280D01*
X164729064Y-120419454D01*
X164400266Y-120576183D01*
X164318169Y-120642762D01*
X164041667Y-120889524D01*
X163999334Y-122103262D01*
X163957000Y-123317000D01*
X163681834Y-123343531D01*
X163406667Y-123370062D01*
X163406667Y-119972667D01*
X163703000Y-119972667D01*
X163903061Y-119988118D01*
X163985019Y-120059234D01*
X163999334Y-120191859D01*
X163999334Y-120411052D01*
X164255826Y-120195228D01*
X164643836Y-119973345D01*
X165079510Y-119907018D01*
X165476997Y-119981191D01*
G36*
X169672000Y-123359333D02*
G01*
X169418000Y-123359333D01*
X169236715Y-123336796D01*
X169170302Y-123239874D01*
X169164000Y-123143358D01*
X169164000Y-122927382D01*
X168881139Y-123143131D01*
X168531605Y-123326312D01*
X168131606Y-123408847D01*
X167748405Y-123380990D01*
X167597667Y-123329060D01*
X167212914Y-123059688D01*
X166916472Y-122655703D01*
X166839708Y-122493064D01*
X166742337Y-122112761D01*
X166721404Y-121782587D01*
X167303178Y-121782587D01*
X167373954Y-122198921D01*
X167519705Y-122552825D01*
X167732223Y-122796287D01*
X167734562Y-122797935D01*
X168053609Y-122926332D01*
X168393499Y-122901623D01*
X168711878Y-122727799D01*
X168740026Y-122703167D01*
X168962339Y-122392939D01*
X169084814Y-121976560D01*
X169099150Y-121490338D01*
X169069098Y-121263833D01*
X168936072Y-120881470D01*
X168715357Y-120605486D01*
X168438251Y-120441746D01*
X168136051Y-120396114D01*
X167840054Y-120474457D01*
X167581558Y-120682639D01*
X167419390Y-120954679D01*
X167315586Y-121351835D01*
X167303178Y-121782587D01*
X166721404Y-121782587D01*
X166713240Y-121653826D01*
X166751177Y-121192036D01*
X166854911Y-120803167D01*
X166867812Y-120773497D01*
X167128228Y-120368020D01*
X167468898Y-120083632D01*
X167860226Y-119928650D01*
X168272619Y-119911390D01*
X168676480Y-120040170D01*
X168912028Y-120199032D01*
X169164000Y-120411052D01*
X169164000Y-118702667D01*
X169672000Y-118702667D01*
X169672000Y-123359333D01*
G37*
X169672000Y-123359333D02*
X169418000Y-123359333D01*
X169236715Y-123336796D01*
X169170302Y-123239874D01*
X169164000Y-123143358D01*
X169164000Y-122927382D01*
X168881139Y-123143131D01*
X168531605Y-123326312D01*
X168131606Y-123408847D01*
X167748405Y-123380990D01*
X167597667Y-123329060D01*
X167212914Y-123059688D01*
X166916472Y-122655703D01*
X166839708Y-122493064D01*
X166742337Y-122112761D01*
X166721404Y-121782587D01*
X167303178Y-121782587D01*
X167373954Y-122198921D01*
X167519705Y-122552825D01*
X167732223Y-122796287D01*
X167734562Y-122797935D01*
X168053609Y-122926332D01*
X168393499Y-122901623D01*
X168711878Y-122727799D01*
X168740026Y-122703167D01*
X168962339Y-122392939D01*
X169084814Y-121976560D01*
X169099150Y-121490338D01*
X169069098Y-121263833D01*
X168936072Y-120881470D01*
X168715357Y-120605486D01*
X168438251Y-120441746D01*
X168136051Y-120396114D01*
X167840054Y-120474457D01*
X167581558Y-120682639D01*
X167419390Y-120954679D01*
X167315586Y-121351835D01*
X167303178Y-121782587D01*
X166721404Y-121782587D01*
X166713240Y-121653826D01*
X166751177Y-121192036D01*
X166854911Y-120803167D01*
X166867812Y-120773497D01*
X167128228Y-120368020D01*
X167468898Y-120083632D01*
X167860226Y-119928650D01*
X168272619Y-119911390D01*
X168676480Y-120040170D01*
X168912028Y-120199032D01*
X169164000Y-120411052D01*
X169164000Y-118702667D01*
X169672000Y-118702667D01*
X169672000Y-123359333D01*
G36*
X161334957Y-119923670D02*
G01*
X161726084Y-119986323D01*
X162019583Y-120106164D01*
X162047019Y-120125237D01*
X162246478Y-120294839D01*
X162393457Y-120482423D01*
X162496549Y-120717187D01*
X162564347Y-121028330D01*
X162605443Y-121445049D01*
X162628431Y-121996541D01*
X162631266Y-122110500D01*
X162660198Y-123359333D01*
X162356099Y-123359333D01*
X162152950Y-123345119D01*
X162068292Y-123277615D01*
X162052000Y-123132908D01*
X162052000Y-122906483D01*
X161853891Y-123092597D01*
X161491064Y-123324221D01*
X161063148Y-123426248D01*
X160621891Y-123391649D01*
X160358667Y-123295702D01*
X160054113Y-123061031D01*
X159865738Y-122745281D01*
X159792624Y-122386904D01*
X159814918Y-122190847D01*
X160372217Y-122190847D01*
X160373912Y-122451186D01*
X160493551Y-122674764D01*
X160705537Y-122839141D01*
X160984274Y-122921878D01*
X161304163Y-122900536D01*
X161536788Y-122812729D01*
X161766348Y-122614758D01*
X161948071Y-122315134D01*
X162044954Y-121981194D01*
X162052000Y-121875159D01*
X162052000Y-121644243D01*
X161360731Y-121684260D01*
X161002376Y-121711483D01*
X160770940Y-121750425D01*
X160624011Y-121812702D01*
X160519175Y-121909935D01*
X160514064Y-121916185D01*
X160372217Y-122190847D01*
X159814918Y-122190847D01*
X159833851Y-122024352D01*
X159988501Y-121696078D01*
X160255654Y-121440533D01*
X160404866Y-121362595D01*
X160651042Y-121298916D01*
X161005576Y-121256490D01*
X161371947Y-121242667D01*
X161710667Y-121238974D01*
X161913972Y-121222432D01*
X162015715Y-121184848D01*
X162049751Y-121118025D01*
X162052000Y-121078054D01*
X161998930Y-120904328D01*
X161869662Y-120701935D01*
X161854679Y-120684043D01*
X161604466Y-120509384D01*
X161254932Y-120414723D01*
X160859183Y-120406305D01*
X160470327Y-120490376D01*
X160409328Y-120514064D01*
X160172421Y-120610312D01*
X160055874Y-120631084D01*
X160022295Y-120562443D01*
X160034286Y-120390448D01*
X160035802Y-120374833D01*
X160066722Y-120208012D01*
X160148447Y-120107087D01*
X160325927Y-120033567D01*
X160485667Y-119989555D01*
X160902665Y-119923112D01*
X161334957Y-119923670D01*
G37*
X161334957Y-119923670D02*
X161726084Y-119986323D01*
X162019583Y-120106164D01*
X162047019Y-120125237D01*
X162246478Y-120294839D01*
X162393457Y-120482423D01*
X162496549Y-120717187D01*
X162564347Y-121028330D01*
X162605443Y-121445049D01*
X162628431Y-121996541D01*
X162631266Y-122110500D01*
X162660198Y-123359333D01*
X162356099Y-123359333D01*
X162152950Y-123345119D01*
X162068292Y-123277615D01*
X162052000Y-123132908D01*
X162052000Y-122906483D01*
X161853891Y-123092597D01*
X161491064Y-123324221D01*
X161063148Y-123426248D01*
X160621891Y-123391649D01*
X160358667Y-123295702D01*
X160054113Y-123061031D01*
X159865738Y-122745281D01*
X159792624Y-122386904D01*
X159814918Y-122190847D01*
X160372217Y-122190847D01*
X160373912Y-122451186D01*
X160493551Y-122674764D01*
X160705537Y-122839141D01*
X160984274Y-122921878D01*
X161304163Y-122900536D01*
X161536788Y-122812729D01*
X161766348Y-122614758D01*
X161948071Y-122315134D01*
X162044954Y-121981194D01*
X162052000Y-121875159D01*
X162052000Y-121644243D01*
X161360731Y-121684260D01*
X161002376Y-121711483D01*
X160770940Y-121750425D01*
X160624011Y-121812702D01*
X160519175Y-121909935D01*
X160514064Y-121916185D01*
X160372217Y-122190847D01*
X159814918Y-122190847D01*
X159833851Y-122024352D01*
X159988501Y-121696078D01*
X160255654Y-121440533D01*
X160404866Y-121362595D01*
X160651042Y-121298916D01*
X161005576Y-121256490D01*
X161371947Y-121242667D01*
X161710667Y-121238974D01*
X161913972Y-121222432D01*
X162015715Y-121184848D01*
X162049751Y-121118025D01*
X162052000Y-121078054D01*
X161998930Y-120904328D01*
X161869662Y-120701935D01*
X161854679Y-120684043D01*
X161604466Y-120509384D01*
X161254932Y-120414723D01*
X160859183Y-120406305D01*
X160470327Y-120490376D01*
X160409328Y-120514064D01*
X160172421Y-120610312D01*
X160055874Y-120631084D01*
X160022295Y-120562443D01*
X160034286Y-120390448D01*
X160035802Y-120374833D01*
X160066722Y-120208012D01*
X160148447Y-120107087D01*
X160325927Y-120033567D01*
X160485667Y-119989555D01*
X160902665Y-119923112D01*
X161334957Y-119923670D01*
G36*
X157087446Y-116448745D02*
G01*
X157134996Y-116574942D01*
X157141334Y-116721364D01*
X157183695Y-116981069D01*
X157335520Y-117203866D01*
X157404231Y-117271645D01*
X157575858Y-117460332D01*
X157639969Y-117640943D01*
X157635223Y-117851803D01*
X157627038Y-118069913D01*
X157683851Y-118195535D01*
X157845761Y-118294937D01*
X157925636Y-118331724D01*
X158307664Y-118580836D01*
X158651884Y-118945339D01*
X158910058Y-119371611D01*
X158952223Y-119472829D01*
X159000358Y-119624176D01*
X159035535Y-119804940D01*
X159059117Y-120040531D01*
X159072470Y-120356354D01*
X159076958Y-120777820D01*
X159073947Y-121330336D01*
X159070026Y-121666000D01*
X159046334Y-123486333D01*
X158647785Y-123511991D01*
X158249237Y-123537649D01*
X158224452Y-124146991D01*
X158206721Y-124464463D01*
X158178216Y-124648129D01*
X158127619Y-124733515D01*
X158043612Y-124756147D01*
X158030334Y-124756333D01*
X157941673Y-124739115D01*
X157887603Y-124663855D01*
X157856921Y-124495139D01*
X157838424Y-124197559D01*
X157836124Y-124142500D01*
X157811248Y-123528667D01*
X156132752Y-123528667D01*
X156107876Y-124141602D01*
X156085475Y-124478566D01*
X156047114Y-124676850D01*
X155985349Y-124766894D01*
X155951872Y-124779529D01*
X155801322Y-124768846D01*
X155761372Y-124745149D01*
X155731491Y-124636128D01*
X155710166Y-124407295D01*
X155702000Y-124108127D01*
X155702000Y-123528667D01*
X154516667Y-123528667D01*
X154516667Y-123105333D01*
X155344451Y-123105333D01*
X157997684Y-123105333D01*
X157971675Y-121375610D01*
X157961699Y-120787000D01*
X157950189Y-120342925D01*
X157934587Y-120018594D01*
X157912337Y-119789210D01*
X157880881Y-119629980D01*
X157837663Y-119516111D01*
X157780126Y-119422808D01*
X157768664Y-119407110D01*
X157477338Y-119142670D01*
X157115577Y-119004889D01*
X156718566Y-118988067D01*
X156321487Y-119086505D01*
X155959523Y-119294504D01*
X155667858Y-119606363D01*
X155577164Y-119762117D01*
X155514686Y-119909552D01*
X155468034Y-120082569D01*
X155434081Y-120309952D01*
X155409700Y-120620483D01*
X155391763Y-121042945D01*
X155377223Y-121602500D01*
X155344451Y-123105333D01*
X154516667Y-123105333D01*
X154516667Y-118364000D01*
X154940000Y-118364000D01*
X155193917Y-118372915D01*
X155320555Y-118410756D01*
X155361522Y-118494167D01*
X155363334Y-118533333D01*
X155404098Y-118679933D01*
X155510271Y-118677329D01*
X155606479Y-118588745D01*
X155741547Y-118482215D01*
X155959013Y-118359760D01*
X156020855Y-118330600D01*
X156223516Y-118225850D01*
X156308376Y-118114980D01*
X156315680Y-117931069D01*
X156308778Y-117851803D01*
X156308529Y-117761758D01*
X156731759Y-117761758D01*
X156764596Y-117958974D01*
X156890793Y-118088815D01*
X156972000Y-118107407D01*
X157071812Y-118068060D01*
X157127575Y-118035628D01*
X157204940Y-117904554D01*
X157212241Y-117761758D01*
X157142513Y-117603001D01*
X156972000Y-117559667D01*
X156799338Y-117604809D01*
X156731759Y-117761758D01*
X156308529Y-117761758D01*
X156308111Y-117611106D01*
X156386147Y-117434700D01*
X156539769Y-117271645D01*
X156729704Y-117045123D01*
X156799567Y-116803896D01*
X156802667Y-116721364D01*
X156820494Y-116513631D01*
X156890627Y-116428070D01*
X156972000Y-116416667D01*
X157087446Y-116448745D01*
G37*
X157087446Y-116448745D02*
X157134996Y-116574942D01*
X157141334Y-116721364D01*
X157183695Y-116981069D01*
X157335520Y-117203866D01*
X157404231Y-117271645D01*
X157575858Y-117460332D01*
X157639969Y-117640943D01*
X157635223Y-117851803D01*
X157627038Y-118069913D01*
X157683851Y-118195535D01*
X157845761Y-118294937D01*
X157925636Y-118331724D01*
X158307664Y-118580836D01*
X158651884Y-118945339D01*
X158910058Y-119371611D01*
X158952223Y-119472829D01*
X159000358Y-119624176D01*
X159035535Y-119804940D01*
X159059117Y-120040531D01*
X159072470Y-120356354D01*
X159076958Y-120777820D01*
X159073947Y-121330336D01*
X159070026Y-121666000D01*
X159046334Y-123486333D01*
X158647785Y-123511991D01*
X158249237Y-123537649D01*
X158224452Y-124146991D01*
X158206721Y-124464463D01*
X158178216Y-124648129D01*
X158127619Y-124733515D01*
X158043612Y-124756147D01*
X158030334Y-124756333D01*
X157941673Y-124739115D01*
X157887603Y-124663855D01*
X157856921Y-124495139D01*
X157838424Y-124197559D01*
X157836124Y-124142500D01*
X157811248Y-123528667D01*
X156132752Y-123528667D01*
X156107876Y-124141602D01*
X156085475Y-124478566D01*
X156047114Y-124676850D01*
X155985349Y-124766894D01*
X155951872Y-124779529D01*
X155801322Y-124768846D01*
X155761372Y-124745149D01*
X155731491Y-124636128D01*
X155710166Y-124407295D01*
X155702000Y-124108127D01*
X155702000Y-123528667D01*
X154516667Y-123528667D01*
X154516667Y-123105333D01*
X155344451Y-123105333D01*
X157997684Y-123105333D01*
X157971675Y-121375610D01*
X157961699Y-120787000D01*
X157950189Y-120342925D01*
X157934587Y-120018594D01*
X157912337Y-119789210D01*
X157880881Y-119629980D01*
X157837663Y-119516111D01*
X157780126Y-119422808D01*
X157768664Y-119407110D01*
X157477338Y-119142670D01*
X157115577Y-119004889D01*
X156718566Y-118988067D01*
X156321487Y-119086505D01*
X155959523Y-119294504D01*
X155667858Y-119606363D01*
X155577164Y-119762117D01*
X155514686Y-119909552D01*
X155468034Y-120082569D01*
X155434081Y-120309952D01*
X155409700Y-120620483D01*
X155391763Y-121042945D01*
X155377223Y-121602500D01*
X155344451Y-123105333D01*
X154516667Y-123105333D01*
X154516667Y-118364000D01*
X154940000Y-118364000D01*
X155193917Y-118372915D01*
X155320555Y-118410756D01*
X155361522Y-118494167D01*
X155363334Y-118533333D01*
X155404098Y-118679933D01*
X155510271Y-118677329D01*
X155606479Y-118588745D01*
X155741547Y-118482215D01*
X155959013Y-118359760D01*
X156020855Y-118330600D01*
X156223516Y-118225850D01*
X156308376Y-118114980D01*
X156315680Y-117931069D01*
X156308778Y-117851803D01*
X156308529Y-117761758D01*
X156731759Y-117761758D01*
X156764596Y-117958974D01*
X156890793Y-118088815D01*
X156972000Y-118107407D01*
X157071812Y-118068060D01*
X157127575Y-118035628D01*
X157204940Y-117904554D01*
X157212241Y-117761758D01*
X157142513Y-117603001D01*
X156972000Y-117559667D01*
X156799338Y-117604809D01*
X156731759Y-117761758D01*
X156308529Y-117761758D01*
X156308111Y-117611106D01*
X156386147Y-117434700D01*
X156539769Y-117271645D01*
X156729704Y-117045123D01*
X156799567Y-116803896D01*
X156802667Y-116721364D01*
X156820494Y-116513631D01*
X156890627Y-116428070D01*
X156972000Y-116416667D01*
X157087446Y-116448745D01*
D13*
G36*
X156867000Y-93673000D02*
G01*
X156613000Y-93927000D01*
X156359000Y-93546000D01*
X156613000Y-93292000D01*
X156867000Y-93673000D01*
G37*
X156867000Y-93673000D02*
X156613000Y-93927000D01*
X156359000Y-93546000D01*
X156613000Y-93292000D01*
X156867000Y-93673000D01*
G36*
X156486000Y-94054000D02*
G01*
X156232000Y-94308000D01*
X155978000Y-93927000D01*
X156232000Y-93673000D01*
X156486000Y-94054000D01*
G37*
X156486000Y-94054000D02*
X156232000Y-94308000D01*
X155978000Y-93927000D01*
X156232000Y-93673000D01*
X156486000Y-94054000D01*
G36*
X154581000Y-93292000D02*
G01*
X154327000Y-93546000D01*
X154073000Y-93165000D01*
X154327000Y-92911000D01*
X154581000Y-93292000D01*
G37*
X154581000Y-93292000D02*
X154327000Y-93546000D01*
X154073000Y-93165000D01*
X154327000Y-92911000D01*
X154581000Y-93292000D01*
G36*
X154962000Y-93800000D02*
G01*
X154708000Y-94054000D01*
X154454000Y-93673000D01*
X154708000Y-93419000D01*
X154962000Y-93800000D01*
G37*
X154962000Y-93800000D02*
X154708000Y-94054000D01*
X154454000Y-93673000D01*
X154708000Y-93419000D01*
X154962000Y-93800000D01*
G36*
X155343000Y-94308000D02*
G01*
X155089000Y-94562000D01*
X154835000Y-94181000D01*
X155089000Y-93927000D01*
X155343000Y-94308000D01*
G37*
X155343000Y-94308000D02*
X155089000Y-94562000D01*
X154835000Y-94181000D01*
X155089000Y-93927000D01*
X155343000Y-94308000D01*
G36*
X155343000Y-93419000D02*
G01*
X155089000Y-93673000D01*
X154835000Y-93292000D01*
X155089000Y-93038000D01*
X155343000Y-93419000D01*
G37*
X155343000Y-93419000D02*
X155089000Y-93673000D01*
X154835000Y-93292000D01*
X155089000Y-93038000D01*
X155343000Y-93419000D01*
G36*
X155724000Y-93927000D02*
G01*
X155470000Y-94181000D01*
X155216000Y-93800000D01*
X155470000Y-93546000D01*
X155724000Y-93927000D01*
G37*
X155724000Y-93927000D02*
X155470000Y-94181000D01*
X155216000Y-93800000D01*
X155470000Y-93546000D01*
X155724000Y-93927000D01*
G36*
X156105000Y-94435000D02*
G01*
X155851000Y-94689000D01*
X155597000Y-94308000D01*
X155851000Y-94054000D01*
X156105000Y-94435000D01*
G37*
X156105000Y-94435000D02*
X155851000Y-94689000D01*
X155597000Y-94308000D01*
X155851000Y-94054000D01*
X156105000Y-94435000D01*
D10*
X123190000Y-102870000D02*
X123190000Y-85090000D01*
X184150000Y-102870000D02*
X123190000Y-102870000D01*
X184150000Y-85090000D02*
X184150000Y-102870000D01*
X123190000Y-85090000D02*
X184150000Y-85090000D01*
X128270000Y-97790000D02*
X123190000Y-97790000D01*
X128270000Y-90170000D02*
X123190000Y-90170000D01*
X128270000Y-97790000D02*
X128270000Y-90170000D01*
X121920000Y-90170000D02*
X123190000Y-90170000D01*
X121920000Y-97790000D02*
X121920000Y-90170000D01*
X123190000Y-97790000D02*
X121920000Y-97790000D01*
X184150000Y-87630000D02*
X171450000Y-87630000D01*
X171450000Y-87630000D02*
X171450000Y-100330000D01*
X171450000Y-100330000D02*
X184150000Y-100330000D01*
X184150000Y-88900000D02*
X182880000Y-88900000D01*
X182880000Y-88900000D02*
X182880000Y-99060000D01*
X182880000Y-99060000D02*
X184150000Y-99060000D01*
X167640000Y-92710000D02*
X167640000Y-95250000D01*
X167640000Y-95250000D02*
X163830000Y-95250000D01*
X163830000Y-95250000D02*
X163830000Y-92710000D01*
X163830000Y-92710000D02*
X167640000Y-92710000D01*
X136420000Y-87980000D02*
X136420000Y-93980000D01*
X136420000Y-93980000D02*
X140420000Y-93980000D01*
X140420000Y-93980000D02*
X140420000Y-87730000D01*
X140420000Y-87730000D02*
X136420000Y-87730000D01*
X136420000Y-87730000D02*
X136420000Y-87980000D01*
X146050000Y-100330000D02*
X158750000Y-100330000D01*
X158750000Y-100330000D02*
X158750000Y-87630000D01*
X158750000Y-87630000D02*
X146050000Y-87630000D01*
X146050000Y-87630000D02*
X146050000Y-100330000D01*
X166633026Y-93980000D02*
G75*
G03X166633026Y-93980000I-898026J0D01*
G01*
D14*
X98790000Y-87710000D02*
X96790000Y-87710000D01*
X80460000Y-87910000D02*
X92900000Y-87910000D01*
X80460000Y-103860000D02*
X80460000Y-87910000D01*
X92900000Y-103860000D02*
X80460000Y-103860000D01*
X102380000Y-103860000D02*
X96100000Y-103860000D01*
X102380000Y-87910000D02*
X102380000Y-103860000D01*
X96100000Y-87910000D02*
X102380000Y-87910000D01*
X106012064Y-101960000D02*
X104807936Y-101960000D01*
X106012064Y-103780000D02*
X104807936Y-103780000D01*
X106012064Y-96880000D02*
X104807936Y-96880000D01*
X106012064Y-98700000D02*
X104807936Y-98700000D01*
D10*
X106715000Y-111500000D02*
X112690000Y-111500000D01*
X108290000Y-117025000D02*
X112690000Y-117025000D01*
X168945000Y-111500000D02*
X174920000Y-111500000D01*
X170520000Y-117025000D02*
X174920000Y-117025000D01*
X182915000Y-111500000D02*
X188890000Y-111500000D01*
X184490000Y-117025000D02*
X188890000Y-117025000D01*
D14*
X214630000Y-92055000D02*
X211180000Y-92055000D01*
X214630000Y-92055000D02*
X216580000Y-92055000D01*
X214630000Y-97175000D02*
X212680000Y-97175000D01*
X214630000Y-97175000D02*
X216580000Y-97175000D01*
X200025000Y-92055000D02*
X196575000Y-92055000D01*
X200025000Y-92055000D02*
X201975000Y-92055000D01*
X200025000Y-97175000D02*
X198075000Y-97175000D01*
X200025000Y-97175000D02*
X201975000Y-97175000D01*
X215232064Y-87990000D02*
X214027936Y-87990000D01*
X215232064Y-89810000D02*
X214027936Y-89810000D01*
X205465000Y-94012936D02*
X205465000Y-95217064D01*
X207285000Y-94012936D02*
X207285000Y-95217064D01*
D10*
X134655000Y-111500000D02*
X140630000Y-111500000D01*
X136230000Y-117025000D02*
X140630000Y-117025000D01*
X120685000Y-111500000D02*
X126660000Y-111500000D01*
X122260000Y-117025000D02*
X126660000Y-117025000D01*
X92745000Y-111500000D02*
X98720000Y-111500000D01*
X94320000Y-117025000D02*
X98720000Y-117025000D01*
X210855000Y-111500000D02*
X216830000Y-111500000D01*
X212430000Y-117025000D02*
X216830000Y-117025000D01*
X196885000Y-111500000D02*
X202860000Y-111500000D01*
X198460000Y-117025000D02*
X202860000Y-117025000D01*
D14*
X139032064Y-108945000D02*
X137827936Y-108945000D01*
X139032064Y-110765000D02*
X137827936Y-110765000D01*
X125062064Y-108945000D02*
X123857936Y-108945000D01*
X125062064Y-110765000D02*
X123857936Y-110765000D01*
X111092064Y-108945000D02*
X109887936Y-108945000D01*
X111092064Y-110765000D02*
X109887936Y-110765000D01*
X96992064Y-108945000D02*
X95787936Y-108945000D01*
X96992064Y-110765000D02*
X95787936Y-110765000D01*
X215232064Y-108945000D02*
X214027936Y-108945000D01*
X215232064Y-110765000D02*
X214027936Y-110765000D01*
X201262064Y-108945000D02*
X200057936Y-108945000D01*
X201262064Y-110765000D02*
X200057936Y-110765000D01*
X187292064Y-108945000D02*
X186087936Y-108945000D01*
X187292064Y-110765000D02*
X186087936Y-110765000D01*
X173322064Y-108945000D02*
X172117936Y-108945000D01*
X173322064Y-110765000D02*
X172117936Y-110765000D01*
X91440000Y-124678675D02*
X91190000Y-124245662D01*
X91690000Y-124245662D02*
X91440000Y-124678675D01*
X91190000Y-124245662D02*
X91690000Y-124245662D01*
X151130000Y-125140000D02*
X151130000Y-137480000D01*
X81610000Y-125140000D02*
X151130000Y-125140000D01*
X81610000Y-137480000D02*
X81610000Y-125140000D01*
X167640000Y-124678675D02*
X167390000Y-124245662D01*
X167890000Y-124245662D02*
X167640000Y-124678675D01*
X167390000Y-124245662D02*
X167890000Y-124245662D01*
X227330000Y-125140000D02*
X227330000Y-137480000D01*
X157810000Y-125140000D02*
X227330000Y-125140000D01*
X157810000Y-137480000D02*
X157810000Y-125140000D01*
D10*
X152908095Y-83272380D02*
X152908095Y-84081904D01*
X152955714Y-84177142D01*
X153003333Y-84224761D01*
X153098571Y-84272380D01*
X153289047Y-84272380D01*
X153384285Y-84224761D01*
X153431904Y-84177142D01*
X153479523Y-84081904D01*
X153479523Y-83272380D01*
X154479523Y-84272380D02*
X153908095Y-84272380D01*
X154193809Y-84272380D02*
X154193809Y-83272380D01*
X154098571Y-83415238D01*
X154003333Y-83510476D01*
X153908095Y-83558095D01*
X150813333Y-92416666D02*
X151513333Y-92416666D01*
X151513333Y-92583333D01*
X151480000Y-92683333D01*
X151413333Y-92750000D01*
X151346666Y-92783333D01*
X151213333Y-92816666D01*
X151113333Y-92816666D01*
X150980000Y-92783333D01*
X150913333Y-92750000D01*
X150846666Y-92683333D01*
X150813333Y-92583333D01*
X150813333Y-92416666D01*
X151513333Y-93016666D02*
X150813333Y-93250000D01*
X151513333Y-93483333D01*
X151513333Y-93916666D02*
X151013333Y-93916666D01*
X150913333Y-93883333D01*
X150846666Y-93816666D01*
X150813333Y-93716666D01*
X150813333Y-93650000D01*
X151513333Y-94550000D02*
X151513333Y-94416666D01*
X151480000Y-94350000D01*
X151446666Y-94316666D01*
X151346666Y-94250000D01*
X151213333Y-94216666D01*
X150946666Y-94216666D01*
X150880000Y-94250000D01*
X150846666Y-94283333D01*
X150813333Y-94350000D01*
X150813333Y-94483333D01*
X150846666Y-94550000D01*
X150880000Y-94583333D01*
X150946666Y-94616666D01*
X151113333Y-94616666D01*
X151180000Y-94583333D01*
X151213333Y-94550000D01*
X151246666Y-94483333D01*
X151246666Y-94350000D01*
X151213333Y-94283333D01*
X151180000Y-94250000D01*
X151113333Y-94216666D01*
X151013333Y-94883333D02*
X151013333Y-95216666D01*
X150813333Y-94816666D02*
X151513333Y-95050000D01*
X150813333Y-95283333D01*
X152083333Y-90896666D02*
X152783333Y-90896666D01*
X152283333Y-91130000D01*
X152783333Y-91363333D01*
X152083333Y-91363333D01*
X152083333Y-91696666D02*
X152783333Y-91696666D01*
X152083333Y-92030000D02*
X152783333Y-92030000D01*
X152283333Y-92263333D01*
X152783333Y-92496666D01*
X152083333Y-92496666D01*
X152783333Y-92763333D02*
X152083333Y-93230000D01*
X152783333Y-93230000D02*
X152083333Y-92763333D01*
X152083333Y-93896666D02*
X152416666Y-93663333D01*
X152083333Y-93496666D02*
X152783333Y-93496666D01*
X152783333Y-93763333D01*
X152750000Y-93830000D01*
X152716666Y-93863333D01*
X152650000Y-93896666D01*
X152550000Y-93896666D01*
X152483333Y-93863333D01*
X152450000Y-93830000D01*
X152416666Y-93763333D01*
X152416666Y-93496666D01*
X152783333Y-94096666D02*
X152783333Y-94496666D01*
X152083333Y-94296666D02*
X152783333Y-94296666D01*
X152083333Y-95096666D02*
X152083333Y-94696666D01*
X152083333Y-94896666D02*
X152783333Y-94896666D01*
X152683333Y-94830000D01*
X152616666Y-94763333D01*
X152583333Y-94696666D01*
X152783333Y-95530000D02*
X152783333Y-95596666D01*
X152750000Y-95663333D01*
X152716666Y-95696666D01*
X152650000Y-95730000D01*
X152516666Y-95763333D01*
X152350000Y-95763333D01*
X152216666Y-95730000D01*
X152150000Y-95696666D01*
X152116666Y-95663333D01*
X152083333Y-95596666D01*
X152083333Y-95530000D01*
X152116666Y-95463333D01*
X152150000Y-95430000D01*
X152216666Y-95396666D01*
X152350000Y-95363333D01*
X152516666Y-95363333D01*
X152650000Y-95396666D01*
X152716666Y-95430000D01*
X152750000Y-95463333D01*
X152783333Y-95530000D01*
X152783333Y-96363333D02*
X152783333Y-96230000D01*
X152750000Y-96163333D01*
X152716666Y-96130000D01*
X152616666Y-96063333D01*
X152483333Y-96030000D01*
X152216666Y-96030000D01*
X152150000Y-96063333D01*
X152116666Y-96096666D01*
X152083333Y-96163333D01*
X152083333Y-96296666D01*
X152116666Y-96363333D01*
X152150000Y-96396666D01*
X152216666Y-96430000D01*
X152383333Y-96430000D01*
X152450000Y-96396666D01*
X152483333Y-96363333D01*
X152516666Y-96296666D01*
X152516666Y-96163333D01*
X152483333Y-96096666D01*
X152450000Y-96063333D01*
X152383333Y-96030000D01*
X152716666Y-96696666D02*
X152750000Y-96730000D01*
X152783333Y-96796666D01*
X152783333Y-96963333D01*
X152750000Y-97030000D01*
X152716666Y-97063333D01*
X152650000Y-97096666D01*
X152583333Y-97096666D01*
X152483333Y-97063333D01*
X152083333Y-96663333D01*
X152083333Y-97096666D01*
X174680952Y-94432380D02*
X174680952Y-93432380D01*
X175014285Y-94146666D01*
X175347619Y-93432380D01*
X175347619Y-94432380D01*
X175823809Y-94432380D02*
X175823809Y-93765714D01*
X175823809Y-93432380D02*
X175776190Y-93480000D01*
X175823809Y-93527619D01*
X175871428Y-93480000D01*
X175823809Y-93432380D01*
X175823809Y-93527619D01*
X176728571Y-94384761D02*
X176633333Y-94432380D01*
X176442857Y-94432380D01*
X176347619Y-94384761D01*
X176300000Y-94337142D01*
X176252380Y-94241904D01*
X176252380Y-93956190D01*
X176300000Y-93860952D01*
X176347619Y-93813333D01*
X176442857Y-93765714D01*
X176633333Y-93765714D01*
X176728571Y-93813333D01*
X177157142Y-94432380D02*
X177157142Y-93765714D01*
X177157142Y-93956190D02*
X177204761Y-93860952D01*
X177252380Y-93813333D01*
X177347619Y-93765714D01*
X177442857Y-93765714D01*
X177919047Y-94432380D02*
X177823809Y-94384761D01*
X177776190Y-94337142D01*
X177728571Y-94241904D01*
X177728571Y-93956190D01*
X177776190Y-93860952D01*
X177823809Y-93813333D01*
X177919047Y-93765714D01*
X178061904Y-93765714D01*
X178157142Y-93813333D01*
X178204761Y-93860952D01*
X178252380Y-93956190D01*
X178252380Y-94241904D01*
X178204761Y-94337142D01*
X178157142Y-94384761D01*
X178061904Y-94432380D01*
X177919047Y-94432380D01*
X179395238Y-94384761D02*
X179538095Y-94432380D01*
X179776190Y-94432380D01*
X179871428Y-94384761D01*
X179919047Y-94337142D01*
X179966666Y-94241904D01*
X179966666Y-94146666D01*
X179919047Y-94051428D01*
X179871428Y-94003809D01*
X179776190Y-93956190D01*
X179585714Y-93908571D01*
X179490476Y-93860952D01*
X179442857Y-93813333D01*
X179395238Y-93718095D01*
X179395238Y-93622857D01*
X179442857Y-93527619D01*
X179490476Y-93480000D01*
X179585714Y-93432380D01*
X179823809Y-93432380D01*
X179966666Y-93480000D01*
X180395238Y-94432380D02*
X180395238Y-93432380D01*
X180633333Y-93432380D01*
X180776190Y-93480000D01*
X180871428Y-93575238D01*
X180919047Y-93670476D01*
X180966666Y-93860952D01*
X180966666Y-94003809D01*
X180919047Y-94194285D01*
X180871428Y-94289523D01*
X180776190Y-94384761D01*
X180633333Y-94432380D01*
X180395238Y-94432380D01*
X126452380Y-95241904D02*
X127261904Y-95241904D01*
X127357142Y-95194285D01*
X127404761Y-95146666D01*
X127452380Y-95051428D01*
X127452380Y-94860952D01*
X127404761Y-94765714D01*
X127357142Y-94718095D01*
X127261904Y-94670476D01*
X126452380Y-94670476D01*
X127404761Y-94241904D02*
X127452380Y-94099047D01*
X127452380Y-93860952D01*
X127404761Y-93765714D01*
X127357142Y-93718095D01*
X127261904Y-93670476D01*
X127166666Y-93670476D01*
X127071428Y-93718095D01*
X127023809Y-93765714D01*
X126976190Y-93860952D01*
X126928571Y-94051428D01*
X126880952Y-94146666D01*
X126833333Y-94194285D01*
X126738095Y-94241904D01*
X126642857Y-94241904D01*
X126547619Y-94194285D01*
X126500000Y-94146666D01*
X126452380Y-94051428D01*
X126452380Y-93813333D01*
X126500000Y-93670476D01*
X126928571Y-92908571D02*
X126976190Y-92765714D01*
X127023809Y-92718095D01*
X127119047Y-92670476D01*
X127261904Y-92670476D01*
X127357142Y-92718095D01*
X127404761Y-92765714D01*
X127452380Y-92860952D01*
X127452380Y-93241904D01*
X126452380Y-93241904D01*
X126452380Y-92908571D01*
X126500000Y-92813333D01*
X126547619Y-92765714D01*
X126642857Y-92718095D01*
X126738095Y-92718095D01*
X126833333Y-92765714D01*
X126880952Y-92813333D01*
X126928571Y-92908571D01*
X126928571Y-93241904D01*
X141533571Y-93662142D02*
X141533571Y-93328809D01*
X142057380Y-93185952D02*
X142057380Y-93662142D01*
X141057380Y-93662142D01*
X141057380Y-93185952D01*
X141390714Y-92900238D02*
X141390714Y-92519285D01*
X141057380Y-92757380D02*
X141914523Y-92757380D01*
X142009761Y-92709761D01*
X142057380Y-92614523D01*
X142057380Y-92519285D01*
X142057380Y-92185952D02*
X141057380Y-92185952D01*
X142057380Y-91757380D02*
X141533571Y-91757380D01*
X141438333Y-91805000D01*
X141390714Y-91900238D01*
X141390714Y-92043095D01*
X141438333Y-92138333D01*
X141485952Y-92185952D01*
X142009761Y-90900238D02*
X142057380Y-90995476D01*
X142057380Y-91185952D01*
X142009761Y-91281190D01*
X141914523Y-91328809D01*
X141533571Y-91328809D01*
X141438333Y-91281190D01*
X141390714Y-91185952D01*
X141390714Y-90995476D01*
X141438333Y-90900238D01*
X141533571Y-90852619D01*
X141628809Y-90852619D01*
X141724047Y-91328809D01*
X142057380Y-90424047D02*
X141390714Y-90424047D01*
X141581190Y-90424047D02*
X141485952Y-90376428D01*
X141438333Y-90328809D01*
X141390714Y-90233571D01*
X141390714Y-90138333D01*
X141390714Y-89805000D02*
X142057380Y-89805000D01*
X141485952Y-89805000D02*
X141438333Y-89757380D01*
X141390714Y-89662142D01*
X141390714Y-89519285D01*
X141438333Y-89424047D01*
X141533571Y-89376428D01*
X142057380Y-89376428D01*
X142009761Y-88519285D02*
X142057380Y-88614523D01*
X142057380Y-88805000D01*
X142009761Y-88900238D01*
X141914523Y-88947857D01*
X141533571Y-88947857D01*
X141438333Y-88900238D01*
X141390714Y-88805000D01*
X141390714Y-88614523D01*
X141438333Y-88519285D01*
X141533571Y-88471666D01*
X141628809Y-88471666D01*
X141724047Y-88947857D01*
X141390714Y-88185952D02*
X141390714Y-87805000D01*
X141057380Y-88043095D02*
X141914523Y-88043095D01*
X142009761Y-87995476D01*
X142057380Y-87900238D01*
X142057380Y-87805000D01*
X102732380Y-96218333D02*
X103446666Y-96218333D01*
X103589523Y-96265952D01*
X103684761Y-96361190D01*
X103732380Y-96504047D01*
X103732380Y-96599285D01*
X102732380Y-95837380D02*
X102732380Y-95218333D01*
X103113333Y-95551666D01*
X103113333Y-95408809D01*
X103160952Y-95313571D01*
X103208571Y-95265952D01*
X103303809Y-95218333D01*
X103541904Y-95218333D01*
X103637142Y-95265952D01*
X103684761Y-95313571D01*
X103732380Y-95408809D01*
X103732380Y-95694523D01*
X103684761Y-95789761D01*
X103637142Y-95837380D01*
X104767142Y-105047142D02*
X104719523Y-105094761D01*
X104576666Y-105142380D01*
X104481428Y-105142380D01*
X104338571Y-105094761D01*
X104243333Y-104999523D01*
X104195714Y-104904285D01*
X104148095Y-104713809D01*
X104148095Y-104570952D01*
X104195714Y-104380476D01*
X104243333Y-104285238D01*
X104338571Y-104190000D01*
X104481428Y-104142380D01*
X104576666Y-104142380D01*
X104719523Y-104190000D01*
X104767142Y-104237619D01*
X105719523Y-105142380D02*
X105148095Y-105142380D01*
X105433809Y-105142380D02*
X105433809Y-104142380D01*
X105338571Y-104285238D01*
X105243333Y-104380476D01*
X105148095Y-104428095D01*
X106100476Y-104237619D02*
X106148095Y-104190000D01*
X106243333Y-104142380D01*
X106481428Y-104142380D01*
X106576666Y-104190000D01*
X106624285Y-104237619D01*
X106671904Y-104332857D01*
X106671904Y-104428095D01*
X106624285Y-104570952D01*
X106052857Y-105142380D01*
X106671904Y-105142380D01*
X104767142Y-99967142D02*
X104719523Y-100014761D01*
X104576666Y-100062380D01*
X104481428Y-100062380D01*
X104338571Y-100014761D01*
X104243333Y-99919523D01*
X104195714Y-99824285D01*
X104148095Y-99633809D01*
X104148095Y-99490952D01*
X104195714Y-99300476D01*
X104243333Y-99205238D01*
X104338571Y-99110000D01*
X104481428Y-99062380D01*
X104576666Y-99062380D01*
X104719523Y-99110000D01*
X104767142Y-99157619D01*
X105719523Y-100062380D02*
X105148095Y-100062380D01*
X105433809Y-100062380D02*
X105433809Y-99062380D01*
X105338571Y-99205238D01*
X105243333Y-99300476D01*
X105148095Y-99348095D01*
X106671904Y-100062380D02*
X106100476Y-100062380D01*
X106386190Y-100062380D02*
X106386190Y-99062380D01*
X106290952Y-99205238D01*
X106195714Y-99300476D01*
X106100476Y-99348095D01*
X109728095Y-117562380D02*
X109728095Y-118371904D01*
X109775714Y-118467142D01*
X109823333Y-118514761D01*
X109918571Y-118562380D01*
X110109047Y-118562380D01*
X110204285Y-118514761D01*
X110251904Y-118467142D01*
X110299523Y-118371904D01*
X110299523Y-117562380D01*
X110680476Y-117562380D02*
X111347142Y-117562380D01*
X110918571Y-118562380D01*
X171958095Y-117562380D02*
X171958095Y-118371904D01*
X172005714Y-118467142D01*
X172053333Y-118514761D01*
X172148571Y-118562380D01*
X172339047Y-118562380D01*
X172434285Y-118514761D01*
X172481904Y-118467142D01*
X172529523Y-118371904D01*
X172529523Y-117562380D01*
X172958095Y-117657619D02*
X173005714Y-117610000D01*
X173100952Y-117562380D01*
X173339047Y-117562380D01*
X173434285Y-117610000D01*
X173481904Y-117657619D01*
X173529523Y-117752857D01*
X173529523Y-117848095D01*
X173481904Y-117990952D01*
X172910476Y-118562380D01*
X173529523Y-118562380D01*
X185928095Y-117562380D02*
X185928095Y-118371904D01*
X185975714Y-118467142D01*
X186023333Y-118514761D01*
X186118571Y-118562380D01*
X186309047Y-118562380D01*
X186404285Y-118514761D01*
X186451904Y-118467142D01*
X186499523Y-118371904D01*
X186499523Y-117562380D01*
X186880476Y-117562380D02*
X187499523Y-117562380D01*
X187166190Y-117943333D01*
X187309047Y-117943333D01*
X187404285Y-117990952D01*
X187451904Y-118038571D01*
X187499523Y-118133809D01*
X187499523Y-118371904D01*
X187451904Y-118467142D01*
X187404285Y-118514761D01*
X187309047Y-118562380D01*
X187023333Y-118562380D01*
X186928095Y-118514761D01*
X186880476Y-118467142D01*
X213391904Y-97877380D02*
X213391904Y-98686904D01*
X213439523Y-98782142D01*
X213487142Y-98829761D01*
X213582380Y-98877380D01*
X213772857Y-98877380D01*
X213868095Y-98829761D01*
X213915714Y-98782142D01*
X213963333Y-98686904D01*
X213963333Y-97877380D01*
X214963333Y-98877380D02*
X214391904Y-98877380D01*
X214677619Y-98877380D02*
X214677619Y-97877380D01*
X214582380Y-98020238D01*
X214487142Y-98115476D01*
X214391904Y-98163095D01*
X215915714Y-98877380D02*
X215344285Y-98877380D01*
X215630000Y-98877380D02*
X215630000Y-97877380D01*
X215534761Y-98020238D01*
X215439523Y-98115476D01*
X215344285Y-98163095D01*
X198786904Y-97877380D02*
X198786904Y-98686904D01*
X198834523Y-98782142D01*
X198882142Y-98829761D01*
X198977380Y-98877380D01*
X199167857Y-98877380D01*
X199263095Y-98829761D01*
X199310714Y-98782142D01*
X199358333Y-98686904D01*
X199358333Y-97877380D01*
X200358333Y-98877380D02*
X199786904Y-98877380D01*
X200072619Y-98877380D02*
X200072619Y-97877380D01*
X199977380Y-98020238D01*
X199882142Y-98115476D01*
X199786904Y-98163095D01*
X200977380Y-97877380D02*
X201072619Y-97877380D01*
X201167857Y-97925000D01*
X201215476Y-97972619D01*
X201263095Y-98067857D01*
X201310714Y-98258333D01*
X201310714Y-98496428D01*
X201263095Y-98686904D01*
X201215476Y-98782142D01*
X201167857Y-98829761D01*
X201072619Y-98877380D01*
X200977380Y-98877380D01*
X200882142Y-98829761D01*
X200834523Y-98782142D01*
X200786904Y-98686904D01*
X200739285Y-98496428D01*
X200739285Y-98258333D01*
X200786904Y-98067857D01*
X200834523Y-97972619D01*
X200882142Y-97925000D01*
X200977380Y-97877380D01*
X213987142Y-91077142D02*
X213939523Y-91124761D01*
X213796666Y-91172380D01*
X213701428Y-91172380D01*
X213558571Y-91124761D01*
X213463333Y-91029523D01*
X213415714Y-90934285D01*
X213368095Y-90743809D01*
X213368095Y-90600952D01*
X213415714Y-90410476D01*
X213463333Y-90315238D01*
X213558571Y-90220000D01*
X213701428Y-90172380D01*
X213796666Y-90172380D01*
X213939523Y-90220000D01*
X213987142Y-90267619D01*
X214939523Y-91172380D02*
X214368095Y-91172380D01*
X214653809Y-91172380D02*
X214653809Y-90172380D01*
X214558571Y-90315238D01*
X214463333Y-90410476D01*
X214368095Y-90458095D01*
X215558571Y-90172380D02*
X215653809Y-90172380D01*
X215749047Y-90220000D01*
X215796666Y-90267619D01*
X215844285Y-90362857D01*
X215891904Y-90553333D01*
X215891904Y-90791428D01*
X215844285Y-90981904D01*
X215796666Y-91077142D01*
X215749047Y-91124761D01*
X215653809Y-91172380D01*
X215558571Y-91172380D01*
X215463333Y-91124761D01*
X215415714Y-91077142D01*
X215368095Y-90981904D01*
X215320476Y-90791428D01*
X215320476Y-90553333D01*
X215368095Y-90362857D01*
X215415714Y-90267619D01*
X215463333Y-90220000D01*
X215558571Y-90172380D01*
X208552142Y-94781666D02*
X208599761Y-94829285D01*
X208647380Y-94972142D01*
X208647380Y-95067380D01*
X208599761Y-95210238D01*
X208504523Y-95305476D01*
X208409285Y-95353095D01*
X208218809Y-95400714D01*
X208075952Y-95400714D01*
X207885476Y-95353095D01*
X207790238Y-95305476D01*
X207695000Y-95210238D01*
X207647380Y-95067380D01*
X207647380Y-94972142D01*
X207695000Y-94829285D01*
X207742619Y-94781666D01*
X208647380Y-94305476D02*
X208647380Y-94115000D01*
X208599761Y-94019761D01*
X208552142Y-93972142D01*
X208409285Y-93876904D01*
X208218809Y-93829285D01*
X207837857Y-93829285D01*
X207742619Y-93876904D01*
X207695000Y-93924523D01*
X207647380Y-94019761D01*
X207647380Y-94210238D01*
X207695000Y-94305476D01*
X207742619Y-94353095D01*
X207837857Y-94400714D01*
X208075952Y-94400714D01*
X208171190Y-94353095D01*
X208218809Y-94305476D01*
X208266428Y-94210238D01*
X208266428Y-94019761D01*
X208218809Y-93924523D01*
X208171190Y-93876904D01*
X208075952Y-93829285D01*
X137668095Y-117562380D02*
X137668095Y-118371904D01*
X137715714Y-118467142D01*
X137763333Y-118514761D01*
X137858571Y-118562380D01*
X138049047Y-118562380D01*
X138144285Y-118514761D01*
X138191904Y-118467142D01*
X138239523Y-118371904D01*
X138239523Y-117562380D01*
X138763333Y-118562380D02*
X138953809Y-118562380D01*
X139049047Y-118514761D01*
X139096666Y-118467142D01*
X139191904Y-118324285D01*
X139239523Y-118133809D01*
X139239523Y-117752857D01*
X139191904Y-117657619D01*
X139144285Y-117610000D01*
X139049047Y-117562380D01*
X138858571Y-117562380D01*
X138763333Y-117610000D01*
X138715714Y-117657619D01*
X138668095Y-117752857D01*
X138668095Y-117990952D01*
X138715714Y-118086190D01*
X138763333Y-118133809D01*
X138858571Y-118181428D01*
X139049047Y-118181428D01*
X139144285Y-118133809D01*
X139191904Y-118086190D01*
X139239523Y-117990952D01*
X123698095Y-117562380D02*
X123698095Y-118371904D01*
X123745714Y-118467142D01*
X123793333Y-118514761D01*
X123888571Y-118562380D01*
X124079047Y-118562380D01*
X124174285Y-118514761D01*
X124221904Y-118467142D01*
X124269523Y-118371904D01*
X124269523Y-117562380D01*
X124888571Y-117990952D02*
X124793333Y-117943333D01*
X124745714Y-117895714D01*
X124698095Y-117800476D01*
X124698095Y-117752857D01*
X124745714Y-117657619D01*
X124793333Y-117610000D01*
X124888571Y-117562380D01*
X125079047Y-117562380D01*
X125174285Y-117610000D01*
X125221904Y-117657619D01*
X125269523Y-117752857D01*
X125269523Y-117800476D01*
X125221904Y-117895714D01*
X125174285Y-117943333D01*
X125079047Y-117990952D01*
X124888571Y-117990952D01*
X124793333Y-118038571D01*
X124745714Y-118086190D01*
X124698095Y-118181428D01*
X124698095Y-118371904D01*
X124745714Y-118467142D01*
X124793333Y-118514761D01*
X124888571Y-118562380D01*
X125079047Y-118562380D01*
X125174285Y-118514761D01*
X125221904Y-118467142D01*
X125269523Y-118371904D01*
X125269523Y-118181428D01*
X125221904Y-118086190D01*
X125174285Y-118038571D01*
X125079047Y-117990952D01*
X95758095Y-117562380D02*
X95758095Y-118371904D01*
X95805714Y-118467142D01*
X95853333Y-118514761D01*
X95948571Y-118562380D01*
X96139047Y-118562380D01*
X96234285Y-118514761D01*
X96281904Y-118467142D01*
X96329523Y-118371904D01*
X96329523Y-117562380D01*
X97234285Y-117562380D02*
X97043809Y-117562380D01*
X96948571Y-117610000D01*
X96900952Y-117657619D01*
X96805714Y-117800476D01*
X96758095Y-117990952D01*
X96758095Y-118371904D01*
X96805714Y-118467142D01*
X96853333Y-118514761D01*
X96948571Y-118562380D01*
X97139047Y-118562380D01*
X97234285Y-118514761D01*
X97281904Y-118467142D01*
X97329523Y-118371904D01*
X97329523Y-118133809D01*
X97281904Y-118038571D01*
X97234285Y-117990952D01*
X97139047Y-117943333D01*
X96948571Y-117943333D01*
X96853333Y-117990952D01*
X96805714Y-118038571D01*
X96758095Y-118133809D01*
X213868095Y-117562380D02*
X213868095Y-118371904D01*
X213915714Y-118467142D01*
X213963333Y-118514761D01*
X214058571Y-118562380D01*
X214249047Y-118562380D01*
X214344285Y-118514761D01*
X214391904Y-118467142D01*
X214439523Y-118371904D01*
X214439523Y-117562380D01*
X215391904Y-117562380D02*
X214915714Y-117562380D01*
X214868095Y-118038571D01*
X214915714Y-117990952D01*
X215010952Y-117943333D01*
X215249047Y-117943333D01*
X215344285Y-117990952D01*
X215391904Y-118038571D01*
X215439523Y-118133809D01*
X215439523Y-118371904D01*
X215391904Y-118467142D01*
X215344285Y-118514761D01*
X215249047Y-118562380D01*
X215010952Y-118562380D01*
X214915714Y-118514761D01*
X214868095Y-118467142D01*
X199898095Y-117562380D02*
X199898095Y-118371904D01*
X199945714Y-118467142D01*
X199993333Y-118514761D01*
X200088571Y-118562380D01*
X200279047Y-118562380D01*
X200374285Y-118514761D01*
X200421904Y-118467142D01*
X200469523Y-118371904D01*
X200469523Y-117562380D01*
X201374285Y-117895714D02*
X201374285Y-118562380D01*
X201136190Y-117514761D02*
X200898095Y-118229047D01*
X201517142Y-118229047D01*
X138263333Y-108587142D02*
X138215714Y-108634761D01*
X138072857Y-108682380D01*
X137977619Y-108682380D01*
X137834761Y-108634761D01*
X137739523Y-108539523D01*
X137691904Y-108444285D01*
X137644285Y-108253809D01*
X137644285Y-108110952D01*
X137691904Y-107920476D01*
X137739523Y-107825238D01*
X137834761Y-107730000D01*
X137977619Y-107682380D01*
X138072857Y-107682380D01*
X138215714Y-107730000D01*
X138263333Y-107777619D01*
X138834761Y-108110952D02*
X138739523Y-108063333D01*
X138691904Y-108015714D01*
X138644285Y-107920476D01*
X138644285Y-107872857D01*
X138691904Y-107777619D01*
X138739523Y-107730000D01*
X138834761Y-107682380D01*
X139025238Y-107682380D01*
X139120476Y-107730000D01*
X139168095Y-107777619D01*
X139215714Y-107872857D01*
X139215714Y-107920476D01*
X139168095Y-108015714D01*
X139120476Y-108063333D01*
X139025238Y-108110952D01*
X138834761Y-108110952D01*
X138739523Y-108158571D01*
X138691904Y-108206190D01*
X138644285Y-108301428D01*
X138644285Y-108491904D01*
X138691904Y-108587142D01*
X138739523Y-108634761D01*
X138834761Y-108682380D01*
X139025238Y-108682380D01*
X139120476Y-108634761D01*
X139168095Y-108587142D01*
X139215714Y-108491904D01*
X139215714Y-108301428D01*
X139168095Y-108206190D01*
X139120476Y-108158571D01*
X139025238Y-108110952D01*
X124293333Y-108652142D02*
X124245714Y-108699761D01*
X124102857Y-108747380D01*
X124007619Y-108747380D01*
X123864761Y-108699761D01*
X123769523Y-108604523D01*
X123721904Y-108509285D01*
X123674285Y-108318809D01*
X123674285Y-108175952D01*
X123721904Y-107985476D01*
X123769523Y-107890238D01*
X123864761Y-107795000D01*
X124007619Y-107747380D01*
X124102857Y-107747380D01*
X124245714Y-107795000D01*
X124293333Y-107842619D01*
X124626666Y-107747380D02*
X125293333Y-107747380D01*
X124864761Y-108747380D01*
X110323333Y-108307142D02*
X110275714Y-108354761D01*
X110132857Y-108402380D01*
X110037619Y-108402380D01*
X109894761Y-108354761D01*
X109799523Y-108259523D01*
X109751904Y-108164285D01*
X109704285Y-107973809D01*
X109704285Y-107830952D01*
X109751904Y-107640476D01*
X109799523Y-107545238D01*
X109894761Y-107450000D01*
X110037619Y-107402380D01*
X110132857Y-107402380D01*
X110275714Y-107450000D01*
X110323333Y-107497619D01*
X111180476Y-107402380D02*
X110990000Y-107402380D01*
X110894761Y-107450000D01*
X110847142Y-107497619D01*
X110751904Y-107640476D01*
X110704285Y-107830952D01*
X110704285Y-108211904D01*
X110751904Y-108307142D01*
X110799523Y-108354761D01*
X110894761Y-108402380D01*
X111085238Y-108402380D01*
X111180476Y-108354761D01*
X111228095Y-108307142D01*
X111275714Y-108211904D01*
X111275714Y-107973809D01*
X111228095Y-107878571D01*
X111180476Y-107830952D01*
X111085238Y-107783333D01*
X110894761Y-107783333D01*
X110799523Y-107830952D01*
X110751904Y-107878571D01*
X110704285Y-107973809D01*
X96223333Y-108307142D02*
X96175714Y-108354761D01*
X96032857Y-108402380D01*
X95937619Y-108402380D01*
X95794761Y-108354761D01*
X95699523Y-108259523D01*
X95651904Y-108164285D01*
X95604285Y-107973809D01*
X95604285Y-107830952D01*
X95651904Y-107640476D01*
X95699523Y-107545238D01*
X95794761Y-107450000D01*
X95937619Y-107402380D01*
X96032857Y-107402380D01*
X96175714Y-107450000D01*
X96223333Y-107497619D01*
X97128095Y-107402380D02*
X96651904Y-107402380D01*
X96604285Y-107878571D01*
X96651904Y-107830952D01*
X96747142Y-107783333D01*
X96985238Y-107783333D01*
X97080476Y-107830952D01*
X97128095Y-107878571D01*
X97175714Y-107973809D01*
X97175714Y-108211904D01*
X97128095Y-108307142D01*
X97080476Y-108354761D01*
X96985238Y-108402380D01*
X96747142Y-108402380D01*
X96651904Y-108354761D01*
X96604285Y-108307142D01*
X214463333Y-108307142D02*
X214415714Y-108354761D01*
X214272857Y-108402380D01*
X214177619Y-108402380D01*
X214034761Y-108354761D01*
X213939523Y-108259523D01*
X213891904Y-108164285D01*
X213844285Y-107973809D01*
X213844285Y-107830952D01*
X213891904Y-107640476D01*
X213939523Y-107545238D01*
X214034761Y-107450000D01*
X214177619Y-107402380D01*
X214272857Y-107402380D01*
X214415714Y-107450000D01*
X214463333Y-107497619D01*
X215320476Y-107735714D02*
X215320476Y-108402380D01*
X215082380Y-107354761D02*
X214844285Y-108069047D01*
X215463333Y-108069047D01*
X200493333Y-108307142D02*
X200445714Y-108354761D01*
X200302857Y-108402380D01*
X200207619Y-108402380D01*
X200064761Y-108354761D01*
X199969523Y-108259523D01*
X199921904Y-108164285D01*
X199874285Y-107973809D01*
X199874285Y-107830952D01*
X199921904Y-107640476D01*
X199969523Y-107545238D01*
X200064761Y-107450000D01*
X200207619Y-107402380D01*
X200302857Y-107402380D01*
X200445714Y-107450000D01*
X200493333Y-107497619D01*
X200826666Y-107402380D02*
X201445714Y-107402380D01*
X201112380Y-107783333D01*
X201255238Y-107783333D01*
X201350476Y-107830952D01*
X201398095Y-107878571D01*
X201445714Y-107973809D01*
X201445714Y-108211904D01*
X201398095Y-108307142D01*
X201350476Y-108354761D01*
X201255238Y-108402380D01*
X200969523Y-108402380D01*
X200874285Y-108354761D01*
X200826666Y-108307142D01*
X186523333Y-108307142D02*
X186475714Y-108354761D01*
X186332857Y-108402380D01*
X186237619Y-108402380D01*
X186094761Y-108354761D01*
X185999523Y-108259523D01*
X185951904Y-108164285D01*
X185904285Y-107973809D01*
X185904285Y-107830952D01*
X185951904Y-107640476D01*
X185999523Y-107545238D01*
X186094761Y-107450000D01*
X186237619Y-107402380D01*
X186332857Y-107402380D01*
X186475714Y-107450000D01*
X186523333Y-107497619D01*
X186904285Y-107497619D02*
X186951904Y-107450000D01*
X187047142Y-107402380D01*
X187285238Y-107402380D01*
X187380476Y-107450000D01*
X187428095Y-107497619D01*
X187475714Y-107592857D01*
X187475714Y-107688095D01*
X187428095Y-107830952D01*
X186856666Y-108402380D01*
X187475714Y-108402380D01*
X172553333Y-108307142D02*
X172505714Y-108354761D01*
X172362857Y-108402380D01*
X172267619Y-108402380D01*
X172124761Y-108354761D01*
X172029523Y-108259523D01*
X171981904Y-108164285D01*
X171934285Y-107973809D01*
X171934285Y-107830952D01*
X171981904Y-107640476D01*
X172029523Y-107545238D01*
X172124761Y-107450000D01*
X172267619Y-107402380D01*
X172362857Y-107402380D01*
X172505714Y-107450000D01*
X172553333Y-107497619D01*
X173505714Y-108402380D02*
X172934285Y-108402380D01*
X173220000Y-108402380D02*
X173220000Y-107402380D01*
X173124761Y-107545238D01*
X173029523Y-107640476D01*
X172934285Y-107688095D01*
X116036666Y-123652380D02*
X116036666Y-124366666D01*
X115989047Y-124509523D01*
X115893809Y-124604761D01*
X115750952Y-124652380D01*
X115655714Y-124652380D01*
X117036666Y-124652380D02*
X116465238Y-124652380D01*
X116750952Y-124652380D02*
X116750952Y-123652380D01*
X116655714Y-123795238D01*
X116560476Y-123890476D01*
X116465238Y-123938095D01*
X192236666Y-123652380D02*
X192236666Y-124366666D01*
X192189047Y-124509523D01*
X192093809Y-124604761D01*
X191950952Y-124652380D01*
X191855714Y-124652380D01*
X192665238Y-123747619D02*
X192712857Y-123700000D01*
X192808095Y-123652380D01*
X193046190Y-123652380D01*
X193141428Y-123700000D01*
X193189047Y-123747619D01*
X193236666Y-123842857D01*
X193236666Y-123938095D01*
X193189047Y-124080952D01*
X192617619Y-124652380D01*
X193236666Y-124652380D01*
M02*
