M48
; DRILL file {KiCad 5.1.5-52549c5~84~ubuntu18.04.1} date Sun 07 Jun 2020 09:39:55 PM PDT
; FORMAT={-:-/ absolute / inch / decimal}
; #@! TF.CreationDate,2020-06-07T21:39:55-07:00
; #@! TF.GenerationSoftware,Kicad,Pcbnew,5.1.5-52549c5~84~ubuntu18.04.1
FMAT,2
INCH
T1C0.0157
T2C0.0315
T3C0.0350
T4C0.0354
T5C0.0394
T6C0.0433
T7C0.0630
T8C0.1260
T9C0.1280
%
G90
G05
T1
X3.575Y-4.425
X3.575Y-4.475
X3.625Y-4.5
X3.625Y-4.55
X3.675Y-4.375
X3.7378Y-4.4872
X3.786Y-4.564
X3.825Y-4.575
X3.8622Y-4.5128
X3.9161Y-4.3665
X3.98Y-4.58
X3.9866Y-4.5384
X4.025Y-4.5
X4.05Y-4.45
X4.125Y-4.425
X4.125Y-4.475
X4.175Y-4.5
X4.175Y-4.55
X4.225Y-4.375
X4.2878Y-4.4872
X4.336Y-4.564
X4.35Y-4.325
X4.375Y-4.575
X4.4122Y-4.5128
X4.525Y-4.575
X4.54Y-4.5384
X4.575Y-4.5
X4.5884Y-4.4616
X4.675Y-4.425
X4.675Y-4.475
X4.725Y-4.5
X4.725Y-4.55
X4.775Y-4.375
X4.8378Y-4.4872
X4.886Y-4.564
X4.9Y-4.325
X4.925Y-4.575
X4.9622Y-4.5128
X5.075Y-4.575
X5.08Y-4.52
X5.125Y-4.5
X5.1384Y-4.4616
X5.225Y-4.425
X5.225Y-4.475
X5.24Y-3.86
X5.275Y-4.5
X5.275Y-4.55
X5.32Y-3.72
X5.325Y-4.375
X5.3878Y-4.4872
X5.436Y-4.564
X5.475Y-4.575
X5.5122Y-4.5128
X5.5624Y-4.3576
X5.6Y-3.22
X5.62Y-4.52
X5.625Y-4.575
X5.675Y-4.5
X5.7Y-3.24
X5.98Y-3.28
X6.04Y-3.28
X6.34Y-4.56
X6.575Y-4.425
X6.575Y-4.475
X6.625Y-4.5
X6.625Y-4.55
X6.675Y-4.375
X6.7378Y-4.4872
X6.786Y-4.564
X6.8Y-4.325
X6.825Y-4.575
X6.8622Y-4.5128
X6.975Y-4.575
X6.98Y-4.52
X7.025Y-4.5
X7.0384Y-4.4616
X7.0765Y-4.4035
X7.125Y-4.425
X7.125Y-4.475
X7.175Y-4.5
X7.175Y-4.55
X7.225Y-4.375
X7.2878Y-4.4872
X7.336Y-4.564
X7.35Y-4.325
X7.375Y-4.575
X7.4122Y-4.5128
X7.52Y-4.52
X7.525Y-4.575
X7.575Y-4.5
X7.5884Y-4.4616
X7.675Y-4.425
X7.675Y-4.475
X7.725Y-4.5
X7.725Y-4.55
X7.775Y-4.375
X7.7776Y-3.6024
X7.8378Y-4.4872
X7.86Y-3.7
X7.886Y-4.564
X7.925Y-4.575
X7.9622Y-4.5128
X8.025Y-4.3
X8.05Y-3.69
X8.075Y-4.575
X8.08Y-4.52
X8.125Y-4.5
X8.1384Y-4.4616
X8.225Y-4.425
X8.225Y-4.475
X8.275Y-4.5
X8.275Y-4.55
X8.325Y-4.375
X8.3576Y-3.6024
X8.3878Y-4.4872
X8.436Y-4.564
X8.44Y-3.7
X8.45Y-4.325
X8.475Y-4.575
X8.4963Y-3.5787
X8.5122Y-4.5128
X8.62Y-4.52
X8.625Y-4.575
X8.675Y-4.5
X8.6884Y-4.4616
T2
X5.4106Y-3.5
X5.4106Y-3.5787
X5.4106Y-3.6575
X5.4894Y-3.5
X5.4894Y-3.5787
X5.4894Y-3.6575
T3
X3.4075Y-3.526
X3.4075Y-3.924
X3.4673Y-3.626
X3.4673Y-4.024
T4
X3.85Y-3.6
X3.85Y-3.7
X3.85Y-3.8
X3.85Y-3.9
X3.95Y-3.65
X3.95Y-3.75
X3.95Y-3.85
X3.95Y-3.95
T5
X6.6Y-5.0
X6.6545Y-5.1118
X6.7091Y-5.0
X6.7636Y-5.1118
X6.8181Y-5.0
X6.8726Y-5.1118
X6.9272Y-5.0
X6.9817Y-5.1118
X7.0362Y-5.0
X7.0907Y-5.1118
X7.1453Y-5.0
X7.1998Y-5.1118
X7.2543Y-5.0
X7.3089Y-5.1118
X7.3634Y-5.0
X7.4179Y-5.1118
X7.4724Y-5.0
X7.527Y-5.1118
X7.5815Y-5.0
X7.636Y-5.1118
X7.6906Y-5.0
X7.7451Y-5.1118
X7.7996Y-5.0
X7.8541Y-5.1118
X7.9087Y-5.0
X7.9632Y-5.1118
X8.0177Y-5.0
X8.0722Y-5.1118
X8.1268Y-5.0
X8.1813Y-5.1118
X8.2358Y-5.0
X8.2904Y-5.1118
X8.3449Y-5.0
X8.3994Y-5.1118
X8.4539Y-5.0
X8.5085Y-5.1118
X8.563Y-5.0
X3.6Y-5.0
X3.6545Y-5.1118
X3.7091Y-5.0
X3.7636Y-5.1118
X3.8181Y-5.0
X3.8726Y-5.1118
X3.9272Y-5.0
X3.9817Y-5.1118
X4.0362Y-5.0
X4.0907Y-5.1118
X4.1453Y-5.0
X4.1998Y-5.1118
X4.2543Y-5.0
X4.3089Y-5.1118
X4.3634Y-5.0
X4.4179Y-5.1118
X4.4724Y-5.0
X4.527Y-5.1118
X4.5815Y-5.0
X4.636Y-5.1118
X4.6906Y-5.0
X4.7451Y-5.1118
X4.7996Y-5.0
X4.8541Y-5.1118
X4.9087Y-5.0
X4.9632Y-5.1118
X5.0177Y-5.0
X5.0722Y-5.1118
X5.1268Y-5.0
X5.1813Y-5.1118
X5.2358Y-5.0
X5.2904Y-5.1118
X5.3449Y-5.0
X5.3994Y-5.1118
X5.4539Y-5.0
X5.5085Y-5.1118
X5.563Y-5.0
T6
X4.9Y-3.4
X4.9Y-4.0
X5.0Y-3.4
X5.0Y-4.0
X5.1Y-3.4
X5.1Y-4.0
X5.2Y-3.4
X5.2Y-4.0
X5.3Y-3.4
X5.3Y-4.0
X5.4Y-3.4
X5.4Y-4.0
X5.5Y-3.4
X5.5Y-4.0
X5.6Y-3.4
X5.6Y-4.0
X5.7Y-3.4
X5.7Y-4.0
X5.8Y-3.4
X5.8Y-4.0
X5.9Y-3.4
X5.9Y-4.0
X6.0Y-3.4
X6.0Y-4.0
X6.1Y-3.4
X6.1Y-4.0
X6.2Y-3.4
X6.2Y-4.0
X6.3Y-3.4
X6.3Y-4.0
X6.4Y-3.4
X6.4Y-4.0
X6.5Y-3.4
X6.5Y-4.0
X6.6Y-3.4
X6.6Y-4.0
X6.7Y-3.4
X6.7Y-4.0
X6.8Y-3.4
X6.8Y-4.0
X6.9Y-3.4
X6.9Y-4.0
X7.0Y-3.4
X7.0Y-4.0
X7.1Y-3.4
X7.1Y-4.0
X7.2Y-3.4
X7.2Y-4.0
T7
X3.7205Y-3.4689
X3.7205Y-4.0811
T8
X4.35Y-3.35
X8.8Y-3.35
X6.3315Y-5.0559
X8.8315Y-5.0559
X3.3315Y-5.0559
X5.8315Y-5.0559
T9
X3.6004Y-3.55
X3.6004Y-4.0
T0
M30
