G04 #@! TF.GenerationSoftware,KiCad,Pcbnew,5.1.5-52549c5~84~ubuntu18.04.1*
G04 #@! TF.CreationDate,2020-06-07T21:39:53-07:00*
G04 #@! TF.ProjectId,debugger,64656275-6767-4657-922e-6b696361645f,rev?*
G04 #@! TF.SameCoordinates,Original*
G04 #@! TF.FileFunction,Copper,L3,Inr*
G04 #@! TF.FilePolarity,Positive*
%FSLAX46Y46*%
G04 Gerber Fmt 4.6, Leading zero omitted, Abs format (unit mm)*
G04 Created by KiCad (PCBNEW 5.1.5-52549c5~84~ubuntu18.04.1) date 2020-06-07 21:39:53*
%MOMM*%
%LPD*%
G04 APERTURE LIST*
%ADD10C,1.600000*%
%ADD11R,1.600000X1.600000*%
%ADD12R,1.300000X1.300000*%
%ADD13C,1.300000*%
%ADD14C,2.600000*%
%ADD15C,1.890000*%
%ADD16C,1.900000*%
%ADD17R,1.900000X1.900000*%
%ADD18C,4.000000*%
%ADD19C,6.000000*%
%ADD20C,0.800000*%
%ADD21C,0.250000*%
%ADD22C,0.200025*%
%ADD23C,0.200000*%
G04 APERTURE END LIST*
D10*
X124460000Y-86360000D03*
X127000000Y-86360000D03*
X129540000Y-86360000D03*
X132080000Y-86360000D03*
X134620000Y-86360000D03*
X137160000Y-86360000D03*
X139700000Y-86360000D03*
X142240000Y-86360000D03*
X144780000Y-86360000D03*
X147320000Y-86360000D03*
X149860000Y-86360000D03*
X152400000Y-86360000D03*
X154940000Y-86360000D03*
X157480000Y-86360000D03*
D11*
X124460000Y-101600000D03*
D10*
X127000000Y-101600000D03*
X129540000Y-101600000D03*
X132080000Y-101600000D03*
X134620000Y-101600000D03*
X137160000Y-101600000D03*
X139700000Y-101600000D03*
X142240000Y-101600000D03*
X144780000Y-101600000D03*
X147320000Y-101600000D03*
X149860000Y-101600000D03*
X152400000Y-101600000D03*
X154940000Y-101600000D03*
X160020000Y-86360000D03*
X162560000Y-86360000D03*
X165100000Y-86360000D03*
X167640000Y-86360000D03*
X170180000Y-86360000D03*
X172720000Y-86360000D03*
X175260000Y-86360000D03*
X177800000Y-86360000D03*
X180340000Y-86360000D03*
X182880000Y-86360000D03*
X182880000Y-101600000D03*
X180340000Y-101600000D03*
X177800000Y-101600000D03*
X175260000Y-101600000D03*
X157480000Y-101600000D03*
X160020000Y-101600000D03*
X162560000Y-101600000D03*
X172720000Y-101600000D03*
X170180000Y-101600000D03*
X167640000Y-101600000D03*
X165100000Y-101600000D03*
D12*
X137430000Y-88900000D03*
D13*
X139430000Y-88900000D03*
X137430000Y-90900000D03*
X139430000Y-90900000D03*
X139430000Y-92900000D03*
X137430000Y-92900000D03*
D14*
X94500000Y-103660000D03*
X94500000Y-88110000D03*
D15*
X86550000Y-89560000D03*
X88070000Y-92100000D03*
X86550000Y-99670000D03*
X88070000Y-102210000D03*
D16*
X100330000Y-100330000D03*
X97790000Y-99060000D03*
X100330000Y-97790000D03*
X97790000Y-96520000D03*
X100330000Y-95250000D03*
X97790000Y-93980000D03*
X100330000Y-92710000D03*
D17*
X97790000Y-91440000D03*
D18*
X148120000Y-128420000D03*
X84620000Y-128420000D03*
D10*
X139915000Y-129840000D03*
X137145000Y-129840000D03*
X134375000Y-129840000D03*
X131605000Y-129840000D03*
X128835000Y-129840000D03*
X126065000Y-129840000D03*
X123295000Y-129840000D03*
X120525000Y-129840000D03*
X117755000Y-129840000D03*
X114985000Y-129840000D03*
X112215000Y-129840000D03*
X109445000Y-129840000D03*
X106675000Y-129840000D03*
X103905000Y-129840000D03*
X101135000Y-129840000D03*
X98365000Y-129840000D03*
X95595000Y-129840000D03*
X92825000Y-129840000D03*
X141300000Y-127000000D03*
X138530000Y-127000000D03*
X135760000Y-127000000D03*
X132990000Y-127000000D03*
X130220000Y-127000000D03*
X127450000Y-127000000D03*
X124680000Y-127000000D03*
X121910000Y-127000000D03*
X119140000Y-127000000D03*
X116370000Y-127000000D03*
X113600000Y-127000000D03*
X110830000Y-127000000D03*
X108060000Y-127000000D03*
X105290000Y-127000000D03*
X102520000Y-127000000D03*
X99750000Y-127000000D03*
X96980000Y-127000000D03*
X94210000Y-127000000D03*
D11*
X91440000Y-127000000D03*
D18*
X224320000Y-128420000D03*
X160820000Y-128420000D03*
D10*
X216115000Y-129840000D03*
X213345000Y-129840000D03*
X210575000Y-129840000D03*
X207805000Y-129840000D03*
X205035000Y-129840000D03*
X202265000Y-129840000D03*
X199495000Y-129840000D03*
X196725000Y-129840000D03*
X193955000Y-129840000D03*
X191185000Y-129840000D03*
X188415000Y-129840000D03*
X185645000Y-129840000D03*
X182875000Y-129840000D03*
X180105000Y-129840000D03*
X177335000Y-129840000D03*
X174565000Y-129840000D03*
X171795000Y-129840000D03*
X169025000Y-129840000D03*
X217500000Y-127000000D03*
X214730000Y-127000000D03*
X211960000Y-127000000D03*
X209190000Y-127000000D03*
X206420000Y-127000000D03*
X203650000Y-127000000D03*
X200880000Y-127000000D03*
X198110000Y-127000000D03*
X195340000Y-127000000D03*
X192570000Y-127000000D03*
X189800000Y-127000000D03*
X187030000Y-127000000D03*
X184260000Y-127000000D03*
X181490000Y-127000000D03*
X178720000Y-127000000D03*
X175950000Y-127000000D03*
X173180000Y-127000000D03*
X170410000Y-127000000D03*
D11*
X167640000Y-127000000D03*
D19*
X110490000Y-85090000D03*
X223520000Y-85090000D03*
D20*
X214630000Y-109855000D03*
X186690000Y-109855000D03*
X172720000Y-109855000D03*
X124460000Y-109855000D03*
X99470000Y-110910000D03*
X204470000Y-93726000D03*
X110490000Y-109855000D03*
X203835000Y-109220000D03*
X215804990Y-90900010D03*
X141284000Y-110684000D03*
X214376000Y-93980000D03*
X199644000Y-93980000D03*
X218948000Y-114808000D03*
X208915000Y-112395000D03*
X205232000Y-114808000D03*
X194945000Y-112395000D03*
X191008000Y-114808000D03*
X180975000Y-112395000D03*
X177292000Y-114808000D03*
X167005000Y-112395000D03*
X220685000Y-113325000D03*
X210185000Y-114300000D03*
X206715000Y-113325000D03*
X196215000Y-114300000D03*
X192745000Y-113325000D03*
X182245000Y-114300000D03*
X178775000Y-113325000D03*
X168275000Y-114300000D03*
X133096000Y-98044000D03*
X161036000Y-115824000D03*
X179741999Y-111850001D03*
X142875000Y-116205000D03*
X132715000Y-113665000D03*
X128905000Y-116205000D03*
X118745000Y-113665000D03*
X114935000Y-116205000D03*
X104775000Y-113665000D03*
X101092000Y-116332000D03*
X90805000Y-113665000D03*
X144145000Y-114300000D03*
X133985000Y-115570000D03*
X130175000Y-114300000D03*
X120015000Y-115570000D03*
X116205000Y-114300000D03*
X106045000Y-115570000D03*
X102235000Y-114300000D03*
X92075000Y-115570000D03*
X220345000Y-114300000D03*
X210185000Y-115570000D03*
X206375000Y-114300000D03*
X196215000Y-115570000D03*
X192405000Y-114300000D03*
X182245000Y-115570000D03*
X178435000Y-114300000D03*
X168275000Y-115570000D03*
X142748000Y-114808000D03*
X132715000Y-112395000D03*
X129032000Y-114808000D03*
X118745000Y-112395000D03*
X115316000Y-115275000D03*
X104775000Y-112395000D03*
X101260000Y-115275000D03*
X90805000Y-112395000D03*
X219075000Y-116205000D03*
X208915000Y-113665000D03*
X205105000Y-116205000D03*
X194945000Y-113665000D03*
X191135000Y-116205000D03*
X180975000Y-113665000D03*
X177165000Y-116205000D03*
X167005000Y-113665000D03*
X133985000Y-114300000D03*
X130515000Y-113325000D03*
X120015000Y-114300000D03*
X116545000Y-113325000D03*
X106045000Y-114300000D03*
X102870000Y-113030000D03*
X92075000Y-114300000D03*
X171140000Y-113975000D03*
X172365000Y-115925000D03*
X173355000Y-116205000D03*
X174300000Y-114625000D03*
X185110000Y-113975000D03*
X186335000Y-115925000D03*
X187325000Y-116205000D03*
X188270000Y-114625000D03*
X199080000Y-113975000D03*
X94940000Y-113975000D03*
X142240000Y-81788000D03*
X96165000Y-115925000D03*
X144780000Y-82296000D03*
X97155000Y-116205000D03*
X153416000Y-83312000D03*
X98100000Y-114625000D03*
X151892000Y-83312000D03*
X108910000Y-113975000D03*
X110135000Y-115925000D03*
X111125000Y-116205000D03*
X112070000Y-114625000D03*
X122880000Y-113975000D03*
X135128000Y-94488000D03*
X124105000Y-115925000D03*
X125095000Y-116205000D03*
X126040000Y-114625000D03*
X200305000Y-115925000D03*
X201295000Y-116205000D03*
X202240000Y-114625000D03*
X213050000Y-113975000D03*
X214275000Y-115925000D03*
X215265000Y-116205000D03*
X216210000Y-114625000D03*
X212282000Y-91502000D03*
X197550000Y-91502000D03*
X136850000Y-113975000D03*
X138075000Y-115925000D03*
X140010000Y-114625000D03*
X139065000Y-116205000D03*
X211455000Y-111125000D03*
X197485000Y-111125000D03*
X183515000Y-111125000D03*
X169545000Y-111125000D03*
X135255000Y-111125000D03*
X121285000Y-111125000D03*
X107315000Y-111125000D03*
X93345000Y-111125000D03*
D21*
X139915000Y-126719998D02*
X141210009Y-125424989D01*
X139915000Y-129840000D02*
X139915000Y-126719998D01*
X208654326Y-125424989D02*
X218804315Y-115275000D01*
X141210009Y-125424989D02*
X208654326Y-125424989D01*
X218804315Y-114951685D02*
X218948000Y-114808000D01*
X218804315Y-115275000D02*
X218804315Y-114951685D01*
X137145000Y-126719998D02*
X139404998Y-124460000D01*
X137145000Y-129840000D02*
X137145000Y-126719998D01*
X208515001Y-112794999D02*
X208915000Y-112395000D01*
X208189999Y-113120001D02*
X208515001Y-112794999D01*
X208189999Y-121881591D02*
X208189999Y-113120001D01*
X205611590Y-124460000D02*
X208189999Y-121881591D01*
X139404998Y-124460000D02*
X205611590Y-124460000D01*
X134375000Y-126719998D02*
X137650998Y-123444000D01*
X134375000Y-129840000D02*
X134375000Y-126719998D01*
X137650998Y-123444000D02*
X198120000Y-123444000D01*
X204834315Y-115275000D02*
X199136000Y-120973315D01*
X199136000Y-120973315D02*
X199136000Y-122428000D01*
X199136000Y-122428000D02*
X198120000Y-123444000D01*
X204832001Y-115272686D02*
X204832001Y-115207999D01*
X204832001Y-115207999D02*
X205232000Y-114808000D01*
X204834315Y-115275000D02*
X204832001Y-115272686D01*
X131605000Y-129840000D02*
X131864999Y-129580001D01*
X131605000Y-126719998D02*
X135781018Y-122543980D01*
X131605000Y-129840000D02*
X131605000Y-126719998D01*
X135781018Y-122543980D02*
X193432020Y-122543980D01*
X193432020Y-122543980D02*
X194056000Y-121920000D01*
X194056000Y-113284000D02*
X194945000Y-112395000D01*
X194056000Y-121920000D02*
X194056000Y-113284000D01*
X180249999Y-113120001D02*
X180575001Y-112794999D01*
X175260000Y-119888000D02*
X180249999Y-114898001D01*
X180575001Y-112794999D02*
X180975000Y-112395000D01*
X134748410Y-119888000D02*
X175260000Y-119888000D01*
X180249999Y-114898001D02*
X180249999Y-113120001D01*
X126065000Y-129840000D02*
X126065000Y-125395000D01*
X126492000Y-124968000D02*
X129032000Y-124968000D01*
X129032000Y-124968000D02*
X129089990Y-124910010D01*
X126065000Y-125395000D02*
X126492000Y-124968000D01*
X129089990Y-124910010D02*
X129726401Y-124910009D01*
X129726401Y-124910009D02*
X134748410Y-119888000D01*
X173297315Y-118872000D02*
X176894315Y-115275000D01*
X123295000Y-125222818D02*
X124565818Y-123952000D01*
X124565818Y-123952000D02*
X128524000Y-123952000D01*
X123295000Y-129840000D02*
X123295000Y-125222818D01*
X128524000Y-123952000D02*
X128570972Y-123905028D01*
X128570972Y-123905028D02*
X129335792Y-123905028D01*
X134368820Y-118872000D02*
X173297315Y-118872000D01*
X129335792Y-123905028D02*
X134368820Y-118872000D01*
X176892001Y-115207999D02*
X177292000Y-114808000D01*
X176892001Y-115272686D02*
X176892001Y-115207999D01*
X176894315Y-115275000D02*
X176892001Y-115272686D01*
X120784999Y-126459999D02*
X124239988Y-123005010D01*
X120525000Y-129840000D02*
X120784999Y-129580001D01*
X120784999Y-129580001D02*
X120784999Y-126459999D01*
X128962990Y-123005010D02*
X134100275Y-117867725D01*
X124239988Y-123005010D02*
X128962990Y-123005010D01*
X161532275Y-117867725D02*
X167005000Y-112395000D01*
X134100275Y-117867725D02*
X161532275Y-117867725D01*
X142425001Y-125874999D02*
X215501001Y-125874999D01*
X141300000Y-127000000D02*
X142425001Y-125874999D01*
X215501001Y-125874999D02*
X223520000Y-117856000D01*
X223520000Y-116160000D02*
X220685000Y-113325000D01*
X223520000Y-117856000D02*
X223520000Y-116160000D01*
X210584999Y-114699999D02*
X210185000Y-114300000D01*
X210910001Y-119797999D02*
X210910001Y-115025001D01*
X205740000Y-124968000D02*
X210910001Y-119797999D01*
X210910001Y-115025001D02*
X210584999Y-114699999D01*
X140562000Y-124968000D02*
X205740000Y-124968000D01*
X138530000Y-127000000D02*
X140562000Y-124968000D01*
X135760000Y-127000000D02*
X138808000Y-123952000D01*
X207114999Y-113724999D02*
X206715000Y-113325000D01*
X207114999Y-116989001D02*
X207114999Y-113724999D01*
X138808000Y-123952000D02*
X200152000Y-123952000D01*
X200152000Y-123952000D02*
X207114999Y-116989001D01*
X132990000Y-127000000D02*
X136996010Y-122993990D01*
X136996010Y-122993990D02*
X194564000Y-122993990D01*
X196940001Y-115025001D02*
X196614999Y-114699999D01*
X196614999Y-114699999D02*
X196215000Y-114300000D01*
X196940001Y-120617989D02*
X196940001Y-115025001D01*
X194564000Y-122993990D02*
X196940001Y-120617989D01*
X130220000Y-127000000D02*
X135126030Y-122093970D01*
X193144999Y-113724999D02*
X192745000Y-113325000D01*
X193144999Y-115904413D02*
X193144999Y-113724999D01*
X135126030Y-122093970D02*
X186955442Y-122093970D01*
X186955442Y-122093970D02*
X193144999Y-115904413D01*
X131064000Y-124517370D02*
X131064000Y-124208820D01*
X127450000Y-127000000D02*
X128581370Y-127000000D01*
X128581370Y-127000000D02*
X131064000Y-124517370D01*
X131064000Y-124208820D02*
X134876820Y-120396000D01*
X176149000Y-120396000D02*
X182245000Y-114300000D01*
X134876820Y-120396000D02*
X176149000Y-120396000D01*
X179174999Y-113724999D02*
X178775000Y-113325000D01*
X179174999Y-115268003D02*
X179174999Y-113724999D01*
X175063002Y-119380000D02*
X179174999Y-115268003D01*
X134620000Y-119380000D02*
X175063002Y-119380000D01*
X125476000Y-124460000D02*
X129540000Y-124460000D01*
X129540000Y-124460000D02*
X134620000Y-119380000D01*
X124680000Y-125256000D02*
X125476000Y-124460000D01*
X124680000Y-127000000D02*
X124680000Y-125256000D01*
X134240410Y-118364000D02*
X164211000Y-118364000D01*
X129149391Y-123455019D02*
X134240410Y-118364000D01*
X124426388Y-123455020D02*
X129149391Y-123455019D01*
X121910000Y-127000000D02*
X121910000Y-125971408D01*
X164211000Y-118364000D02*
X168275000Y-114300000D01*
X121910000Y-125971408D02*
X124426388Y-123455020D01*
X122269997Y-101605001D02*
X125830998Y-98044000D01*
X100521997Y-101605001D02*
X122269997Y-101605001D01*
X90079999Y-112046999D02*
X100521997Y-101605001D01*
X96980000Y-127000000D02*
X90079999Y-120099999D01*
X90079999Y-120099999D02*
X90079999Y-112046999D01*
X125830998Y-98044000D02*
X133096000Y-98044000D01*
X133096000Y-98044000D02*
X133096000Y-98044000D01*
X184011370Y-101600000D02*
X182880000Y-101600000D01*
X223970009Y-123649993D02*
X223970009Y-115537007D01*
X216655001Y-130965001D02*
X223970009Y-123649993D01*
X97824999Y-130965001D02*
X216655001Y-130965001D01*
X97239999Y-130380001D02*
X97824999Y-130965001D01*
X210033002Y-101600000D02*
X184011370Y-101600000D01*
X97239999Y-128898629D02*
X97239999Y-130380001D01*
X95341370Y-127000000D02*
X97239999Y-128898629D01*
X223970009Y-115537007D02*
X210033002Y-101600000D01*
X94210000Y-127000000D02*
X95341370Y-127000000D01*
X167533003Y-111850001D02*
X179741999Y-111850001D01*
X167353001Y-111669999D02*
X167533003Y-111850001D01*
X161036000Y-115824000D02*
X165190001Y-111669999D01*
X165190001Y-111669999D02*
X167353001Y-111669999D01*
X179741999Y-111850001D02*
X179741999Y-111850001D01*
X117755000Y-129840000D02*
X117755000Y-125450000D01*
X117755000Y-125450000D02*
X121166360Y-122038640D01*
X121166360Y-122038640D02*
X128152771Y-122038639D01*
X128152771Y-122038639D02*
X133223705Y-116967705D01*
X142112295Y-116967705D02*
X142875000Y-116205000D01*
X133223705Y-116967705D02*
X142112295Y-116967705D01*
X114985000Y-129840000D02*
X114985000Y-123142820D01*
X132715000Y-114230685D02*
X132715000Y-113665000D01*
X125844971Y-121100714D02*
X132715000Y-114230685D01*
X114985000Y-123142820D02*
X117027106Y-121100714D01*
X117027106Y-121100714D02*
X125844971Y-121100714D01*
X125095000Y-120015000D02*
X128905000Y-116205000D01*
X116840000Y-120015000D02*
X125095000Y-120015000D01*
X112215000Y-129840000D02*
X112215000Y-124640000D01*
X112215000Y-124640000D02*
X116840000Y-120015000D01*
X118345001Y-114064999D02*
X118745000Y-113665000D01*
X109445000Y-123404412D02*
X118345001Y-114504411D01*
X118345001Y-114504411D02*
X118345001Y-114064999D01*
X109445000Y-129840000D02*
X109445000Y-123404412D01*
X106675000Y-124465000D02*
X114935000Y-116205000D01*
X106675000Y-129840000D02*
X106675000Y-124465000D01*
X103905000Y-114535000D02*
X104775000Y-113665000D01*
X103905000Y-129840000D02*
X103905000Y-114535000D01*
X101364999Y-116604999D02*
X100965000Y-116205000D01*
X101394999Y-116634999D02*
X101364999Y-116604999D01*
X101394999Y-129580001D02*
X101394999Y-116634999D01*
X101135000Y-129840000D02*
X101394999Y-129580001D01*
X90805000Y-114230685D02*
X90805000Y-113665000D01*
X90805000Y-119159998D02*
X90805000Y-114230685D01*
X98365000Y-126719998D02*
X90805000Y-119159998D01*
X98365000Y-129840000D02*
X98365000Y-126719998D01*
X119140000Y-127000000D02*
X123585000Y-122555000D01*
X123585000Y-122555000D02*
X128272820Y-122555000D01*
X128272820Y-122555000D02*
X128339172Y-122488648D01*
X128272820Y-122488648D02*
X128339172Y-122488648D01*
X128272820Y-122555000D02*
X128272820Y-122488648D01*
X128463352Y-122488648D02*
X133534285Y-117417715D01*
X128339172Y-122488648D02*
X128463352Y-122488648D01*
X144145000Y-116008002D02*
X144145000Y-114865685D01*
X144145000Y-114865685D02*
X144145000Y-114300000D01*
X142735287Y-117417715D02*
X144145000Y-116008002D01*
X133534285Y-117417715D02*
X142735287Y-117417715D01*
X116370000Y-125868630D02*
X120650000Y-121588630D01*
X116370000Y-127000000D02*
X116370000Y-125868630D01*
X127966370Y-121588630D02*
X133985000Y-115570000D01*
X120650000Y-121588630D02*
X127966370Y-121588630D01*
X113600000Y-127000000D02*
X113600000Y-123891410D01*
X113600000Y-123891410D02*
X116840705Y-120650705D01*
X130175000Y-114865685D02*
X130175000Y-114300000D01*
X130175000Y-116008002D02*
X130175000Y-114865685D01*
X125532297Y-120650705D02*
X130175000Y-116008002D01*
X116840705Y-120650705D02*
X125532297Y-120650705D01*
X110830000Y-124755000D02*
X120015000Y-115570000D01*
X110830000Y-127000000D02*
X110830000Y-124755000D01*
X108060000Y-127000000D02*
X108060000Y-123935000D01*
X116205000Y-116008002D02*
X116205000Y-114865685D01*
X116205000Y-114865685D02*
X116205000Y-114300000D01*
X108585000Y-123410000D02*
X108803002Y-123410000D01*
X108803002Y-123410000D02*
X116205000Y-116008002D01*
X108060000Y-123935000D02*
X108585000Y-123410000D01*
X105290000Y-116325000D02*
X106045000Y-115570000D01*
X105290000Y-127000000D02*
X105290000Y-116325000D01*
X102520000Y-114585000D02*
X102235000Y-114300000D01*
X102520000Y-127000000D02*
X102520000Y-114585000D01*
X92075000Y-119325000D02*
X92075000Y-115570000D01*
X99750000Y-127000000D02*
X92075000Y-119325000D01*
X136034999Y-102140001D02*
X136034999Y-95394999D01*
X122880000Y-113975000D02*
X124200000Y-113975000D01*
X124200000Y-113975000D02*
X136034999Y-102140001D01*
X136034999Y-95394999D02*
X135128000Y-94488000D01*
X135128000Y-94488000D02*
X135128000Y-94488000D01*
X133205001Y-85234999D02*
X132879999Y-85560001D01*
X143365001Y-102429999D02*
X143365001Y-85819999D01*
X142619989Y-103175011D02*
X143365001Y-102429999D01*
X143365001Y-85819999D02*
X142780001Y-85234999D01*
X139591987Y-103175011D02*
X142619989Y-103175011D01*
X124544316Y-116930001D02*
X125836997Y-116930001D01*
X132879999Y-85560001D02*
X132080000Y-86360000D01*
X125836997Y-116930001D02*
X139591987Y-103175011D01*
X124105000Y-116490685D02*
X124544316Y-116930001D01*
X142780001Y-85234999D02*
X133205001Y-85234999D01*
X124105000Y-115925000D02*
X124105000Y-116490685D01*
X140499999Y-87159999D02*
X139700000Y-86360000D01*
X140855011Y-87515011D02*
X140499999Y-87159999D01*
X140855011Y-102109991D02*
X140855011Y-87515011D01*
X140240001Y-102725001D02*
X140855011Y-102109991D01*
X139159999Y-102725001D02*
X140240001Y-102725001D01*
X125680000Y-116205000D02*
X139159999Y-102725001D01*
X125095000Y-116205000D02*
X125680000Y-116205000D01*
X138285001Y-87485001D02*
X137959999Y-87159999D01*
X139458003Y-87485001D02*
X138285001Y-87485001D01*
X140405001Y-88431999D02*
X139458003Y-87485001D01*
X140405001Y-93368001D02*
X140405001Y-88431999D01*
X138285001Y-95488001D02*
X140405001Y-93368001D01*
X138285001Y-102379999D02*
X138285001Y-95488001D01*
X137959999Y-87159999D02*
X137160000Y-86360000D01*
X126040000Y-114625000D02*
X138285001Y-102379999D01*
X178925001Y-100474999D02*
X206865001Y-100474999D01*
X177800000Y-101600000D02*
X178925001Y-100474999D01*
X212282000Y-95058000D02*
X212282000Y-91502000D01*
X206865001Y-100474999D02*
X212282000Y-95058000D01*
X185358000Y-91502000D02*
X197550000Y-91502000D01*
X175260000Y-101600000D02*
X185358000Y-91502000D01*
X136850000Y-113975000D02*
X138150021Y-112674979D01*
X138150021Y-112674979D02*
X157581021Y-112674979D01*
X166514999Y-103741001D02*
X166514999Y-97137001D01*
X157581021Y-112674979D02*
X166514999Y-103741001D01*
X170180000Y-93472000D02*
X170180000Y-86360000D01*
X166514999Y-97137001D02*
X170180000Y-93472000D01*
X136124999Y-113626999D02*
X137527029Y-112224969D01*
X136124999Y-114540684D02*
X136124999Y-113626999D01*
X138075000Y-115925000D02*
X137509315Y-115925000D01*
X137509315Y-115925000D02*
X136124999Y-114540684D01*
X137527029Y-112224969D02*
X157394621Y-112224969D01*
X163974999Y-105644591D02*
X163974999Y-99040591D01*
X157394621Y-112224969D02*
X163974999Y-105644591D01*
X167640000Y-95375590D02*
X167640000Y-86360000D01*
X163974999Y-99040591D02*
X167640000Y-95375590D01*
X158205001Y-113574999D02*
X169380001Y-102399999D01*
X141060001Y-113574999D02*
X158205001Y-113574999D01*
X169380001Y-102399999D02*
X170180000Y-101600000D01*
X140010000Y-114625000D02*
X141060001Y-113574999D01*
X139065000Y-114496998D02*
X140437009Y-113124989D01*
X139065000Y-116205000D02*
X139065000Y-114496998D01*
X140437009Y-113124989D02*
X158018601Y-113124989D01*
X167640000Y-103503590D02*
X167640000Y-101600000D01*
X158018601Y-113124989D02*
X167640000Y-103503590D01*
X197884999Y-110725001D02*
X197485000Y-111125000D01*
X210489316Y-110725001D02*
X197884999Y-110725001D01*
X211455000Y-111125000D02*
X210889315Y-111125000D01*
X210889315Y-111125000D02*
X210489316Y-110725001D01*
X183914999Y-110725001D02*
X183515000Y-111125000D01*
X194984413Y-110725001D02*
X183914999Y-110725001D01*
X197485000Y-111125000D02*
X195384412Y-111125000D01*
X195384412Y-111125000D02*
X194984413Y-110725001D01*
X169944999Y-110725001D02*
X169545000Y-111125000D01*
X183515000Y-111125000D02*
X182949315Y-111125000D01*
X182549316Y-110725001D02*
X169944999Y-110725001D01*
X182949315Y-111125000D02*
X182549316Y-110725001D01*
X171920001Y-87159999D02*
X172720000Y-86360000D01*
X171305001Y-87774999D02*
X171920001Y-87159999D01*
X171305001Y-109364999D02*
X171305001Y-87774999D01*
X169545000Y-111125000D02*
X171305001Y-109364999D01*
X106915001Y-111524999D02*
X107315000Y-111125000D01*
X106804999Y-111635001D02*
X106915001Y-111524999D01*
X94420686Y-111635001D02*
X106804999Y-111635001D01*
X93910685Y-111125000D02*
X94420686Y-111635001D01*
X93345000Y-111125000D02*
X93910685Y-111125000D01*
X107315000Y-111125000D02*
X121285000Y-111125000D01*
X135654999Y-110725001D02*
X135255000Y-111125000D01*
X136421001Y-109958999D02*
X135654999Y-110725001D01*
X153982999Y-109958999D02*
X136421001Y-109958999D01*
X161434999Y-102506999D02*
X153982999Y-109958999D01*
X161434999Y-100944181D02*
X161434999Y-102506999D01*
X166514999Y-95864181D02*
X161434999Y-100944181D01*
X166514999Y-85819999D02*
X166514999Y-95864181D01*
X167099999Y-85234999D02*
X166514999Y-85819999D01*
X174134999Y-85234999D02*
X167099999Y-85234999D01*
X175260000Y-86360000D02*
X174134999Y-85234999D01*
D22*
X87886431Y-89560000D02*
X86550000Y-89560000D01*
X92374008Y-92095014D02*
X90421445Y-92095014D01*
X94279036Y-90189986D02*
X92374008Y-92095014D01*
X90421445Y-92095014D02*
X87886431Y-89560000D01*
X136719986Y-90189986D02*
X94279036Y-90189986D01*
X137430000Y-90900000D02*
X136719986Y-90189986D01*
X101279999Y-91760001D02*
X100330000Y-92710000D01*
X101840921Y-91199079D02*
X101279999Y-91760001D01*
X102947279Y-91199079D02*
X101840921Y-91199079D01*
X103029100Y-91280900D02*
X102947279Y-91199079D01*
D23*
X104648200Y-92900000D02*
X104478171Y-92729971D01*
X137430000Y-92900000D02*
X104648200Y-92900000D01*
X104478171Y-92729971D02*
X103029100Y-91280900D01*
X106490000Y-93350000D02*
X104461800Y-93350000D01*
X138980000Y-93350000D02*
X138386002Y-93350000D01*
X139430000Y-92900000D02*
X138980000Y-93350000D01*
X138386002Y-93350000D02*
X137886001Y-93850001D01*
X137886001Y-93850001D02*
X136973999Y-93850001D01*
X136973999Y-93850001D02*
X136473998Y-93350000D01*
X136473998Y-93350000D02*
X106490000Y-93350000D01*
D22*
X104452821Y-93358979D02*
X104461800Y-93350000D01*
X103851786Y-93960014D02*
X104452821Y-93358979D01*
X99729992Y-93960014D02*
X103851786Y-93960014D01*
X97790000Y-91440000D02*
X97790000Y-92020022D01*
X97790000Y-92020022D02*
X99729992Y-93960014D01*
M02*
