G04 #@! TF.GenerationSoftware,KiCad,Pcbnew,5.1.5-52549c5~84~ubuntu18.04.1*
G04 #@! TF.CreationDate,2020-06-07T21:39:53-07:00*
G04 #@! TF.ProjectId,debugger,64656275-6767-4657-922e-6b696361645f,rev?*
G04 #@! TF.SameCoordinates,Original*
G04 #@! TF.FileFunction,Copper,L2,Inr*
G04 #@! TF.FilePolarity,Positive*
%FSLAX46Y46*%
G04 Gerber Fmt 4.6, Leading zero omitted, Abs format (unit mm)*
G04 Created by KiCad (PCBNEW 5.1.5-52549c5~84~ubuntu18.04.1) date 2020-06-07 21:39:53*
%MOMM*%
%LPD*%
G04 APERTURE LIST*
%ADD10C,1.600000*%
%ADD11R,1.600000X1.600000*%
%ADD12R,1.300000X1.300000*%
%ADD13C,1.300000*%
%ADD14C,2.600000*%
%ADD15C,1.890000*%
%ADD16C,1.900000*%
%ADD17R,1.900000X1.900000*%
%ADD18C,4.000000*%
%ADD19C,6.000000*%
%ADD20C,0.800000*%
%ADD21C,0.250000*%
G04 APERTURE END LIST*
D10*
X124460000Y-86360000D03*
X127000000Y-86360000D03*
X129540000Y-86360000D03*
X132080000Y-86360000D03*
X134620000Y-86360000D03*
X137160000Y-86360000D03*
X139700000Y-86360000D03*
X142240000Y-86360000D03*
X144780000Y-86360000D03*
X147320000Y-86360000D03*
X149860000Y-86360000D03*
X152400000Y-86360000D03*
X154940000Y-86360000D03*
X157480000Y-86360000D03*
D11*
X124460000Y-101600000D03*
D10*
X127000000Y-101600000D03*
X129540000Y-101600000D03*
X132080000Y-101600000D03*
X134620000Y-101600000D03*
X137160000Y-101600000D03*
X139700000Y-101600000D03*
X142240000Y-101600000D03*
X144780000Y-101600000D03*
X147320000Y-101600000D03*
X149860000Y-101600000D03*
X152400000Y-101600000D03*
X154940000Y-101600000D03*
X160020000Y-86360000D03*
X162560000Y-86360000D03*
X165100000Y-86360000D03*
X167640000Y-86360000D03*
X170180000Y-86360000D03*
X172720000Y-86360000D03*
X175260000Y-86360000D03*
X177800000Y-86360000D03*
X180340000Y-86360000D03*
X182880000Y-86360000D03*
X182880000Y-101600000D03*
X180340000Y-101600000D03*
X177800000Y-101600000D03*
X175260000Y-101600000D03*
X157480000Y-101600000D03*
X160020000Y-101600000D03*
X162560000Y-101600000D03*
X172720000Y-101600000D03*
X170180000Y-101600000D03*
X167640000Y-101600000D03*
X165100000Y-101600000D03*
D12*
X137430000Y-88900000D03*
D13*
X139430000Y-88900000D03*
X137430000Y-90900000D03*
X139430000Y-90900000D03*
X139430000Y-92900000D03*
X137430000Y-92900000D03*
D14*
X94500000Y-103660000D03*
X94500000Y-88110000D03*
D15*
X86550000Y-89560000D03*
X88070000Y-92100000D03*
X86550000Y-99670000D03*
X88070000Y-102210000D03*
D16*
X100330000Y-100330000D03*
X97790000Y-99060000D03*
X100330000Y-97790000D03*
X97790000Y-96520000D03*
X100330000Y-95250000D03*
X97790000Y-93980000D03*
X100330000Y-92710000D03*
D17*
X97790000Y-91440000D03*
D18*
X148120000Y-128420000D03*
X84620000Y-128420000D03*
D10*
X139915000Y-129840000D03*
X137145000Y-129840000D03*
X134375000Y-129840000D03*
X131605000Y-129840000D03*
X128835000Y-129840000D03*
X126065000Y-129840000D03*
X123295000Y-129840000D03*
X120525000Y-129840000D03*
X117755000Y-129840000D03*
X114985000Y-129840000D03*
X112215000Y-129840000D03*
X109445000Y-129840000D03*
X106675000Y-129840000D03*
X103905000Y-129840000D03*
X101135000Y-129840000D03*
X98365000Y-129840000D03*
X95595000Y-129840000D03*
X92825000Y-129840000D03*
X141300000Y-127000000D03*
X138530000Y-127000000D03*
X135760000Y-127000000D03*
X132990000Y-127000000D03*
X130220000Y-127000000D03*
X127450000Y-127000000D03*
X124680000Y-127000000D03*
X121910000Y-127000000D03*
X119140000Y-127000000D03*
X116370000Y-127000000D03*
X113600000Y-127000000D03*
X110830000Y-127000000D03*
X108060000Y-127000000D03*
X105290000Y-127000000D03*
X102520000Y-127000000D03*
X99750000Y-127000000D03*
X96980000Y-127000000D03*
X94210000Y-127000000D03*
D11*
X91440000Y-127000000D03*
D18*
X224320000Y-128420000D03*
X160820000Y-128420000D03*
D10*
X216115000Y-129840000D03*
X213345000Y-129840000D03*
X210575000Y-129840000D03*
X207805000Y-129840000D03*
X205035000Y-129840000D03*
X202265000Y-129840000D03*
X199495000Y-129840000D03*
X196725000Y-129840000D03*
X193955000Y-129840000D03*
X191185000Y-129840000D03*
X188415000Y-129840000D03*
X185645000Y-129840000D03*
X182875000Y-129840000D03*
X180105000Y-129840000D03*
X177335000Y-129840000D03*
X174565000Y-129840000D03*
X171795000Y-129840000D03*
X169025000Y-129840000D03*
X217500000Y-127000000D03*
X214730000Y-127000000D03*
X211960000Y-127000000D03*
X209190000Y-127000000D03*
X206420000Y-127000000D03*
X203650000Y-127000000D03*
X200880000Y-127000000D03*
X198110000Y-127000000D03*
X195340000Y-127000000D03*
X192570000Y-127000000D03*
X189800000Y-127000000D03*
X187030000Y-127000000D03*
X184260000Y-127000000D03*
X181490000Y-127000000D03*
X178720000Y-127000000D03*
X175950000Y-127000000D03*
X173180000Y-127000000D03*
X170410000Y-127000000D03*
D11*
X167640000Y-127000000D03*
D19*
X110490000Y-85090000D03*
X223520000Y-85090000D03*
D20*
X214630000Y-109855000D03*
X186690000Y-109855000D03*
X172720000Y-109855000D03*
X124460000Y-109855000D03*
X99470000Y-110910000D03*
X204470000Y-93726000D03*
X110490000Y-109855000D03*
X203835000Y-109220000D03*
X215804990Y-90900010D03*
X141284000Y-110684000D03*
X214376000Y-93980000D03*
X199644000Y-93980000D03*
X218948000Y-114808000D03*
X208915000Y-112395000D03*
X205232000Y-114808000D03*
X194945000Y-112395000D03*
X191008000Y-114808000D03*
X180975000Y-112395000D03*
X177292000Y-114808000D03*
X167005000Y-112395000D03*
X220685000Y-113325000D03*
X210185000Y-114300000D03*
X206715000Y-113325000D03*
X196215000Y-114300000D03*
X192745000Y-113325000D03*
X182245000Y-114300000D03*
X178775000Y-113325000D03*
X168275000Y-114300000D03*
X133096000Y-98044000D03*
X161036000Y-115824000D03*
X179741999Y-111850001D03*
X142875000Y-116205000D03*
X132715000Y-113665000D03*
X128905000Y-116205000D03*
X118745000Y-113665000D03*
X114935000Y-116205000D03*
X104775000Y-113665000D03*
X101092000Y-116332000D03*
X90805000Y-113665000D03*
X144145000Y-114300000D03*
X133985000Y-115570000D03*
X130175000Y-114300000D03*
X120015000Y-115570000D03*
X116205000Y-114300000D03*
X106045000Y-115570000D03*
X102235000Y-114300000D03*
X92075000Y-115570000D03*
X220345000Y-114300000D03*
X210185000Y-115570000D03*
X206375000Y-114300000D03*
X196215000Y-115570000D03*
X192405000Y-114300000D03*
X182245000Y-115570000D03*
X178435000Y-114300000D03*
X168275000Y-115570000D03*
X142748000Y-114808000D03*
X132715000Y-112395000D03*
X129032000Y-114808000D03*
X118745000Y-112395000D03*
X115316000Y-115275000D03*
X104775000Y-112395000D03*
X101260000Y-115275000D03*
X90805000Y-112395000D03*
X219075000Y-116205000D03*
X208915000Y-113665000D03*
X205105000Y-116205000D03*
X194945000Y-113665000D03*
X191135000Y-116205000D03*
X180975000Y-113665000D03*
X177165000Y-116205000D03*
X167005000Y-113665000D03*
X133985000Y-114300000D03*
X130515000Y-113325000D03*
X120015000Y-114300000D03*
X116545000Y-113325000D03*
X106045000Y-114300000D03*
X102870000Y-113030000D03*
X92075000Y-114300000D03*
X171140000Y-113975000D03*
X172365000Y-115925000D03*
X173355000Y-116205000D03*
X174300000Y-114625000D03*
X185110000Y-113975000D03*
X186335000Y-115925000D03*
X187325000Y-116205000D03*
X188270000Y-114625000D03*
X199080000Y-113975000D03*
X94940000Y-113975000D03*
X142240000Y-81788000D03*
X96165000Y-115925000D03*
X144780000Y-82296000D03*
X97155000Y-116205000D03*
X153416000Y-83312000D03*
X98100000Y-114625000D03*
X151892000Y-83312000D03*
X108910000Y-113975000D03*
X110135000Y-115925000D03*
X111125000Y-116205000D03*
X112070000Y-114625000D03*
X122880000Y-113975000D03*
X135128000Y-94488000D03*
X124105000Y-115925000D03*
X125095000Y-116205000D03*
X126040000Y-114625000D03*
X200305000Y-115925000D03*
X201295000Y-116205000D03*
X202240000Y-114625000D03*
X213050000Y-113975000D03*
X214275000Y-115925000D03*
X215265000Y-116205000D03*
X216210000Y-114625000D03*
X212282000Y-91502000D03*
X197550000Y-91502000D03*
X136850000Y-113975000D03*
X138075000Y-115925000D03*
X140010000Y-114625000D03*
X139065000Y-116205000D03*
X211455000Y-111125000D03*
X197485000Y-111125000D03*
X183515000Y-111125000D03*
X169545000Y-111125000D03*
X135255000Y-111125000D03*
X121285000Y-111125000D03*
X107315000Y-111125000D03*
X93345000Y-111125000D03*
D21*
X213345000Y-128708630D02*
X213345000Y-129840000D01*
X213345000Y-126719998D02*
X213345000Y-128708630D01*
X221860010Y-118204988D02*
X213345000Y-126719998D01*
X221860010Y-101464010D02*
X221860010Y-118204988D01*
X214376000Y-93980000D02*
X221860010Y-101464010D01*
X200209685Y-93980000D02*
X199644000Y-93980000D01*
X221410001Y-117549999D02*
X221410001Y-112386999D01*
X203003002Y-93980000D02*
X200209685Y-93980000D01*
X221410001Y-112386999D02*
X203003002Y-93980000D01*
X211960000Y-127000000D02*
X221410001Y-117549999D01*
X166116000Y-98044000D02*
X177800000Y-86360000D01*
X133096000Y-98044000D02*
X166116000Y-98044000D01*
X220345000Y-114865685D02*
X220345000Y-114300000D01*
X210575000Y-126251410D02*
X220345000Y-116481410D01*
X220345000Y-116481410D02*
X220345000Y-114865685D01*
X210575000Y-129840000D02*
X210575000Y-126251410D01*
X210185000Y-116135685D02*
X210185000Y-115570000D01*
X207805000Y-121953000D02*
X210185000Y-119573000D01*
X210185000Y-119573000D02*
X210185000Y-116135685D01*
X207805000Y-129840000D02*
X207805000Y-121953000D01*
X206375000Y-116008002D02*
X206375000Y-114865685D01*
X205035000Y-117348002D02*
X206375000Y-116008002D01*
X206375000Y-114865685D02*
X206375000Y-114300000D01*
X205035000Y-129840000D02*
X205035000Y-117348002D01*
X202265000Y-129840000D02*
X202265000Y-125049000D01*
X196215000Y-118999000D02*
X196215000Y-115570000D01*
X202265000Y-125049000D02*
X196215000Y-118999000D01*
X192405000Y-119629998D02*
X192405000Y-114300000D01*
X199495000Y-129840000D02*
X199495000Y-126719998D01*
X199495000Y-126719998D02*
X192405000Y-119629998D01*
X196725000Y-126719998D02*
X189849971Y-119844969D01*
X196725000Y-129840000D02*
X196725000Y-126719998D01*
X186519969Y-119844969D02*
X182245000Y-115570000D01*
X189849971Y-119844969D02*
X186519969Y-119844969D01*
X193955000Y-126719998D02*
X187979991Y-120744989D01*
X193955000Y-129840000D02*
X193955000Y-126719998D01*
X185315401Y-120744989D02*
X180902412Y-116332000D01*
X187979991Y-120744989D02*
X185315401Y-120744989D01*
X180467000Y-116332000D02*
X178435000Y-114300000D01*
X180902412Y-116332000D02*
X180467000Y-116332000D01*
X188415000Y-126719998D02*
X179551002Y-117856000D01*
X188415000Y-129840000D02*
X188415000Y-126719998D01*
X179551002Y-117856000D02*
X145751000Y-117856000D01*
X145751000Y-117811000D02*
X142748000Y-114808000D01*
X145751000Y-117856000D02*
X145751000Y-117811000D01*
X185645000Y-126719998D02*
X185645000Y-129840000D01*
X177797002Y-118872000D02*
X185645000Y-126719998D01*
X131989999Y-116749999D02*
X134112000Y-118872000D01*
X134112000Y-118872000D02*
X177797002Y-118872000D01*
X132715000Y-112395000D02*
X131989999Y-113120001D01*
X131989999Y-113120001D02*
X131989999Y-116749999D01*
X182875000Y-126719998D02*
X175929912Y-119774910D01*
X182875000Y-129840000D02*
X182875000Y-126719998D01*
X175929912Y-119774910D02*
X133699910Y-119774910D01*
X129431999Y-115207999D02*
X129032000Y-114808000D01*
X129431999Y-115506999D02*
X129431999Y-115207999D01*
X133699910Y-119774910D02*
X129431999Y-115506999D01*
X118345001Y-112794999D02*
X118745000Y-112395000D01*
X180105000Y-129840000D02*
X180105000Y-126719998D01*
X180105000Y-126719998D02*
X174059932Y-120674930D01*
X174059932Y-120674930D02*
X124046928Y-120674930D01*
X118019999Y-113120001D02*
X118345001Y-112794999D01*
X124046928Y-120674930D02*
X118019999Y-114648001D01*
X118019999Y-114648001D02*
X118019999Y-113120001D01*
X177335000Y-126719998D02*
X172189952Y-121574950D01*
X177335000Y-129840000D02*
X177335000Y-126719998D01*
X121529950Y-121574950D02*
X115230000Y-115275000D01*
X172189952Y-121574950D02*
X121529950Y-121574950D01*
X174565000Y-126719998D02*
X170319972Y-122474970D01*
X174565000Y-129840000D02*
X174565000Y-126719998D01*
X104375001Y-112794999D02*
X104775000Y-112395000D01*
X104049999Y-114648001D02*
X104049999Y-113120001D01*
X104049999Y-113120001D02*
X104375001Y-112794999D01*
X111876968Y-122474970D02*
X104049999Y-114648001D01*
X170319972Y-122474970D02*
X111876968Y-122474970D01*
X171795000Y-126617220D02*
X168552770Y-123374990D01*
X171795000Y-129840000D02*
X171795000Y-126617220D01*
X109359990Y-123374990D02*
X101260000Y-115275000D01*
X168552770Y-123374990D02*
X109359990Y-123374990D01*
X169025000Y-126199998D02*
X167285002Y-124460000D01*
X169025000Y-129840000D02*
X169025000Y-126199998D01*
X90405001Y-112794999D02*
X90805000Y-112395000D01*
X90079999Y-113120001D02*
X90405001Y-112794999D01*
X99891998Y-124460000D02*
X90079999Y-114648001D01*
X167285002Y-124460000D02*
X99891998Y-124460000D01*
X90079999Y-114648001D02*
X90079999Y-113120001D01*
X219075000Y-117115000D02*
X219075000Y-116205000D01*
X209190000Y-127000000D02*
X219075000Y-117115000D01*
X206420000Y-127000000D02*
X206420000Y-122600000D01*
X208915000Y-120105000D02*
X208915000Y-113665000D01*
X206420000Y-122600000D02*
X208915000Y-120105000D01*
X203650000Y-117660000D02*
X205105000Y-116205000D01*
X203650000Y-127000000D02*
X203650000Y-117660000D01*
X200880000Y-127000000D02*
X200880000Y-125188000D01*
X194945000Y-119253000D02*
X194945000Y-113665000D01*
X200880000Y-125188000D02*
X194945000Y-119253000D01*
X198110000Y-127000000D02*
X193548000Y-122438000D01*
X193548000Y-122438000D02*
X193548000Y-122428000D01*
X191135000Y-120015000D02*
X191135000Y-116205000D01*
X193548000Y-122428000D02*
X191135000Y-120015000D01*
X195340000Y-127000000D02*
X188634979Y-120294979D01*
X180975000Y-114230685D02*
X180975000Y-113665000D01*
X180975000Y-115768178D02*
X180975000Y-114230685D01*
X185501801Y-120294979D02*
X180975000Y-115768178D01*
X188634979Y-120294979D02*
X185501801Y-120294979D01*
X187292001Y-121194999D02*
X185129001Y-121194999D01*
X192570000Y-127000000D02*
X192570000Y-126472998D01*
X192570000Y-126472998D02*
X187292001Y-121194999D01*
X185129001Y-121194999D02*
X182372000Y-118437998D01*
X181874408Y-118437998D02*
X180276410Y-116840000D01*
X182372000Y-118437998D02*
X181874408Y-118437998D01*
X177800000Y-116840000D02*
X177165000Y-116205000D01*
X180276410Y-116840000D02*
X177800000Y-116840000D01*
X189800000Y-127000000D02*
X180148000Y-117348000D01*
X167005000Y-115373002D02*
X168979998Y-117348000D01*
X167005000Y-113665000D02*
X167005000Y-115373002D01*
X168979998Y-117348000D02*
X180148000Y-117348000D01*
X187030000Y-127000000D02*
X178394000Y-118364000D01*
X138049000Y-118364000D02*
X133985000Y-114300000D01*
X178394000Y-118364000D02*
X138049000Y-118364000D01*
X184260000Y-127000000D02*
X176584900Y-119324900D01*
X176584900Y-119324900D02*
X133886310Y-119324900D01*
X133886310Y-119324900D02*
X130914999Y-116353589D01*
X130914999Y-113724999D02*
X130515000Y-113325000D01*
X130914999Y-116353589D02*
X130914999Y-113724999D01*
X181490000Y-127000000D02*
X174714920Y-120224920D01*
X125939920Y-120224920D02*
X120015000Y-114300000D01*
X174714920Y-120224920D02*
X125939920Y-120224920D01*
X116944999Y-113724999D02*
X116545000Y-113325000D01*
X116944999Y-114209411D02*
X116944999Y-113724999D01*
X123860527Y-121124939D02*
X116944999Y-114209411D01*
X172844940Y-121124940D02*
X123860527Y-121124939D01*
X178720000Y-127000000D02*
X172844940Y-121124940D01*
X170974960Y-122024960D02*
X112063368Y-122024960D01*
X175950000Y-127000000D02*
X170974960Y-122024960D01*
X106045000Y-114300000D02*
X108684204Y-116939204D01*
X108684204Y-118645796D02*
X112063368Y-122024960D01*
X108684204Y-116939204D02*
X108684204Y-118645796D01*
X103269999Y-113429999D02*
X102870000Y-113030000D01*
X103269999Y-116648589D02*
X103269999Y-113429999D01*
X109546390Y-122924980D02*
X103269999Y-116648589D01*
X169104980Y-122924980D02*
X109546390Y-122924980D01*
X173180000Y-127000000D02*
X169104980Y-122924980D01*
X170410000Y-125868630D02*
X168366370Y-123825000D01*
X170410000Y-127000000D02*
X170410000Y-125868630D01*
X101600000Y-123825000D02*
X92075000Y-114300000D01*
X168366370Y-123825000D02*
X101600000Y-123825000D01*
X171140000Y-111646998D02*
X169323072Y-109830070D01*
X171140000Y-113975000D02*
X171140000Y-111646998D01*
X135230070Y-109830070D02*
X127000000Y-101600000D01*
X169323072Y-109830070D02*
X135230070Y-109830070D01*
X172365000Y-111209412D02*
X170535648Y-109380060D01*
X172365000Y-115925000D02*
X172365000Y-111209412D01*
X137320060Y-109380060D02*
X129540000Y-101600000D01*
X170535648Y-109380060D02*
X137320060Y-109380060D01*
X173355000Y-111563002D02*
X171704000Y-109912002D01*
X173355000Y-116205000D02*
X173355000Y-111563002D01*
X171704000Y-109728000D02*
X170906050Y-108930050D01*
X171704000Y-109912002D02*
X171704000Y-109728000D01*
X139410050Y-108930050D02*
X132080000Y-101600000D01*
X170906050Y-108930050D02*
X139410050Y-108930050D01*
X174300000Y-110361998D02*
X172418042Y-108480040D01*
X174300000Y-114625000D02*
X174300000Y-110361998D01*
X141500040Y-108480040D02*
X134620000Y-101600000D01*
X172418042Y-108480040D02*
X141500040Y-108480040D01*
X185110000Y-113975000D02*
X185110000Y-108402000D01*
X185110000Y-108402000D02*
X184738030Y-108030030D01*
X143590030Y-108030030D02*
X137160000Y-101600000D01*
X184738030Y-108030030D02*
X143590030Y-108030030D01*
X186335000Y-114164999D02*
X185928000Y-113757999D01*
X186335000Y-115925000D02*
X186335000Y-114164999D01*
X185928000Y-108204000D02*
X185304020Y-107580020D01*
X185928000Y-113757999D02*
X185928000Y-108204000D01*
X145680020Y-107580020D02*
X139700000Y-101600000D01*
X185304020Y-107580020D02*
X145680020Y-107580020D01*
X187415001Y-111473001D02*
X187415001Y-107659001D01*
X187325000Y-116205000D02*
X187325000Y-111563002D01*
X187325000Y-111563002D02*
X187415001Y-111473001D01*
X187415001Y-107659001D02*
X186886010Y-107130010D01*
X147770010Y-107130010D02*
X142240000Y-101600000D01*
X186886010Y-107130010D02*
X147770010Y-107130010D01*
X188270000Y-114625000D02*
X188270000Y-107498000D01*
X188270000Y-107498000D02*
X187452000Y-106680000D01*
X149860000Y-106680000D02*
X144780000Y-101600000D01*
X187452000Y-106680000D02*
X149860000Y-106680000D01*
X199080000Y-113975000D02*
X199080000Y-107132000D01*
X199080000Y-107132000D02*
X198120000Y-106172000D01*
X151892000Y-106172000D02*
X147320000Y-101600000D01*
X198120000Y-106172000D02*
X151892000Y-106172000D01*
X94940000Y-110396538D02*
X122801599Y-82534939D01*
X94940000Y-113975000D02*
X94940000Y-110396538D01*
X122801599Y-82534939D02*
X141493061Y-82534939D01*
X141493061Y-82534939D02*
X142240000Y-81788000D01*
X142240000Y-81788000D02*
X142240000Y-81788000D01*
X96165000Y-109807948D02*
X122987999Y-82984949D01*
X96165000Y-115925000D02*
X96165000Y-109807948D01*
X122987999Y-82984949D02*
X144091051Y-82984949D01*
X144091051Y-82984949D02*
X144780000Y-82296000D01*
X144780000Y-82296000D02*
X144780000Y-82296000D01*
X97155000Y-109454358D02*
X123174399Y-83434959D01*
X97155000Y-116205000D02*
X97155000Y-109454358D01*
X123174399Y-83434959D02*
X149737041Y-83434959D01*
X150585001Y-82586999D02*
X152690999Y-82586999D01*
X149737041Y-83434959D02*
X150585001Y-82586999D01*
X152690999Y-82586999D02*
X153416000Y-83312000D01*
X153416000Y-83312000D02*
X153416000Y-83312000D01*
X98100000Y-109145768D02*
X123360799Y-83884969D01*
X98100000Y-114625000D02*
X98100000Y-109145768D01*
X123360799Y-83884969D02*
X151319031Y-83884969D01*
X151319031Y-83884969D02*
X151892000Y-83312000D01*
X164300001Y-85560001D02*
X165100000Y-86360000D01*
X163074979Y-84334979D02*
X164300001Y-85560001D01*
X123547199Y-84334979D02*
X163074979Y-84334979D01*
X108910000Y-98972178D02*
X123547199Y-84334979D01*
X108910000Y-113975000D02*
X108910000Y-98972178D01*
X161760001Y-85560001D02*
X162560000Y-86360000D01*
X109735001Y-98783587D02*
X123733599Y-84784989D01*
X123733599Y-84784989D02*
X160984989Y-84784989D01*
X109735001Y-115525001D02*
X109735001Y-98783587D01*
X160984989Y-84784989D02*
X161760001Y-85560001D01*
X110135000Y-115925000D02*
X109735001Y-115525001D01*
X147320000Y-87491370D02*
X147320000Y-86360000D01*
X139598369Y-95213001D02*
X147320000Y-87491370D01*
X131721997Y-95213001D02*
X139598369Y-95213001D01*
X125585001Y-101349997D02*
X131721997Y-95213001D01*
X125585001Y-102660001D02*
X125585001Y-101349997D01*
X112040002Y-116205000D02*
X125585001Y-102660001D01*
X111125000Y-116205000D02*
X112040002Y-116205000D01*
X149060001Y-85560001D02*
X149860000Y-86360000D01*
X123919999Y-85234999D02*
X148734999Y-85234999D01*
X148734999Y-85234999D02*
X149060001Y-85560001D01*
X112070000Y-97084998D02*
X123919999Y-85234999D01*
X112070000Y-114625000D02*
X112070000Y-97084998D01*
X135128000Y-86868000D02*
X134620000Y-86360000D01*
X135128000Y-94488000D02*
X135128000Y-86868000D01*
X200305000Y-115925000D02*
X200305000Y-106453410D01*
X200305000Y-106453410D02*
X199515590Y-105664000D01*
X153924000Y-105664000D02*
X149860000Y-101600000D01*
X199515590Y-105664000D02*
X153924000Y-105664000D01*
X201295000Y-116205000D02*
X201295000Y-106807000D01*
X201295000Y-106807000D02*
X199644000Y-105156000D01*
X155956000Y-105156000D02*
X152400000Y-101600000D01*
X199644000Y-105156000D02*
X155956000Y-105156000D01*
X202240000Y-114625000D02*
X202240000Y-106736000D01*
X202240000Y-106736000D02*
X200174040Y-104670040D01*
X158010040Y-104670040D02*
X154940000Y-101600000D01*
X200174040Y-104670040D02*
X158010040Y-104670040D01*
X213050000Y-113975000D02*
X213050000Y-108279230D01*
X213050000Y-108279230D02*
X208990800Y-104220030D01*
X160100030Y-104220030D02*
X157480000Y-101600000D01*
X208990800Y-104220030D02*
X160100030Y-104220030D01*
X213875001Y-115525001D02*
X213875001Y-108467821D01*
X214275000Y-115925000D02*
X213875001Y-115525001D01*
X213875001Y-108467821D02*
X209177200Y-103770020D01*
X164730020Y-103770020D02*
X162560000Y-101600000D01*
X209177200Y-103770020D02*
X164730020Y-103770020D01*
X166820010Y-103320010D02*
X165100000Y-101600000D01*
X215355001Y-109311411D02*
X209363600Y-103320010D01*
X209363600Y-103320010D02*
X166820010Y-103320010D01*
X215355001Y-115549314D02*
X215355001Y-109311411D01*
X215265000Y-116205000D02*
X215265000Y-115639315D01*
X215265000Y-115639315D02*
X215355001Y-115549314D01*
X216210000Y-114625000D02*
X216210000Y-109530000D01*
X216210000Y-109530000D02*
X209550000Y-102870000D01*
X173990000Y-102870000D02*
X172720000Y-101600000D01*
X209550000Y-102870000D02*
X173990000Y-102870000D01*
X134855001Y-110725001D02*
X135255000Y-111125000D01*
X121850685Y-111125000D02*
X122250684Y-110725001D01*
X122250684Y-110725001D02*
X134855001Y-110725001D01*
X121285000Y-111125000D02*
X121850685Y-111125000D01*
M02*
