G04 #@! TF.GenerationSoftware,KiCad,Pcbnew,5.1.5-52549c5~84~ubuntu18.04.1*
G04 #@! TF.CreationDate,2020-06-07T21:39:53-07:00*
G04 #@! TF.ProjectId,debugger,64656275-6767-4657-922e-6b696361645f,rev?*
G04 #@! TF.SameCoordinates,Original*
G04 #@! TF.FileFunction,Soldermask,Top*
G04 #@! TF.FilePolarity,Negative*
%FSLAX46Y46*%
G04 Gerber Fmt 4.6, Leading zero omitted, Abs format (unit mm)*
G04 Created by KiCad (PCBNEW 5.1.5-52549c5~84~ubuntu18.04.1) date 2020-06-07 21:39:53*
%MOMM*%
%LPD*%
G04 APERTURE LIST*
%ADD10C,0.100000*%
G04 APERTURE END LIST*
D10*
G36*
X112463228Y-129021703D02*
G01*
X112618100Y-129085853D01*
X112757481Y-129178985D01*
X112876015Y-129297519D01*
X112969147Y-129436900D01*
X113033297Y-129591772D01*
X113066000Y-129756184D01*
X113066000Y-129923816D01*
X113033297Y-130088228D01*
X112969147Y-130243100D01*
X112876015Y-130382481D01*
X112757481Y-130501015D01*
X112618100Y-130594147D01*
X112463228Y-130658297D01*
X112298816Y-130691000D01*
X112131184Y-130691000D01*
X111966772Y-130658297D01*
X111811900Y-130594147D01*
X111672519Y-130501015D01*
X111553985Y-130382481D01*
X111460853Y-130243100D01*
X111396703Y-130088228D01*
X111364000Y-129923816D01*
X111364000Y-129756184D01*
X111396703Y-129591772D01*
X111460853Y-129436900D01*
X111553985Y-129297519D01*
X111672519Y-129178985D01*
X111811900Y-129085853D01*
X111966772Y-129021703D01*
X112131184Y-128989000D01*
X112298816Y-128989000D01*
X112463228Y-129021703D01*
G37*
G36*
X140163228Y-129021703D02*
G01*
X140318100Y-129085853D01*
X140457481Y-129178985D01*
X140576015Y-129297519D01*
X140669147Y-129436900D01*
X140733297Y-129591772D01*
X140766000Y-129756184D01*
X140766000Y-129923816D01*
X140733297Y-130088228D01*
X140669147Y-130243100D01*
X140576015Y-130382481D01*
X140457481Y-130501015D01*
X140318100Y-130594147D01*
X140163228Y-130658297D01*
X139998816Y-130691000D01*
X139831184Y-130691000D01*
X139666772Y-130658297D01*
X139511900Y-130594147D01*
X139372519Y-130501015D01*
X139253985Y-130382481D01*
X139160853Y-130243100D01*
X139096703Y-130088228D01*
X139064000Y-129923816D01*
X139064000Y-129756184D01*
X139096703Y-129591772D01*
X139160853Y-129436900D01*
X139253985Y-129297519D01*
X139372519Y-129178985D01*
X139511900Y-129085853D01*
X139666772Y-129021703D01*
X139831184Y-128989000D01*
X139998816Y-128989000D01*
X140163228Y-129021703D01*
G37*
G36*
X137393228Y-129021703D02*
G01*
X137548100Y-129085853D01*
X137687481Y-129178985D01*
X137806015Y-129297519D01*
X137899147Y-129436900D01*
X137963297Y-129591772D01*
X137996000Y-129756184D01*
X137996000Y-129923816D01*
X137963297Y-130088228D01*
X137899147Y-130243100D01*
X137806015Y-130382481D01*
X137687481Y-130501015D01*
X137548100Y-130594147D01*
X137393228Y-130658297D01*
X137228816Y-130691000D01*
X137061184Y-130691000D01*
X136896772Y-130658297D01*
X136741900Y-130594147D01*
X136602519Y-130501015D01*
X136483985Y-130382481D01*
X136390853Y-130243100D01*
X136326703Y-130088228D01*
X136294000Y-129923816D01*
X136294000Y-129756184D01*
X136326703Y-129591772D01*
X136390853Y-129436900D01*
X136483985Y-129297519D01*
X136602519Y-129178985D01*
X136741900Y-129085853D01*
X136896772Y-129021703D01*
X137061184Y-128989000D01*
X137228816Y-128989000D01*
X137393228Y-129021703D01*
G37*
G36*
X134623228Y-129021703D02*
G01*
X134778100Y-129085853D01*
X134917481Y-129178985D01*
X135036015Y-129297519D01*
X135129147Y-129436900D01*
X135193297Y-129591772D01*
X135226000Y-129756184D01*
X135226000Y-129923816D01*
X135193297Y-130088228D01*
X135129147Y-130243100D01*
X135036015Y-130382481D01*
X134917481Y-130501015D01*
X134778100Y-130594147D01*
X134623228Y-130658297D01*
X134458816Y-130691000D01*
X134291184Y-130691000D01*
X134126772Y-130658297D01*
X133971900Y-130594147D01*
X133832519Y-130501015D01*
X133713985Y-130382481D01*
X133620853Y-130243100D01*
X133556703Y-130088228D01*
X133524000Y-129923816D01*
X133524000Y-129756184D01*
X133556703Y-129591772D01*
X133620853Y-129436900D01*
X133713985Y-129297519D01*
X133832519Y-129178985D01*
X133971900Y-129085853D01*
X134126772Y-129021703D01*
X134291184Y-128989000D01*
X134458816Y-128989000D01*
X134623228Y-129021703D01*
G37*
G36*
X131853228Y-129021703D02*
G01*
X132008100Y-129085853D01*
X132147481Y-129178985D01*
X132266015Y-129297519D01*
X132359147Y-129436900D01*
X132423297Y-129591772D01*
X132456000Y-129756184D01*
X132456000Y-129923816D01*
X132423297Y-130088228D01*
X132359147Y-130243100D01*
X132266015Y-130382481D01*
X132147481Y-130501015D01*
X132008100Y-130594147D01*
X131853228Y-130658297D01*
X131688816Y-130691000D01*
X131521184Y-130691000D01*
X131356772Y-130658297D01*
X131201900Y-130594147D01*
X131062519Y-130501015D01*
X130943985Y-130382481D01*
X130850853Y-130243100D01*
X130786703Y-130088228D01*
X130754000Y-129923816D01*
X130754000Y-129756184D01*
X130786703Y-129591772D01*
X130850853Y-129436900D01*
X130943985Y-129297519D01*
X131062519Y-129178985D01*
X131201900Y-129085853D01*
X131356772Y-129021703D01*
X131521184Y-128989000D01*
X131688816Y-128989000D01*
X131853228Y-129021703D01*
G37*
G36*
X129083228Y-129021703D02*
G01*
X129238100Y-129085853D01*
X129377481Y-129178985D01*
X129496015Y-129297519D01*
X129589147Y-129436900D01*
X129653297Y-129591772D01*
X129686000Y-129756184D01*
X129686000Y-129923816D01*
X129653297Y-130088228D01*
X129589147Y-130243100D01*
X129496015Y-130382481D01*
X129377481Y-130501015D01*
X129238100Y-130594147D01*
X129083228Y-130658297D01*
X128918816Y-130691000D01*
X128751184Y-130691000D01*
X128586772Y-130658297D01*
X128431900Y-130594147D01*
X128292519Y-130501015D01*
X128173985Y-130382481D01*
X128080853Y-130243100D01*
X128016703Y-130088228D01*
X127984000Y-129923816D01*
X127984000Y-129756184D01*
X128016703Y-129591772D01*
X128080853Y-129436900D01*
X128173985Y-129297519D01*
X128292519Y-129178985D01*
X128431900Y-129085853D01*
X128586772Y-129021703D01*
X128751184Y-128989000D01*
X128918816Y-128989000D01*
X129083228Y-129021703D01*
G37*
G36*
X126313228Y-129021703D02*
G01*
X126468100Y-129085853D01*
X126607481Y-129178985D01*
X126726015Y-129297519D01*
X126819147Y-129436900D01*
X126883297Y-129591772D01*
X126916000Y-129756184D01*
X126916000Y-129923816D01*
X126883297Y-130088228D01*
X126819147Y-130243100D01*
X126726015Y-130382481D01*
X126607481Y-130501015D01*
X126468100Y-130594147D01*
X126313228Y-130658297D01*
X126148816Y-130691000D01*
X125981184Y-130691000D01*
X125816772Y-130658297D01*
X125661900Y-130594147D01*
X125522519Y-130501015D01*
X125403985Y-130382481D01*
X125310853Y-130243100D01*
X125246703Y-130088228D01*
X125214000Y-129923816D01*
X125214000Y-129756184D01*
X125246703Y-129591772D01*
X125310853Y-129436900D01*
X125403985Y-129297519D01*
X125522519Y-129178985D01*
X125661900Y-129085853D01*
X125816772Y-129021703D01*
X125981184Y-128989000D01*
X126148816Y-128989000D01*
X126313228Y-129021703D01*
G37*
G36*
X123543228Y-129021703D02*
G01*
X123698100Y-129085853D01*
X123837481Y-129178985D01*
X123956015Y-129297519D01*
X124049147Y-129436900D01*
X124113297Y-129591772D01*
X124146000Y-129756184D01*
X124146000Y-129923816D01*
X124113297Y-130088228D01*
X124049147Y-130243100D01*
X123956015Y-130382481D01*
X123837481Y-130501015D01*
X123698100Y-130594147D01*
X123543228Y-130658297D01*
X123378816Y-130691000D01*
X123211184Y-130691000D01*
X123046772Y-130658297D01*
X122891900Y-130594147D01*
X122752519Y-130501015D01*
X122633985Y-130382481D01*
X122540853Y-130243100D01*
X122476703Y-130088228D01*
X122444000Y-129923816D01*
X122444000Y-129756184D01*
X122476703Y-129591772D01*
X122540853Y-129436900D01*
X122633985Y-129297519D01*
X122752519Y-129178985D01*
X122891900Y-129085853D01*
X123046772Y-129021703D01*
X123211184Y-128989000D01*
X123378816Y-128989000D01*
X123543228Y-129021703D01*
G37*
G36*
X120773228Y-129021703D02*
G01*
X120928100Y-129085853D01*
X121067481Y-129178985D01*
X121186015Y-129297519D01*
X121279147Y-129436900D01*
X121343297Y-129591772D01*
X121376000Y-129756184D01*
X121376000Y-129923816D01*
X121343297Y-130088228D01*
X121279147Y-130243100D01*
X121186015Y-130382481D01*
X121067481Y-130501015D01*
X120928100Y-130594147D01*
X120773228Y-130658297D01*
X120608816Y-130691000D01*
X120441184Y-130691000D01*
X120276772Y-130658297D01*
X120121900Y-130594147D01*
X119982519Y-130501015D01*
X119863985Y-130382481D01*
X119770853Y-130243100D01*
X119706703Y-130088228D01*
X119674000Y-129923816D01*
X119674000Y-129756184D01*
X119706703Y-129591772D01*
X119770853Y-129436900D01*
X119863985Y-129297519D01*
X119982519Y-129178985D01*
X120121900Y-129085853D01*
X120276772Y-129021703D01*
X120441184Y-128989000D01*
X120608816Y-128989000D01*
X120773228Y-129021703D01*
G37*
G36*
X118003228Y-129021703D02*
G01*
X118158100Y-129085853D01*
X118297481Y-129178985D01*
X118416015Y-129297519D01*
X118509147Y-129436900D01*
X118573297Y-129591772D01*
X118606000Y-129756184D01*
X118606000Y-129923816D01*
X118573297Y-130088228D01*
X118509147Y-130243100D01*
X118416015Y-130382481D01*
X118297481Y-130501015D01*
X118158100Y-130594147D01*
X118003228Y-130658297D01*
X117838816Y-130691000D01*
X117671184Y-130691000D01*
X117506772Y-130658297D01*
X117351900Y-130594147D01*
X117212519Y-130501015D01*
X117093985Y-130382481D01*
X117000853Y-130243100D01*
X116936703Y-130088228D01*
X116904000Y-129923816D01*
X116904000Y-129756184D01*
X116936703Y-129591772D01*
X117000853Y-129436900D01*
X117093985Y-129297519D01*
X117212519Y-129178985D01*
X117351900Y-129085853D01*
X117506772Y-129021703D01*
X117671184Y-128989000D01*
X117838816Y-128989000D01*
X118003228Y-129021703D01*
G37*
G36*
X213593228Y-129021703D02*
G01*
X213748100Y-129085853D01*
X213887481Y-129178985D01*
X214006015Y-129297519D01*
X214099147Y-129436900D01*
X214163297Y-129591772D01*
X214196000Y-129756184D01*
X214196000Y-129923816D01*
X214163297Y-130088228D01*
X214099147Y-130243100D01*
X214006015Y-130382481D01*
X213887481Y-130501015D01*
X213748100Y-130594147D01*
X213593228Y-130658297D01*
X213428816Y-130691000D01*
X213261184Y-130691000D01*
X213096772Y-130658297D01*
X212941900Y-130594147D01*
X212802519Y-130501015D01*
X212683985Y-130382481D01*
X212590853Y-130243100D01*
X212526703Y-130088228D01*
X212494000Y-129923816D01*
X212494000Y-129756184D01*
X212526703Y-129591772D01*
X212590853Y-129436900D01*
X212683985Y-129297519D01*
X212802519Y-129178985D01*
X212941900Y-129085853D01*
X213096772Y-129021703D01*
X213261184Y-128989000D01*
X213428816Y-128989000D01*
X213593228Y-129021703D01*
G37*
G36*
X109693228Y-129021703D02*
G01*
X109848100Y-129085853D01*
X109987481Y-129178985D01*
X110106015Y-129297519D01*
X110199147Y-129436900D01*
X110263297Y-129591772D01*
X110296000Y-129756184D01*
X110296000Y-129923816D01*
X110263297Y-130088228D01*
X110199147Y-130243100D01*
X110106015Y-130382481D01*
X109987481Y-130501015D01*
X109848100Y-130594147D01*
X109693228Y-130658297D01*
X109528816Y-130691000D01*
X109361184Y-130691000D01*
X109196772Y-130658297D01*
X109041900Y-130594147D01*
X108902519Y-130501015D01*
X108783985Y-130382481D01*
X108690853Y-130243100D01*
X108626703Y-130088228D01*
X108594000Y-129923816D01*
X108594000Y-129756184D01*
X108626703Y-129591772D01*
X108690853Y-129436900D01*
X108783985Y-129297519D01*
X108902519Y-129178985D01*
X109041900Y-129085853D01*
X109196772Y-129021703D01*
X109361184Y-128989000D01*
X109528816Y-128989000D01*
X109693228Y-129021703D01*
G37*
G36*
X106923228Y-129021703D02*
G01*
X107078100Y-129085853D01*
X107217481Y-129178985D01*
X107336015Y-129297519D01*
X107429147Y-129436900D01*
X107493297Y-129591772D01*
X107526000Y-129756184D01*
X107526000Y-129923816D01*
X107493297Y-130088228D01*
X107429147Y-130243100D01*
X107336015Y-130382481D01*
X107217481Y-130501015D01*
X107078100Y-130594147D01*
X106923228Y-130658297D01*
X106758816Y-130691000D01*
X106591184Y-130691000D01*
X106426772Y-130658297D01*
X106271900Y-130594147D01*
X106132519Y-130501015D01*
X106013985Y-130382481D01*
X105920853Y-130243100D01*
X105856703Y-130088228D01*
X105824000Y-129923816D01*
X105824000Y-129756184D01*
X105856703Y-129591772D01*
X105920853Y-129436900D01*
X106013985Y-129297519D01*
X106132519Y-129178985D01*
X106271900Y-129085853D01*
X106426772Y-129021703D01*
X106591184Y-128989000D01*
X106758816Y-128989000D01*
X106923228Y-129021703D01*
G37*
G36*
X104153228Y-129021703D02*
G01*
X104308100Y-129085853D01*
X104447481Y-129178985D01*
X104566015Y-129297519D01*
X104659147Y-129436900D01*
X104723297Y-129591772D01*
X104756000Y-129756184D01*
X104756000Y-129923816D01*
X104723297Y-130088228D01*
X104659147Y-130243100D01*
X104566015Y-130382481D01*
X104447481Y-130501015D01*
X104308100Y-130594147D01*
X104153228Y-130658297D01*
X103988816Y-130691000D01*
X103821184Y-130691000D01*
X103656772Y-130658297D01*
X103501900Y-130594147D01*
X103362519Y-130501015D01*
X103243985Y-130382481D01*
X103150853Y-130243100D01*
X103086703Y-130088228D01*
X103054000Y-129923816D01*
X103054000Y-129756184D01*
X103086703Y-129591772D01*
X103150853Y-129436900D01*
X103243985Y-129297519D01*
X103362519Y-129178985D01*
X103501900Y-129085853D01*
X103656772Y-129021703D01*
X103821184Y-128989000D01*
X103988816Y-128989000D01*
X104153228Y-129021703D01*
G37*
G36*
X101383228Y-129021703D02*
G01*
X101538100Y-129085853D01*
X101677481Y-129178985D01*
X101796015Y-129297519D01*
X101889147Y-129436900D01*
X101953297Y-129591772D01*
X101986000Y-129756184D01*
X101986000Y-129923816D01*
X101953297Y-130088228D01*
X101889147Y-130243100D01*
X101796015Y-130382481D01*
X101677481Y-130501015D01*
X101538100Y-130594147D01*
X101383228Y-130658297D01*
X101218816Y-130691000D01*
X101051184Y-130691000D01*
X100886772Y-130658297D01*
X100731900Y-130594147D01*
X100592519Y-130501015D01*
X100473985Y-130382481D01*
X100380853Y-130243100D01*
X100316703Y-130088228D01*
X100284000Y-129923816D01*
X100284000Y-129756184D01*
X100316703Y-129591772D01*
X100380853Y-129436900D01*
X100473985Y-129297519D01*
X100592519Y-129178985D01*
X100731900Y-129085853D01*
X100886772Y-129021703D01*
X101051184Y-128989000D01*
X101218816Y-128989000D01*
X101383228Y-129021703D01*
G37*
G36*
X98613228Y-129021703D02*
G01*
X98768100Y-129085853D01*
X98907481Y-129178985D01*
X99026015Y-129297519D01*
X99119147Y-129436900D01*
X99183297Y-129591772D01*
X99216000Y-129756184D01*
X99216000Y-129923816D01*
X99183297Y-130088228D01*
X99119147Y-130243100D01*
X99026015Y-130382481D01*
X98907481Y-130501015D01*
X98768100Y-130594147D01*
X98613228Y-130658297D01*
X98448816Y-130691000D01*
X98281184Y-130691000D01*
X98116772Y-130658297D01*
X97961900Y-130594147D01*
X97822519Y-130501015D01*
X97703985Y-130382481D01*
X97610853Y-130243100D01*
X97546703Y-130088228D01*
X97514000Y-129923816D01*
X97514000Y-129756184D01*
X97546703Y-129591772D01*
X97610853Y-129436900D01*
X97703985Y-129297519D01*
X97822519Y-129178985D01*
X97961900Y-129085853D01*
X98116772Y-129021703D01*
X98281184Y-128989000D01*
X98448816Y-128989000D01*
X98613228Y-129021703D01*
G37*
G36*
X95843228Y-129021703D02*
G01*
X95998100Y-129085853D01*
X96137481Y-129178985D01*
X96256015Y-129297519D01*
X96349147Y-129436900D01*
X96413297Y-129591772D01*
X96446000Y-129756184D01*
X96446000Y-129923816D01*
X96413297Y-130088228D01*
X96349147Y-130243100D01*
X96256015Y-130382481D01*
X96137481Y-130501015D01*
X95998100Y-130594147D01*
X95843228Y-130658297D01*
X95678816Y-130691000D01*
X95511184Y-130691000D01*
X95346772Y-130658297D01*
X95191900Y-130594147D01*
X95052519Y-130501015D01*
X94933985Y-130382481D01*
X94840853Y-130243100D01*
X94776703Y-130088228D01*
X94744000Y-129923816D01*
X94744000Y-129756184D01*
X94776703Y-129591772D01*
X94840853Y-129436900D01*
X94933985Y-129297519D01*
X95052519Y-129178985D01*
X95191900Y-129085853D01*
X95346772Y-129021703D01*
X95511184Y-128989000D01*
X95678816Y-128989000D01*
X95843228Y-129021703D01*
G37*
G36*
X93073228Y-129021703D02*
G01*
X93228100Y-129085853D01*
X93367481Y-129178985D01*
X93486015Y-129297519D01*
X93579147Y-129436900D01*
X93643297Y-129591772D01*
X93676000Y-129756184D01*
X93676000Y-129923816D01*
X93643297Y-130088228D01*
X93579147Y-130243100D01*
X93486015Y-130382481D01*
X93367481Y-130501015D01*
X93228100Y-130594147D01*
X93073228Y-130658297D01*
X92908816Y-130691000D01*
X92741184Y-130691000D01*
X92576772Y-130658297D01*
X92421900Y-130594147D01*
X92282519Y-130501015D01*
X92163985Y-130382481D01*
X92070853Y-130243100D01*
X92006703Y-130088228D01*
X91974000Y-129923816D01*
X91974000Y-129756184D01*
X92006703Y-129591772D01*
X92070853Y-129436900D01*
X92163985Y-129297519D01*
X92282519Y-129178985D01*
X92421900Y-129085853D01*
X92576772Y-129021703D01*
X92741184Y-128989000D01*
X92908816Y-128989000D01*
X93073228Y-129021703D01*
G37*
G36*
X188663228Y-129021703D02*
G01*
X188818100Y-129085853D01*
X188957481Y-129178985D01*
X189076015Y-129297519D01*
X189169147Y-129436900D01*
X189233297Y-129591772D01*
X189266000Y-129756184D01*
X189266000Y-129923816D01*
X189233297Y-130088228D01*
X189169147Y-130243100D01*
X189076015Y-130382481D01*
X188957481Y-130501015D01*
X188818100Y-130594147D01*
X188663228Y-130658297D01*
X188498816Y-130691000D01*
X188331184Y-130691000D01*
X188166772Y-130658297D01*
X188011900Y-130594147D01*
X187872519Y-130501015D01*
X187753985Y-130382481D01*
X187660853Y-130243100D01*
X187596703Y-130088228D01*
X187564000Y-129923816D01*
X187564000Y-129756184D01*
X187596703Y-129591772D01*
X187660853Y-129436900D01*
X187753985Y-129297519D01*
X187872519Y-129178985D01*
X188011900Y-129085853D01*
X188166772Y-129021703D01*
X188331184Y-128989000D01*
X188498816Y-128989000D01*
X188663228Y-129021703D01*
G37*
G36*
X169273228Y-129021703D02*
G01*
X169428100Y-129085853D01*
X169567481Y-129178985D01*
X169686015Y-129297519D01*
X169779147Y-129436900D01*
X169843297Y-129591772D01*
X169876000Y-129756184D01*
X169876000Y-129923816D01*
X169843297Y-130088228D01*
X169779147Y-130243100D01*
X169686015Y-130382481D01*
X169567481Y-130501015D01*
X169428100Y-130594147D01*
X169273228Y-130658297D01*
X169108816Y-130691000D01*
X168941184Y-130691000D01*
X168776772Y-130658297D01*
X168621900Y-130594147D01*
X168482519Y-130501015D01*
X168363985Y-130382481D01*
X168270853Y-130243100D01*
X168206703Y-130088228D01*
X168174000Y-129923816D01*
X168174000Y-129756184D01*
X168206703Y-129591772D01*
X168270853Y-129436900D01*
X168363985Y-129297519D01*
X168482519Y-129178985D01*
X168621900Y-129085853D01*
X168776772Y-129021703D01*
X168941184Y-128989000D01*
X169108816Y-128989000D01*
X169273228Y-129021703D01*
G37*
G36*
X115233228Y-129021703D02*
G01*
X115388100Y-129085853D01*
X115527481Y-129178985D01*
X115646015Y-129297519D01*
X115739147Y-129436900D01*
X115803297Y-129591772D01*
X115836000Y-129756184D01*
X115836000Y-129923816D01*
X115803297Y-130088228D01*
X115739147Y-130243100D01*
X115646015Y-130382481D01*
X115527481Y-130501015D01*
X115388100Y-130594147D01*
X115233228Y-130658297D01*
X115068816Y-130691000D01*
X114901184Y-130691000D01*
X114736772Y-130658297D01*
X114581900Y-130594147D01*
X114442519Y-130501015D01*
X114323985Y-130382481D01*
X114230853Y-130243100D01*
X114166703Y-130088228D01*
X114134000Y-129923816D01*
X114134000Y-129756184D01*
X114166703Y-129591772D01*
X114230853Y-129436900D01*
X114323985Y-129297519D01*
X114442519Y-129178985D01*
X114581900Y-129085853D01*
X114736772Y-129021703D01*
X114901184Y-128989000D01*
X115068816Y-128989000D01*
X115233228Y-129021703D01*
G37*
G36*
X210823228Y-129021703D02*
G01*
X210978100Y-129085853D01*
X211117481Y-129178985D01*
X211236015Y-129297519D01*
X211329147Y-129436900D01*
X211393297Y-129591772D01*
X211426000Y-129756184D01*
X211426000Y-129923816D01*
X211393297Y-130088228D01*
X211329147Y-130243100D01*
X211236015Y-130382481D01*
X211117481Y-130501015D01*
X210978100Y-130594147D01*
X210823228Y-130658297D01*
X210658816Y-130691000D01*
X210491184Y-130691000D01*
X210326772Y-130658297D01*
X210171900Y-130594147D01*
X210032519Y-130501015D01*
X209913985Y-130382481D01*
X209820853Y-130243100D01*
X209756703Y-130088228D01*
X209724000Y-129923816D01*
X209724000Y-129756184D01*
X209756703Y-129591772D01*
X209820853Y-129436900D01*
X209913985Y-129297519D01*
X210032519Y-129178985D01*
X210171900Y-129085853D01*
X210326772Y-129021703D01*
X210491184Y-128989000D01*
X210658816Y-128989000D01*
X210823228Y-129021703D01*
G37*
G36*
X208053228Y-129021703D02*
G01*
X208208100Y-129085853D01*
X208347481Y-129178985D01*
X208466015Y-129297519D01*
X208559147Y-129436900D01*
X208623297Y-129591772D01*
X208656000Y-129756184D01*
X208656000Y-129923816D01*
X208623297Y-130088228D01*
X208559147Y-130243100D01*
X208466015Y-130382481D01*
X208347481Y-130501015D01*
X208208100Y-130594147D01*
X208053228Y-130658297D01*
X207888816Y-130691000D01*
X207721184Y-130691000D01*
X207556772Y-130658297D01*
X207401900Y-130594147D01*
X207262519Y-130501015D01*
X207143985Y-130382481D01*
X207050853Y-130243100D01*
X206986703Y-130088228D01*
X206954000Y-129923816D01*
X206954000Y-129756184D01*
X206986703Y-129591772D01*
X207050853Y-129436900D01*
X207143985Y-129297519D01*
X207262519Y-129178985D01*
X207401900Y-129085853D01*
X207556772Y-129021703D01*
X207721184Y-128989000D01*
X207888816Y-128989000D01*
X208053228Y-129021703D01*
G37*
G36*
X205283228Y-129021703D02*
G01*
X205438100Y-129085853D01*
X205577481Y-129178985D01*
X205696015Y-129297519D01*
X205789147Y-129436900D01*
X205853297Y-129591772D01*
X205886000Y-129756184D01*
X205886000Y-129923816D01*
X205853297Y-130088228D01*
X205789147Y-130243100D01*
X205696015Y-130382481D01*
X205577481Y-130501015D01*
X205438100Y-130594147D01*
X205283228Y-130658297D01*
X205118816Y-130691000D01*
X204951184Y-130691000D01*
X204786772Y-130658297D01*
X204631900Y-130594147D01*
X204492519Y-130501015D01*
X204373985Y-130382481D01*
X204280853Y-130243100D01*
X204216703Y-130088228D01*
X204184000Y-129923816D01*
X204184000Y-129756184D01*
X204216703Y-129591772D01*
X204280853Y-129436900D01*
X204373985Y-129297519D01*
X204492519Y-129178985D01*
X204631900Y-129085853D01*
X204786772Y-129021703D01*
X204951184Y-128989000D01*
X205118816Y-128989000D01*
X205283228Y-129021703D01*
G37*
G36*
X202513228Y-129021703D02*
G01*
X202668100Y-129085853D01*
X202807481Y-129178985D01*
X202926015Y-129297519D01*
X203019147Y-129436900D01*
X203083297Y-129591772D01*
X203116000Y-129756184D01*
X203116000Y-129923816D01*
X203083297Y-130088228D01*
X203019147Y-130243100D01*
X202926015Y-130382481D01*
X202807481Y-130501015D01*
X202668100Y-130594147D01*
X202513228Y-130658297D01*
X202348816Y-130691000D01*
X202181184Y-130691000D01*
X202016772Y-130658297D01*
X201861900Y-130594147D01*
X201722519Y-130501015D01*
X201603985Y-130382481D01*
X201510853Y-130243100D01*
X201446703Y-130088228D01*
X201414000Y-129923816D01*
X201414000Y-129756184D01*
X201446703Y-129591772D01*
X201510853Y-129436900D01*
X201603985Y-129297519D01*
X201722519Y-129178985D01*
X201861900Y-129085853D01*
X202016772Y-129021703D01*
X202181184Y-128989000D01*
X202348816Y-128989000D01*
X202513228Y-129021703D01*
G37*
G36*
X199743228Y-129021703D02*
G01*
X199898100Y-129085853D01*
X200037481Y-129178985D01*
X200156015Y-129297519D01*
X200249147Y-129436900D01*
X200313297Y-129591772D01*
X200346000Y-129756184D01*
X200346000Y-129923816D01*
X200313297Y-130088228D01*
X200249147Y-130243100D01*
X200156015Y-130382481D01*
X200037481Y-130501015D01*
X199898100Y-130594147D01*
X199743228Y-130658297D01*
X199578816Y-130691000D01*
X199411184Y-130691000D01*
X199246772Y-130658297D01*
X199091900Y-130594147D01*
X198952519Y-130501015D01*
X198833985Y-130382481D01*
X198740853Y-130243100D01*
X198676703Y-130088228D01*
X198644000Y-129923816D01*
X198644000Y-129756184D01*
X198676703Y-129591772D01*
X198740853Y-129436900D01*
X198833985Y-129297519D01*
X198952519Y-129178985D01*
X199091900Y-129085853D01*
X199246772Y-129021703D01*
X199411184Y-128989000D01*
X199578816Y-128989000D01*
X199743228Y-129021703D01*
G37*
G36*
X196973228Y-129021703D02*
G01*
X197128100Y-129085853D01*
X197267481Y-129178985D01*
X197386015Y-129297519D01*
X197479147Y-129436900D01*
X197543297Y-129591772D01*
X197576000Y-129756184D01*
X197576000Y-129923816D01*
X197543297Y-130088228D01*
X197479147Y-130243100D01*
X197386015Y-130382481D01*
X197267481Y-130501015D01*
X197128100Y-130594147D01*
X196973228Y-130658297D01*
X196808816Y-130691000D01*
X196641184Y-130691000D01*
X196476772Y-130658297D01*
X196321900Y-130594147D01*
X196182519Y-130501015D01*
X196063985Y-130382481D01*
X195970853Y-130243100D01*
X195906703Y-130088228D01*
X195874000Y-129923816D01*
X195874000Y-129756184D01*
X195906703Y-129591772D01*
X195970853Y-129436900D01*
X196063985Y-129297519D01*
X196182519Y-129178985D01*
X196321900Y-129085853D01*
X196476772Y-129021703D01*
X196641184Y-128989000D01*
X196808816Y-128989000D01*
X196973228Y-129021703D01*
G37*
G36*
X194203228Y-129021703D02*
G01*
X194358100Y-129085853D01*
X194497481Y-129178985D01*
X194616015Y-129297519D01*
X194709147Y-129436900D01*
X194773297Y-129591772D01*
X194806000Y-129756184D01*
X194806000Y-129923816D01*
X194773297Y-130088228D01*
X194709147Y-130243100D01*
X194616015Y-130382481D01*
X194497481Y-130501015D01*
X194358100Y-130594147D01*
X194203228Y-130658297D01*
X194038816Y-130691000D01*
X193871184Y-130691000D01*
X193706772Y-130658297D01*
X193551900Y-130594147D01*
X193412519Y-130501015D01*
X193293985Y-130382481D01*
X193200853Y-130243100D01*
X193136703Y-130088228D01*
X193104000Y-129923816D01*
X193104000Y-129756184D01*
X193136703Y-129591772D01*
X193200853Y-129436900D01*
X193293985Y-129297519D01*
X193412519Y-129178985D01*
X193551900Y-129085853D01*
X193706772Y-129021703D01*
X193871184Y-128989000D01*
X194038816Y-128989000D01*
X194203228Y-129021703D01*
G37*
G36*
X191433228Y-129021703D02*
G01*
X191588100Y-129085853D01*
X191727481Y-129178985D01*
X191846015Y-129297519D01*
X191939147Y-129436900D01*
X192003297Y-129591772D01*
X192036000Y-129756184D01*
X192036000Y-129923816D01*
X192003297Y-130088228D01*
X191939147Y-130243100D01*
X191846015Y-130382481D01*
X191727481Y-130501015D01*
X191588100Y-130594147D01*
X191433228Y-130658297D01*
X191268816Y-130691000D01*
X191101184Y-130691000D01*
X190936772Y-130658297D01*
X190781900Y-130594147D01*
X190642519Y-130501015D01*
X190523985Y-130382481D01*
X190430853Y-130243100D01*
X190366703Y-130088228D01*
X190334000Y-129923816D01*
X190334000Y-129756184D01*
X190366703Y-129591772D01*
X190430853Y-129436900D01*
X190523985Y-129297519D01*
X190642519Y-129178985D01*
X190781900Y-129085853D01*
X190936772Y-129021703D01*
X191101184Y-128989000D01*
X191268816Y-128989000D01*
X191433228Y-129021703D01*
G37*
G36*
X216363228Y-129021703D02*
G01*
X216518100Y-129085853D01*
X216657481Y-129178985D01*
X216776015Y-129297519D01*
X216869147Y-129436900D01*
X216933297Y-129591772D01*
X216966000Y-129756184D01*
X216966000Y-129923816D01*
X216933297Y-130088228D01*
X216869147Y-130243100D01*
X216776015Y-130382481D01*
X216657481Y-130501015D01*
X216518100Y-130594147D01*
X216363228Y-130658297D01*
X216198816Y-130691000D01*
X216031184Y-130691000D01*
X215866772Y-130658297D01*
X215711900Y-130594147D01*
X215572519Y-130501015D01*
X215453985Y-130382481D01*
X215360853Y-130243100D01*
X215296703Y-130088228D01*
X215264000Y-129923816D01*
X215264000Y-129756184D01*
X215296703Y-129591772D01*
X215360853Y-129436900D01*
X215453985Y-129297519D01*
X215572519Y-129178985D01*
X215711900Y-129085853D01*
X215866772Y-129021703D01*
X216031184Y-128989000D01*
X216198816Y-128989000D01*
X216363228Y-129021703D01*
G37*
G36*
X185893228Y-129021703D02*
G01*
X186048100Y-129085853D01*
X186187481Y-129178985D01*
X186306015Y-129297519D01*
X186399147Y-129436900D01*
X186463297Y-129591772D01*
X186496000Y-129756184D01*
X186496000Y-129923816D01*
X186463297Y-130088228D01*
X186399147Y-130243100D01*
X186306015Y-130382481D01*
X186187481Y-130501015D01*
X186048100Y-130594147D01*
X185893228Y-130658297D01*
X185728816Y-130691000D01*
X185561184Y-130691000D01*
X185396772Y-130658297D01*
X185241900Y-130594147D01*
X185102519Y-130501015D01*
X184983985Y-130382481D01*
X184890853Y-130243100D01*
X184826703Y-130088228D01*
X184794000Y-129923816D01*
X184794000Y-129756184D01*
X184826703Y-129591772D01*
X184890853Y-129436900D01*
X184983985Y-129297519D01*
X185102519Y-129178985D01*
X185241900Y-129085853D01*
X185396772Y-129021703D01*
X185561184Y-128989000D01*
X185728816Y-128989000D01*
X185893228Y-129021703D01*
G37*
G36*
X183123228Y-129021703D02*
G01*
X183278100Y-129085853D01*
X183417481Y-129178985D01*
X183536015Y-129297519D01*
X183629147Y-129436900D01*
X183693297Y-129591772D01*
X183726000Y-129756184D01*
X183726000Y-129923816D01*
X183693297Y-130088228D01*
X183629147Y-130243100D01*
X183536015Y-130382481D01*
X183417481Y-130501015D01*
X183278100Y-130594147D01*
X183123228Y-130658297D01*
X182958816Y-130691000D01*
X182791184Y-130691000D01*
X182626772Y-130658297D01*
X182471900Y-130594147D01*
X182332519Y-130501015D01*
X182213985Y-130382481D01*
X182120853Y-130243100D01*
X182056703Y-130088228D01*
X182024000Y-129923816D01*
X182024000Y-129756184D01*
X182056703Y-129591772D01*
X182120853Y-129436900D01*
X182213985Y-129297519D01*
X182332519Y-129178985D01*
X182471900Y-129085853D01*
X182626772Y-129021703D01*
X182791184Y-128989000D01*
X182958816Y-128989000D01*
X183123228Y-129021703D01*
G37*
G36*
X180353228Y-129021703D02*
G01*
X180508100Y-129085853D01*
X180647481Y-129178985D01*
X180766015Y-129297519D01*
X180859147Y-129436900D01*
X180923297Y-129591772D01*
X180956000Y-129756184D01*
X180956000Y-129923816D01*
X180923297Y-130088228D01*
X180859147Y-130243100D01*
X180766015Y-130382481D01*
X180647481Y-130501015D01*
X180508100Y-130594147D01*
X180353228Y-130658297D01*
X180188816Y-130691000D01*
X180021184Y-130691000D01*
X179856772Y-130658297D01*
X179701900Y-130594147D01*
X179562519Y-130501015D01*
X179443985Y-130382481D01*
X179350853Y-130243100D01*
X179286703Y-130088228D01*
X179254000Y-129923816D01*
X179254000Y-129756184D01*
X179286703Y-129591772D01*
X179350853Y-129436900D01*
X179443985Y-129297519D01*
X179562519Y-129178985D01*
X179701900Y-129085853D01*
X179856772Y-129021703D01*
X180021184Y-128989000D01*
X180188816Y-128989000D01*
X180353228Y-129021703D01*
G37*
G36*
X177583228Y-129021703D02*
G01*
X177738100Y-129085853D01*
X177877481Y-129178985D01*
X177996015Y-129297519D01*
X178089147Y-129436900D01*
X178153297Y-129591772D01*
X178186000Y-129756184D01*
X178186000Y-129923816D01*
X178153297Y-130088228D01*
X178089147Y-130243100D01*
X177996015Y-130382481D01*
X177877481Y-130501015D01*
X177738100Y-130594147D01*
X177583228Y-130658297D01*
X177418816Y-130691000D01*
X177251184Y-130691000D01*
X177086772Y-130658297D01*
X176931900Y-130594147D01*
X176792519Y-130501015D01*
X176673985Y-130382481D01*
X176580853Y-130243100D01*
X176516703Y-130088228D01*
X176484000Y-129923816D01*
X176484000Y-129756184D01*
X176516703Y-129591772D01*
X176580853Y-129436900D01*
X176673985Y-129297519D01*
X176792519Y-129178985D01*
X176931900Y-129085853D01*
X177086772Y-129021703D01*
X177251184Y-128989000D01*
X177418816Y-128989000D01*
X177583228Y-129021703D01*
G37*
G36*
X174813228Y-129021703D02*
G01*
X174968100Y-129085853D01*
X175107481Y-129178985D01*
X175226015Y-129297519D01*
X175319147Y-129436900D01*
X175383297Y-129591772D01*
X175416000Y-129756184D01*
X175416000Y-129923816D01*
X175383297Y-130088228D01*
X175319147Y-130243100D01*
X175226015Y-130382481D01*
X175107481Y-130501015D01*
X174968100Y-130594147D01*
X174813228Y-130658297D01*
X174648816Y-130691000D01*
X174481184Y-130691000D01*
X174316772Y-130658297D01*
X174161900Y-130594147D01*
X174022519Y-130501015D01*
X173903985Y-130382481D01*
X173810853Y-130243100D01*
X173746703Y-130088228D01*
X173714000Y-129923816D01*
X173714000Y-129756184D01*
X173746703Y-129591772D01*
X173810853Y-129436900D01*
X173903985Y-129297519D01*
X174022519Y-129178985D01*
X174161900Y-129085853D01*
X174316772Y-129021703D01*
X174481184Y-128989000D01*
X174648816Y-128989000D01*
X174813228Y-129021703D01*
G37*
G36*
X172043228Y-129021703D02*
G01*
X172198100Y-129085853D01*
X172337481Y-129178985D01*
X172456015Y-129297519D01*
X172549147Y-129436900D01*
X172613297Y-129591772D01*
X172646000Y-129756184D01*
X172646000Y-129923816D01*
X172613297Y-130088228D01*
X172549147Y-130243100D01*
X172456015Y-130382481D01*
X172337481Y-130501015D01*
X172198100Y-130594147D01*
X172043228Y-130658297D01*
X171878816Y-130691000D01*
X171711184Y-130691000D01*
X171546772Y-130658297D01*
X171391900Y-130594147D01*
X171252519Y-130501015D01*
X171133985Y-130382481D01*
X171040853Y-130243100D01*
X170976703Y-130088228D01*
X170944000Y-129923816D01*
X170944000Y-129756184D01*
X170976703Y-129591772D01*
X171040853Y-129436900D01*
X171133985Y-129297519D01*
X171252519Y-129178985D01*
X171391900Y-129085853D01*
X171546772Y-129021703D01*
X171711184Y-128989000D01*
X171878816Y-128989000D01*
X172043228Y-129021703D01*
G37*
G36*
X224918254Y-126447818D02*
G01*
X225278170Y-126596900D01*
X225291513Y-126602427D01*
X225627436Y-126826884D01*
X225913116Y-127112564D01*
X226003765Y-127248229D01*
X226137574Y-127448489D01*
X226292182Y-127821746D01*
X226371000Y-128217993D01*
X226371000Y-128622007D01*
X226292182Y-129018254D01*
X226176506Y-129297520D01*
X226137573Y-129391513D01*
X225913116Y-129727436D01*
X225627436Y-130013116D01*
X225291513Y-130237573D01*
X225291512Y-130237574D01*
X225291511Y-130237574D01*
X224918254Y-130392182D01*
X224522007Y-130471000D01*
X224117993Y-130471000D01*
X223721746Y-130392182D01*
X223348489Y-130237574D01*
X223348488Y-130237574D01*
X223348487Y-130237573D01*
X223012564Y-130013116D01*
X222726884Y-129727436D01*
X222502427Y-129391513D01*
X222463494Y-129297520D01*
X222347818Y-129018254D01*
X222269000Y-128622007D01*
X222269000Y-128217993D01*
X222347818Y-127821746D01*
X222502426Y-127448489D01*
X222636236Y-127248229D01*
X222726884Y-127112564D01*
X223012564Y-126826884D01*
X223348487Y-126602427D01*
X223361830Y-126596900D01*
X223721746Y-126447818D01*
X224117993Y-126369000D01*
X224522007Y-126369000D01*
X224918254Y-126447818D01*
G37*
G36*
X161418254Y-126447818D02*
G01*
X161778170Y-126596900D01*
X161791513Y-126602427D01*
X162127436Y-126826884D01*
X162413116Y-127112564D01*
X162503765Y-127248229D01*
X162637574Y-127448489D01*
X162792182Y-127821746D01*
X162871000Y-128217993D01*
X162871000Y-128622007D01*
X162792182Y-129018254D01*
X162676506Y-129297520D01*
X162637573Y-129391513D01*
X162413116Y-129727436D01*
X162127436Y-130013116D01*
X161791513Y-130237573D01*
X161791512Y-130237574D01*
X161791511Y-130237574D01*
X161418254Y-130392182D01*
X161022007Y-130471000D01*
X160617993Y-130471000D01*
X160221746Y-130392182D01*
X159848489Y-130237574D01*
X159848488Y-130237574D01*
X159848487Y-130237573D01*
X159512564Y-130013116D01*
X159226884Y-129727436D01*
X159002427Y-129391513D01*
X158963494Y-129297520D01*
X158847818Y-129018254D01*
X158769000Y-128622007D01*
X158769000Y-128217993D01*
X158847818Y-127821746D01*
X159002426Y-127448489D01*
X159136236Y-127248229D01*
X159226884Y-127112564D01*
X159512564Y-126826884D01*
X159848487Y-126602427D01*
X159861830Y-126596900D01*
X160221746Y-126447818D01*
X160617993Y-126369000D01*
X161022007Y-126369000D01*
X161418254Y-126447818D01*
G37*
G36*
X148718254Y-126447818D02*
G01*
X149078170Y-126596900D01*
X149091513Y-126602427D01*
X149427436Y-126826884D01*
X149713116Y-127112564D01*
X149803765Y-127248229D01*
X149937574Y-127448489D01*
X150092182Y-127821746D01*
X150171000Y-128217993D01*
X150171000Y-128622007D01*
X150092182Y-129018254D01*
X149976506Y-129297520D01*
X149937573Y-129391513D01*
X149713116Y-129727436D01*
X149427436Y-130013116D01*
X149091513Y-130237573D01*
X149091512Y-130237574D01*
X149091511Y-130237574D01*
X148718254Y-130392182D01*
X148322007Y-130471000D01*
X147917993Y-130471000D01*
X147521746Y-130392182D01*
X147148489Y-130237574D01*
X147148488Y-130237574D01*
X147148487Y-130237573D01*
X146812564Y-130013116D01*
X146526884Y-129727436D01*
X146302427Y-129391513D01*
X146263494Y-129297520D01*
X146147818Y-129018254D01*
X146069000Y-128622007D01*
X146069000Y-128217993D01*
X146147818Y-127821746D01*
X146302426Y-127448489D01*
X146436236Y-127248229D01*
X146526884Y-127112564D01*
X146812564Y-126826884D01*
X147148487Y-126602427D01*
X147161830Y-126596900D01*
X147521746Y-126447818D01*
X147917993Y-126369000D01*
X148322007Y-126369000D01*
X148718254Y-126447818D01*
G37*
G36*
X85218254Y-126447818D02*
G01*
X85578170Y-126596900D01*
X85591513Y-126602427D01*
X85927436Y-126826884D01*
X86213116Y-127112564D01*
X86303765Y-127248229D01*
X86437574Y-127448489D01*
X86592182Y-127821746D01*
X86671000Y-128217993D01*
X86671000Y-128622007D01*
X86592182Y-129018254D01*
X86476506Y-129297520D01*
X86437573Y-129391513D01*
X86213116Y-129727436D01*
X85927436Y-130013116D01*
X85591513Y-130237573D01*
X85591512Y-130237574D01*
X85591511Y-130237574D01*
X85218254Y-130392182D01*
X84822007Y-130471000D01*
X84417993Y-130471000D01*
X84021746Y-130392182D01*
X83648489Y-130237574D01*
X83648488Y-130237574D01*
X83648487Y-130237573D01*
X83312564Y-130013116D01*
X83026884Y-129727436D01*
X82802427Y-129391513D01*
X82763494Y-129297520D01*
X82647818Y-129018254D01*
X82569000Y-128622007D01*
X82569000Y-128217993D01*
X82647818Y-127821746D01*
X82802426Y-127448489D01*
X82936236Y-127248229D01*
X83026884Y-127112564D01*
X83312564Y-126826884D01*
X83648487Y-126602427D01*
X83661830Y-126596900D01*
X84021746Y-126447818D01*
X84417993Y-126369000D01*
X84822007Y-126369000D01*
X85218254Y-126447818D01*
G37*
G36*
X116618228Y-126181703D02*
G01*
X116773100Y-126245853D01*
X116912481Y-126338985D01*
X117031015Y-126457519D01*
X117124147Y-126596900D01*
X117188297Y-126751772D01*
X117221000Y-126916184D01*
X117221000Y-127083816D01*
X117188297Y-127248228D01*
X117124147Y-127403100D01*
X117031015Y-127542481D01*
X116912481Y-127661015D01*
X116773100Y-127754147D01*
X116618228Y-127818297D01*
X116453816Y-127851000D01*
X116286184Y-127851000D01*
X116121772Y-127818297D01*
X115966900Y-127754147D01*
X115827519Y-127661015D01*
X115708985Y-127542481D01*
X115615853Y-127403100D01*
X115551703Y-127248228D01*
X115519000Y-127083816D01*
X115519000Y-126916184D01*
X115551703Y-126751772D01*
X115615853Y-126596900D01*
X115708985Y-126457519D01*
X115827519Y-126338985D01*
X115966900Y-126245853D01*
X116121772Y-126181703D01*
X116286184Y-126149000D01*
X116453816Y-126149000D01*
X116618228Y-126181703D01*
G37*
G36*
X217748228Y-126181703D02*
G01*
X217903100Y-126245853D01*
X218042481Y-126338985D01*
X218161015Y-126457519D01*
X218254147Y-126596900D01*
X218318297Y-126751772D01*
X218351000Y-126916184D01*
X218351000Y-127083816D01*
X218318297Y-127248228D01*
X218254147Y-127403100D01*
X218161015Y-127542481D01*
X218042481Y-127661015D01*
X217903100Y-127754147D01*
X217748228Y-127818297D01*
X217583816Y-127851000D01*
X217416184Y-127851000D01*
X217251772Y-127818297D01*
X217096900Y-127754147D01*
X216957519Y-127661015D01*
X216838985Y-127542481D01*
X216745853Y-127403100D01*
X216681703Y-127248228D01*
X216649000Y-127083816D01*
X216649000Y-126916184D01*
X216681703Y-126751772D01*
X216745853Y-126596900D01*
X216838985Y-126457519D01*
X216957519Y-126338985D01*
X217096900Y-126245853D01*
X217251772Y-126181703D01*
X217416184Y-126149000D01*
X217583816Y-126149000D01*
X217748228Y-126181703D01*
G37*
G36*
X94458228Y-126181703D02*
G01*
X94613100Y-126245853D01*
X94752481Y-126338985D01*
X94871015Y-126457519D01*
X94964147Y-126596900D01*
X95028297Y-126751772D01*
X95061000Y-126916184D01*
X95061000Y-127083816D01*
X95028297Y-127248228D01*
X94964147Y-127403100D01*
X94871015Y-127542481D01*
X94752481Y-127661015D01*
X94613100Y-127754147D01*
X94458228Y-127818297D01*
X94293816Y-127851000D01*
X94126184Y-127851000D01*
X93961772Y-127818297D01*
X93806900Y-127754147D01*
X93667519Y-127661015D01*
X93548985Y-127542481D01*
X93455853Y-127403100D01*
X93391703Y-127248228D01*
X93359000Y-127083816D01*
X93359000Y-126916184D01*
X93391703Y-126751772D01*
X93455853Y-126596900D01*
X93548985Y-126457519D01*
X93667519Y-126338985D01*
X93806900Y-126245853D01*
X93961772Y-126181703D01*
X94126184Y-126149000D01*
X94293816Y-126149000D01*
X94458228Y-126181703D01*
G37*
G36*
X97228228Y-126181703D02*
G01*
X97383100Y-126245853D01*
X97522481Y-126338985D01*
X97641015Y-126457519D01*
X97734147Y-126596900D01*
X97798297Y-126751772D01*
X97831000Y-126916184D01*
X97831000Y-127083816D01*
X97798297Y-127248228D01*
X97734147Y-127403100D01*
X97641015Y-127542481D01*
X97522481Y-127661015D01*
X97383100Y-127754147D01*
X97228228Y-127818297D01*
X97063816Y-127851000D01*
X96896184Y-127851000D01*
X96731772Y-127818297D01*
X96576900Y-127754147D01*
X96437519Y-127661015D01*
X96318985Y-127542481D01*
X96225853Y-127403100D01*
X96161703Y-127248228D01*
X96129000Y-127083816D01*
X96129000Y-126916184D01*
X96161703Y-126751772D01*
X96225853Y-126596900D01*
X96318985Y-126457519D01*
X96437519Y-126338985D01*
X96576900Y-126245853D01*
X96731772Y-126181703D01*
X96896184Y-126149000D01*
X97063816Y-126149000D01*
X97228228Y-126181703D01*
G37*
G36*
X99998228Y-126181703D02*
G01*
X100153100Y-126245853D01*
X100292481Y-126338985D01*
X100411015Y-126457519D01*
X100504147Y-126596900D01*
X100568297Y-126751772D01*
X100601000Y-126916184D01*
X100601000Y-127083816D01*
X100568297Y-127248228D01*
X100504147Y-127403100D01*
X100411015Y-127542481D01*
X100292481Y-127661015D01*
X100153100Y-127754147D01*
X99998228Y-127818297D01*
X99833816Y-127851000D01*
X99666184Y-127851000D01*
X99501772Y-127818297D01*
X99346900Y-127754147D01*
X99207519Y-127661015D01*
X99088985Y-127542481D01*
X98995853Y-127403100D01*
X98931703Y-127248228D01*
X98899000Y-127083816D01*
X98899000Y-126916184D01*
X98931703Y-126751772D01*
X98995853Y-126596900D01*
X99088985Y-126457519D01*
X99207519Y-126338985D01*
X99346900Y-126245853D01*
X99501772Y-126181703D01*
X99666184Y-126149000D01*
X99833816Y-126149000D01*
X99998228Y-126181703D01*
G37*
G36*
X102768228Y-126181703D02*
G01*
X102923100Y-126245853D01*
X103062481Y-126338985D01*
X103181015Y-126457519D01*
X103274147Y-126596900D01*
X103338297Y-126751772D01*
X103371000Y-126916184D01*
X103371000Y-127083816D01*
X103338297Y-127248228D01*
X103274147Y-127403100D01*
X103181015Y-127542481D01*
X103062481Y-127661015D01*
X102923100Y-127754147D01*
X102768228Y-127818297D01*
X102603816Y-127851000D01*
X102436184Y-127851000D01*
X102271772Y-127818297D01*
X102116900Y-127754147D01*
X101977519Y-127661015D01*
X101858985Y-127542481D01*
X101765853Y-127403100D01*
X101701703Y-127248228D01*
X101669000Y-127083816D01*
X101669000Y-126916184D01*
X101701703Y-126751772D01*
X101765853Y-126596900D01*
X101858985Y-126457519D01*
X101977519Y-126338985D01*
X102116900Y-126245853D01*
X102271772Y-126181703D01*
X102436184Y-126149000D01*
X102603816Y-126149000D01*
X102768228Y-126181703D01*
G37*
G36*
X105538228Y-126181703D02*
G01*
X105693100Y-126245853D01*
X105832481Y-126338985D01*
X105951015Y-126457519D01*
X106044147Y-126596900D01*
X106108297Y-126751772D01*
X106141000Y-126916184D01*
X106141000Y-127083816D01*
X106108297Y-127248228D01*
X106044147Y-127403100D01*
X105951015Y-127542481D01*
X105832481Y-127661015D01*
X105693100Y-127754147D01*
X105538228Y-127818297D01*
X105373816Y-127851000D01*
X105206184Y-127851000D01*
X105041772Y-127818297D01*
X104886900Y-127754147D01*
X104747519Y-127661015D01*
X104628985Y-127542481D01*
X104535853Y-127403100D01*
X104471703Y-127248228D01*
X104439000Y-127083816D01*
X104439000Y-126916184D01*
X104471703Y-126751772D01*
X104535853Y-126596900D01*
X104628985Y-126457519D01*
X104747519Y-126338985D01*
X104886900Y-126245853D01*
X105041772Y-126181703D01*
X105206184Y-126149000D01*
X105373816Y-126149000D01*
X105538228Y-126181703D01*
G37*
G36*
X108308228Y-126181703D02*
G01*
X108463100Y-126245853D01*
X108602481Y-126338985D01*
X108721015Y-126457519D01*
X108814147Y-126596900D01*
X108878297Y-126751772D01*
X108911000Y-126916184D01*
X108911000Y-127083816D01*
X108878297Y-127248228D01*
X108814147Y-127403100D01*
X108721015Y-127542481D01*
X108602481Y-127661015D01*
X108463100Y-127754147D01*
X108308228Y-127818297D01*
X108143816Y-127851000D01*
X107976184Y-127851000D01*
X107811772Y-127818297D01*
X107656900Y-127754147D01*
X107517519Y-127661015D01*
X107398985Y-127542481D01*
X107305853Y-127403100D01*
X107241703Y-127248228D01*
X107209000Y-127083816D01*
X107209000Y-126916184D01*
X107241703Y-126751772D01*
X107305853Y-126596900D01*
X107398985Y-126457519D01*
X107517519Y-126338985D01*
X107656900Y-126245853D01*
X107811772Y-126181703D01*
X107976184Y-126149000D01*
X108143816Y-126149000D01*
X108308228Y-126181703D01*
G37*
G36*
X111078228Y-126181703D02*
G01*
X111233100Y-126245853D01*
X111372481Y-126338985D01*
X111491015Y-126457519D01*
X111584147Y-126596900D01*
X111648297Y-126751772D01*
X111681000Y-126916184D01*
X111681000Y-127083816D01*
X111648297Y-127248228D01*
X111584147Y-127403100D01*
X111491015Y-127542481D01*
X111372481Y-127661015D01*
X111233100Y-127754147D01*
X111078228Y-127818297D01*
X110913816Y-127851000D01*
X110746184Y-127851000D01*
X110581772Y-127818297D01*
X110426900Y-127754147D01*
X110287519Y-127661015D01*
X110168985Y-127542481D01*
X110075853Y-127403100D01*
X110011703Y-127248228D01*
X109979000Y-127083816D01*
X109979000Y-126916184D01*
X110011703Y-126751772D01*
X110075853Y-126596900D01*
X110168985Y-126457519D01*
X110287519Y-126338985D01*
X110426900Y-126245853D01*
X110581772Y-126181703D01*
X110746184Y-126149000D01*
X110913816Y-126149000D01*
X111078228Y-126181703D01*
G37*
G36*
X214978228Y-126181703D02*
G01*
X215133100Y-126245853D01*
X215272481Y-126338985D01*
X215391015Y-126457519D01*
X215484147Y-126596900D01*
X215548297Y-126751772D01*
X215581000Y-126916184D01*
X215581000Y-127083816D01*
X215548297Y-127248228D01*
X215484147Y-127403100D01*
X215391015Y-127542481D01*
X215272481Y-127661015D01*
X215133100Y-127754147D01*
X214978228Y-127818297D01*
X214813816Y-127851000D01*
X214646184Y-127851000D01*
X214481772Y-127818297D01*
X214326900Y-127754147D01*
X214187519Y-127661015D01*
X214068985Y-127542481D01*
X213975853Y-127403100D01*
X213911703Y-127248228D01*
X213879000Y-127083816D01*
X213879000Y-126916184D01*
X213911703Y-126751772D01*
X213975853Y-126596900D01*
X214068985Y-126457519D01*
X214187519Y-126338985D01*
X214326900Y-126245853D01*
X214481772Y-126181703D01*
X214646184Y-126149000D01*
X214813816Y-126149000D01*
X214978228Y-126181703D01*
G37*
G36*
X119388228Y-126181703D02*
G01*
X119543100Y-126245853D01*
X119682481Y-126338985D01*
X119801015Y-126457519D01*
X119894147Y-126596900D01*
X119958297Y-126751772D01*
X119991000Y-126916184D01*
X119991000Y-127083816D01*
X119958297Y-127248228D01*
X119894147Y-127403100D01*
X119801015Y-127542481D01*
X119682481Y-127661015D01*
X119543100Y-127754147D01*
X119388228Y-127818297D01*
X119223816Y-127851000D01*
X119056184Y-127851000D01*
X118891772Y-127818297D01*
X118736900Y-127754147D01*
X118597519Y-127661015D01*
X118478985Y-127542481D01*
X118385853Y-127403100D01*
X118321703Y-127248228D01*
X118289000Y-127083816D01*
X118289000Y-126916184D01*
X118321703Y-126751772D01*
X118385853Y-126596900D01*
X118478985Y-126457519D01*
X118597519Y-126338985D01*
X118736900Y-126245853D01*
X118891772Y-126181703D01*
X119056184Y-126149000D01*
X119223816Y-126149000D01*
X119388228Y-126181703D01*
G37*
G36*
X122158228Y-126181703D02*
G01*
X122313100Y-126245853D01*
X122452481Y-126338985D01*
X122571015Y-126457519D01*
X122664147Y-126596900D01*
X122728297Y-126751772D01*
X122761000Y-126916184D01*
X122761000Y-127083816D01*
X122728297Y-127248228D01*
X122664147Y-127403100D01*
X122571015Y-127542481D01*
X122452481Y-127661015D01*
X122313100Y-127754147D01*
X122158228Y-127818297D01*
X121993816Y-127851000D01*
X121826184Y-127851000D01*
X121661772Y-127818297D01*
X121506900Y-127754147D01*
X121367519Y-127661015D01*
X121248985Y-127542481D01*
X121155853Y-127403100D01*
X121091703Y-127248228D01*
X121059000Y-127083816D01*
X121059000Y-126916184D01*
X121091703Y-126751772D01*
X121155853Y-126596900D01*
X121248985Y-126457519D01*
X121367519Y-126338985D01*
X121506900Y-126245853D01*
X121661772Y-126181703D01*
X121826184Y-126149000D01*
X121993816Y-126149000D01*
X122158228Y-126181703D01*
G37*
G36*
X124928228Y-126181703D02*
G01*
X125083100Y-126245853D01*
X125222481Y-126338985D01*
X125341015Y-126457519D01*
X125434147Y-126596900D01*
X125498297Y-126751772D01*
X125531000Y-126916184D01*
X125531000Y-127083816D01*
X125498297Y-127248228D01*
X125434147Y-127403100D01*
X125341015Y-127542481D01*
X125222481Y-127661015D01*
X125083100Y-127754147D01*
X124928228Y-127818297D01*
X124763816Y-127851000D01*
X124596184Y-127851000D01*
X124431772Y-127818297D01*
X124276900Y-127754147D01*
X124137519Y-127661015D01*
X124018985Y-127542481D01*
X123925853Y-127403100D01*
X123861703Y-127248228D01*
X123829000Y-127083816D01*
X123829000Y-126916184D01*
X123861703Y-126751772D01*
X123925853Y-126596900D01*
X124018985Y-126457519D01*
X124137519Y-126338985D01*
X124276900Y-126245853D01*
X124431772Y-126181703D01*
X124596184Y-126149000D01*
X124763816Y-126149000D01*
X124928228Y-126181703D01*
G37*
G36*
X127698228Y-126181703D02*
G01*
X127853100Y-126245853D01*
X127992481Y-126338985D01*
X128111015Y-126457519D01*
X128204147Y-126596900D01*
X128268297Y-126751772D01*
X128301000Y-126916184D01*
X128301000Y-127083816D01*
X128268297Y-127248228D01*
X128204147Y-127403100D01*
X128111015Y-127542481D01*
X127992481Y-127661015D01*
X127853100Y-127754147D01*
X127698228Y-127818297D01*
X127533816Y-127851000D01*
X127366184Y-127851000D01*
X127201772Y-127818297D01*
X127046900Y-127754147D01*
X126907519Y-127661015D01*
X126788985Y-127542481D01*
X126695853Y-127403100D01*
X126631703Y-127248228D01*
X126599000Y-127083816D01*
X126599000Y-126916184D01*
X126631703Y-126751772D01*
X126695853Y-126596900D01*
X126788985Y-126457519D01*
X126907519Y-126338985D01*
X127046900Y-126245853D01*
X127201772Y-126181703D01*
X127366184Y-126149000D01*
X127533816Y-126149000D01*
X127698228Y-126181703D01*
G37*
G36*
X130468228Y-126181703D02*
G01*
X130623100Y-126245853D01*
X130762481Y-126338985D01*
X130881015Y-126457519D01*
X130974147Y-126596900D01*
X131038297Y-126751772D01*
X131071000Y-126916184D01*
X131071000Y-127083816D01*
X131038297Y-127248228D01*
X130974147Y-127403100D01*
X130881015Y-127542481D01*
X130762481Y-127661015D01*
X130623100Y-127754147D01*
X130468228Y-127818297D01*
X130303816Y-127851000D01*
X130136184Y-127851000D01*
X129971772Y-127818297D01*
X129816900Y-127754147D01*
X129677519Y-127661015D01*
X129558985Y-127542481D01*
X129465853Y-127403100D01*
X129401703Y-127248228D01*
X129369000Y-127083816D01*
X129369000Y-126916184D01*
X129401703Y-126751772D01*
X129465853Y-126596900D01*
X129558985Y-126457519D01*
X129677519Y-126338985D01*
X129816900Y-126245853D01*
X129971772Y-126181703D01*
X130136184Y-126149000D01*
X130303816Y-126149000D01*
X130468228Y-126181703D01*
G37*
G36*
X133238228Y-126181703D02*
G01*
X133393100Y-126245853D01*
X133532481Y-126338985D01*
X133651015Y-126457519D01*
X133744147Y-126596900D01*
X133808297Y-126751772D01*
X133841000Y-126916184D01*
X133841000Y-127083816D01*
X133808297Y-127248228D01*
X133744147Y-127403100D01*
X133651015Y-127542481D01*
X133532481Y-127661015D01*
X133393100Y-127754147D01*
X133238228Y-127818297D01*
X133073816Y-127851000D01*
X132906184Y-127851000D01*
X132741772Y-127818297D01*
X132586900Y-127754147D01*
X132447519Y-127661015D01*
X132328985Y-127542481D01*
X132235853Y-127403100D01*
X132171703Y-127248228D01*
X132139000Y-127083816D01*
X132139000Y-126916184D01*
X132171703Y-126751772D01*
X132235853Y-126596900D01*
X132328985Y-126457519D01*
X132447519Y-126338985D01*
X132586900Y-126245853D01*
X132741772Y-126181703D01*
X132906184Y-126149000D01*
X133073816Y-126149000D01*
X133238228Y-126181703D01*
G37*
G36*
X136008228Y-126181703D02*
G01*
X136163100Y-126245853D01*
X136302481Y-126338985D01*
X136421015Y-126457519D01*
X136514147Y-126596900D01*
X136578297Y-126751772D01*
X136611000Y-126916184D01*
X136611000Y-127083816D01*
X136578297Y-127248228D01*
X136514147Y-127403100D01*
X136421015Y-127542481D01*
X136302481Y-127661015D01*
X136163100Y-127754147D01*
X136008228Y-127818297D01*
X135843816Y-127851000D01*
X135676184Y-127851000D01*
X135511772Y-127818297D01*
X135356900Y-127754147D01*
X135217519Y-127661015D01*
X135098985Y-127542481D01*
X135005853Y-127403100D01*
X134941703Y-127248228D01*
X134909000Y-127083816D01*
X134909000Y-126916184D01*
X134941703Y-126751772D01*
X135005853Y-126596900D01*
X135098985Y-126457519D01*
X135217519Y-126338985D01*
X135356900Y-126245853D01*
X135511772Y-126181703D01*
X135676184Y-126149000D01*
X135843816Y-126149000D01*
X136008228Y-126181703D01*
G37*
G36*
X138778228Y-126181703D02*
G01*
X138933100Y-126245853D01*
X139072481Y-126338985D01*
X139191015Y-126457519D01*
X139284147Y-126596900D01*
X139348297Y-126751772D01*
X139381000Y-126916184D01*
X139381000Y-127083816D01*
X139348297Y-127248228D01*
X139284147Y-127403100D01*
X139191015Y-127542481D01*
X139072481Y-127661015D01*
X138933100Y-127754147D01*
X138778228Y-127818297D01*
X138613816Y-127851000D01*
X138446184Y-127851000D01*
X138281772Y-127818297D01*
X138126900Y-127754147D01*
X137987519Y-127661015D01*
X137868985Y-127542481D01*
X137775853Y-127403100D01*
X137711703Y-127248228D01*
X137679000Y-127083816D01*
X137679000Y-126916184D01*
X137711703Y-126751772D01*
X137775853Y-126596900D01*
X137868985Y-126457519D01*
X137987519Y-126338985D01*
X138126900Y-126245853D01*
X138281772Y-126181703D01*
X138446184Y-126149000D01*
X138613816Y-126149000D01*
X138778228Y-126181703D01*
G37*
G36*
X92291000Y-127851000D02*
G01*
X90589000Y-127851000D01*
X90589000Y-126149000D01*
X92291000Y-126149000D01*
X92291000Y-127851000D01*
G37*
G36*
X168491000Y-127851000D02*
G01*
X166789000Y-127851000D01*
X166789000Y-126149000D01*
X168491000Y-126149000D01*
X168491000Y-127851000D01*
G37*
G36*
X113848228Y-126181703D02*
G01*
X114003100Y-126245853D01*
X114142481Y-126338985D01*
X114261015Y-126457519D01*
X114354147Y-126596900D01*
X114418297Y-126751772D01*
X114451000Y-126916184D01*
X114451000Y-127083816D01*
X114418297Y-127248228D01*
X114354147Y-127403100D01*
X114261015Y-127542481D01*
X114142481Y-127661015D01*
X114003100Y-127754147D01*
X113848228Y-127818297D01*
X113683816Y-127851000D01*
X113516184Y-127851000D01*
X113351772Y-127818297D01*
X113196900Y-127754147D01*
X113057519Y-127661015D01*
X112938985Y-127542481D01*
X112845853Y-127403100D01*
X112781703Y-127248228D01*
X112749000Y-127083816D01*
X112749000Y-126916184D01*
X112781703Y-126751772D01*
X112845853Y-126596900D01*
X112938985Y-126457519D01*
X113057519Y-126338985D01*
X113196900Y-126245853D01*
X113351772Y-126181703D01*
X113516184Y-126149000D01*
X113683816Y-126149000D01*
X113848228Y-126181703D01*
G37*
G36*
X190048228Y-126181703D02*
G01*
X190203100Y-126245853D01*
X190342481Y-126338985D01*
X190461015Y-126457519D01*
X190554147Y-126596900D01*
X190618297Y-126751772D01*
X190651000Y-126916184D01*
X190651000Y-127083816D01*
X190618297Y-127248228D01*
X190554147Y-127403100D01*
X190461015Y-127542481D01*
X190342481Y-127661015D01*
X190203100Y-127754147D01*
X190048228Y-127818297D01*
X189883816Y-127851000D01*
X189716184Y-127851000D01*
X189551772Y-127818297D01*
X189396900Y-127754147D01*
X189257519Y-127661015D01*
X189138985Y-127542481D01*
X189045853Y-127403100D01*
X188981703Y-127248228D01*
X188949000Y-127083816D01*
X188949000Y-126916184D01*
X188981703Y-126751772D01*
X189045853Y-126596900D01*
X189138985Y-126457519D01*
X189257519Y-126338985D01*
X189396900Y-126245853D01*
X189551772Y-126181703D01*
X189716184Y-126149000D01*
X189883816Y-126149000D01*
X190048228Y-126181703D01*
G37*
G36*
X141548228Y-126181703D02*
G01*
X141703100Y-126245853D01*
X141842481Y-126338985D01*
X141961015Y-126457519D01*
X142054147Y-126596900D01*
X142118297Y-126751772D01*
X142151000Y-126916184D01*
X142151000Y-127083816D01*
X142118297Y-127248228D01*
X142054147Y-127403100D01*
X141961015Y-127542481D01*
X141842481Y-127661015D01*
X141703100Y-127754147D01*
X141548228Y-127818297D01*
X141383816Y-127851000D01*
X141216184Y-127851000D01*
X141051772Y-127818297D01*
X140896900Y-127754147D01*
X140757519Y-127661015D01*
X140638985Y-127542481D01*
X140545853Y-127403100D01*
X140481703Y-127248228D01*
X140449000Y-127083816D01*
X140449000Y-126916184D01*
X140481703Y-126751772D01*
X140545853Y-126596900D01*
X140638985Y-126457519D01*
X140757519Y-126338985D01*
X140896900Y-126245853D01*
X141051772Y-126181703D01*
X141216184Y-126149000D01*
X141383816Y-126149000D01*
X141548228Y-126181703D01*
G37*
G36*
X212208228Y-126181703D02*
G01*
X212363100Y-126245853D01*
X212502481Y-126338985D01*
X212621015Y-126457519D01*
X212714147Y-126596900D01*
X212778297Y-126751772D01*
X212811000Y-126916184D01*
X212811000Y-127083816D01*
X212778297Y-127248228D01*
X212714147Y-127403100D01*
X212621015Y-127542481D01*
X212502481Y-127661015D01*
X212363100Y-127754147D01*
X212208228Y-127818297D01*
X212043816Y-127851000D01*
X211876184Y-127851000D01*
X211711772Y-127818297D01*
X211556900Y-127754147D01*
X211417519Y-127661015D01*
X211298985Y-127542481D01*
X211205853Y-127403100D01*
X211141703Y-127248228D01*
X211109000Y-127083816D01*
X211109000Y-126916184D01*
X211141703Y-126751772D01*
X211205853Y-126596900D01*
X211298985Y-126457519D01*
X211417519Y-126338985D01*
X211556900Y-126245853D01*
X211711772Y-126181703D01*
X211876184Y-126149000D01*
X212043816Y-126149000D01*
X212208228Y-126181703D01*
G37*
G36*
X209438228Y-126181703D02*
G01*
X209593100Y-126245853D01*
X209732481Y-126338985D01*
X209851015Y-126457519D01*
X209944147Y-126596900D01*
X210008297Y-126751772D01*
X210041000Y-126916184D01*
X210041000Y-127083816D01*
X210008297Y-127248228D01*
X209944147Y-127403100D01*
X209851015Y-127542481D01*
X209732481Y-127661015D01*
X209593100Y-127754147D01*
X209438228Y-127818297D01*
X209273816Y-127851000D01*
X209106184Y-127851000D01*
X208941772Y-127818297D01*
X208786900Y-127754147D01*
X208647519Y-127661015D01*
X208528985Y-127542481D01*
X208435853Y-127403100D01*
X208371703Y-127248228D01*
X208339000Y-127083816D01*
X208339000Y-126916184D01*
X208371703Y-126751772D01*
X208435853Y-126596900D01*
X208528985Y-126457519D01*
X208647519Y-126338985D01*
X208786900Y-126245853D01*
X208941772Y-126181703D01*
X209106184Y-126149000D01*
X209273816Y-126149000D01*
X209438228Y-126181703D01*
G37*
G36*
X206668228Y-126181703D02*
G01*
X206823100Y-126245853D01*
X206962481Y-126338985D01*
X207081015Y-126457519D01*
X207174147Y-126596900D01*
X207238297Y-126751772D01*
X207271000Y-126916184D01*
X207271000Y-127083816D01*
X207238297Y-127248228D01*
X207174147Y-127403100D01*
X207081015Y-127542481D01*
X206962481Y-127661015D01*
X206823100Y-127754147D01*
X206668228Y-127818297D01*
X206503816Y-127851000D01*
X206336184Y-127851000D01*
X206171772Y-127818297D01*
X206016900Y-127754147D01*
X205877519Y-127661015D01*
X205758985Y-127542481D01*
X205665853Y-127403100D01*
X205601703Y-127248228D01*
X205569000Y-127083816D01*
X205569000Y-126916184D01*
X205601703Y-126751772D01*
X205665853Y-126596900D01*
X205758985Y-126457519D01*
X205877519Y-126338985D01*
X206016900Y-126245853D01*
X206171772Y-126181703D01*
X206336184Y-126149000D01*
X206503816Y-126149000D01*
X206668228Y-126181703D01*
G37*
G36*
X203898228Y-126181703D02*
G01*
X204053100Y-126245853D01*
X204192481Y-126338985D01*
X204311015Y-126457519D01*
X204404147Y-126596900D01*
X204468297Y-126751772D01*
X204501000Y-126916184D01*
X204501000Y-127083816D01*
X204468297Y-127248228D01*
X204404147Y-127403100D01*
X204311015Y-127542481D01*
X204192481Y-127661015D01*
X204053100Y-127754147D01*
X203898228Y-127818297D01*
X203733816Y-127851000D01*
X203566184Y-127851000D01*
X203401772Y-127818297D01*
X203246900Y-127754147D01*
X203107519Y-127661015D01*
X202988985Y-127542481D01*
X202895853Y-127403100D01*
X202831703Y-127248228D01*
X202799000Y-127083816D01*
X202799000Y-126916184D01*
X202831703Y-126751772D01*
X202895853Y-126596900D01*
X202988985Y-126457519D01*
X203107519Y-126338985D01*
X203246900Y-126245853D01*
X203401772Y-126181703D01*
X203566184Y-126149000D01*
X203733816Y-126149000D01*
X203898228Y-126181703D01*
G37*
G36*
X201128228Y-126181703D02*
G01*
X201283100Y-126245853D01*
X201422481Y-126338985D01*
X201541015Y-126457519D01*
X201634147Y-126596900D01*
X201698297Y-126751772D01*
X201731000Y-126916184D01*
X201731000Y-127083816D01*
X201698297Y-127248228D01*
X201634147Y-127403100D01*
X201541015Y-127542481D01*
X201422481Y-127661015D01*
X201283100Y-127754147D01*
X201128228Y-127818297D01*
X200963816Y-127851000D01*
X200796184Y-127851000D01*
X200631772Y-127818297D01*
X200476900Y-127754147D01*
X200337519Y-127661015D01*
X200218985Y-127542481D01*
X200125853Y-127403100D01*
X200061703Y-127248228D01*
X200029000Y-127083816D01*
X200029000Y-126916184D01*
X200061703Y-126751772D01*
X200125853Y-126596900D01*
X200218985Y-126457519D01*
X200337519Y-126338985D01*
X200476900Y-126245853D01*
X200631772Y-126181703D01*
X200796184Y-126149000D01*
X200963816Y-126149000D01*
X201128228Y-126181703D01*
G37*
G36*
X198358228Y-126181703D02*
G01*
X198513100Y-126245853D01*
X198652481Y-126338985D01*
X198771015Y-126457519D01*
X198864147Y-126596900D01*
X198928297Y-126751772D01*
X198961000Y-126916184D01*
X198961000Y-127083816D01*
X198928297Y-127248228D01*
X198864147Y-127403100D01*
X198771015Y-127542481D01*
X198652481Y-127661015D01*
X198513100Y-127754147D01*
X198358228Y-127818297D01*
X198193816Y-127851000D01*
X198026184Y-127851000D01*
X197861772Y-127818297D01*
X197706900Y-127754147D01*
X197567519Y-127661015D01*
X197448985Y-127542481D01*
X197355853Y-127403100D01*
X197291703Y-127248228D01*
X197259000Y-127083816D01*
X197259000Y-126916184D01*
X197291703Y-126751772D01*
X197355853Y-126596900D01*
X197448985Y-126457519D01*
X197567519Y-126338985D01*
X197706900Y-126245853D01*
X197861772Y-126181703D01*
X198026184Y-126149000D01*
X198193816Y-126149000D01*
X198358228Y-126181703D01*
G37*
G36*
X192818228Y-126181703D02*
G01*
X192973100Y-126245853D01*
X193112481Y-126338985D01*
X193231015Y-126457519D01*
X193324147Y-126596900D01*
X193388297Y-126751772D01*
X193421000Y-126916184D01*
X193421000Y-127083816D01*
X193388297Y-127248228D01*
X193324147Y-127403100D01*
X193231015Y-127542481D01*
X193112481Y-127661015D01*
X192973100Y-127754147D01*
X192818228Y-127818297D01*
X192653816Y-127851000D01*
X192486184Y-127851000D01*
X192321772Y-127818297D01*
X192166900Y-127754147D01*
X192027519Y-127661015D01*
X191908985Y-127542481D01*
X191815853Y-127403100D01*
X191751703Y-127248228D01*
X191719000Y-127083816D01*
X191719000Y-126916184D01*
X191751703Y-126751772D01*
X191815853Y-126596900D01*
X191908985Y-126457519D01*
X192027519Y-126338985D01*
X192166900Y-126245853D01*
X192321772Y-126181703D01*
X192486184Y-126149000D01*
X192653816Y-126149000D01*
X192818228Y-126181703D01*
G37*
G36*
X170658228Y-126181703D02*
G01*
X170813100Y-126245853D01*
X170952481Y-126338985D01*
X171071015Y-126457519D01*
X171164147Y-126596900D01*
X171228297Y-126751772D01*
X171261000Y-126916184D01*
X171261000Y-127083816D01*
X171228297Y-127248228D01*
X171164147Y-127403100D01*
X171071015Y-127542481D01*
X170952481Y-127661015D01*
X170813100Y-127754147D01*
X170658228Y-127818297D01*
X170493816Y-127851000D01*
X170326184Y-127851000D01*
X170161772Y-127818297D01*
X170006900Y-127754147D01*
X169867519Y-127661015D01*
X169748985Y-127542481D01*
X169655853Y-127403100D01*
X169591703Y-127248228D01*
X169559000Y-127083816D01*
X169559000Y-126916184D01*
X169591703Y-126751772D01*
X169655853Y-126596900D01*
X169748985Y-126457519D01*
X169867519Y-126338985D01*
X170006900Y-126245853D01*
X170161772Y-126181703D01*
X170326184Y-126149000D01*
X170493816Y-126149000D01*
X170658228Y-126181703D01*
G37*
G36*
X173428228Y-126181703D02*
G01*
X173583100Y-126245853D01*
X173722481Y-126338985D01*
X173841015Y-126457519D01*
X173934147Y-126596900D01*
X173998297Y-126751772D01*
X174031000Y-126916184D01*
X174031000Y-127083816D01*
X173998297Y-127248228D01*
X173934147Y-127403100D01*
X173841015Y-127542481D01*
X173722481Y-127661015D01*
X173583100Y-127754147D01*
X173428228Y-127818297D01*
X173263816Y-127851000D01*
X173096184Y-127851000D01*
X172931772Y-127818297D01*
X172776900Y-127754147D01*
X172637519Y-127661015D01*
X172518985Y-127542481D01*
X172425853Y-127403100D01*
X172361703Y-127248228D01*
X172329000Y-127083816D01*
X172329000Y-126916184D01*
X172361703Y-126751772D01*
X172425853Y-126596900D01*
X172518985Y-126457519D01*
X172637519Y-126338985D01*
X172776900Y-126245853D01*
X172931772Y-126181703D01*
X173096184Y-126149000D01*
X173263816Y-126149000D01*
X173428228Y-126181703D01*
G37*
G36*
X176198228Y-126181703D02*
G01*
X176353100Y-126245853D01*
X176492481Y-126338985D01*
X176611015Y-126457519D01*
X176704147Y-126596900D01*
X176768297Y-126751772D01*
X176801000Y-126916184D01*
X176801000Y-127083816D01*
X176768297Y-127248228D01*
X176704147Y-127403100D01*
X176611015Y-127542481D01*
X176492481Y-127661015D01*
X176353100Y-127754147D01*
X176198228Y-127818297D01*
X176033816Y-127851000D01*
X175866184Y-127851000D01*
X175701772Y-127818297D01*
X175546900Y-127754147D01*
X175407519Y-127661015D01*
X175288985Y-127542481D01*
X175195853Y-127403100D01*
X175131703Y-127248228D01*
X175099000Y-127083816D01*
X175099000Y-126916184D01*
X175131703Y-126751772D01*
X175195853Y-126596900D01*
X175288985Y-126457519D01*
X175407519Y-126338985D01*
X175546900Y-126245853D01*
X175701772Y-126181703D01*
X175866184Y-126149000D01*
X176033816Y-126149000D01*
X176198228Y-126181703D01*
G37*
G36*
X178968228Y-126181703D02*
G01*
X179123100Y-126245853D01*
X179262481Y-126338985D01*
X179381015Y-126457519D01*
X179474147Y-126596900D01*
X179538297Y-126751772D01*
X179571000Y-126916184D01*
X179571000Y-127083816D01*
X179538297Y-127248228D01*
X179474147Y-127403100D01*
X179381015Y-127542481D01*
X179262481Y-127661015D01*
X179123100Y-127754147D01*
X178968228Y-127818297D01*
X178803816Y-127851000D01*
X178636184Y-127851000D01*
X178471772Y-127818297D01*
X178316900Y-127754147D01*
X178177519Y-127661015D01*
X178058985Y-127542481D01*
X177965853Y-127403100D01*
X177901703Y-127248228D01*
X177869000Y-127083816D01*
X177869000Y-126916184D01*
X177901703Y-126751772D01*
X177965853Y-126596900D01*
X178058985Y-126457519D01*
X178177519Y-126338985D01*
X178316900Y-126245853D01*
X178471772Y-126181703D01*
X178636184Y-126149000D01*
X178803816Y-126149000D01*
X178968228Y-126181703D01*
G37*
G36*
X181738228Y-126181703D02*
G01*
X181893100Y-126245853D01*
X182032481Y-126338985D01*
X182151015Y-126457519D01*
X182244147Y-126596900D01*
X182308297Y-126751772D01*
X182341000Y-126916184D01*
X182341000Y-127083816D01*
X182308297Y-127248228D01*
X182244147Y-127403100D01*
X182151015Y-127542481D01*
X182032481Y-127661015D01*
X181893100Y-127754147D01*
X181738228Y-127818297D01*
X181573816Y-127851000D01*
X181406184Y-127851000D01*
X181241772Y-127818297D01*
X181086900Y-127754147D01*
X180947519Y-127661015D01*
X180828985Y-127542481D01*
X180735853Y-127403100D01*
X180671703Y-127248228D01*
X180639000Y-127083816D01*
X180639000Y-126916184D01*
X180671703Y-126751772D01*
X180735853Y-126596900D01*
X180828985Y-126457519D01*
X180947519Y-126338985D01*
X181086900Y-126245853D01*
X181241772Y-126181703D01*
X181406184Y-126149000D01*
X181573816Y-126149000D01*
X181738228Y-126181703D01*
G37*
G36*
X184508228Y-126181703D02*
G01*
X184663100Y-126245853D01*
X184802481Y-126338985D01*
X184921015Y-126457519D01*
X185014147Y-126596900D01*
X185078297Y-126751772D01*
X185111000Y-126916184D01*
X185111000Y-127083816D01*
X185078297Y-127248228D01*
X185014147Y-127403100D01*
X184921015Y-127542481D01*
X184802481Y-127661015D01*
X184663100Y-127754147D01*
X184508228Y-127818297D01*
X184343816Y-127851000D01*
X184176184Y-127851000D01*
X184011772Y-127818297D01*
X183856900Y-127754147D01*
X183717519Y-127661015D01*
X183598985Y-127542481D01*
X183505853Y-127403100D01*
X183441703Y-127248228D01*
X183409000Y-127083816D01*
X183409000Y-126916184D01*
X183441703Y-126751772D01*
X183505853Y-126596900D01*
X183598985Y-126457519D01*
X183717519Y-126338985D01*
X183856900Y-126245853D01*
X184011772Y-126181703D01*
X184176184Y-126149000D01*
X184343816Y-126149000D01*
X184508228Y-126181703D01*
G37*
G36*
X187278228Y-126181703D02*
G01*
X187433100Y-126245853D01*
X187572481Y-126338985D01*
X187691015Y-126457519D01*
X187784147Y-126596900D01*
X187848297Y-126751772D01*
X187881000Y-126916184D01*
X187881000Y-127083816D01*
X187848297Y-127248228D01*
X187784147Y-127403100D01*
X187691015Y-127542481D01*
X187572481Y-127661015D01*
X187433100Y-127754147D01*
X187278228Y-127818297D01*
X187113816Y-127851000D01*
X186946184Y-127851000D01*
X186781772Y-127818297D01*
X186626900Y-127754147D01*
X186487519Y-127661015D01*
X186368985Y-127542481D01*
X186275853Y-127403100D01*
X186211703Y-127248228D01*
X186179000Y-127083816D01*
X186179000Y-126916184D01*
X186211703Y-126751772D01*
X186275853Y-126596900D01*
X186368985Y-126457519D01*
X186487519Y-126338985D01*
X186626900Y-126245853D01*
X186781772Y-126181703D01*
X186946184Y-126149000D01*
X187113816Y-126149000D01*
X187278228Y-126181703D01*
G37*
G36*
X195588228Y-126181703D02*
G01*
X195743100Y-126245853D01*
X195882481Y-126338985D01*
X196001015Y-126457519D01*
X196094147Y-126596900D01*
X196158297Y-126751772D01*
X196191000Y-126916184D01*
X196191000Y-127083816D01*
X196158297Y-127248228D01*
X196094147Y-127403100D01*
X196001015Y-127542481D01*
X195882481Y-127661015D01*
X195743100Y-127754147D01*
X195588228Y-127818297D01*
X195423816Y-127851000D01*
X195256184Y-127851000D01*
X195091772Y-127818297D01*
X194936900Y-127754147D01*
X194797519Y-127661015D01*
X194678985Y-127542481D01*
X194585853Y-127403100D01*
X194521703Y-127248228D01*
X194489000Y-127083816D01*
X194489000Y-126916184D01*
X194521703Y-126751772D01*
X194585853Y-126596900D01*
X194678985Y-126457519D01*
X194797519Y-126338985D01*
X194936900Y-126245853D01*
X195091772Y-126181703D01*
X195256184Y-126149000D01*
X195423816Y-126149000D01*
X195588228Y-126181703D01*
G37*
G36*
X114241000Y-116851000D02*
G01*
X112639000Y-116851000D01*
X112639000Y-111749000D01*
X114241000Y-111749000D01*
X114241000Y-116851000D01*
G37*
G36*
X108341000Y-116851000D02*
G01*
X106739000Y-116851000D01*
X106739000Y-111749000D01*
X108341000Y-111749000D01*
X108341000Y-116851000D01*
G37*
G36*
X212481000Y-116851000D02*
G01*
X210879000Y-116851000D01*
X210879000Y-111749000D01*
X212481000Y-111749000D01*
X212481000Y-116851000D01*
G37*
G36*
X176471000Y-116851000D02*
G01*
X174869000Y-116851000D01*
X174869000Y-111749000D01*
X176471000Y-111749000D01*
X176471000Y-116851000D01*
G37*
G36*
X170571000Y-116851000D02*
G01*
X168969000Y-116851000D01*
X168969000Y-111749000D01*
X170571000Y-111749000D01*
X170571000Y-116851000D01*
G37*
G36*
X190441000Y-116851000D02*
G01*
X188839000Y-116851000D01*
X188839000Y-111749000D01*
X190441000Y-111749000D01*
X190441000Y-116851000D01*
G37*
G36*
X184541000Y-116851000D02*
G01*
X182939000Y-116851000D01*
X182939000Y-111749000D01*
X184541000Y-111749000D01*
X184541000Y-116851000D01*
G37*
G36*
X142181000Y-116851000D02*
G01*
X140579000Y-116851000D01*
X140579000Y-111749000D01*
X142181000Y-111749000D01*
X142181000Y-116851000D01*
G37*
G36*
X136281000Y-116851000D02*
G01*
X134679000Y-116851000D01*
X134679000Y-111749000D01*
X136281000Y-111749000D01*
X136281000Y-116851000D01*
G37*
G36*
X128211000Y-116851000D02*
G01*
X126609000Y-116851000D01*
X126609000Y-111749000D01*
X128211000Y-111749000D01*
X128211000Y-116851000D01*
G37*
G36*
X122311000Y-116851000D02*
G01*
X120709000Y-116851000D01*
X120709000Y-111749000D01*
X122311000Y-111749000D01*
X122311000Y-116851000D01*
G37*
G36*
X100271000Y-116851000D02*
G01*
X98669000Y-116851000D01*
X98669000Y-111749000D01*
X100271000Y-111749000D01*
X100271000Y-116851000D01*
G37*
G36*
X94371000Y-116851000D02*
G01*
X92769000Y-116851000D01*
X92769000Y-111749000D01*
X94371000Y-111749000D01*
X94371000Y-116851000D01*
G37*
G36*
X218381000Y-116851000D02*
G01*
X216779000Y-116851000D01*
X216779000Y-111749000D01*
X218381000Y-111749000D01*
X218381000Y-116851000D01*
G37*
G36*
X204411000Y-116851000D02*
G01*
X202809000Y-116851000D01*
X202809000Y-111749000D01*
X204411000Y-111749000D01*
X204411000Y-116851000D01*
G37*
G36*
X198511000Y-116851000D02*
G01*
X196909000Y-116851000D01*
X196909000Y-111749000D01*
X198511000Y-111749000D01*
X198511000Y-116851000D01*
G37*
G36*
X95508604Y-108933347D02*
G01*
X95545144Y-108944432D01*
X95578821Y-108962433D01*
X95608341Y-108986659D01*
X95632567Y-109016179D01*
X95650568Y-109049856D01*
X95661653Y-109086396D01*
X95666000Y-109130538D01*
X95666000Y-110579462D01*
X95661653Y-110623604D01*
X95650568Y-110660144D01*
X95632567Y-110693821D01*
X95608341Y-110723341D01*
X95578821Y-110747567D01*
X95545144Y-110765568D01*
X95508604Y-110776653D01*
X95464462Y-110781000D01*
X94515538Y-110781000D01*
X94471396Y-110776653D01*
X94434856Y-110765568D01*
X94401179Y-110747567D01*
X94371659Y-110723341D01*
X94347433Y-110693821D01*
X94329432Y-110660144D01*
X94318347Y-110623604D01*
X94314000Y-110579462D01*
X94314000Y-109130538D01*
X94318347Y-109086396D01*
X94329432Y-109049856D01*
X94347433Y-109016179D01*
X94371659Y-108986659D01*
X94401179Y-108962433D01*
X94434856Y-108944432D01*
X94471396Y-108933347D01*
X94515538Y-108929000D01*
X95464462Y-108929000D01*
X95508604Y-108933347D01*
G37*
G36*
X188608604Y-108933347D02*
G01*
X188645144Y-108944432D01*
X188678821Y-108962433D01*
X188708341Y-108986659D01*
X188732567Y-109016179D01*
X188750568Y-109049856D01*
X188761653Y-109086396D01*
X188766000Y-109130538D01*
X188766000Y-110579462D01*
X188761653Y-110623604D01*
X188750568Y-110660144D01*
X188732567Y-110693821D01*
X188708341Y-110723341D01*
X188678821Y-110747567D01*
X188645144Y-110765568D01*
X188608604Y-110776653D01*
X188564462Y-110781000D01*
X187615538Y-110781000D01*
X187571396Y-110776653D01*
X187534856Y-110765568D01*
X187501179Y-110747567D01*
X187471659Y-110723341D01*
X187447433Y-110693821D01*
X187429432Y-110660144D01*
X187418347Y-110623604D01*
X187414000Y-110579462D01*
X187414000Y-109130538D01*
X187418347Y-109086396D01*
X187429432Y-109049856D01*
X187447433Y-109016179D01*
X187471659Y-108986659D01*
X187501179Y-108962433D01*
X187534856Y-108944432D01*
X187571396Y-108933347D01*
X187615538Y-108929000D01*
X188564462Y-108929000D01*
X188608604Y-108933347D01*
G37*
G36*
X199778604Y-108933347D02*
G01*
X199815144Y-108944432D01*
X199848821Y-108962433D01*
X199878341Y-108986659D01*
X199902567Y-109016179D01*
X199920568Y-109049856D01*
X199931653Y-109086396D01*
X199936000Y-109130538D01*
X199936000Y-110579462D01*
X199931653Y-110623604D01*
X199920568Y-110660144D01*
X199902567Y-110693821D01*
X199878341Y-110723341D01*
X199848821Y-110747567D01*
X199815144Y-110765568D01*
X199778604Y-110776653D01*
X199734462Y-110781000D01*
X198785538Y-110781000D01*
X198741396Y-110776653D01*
X198704856Y-110765568D01*
X198671179Y-110747567D01*
X198641659Y-110723341D01*
X198617433Y-110693821D01*
X198599432Y-110660144D01*
X198588347Y-110623604D01*
X198584000Y-110579462D01*
X198584000Y-109130538D01*
X198588347Y-109086396D01*
X198599432Y-109049856D01*
X198617433Y-109016179D01*
X198641659Y-108986659D01*
X198671179Y-108962433D01*
X198704856Y-108944432D01*
X198741396Y-108933347D01*
X198785538Y-108929000D01*
X199734462Y-108929000D01*
X199778604Y-108933347D01*
G37*
G36*
X202578604Y-108933347D02*
G01*
X202615144Y-108944432D01*
X202648821Y-108962433D01*
X202678341Y-108986659D01*
X202702567Y-109016179D01*
X202720568Y-109049856D01*
X202731653Y-109086396D01*
X202736000Y-109130538D01*
X202736000Y-110579462D01*
X202731653Y-110623604D01*
X202720568Y-110660144D01*
X202702567Y-110693821D01*
X202678341Y-110723341D01*
X202648821Y-110747567D01*
X202615144Y-110765568D01*
X202578604Y-110776653D01*
X202534462Y-110781000D01*
X201585538Y-110781000D01*
X201541396Y-110776653D01*
X201504856Y-110765568D01*
X201471179Y-110747567D01*
X201441659Y-110723341D01*
X201417433Y-110693821D01*
X201399432Y-110660144D01*
X201388347Y-110623604D01*
X201384000Y-110579462D01*
X201384000Y-109130538D01*
X201388347Y-109086396D01*
X201399432Y-109049856D01*
X201417433Y-109016179D01*
X201441659Y-108986659D01*
X201471179Y-108962433D01*
X201504856Y-108944432D01*
X201541396Y-108933347D01*
X201585538Y-108929000D01*
X202534462Y-108929000D01*
X202578604Y-108933347D01*
G37*
G36*
X213748604Y-108933347D02*
G01*
X213785144Y-108944432D01*
X213818821Y-108962433D01*
X213848341Y-108986659D01*
X213872567Y-109016179D01*
X213890568Y-109049856D01*
X213901653Y-109086396D01*
X213906000Y-109130538D01*
X213906000Y-110579462D01*
X213901653Y-110623604D01*
X213890568Y-110660144D01*
X213872567Y-110693821D01*
X213848341Y-110723341D01*
X213818821Y-110747567D01*
X213785144Y-110765568D01*
X213748604Y-110776653D01*
X213704462Y-110781000D01*
X212755538Y-110781000D01*
X212711396Y-110776653D01*
X212674856Y-110765568D01*
X212641179Y-110747567D01*
X212611659Y-110723341D01*
X212587433Y-110693821D01*
X212569432Y-110660144D01*
X212558347Y-110623604D01*
X212554000Y-110579462D01*
X212554000Y-109130538D01*
X212558347Y-109086396D01*
X212569432Y-109049856D01*
X212587433Y-109016179D01*
X212611659Y-108986659D01*
X212641179Y-108962433D01*
X212674856Y-108944432D01*
X212711396Y-108933347D01*
X212755538Y-108929000D01*
X213704462Y-108929000D01*
X213748604Y-108933347D01*
G37*
G36*
X185808604Y-108933347D02*
G01*
X185845144Y-108944432D01*
X185878821Y-108962433D01*
X185908341Y-108986659D01*
X185932567Y-109016179D01*
X185950568Y-109049856D01*
X185961653Y-109086396D01*
X185966000Y-109130538D01*
X185966000Y-110579462D01*
X185961653Y-110623604D01*
X185950568Y-110660144D01*
X185932567Y-110693821D01*
X185908341Y-110723341D01*
X185878821Y-110747567D01*
X185845144Y-110765568D01*
X185808604Y-110776653D01*
X185764462Y-110781000D01*
X184815538Y-110781000D01*
X184771396Y-110776653D01*
X184734856Y-110765568D01*
X184701179Y-110747567D01*
X184671659Y-110723341D01*
X184647433Y-110693821D01*
X184629432Y-110660144D01*
X184618347Y-110623604D01*
X184614000Y-110579462D01*
X184614000Y-109130538D01*
X184618347Y-109086396D01*
X184629432Y-109049856D01*
X184647433Y-109016179D01*
X184671659Y-108986659D01*
X184701179Y-108962433D01*
X184734856Y-108944432D01*
X184771396Y-108933347D01*
X184815538Y-108929000D01*
X185764462Y-108929000D01*
X185808604Y-108933347D01*
G37*
G36*
X216548604Y-108933347D02*
G01*
X216585144Y-108944432D01*
X216618821Y-108962433D01*
X216648341Y-108986659D01*
X216672567Y-109016179D01*
X216690568Y-109049856D01*
X216701653Y-109086396D01*
X216706000Y-109130538D01*
X216706000Y-110579462D01*
X216701653Y-110623604D01*
X216690568Y-110660144D01*
X216672567Y-110693821D01*
X216648341Y-110723341D01*
X216618821Y-110747567D01*
X216585144Y-110765568D01*
X216548604Y-110776653D01*
X216504462Y-110781000D01*
X215555538Y-110781000D01*
X215511396Y-110776653D01*
X215474856Y-110765568D01*
X215441179Y-110747567D01*
X215411659Y-110723341D01*
X215387433Y-110693821D01*
X215369432Y-110660144D01*
X215358347Y-110623604D01*
X215354000Y-110579462D01*
X215354000Y-109130538D01*
X215358347Y-109086396D01*
X215369432Y-109049856D01*
X215387433Y-109016179D01*
X215411659Y-108986659D01*
X215441179Y-108962433D01*
X215474856Y-108944432D01*
X215511396Y-108933347D01*
X215555538Y-108929000D01*
X216504462Y-108929000D01*
X216548604Y-108933347D01*
G37*
G36*
X174638604Y-108933347D02*
G01*
X174675144Y-108944432D01*
X174708821Y-108962433D01*
X174738341Y-108986659D01*
X174762567Y-109016179D01*
X174780568Y-109049856D01*
X174791653Y-109086396D01*
X174796000Y-109130538D01*
X174796000Y-110579462D01*
X174791653Y-110623604D01*
X174780568Y-110660144D01*
X174762567Y-110693821D01*
X174738341Y-110723341D01*
X174708821Y-110747567D01*
X174675144Y-110765568D01*
X174638604Y-110776653D01*
X174594462Y-110781000D01*
X173645538Y-110781000D01*
X173601396Y-110776653D01*
X173564856Y-110765568D01*
X173531179Y-110747567D01*
X173501659Y-110723341D01*
X173477433Y-110693821D01*
X173459432Y-110660144D01*
X173448347Y-110623604D01*
X173444000Y-110579462D01*
X173444000Y-109130538D01*
X173448347Y-109086396D01*
X173459432Y-109049856D01*
X173477433Y-109016179D01*
X173501659Y-108986659D01*
X173531179Y-108962433D01*
X173564856Y-108944432D01*
X173601396Y-108933347D01*
X173645538Y-108929000D01*
X174594462Y-108929000D01*
X174638604Y-108933347D01*
G37*
G36*
X137548604Y-108933347D02*
G01*
X137585144Y-108944432D01*
X137618821Y-108962433D01*
X137648341Y-108986659D01*
X137672567Y-109016179D01*
X137690568Y-109049856D01*
X137701653Y-109086396D01*
X137706000Y-109130538D01*
X137706000Y-110579462D01*
X137701653Y-110623604D01*
X137690568Y-110660144D01*
X137672567Y-110693821D01*
X137648341Y-110723341D01*
X137618821Y-110747567D01*
X137585144Y-110765568D01*
X137548604Y-110776653D01*
X137504462Y-110781000D01*
X136555538Y-110781000D01*
X136511396Y-110776653D01*
X136474856Y-110765568D01*
X136441179Y-110747567D01*
X136411659Y-110723341D01*
X136387433Y-110693821D01*
X136369432Y-110660144D01*
X136358347Y-110623604D01*
X136354000Y-110579462D01*
X136354000Y-109130538D01*
X136358347Y-109086396D01*
X136369432Y-109049856D01*
X136387433Y-109016179D01*
X136411659Y-108986659D01*
X136441179Y-108962433D01*
X136474856Y-108944432D01*
X136511396Y-108933347D01*
X136555538Y-108929000D01*
X137504462Y-108929000D01*
X137548604Y-108933347D01*
G37*
G36*
X140348604Y-108933347D02*
G01*
X140385144Y-108944432D01*
X140418821Y-108962433D01*
X140448341Y-108986659D01*
X140472567Y-109016179D01*
X140490568Y-109049856D01*
X140501653Y-109086396D01*
X140506000Y-109130538D01*
X140506000Y-110579462D01*
X140501653Y-110623604D01*
X140490568Y-110660144D01*
X140472567Y-110693821D01*
X140448341Y-110723341D01*
X140418821Y-110747567D01*
X140385144Y-110765568D01*
X140348604Y-110776653D01*
X140304462Y-110781000D01*
X139355538Y-110781000D01*
X139311396Y-110776653D01*
X139274856Y-110765568D01*
X139241179Y-110747567D01*
X139211659Y-110723341D01*
X139187433Y-110693821D01*
X139169432Y-110660144D01*
X139158347Y-110623604D01*
X139154000Y-110579462D01*
X139154000Y-109130538D01*
X139158347Y-109086396D01*
X139169432Y-109049856D01*
X139187433Y-109016179D01*
X139211659Y-108986659D01*
X139241179Y-108962433D01*
X139274856Y-108944432D01*
X139311396Y-108933347D01*
X139355538Y-108929000D01*
X140304462Y-108929000D01*
X140348604Y-108933347D01*
G37*
G36*
X171838604Y-108933347D02*
G01*
X171875144Y-108944432D01*
X171908821Y-108962433D01*
X171938341Y-108986659D01*
X171962567Y-109016179D01*
X171980568Y-109049856D01*
X171991653Y-109086396D01*
X171996000Y-109130538D01*
X171996000Y-110579462D01*
X171991653Y-110623604D01*
X171980568Y-110660144D01*
X171962567Y-110693821D01*
X171938341Y-110723341D01*
X171908821Y-110747567D01*
X171875144Y-110765568D01*
X171838604Y-110776653D01*
X171794462Y-110781000D01*
X170845538Y-110781000D01*
X170801396Y-110776653D01*
X170764856Y-110765568D01*
X170731179Y-110747567D01*
X170701659Y-110723341D01*
X170677433Y-110693821D01*
X170659432Y-110660144D01*
X170648347Y-110623604D01*
X170644000Y-110579462D01*
X170644000Y-109130538D01*
X170648347Y-109086396D01*
X170659432Y-109049856D01*
X170677433Y-109016179D01*
X170701659Y-108986659D01*
X170731179Y-108962433D01*
X170764856Y-108944432D01*
X170801396Y-108933347D01*
X170845538Y-108929000D01*
X171794462Y-108929000D01*
X171838604Y-108933347D01*
G37*
G36*
X98308604Y-108933347D02*
G01*
X98345144Y-108944432D01*
X98378821Y-108962433D01*
X98408341Y-108986659D01*
X98432567Y-109016179D01*
X98450568Y-109049856D01*
X98461653Y-109086396D01*
X98466000Y-109130538D01*
X98466000Y-110579462D01*
X98461653Y-110623604D01*
X98450568Y-110660144D01*
X98432567Y-110693821D01*
X98408341Y-110723341D01*
X98378821Y-110747567D01*
X98345144Y-110765568D01*
X98308604Y-110776653D01*
X98264462Y-110781000D01*
X97315538Y-110781000D01*
X97271396Y-110776653D01*
X97234856Y-110765568D01*
X97201179Y-110747567D01*
X97171659Y-110723341D01*
X97147433Y-110693821D01*
X97129432Y-110660144D01*
X97118347Y-110623604D01*
X97114000Y-110579462D01*
X97114000Y-109130538D01*
X97118347Y-109086396D01*
X97129432Y-109049856D01*
X97147433Y-109016179D01*
X97171659Y-108986659D01*
X97201179Y-108962433D01*
X97234856Y-108944432D01*
X97271396Y-108933347D01*
X97315538Y-108929000D01*
X98264462Y-108929000D01*
X98308604Y-108933347D01*
G37*
G36*
X109608604Y-108933347D02*
G01*
X109645144Y-108944432D01*
X109678821Y-108962433D01*
X109708341Y-108986659D01*
X109732567Y-109016179D01*
X109750568Y-109049856D01*
X109761653Y-109086396D01*
X109766000Y-109130538D01*
X109766000Y-110579462D01*
X109761653Y-110623604D01*
X109750568Y-110660144D01*
X109732567Y-110693821D01*
X109708341Y-110723341D01*
X109678821Y-110747567D01*
X109645144Y-110765568D01*
X109608604Y-110776653D01*
X109564462Y-110781000D01*
X108615538Y-110781000D01*
X108571396Y-110776653D01*
X108534856Y-110765568D01*
X108501179Y-110747567D01*
X108471659Y-110723341D01*
X108447433Y-110693821D01*
X108429432Y-110660144D01*
X108418347Y-110623604D01*
X108414000Y-110579462D01*
X108414000Y-109130538D01*
X108418347Y-109086396D01*
X108429432Y-109049856D01*
X108447433Y-109016179D01*
X108471659Y-108986659D01*
X108501179Y-108962433D01*
X108534856Y-108944432D01*
X108571396Y-108933347D01*
X108615538Y-108929000D01*
X109564462Y-108929000D01*
X109608604Y-108933347D01*
G37*
G36*
X123578604Y-108933347D02*
G01*
X123615144Y-108944432D01*
X123648821Y-108962433D01*
X123678341Y-108986659D01*
X123702567Y-109016179D01*
X123720568Y-109049856D01*
X123731653Y-109086396D01*
X123736000Y-109130538D01*
X123736000Y-110579462D01*
X123731653Y-110623604D01*
X123720568Y-110660144D01*
X123702567Y-110693821D01*
X123678341Y-110723341D01*
X123648821Y-110747567D01*
X123615144Y-110765568D01*
X123578604Y-110776653D01*
X123534462Y-110781000D01*
X122585538Y-110781000D01*
X122541396Y-110776653D01*
X122504856Y-110765568D01*
X122471179Y-110747567D01*
X122441659Y-110723341D01*
X122417433Y-110693821D01*
X122399432Y-110660144D01*
X122388347Y-110623604D01*
X122384000Y-110579462D01*
X122384000Y-109130538D01*
X122388347Y-109086396D01*
X122399432Y-109049856D01*
X122417433Y-109016179D01*
X122441659Y-108986659D01*
X122471179Y-108962433D01*
X122504856Y-108944432D01*
X122541396Y-108933347D01*
X122585538Y-108929000D01*
X123534462Y-108929000D01*
X123578604Y-108933347D01*
G37*
G36*
X126378604Y-108933347D02*
G01*
X126415144Y-108944432D01*
X126448821Y-108962433D01*
X126478341Y-108986659D01*
X126502567Y-109016179D01*
X126520568Y-109049856D01*
X126531653Y-109086396D01*
X126536000Y-109130538D01*
X126536000Y-110579462D01*
X126531653Y-110623604D01*
X126520568Y-110660144D01*
X126502567Y-110693821D01*
X126478341Y-110723341D01*
X126448821Y-110747567D01*
X126415144Y-110765568D01*
X126378604Y-110776653D01*
X126334462Y-110781000D01*
X125385538Y-110781000D01*
X125341396Y-110776653D01*
X125304856Y-110765568D01*
X125271179Y-110747567D01*
X125241659Y-110723341D01*
X125217433Y-110693821D01*
X125199432Y-110660144D01*
X125188347Y-110623604D01*
X125184000Y-110579462D01*
X125184000Y-109130538D01*
X125188347Y-109086396D01*
X125199432Y-109049856D01*
X125217433Y-109016179D01*
X125241659Y-108986659D01*
X125271179Y-108962433D01*
X125304856Y-108944432D01*
X125341396Y-108933347D01*
X125385538Y-108929000D01*
X126334462Y-108929000D01*
X126378604Y-108933347D01*
G37*
G36*
X112408604Y-108933347D02*
G01*
X112445144Y-108944432D01*
X112478821Y-108962433D01*
X112508341Y-108986659D01*
X112532567Y-109016179D01*
X112550568Y-109049856D01*
X112561653Y-109086396D01*
X112566000Y-109130538D01*
X112566000Y-110579462D01*
X112561653Y-110623604D01*
X112550568Y-110660144D01*
X112532567Y-110693821D01*
X112508341Y-110723341D01*
X112478821Y-110747567D01*
X112445144Y-110765568D01*
X112408604Y-110776653D01*
X112364462Y-110781000D01*
X111415538Y-110781000D01*
X111371396Y-110776653D01*
X111334856Y-110765568D01*
X111301179Y-110747567D01*
X111271659Y-110723341D01*
X111247433Y-110693821D01*
X111229432Y-110660144D01*
X111218347Y-110623604D01*
X111214000Y-110579462D01*
X111214000Y-109130538D01*
X111218347Y-109086396D01*
X111229432Y-109049856D01*
X111247433Y-109016179D01*
X111271659Y-108986659D01*
X111301179Y-108962433D01*
X111334856Y-108944432D01*
X111371396Y-108933347D01*
X111415538Y-108929000D01*
X112364462Y-108929000D01*
X112408604Y-108933347D01*
G37*
G36*
X94894072Y-102360918D02*
G01*
X95111551Y-102451000D01*
X95139939Y-102462759D01*
X95361212Y-102610610D01*
X95549390Y-102798788D01*
X95697241Y-103020061D01*
X95799082Y-103265928D01*
X95851000Y-103526938D01*
X95851000Y-103793062D01*
X95799082Y-104054072D01*
X95697241Y-104299939D01*
X95549390Y-104521212D01*
X95361212Y-104709390D01*
X95139939Y-104857241D01*
X95139938Y-104857242D01*
X95139937Y-104857242D01*
X94894072Y-104959082D01*
X94633063Y-105011000D01*
X94366937Y-105011000D01*
X94105928Y-104959082D01*
X93860063Y-104857242D01*
X93860062Y-104857242D01*
X93860061Y-104857241D01*
X93638788Y-104709390D01*
X93450610Y-104521212D01*
X93302759Y-104299939D01*
X93200918Y-104054072D01*
X93149000Y-103793062D01*
X93149000Y-103526938D01*
X93200918Y-103265928D01*
X93302759Y-103020061D01*
X93450610Y-102798788D01*
X93638788Y-102610610D01*
X93860061Y-102462759D01*
X93888450Y-102451000D01*
X94105928Y-102360918D01*
X94366937Y-102309000D01*
X94633063Y-102309000D01*
X94894072Y-102360918D01*
G37*
G36*
X107328604Y-101948347D02*
G01*
X107365144Y-101959432D01*
X107398821Y-101977433D01*
X107428341Y-102001659D01*
X107452567Y-102031179D01*
X107470568Y-102064856D01*
X107481653Y-102101396D01*
X107486000Y-102145538D01*
X107486000Y-103594462D01*
X107481653Y-103638604D01*
X107470568Y-103675144D01*
X107452567Y-103708821D01*
X107428341Y-103738341D01*
X107398821Y-103762567D01*
X107365144Y-103780568D01*
X107328604Y-103791653D01*
X107284462Y-103796000D01*
X106335538Y-103796000D01*
X106291396Y-103791653D01*
X106254856Y-103780568D01*
X106221179Y-103762567D01*
X106191659Y-103738341D01*
X106167433Y-103708821D01*
X106149432Y-103675144D01*
X106138347Y-103638604D01*
X106134000Y-103594462D01*
X106134000Y-102145538D01*
X106138347Y-102101396D01*
X106149432Y-102064856D01*
X106167433Y-102031179D01*
X106191659Y-102001659D01*
X106221179Y-101977433D01*
X106254856Y-101959432D01*
X106291396Y-101948347D01*
X106335538Y-101944000D01*
X107284462Y-101944000D01*
X107328604Y-101948347D01*
G37*
G36*
X104528604Y-101948347D02*
G01*
X104565144Y-101959432D01*
X104598821Y-101977433D01*
X104628341Y-102001659D01*
X104652567Y-102031179D01*
X104670568Y-102064856D01*
X104681653Y-102101396D01*
X104686000Y-102145538D01*
X104686000Y-103594462D01*
X104681653Y-103638604D01*
X104670568Y-103675144D01*
X104652567Y-103708821D01*
X104628341Y-103738341D01*
X104598821Y-103762567D01*
X104565144Y-103780568D01*
X104528604Y-103791653D01*
X104484462Y-103796000D01*
X103535538Y-103796000D01*
X103491396Y-103791653D01*
X103454856Y-103780568D01*
X103421179Y-103762567D01*
X103391659Y-103738341D01*
X103367433Y-103708821D01*
X103349432Y-103675144D01*
X103338347Y-103638604D01*
X103334000Y-103594462D01*
X103334000Y-102145538D01*
X103338347Y-102101396D01*
X103349432Y-102064856D01*
X103367433Y-102031179D01*
X103391659Y-102001659D01*
X103421179Y-101977433D01*
X103454856Y-101959432D01*
X103491396Y-101948347D01*
X103535538Y-101944000D01*
X104484462Y-101944000D01*
X104528604Y-101948347D01*
G37*
G36*
X91731072Y-99947074D02*
G01*
X91938871Y-99988408D01*
X92243883Y-100114748D01*
X92518387Y-100298166D01*
X92751834Y-100531613D01*
X92935252Y-100806117D01*
X93002347Y-100968099D01*
X93061592Y-101111130D01*
X93104603Y-101327356D01*
X93126000Y-101434928D01*
X93126000Y-101765072D01*
X93061592Y-102088871D01*
X92935252Y-102393883D01*
X92751834Y-102668387D01*
X92518387Y-102901834D01*
X92243883Y-103085252D01*
X91938871Y-103211592D01*
X91776971Y-103243796D01*
X91615073Y-103276000D01*
X91284927Y-103276000D01*
X90961129Y-103211592D01*
X90656117Y-103085252D01*
X90381613Y-102901834D01*
X90148166Y-102668387D01*
X89964748Y-102393883D01*
X89838408Y-102088871D01*
X89774000Y-101765072D01*
X89774000Y-101434928D01*
X89795398Y-101327356D01*
X89838408Y-101111130D01*
X89897653Y-100968099D01*
X89964748Y-100806117D01*
X90148166Y-100531613D01*
X90381613Y-100298166D01*
X90656117Y-100114748D01*
X90961129Y-99988408D01*
X91168928Y-99947074D01*
X91284927Y-99924000D01*
X91615073Y-99924000D01*
X91731072Y-99947074D01*
G37*
G36*
X88360521Y-101252275D02*
G01*
X88451152Y-101289816D01*
X88541783Y-101327356D01*
X88704913Y-101436356D01*
X88843644Y-101575087D01*
X88952644Y-101738217D01*
X88963768Y-101765073D01*
X89027725Y-101919479D01*
X89066000Y-102111901D01*
X89066000Y-102308099D01*
X89027725Y-102500521D01*
X88990184Y-102591153D01*
X88952644Y-102681783D01*
X88843644Y-102844913D01*
X88704913Y-102983644D01*
X88541783Y-103092644D01*
X88451152Y-103130184D01*
X88360521Y-103167725D01*
X88168099Y-103206000D01*
X87971901Y-103206000D01*
X87779479Y-103167725D01*
X87688848Y-103130184D01*
X87598217Y-103092644D01*
X87435087Y-102983644D01*
X87296356Y-102844913D01*
X87187356Y-102681783D01*
X87149816Y-102591153D01*
X87112275Y-102500521D01*
X87074000Y-102308099D01*
X87074000Y-102111901D01*
X87112275Y-101919479D01*
X87176232Y-101765073D01*
X87187356Y-101738217D01*
X87296356Y-101575087D01*
X87435087Y-101436356D01*
X87598217Y-101327356D01*
X87688848Y-101289816D01*
X87779479Y-101252275D01*
X87971901Y-101214000D01*
X88168099Y-101214000D01*
X88360521Y-101252275D01*
G37*
G36*
X142488228Y-100781703D02*
G01*
X142643100Y-100845853D01*
X142782481Y-100938985D01*
X142901015Y-101057519D01*
X142994147Y-101196900D01*
X143058297Y-101351772D01*
X143091000Y-101516184D01*
X143091000Y-101683816D01*
X143058297Y-101848228D01*
X142994147Y-102003100D01*
X142901015Y-102142481D01*
X142782481Y-102261015D01*
X142643100Y-102354147D01*
X142488228Y-102418297D01*
X142323816Y-102451000D01*
X142156184Y-102451000D01*
X141991772Y-102418297D01*
X141836900Y-102354147D01*
X141697519Y-102261015D01*
X141578985Y-102142481D01*
X141485853Y-102003100D01*
X141421703Y-101848228D01*
X141389000Y-101683816D01*
X141389000Y-101516184D01*
X141421703Y-101351772D01*
X141485853Y-101196900D01*
X141578985Y-101057519D01*
X141697519Y-100938985D01*
X141836900Y-100845853D01*
X141991772Y-100781703D01*
X142156184Y-100749000D01*
X142323816Y-100749000D01*
X142488228Y-100781703D01*
G37*
G36*
X134868228Y-100781703D02*
G01*
X135023100Y-100845853D01*
X135162481Y-100938985D01*
X135281015Y-101057519D01*
X135374147Y-101196900D01*
X135438297Y-101351772D01*
X135471000Y-101516184D01*
X135471000Y-101683816D01*
X135438297Y-101848228D01*
X135374147Y-102003100D01*
X135281015Y-102142481D01*
X135162481Y-102261015D01*
X135023100Y-102354147D01*
X134868228Y-102418297D01*
X134703816Y-102451000D01*
X134536184Y-102451000D01*
X134371772Y-102418297D01*
X134216900Y-102354147D01*
X134077519Y-102261015D01*
X133958985Y-102142481D01*
X133865853Y-102003100D01*
X133801703Y-101848228D01*
X133769000Y-101683816D01*
X133769000Y-101516184D01*
X133801703Y-101351772D01*
X133865853Y-101196900D01*
X133958985Y-101057519D01*
X134077519Y-100938985D01*
X134216900Y-100845853D01*
X134371772Y-100781703D01*
X134536184Y-100749000D01*
X134703816Y-100749000D01*
X134868228Y-100781703D01*
G37*
G36*
X139948228Y-100781703D02*
G01*
X140103100Y-100845853D01*
X140242481Y-100938985D01*
X140361015Y-101057519D01*
X140454147Y-101196900D01*
X140518297Y-101351772D01*
X140551000Y-101516184D01*
X140551000Y-101683816D01*
X140518297Y-101848228D01*
X140454147Y-102003100D01*
X140361015Y-102142481D01*
X140242481Y-102261015D01*
X140103100Y-102354147D01*
X139948228Y-102418297D01*
X139783816Y-102451000D01*
X139616184Y-102451000D01*
X139451772Y-102418297D01*
X139296900Y-102354147D01*
X139157519Y-102261015D01*
X139038985Y-102142481D01*
X138945853Y-102003100D01*
X138881703Y-101848228D01*
X138849000Y-101683816D01*
X138849000Y-101516184D01*
X138881703Y-101351772D01*
X138945853Y-101196900D01*
X139038985Y-101057519D01*
X139157519Y-100938985D01*
X139296900Y-100845853D01*
X139451772Y-100781703D01*
X139616184Y-100749000D01*
X139783816Y-100749000D01*
X139948228Y-100781703D01*
G37*
G36*
X137408228Y-100781703D02*
G01*
X137563100Y-100845853D01*
X137702481Y-100938985D01*
X137821015Y-101057519D01*
X137914147Y-101196900D01*
X137978297Y-101351772D01*
X138011000Y-101516184D01*
X138011000Y-101683816D01*
X137978297Y-101848228D01*
X137914147Y-102003100D01*
X137821015Y-102142481D01*
X137702481Y-102261015D01*
X137563100Y-102354147D01*
X137408228Y-102418297D01*
X137243816Y-102451000D01*
X137076184Y-102451000D01*
X136911772Y-102418297D01*
X136756900Y-102354147D01*
X136617519Y-102261015D01*
X136498985Y-102142481D01*
X136405853Y-102003100D01*
X136341703Y-101848228D01*
X136309000Y-101683816D01*
X136309000Y-101516184D01*
X136341703Y-101351772D01*
X136405853Y-101196900D01*
X136498985Y-101057519D01*
X136617519Y-100938985D01*
X136756900Y-100845853D01*
X136911772Y-100781703D01*
X137076184Y-100749000D01*
X137243816Y-100749000D01*
X137408228Y-100781703D01*
G37*
G36*
X132328228Y-100781703D02*
G01*
X132483100Y-100845853D01*
X132622481Y-100938985D01*
X132741015Y-101057519D01*
X132834147Y-101196900D01*
X132898297Y-101351772D01*
X132931000Y-101516184D01*
X132931000Y-101683816D01*
X132898297Y-101848228D01*
X132834147Y-102003100D01*
X132741015Y-102142481D01*
X132622481Y-102261015D01*
X132483100Y-102354147D01*
X132328228Y-102418297D01*
X132163816Y-102451000D01*
X131996184Y-102451000D01*
X131831772Y-102418297D01*
X131676900Y-102354147D01*
X131537519Y-102261015D01*
X131418985Y-102142481D01*
X131325853Y-102003100D01*
X131261703Y-101848228D01*
X131229000Y-101683816D01*
X131229000Y-101516184D01*
X131261703Y-101351772D01*
X131325853Y-101196900D01*
X131418985Y-101057519D01*
X131537519Y-100938985D01*
X131676900Y-100845853D01*
X131831772Y-100781703D01*
X131996184Y-100749000D01*
X132163816Y-100749000D01*
X132328228Y-100781703D01*
G37*
G36*
X183128228Y-100781703D02*
G01*
X183283100Y-100845853D01*
X183422481Y-100938985D01*
X183541015Y-101057519D01*
X183634147Y-101196900D01*
X183698297Y-101351772D01*
X183731000Y-101516184D01*
X183731000Y-101683816D01*
X183698297Y-101848228D01*
X183634147Y-102003100D01*
X183541015Y-102142481D01*
X183422481Y-102261015D01*
X183283100Y-102354147D01*
X183128228Y-102418297D01*
X182963816Y-102451000D01*
X182796184Y-102451000D01*
X182631772Y-102418297D01*
X182476900Y-102354147D01*
X182337519Y-102261015D01*
X182218985Y-102142481D01*
X182125853Y-102003100D01*
X182061703Y-101848228D01*
X182029000Y-101683816D01*
X182029000Y-101516184D01*
X182061703Y-101351772D01*
X182125853Y-101196900D01*
X182218985Y-101057519D01*
X182337519Y-100938985D01*
X182476900Y-100845853D01*
X182631772Y-100781703D01*
X182796184Y-100749000D01*
X182963816Y-100749000D01*
X183128228Y-100781703D01*
G37*
G36*
X180588228Y-100781703D02*
G01*
X180743100Y-100845853D01*
X180882481Y-100938985D01*
X181001015Y-101057519D01*
X181094147Y-101196900D01*
X181158297Y-101351772D01*
X181191000Y-101516184D01*
X181191000Y-101683816D01*
X181158297Y-101848228D01*
X181094147Y-102003100D01*
X181001015Y-102142481D01*
X180882481Y-102261015D01*
X180743100Y-102354147D01*
X180588228Y-102418297D01*
X180423816Y-102451000D01*
X180256184Y-102451000D01*
X180091772Y-102418297D01*
X179936900Y-102354147D01*
X179797519Y-102261015D01*
X179678985Y-102142481D01*
X179585853Y-102003100D01*
X179521703Y-101848228D01*
X179489000Y-101683816D01*
X179489000Y-101516184D01*
X179521703Y-101351772D01*
X179585853Y-101196900D01*
X179678985Y-101057519D01*
X179797519Y-100938985D01*
X179936900Y-100845853D01*
X180091772Y-100781703D01*
X180256184Y-100749000D01*
X180423816Y-100749000D01*
X180588228Y-100781703D01*
G37*
G36*
X178048228Y-100781703D02*
G01*
X178203100Y-100845853D01*
X178342481Y-100938985D01*
X178461015Y-101057519D01*
X178554147Y-101196900D01*
X178618297Y-101351772D01*
X178651000Y-101516184D01*
X178651000Y-101683816D01*
X178618297Y-101848228D01*
X178554147Y-102003100D01*
X178461015Y-102142481D01*
X178342481Y-102261015D01*
X178203100Y-102354147D01*
X178048228Y-102418297D01*
X177883816Y-102451000D01*
X177716184Y-102451000D01*
X177551772Y-102418297D01*
X177396900Y-102354147D01*
X177257519Y-102261015D01*
X177138985Y-102142481D01*
X177045853Y-102003100D01*
X176981703Y-101848228D01*
X176949000Y-101683816D01*
X176949000Y-101516184D01*
X176981703Y-101351772D01*
X177045853Y-101196900D01*
X177138985Y-101057519D01*
X177257519Y-100938985D01*
X177396900Y-100845853D01*
X177551772Y-100781703D01*
X177716184Y-100749000D01*
X177883816Y-100749000D01*
X178048228Y-100781703D01*
G37*
G36*
X129788228Y-100781703D02*
G01*
X129943100Y-100845853D01*
X130082481Y-100938985D01*
X130201015Y-101057519D01*
X130294147Y-101196900D01*
X130358297Y-101351772D01*
X130391000Y-101516184D01*
X130391000Y-101683816D01*
X130358297Y-101848228D01*
X130294147Y-102003100D01*
X130201015Y-102142481D01*
X130082481Y-102261015D01*
X129943100Y-102354147D01*
X129788228Y-102418297D01*
X129623816Y-102451000D01*
X129456184Y-102451000D01*
X129291772Y-102418297D01*
X129136900Y-102354147D01*
X128997519Y-102261015D01*
X128878985Y-102142481D01*
X128785853Y-102003100D01*
X128721703Y-101848228D01*
X128689000Y-101683816D01*
X128689000Y-101516184D01*
X128721703Y-101351772D01*
X128785853Y-101196900D01*
X128878985Y-101057519D01*
X128997519Y-100938985D01*
X129136900Y-100845853D01*
X129291772Y-100781703D01*
X129456184Y-100749000D01*
X129623816Y-100749000D01*
X129788228Y-100781703D01*
G37*
G36*
X127248228Y-100781703D02*
G01*
X127403100Y-100845853D01*
X127542481Y-100938985D01*
X127661015Y-101057519D01*
X127754147Y-101196900D01*
X127818297Y-101351772D01*
X127851000Y-101516184D01*
X127851000Y-101683816D01*
X127818297Y-101848228D01*
X127754147Y-102003100D01*
X127661015Y-102142481D01*
X127542481Y-102261015D01*
X127403100Y-102354147D01*
X127248228Y-102418297D01*
X127083816Y-102451000D01*
X126916184Y-102451000D01*
X126751772Y-102418297D01*
X126596900Y-102354147D01*
X126457519Y-102261015D01*
X126338985Y-102142481D01*
X126245853Y-102003100D01*
X126181703Y-101848228D01*
X126149000Y-101683816D01*
X126149000Y-101516184D01*
X126181703Y-101351772D01*
X126245853Y-101196900D01*
X126338985Y-101057519D01*
X126457519Y-100938985D01*
X126596900Y-100845853D01*
X126751772Y-100781703D01*
X126916184Y-100749000D01*
X127083816Y-100749000D01*
X127248228Y-100781703D01*
G37*
G36*
X125311000Y-102451000D02*
G01*
X123609000Y-102451000D01*
X123609000Y-100749000D01*
X125311000Y-100749000D01*
X125311000Y-102451000D01*
G37*
G36*
X175508228Y-100781703D02*
G01*
X175663100Y-100845853D01*
X175802481Y-100938985D01*
X175921015Y-101057519D01*
X176014147Y-101196900D01*
X176078297Y-101351772D01*
X176111000Y-101516184D01*
X176111000Y-101683816D01*
X176078297Y-101848228D01*
X176014147Y-102003100D01*
X175921015Y-102142481D01*
X175802481Y-102261015D01*
X175663100Y-102354147D01*
X175508228Y-102418297D01*
X175343816Y-102451000D01*
X175176184Y-102451000D01*
X175011772Y-102418297D01*
X174856900Y-102354147D01*
X174717519Y-102261015D01*
X174598985Y-102142481D01*
X174505853Y-102003100D01*
X174441703Y-101848228D01*
X174409000Y-101683816D01*
X174409000Y-101516184D01*
X174441703Y-101351772D01*
X174505853Y-101196900D01*
X174598985Y-101057519D01*
X174717519Y-100938985D01*
X174856900Y-100845853D01*
X175011772Y-100781703D01*
X175176184Y-100749000D01*
X175343816Y-100749000D01*
X175508228Y-100781703D01*
G37*
G36*
X147568228Y-100781703D02*
G01*
X147723100Y-100845853D01*
X147862481Y-100938985D01*
X147981015Y-101057519D01*
X148074147Y-101196900D01*
X148138297Y-101351772D01*
X148171000Y-101516184D01*
X148171000Y-101683816D01*
X148138297Y-101848228D01*
X148074147Y-102003100D01*
X147981015Y-102142481D01*
X147862481Y-102261015D01*
X147723100Y-102354147D01*
X147568228Y-102418297D01*
X147403816Y-102451000D01*
X147236184Y-102451000D01*
X147071772Y-102418297D01*
X146916900Y-102354147D01*
X146777519Y-102261015D01*
X146658985Y-102142481D01*
X146565853Y-102003100D01*
X146501703Y-101848228D01*
X146469000Y-101683816D01*
X146469000Y-101516184D01*
X146501703Y-101351772D01*
X146565853Y-101196900D01*
X146658985Y-101057519D01*
X146777519Y-100938985D01*
X146916900Y-100845853D01*
X147071772Y-100781703D01*
X147236184Y-100749000D01*
X147403816Y-100749000D01*
X147568228Y-100781703D01*
G37*
G36*
X172968228Y-100781703D02*
G01*
X173123100Y-100845853D01*
X173262481Y-100938985D01*
X173381015Y-101057519D01*
X173474147Y-101196900D01*
X173538297Y-101351772D01*
X173571000Y-101516184D01*
X173571000Y-101683816D01*
X173538297Y-101848228D01*
X173474147Y-102003100D01*
X173381015Y-102142481D01*
X173262481Y-102261015D01*
X173123100Y-102354147D01*
X172968228Y-102418297D01*
X172803816Y-102451000D01*
X172636184Y-102451000D01*
X172471772Y-102418297D01*
X172316900Y-102354147D01*
X172177519Y-102261015D01*
X172058985Y-102142481D01*
X171965853Y-102003100D01*
X171901703Y-101848228D01*
X171869000Y-101683816D01*
X171869000Y-101516184D01*
X171901703Y-101351772D01*
X171965853Y-101196900D01*
X172058985Y-101057519D01*
X172177519Y-100938985D01*
X172316900Y-100845853D01*
X172471772Y-100781703D01*
X172636184Y-100749000D01*
X172803816Y-100749000D01*
X172968228Y-100781703D01*
G37*
G36*
X167888228Y-100781703D02*
G01*
X168043100Y-100845853D01*
X168182481Y-100938985D01*
X168301015Y-101057519D01*
X168394147Y-101196900D01*
X168458297Y-101351772D01*
X168491000Y-101516184D01*
X168491000Y-101683816D01*
X168458297Y-101848228D01*
X168394147Y-102003100D01*
X168301015Y-102142481D01*
X168182481Y-102261015D01*
X168043100Y-102354147D01*
X167888228Y-102418297D01*
X167723816Y-102451000D01*
X167556184Y-102451000D01*
X167391772Y-102418297D01*
X167236900Y-102354147D01*
X167097519Y-102261015D01*
X166978985Y-102142481D01*
X166885853Y-102003100D01*
X166821703Y-101848228D01*
X166789000Y-101683816D01*
X166789000Y-101516184D01*
X166821703Y-101351772D01*
X166885853Y-101196900D01*
X166978985Y-101057519D01*
X167097519Y-100938985D01*
X167236900Y-100845853D01*
X167391772Y-100781703D01*
X167556184Y-100749000D01*
X167723816Y-100749000D01*
X167888228Y-100781703D01*
G37*
G36*
X165348228Y-100781703D02*
G01*
X165503100Y-100845853D01*
X165642481Y-100938985D01*
X165761015Y-101057519D01*
X165854147Y-101196900D01*
X165918297Y-101351772D01*
X165951000Y-101516184D01*
X165951000Y-101683816D01*
X165918297Y-101848228D01*
X165854147Y-102003100D01*
X165761015Y-102142481D01*
X165642481Y-102261015D01*
X165503100Y-102354147D01*
X165348228Y-102418297D01*
X165183816Y-102451000D01*
X165016184Y-102451000D01*
X164851772Y-102418297D01*
X164696900Y-102354147D01*
X164557519Y-102261015D01*
X164438985Y-102142481D01*
X164345853Y-102003100D01*
X164281703Y-101848228D01*
X164249000Y-101683816D01*
X164249000Y-101516184D01*
X164281703Y-101351772D01*
X164345853Y-101196900D01*
X164438985Y-101057519D01*
X164557519Y-100938985D01*
X164696900Y-100845853D01*
X164851772Y-100781703D01*
X165016184Y-100749000D01*
X165183816Y-100749000D01*
X165348228Y-100781703D01*
G37*
G36*
X162808228Y-100781703D02*
G01*
X162963100Y-100845853D01*
X163102481Y-100938985D01*
X163221015Y-101057519D01*
X163314147Y-101196900D01*
X163378297Y-101351772D01*
X163411000Y-101516184D01*
X163411000Y-101683816D01*
X163378297Y-101848228D01*
X163314147Y-102003100D01*
X163221015Y-102142481D01*
X163102481Y-102261015D01*
X162963100Y-102354147D01*
X162808228Y-102418297D01*
X162643816Y-102451000D01*
X162476184Y-102451000D01*
X162311772Y-102418297D01*
X162156900Y-102354147D01*
X162017519Y-102261015D01*
X161898985Y-102142481D01*
X161805853Y-102003100D01*
X161741703Y-101848228D01*
X161709000Y-101683816D01*
X161709000Y-101516184D01*
X161741703Y-101351772D01*
X161805853Y-101196900D01*
X161898985Y-101057519D01*
X162017519Y-100938985D01*
X162156900Y-100845853D01*
X162311772Y-100781703D01*
X162476184Y-100749000D01*
X162643816Y-100749000D01*
X162808228Y-100781703D01*
G37*
G36*
X160268228Y-100781703D02*
G01*
X160423100Y-100845853D01*
X160562481Y-100938985D01*
X160681015Y-101057519D01*
X160774147Y-101196900D01*
X160838297Y-101351772D01*
X160871000Y-101516184D01*
X160871000Y-101683816D01*
X160838297Y-101848228D01*
X160774147Y-102003100D01*
X160681015Y-102142481D01*
X160562481Y-102261015D01*
X160423100Y-102354147D01*
X160268228Y-102418297D01*
X160103816Y-102451000D01*
X159936184Y-102451000D01*
X159771772Y-102418297D01*
X159616900Y-102354147D01*
X159477519Y-102261015D01*
X159358985Y-102142481D01*
X159265853Y-102003100D01*
X159201703Y-101848228D01*
X159169000Y-101683816D01*
X159169000Y-101516184D01*
X159201703Y-101351772D01*
X159265853Y-101196900D01*
X159358985Y-101057519D01*
X159477519Y-100938985D01*
X159616900Y-100845853D01*
X159771772Y-100781703D01*
X159936184Y-100749000D01*
X160103816Y-100749000D01*
X160268228Y-100781703D01*
G37*
G36*
X157728228Y-100781703D02*
G01*
X157883100Y-100845853D01*
X158022481Y-100938985D01*
X158141015Y-101057519D01*
X158234147Y-101196900D01*
X158298297Y-101351772D01*
X158331000Y-101516184D01*
X158331000Y-101683816D01*
X158298297Y-101848228D01*
X158234147Y-102003100D01*
X158141015Y-102142481D01*
X158022481Y-102261015D01*
X157883100Y-102354147D01*
X157728228Y-102418297D01*
X157563816Y-102451000D01*
X157396184Y-102451000D01*
X157231772Y-102418297D01*
X157076900Y-102354147D01*
X156937519Y-102261015D01*
X156818985Y-102142481D01*
X156725853Y-102003100D01*
X156661703Y-101848228D01*
X156629000Y-101683816D01*
X156629000Y-101516184D01*
X156661703Y-101351772D01*
X156725853Y-101196900D01*
X156818985Y-101057519D01*
X156937519Y-100938985D01*
X157076900Y-100845853D01*
X157231772Y-100781703D01*
X157396184Y-100749000D01*
X157563816Y-100749000D01*
X157728228Y-100781703D01*
G37*
G36*
X155188228Y-100781703D02*
G01*
X155343100Y-100845853D01*
X155482481Y-100938985D01*
X155601015Y-101057519D01*
X155694147Y-101196900D01*
X155758297Y-101351772D01*
X155791000Y-101516184D01*
X155791000Y-101683816D01*
X155758297Y-101848228D01*
X155694147Y-102003100D01*
X155601015Y-102142481D01*
X155482481Y-102261015D01*
X155343100Y-102354147D01*
X155188228Y-102418297D01*
X155023816Y-102451000D01*
X154856184Y-102451000D01*
X154691772Y-102418297D01*
X154536900Y-102354147D01*
X154397519Y-102261015D01*
X154278985Y-102142481D01*
X154185853Y-102003100D01*
X154121703Y-101848228D01*
X154089000Y-101683816D01*
X154089000Y-101516184D01*
X154121703Y-101351772D01*
X154185853Y-101196900D01*
X154278985Y-101057519D01*
X154397519Y-100938985D01*
X154536900Y-100845853D01*
X154691772Y-100781703D01*
X154856184Y-100749000D01*
X155023816Y-100749000D01*
X155188228Y-100781703D01*
G37*
G36*
X152648228Y-100781703D02*
G01*
X152803100Y-100845853D01*
X152942481Y-100938985D01*
X153061015Y-101057519D01*
X153154147Y-101196900D01*
X153218297Y-101351772D01*
X153251000Y-101516184D01*
X153251000Y-101683816D01*
X153218297Y-101848228D01*
X153154147Y-102003100D01*
X153061015Y-102142481D01*
X152942481Y-102261015D01*
X152803100Y-102354147D01*
X152648228Y-102418297D01*
X152483816Y-102451000D01*
X152316184Y-102451000D01*
X152151772Y-102418297D01*
X151996900Y-102354147D01*
X151857519Y-102261015D01*
X151738985Y-102142481D01*
X151645853Y-102003100D01*
X151581703Y-101848228D01*
X151549000Y-101683816D01*
X151549000Y-101516184D01*
X151581703Y-101351772D01*
X151645853Y-101196900D01*
X151738985Y-101057519D01*
X151857519Y-100938985D01*
X151996900Y-100845853D01*
X152151772Y-100781703D01*
X152316184Y-100749000D01*
X152483816Y-100749000D01*
X152648228Y-100781703D01*
G37*
G36*
X170428228Y-100781703D02*
G01*
X170583100Y-100845853D01*
X170722481Y-100938985D01*
X170841015Y-101057519D01*
X170934147Y-101196900D01*
X170998297Y-101351772D01*
X171031000Y-101516184D01*
X171031000Y-101683816D01*
X170998297Y-101848228D01*
X170934147Y-102003100D01*
X170841015Y-102142481D01*
X170722481Y-102261015D01*
X170583100Y-102354147D01*
X170428228Y-102418297D01*
X170263816Y-102451000D01*
X170096184Y-102451000D01*
X169931772Y-102418297D01*
X169776900Y-102354147D01*
X169637519Y-102261015D01*
X169518985Y-102142481D01*
X169425853Y-102003100D01*
X169361703Y-101848228D01*
X169329000Y-101683816D01*
X169329000Y-101516184D01*
X169361703Y-101351772D01*
X169425853Y-101196900D01*
X169518985Y-101057519D01*
X169637519Y-100938985D01*
X169776900Y-100845853D01*
X169931772Y-100781703D01*
X170096184Y-100749000D01*
X170263816Y-100749000D01*
X170428228Y-100781703D01*
G37*
G36*
X150108228Y-100781703D02*
G01*
X150263100Y-100845853D01*
X150402481Y-100938985D01*
X150521015Y-101057519D01*
X150614147Y-101196900D01*
X150678297Y-101351772D01*
X150711000Y-101516184D01*
X150711000Y-101683816D01*
X150678297Y-101848228D01*
X150614147Y-102003100D01*
X150521015Y-102142481D01*
X150402481Y-102261015D01*
X150263100Y-102354147D01*
X150108228Y-102418297D01*
X149943816Y-102451000D01*
X149776184Y-102451000D01*
X149611772Y-102418297D01*
X149456900Y-102354147D01*
X149317519Y-102261015D01*
X149198985Y-102142481D01*
X149105853Y-102003100D01*
X149041703Y-101848228D01*
X149009000Y-101683816D01*
X149009000Y-101516184D01*
X149041703Y-101351772D01*
X149105853Y-101196900D01*
X149198985Y-101057519D01*
X149317519Y-100938985D01*
X149456900Y-100845853D01*
X149611772Y-100781703D01*
X149776184Y-100749000D01*
X149943816Y-100749000D01*
X150108228Y-100781703D01*
G37*
G36*
X145028228Y-100781703D02*
G01*
X145183100Y-100845853D01*
X145322481Y-100938985D01*
X145441015Y-101057519D01*
X145534147Y-101196900D01*
X145598297Y-101351772D01*
X145631000Y-101516184D01*
X145631000Y-101683816D01*
X145598297Y-101848228D01*
X145534147Y-102003100D01*
X145441015Y-102142481D01*
X145322481Y-102261015D01*
X145183100Y-102354147D01*
X145028228Y-102418297D01*
X144863816Y-102451000D01*
X144696184Y-102451000D01*
X144531772Y-102418297D01*
X144376900Y-102354147D01*
X144237519Y-102261015D01*
X144118985Y-102142481D01*
X144025853Y-102003100D01*
X143961703Y-101848228D01*
X143929000Y-101683816D01*
X143929000Y-101516184D01*
X143961703Y-101351772D01*
X144025853Y-101196900D01*
X144118985Y-101057519D01*
X144237519Y-100938985D01*
X144376900Y-100845853D01*
X144531772Y-100781703D01*
X144696184Y-100749000D01*
X144863816Y-100749000D01*
X145028228Y-100781703D01*
G37*
G36*
X100621981Y-99367468D02*
G01*
X100804151Y-99442926D01*
X100968100Y-99552473D01*
X101107527Y-99691900D01*
X101217074Y-99855849D01*
X101292532Y-100038019D01*
X101331000Y-100231410D01*
X101331000Y-100428590D01*
X101292532Y-100621981D01*
X101217074Y-100804151D01*
X101107527Y-100968100D01*
X100968100Y-101107527D01*
X100804151Y-101217074D01*
X100621981Y-101292532D01*
X100428591Y-101331000D01*
X100231409Y-101331000D01*
X100038019Y-101292532D01*
X99855849Y-101217074D01*
X99691900Y-101107527D01*
X99552473Y-100968100D01*
X99442926Y-100804151D01*
X99367468Y-100621981D01*
X99329000Y-100428590D01*
X99329000Y-100231410D01*
X99367468Y-100038019D01*
X99442926Y-99855849D01*
X99552473Y-99691900D01*
X99691900Y-99552473D01*
X99855849Y-99442926D01*
X100038019Y-99367468D01*
X100231409Y-99329000D01*
X100428591Y-99329000D01*
X100621981Y-99367468D01*
G37*
G36*
X86840521Y-98712275D02*
G01*
X86931152Y-98749816D01*
X87021783Y-98787356D01*
X87184913Y-98896356D01*
X87323644Y-99035087D01*
X87432644Y-99198217D01*
X87470184Y-99288848D01*
X87507725Y-99379479D01*
X87546000Y-99571901D01*
X87546000Y-99768099D01*
X87507725Y-99960521D01*
X87482039Y-100022532D01*
X87432644Y-100141783D01*
X87323644Y-100304913D01*
X87184913Y-100443644D01*
X87021783Y-100552644D01*
X86931152Y-100590184D01*
X86840521Y-100627725D01*
X86648099Y-100666000D01*
X86451901Y-100666000D01*
X86259479Y-100627725D01*
X86168848Y-100590184D01*
X86078217Y-100552644D01*
X85915087Y-100443644D01*
X85776356Y-100304913D01*
X85667356Y-100141783D01*
X85617961Y-100022532D01*
X85592275Y-99960521D01*
X85554000Y-99768099D01*
X85554000Y-99571901D01*
X85592275Y-99379479D01*
X85629816Y-99288847D01*
X85667356Y-99198217D01*
X85776356Y-99035087D01*
X85915087Y-98896356D01*
X86078217Y-98787356D01*
X86168847Y-98749816D01*
X86259479Y-98712275D01*
X86451901Y-98674000D01*
X86648099Y-98674000D01*
X86840521Y-98712275D01*
G37*
G36*
X97985285Y-98078234D02*
G01*
X98081981Y-98097468D01*
X98264151Y-98172926D01*
X98428100Y-98282473D01*
X98567527Y-98421900D01*
X98677074Y-98585849D01*
X98752532Y-98768019D01*
X98791000Y-98961410D01*
X98791000Y-99158590D01*
X98752532Y-99351981D01*
X98677074Y-99534151D01*
X98567527Y-99698100D01*
X98428100Y-99837527D01*
X98264151Y-99947074D01*
X98264150Y-99947075D01*
X98264149Y-99947075D01*
X98231685Y-99960522D01*
X98081981Y-100022532D01*
X98004123Y-100038019D01*
X97888591Y-100061000D01*
X97691409Y-100061000D01*
X97575877Y-100038019D01*
X97498019Y-100022532D01*
X97348315Y-99960522D01*
X97315851Y-99947075D01*
X97315850Y-99947075D01*
X97315849Y-99947074D01*
X97151900Y-99837527D01*
X97012473Y-99698100D01*
X96902926Y-99534151D01*
X96827468Y-99351981D01*
X96789000Y-99158590D01*
X96789000Y-98961410D01*
X96827468Y-98768019D01*
X96902926Y-98585849D01*
X97012473Y-98421900D01*
X97151900Y-98282473D01*
X97315849Y-98172926D01*
X97498019Y-98097468D01*
X97594715Y-98078234D01*
X97691409Y-98059000D01*
X97888591Y-98059000D01*
X97985285Y-98078234D01*
G37*
G36*
X100488963Y-96801009D02*
G01*
X100621981Y-96827468D01*
X100804151Y-96902926D01*
X100968100Y-97012473D01*
X101107527Y-97151900D01*
X101217074Y-97315849D01*
X101292532Y-97498019D01*
X101331000Y-97691410D01*
X101331000Y-97888590D01*
X101292532Y-98081981D01*
X101217074Y-98264151D01*
X101107527Y-98428100D01*
X100968100Y-98567527D01*
X100804151Y-98677074D01*
X100621981Y-98752532D01*
X100544123Y-98768019D01*
X100428591Y-98791000D01*
X100231409Y-98791000D01*
X100115877Y-98768019D01*
X100038019Y-98752532D01*
X99855849Y-98677074D01*
X99691900Y-98567527D01*
X99552473Y-98428100D01*
X99442926Y-98264151D01*
X99367468Y-98081981D01*
X99329000Y-97888590D01*
X99329000Y-97691410D01*
X99367468Y-97498019D01*
X99442926Y-97315849D01*
X99552473Y-97151900D01*
X99691900Y-97012473D01*
X99855849Y-96902926D01*
X100038019Y-96827468D01*
X100171037Y-96801009D01*
X100231409Y-96789000D01*
X100428591Y-96789000D01*
X100488963Y-96801009D01*
G37*
G36*
X107328604Y-96868347D02*
G01*
X107365144Y-96879432D01*
X107398821Y-96897433D01*
X107428341Y-96921659D01*
X107452567Y-96951179D01*
X107470568Y-96984856D01*
X107481653Y-97021396D01*
X107486000Y-97065538D01*
X107486000Y-98514462D01*
X107481653Y-98558604D01*
X107470568Y-98595144D01*
X107452567Y-98628821D01*
X107428341Y-98658341D01*
X107398821Y-98682567D01*
X107365144Y-98700568D01*
X107328604Y-98711653D01*
X107284462Y-98716000D01*
X106335538Y-98716000D01*
X106291396Y-98711653D01*
X106254856Y-98700568D01*
X106221179Y-98682567D01*
X106191659Y-98658341D01*
X106167433Y-98628821D01*
X106149432Y-98595144D01*
X106138347Y-98558604D01*
X106134000Y-98514462D01*
X106134000Y-97065538D01*
X106138347Y-97021396D01*
X106149432Y-96984856D01*
X106167433Y-96951179D01*
X106191659Y-96921659D01*
X106221179Y-96897433D01*
X106254856Y-96879432D01*
X106291396Y-96868347D01*
X106335538Y-96864000D01*
X107284462Y-96864000D01*
X107328604Y-96868347D01*
G37*
G36*
X104528604Y-96868347D02*
G01*
X104565144Y-96879432D01*
X104598821Y-96897433D01*
X104628341Y-96921659D01*
X104652567Y-96951179D01*
X104670568Y-96984856D01*
X104681653Y-97021396D01*
X104686000Y-97065538D01*
X104686000Y-98514462D01*
X104681653Y-98558604D01*
X104670568Y-98595144D01*
X104652567Y-98628821D01*
X104628341Y-98658341D01*
X104598821Y-98682567D01*
X104565144Y-98700568D01*
X104528604Y-98711653D01*
X104484462Y-98716000D01*
X103535538Y-98716000D01*
X103491396Y-98711653D01*
X103454856Y-98700568D01*
X103421179Y-98682567D01*
X103391659Y-98658341D01*
X103367433Y-98628821D01*
X103349432Y-98595144D01*
X103338347Y-98558604D01*
X103334000Y-98514462D01*
X103334000Y-97065538D01*
X103338347Y-97021396D01*
X103349432Y-96984856D01*
X103367433Y-96951179D01*
X103391659Y-96921659D01*
X103421179Y-96897433D01*
X103454856Y-96879432D01*
X103491396Y-96868347D01*
X103535538Y-96864000D01*
X104484462Y-96864000D01*
X104528604Y-96868347D01*
G37*
G36*
X97948963Y-95531009D02*
G01*
X98081981Y-95557468D01*
X98264151Y-95632926D01*
X98428100Y-95742473D01*
X98567527Y-95881900D01*
X98677074Y-96045849D01*
X98741972Y-96202524D01*
X98752532Y-96228020D01*
X98791000Y-96421409D01*
X98791000Y-96618591D01*
X98783247Y-96657567D01*
X98752532Y-96811981D01*
X98677074Y-96994151D01*
X98567527Y-97158100D01*
X98428100Y-97297527D01*
X98264151Y-97407074D01*
X98081981Y-97482532D01*
X98004123Y-97498019D01*
X97888591Y-97521000D01*
X97691409Y-97521000D01*
X97575877Y-97498019D01*
X97498019Y-97482532D01*
X97315849Y-97407074D01*
X97151900Y-97297527D01*
X97012473Y-97158100D01*
X96902926Y-96994151D01*
X96827468Y-96811981D01*
X96796753Y-96657567D01*
X96789000Y-96618591D01*
X96789000Y-96421409D01*
X96827468Y-96228020D01*
X96838029Y-96202524D01*
X96902926Y-96045849D01*
X97012473Y-95881900D01*
X97151900Y-95742473D01*
X97315849Y-95632926D01*
X97498019Y-95557468D01*
X97631037Y-95531009D01*
X97691409Y-95519000D01*
X97888591Y-95519000D01*
X97948963Y-95531009D01*
G37*
G36*
X218039928Y-96171764D02*
G01*
X218061009Y-96178160D01*
X218080445Y-96188548D01*
X218097476Y-96202524D01*
X218111452Y-96219555D01*
X218121840Y-96238991D01*
X218128236Y-96260072D01*
X218131000Y-96288140D01*
X218131000Y-96751860D01*
X218128236Y-96779928D01*
X218121840Y-96801009D01*
X218111452Y-96820445D01*
X218097476Y-96837476D01*
X218080445Y-96851452D01*
X218061009Y-96861840D01*
X218039928Y-96868236D01*
X218011860Y-96871000D01*
X216198140Y-96871000D01*
X216170072Y-96868236D01*
X216148991Y-96861840D01*
X216129555Y-96851452D01*
X216112524Y-96837476D01*
X216098548Y-96820445D01*
X216088160Y-96801009D01*
X216081764Y-96779928D01*
X216079000Y-96751860D01*
X216079000Y-96288140D01*
X216081764Y-96260072D01*
X216088160Y-96238991D01*
X216098548Y-96219555D01*
X216112524Y-96202524D01*
X216129555Y-96188548D01*
X216148991Y-96178160D01*
X216170072Y-96171764D01*
X216198140Y-96169000D01*
X218011860Y-96169000D01*
X218039928Y-96171764D01*
G37*
G36*
X213089928Y-96171764D02*
G01*
X213111009Y-96178160D01*
X213130445Y-96188548D01*
X213147476Y-96202524D01*
X213161452Y-96219555D01*
X213171840Y-96238991D01*
X213178236Y-96260072D01*
X213181000Y-96288140D01*
X213181000Y-96751860D01*
X213178236Y-96779928D01*
X213171840Y-96801009D01*
X213161452Y-96820445D01*
X213147476Y-96837476D01*
X213130445Y-96851452D01*
X213111009Y-96861840D01*
X213089928Y-96868236D01*
X213061860Y-96871000D01*
X211248140Y-96871000D01*
X211220072Y-96868236D01*
X211198991Y-96861840D01*
X211179555Y-96851452D01*
X211162524Y-96837476D01*
X211148548Y-96820445D01*
X211138160Y-96801009D01*
X211131764Y-96779928D01*
X211129000Y-96751860D01*
X211129000Y-96288140D01*
X211131764Y-96260072D01*
X211138160Y-96238991D01*
X211148548Y-96219555D01*
X211162524Y-96202524D01*
X211179555Y-96188548D01*
X211198991Y-96178160D01*
X211220072Y-96171764D01*
X211248140Y-96169000D01*
X213061860Y-96169000D01*
X213089928Y-96171764D01*
G37*
G36*
X203434928Y-96171764D02*
G01*
X203456009Y-96178160D01*
X203475445Y-96188548D01*
X203492476Y-96202524D01*
X203506452Y-96219555D01*
X203516840Y-96238991D01*
X203523236Y-96260072D01*
X203526000Y-96288140D01*
X203526000Y-96751860D01*
X203523236Y-96779928D01*
X203516840Y-96801009D01*
X203506452Y-96820445D01*
X203492476Y-96837476D01*
X203475445Y-96851452D01*
X203456009Y-96861840D01*
X203434928Y-96868236D01*
X203406860Y-96871000D01*
X201593140Y-96871000D01*
X201565072Y-96868236D01*
X201543991Y-96861840D01*
X201524555Y-96851452D01*
X201507524Y-96837476D01*
X201493548Y-96820445D01*
X201483160Y-96801009D01*
X201476764Y-96779928D01*
X201474000Y-96751860D01*
X201474000Y-96288140D01*
X201476764Y-96260072D01*
X201483160Y-96238991D01*
X201493548Y-96219555D01*
X201507524Y-96202524D01*
X201524555Y-96188548D01*
X201543991Y-96178160D01*
X201565072Y-96171764D01*
X201593140Y-96169000D01*
X203406860Y-96169000D01*
X203434928Y-96171764D01*
G37*
G36*
X198484928Y-96171764D02*
G01*
X198506009Y-96178160D01*
X198525445Y-96188548D01*
X198542476Y-96202524D01*
X198556452Y-96219555D01*
X198566840Y-96238991D01*
X198573236Y-96260072D01*
X198576000Y-96288140D01*
X198576000Y-96751860D01*
X198573236Y-96779928D01*
X198566840Y-96801009D01*
X198556452Y-96820445D01*
X198542476Y-96837476D01*
X198525445Y-96851452D01*
X198506009Y-96861840D01*
X198484928Y-96868236D01*
X198456860Y-96871000D01*
X196643140Y-96871000D01*
X196615072Y-96868236D01*
X196593991Y-96861840D01*
X196574555Y-96851452D01*
X196557524Y-96837476D01*
X196543548Y-96820445D01*
X196533160Y-96801009D01*
X196526764Y-96779928D01*
X196524000Y-96751860D01*
X196524000Y-96288140D01*
X196526764Y-96260072D01*
X196533160Y-96238991D01*
X196543548Y-96219555D01*
X196557524Y-96202524D01*
X196574555Y-96188548D01*
X196593991Y-96178160D01*
X196615072Y-96171764D01*
X196643140Y-96169000D01*
X198456860Y-96169000D01*
X198484928Y-96171764D01*
G37*
G36*
X207143604Y-95343347D02*
G01*
X207180144Y-95354432D01*
X207213821Y-95372433D01*
X207243341Y-95396659D01*
X207267567Y-95426179D01*
X207285568Y-95459856D01*
X207296653Y-95496396D01*
X207301000Y-95540538D01*
X207301000Y-96489462D01*
X207296653Y-96533604D01*
X207285568Y-96570144D01*
X207267567Y-96603821D01*
X207243341Y-96633341D01*
X207213821Y-96657567D01*
X207180144Y-96675568D01*
X207143604Y-96686653D01*
X207099462Y-96691000D01*
X205650538Y-96691000D01*
X205606396Y-96686653D01*
X205569856Y-96675568D01*
X205536179Y-96657567D01*
X205506659Y-96633341D01*
X205482433Y-96603821D01*
X205464432Y-96570144D01*
X205453347Y-96533604D01*
X205449000Y-96489462D01*
X205449000Y-95540538D01*
X205453347Y-95496396D01*
X205464432Y-95459856D01*
X205482433Y-95426179D01*
X205506659Y-95396659D01*
X205536179Y-95372433D01*
X205569856Y-95354432D01*
X205606396Y-95343347D01*
X205650538Y-95339000D01*
X207099462Y-95339000D01*
X207143604Y-95343347D01*
G37*
G36*
X100488963Y-94261009D02*
G01*
X100621981Y-94287468D01*
X100804151Y-94362926D01*
X100968100Y-94472473D01*
X101107527Y-94611900D01*
X101217074Y-94775849D01*
X101281972Y-94932524D01*
X101292532Y-94958020D01*
X101331000Y-95151409D01*
X101331000Y-95348591D01*
X101317154Y-95418198D01*
X101292532Y-95541981D01*
X101217074Y-95724151D01*
X101107527Y-95888100D01*
X100968100Y-96027527D01*
X100804151Y-96137074D01*
X100621981Y-96212532D01*
X100544123Y-96228019D01*
X100428591Y-96251000D01*
X100231409Y-96251000D01*
X100115877Y-96228019D01*
X100038019Y-96212532D01*
X99855849Y-96137074D01*
X99691900Y-96027527D01*
X99552473Y-95888100D01*
X99442926Y-95724151D01*
X99367468Y-95541981D01*
X99342846Y-95418198D01*
X99329000Y-95348591D01*
X99329000Y-95151409D01*
X99367468Y-94958020D01*
X99378029Y-94932524D01*
X99442926Y-94775849D01*
X99552473Y-94611900D01*
X99691900Y-94472473D01*
X99855849Y-94362926D01*
X100038019Y-94287468D01*
X100171037Y-94261009D01*
X100231409Y-94249000D01*
X100428591Y-94249000D01*
X100488963Y-94261009D01*
G37*
G36*
X218039928Y-94901764D02*
G01*
X218061009Y-94908160D01*
X218080445Y-94918548D01*
X218097476Y-94932524D01*
X218111452Y-94949555D01*
X218121840Y-94968991D01*
X218128236Y-94990072D01*
X218131000Y-95018140D01*
X218131000Y-95481860D01*
X218128236Y-95509928D01*
X218121840Y-95531009D01*
X218111452Y-95550445D01*
X218097476Y-95567476D01*
X218080445Y-95581452D01*
X218061009Y-95591840D01*
X218039928Y-95598236D01*
X218011860Y-95601000D01*
X216198140Y-95601000D01*
X216170072Y-95598236D01*
X216148991Y-95591840D01*
X216129555Y-95581452D01*
X216112524Y-95567476D01*
X216098548Y-95550445D01*
X216088160Y-95531009D01*
X216081764Y-95509928D01*
X216079000Y-95481860D01*
X216079000Y-95018140D01*
X216081764Y-94990072D01*
X216088160Y-94968991D01*
X216098548Y-94949555D01*
X216112524Y-94932524D01*
X216129555Y-94918548D01*
X216148991Y-94908160D01*
X216170072Y-94901764D01*
X216198140Y-94899000D01*
X218011860Y-94899000D01*
X218039928Y-94901764D01*
G37*
G36*
X203434928Y-94901764D02*
G01*
X203456009Y-94908160D01*
X203475445Y-94918548D01*
X203492476Y-94932524D01*
X203506452Y-94949555D01*
X203516840Y-94968991D01*
X203523236Y-94990072D01*
X203526000Y-95018140D01*
X203526000Y-95481860D01*
X203523236Y-95509928D01*
X203516840Y-95531009D01*
X203506452Y-95550445D01*
X203492476Y-95567476D01*
X203475445Y-95581452D01*
X203456009Y-95591840D01*
X203434928Y-95598236D01*
X203406860Y-95601000D01*
X201593140Y-95601000D01*
X201565072Y-95598236D01*
X201543991Y-95591840D01*
X201524555Y-95581452D01*
X201507524Y-95567476D01*
X201493548Y-95550445D01*
X201483160Y-95531009D01*
X201476764Y-95509928D01*
X201474000Y-95481860D01*
X201474000Y-95018140D01*
X201476764Y-94990072D01*
X201483160Y-94968991D01*
X201493548Y-94949555D01*
X201507524Y-94932524D01*
X201524555Y-94918548D01*
X201543991Y-94908160D01*
X201565072Y-94901764D01*
X201593140Y-94899000D01*
X203406860Y-94899000D01*
X203434928Y-94901764D01*
G37*
G36*
X198484928Y-94901764D02*
G01*
X198506009Y-94908160D01*
X198525445Y-94918548D01*
X198542476Y-94932524D01*
X198556452Y-94949555D01*
X198566840Y-94968991D01*
X198573236Y-94990072D01*
X198576000Y-95018140D01*
X198576000Y-95481860D01*
X198573236Y-95509928D01*
X198566840Y-95531009D01*
X198556452Y-95550445D01*
X198542476Y-95567476D01*
X198525445Y-95581452D01*
X198506009Y-95591840D01*
X198484928Y-95598236D01*
X198456860Y-95601000D01*
X196643140Y-95601000D01*
X196615072Y-95598236D01*
X196593991Y-95591840D01*
X196574555Y-95581452D01*
X196557524Y-95567476D01*
X196543548Y-95550445D01*
X196533160Y-95531009D01*
X196526764Y-95509928D01*
X196524000Y-95481860D01*
X196524000Y-95018140D01*
X196526764Y-94990072D01*
X196533160Y-94968991D01*
X196543548Y-94949555D01*
X196557524Y-94932524D01*
X196574555Y-94918548D01*
X196593991Y-94908160D01*
X196615072Y-94901764D01*
X196643140Y-94899000D01*
X198456860Y-94899000D01*
X198484928Y-94901764D01*
G37*
G36*
X213089928Y-94901764D02*
G01*
X213111009Y-94908160D01*
X213130445Y-94918548D01*
X213147476Y-94932524D01*
X213161452Y-94949555D01*
X213171840Y-94968991D01*
X213178236Y-94990072D01*
X213181000Y-95018140D01*
X213181000Y-95481860D01*
X213178236Y-95509928D01*
X213171840Y-95531009D01*
X213161452Y-95550445D01*
X213147476Y-95567476D01*
X213130445Y-95581452D01*
X213111009Y-95591840D01*
X213089928Y-95598236D01*
X213061860Y-95601000D01*
X211248140Y-95601000D01*
X211220072Y-95598236D01*
X211198991Y-95591840D01*
X211179555Y-95581452D01*
X211162524Y-95567476D01*
X211148548Y-95550445D01*
X211138160Y-95531009D01*
X211131764Y-95509928D01*
X211129000Y-95481860D01*
X211129000Y-95018140D01*
X211131764Y-94990072D01*
X211138160Y-94968991D01*
X211148548Y-94949555D01*
X211162524Y-94932524D01*
X211179555Y-94918548D01*
X211198991Y-94908160D01*
X211220072Y-94901764D01*
X211248140Y-94899000D01*
X213061860Y-94899000D01*
X213089928Y-94901764D01*
G37*
G36*
X97948963Y-92991009D02*
G01*
X98081981Y-93017468D01*
X98264151Y-93092926D01*
X98428100Y-93202473D01*
X98567527Y-93341900D01*
X98677074Y-93505849D01*
X98752532Y-93688019D01*
X98761599Y-93733604D01*
X98788814Y-93870417D01*
X98791000Y-93881410D01*
X98791000Y-94078590D01*
X98752532Y-94271981D01*
X98677074Y-94454151D01*
X98567527Y-94618100D01*
X98428100Y-94757527D01*
X98264151Y-94867074D01*
X98081981Y-94942532D01*
X98004123Y-94958019D01*
X97888591Y-94981000D01*
X97691409Y-94981000D01*
X97575877Y-94958019D01*
X97498019Y-94942532D01*
X97315849Y-94867074D01*
X97151900Y-94757527D01*
X97012473Y-94618100D01*
X96902926Y-94454151D01*
X96827468Y-94271981D01*
X96789000Y-94078590D01*
X96789000Y-93881410D01*
X96791187Y-93870417D01*
X96818401Y-93733604D01*
X96827468Y-93688019D01*
X96902926Y-93505849D01*
X97012473Y-93341900D01*
X97151900Y-93202473D01*
X97315849Y-93092926D01*
X97498019Y-93017468D01*
X97631037Y-92991009D01*
X97691409Y-92979000D01*
X97888591Y-92979000D01*
X97948963Y-92991009D01*
G37*
G36*
X203434928Y-93631764D02*
G01*
X203456009Y-93638160D01*
X203475445Y-93648548D01*
X203492476Y-93662524D01*
X203506452Y-93679555D01*
X203516840Y-93698991D01*
X203523236Y-93720072D01*
X203526000Y-93748140D01*
X203526000Y-94211860D01*
X203523236Y-94239928D01*
X203516840Y-94261009D01*
X203506452Y-94280445D01*
X203492476Y-94297476D01*
X203475445Y-94311452D01*
X203456009Y-94321840D01*
X203434928Y-94328236D01*
X203406860Y-94331000D01*
X201593140Y-94331000D01*
X201565072Y-94328236D01*
X201543991Y-94321840D01*
X201524555Y-94311452D01*
X201507524Y-94297476D01*
X201493548Y-94280445D01*
X201483160Y-94261009D01*
X201476764Y-94239928D01*
X201474000Y-94211860D01*
X201474000Y-93748140D01*
X201476764Y-93720072D01*
X201483160Y-93698991D01*
X201493548Y-93679555D01*
X201507524Y-93662524D01*
X201524555Y-93648548D01*
X201543991Y-93638160D01*
X201565072Y-93631764D01*
X201593140Y-93629000D01*
X203406860Y-93629000D01*
X203434928Y-93631764D01*
G37*
G36*
X198484928Y-93631764D02*
G01*
X198506009Y-93638160D01*
X198525445Y-93648548D01*
X198542476Y-93662524D01*
X198556452Y-93679555D01*
X198566840Y-93698991D01*
X198573236Y-93720072D01*
X198576000Y-93748140D01*
X198576000Y-94211860D01*
X198573236Y-94239928D01*
X198566840Y-94261009D01*
X198556452Y-94280445D01*
X198542476Y-94297476D01*
X198525445Y-94311452D01*
X198506009Y-94321840D01*
X198484928Y-94328236D01*
X198456860Y-94331000D01*
X196643140Y-94331000D01*
X196615072Y-94328236D01*
X196593991Y-94321840D01*
X196574555Y-94311452D01*
X196557524Y-94297476D01*
X196543548Y-94280445D01*
X196533160Y-94261009D01*
X196526764Y-94239928D01*
X196524000Y-94211860D01*
X196524000Y-93748140D01*
X196526764Y-93720072D01*
X196533160Y-93698991D01*
X196543548Y-93679555D01*
X196557524Y-93662524D01*
X196574555Y-93648548D01*
X196593991Y-93638160D01*
X196615072Y-93631764D01*
X196643140Y-93629000D01*
X198456860Y-93629000D01*
X198484928Y-93631764D01*
G37*
G36*
X213089928Y-93631764D02*
G01*
X213111009Y-93638160D01*
X213130445Y-93648548D01*
X213147476Y-93662524D01*
X213161452Y-93679555D01*
X213171840Y-93698991D01*
X213178236Y-93720072D01*
X213181000Y-93748140D01*
X213181000Y-94211860D01*
X213178236Y-94239928D01*
X213171840Y-94261009D01*
X213161452Y-94280445D01*
X213147476Y-94297476D01*
X213130445Y-94311452D01*
X213111009Y-94321840D01*
X213089928Y-94328236D01*
X213061860Y-94331000D01*
X211248140Y-94331000D01*
X211220072Y-94328236D01*
X211198991Y-94321840D01*
X211179555Y-94311452D01*
X211162524Y-94297476D01*
X211148548Y-94280445D01*
X211138160Y-94261009D01*
X211131764Y-94239928D01*
X211129000Y-94211860D01*
X211129000Y-93748140D01*
X211131764Y-93720072D01*
X211138160Y-93698991D01*
X211148548Y-93679555D01*
X211162524Y-93662524D01*
X211179555Y-93648548D01*
X211198991Y-93638160D01*
X211220072Y-93631764D01*
X211248140Y-93629000D01*
X213061860Y-93629000D01*
X213089928Y-93631764D01*
G37*
G36*
X218039928Y-93631764D02*
G01*
X218061009Y-93638160D01*
X218080445Y-93648548D01*
X218097476Y-93662524D01*
X218111452Y-93679555D01*
X218121840Y-93698991D01*
X218128236Y-93720072D01*
X218131000Y-93748140D01*
X218131000Y-94211860D01*
X218128236Y-94239928D01*
X218121840Y-94261009D01*
X218111452Y-94280445D01*
X218097476Y-94297476D01*
X218080445Y-94311452D01*
X218061009Y-94321840D01*
X218039928Y-94328236D01*
X218011860Y-94331000D01*
X216198140Y-94331000D01*
X216170072Y-94328236D01*
X216148991Y-94321840D01*
X216129555Y-94311452D01*
X216112524Y-94297476D01*
X216098548Y-94280445D01*
X216088160Y-94261009D01*
X216081764Y-94239928D01*
X216079000Y-94211860D01*
X216079000Y-93748140D01*
X216081764Y-93720072D01*
X216088160Y-93698991D01*
X216098548Y-93679555D01*
X216112524Y-93662524D01*
X216129555Y-93648548D01*
X216148991Y-93638160D01*
X216170072Y-93631764D01*
X216198140Y-93629000D01*
X218011860Y-93629000D01*
X218039928Y-93631764D01*
G37*
G36*
X207143604Y-92543347D02*
G01*
X207180144Y-92554432D01*
X207213821Y-92572433D01*
X207243341Y-92596659D01*
X207267567Y-92626179D01*
X207285568Y-92659856D01*
X207296653Y-92696396D01*
X207301000Y-92740538D01*
X207301000Y-93689462D01*
X207296653Y-93733604D01*
X207285568Y-93770144D01*
X207267567Y-93803821D01*
X207243341Y-93833341D01*
X207213821Y-93857567D01*
X207180144Y-93875568D01*
X207143604Y-93886653D01*
X207099462Y-93891000D01*
X205650538Y-93891000D01*
X205606396Y-93886653D01*
X205569856Y-93875568D01*
X205536179Y-93857567D01*
X205506659Y-93833341D01*
X205482433Y-93803821D01*
X205464432Y-93770144D01*
X205453347Y-93733604D01*
X205449000Y-93689462D01*
X205449000Y-92740538D01*
X205453347Y-92696396D01*
X205464432Y-92659856D01*
X205482433Y-92626179D01*
X205506659Y-92596659D01*
X205536179Y-92572433D01*
X205569856Y-92554432D01*
X205606396Y-92543347D01*
X205650538Y-92539000D01*
X207099462Y-92539000D01*
X207143604Y-92543347D01*
G37*
G36*
X100525285Y-91728234D02*
G01*
X100621981Y-91747468D01*
X100750795Y-91800825D01*
X100771688Y-91809479D01*
X100804151Y-91822926D01*
X100968100Y-91932473D01*
X101107527Y-92071900D01*
X101217074Y-92235849D01*
X101281972Y-92392524D01*
X101292532Y-92418020D01*
X101325662Y-92584571D01*
X101331000Y-92611410D01*
X101331000Y-92808590D01*
X101292532Y-93001981D01*
X101217074Y-93184151D01*
X101107527Y-93348100D01*
X100968100Y-93487527D01*
X100804151Y-93597074D01*
X100621981Y-93672532D01*
X100544123Y-93688019D01*
X100428591Y-93711000D01*
X100231409Y-93711000D01*
X100115877Y-93688019D01*
X100038019Y-93672532D01*
X99855849Y-93597074D01*
X99691900Y-93487527D01*
X99552473Y-93348100D01*
X99442926Y-93184151D01*
X99367468Y-93001981D01*
X99329000Y-92808590D01*
X99329000Y-92611410D01*
X99334339Y-92584571D01*
X99367468Y-92418020D01*
X99378029Y-92392524D01*
X99442926Y-92235849D01*
X99552473Y-92071900D01*
X99691900Y-91932473D01*
X99855849Y-91822926D01*
X99888313Y-91809479D01*
X99909205Y-91800825D01*
X100038019Y-91747468D01*
X100134715Y-91728234D01*
X100231409Y-91709000D01*
X100428591Y-91709000D01*
X100525285Y-91728234D01*
G37*
G36*
X137634473Y-92225938D02*
G01*
X137762049Y-92278782D01*
X137876859Y-92355495D01*
X137974505Y-92453141D01*
X138051218Y-92567951D01*
X138104062Y-92695527D01*
X138131000Y-92830956D01*
X138131000Y-92969044D01*
X138104062Y-93104473D01*
X138051218Y-93232049D01*
X137974505Y-93346859D01*
X137876859Y-93444505D01*
X137762049Y-93521218D01*
X137634473Y-93574062D01*
X137499044Y-93601000D01*
X137360956Y-93601000D01*
X137225527Y-93574062D01*
X137097951Y-93521218D01*
X136983141Y-93444505D01*
X136885495Y-93346859D01*
X136808782Y-93232049D01*
X136755938Y-93104473D01*
X136729000Y-92969044D01*
X136729000Y-92830956D01*
X136755938Y-92695527D01*
X136808782Y-92567951D01*
X136885495Y-92453141D01*
X136983141Y-92355495D01*
X137097951Y-92278782D01*
X137225527Y-92225938D01*
X137360956Y-92199000D01*
X137499044Y-92199000D01*
X137634473Y-92225938D01*
G37*
G36*
X139634473Y-92225938D02*
G01*
X139762049Y-92278782D01*
X139876859Y-92355495D01*
X139974505Y-92453141D01*
X140051218Y-92567951D01*
X140104062Y-92695527D01*
X140131000Y-92830956D01*
X140131000Y-92969044D01*
X140104062Y-93104473D01*
X140051218Y-93232049D01*
X139974505Y-93346859D01*
X139876859Y-93444505D01*
X139762049Y-93521218D01*
X139634473Y-93574062D01*
X139499044Y-93601000D01*
X139360956Y-93601000D01*
X139225527Y-93574062D01*
X139097951Y-93521218D01*
X138983141Y-93444505D01*
X138885495Y-93346859D01*
X138808782Y-93232049D01*
X138755938Y-93104473D01*
X138729000Y-92969044D01*
X138729000Y-92830956D01*
X138755938Y-92695527D01*
X138808782Y-92567951D01*
X138885495Y-92453141D01*
X138983141Y-92355495D01*
X139097951Y-92278782D01*
X139225527Y-92225938D01*
X139360956Y-92199000D01*
X139499044Y-92199000D01*
X139634473Y-92225938D01*
G37*
G36*
X88360521Y-91142275D02*
G01*
X88451152Y-91179816D01*
X88541783Y-91217356D01*
X88704913Y-91326356D01*
X88843644Y-91465087D01*
X88952644Y-91628217D01*
X88963842Y-91655252D01*
X89027725Y-91809479D01*
X89066000Y-92001901D01*
X89066000Y-92198099D01*
X89027725Y-92390521D01*
X89016334Y-92418020D01*
X88952644Y-92571783D01*
X88843644Y-92734913D01*
X88704913Y-92873644D01*
X88541783Y-92982644D01*
X88451153Y-93020184D01*
X88360521Y-93057725D01*
X88168099Y-93096000D01*
X87971901Y-93096000D01*
X87779479Y-93057725D01*
X87688848Y-93020184D01*
X87598217Y-92982644D01*
X87435087Y-92873644D01*
X87296356Y-92734913D01*
X87187356Y-92571783D01*
X87123666Y-92418020D01*
X87112275Y-92390521D01*
X87074000Y-92198099D01*
X87074000Y-92001901D01*
X87112275Y-91809479D01*
X87176158Y-91655252D01*
X87187356Y-91628217D01*
X87296356Y-91465087D01*
X87435087Y-91326356D01*
X87598217Y-91217356D01*
X87688848Y-91179816D01*
X87779479Y-91142275D01*
X87971901Y-91104000D01*
X88168099Y-91104000D01*
X88360521Y-91142275D01*
G37*
G36*
X213089928Y-92361764D02*
G01*
X213111009Y-92368160D01*
X213130445Y-92378548D01*
X213147476Y-92392524D01*
X213161452Y-92409555D01*
X213171840Y-92428991D01*
X213178236Y-92450072D01*
X213181000Y-92478140D01*
X213181000Y-92941860D01*
X213178236Y-92969928D01*
X213171840Y-92991009D01*
X213161452Y-93010445D01*
X213147476Y-93027476D01*
X213130445Y-93041452D01*
X213111009Y-93051840D01*
X213089928Y-93058236D01*
X213061860Y-93061000D01*
X211248140Y-93061000D01*
X211220072Y-93058236D01*
X211198991Y-93051840D01*
X211179555Y-93041452D01*
X211162524Y-93027476D01*
X211148548Y-93010445D01*
X211138160Y-92991009D01*
X211131764Y-92969928D01*
X211129000Y-92941860D01*
X211129000Y-92478140D01*
X211131764Y-92450072D01*
X211138160Y-92428991D01*
X211148548Y-92409555D01*
X211162524Y-92392524D01*
X211179555Y-92378548D01*
X211198991Y-92368160D01*
X211220072Y-92361764D01*
X211248140Y-92359000D01*
X213061860Y-92359000D01*
X213089928Y-92361764D01*
G37*
G36*
X203434928Y-92361764D02*
G01*
X203456009Y-92368160D01*
X203475445Y-92378548D01*
X203492476Y-92392524D01*
X203506452Y-92409555D01*
X203516840Y-92428991D01*
X203523236Y-92450072D01*
X203526000Y-92478140D01*
X203526000Y-92941860D01*
X203523236Y-92969928D01*
X203516840Y-92991009D01*
X203506452Y-93010445D01*
X203492476Y-93027476D01*
X203475445Y-93041452D01*
X203456009Y-93051840D01*
X203434928Y-93058236D01*
X203406860Y-93061000D01*
X201593140Y-93061000D01*
X201565072Y-93058236D01*
X201543991Y-93051840D01*
X201524555Y-93041452D01*
X201507524Y-93027476D01*
X201493548Y-93010445D01*
X201483160Y-92991009D01*
X201476764Y-92969928D01*
X201474000Y-92941860D01*
X201474000Y-92478140D01*
X201476764Y-92450072D01*
X201483160Y-92428991D01*
X201493548Y-92409555D01*
X201507524Y-92392524D01*
X201524555Y-92378548D01*
X201543991Y-92368160D01*
X201565072Y-92361764D01*
X201593140Y-92359000D01*
X203406860Y-92359000D01*
X203434928Y-92361764D01*
G37*
G36*
X198484928Y-92361764D02*
G01*
X198506009Y-92368160D01*
X198525445Y-92378548D01*
X198542476Y-92392524D01*
X198556452Y-92409555D01*
X198566840Y-92428991D01*
X198573236Y-92450072D01*
X198576000Y-92478140D01*
X198576000Y-92941860D01*
X198573236Y-92969928D01*
X198566840Y-92991009D01*
X198556452Y-93010445D01*
X198542476Y-93027476D01*
X198525445Y-93041452D01*
X198506009Y-93051840D01*
X198484928Y-93058236D01*
X198456860Y-93061000D01*
X196643140Y-93061000D01*
X196615072Y-93058236D01*
X196593991Y-93051840D01*
X196574555Y-93041452D01*
X196557524Y-93027476D01*
X196543548Y-93010445D01*
X196533160Y-92991009D01*
X196526764Y-92969928D01*
X196524000Y-92941860D01*
X196524000Y-92478140D01*
X196526764Y-92450072D01*
X196533160Y-92428991D01*
X196543548Y-92409555D01*
X196557524Y-92392524D01*
X196574555Y-92378548D01*
X196593991Y-92368160D01*
X196615072Y-92361764D01*
X196643140Y-92359000D01*
X198456860Y-92359000D01*
X198484928Y-92361764D01*
G37*
G36*
X218039928Y-92361764D02*
G01*
X218061009Y-92368160D01*
X218080445Y-92378548D01*
X218097476Y-92392524D01*
X218111452Y-92409555D01*
X218121840Y-92428991D01*
X218128236Y-92450072D01*
X218131000Y-92478140D01*
X218131000Y-92941860D01*
X218128236Y-92969928D01*
X218121840Y-92991009D01*
X218111452Y-93010445D01*
X218097476Y-93027476D01*
X218080445Y-93041452D01*
X218061009Y-93051840D01*
X218039928Y-93058236D01*
X218011860Y-93061000D01*
X216198140Y-93061000D01*
X216170072Y-93058236D01*
X216148991Y-93051840D01*
X216129555Y-93041452D01*
X216112524Y-93027476D01*
X216098548Y-93010445D01*
X216088160Y-92991009D01*
X216081764Y-92969928D01*
X216079000Y-92941860D01*
X216079000Y-92478140D01*
X216081764Y-92450072D01*
X216088160Y-92428991D01*
X216098548Y-92409555D01*
X216112524Y-92392524D01*
X216129555Y-92378548D01*
X216148991Y-92368160D01*
X216170072Y-92361764D01*
X216198140Y-92359000D01*
X218011860Y-92359000D01*
X218039928Y-92361764D01*
G37*
G36*
X98791000Y-92441000D02*
G01*
X96789000Y-92441000D01*
X96789000Y-90439000D01*
X98791000Y-90439000D01*
X98791000Y-92441000D01*
G37*
G36*
X91938871Y-88558408D02*
G01*
X92243883Y-88684748D01*
X92518387Y-88868166D01*
X92751834Y-89101613D01*
X92935252Y-89376117D01*
X93061592Y-89681129D01*
X93086315Y-89805417D01*
X93126000Y-90004927D01*
X93126000Y-90335073D01*
X93061592Y-90658871D01*
X92935252Y-90963883D01*
X92751834Y-91238387D01*
X92518387Y-91471834D01*
X92243883Y-91655252D01*
X91938871Y-91781592D01*
X91798679Y-91809478D01*
X91615073Y-91846000D01*
X91284927Y-91846000D01*
X91101321Y-91809478D01*
X90961129Y-91781592D01*
X90656117Y-91655252D01*
X90381613Y-91471834D01*
X90148166Y-91238387D01*
X89964748Y-90963883D01*
X89838408Y-90658871D01*
X89774000Y-90335073D01*
X89774000Y-90004927D01*
X89813685Y-89805417D01*
X89838408Y-89681129D01*
X89964748Y-89376117D01*
X90148166Y-89101613D01*
X90381613Y-88868166D01*
X90656117Y-88684748D01*
X90961129Y-88558408D01*
X91284927Y-88494000D01*
X91615073Y-88494000D01*
X91938871Y-88558408D01*
G37*
G36*
X139634473Y-90225938D02*
G01*
X139762049Y-90278782D01*
X139876859Y-90355495D01*
X139974505Y-90453141D01*
X140051218Y-90567951D01*
X140104062Y-90695527D01*
X140131000Y-90830956D01*
X140131000Y-90969044D01*
X140104062Y-91104473D01*
X140051218Y-91232049D01*
X139974505Y-91346859D01*
X139876859Y-91444505D01*
X139762049Y-91521218D01*
X139634473Y-91574062D01*
X139499044Y-91601000D01*
X139360956Y-91601000D01*
X139225527Y-91574062D01*
X139097951Y-91521218D01*
X138983141Y-91444505D01*
X138885495Y-91346859D01*
X138808782Y-91232049D01*
X138755938Y-91104473D01*
X138729000Y-90969044D01*
X138729000Y-90830956D01*
X138755938Y-90695527D01*
X138808782Y-90567951D01*
X138885495Y-90453141D01*
X138983141Y-90355495D01*
X139097951Y-90278782D01*
X139225527Y-90225938D01*
X139360956Y-90199000D01*
X139499044Y-90199000D01*
X139634473Y-90225938D01*
G37*
G36*
X137634473Y-90225938D02*
G01*
X137762049Y-90278782D01*
X137876859Y-90355495D01*
X137974505Y-90453141D01*
X138051218Y-90567951D01*
X138104062Y-90695527D01*
X138131000Y-90830956D01*
X138131000Y-90969044D01*
X138104062Y-91104473D01*
X138051218Y-91232049D01*
X137974505Y-91346859D01*
X137876859Y-91444505D01*
X137762049Y-91521218D01*
X137634473Y-91574062D01*
X137499044Y-91601000D01*
X137360956Y-91601000D01*
X137225527Y-91574062D01*
X137097951Y-91521218D01*
X136983141Y-91444505D01*
X136885495Y-91346859D01*
X136808782Y-91232049D01*
X136755938Y-91104473D01*
X136729000Y-90969044D01*
X136729000Y-90830956D01*
X136755938Y-90695527D01*
X136808782Y-90567951D01*
X136885495Y-90453141D01*
X136983141Y-90355495D01*
X137097951Y-90278782D01*
X137225527Y-90225938D01*
X137360956Y-90199000D01*
X137499044Y-90199000D01*
X137634473Y-90225938D01*
G37*
G36*
X86840521Y-88602275D02*
G01*
X86931153Y-88639816D01*
X87021783Y-88677356D01*
X87184913Y-88786356D01*
X87323644Y-88925087D01*
X87432644Y-89088217D01*
X87462125Y-89159391D01*
X87507725Y-89269479D01*
X87546000Y-89461901D01*
X87546000Y-89658099D01*
X87507725Y-89850521D01*
X87470184Y-89941153D01*
X87432644Y-90031783D01*
X87323644Y-90194913D01*
X87184913Y-90333644D01*
X87021783Y-90442644D01*
X86931152Y-90480184D01*
X86840521Y-90517725D01*
X86648099Y-90556000D01*
X86451901Y-90556000D01*
X86259479Y-90517725D01*
X86168847Y-90480184D01*
X86078217Y-90442644D01*
X85915087Y-90333644D01*
X85776356Y-90194913D01*
X85667356Y-90031783D01*
X85629816Y-89941153D01*
X85592275Y-89850521D01*
X85554000Y-89658099D01*
X85554000Y-89461901D01*
X85592275Y-89269479D01*
X85637875Y-89159391D01*
X85667356Y-89088217D01*
X85776356Y-88925087D01*
X85915087Y-88786356D01*
X86078217Y-88677356D01*
X86168848Y-88639816D01*
X86259479Y-88602275D01*
X86451901Y-88564000D01*
X86648099Y-88564000D01*
X86840521Y-88602275D01*
G37*
G36*
X213748604Y-87978347D02*
G01*
X213785144Y-87989432D01*
X213818821Y-88007433D01*
X213848341Y-88031659D01*
X213872567Y-88061179D01*
X213890568Y-88094856D01*
X213901653Y-88131396D01*
X213906000Y-88175538D01*
X213906000Y-89624462D01*
X213901653Y-89668604D01*
X213890568Y-89705144D01*
X213872567Y-89738821D01*
X213848341Y-89768341D01*
X213818821Y-89792567D01*
X213785144Y-89810568D01*
X213748604Y-89821653D01*
X213704462Y-89826000D01*
X212755538Y-89826000D01*
X212711396Y-89821653D01*
X212674856Y-89810568D01*
X212641179Y-89792567D01*
X212611659Y-89768341D01*
X212587433Y-89738821D01*
X212569432Y-89705144D01*
X212558347Y-89668604D01*
X212554000Y-89624462D01*
X212554000Y-88175538D01*
X212558347Y-88131396D01*
X212569432Y-88094856D01*
X212587433Y-88061179D01*
X212611659Y-88031659D01*
X212641179Y-88007433D01*
X212674856Y-87989432D01*
X212711396Y-87978347D01*
X212755538Y-87974000D01*
X213704462Y-87974000D01*
X213748604Y-87978347D01*
G37*
G36*
X216548604Y-87978347D02*
G01*
X216585144Y-87989432D01*
X216618821Y-88007433D01*
X216648341Y-88031659D01*
X216672567Y-88061179D01*
X216690568Y-88094856D01*
X216701653Y-88131396D01*
X216706000Y-88175538D01*
X216706000Y-89624462D01*
X216701653Y-89668604D01*
X216690568Y-89705144D01*
X216672567Y-89738821D01*
X216648341Y-89768341D01*
X216618821Y-89792567D01*
X216585144Y-89810568D01*
X216548604Y-89821653D01*
X216504462Y-89826000D01*
X215555538Y-89826000D01*
X215511396Y-89821653D01*
X215474856Y-89810568D01*
X215441179Y-89792567D01*
X215411659Y-89768341D01*
X215387433Y-89738821D01*
X215369432Y-89705144D01*
X215358347Y-89668604D01*
X215354000Y-89624462D01*
X215354000Y-88175538D01*
X215358347Y-88131396D01*
X215369432Y-88094856D01*
X215387433Y-88061179D01*
X215411659Y-88031659D01*
X215441179Y-88007433D01*
X215474856Y-87989432D01*
X215511396Y-87978347D01*
X215555538Y-87974000D01*
X216504462Y-87974000D01*
X216548604Y-87978347D01*
G37*
G36*
X139634473Y-88225938D02*
G01*
X139762049Y-88278782D01*
X139876859Y-88355495D01*
X139974505Y-88453141D01*
X140051218Y-88567951D01*
X140104062Y-88695527D01*
X140131000Y-88830956D01*
X140131000Y-88969044D01*
X140104062Y-89104473D01*
X140051218Y-89232049D01*
X139974505Y-89346859D01*
X139876859Y-89444505D01*
X139762049Y-89521218D01*
X139634473Y-89574062D01*
X139499044Y-89601000D01*
X139360956Y-89601000D01*
X139225527Y-89574062D01*
X139097951Y-89521218D01*
X138983141Y-89444505D01*
X138885495Y-89346859D01*
X138808782Y-89232049D01*
X138755938Y-89104473D01*
X138729000Y-88969044D01*
X138729000Y-88830956D01*
X138755938Y-88695527D01*
X138808782Y-88567951D01*
X138885495Y-88453141D01*
X138983141Y-88355495D01*
X139097951Y-88278782D01*
X139225527Y-88225938D01*
X139360956Y-88199000D01*
X139499044Y-88199000D01*
X139634473Y-88225938D01*
G37*
G36*
X138131000Y-89601000D02*
G01*
X136729000Y-89601000D01*
X136729000Y-88199000D01*
X138131000Y-88199000D01*
X138131000Y-89601000D01*
G37*
G36*
X94894072Y-86810918D02*
G01*
X95115124Y-86902480D01*
X95139939Y-86912759D01*
X95251328Y-86987187D01*
X95301955Y-87021015D01*
X95361212Y-87060610D01*
X95549390Y-87248788D01*
X95697241Y-87470061D01*
X95799082Y-87715928D01*
X95851000Y-87976938D01*
X95851000Y-88243062D01*
X95799082Y-88504072D01*
X95697241Y-88749939D01*
X95549390Y-88971212D01*
X95361212Y-89159390D01*
X95139939Y-89307241D01*
X95139938Y-89307242D01*
X95139937Y-89307242D01*
X94894072Y-89409082D01*
X94633063Y-89461000D01*
X94366937Y-89461000D01*
X94105928Y-89409082D01*
X93860063Y-89307242D01*
X93860062Y-89307242D01*
X93860061Y-89307241D01*
X93638788Y-89159390D01*
X93450610Y-88971212D01*
X93302759Y-88749939D01*
X93200918Y-88504072D01*
X93149000Y-88243062D01*
X93149000Y-87976938D01*
X93200918Y-87715928D01*
X93302759Y-87470061D01*
X93450610Y-87248788D01*
X93638788Y-87060610D01*
X93698046Y-87021015D01*
X93748672Y-86987187D01*
X93860061Y-86912759D01*
X93884877Y-86902480D01*
X94105928Y-86810918D01*
X94366937Y-86759000D01*
X94633063Y-86759000D01*
X94894072Y-86810918D01*
G37*
G36*
X152648228Y-85541703D02*
G01*
X152803100Y-85605853D01*
X152942481Y-85698985D01*
X153061015Y-85817519D01*
X153154147Y-85956900D01*
X153218297Y-86111772D01*
X153251000Y-86276184D01*
X153251000Y-86443816D01*
X153218297Y-86608228D01*
X153154147Y-86763100D01*
X153061015Y-86902481D01*
X152942481Y-87021015D01*
X152803100Y-87114147D01*
X152648228Y-87178297D01*
X152483816Y-87211000D01*
X152316184Y-87211000D01*
X152151772Y-87178297D01*
X151996900Y-87114147D01*
X151857519Y-87021015D01*
X151738985Y-86902481D01*
X151645853Y-86763100D01*
X151581703Y-86608228D01*
X151549000Y-86443816D01*
X151549000Y-86276184D01*
X151581703Y-86111772D01*
X151645853Y-85956900D01*
X151738985Y-85817519D01*
X151857519Y-85698985D01*
X151996900Y-85605853D01*
X152151772Y-85541703D01*
X152316184Y-85509000D01*
X152483816Y-85509000D01*
X152648228Y-85541703D01*
G37*
G36*
X162808228Y-85541703D02*
G01*
X162963100Y-85605853D01*
X163102481Y-85698985D01*
X163221015Y-85817519D01*
X163314147Y-85956900D01*
X163378297Y-86111772D01*
X163411000Y-86276184D01*
X163411000Y-86443816D01*
X163378297Y-86608228D01*
X163314147Y-86763100D01*
X163221015Y-86902481D01*
X163102481Y-87021015D01*
X162963100Y-87114147D01*
X162808228Y-87178297D01*
X162643816Y-87211000D01*
X162476184Y-87211000D01*
X162311772Y-87178297D01*
X162156900Y-87114147D01*
X162017519Y-87021015D01*
X161898985Y-86902481D01*
X161805853Y-86763100D01*
X161741703Y-86608228D01*
X161709000Y-86443816D01*
X161709000Y-86276184D01*
X161741703Y-86111772D01*
X161805853Y-85956900D01*
X161898985Y-85817519D01*
X162017519Y-85698985D01*
X162156900Y-85605853D01*
X162311772Y-85541703D01*
X162476184Y-85509000D01*
X162643816Y-85509000D01*
X162808228Y-85541703D01*
G37*
G36*
X165348228Y-85541703D02*
G01*
X165503100Y-85605853D01*
X165642481Y-85698985D01*
X165761015Y-85817519D01*
X165854147Y-85956900D01*
X165918297Y-86111772D01*
X165951000Y-86276184D01*
X165951000Y-86443816D01*
X165918297Y-86608228D01*
X165854147Y-86763100D01*
X165761015Y-86902481D01*
X165642481Y-87021015D01*
X165503100Y-87114147D01*
X165348228Y-87178297D01*
X165183816Y-87211000D01*
X165016184Y-87211000D01*
X164851772Y-87178297D01*
X164696900Y-87114147D01*
X164557519Y-87021015D01*
X164438985Y-86902481D01*
X164345853Y-86763100D01*
X164281703Y-86608228D01*
X164249000Y-86443816D01*
X164249000Y-86276184D01*
X164281703Y-86111772D01*
X164345853Y-85956900D01*
X164438985Y-85817519D01*
X164557519Y-85698985D01*
X164696900Y-85605853D01*
X164851772Y-85541703D01*
X165016184Y-85509000D01*
X165183816Y-85509000D01*
X165348228Y-85541703D01*
G37*
G36*
X167888228Y-85541703D02*
G01*
X168043100Y-85605853D01*
X168182481Y-85698985D01*
X168301015Y-85817519D01*
X168394147Y-85956900D01*
X168458297Y-86111772D01*
X168491000Y-86276184D01*
X168491000Y-86443816D01*
X168458297Y-86608228D01*
X168394147Y-86763100D01*
X168301015Y-86902481D01*
X168182481Y-87021015D01*
X168043100Y-87114147D01*
X167888228Y-87178297D01*
X167723816Y-87211000D01*
X167556184Y-87211000D01*
X167391772Y-87178297D01*
X167236900Y-87114147D01*
X167097519Y-87021015D01*
X166978985Y-86902481D01*
X166885853Y-86763100D01*
X166821703Y-86608228D01*
X166789000Y-86443816D01*
X166789000Y-86276184D01*
X166821703Y-86111772D01*
X166885853Y-85956900D01*
X166978985Y-85817519D01*
X167097519Y-85698985D01*
X167236900Y-85605853D01*
X167391772Y-85541703D01*
X167556184Y-85509000D01*
X167723816Y-85509000D01*
X167888228Y-85541703D01*
G37*
G36*
X170428228Y-85541703D02*
G01*
X170583100Y-85605853D01*
X170722481Y-85698985D01*
X170841015Y-85817519D01*
X170934147Y-85956900D01*
X170998297Y-86111772D01*
X171031000Y-86276184D01*
X171031000Y-86443816D01*
X170998297Y-86608228D01*
X170934147Y-86763100D01*
X170841015Y-86902481D01*
X170722481Y-87021015D01*
X170583100Y-87114147D01*
X170428228Y-87178297D01*
X170263816Y-87211000D01*
X170096184Y-87211000D01*
X169931772Y-87178297D01*
X169776900Y-87114147D01*
X169637519Y-87021015D01*
X169518985Y-86902481D01*
X169425853Y-86763100D01*
X169361703Y-86608228D01*
X169329000Y-86443816D01*
X169329000Y-86276184D01*
X169361703Y-86111772D01*
X169425853Y-85956900D01*
X169518985Y-85817519D01*
X169637519Y-85698985D01*
X169776900Y-85605853D01*
X169931772Y-85541703D01*
X170096184Y-85509000D01*
X170263816Y-85509000D01*
X170428228Y-85541703D01*
G37*
G36*
X175508228Y-85541703D02*
G01*
X175663100Y-85605853D01*
X175802481Y-85698985D01*
X175921015Y-85817519D01*
X176014147Y-85956900D01*
X176078297Y-86111772D01*
X176111000Y-86276184D01*
X176111000Y-86443816D01*
X176078297Y-86608228D01*
X176014147Y-86763100D01*
X175921015Y-86902481D01*
X175802481Y-87021015D01*
X175663100Y-87114147D01*
X175508228Y-87178297D01*
X175343816Y-87211000D01*
X175176184Y-87211000D01*
X175011772Y-87178297D01*
X174856900Y-87114147D01*
X174717519Y-87021015D01*
X174598985Y-86902481D01*
X174505853Y-86763100D01*
X174441703Y-86608228D01*
X174409000Y-86443816D01*
X174409000Y-86276184D01*
X174441703Y-86111772D01*
X174505853Y-85956900D01*
X174598985Y-85817519D01*
X174717519Y-85698985D01*
X174856900Y-85605853D01*
X175011772Y-85541703D01*
X175176184Y-85509000D01*
X175343816Y-85509000D01*
X175508228Y-85541703D01*
G37*
G36*
X178048228Y-85541703D02*
G01*
X178203100Y-85605853D01*
X178342481Y-85698985D01*
X178461015Y-85817519D01*
X178554147Y-85956900D01*
X178618297Y-86111772D01*
X178651000Y-86276184D01*
X178651000Y-86443816D01*
X178618297Y-86608228D01*
X178554147Y-86763100D01*
X178461015Y-86902481D01*
X178342481Y-87021015D01*
X178203100Y-87114147D01*
X178048228Y-87178297D01*
X177883816Y-87211000D01*
X177716184Y-87211000D01*
X177551772Y-87178297D01*
X177396900Y-87114147D01*
X177257519Y-87021015D01*
X177138985Y-86902481D01*
X177045853Y-86763100D01*
X176981703Y-86608228D01*
X176949000Y-86443816D01*
X176949000Y-86276184D01*
X176981703Y-86111772D01*
X177045853Y-85956900D01*
X177138985Y-85817519D01*
X177257519Y-85698985D01*
X177396900Y-85605853D01*
X177551772Y-85541703D01*
X177716184Y-85509000D01*
X177883816Y-85509000D01*
X178048228Y-85541703D01*
G37*
G36*
X180588228Y-85541703D02*
G01*
X180743100Y-85605853D01*
X180882481Y-85698985D01*
X181001015Y-85817519D01*
X181094147Y-85956900D01*
X181158297Y-86111772D01*
X181191000Y-86276184D01*
X181191000Y-86443816D01*
X181158297Y-86608228D01*
X181094147Y-86763100D01*
X181001015Y-86902481D01*
X180882481Y-87021015D01*
X180743100Y-87114147D01*
X180588228Y-87178297D01*
X180423816Y-87211000D01*
X180256184Y-87211000D01*
X180091772Y-87178297D01*
X179936900Y-87114147D01*
X179797519Y-87021015D01*
X179678985Y-86902481D01*
X179585853Y-86763100D01*
X179521703Y-86608228D01*
X179489000Y-86443816D01*
X179489000Y-86276184D01*
X179521703Y-86111772D01*
X179585853Y-85956900D01*
X179678985Y-85817519D01*
X179797519Y-85698985D01*
X179936900Y-85605853D01*
X180091772Y-85541703D01*
X180256184Y-85509000D01*
X180423816Y-85509000D01*
X180588228Y-85541703D01*
G37*
G36*
X183128228Y-85541703D02*
G01*
X183283100Y-85605853D01*
X183422481Y-85698985D01*
X183541015Y-85817519D01*
X183634147Y-85956900D01*
X183698297Y-86111772D01*
X183731000Y-86276184D01*
X183731000Y-86443816D01*
X183698297Y-86608228D01*
X183634147Y-86763100D01*
X183541015Y-86902481D01*
X183422481Y-87021015D01*
X183283100Y-87114147D01*
X183128228Y-87178297D01*
X182963816Y-87211000D01*
X182796184Y-87211000D01*
X182631772Y-87178297D01*
X182476900Y-87114147D01*
X182337519Y-87021015D01*
X182218985Y-86902481D01*
X182125853Y-86763100D01*
X182061703Y-86608228D01*
X182029000Y-86443816D01*
X182029000Y-86276184D01*
X182061703Y-86111772D01*
X182125853Y-85956900D01*
X182218985Y-85817519D01*
X182337519Y-85698985D01*
X182476900Y-85605853D01*
X182631772Y-85541703D01*
X182796184Y-85509000D01*
X182963816Y-85509000D01*
X183128228Y-85541703D01*
G37*
G36*
X172968228Y-85541703D02*
G01*
X173123100Y-85605853D01*
X173262481Y-85698985D01*
X173381015Y-85817519D01*
X173474147Y-85956900D01*
X173538297Y-86111772D01*
X173571000Y-86276184D01*
X173571000Y-86443816D01*
X173538297Y-86608228D01*
X173474147Y-86763100D01*
X173381015Y-86902481D01*
X173262481Y-87021015D01*
X173123100Y-87114147D01*
X172968228Y-87178297D01*
X172803816Y-87211000D01*
X172636184Y-87211000D01*
X172471772Y-87178297D01*
X172316900Y-87114147D01*
X172177519Y-87021015D01*
X172058985Y-86902481D01*
X171965853Y-86763100D01*
X171901703Y-86608228D01*
X171869000Y-86443816D01*
X171869000Y-86276184D01*
X171901703Y-86111772D01*
X171965853Y-85956900D01*
X172058985Y-85817519D01*
X172177519Y-85698985D01*
X172316900Y-85605853D01*
X172471772Y-85541703D01*
X172636184Y-85509000D01*
X172803816Y-85509000D01*
X172968228Y-85541703D01*
G37*
G36*
X157728228Y-85541703D02*
G01*
X157883100Y-85605853D01*
X158022481Y-85698985D01*
X158141015Y-85817519D01*
X158234147Y-85956900D01*
X158298297Y-86111772D01*
X158331000Y-86276184D01*
X158331000Y-86443816D01*
X158298297Y-86608228D01*
X158234147Y-86763100D01*
X158141015Y-86902481D01*
X158022481Y-87021015D01*
X157883100Y-87114147D01*
X157728228Y-87178297D01*
X157563816Y-87211000D01*
X157396184Y-87211000D01*
X157231772Y-87178297D01*
X157076900Y-87114147D01*
X156937519Y-87021015D01*
X156818985Y-86902481D01*
X156725853Y-86763100D01*
X156661703Y-86608228D01*
X156629000Y-86443816D01*
X156629000Y-86276184D01*
X156661703Y-86111772D01*
X156725853Y-85956900D01*
X156818985Y-85817519D01*
X156937519Y-85698985D01*
X157076900Y-85605853D01*
X157231772Y-85541703D01*
X157396184Y-85509000D01*
X157563816Y-85509000D01*
X157728228Y-85541703D01*
G37*
G36*
X155188228Y-85541703D02*
G01*
X155343100Y-85605853D01*
X155482481Y-85698985D01*
X155601015Y-85817519D01*
X155694147Y-85956900D01*
X155758297Y-86111772D01*
X155791000Y-86276184D01*
X155791000Y-86443816D01*
X155758297Y-86608228D01*
X155694147Y-86763100D01*
X155601015Y-86902481D01*
X155482481Y-87021015D01*
X155343100Y-87114147D01*
X155188228Y-87178297D01*
X155023816Y-87211000D01*
X154856184Y-87211000D01*
X154691772Y-87178297D01*
X154536900Y-87114147D01*
X154397519Y-87021015D01*
X154278985Y-86902481D01*
X154185853Y-86763100D01*
X154121703Y-86608228D01*
X154089000Y-86443816D01*
X154089000Y-86276184D01*
X154121703Y-86111772D01*
X154185853Y-85956900D01*
X154278985Y-85817519D01*
X154397519Y-85698985D01*
X154536900Y-85605853D01*
X154691772Y-85541703D01*
X154856184Y-85509000D01*
X155023816Y-85509000D01*
X155188228Y-85541703D01*
G37*
G36*
X124708228Y-85541703D02*
G01*
X124863100Y-85605853D01*
X125002481Y-85698985D01*
X125121015Y-85817519D01*
X125214147Y-85956900D01*
X125278297Y-86111772D01*
X125311000Y-86276184D01*
X125311000Y-86443816D01*
X125278297Y-86608228D01*
X125214147Y-86763100D01*
X125121015Y-86902481D01*
X125002481Y-87021015D01*
X124863100Y-87114147D01*
X124708228Y-87178297D01*
X124543816Y-87211000D01*
X124376184Y-87211000D01*
X124211772Y-87178297D01*
X124056900Y-87114147D01*
X123917519Y-87021015D01*
X123798985Y-86902481D01*
X123705853Y-86763100D01*
X123641703Y-86608228D01*
X123609000Y-86443816D01*
X123609000Y-86276184D01*
X123641703Y-86111772D01*
X123705853Y-85956900D01*
X123798985Y-85817519D01*
X123917519Y-85698985D01*
X124056900Y-85605853D01*
X124211772Y-85541703D01*
X124376184Y-85509000D01*
X124543816Y-85509000D01*
X124708228Y-85541703D01*
G37*
G36*
X150108228Y-85541703D02*
G01*
X150263100Y-85605853D01*
X150402481Y-85698985D01*
X150521015Y-85817519D01*
X150614147Y-85956900D01*
X150678297Y-86111772D01*
X150711000Y-86276184D01*
X150711000Y-86443816D01*
X150678297Y-86608228D01*
X150614147Y-86763100D01*
X150521015Y-86902481D01*
X150402481Y-87021015D01*
X150263100Y-87114147D01*
X150108228Y-87178297D01*
X149943816Y-87211000D01*
X149776184Y-87211000D01*
X149611772Y-87178297D01*
X149456900Y-87114147D01*
X149317519Y-87021015D01*
X149198985Y-86902481D01*
X149105853Y-86763100D01*
X149041703Y-86608228D01*
X149009000Y-86443816D01*
X149009000Y-86276184D01*
X149041703Y-86111772D01*
X149105853Y-85956900D01*
X149198985Y-85817519D01*
X149317519Y-85698985D01*
X149456900Y-85605853D01*
X149611772Y-85541703D01*
X149776184Y-85509000D01*
X149943816Y-85509000D01*
X150108228Y-85541703D01*
G37*
G36*
X147568228Y-85541703D02*
G01*
X147723100Y-85605853D01*
X147862481Y-85698985D01*
X147981015Y-85817519D01*
X148074147Y-85956900D01*
X148138297Y-86111772D01*
X148171000Y-86276184D01*
X148171000Y-86443816D01*
X148138297Y-86608228D01*
X148074147Y-86763100D01*
X147981015Y-86902481D01*
X147862481Y-87021015D01*
X147723100Y-87114147D01*
X147568228Y-87178297D01*
X147403816Y-87211000D01*
X147236184Y-87211000D01*
X147071772Y-87178297D01*
X146916900Y-87114147D01*
X146777519Y-87021015D01*
X146658985Y-86902481D01*
X146565853Y-86763100D01*
X146501703Y-86608228D01*
X146469000Y-86443816D01*
X146469000Y-86276184D01*
X146501703Y-86111772D01*
X146565853Y-85956900D01*
X146658985Y-85817519D01*
X146777519Y-85698985D01*
X146916900Y-85605853D01*
X147071772Y-85541703D01*
X147236184Y-85509000D01*
X147403816Y-85509000D01*
X147568228Y-85541703D01*
G37*
G36*
X145028228Y-85541703D02*
G01*
X145183100Y-85605853D01*
X145322481Y-85698985D01*
X145441015Y-85817519D01*
X145534147Y-85956900D01*
X145598297Y-86111772D01*
X145631000Y-86276184D01*
X145631000Y-86443816D01*
X145598297Y-86608228D01*
X145534147Y-86763100D01*
X145441015Y-86902481D01*
X145322481Y-87021015D01*
X145183100Y-87114147D01*
X145028228Y-87178297D01*
X144863816Y-87211000D01*
X144696184Y-87211000D01*
X144531772Y-87178297D01*
X144376900Y-87114147D01*
X144237519Y-87021015D01*
X144118985Y-86902481D01*
X144025853Y-86763100D01*
X143961703Y-86608228D01*
X143929000Y-86443816D01*
X143929000Y-86276184D01*
X143961703Y-86111772D01*
X144025853Y-85956900D01*
X144118985Y-85817519D01*
X144237519Y-85698985D01*
X144376900Y-85605853D01*
X144531772Y-85541703D01*
X144696184Y-85509000D01*
X144863816Y-85509000D01*
X145028228Y-85541703D01*
G37*
G36*
X142488228Y-85541703D02*
G01*
X142643100Y-85605853D01*
X142782481Y-85698985D01*
X142901015Y-85817519D01*
X142994147Y-85956900D01*
X143058297Y-86111772D01*
X143091000Y-86276184D01*
X143091000Y-86443816D01*
X143058297Y-86608228D01*
X142994147Y-86763100D01*
X142901015Y-86902481D01*
X142782481Y-87021015D01*
X142643100Y-87114147D01*
X142488228Y-87178297D01*
X142323816Y-87211000D01*
X142156184Y-87211000D01*
X141991772Y-87178297D01*
X141836900Y-87114147D01*
X141697519Y-87021015D01*
X141578985Y-86902481D01*
X141485853Y-86763100D01*
X141421703Y-86608228D01*
X141389000Y-86443816D01*
X141389000Y-86276184D01*
X141421703Y-86111772D01*
X141485853Y-85956900D01*
X141578985Y-85817519D01*
X141697519Y-85698985D01*
X141836900Y-85605853D01*
X141991772Y-85541703D01*
X142156184Y-85509000D01*
X142323816Y-85509000D01*
X142488228Y-85541703D01*
G37*
G36*
X139948228Y-85541703D02*
G01*
X140103100Y-85605853D01*
X140242481Y-85698985D01*
X140361015Y-85817519D01*
X140454147Y-85956900D01*
X140518297Y-86111772D01*
X140551000Y-86276184D01*
X140551000Y-86443816D01*
X140518297Y-86608228D01*
X140454147Y-86763100D01*
X140361015Y-86902481D01*
X140242481Y-87021015D01*
X140103100Y-87114147D01*
X139948228Y-87178297D01*
X139783816Y-87211000D01*
X139616184Y-87211000D01*
X139451772Y-87178297D01*
X139296900Y-87114147D01*
X139157519Y-87021015D01*
X139038985Y-86902481D01*
X138945853Y-86763100D01*
X138881703Y-86608228D01*
X138849000Y-86443816D01*
X138849000Y-86276184D01*
X138881703Y-86111772D01*
X138945853Y-85956900D01*
X139038985Y-85817519D01*
X139157519Y-85698985D01*
X139296900Y-85605853D01*
X139451772Y-85541703D01*
X139616184Y-85509000D01*
X139783816Y-85509000D01*
X139948228Y-85541703D01*
G37*
G36*
X137408228Y-85541703D02*
G01*
X137563100Y-85605853D01*
X137702481Y-85698985D01*
X137821015Y-85817519D01*
X137914147Y-85956900D01*
X137978297Y-86111772D01*
X138011000Y-86276184D01*
X138011000Y-86443816D01*
X137978297Y-86608228D01*
X137914147Y-86763100D01*
X137821015Y-86902481D01*
X137702481Y-87021015D01*
X137563100Y-87114147D01*
X137408228Y-87178297D01*
X137243816Y-87211000D01*
X137076184Y-87211000D01*
X136911772Y-87178297D01*
X136756900Y-87114147D01*
X136617519Y-87021015D01*
X136498985Y-86902481D01*
X136405853Y-86763100D01*
X136341703Y-86608228D01*
X136309000Y-86443816D01*
X136309000Y-86276184D01*
X136341703Y-86111772D01*
X136405853Y-85956900D01*
X136498985Y-85817519D01*
X136617519Y-85698985D01*
X136756900Y-85605853D01*
X136911772Y-85541703D01*
X137076184Y-85509000D01*
X137243816Y-85509000D01*
X137408228Y-85541703D01*
G37*
G36*
X134868228Y-85541703D02*
G01*
X135023100Y-85605853D01*
X135162481Y-85698985D01*
X135281015Y-85817519D01*
X135374147Y-85956900D01*
X135438297Y-86111772D01*
X135471000Y-86276184D01*
X135471000Y-86443816D01*
X135438297Y-86608228D01*
X135374147Y-86763100D01*
X135281015Y-86902481D01*
X135162481Y-87021015D01*
X135023100Y-87114147D01*
X134868228Y-87178297D01*
X134703816Y-87211000D01*
X134536184Y-87211000D01*
X134371772Y-87178297D01*
X134216900Y-87114147D01*
X134077519Y-87021015D01*
X133958985Y-86902481D01*
X133865853Y-86763100D01*
X133801703Y-86608228D01*
X133769000Y-86443816D01*
X133769000Y-86276184D01*
X133801703Y-86111772D01*
X133865853Y-85956900D01*
X133958985Y-85817519D01*
X134077519Y-85698985D01*
X134216900Y-85605853D01*
X134371772Y-85541703D01*
X134536184Y-85509000D01*
X134703816Y-85509000D01*
X134868228Y-85541703D01*
G37*
G36*
X132328228Y-85541703D02*
G01*
X132483100Y-85605853D01*
X132622481Y-85698985D01*
X132741015Y-85817519D01*
X132834147Y-85956900D01*
X132898297Y-86111772D01*
X132931000Y-86276184D01*
X132931000Y-86443816D01*
X132898297Y-86608228D01*
X132834147Y-86763100D01*
X132741015Y-86902481D01*
X132622481Y-87021015D01*
X132483100Y-87114147D01*
X132328228Y-87178297D01*
X132163816Y-87211000D01*
X131996184Y-87211000D01*
X131831772Y-87178297D01*
X131676900Y-87114147D01*
X131537519Y-87021015D01*
X131418985Y-86902481D01*
X131325853Y-86763100D01*
X131261703Y-86608228D01*
X131229000Y-86443816D01*
X131229000Y-86276184D01*
X131261703Y-86111772D01*
X131325853Y-85956900D01*
X131418985Y-85817519D01*
X131537519Y-85698985D01*
X131676900Y-85605853D01*
X131831772Y-85541703D01*
X131996184Y-85509000D01*
X132163816Y-85509000D01*
X132328228Y-85541703D01*
G37*
G36*
X160268228Y-85541703D02*
G01*
X160423100Y-85605853D01*
X160562481Y-85698985D01*
X160681015Y-85817519D01*
X160774147Y-85956900D01*
X160838297Y-86111772D01*
X160871000Y-86276184D01*
X160871000Y-86443816D01*
X160838297Y-86608228D01*
X160774147Y-86763100D01*
X160681015Y-86902481D01*
X160562481Y-87021015D01*
X160423100Y-87114147D01*
X160268228Y-87178297D01*
X160103816Y-87211000D01*
X159936184Y-87211000D01*
X159771772Y-87178297D01*
X159616900Y-87114147D01*
X159477519Y-87021015D01*
X159358985Y-86902481D01*
X159265853Y-86763100D01*
X159201703Y-86608228D01*
X159169000Y-86443816D01*
X159169000Y-86276184D01*
X159201703Y-86111772D01*
X159265853Y-85956900D01*
X159358985Y-85817519D01*
X159477519Y-85698985D01*
X159616900Y-85605853D01*
X159771772Y-85541703D01*
X159936184Y-85509000D01*
X160103816Y-85509000D01*
X160268228Y-85541703D01*
G37*
G36*
X127248228Y-85541703D02*
G01*
X127403100Y-85605853D01*
X127542481Y-85698985D01*
X127661015Y-85817519D01*
X127754147Y-85956900D01*
X127818297Y-86111772D01*
X127851000Y-86276184D01*
X127851000Y-86443816D01*
X127818297Y-86608228D01*
X127754147Y-86763100D01*
X127661015Y-86902481D01*
X127542481Y-87021015D01*
X127403100Y-87114147D01*
X127248228Y-87178297D01*
X127083816Y-87211000D01*
X126916184Y-87211000D01*
X126751772Y-87178297D01*
X126596900Y-87114147D01*
X126457519Y-87021015D01*
X126338985Y-86902481D01*
X126245853Y-86763100D01*
X126181703Y-86608228D01*
X126149000Y-86443816D01*
X126149000Y-86276184D01*
X126181703Y-86111772D01*
X126245853Y-85956900D01*
X126338985Y-85817519D01*
X126457519Y-85698985D01*
X126596900Y-85605853D01*
X126751772Y-85541703D01*
X126916184Y-85509000D01*
X127083816Y-85509000D01*
X127248228Y-85541703D01*
G37*
G36*
X129788228Y-85541703D02*
G01*
X129943100Y-85605853D01*
X130082481Y-85698985D01*
X130201015Y-85817519D01*
X130294147Y-85956900D01*
X130358297Y-86111772D01*
X130391000Y-86276184D01*
X130391000Y-86443816D01*
X130358297Y-86608228D01*
X130294147Y-86763100D01*
X130201015Y-86902481D01*
X130082481Y-87021015D01*
X129943100Y-87114147D01*
X129788228Y-87178297D01*
X129623816Y-87211000D01*
X129456184Y-87211000D01*
X129291772Y-87178297D01*
X129136900Y-87114147D01*
X128997519Y-87021015D01*
X128878985Y-86902481D01*
X128785853Y-86763100D01*
X128721703Y-86608228D01*
X128689000Y-86443816D01*
X128689000Y-86276184D01*
X128721703Y-86111772D01*
X128785853Y-85956900D01*
X128878985Y-85817519D01*
X128997519Y-85698985D01*
X129136900Y-85605853D01*
X129291772Y-85541703D01*
X129456184Y-85509000D01*
X129623816Y-85509000D01*
X129788228Y-85541703D01*
G37*
M02*
