M48
; DRILL file {KiCad 5.1.5-52549c5~84~ubuntu18.04.1} date Sun 17 May 2020 03:52:00 PM PDT
; FORMAT={-:-/ absolute / inch / decimal}
; #@! TF.CreationDate,2020-05-17T15:52:00-07:00
; #@! TF.GenerationSoftware,Kicad,Pcbnew,5.1.5-52549c5~84~ubuntu18.04.1
FMAT,2
INCH
T1C0.0157
T2C0.0315
T3C0.0354
T4C0.0394
T5C0.1260
%
G90
G05
T1
X3.0Y-4.0
X3.45Y-3.675
X3.45Y-3.875
X3.45Y-4.45
X3.4608Y-4.8642
X3.475Y-4.15
X3.4839Y-3.1839
X3.4839Y-3.5839
X3.4839Y-3.9839
X3.4839Y-4.3839
X3.4839Y-4.7839
X3.5Y-4.9545
X3.525Y-4.8738
X3.5488Y-3.2488
X3.5488Y-3.6488
X3.5744Y-3.7506
X3.5744Y-4.0756
X3.575Y-3.475
X3.575Y-3.875
X3.6Y-4.875
X3.625Y-4.325
X3.6256Y-3.7506
X3.6256Y-4.6744
X3.6512Y-3.3512
X3.6512Y-3.6488
X3.6512Y-4.4488
X3.6512Y-4.8738
X3.6512Y-4.9512
X3.675Y-3.7539
X3.725Y-5.075
X3.8108Y-4.8642
X3.825Y-4.15
X3.8339Y-3.1839
X3.8339Y-3.5839
X3.8339Y-3.9839
X3.8339Y-4.3839
X3.8339Y-4.7839
X3.85Y-4.9545
X3.875Y-4.8738
X3.88Y-4.48
X3.8988Y-3.2488
X3.8988Y-3.6488
X3.9244Y-3.7506
X3.9244Y-4.0756
X3.925Y-3.475
X3.925Y-3.875
X3.95Y-4.875
X3.975Y-4.325
X3.9756Y-3.7506
X3.9756Y-4.6744
X4.0012Y-3.3512
X4.0012Y-3.6488
X4.0012Y-4.4488
X4.0012Y-4.8738
X4.0012Y-4.9512
X4.025Y-3.7539
X4.075Y-5.075
X4.1608Y-4.8642
X4.175Y-4.15
X4.1839Y-3.1839
X4.1839Y-3.5839
X4.1839Y-3.9839
X4.1839Y-4.3839
X4.1839Y-4.7839
X4.2Y-4.9545
X4.225Y-4.8738
X4.23Y-4.48
X4.2488Y-3.2488
X4.2488Y-3.6488
X4.2744Y-3.7506
X4.2744Y-4.0756
X4.275Y-3.475
X4.275Y-3.875
X4.3Y-4.875
X4.325Y-4.325
X4.3256Y-3.7506
X4.3256Y-4.6744
X4.3512Y-3.3512
X4.3512Y-3.6488
X4.3512Y-4.4488
X4.3512Y-4.8738
X4.3512Y-4.9512
X4.375Y-3.7539
X4.425Y-5.075
X4.5108Y-4.8642
X4.525Y-4.15
X4.5339Y-3.1839
X4.5339Y-3.5839
X4.5339Y-3.9839
X4.5339Y-4.3839
X4.5339Y-4.7839
X4.55Y-4.9545
X4.575Y-4.8738
X4.58Y-4.48
X4.5988Y-3.2488
X4.5988Y-3.6488
X4.6244Y-3.7506
X4.6244Y-4.0756
X4.625Y-3.475
X4.625Y-3.875
X4.65Y-4.875
X4.675Y-4.325
X4.6756Y-3.7506
X4.6756Y-4.6744
X4.7012Y-3.3512
X4.7012Y-3.6488
X4.7012Y-4.4488
X4.7012Y-4.8738
X4.7012Y-4.9512
X4.725Y-3.7539
X4.775Y-5.075
X4.8608Y-4.8642
X4.875Y-4.15
X4.8839Y-3.1839
X4.8839Y-3.5839
X4.8839Y-3.9839
X4.8839Y-4.3839
X4.8839Y-4.7839
X4.9Y-4.9545
X4.925Y-4.8738
X4.93Y-4.48
X4.9488Y-3.2488
X4.9488Y-3.6488
X4.9744Y-3.7506
X4.9744Y-4.0756
X4.975Y-3.475
X4.975Y-3.875
X5.0Y-4.875
X5.025Y-4.325
X5.0256Y-3.7506
X5.0256Y-4.6744
X5.0512Y-3.3512
X5.0512Y-3.6488
X5.0512Y-4.4488
X5.0512Y-4.8738
X5.0512Y-4.9512
X5.075Y-3.7539
X5.125Y-5.075
X5.2108Y-4.8642
X5.225Y-4.15
X5.2339Y-3.1839
X5.2339Y-3.5839
X5.2339Y-3.9839
X5.2339Y-4.3839
X5.2339Y-4.7839
X5.25Y-4.9545
X5.275Y-4.8738
X5.28Y-4.48
X5.2988Y-3.2488
X5.2988Y-3.6488
X5.3244Y-3.7506
X5.3244Y-4.0756
X5.325Y-3.475
X5.325Y-3.875
X5.35Y-4.875
X5.375Y-4.325
X5.3756Y-3.7506
X5.3756Y-4.6744
X5.4012Y-3.3512
X5.4012Y-3.6488
X5.4012Y-4.4488
X5.4012Y-4.8738
X5.4012Y-4.9512
X5.425Y-3.7539
X5.475Y-5.075
X5.5608Y-4.8642
X5.575Y-4.15
X5.5839Y-3.1839
X5.5839Y-3.5839
X5.5839Y-3.9839
X5.5839Y-4.3839
X5.5839Y-4.7839
X5.6Y-4.9545
X5.625Y-4.8738
X5.63Y-4.48
X5.6488Y-3.2488
X5.6488Y-3.6488
X5.6744Y-3.7506
X5.6744Y-4.0756
X5.675Y-3.475
X5.675Y-3.875
X5.7Y-4.875
X5.725Y-4.325
X5.7256Y-3.7506
X5.7256Y-4.6744
X5.7512Y-3.3512
X5.7512Y-3.6488
X5.7512Y-4.4488
X5.7512Y-4.8738
X5.7512Y-4.9512
X5.775Y-3.7539
X5.825Y-5.075
X5.9108Y-4.8642
X5.925Y-4.15
X5.9339Y-3.1839
X5.9339Y-3.5839
X5.9339Y-3.9839
X5.9339Y-4.3839
X5.9339Y-4.7839
X5.95Y-4.9545
X5.975Y-4.8738
X5.98Y-4.48
X5.9988Y-3.2488
X5.9988Y-3.6488
X6.0244Y-3.7506
X6.0244Y-4.0756
X6.025Y-3.475
X6.025Y-3.875
X6.05Y-4.875
X6.075Y-4.325
X6.0756Y-3.7506
X6.0756Y-4.6744
X6.1012Y-3.3512
X6.1012Y-3.6488
X6.1012Y-4.4488
X6.1012Y-4.8738
X6.1012Y-4.9512
X6.125Y-3.7539
X6.175Y-5.075
X6.2608Y-4.8642
X6.275Y-4.15
X6.2839Y-3.1839
X6.2839Y-3.5839
X6.2839Y-3.9839
X6.2839Y-4.3839
X6.2839Y-4.7839
X6.3Y-4.9545
X6.325Y-4.8738
X6.33Y-4.48
X6.3488Y-3.2488
X6.3488Y-3.6488
X6.3744Y-3.7506
X6.3744Y-4.0756
X6.375Y-3.475
X6.375Y-3.875
X6.4Y-4.875
X6.425Y-4.325
X6.4256Y-3.7506
X6.4256Y-4.6744
X6.4512Y-3.3512
X6.4512Y-3.6488
X6.4512Y-4.4488
X6.4512Y-4.8738
X6.4512Y-4.9512
X6.475Y-3.7539
X6.525Y-5.075
X6.6108Y-4.8642
X6.625Y-4.15
X6.6339Y-3.1839
X6.6339Y-3.5839
X6.6339Y-3.9839
X6.6339Y-4.3839
X6.6339Y-4.7839
X6.65Y-4.9545
X6.675Y-4.8738
X6.68Y-4.48
X6.6988Y-3.2488
X6.6988Y-3.6488
X6.7244Y-3.7506
X6.7244Y-4.0756
X6.725Y-3.475
X6.725Y-3.875
X6.75Y-4.875
X6.775Y-4.325
X6.7756Y-3.7506
X6.7756Y-4.6744
X6.8012Y-3.3512
X6.8012Y-3.6488
X6.8012Y-4.4488
X6.8012Y-4.8738
X6.8012Y-4.9512
X6.825Y-3.7539
X6.875Y-5.075
X6.9608Y-4.8642
X6.975Y-4.15
X6.9839Y-3.1839
X6.9839Y-3.5839
X6.9839Y-3.9839
X6.9839Y-4.3839
X6.9839Y-4.7839
X7.0Y-4.9545
X7.025Y-4.8738
X7.0488Y-3.2488
X7.0488Y-3.6488
X7.05Y-4.5
X7.0744Y-3.7506
X7.0744Y-4.0756
X7.075Y-3.475
X7.075Y-3.875
X7.1Y-4.875
X7.125Y-4.325
X7.1256Y-3.7506
X7.1256Y-4.6744
X7.1512Y-3.3512
X7.1512Y-3.6488
X7.1512Y-4.4488
X7.1512Y-4.8738
X7.1512Y-4.9512
X7.175Y-3.7539
X7.225Y-5.075
X7.3108Y-4.8642
X7.325Y-4.15
X7.3339Y-3.1839
X7.3339Y-3.5839
X7.3339Y-3.9839
X7.3339Y-4.3839
X7.3339Y-4.7839
X7.35Y-4.9545
X7.375Y-4.8738
X7.3988Y-3.2488
X7.3988Y-3.6488
X7.4Y-4.5
X7.4244Y-3.7506
X7.4244Y-4.0756
X7.425Y-3.475
X7.425Y-3.875
X7.45Y-4.875
X7.475Y-4.325
X7.4756Y-3.7506
X7.4756Y-4.6744
X7.5012Y-3.3512
X7.5012Y-3.6488
X7.5012Y-4.4488
X7.5012Y-4.8738
X7.5012Y-4.9512
X7.525Y-3.7539
X7.575Y-5.075
X7.6608Y-4.8642
X7.675Y-4.15
X7.6839Y-3.1839
X7.6839Y-3.5839
X7.6839Y-3.9839
X7.6839Y-4.3839
X7.6839Y-4.7839
X7.7Y-4.9545
X7.725Y-4.8738
X7.7488Y-3.2488
X7.7488Y-3.6488
X7.75Y-4.5
X7.7744Y-3.7506
X7.7744Y-4.0756
X7.775Y-3.475
X7.775Y-3.875
X7.8Y-4.875
X7.825Y-4.325
X7.8256Y-3.7506
X7.8256Y-4.6744
X7.8512Y-3.3512
X7.8512Y-3.6488
X7.8512Y-4.4488
X7.8512Y-4.8738
X7.8512Y-4.9512
X7.875Y-3.7539
X7.925Y-5.075
X8.0108Y-4.8642
X8.025Y-4.15
X8.0339Y-3.1839
X8.0339Y-3.5839
X8.0339Y-3.9839
X8.0339Y-4.3839
X8.0339Y-4.7839
X8.05Y-4.9545
X8.075Y-4.8738
X8.0988Y-3.2488
X8.0988Y-3.6488
X8.1Y-4.5
X8.1244Y-3.7506
X8.1244Y-4.0756
X8.125Y-3.475
X8.125Y-3.875
X8.15Y-4.875
X8.175Y-4.325
X8.1756Y-3.7506
X8.1756Y-4.6744
X8.2012Y-3.3512
X8.2012Y-3.6488
X8.2012Y-4.4488
X8.2012Y-4.8738
X8.2012Y-4.9512
X8.225Y-3.7539
X8.275Y-5.075
X8.3608Y-4.8642
X8.375Y-4.15
X8.3839Y-3.1839
X8.3839Y-3.5839
X8.3839Y-3.9839
X8.3839Y-4.3839
X8.3839Y-4.7839
X8.4Y-4.9545
X8.4073Y-5.1177
X8.425Y-4.8738
X8.4488Y-3.2488
X8.4488Y-3.6488
X8.45Y-4.5
X8.4744Y-3.7506
X8.4744Y-4.0756
X8.475Y-3.475
X8.475Y-3.875
X8.5Y-4.875
X8.525Y-4.325
X8.5256Y-3.7506
X8.5256Y-4.6744
X8.5512Y-3.3512
X8.5512Y-3.6488
X8.5512Y-4.4488
X8.5512Y-4.8738
X8.5512Y-4.9512
X8.575Y-3.7539
X8.625Y-5.075
X8.675Y-4.85
X8.725Y-4.45
X8.775Y-3.875
X8.775Y-4.675
X8.925Y-3.475
X9.1Y-3.8
T2
X9.0266Y-4.6
X9.125Y-4.6
X8.9781Y-4.3
X9.175Y-4.3
T3
X5.7Y-2.9
X5.7Y-3.0
X6.05Y-2.9
X6.05Y-3.0
X7.8Y-2.9
X7.8Y-3.0
X8.15Y-2.9
X8.15Y-3.0
X7.1Y-2.9
X7.1Y-3.0
X3.95Y-2.9
X3.95Y-3.0
X6.4Y-2.9
X6.4Y-3.0
X3.6Y-2.9
X3.6Y-3.0
X8.5Y-2.9
X8.5Y-3.0
X4.3Y-2.9
X4.3Y-3.0
X5.0Y-2.9
X5.0Y-3.0
X6.75Y-2.9
X6.75Y-3.0
X4.65Y-2.9
X4.65Y-3.0
X9.0Y-2.9
X9.0Y-3.0
X7.45Y-2.9
X7.45Y-3.0
X5.35Y-2.9
X5.35Y-3.0
T4
X2.7882Y-2.9045
X2.7882Y-3.0136
X2.7882Y-3.1226
X2.7882Y-3.2317
X2.7882Y-3.3407
X2.7882Y-3.4498
X2.7882Y-3.5589
X2.7882Y-3.6679
X2.7882Y-3.777
X2.7882Y-3.886
X2.7882Y-3.9951
X2.7882Y-4.1041
X2.7882Y-4.2132
X2.7882Y-4.3222
X2.7882Y-4.4313
X2.7882Y-4.5404
X2.7882Y-4.6494
X2.7882Y-4.7585
X2.9Y-2.85
X2.9Y-2.9591
X2.9Y-3.0681
X2.9Y-3.1772
X2.9Y-3.2862
X2.9Y-3.3953
X2.9Y-3.5043
X2.9Y-3.6134
X2.9Y-3.7224
X2.9Y-3.8315
X2.9Y-3.9406
X2.9Y-4.0496
X2.9Y-4.1587
X2.9Y-4.2677
X2.9Y-4.3768
X2.9Y-4.4858
X2.9Y-4.5949
X2.9Y-4.7039
X2.9Y-4.813
T5
X9.3Y-2.6
X9.3Y-5.05
X2.8441Y-2.5815
X2.8441Y-5.0815
T0
M30
