G04 #@! TF.GenerationSoftware,KiCad,Pcbnew,5.1.5-52549c5~84~ubuntu18.04.1*
G04 #@! TF.CreationDate,2020-05-17T15:51:58-07:00*
G04 #@! TF.ProjectId,program_counter,70726f67-7261-46d5-9f63-6f756e746572,rev?*
G04 #@! TF.SameCoordinates,Original*
G04 #@! TF.FileFunction,Soldermask,Top*
G04 #@! TF.FilePolarity,Negative*
%FSLAX46Y46*%
G04 Gerber Fmt 4.6, Leading zero omitted, Abs format (unit mm)*
G04 Created by KiCad (PCBNEW 5.1.5-52549c5~84~ubuntu18.04.1) date 2020-05-17 15:51:58*
%MOMM*%
%LPD*%
G04 APERTURE LIST*
%ADD10C,0.100000*%
G04 APERTURE END LIST*
D10*
G36*
X72838254Y-127097818D02*
G01*
X73211511Y-127252426D01*
X73211513Y-127252427D01*
X73547436Y-127476884D01*
X73833116Y-127762564D01*
X74057574Y-128098489D01*
X74212182Y-128471746D01*
X74291000Y-128867993D01*
X74291000Y-129272007D01*
X74212182Y-129668254D01*
X74057574Y-130041511D01*
X74057573Y-130041513D01*
X73833116Y-130377436D01*
X73547436Y-130663116D01*
X73211513Y-130887573D01*
X73211512Y-130887574D01*
X73211511Y-130887574D01*
X72838254Y-131042182D01*
X72442007Y-131121000D01*
X72037993Y-131121000D01*
X71641746Y-131042182D01*
X71268489Y-130887574D01*
X71268488Y-130887574D01*
X71268487Y-130887573D01*
X70932564Y-130663116D01*
X70646884Y-130377436D01*
X70422427Y-130041513D01*
X70422426Y-130041511D01*
X70267818Y-129668254D01*
X70189000Y-129272007D01*
X70189000Y-128867993D01*
X70267818Y-128471746D01*
X70422426Y-128098489D01*
X70646884Y-127762564D01*
X70932564Y-127476884D01*
X71268487Y-127252427D01*
X71268489Y-127252426D01*
X71641746Y-127097818D01*
X72037993Y-127019000D01*
X72442007Y-127019000D01*
X72838254Y-127097818D01*
G37*
G36*
X120336000Y-128186000D02*
G01*
X115884000Y-128186000D01*
X115884000Y-126634000D01*
X120336000Y-126634000D01*
X120336000Y-128186000D01*
G37*
G36*
X209236000Y-128186000D02*
G01*
X204784000Y-128186000D01*
X204784000Y-126634000D01*
X209236000Y-126634000D01*
X209236000Y-128186000D01*
G37*
G36*
X93666000Y-128186000D02*
G01*
X89214000Y-128186000D01*
X89214000Y-126634000D01*
X93666000Y-126634000D01*
X93666000Y-128186000D01*
G37*
G36*
X218126000Y-128186000D02*
G01*
X213674000Y-128186000D01*
X213674000Y-126634000D01*
X218126000Y-126634000D01*
X218126000Y-128186000D01*
G37*
G36*
X155896000Y-128186000D02*
G01*
X151444000Y-128186000D01*
X151444000Y-126634000D01*
X155896000Y-126634000D01*
X155896000Y-128186000D01*
G37*
G36*
X182566000Y-128186000D02*
G01*
X178114000Y-128186000D01*
X178114000Y-126634000D01*
X182566000Y-126634000D01*
X182566000Y-128186000D01*
G37*
G36*
X191456000Y-128186000D02*
G01*
X187004000Y-128186000D01*
X187004000Y-126634000D01*
X191456000Y-126634000D01*
X191456000Y-128186000D01*
G37*
G36*
X164786000Y-128186000D02*
G01*
X160334000Y-128186000D01*
X160334000Y-126634000D01*
X164786000Y-126634000D01*
X164786000Y-128186000D01*
G37*
G36*
X147006000Y-128186000D02*
G01*
X142554000Y-128186000D01*
X142554000Y-126634000D01*
X147006000Y-126634000D01*
X147006000Y-128186000D01*
G37*
G36*
X102556000Y-128186000D02*
G01*
X98104000Y-128186000D01*
X98104000Y-126634000D01*
X102556000Y-126634000D01*
X102556000Y-128186000D01*
G37*
G36*
X111446000Y-128186000D02*
G01*
X106994000Y-128186000D01*
X106994000Y-126634000D01*
X111446000Y-126634000D01*
X111446000Y-128186000D01*
G37*
G36*
X138116000Y-128186000D02*
G01*
X133664000Y-128186000D01*
X133664000Y-126634000D01*
X138116000Y-126634000D01*
X138116000Y-128186000D01*
G37*
G36*
X129226000Y-128186000D02*
G01*
X124774000Y-128186000D01*
X124774000Y-126634000D01*
X129226000Y-126634000D01*
X129226000Y-128186000D01*
G37*
G36*
X200346000Y-128186000D02*
G01*
X195894000Y-128186000D01*
X195894000Y-126634000D01*
X200346000Y-126634000D01*
X200346000Y-128186000D01*
G37*
G36*
X173676000Y-128186000D02*
G01*
X169224000Y-128186000D01*
X169224000Y-126634000D01*
X173676000Y-126634000D01*
X173676000Y-128186000D01*
G37*
G36*
X73908228Y-121431703D02*
G01*
X74063100Y-121495853D01*
X74202481Y-121588985D01*
X74321015Y-121707519D01*
X74414147Y-121846900D01*
X74478297Y-122001772D01*
X74511000Y-122166184D01*
X74511000Y-122333816D01*
X74478297Y-122498228D01*
X74414147Y-122653100D01*
X74321015Y-122792481D01*
X74202481Y-122911015D01*
X74063100Y-123004147D01*
X73908228Y-123068297D01*
X73743816Y-123101000D01*
X73576184Y-123101000D01*
X73411772Y-123068297D01*
X73256900Y-123004147D01*
X73117519Y-122911015D01*
X72998985Y-122792481D01*
X72905853Y-122653100D01*
X72841703Y-122498228D01*
X72809000Y-122333816D01*
X72809000Y-122166184D01*
X72841703Y-122001772D01*
X72905853Y-121846900D01*
X72998985Y-121707519D01*
X73117519Y-121588985D01*
X73256900Y-121495853D01*
X73411772Y-121431703D01*
X73576184Y-121399000D01*
X73743816Y-121399000D01*
X73908228Y-121431703D01*
G37*
G36*
X129226000Y-122286000D02*
G01*
X124774000Y-122286000D01*
X124774000Y-120734000D01*
X129226000Y-120734000D01*
X129226000Y-122286000D01*
G37*
G36*
X218126000Y-122286000D02*
G01*
X213674000Y-122286000D01*
X213674000Y-120734000D01*
X218126000Y-120734000D01*
X218126000Y-122286000D01*
G37*
G36*
X164786000Y-122286000D02*
G01*
X160334000Y-122286000D01*
X160334000Y-120734000D01*
X164786000Y-120734000D01*
X164786000Y-122286000D01*
G37*
G36*
X200346000Y-122286000D02*
G01*
X195894000Y-122286000D01*
X195894000Y-120734000D01*
X200346000Y-120734000D01*
X200346000Y-122286000D01*
G37*
G36*
X138116000Y-122286000D02*
G01*
X133664000Y-122286000D01*
X133664000Y-120734000D01*
X138116000Y-120734000D01*
X138116000Y-122286000D01*
G37*
G36*
X191456000Y-122286000D02*
G01*
X187004000Y-122286000D01*
X187004000Y-120734000D01*
X191456000Y-120734000D01*
X191456000Y-122286000D01*
G37*
G36*
X209236000Y-122286000D02*
G01*
X204784000Y-122286000D01*
X204784000Y-120734000D01*
X209236000Y-120734000D01*
X209236000Y-122286000D01*
G37*
G36*
X93666000Y-122286000D02*
G01*
X89214000Y-122286000D01*
X89214000Y-120734000D01*
X93666000Y-120734000D01*
X93666000Y-122286000D01*
G37*
G36*
X102556000Y-122286000D02*
G01*
X98104000Y-122286000D01*
X98104000Y-120734000D01*
X102556000Y-120734000D01*
X102556000Y-122286000D01*
G37*
G36*
X111446000Y-122286000D02*
G01*
X106994000Y-122286000D01*
X106994000Y-120734000D01*
X111446000Y-120734000D01*
X111446000Y-122286000D01*
G37*
G36*
X120336000Y-122286000D02*
G01*
X115884000Y-122286000D01*
X115884000Y-120734000D01*
X120336000Y-120734000D01*
X120336000Y-122286000D01*
G37*
G36*
X155896000Y-122286000D02*
G01*
X151444000Y-122286000D01*
X151444000Y-120734000D01*
X155896000Y-120734000D01*
X155896000Y-122286000D01*
G37*
G36*
X182566000Y-122286000D02*
G01*
X178114000Y-122286000D01*
X178114000Y-120734000D01*
X182566000Y-120734000D01*
X182566000Y-122286000D01*
G37*
G36*
X173676000Y-122286000D02*
G01*
X169224000Y-122286000D01*
X169224000Y-120734000D01*
X173676000Y-120734000D01*
X173676000Y-122286000D01*
G37*
G36*
X147006000Y-122286000D02*
G01*
X142554000Y-122286000D01*
X142554000Y-120734000D01*
X147006000Y-120734000D01*
X147006000Y-122286000D01*
G37*
G36*
X71068228Y-120046703D02*
G01*
X71223100Y-120110853D01*
X71362481Y-120203985D01*
X71481015Y-120322519D01*
X71574147Y-120461900D01*
X71638297Y-120616772D01*
X71671000Y-120781184D01*
X71671000Y-120948816D01*
X71638297Y-121113228D01*
X71574147Y-121268100D01*
X71481015Y-121407481D01*
X71362481Y-121526015D01*
X71223100Y-121619147D01*
X71068228Y-121683297D01*
X70903816Y-121716000D01*
X70736184Y-121716000D01*
X70571772Y-121683297D01*
X70416900Y-121619147D01*
X70277519Y-121526015D01*
X70158985Y-121407481D01*
X70065853Y-121268100D01*
X70001703Y-121113228D01*
X69969000Y-120948816D01*
X69969000Y-120781184D01*
X70001703Y-120616772D01*
X70065853Y-120461900D01*
X70158985Y-120322519D01*
X70277519Y-120203985D01*
X70416900Y-120110853D01*
X70571772Y-120046703D01*
X70736184Y-120014000D01*
X70903816Y-120014000D01*
X71068228Y-120046703D01*
G37*
G36*
X73908228Y-118661703D02*
G01*
X74063100Y-118725853D01*
X74202481Y-118818985D01*
X74321015Y-118937519D01*
X74414147Y-119076900D01*
X74478297Y-119231772D01*
X74511000Y-119396184D01*
X74511000Y-119563816D01*
X74478297Y-119728228D01*
X74414147Y-119883100D01*
X74321015Y-120022481D01*
X74202481Y-120141015D01*
X74063100Y-120234147D01*
X73908228Y-120298297D01*
X73743816Y-120331000D01*
X73576184Y-120331000D01*
X73411772Y-120298297D01*
X73256900Y-120234147D01*
X73117519Y-120141015D01*
X72998985Y-120022481D01*
X72905853Y-119883100D01*
X72841703Y-119728228D01*
X72809000Y-119563816D01*
X72809000Y-119396184D01*
X72841703Y-119231772D01*
X72905853Y-119076900D01*
X72998985Y-118937519D01*
X73117519Y-118818985D01*
X73256900Y-118725853D01*
X73411772Y-118661703D01*
X73576184Y-118629000D01*
X73743816Y-118629000D01*
X73908228Y-118661703D01*
G37*
G36*
X71068228Y-117276703D02*
G01*
X71223100Y-117340853D01*
X71362481Y-117433985D01*
X71481015Y-117552519D01*
X71574147Y-117691900D01*
X71638297Y-117846772D01*
X71671000Y-118011184D01*
X71671000Y-118178816D01*
X71638297Y-118343228D01*
X71574147Y-118498100D01*
X71481015Y-118637481D01*
X71362481Y-118756015D01*
X71223100Y-118849147D01*
X71068228Y-118913297D01*
X70903816Y-118946000D01*
X70736184Y-118946000D01*
X70571772Y-118913297D01*
X70416900Y-118849147D01*
X70277519Y-118756015D01*
X70158985Y-118637481D01*
X70065853Y-118498100D01*
X70001703Y-118343228D01*
X69969000Y-118178816D01*
X69969000Y-118011184D01*
X70001703Y-117846772D01*
X70065853Y-117691900D01*
X70158985Y-117552519D01*
X70277519Y-117433985D01*
X70416900Y-117340853D01*
X70571772Y-117276703D01*
X70736184Y-117244000D01*
X70903816Y-117244000D01*
X71068228Y-117276703D01*
G37*
G36*
X147006000Y-118026000D02*
G01*
X142554000Y-118026000D01*
X142554000Y-116474000D01*
X147006000Y-116474000D01*
X147006000Y-118026000D01*
G37*
G36*
X138116000Y-118026000D02*
G01*
X133664000Y-118026000D01*
X133664000Y-116474000D01*
X138116000Y-116474000D01*
X138116000Y-118026000D01*
G37*
G36*
X155896000Y-118026000D02*
G01*
X151444000Y-118026000D01*
X151444000Y-116474000D01*
X155896000Y-116474000D01*
X155896000Y-118026000D01*
G37*
G36*
X164786000Y-118026000D02*
G01*
X160334000Y-118026000D01*
X160334000Y-116474000D01*
X164786000Y-116474000D01*
X164786000Y-118026000D01*
G37*
G36*
X173676000Y-118026000D02*
G01*
X169224000Y-118026000D01*
X169224000Y-116474000D01*
X173676000Y-116474000D01*
X173676000Y-118026000D01*
G37*
G36*
X129226000Y-118026000D02*
G01*
X124774000Y-118026000D01*
X124774000Y-116474000D01*
X129226000Y-116474000D01*
X129226000Y-118026000D01*
G37*
G36*
X120336000Y-118026000D02*
G01*
X115884000Y-118026000D01*
X115884000Y-116474000D01*
X120336000Y-116474000D01*
X120336000Y-118026000D01*
G37*
G36*
X218126000Y-118026000D02*
G01*
X213674000Y-118026000D01*
X213674000Y-116474000D01*
X218126000Y-116474000D01*
X218126000Y-118026000D01*
G37*
G36*
X111446000Y-118026000D02*
G01*
X106994000Y-118026000D01*
X106994000Y-116474000D01*
X111446000Y-116474000D01*
X111446000Y-118026000D01*
G37*
G36*
X182566000Y-118026000D02*
G01*
X178114000Y-118026000D01*
X178114000Y-116474000D01*
X182566000Y-116474000D01*
X182566000Y-118026000D01*
G37*
G36*
X191456000Y-118026000D02*
G01*
X187004000Y-118026000D01*
X187004000Y-116474000D01*
X191456000Y-116474000D01*
X191456000Y-118026000D01*
G37*
G36*
X200346000Y-118026000D02*
G01*
X195894000Y-118026000D01*
X195894000Y-116474000D01*
X200346000Y-116474000D01*
X200346000Y-118026000D01*
G37*
G36*
X209236000Y-118026000D02*
G01*
X204784000Y-118026000D01*
X204784000Y-116474000D01*
X209236000Y-116474000D01*
X209236000Y-118026000D01*
G37*
G36*
X93666000Y-118026000D02*
G01*
X89214000Y-118026000D01*
X89214000Y-116474000D01*
X93666000Y-116474000D01*
X93666000Y-118026000D01*
G37*
G36*
X102556000Y-118026000D02*
G01*
X98104000Y-118026000D01*
X98104000Y-116474000D01*
X102556000Y-116474000D01*
X102556000Y-118026000D01*
G37*
G36*
X229523228Y-116021703D02*
G01*
X229678100Y-116085853D01*
X229817481Y-116178985D01*
X229936015Y-116297519D01*
X230029147Y-116436900D01*
X230093297Y-116591772D01*
X230126000Y-116756184D01*
X230126000Y-116923816D01*
X230093297Y-117088228D01*
X230029147Y-117243100D01*
X229936015Y-117382481D01*
X229817481Y-117501015D01*
X229678100Y-117594147D01*
X229523228Y-117658297D01*
X229358816Y-117691000D01*
X229191184Y-117691000D01*
X229026772Y-117658297D01*
X228871900Y-117594147D01*
X228732519Y-117501015D01*
X228613985Y-117382481D01*
X228520853Y-117243100D01*
X228456703Y-117088228D01*
X228424000Y-116923816D01*
X228424000Y-116756184D01*
X228456703Y-116591772D01*
X228520853Y-116436900D01*
X228613985Y-116297519D01*
X228732519Y-116178985D01*
X228871900Y-116085853D01*
X229026772Y-116021703D01*
X229191184Y-115989000D01*
X229358816Y-115989000D01*
X229523228Y-116021703D01*
G37*
G36*
X232626000Y-117691000D02*
G01*
X230924000Y-117691000D01*
X230924000Y-115989000D01*
X232626000Y-115989000D01*
X232626000Y-117691000D01*
G37*
G36*
X73908228Y-115891703D02*
G01*
X74063100Y-115955853D01*
X74202481Y-116048985D01*
X74321015Y-116167519D01*
X74414147Y-116306900D01*
X74478297Y-116461772D01*
X74511000Y-116626184D01*
X74511000Y-116793816D01*
X74478297Y-116958228D01*
X74414147Y-117113100D01*
X74321015Y-117252481D01*
X74202481Y-117371015D01*
X74063100Y-117464147D01*
X73908228Y-117528297D01*
X73743816Y-117561000D01*
X73576184Y-117561000D01*
X73411772Y-117528297D01*
X73256900Y-117464147D01*
X73117519Y-117371015D01*
X72998985Y-117252481D01*
X72905853Y-117113100D01*
X72841703Y-116958228D01*
X72809000Y-116793816D01*
X72809000Y-116626184D01*
X72841703Y-116461772D01*
X72905853Y-116306900D01*
X72998985Y-116167519D01*
X73117519Y-116048985D01*
X73256900Y-115955853D01*
X73411772Y-115891703D01*
X73576184Y-115859000D01*
X73743816Y-115859000D01*
X73908228Y-115891703D01*
G37*
G36*
X71068228Y-114506703D02*
G01*
X71223100Y-114570853D01*
X71362481Y-114663985D01*
X71481015Y-114782519D01*
X71574147Y-114921900D01*
X71638297Y-115076772D01*
X71671000Y-115241184D01*
X71671000Y-115408816D01*
X71638297Y-115573228D01*
X71574147Y-115728100D01*
X71481015Y-115867481D01*
X71362481Y-115986015D01*
X71223100Y-116079147D01*
X71068228Y-116143297D01*
X70903816Y-116176000D01*
X70736184Y-116176000D01*
X70571772Y-116143297D01*
X70416900Y-116079147D01*
X70277519Y-115986015D01*
X70158985Y-115867481D01*
X70065853Y-115728100D01*
X70001703Y-115573228D01*
X69969000Y-115408816D01*
X69969000Y-115241184D01*
X70001703Y-115076772D01*
X70065853Y-114921900D01*
X70158985Y-114782519D01*
X70277519Y-114663985D01*
X70416900Y-114570853D01*
X70571772Y-114506703D01*
X70736184Y-114474000D01*
X70903816Y-114474000D01*
X71068228Y-114506703D01*
G37*
G36*
X73908228Y-113121703D02*
G01*
X74063100Y-113185853D01*
X74202481Y-113278985D01*
X74321015Y-113397519D01*
X74414147Y-113536900D01*
X74478297Y-113691772D01*
X74511000Y-113856184D01*
X74511000Y-114023816D01*
X74478297Y-114188228D01*
X74414147Y-114343100D01*
X74321015Y-114482481D01*
X74202481Y-114601015D01*
X74063100Y-114694147D01*
X73908228Y-114758297D01*
X73743816Y-114791000D01*
X73576184Y-114791000D01*
X73411772Y-114758297D01*
X73256900Y-114694147D01*
X73117519Y-114601015D01*
X72998985Y-114482481D01*
X72905853Y-114343100D01*
X72841703Y-114188228D01*
X72809000Y-114023816D01*
X72809000Y-113856184D01*
X72841703Y-113691772D01*
X72905853Y-113536900D01*
X72998985Y-113397519D01*
X73117519Y-113278985D01*
X73256900Y-113185853D01*
X73411772Y-113121703D01*
X73576184Y-113089000D01*
X73743816Y-113089000D01*
X73908228Y-113121703D01*
G37*
G36*
X71068228Y-111736703D02*
G01*
X71223100Y-111800853D01*
X71362481Y-111893985D01*
X71481015Y-112012519D01*
X71574147Y-112151900D01*
X71638297Y-112306772D01*
X71671000Y-112471184D01*
X71671000Y-112638816D01*
X71638297Y-112803228D01*
X71574147Y-112958100D01*
X71481015Y-113097481D01*
X71362481Y-113216015D01*
X71223100Y-113309147D01*
X71068228Y-113373297D01*
X70903816Y-113406000D01*
X70736184Y-113406000D01*
X70571772Y-113373297D01*
X70416900Y-113309147D01*
X70277519Y-113216015D01*
X70158985Y-113097481D01*
X70065853Y-112958100D01*
X70001703Y-112803228D01*
X69969000Y-112638816D01*
X69969000Y-112471184D01*
X70001703Y-112306772D01*
X70065853Y-112151900D01*
X70158985Y-112012519D01*
X70277519Y-111893985D01*
X70416900Y-111800853D01*
X70571772Y-111736703D01*
X70736184Y-111704000D01*
X70903816Y-111704000D01*
X71068228Y-111736703D01*
G37*
G36*
X191456000Y-112126000D02*
G01*
X187004000Y-112126000D01*
X187004000Y-110574000D01*
X191456000Y-110574000D01*
X191456000Y-112126000D01*
G37*
G36*
X200346000Y-112126000D02*
G01*
X195894000Y-112126000D01*
X195894000Y-110574000D01*
X200346000Y-110574000D01*
X200346000Y-112126000D01*
G37*
G36*
X129226000Y-112126000D02*
G01*
X124774000Y-112126000D01*
X124774000Y-110574000D01*
X129226000Y-110574000D01*
X129226000Y-112126000D01*
G37*
G36*
X120336000Y-112126000D02*
G01*
X115884000Y-112126000D01*
X115884000Y-110574000D01*
X120336000Y-110574000D01*
X120336000Y-112126000D01*
G37*
G36*
X111446000Y-112126000D02*
G01*
X106994000Y-112126000D01*
X106994000Y-110574000D01*
X111446000Y-110574000D01*
X111446000Y-112126000D01*
G37*
G36*
X218126000Y-112126000D02*
G01*
X213674000Y-112126000D01*
X213674000Y-110574000D01*
X218126000Y-110574000D01*
X218126000Y-112126000D01*
G37*
G36*
X102556000Y-112126000D02*
G01*
X98104000Y-112126000D01*
X98104000Y-110574000D01*
X102556000Y-110574000D01*
X102556000Y-112126000D01*
G37*
G36*
X182566000Y-112126000D02*
G01*
X178114000Y-112126000D01*
X178114000Y-110574000D01*
X182566000Y-110574000D01*
X182566000Y-112126000D01*
G37*
G36*
X93666000Y-112126000D02*
G01*
X89214000Y-112126000D01*
X89214000Y-110574000D01*
X93666000Y-110574000D01*
X93666000Y-112126000D01*
G37*
G36*
X209236000Y-112126000D02*
G01*
X204784000Y-112126000D01*
X204784000Y-110574000D01*
X209236000Y-110574000D01*
X209236000Y-112126000D01*
G37*
G36*
X173676000Y-112126000D02*
G01*
X169224000Y-112126000D01*
X169224000Y-110574000D01*
X173676000Y-110574000D01*
X173676000Y-112126000D01*
G37*
G36*
X164786000Y-112126000D02*
G01*
X160334000Y-112126000D01*
X160334000Y-110574000D01*
X164786000Y-110574000D01*
X164786000Y-112126000D01*
G37*
G36*
X147006000Y-112126000D02*
G01*
X142554000Y-112126000D01*
X142554000Y-110574000D01*
X147006000Y-110574000D01*
X147006000Y-112126000D01*
G37*
G36*
X155896000Y-112126000D02*
G01*
X151444000Y-112126000D01*
X151444000Y-110574000D01*
X155896000Y-110574000D01*
X155896000Y-112126000D01*
G37*
G36*
X138116000Y-112126000D02*
G01*
X133664000Y-112126000D01*
X133664000Y-110574000D01*
X138116000Y-110574000D01*
X138116000Y-112126000D01*
G37*
G36*
X73908228Y-110351703D02*
G01*
X74063100Y-110415853D01*
X74202481Y-110508985D01*
X74321015Y-110627519D01*
X74414147Y-110766900D01*
X74478297Y-110921772D01*
X74511000Y-111086184D01*
X74511000Y-111253816D01*
X74478297Y-111418228D01*
X74414147Y-111573100D01*
X74321015Y-111712481D01*
X74202481Y-111831015D01*
X74063100Y-111924147D01*
X73908228Y-111988297D01*
X73743816Y-112021000D01*
X73576184Y-112021000D01*
X73411772Y-111988297D01*
X73256900Y-111924147D01*
X73117519Y-111831015D01*
X72998985Y-111712481D01*
X72905853Y-111573100D01*
X72841703Y-111418228D01*
X72809000Y-111253816D01*
X72809000Y-111086184D01*
X72841703Y-110921772D01*
X72905853Y-110766900D01*
X72998985Y-110627519D01*
X73117519Y-110508985D01*
X73256900Y-110415853D01*
X73411772Y-110351703D01*
X73576184Y-110319000D01*
X73743816Y-110319000D01*
X73908228Y-110351703D01*
G37*
G36*
X71068228Y-108966703D02*
G01*
X71223100Y-109030853D01*
X71362481Y-109123985D01*
X71481015Y-109242519D01*
X71574147Y-109381900D01*
X71638297Y-109536772D01*
X71671000Y-109701184D01*
X71671000Y-109868816D01*
X71638297Y-110033228D01*
X71574147Y-110188100D01*
X71481015Y-110327481D01*
X71362481Y-110446015D01*
X71223100Y-110539147D01*
X71068228Y-110603297D01*
X70903816Y-110636000D01*
X70736184Y-110636000D01*
X70571772Y-110603297D01*
X70416900Y-110539147D01*
X70277519Y-110446015D01*
X70158985Y-110327481D01*
X70065853Y-110188100D01*
X70001703Y-110033228D01*
X69969000Y-109868816D01*
X69969000Y-109701184D01*
X70001703Y-109536772D01*
X70065853Y-109381900D01*
X70158985Y-109242519D01*
X70277519Y-109123985D01*
X70416900Y-109030853D01*
X70571772Y-108966703D01*
X70736184Y-108934000D01*
X70903816Y-108934000D01*
X71068228Y-108966703D01*
G37*
G36*
X233293228Y-108401703D02*
G01*
X233448100Y-108465853D01*
X233587481Y-108558985D01*
X233706015Y-108677519D01*
X233799147Y-108816900D01*
X233863297Y-108971772D01*
X233896000Y-109136184D01*
X233896000Y-109303816D01*
X233863297Y-109468228D01*
X233799147Y-109623100D01*
X233706015Y-109762481D01*
X233587481Y-109881015D01*
X233448100Y-109974147D01*
X233293228Y-110038297D01*
X233128816Y-110071000D01*
X232961184Y-110071000D01*
X232796772Y-110038297D01*
X232641900Y-109974147D01*
X232502519Y-109881015D01*
X232383985Y-109762481D01*
X232290853Y-109623100D01*
X232226703Y-109468228D01*
X232194000Y-109303816D01*
X232194000Y-109136184D01*
X232226703Y-108971772D01*
X232290853Y-108816900D01*
X232383985Y-108677519D01*
X232502519Y-108558985D01*
X232641900Y-108465853D01*
X232796772Y-108401703D01*
X232961184Y-108369000D01*
X233128816Y-108369000D01*
X233293228Y-108401703D01*
G37*
G36*
X228293228Y-108401703D02*
G01*
X228448100Y-108465853D01*
X228587481Y-108558985D01*
X228706015Y-108677519D01*
X228799147Y-108816900D01*
X228863297Y-108971772D01*
X228896000Y-109136184D01*
X228896000Y-109303816D01*
X228863297Y-109468228D01*
X228799147Y-109623100D01*
X228706015Y-109762481D01*
X228587481Y-109881015D01*
X228448100Y-109974147D01*
X228293228Y-110038297D01*
X228128816Y-110071000D01*
X227961184Y-110071000D01*
X227796772Y-110038297D01*
X227641900Y-109974147D01*
X227502519Y-109881015D01*
X227383985Y-109762481D01*
X227290853Y-109623100D01*
X227226703Y-109468228D01*
X227194000Y-109303816D01*
X227194000Y-109136184D01*
X227226703Y-108971772D01*
X227290853Y-108816900D01*
X227383985Y-108677519D01*
X227502519Y-108558985D01*
X227641900Y-108465853D01*
X227796772Y-108401703D01*
X227961184Y-108369000D01*
X228128816Y-108369000D01*
X228293228Y-108401703D01*
G37*
G36*
X73908228Y-107581703D02*
G01*
X74063100Y-107645853D01*
X74202481Y-107738985D01*
X74321015Y-107857519D01*
X74414147Y-107996900D01*
X74478297Y-108151772D01*
X74511000Y-108316184D01*
X74511000Y-108483816D01*
X74478297Y-108648228D01*
X74414147Y-108803100D01*
X74321015Y-108942481D01*
X74202481Y-109061015D01*
X74063100Y-109154147D01*
X73908228Y-109218297D01*
X73743816Y-109251000D01*
X73576184Y-109251000D01*
X73411772Y-109218297D01*
X73256900Y-109154147D01*
X73117519Y-109061015D01*
X72998985Y-108942481D01*
X72905853Y-108803100D01*
X72841703Y-108648228D01*
X72809000Y-108483816D01*
X72809000Y-108316184D01*
X72841703Y-108151772D01*
X72905853Y-107996900D01*
X72998985Y-107857519D01*
X73117519Y-107738985D01*
X73256900Y-107645853D01*
X73411772Y-107581703D01*
X73576184Y-107549000D01*
X73743816Y-107549000D01*
X73908228Y-107581703D01*
G37*
G36*
X111446000Y-107866000D02*
G01*
X106994000Y-107866000D01*
X106994000Y-106314000D01*
X111446000Y-106314000D01*
X111446000Y-107866000D01*
G37*
G36*
X191456000Y-107866000D02*
G01*
X187004000Y-107866000D01*
X187004000Y-106314000D01*
X191456000Y-106314000D01*
X191456000Y-107866000D01*
G37*
G36*
X129226000Y-107866000D02*
G01*
X124774000Y-107866000D01*
X124774000Y-106314000D01*
X129226000Y-106314000D01*
X129226000Y-107866000D01*
G37*
G36*
X138116000Y-107866000D02*
G01*
X133664000Y-107866000D01*
X133664000Y-106314000D01*
X138116000Y-106314000D01*
X138116000Y-107866000D01*
G37*
G36*
X164786000Y-107866000D02*
G01*
X160334000Y-107866000D01*
X160334000Y-106314000D01*
X164786000Y-106314000D01*
X164786000Y-107866000D01*
G37*
G36*
X93666000Y-107866000D02*
G01*
X89214000Y-107866000D01*
X89214000Y-106314000D01*
X93666000Y-106314000D01*
X93666000Y-107866000D01*
G37*
G36*
X155896000Y-107866000D02*
G01*
X151444000Y-107866000D01*
X151444000Y-106314000D01*
X155896000Y-106314000D01*
X155896000Y-107866000D01*
G37*
G36*
X173676000Y-107866000D02*
G01*
X169224000Y-107866000D01*
X169224000Y-106314000D01*
X173676000Y-106314000D01*
X173676000Y-107866000D01*
G37*
G36*
X120336000Y-107866000D02*
G01*
X115884000Y-107866000D01*
X115884000Y-106314000D01*
X120336000Y-106314000D01*
X120336000Y-107866000D01*
G37*
G36*
X147006000Y-107866000D02*
G01*
X142554000Y-107866000D01*
X142554000Y-106314000D01*
X147006000Y-106314000D01*
X147006000Y-107866000D01*
G37*
G36*
X71068228Y-106196703D02*
G01*
X71223100Y-106260853D01*
X71362481Y-106353985D01*
X71481015Y-106472519D01*
X71574147Y-106611900D01*
X71638297Y-106766772D01*
X71671000Y-106931184D01*
X71671000Y-107098816D01*
X71638297Y-107263228D01*
X71574147Y-107418100D01*
X71481015Y-107557481D01*
X71362481Y-107676015D01*
X71223100Y-107769147D01*
X71068228Y-107833297D01*
X70903816Y-107866000D01*
X70736184Y-107866000D01*
X70571772Y-107833297D01*
X70416900Y-107769147D01*
X70277519Y-107676015D01*
X70158985Y-107557481D01*
X70065853Y-107418100D01*
X70001703Y-107263228D01*
X69969000Y-107098816D01*
X69969000Y-106931184D01*
X70001703Y-106766772D01*
X70065853Y-106611900D01*
X70158985Y-106472519D01*
X70277519Y-106353985D01*
X70416900Y-106260853D01*
X70571772Y-106196703D01*
X70736184Y-106164000D01*
X70903816Y-106164000D01*
X71068228Y-106196703D01*
G37*
G36*
X182566000Y-107866000D02*
G01*
X178114000Y-107866000D01*
X178114000Y-106314000D01*
X182566000Y-106314000D01*
X182566000Y-107866000D01*
G37*
G36*
X218126000Y-107866000D02*
G01*
X213674000Y-107866000D01*
X213674000Y-106314000D01*
X218126000Y-106314000D01*
X218126000Y-107866000D01*
G37*
G36*
X209236000Y-107866000D02*
G01*
X204784000Y-107866000D01*
X204784000Y-106314000D01*
X209236000Y-106314000D01*
X209236000Y-107866000D01*
G37*
G36*
X200346000Y-107866000D02*
G01*
X195894000Y-107866000D01*
X195894000Y-106314000D01*
X200346000Y-106314000D01*
X200346000Y-107866000D01*
G37*
G36*
X102556000Y-107866000D02*
G01*
X98104000Y-107866000D01*
X98104000Y-106314000D01*
X102556000Y-106314000D01*
X102556000Y-107866000D01*
G37*
G36*
X73908228Y-104811703D02*
G01*
X74063100Y-104875853D01*
X74202481Y-104968985D01*
X74321015Y-105087519D01*
X74414147Y-105226900D01*
X74478297Y-105381772D01*
X74511000Y-105546184D01*
X74511000Y-105713816D01*
X74478297Y-105878228D01*
X74414147Y-106033100D01*
X74321015Y-106172481D01*
X74202481Y-106291015D01*
X74063100Y-106384147D01*
X73908228Y-106448297D01*
X73743816Y-106481000D01*
X73576184Y-106481000D01*
X73411772Y-106448297D01*
X73256900Y-106384147D01*
X73117519Y-106291015D01*
X72998985Y-106172481D01*
X72905853Y-106033100D01*
X72841703Y-105878228D01*
X72809000Y-105713816D01*
X72809000Y-105546184D01*
X72841703Y-105381772D01*
X72905853Y-105226900D01*
X72998985Y-105087519D01*
X73117519Y-104968985D01*
X73256900Y-104875853D01*
X73411772Y-104811703D01*
X73576184Y-104779000D01*
X73743816Y-104779000D01*
X73908228Y-104811703D01*
G37*
G36*
X71068228Y-103426703D02*
G01*
X71223100Y-103490853D01*
X71362481Y-103583985D01*
X71481015Y-103702519D01*
X71574147Y-103841900D01*
X71638297Y-103996772D01*
X71671000Y-104161184D01*
X71671000Y-104328816D01*
X71638297Y-104493228D01*
X71574147Y-104648100D01*
X71481015Y-104787481D01*
X71362481Y-104906015D01*
X71223100Y-104999147D01*
X71068228Y-105063297D01*
X70903816Y-105096000D01*
X70736184Y-105096000D01*
X70571772Y-105063297D01*
X70416900Y-104999147D01*
X70277519Y-104906015D01*
X70158985Y-104787481D01*
X70065853Y-104648100D01*
X70001703Y-104493228D01*
X69969000Y-104328816D01*
X69969000Y-104161184D01*
X70001703Y-103996772D01*
X70065853Y-103841900D01*
X70158985Y-103702519D01*
X70277519Y-103583985D01*
X70416900Y-103490853D01*
X70571772Y-103426703D01*
X70736184Y-103394000D01*
X70903816Y-103394000D01*
X71068228Y-103426703D01*
G37*
G36*
X73908228Y-102041703D02*
G01*
X74063100Y-102105853D01*
X74202481Y-102198985D01*
X74321015Y-102317519D01*
X74414147Y-102456900D01*
X74478297Y-102611772D01*
X74511000Y-102776184D01*
X74511000Y-102943816D01*
X74478297Y-103108228D01*
X74414147Y-103263100D01*
X74321015Y-103402481D01*
X74202481Y-103521015D01*
X74063100Y-103614147D01*
X73908228Y-103678297D01*
X73743816Y-103711000D01*
X73576184Y-103711000D01*
X73411772Y-103678297D01*
X73256900Y-103614147D01*
X73117519Y-103521015D01*
X72998985Y-103402481D01*
X72905853Y-103263100D01*
X72841703Y-103108228D01*
X72809000Y-102943816D01*
X72809000Y-102776184D01*
X72841703Y-102611772D01*
X72905853Y-102456900D01*
X72998985Y-102317519D01*
X73117519Y-102198985D01*
X73256900Y-102105853D01*
X73411772Y-102041703D01*
X73576184Y-102009000D01*
X73743816Y-102009000D01*
X73908228Y-102041703D01*
G37*
G36*
X231691000Y-102556000D02*
G01*
X230139000Y-102556000D01*
X230139000Y-98104000D01*
X231691000Y-98104000D01*
X231691000Y-102556000D01*
G37*
G36*
X225791000Y-102556000D02*
G01*
X224239000Y-102556000D01*
X224239000Y-98104000D01*
X225791000Y-98104000D01*
X225791000Y-102556000D01*
G37*
G36*
X71068228Y-100656703D02*
G01*
X71223100Y-100720853D01*
X71362481Y-100813985D01*
X71481015Y-100932519D01*
X71574147Y-101071900D01*
X71638297Y-101226772D01*
X71671000Y-101391184D01*
X71671000Y-101558816D01*
X71638297Y-101723228D01*
X71574147Y-101878100D01*
X71481015Y-102017481D01*
X71362481Y-102136015D01*
X71223100Y-102229147D01*
X71068228Y-102293297D01*
X70903816Y-102326000D01*
X70736184Y-102326000D01*
X70571772Y-102293297D01*
X70416900Y-102229147D01*
X70277519Y-102136015D01*
X70158985Y-102017481D01*
X70065853Y-101878100D01*
X70001703Y-101723228D01*
X69969000Y-101558816D01*
X69969000Y-101391184D01*
X70001703Y-101226772D01*
X70065853Y-101071900D01*
X70158985Y-100932519D01*
X70277519Y-100813985D01*
X70416900Y-100720853D01*
X70571772Y-100656703D01*
X70736184Y-100624000D01*
X70903816Y-100624000D01*
X71068228Y-100656703D01*
G37*
G36*
X173676000Y-101966000D02*
G01*
X169224000Y-101966000D01*
X169224000Y-100414000D01*
X173676000Y-100414000D01*
X173676000Y-101966000D01*
G37*
G36*
X191456000Y-101966000D02*
G01*
X187004000Y-101966000D01*
X187004000Y-100414000D01*
X191456000Y-100414000D01*
X191456000Y-101966000D01*
G37*
G36*
X218126000Y-101966000D02*
G01*
X213674000Y-101966000D01*
X213674000Y-100414000D01*
X218126000Y-100414000D01*
X218126000Y-101966000D01*
G37*
G36*
X182566000Y-101966000D02*
G01*
X178114000Y-101966000D01*
X178114000Y-100414000D01*
X182566000Y-100414000D01*
X182566000Y-101966000D01*
G37*
G36*
X209236000Y-101966000D02*
G01*
X204784000Y-101966000D01*
X204784000Y-100414000D01*
X209236000Y-100414000D01*
X209236000Y-101966000D01*
G37*
G36*
X200346000Y-101966000D02*
G01*
X195894000Y-101966000D01*
X195894000Y-100414000D01*
X200346000Y-100414000D01*
X200346000Y-101966000D01*
G37*
G36*
X129226000Y-101966000D02*
G01*
X124774000Y-101966000D01*
X124774000Y-100414000D01*
X129226000Y-100414000D01*
X129226000Y-101966000D01*
G37*
G36*
X147006000Y-101966000D02*
G01*
X142554000Y-101966000D01*
X142554000Y-100414000D01*
X147006000Y-100414000D01*
X147006000Y-101966000D01*
G37*
G36*
X138116000Y-101966000D02*
G01*
X133664000Y-101966000D01*
X133664000Y-100414000D01*
X138116000Y-100414000D01*
X138116000Y-101966000D01*
G37*
G36*
X164786000Y-101966000D02*
G01*
X160334000Y-101966000D01*
X160334000Y-100414000D01*
X164786000Y-100414000D01*
X164786000Y-101966000D01*
G37*
G36*
X102556000Y-101966000D02*
G01*
X98104000Y-101966000D01*
X98104000Y-100414000D01*
X102556000Y-100414000D01*
X102556000Y-101966000D01*
G37*
G36*
X93666000Y-101966000D02*
G01*
X89214000Y-101966000D01*
X89214000Y-100414000D01*
X93666000Y-100414000D01*
X93666000Y-101966000D01*
G37*
G36*
X155896000Y-101966000D02*
G01*
X151444000Y-101966000D01*
X151444000Y-100414000D01*
X155896000Y-100414000D01*
X155896000Y-101966000D01*
G37*
G36*
X111446000Y-101966000D02*
G01*
X106994000Y-101966000D01*
X106994000Y-100414000D01*
X111446000Y-100414000D01*
X111446000Y-101966000D01*
G37*
G36*
X120336000Y-101966000D02*
G01*
X115884000Y-101966000D01*
X115884000Y-100414000D01*
X120336000Y-100414000D01*
X120336000Y-101966000D01*
G37*
G36*
X73908228Y-99271703D02*
G01*
X74063100Y-99335853D01*
X74202481Y-99428985D01*
X74321015Y-99547519D01*
X74414147Y-99686900D01*
X74478297Y-99841772D01*
X74511000Y-100006184D01*
X74511000Y-100173816D01*
X74478297Y-100338228D01*
X74414147Y-100493100D01*
X74321015Y-100632481D01*
X74202481Y-100751015D01*
X74063100Y-100844147D01*
X73908228Y-100908297D01*
X73743816Y-100941000D01*
X73576184Y-100941000D01*
X73411772Y-100908297D01*
X73256900Y-100844147D01*
X73117519Y-100751015D01*
X72998985Y-100632481D01*
X72905853Y-100493100D01*
X72841703Y-100338228D01*
X72809000Y-100173816D01*
X72809000Y-100006184D01*
X72841703Y-99841772D01*
X72905853Y-99686900D01*
X72998985Y-99547519D01*
X73117519Y-99428985D01*
X73256900Y-99335853D01*
X73411772Y-99271703D01*
X73576184Y-99239000D01*
X73743816Y-99239000D01*
X73908228Y-99271703D01*
G37*
G36*
X71068228Y-97886703D02*
G01*
X71223100Y-97950853D01*
X71362481Y-98043985D01*
X71481015Y-98162519D01*
X71574147Y-98301900D01*
X71638297Y-98456772D01*
X71671000Y-98621184D01*
X71671000Y-98788816D01*
X71638297Y-98953228D01*
X71574147Y-99108100D01*
X71481015Y-99247481D01*
X71362481Y-99366015D01*
X71223100Y-99459147D01*
X71068228Y-99523297D01*
X70903816Y-99556000D01*
X70736184Y-99556000D01*
X70571772Y-99523297D01*
X70416900Y-99459147D01*
X70277519Y-99366015D01*
X70158985Y-99247481D01*
X70065853Y-99108100D01*
X70001703Y-98953228D01*
X69969000Y-98788816D01*
X69969000Y-98621184D01*
X70001703Y-98456772D01*
X70065853Y-98301900D01*
X70158985Y-98162519D01*
X70277519Y-98043985D01*
X70416900Y-97950853D01*
X70571772Y-97886703D01*
X70736184Y-97854000D01*
X70903816Y-97854000D01*
X71068228Y-97886703D01*
G37*
G36*
X73908228Y-96501703D02*
G01*
X74063100Y-96565853D01*
X74202481Y-96658985D01*
X74321015Y-96777519D01*
X74414147Y-96916900D01*
X74478297Y-97071772D01*
X74511000Y-97236184D01*
X74511000Y-97403816D01*
X74478297Y-97568228D01*
X74414147Y-97723100D01*
X74321015Y-97862481D01*
X74202481Y-97981015D01*
X74063100Y-98074147D01*
X73908228Y-98138297D01*
X73743816Y-98171000D01*
X73576184Y-98171000D01*
X73411772Y-98138297D01*
X73256900Y-98074147D01*
X73117519Y-97981015D01*
X72998985Y-97862481D01*
X72905853Y-97723100D01*
X72841703Y-97568228D01*
X72809000Y-97403816D01*
X72809000Y-97236184D01*
X72841703Y-97071772D01*
X72905853Y-96916900D01*
X72998985Y-96777519D01*
X73117519Y-96658985D01*
X73256900Y-96565853D01*
X73411772Y-96501703D01*
X73576184Y-96469000D01*
X73743816Y-96469000D01*
X73908228Y-96501703D01*
G37*
G36*
X102556000Y-97706000D02*
G01*
X98104000Y-97706000D01*
X98104000Y-96154000D01*
X102556000Y-96154000D01*
X102556000Y-97706000D01*
G37*
G36*
X155896000Y-97706000D02*
G01*
X151444000Y-97706000D01*
X151444000Y-96154000D01*
X155896000Y-96154000D01*
X155896000Y-97706000D01*
G37*
G36*
X164786000Y-97706000D02*
G01*
X160334000Y-97706000D01*
X160334000Y-96154000D01*
X164786000Y-96154000D01*
X164786000Y-97706000D01*
G37*
G36*
X111446000Y-97706000D02*
G01*
X106994000Y-97706000D01*
X106994000Y-96154000D01*
X111446000Y-96154000D01*
X111446000Y-97706000D01*
G37*
G36*
X93666000Y-97706000D02*
G01*
X89214000Y-97706000D01*
X89214000Y-96154000D01*
X93666000Y-96154000D01*
X93666000Y-97706000D01*
G37*
G36*
X173676000Y-97706000D02*
G01*
X169224000Y-97706000D01*
X169224000Y-96154000D01*
X173676000Y-96154000D01*
X173676000Y-97706000D01*
G37*
G36*
X120336000Y-97706000D02*
G01*
X115884000Y-97706000D01*
X115884000Y-96154000D01*
X120336000Y-96154000D01*
X120336000Y-97706000D01*
G37*
G36*
X191456000Y-97706000D02*
G01*
X187004000Y-97706000D01*
X187004000Y-96154000D01*
X191456000Y-96154000D01*
X191456000Y-97706000D01*
G37*
G36*
X209236000Y-97706000D02*
G01*
X204784000Y-97706000D01*
X204784000Y-96154000D01*
X209236000Y-96154000D01*
X209236000Y-97706000D01*
G37*
G36*
X147006000Y-97706000D02*
G01*
X142554000Y-97706000D01*
X142554000Y-96154000D01*
X147006000Y-96154000D01*
X147006000Y-97706000D01*
G37*
G36*
X182566000Y-97706000D02*
G01*
X178114000Y-97706000D01*
X178114000Y-96154000D01*
X182566000Y-96154000D01*
X182566000Y-97706000D01*
G37*
G36*
X218126000Y-97706000D02*
G01*
X213674000Y-97706000D01*
X213674000Y-96154000D01*
X218126000Y-96154000D01*
X218126000Y-97706000D01*
G37*
G36*
X200346000Y-97706000D02*
G01*
X195894000Y-97706000D01*
X195894000Y-96154000D01*
X200346000Y-96154000D01*
X200346000Y-97706000D01*
G37*
G36*
X129226000Y-97706000D02*
G01*
X124774000Y-97706000D01*
X124774000Y-96154000D01*
X129226000Y-96154000D01*
X129226000Y-97706000D01*
G37*
G36*
X138116000Y-97706000D02*
G01*
X133664000Y-97706000D01*
X133664000Y-96154000D01*
X138116000Y-96154000D01*
X138116000Y-97706000D01*
G37*
G36*
X71068228Y-95116703D02*
G01*
X71223100Y-95180853D01*
X71362481Y-95273985D01*
X71481015Y-95392519D01*
X71574147Y-95531900D01*
X71638297Y-95686772D01*
X71671000Y-95851184D01*
X71671000Y-96018816D01*
X71638297Y-96183228D01*
X71574147Y-96338100D01*
X71481015Y-96477481D01*
X71362481Y-96596015D01*
X71223100Y-96689147D01*
X71068228Y-96753297D01*
X70903816Y-96786000D01*
X70736184Y-96786000D01*
X70571772Y-96753297D01*
X70416900Y-96689147D01*
X70277519Y-96596015D01*
X70158985Y-96477481D01*
X70065853Y-96338100D01*
X70001703Y-96183228D01*
X69969000Y-96018816D01*
X69969000Y-95851184D01*
X70001703Y-95686772D01*
X70065853Y-95531900D01*
X70158985Y-95392519D01*
X70277519Y-95273985D01*
X70416900Y-95180853D01*
X70571772Y-95116703D01*
X70736184Y-95084000D01*
X70903816Y-95084000D01*
X71068228Y-95116703D01*
G37*
G36*
X73908228Y-93731703D02*
G01*
X74063100Y-93795853D01*
X74202481Y-93888985D01*
X74321015Y-94007519D01*
X74414147Y-94146900D01*
X74478297Y-94301772D01*
X74511000Y-94466184D01*
X74511000Y-94633816D01*
X74478297Y-94798228D01*
X74414147Y-94953100D01*
X74321015Y-95092481D01*
X74202481Y-95211015D01*
X74063100Y-95304147D01*
X73908228Y-95368297D01*
X73743816Y-95401000D01*
X73576184Y-95401000D01*
X73411772Y-95368297D01*
X73256900Y-95304147D01*
X73117519Y-95211015D01*
X72998985Y-95092481D01*
X72905853Y-94953100D01*
X72841703Y-94798228D01*
X72809000Y-94633816D01*
X72809000Y-94466184D01*
X72841703Y-94301772D01*
X72905853Y-94146900D01*
X72998985Y-94007519D01*
X73117519Y-93888985D01*
X73256900Y-93795853D01*
X73411772Y-93731703D01*
X73576184Y-93699000D01*
X73743816Y-93699000D01*
X73908228Y-93731703D01*
G37*
G36*
X71068228Y-92346703D02*
G01*
X71223100Y-92410853D01*
X71362481Y-92503985D01*
X71481015Y-92622519D01*
X71574147Y-92761900D01*
X71638297Y-92916772D01*
X71671000Y-93081184D01*
X71671000Y-93248816D01*
X71638297Y-93413228D01*
X71574147Y-93568100D01*
X71481015Y-93707481D01*
X71362481Y-93826015D01*
X71223100Y-93919147D01*
X71068228Y-93983297D01*
X70903816Y-94016000D01*
X70736184Y-94016000D01*
X70571772Y-93983297D01*
X70416900Y-93919147D01*
X70277519Y-93826015D01*
X70158985Y-93707481D01*
X70065853Y-93568100D01*
X70001703Y-93413228D01*
X69969000Y-93248816D01*
X69969000Y-93081184D01*
X70001703Y-92916772D01*
X70065853Y-92761900D01*
X70158985Y-92622519D01*
X70277519Y-92503985D01*
X70416900Y-92410853D01*
X70571772Y-92346703D01*
X70736184Y-92314000D01*
X70903816Y-92314000D01*
X71068228Y-92346703D01*
G37*
G36*
X73908228Y-90961703D02*
G01*
X74063100Y-91025853D01*
X74202481Y-91118985D01*
X74321015Y-91237519D01*
X74414147Y-91376900D01*
X74478297Y-91531772D01*
X74511000Y-91696184D01*
X74511000Y-91863816D01*
X74478297Y-92028228D01*
X74414147Y-92183100D01*
X74321015Y-92322481D01*
X74202481Y-92441015D01*
X74063100Y-92534147D01*
X73908228Y-92598297D01*
X73743816Y-92631000D01*
X73576184Y-92631000D01*
X73411772Y-92598297D01*
X73256900Y-92534147D01*
X73117519Y-92441015D01*
X72998985Y-92322481D01*
X72905853Y-92183100D01*
X72841703Y-92028228D01*
X72809000Y-91863816D01*
X72809000Y-91696184D01*
X72841703Y-91531772D01*
X72905853Y-91376900D01*
X72998985Y-91237519D01*
X73117519Y-91118985D01*
X73256900Y-91025853D01*
X73411772Y-90961703D01*
X73576184Y-90929000D01*
X73743816Y-90929000D01*
X73908228Y-90961703D01*
G37*
G36*
X138116000Y-91806000D02*
G01*
X133664000Y-91806000D01*
X133664000Y-90254000D01*
X138116000Y-90254000D01*
X138116000Y-91806000D01*
G37*
G36*
X182566000Y-91806000D02*
G01*
X178114000Y-91806000D01*
X178114000Y-90254000D01*
X182566000Y-90254000D01*
X182566000Y-91806000D01*
G37*
G36*
X200346000Y-91806000D02*
G01*
X195894000Y-91806000D01*
X195894000Y-90254000D01*
X200346000Y-90254000D01*
X200346000Y-91806000D01*
G37*
G36*
X209236000Y-91806000D02*
G01*
X204784000Y-91806000D01*
X204784000Y-90254000D01*
X209236000Y-90254000D01*
X209236000Y-91806000D01*
G37*
G36*
X218126000Y-91806000D02*
G01*
X213674000Y-91806000D01*
X213674000Y-90254000D01*
X218126000Y-90254000D01*
X218126000Y-91806000D01*
G37*
G36*
X173676000Y-91806000D02*
G01*
X169224000Y-91806000D01*
X169224000Y-90254000D01*
X173676000Y-90254000D01*
X173676000Y-91806000D01*
G37*
G36*
X164786000Y-91806000D02*
G01*
X160334000Y-91806000D01*
X160334000Y-90254000D01*
X164786000Y-90254000D01*
X164786000Y-91806000D01*
G37*
G36*
X155896000Y-91806000D02*
G01*
X151444000Y-91806000D01*
X151444000Y-90254000D01*
X155896000Y-90254000D01*
X155896000Y-91806000D01*
G37*
G36*
X147006000Y-91806000D02*
G01*
X142554000Y-91806000D01*
X142554000Y-90254000D01*
X147006000Y-90254000D01*
X147006000Y-91806000D01*
G37*
G36*
X111446000Y-91806000D02*
G01*
X106994000Y-91806000D01*
X106994000Y-90254000D01*
X111446000Y-90254000D01*
X111446000Y-91806000D01*
G37*
G36*
X120336000Y-91806000D02*
G01*
X115884000Y-91806000D01*
X115884000Y-90254000D01*
X120336000Y-90254000D01*
X120336000Y-91806000D01*
G37*
G36*
X102556000Y-91806000D02*
G01*
X98104000Y-91806000D01*
X98104000Y-90254000D01*
X102556000Y-90254000D01*
X102556000Y-91806000D01*
G37*
G36*
X93666000Y-91806000D02*
G01*
X89214000Y-91806000D01*
X89214000Y-90254000D01*
X93666000Y-90254000D01*
X93666000Y-91806000D01*
G37*
G36*
X191456000Y-91806000D02*
G01*
X187004000Y-91806000D01*
X187004000Y-90254000D01*
X191456000Y-90254000D01*
X191456000Y-91806000D01*
G37*
G36*
X129226000Y-91806000D02*
G01*
X124774000Y-91806000D01*
X124774000Y-90254000D01*
X129226000Y-90254000D01*
X129226000Y-91806000D01*
G37*
G36*
X71068228Y-89576703D02*
G01*
X71223100Y-89640853D01*
X71362481Y-89733985D01*
X71481015Y-89852519D01*
X71574147Y-89991900D01*
X71638297Y-90146772D01*
X71671000Y-90311184D01*
X71671000Y-90478816D01*
X71638297Y-90643228D01*
X71574147Y-90798100D01*
X71481015Y-90937481D01*
X71362481Y-91056015D01*
X71223100Y-91149147D01*
X71068228Y-91213297D01*
X70903816Y-91246000D01*
X70736184Y-91246000D01*
X70571772Y-91213297D01*
X70416900Y-91149147D01*
X70277519Y-91056015D01*
X70158985Y-90937481D01*
X70065853Y-90798100D01*
X70001703Y-90643228D01*
X69969000Y-90478816D01*
X69969000Y-90311184D01*
X70001703Y-90146772D01*
X70065853Y-89991900D01*
X70158985Y-89852519D01*
X70277519Y-89733985D01*
X70416900Y-89640853D01*
X70571772Y-89576703D01*
X70736184Y-89544000D01*
X70903816Y-89544000D01*
X71068228Y-89576703D01*
G37*
G36*
X73908228Y-88191703D02*
G01*
X74063100Y-88255853D01*
X74202481Y-88348985D01*
X74321015Y-88467519D01*
X74414147Y-88606900D01*
X74478297Y-88761772D01*
X74511000Y-88926184D01*
X74511000Y-89093816D01*
X74478297Y-89258228D01*
X74414147Y-89413100D01*
X74321015Y-89552481D01*
X74202481Y-89671015D01*
X74063100Y-89764147D01*
X73908228Y-89828297D01*
X73743816Y-89861000D01*
X73576184Y-89861000D01*
X73411772Y-89828297D01*
X73256900Y-89764147D01*
X73117519Y-89671015D01*
X72998985Y-89552481D01*
X72905853Y-89413100D01*
X72841703Y-89258228D01*
X72809000Y-89093816D01*
X72809000Y-88926184D01*
X72841703Y-88761772D01*
X72905853Y-88606900D01*
X72998985Y-88467519D01*
X73117519Y-88348985D01*
X73256900Y-88255853D01*
X73411772Y-88191703D01*
X73576184Y-88159000D01*
X73743816Y-88159000D01*
X73908228Y-88191703D01*
G37*
G36*
X71068228Y-86806703D02*
G01*
X71223100Y-86870853D01*
X71362481Y-86963985D01*
X71481015Y-87082519D01*
X71574147Y-87221900D01*
X71638297Y-87376772D01*
X71671000Y-87541184D01*
X71671000Y-87708816D01*
X71638297Y-87873228D01*
X71574147Y-88028100D01*
X71481015Y-88167481D01*
X71362481Y-88286015D01*
X71223100Y-88379147D01*
X71068228Y-88443297D01*
X70903816Y-88476000D01*
X70736184Y-88476000D01*
X70571772Y-88443297D01*
X70416900Y-88379147D01*
X70277519Y-88286015D01*
X70158985Y-88167481D01*
X70065853Y-88028100D01*
X70001703Y-87873228D01*
X69969000Y-87708816D01*
X69969000Y-87541184D01*
X70001703Y-87376772D01*
X70065853Y-87221900D01*
X70158985Y-87082519D01*
X70277519Y-86963985D01*
X70416900Y-86870853D01*
X70571772Y-86806703D01*
X70736184Y-86774000D01*
X70903816Y-86774000D01*
X71068228Y-86806703D01*
G37*
G36*
X191456000Y-87546000D02*
G01*
X187004000Y-87546000D01*
X187004000Y-85994000D01*
X191456000Y-85994000D01*
X191456000Y-87546000D01*
G37*
G36*
X182566000Y-87546000D02*
G01*
X178114000Y-87546000D01*
X178114000Y-85994000D01*
X182566000Y-85994000D01*
X182566000Y-87546000D01*
G37*
G36*
X173676000Y-87546000D02*
G01*
X169224000Y-87546000D01*
X169224000Y-85994000D01*
X173676000Y-85994000D01*
X173676000Y-87546000D01*
G37*
G36*
X218126000Y-87546000D02*
G01*
X213674000Y-87546000D01*
X213674000Y-85994000D01*
X218126000Y-85994000D01*
X218126000Y-87546000D01*
G37*
G36*
X147006000Y-87546000D02*
G01*
X142554000Y-87546000D01*
X142554000Y-85994000D01*
X147006000Y-85994000D01*
X147006000Y-87546000D01*
G37*
G36*
X138116000Y-87546000D02*
G01*
X133664000Y-87546000D01*
X133664000Y-85994000D01*
X138116000Y-85994000D01*
X138116000Y-87546000D01*
G37*
G36*
X155896000Y-87546000D02*
G01*
X151444000Y-87546000D01*
X151444000Y-85994000D01*
X155896000Y-85994000D01*
X155896000Y-87546000D01*
G37*
G36*
X111446000Y-87546000D02*
G01*
X106994000Y-87546000D01*
X106994000Y-85994000D01*
X111446000Y-85994000D01*
X111446000Y-87546000D01*
G37*
G36*
X120336000Y-87546000D02*
G01*
X115884000Y-87546000D01*
X115884000Y-85994000D01*
X120336000Y-85994000D01*
X120336000Y-87546000D01*
G37*
G36*
X129226000Y-87546000D02*
G01*
X124774000Y-87546000D01*
X124774000Y-85994000D01*
X129226000Y-85994000D01*
X129226000Y-87546000D01*
G37*
G36*
X209236000Y-87546000D02*
G01*
X204784000Y-87546000D01*
X204784000Y-85994000D01*
X209236000Y-85994000D01*
X209236000Y-87546000D01*
G37*
G36*
X200346000Y-87546000D02*
G01*
X195894000Y-87546000D01*
X195894000Y-85994000D01*
X200346000Y-85994000D01*
X200346000Y-87546000D01*
G37*
G36*
X102556000Y-87546000D02*
G01*
X98104000Y-87546000D01*
X98104000Y-85994000D01*
X102556000Y-85994000D01*
X102556000Y-87546000D01*
G37*
G36*
X93666000Y-87546000D02*
G01*
X89214000Y-87546000D01*
X89214000Y-85994000D01*
X93666000Y-85994000D01*
X93666000Y-87546000D01*
G37*
G36*
X164786000Y-87546000D02*
G01*
X160334000Y-87546000D01*
X160334000Y-85994000D01*
X164786000Y-85994000D01*
X164786000Y-87546000D01*
G37*
G36*
X73908228Y-85421703D02*
G01*
X74063100Y-85485853D01*
X74202481Y-85578985D01*
X74321015Y-85697519D01*
X74414147Y-85836900D01*
X74478297Y-85991772D01*
X74511000Y-86156184D01*
X74511000Y-86323816D01*
X74478297Y-86488228D01*
X74414147Y-86643100D01*
X74321015Y-86782481D01*
X74202481Y-86901015D01*
X74063100Y-86994147D01*
X73908228Y-87058297D01*
X73743816Y-87091000D01*
X73576184Y-87091000D01*
X73411772Y-87058297D01*
X73256900Y-86994147D01*
X73117519Y-86901015D01*
X72998985Y-86782481D01*
X72905853Y-86643100D01*
X72841703Y-86488228D01*
X72809000Y-86323816D01*
X72809000Y-86156184D01*
X72841703Y-85991772D01*
X72905853Y-85836900D01*
X72998985Y-85697519D01*
X73117519Y-85578985D01*
X73256900Y-85485853D01*
X73411772Y-85421703D01*
X73576184Y-85389000D01*
X73743816Y-85389000D01*
X73908228Y-85421703D01*
G37*
G36*
X71068228Y-84036703D02*
G01*
X71223100Y-84100853D01*
X71362481Y-84193985D01*
X71481015Y-84312519D01*
X71574147Y-84451900D01*
X71638297Y-84606772D01*
X71671000Y-84771184D01*
X71671000Y-84938816D01*
X71638297Y-85103228D01*
X71574147Y-85258100D01*
X71481015Y-85397481D01*
X71362481Y-85516015D01*
X71223100Y-85609147D01*
X71068228Y-85673297D01*
X70903816Y-85706000D01*
X70736184Y-85706000D01*
X70571772Y-85673297D01*
X70416900Y-85609147D01*
X70277519Y-85516015D01*
X70158985Y-85397481D01*
X70065853Y-85258100D01*
X70001703Y-85103228D01*
X69969000Y-84938816D01*
X69969000Y-84771184D01*
X70001703Y-84606772D01*
X70065853Y-84451900D01*
X70158985Y-84312519D01*
X70277519Y-84193985D01*
X70416900Y-84100853D01*
X70571772Y-84036703D01*
X70736184Y-84004000D01*
X70903816Y-84004000D01*
X71068228Y-84036703D01*
G37*
G36*
X73908228Y-82651703D02*
G01*
X74063100Y-82715853D01*
X74202481Y-82808985D01*
X74321015Y-82927519D01*
X74414147Y-83066900D01*
X74478297Y-83221772D01*
X74511000Y-83386184D01*
X74511000Y-83553816D01*
X74478297Y-83718228D01*
X74414147Y-83873100D01*
X74321015Y-84012481D01*
X74202481Y-84131015D01*
X74063100Y-84224147D01*
X73908228Y-84288297D01*
X73743816Y-84321000D01*
X73576184Y-84321000D01*
X73411772Y-84288297D01*
X73256900Y-84224147D01*
X73117519Y-84131015D01*
X72998985Y-84012481D01*
X72905853Y-83873100D01*
X72841703Y-83718228D01*
X72809000Y-83553816D01*
X72809000Y-83386184D01*
X72841703Y-83221772D01*
X72905853Y-83066900D01*
X72998985Y-82927519D01*
X73117519Y-82808985D01*
X73256900Y-82715853D01*
X73411772Y-82651703D01*
X73576184Y-82619000D01*
X73743816Y-82619000D01*
X73908228Y-82651703D01*
G37*
G36*
X71068228Y-81266703D02*
G01*
X71223100Y-81330853D01*
X71362481Y-81423985D01*
X71481015Y-81542519D01*
X71574147Y-81681900D01*
X71638297Y-81836772D01*
X71671000Y-82001184D01*
X71671000Y-82168816D01*
X71638297Y-82333228D01*
X71574147Y-82488100D01*
X71481015Y-82627481D01*
X71362481Y-82746015D01*
X71223100Y-82839147D01*
X71068228Y-82903297D01*
X70903816Y-82936000D01*
X70736184Y-82936000D01*
X70571772Y-82903297D01*
X70416900Y-82839147D01*
X70277519Y-82746015D01*
X70158985Y-82627481D01*
X70065853Y-82488100D01*
X70001703Y-82333228D01*
X69969000Y-82168816D01*
X69969000Y-82001184D01*
X70001703Y-81836772D01*
X70065853Y-81681900D01*
X70158985Y-81542519D01*
X70277519Y-81423985D01*
X70416900Y-81330853D01*
X70571772Y-81266703D01*
X70736184Y-81234000D01*
X70903816Y-81234000D01*
X71068228Y-81266703D01*
G37*
G36*
X93666000Y-81646000D02*
G01*
X89214000Y-81646000D01*
X89214000Y-80094000D01*
X93666000Y-80094000D01*
X93666000Y-81646000D01*
G37*
G36*
X155896000Y-81646000D02*
G01*
X151444000Y-81646000D01*
X151444000Y-80094000D01*
X155896000Y-80094000D01*
X155896000Y-81646000D01*
G37*
G36*
X111446000Y-81646000D02*
G01*
X106994000Y-81646000D01*
X106994000Y-80094000D01*
X111446000Y-80094000D01*
X111446000Y-81646000D01*
G37*
G36*
X102556000Y-81646000D02*
G01*
X98104000Y-81646000D01*
X98104000Y-80094000D01*
X102556000Y-80094000D01*
X102556000Y-81646000D01*
G37*
G36*
X120336000Y-81646000D02*
G01*
X115884000Y-81646000D01*
X115884000Y-80094000D01*
X120336000Y-80094000D01*
X120336000Y-81646000D01*
G37*
G36*
X182566000Y-81646000D02*
G01*
X178114000Y-81646000D01*
X178114000Y-80094000D01*
X182566000Y-80094000D01*
X182566000Y-81646000D01*
G37*
G36*
X200346000Y-81646000D02*
G01*
X195894000Y-81646000D01*
X195894000Y-80094000D01*
X200346000Y-80094000D01*
X200346000Y-81646000D01*
G37*
G36*
X191456000Y-81646000D02*
G01*
X187004000Y-81646000D01*
X187004000Y-80094000D01*
X191456000Y-80094000D01*
X191456000Y-81646000D01*
G37*
G36*
X147006000Y-81646000D02*
G01*
X142554000Y-81646000D01*
X142554000Y-80094000D01*
X147006000Y-80094000D01*
X147006000Y-81646000D01*
G37*
G36*
X129226000Y-81646000D02*
G01*
X124774000Y-81646000D01*
X124774000Y-80094000D01*
X129226000Y-80094000D01*
X129226000Y-81646000D01*
G37*
G36*
X209236000Y-81646000D02*
G01*
X204784000Y-81646000D01*
X204784000Y-80094000D01*
X209236000Y-80094000D01*
X209236000Y-81646000D01*
G37*
G36*
X173676000Y-81646000D02*
G01*
X169224000Y-81646000D01*
X169224000Y-80094000D01*
X173676000Y-80094000D01*
X173676000Y-81646000D01*
G37*
G36*
X138116000Y-81646000D02*
G01*
X133664000Y-81646000D01*
X133664000Y-80094000D01*
X138116000Y-80094000D01*
X138116000Y-81646000D01*
G37*
G36*
X164786000Y-81646000D02*
G01*
X160334000Y-81646000D01*
X160334000Y-80094000D01*
X164786000Y-80094000D01*
X164786000Y-81646000D01*
G37*
G36*
X218126000Y-81646000D02*
G01*
X213674000Y-81646000D01*
X213674000Y-80094000D01*
X218126000Y-80094000D01*
X218126000Y-81646000D01*
G37*
G36*
X73908228Y-79881703D02*
G01*
X74063100Y-79945853D01*
X74202481Y-80038985D01*
X74321015Y-80157519D01*
X74414147Y-80296900D01*
X74478297Y-80451772D01*
X74511000Y-80616184D01*
X74511000Y-80783816D01*
X74478297Y-80948228D01*
X74414147Y-81103100D01*
X74321015Y-81242481D01*
X74202481Y-81361015D01*
X74063100Y-81454147D01*
X73908228Y-81518297D01*
X73743816Y-81551000D01*
X73576184Y-81551000D01*
X73411772Y-81518297D01*
X73256900Y-81454147D01*
X73117519Y-81361015D01*
X72998985Y-81242481D01*
X72905853Y-81103100D01*
X72841703Y-80948228D01*
X72809000Y-80783816D01*
X72809000Y-80616184D01*
X72841703Y-80451772D01*
X72905853Y-80296900D01*
X72998985Y-80157519D01*
X73117519Y-80038985D01*
X73256900Y-79945853D01*
X73411772Y-79881703D01*
X73576184Y-79849000D01*
X73743816Y-79849000D01*
X73908228Y-79881703D01*
G37*
G36*
X71068228Y-78496703D02*
G01*
X71223100Y-78560853D01*
X71362481Y-78653985D01*
X71481015Y-78772519D01*
X71574147Y-78911900D01*
X71638297Y-79066772D01*
X71671000Y-79231184D01*
X71671000Y-79398816D01*
X71638297Y-79563228D01*
X71574147Y-79718100D01*
X71481015Y-79857481D01*
X71362481Y-79976015D01*
X71223100Y-80069147D01*
X71068228Y-80133297D01*
X70903816Y-80166000D01*
X70736184Y-80166000D01*
X70571772Y-80133297D01*
X70416900Y-80069147D01*
X70277519Y-79976015D01*
X70158985Y-79857481D01*
X70065853Y-79718100D01*
X70001703Y-79563228D01*
X69969000Y-79398816D01*
X69969000Y-79231184D01*
X70001703Y-79066772D01*
X70065853Y-78911900D01*
X70158985Y-78772519D01*
X70277519Y-78653985D01*
X70416900Y-78560853D01*
X70571772Y-78496703D01*
X70736184Y-78464000D01*
X70903816Y-78464000D01*
X71068228Y-78496703D01*
G37*
G36*
X73908228Y-77111703D02*
G01*
X74063100Y-77175853D01*
X74202481Y-77268985D01*
X74321015Y-77387519D01*
X74414147Y-77526900D01*
X74478297Y-77681772D01*
X74511000Y-77846184D01*
X74511000Y-78013816D01*
X74478297Y-78178228D01*
X74414147Y-78333100D01*
X74321015Y-78472481D01*
X74202481Y-78591015D01*
X74063100Y-78684147D01*
X73908228Y-78748297D01*
X73743816Y-78781000D01*
X73576184Y-78781000D01*
X73411772Y-78748297D01*
X73256900Y-78684147D01*
X73117519Y-78591015D01*
X72998985Y-78472481D01*
X72905853Y-78333100D01*
X72841703Y-78178228D01*
X72809000Y-78013816D01*
X72809000Y-77846184D01*
X72841703Y-77681772D01*
X72905853Y-77526900D01*
X72998985Y-77387519D01*
X73117519Y-77268985D01*
X73256900Y-77175853D01*
X73411772Y-77111703D01*
X73576184Y-77079000D01*
X73743816Y-77079000D01*
X73908228Y-77111703D01*
G37*
G36*
X71068228Y-75726703D02*
G01*
X71223100Y-75790853D01*
X71362481Y-75883985D01*
X71481015Y-76002519D01*
X71574147Y-76141900D01*
X71638297Y-76296772D01*
X71671000Y-76461184D01*
X71671000Y-76628816D01*
X71638297Y-76793228D01*
X71574147Y-76948100D01*
X71481015Y-77087481D01*
X71362481Y-77206015D01*
X71223100Y-77299147D01*
X71068228Y-77363297D01*
X70903816Y-77396000D01*
X70736184Y-77396000D01*
X70571772Y-77363297D01*
X70416900Y-77299147D01*
X70277519Y-77206015D01*
X70158985Y-77087481D01*
X70065853Y-76948100D01*
X70001703Y-76793228D01*
X69969000Y-76628816D01*
X69969000Y-76461184D01*
X70001703Y-76296772D01*
X70065853Y-76141900D01*
X70158985Y-76002519D01*
X70277519Y-75883985D01*
X70416900Y-75790853D01*
X70571772Y-75726703D01*
X70736184Y-75694000D01*
X70903816Y-75694000D01*
X71068228Y-75726703D01*
G37*
G36*
X207287395Y-75285546D02*
G01*
X207460466Y-75357234D01*
X207460467Y-75357235D01*
X207616227Y-75461310D01*
X207748690Y-75593773D01*
X207748691Y-75593775D01*
X207852766Y-75749534D01*
X207924454Y-75922605D01*
X207961000Y-76106333D01*
X207961000Y-76293667D01*
X207924454Y-76477395D01*
X207852766Y-76650466D01*
X207852765Y-76650467D01*
X207748690Y-76806227D01*
X207616227Y-76938690D01*
X207601783Y-76948341D01*
X207460466Y-77042766D01*
X207287395Y-77114454D01*
X207103667Y-77151000D01*
X206916333Y-77151000D01*
X206732605Y-77114454D01*
X206559534Y-77042766D01*
X206418217Y-76948341D01*
X206403773Y-76938690D01*
X206271310Y-76806227D01*
X206167235Y-76650467D01*
X206167234Y-76650466D01*
X206095546Y-76477395D01*
X206059000Y-76293667D01*
X206059000Y-76106333D01*
X206095546Y-75922605D01*
X206167234Y-75749534D01*
X206271309Y-75593775D01*
X206271310Y-75593773D01*
X206403773Y-75461310D01*
X206559533Y-75357235D01*
X206559534Y-75357234D01*
X206732605Y-75285546D01*
X206916333Y-75249000D01*
X207103667Y-75249000D01*
X207287395Y-75285546D01*
G37*
G36*
X118387395Y-75285546D02*
G01*
X118560466Y-75357234D01*
X118560467Y-75357235D01*
X118716227Y-75461310D01*
X118848690Y-75593773D01*
X118848691Y-75593775D01*
X118952766Y-75749534D01*
X119024454Y-75922605D01*
X119061000Y-76106333D01*
X119061000Y-76293667D01*
X119024454Y-76477395D01*
X118952766Y-76650466D01*
X118952765Y-76650467D01*
X118848690Y-76806227D01*
X118716227Y-76938690D01*
X118701783Y-76948341D01*
X118560466Y-77042766D01*
X118387395Y-77114454D01*
X118203667Y-77151000D01*
X118016333Y-77151000D01*
X117832605Y-77114454D01*
X117659534Y-77042766D01*
X117518217Y-76948341D01*
X117503773Y-76938690D01*
X117371310Y-76806227D01*
X117267235Y-76650467D01*
X117267234Y-76650466D01*
X117195546Y-76477395D01*
X117159000Y-76293667D01*
X117159000Y-76106333D01*
X117195546Y-75922605D01*
X117267234Y-75749534D01*
X117371309Y-75593775D01*
X117371310Y-75593773D01*
X117503773Y-75461310D01*
X117659533Y-75357235D01*
X117659534Y-75357234D01*
X117832605Y-75285546D01*
X118016333Y-75249000D01*
X118203667Y-75249000D01*
X118387395Y-75285546D01*
G37*
G36*
X127277395Y-75285546D02*
G01*
X127450466Y-75357234D01*
X127450467Y-75357235D01*
X127606227Y-75461310D01*
X127738690Y-75593773D01*
X127738691Y-75593775D01*
X127842766Y-75749534D01*
X127914454Y-75922605D01*
X127951000Y-76106333D01*
X127951000Y-76293667D01*
X127914454Y-76477395D01*
X127842766Y-76650466D01*
X127842765Y-76650467D01*
X127738690Y-76806227D01*
X127606227Y-76938690D01*
X127591783Y-76948341D01*
X127450466Y-77042766D01*
X127277395Y-77114454D01*
X127093667Y-77151000D01*
X126906333Y-77151000D01*
X126722605Y-77114454D01*
X126549534Y-77042766D01*
X126408217Y-76948341D01*
X126393773Y-76938690D01*
X126261310Y-76806227D01*
X126157235Y-76650467D01*
X126157234Y-76650466D01*
X126085546Y-76477395D01*
X126049000Y-76293667D01*
X126049000Y-76106333D01*
X126085546Y-75922605D01*
X126157234Y-75749534D01*
X126261309Y-75593775D01*
X126261310Y-75593773D01*
X126393773Y-75461310D01*
X126549533Y-75357235D01*
X126549534Y-75357234D01*
X126722605Y-75285546D01*
X126906333Y-75249000D01*
X127093667Y-75249000D01*
X127277395Y-75285546D01*
G37*
G36*
X136167395Y-75285546D02*
G01*
X136340466Y-75357234D01*
X136340467Y-75357235D01*
X136496227Y-75461310D01*
X136628690Y-75593773D01*
X136628691Y-75593775D01*
X136732766Y-75749534D01*
X136804454Y-75922605D01*
X136841000Y-76106333D01*
X136841000Y-76293667D01*
X136804454Y-76477395D01*
X136732766Y-76650466D01*
X136732765Y-76650467D01*
X136628690Y-76806227D01*
X136496227Y-76938690D01*
X136481783Y-76948341D01*
X136340466Y-77042766D01*
X136167395Y-77114454D01*
X135983667Y-77151000D01*
X135796333Y-77151000D01*
X135612605Y-77114454D01*
X135439534Y-77042766D01*
X135298217Y-76948341D01*
X135283773Y-76938690D01*
X135151310Y-76806227D01*
X135047235Y-76650467D01*
X135047234Y-76650466D01*
X134975546Y-76477395D01*
X134939000Y-76293667D01*
X134939000Y-76106333D01*
X134975546Y-75922605D01*
X135047234Y-75749534D01*
X135151309Y-75593775D01*
X135151310Y-75593773D01*
X135283773Y-75461310D01*
X135439533Y-75357235D01*
X135439534Y-75357234D01*
X135612605Y-75285546D01*
X135796333Y-75249000D01*
X135983667Y-75249000D01*
X136167395Y-75285546D01*
G37*
G36*
X145057395Y-75285546D02*
G01*
X145230466Y-75357234D01*
X145230467Y-75357235D01*
X145386227Y-75461310D01*
X145518690Y-75593773D01*
X145518691Y-75593775D01*
X145622766Y-75749534D01*
X145694454Y-75922605D01*
X145731000Y-76106333D01*
X145731000Y-76293667D01*
X145694454Y-76477395D01*
X145622766Y-76650466D01*
X145622765Y-76650467D01*
X145518690Y-76806227D01*
X145386227Y-76938690D01*
X145371783Y-76948341D01*
X145230466Y-77042766D01*
X145057395Y-77114454D01*
X144873667Y-77151000D01*
X144686333Y-77151000D01*
X144502605Y-77114454D01*
X144329534Y-77042766D01*
X144188217Y-76948341D01*
X144173773Y-76938690D01*
X144041310Y-76806227D01*
X143937235Y-76650467D01*
X143937234Y-76650466D01*
X143865546Y-76477395D01*
X143829000Y-76293667D01*
X143829000Y-76106333D01*
X143865546Y-75922605D01*
X143937234Y-75749534D01*
X144041309Y-75593775D01*
X144041310Y-75593773D01*
X144173773Y-75461310D01*
X144329533Y-75357235D01*
X144329534Y-75357234D01*
X144502605Y-75285546D01*
X144686333Y-75249000D01*
X144873667Y-75249000D01*
X145057395Y-75285546D01*
G37*
G36*
X153947395Y-75285546D02*
G01*
X154120466Y-75357234D01*
X154120467Y-75357235D01*
X154276227Y-75461310D01*
X154408690Y-75593773D01*
X154408691Y-75593775D01*
X154512766Y-75749534D01*
X154584454Y-75922605D01*
X154621000Y-76106333D01*
X154621000Y-76293667D01*
X154584454Y-76477395D01*
X154512766Y-76650466D01*
X154512765Y-76650467D01*
X154408690Y-76806227D01*
X154276227Y-76938690D01*
X154261783Y-76948341D01*
X154120466Y-77042766D01*
X153947395Y-77114454D01*
X153763667Y-77151000D01*
X153576333Y-77151000D01*
X153392605Y-77114454D01*
X153219534Y-77042766D01*
X153078217Y-76948341D01*
X153063773Y-76938690D01*
X152931310Y-76806227D01*
X152827235Y-76650467D01*
X152827234Y-76650466D01*
X152755546Y-76477395D01*
X152719000Y-76293667D01*
X152719000Y-76106333D01*
X152755546Y-75922605D01*
X152827234Y-75749534D01*
X152931309Y-75593775D01*
X152931310Y-75593773D01*
X153063773Y-75461310D01*
X153219533Y-75357235D01*
X153219534Y-75357234D01*
X153392605Y-75285546D01*
X153576333Y-75249000D01*
X153763667Y-75249000D01*
X153947395Y-75285546D01*
G37*
G36*
X162837395Y-75285546D02*
G01*
X163010466Y-75357234D01*
X163010467Y-75357235D01*
X163166227Y-75461310D01*
X163298690Y-75593773D01*
X163298691Y-75593775D01*
X163402766Y-75749534D01*
X163474454Y-75922605D01*
X163511000Y-76106333D01*
X163511000Y-76293667D01*
X163474454Y-76477395D01*
X163402766Y-76650466D01*
X163402765Y-76650467D01*
X163298690Y-76806227D01*
X163166227Y-76938690D01*
X163151783Y-76948341D01*
X163010466Y-77042766D01*
X162837395Y-77114454D01*
X162653667Y-77151000D01*
X162466333Y-77151000D01*
X162282605Y-77114454D01*
X162109534Y-77042766D01*
X161968217Y-76948341D01*
X161953773Y-76938690D01*
X161821310Y-76806227D01*
X161717235Y-76650467D01*
X161717234Y-76650466D01*
X161645546Y-76477395D01*
X161609000Y-76293667D01*
X161609000Y-76106333D01*
X161645546Y-75922605D01*
X161717234Y-75749534D01*
X161821309Y-75593775D01*
X161821310Y-75593773D01*
X161953773Y-75461310D01*
X162109533Y-75357235D01*
X162109534Y-75357234D01*
X162282605Y-75285546D01*
X162466333Y-75249000D01*
X162653667Y-75249000D01*
X162837395Y-75285546D01*
G37*
G36*
X228877395Y-75285546D02*
G01*
X229050466Y-75357234D01*
X229050467Y-75357235D01*
X229206227Y-75461310D01*
X229338690Y-75593773D01*
X229338691Y-75593775D01*
X229442766Y-75749534D01*
X229514454Y-75922605D01*
X229551000Y-76106333D01*
X229551000Y-76293667D01*
X229514454Y-76477395D01*
X229442766Y-76650466D01*
X229442765Y-76650467D01*
X229338690Y-76806227D01*
X229206227Y-76938690D01*
X229191783Y-76948341D01*
X229050466Y-77042766D01*
X228877395Y-77114454D01*
X228693667Y-77151000D01*
X228506333Y-77151000D01*
X228322605Y-77114454D01*
X228149534Y-77042766D01*
X228008217Y-76948341D01*
X227993773Y-76938690D01*
X227861310Y-76806227D01*
X227757235Y-76650467D01*
X227757234Y-76650466D01*
X227685546Y-76477395D01*
X227649000Y-76293667D01*
X227649000Y-76106333D01*
X227685546Y-75922605D01*
X227757234Y-75749534D01*
X227861309Y-75593775D01*
X227861310Y-75593773D01*
X227993773Y-75461310D01*
X228149533Y-75357235D01*
X228149534Y-75357234D01*
X228322605Y-75285546D01*
X228506333Y-75249000D01*
X228693667Y-75249000D01*
X228877395Y-75285546D01*
G37*
G36*
X189507395Y-75285546D02*
G01*
X189680466Y-75357234D01*
X189680467Y-75357235D01*
X189836227Y-75461310D01*
X189968690Y-75593773D01*
X189968691Y-75593775D01*
X190072766Y-75749534D01*
X190144454Y-75922605D01*
X190181000Y-76106333D01*
X190181000Y-76293667D01*
X190144454Y-76477395D01*
X190072766Y-76650466D01*
X190072765Y-76650467D01*
X189968690Y-76806227D01*
X189836227Y-76938690D01*
X189821783Y-76948341D01*
X189680466Y-77042766D01*
X189507395Y-77114454D01*
X189323667Y-77151000D01*
X189136333Y-77151000D01*
X188952605Y-77114454D01*
X188779534Y-77042766D01*
X188638217Y-76948341D01*
X188623773Y-76938690D01*
X188491310Y-76806227D01*
X188387235Y-76650467D01*
X188387234Y-76650466D01*
X188315546Y-76477395D01*
X188279000Y-76293667D01*
X188279000Y-76106333D01*
X188315546Y-75922605D01*
X188387234Y-75749534D01*
X188491309Y-75593775D01*
X188491310Y-75593773D01*
X188623773Y-75461310D01*
X188779533Y-75357235D01*
X188779534Y-75357234D01*
X188952605Y-75285546D01*
X189136333Y-75249000D01*
X189323667Y-75249000D01*
X189507395Y-75285546D01*
G37*
G36*
X91717395Y-75285546D02*
G01*
X91890466Y-75357234D01*
X91890467Y-75357235D01*
X92046227Y-75461310D01*
X92178690Y-75593773D01*
X92178691Y-75593775D01*
X92282766Y-75749534D01*
X92354454Y-75922605D01*
X92391000Y-76106333D01*
X92391000Y-76293667D01*
X92354454Y-76477395D01*
X92282766Y-76650466D01*
X92282765Y-76650467D01*
X92178690Y-76806227D01*
X92046227Y-76938690D01*
X92031783Y-76948341D01*
X91890466Y-77042766D01*
X91717395Y-77114454D01*
X91533667Y-77151000D01*
X91346333Y-77151000D01*
X91162605Y-77114454D01*
X90989534Y-77042766D01*
X90848217Y-76948341D01*
X90833773Y-76938690D01*
X90701310Y-76806227D01*
X90597235Y-76650467D01*
X90597234Y-76650466D01*
X90525546Y-76477395D01*
X90489000Y-76293667D01*
X90489000Y-76106333D01*
X90525546Y-75922605D01*
X90597234Y-75749534D01*
X90701309Y-75593775D01*
X90701310Y-75593773D01*
X90833773Y-75461310D01*
X90989533Y-75357235D01*
X90989534Y-75357234D01*
X91162605Y-75285546D01*
X91346333Y-75249000D01*
X91533667Y-75249000D01*
X91717395Y-75285546D01*
G37*
G36*
X100607395Y-75285546D02*
G01*
X100780466Y-75357234D01*
X100780467Y-75357235D01*
X100936227Y-75461310D01*
X101068690Y-75593773D01*
X101068691Y-75593775D01*
X101172766Y-75749534D01*
X101244454Y-75922605D01*
X101281000Y-76106333D01*
X101281000Y-76293667D01*
X101244454Y-76477395D01*
X101172766Y-76650466D01*
X101172765Y-76650467D01*
X101068690Y-76806227D01*
X100936227Y-76938690D01*
X100921783Y-76948341D01*
X100780466Y-77042766D01*
X100607395Y-77114454D01*
X100423667Y-77151000D01*
X100236333Y-77151000D01*
X100052605Y-77114454D01*
X99879534Y-77042766D01*
X99738217Y-76948341D01*
X99723773Y-76938690D01*
X99591310Y-76806227D01*
X99487235Y-76650467D01*
X99487234Y-76650466D01*
X99415546Y-76477395D01*
X99379000Y-76293667D01*
X99379000Y-76106333D01*
X99415546Y-75922605D01*
X99487234Y-75749534D01*
X99591309Y-75593775D01*
X99591310Y-75593773D01*
X99723773Y-75461310D01*
X99879533Y-75357235D01*
X99879534Y-75357234D01*
X100052605Y-75285546D01*
X100236333Y-75249000D01*
X100423667Y-75249000D01*
X100607395Y-75285546D01*
G37*
G36*
X109497395Y-75285546D02*
G01*
X109670466Y-75357234D01*
X109670467Y-75357235D01*
X109826227Y-75461310D01*
X109958690Y-75593773D01*
X109958691Y-75593775D01*
X110062766Y-75749534D01*
X110134454Y-75922605D01*
X110171000Y-76106333D01*
X110171000Y-76293667D01*
X110134454Y-76477395D01*
X110062766Y-76650466D01*
X110062765Y-76650467D01*
X109958690Y-76806227D01*
X109826227Y-76938690D01*
X109811783Y-76948341D01*
X109670466Y-77042766D01*
X109497395Y-77114454D01*
X109313667Y-77151000D01*
X109126333Y-77151000D01*
X108942605Y-77114454D01*
X108769534Y-77042766D01*
X108628217Y-76948341D01*
X108613773Y-76938690D01*
X108481310Y-76806227D01*
X108377235Y-76650467D01*
X108377234Y-76650466D01*
X108305546Y-76477395D01*
X108269000Y-76293667D01*
X108269000Y-76106333D01*
X108305546Y-75922605D01*
X108377234Y-75749534D01*
X108481309Y-75593775D01*
X108481310Y-75593773D01*
X108613773Y-75461310D01*
X108769533Y-75357235D01*
X108769534Y-75357234D01*
X108942605Y-75285546D01*
X109126333Y-75249000D01*
X109313667Y-75249000D01*
X109497395Y-75285546D01*
G37*
G36*
X198397395Y-75285546D02*
G01*
X198570466Y-75357234D01*
X198570467Y-75357235D01*
X198726227Y-75461310D01*
X198858690Y-75593773D01*
X198858691Y-75593775D01*
X198962766Y-75749534D01*
X199034454Y-75922605D01*
X199071000Y-76106333D01*
X199071000Y-76293667D01*
X199034454Y-76477395D01*
X198962766Y-76650466D01*
X198962765Y-76650467D01*
X198858690Y-76806227D01*
X198726227Y-76938690D01*
X198711783Y-76948341D01*
X198570466Y-77042766D01*
X198397395Y-77114454D01*
X198213667Y-77151000D01*
X198026333Y-77151000D01*
X197842605Y-77114454D01*
X197669534Y-77042766D01*
X197528217Y-76948341D01*
X197513773Y-76938690D01*
X197381310Y-76806227D01*
X197277235Y-76650467D01*
X197277234Y-76650466D01*
X197205546Y-76477395D01*
X197169000Y-76293667D01*
X197169000Y-76106333D01*
X197205546Y-75922605D01*
X197277234Y-75749534D01*
X197381309Y-75593775D01*
X197381310Y-75593773D01*
X197513773Y-75461310D01*
X197669533Y-75357235D01*
X197669534Y-75357234D01*
X197842605Y-75285546D01*
X198026333Y-75249000D01*
X198213667Y-75249000D01*
X198397395Y-75285546D01*
G37*
G36*
X216177395Y-75285546D02*
G01*
X216350466Y-75357234D01*
X216350467Y-75357235D01*
X216506227Y-75461310D01*
X216638690Y-75593773D01*
X216638691Y-75593775D01*
X216742766Y-75749534D01*
X216814454Y-75922605D01*
X216851000Y-76106333D01*
X216851000Y-76293667D01*
X216814454Y-76477395D01*
X216742766Y-76650466D01*
X216742765Y-76650467D01*
X216638690Y-76806227D01*
X216506227Y-76938690D01*
X216491783Y-76948341D01*
X216350466Y-77042766D01*
X216177395Y-77114454D01*
X215993667Y-77151000D01*
X215806333Y-77151000D01*
X215622605Y-77114454D01*
X215449534Y-77042766D01*
X215308217Y-76948341D01*
X215293773Y-76938690D01*
X215161310Y-76806227D01*
X215057235Y-76650467D01*
X215057234Y-76650466D01*
X214985546Y-76477395D01*
X214949000Y-76293667D01*
X214949000Y-76106333D01*
X214985546Y-75922605D01*
X215057234Y-75749534D01*
X215161309Y-75593775D01*
X215161310Y-75593773D01*
X215293773Y-75461310D01*
X215449533Y-75357235D01*
X215449534Y-75357234D01*
X215622605Y-75285546D01*
X215806333Y-75249000D01*
X215993667Y-75249000D01*
X216177395Y-75285546D01*
G37*
G36*
X171727395Y-75285546D02*
G01*
X171900466Y-75357234D01*
X171900467Y-75357235D01*
X172056227Y-75461310D01*
X172188690Y-75593773D01*
X172188691Y-75593775D01*
X172292766Y-75749534D01*
X172364454Y-75922605D01*
X172401000Y-76106333D01*
X172401000Y-76293667D01*
X172364454Y-76477395D01*
X172292766Y-76650466D01*
X172292765Y-76650467D01*
X172188690Y-76806227D01*
X172056227Y-76938690D01*
X172041783Y-76948341D01*
X171900466Y-77042766D01*
X171727395Y-77114454D01*
X171543667Y-77151000D01*
X171356333Y-77151000D01*
X171172605Y-77114454D01*
X170999534Y-77042766D01*
X170858217Y-76948341D01*
X170843773Y-76938690D01*
X170711310Y-76806227D01*
X170607235Y-76650467D01*
X170607234Y-76650466D01*
X170535546Y-76477395D01*
X170499000Y-76293667D01*
X170499000Y-76106333D01*
X170535546Y-75922605D01*
X170607234Y-75749534D01*
X170711309Y-75593775D01*
X170711310Y-75593773D01*
X170843773Y-75461310D01*
X170999533Y-75357235D01*
X170999534Y-75357234D01*
X171172605Y-75285546D01*
X171356333Y-75249000D01*
X171543667Y-75249000D01*
X171727395Y-75285546D01*
G37*
G36*
X180617395Y-75285546D02*
G01*
X180790466Y-75357234D01*
X180790467Y-75357235D01*
X180946227Y-75461310D01*
X181078690Y-75593773D01*
X181078691Y-75593775D01*
X181182766Y-75749534D01*
X181254454Y-75922605D01*
X181291000Y-76106333D01*
X181291000Y-76293667D01*
X181254454Y-76477395D01*
X181182766Y-76650466D01*
X181182765Y-76650467D01*
X181078690Y-76806227D01*
X180946227Y-76938690D01*
X180931783Y-76948341D01*
X180790466Y-77042766D01*
X180617395Y-77114454D01*
X180433667Y-77151000D01*
X180246333Y-77151000D01*
X180062605Y-77114454D01*
X179889534Y-77042766D01*
X179748217Y-76948341D01*
X179733773Y-76938690D01*
X179601310Y-76806227D01*
X179497235Y-76650467D01*
X179497234Y-76650466D01*
X179425546Y-76477395D01*
X179389000Y-76293667D01*
X179389000Y-76106333D01*
X179425546Y-75922605D01*
X179497234Y-75749534D01*
X179601309Y-75593775D01*
X179601310Y-75593773D01*
X179733773Y-75461310D01*
X179889533Y-75357235D01*
X179889534Y-75357234D01*
X180062605Y-75285546D01*
X180246333Y-75249000D01*
X180433667Y-75249000D01*
X180617395Y-75285546D01*
G37*
G36*
X224923604Y-75658347D02*
G01*
X224960144Y-75669432D01*
X224993821Y-75687433D01*
X225023341Y-75711659D01*
X225047567Y-75741179D01*
X225065568Y-75774856D01*
X225076653Y-75811396D01*
X225081000Y-75855538D01*
X225081000Y-76804462D01*
X225076653Y-76848604D01*
X225065568Y-76885144D01*
X225047567Y-76918821D01*
X225023341Y-76948341D01*
X224993821Y-76972567D01*
X224960144Y-76990568D01*
X224923604Y-77001653D01*
X224879462Y-77006000D01*
X223430538Y-77006000D01*
X223386396Y-77001653D01*
X223349856Y-76990568D01*
X223316179Y-76972567D01*
X223286659Y-76948341D01*
X223262433Y-76918821D01*
X223244432Y-76885144D01*
X223233347Y-76848604D01*
X223229000Y-76804462D01*
X223229000Y-75855538D01*
X223233347Y-75811396D01*
X223244432Y-75774856D01*
X223262433Y-75741179D01*
X223286659Y-75711659D01*
X223316179Y-75687433D01*
X223349856Y-75669432D01*
X223386396Y-75658347D01*
X223430538Y-75654000D01*
X224879462Y-75654000D01*
X224923604Y-75658347D01*
G37*
G36*
X73908228Y-74341703D02*
G01*
X74063100Y-74405853D01*
X74202481Y-74498985D01*
X74321015Y-74617519D01*
X74414147Y-74756900D01*
X74478297Y-74911772D01*
X74511000Y-75076184D01*
X74511000Y-75243816D01*
X74478297Y-75408228D01*
X74414147Y-75563100D01*
X74321015Y-75702481D01*
X74202481Y-75821015D01*
X74063100Y-75914147D01*
X73908228Y-75978297D01*
X73743816Y-76011000D01*
X73576184Y-76011000D01*
X73411772Y-75978297D01*
X73256900Y-75914147D01*
X73117519Y-75821015D01*
X72998985Y-75702481D01*
X72905853Y-75563100D01*
X72841703Y-75408228D01*
X72809000Y-75243816D01*
X72809000Y-75076184D01*
X72841703Y-74911772D01*
X72905853Y-74756900D01*
X72998985Y-74617519D01*
X73117519Y-74498985D01*
X73256900Y-74405853D01*
X73411772Y-74341703D01*
X73576184Y-74309000D01*
X73743816Y-74309000D01*
X73908228Y-74341703D01*
G37*
G36*
X71068228Y-72956703D02*
G01*
X71223100Y-73020853D01*
X71362481Y-73113985D01*
X71481015Y-73232519D01*
X71574147Y-73371900D01*
X71638297Y-73526772D01*
X71671000Y-73691184D01*
X71671000Y-73858816D01*
X71638297Y-74023228D01*
X71574147Y-74178100D01*
X71481015Y-74317481D01*
X71362481Y-74436015D01*
X71223100Y-74529147D01*
X71068228Y-74593297D01*
X70903816Y-74626000D01*
X70736184Y-74626000D01*
X70571772Y-74593297D01*
X70416900Y-74529147D01*
X70277519Y-74436015D01*
X70158985Y-74317481D01*
X70065853Y-74178100D01*
X70001703Y-74023228D01*
X69969000Y-73858816D01*
X69969000Y-73691184D01*
X70001703Y-73526772D01*
X70065853Y-73371900D01*
X70158985Y-73232519D01*
X70277519Y-73113985D01*
X70416900Y-73020853D01*
X70571772Y-72956703D01*
X70736184Y-72924000D01*
X70903816Y-72924000D01*
X71068228Y-72956703D01*
G37*
G36*
X154621000Y-74611000D02*
G01*
X152719000Y-74611000D01*
X152719000Y-72709000D01*
X154621000Y-72709000D01*
X154621000Y-74611000D01*
G37*
G36*
X229551000Y-74611000D02*
G01*
X227649000Y-74611000D01*
X227649000Y-72709000D01*
X229551000Y-72709000D01*
X229551000Y-74611000D01*
G37*
G36*
X216851000Y-74611000D02*
G01*
X214949000Y-74611000D01*
X214949000Y-72709000D01*
X216851000Y-72709000D01*
X216851000Y-74611000D01*
G37*
G36*
X199071000Y-74611000D02*
G01*
X197169000Y-74611000D01*
X197169000Y-72709000D01*
X199071000Y-72709000D01*
X199071000Y-74611000D01*
G37*
G36*
X207961000Y-74611000D02*
G01*
X206059000Y-74611000D01*
X206059000Y-72709000D01*
X207961000Y-72709000D01*
X207961000Y-74611000D01*
G37*
G36*
X190181000Y-74611000D02*
G01*
X188279000Y-74611000D01*
X188279000Y-72709000D01*
X190181000Y-72709000D01*
X190181000Y-74611000D01*
G37*
G36*
X181291000Y-74611000D02*
G01*
X179389000Y-74611000D01*
X179389000Y-72709000D01*
X181291000Y-72709000D01*
X181291000Y-74611000D01*
G37*
G36*
X172401000Y-74611000D02*
G01*
X170499000Y-74611000D01*
X170499000Y-72709000D01*
X172401000Y-72709000D01*
X172401000Y-74611000D01*
G37*
G36*
X163511000Y-74611000D02*
G01*
X161609000Y-74611000D01*
X161609000Y-72709000D01*
X163511000Y-72709000D01*
X163511000Y-74611000D01*
G37*
G36*
X145731000Y-74611000D02*
G01*
X143829000Y-74611000D01*
X143829000Y-72709000D01*
X145731000Y-72709000D01*
X145731000Y-74611000D01*
G37*
G36*
X136841000Y-74611000D02*
G01*
X134939000Y-74611000D01*
X134939000Y-72709000D01*
X136841000Y-72709000D01*
X136841000Y-74611000D01*
G37*
G36*
X92391000Y-74611000D02*
G01*
X90489000Y-74611000D01*
X90489000Y-72709000D01*
X92391000Y-72709000D01*
X92391000Y-74611000D01*
G37*
G36*
X127951000Y-74611000D02*
G01*
X126049000Y-74611000D01*
X126049000Y-72709000D01*
X127951000Y-72709000D01*
X127951000Y-74611000D01*
G37*
G36*
X101281000Y-74611000D02*
G01*
X99379000Y-74611000D01*
X99379000Y-72709000D01*
X101281000Y-72709000D01*
X101281000Y-74611000D01*
G37*
G36*
X119061000Y-74611000D02*
G01*
X117159000Y-74611000D01*
X117159000Y-72709000D01*
X119061000Y-72709000D01*
X119061000Y-74611000D01*
G37*
G36*
X110171000Y-74611000D02*
G01*
X108269000Y-74611000D01*
X108269000Y-72709000D01*
X110171000Y-72709000D01*
X110171000Y-74611000D01*
G37*
G36*
X224923604Y-72858347D02*
G01*
X224960144Y-72869432D01*
X224993821Y-72887433D01*
X225023341Y-72911659D01*
X225047567Y-72941179D01*
X225065568Y-72974856D01*
X225076653Y-73011396D01*
X225081000Y-73055538D01*
X225081000Y-74004462D01*
X225076653Y-74048604D01*
X225065568Y-74085144D01*
X225047567Y-74118821D01*
X225023341Y-74148341D01*
X224993821Y-74172567D01*
X224960144Y-74190568D01*
X224923604Y-74201653D01*
X224879462Y-74206000D01*
X223430538Y-74206000D01*
X223386396Y-74201653D01*
X223349856Y-74190568D01*
X223316179Y-74172567D01*
X223286659Y-74148341D01*
X223262433Y-74118821D01*
X223244432Y-74085144D01*
X223233347Y-74048604D01*
X223229000Y-74004462D01*
X223229000Y-73055538D01*
X223233347Y-73011396D01*
X223244432Y-72974856D01*
X223262433Y-72941179D01*
X223286659Y-72911659D01*
X223316179Y-72887433D01*
X223349856Y-72869432D01*
X223386396Y-72858347D01*
X223430538Y-72854000D01*
X224879462Y-72854000D01*
X224923604Y-72858347D01*
G37*
G36*
X74511000Y-73241000D02*
G01*
X72809000Y-73241000D01*
X72809000Y-71539000D01*
X74511000Y-71539000D01*
X74511000Y-73241000D01*
G37*
G36*
X216668604Y-68038347D02*
G01*
X216705144Y-68049432D01*
X216738821Y-68067433D01*
X216768341Y-68091659D01*
X216792567Y-68121179D01*
X216810568Y-68154856D01*
X216821653Y-68191396D01*
X216826000Y-68235538D01*
X216826000Y-69184462D01*
X216821653Y-69228604D01*
X216810568Y-69265144D01*
X216792567Y-69298821D01*
X216768341Y-69328341D01*
X216738821Y-69352567D01*
X216705144Y-69370568D01*
X216668604Y-69381653D01*
X216624462Y-69386000D01*
X215175538Y-69386000D01*
X215131396Y-69381653D01*
X215094856Y-69370568D01*
X215061179Y-69352567D01*
X215031659Y-69328341D01*
X215007433Y-69298821D01*
X214989432Y-69265144D01*
X214978347Y-69228604D01*
X214974000Y-69184462D01*
X214974000Y-68235538D01*
X214978347Y-68191396D01*
X214989432Y-68154856D01*
X215007433Y-68121179D01*
X215031659Y-68091659D01*
X215061179Y-68067433D01*
X215094856Y-68049432D01*
X215131396Y-68038347D01*
X215175538Y-68034000D01*
X216624462Y-68034000D01*
X216668604Y-68038347D01*
G37*
G36*
X145548604Y-67908347D02*
G01*
X145585144Y-67919432D01*
X145618821Y-67937433D01*
X145648341Y-67961659D01*
X145672567Y-67991179D01*
X145690568Y-68024856D01*
X145701653Y-68061396D01*
X145706000Y-68105538D01*
X145706000Y-69054462D01*
X145701653Y-69098604D01*
X145690568Y-69135144D01*
X145672567Y-69168821D01*
X145648341Y-69198341D01*
X145618821Y-69222567D01*
X145585144Y-69240568D01*
X145548604Y-69251653D01*
X145504462Y-69256000D01*
X144055538Y-69256000D01*
X144011396Y-69251653D01*
X143974856Y-69240568D01*
X143941179Y-69222567D01*
X143911659Y-69198341D01*
X143887433Y-69168821D01*
X143869432Y-69135144D01*
X143858347Y-69098604D01*
X143854000Y-69054462D01*
X143854000Y-68105538D01*
X143858347Y-68061396D01*
X143869432Y-68024856D01*
X143887433Y-67991179D01*
X143911659Y-67961659D01*
X143941179Y-67937433D01*
X143974856Y-67919432D01*
X144011396Y-67908347D01*
X144055538Y-67904000D01*
X145504462Y-67904000D01*
X145548604Y-67908347D01*
G37*
G36*
X136658604Y-67908347D02*
G01*
X136695144Y-67919432D01*
X136728821Y-67937433D01*
X136758341Y-67961659D01*
X136782567Y-67991179D01*
X136800568Y-68024856D01*
X136811653Y-68061396D01*
X136816000Y-68105538D01*
X136816000Y-69054462D01*
X136811653Y-69098604D01*
X136800568Y-69135144D01*
X136782567Y-69168821D01*
X136758341Y-69198341D01*
X136728821Y-69222567D01*
X136695144Y-69240568D01*
X136658604Y-69251653D01*
X136614462Y-69256000D01*
X135165538Y-69256000D01*
X135121396Y-69251653D01*
X135084856Y-69240568D01*
X135051179Y-69222567D01*
X135021659Y-69198341D01*
X134997433Y-69168821D01*
X134979432Y-69135144D01*
X134968347Y-69098604D01*
X134964000Y-69054462D01*
X134964000Y-68105538D01*
X134968347Y-68061396D01*
X134979432Y-68024856D01*
X134997433Y-67991179D01*
X135021659Y-67961659D01*
X135051179Y-67937433D01*
X135084856Y-67919432D01*
X135121396Y-67908347D01*
X135165538Y-67904000D01*
X136614462Y-67904000D01*
X136658604Y-67908347D01*
G37*
G36*
X109988604Y-67908347D02*
G01*
X110025144Y-67919432D01*
X110058821Y-67937433D01*
X110088341Y-67961659D01*
X110112567Y-67991179D01*
X110130568Y-68024856D01*
X110141653Y-68061396D01*
X110146000Y-68105538D01*
X110146000Y-69054462D01*
X110141653Y-69098604D01*
X110130568Y-69135144D01*
X110112567Y-69168821D01*
X110088341Y-69198341D01*
X110058821Y-69222567D01*
X110025144Y-69240568D01*
X109988604Y-69251653D01*
X109944462Y-69256000D01*
X108495538Y-69256000D01*
X108451396Y-69251653D01*
X108414856Y-69240568D01*
X108381179Y-69222567D01*
X108351659Y-69198341D01*
X108327433Y-69168821D01*
X108309432Y-69135144D01*
X108298347Y-69098604D01*
X108294000Y-69054462D01*
X108294000Y-68105538D01*
X108298347Y-68061396D01*
X108309432Y-68024856D01*
X108327433Y-67991179D01*
X108351659Y-67961659D01*
X108381179Y-67937433D01*
X108414856Y-67919432D01*
X108451396Y-67908347D01*
X108495538Y-67904000D01*
X109944462Y-67904000D01*
X109988604Y-67908347D01*
G37*
G36*
X92208604Y-67908347D02*
G01*
X92245144Y-67919432D01*
X92278821Y-67937433D01*
X92308341Y-67961659D01*
X92332567Y-67991179D01*
X92350568Y-68024856D01*
X92361653Y-68061396D01*
X92366000Y-68105538D01*
X92366000Y-69054462D01*
X92361653Y-69098604D01*
X92350568Y-69135144D01*
X92332567Y-69168821D01*
X92308341Y-69198341D01*
X92278821Y-69222567D01*
X92245144Y-69240568D01*
X92208604Y-69251653D01*
X92164462Y-69256000D01*
X90715538Y-69256000D01*
X90671396Y-69251653D01*
X90634856Y-69240568D01*
X90601179Y-69222567D01*
X90571659Y-69198341D01*
X90547433Y-69168821D01*
X90529432Y-69135144D01*
X90518347Y-69098604D01*
X90514000Y-69054462D01*
X90514000Y-68105538D01*
X90518347Y-68061396D01*
X90529432Y-68024856D01*
X90547433Y-67991179D01*
X90571659Y-67961659D01*
X90601179Y-67937433D01*
X90634856Y-67919432D01*
X90671396Y-67908347D01*
X90715538Y-67904000D01*
X92164462Y-67904000D01*
X92208604Y-67908347D01*
G37*
G36*
X118878604Y-67908347D02*
G01*
X118915144Y-67919432D01*
X118948821Y-67937433D01*
X118978341Y-67961659D01*
X119002567Y-67991179D01*
X119020568Y-68024856D01*
X119031653Y-68061396D01*
X119036000Y-68105538D01*
X119036000Y-69054462D01*
X119031653Y-69098604D01*
X119020568Y-69135144D01*
X119002567Y-69168821D01*
X118978341Y-69198341D01*
X118948821Y-69222567D01*
X118915144Y-69240568D01*
X118878604Y-69251653D01*
X118834462Y-69256000D01*
X117385538Y-69256000D01*
X117341396Y-69251653D01*
X117304856Y-69240568D01*
X117271179Y-69222567D01*
X117241659Y-69198341D01*
X117217433Y-69168821D01*
X117199432Y-69135144D01*
X117188347Y-69098604D01*
X117184000Y-69054462D01*
X117184000Y-68105538D01*
X117188347Y-68061396D01*
X117199432Y-68024856D01*
X117217433Y-67991179D01*
X117241659Y-67961659D01*
X117271179Y-67937433D01*
X117304856Y-67919432D01*
X117341396Y-67908347D01*
X117385538Y-67904000D01*
X118834462Y-67904000D01*
X118878604Y-67908347D01*
G37*
G36*
X127768604Y-67908347D02*
G01*
X127805144Y-67919432D01*
X127838821Y-67937433D01*
X127868341Y-67961659D01*
X127892567Y-67991179D01*
X127910568Y-68024856D01*
X127921653Y-68061396D01*
X127926000Y-68105538D01*
X127926000Y-69054462D01*
X127921653Y-69098604D01*
X127910568Y-69135144D01*
X127892567Y-69168821D01*
X127868341Y-69198341D01*
X127838821Y-69222567D01*
X127805144Y-69240568D01*
X127768604Y-69251653D01*
X127724462Y-69256000D01*
X126275538Y-69256000D01*
X126231396Y-69251653D01*
X126194856Y-69240568D01*
X126161179Y-69222567D01*
X126131659Y-69198341D01*
X126107433Y-69168821D01*
X126089432Y-69135144D01*
X126078347Y-69098604D01*
X126074000Y-69054462D01*
X126074000Y-68105538D01*
X126078347Y-68061396D01*
X126089432Y-68024856D01*
X126107433Y-67991179D01*
X126131659Y-67961659D01*
X126161179Y-67937433D01*
X126194856Y-67919432D01*
X126231396Y-67908347D01*
X126275538Y-67904000D01*
X127724462Y-67904000D01*
X127768604Y-67908347D01*
G37*
G36*
X101098604Y-67908347D02*
G01*
X101135144Y-67919432D01*
X101168821Y-67937433D01*
X101198341Y-67961659D01*
X101222567Y-67991179D01*
X101240568Y-68024856D01*
X101251653Y-68061396D01*
X101256000Y-68105538D01*
X101256000Y-69054462D01*
X101251653Y-69098604D01*
X101240568Y-69135144D01*
X101222567Y-69168821D01*
X101198341Y-69198341D01*
X101168821Y-69222567D01*
X101135144Y-69240568D01*
X101098604Y-69251653D01*
X101054462Y-69256000D01*
X99605538Y-69256000D01*
X99561396Y-69251653D01*
X99524856Y-69240568D01*
X99491179Y-69222567D01*
X99461659Y-69198341D01*
X99437433Y-69168821D01*
X99419432Y-69135144D01*
X99408347Y-69098604D01*
X99404000Y-69054462D01*
X99404000Y-68105538D01*
X99408347Y-68061396D01*
X99419432Y-68024856D01*
X99437433Y-67991179D01*
X99461659Y-67961659D01*
X99491179Y-67937433D01*
X99524856Y-67919432D01*
X99561396Y-67908347D01*
X99605538Y-67904000D01*
X101054462Y-67904000D01*
X101098604Y-67908347D01*
G37*
G36*
X163328604Y-67908347D02*
G01*
X163365144Y-67919432D01*
X163398821Y-67937433D01*
X163428341Y-67961659D01*
X163452567Y-67991179D01*
X163470568Y-68024856D01*
X163481653Y-68061396D01*
X163486000Y-68105538D01*
X163486000Y-69054462D01*
X163481653Y-69098604D01*
X163470568Y-69135144D01*
X163452567Y-69168821D01*
X163428341Y-69198341D01*
X163398821Y-69222567D01*
X163365144Y-69240568D01*
X163328604Y-69251653D01*
X163284462Y-69256000D01*
X161835538Y-69256000D01*
X161791396Y-69251653D01*
X161754856Y-69240568D01*
X161721179Y-69222567D01*
X161691659Y-69198341D01*
X161667433Y-69168821D01*
X161649432Y-69135144D01*
X161638347Y-69098604D01*
X161634000Y-69054462D01*
X161634000Y-68105538D01*
X161638347Y-68061396D01*
X161649432Y-68024856D01*
X161667433Y-67991179D01*
X161691659Y-67961659D01*
X161721179Y-67937433D01*
X161754856Y-67919432D01*
X161791396Y-67908347D01*
X161835538Y-67904000D01*
X163284462Y-67904000D01*
X163328604Y-67908347D01*
G37*
G36*
X172218604Y-67908347D02*
G01*
X172255144Y-67919432D01*
X172288821Y-67937433D01*
X172318341Y-67961659D01*
X172342567Y-67991179D01*
X172360568Y-68024856D01*
X172371653Y-68061396D01*
X172376000Y-68105538D01*
X172376000Y-69054462D01*
X172371653Y-69098604D01*
X172360568Y-69135144D01*
X172342567Y-69168821D01*
X172318341Y-69198341D01*
X172288821Y-69222567D01*
X172255144Y-69240568D01*
X172218604Y-69251653D01*
X172174462Y-69256000D01*
X170725538Y-69256000D01*
X170681396Y-69251653D01*
X170644856Y-69240568D01*
X170611179Y-69222567D01*
X170581659Y-69198341D01*
X170557433Y-69168821D01*
X170539432Y-69135144D01*
X170528347Y-69098604D01*
X170524000Y-69054462D01*
X170524000Y-68105538D01*
X170528347Y-68061396D01*
X170539432Y-68024856D01*
X170557433Y-67991179D01*
X170581659Y-67961659D01*
X170611179Y-67937433D01*
X170644856Y-67919432D01*
X170681396Y-67908347D01*
X170725538Y-67904000D01*
X172174462Y-67904000D01*
X172218604Y-67908347D01*
G37*
G36*
X181108604Y-67908347D02*
G01*
X181145144Y-67919432D01*
X181178821Y-67937433D01*
X181208341Y-67961659D01*
X181232567Y-67991179D01*
X181250568Y-68024856D01*
X181261653Y-68061396D01*
X181266000Y-68105538D01*
X181266000Y-69054462D01*
X181261653Y-69098604D01*
X181250568Y-69135144D01*
X181232567Y-69168821D01*
X181208341Y-69198341D01*
X181178821Y-69222567D01*
X181145144Y-69240568D01*
X181108604Y-69251653D01*
X181064462Y-69256000D01*
X179615538Y-69256000D01*
X179571396Y-69251653D01*
X179534856Y-69240568D01*
X179501179Y-69222567D01*
X179471659Y-69198341D01*
X179447433Y-69168821D01*
X179429432Y-69135144D01*
X179418347Y-69098604D01*
X179414000Y-69054462D01*
X179414000Y-68105538D01*
X179418347Y-68061396D01*
X179429432Y-68024856D01*
X179447433Y-67991179D01*
X179471659Y-67961659D01*
X179501179Y-67937433D01*
X179534856Y-67919432D01*
X179571396Y-67908347D01*
X179615538Y-67904000D01*
X181064462Y-67904000D01*
X181108604Y-67908347D01*
G37*
G36*
X189998604Y-67908347D02*
G01*
X190035144Y-67919432D01*
X190068821Y-67937433D01*
X190098341Y-67961659D01*
X190122567Y-67991179D01*
X190140568Y-68024856D01*
X190151653Y-68061396D01*
X190156000Y-68105538D01*
X190156000Y-69054462D01*
X190151653Y-69098604D01*
X190140568Y-69135144D01*
X190122567Y-69168821D01*
X190098341Y-69198341D01*
X190068821Y-69222567D01*
X190035144Y-69240568D01*
X189998604Y-69251653D01*
X189954462Y-69256000D01*
X188505538Y-69256000D01*
X188461396Y-69251653D01*
X188424856Y-69240568D01*
X188391179Y-69222567D01*
X188361659Y-69198341D01*
X188337433Y-69168821D01*
X188319432Y-69135144D01*
X188308347Y-69098604D01*
X188304000Y-69054462D01*
X188304000Y-68105538D01*
X188308347Y-68061396D01*
X188319432Y-68024856D01*
X188337433Y-67991179D01*
X188361659Y-67961659D01*
X188391179Y-67937433D01*
X188424856Y-67919432D01*
X188461396Y-67908347D01*
X188505538Y-67904000D01*
X189954462Y-67904000D01*
X189998604Y-67908347D01*
G37*
G36*
X198888604Y-67908347D02*
G01*
X198925144Y-67919432D01*
X198958821Y-67937433D01*
X198988341Y-67961659D01*
X199012567Y-67991179D01*
X199030568Y-68024856D01*
X199041653Y-68061396D01*
X199046000Y-68105538D01*
X199046000Y-69054462D01*
X199041653Y-69098604D01*
X199030568Y-69135144D01*
X199012567Y-69168821D01*
X198988341Y-69198341D01*
X198958821Y-69222567D01*
X198925144Y-69240568D01*
X198888604Y-69251653D01*
X198844462Y-69256000D01*
X197395538Y-69256000D01*
X197351396Y-69251653D01*
X197314856Y-69240568D01*
X197281179Y-69222567D01*
X197251659Y-69198341D01*
X197227433Y-69168821D01*
X197209432Y-69135144D01*
X197198347Y-69098604D01*
X197194000Y-69054462D01*
X197194000Y-68105538D01*
X197198347Y-68061396D01*
X197209432Y-68024856D01*
X197227433Y-67991179D01*
X197251659Y-67961659D01*
X197281179Y-67937433D01*
X197314856Y-67919432D01*
X197351396Y-67908347D01*
X197395538Y-67904000D01*
X198844462Y-67904000D01*
X198888604Y-67908347D01*
G37*
G36*
X207778604Y-67908347D02*
G01*
X207815144Y-67919432D01*
X207848821Y-67937433D01*
X207878341Y-67961659D01*
X207902567Y-67991179D01*
X207920568Y-68024856D01*
X207931653Y-68061396D01*
X207936000Y-68105538D01*
X207936000Y-69054462D01*
X207931653Y-69098604D01*
X207920568Y-69135144D01*
X207902567Y-69168821D01*
X207878341Y-69198341D01*
X207848821Y-69222567D01*
X207815144Y-69240568D01*
X207778604Y-69251653D01*
X207734462Y-69256000D01*
X206285538Y-69256000D01*
X206241396Y-69251653D01*
X206204856Y-69240568D01*
X206171179Y-69222567D01*
X206141659Y-69198341D01*
X206117433Y-69168821D01*
X206099432Y-69135144D01*
X206088347Y-69098604D01*
X206084000Y-69054462D01*
X206084000Y-68105538D01*
X206088347Y-68061396D01*
X206099432Y-68024856D01*
X206117433Y-67991179D01*
X206141659Y-67961659D01*
X206171179Y-67937433D01*
X206204856Y-67919432D01*
X206241396Y-67908347D01*
X206285538Y-67904000D01*
X207734462Y-67904000D01*
X207778604Y-67908347D01*
G37*
G36*
X154438604Y-67908347D02*
G01*
X154475144Y-67919432D01*
X154508821Y-67937433D01*
X154538341Y-67961659D01*
X154562567Y-67991179D01*
X154580568Y-68024856D01*
X154591653Y-68061396D01*
X154596000Y-68105538D01*
X154596000Y-69054462D01*
X154591653Y-69098604D01*
X154580568Y-69135144D01*
X154562567Y-69168821D01*
X154538341Y-69198341D01*
X154508821Y-69222567D01*
X154475144Y-69240568D01*
X154438604Y-69251653D01*
X154394462Y-69256000D01*
X152945538Y-69256000D01*
X152901396Y-69251653D01*
X152864856Y-69240568D01*
X152831179Y-69222567D01*
X152801659Y-69198341D01*
X152777433Y-69168821D01*
X152759432Y-69135144D01*
X152748347Y-69098604D01*
X152744000Y-69054462D01*
X152744000Y-68105538D01*
X152748347Y-68061396D01*
X152759432Y-68024856D01*
X152777433Y-67991179D01*
X152801659Y-67961659D01*
X152831179Y-67937433D01*
X152864856Y-67919432D01*
X152901396Y-67908347D01*
X152945538Y-67904000D01*
X154394462Y-67904000D01*
X154438604Y-67908347D01*
G37*
G36*
X72838254Y-63597818D02*
G01*
X73211511Y-63752426D01*
X73211513Y-63752427D01*
X73547436Y-63976884D01*
X73833116Y-64262564D01*
X74057574Y-64598489D01*
X74212182Y-64971746D01*
X74291000Y-65367993D01*
X74291000Y-65772007D01*
X74212182Y-66168254D01*
X74075257Y-66498821D01*
X74057573Y-66541513D01*
X73833116Y-66877436D01*
X73547436Y-67163116D01*
X73211513Y-67387573D01*
X73211512Y-67387574D01*
X73211511Y-67387574D01*
X72838254Y-67542182D01*
X72442007Y-67621000D01*
X72037993Y-67621000D01*
X71641746Y-67542182D01*
X71268489Y-67387574D01*
X71268488Y-67387574D01*
X71268487Y-67387573D01*
X70932564Y-67163116D01*
X70646884Y-66877436D01*
X70422427Y-66541513D01*
X70404743Y-66498821D01*
X70267818Y-66168254D01*
X70189000Y-65772007D01*
X70189000Y-65367993D01*
X70267818Y-64971746D01*
X70422426Y-64598489D01*
X70646884Y-64262564D01*
X70932564Y-63976884D01*
X71268487Y-63752427D01*
X71268489Y-63752426D01*
X71641746Y-63597818D01*
X72037993Y-63519000D01*
X72442007Y-63519000D01*
X72838254Y-63597818D01*
G37*
G36*
X216668604Y-65238347D02*
G01*
X216705144Y-65249432D01*
X216738821Y-65267433D01*
X216768341Y-65291659D01*
X216792567Y-65321179D01*
X216810568Y-65354856D01*
X216821653Y-65391396D01*
X216826000Y-65435538D01*
X216826000Y-66384462D01*
X216821653Y-66428604D01*
X216810568Y-66465144D01*
X216792567Y-66498821D01*
X216768341Y-66528341D01*
X216738821Y-66552567D01*
X216705144Y-66570568D01*
X216668604Y-66581653D01*
X216624462Y-66586000D01*
X215175538Y-66586000D01*
X215131396Y-66581653D01*
X215094856Y-66570568D01*
X215061179Y-66552567D01*
X215031659Y-66528341D01*
X215007433Y-66498821D01*
X214989432Y-66465144D01*
X214978347Y-66428604D01*
X214974000Y-66384462D01*
X214974000Y-65435538D01*
X214978347Y-65391396D01*
X214989432Y-65354856D01*
X215007433Y-65321179D01*
X215031659Y-65291659D01*
X215061179Y-65267433D01*
X215094856Y-65249432D01*
X215131396Y-65238347D01*
X215175538Y-65234000D01*
X216624462Y-65234000D01*
X216668604Y-65238347D01*
G37*
G36*
X207778604Y-65108347D02*
G01*
X207815144Y-65119432D01*
X207848821Y-65137433D01*
X207878341Y-65161659D01*
X207902567Y-65191179D01*
X207920568Y-65224856D01*
X207931653Y-65261396D01*
X207936000Y-65305538D01*
X207936000Y-66254462D01*
X207931653Y-66298604D01*
X207920568Y-66335144D01*
X207902567Y-66368821D01*
X207878341Y-66398341D01*
X207848821Y-66422567D01*
X207815144Y-66440568D01*
X207778604Y-66451653D01*
X207734462Y-66456000D01*
X206285538Y-66456000D01*
X206241396Y-66451653D01*
X206204856Y-66440568D01*
X206171179Y-66422567D01*
X206141659Y-66398341D01*
X206117433Y-66368821D01*
X206099432Y-66335144D01*
X206088347Y-66298604D01*
X206084000Y-66254462D01*
X206084000Y-65305538D01*
X206088347Y-65261396D01*
X206099432Y-65224856D01*
X206117433Y-65191179D01*
X206141659Y-65161659D01*
X206171179Y-65137433D01*
X206204856Y-65119432D01*
X206241396Y-65108347D01*
X206285538Y-65104000D01*
X207734462Y-65104000D01*
X207778604Y-65108347D01*
G37*
G36*
X198888604Y-65108347D02*
G01*
X198925144Y-65119432D01*
X198958821Y-65137433D01*
X198988341Y-65161659D01*
X199012567Y-65191179D01*
X199030568Y-65224856D01*
X199041653Y-65261396D01*
X199046000Y-65305538D01*
X199046000Y-66254462D01*
X199041653Y-66298604D01*
X199030568Y-66335144D01*
X199012567Y-66368821D01*
X198988341Y-66398341D01*
X198958821Y-66422567D01*
X198925144Y-66440568D01*
X198888604Y-66451653D01*
X198844462Y-66456000D01*
X197395538Y-66456000D01*
X197351396Y-66451653D01*
X197314856Y-66440568D01*
X197281179Y-66422567D01*
X197251659Y-66398341D01*
X197227433Y-66368821D01*
X197209432Y-66335144D01*
X197198347Y-66298604D01*
X197194000Y-66254462D01*
X197194000Y-65305538D01*
X197198347Y-65261396D01*
X197209432Y-65224856D01*
X197227433Y-65191179D01*
X197251659Y-65161659D01*
X197281179Y-65137433D01*
X197314856Y-65119432D01*
X197351396Y-65108347D01*
X197395538Y-65104000D01*
X198844462Y-65104000D01*
X198888604Y-65108347D01*
G37*
G36*
X181108604Y-65108347D02*
G01*
X181145144Y-65119432D01*
X181178821Y-65137433D01*
X181208341Y-65161659D01*
X181232567Y-65191179D01*
X181250568Y-65224856D01*
X181261653Y-65261396D01*
X181266000Y-65305538D01*
X181266000Y-66254462D01*
X181261653Y-66298604D01*
X181250568Y-66335144D01*
X181232567Y-66368821D01*
X181208341Y-66398341D01*
X181178821Y-66422567D01*
X181145144Y-66440568D01*
X181108604Y-66451653D01*
X181064462Y-66456000D01*
X179615538Y-66456000D01*
X179571396Y-66451653D01*
X179534856Y-66440568D01*
X179501179Y-66422567D01*
X179471659Y-66398341D01*
X179447433Y-66368821D01*
X179429432Y-66335144D01*
X179418347Y-66298604D01*
X179414000Y-66254462D01*
X179414000Y-65305538D01*
X179418347Y-65261396D01*
X179429432Y-65224856D01*
X179447433Y-65191179D01*
X179471659Y-65161659D01*
X179501179Y-65137433D01*
X179534856Y-65119432D01*
X179571396Y-65108347D01*
X179615538Y-65104000D01*
X181064462Y-65104000D01*
X181108604Y-65108347D01*
G37*
G36*
X172218604Y-65108347D02*
G01*
X172255144Y-65119432D01*
X172288821Y-65137433D01*
X172318341Y-65161659D01*
X172342567Y-65191179D01*
X172360568Y-65224856D01*
X172371653Y-65261396D01*
X172376000Y-65305538D01*
X172376000Y-66254462D01*
X172371653Y-66298604D01*
X172360568Y-66335144D01*
X172342567Y-66368821D01*
X172318341Y-66398341D01*
X172288821Y-66422567D01*
X172255144Y-66440568D01*
X172218604Y-66451653D01*
X172174462Y-66456000D01*
X170725538Y-66456000D01*
X170681396Y-66451653D01*
X170644856Y-66440568D01*
X170611179Y-66422567D01*
X170581659Y-66398341D01*
X170557433Y-66368821D01*
X170539432Y-66335144D01*
X170528347Y-66298604D01*
X170524000Y-66254462D01*
X170524000Y-65305538D01*
X170528347Y-65261396D01*
X170539432Y-65224856D01*
X170557433Y-65191179D01*
X170581659Y-65161659D01*
X170611179Y-65137433D01*
X170644856Y-65119432D01*
X170681396Y-65108347D01*
X170725538Y-65104000D01*
X172174462Y-65104000D01*
X172218604Y-65108347D01*
G37*
G36*
X163328604Y-65108347D02*
G01*
X163365144Y-65119432D01*
X163398821Y-65137433D01*
X163428341Y-65161659D01*
X163452567Y-65191179D01*
X163470568Y-65224856D01*
X163481653Y-65261396D01*
X163486000Y-65305538D01*
X163486000Y-66254462D01*
X163481653Y-66298604D01*
X163470568Y-66335144D01*
X163452567Y-66368821D01*
X163428341Y-66398341D01*
X163398821Y-66422567D01*
X163365144Y-66440568D01*
X163328604Y-66451653D01*
X163284462Y-66456000D01*
X161835538Y-66456000D01*
X161791396Y-66451653D01*
X161754856Y-66440568D01*
X161721179Y-66422567D01*
X161691659Y-66398341D01*
X161667433Y-66368821D01*
X161649432Y-66335144D01*
X161638347Y-66298604D01*
X161634000Y-66254462D01*
X161634000Y-65305538D01*
X161638347Y-65261396D01*
X161649432Y-65224856D01*
X161667433Y-65191179D01*
X161691659Y-65161659D01*
X161721179Y-65137433D01*
X161754856Y-65119432D01*
X161791396Y-65108347D01*
X161835538Y-65104000D01*
X163284462Y-65104000D01*
X163328604Y-65108347D01*
G37*
G36*
X154438604Y-65108347D02*
G01*
X154475144Y-65119432D01*
X154508821Y-65137433D01*
X154538341Y-65161659D01*
X154562567Y-65191179D01*
X154580568Y-65224856D01*
X154591653Y-65261396D01*
X154596000Y-65305538D01*
X154596000Y-66254462D01*
X154591653Y-66298604D01*
X154580568Y-66335144D01*
X154562567Y-66368821D01*
X154538341Y-66398341D01*
X154508821Y-66422567D01*
X154475144Y-66440568D01*
X154438604Y-66451653D01*
X154394462Y-66456000D01*
X152945538Y-66456000D01*
X152901396Y-66451653D01*
X152864856Y-66440568D01*
X152831179Y-66422567D01*
X152801659Y-66398341D01*
X152777433Y-66368821D01*
X152759432Y-66335144D01*
X152748347Y-66298604D01*
X152744000Y-66254462D01*
X152744000Y-65305538D01*
X152748347Y-65261396D01*
X152759432Y-65224856D01*
X152777433Y-65191179D01*
X152801659Y-65161659D01*
X152831179Y-65137433D01*
X152864856Y-65119432D01*
X152901396Y-65108347D01*
X152945538Y-65104000D01*
X154394462Y-65104000D01*
X154438604Y-65108347D01*
G37*
G36*
X189998604Y-65108347D02*
G01*
X190035144Y-65119432D01*
X190068821Y-65137433D01*
X190098341Y-65161659D01*
X190122567Y-65191179D01*
X190140568Y-65224856D01*
X190151653Y-65261396D01*
X190156000Y-65305538D01*
X190156000Y-66254462D01*
X190151653Y-66298604D01*
X190140568Y-66335144D01*
X190122567Y-66368821D01*
X190098341Y-66398341D01*
X190068821Y-66422567D01*
X190035144Y-66440568D01*
X189998604Y-66451653D01*
X189954462Y-66456000D01*
X188505538Y-66456000D01*
X188461396Y-66451653D01*
X188424856Y-66440568D01*
X188391179Y-66422567D01*
X188361659Y-66398341D01*
X188337433Y-66368821D01*
X188319432Y-66335144D01*
X188308347Y-66298604D01*
X188304000Y-66254462D01*
X188304000Y-65305538D01*
X188308347Y-65261396D01*
X188319432Y-65224856D01*
X188337433Y-65191179D01*
X188361659Y-65161659D01*
X188391179Y-65137433D01*
X188424856Y-65119432D01*
X188461396Y-65108347D01*
X188505538Y-65104000D01*
X189954462Y-65104000D01*
X189998604Y-65108347D01*
G37*
G36*
X92208604Y-65108347D02*
G01*
X92245144Y-65119432D01*
X92278821Y-65137433D01*
X92308341Y-65161659D01*
X92332567Y-65191179D01*
X92350568Y-65224856D01*
X92361653Y-65261396D01*
X92366000Y-65305538D01*
X92366000Y-66254462D01*
X92361653Y-66298604D01*
X92350568Y-66335144D01*
X92332567Y-66368821D01*
X92308341Y-66398341D01*
X92278821Y-66422567D01*
X92245144Y-66440568D01*
X92208604Y-66451653D01*
X92164462Y-66456000D01*
X90715538Y-66456000D01*
X90671396Y-66451653D01*
X90634856Y-66440568D01*
X90601179Y-66422567D01*
X90571659Y-66398341D01*
X90547433Y-66368821D01*
X90529432Y-66335144D01*
X90518347Y-66298604D01*
X90514000Y-66254462D01*
X90514000Y-65305538D01*
X90518347Y-65261396D01*
X90529432Y-65224856D01*
X90547433Y-65191179D01*
X90571659Y-65161659D01*
X90601179Y-65137433D01*
X90634856Y-65119432D01*
X90671396Y-65108347D01*
X90715538Y-65104000D01*
X92164462Y-65104000D01*
X92208604Y-65108347D01*
G37*
G36*
X145548604Y-65108347D02*
G01*
X145585144Y-65119432D01*
X145618821Y-65137433D01*
X145648341Y-65161659D01*
X145672567Y-65191179D01*
X145690568Y-65224856D01*
X145701653Y-65261396D01*
X145706000Y-65305538D01*
X145706000Y-66254462D01*
X145701653Y-66298604D01*
X145690568Y-66335144D01*
X145672567Y-66368821D01*
X145648341Y-66398341D01*
X145618821Y-66422567D01*
X145585144Y-66440568D01*
X145548604Y-66451653D01*
X145504462Y-66456000D01*
X144055538Y-66456000D01*
X144011396Y-66451653D01*
X143974856Y-66440568D01*
X143941179Y-66422567D01*
X143911659Y-66398341D01*
X143887433Y-66368821D01*
X143869432Y-66335144D01*
X143858347Y-66298604D01*
X143854000Y-66254462D01*
X143854000Y-65305538D01*
X143858347Y-65261396D01*
X143869432Y-65224856D01*
X143887433Y-65191179D01*
X143911659Y-65161659D01*
X143941179Y-65137433D01*
X143974856Y-65119432D01*
X144011396Y-65108347D01*
X144055538Y-65104000D01*
X145504462Y-65104000D01*
X145548604Y-65108347D01*
G37*
G36*
X101098604Y-65108347D02*
G01*
X101135144Y-65119432D01*
X101168821Y-65137433D01*
X101198341Y-65161659D01*
X101222567Y-65191179D01*
X101240568Y-65224856D01*
X101251653Y-65261396D01*
X101256000Y-65305538D01*
X101256000Y-66254462D01*
X101251653Y-66298604D01*
X101240568Y-66335144D01*
X101222567Y-66368821D01*
X101198341Y-66398341D01*
X101168821Y-66422567D01*
X101135144Y-66440568D01*
X101098604Y-66451653D01*
X101054462Y-66456000D01*
X99605538Y-66456000D01*
X99561396Y-66451653D01*
X99524856Y-66440568D01*
X99491179Y-66422567D01*
X99461659Y-66398341D01*
X99437433Y-66368821D01*
X99419432Y-66335144D01*
X99408347Y-66298604D01*
X99404000Y-66254462D01*
X99404000Y-65305538D01*
X99408347Y-65261396D01*
X99419432Y-65224856D01*
X99437433Y-65191179D01*
X99461659Y-65161659D01*
X99491179Y-65137433D01*
X99524856Y-65119432D01*
X99561396Y-65108347D01*
X99605538Y-65104000D01*
X101054462Y-65104000D01*
X101098604Y-65108347D01*
G37*
G36*
X109988604Y-65108347D02*
G01*
X110025144Y-65119432D01*
X110058821Y-65137433D01*
X110088341Y-65161659D01*
X110112567Y-65191179D01*
X110130568Y-65224856D01*
X110141653Y-65261396D01*
X110146000Y-65305538D01*
X110146000Y-66254462D01*
X110141653Y-66298604D01*
X110130568Y-66335144D01*
X110112567Y-66368821D01*
X110088341Y-66398341D01*
X110058821Y-66422567D01*
X110025144Y-66440568D01*
X109988604Y-66451653D01*
X109944462Y-66456000D01*
X108495538Y-66456000D01*
X108451396Y-66451653D01*
X108414856Y-66440568D01*
X108381179Y-66422567D01*
X108351659Y-66398341D01*
X108327433Y-66368821D01*
X108309432Y-66335144D01*
X108298347Y-66298604D01*
X108294000Y-66254462D01*
X108294000Y-65305538D01*
X108298347Y-65261396D01*
X108309432Y-65224856D01*
X108327433Y-65191179D01*
X108351659Y-65161659D01*
X108381179Y-65137433D01*
X108414856Y-65119432D01*
X108451396Y-65108347D01*
X108495538Y-65104000D01*
X109944462Y-65104000D01*
X109988604Y-65108347D01*
G37*
G36*
X136658604Y-65108347D02*
G01*
X136695144Y-65119432D01*
X136728821Y-65137433D01*
X136758341Y-65161659D01*
X136782567Y-65191179D01*
X136800568Y-65224856D01*
X136811653Y-65261396D01*
X136816000Y-65305538D01*
X136816000Y-66254462D01*
X136811653Y-66298604D01*
X136800568Y-66335144D01*
X136782567Y-66368821D01*
X136758341Y-66398341D01*
X136728821Y-66422567D01*
X136695144Y-66440568D01*
X136658604Y-66451653D01*
X136614462Y-66456000D01*
X135165538Y-66456000D01*
X135121396Y-66451653D01*
X135084856Y-66440568D01*
X135051179Y-66422567D01*
X135021659Y-66398341D01*
X134997433Y-66368821D01*
X134979432Y-66335144D01*
X134968347Y-66298604D01*
X134964000Y-66254462D01*
X134964000Y-65305538D01*
X134968347Y-65261396D01*
X134979432Y-65224856D01*
X134997433Y-65191179D01*
X135021659Y-65161659D01*
X135051179Y-65137433D01*
X135084856Y-65119432D01*
X135121396Y-65108347D01*
X135165538Y-65104000D01*
X136614462Y-65104000D01*
X136658604Y-65108347D01*
G37*
G36*
X118878604Y-65108347D02*
G01*
X118915144Y-65119432D01*
X118948821Y-65137433D01*
X118978341Y-65161659D01*
X119002567Y-65191179D01*
X119020568Y-65224856D01*
X119031653Y-65261396D01*
X119036000Y-65305538D01*
X119036000Y-66254462D01*
X119031653Y-66298604D01*
X119020568Y-66335144D01*
X119002567Y-66368821D01*
X118978341Y-66398341D01*
X118948821Y-66422567D01*
X118915144Y-66440568D01*
X118878604Y-66451653D01*
X118834462Y-66456000D01*
X117385538Y-66456000D01*
X117341396Y-66451653D01*
X117304856Y-66440568D01*
X117271179Y-66422567D01*
X117241659Y-66398341D01*
X117217433Y-66368821D01*
X117199432Y-66335144D01*
X117188347Y-66298604D01*
X117184000Y-66254462D01*
X117184000Y-65305538D01*
X117188347Y-65261396D01*
X117199432Y-65224856D01*
X117217433Y-65191179D01*
X117241659Y-65161659D01*
X117271179Y-65137433D01*
X117304856Y-65119432D01*
X117341396Y-65108347D01*
X117385538Y-65104000D01*
X118834462Y-65104000D01*
X118878604Y-65108347D01*
G37*
G36*
X127768604Y-65108347D02*
G01*
X127805144Y-65119432D01*
X127838821Y-65137433D01*
X127868341Y-65161659D01*
X127892567Y-65191179D01*
X127910568Y-65224856D01*
X127921653Y-65261396D01*
X127926000Y-65305538D01*
X127926000Y-66254462D01*
X127921653Y-66298604D01*
X127910568Y-66335144D01*
X127892567Y-66368821D01*
X127868341Y-66398341D01*
X127838821Y-66422567D01*
X127805144Y-66440568D01*
X127768604Y-66451653D01*
X127724462Y-66456000D01*
X126275538Y-66456000D01*
X126231396Y-66451653D01*
X126194856Y-66440568D01*
X126161179Y-66422567D01*
X126131659Y-66398341D01*
X126107433Y-66368821D01*
X126089432Y-66335144D01*
X126078347Y-66298604D01*
X126074000Y-66254462D01*
X126074000Y-65305538D01*
X126078347Y-65261396D01*
X126089432Y-65224856D01*
X126107433Y-65191179D01*
X126131659Y-65161659D01*
X126161179Y-65137433D01*
X126194856Y-65119432D01*
X126231396Y-65108347D01*
X126275538Y-65104000D01*
X127724462Y-65104000D01*
X127768604Y-65108347D01*
G37*
M02*
