G04 #@! TF.GenerationSoftware,KiCad,Pcbnew,5.1.5-52549c5~84~ubuntu18.04.1*
G04 #@! TF.CreationDate,2020-05-17T15:51:58-07:00*
G04 #@! TF.ProjectId,program_counter,70726f67-7261-46d5-9f63-6f756e746572,rev?*
G04 #@! TF.SameCoordinates,Original*
G04 #@! TF.FileFunction,Copper,L2,Inr*
G04 #@! TF.FilePolarity,Positive*
%FSLAX46Y46*%
G04 Gerber Fmt 4.6, Leading zero omitted, Abs format (unit mm)*
G04 Created by KiCad (PCBNEW 5.1.5-52549c5~84~ubuntu18.04.1) date 2020-05-17 15:51:58*
%MOMM*%
%LPD*%
G04 APERTURE LIST*
%ADD10C,4.000000*%
%ADD11C,1.600000*%
%ADD12R,1.600000X1.600000*%
%ADD13C,1.800000*%
%ADD14R,1.800000X1.800000*%
%ADD15C,6.000000*%
%ADD16C,0.800000*%
%ADD17C,0.250000*%
G04 APERTURE END LIST*
D10*
X72240000Y-129070000D03*
X72240000Y-65570000D03*
D11*
X70820000Y-120865000D03*
X70820000Y-118095000D03*
X70820000Y-115325000D03*
X70820000Y-112555000D03*
X70820000Y-109785000D03*
X70820000Y-107015000D03*
X70820000Y-104245000D03*
X70820000Y-101475000D03*
X70820000Y-98705000D03*
X70820000Y-95935000D03*
X70820000Y-93165000D03*
X70820000Y-90395000D03*
X70820000Y-87625000D03*
X70820000Y-84855000D03*
X70820000Y-82085000D03*
X70820000Y-79315000D03*
X70820000Y-76545000D03*
X70820000Y-73775000D03*
X73660000Y-122250000D03*
X73660000Y-119480000D03*
X73660000Y-116710000D03*
X73660000Y-113940000D03*
X73660000Y-111170000D03*
X73660000Y-108400000D03*
X73660000Y-105630000D03*
X73660000Y-102860000D03*
X73660000Y-100090000D03*
X73660000Y-97320000D03*
X73660000Y-94550000D03*
X73660000Y-91780000D03*
X73660000Y-89010000D03*
X73660000Y-86240000D03*
X73660000Y-83470000D03*
X73660000Y-80700000D03*
X73660000Y-77930000D03*
X73660000Y-75160000D03*
D12*
X73660000Y-72390000D03*
D13*
X228600000Y-76200000D03*
D14*
X228600000Y-73660000D03*
D11*
X228045000Y-109220000D03*
X233045000Y-109220000D03*
D13*
X207010000Y-76200000D03*
D14*
X207010000Y-73660000D03*
D13*
X91440000Y-76200000D03*
D14*
X91440000Y-73660000D03*
D13*
X100330000Y-76200000D03*
D14*
X100330000Y-73660000D03*
D13*
X109220000Y-76200000D03*
D14*
X109220000Y-73660000D03*
D13*
X118110000Y-76200000D03*
D14*
X118110000Y-73660000D03*
D13*
X127000000Y-76200000D03*
D14*
X127000000Y-73660000D03*
D13*
X135890000Y-76200000D03*
D14*
X135890000Y-73660000D03*
D13*
X144780000Y-76200000D03*
D14*
X144780000Y-73660000D03*
D13*
X153670000Y-76200000D03*
D14*
X153670000Y-73660000D03*
D13*
X162560000Y-76200000D03*
D14*
X162560000Y-73660000D03*
D13*
X171450000Y-76200000D03*
D14*
X171450000Y-73660000D03*
D13*
X180340000Y-76200000D03*
D14*
X180340000Y-73660000D03*
D13*
X189230000Y-76200000D03*
D14*
X189230000Y-73660000D03*
D13*
X198120000Y-76200000D03*
D14*
X198120000Y-73660000D03*
D13*
X215900000Y-76200000D03*
D14*
X215900000Y-73660000D03*
D11*
X229275000Y-116840000D03*
D12*
X231775000Y-116840000D03*
D15*
X236220000Y-66040000D03*
X236220000Y-128270000D03*
D16*
X88490000Y-121510000D03*
X97380000Y-121510000D03*
X106270000Y-121510000D03*
X115160000Y-121510000D03*
X124050000Y-121510000D03*
X132940000Y-121510000D03*
X141830000Y-121510000D03*
X150720000Y-121510000D03*
X159610000Y-121510000D03*
X168500000Y-121510000D03*
X177390000Y-121510000D03*
X186280000Y-121510000D03*
X195170000Y-121510000D03*
X204060000Y-121510000D03*
X212950000Y-121510000D03*
X88490000Y-111350000D03*
X97380000Y-111350000D03*
X106270000Y-111350000D03*
X115160000Y-111350000D03*
X124050000Y-111350000D03*
X132940000Y-111350000D03*
X141830000Y-111350000D03*
X150720000Y-111350000D03*
X159610000Y-111350000D03*
X168500000Y-111350000D03*
X177390000Y-111350000D03*
X186280000Y-111350000D03*
X195170000Y-111350000D03*
X204060000Y-111350000D03*
X212950000Y-111350000D03*
X88490000Y-101190000D03*
X97380000Y-101190000D03*
X106270000Y-101190000D03*
X115160000Y-101190000D03*
X124050000Y-101190000D03*
X132940000Y-101190000D03*
X141830000Y-101190000D03*
X150720000Y-101190000D03*
X159610000Y-101190000D03*
X168500000Y-101190000D03*
X177390000Y-101190000D03*
X186280000Y-101190000D03*
X195170000Y-101190000D03*
X204060000Y-101190000D03*
X212950000Y-101190000D03*
X88490000Y-91030000D03*
X97380000Y-91030000D03*
X106270000Y-91030000D03*
X115160000Y-91030000D03*
X124050000Y-91030000D03*
X132940000Y-91030000D03*
X141830000Y-91030000D03*
X150720000Y-91030000D03*
X159610000Y-91030000D03*
X168500000Y-91030000D03*
X177390000Y-91030000D03*
X186280000Y-91030000D03*
X195170000Y-91030000D03*
X204060000Y-91030000D03*
X212950000Y-91030000D03*
X88490000Y-80870000D03*
X97380000Y-80870000D03*
X106270000Y-80870000D03*
X115160000Y-80870000D03*
X124050000Y-80870000D03*
X132940000Y-80870000D03*
X141830000Y-80870000D03*
X150720000Y-80870000D03*
X159610000Y-80870000D03*
X168500000Y-80870000D03*
X177390000Y-80870000D03*
X186280000Y-80870000D03*
X195170000Y-80870000D03*
X204060000Y-80870000D03*
X212950000Y-80870000D03*
X231140000Y-96520000D03*
X219075000Y-128905000D03*
X210185000Y-128905000D03*
X201295000Y-128905000D03*
X192405000Y-128905000D03*
X183515000Y-128905000D03*
X174625000Y-128905000D03*
X165735000Y-128905000D03*
X156845000Y-128905000D03*
X147955000Y-128905000D03*
X139065000Y-128905000D03*
X130175000Y-128905000D03*
X121285000Y-128905000D03*
X112395000Y-128905000D03*
X103505000Y-128905000D03*
X94615000Y-128905000D03*
X217200000Y-113000000D03*
X208310000Y-113000000D03*
X199420000Y-113000000D03*
X190530000Y-113000000D03*
X181640000Y-113000000D03*
X172750000Y-113000000D03*
X163860000Y-113000000D03*
X154970000Y-113000000D03*
X146080000Y-113000000D03*
X137190000Y-113000000D03*
X128300000Y-113000000D03*
X119410000Y-113000000D03*
X110520000Y-113000000D03*
X101630000Y-113000000D03*
X92740000Y-113000000D03*
X76200000Y-101600000D03*
X87630000Y-113030000D03*
X221615000Y-113030000D03*
X100965000Y-109855000D03*
X118745000Y-109855000D03*
X136525000Y-109855000D03*
X154305000Y-109855000D03*
X172085000Y-109855000D03*
X189865000Y-109855000D03*
X207645000Y-109855000D03*
X90805000Y-98425000D03*
X99695000Y-98425000D03*
X108585000Y-98425000D03*
X117475000Y-98425000D03*
X126365000Y-98425000D03*
X135255000Y-98425000D03*
X144145000Y-98425000D03*
X153035000Y-98425000D03*
X161925000Y-98425000D03*
X170815000Y-98425000D03*
X179705000Y-98425000D03*
X188595000Y-98425000D03*
X197485000Y-98425000D03*
X206375000Y-98425000D03*
X215265000Y-98425000D03*
X222885000Y-98425000D03*
X87630000Y-98425000D03*
X92075000Y-109855000D03*
X109855000Y-109855000D03*
X127635000Y-109855000D03*
X145415000Y-109855000D03*
X163195000Y-109855000D03*
X180975000Y-109855000D03*
X198755000Y-109855000D03*
X216535000Y-109855000D03*
X213995000Y-123795000D03*
X217200000Y-125760000D03*
X215900000Y-123825000D03*
X212365000Y-123550000D03*
X214630000Y-114300000D03*
X92090000Y-118730000D03*
X100980000Y-118730000D03*
X109870000Y-118730000D03*
X118760000Y-118730000D03*
X127650000Y-118730000D03*
X136540000Y-118730000D03*
X145430000Y-118730000D03*
X154320000Y-118730000D03*
X163210000Y-118730000D03*
X172100000Y-118730000D03*
X180990000Y-118730000D03*
X189880000Y-118730000D03*
X198770000Y-118730000D03*
X207660000Y-118730000D03*
X216550000Y-118730000D03*
X222885000Y-118745000D03*
X90805000Y-88265000D03*
X99695000Y-88265000D03*
X108585000Y-88265000D03*
X117475000Y-88265000D03*
X126365000Y-88265000D03*
X135255000Y-88265000D03*
X144145000Y-88265000D03*
X153035000Y-88265000D03*
X161925000Y-88265000D03*
X170815000Y-88265000D03*
X179705000Y-88265000D03*
X188595000Y-88265000D03*
X197485000Y-88265000D03*
X206375000Y-88265000D03*
X215265000Y-88265000D03*
X226695000Y-88265000D03*
X217805000Y-95350000D03*
X214600000Y-92680000D03*
X215250000Y-95265000D03*
X217200000Y-92680000D03*
X89535000Y-123795000D03*
X92740000Y-125760000D03*
X91440000Y-123825000D03*
X87905000Y-123550000D03*
X90140000Y-92680000D03*
X93345000Y-95350000D03*
X92740000Y-92680000D03*
X90790000Y-95265000D03*
X90140000Y-82520000D03*
X92740000Y-85120000D03*
X98552000Y-113792000D03*
X100330000Y-123825000D03*
X96795000Y-123550000D03*
X99680000Y-95265000D03*
X101630000Y-92680000D03*
X101630000Y-85120000D03*
X99030000Y-82520000D03*
X107315000Y-123795000D03*
X110520000Y-125760000D03*
X109220000Y-123825000D03*
X105685000Y-123550000D03*
X107442000Y-113792000D03*
X111125000Y-95350000D03*
X107920000Y-92680000D03*
X108570000Y-95265000D03*
X110520000Y-92680000D03*
X116205000Y-123795000D03*
X119410000Y-125760000D03*
X118110000Y-123825000D03*
X114575000Y-123550000D03*
X116332000Y-113792000D03*
X120015000Y-95350000D03*
X116810000Y-92680000D03*
X117460000Y-95265000D03*
X119410000Y-92680000D03*
X119410000Y-85120000D03*
X116810000Y-82520000D03*
X127000000Y-123825000D03*
X123465000Y-123550000D03*
X125222000Y-113792000D03*
X126350000Y-95265000D03*
X128300000Y-92680000D03*
X128300000Y-85120000D03*
X125700000Y-82520000D03*
X133985000Y-123795000D03*
X137190000Y-125760000D03*
X135890000Y-123825000D03*
X132355000Y-123550000D03*
X134112000Y-113792000D03*
X137795000Y-95350000D03*
X134590000Y-92680000D03*
X135240000Y-95265000D03*
X137190000Y-92680000D03*
X142875000Y-123795000D03*
X146080000Y-125760000D03*
X144780000Y-123825000D03*
X141245000Y-123550000D03*
X143002000Y-113792000D03*
X146685000Y-95350000D03*
X143480000Y-92680000D03*
X144130000Y-95265000D03*
X146080000Y-92680000D03*
X146080000Y-85120000D03*
X143480000Y-82520000D03*
X153670000Y-123825000D03*
X150135000Y-123550000D03*
X151892000Y-113792000D03*
X153020000Y-95265000D03*
X154970000Y-92680000D03*
X154970000Y-85120000D03*
X152370000Y-82520000D03*
X160655000Y-123795000D03*
X163860000Y-125760000D03*
X162560000Y-123825000D03*
X159025000Y-123550000D03*
X160782000Y-113792000D03*
X164465000Y-95350000D03*
X161260000Y-92680000D03*
X161910000Y-95265000D03*
X163860000Y-92680000D03*
X217200000Y-123795000D03*
X213360000Y-125845000D03*
X220345000Y-123190000D03*
X213544990Y-129990010D03*
X212725000Y-105410000D03*
X203835000Y-105410000D03*
X194945000Y-105410000D03*
X186055000Y-105410000D03*
X177165000Y-105410000D03*
X168275000Y-105410000D03*
X159385000Y-105410000D03*
X150495000Y-105410000D03*
X141605000Y-105410000D03*
X132715000Y-105410000D03*
X123825000Y-105410000D03*
X114935000Y-105410000D03*
X106045000Y-105410000D03*
X97155000Y-105410000D03*
X88265000Y-105410000D03*
X87630000Y-93345000D03*
X208310000Y-123795000D03*
X204470000Y-125845000D03*
X215250000Y-103520000D03*
X216550000Y-95265000D03*
X217200000Y-85120000D03*
X214600000Y-82520000D03*
X92740000Y-123795000D03*
X88900000Y-125845000D03*
X92090000Y-95265000D03*
X90790000Y-103520000D03*
X98425000Y-123795000D03*
X101630000Y-125760000D03*
X97790000Y-125845000D03*
X101630000Y-123795000D03*
X99680000Y-103520000D03*
X100980000Y-95265000D03*
X102235000Y-95350000D03*
X99030000Y-92680000D03*
X110520000Y-123795000D03*
X106680000Y-125845000D03*
X108570000Y-103520000D03*
X109870000Y-95265000D03*
X110520000Y-85120000D03*
X107920000Y-82520000D03*
X119410000Y-123795000D03*
X115570000Y-125845000D03*
X117460000Y-103520000D03*
X118760000Y-95265000D03*
X125095000Y-123795000D03*
X128300000Y-125760000D03*
X128300000Y-123795000D03*
X124460000Y-125845000D03*
X126350000Y-103520000D03*
X127650000Y-95265000D03*
X128905000Y-95350000D03*
X125700000Y-92680000D03*
X137190000Y-123795000D03*
X133350000Y-125845000D03*
X135240000Y-103520000D03*
X136540000Y-95265000D03*
X137190000Y-85120000D03*
X134590000Y-82520000D03*
X146080000Y-123795000D03*
X142240000Y-125845000D03*
X144130000Y-103520000D03*
X145430000Y-95265000D03*
X151765000Y-123795000D03*
X154970000Y-125760000D03*
X154970000Y-123795000D03*
X151130000Y-125845000D03*
X153020000Y-103520000D03*
X154320000Y-95265000D03*
X155575000Y-95350000D03*
X152370000Y-92680000D03*
X163860000Y-123795000D03*
X160020000Y-125845000D03*
X161910000Y-103520000D03*
X163210000Y-95265000D03*
X163860000Y-85120000D03*
X161260000Y-82520000D03*
X169545000Y-123795000D03*
X172750000Y-125760000D03*
X171450000Y-123825000D03*
X167915000Y-123550000D03*
X169672000Y-113792000D03*
X172750000Y-123795000D03*
X168910000Y-125845000D03*
X170800000Y-103520000D03*
X172100000Y-95265000D03*
X173355000Y-95350000D03*
X170150000Y-92680000D03*
X170800000Y-95265000D03*
X172750000Y-92680000D03*
X172750000Y-85120000D03*
X170150000Y-82520000D03*
X178435000Y-123795000D03*
X181640000Y-125760000D03*
X180340000Y-123825000D03*
X176805000Y-123550000D03*
X179070000Y-114300000D03*
X181640000Y-123795000D03*
X177800000Y-125845000D03*
X179690000Y-103520000D03*
X180990000Y-95265000D03*
X182245000Y-95350000D03*
X179040000Y-92680000D03*
X179690000Y-95265000D03*
X181640000Y-92680000D03*
X181640000Y-85120000D03*
X179040000Y-82520000D03*
X187325000Y-123795000D03*
X190530000Y-125760000D03*
X189230000Y-123825000D03*
X185695000Y-123550000D03*
X187960000Y-114300000D03*
X190530000Y-123795000D03*
X186690000Y-125845000D03*
X188580000Y-103520000D03*
X189880000Y-95265000D03*
X191135000Y-95350000D03*
X187930000Y-92680000D03*
X188580000Y-95265000D03*
X190530000Y-92680000D03*
X190530000Y-85120000D03*
X187930000Y-82520000D03*
X196215000Y-123795000D03*
X199420000Y-125760000D03*
X198120000Y-123825000D03*
X194585000Y-123550000D03*
X196850000Y-114300000D03*
X199420000Y-123795000D03*
X195580000Y-125845000D03*
X197470000Y-103520000D03*
X198770000Y-95265000D03*
X200025000Y-95350000D03*
X196820000Y-92680000D03*
X197470000Y-95265000D03*
X199420000Y-92680000D03*
X199420000Y-85120000D03*
X196820000Y-82520000D03*
X205105000Y-123795000D03*
X208310000Y-125760000D03*
X207010000Y-123825000D03*
X203475000Y-123550000D03*
X205740000Y-114300000D03*
X206360000Y-103520000D03*
X207660000Y-95265000D03*
X208915000Y-95350000D03*
X205710000Y-92680000D03*
X206360000Y-95265000D03*
X208310000Y-92680000D03*
X208310000Y-85120000D03*
X205710000Y-82520000D03*
D17*
X70820000Y-73775000D02*
X83935000Y-73775000D01*
X83935000Y-73775000D02*
X85725000Y-75565000D01*
X100565001Y-110254999D02*
X100965000Y-109855000D01*
X96614989Y-114205011D02*
X100565001Y-110254999D01*
X87095599Y-114205011D02*
X96614989Y-114205011D01*
X85725000Y-112834412D02*
X87095599Y-114205011D01*
X85725000Y-75565000D02*
X85725000Y-112834412D01*
X70820000Y-76545000D02*
X83530000Y-76545000D01*
X84639990Y-77654990D02*
X84639990Y-113022222D01*
X83530000Y-76545000D02*
X84639990Y-77654990D01*
X118345001Y-110254999D02*
X118745000Y-109855000D01*
X86722799Y-115105031D02*
X113494969Y-115105031D01*
X113494969Y-115105031D02*
X118345001Y-110254999D01*
X84639990Y-113022222D02*
X86722799Y-115105031D01*
X83739972Y-80010001D02*
X83739972Y-113395024D01*
X136125001Y-110254999D02*
X136525000Y-109855000D01*
X70820000Y-79315000D02*
X83044971Y-79315000D01*
X83739972Y-113395024D02*
X86349999Y-116005051D01*
X83044971Y-79315000D02*
X83739972Y-80010001D01*
X86349999Y-116005051D02*
X130374949Y-116005051D01*
X130374949Y-116005051D02*
X136125001Y-110254999D01*
X70820000Y-82085000D02*
X81104952Y-82085000D01*
X82839952Y-83820000D02*
X82839953Y-113956363D01*
X81104952Y-82085000D02*
X82839952Y-83820000D01*
X153905001Y-110254999D02*
X154305000Y-109855000D01*
X147254929Y-116905071D02*
X153905001Y-110254999D01*
X85788661Y-116905071D02*
X147254929Y-116905071D01*
X82839953Y-113956363D02*
X85788661Y-116905071D01*
X70820000Y-84855000D02*
X81045000Y-84855000D01*
X81939934Y-85749934D02*
X81939935Y-114329165D01*
X81045000Y-84855000D02*
X81939934Y-85749934D01*
X171685001Y-110254999D02*
X172085000Y-109855000D01*
X164134909Y-117805091D02*
X171685001Y-110254999D01*
X85415861Y-117805091D02*
X164134909Y-117805091D01*
X81939935Y-114329165D02*
X85415861Y-117805091D01*
X189865000Y-110928002D02*
X189865000Y-110420685D01*
X84542008Y-119905010D02*
X180887992Y-119905010D01*
X73940002Y-87625000D02*
X73945002Y-87630000D01*
X73945002Y-87630000D02*
X80645000Y-87630000D01*
X80645000Y-87630000D02*
X81039916Y-88024916D01*
X189865000Y-110420685D02*
X189865000Y-109855000D01*
X70820000Y-87625000D02*
X73940002Y-87625000D01*
X81039916Y-88024916D02*
X81039917Y-116402919D01*
X180887992Y-119905010D02*
X189865000Y-110928002D01*
X81039917Y-116402919D02*
X84542008Y-119905010D01*
X70820000Y-90395000D02*
X78965000Y-90395000D01*
X207645000Y-110420685D02*
X207645000Y-109855000D01*
X196338001Y-122235001D02*
X207645000Y-110928002D01*
X85599179Y-122235001D02*
X196338001Y-122235001D01*
X80139899Y-116775721D02*
X85599179Y-122235001D01*
X80139898Y-91569898D02*
X80139899Y-116775721D01*
X207645000Y-110928002D02*
X207645000Y-110420685D01*
X78965000Y-90395000D02*
X80139898Y-91569898D01*
X87630000Y-98425000D02*
X222885000Y-98425000D01*
X88174999Y-113755001D02*
X92075000Y-109855000D01*
X87281999Y-113755001D02*
X88174999Y-113755001D01*
X86360000Y-112833002D02*
X87281999Y-113755001D01*
X86360000Y-74930000D02*
X86360000Y-112833002D01*
X73660000Y-72390000D02*
X83820000Y-72390000D01*
X83820000Y-72390000D02*
X86360000Y-74930000D01*
X73660000Y-75160000D02*
X84050000Y-75160000D01*
X84050000Y-75160000D02*
X85090000Y-76200000D01*
X109455001Y-110254999D02*
X109855000Y-109855000D01*
X105054979Y-114655021D02*
X109455001Y-110254999D01*
X86909199Y-114655021D02*
X105054979Y-114655021D01*
X85090000Y-112835822D02*
X86909199Y-114655021D01*
X85090000Y-76200000D02*
X85090000Y-112835822D01*
X73660000Y-77930000D02*
X84014980Y-77930000D01*
X84189980Y-78105000D02*
X84189981Y-113208623D01*
X84014980Y-77930000D02*
X84189980Y-78105000D01*
X127235001Y-110254999D02*
X127635000Y-109855000D01*
X121934959Y-115555041D02*
X127235001Y-110254999D01*
X86536399Y-115555041D02*
X121934959Y-115555041D01*
X84189981Y-113208623D02*
X86536399Y-115555041D01*
X73660000Y-80700000D02*
X81970000Y-80700000D01*
X83289962Y-82019962D02*
X83289962Y-113769962D01*
X81970000Y-80700000D02*
X83289962Y-82019962D01*
X145015001Y-110254999D02*
X145415000Y-109855000D01*
X138814939Y-116455061D02*
X145015001Y-110254999D01*
X85975061Y-116455061D02*
X138814939Y-116455061D01*
X83289962Y-113769962D02*
X85975061Y-116455061D01*
X81565000Y-83470000D02*
X82389944Y-84294944D01*
X73660000Y-83470000D02*
X81565000Y-83470000D01*
X82389944Y-84294944D02*
X82389944Y-114142764D01*
X162795001Y-110254999D02*
X163195000Y-109855000D01*
X155694919Y-117355081D02*
X162795001Y-110254999D01*
X85602261Y-117355081D02*
X155694919Y-117355081D01*
X82389944Y-114142764D02*
X85602261Y-117355081D01*
X180975000Y-110420685D02*
X180975000Y-109855000D01*
X180975000Y-110928002D02*
X180975000Y-110420685D01*
X73660000Y-86240000D02*
X80734925Y-86240000D01*
X80734925Y-86240000D02*
X81489926Y-86995001D01*
X81489926Y-115582928D02*
X85361999Y-119455001D01*
X81489926Y-86995001D02*
X81489926Y-115582928D01*
X85361999Y-119455001D02*
X172448001Y-119455001D01*
X172448001Y-119455001D02*
X180975000Y-110928002D01*
X73660000Y-89010000D02*
X79429907Y-89010000D01*
X79429907Y-89010000D02*
X80589908Y-90170001D01*
X80589908Y-90170001D02*
X80589908Y-116589320D01*
X198755000Y-110928002D02*
X198755000Y-110420685D01*
X189327982Y-120355020D02*
X198755000Y-110928002D01*
X198755000Y-110420685D02*
X198755000Y-109855000D01*
X84355608Y-120355020D02*
X189327982Y-120355020D01*
X80589908Y-116589320D02*
X84355608Y-120355020D01*
X216535000Y-110928002D02*
X216535000Y-110420685D01*
X204777992Y-122685010D02*
X216535000Y-110928002D01*
X85412778Y-122685010D02*
X204777992Y-122685010D01*
X73660000Y-91780000D02*
X74791370Y-91780000D01*
X74791370Y-91780000D02*
X75086370Y-92075000D01*
X75086370Y-92075000D02*
X79375000Y-92075000D01*
X79375000Y-92075000D02*
X79689890Y-92389890D01*
X216535000Y-110420685D02*
X216535000Y-109855000D01*
X79689890Y-92389890D02*
X79689890Y-116962122D01*
X79689890Y-116962122D02*
X85412778Y-122685010D01*
X226695000Y-88265000D02*
X90805000Y-88265000D01*
X214600000Y-92680000D02*
X215165685Y-92680000D01*
X215165685Y-92680000D02*
X217805000Y-95319315D01*
X93345000Y-95319315D02*
X93345000Y-95350000D01*
X90705685Y-92680000D02*
X93345000Y-95319315D01*
X90140000Y-92680000D02*
X90705685Y-92680000D01*
X107920000Y-92680000D02*
X108485685Y-92680000D01*
X108485685Y-92680000D02*
X111125000Y-95319315D01*
X116810000Y-92680000D02*
X117375685Y-92680000D01*
X117375685Y-92680000D02*
X120015000Y-95319315D01*
X134590000Y-92680000D02*
X135155685Y-92680000D01*
X135155685Y-92680000D02*
X137795000Y-95319315D01*
X143480000Y-92680000D02*
X144045685Y-92680000D01*
X144045685Y-92680000D02*
X146685000Y-95319315D01*
X161260000Y-92680000D02*
X161825685Y-92680000D01*
X161825685Y-92680000D02*
X164465000Y-95319315D01*
X212725000Y-105410000D02*
X88265000Y-105410000D01*
X87230001Y-93744999D02*
X87630000Y-93345000D01*
X86904999Y-94070001D02*
X87230001Y-93744999D01*
X86904999Y-104049999D02*
X86904999Y-94070001D01*
X88265000Y-105410000D02*
X86904999Y-104049999D01*
X99030000Y-92680000D02*
X99595685Y-92680000D01*
X99595685Y-92680000D02*
X102235000Y-95319315D01*
X125700000Y-92680000D02*
X126265685Y-92680000D01*
X126265685Y-92680000D02*
X128905000Y-95319315D01*
X152370000Y-92680000D02*
X152935685Y-92680000D01*
X152935685Y-92680000D02*
X155575000Y-95319315D01*
X170150000Y-92680000D02*
X170715685Y-92680000D01*
X170715685Y-92680000D02*
X173355000Y-95319315D01*
X179040000Y-92680000D02*
X179605685Y-92680000D01*
X179605685Y-92680000D02*
X182245000Y-95319315D01*
X187930000Y-92680000D02*
X188495685Y-92680000D01*
X188495685Y-92680000D02*
X191135000Y-95319315D01*
X196820000Y-92680000D02*
X197385685Y-92680000D01*
X197385685Y-92680000D02*
X200025000Y-95319315D01*
X205710000Y-92680000D02*
X206275685Y-92680000D01*
X206275685Y-92680000D02*
X208915000Y-95319315D01*
M02*
