G04 #@! TF.GenerationSoftware,KiCad,Pcbnew,5.1.5-52549c5~84~ubuntu18.04.1*
G04 #@! TF.CreationDate,2020-05-17T15:51:58-07:00*
G04 #@! TF.ProjectId,program_counter,70726f67-7261-46d5-9f63-6f756e746572,rev?*
G04 #@! TF.SameCoordinates,Original*
G04 #@! TF.FileFunction,Copper,L3,Inr*
G04 #@! TF.FilePolarity,Positive*
%FSLAX46Y46*%
G04 Gerber Fmt 4.6, Leading zero omitted, Abs format (unit mm)*
G04 Created by KiCad (PCBNEW 5.1.5-52549c5~84~ubuntu18.04.1) date 2020-05-17 15:51:58*
%MOMM*%
%LPD*%
G04 APERTURE LIST*
%ADD10C,4.000000*%
%ADD11C,1.600000*%
%ADD12R,1.600000X1.600000*%
%ADD13C,1.800000*%
%ADD14R,1.800000X1.800000*%
%ADD15C,6.000000*%
%ADD16C,0.800000*%
%ADD17C,0.250000*%
G04 APERTURE END LIST*
D10*
X72240000Y-129070000D03*
X72240000Y-65570000D03*
D11*
X70820000Y-120865000D03*
X70820000Y-118095000D03*
X70820000Y-115325000D03*
X70820000Y-112555000D03*
X70820000Y-109785000D03*
X70820000Y-107015000D03*
X70820000Y-104245000D03*
X70820000Y-101475000D03*
X70820000Y-98705000D03*
X70820000Y-95935000D03*
X70820000Y-93165000D03*
X70820000Y-90395000D03*
X70820000Y-87625000D03*
X70820000Y-84855000D03*
X70820000Y-82085000D03*
X70820000Y-79315000D03*
X70820000Y-76545000D03*
X70820000Y-73775000D03*
X73660000Y-122250000D03*
X73660000Y-119480000D03*
X73660000Y-116710000D03*
X73660000Y-113940000D03*
X73660000Y-111170000D03*
X73660000Y-108400000D03*
X73660000Y-105630000D03*
X73660000Y-102860000D03*
X73660000Y-100090000D03*
X73660000Y-97320000D03*
X73660000Y-94550000D03*
X73660000Y-91780000D03*
X73660000Y-89010000D03*
X73660000Y-86240000D03*
X73660000Y-83470000D03*
X73660000Y-80700000D03*
X73660000Y-77930000D03*
X73660000Y-75160000D03*
D12*
X73660000Y-72390000D03*
D13*
X228600000Y-76200000D03*
D14*
X228600000Y-73660000D03*
D11*
X228045000Y-109220000D03*
X233045000Y-109220000D03*
D13*
X207010000Y-76200000D03*
D14*
X207010000Y-73660000D03*
D13*
X91440000Y-76200000D03*
D14*
X91440000Y-73660000D03*
D13*
X100330000Y-76200000D03*
D14*
X100330000Y-73660000D03*
D13*
X109220000Y-76200000D03*
D14*
X109220000Y-73660000D03*
D13*
X118110000Y-76200000D03*
D14*
X118110000Y-73660000D03*
D13*
X127000000Y-76200000D03*
D14*
X127000000Y-73660000D03*
D13*
X135890000Y-76200000D03*
D14*
X135890000Y-73660000D03*
D13*
X144780000Y-76200000D03*
D14*
X144780000Y-73660000D03*
D13*
X153670000Y-76200000D03*
D14*
X153670000Y-73660000D03*
D13*
X162560000Y-76200000D03*
D14*
X162560000Y-73660000D03*
D13*
X171450000Y-76200000D03*
D14*
X171450000Y-73660000D03*
D13*
X180340000Y-76200000D03*
D14*
X180340000Y-73660000D03*
D13*
X189230000Y-76200000D03*
D14*
X189230000Y-73660000D03*
D13*
X198120000Y-76200000D03*
D14*
X198120000Y-73660000D03*
D13*
X215900000Y-76200000D03*
D14*
X215900000Y-73660000D03*
D11*
X229275000Y-116840000D03*
D12*
X231775000Y-116840000D03*
D15*
X236220000Y-66040000D03*
X236220000Y-128270000D03*
D16*
X88490000Y-121510000D03*
X97380000Y-121510000D03*
X106270000Y-121510000D03*
X115160000Y-121510000D03*
X124050000Y-121510000D03*
X132940000Y-121510000D03*
X141830000Y-121510000D03*
X150720000Y-121510000D03*
X159610000Y-121510000D03*
X168500000Y-121510000D03*
X177390000Y-121510000D03*
X186280000Y-121510000D03*
X195170000Y-121510000D03*
X204060000Y-121510000D03*
X212950000Y-121510000D03*
X88490000Y-111350000D03*
X97380000Y-111350000D03*
X106270000Y-111350000D03*
X115160000Y-111350000D03*
X124050000Y-111350000D03*
X132940000Y-111350000D03*
X141830000Y-111350000D03*
X150720000Y-111350000D03*
X159610000Y-111350000D03*
X168500000Y-111350000D03*
X177390000Y-111350000D03*
X186280000Y-111350000D03*
X195170000Y-111350000D03*
X204060000Y-111350000D03*
X212950000Y-111350000D03*
X88490000Y-101190000D03*
X97380000Y-101190000D03*
X106270000Y-101190000D03*
X115160000Y-101190000D03*
X124050000Y-101190000D03*
X132940000Y-101190000D03*
X141830000Y-101190000D03*
X150720000Y-101190000D03*
X159610000Y-101190000D03*
X168500000Y-101190000D03*
X177390000Y-101190000D03*
X186280000Y-101190000D03*
X195170000Y-101190000D03*
X204060000Y-101190000D03*
X212950000Y-101190000D03*
X88490000Y-91030000D03*
X97380000Y-91030000D03*
X106270000Y-91030000D03*
X115160000Y-91030000D03*
X124050000Y-91030000D03*
X132940000Y-91030000D03*
X141830000Y-91030000D03*
X150720000Y-91030000D03*
X159610000Y-91030000D03*
X168500000Y-91030000D03*
X177390000Y-91030000D03*
X186280000Y-91030000D03*
X195170000Y-91030000D03*
X204060000Y-91030000D03*
X212950000Y-91030000D03*
X88490000Y-80870000D03*
X97380000Y-80870000D03*
X106270000Y-80870000D03*
X115160000Y-80870000D03*
X124050000Y-80870000D03*
X132940000Y-80870000D03*
X141830000Y-80870000D03*
X150720000Y-80870000D03*
X159610000Y-80870000D03*
X168500000Y-80870000D03*
X177390000Y-80870000D03*
X186280000Y-80870000D03*
X195170000Y-80870000D03*
X204060000Y-80870000D03*
X212950000Y-80870000D03*
X231140000Y-96520000D03*
X219075000Y-128905000D03*
X210185000Y-128905000D03*
X201295000Y-128905000D03*
X192405000Y-128905000D03*
X183515000Y-128905000D03*
X174625000Y-128905000D03*
X165735000Y-128905000D03*
X156845000Y-128905000D03*
X147955000Y-128905000D03*
X139065000Y-128905000D03*
X130175000Y-128905000D03*
X121285000Y-128905000D03*
X112395000Y-128905000D03*
X103505000Y-128905000D03*
X94615000Y-128905000D03*
X217200000Y-113000000D03*
X208310000Y-113000000D03*
X199420000Y-113000000D03*
X190530000Y-113000000D03*
X181640000Y-113000000D03*
X172750000Y-113000000D03*
X163860000Y-113000000D03*
X154970000Y-113000000D03*
X146080000Y-113000000D03*
X137190000Y-113000000D03*
X128300000Y-113000000D03*
X119410000Y-113000000D03*
X110520000Y-113000000D03*
X101630000Y-113000000D03*
X92740000Y-113000000D03*
X76200000Y-101600000D03*
X87630000Y-113030000D03*
X221615000Y-113030000D03*
X100965000Y-109855000D03*
X118745000Y-109855000D03*
X136525000Y-109855000D03*
X154305000Y-109855000D03*
X172085000Y-109855000D03*
X189865000Y-109855000D03*
X207645000Y-109855000D03*
X90805000Y-98425000D03*
X99695000Y-98425000D03*
X108585000Y-98425000D03*
X117475000Y-98425000D03*
X126365000Y-98425000D03*
X135255000Y-98425000D03*
X144145000Y-98425000D03*
X153035000Y-98425000D03*
X161925000Y-98425000D03*
X170815000Y-98425000D03*
X179705000Y-98425000D03*
X188595000Y-98425000D03*
X197485000Y-98425000D03*
X206375000Y-98425000D03*
X215265000Y-98425000D03*
X222885000Y-98425000D03*
X87630000Y-98425000D03*
X92075000Y-109855000D03*
X109855000Y-109855000D03*
X127635000Y-109855000D03*
X145415000Y-109855000D03*
X163195000Y-109855000D03*
X180975000Y-109855000D03*
X198755000Y-109855000D03*
X216535000Y-109855000D03*
X213995000Y-123795000D03*
X217200000Y-125760000D03*
X215900000Y-123825000D03*
X212365000Y-123550000D03*
X214630000Y-114300000D03*
X92090000Y-118730000D03*
X100980000Y-118730000D03*
X109870000Y-118730000D03*
X118760000Y-118730000D03*
X127650000Y-118730000D03*
X136540000Y-118730000D03*
X145430000Y-118730000D03*
X154320000Y-118730000D03*
X163210000Y-118730000D03*
X172100000Y-118730000D03*
X180990000Y-118730000D03*
X189880000Y-118730000D03*
X198770000Y-118730000D03*
X207660000Y-118730000D03*
X216550000Y-118730000D03*
X222885000Y-118745000D03*
X90805000Y-88265000D03*
X99695000Y-88265000D03*
X108585000Y-88265000D03*
X117475000Y-88265000D03*
X126365000Y-88265000D03*
X135255000Y-88265000D03*
X144145000Y-88265000D03*
X153035000Y-88265000D03*
X161925000Y-88265000D03*
X170815000Y-88265000D03*
X179705000Y-88265000D03*
X188595000Y-88265000D03*
X197485000Y-88265000D03*
X206375000Y-88265000D03*
X215265000Y-88265000D03*
X226695000Y-88265000D03*
X217805000Y-95350000D03*
X214600000Y-92680000D03*
X215250000Y-95265000D03*
X217200000Y-92680000D03*
X89535000Y-123795000D03*
X92740000Y-125760000D03*
X91440000Y-123825000D03*
X87905000Y-123550000D03*
X90140000Y-92680000D03*
X93345000Y-95350000D03*
X92740000Y-92680000D03*
X90790000Y-95265000D03*
X90140000Y-82520000D03*
X92740000Y-85120000D03*
X98552000Y-113792000D03*
X100330000Y-123825000D03*
X96795000Y-123550000D03*
X99680000Y-95265000D03*
X101630000Y-92680000D03*
X101630000Y-85120000D03*
X99030000Y-82520000D03*
X107315000Y-123795000D03*
X110520000Y-125760000D03*
X109220000Y-123825000D03*
X105685000Y-123550000D03*
X107442000Y-113792000D03*
X111125000Y-95350000D03*
X107920000Y-92680000D03*
X108570000Y-95265000D03*
X110520000Y-92680000D03*
X116205000Y-123795000D03*
X119410000Y-125760000D03*
X118110000Y-123825000D03*
X114575000Y-123550000D03*
X116332000Y-113792000D03*
X120015000Y-95350000D03*
X116810000Y-92680000D03*
X117460000Y-95265000D03*
X119410000Y-92680000D03*
X119410000Y-85120000D03*
X116810000Y-82520000D03*
X127000000Y-123825000D03*
X123465000Y-123550000D03*
X125222000Y-113792000D03*
X126350000Y-95265000D03*
X128300000Y-92680000D03*
X128300000Y-85120000D03*
X125700000Y-82520000D03*
X133985000Y-123795000D03*
X137190000Y-125760000D03*
X135890000Y-123825000D03*
X132355000Y-123550000D03*
X134112000Y-113792000D03*
X137795000Y-95350000D03*
X134590000Y-92680000D03*
X135240000Y-95265000D03*
X137190000Y-92680000D03*
X142875000Y-123795000D03*
X146080000Y-125760000D03*
X144780000Y-123825000D03*
X141245000Y-123550000D03*
X143002000Y-113792000D03*
X146685000Y-95350000D03*
X143480000Y-92680000D03*
X144130000Y-95265000D03*
X146080000Y-92680000D03*
X146080000Y-85120000D03*
X143480000Y-82520000D03*
X153670000Y-123825000D03*
X150135000Y-123550000D03*
X151892000Y-113792000D03*
X153020000Y-95265000D03*
X154970000Y-92680000D03*
X154970000Y-85120000D03*
X152370000Y-82520000D03*
X160655000Y-123795000D03*
X163860000Y-125760000D03*
X162560000Y-123825000D03*
X159025000Y-123550000D03*
X160782000Y-113792000D03*
X164465000Y-95350000D03*
X161260000Y-92680000D03*
X161910000Y-95265000D03*
X163860000Y-92680000D03*
X217200000Y-123795000D03*
X213360000Y-125845000D03*
X220345000Y-123190000D03*
X213544990Y-129990010D03*
X212725000Y-105410000D03*
X203835000Y-105410000D03*
X194945000Y-105410000D03*
X186055000Y-105410000D03*
X177165000Y-105410000D03*
X168275000Y-105410000D03*
X159385000Y-105410000D03*
X150495000Y-105410000D03*
X141605000Y-105410000D03*
X132715000Y-105410000D03*
X123825000Y-105410000D03*
X114935000Y-105410000D03*
X106045000Y-105410000D03*
X97155000Y-105410000D03*
X88265000Y-105410000D03*
X87630000Y-93345000D03*
X208310000Y-123795000D03*
X204470000Y-125845000D03*
X215250000Y-103520000D03*
X216550000Y-95265000D03*
X217200000Y-85120000D03*
X214600000Y-82520000D03*
X92740000Y-123795000D03*
X88900000Y-125845000D03*
X92090000Y-95265000D03*
X90790000Y-103520000D03*
X98425000Y-123795000D03*
X101630000Y-125760000D03*
X97790000Y-125845000D03*
X101630000Y-123795000D03*
X99680000Y-103520000D03*
X100980000Y-95265000D03*
X102235000Y-95350000D03*
X99030000Y-92680000D03*
X110520000Y-123795000D03*
X106680000Y-125845000D03*
X108570000Y-103520000D03*
X109870000Y-95265000D03*
X110520000Y-85120000D03*
X107920000Y-82520000D03*
X119410000Y-123795000D03*
X115570000Y-125845000D03*
X117460000Y-103520000D03*
X118760000Y-95265000D03*
X125095000Y-123795000D03*
X128300000Y-125760000D03*
X128300000Y-123795000D03*
X124460000Y-125845000D03*
X126350000Y-103520000D03*
X127650000Y-95265000D03*
X128905000Y-95350000D03*
X125700000Y-92680000D03*
X137190000Y-123795000D03*
X133350000Y-125845000D03*
X135240000Y-103520000D03*
X136540000Y-95265000D03*
X137190000Y-85120000D03*
X134590000Y-82520000D03*
X146080000Y-123795000D03*
X142240000Y-125845000D03*
X144130000Y-103520000D03*
X145430000Y-95265000D03*
X151765000Y-123795000D03*
X154970000Y-125760000D03*
X154970000Y-123795000D03*
X151130000Y-125845000D03*
X153020000Y-103520000D03*
X154320000Y-95265000D03*
X155575000Y-95350000D03*
X152370000Y-92680000D03*
X163860000Y-123795000D03*
X160020000Y-125845000D03*
X161910000Y-103520000D03*
X163210000Y-95265000D03*
X163860000Y-85120000D03*
X161260000Y-82520000D03*
X169545000Y-123795000D03*
X172750000Y-125760000D03*
X171450000Y-123825000D03*
X167915000Y-123550000D03*
X169672000Y-113792000D03*
X172750000Y-123795000D03*
X168910000Y-125845000D03*
X170800000Y-103520000D03*
X172100000Y-95265000D03*
X173355000Y-95350000D03*
X170150000Y-92680000D03*
X170800000Y-95265000D03*
X172750000Y-92680000D03*
X172750000Y-85120000D03*
X170150000Y-82520000D03*
X178435000Y-123795000D03*
X181640000Y-125760000D03*
X180340000Y-123825000D03*
X176805000Y-123550000D03*
X179070000Y-114300000D03*
X181640000Y-123795000D03*
X177800000Y-125845000D03*
X179690000Y-103520000D03*
X180990000Y-95265000D03*
X182245000Y-95350000D03*
X179040000Y-92680000D03*
X179690000Y-95265000D03*
X181640000Y-92680000D03*
X181640000Y-85120000D03*
X179040000Y-82520000D03*
X187325000Y-123795000D03*
X190530000Y-125760000D03*
X189230000Y-123825000D03*
X185695000Y-123550000D03*
X187960000Y-114300000D03*
X190530000Y-123795000D03*
X186690000Y-125845000D03*
X188580000Y-103520000D03*
X189880000Y-95265000D03*
X191135000Y-95350000D03*
X187930000Y-92680000D03*
X188580000Y-95265000D03*
X190530000Y-92680000D03*
X190530000Y-85120000D03*
X187930000Y-82520000D03*
X196215000Y-123795000D03*
X199420000Y-125760000D03*
X198120000Y-123825000D03*
X194585000Y-123550000D03*
X196850000Y-114300000D03*
X199420000Y-123795000D03*
X195580000Y-125845000D03*
X197470000Y-103520000D03*
X198770000Y-95265000D03*
X200025000Y-95350000D03*
X196820000Y-92680000D03*
X197470000Y-95265000D03*
X199420000Y-92680000D03*
X199420000Y-85120000D03*
X196820000Y-82520000D03*
X205105000Y-123795000D03*
X208310000Y-125760000D03*
X207010000Y-123825000D03*
X203475000Y-123550000D03*
X205740000Y-114300000D03*
X206360000Y-103520000D03*
X207660000Y-95265000D03*
X208915000Y-95350000D03*
X205710000Y-92680000D03*
X206360000Y-95265000D03*
X208310000Y-92680000D03*
X208310000Y-85120000D03*
X205710000Y-82520000D03*
D17*
X73660000Y-102860000D02*
X79304972Y-102860000D01*
X79929973Y-69834489D02*
X85339512Y-64424952D01*
X79304972Y-102860000D02*
X79929972Y-102235000D01*
X79929972Y-102235000D02*
X79929973Y-69834489D01*
X85339512Y-64424952D02*
X216189952Y-64424952D01*
X219075000Y-67310000D02*
X219075000Y-128905000D01*
X216189952Y-64424952D02*
X219075000Y-67310000D01*
X215900000Y-76200000D02*
X219075000Y-76200000D01*
X208280000Y-65405000D02*
X210185000Y-67310000D01*
X200026410Y-65405000D02*
X208280000Y-65405000D01*
X79004981Y-104245000D02*
X80379981Y-102870000D01*
X80379981Y-102870000D02*
X80379982Y-70020890D01*
X70820000Y-104245000D02*
X79004981Y-104245000D01*
X80379982Y-70020890D02*
X85525911Y-64874961D01*
X85525911Y-64874961D02*
X199496370Y-64874960D01*
X199496370Y-64874960D02*
X200026410Y-65405000D01*
X207010000Y-76200000D02*
X210185000Y-76200000D01*
X210185000Y-67310000D02*
X210185000Y-76200000D01*
X210185000Y-76200000D02*
X210185000Y-128905000D01*
X73660000Y-105630000D02*
X79339990Y-105630000D01*
X80829991Y-70207289D02*
X85712310Y-65324970D01*
X79339990Y-105630000D02*
X80829990Y-104140000D01*
X80829990Y-104140000D02*
X80829991Y-70207289D01*
X85712310Y-65324970D02*
X199309970Y-65324970D01*
X201295000Y-67310000D02*
X201295000Y-128905000D01*
X199309970Y-65324970D02*
X201295000Y-67310000D01*
X198120000Y-76200000D02*
X201295000Y-76200000D01*
X70820000Y-107015000D02*
X80310000Y-107015000D01*
X80310000Y-107015000D02*
X81280000Y-106045000D01*
X81280000Y-70393690D02*
X85898710Y-65774980D01*
X81280000Y-106045000D02*
X81280000Y-70393690D01*
X85898710Y-65774980D02*
X190234980Y-65774980D01*
X190234980Y-65774980D02*
X192405000Y-67945000D01*
X189230000Y-76200000D02*
X192405000Y-76200000D01*
X192405000Y-67945000D02*
X192405000Y-76200000D01*
X192405000Y-76200000D02*
X192405000Y-128905000D01*
X73660000Y-108400000D02*
X80749972Y-108400000D01*
X81834973Y-70475127D02*
X86085110Y-66224990D01*
X80749972Y-108400000D02*
X81834972Y-107315000D01*
X81834972Y-107315000D02*
X81834973Y-70475127D01*
X86085110Y-66224990D02*
X181794990Y-66224990D01*
X183515000Y-67945000D02*
X183515000Y-128905000D01*
X181794990Y-66224990D02*
X183515000Y-67945000D01*
X180340000Y-76200000D02*
X183515000Y-76200000D01*
X70820000Y-109785000D02*
X81084981Y-109785000D01*
X82284981Y-108585000D02*
X82284982Y-70661528D01*
X81084981Y-109785000D02*
X82284981Y-108585000D01*
X82284982Y-70661528D02*
X86271510Y-66675000D01*
X86271510Y-66675000D02*
X173355000Y-66675000D01*
X173355000Y-66675000D02*
X174625000Y-67945000D01*
X171450000Y-76200000D02*
X174625000Y-76200000D01*
X174625000Y-67945000D02*
X174625000Y-76200000D01*
X174625000Y-76200000D02*
X174625000Y-128905000D01*
X73660000Y-111170000D02*
X81235000Y-111170000D01*
X82734991Y-70847929D02*
X86272920Y-67310000D01*
X81235000Y-111170000D02*
X82734990Y-109670010D01*
X82734990Y-109670010D02*
X82734991Y-70847929D01*
X86272920Y-67310000D02*
X163830000Y-67310000D01*
X163830000Y-67310000D02*
X165735000Y-69215000D01*
X162560000Y-76200000D02*
X165735000Y-76200000D01*
X165735000Y-69215000D02*
X165735000Y-76200000D01*
X165735000Y-76200000D02*
X165735000Y-128905000D01*
X70820000Y-112555000D02*
X82390000Y-112555000D01*
X82390000Y-112555000D02*
X83185000Y-111760000D01*
X83185000Y-71034330D02*
X86354360Y-67864970D01*
X83185000Y-111760000D02*
X83185000Y-71034330D01*
X86354360Y-67864970D02*
X154859970Y-67864970D01*
X154859970Y-67864970D02*
X156845000Y-69850000D01*
X153670000Y-76200000D02*
X156845000Y-76200000D01*
X156845000Y-69850000D02*
X156845000Y-76200000D01*
X156845000Y-76200000D02*
X156845000Y-128905000D01*
X73660000Y-113940000D02*
X83384944Y-113940000D01*
X83659945Y-71195795D02*
X86540760Y-68314980D01*
X83384944Y-113940000D02*
X83659944Y-113665000D01*
X83659944Y-113665000D02*
X83659945Y-71195795D01*
X86540760Y-68314980D02*
X146419980Y-68314980D01*
X146419980Y-68314980D02*
X147955000Y-69850000D01*
X147955000Y-69850000D02*
X147955000Y-128905000D01*
X144780000Y-76200000D02*
X147955000Y-76200000D01*
X70820000Y-115325000D02*
X83084953Y-115325000D01*
X84109953Y-114300000D02*
X84109954Y-71382196D01*
X83084953Y-115325000D02*
X84109953Y-114300000D01*
X86727160Y-68764990D02*
X137344990Y-68764990D01*
X84109954Y-71382196D02*
X86727160Y-68764990D01*
X139065000Y-70485000D02*
X139065000Y-128905000D01*
X137344990Y-68764990D02*
X139065000Y-70485000D01*
X135890000Y-76200000D02*
X139065000Y-76200000D01*
X73660000Y-116710000D02*
X84325000Y-116710000D01*
X84559963Y-71568597D02*
X86913560Y-69215000D01*
X84325000Y-116710000D02*
X84559963Y-116475037D01*
X84559963Y-116475037D02*
X84559963Y-71568597D01*
X86913560Y-69215000D02*
X128905000Y-69215000D01*
X128905000Y-69215000D02*
X130175000Y-70485000D01*
X130175000Y-70485000D02*
X130175000Y-76200000D01*
X127000000Y-76200000D02*
X130175000Y-76200000D01*
X130175000Y-76200000D02*
X130175000Y-128905000D01*
X121285000Y-70485000D02*
X121285000Y-129540000D01*
X84389972Y-118095000D02*
X85009972Y-117475000D01*
X70820000Y-118095000D02*
X84389972Y-118095000D01*
X85009972Y-117475000D02*
X85009973Y-71830797D01*
X85009973Y-71830797D02*
X87070800Y-69769970D01*
X120650000Y-69850000D02*
X121285000Y-70485000D01*
X120650000Y-69769970D02*
X120650000Y-69850000D01*
X118110000Y-76200000D02*
X121285000Y-76200000D01*
X120650000Y-69769970D02*
X87075030Y-69769970D01*
X84990000Y-119480000D02*
X85459981Y-119010019D01*
X73660000Y-119480000D02*
X84990000Y-119480000D01*
X85459981Y-119010019D02*
X85459982Y-72017198D01*
X85459982Y-72017198D02*
X87257200Y-70219980D01*
X87257200Y-70219980D02*
X111494980Y-70219980D01*
X111494980Y-70219980D02*
X112395000Y-71120000D01*
X109220000Y-76200000D02*
X112395000Y-76200000D01*
X112395000Y-71120000D02*
X112395000Y-76200000D01*
X112395000Y-76200000D02*
X112395000Y-128905000D01*
X70820000Y-120865000D02*
X85059990Y-120865000D01*
X87443600Y-70669990D02*
X102419990Y-70669990D01*
X85909991Y-72203599D02*
X87443600Y-70669990D01*
X85059990Y-120865000D02*
X85909990Y-120015000D01*
X85909990Y-120015000D02*
X85909991Y-72203599D01*
X103505000Y-71755000D02*
X103505000Y-128905000D01*
X102419990Y-70669990D02*
X103505000Y-71755000D01*
X100330000Y-76200000D02*
X103505000Y-76200000D01*
X92710000Y-71120000D02*
X94615000Y-73025000D01*
X87630000Y-71120000D02*
X92710000Y-71120000D01*
X74791370Y-122250000D02*
X75096370Y-122555000D01*
X73660000Y-122250000D02*
X74791370Y-122250000D01*
X85725000Y-122555000D02*
X86360000Y-121920000D01*
X86360000Y-121920000D02*
X86360000Y-72390000D01*
X75096370Y-122555000D02*
X85725000Y-122555000D01*
X86360000Y-72390000D02*
X87630000Y-71120000D01*
X91440000Y-76200000D02*
X94615000Y-76200000D01*
X94615000Y-73025000D02*
X94615000Y-76200000D01*
X94615000Y-76200000D02*
X94615000Y-128905000D01*
X228600000Y-106045000D02*
X228600000Y-76200000D01*
X221615000Y-113030000D02*
X228600000Y-106045000D01*
X213995000Y-123795000D02*
X215960000Y-125760000D01*
X215960000Y-125760000D02*
X217200000Y-125760000D01*
X215144999Y-123069999D02*
X212845001Y-123069999D01*
X214122000Y-121793000D02*
X212365000Y-123550000D01*
X215900000Y-123825000D02*
X215144999Y-123069999D01*
X214630000Y-121285000D02*
X214122000Y-121793000D01*
X214630000Y-114300000D02*
X214630000Y-121285000D01*
X215250000Y-95265000D02*
X215250000Y-94630000D01*
X215250000Y-94630000D02*
X217200000Y-92680000D01*
X91500000Y-125760000D02*
X92740000Y-125760000D01*
X89535000Y-123795000D02*
X91500000Y-125760000D01*
X88304999Y-123150001D02*
X87905000Y-123550000D01*
X88385001Y-123069999D02*
X88304999Y-123150001D01*
X90684999Y-123069999D02*
X88385001Y-123069999D01*
X91440000Y-123825000D02*
X90684999Y-123069999D01*
X90790000Y-94630000D02*
X92740000Y-92680000D01*
X90790000Y-95265000D02*
X90790000Y-94630000D01*
X90140000Y-82520000D02*
X92740000Y-85120000D01*
X99574999Y-123069999D02*
X97275001Y-123069999D01*
X97194999Y-123150001D02*
X96795000Y-123550000D01*
X100330000Y-123825000D02*
X99574999Y-123069999D01*
X98552000Y-121793000D02*
X96795000Y-123550000D01*
X98552000Y-113792000D02*
X98552000Y-121793000D01*
X99680000Y-95265000D02*
X99680000Y-94630000D01*
X99680000Y-94630000D02*
X101630000Y-92680000D01*
X99030000Y-82520000D02*
X101630000Y-85120000D01*
X107315000Y-123795000D02*
X109280000Y-125760000D01*
X109280000Y-125760000D02*
X110520000Y-125760000D01*
X108464999Y-123069999D02*
X106165001Y-123069999D01*
X107442000Y-121793000D02*
X105685000Y-123550000D01*
X107442000Y-113792000D02*
X107442000Y-121793000D01*
X109220000Y-123825000D02*
X108464999Y-123069999D01*
X108570000Y-95265000D02*
X108570000Y-94630000D01*
X108570000Y-94630000D02*
X110520000Y-92680000D01*
X116205000Y-123795000D02*
X118170000Y-125760000D01*
X118170000Y-125760000D02*
X119410000Y-125760000D01*
X117354999Y-123069999D02*
X115055001Y-123069999D01*
X116332000Y-121793000D02*
X114575000Y-123550000D01*
X116332000Y-113792000D02*
X116332000Y-121793000D01*
X118110000Y-123825000D02*
X117354999Y-123069999D01*
X117460000Y-95265000D02*
X117460000Y-94630000D01*
X117460000Y-94630000D02*
X119410000Y-92680000D01*
X116810000Y-82520000D02*
X119410000Y-85120000D01*
X126244999Y-123069999D02*
X123945001Y-123069999D01*
X125222000Y-121793000D02*
X123465000Y-123550000D01*
X125222000Y-113792000D02*
X125222000Y-121793000D01*
X127000000Y-123825000D02*
X126244999Y-123069999D01*
X126350000Y-95265000D02*
X126350000Y-94630000D01*
X126350000Y-94630000D02*
X128300000Y-92680000D01*
X125700000Y-82520000D02*
X128300000Y-85120000D01*
X133985000Y-123795000D02*
X135950000Y-125760000D01*
X135950000Y-125760000D02*
X137190000Y-125760000D01*
X135134999Y-123069999D02*
X132835001Y-123069999D01*
X134112000Y-121793000D02*
X132355000Y-123550000D01*
X134112000Y-113792000D02*
X134112000Y-121793000D01*
X135890000Y-123825000D02*
X135134999Y-123069999D01*
X135240000Y-95265000D02*
X135240000Y-94630000D01*
X135240000Y-94630000D02*
X137190000Y-92680000D01*
X142875000Y-123795000D02*
X144840000Y-125760000D01*
X144840000Y-125760000D02*
X146080000Y-125760000D01*
X144024999Y-123069999D02*
X141725001Y-123069999D01*
X143002000Y-121793000D02*
X141245000Y-123550000D01*
X143002000Y-113792000D02*
X143002000Y-121793000D01*
X144780000Y-123825000D02*
X144024999Y-123069999D01*
X144130000Y-95265000D02*
X144130000Y-94630000D01*
X144130000Y-94630000D02*
X146080000Y-92680000D01*
X143480000Y-82520000D02*
X146080000Y-85120000D01*
X152914999Y-123069999D02*
X150615001Y-123069999D01*
X151892000Y-121793000D02*
X150135000Y-123550000D01*
X151892000Y-113792000D02*
X151892000Y-121793000D01*
X153670000Y-123825000D02*
X152914999Y-123069999D01*
X153020000Y-95265000D02*
X153020000Y-94630000D01*
X153020000Y-94630000D02*
X154970000Y-92680000D01*
X152370000Y-82520000D02*
X154970000Y-85120000D01*
X160655000Y-123795000D02*
X162620000Y-125760000D01*
X162620000Y-125760000D02*
X163860000Y-125760000D01*
X161804999Y-123069999D02*
X159505001Y-123069999D01*
X160782000Y-121793000D02*
X159025000Y-123550000D01*
X160782000Y-113792000D02*
X160782000Y-121793000D01*
X162560000Y-123825000D02*
X161804999Y-123069999D01*
X161910000Y-95265000D02*
X161910000Y-94630000D01*
X161910000Y-94630000D02*
X163860000Y-92680000D01*
X70020001Y-99504999D02*
X70820000Y-98705000D01*
X69694999Y-121405001D02*
X69694999Y-99830001D01*
X78280008Y-129990010D02*
X69694999Y-121405001D01*
X219062992Y-129990010D02*
X213544990Y-129990010D01*
X220345000Y-128708002D02*
X219062992Y-129990010D01*
X69694999Y-99830001D02*
X70020001Y-99504999D01*
X220345000Y-123190000D02*
X220345000Y-128708002D01*
X213544990Y-129990010D02*
X78280008Y-129990010D01*
X216550000Y-95265000D02*
X216550000Y-102220000D01*
X216550000Y-102220000D02*
X215250000Y-103520000D01*
X214600000Y-82520000D02*
X217200000Y-85120000D01*
X92090000Y-102220000D02*
X90790000Y-103520000D01*
X92090000Y-95265000D02*
X92090000Y-102220000D01*
X98425000Y-123795000D02*
X100390000Y-125760000D01*
X100390000Y-125760000D02*
X101630000Y-125760000D01*
X100980000Y-95265000D02*
X100980000Y-102220000D01*
X100980000Y-102220000D02*
X99680000Y-103520000D01*
X109870000Y-95265000D02*
X109870000Y-102220000D01*
X109870000Y-102220000D02*
X108570000Y-103520000D01*
X107920000Y-82520000D02*
X110520000Y-85120000D01*
X118760000Y-95265000D02*
X118760000Y-102220000D01*
X118760000Y-102220000D02*
X117460000Y-103520000D01*
X125095000Y-123795000D02*
X127060000Y-125760000D01*
X127060000Y-125760000D02*
X128300000Y-125760000D01*
X127650000Y-95265000D02*
X127650000Y-102220000D01*
X127650000Y-102220000D02*
X126350000Y-103520000D01*
X136540000Y-95265000D02*
X136540000Y-102220000D01*
X136540000Y-102220000D02*
X135240000Y-103520000D01*
X134590000Y-82520000D02*
X137190000Y-85120000D01*
X145430000Y-95265000D02*
X145430000Y-102220000D01*
X145430000Y-102220000D02*
X144130000Y-103520000D01*
X151765000Y-123795000D02*
X153730000Y-125760000D01*
X153730000Y-125760000D02*
X154970000Y-125760000D01*
X154320000Y-95265000D02*
X154320000Y-102220000D01*
X154320000Y-102220000D02*
X153020000Y-103520000D01*
X163210000Y-95265000D02*
X163210000Y-102220000D01*
X163210000Y-102220000D02*
X161910000Y-103520000D01*
X161260000Y-82520000D02*
X163860000Y-85120000D01*
X169545000Y-123795000D02*
X171510000Y-125760000D01*
X171510000Y-125760000D02*
X172750000Y-125760000D01*
X170694999Y-123069999D02*
X168395001Y-123069999D01*
X169672000Y-121793000D02*
X167915000Y-123550000D01*
X169672000Y-113792000D02*
X169672000Y-121793000D01*
X171450000Y-123825000D02*
X170694999Y-123069999D01*
X172100000Y-95265000D02*
X172100000Y-102220000D01*
X172100000Y-102220000D02*
X170800000Y-103520000D01*
X170800000Y-95265000D02*
X170800000Y-94630000D01*
X170800000Y-94630000D02*
X172750000Y-92680000D01*
X170150000Y-82520000D02*
X172750000Y-85120000D01*
X178435000Y-123795000D02*
X180400000Y-125760000D01*
X180400000Y-125760000D02*
X181640000Y-125760000D01*
X179584999Y-123069999D02*
X177285001Y-123069999D01*
X178562000Y-121793000D02*
X176805000Y-123550000D01*
X180340000Y-123825000D02*
X179584999Y-123069999D01*
X179070000Y-121285000D02*
X178562000Y-121793000D01*
X179070000Y-114300000D02*
X179070000Y-121285000D01*
X180990000Y-95265000D02*
X180990000Y-102220000D01*
X180990000Y-102220000D02*
X179690000Y-103520000D01*
X179690000Y-95265000D02*
X179690000Y-94630000D01*
X179690000Y-94630000D02*
X181640000Y-92680000D01*
X179040000Y-82520000D02*
X181640000Y-85120000D01*
X187325000Y-123795000D02*
X189290000Y-125760000D01*
X189290000Y-125760000D02*
X190530000Y-125760000D01*
X188474999Y-123069999D02*
X186175001Y-123069999D01*
X187452000Y-121793000D02*
X185695000Y-123550000D01*
X189230000Y-123825000D02*
X188474999Y-123069999D01*
X187960000Y-121285000D02*
X187452000Y-121793000D01*
X187960000Y-114300000D02*
X187960000Y-121285000D01*
X189880000Y-95265000D02*
X189880000Y-102220000D01*
X189880000Y-102220000D02*
X188580000Y-103520000D01*
X188580000Y-95265000D02*
X188580000Y-94630000D01*
X188580000Y-94630000D02*
X190530000Y-92680000D01*
X187930000Y-82520000D02*
X190530000Y-85120000D01*
X196215000Y-123795000D02*
X198180000Y-125760000D01*
X198180000Y-125760000D02*
X199420000Y-125760000D01*
X197364999Y-123069999D02*
X195065001Y-123069999D01*
X196342000Y-121793000D02*
X194585000Y-123550000D01*
X198120000Y-123825000D02*
X197364999Y-123069999D01*
X196850000Y-121285000D02*
X196342000Y-121793000D01*
X196850000Y-114300000D02*
X196850000Y-121285000D01*
X198770000Y-95265000D02*
X198770000Y-102220000D01*
X198770000Y-102220000D02*
X197470000Y-103520000D01*
X197470000Y-95265000D02*
X197470000Y-94630000D01*
X197470000Y-94630000D02*
X199420000Y-92680000D01*
X196820000Y-82520000D02*
X199420000Y-85120000D01*
X205105000Y-123795000D02*
X207070000Y-125760000D01*
X207070000Y-125760000D02*
X208310000Y-125760000D01*
X206254999Y-123069999D02*
X203955001Y-123069999D01*
X207010000Y-123825000D02*
X206254999Y-123069999D01*
X205232000Y-121793000D02*
X203475000Y-123550000D01*
X205740000Y-114300000D02*
X205740000Y-121285000D01*
X205740000Y-121285000D02*
X205232000Y-121793000D01*
X207660000Y-95265000D02*
X207660000Y-102220000D01*
X207660000Y-102220000D02*
X206360000Y-103520000D01*
X206360000Y-95265000D02*
X206360000Y-94630000D01*
X206360000Y-94630000D02*
X208310000Y-92680000D01*
X205710000Y-82520000D02*
X208310000Y-85120000D01*
M02*
