G04 #@! TF.GenerationSoftware,KiCad,Pcbnew,5.1.5-52549c5~84~ubuntu18.04.1*
G04 #@! TF.CreationDate,2020-04-22T17:40:04-07:00*
G04 #@! TF.ProjectId,clock_generator,636c6f63-6b5f-4676-956e-657261746f72,rev?*
G04 #@! TF.SameCoordinates,Original*
G04 #@! TF.FileFunction,Paste,Top*
G04 #@! TF.FilePolarity,Positive*
%FSLAX46Y46*%
G04 Gerber Fmt 4.6, Leading zero omitted, Abs format (unit mm)*
G04 Created by KiCad (PCBNEW 5.1.5-52549c5~84~ubuntu18.04.1) date 2020-04-22 17:40:04*
%MOMM*%
%LPD*%
G04 APERTURE LIST*
%ADD10C,0.100000*%
%ADD11R,1.450000X0.450000*%
G04 APERTURE END LIST*
D10*
G36*
X130314703Y-72725722D02*
G01*
X130329264Y-72727882D01*
X130343543Y-72731459D01*
X130357403Y-72736418D01*
X130370710Y-72742712D01*
X130383336Y-72750280D01*
X130395159Y-72759048D01*
X130406066Y-72768934D01*
X130415952Y-72779841D01*
X130424720Y-72791664D01*
X130432288Y-72804290D01*
X130438582Y-72817597D01*
X130443541Y-72831457D01*
X130447118Y-72845736D01*
X130449278Y-72860297D01*
X130450000Y-72875000D01*
X130450000Y-73175000D01*
X130449278Y-73189703D01*
X130447118Y-73204264D01*
X130443541Y-73218543D01*
X130438582Y-73232403D01*
X130432288Y-73245710D01*
X130424720Y-73258336D01*
X130415952Y-73270159D01*
X130406066Y-73281066D01*
X130395159Y-73290952D01*
X130383336Y-73299720D01*
X130370710Y-73307288D01*
X130357403Y-73313582D01*
X130343543Y-73318541D01*
X130329264Y-73322118D01*
X130314703Y-73324278D01*
X130300000Y-73325000D01*
X128650000Y-73325000D01*
X128635297Y-73324278D01*
X128620736Y-73322118D01*
X128606457Y-73318541D01*
X128592597Y-73313582D01*
X128579290Y-73307288D01*
X128566664Y-73299720D01*
X128554841Y-73290952D01*
X128543934Y-73281066D01*
X128534048Y-73270159D01*
X128525280Y-73258336D01*
X128517712Y-73245710D01*
X128511418Y-73232403D01*
X128506459Y-73218543D01*
X128502882Y-73204264D01*
X128500722Y-73189703D01*
X128500000Y-73175000D01*
X128500000Y-72875000D01*
X128500722Y-72860297D01*
X128502882Y-72845736D01*
X128506459Y-72831457D01*
X128511418Y-72817597D01*
X128517712Y-72804290D01*
X128525280Y-72791664D01*
X128534048Y-72779841D01*
X128543934Y-72768934D01*
X128554841Y-72759048D01*
X128566664Y-72750280D01*
X128579290Y-72742712D01*
X128592597Y-72736418D01*
X128606457Y-72731459D01*
X128620736Y-72727882D01*
X128635297Y-72725722D01*
X128650000Y-72725000D01*
X130300000Y-72725000D01*
X130314703Y-72725722D01*
G37*
G36*
X130314703Y-73995722D02*
G01*
X130329264Y-73997882D01*
X130343543Y-74001459D01*
X130357403Y-74006418D01*
X130370710Y-74012712D01*
X130383336Y-74020280D01*
X130395159Y-74029048D01*
X130406066Y-74038934D01*
X130415952Y-74049841D01*
X130424720Y-74061664D01*
X130432288Y-74074290D01*
X130438582Y-74087597D01*
X130443541Y-74101457D01*
X130447118Y-74115736D01*
X130449278Y-74130297D01*
X130450000Y-74145000D01*
X130450000Y-74445000D01*
X130449278Y-74459703D01*
X130447118Y-74474264D01*
X130443541Y-74488543D01*
X130438582Y-74502403D01*
X130432288Y-74515710D01*
X130424720Y-74528336D01*
X130415952Y-74540159D01*
X130406066Y-74551066D01*
X130395159Y-74560952D01*
X130383336Y-74569720D01*
X130370710Y-74577288D01*
X130357403Y-74583582D01*
X130343543Y-74588541D01*
X130329264Y-74592118D01*
X130314703Y-74594278D01*
X130300000Y-74595000D01*
X128650000Y-74595000D01*
X128635297Y-74594278D01*
X128620736Y-74592118D01*
X128606457Y-74588541D01*
X128592597Y-74583582D01*
X128579290Y-74577288D01*
X128566664Y-74569720D01*
X128554841Y-74560952D01*
X128543934Y-74551066D01*
X128534048Y-74540159D01*
X128525280Y-74528336D01*
X128517712Y-74515710D01*
X128511418Y-74502403D01*
X128506459Y-74488543D01*
X128502882Y-74474264D01*
X128500722Y-74459703D01*
X128500000Y-74445000D01*
X128500000Y-74145000D01*
X128500722Y-74130297D01*
X128502882Y-74115736D01*
X128506459Y-74101457D01*
X128511418Y-74087597D01*
X128517712Y-74074290D01*
X128525280Y-74061664D01*
X128534048Y-74049841D01*
X128543934Y-74038934D01*
X128554841Y-74029048D01*
X128566664Y-74020280D01*
X128579290Y-74012712D01*
X128592597Y-74006418D01*
X128606457Y-74001459D01*
X128620736Y-73997882D01*
X128635297Y-73995722D01*
X128650000Y-73995000D01*
X130300000Y-73995000D01*
X130314703Y-73995722D01*
G37*
G36*
X130314703Y-75265722D02*
G01*
X130329264Y-75267882D01*
X130343543Y-75271459D01*
X130357403Y-75276418D01*
X130370710Y-75282712D01*
X130383336Y-75290280D01*
X130395159Y-75299048D01*
X130406066Y-75308934D01*
X130415952Y-75319841D01*
X130424720Y-75331664D01*
X130432288Y-75344290D01*
X130438582Y-75357597D01*
X130443541Y-75371457D01*
X130447118Y-75385736D01*
X130449278Y-75400297D01*
X130450000Y-75415000D01*
X130450000Y-75715000D01*
X130449278Y-75729703D01*
X130447118Y-75744264D01*
X130443541Y-75758543D01*
X130438582Y-75772403D01*
X130432288Y-75785710D01*
X130424720Y-75798336D01*
X130415952Y-75810159D01*
X130406066Y-75821066D01*
X130395159Y-75830952D01*
X130383336Y-75839720D01*
X130370710Y-75847288D01*
X130357403Y-75853582D01*
X130343543Y-75858541D01*
X130329264Y-75862118D01*
X130314703Y-75864278D01*
X130300000Y-75865000D01*
X128650000Y-75865000D01*
X128635297Y-75864278D01*
X128620736Y-75862118D01*
X128606457Y-75858541D01*
X128592597Y-75853582D01*
X128579290Y-75847288D01*
X128566664Y-75839720D01*
X128554841Y-75830952D01*
X128543934Y-75821066D01*
X128534048Y-75810159D01*
X128525280Y-75798336D01*
X128517712Y-75785710D01*
X128511418Y-75772403D01*
X128506459Y-75758543D01*
X128502882Y-75744264D01*
X128500722Y-75729703D01*
X128500000Y-75715000D01*
X128500000Y-75415000D01*
X128500722Y-75400297D01*
X128502882Y-75385736D01*
X128506459Y-75371457D01*
X128511418Y-75357597D01*
X128517712Y-75344290D01*
X128525280Y-75331664D01*
X128534048Y-75319841D01*
X128543934Y-75308934D01*
X128554841Y-75299048D01*
X128566664Y-75290280D01*
X128579290Y-75282712D01*
X128592597Y-75276418D01*
X128606457Y-75271459D01*
X128620736Y-75267882D01*
X128635297Y-75265722D01*
X128650000Y-75265000D01*
X130300000Y-75265000D01*
X130314703Y-75265722D01*
G37*
G36*
X130314703Y-76535722D02*
G01*
X130329264Y-76537882D01*
X130343543Y-76541459D01*
X130357403Y-76546418D01*
X130370710Y-76552712D01*
X130383336Y-76560280D01*
X130395159Y-76569048D01*
X130406066Y-76578934D01*
X130415952Y-76589841D01*
X130424720Y-76601664D01*
X130432288Y-76614290D01*
X130438582Y-76627597D01*
X130443541Y-76641457D01*
X130447118Y-76655736D01*
X130449278Y-76670297D01*
X130450000Y-76685000D01*
X130450000Y-76985000D01*
X130449278Y-76999703D01*
X130447118Y-77014264D01*
X130443541Y-77028543D01*
X130438582Y-77042403D01*
X130432288Y-77055710D01*
X130424720Y-77068336D01*
X130415952Y-77080159D01*
X130406066Y-77091066D01*
X130395159Y-77100952D01*
X130383336Y-77109720D01*
X130370710Y-77117288D01*
X130357403Y-77123582D01*
X130343543Y-77128541D01*
X130329264Y-77132118D01*
X130314703Y-77134278D01*
X130300000Y-77135000D01*
X128650000Y-77135000D01*
X128635297Y-77134278D01*
X128620736Y-77132118D01*
X128606457Y-77128541D01*
X128592597Y-77123582D01*
X128579290Y-77117288D01*
X128566664Y-77109720D01*
X128554841Y-77100952D01*
X128543934Y-77091066D01*
X128534048Y-77080159D01*
X128525280Y-77068336D01*
X128517712Y-77055710D01*
X128511418Y-77042403D01*
X128506459Y-77028543D01*
X128502882Y-77014264D01*
X128500722Y-76999703D01*
X128500000Y-76985000D01*
X128500000Y-76685000D01*
X128500722Y-76670297D01*
X128502882Y-76655736D01*
X128506459Y-76641457D01*
X128511418Y-76627597D01*
X128517712Y-76614290D01*
X128525280Y-76601664D01*
X128534048Y-76589841D01*
X128543934Y-76578934D01*
X128554841Y-76569048D01*
X128566664Y-76560280D01*
X128579290Y-76552712D01*
X128592597Y-76546418D01*
X128606457Y-76541459D01*
X128620736Y-76537882D01*
X128635297Y-76535722D01*
X128650000Y-76535000D01*
X130300000Y-76535000D01*
X130314703Y-76535722D01*
G37*
G36*
X125364703Y-76535722D02*
G01*
X125379264Y-76537882D01*
X125393543Y-76541459D01*
X125407403Y-76546418D01*
X125420710Y-76552712D01*
X125433336Y-76560280D01*
X125445159Y-76569048D01*
X125456066Y-76578934D01*
X125465952Y-76589841D01*
X125474720Y-76601664D01*
X125482288Y-76614290D01*
X125488582Y-76627597D01*
X125493541Y-76641457D01*
X125497118Y-76655736D01*
X125499278Y-76670297D01*
X125500000Y-76685000D01*
X125500000Y-76985000D01*
X125499278Y-76999703D01*
X125497118Y-77014264D01*
X125493541Y-77028543D01*
X125488582Y-77042403D01*
X125482288Y-77055710D01*
X125474720Y-77068336D01*
X125465952Y-77080159D01*
X125456066Y-77091066D01*
X125445159Y-77100952D01*
X125433336Y-77109720D01*
X125420710Y-77117288D01*
X125407403Y-77123582D01*
X125393543Y-77128541D01*
X125379264Y-77132118D01*
X125364703Y-77134278D01*
X125350000Y-77135000D01*
X123700000Y-77135000D01*
X123685297Y-77134278D01*
X123670736Y-77132118D01*
X123656457Y-77128541D01*
X123642597Y-77123582D01*
X123629290Y-77117288D01*
X123616664Y-77109720D01*
X123604841Y-77100952D01*
X123593934Y-77091066D01*
X123584048Y-77080159D01*
X123575280Y-77068336D01*
X123567712Y-77055710D01*
X123561418Y-77042403D01*
X123556459Y-77028543D01*
X123552882Y-77014264D01*
X123550722Y-76999703D01*
X123550000Y-76985000D01*
X123550000Y-76685000D01*
X123550722Y-76670297D01*
X123552882Y-76655736D01*
X123556459Y-76641457D01*
X123561418Y-76627597D01*
X123567712Y-76614290D01*
X123575280Y-76601664D01*
X123584048Y-76589841D01*
X123593934Y-76578934D01*
X123604841Y-76569048D01*
X123616664Y-76560280D01*
X123629290Y-76552712D01*
X123642597Y-76546418D01*
X123656457Y-76541459D01*
X123670736Y-76537882D01*
X123685297Y-76535722D01*
X123700000Y-76535000D01*
X125350000Y-76535000D01*
X125364703Y-76535722D01*
G37*
G36*
X125364703Y-75265722D02*
G01*
X125379264Y-75267882D01*
X125393543Y-75271459D01*
X125407403Y-75276418D01*
X125420710Y-75282712D01*
X125433336Y-75290280D01*
X125445159Y-75299048D01*
X125456066Y-75308934D01*
X125465952Y-75319841D01*
X125474720Y-75331664D01*
X125482288Y-75344290D01*
X125488582Y-75357597D01*
X125493541Y-75371457D01*
X125497118Y-75385736D01*
X125499278Y-75400297D01*
X125500000Y-75415000D01*
X125500000Y-75715000D01*
X125499278Y-75729703D01*
X125497118Y-75744264D01*
X125493541Y-75758543D01*
X125488582Y-75772403D01*
X125482288Y-75785710D01*
X125474720Y-75798336D01*
X125465952Y-75810159D01*
X125456066Y-75821066D01*
X125445159Y-75830952D01*
X125433336Y-75839720D01*
X125420710Y-75847288D01*
X125407403Y-75853582D01*
X125393543Y-75858541D01*
X125379264Y-75862118D01*
X125364703Y-75864278D01*
X125350000Y-75865000D01*
X123700000Y-75865000D01*
X123685297Y-75864278D01*
X123670736Y-75862118D01*
X123656457Y-75858541D01*
X123642597Y-75853582D01*
X123629290Y-75847288D01*
X123616664Y-75839720D01*
X123604841Y-75830952D01*
X123593934Y-75821066D01*
X123584048Y-75810159D01*
X123575280Y-75798336D01*
X123567712Y-75785710D01*
X123561418Y-75772403D01*
X123556459Y-75758543D01*
X123552882Y-75744264D01*
X123550722Y-75729703D01*
X123550000Y-75715000D01*
X123550000Y-75415000D01*
X123550722Y-75400297D01*
X123552882Y-75385736D01*
X123556459Y-75371457D01*
X123561418Y-75357597D01*
X123567712Y-75344290D01*
X123575280Y-75331664D01*
X123584048Y-75319841D01*
X123593934Y-75308934D01*
X123604841Y-75299048D01*
X123616664Y-75290280D01*
X123629290Y-75282712D01*
X123642597Y-75276418D01*
X123656457Y-75271459D01*
X123670736Y-75267882D01*
X123685297Y-75265722D01*
X123700000Y-75265000D01*
X125350000Y-75265000D01*
X125364703Y-75265722D01*
G37*
G36*
X125364703Y-73995722D02*
G01*
X125379264Y-73997882D01*
X125393543Y-74001459D01*
X125407403Y-74006418D01*
X125420710Y-74012712D01*
X125433336Y-74020280D01*
X125445159Y-74029048D01*
X125456066Y-74038934D01*
X125465952Y-74049841D01*
X125474720Y-74061664D01*
X125482288Y-74074290D01*
X125488582Y-74087597D01*
X125493541Y-74101457D01*
X125497118Y-74115736D01*
X125499278Y-74130297D01*
X125500000Y-74145000D01*
X125500000Y-74445000D01*
X125499278Y-74459703D01*
X125497118Y-74474264D01*
X125493541Y-74488543D01*
X125488582Y-74502403D01*
X125482288Y-74515710D01*
X125474720Y-74528336D01*
X125465952Y-74540159D01*
X125456066Y-74551066D01*
X125445159Y-74560952D01*
X125433336Y-74569720D01*
X125420710Y-74577288D01*
X125407403Y-74583582D01*
X125393543Y-74588541D01*
X125379264Y-74592118D01*
X125364703Y-74594278D01*
X125350000Y-74595000D01*
X123700000Y-74595000D01*
X123685297Y-74594278D01*
X123670736Y-74592118D01*
X123656457Y-74588541D01*
X123642597Y-74583582D01*
X123629290Y-74577288D01*
X123616664Y-74569720D01*
X123604841Y-74560952D01*
X123593934Y-74551066D01*
X123584048Y-74540159D01*
X123575280Y-74528336D01*
X123567712Y-74515710D01*
X123561418Y-74502403D01*
X123556459Y-74488543D01*
X123552882Y-74474264D01*
X123550722Y-74459703D01*
X123550000Y-74445000D01*
X123550000Y-74145000D01*
X123550722Y-74130297D01*
X123552882Y-74115736D01*
X123556459Y-74101457D01*
X123561418Y-74087597D01*
X123567712Y-74074290D01*
X123575280Y-74061664D01*
X123584048Y-74049841D01*
X123593934Y-74038934D01*
X123604841Y-74029048D01*
X123616664Y-74020280D01*
X123629290Y-74012712D01*
X123642597Y-74006418D01*
X123656457Y-74001459D01*
X123670736Y-73997882D01*
X123685297Y-73995722D01*
X123700000Y-73995000D01*
X125350000Y-73995000D01*
X125364703Y-73995722D01*
G37*
G36*
X125364703Y-72725722D02*
G01*
X125379264Y-72727882D01*
X125393543Y-72731459D01*
X125407403Y-72736418D01*
X125420710Y-72742712D01*
X125433336Y-72750280D01*
X125445159Y-72759048D01*
X125456066Y-72768934D01*
X125465952Y-72779841D01*
X125474720Y-72791664D01*
X125482288Y-72804290D01*
X125488582Y-72817597D01*
X125493541Y-72831457D01*
X125497118Y-72845736D01*
X125499278Y-72860297D01*
X125500000Y-72875000D01*
X125500000Y-73175000D01*
X125499278Y-73189703D01*
X125497118Y-73204264D01*
X125493541Y-73218543D01*
X125488582Y-73232403D01*
X125482288Y-73245710D01*
X125474720Y-73258336D01*
X125465952Y-73270159D01*
X125456066Y-73281066D01*
X125445159Y-73290952D01*
X125433336Y-73299720D01*
X125420710Y-73307288D01*
X125407403Y-73313582D01*
X125393543Y-73318541D01*
X125379264Y-73322118D01*
X125364703Y-73324278D01*
X125350000Y-73325000D01*
X123700000Y-73325000D01*
X123685297Y-73324278D01*
X123670736Y-73322118D01*
X123656457Y-73318541D01*
X123642597Y-73313582D01*
X123629290Y-73307288D01*
X123616664Y-73299720D01*
X123604841Y-73290952D01*
X123593934Y-73281066D01*
X123584048Y-73270159D01*
X123575280Y-73258336D01*
X123567712Y-73245710D01*
X123561418Y-73232403D01*
X123556459Y-73218543D01*
X123552882Y-73204264D01*
X123550722Y-73189703D01*
X123550000Y-73175000D01*
X123550000Y-72875000D01*
X123550722Y-72860297D01*
X123552882Y-72845736D01*
X123556459Y-72831457D01*
X123561418Y-72817597D01*
X123567712Y-72804290D01*
X123575280Y-72791664D01*
X123584048Y-72779841D01*
X123593934Y-72768934D01*
X123604841Y-72759048D01*
X123616664Y-72750280D01*
X123629290Y-72742712D01*
X123642597Y-72736418D01*
X123656457Y-72731459D01*
X123670736Y-72727882D01*
X123685297Y-72725722D01*
X123700000Y-72725000D01*
X125350000Y-72725000D01*
X125364703Y-72725722D01*
G37*
G36*
X115204703Y-76535722D02*
G01*
X115219264Y-76537882D01*
X115233543Y-76541459D01*
X115247403Y-76546418D01*
X115260710Y-76552712D01*
X115273336Y-76560280D01*
X115285159Y-76569048D01*
X115296066Y-76578934D01*
X115305952Y-76589841D01*
X115314720Y-76601664D01*
X115322288Y-76614290D01*
X115328582Y-76627597D01*
X115333541Y-76641457D01*
X115337118Y-76655736D01*
X115339278Y-76670297D01*
X115340000Y-76685000D01*
X115340000Y-76985000D01*
X115339278Y-76999703D01*
X115337118Y-77014264D01*
X115333541Y-77028543D01*
X115328582Y-77042403D01*
X115322288Y-77055710D01*
X115314720Y-77068336D01*
X115305952Y-77080159D01*
X115296066Y-77091066D01*
X115285159Y-77100952D01*
X115273336Y-77109720D01*
X115260710Y-77117288D01*
X115247403Y-77123582D01*
X115233543Y-77128541D01*
X115219264Y-77132118D01*
X115204703Y-77134278D01*
X115190000Y-77135000D01*
X113540000Y-77135000D01*
X113525297Y-77134278D01*
X113510736Y-77132118D01*
X113496457Y-77128541D01*
X113482597Y-77123582D01*
X113469290Y-77117288D01*
X113456664Y-77109720D01*
X113444841Y-77100952D01*
X113433934Y-77091066D01*
X113424048Y-77080159D01*
X113415280Y-77068336D01*
X113407712Y-77055710D01*
X113401418Y-77042403D01*
X113396459Y-77028543D01*
X113392882Y-77014264D01*
X113390722Y-76999703D01*
X113390000Y-76985000D01*
X113390000Y-76685000D01*
X113390722Y-76670297D01*
X113392882Y-76655736D01*
X113396459Y-76641457D01*
X113401418Y-76627597D01*
X113407712Y-76614290D01*
X113415280Y-76601664D01*
X113424048Y-76589841D01*
X113433934Y-76578934D01*
X113444841Y-76569048D01*
X113456664Y-76560280D01*
X113469290Y-76552712D01*
X113482597Y-76546418D01*
X113496457Y-76541459D01*
X113510736Y-76537882D01*
X113525297Y-76535722D01*
X113540000Y-76535000D01*
X115190000Y-76535000D01*
X115204703Y-76535722D01*
G37*
G36*
X115204703Y-75265722D02*
G01*
X115219264Y-75267882D01*
X115233543Y-75271459D01*
X115247403Y-75276418D01*
X115260710Y-75282712D01*
X115273336Y-75290280D01*
X115285159Y-75299048D01*
X115296066Y-75308934D01*
X115305952Y-75319841D01*
X115314720Y-75331664D01*
X115322288Y-75344290D01*
X115328582Y-75357597D01*
X115333541Y-75371457D01*
X115337118Y-75385736D01*
X115339278Y-75400297D01*
X115340000Y-75415000D01*
X115340000Y-75715000D01*
X115339278Y-75729703D01*
X115337118Y-75744264D01*
X115333541Y-75758543D01*
X115328582Y-75772403D01*
X115322288Y-75785710D01*
X115314720Y-75798336D01*
X115305952Y-75810159D01*
X115296066Y-75821066D01*
X115285159Y-75830952D01*
X115273336Y-75839720D01*
X115260710Y-75847288D01*
X115247403Y-75853582D01*
X115233543Y-75858541D01*
X115219264Y-75862118D01*
X115204703Y-75864278D01*
X115190000Y-75865000D01*
X113540000Y-75865000D01*
X113525297Y-75864278D01*
X113510736Y-75862118D01*
X113496457Y-75858541D01*
X113482597Y-75853582D01*
X113469290Y-75847288D01*
X113456664Y-75839720D01*
X113444841Y-75830952D01*
X113433934Y-75821066D01*
X113424048Y-75810159D01*
X113415280Y-75798336D01*
X113407712Y-75785710D01*
X113401418Y-75772403D01*
X113396459Y-75758543D01*
X113392882Y-75744264D01*
X113390722Y-75729703D01*
X113390000Y-75715000D01*
X113390000Y-75415000D01*
X113390722Y-75400297D01*
X113392882Y-75385736D01*
X113396459Y-75371457D01*
X113401418Y-75357597D01*
X113407712Y-75344290D01*
X113415280Y-75331664D01*
X113424048Y-75319841D01*
X113433934Y-75308934D01*
X113444841Y-75299048D01*
X113456664Y-75290280D01*
X113469290Y-75282712D01*
X113482597Y-75276418D01*
X113496457Y-75271459D01*
X113510736Y-75267882D01*
X113525297Y-75265722D01*
X113540000Y-75265000D01*
X115190000Y-75265000D01*
X115204703Y-75265722D01*
G37*
G36*
X115204703Y-73995722D02*
G01*
X115219264Y-73997882D01*
X115233543Y-74001459D01*
X115247403Y-74006418D01*
X115260710Y-74012712D01*
X115273336Y-74020280D01*
X115285159Y-74029048D01*
X115296066Y-74038934D01*
X115305952Y-74049841D01*
X115314720Y-74061664D01*
X115322288Y-74074290D01*
X115328582Y-74087597D01*
X115333541Y-74101457D01*
X115337118Y-74115736D01*
X115339278Y-74130297D01*
X115340000Y-74145000D01*
X115340000Y-74445000D01*
X115339278Y-74459703D01*
X115337118Y-74474264D01*
X115333541Y-74488543D01*
X115328582Y-74502403D01*
X115322288Y-74515710D01*
X115314720Y-74528336D01*
X115305952Y-74540159D01*
X115296066Y-74551066D01*
X115285159Y-74560952D01*
X115273336Y-74569720D01*
X115260710Y-74577288D01*
X115247403Y-74583582D01*
X115233543Y-74588541D01*
X115219264Y-74592118D01*
X115204703Y-74594278D01*
X115190000Y-74595000D01*
X113540000Y-74595000D01*
X113525297Y-74594278D01*
X113510736Y-74592118D01*
X113496457Y-74588541D01*
X113482597Y-74583582D01*
X113469290Y-74577288D01*
X113456664Y-74569720D01*
X113444841Y-74560952D01*
X113433934Y-74551066D01*
X113424048Y-74540159D01*
X113415280Y-74528336D01*
X113407712Y-74515710D01*
X113401418Y-74502403D01*
X113396459Y-74488543D01*
X113392882Y-74474264D01*
X113390722Y-74459703D01*
X113390000Y-74445000D01*
X113390000Y-74145000D01*
X113390722Y-74130297D01*
X113392882Y-74115736D01*
X113396459Y-74101457D01*
X113401418Y-74087597D01*
X113407712Y-74074290D01*
X113415280Y-74061664D01*
X113424048Y-74049841D01*
X113433934Y-74038934D01*
X113444841Y-74029048D01*
X113456664Y-74020280D01*
X113469290Y-74012712D01*
X113482597Y-74006418D01*
X113496457Y-74001459D01*
X113510736Y-73997882D01*
X113525297Y-73995722D01*
X113540000Y-73995000D01*
X115190000Y-73995000D01*
X115204703Y-73995722D01*
G37*
G36*
X115204703Y-72725722D02*
G01*
X115219264Y-72727882D01*
X115233543Y-72731459D01*
X115247403Y-72736418D01*
X115260710Y-72742712D01*
X115273336Y-72750280D01*
X115285159Y-72759048D01*
X115296066Y-72768934D01*
X115305952Y-72779841D01*
X115314720Y-72791664D01*
X115322288Y-72804290D01*
X115328582Y-72817597D01*
X115333541Y-72831457D01*
X115337118Y-72845736D01*
X115339278Y-72860297D01*
X115340000Y-72875000D01*
X115340000Y-73175000D01*
X115339278Y-73189703D01*
X115337118Y-73204264D01*
X115333541Y-73218543D01*
X115328582Y-73232403D01*
X115322288Y-73245710D01*
X115314720Y-73258336D01*
X115305952Y-73270159D01*
X115296066Y-73281066D01*
X115285159Y-73290952D01*
X115273336Y-73299720D01*
X115260710Y-73307288D01*
X115247403Y-73313582D01*
X115233543Y-73318541D01*
X115219264Y-73322118D01*
X115204703Y-73324278D01*
X115190000Y-73325000D01*
X113540000Y-73325000D01*
X113525297Y-73324278D01*
X113510736Y-73322118D01*
X113496457Y-73318541D01*
X113482597Y-73313582D01*
X113469290Y-73307288D01*
X113456664Y-73299720D01*
X113444841Y-73290952D01*
X113433934Y-73281066D01*
X113424048Y-73270159D01*
X113415280Y-73258336D01*
X113407712Y-73245710D01*
X113401418Y-73232403D01*
X113396459Y-73218543D01*
X113392882Y-73204264D01*
X113390722Y-73189703D01*
X113390000Y-73175000D01*
X113390000Y-72875000D01*
X113390722Y-72860297D01*
X113392882Y-72845736D01*
X113396459Y-72831457D01*
X113401418Y-72817597D01*
X113407712Y-72804290D01*
X113415280Y-72791664D01*
X113424048Y-72779841D01*
X113433934Y-72768934D01*
X113444841Y-72759048D01*
X113456664Y-72750280D01*
X113469290Y-72742712D01*
X113482597Y-72736418D01*
X113496457Y-72731459D01*
X113510736Y-72727882D01*
X113525297Y-72725722D01*
X113540000Y-72725000D01*
X115190000Y-72725000D01*
X115204703Y-72725722D01*
G37*
G36*
X120154703Y-72725722D02*
G01*
X120169264Y-72727882D01*
X120183543Y-72731459D01*
X120197403Y-72736418D01*
X120210710Y-72742712D01*
X120223336Y-72750280D01*
X120235159Y-72759048D01*
X120246066Y-72768934D01*
X120255952Y-72779841D01*
X120264720Y-72791664D01*
X120272288Y-72804290D01*
X120278582Y-72817597D01*
X120283541Y-72831457D01*
X120287118Y-72845736D01*
X120289278Y-72860297D01*
X120290000Y-72875000D01*
X120290000Y-73175000D01*
X120289278Y-73189703D01*
X120287118Y-73204264D01*
X120283541Y-73218543D01*
X120278582Y-73232403D01*
X120272288Y-73245710D01*
X120264720Y-73258336D01*
X120255952Y-73270159D01*
X120246066Y-73281066D01*
X120235159Y-73290952D01*
X120223336Y-73299720D01*
X120210710Y-73307288D01*
X120197403Y-73313582D01*
X120183543Y-73318541D01*
X120169264Y-73322118D01*
X120154703Y-73324278D01*
X120140000Y-73325000D01*
X118490000Y-73325000D01*
X118475297Y-73324278D01*
X118460736Y-73322118D01*
X118446457Y-73318541D01*
X118432597Y-73313582D01*
X118419290Y-73307288D01*
X118406664Y-73299720D01*
X118394841Y-73290952D01*
X118383934Y-73281066D01*
X118374048Y-73270159D01*
X118365280Y-73258336D01*
X118357712Y-73245710D01*
X118351418Y-73232403D01*
X118346459Y-73218543D01*
X118342882Y-73204264D01*
X118340722Y-73189703D01*
X118340000Y-73175000D01*
X118340000Y-72875000D01*
X118340722Y-72860297D01*
X118342882Y-72845736D01*
X118346459Y-72831457D01*
X118351418Y-72817597D01*
X118357712Y-72804290D01*
X118365280Y-72791664D01*
X118374048Y-72779841D01*
X118383934Y-72768934D01*
X118394841Y-72759048D01*
X118406664Y-72750280D01*
X118419290Y-72742712D01*
X118432597Y-72736418D01*
X118446457Y-72731459D01*
X118460736Y-72727882D01*
X118475297Y-72725722D01*
X118490000Y-72725000D01*
X120140000Y-72725000D01*
X120154703Y-72725722D01*
G37*
G36*
X120154703Y-73995722D02*
G01*
X120169264Y-73997882D01*
X120183543Y-74001459D01*
X120197403Y-74006418D01*
X120210710Y-74012712D01*
X120223336Y-74020280D01*
X120235159Y-74029048D01*
X120246066Y-74038934D01*
X120255952Y-74049841D01*
X120264720Y-74061664D01*
X120272288Y-74074290D01*
X120278582Y-74087597D01*
X120283541Y-74101457D01*
X120287118Y-74115736D01*
X120289278Y-74130297D01*
X120290000Y-74145000D01*
X120290000Y-74445000D01*
X120289278Y-74459703D01*
X120287118Y-74474264D01*
X120283541Y-74488543D01*
X120278582Y-74502403D01*
X120272288Y-74515710D01*
X120264720Y-74528336D01*
X120255952Y-74540159D01*
X120246066Y-74551066D01*
X120235159Y-74560952D01*
X120223336Y-74569720D01*
X120210710Y-74577288D01*
X120197403Y-74583582D01*
X120183543Y-74588541D01*
X120169264Y-74592118D01*
X120154703Y-74594278D01*
X120140000Y-74595000D01*
X118490000Y-74595000D01*
X118475297Y-74594278D01*
X118460736Y-74592118D01*
X118446457Y-74588541D01*
X118432597Y-74583582D01*
X118419290Y-74577288D01*
X118406664Y-74569720D01*
X118394841Y-74560952D01*
X118383934Y-74551066D01*
X118374048Y-74540159D01*
X118365280Y-74528336D01*
X118357712Y-74515710D01*
X118351418Y-74502403D01*
X118346459Y-74488543D01*
X118342882Y-74474264D01*
X118340722Y-74459703D01*
X118340000Y-74445000D01*
X118340000Y-74145000D01*
X118340722Y-74130297D01*
X118342882Y-74115736D01*
X118346459Y-74101457D01*
X118351418Y-74087597D01*
X118357712Y-74074290D01*
X118365280Y-74061664D01*
X118374048Y-74049841D01*
X118383934Y-74038934D01*
X118394841Y-74029048D01*
X118406664Y-74020280D01*
X118419290Y-74012712D01*
X118432597Y-74006418D01*
X118446457Y-74001459D01*
X118460736Y-73997882D01*
X118475297Y-73995722D01*
X118490000Y-73995000D01*
X120140000Y-73995000D01*
X120154703Y-73995722D01*
G37*
G36*
X120154703Y-75265722D02*
G01*
X120169264Y-75267882D01*
X120183543Y-75271459D01*
X120197403Y-75276418D01*
X120210710Y-75282712D01*
X120223336Y-75290280D01*
X120235159Y-75299048D01*
X120246066Y-75308934D01*
X120255952Y-75319841D01*
X120264720Y-75331664D01*
X120272288Y-75344290D01*
X120278582Y-75357597D01*
X120283541Y-75371457D01*
X120287118Y-75385736D01*
X120289278Y-75400297D01*
X120290000Y-75415000D01*
X120290000Y-75715000D01*
X120289278Y-75729703D01*
X120287118Y-75744264D01*
X120283541Y-75758543D01*
X120278582Y-75772403D01*
X120272288Y-75785710D01*
X120264720Y-75798336D01*
X120255952Y-75810159D01*
X120246066Y-75821066D01*
X120235159Y-75830952D01*
X120223336Y-75839720D01*
X120210710Y-75847288D01*
X120197403Y-75853582D01*
X120183543Y-75858541D01*
X120169264Y-75862118D01*
X120154703Y-75864278D01*
X120140000Y-75865000D01*
X118490000Y-75865000D01*
X118475297Y-75864278D01*
X118460736Y-75862118D01*
X118446457Y-75858541D01*
X118432597Y-75853582D01*
X118419290Y-75847288D01*
X118406664Y-75839720D01*
X118394841Y-75830952D01*
X118383934Y-75821066D01*
X118374048Y-75810159D01*
X118365280Y-75798336D01*
X118357712Y-75785710D01*
X118351418Y-75772403D01*
X118346459Y-75758543D01*
X118342882Y-75744264D01*
X118340722Y-75729703D01*
X118340000Y-75715000D01*
X118340000Y-75415000D01*
X118340722Y-75400297D01*
X118342882Y-75385736D01*
X118346459Y-75371457D01*
X118351418Y-75357597D01*
X118357712Y-75344290D01*
X118365280Y-75331664D01*
X118374048Y-75319841D01*
X118383934Y-75308934D01*
X118394841Y-75299048D01*
X118406664Y-75290280D01*
X118419290Y-75282712D01*
X118432597Y-75276418D01*
X118446457Y-75271459D01*
X118460736Y-75267882D01*
X118475297Y-75265722D01*
X118490000Y-75265000D01*
X120140000Y-75265000D01*
X120154703Y-75265722D01*
G37*
G36*
X120154703Y-76535722D02*
G01*
X120169264Y-76537882D01*
X120183543Y-76541459D01*
X120197403Y-76546418D01*
X120210710Y-76552712D01*
X120223336Y-76560280D01*
X120235159Y-76569048D01*
X120246066Y-76578934D01*
X120255952Y-76589841D01*
X120264720Y-76601664D01*
X120272288Y-76614290D01*
X120278582Y-76627597D01*
X120283541Y-76641457D01*
X120287118Y-76655736D01*
X120289278Y-76670297D01*
X120290000Y-76685000D01*
X120290000Y-76985000D01*
X120289278Y-76999703D01*
X120287118Y-77014264D01*
X120283541Y-77028543D01*
X120278582Y-77042403D01*
X120272288Y-77055710D01*
X120264720Y-77068336D01*
X120255952Y-77080159D01*
X120246066Y-77091066D01*
X120235159Y-77100952D01*
X120223336Y-77109720D01*
X120210710Y-77117288D01*
X120197403Y-77123582D01*
X120183543Y-77128541D01*
X120169264Y-77132118D01*
X120154703Y-77134278D01*
X120140000Y-77135000D01*
X118490000Y-77135000D01*
X118475297Y-77134278D01*
X118460736Y-77132118D01*
X118446457Y-77128541D01*
X118432597Y-77123582D01*
X118419290Y-77117288D01*
X118406664Y-77109720D01*
X118394841Y-77100952D01*
X118383934Y-77091066D01*
X118374048Y-77080159D01*
X118365280Y-77068336D01*
X118357712Y-77055710D01*
X118351418Y-77042403D01*
X118346459Y-77028543D01*
X118342882Y-77014264D01*
X118340722Y-76999703D01*
X118340000Y-76985000D01*
X118340000Y-76685000D01*
X118340722Y-76670297D01*
X118342882Y-76655736D01*
X118346459Y-76641457D01*
X118351418Y-76627597D01*
X118357712Y-76614290D01*
X118365280Y-76601664D01*
X118374048Y-76589841D01*
X118383934Y-76578934D01*
X118394841Y-76569048D01*
X118406664Y-76560280D01*
X118419290Y-76552712D01*
X118432597Y-76546418D01*
X118446457Y-76541459D01*
X118460736Y-76537882D01*
X118475297Y-76535722D01*
X118490000Y-76535000D01*
X120140000Y-76535000D01*
X120154703Y-76535722D01*
G37*
G36*
X125109504Y-84596204D02*
G01*
X125133773Y-84599804D01*
X125157571Y-84605765D01*
X125180671Y-84614030D01*
X125202849Y-84624520D01*
X125223893Y-84637133D01*
X125243598Y-84651747D01*
X125261777Y-84668223D01*
X125278253Y-84686402D01*
X125292867Y-84706107D01*
X125305480Y-84727151D01*
X125315970Y-84749329D01*
X125324235Y-84772429D01*
X125330196Y-84796227D01*
X125333796Y-84820496D01*
X125335000Y-84845000D01*
X125335000Y-85595000D01*
X125333796Y-85619504D01*
X125330196Y-85643773D01*
X125324235Y-85667571D01*
X125315970Y-85690671D01*
X125305480Y-85712849D01*
X125292867Y-85733893D01*
X125278253Y-85753598D01*
X125261777Y-85771777D01*
X125243598Y-85788253D01*
X125223893Y-85802867D01*
X125202849Y-85815480D01*
X125180671Y-85825970D01*
X125157571Y-85834235D01*
X125133773Y-85840196D01*
X125109504Y-85843796D01*
X125085000Y-85845000D01*
X123835000Y-85845000D01*
X123810496Y-85843796D01*
X123786227Y-85840196D01*
X123762429Y-85834235D01*
X123739329Y-85825970D01*
X123717151Y-85815480D01*
X123696107Y-85802867D01*
X123676402Y-85788253D01*
X123658223Y-85771777D01*
X123641747Y-85753598D01*
X123627133Y-85733893D01*
X123614520Y-85712849D01*
X123604030Y-85690671D01*
X123595765Y-85667571D01*
X123589804Y-85643773D01*
X123586204Y-85619504D01*
X123585000Y-85595000D01*
X123585000Y-84845000D01*
X123586204Y-84820496D01*
X123589804Y-84796227D01*
X123595765Y-84772429D01*
X123604030Y-84749329D01*
X123614520Y-84727151D01*
X123627133Y-84706107D01*
X123641747Y-84686402D01*
X123658223Y-84668223D01*
X123676402Y-84651747D01*
X123696107Y-84637133D01*
X123717151Y-84624520D01*
X123739329Y-84614030D01*
X123762429Y-84605765D01*
X123786227Y-84599804D01*
X123810496Y-84596204D01*
X123835000Y-84595000D01*
X125085000Y-84595000D01*
X125109504Y-84596204D01*
G37*
G36*
X125109504Y-81796204D02*
G01*
X125133773Y-81799804D01*
X125157571Y-81805765D01*
X125180671Y-81814030D01*
X125202849Y-81824520D01*
X125223893Y-81837133D01*
X125243598Y-81851747D01*
X125261777Y-81868223D01*
X125278253Y-81886402D01*
X125292867Y-81906107D01*
X125305480Y-81927151D01*
X125315970Y-81949329D01*
X125324235Y-81972429D01*
X125330196Y-81996227D01*
X125333796Y-82020496D01*
X125335000Y-82045000D01*
X125335000Y-82795000D01*
X125333796Y-82819504D01*
X125330196Y-82843773D01*
X125324235Y-82867571D01*
X125315970Y-82890671D01*
X125305480Y-82912849D01*
X125292867Y-82933893D01*
X125278253Y-82953598D01*
X125261777Y-82971777D01*
X125243598Y-82988253D01*
X125223893Y-83002867D01*
X125202849Y-83015480D01*
X125180671Y-83025970D01*
X125157571Y-83034235D01*
X125133773Y-83040196D01*
X125109504Y-83043796D01*
X125085000Y-83045000D01*
X123835000Y-83045000D01*
X123810496Y-83043796D01*
X123786227Y-83040196D01*
X123762429Y-83034235D01*
X123739329Y-83025970D01*
X123717151Y-83015480D01*
X123696107Y-83002867D01*
X123676402Y-82988253D01*
X123658223Y-82971777D01*
X123641747Y-82953598D01*
X123627133Y-82933893D01*
X123614520Y-82912849D01*
X123604030Y-82890671D01*
X123595765Y-82867571D01*
X123589804Y-82843773D01*
X123586204Y-82819504D01*
X123585000Y-82795000D01*
X123585000Y-82045000D01*
X123586204Y-82020496D01*
X123589804Y-81996227D01*
X123595765Y-81972429D01*
X123604030Y-81949329D01*
X123614520Y-81927151D01*
X123627133Y-81906107D01*
X123641747Y-81886402D01*
X123658223Y-81868223D01*
X123676402Y-81851747D01*
X123696107Y-81837133D01*
X123717151Y-81824520D01*
X123739329Y-81814030D01*
X123762429Y-81805765D01*
X123786227Y-81799804D01*
X123810496Y-81796204D01*
X123835000Y-81795000D01*
X125085000Y-81795000D01*
X125109504Y-81796204D01*
G37*
G36*
X121934504Y-84596204D02*
G01*
X121958773Y-84599804D01*
X121982571Y-84605765D01*
X122005671Y-84614030D01*
X122027849Y-84624520D01*
X122048893Y-84637133D01*
X122068598Y-84651747D01*
X122086777Y-84668223D01*
X122103253Y-84686402D01*
X122117867Y-84706107D01*
X122130480Y-84727151D01*
X122140970Y-84749329D01*
X122149235Y-84772429D01*
X122155196Y-84796227D01*
X122158796Y-84820496D01*
X122160000Y-84845000D01*
X122160000Y-85595000D01*
X122158796Y-85619504D01*
X122155196Y-85643773D01*
X122149235Y-85667571D01*
X122140970Y-85690671D01*
X122130480Y-85712849D01*
X122117867Y-85733893D01*
X122103253Y-85753598D01*
X122086777Y-85771777D01*
X122068598Y-85788253D01*
X122048893Y-85802867D01*
X122027849Y-85815480D01*
X122005671Y-85825970D01*
X121982571Y-85834235D01*
X121958773Y-85840196D01*
X121934504Y-85843796D01*
X121910000Y-85845000D01*
X120660000Y-85845000D01*
X120635496Y-85843796D01*
X120611227Y-85840196D01*
X120587429Y-85834235D01*
X120564329Y-85825970D01*
X120542151Y-85815480D01*
X120521107Y-85802867D01*
X120501402Y-85788253D01*
X120483223Y-85771777D01*
X120466747Y-85753598D01*
X120452133Y-85733893D01*
X120439520Y-85712849D01*
X120429030Y-85690671D01*
X120420765Y-85667571D01*
X120414804Y-85643773D01*
X120411204Y-85619504D01*
X120410000Y-85595000D01*
X120410000Y-84845000D01*
X120411204Y-84820496D01*
X120414804Y-84796227D01*
X120420765Y-84772429D01*
X120429030Y-84749329D01*
X120439520Y-84727151D01*
X120452133Y-84706107D01*
X120466747Y-84686402D01*
X120483223Y-84668223D01*
X120501402Y-84651747D01*
X120521107Y-84637133D01*
X120542151Y-84624520D01*
X120564329Y-84614030D01*
X120587429Y-84605765D01*
X120611227Y-84599804D01*
X120635496Y-84596204D01*
X120660000Y-84595000D01*
X121910000Y-84595000D01*
X121934504Y-84596204D01*
G37*
G36*
X121934504Y-81796204D02*
G01*
X121958773Y-81799804D01*
X121982571Y-81805765D01*
X122005671Y-81814030D01*
X122027849Y-81824520D01*
X122048893Y-81837133D01*
X122068598Y-81851747D01*
X122086777Y-81868223D01*
X122103253Y-81886402D01*
X122117867Y-81906107D01*
X122130480Y-81927151D01*
X122140970Y-81949329D01*
X122149235Y-81972429D01*
X122155196Y-81996227D01*
X122158796Y-82020496D01*
X122160000Y-82045000D01*
X122160000Y-82795000D01*
X122158796Y-82819504D01*
X122155196Y-82843773D01*
X122149235Y-82867571D01*
X122140970Y-82890671D01*
X122130480Y-82912849D01*
X122117867Y-82933893D01*
X122103253Y-82953598D01*
X122086777Y-82971777D01*
X122068598Y-82988253D01*
X122048893Y-83002867D01*
X122027849Y-83015480D01*
X122005671Y-83025970D01*
X121982571Y-83034235D01*
X121958773Y-83040196D01*
X121934504Y-83043796D01*
X121910000Y-83045000D01*
X120660000Y-83045000D01*
X120635496Y-83043796D01*
X120611227Y-83040196D01*
X120587429Y-83034235D01*
X120564329Y-83025970D01*
X120542151Y-83015480D01*
X120521107Y-83002867D01*
X120501402Y-82988253D01*
X120483223Y-82971777D01*
X120466747Y-82953598D01*
X120452133Y-82933893D01*
X120439520Y-82912849D01*
X120429030Y-82890671D01*
X120420765Y-82867571D01*
X120414804Y-82843773D01*
X120411204Y-82819504D01*
X120410000Y-82795000D01*
X120410000Y-82045000D01*
X120411204Y-82020496D01*
X120414804Y-81996227D01*
X120420765Y-81972429D01*
X120429030Y-81949329D01*
X120439520Y-81927151D01*
X120452133Y-81906107D01*
X120466747Y-81886402D01*
X120483223Y-81868223D01*
X120501402Y-81851747D01*
X120521107Y-81837133D01*
X120542151Y-81824520D01*
X120564329Y-81814030D01*
X120587429Y-81805765D01*
X120611227Y-81799804D01*
X120635496Y-81796204D01*
X120660000Y-81795000D01*
X121910000Y-81795000D01*
X121934504Y-81796204D01*
G37*
G36*
X118759504Y-84596204D02*
G01*
X118783773Y-84599804D01*
X118807571Y-84605765D01*
X118830671Y-84614030D01*
X118852849Y-84624520D01*
X118873893Y-84637133D01*
X118893598Y-84651747D01*
X118911777Y-84668223D01*
X118928253Y-84686402D01*
X118942867Y-84706107D01*
X118955480Y-84727151D01*
X118965970Y-84749329D01*
X118974235Y-84772429D01*
X118980196Y-84796227D01*
X118983796Y-84820496D01*
X118985000Y-84845000D01*
X118985000Y-85595000D01*
X118983796Y-85619504D01*
X118980196Y-85643773D01*
X118974235Y-85667571D01*
X118965970Y-85690671D01*
X118955480Y-85712849D01*
X118942867Y-85733893D01*
X118928253Y-85753598D01*
X118911777Y-85771777D01*
X118893598Y-85788253D01*
X118873893Y-85802867D01*
X118852849Y-85815480D01*
X118830671Y-85825970D01*
X118807571Y-85834235D01*
X118783773Y-85840196D01*
X118759504Y-85843796D01*
X118735000Y-85845000D01*
X117485000Y-85845000D01*
X117460496Y-85843796D01*
X117436227Y-85840196D01*
X117412429Y-85834235D01*
X117389329Y-85825970D01*
X117367151Y-85815480D01*
X117346107Y-85802867D01*
X117326402Y-85788253D01*
X117308223Y-85771777D01*
X117291747Y-85753598D01*
X117277133Y-85733893D01*
X117264520Y-85712849D01*
X117254030Y-85690671D01*
X117245765Y-85667571D01*
X117239804Y-85643773D01*
X117236204Y-85619504D01*
X117235000Y-85595000D01*
X117235000Y-84845000D01*
X117236204Y-84820496D01*
X117239804Y-84796227D01*
X117245765Y-84772429D01*
X117254030Y-84749329D01*
X117264520Y-84727151D01*
X117277133Y-84706107D01*
X117291747Y-84686402D01*
X117308223Y-84668223D01*
X117326402Y-84651747D01*
X117346107Y-84637133D01*
X117367151Y-84624520D01*
X117389329Y-84614030D01*
X117412429Y-84605765D01*
X117436227Y-84599804D01*
X117460496Y-84596204D01*
X117485000Y-84595000D01*
X118735000Y-84595000D01*
X118759504Y-84596204D01*
G37*
G36*
X118759504Y-81796204D02*
G01*
X118783773Y-81799804D01*
X118807571Y-81805765D01*
X118830671Y-81814030D01*
X118852849Y-81824520D01*
X118873893Y-81837133D01*
X118893598Y-81851747D01*
X118911777Y-81868223D01*
X118928253Y-81886402D01*
X118942867Y-81906107D01*
X118955480Y-81927151D01*
X118965970Y-81949329D01*
X118974235Y-81972429D01*
X118980196Y-81996227D01*
X118983796Y-82020496D01*
X118985000Y-82045000D01*
X118985000Y-82795000D01*
X118983796Y-82819504D01*
X118980196Y-82843773D01*
X118974235Y-82867571D01*
X118965970Y-82890671D01*
X118955480Y-82912849D01*
X118942867Y-82933893D01*
X118928253Y-82953598D01*
X118911777Y-82971777D01*
X118893598Y-82988253D01*
X118873893Y-83002867D01*
X118852849Y-83015480D01*
X118830671Y-83025970D01*
X118807571Y-83034235D01*
X118783773Y-83040196D01*
X118759504Y-83043796D01*
X118735000Y-83045000D01*
X117485000Y-83045000D01*
X117460496Y-83043796D01*
X117436227Y-83040196D01*
X117412429Y-83034235D01*
X117389329Y-83025970D01*
X117367151Y-83015480D01*
X117346107Y-83002867D01*
X117326402Y-82988253D01*
X117308223Y-82971777D01*
X117291747Y-82953598D01*
X117277133Y-82933893D01*
X117264520Y-82912849D01*
X117254030Y-82890671D01*
X117245765Y-82867571D01*
X117239804Y-82843773D01*
X117236204Y-82819504D01*
X117235000Y-82795000D01*
X117235000Y-82045000D01*
X117236204Y-82020496D01*
X117239804Y-81996227D01*
X117245765Y-81972429D01*
X117254030Y-81949329D01*
X117264520Y-81927151D01*
X117277133Y-81906107D01*
X117291747Y-81886402D01*
X117308223Y-81868223D01*
X117326402Y-81851747D01*
X117346107Y-81837133D01*
X117367151Y-81824520D01*
X117389329Y-81814030D01*
X117412429Y-81805765D01*
X117436227Y-81799804D01*
X117460496Y-81796204D01*
X117485000Y-81795000D01*
X118735000Y-81795000D01*
X118759504Y-81796204D01*
G37*
G36*
X133999504Y-75706204D02*
G01*
X134023773Y-75709804D01*
X134047571Y-75715765D01*
X134070671Y-75724030D01*
X134092849Y-75734520D01*
X134113893Y-75747133D01*
X134133598Y-75761747D01*
X134151777Y-75778223D01*
X134168253Y-75796402D01*
X134182867Y-75816107D01*
X134195480Y-75837151D01*
X134205970Y-75859329D01*
X134214235Y-75882429D01*
X134220196Y-75906227D01*
X134223796Y-75930496D01*
X134225000Y-75955000D01*
X134225000Y-76705000D01*
X134223796Y-76729504D01*
X134220196Y-76753773D01*
X134214235Y-76777571D01*
X134205970Y-76800671D01*
X134195480Y-76822849D01*
X134182867Y-76843893D01*
X134168253Y-76863598D01*
X134151777Y-76881777D01*
X134133598Y-76898253D01*
X134113893Y-76912867D01*
X134092849Y-76925480D01*
X134070671Y-76935970D01*
X134047571Y-76944235D01*
X134023773Y-76950196D01*
X133999504Y-76953796D01*
X133975000Y-76955000D01*
X132725000Y-76955000D01*
X132700496Y-76953796D01*
X132676227Y-76950196D01*
X132652429Y-76944235D01*
X132629329Y-76935970D01*
X132607151Y-76925480D01*
X132586107Y-76912867D01*
X132566402Y-76898253D01*
X132548223Y-76881777D01*
X132531747Y-76863598D01*
X132517133Y-76843893D01*
X132504520Y-76822849D01*
X132494030Y-76800671D01*
X132485765Y-76777571D01*
X132479804Y-76753773D01*
X132476204Y-76729504D01*
X132475000Y-76705000D01*
X132475000Y-75955000D01*
X132476204Y-75930496D01*
X132479804Y-75906227D01*
X132485765Y-75882429D01*
X132494030Y-75859329D01*
X132504520Y-75837151D01*
X132517133Y-75816107D01*
X132531747Y-75796402D01*
X132548223Y-75778223D01*
X132566402Y-75761747D01*
X132586107Y-75747133D01*
X132607151Y-75734520D01*
X132629329Y-75724030D01*
X132652429Y-75715765D01*
X132676227Y-75709804D01*
X132700496Y-75706204D01*
X132725000Y-75705000D01*
X133975000Y-75705000D01*
X133999504Y-75706204D01*
G37*
G36*
X133999504Y-72906204D02*
G01*
X134023773Y-72909804D01*
X134047571Y-72915765D01*
X134070671Y-72924030D01*
X134092849Y-72934520D01*
X134113893Y-72947133D01*
X134133598Y-72961747D01*
X134151777Y-72978223D01*
X134168253Y-72996402D01*
X134182867Y-73016107D01*
X134195480Y-73037151D01*
X134205970Y-73059329D01*
X134214235Y-73082429D01*
X134220196Y-73106227D01*
X134223796Y-73130496D01*
X134225000Y-73155000D01*
X134225000Y-73905000D01*
X134223796Y-73929504D01*
X134220196Y-73953773D01*
X134214235Y-73977571D01*
X134205970Y-74000671D01*
X134195480Y-74022849D01*
X134182867Y-74043893D01*
X134168253Y-74063598D01*
X134151777Y-74081777D01*
X134133598Y-74098253D01*
X134113893Y-74112867D01*
X134092849Y-74125480D01*
X134070671Y-74135970D01*
X134047571Y-74144235D01*
X134023773Y-74150196D01*
X133999504Y-74153796D01*
X133975000Y-74155000D01*
X132725000Y-74155000D01*
X132700496Y-74153796D01*
X132676227Y-74150196D01*
X132652429Y-74144235D01*
X132629329Y-74135970D01*
X132607151Y-74125480D01*
X132586107Y-74112867D01*
X132566402Y-74098253D01*
X132548223Y-74081777D01*
X132531747Y-74063598D01*
X132517133Y-74043893D01*
X132504520Y-74022849D01*
X132494030Y-74000671D01*
X132485765Y-73977571D01*
X132479804Y-73953773D01*
X132476204Y-73929504D01*
X132475000Y-73905000D01*
X132475000Y-73155000D01*
X132476204Y-73130496D01*
X132479804Y-73106227D01*
X132485765Y-73082429D01*
X132494030Y-73059329D01*
X132504520Y-73037151D01*
X132517133Y-73016107D01*
X132531747Y-72996402D01*
X132548223Y-72978223D01*
X132566402Y-72961747D01*
X132586107Y-72947133D01*
X132607151Y-72934520D01*
X132629329Y-72924030D01*
X132652429Y-72915765D01*
X132676227Y-72909804D01*
X132700496Y-72906204D01*
X132725000Y-72905000D01*
X133975000Y-72905000D01*
X133999504Y-72906204D01*
G37*
G36*
X111139504Y-72906204D02*
G01*
X111163773Y-72909804D01*
X111187571Y-72915765D01*
X111210671Y-72924030D01*
X111232849Y-72934520D01*
X111253893Y-72947133D01*
X111273598Y-72961747D01*
X111291777Y-72978223D01*
X111308253Y-72996402D01*
X111322867Y-73016107D01*
X111335480Y-73037151D01*
X111345970Y-73059329D01*
X111354235Y-73082429D01*
X111360196Y-73106227D01*
X111363796Y-73130496D01*
X111365000Y-73155000D01*
X111365000Y-73905000D01*
X111363796Y-73929504D01*
X111360196Y-73953773D01*
X111354235Y-73977571D01*
X111345970Y-74000671D01*
X111335480Y-74022849D01*
X111322867Y-74043893D01*
X111308253Y-74063598D01*
X111291777Y-74081777D01*
X111273598Y-74098253D01*
X111253893Y-74112867D01*
X111232849Y-74125480D01*
X111210671Y-74135970D01*
X111187571Y-74144235D01*
X111163773Y-74150196D01*
X111139504Y-74153796D01*
X111115000Y-74155000D01*
X109865000Y-74155000D01*
X109840496Y-74153796D01*
X109816227Y-74150196D01*
X109792429Y-74144235D01*
X109769329Y-74135970D01*
X109747151Y-74125480D01*
X109726107Y-74112867D01*
X109706402Y-74098253D01*
X109688223Y-74081777D01*
X109671747Y-74063598D01*
X109657133Y-74043893D01*
X109644520Y-74022849D01*
X109634030Y-74000671D01*
X109625765Y-73977571D01*
X109619804Y-73953773D01*
X109616204Y-73929504D01*
X109615000Y-73905000D01*
X109615000Y-73155000D01*
X109616204Y-73130496D01*
X109619804Y-73106227D01*
X109625765Y-73082429D01*
X109634030Y-73059329D01*
X109644520Y-73037151D01*
X109657133Y-73016107D01*
X109671747Y-72996402D01*
X109688223Y-72978223D01*
X109706402Y-72961747D01*
X109726107Y-72947133D01*
X109747151Y-72934520D01*
X109769329Y-72924030D01*
X109792429Y-72915765D01*
X109816227Y-72909804D01*
X109840496Y-72906204D01*
X109865000Y-72905000D01*
X111115000Y-72905000D01*
X111139504Y-72906204D01*
G37*
G36*
X111139504Y-75706204D02*
G01*
X111163773Y-75709804D01*
X111187571Y-75715765D01*
X111210671Y-75724030D01*
X111232849Y-75734520D01*
X111253893Y-75747133D01*
X111273598Y-75761747D01*
X111291777Y-75778223D01*
X111308253Y-75796402D01*
X111322867Y-75816107D01*
X111335480Y-75837151D01*
X111345970Y-75859329D01*
X111354235Y-75882429D01*
X111360196Y-75906227D01*
X111363796Y-75930496D01*
X111365000Y-75955000D01*
X111365000Y-76705000D01*
X111363796Y-76729504D01*
X111360196Y-76753773D01*
X111354235Y-76777571D01*
X111345970Y-76800671D01*
X111335480Y-76822849D01*
X111322867Y-76843893D01*
X111308253Y-76863598D01*
X111291777Y-76881777D01*
X111273598Y-76898253D01*
X111253893Y-76912867D01*
X111232849Y-76925480D01*
X111210671Y-76935970D01*
X111187571Y-76944235D01*
X111163773Y-76950196D01*
X111139504Y-76953796D01*
X111115000Y-76955000D01*
X109865000Y-76955000D01*
X109840496Y-76953796D01*
X109816227Y-76950196D01*
X109792429Y-76944235D01*
X109769329Y-76935970D01*
X109747151Y-76925480D01*
X109726107Y-76912867D01*
X109706402Y-76898253D01*
X109688223Y-76881777D01*
X109671747Y-76863598D01*
X109657133Y-76843893D01*
X109644520Y-76822849D01*
X109634030Y-76800671D01*
X109625765Y-76777571D01*
X109619804Y-76753773D01*
X109616204Y-76729504D01*
X109615000Y-76705000D01*
X109615000Y-75955000D01*
X109616204Y-75930496D01*
X109619804Y-75906227D01*
X109625765Y-75882429D01*
X109634030Y-75859329D01*
X109644520Y-75837151D01*
X109657133Y-75816107D01*
X109671747Y-75796402D01*
X109688223Y-75778223D01*
X109706402Y-75761747D01*
X109726107Y-75747133D01*
X109747151Y-75734520D01*
X109769329Y-75724030D01*
X109792429Y-75715765D01*
X109816227Y-75709804D01*
X109840496Y-75706204D01*
X109865000Y-75705000D01*
X111115000Y-75705000D01*
X111139504Y-75706204D01*
G37*
D11*
X131220000Y-89490000D03*
X131220000Y-90140000D03*
X131220000Y-90790000D03*
X131220000Y-91440000D03*
X131220000Y-92090000D03*
X131220000Y-92740000D03*
X131220000Y-93390000D03*
X125320000Y-93390000D03*
X125320000Y-92740000D03*
X125320000Y-92090000D03*
X125320000Y-91440000D03*
X125320000Y-90790000D03*
X125320000Y-90140000D03*
X125320000Y-89490000D03*
X118520000Y-89490000D03*
X118520000Y-90140000D03*
X118520000Y-90790000D03*
X118520000Y-91440000D03*
X118520000Y-92090000D03*
X118520000Y-92740000D03*
X118520000Y-93390000D03*
X112620000Y-93390000D03*
X112620000Y-92740000D03*
X112620000Y-92090000D03*
X112620000Y-91440000D03*
X112620000Y-90790000D03*
X112620000Y-90140000D03*
X112620000Y-89490000D03*
X131220000Y-98380000D03*
X131220000Y-99030000D03*
X131220000Y-99680000D03*
X131220000Y-100330000D03*
X131220000Y-100980000D03*
X131220000Y-101630000D03*
X131220000Y-102280000D03*
X125320000Y-102280000D03*
X125320000Y-101630000D03*
X125320000Y-100980000D03*
X125320000Y-100330000D03*
X125320000Y-99680000D03*
X125320000Y-99030000D03*
X125320000Y-98380000D03*
X118520000Y-98380000D03*
X118520000Y-99030000D03*
X118520000Y-99680000D03*
X118520000Y-100330000D03*
X118520000Y-100980000D03*
X118520000Y-101630000D03*
X118520000Y-102280000D03*
X112620000Y-102280000D03*
X112620000Y-101630000D03*
X112620000Y-100980000D03*
X112620000Y-100330000D03*
X112620000Y-99680000D03*
X112620000Y-99030000D03*
X112620000Y-98380000D03*
M02*
